<svg width="12" height="169" viewBox="0 0 12 169" fill="none" xmlns="http://www.w3.org/2000/svg">
<path fill-rule="evenodd" clip-rule="evenodd" d="M1.18805 168.352C7.68805 168.352 10.688 168.352 10.688 168.352C10.688 168.352 10.8025 118.599 11.2491 14.2698C11.2491 9.7732 9.67836 5.72322 6.75253 1.90424C3.14913 -2.36903 0.90085 0.549112 0 10.6664C0.677562 119.277 1.18805 168.352 1.18805 168.352Z" fill="#287F3A"/>
<path fill-rule="evenodd" clip-rule="evenodd" d="M1.18805 168.352H2.92584V4.59912H0.90085C0.446575 6.16983 0.223287 8.19482 0 10.6664C0.677562 119.277 1.18805 168.352 1.18805 168.352Z" fill="#9ECF52"/>
<path fill-rule="evenodd" clip-rule="evenodd" d="M11.0258 11.7905C10.5792 8.19479 9.22409 5.04566 6.75253 1.90424C3.14913 -2.36903 0.90085 0.549112 0 10.6663C0.90085 15.6172 2.92584 18.543 6.52924 19.4362C9.90165 19.4362 11.2491 16.7413 11.0258 11.7905Z" fill="#F1D33D"/>
<path d="M1.12414 129.394C2.47156 129.84 4.04998 130.064 5.62839 130.064C7.1991 130.064 8.77751 129.84 10.3482 129.394L11.0258 131.188C9.0008 131.642 7.1991 131.865 5.62839 131.865C3.82669 131.865 2.02499 131.642 0.446575 130.964L1.12414 129.394ZM0.446575 71.6007C2.47156 72.055 4.27326 72.055 5.85168 72.055C7.65337 72.055 9.22409 72.055 10.8025 71.6007L11.0258 73.4024C9.44737 73.849 7.65337 74.08 5.85168 73.849C4.04997 73.849 2.24827 73.849 0.223288 73.4024L0.446575 71.6007ZM0.446575 42.5964C4.04998 43.274 7.42239 43.274 11.0258 42.8197L11.2491 44.3981C7.65338 45.0757 3.82669 45.0757 0 44.3981L0.446575 42.5964ZM0.677562 99.7119C2.47156 99.9352 4.04998 100.158 5.62839 100.158C7.42239 100.158 9.0008 99.9352 10.5792 99.7119L11.0258 101.506C9.22409 101.737 7.42239 101.96 5.62839 101.96C4.04998 101.96 2.24827 101.737 0.446575 101.506L0.677562 99.7119Z" fill="#114522"/>
</svg>
