<svg width="9" height="130" viewBox="0 0 9 130" fill="none" xmlns="http://www.w3.org/2000/svg">
<path fill-rule="evenodd" clip-rule="evenodd" d="M0.917401 130C5.93665 130 8.25322 130 8.25322 130C8.25322 130 8.3416 91.5811 8.68644 11.019C8.68644 7.54678 7.47355 4.41942 5.21424 1.47044C2.43173 -1.82934 0.695628 0.42402 0 8.23646C0.523208 92.1043 0.917401 130 0.917401 130Z" fill="#287F3A"/>
<path fill-rule="evenodd" clip-rule="evenodd" d="M0.917401 130H2.25931V3.55139H0.695629C0.344841 4.76428 0.17242 6.32796 0 8.23648C0.523208 92.1043 0.917401 130 0.917401 130Z" fill="#9ECF52"/>
<path fill-rule="evenodd" clip-rule="evenodd" d="M8.51402 9.10451C8.16918 6.32794 7.12276 3.89622 5.21424 1.47044C2.43173 -1.82934 0.695628 0.42402 0 8.23646C0.695628 12.0594 2.25931 14.3188 5.04182 15.0084C7.64597 15.0084 8.68644 12.9275 8.51402 9.10451Z" fill="#F1D33D"/>
<path d="M0.868049 99.9167C1.90852 100.262 3.12736 100.434 4.34619 100.434C5.55908 100.434 6.77792 100.262 7.99081 99.9167L8.51402 101.302C6.95034 101.653 5.55908 101.825 4.34619 101.825C2.95494 101.825 1.56368 101.653 0.344842 101.13L0.868049 99.9167ZM0.344842 55.2894C1.90852 55.6402 3.29978 55.6402 4.51861 55.6402C5.90987 55.6402 7.12276 55.6402 8.3416 55.2894L8.51402 56.6807C7.29518 57.0255 5.90987 57.2039 4.51861 57.0255C3.12736 57.0255 1.7361 57.0255 0.172421 56.6807L0.344842 55.2894ZM0.344842 32.8926C3.12736 33.4158 5.7315 33.4158 8.51402 33.065L8.68644 34.2838C5.90987 34.807 2.95493 34.807 0 34.2838L0.344842 32.8926ZM0.523208 76.9966C1.90852 77.169 3.12736 77.3415 4.34619 77.3415C5.7315 77.3415 6.95034 77.169 8.16918 76.9966L8.51402 78.3819C7.12276 78.5603 5.7315 78.7327 4.34619 78.7327C3.12736 78.7327 1.7361 78.5603 0.344842 78.3819L0.523208 76.9966Z" fill="#114522"/>
</svg>
