<svg width="314" height="173" viewBox="0 0 314 173" fill="none" xmlns="http://www.w3.org/2000/svg">
<path d="M14.044 40.8155V40.6615L18.3404 156.602C18.4251 158.835 16.6773 160.713 14.4444 160.79C12.2038 160.875 10.3251 159.135 10.2405 156.902L5.94409 40.9618C5.94409 40.9156 5.94409 40.8617 5.94409 40.8155C5.94409 38.5826 7.75349 36.7655 9.99407 36.7655C12.2269 36.7655 14.044 38.5826 14.044 40.8155Z" fill="black"/>
<path d="M111.644 43.9108V134.081C111.644 136.313 109.827 138.123 107.594 138.123C105.353 138.123 103.544 136.313 103.544 134.081V43.9108C103.544 41.6702 105.353 39.8608 107.594 39.8608C109.827 39.8608 111.644 41.6702 111.644 43.9108Z" fill="black"/>
<path d="M209.421 41.0618V131.232C209.421 133.472 207.604 135.281 205.371 135.281C203.13 135.281 201.313 133.472 201.313 131.232V41.0618C201.313 38.8289 203.13 37.0195 205.371 37.0195C207.604 37.0195 209.421 38.8289 209.421 41.0618Z" fill="black"/>
<mask id="mask0_80_23" style="mask-type:luminance" maskUnits="userSpaceOnUse" x="0" y="146" width="32" height="27">
<path d="M0 146.292H31.5375V172.94H0V146.292Z" fill="white"/>
</mask>
<g mask="url(#mask0_80_23)">
<path d="M1.99417 165.164L23.4837 147.986C25.2315 146.592 27.78 146.877 29.1814 148.617C30.575 150.365 30.2901 152.914 28.55 154.307L7.05279 171.485C5.30498 172.879 2.75643 172.594 1.3628 170.854C-0.0385187 169.106 0.246364 166.557 1.99417 165.164Z" fill="black"/>
</g>
<path d="M303.594 153.699L295.494 153.553L299.791 37.6124C299.875 35.3796 301.754 33.6395 303.994 33.7242C306.227 33.8012 307.975 35.6798 307.89 37.9127L303.594 153.845C303.509 156.055 301.677 157.787 299.467 157.741C297.257 157.703 295.494 155.901 295.494 153.699C295.494 151.466 297.304 149.657 299.544 149.657C301.777 149.657 303.594 151.466 303.594 153.699Z" fill="black"/>
<path d="M16.531 134.589L297.465 131.386C299.698 131.355 301.531 133.149 301.554 135.382C301.585 137.615 299.791 139.439 297.558 139.47L16.6234 142.673C14.3828 142.696 12.5503 140.91 12.5272 138.677C12.5041 136.444 14.2904 134.612 16.531 134.589Z" fill="black"/>
<path d="M10.4406 49.5237L9.10861 48.1994L301.723 44.7038C302.447 44.6961 303.048 45.2813 303.055 46.005C303.063 46.7365 302.478 47.3294 301.754 47.3371L9.13941 50.8404C8.78523 50.8404 8.44645 50.7095 8.19236 50.4554C7.94597 50.209 7.79968 49.8702 7.79968 49.5237C7.79968 48.7923 8.39255 48.1994 9.12401 48.1994C9.84777 48.1994 10.4406 48.7923 10.4406 49.5237Z" fill="black"/>
<mask id="mask1_80_23" style="mask-type:luminance" maskUnits="userSpaceOnUse" x="279" y="142" width="35" height="25">
<path d="M279.895 142.35H313.319V166.003H279.895V142.35Z" fill="white"/>
</mask>
<g mask="url(#mask1_80_23)">
<path d="M306.574 164.394L283.121 150.003C281.219 148.833 280.619 146.338 281.789 144.436C282.959 142.535 285.454 141.934 287.363 143.104L310.816 157.495C312.726 158.665 313.319 161.16 312.148 163.062C310.978 164.963 308.483 165.564 306.574 164.394Z" fill="black"/>
</g>
<path d="M137.976 4.68142L137.122 4.05005C143.158 2.14826 149.48 1.17041 155.809 1.17041C156.594 1.17041 157.387 1.18581 158.18 1.21661C163.554 1.42449 168.898 2.33305 174.034 3.91916C174.38 4.02695 174.58 4.39653 174.472 4.74301C174.365 5.08949 173.995 5.28198 173.649 5.17419C168.621 3.62657 163.385 2.73342 158.126 2.52553C157.356 2.49474 156.579 2.48704 155.809 2.48704C149.618 2.48704 143.42 3.43409 137.522 5.30508C137.322 5.36668 137.106 5.32818 136.937 5.20499C136.768 5.08179 136.667 4.8893 136.667 4.68142C136.667 4.31184 136.96 4.01925 137.322 4.01925C137.684 4.01925 137.976 4.31184 137.976 4.68142Z" fill="black"/>
<path d="M194.614 28.296C185.644 29.3894 176.667 30.4827 164.116 30.5135C163.916 30.5135 163.716 30.5212 163.516 30.5212C151.058 30.5212 135.189 29.5049 119.32 28.4962C119.436 36.8964 119.544 45.3044 119.898 57.8316C120.244 70.3588 120.837 87.0053 121.43 103.652C121.746 106.139 122.054 108.626 124.556 110.751C127.051 112.876 131.724 114.639 137.522 115.74C143.266 116.833 150.103 117.272 158.819 117.272C158.904 117.272 158.989 117.272 159.073 117.272C167.897 117.265 178.646 116.81 184.466 114.739C190.295 112.676 191.211 108.995 192.12 105.315L194.614 28.296Z" fill="#F2BA03"/>
<path d="M193.475 23.6377C190.942 24.1844 188.409 24.731 179.477 25.2161C172.578 25.5857 161.86 25.9245 152.082 25.9245C149.202 25.9245 146.4 25.8937 143.805 25.8321C132.402 25.5395 124.933 24.5308 117.465 23.5222C119.674 18.8178 121.892 14.1133 125.503 10.7409C129.114 7.36849 134.134 5.33581 139.147 3.30312L139.663 15.2606L172.648 15.2914L172.293 2.97974C174.873 3.47251 177.444 3.96528 180.486 6.08266C183.527 8.20005 187.023 11.9343 190.518 15.6686L193.475 23.6377Z" fill="#F2BA03"/>
<path d="M141.68 15.1451L141.865 2.70262C146.392 1.57848 150.927 0.454346 155.601 0.454346C155.601 0.454346 155.608 0.454346 155.616 0.454346C160.29 0.462045 165.11 1.58618 169.922 2.71802L170.153 15.7149L141.68 15.1451Z" fill="#FFDE76"/>
<path d="M113.076 23.3221L113.014 27.2104C121.515 28.3807 130.023 29.5511 142.819 29.913C146.076 30.013 149.61 30.0515 153.229 30.0515C163.862 30.0515 175.296 29.6974 182.873 29.2893C193.021 28.7426 196.239 28.0805 199.457 27.4183L199.188 22.8293C196.824 23.53 194.468 24.2384 187.4 24.8004C180.332 25.3548 168.559 25.7629 156.786 26.171L131.224 25.0083L113.076 23.3221Z" fill="#FFDE76"/>
<mask id="mask2_80_23" style="mask-type:luminance" maskUnits="userSpaceOnUse" x="139" y="0" width="33" height="17">
<path d="M139.947 0H171.485V16.1999H139.947V0Z" fill="white"/>
</mask>
<g mask="url(#mask2_80_23)">
<path d="M141.064 14.9372L141.503 2.56394C141.51 2.33295 141.672 2.13276 141.895 2.07116C146.538 0.746837 151.374 0.0692749 156.201 0.0692749C156.748 0.0692749 157.294 0.084675 157.841 0.100073C161.914 0.230967 165.964 0.831532 169.899 1.90177C170.122 1.97107 170.284 2.17126 170.291 2.40995L170.576 15.0834C170.584 15.3837 170.353 15.6301 170.053 15.6378C169.76 15.6378 169.514 15.4068 169.506 15.1142L169.221 2.43304L169.614 2.94122C165.764 1.89407 161.791 1.29351 157.81 1.17031C157.271 1.15492 156.74 1.14722 156.201 1.14722C151.474 1.14722 146.738 1.80168 142.188 3.10291L142.581 2.60243L142.134 14.9679C142.126 15.2682 141.872 15.4992 141.58 15.4915C141.287 15.4761 141.056 15.2297 141.064 14.9372Z" fill="#FFDE76"/>
</g>
<path d="M118.196 23.4607L117.149 23.299C118.874 17.6013 122.331 12.4349 126.943 8.6621C130.6 5.67467 134.966 3.56499 139.57 2.54864C139.732 2.51784 139.901 2.55634 140.032 2.65644C140.155 2.76423 140.232 2.92592 140.225 3.08761L139.886 15.0681L139.355 14.5138L172.463 14.8295L171.924 15.3915L171.392 2.91052C171.392 2.74113 171.462 2.57944 171.585 2.47165C171.716 2.37155 171.885 2.32535 172.047 2.36385C178.461 3.73437 184.382 7.31468 188.57 12.3579C191.188 15.5224 193.144 19.2336 194.252 23.1912C194.337 23.4761 194.168 23.7687 193.883 23.8534C193.598 23.9304 193.298 23.761 193.221 23.4761C192.15 19.6725 190.272 16.0845 187.739 13.0432C183.704 8.18473 177.999 4.72762 171.816 3.41099L172.47 2.86432L172.994 15.3453C172.994 15.4916 172.94 15.6302 172.84 15.738C172.74 15.8458 172.601 15.8997 172.447 15.8997L139.339 15.5917C139.201 15.584 139.062 15.5301 138.962 15.4223C138.862 15.3222 138.808 15.1836 138.808 15.0373L139.154 3.05681L139.801 3.59578C135.358 4.57363 131.147 6.61402 127.62 9.49366C123.17 13.1279 119.836 18.1095 118.173 23.6147C118.096 23.8688 117.85 24.0227 117.588 23.9843C117.318 23.9458 117.126 23.7225 117.126 23.4607C117.126 23.1604 117.365 22.9217 117.665 22.9217C117.957 22.9217 118.196 23.1604 118.196 23.4607Z" fill="#F2BA03"/>
<path d="M119.967 28.6117V28.5963C120.375 50.8866 120.783 73.1692 121.13 87.0746C121.476 101.088 121.784 106.377 124.641 109.858C127.489 113.33 133.002 115.109 142.38 115.994C147 116.425 152.528 116.641 158.026 116.641C163.608 116.641 169.144 116.418 173.648 115.986C182.649 115.109 187.369 113.399 189.656 110.127C191.781 107.093 191.919 102.628 192.22 91.0476C192.251 90.0081 192.281 88.9225 192.312 87.7675C192.689 73.8621 193.529 51.3255 194.368 28.7888C194.383 28.4885 194.63 28.2575 194.93 28.2729C195.223 28.2806 195.454 28.527 195.446 28.8273C194.607 51.364 193.767 73.9006 193.382 87.7983C193.352 88.9533 193.321 90.0312 193.298 91.0707C192.997 102.458 192.89 107.371 190.534 110.743C187.939 114.454 182.734 116.179 173.756 117.049C169.206 117.488 163.631 117.711 158.026 117.711C152.505 117.711 146.946 117.496 142.273 117.057C132.91 116.179 126.974 114.385 123.809 110.535C120.66 106.701 120.398 100.918 120.059 87.1054C119.713 73.1846 119.305 50.902 118.889 28.6194V28.6117C118.889 28.3114 119.135 28.0728 119.428 28.0728C119.728 28.0728 119.967 28.3114 119.967 28.6117Z" fill="#F2BA03"/>
<path d="M199.457 28.1728C193.975 28.8504 188.478 29.3971 182.973 29.8282C174.01 30.5289 165.017 30.8985 156.032 30.8985C145.614 30.8985 135.197 30.398 124.833 29.3355C120.791 28.9197 116.764 28.4192 112.737 27.8418C112.468 27.7956 112.275 27.5646 112.283 27.2874L112.445 23.1142C112.452 22.9679 112.522 22.8293 112.637 22.7292C112.752 22.6368 112.899 22.5906 113.053 22.606C119.074 23.3606 125.118 23.9766 131.17 24.4539C139.955 25.1392 148.763 25.5242 157.572 25.5242C164.494 25.5242 171.408 25.2855 178.307 24.7696C185.275 24.2461 192.227 23.4376 199.134 22.352C199.288 22.3289 199.442 22.3674 199.557 22.4674C199.681 22.5598 199.75 22.7061 199.75 22.8601L199.927 27.6185C199.935 27.8956 199.735 28.1343 199.457 28.1728ZM199.326 27.1103L198.857 27.657L198.68 22.8986L199.303 23.4068C192.366 24.5078 185.383 25.3086 178.384 25.8322C171.462 26.3557 164.517 26.5944 157.572 26.5944C148.733 26.5944 139.893 26.2017 131.085 25.5165C125.018 25.0468 118.958 24.4308 112.914 23.6686L113.515 23.1604L113.353 27.3336L112.899 26.7792C116.903 27.3644 120.922 27.8571 124.949 28.2729C135.274 29.3278 145.645 29.8282 156.032 29.8282C164.994 29.8282 173.956 29.4587 182.888 28.758C188.378 28.3345 193.86 27.7802 199.326 27.1103Z" fill="#FFDE76"/>
<path d="M148.425 61.589L143.597 58.1627C147.162 54.6825 150.719 51.21 153.953 51.21C153.968 51.21 153.984 51.21 153.999 51.21C157.248 51.2408 160.167 54.798 163.077 58.3475L165.348 56.7768L165.433 62.2127L159.681 60.8113L162.153 58.8248C159.889 57.1232 157.626 55.4293 155.531 55.4293C155.285 55.4293 155.046 55.4524 154.815 55.4986C152.529 55.9606 150.473 58.7786 148.425 61.589Z" fill="#FEFEFE"/>
<path d="M164.432 68.0951L169.822 65.6389C171.054 70.4512 172.278 75.2711 170.661 78.0737C170.653 78.0814 170.646 78.0968 170.638 78.1045C168.99 80.8995 164.455 81.6463 159.912 82.3932L160.143 85.1419L155.385 82.501L159.473 78.2277L159.966 81.3537C162.569 80.245 165.179 79.1363 166.226 77.3269C166.342 77.119 166.442 76.8957 166.519 76.6724C167.265 74.4626 165.849 71.275 164.432 68.0951Z" fill="#FEFEFE"/>
<path d="M150.788 78.6897L150.226 84.5799C145.43 83.2402 140.64 81.8927 139.023 79.0901C139.016 79.0824 139.008 79.067 139 79.0593C137.407 76.2335 139.023 71.9295 140.648 67.6331L138.153 66.4551L142.819 63.6678L144.482 69.3347L141.526 68.1952C141.187 71.0055 140.841 73.8159 141.888 75.6253C142.011 75.8332 142.15 76.0257 142.311 76.2105C143.851 77.9583 147.324 78.3201 150.788 78.6897Z" fill="#FEFEFE"/>
<path d="M40.9694 4.68142L40.1148 4.05005C46.1436 2.14826 52.4726 1.17041 58.8017 1.17041C59.587 1.17041 60.3801 1.18581 61.1731 1.21661C66.5397 1.42449 71.8909 2.33305 77.0265 3.91916C77.373 4.02695 77.5655 4.39653 77.4654 4.74301C77.3576 5.08949 76.9881 5.28198 76.6416 5.17419C71.6138 3.62657 66.378 2.73342 61.1192 2.52553C60.3493 2.49474 59.5716 2.48704 58.8017 2.48704C52.6035 2.48704 46.413 3.43409 40.5152 5.30508C40.315 5.36668 40.0917 5.32818 39.9223 5.20499C39.7606 5.08179 39.6605 4.8893 39.6605 4.68142C39.6605 4.31184 39.9531 4.01925 40.315 4.01925C40.6769 4.01925 40.9694 4.31184 40.9694 4.68142Z" fill="black"/>
<path d="M97.6075 28.296C88.6298 29.3894 79.6598 30.4827 67.1095 30.5135C66.9093 30.5135 66.7091 30.5212 66.5089 30.5212C54.051 30.5212 38.1822 29.5049 22.3134 28.4962C22.4288 36.8964 22.5366 45.3044 22.8908 57.8316C23.2373 70.3588 23.8302 87.0053 24.423 103.652C24.731 106.139 25.0467 108.626 27.5414 110.751C30.0437 112.876 34.7174 114.639 40.5151 115.74C46.259 116.833 53.0962 117.272 61.8045 117.272C61.8892 117.272 61.9739 117.272 62.0586 117.272C70.89 117.265 81.6309 116.81 87.4594 114.739C93.288 112.676 94.1966 108.995 95.1128 105.315L97.6075 28.296Z" fill="#005B2A"/>
<path d="M96.4679 23.6377C93.9348 24.1844 91.4016 24.731 82.4701 25.2161C75.5713 25.5857 64.8535 25.9245 55.075 25.9245C52.1954 25.9245 49.3928 25.8937 46.798 25.8321C35.3949 25.5395 27.9263 24.5308 20.4578 23.5222C22.6675 18.8178 24.8773 14.1133 28.4961 10.7409C32.1072 7.36849 37.1196 5.33581 42.1398 3.30312L42.6556 15.2606L75.6406 15.2914L75.2864 2.97974C77.8581 3.47251 80.4374 3.96528 83.4788 6.08266C86.5124 8.20005 90.0157 11.9343 93.5113 15.6686L96.4679 23.6377Z" fill="#005B2A"/>
<path d="M44.6729 15.1451L44.8499 2.70262C49.385 1.57848 53.92 0.454346 58.586 0.454346C58.5937 0.454346 58.6014 0.454346 58.6091 0.454346C63.2827 0.462045 68.1027 1.58618 72.9149 2.71802L73.1459 15.7149L44.6729 15.1451Z" fill="#C2F0D1"/>
<path d="M16.069 23.3221L16.0074 27.2104C24.5078 28.3807 33.0158 29.5511 45.8125 29.913C49.0694 30.013 52.5958 30.0515 56.2223 30.0515C66.8554 30.0515 78.2893 29.6974 85.858 29.2893C96.0137 28.7426 99.2321 28.0805 102.451 27.4183L102.181 22.8293C99.8173 23.53 97.4612 24.2384 90.393 24.8004C83.3248 25.3548 71.5522 25.7629 59.7795 26.171L34.2169 25.0083L16.069 23.3221Z" fill="#C2F0D1"/>
<mask id="mask3_80_23" style="mask-type:luminance" maskUnits="userSpaceOnUse" x="43" y="0" width="32" height="17">
<path d="M43.3639 0H74.9013V16.1999H43.3639V0Z" fill="white"/>
</mask>
<g mask="url(#mask3_80_23)">
<path d="M44.0569 14.9372L44.4958 2.56394C44.5035 2.33295 44.6651 2.13276 44.8884 2.07116C49.5313 0.746837 54.3589 0.0692749 59.1942 0.0692749C59.7409 0.0692749 60.2876 0.084675 60.8343 0.100073C64.9073 0.230967 68.9573 0.831532 72.8841 1.90177C73.1151 1.97107 73.2768 2.17126 73.2845 2.40995L73.5693 15.0834C73.577 15.3837 73.3461 15.6301 73.0458 15.6378C72.7532 15.6378 72.5068 15.4068 72.4991 15.1142L72.2065 2.43304L72.6069 2.94122C68.7571 1.89407 64.7841 1.29351 60.7958 1.17031C60.2645 1.15492 59.7332 1.14722 59.1942 1.14722C54.459 1.14722 49.7315 1.80168 45.181 3.10291L45.566 2.60243L45.1271 14.9679C45.1194 15.2682 44.8653 15.4992 44.5728 15.4915C44.2725 15.4761 44.0415 15.2297 44.0569 14.9372Z" fill="#C2F0D1"/>
</g>
<path d="M21.1893 23.4607L20.1421 23.299C21.8668 17.6013 25.3239 12.4349 29.936 8.6621C33.5933 5.67467 37.9512 3.56499 42.5633 2.54864C42.725 2.51784 42.8944 2.55634 43.0252 2.65644C43.1484 2.76423 43.2177 2.92592 43.2177 3.08761L42.879 15.0681L42.3477 14.5138L75.4558 14.8295L74.9092 15.3915L74.3856 2.91052C74.3779 2.74113 74.4472 2.57944 74.5781 2.47165C74.7013 2.37155 74.8707 2.32535 75.0324 2.36385C81.4538 3.73437 87.3748 7.31468 91.5557 12.3579C94.1812 15.5224 96.1369 19.2336 97.2456 23.1912C97.3226 23.4761 97.1609 23.7687 96.8761 23.8534C96.5912 23.9304 96.2909 23.761 96.2139 23.4761C95.1437 19.6725 93.265 16.0845 90.7318 13.0432C86.6972 8.18473 80.9918 4.72762 74.8091 3.41099L75.4558 2.86432L75.9871 15.3453C75.9871 15.4916 75.9332 15.6302 75.8331 15.738C75.733 15.8458 75.5867 15.8997 75.4405 15.8997L42.3323 15.5917C42.1937 15.584 42.0551 15.5301 41.955 15.4223C41.8549 15.3222 41.801 15.1836 41.801 15.0373L42.1475 3.05681L42.7943 3.59578C38.3516 4.57363 34.1399 6.61402 30.6135 9.49366C26.1632 13.1279 22.8293 18.1095 21.1662 23.6147C21.0892 23.8688 20.8428 24.0227 20.5733 23.9843C20.3115 23.9458 20.119 23.7225 20.119 23.4607C20.119 23.1604 20.3577 22.9217 20.658 22.9217C20.9506 22.9217 21.1893 23.1604 21.1893 23.4607Z" fill="#005B2A"/>
<path d="M22.9601 28.6117V28.5963C23.3682 50.8866 23.7763 73.1615 24.1228 87.0746C24.4693 101.088 24.7772 106.377 27.6338 109.858C30.4826 113.33 35.9955 115.109 45.3659 115.994C49.9933 116.425 55.5216 116.641 61.0191 116.641C66.6013 116.641 72.1373 116.418 76.6416 115.986C85.6424 115.109 90.3622 113.399 92.649 110.127C94.7741 107.093 94.9127 102.628 95.2129 91.0476C95.2437 90.0081 95.2668 88.9225 95.3053 87.7675C95.6826 73.8621 96.5219 51.3255 97.3611 28.7888C97.3765 28.4885 97.6229 28.2575 97.9232 28.2729C98.2158 28.2806 98.4468 28.527 98.4391 28.8273C97.5921 51.364 96.7529 73.9006 96.3756 87.7983C96.3448 88.9533 96.314 90.0312 96.2832 91.0707C95.9906 102.458 95.8828 107.371 93.5267 110.743C90.932 114.454 85.7271 116.179 76.7494 117.049C72.1989 117.488 66.6244 117.711 61.0191 117.711C55.4985 117.711 49.9394 117.496 45.2658 117.057C35.9031 116.179 29.9591 114.385 26.8022 110.535C23.6531 106.701 23.3913 100.918 23.0448 87.1054C22.6984 73.1846 22.2903 50.902 21.8822 28.6194V28.6117C21.8822 28.3114 22.1209 28.0728 22.4212 28.0728C22.7138 28.0728 22.9601 28.3114 22.9601 28.6117Z" fill="#005B2A"/>
<path d="M102.451 28.1728C96.9685 28.8504 91.471 29.3971 85.9658 29.8282C77.0035 30.5289 68.0104 30.8985 59.025 30.8985C48.6074 30.8985 38.1899 30.398 27.8263 29.3355C23.784 28.9197 19.7571 28.4192 15.7303 27.8418C15.4608 27.7956 15.2606 27.5646 15.276 27.2874L15.4377 23.1142C15.4454 22.9679 15.5147 22.8293 15.6302 22.7292C15.7457 22.6368 15.8919 22.5906 16.0382 22.606C22.067 23.3606 28.1112 23.9766 34.163 24.4539C42.9482 25.1392 51.7566 25.5242 60.5649 25.5242C67.4868 25.5242 74.401 25.2855 81.2998 24.7696C88.2679 24.2461 95.2206 23.4376 102.127 22.352C102.281 22.3289 102.435 22.3674 102.551 22.4674C102.666 22.5598 102.743 22.7061 102.743 22.8601L102.92 27.6185C102.928 27.8956 102.728 28.1343 102.451 28.1728ZM102.32 27.1103L101.85 27.657L101.673 22.8986L102.297 23.4068C95.3592 24.5078 88.3757 25.3086 81.3768 25.8322C74.4472 26.3557 67.5099 26.5944 60.5649 26.5944C51.7258 26.5944 42.8866 26.2017 34.0783 25.5165C28.0111 25.0468 21.9515 24.4308 15.9073 23.6686L16.5079 23.1604L16.3462 27.3336L15.8842 26.7792C19.8957 27.3644 23.9149 27.8571 27.9418 28.2729C38.2592 29.3278 48.6382 29.8282 59.025 29.8282C67.9796 29.8282 76.9496 29.4587 85.8811 28.758C91.3709 28.3345 96.853 27.7802 102.32 27.1103Z" fill="#C2F0D1"/>
<path d="M51.4177 61.589L46.5901 58.1627C50.155 54.6825 53.7122 51.21 56.946 51.21C56.9614 51.21 56.9768 51.21 56.9922 51.21C60.2414 51.2408 63.1519 54.798 66.07 58.3475L68.3414 56.7768L68.4261 62.2127L62.6745 60.8113L65.1461 58.8248C62.8824 57.1232 60.6187 55.4293 58.5244 55.4293C58.278 55.4293 58.0394 55.4524 57.8084 55.4986C55.5139 55.9606 53.4658 58.7786 51.4177 61.589Z" fill="#FEFEFE"/>
<path d="M67.4252 68.0951L72.8149 65.6389C74.0391 70.4512 75.271 75.2711 73.6541 78.0737C73.6464 78.0814 73.6387 78.0968 73.631 78.1045C71.9833 80.8995 67.4483 81.6463 62.9055 82.3932L63.1365 85.1419L58.3782 82.501L62.4666 78.2277L62.9517 81.3537C65.5619 80.245 68.1643 79.1363 69.2115 77.3269C69.3347 77.119 69.4348 76.8957 69.5118 76.6724C70.2586 74.4626 68.8419 71.275 67.4252 68.0951Z" fill="#FEFEFE"/>
<path d="M53.7816 78.6897L53.2195 84.5799C48.4227 83.2402 43.6336 81.8927 42.0167 79.0901C42.009 79.0824 42.0013 79.067 41.9936 79.0593C40.3997 76.2335 42.0167 71.9295 43.6413 67.6331L41.1466 66.4551L45.8125 63.6678L47.4757 69.3347L44.519 68.1952C44.1725 71.0055 43.8338 73.8159 44.8809 75.6253C45.0041 75.8332 45.1427 76.0257 45.3044 76.2105C46.8443 77.9583 50.3091 78.3201 53.7816 78.6897Z" fill="#FEFEFE"/>
<path d="M236.485 4.68142L235.63 4.05005C241.659 2.14826 247.988 1.17041 254.309 1.17041C255.102 1.17041 255.895 1.18581 256.681 1.21661C262.055 1.42449 267.406 2.33305 272.542 3.91916C272.888 4.02695 273.081 4.39653 272.973 4.74301C272.865 5.08949 272.503 5.28198 272.157 5.17419C267.121 3.62657 261.893 2.73342 256.635 2.52553C255.857 2.49474 255.087 2.48704 254.309 2.48704C248.119 2.48704 241.928 3.43409 236.023 5.30508C235.823 5.36668 235.607 5.32818 235.438 5.20499C235.268 5.08179 235.168 4.8893 235.168 4.68142C235.168 4.31184 235.468 4.01925 235.83 4.01925C236.192 4.01925 236.485 4.31184 236.485 4.68142Z" fill="black"/>
<path d="M293.123 28.296C284.145 29.3894 275.167 30.4827 262.625 30.5135C262.425 30.5135 262.224 30.5212 262.024 30.5212C249.566 30.5212 233.697 29.5049 217.829 28.4962C217.936 36.8964 218.052 45.3044 218.398 57.8316C218.753 70.3588 219.345 87.0053 219.931 103.652C220.246 106.139 220.562 108.626 223.057 110.751C225.551 112.876 230.233 114.639 236.03 115.74C241.774 116.833 248.612 117.272 257.32 117.272C257.404 117.272 257.489 117.272 257.574 117.272C266.405 117.265 277.146 116.81 282.975 114.739C288.803 112.676 289.712 108.995 290.62 105.315L293.123 28.296Z" fill="#9D121D"/>
<path d="M291.976 23.6377C289.45 24.1844 286.917 24.731 277.985 25.2161C271.087 25.5857 260.369 25.9245 250.59 25.9245C247.711 25.9245 244.908 25.8937 242.313 25.8321C230.91 25.5395 223.442 24.5308 215.973 23.5222C218.183 18.8178 220.393 14.1133 224.004 10.7409C227.622 7.36849 232.635 5.33581 237.655 3.30312L238.171 15.2606L271.156 15.2914L270.794 2.97974C273.373 3.47251 275.953 3.96528 278.994 6.08266C282.028 8.20005 285.531 11.9343 289.027 15.6686L291.976 23.6377Z" fill="#9D121D"/>
<path d="M240.188 15.1451L240.365 2.70262C244.9 1.57848 249.428 0.454346 254.101 0.454346C254.109 0.454346 254.117 0.454346 254.117 0.454346C258.798 0.462045 263.61 1.58618 268.43 2.71802L268.653 15.7149L240.188 15.1451Z" fill="#F88B91"/>
<path d="M211.584 23.3221L211.515 27.2104C220.023 28.3807 228.531 29.5511 241.328 29.913C244.585 30.013 248.111 30.0515 251.738 30.0515C262.371 30.0515 273.805 29.6974 281.373 29.2893C291.529 28.7426 294.747 28.0805 297.958 27.4183L297.689 22.8293C295.333 23.53 292.969 24.2384 285.908 24.8004C278.84 25.3548 267.067 25.7629 255.295 26.171L229.732 25.0083L211.584 23.3221Z" fill="#F88B91"/>
<mask id="mask4_80_23" style="mask-type:luminance" maskUnits="userSpaceOnUse" x="238" y="0" width="33" height="17">
<path d="M238.502 0H270.039V16.1999H238.502V0Z" fill="white"/>
</mask>
<g mask="url(#mask4_80_23)">
<path d="M239.565 14.9372L240.011 2.56394C240.019 2.33295 240.173 2.13276 240.396 2.07116C245.047 0.746837 249.874 0.0692749 254.71 0.0692749C255.256 0.0692749 255.803 0.084675 256.35 0.100073C260.415 0.230967 264.473 0.831532 268.399 1.90177C268.63 1.97107 268.792 2.17126 268.792 2.40995L269.085 15.0834C269.092 15.3837 268.854 15.6301 268.561 15.6378C268.261 15.6378 268.022 15.4068 268.014 15.1142L267.722 2.43304L268.115 2.94122C264.272 1.89407 260.299 1.29351 256.311 1.17031C255.78 1.15492 255.241 1.14722 254.71 1.14722C249.974 1.14722 245.247 1.80168 240.696 3.10291L241.081 2.60243L240.642 14.9679C240.627 15.2682 240.381 15.4992 240.088 15.4915C239.788 15.4761 239.557 15.2297 239.565 14.9372Z" fill="#F88B91"/>
</g>
<path d="M216.705 23.4607L215.657 23.299C217.374 17.6013 220.831 12.4349 225.451 8.6621C229.101 5.67467 233.466 3.56499 238.079 2.54864C238.24 2.51784 238.41 2.55634 238.533 2.65644C238.664 2.76423 238.733 2.92592 238.733 3.08761L238.387 15.0681L237.855 14.5138L270.963 14.8295L270.424 15.3915L269.901 2.91052C269.893 2.74113 269.962 2.57944 270.093 2.47165C270.217 2.37155 270.386 2.32535 270.548 2.36385C276.969 3.73437 282.882 7.31468 287.071 12.3579C289.696 15.5224 291.644 19.2336 292.761 23.1912C292.838 23.4761 292.676 23.7687 292.384 23.8534C292.099 23.9304 291.806 23.761 291.729 23.4761C290.659 19.6725 288.773 16.0845 286.247 13.0432C282.212 8.18473 276.507 4.72762 270.324 3.41099L270.971 2.86432L271.495 15.3453C271.502 15.4916 271.448 15.6302 271.348 15.738C271.241 15.8458 271.102 15.8997 270.956 15.8997L237.848 15.5917C237.701 15.584 237.563 15.5301 237.463 15.4223C237.37 15.3222 237.316 15.1836 237.316 15.0373L237.655 3.05681L238.31 3.59578C233.859 4.57363 229.655 6.61402 226.129 9.49366C221.678 13.1279 218.345 18.1095 216.681 23.6147C216.604 23.8688 216.35 24.0227 216.089 23.9843C215.827 23.9458 215.634 23.7225 215.634 23.4607C215.634 23.1604 215.873 22.9217 216.166 22.9217C216.466 22.9217 216.705 23.1604 216.705 23.4607Z" fill="#9D121D"/>
<path d="M218.468 28.6117V28.5963C218.876 50.8866 219.284 73.1615 219.63 87.0746C219.985 101.088 220.292 106.377 223.149 109.858C225.998 113.33 231.503 115.109 240.881 115.994C245.509 116.425 251.037 116.641 256.527 116.641C262.109 116.641 267.653 116.418 272.157 115.986C281.158 115.109 285.87 113.399 288.164 110.127C290.282 107.093 290.428 102.628 290.728 91.0476C290.751 89.9927 290.782 88.9379 290.813 87.7675C291.198 73.8621 292.037 51.3332 292.876 28.8042V28.7811C292.892 28.4885 293.138 28.2575 293.431 28.2729C293.731 28.2806 293.962 28.527 293.947 28.8273V28.8427C293.107 51.3794 292.268 73.9006 291.883 87.7983C291.852 88.9533 291.829 90.0312 291.798 91.0707C291.498 102.458 291.398 107.371 289.042 110.743C286.44 114.454 281.242 116.179 272.265 117.049C267.706 117.488 262.14 117.711 256.527 117.711C251.014 117.711 245.447 117.496 240.781 117.057C231.418 116.179 225.474 114.385 222.317 110.535C219.168 106.701 218.907 100.918 218.56 87.1054C218.214 73.1846 217.806 50.902 217.397 28.6194V28.6117C217.397 28.3114 217.636 28.0728 217.936 28.0728C218.229 28.0728 218.468 28.3114 218.468 28.6117Z" fill="#9D121D"/>
<path d="M297.966 28.1728C292.484 28.8504 286.986 29.3971 281.481 29.8282C272.519 30.5289 263.526 30.8985 254.533 30.8985C244.123 30.8985 233.705 30.398 223.342 29.3355C219.299 28.9197 215.265 28.4192 211.246 27.8418C210.976 27.7956 210.776 27.5646 210.791 27.2874L210.953 23.1142C210.961 22.9679 211.03 22.8293 211.138 22.7292C211.253 22.6368 211.407 22.5906 211.553 22.606C217.582 23.3606 223.619 23.9766 229.678 24.4539C238.456 25.1392 247.272 25.5242 256.08 25.5242C262.994 25.5242 269.909 25.2855 276.807 24.7696C283.783 24.2461 290.736 23.4376 297.642 22.352C297.789 22.3289 297.943 22.3674 298.066 22.4674C298.181 22.5598 298.251 22.7061 298.258 22.8601L298.435 27.6185C298.443 27.8956 298.243 28.1343 297.966 28.1728ZM297.835 27.1103L297.365 27.657L297.188 22.8986L297.804 23.4068C290.874 24.5078 283.891 25.3086 276.892 25.8322C269.962 26.3557 263.017 26.5944 256.08 26.5944C247.241 26.5944 238.402 26.2017 229.594 25.5165C223.519 25.0468 217.459 24.4308 211.423 23.6686L212.023 23.1604L211.861 27.3336L211.4 26.7792C215.403 27.3644 219.422 27.8571 223.449 28.2729C233.774 29.3278 244.153 29.8282 254.533 29.8282C263.495 29.8282 272.457 29.4587 281.396 28.758C286.886 28.3345 292.368 27.7802 297.835 27.1103Z" fill="#F88B91"/>
<path d="M246.933 61.589L242.105 58.1627C245.663 54.6825 249.227 51.21 252.461 51.21C252.477 51.21 252.492 51.21 252.507 51.21C255.749 51.2408 258.667 54.798 261.585 58.3475L263.857 56.7768L263.941 62.2127L258.19 60.8113L260.661 58.8248C258.398 57.1232 256.126 55.4293 254.032 55.4293C253.793 55.4293 253.555 55.4524 253.316 55.4986C251.029 55.9606 248.981 58.7786 246.933 61.589Z" fill="#FEFEFE"/>
<path d="M262.933 68.0951L268.322 65.6389C269.554 70.4512 270.786 75.2711 269.169 78.0737C269.162 78.0814 269.154 78.0968 269.146 78.1045C267.499 80.8995 262.956 81.6463 258.421 82.3932L258.644 85.1419L253.893 82.501L257.982 78.2277L258.467 81.3537C261.077 80.245 263.68 79.1363 264.727 77.3269C264.85 77.119 264.95 76.8957 265.027 76.6724C265.766 74.4626 264.349 71.275 262.933 68.0951Z" fill="#FEFEFE"/>
<path d="M249.289 78.6897L248.727 84.5799C243.938 83.2402 239.149 81.8927 237.532 79.0901C237.524 79.0824 237.517 79.067 237.509 79.0593C235.907 76.2335 237.532 71.9295 239.157 67.6331L236.654 66.4551L241.328 63.6678L242.991 69.3347L240.027 68.1952C239.688 71.0055 239.349 73.8159 240.396 75.6253C240.519 75.8332 240.658 76.0257 240.812 76.2105C242.36 77.9583 245.824 78.3201 249.289 78.6897Z" fill="#FEFEFE"/>
</svg>
