<svg width="66" height="66" viewBox="0 0 66 66" fill="none" xmlns="http://www.w3.org/2000/svg">
<path d="M16.3848 23.2065C18.1634 21.5896 20.0806 20.0651 22.1286 18.6714C20.3654 13.4742 21.2509 8.3848 24.708 3.91905C25.0391 3.48787 25.3856 3.0798 25.732 2.70251C23.8996 3.12599 22.0979 3.71886 20.3423 4.48112C17.1316 5.87474 14.2443 7.76113 11.7573 10.0787C12.1654 13.0276 13.1355 16.2384 14.6601 19.6647C15.1759 20.835 15.7534 22.013 16.3848 23.2065Z" fill="#F47A20"/>
<path d="M56.3456 13.3511C47.2524 10.533 35.1794 12.4964 24.3923 19.3875C25.5165 21.682 27.7416 23.4914 31.3066 25.0313C34.8792 26.5789 39.3526 27.6261 43.6952 28.6501C48.0223 29.6742 52.4958 30.729 56.1146 32.2766C59.1559 33.5778 61.3426 35.1486 62.7516 37.0273C63.6063 31.422 62.8594 25.6781 60.5418 20.3423C59.4485 17.8091 58.0318 15.4685 56.3456 13.3511Z" fill="#F47A20"/>
<path d="M23.7301 17.632C31.7608 12.5811 40.7 9.97866 49.0078 10.2943C50.7864 10.3559 52.5034 10.5561 54.1434 10.8872C51.2176 7.96137 47.6912 5.6438 43.7336 4.07309C38.9599 2.1944 33.9012 1.54763 28.9504 2.1405C28.0496 2.91046 27.0563 3.9037 26.1324 5.09713C23.1603 8.96232 22.3596 13.1663 23.7301 17.632Z" fill="#F47A20"/>
<path d="M10.9874 28.9966C12.2039 27.4336 13.5513 25.9399 14.9988 24.5154C14.252 23.1372 13.5667 21.7667 12.9738 20.3962C11.6033 17.3163 10.6563 14.3982 10.1404 11.6725C7.56874 14.4444 5.52066 17.6936 4.08854 21.3124C3.71896 22.2441 3.39558 23.1911 3.13379 24.1459C4.17323 24.2228 5.58995 24.5385 7.12987 25.4317C8.54659 26.2709 9.84782 27.4644 10.9874 28.9966Z" fill="#F47A20"/>
<path d="M10.8872 32.2535C9.18559 34.7251 7.79966 37.3122 6.79102 39.9762C5.99026 42.0628 5.4359 44.1186 5.14331 46.1205C8.50032 52.9423 14.198 58.1934 21.3201 61.0037C21.3817 61.0345 21.4356 61.0499 21.5049 61.0807C18.8793 57.6236 16.3847 51.6257 13.7514 40.1918C12.9584 36.7963 11.9651 34.2169 10.8872 32.2535Z" fill="#F47A20"/>
<path d="M2.66411 25.9706C1.40138 31.676 1.79406 37.597 3.84984 43.1407C4.16553 41.8703 4.56591 40.5998 5.06638 39.3063C6.22901 36.2727 7.83822 33.316 9.84011 30.5365C7.09906 26.6405 4.11163 26.0168 2.66411 25.9706Z" fill="#F47A20"/>
<path d="M15.9381 26.1785C14.5367 27.5952 13.2355 29.0813 12.0652 30.6058C13.5204 33.0311 14.683 36.1033 15.53 39.7683C19.0487 54.998 22.2363 59.9412 25.1776 62.2433C31.6606 63.8679 38.4593 63.3136 44.696 60.6033C46.0896 59.9874 47.4216 59.3021 48.6844 58.509C44.2109 55.7911 39.7605 52.5727 35.495 48.9308C27.2872 41.9319 20.5193 34.0321 15.9381 26.1785Z" fill="#F47A20"/>
<path d="M55.3907 33.9859C51.9182 32.4999 47.5294 31.4604 43.2793 30.4595C39.2293 29.5124 35.1177 28.5423 31.5759 27.141C27.6799 25.6011 24.4846 23.5453 22.8523 20.4193C20.8735 21.7898 19.0256 23.2758 17.3086 24.8619C21.7743 32.6539 28.5038 40.5382 36.6961 47.5294C41.1234 51.3099 45.7508 54.6208 50.386 57.3695C55.1058 53.9817 58.7631 49.3003 60.9498 43.749C61.4656 42.44 61.8891 41.1003 62.2202 39.7606C61.227 37.3891 59.0403 35.5489 55.3907 33.9859Z" fill="#F47A20"/>
<mask id="mask0_65_4462" style="mask-type:luminance" maskUnits="userSpaceOnUse" x="0" y="0" width="66" height="66">
<path d="M0 0H65.0383V65.0383H0V0Z" fill="white"/>
</mask>
<g mask="url(#mask0_65_4462)">
<path d="M64.9228 31.753C64.815 27.5568 63.9142 23.4683 62.2356 19.6185C61.4734 17.8553 60.5725 16.1845 59.5177 14.6061C58.8709 13.6205 58.1703 12.6812 57.408 11.765C56.7228 10.9334 55.9836 10.1326 55.1982 9.37039C52.103 6.32905 48.4688 3.97298 44.4034 2.37147C40.3304 0.754564 36.0725 5.08587e-06 31.7376 0.100099C31.7068 0.100099 31.6914 0.100099 31.6683 0.100099C31.2295 0.107798 30.7906 0.130897 30.3517 0.161696C29.9128 0.192494 29.4817 0.230991 29.0351 0.284889C28.7425 0.315687 28.4576 0.346486 28.165 0.392683C25.2238 0.793061 22.3596 1.59382 19.6108 2.79495C16.6773 4.07308 13.967 5.75158 11.5494 7.80737C10.9565 8.31554 10.3713 8.84682 9.80925 9.39348C9.66296 9.54748 9.51667 9.68607 9.37808 9.83236C6.33674 12.9276 3.98837 16.5695 2.38686 20.6426C0.769951 24.7156 0.00769548 28.9889 0.115489 33.3161C0.223282 37.5123 1.12413 41.6008 2.80264 45.466C2.94123 45.7894 3.08753 46.105 3.23382 46.4284C3.71889 47.4679 4.26556 48.4688 4.85073 49.439C6.24435 51.7257 7.91516 53.8277 9.84005 55.7218C12.9353 58.7631 16.5695 61.1192 20.6349 62.7207C21.8591 63.1981 23.1064 63.6139 24.3691 63.9373C24.7079 64.0297 25.0467 64.1143 25.4009 64.1836C27.9879 64.7765 30.6289 65.0383 33.3083 64.969C37.5046 64.8689 41.5854 63.9681 45.4429 62.2895C47.2138 61.5196 48.8923 60.611 50.4784 59.5562C51.0328 59.1789 51.5871 58.7939 52.1338 58.3782C53.3888 57.4234 54.5746 56.3763 55.6833 55.2444C58.7169 52.1415 61.0653 48.4996 62.6745 44.4342C64.2683 40.3535 65.0306 36.0956 64.9228 31.753ZM28.9427 2.14049C33.9012 1.54762 38.9521 2.19438 43.7182 4.07308C47.6835 5.64379 51.2022 7.96136 54.1357 10.8872C52.4957 10.5561 50.7864 10.3559 49.0001 10.2943C40.6922 9.97865 31.753 12.5811 23.7224 17.632C22.3519 13.1663 23.1526 8.96231 26.1246 5.09712C27.0486 3.91139 28.0495 2.91044 28.9427 2.14049ZM20.3423 4.48116C22.0978 3.7189 23.9072 3.12603 25.732 2.70255C25.3778 3.07984 25.039 3.48791 24.7079 3.91909C21.2508 8.38484 20.3654 13.4743 22.1286 18.6715C20.0805 20.0651 18.1556 21.5819 16.3847 23.2065C15.7533 22.0131 15.1836 20.835 14.66 19.6493C13.1355 16.2307 12.1653 13.02 11.7572 10.071C14.2442 7.76118 17.1315 5.87478 20.3423 4.48116ZM4.08847 21.3201C5.52059 17.6936 7.56868 14.4444 10.1403 11.6803C10.6562 14.4059 11.5956 17.3317 12.9738 20.4116C13.582 21.7744 14.2519 23.1372 14.9988 24.5231C13.5512 25.9476 12.2038 27.4413 10.9873 29.0043C9.84005 27.4721 8.54652 26.2863 7.1298 25.4548C5.58218 24.5616 4.16546 24.246 3.13372 24.1613C3.39551 23.2065 3.71889 22.2518 4.08847 21.3201ZM3.84978 43.1407C1.794 37.597 1.40132 31.676 2.66405 25.9707C4.11157 26.0169 7.099 26.6405 9.83235 30.5442C7.83046 33.3315 6.22895 36.2804 5.05861 39.314C4.56584 40.5999 4.16546 41.8703 3.84978 43.1407ZM21.3047 60.996C14.198 58.1934 8.49262 52.9346 5.12791 46.1204C5.43589 44.1186 5.99026 42.0628 6.78332 39.9762C7.79966 37.3121 9.18559 34.7251 10.8795 32.2535C11.9574 34.2246 12.9507 36.804 13.736 40.1841C16.377 51.6179 18.8639 57.6082 21.4818 61.073C21.4356 61.0499 21.374 61.0268 21.3047 60.996ZM44.696 60.6033C38.4594 63.3136 31.6606 63.868 25.1776 62.2434C22.2441 59.9412 19.0564 54.9981 15.53 39.7683C14.6831 36.1033 13.5204 33.0312 12.0652 30.6058C13.2356 29.0813 14.5291 27.5953 15.9381 26.1786C20.504 34.0321 27.2873 41.9319 35.4873 48.9308C39.7529 52.5727 44.2032 55.7911 48.6767 58.5091C47.414 59.2867 46.0896 59.9874 44.696 60.6033ZM60.9498 43.7567C58.7631 49.3004 55.1058 53.9894 50.386 57.3772C45.7509 54.6362 41.1234 51.3254 36.6962 47.5372C28.5038 40.5537 21.7744 32.6616 17.3086 24.8696C19.0102 23.2835 20.8735 21.7975 22.8523 20.427C24.4846 23.553 27.68 25.6088 31.5759 27.1487C35.1178 28.5423 39.2293 29.5125 43.2793 30.4672C47.5295 31.4759 51.9182 32.5076 55.3907 33.9936C59.0403 35.5643 61.227 37.3968 62.2202 39.776C61.8892 41.1157 61.4657 42.4401 60.9498 43.7567ZM62.7515 37.0273C61.3425 35.1486 59.1558 33.5855 56.1145 32.2766C52.4957 30.729 48.0222 29.6665 43.6951 28.6501C39.3679 27.6261 34.8791 26.5789 31.3065 25.0313C27.7416 23.4914 25.5164 21.682 24.3922 19.3875C35.1793 12.4964 47.2523 10.533 56.3455 13.3511C58.0317 15.453 59.4484 17.8014 60.5417 20.3423C62.867 25.6781 63.6062 31.422 62.7515 37.0273Z" fill="black"/>
</g>
</svg>
