<svg width="182" height="122" viewBox="0 0 182 122" fill="none" xmlns="http://www.w3.org/2000/svg">
<mask id="mask0_65_4476" style="mask-type:luminance" maskUnits="userSpaceOnUse" x="0" y="0" width="182" height="122">
<path d="M0.189453 0.513428H181.999V121.72H0.189453V0.513428Z" fill="white"/>
</mask>
<g mask="url(#mask0_65_4476)">
<path d="M0.212646 121.689H181.976V0.497986H0.212646V121.689Z" fill="#9D7953"/>
</g>
<path d="M10.2988 111.095H171.897V11.1003H10.2988V111.095Z" fill="#BE8F69"/>
<path d="M19.1997 59.2149H42.2907V25.1289H19.1997V59.2149Z" fill="white"/>
<path d="M32.7431 27.3926H28.7471V20.8711H32.7431V27.3926Z" fill="#F79626"/>
<path d="M22.3721 36.9094H39.1186V29.1482H22.3721V36.9094Z" fill="#B9E7E0"/>
<path d="M22.3721 51.446H39.1186V39.4193H22.3721V51.446Z" fill="#B9E7E0"/>
<path d="M40.0269 87.8265H63.1179V53.7328H40.0269V87.8265Z" fill="white"/>
<path d="M53.5708 55.9965H49.5747V49.4827H53.5708V55.9965Z" fill="#B72431"/>
<path d="M43.1992 65.5209H59.9458V57.7521H43.1992V65.5209Z" fill="#B9E7E0"/>
<path d="M43.1992 80.0577H59.9458V68.031H43.1992V80.0577Z" fill="#B9E7E0"/>
<path d="M81.7124 41.2596L47.3492 45.425L44.5234 22.0414L78.8866 17.876L81.7124 41.2596Z" fill="white"/>
<path d="M79.5641 40.1508L49.1662 43.8312L46.6792 23.1501L77.0694 19.462L79.5641 40.1508Z" fill="#8AD7CE"/>
<path d="M67.938 106.306H118.324V71.9501H67.938V106.306Z" fill="white"/>
<path d="M70.9409 80.0577H89.9358V76.0077H70.9409V80.0577Z" fill="#B9E7E0"/>
<path d="M70.9409 95.5569H91.0984V82.8911H70.9409V95.5569Z" fill="#B9E7E0"/>
<path d="M70.9409 104.08H91.0984V100.069H70.9409V104.08Z" fill="#B9E7E0"/>
<path d="M93.1309 102.071H109.192V77.4244H93.1309V102.071Z" fill="#B9E7E0"/>
<path d="M74.4365 74.0444H70.9409V68.031H74.4365V74.0444Z" fill="#F79626"/>
<path d="M112.688 74.9606H109.192V68.9473H112.688V74.9606Z" fill="#F79626"/>
<path d="M171.897 14.7576H10.2988V11.1003H171.897V14.7576Z" fill="#7D5445"/>
<mask id="mask1_65_4476" style="mask-type:luminance" maskUnits="userSpaceOnUse" x="0" y="0" width="182" height="4">
<path d="M0.189453 0.513428H181.999V3.67025H0.189453V0.513428Z" fill="white"/>
</mask>
<g mask="url(#mask1_65_4476)">
<path d="M181.976 2.82331H0.212646V0.505737H181.976V2.82331Z" fill="#C69E7D"/>
</g>
<path d="M85.062 66.2601H110.94V33.0595H85.062V66.2601Z" fill="white"/>
<path d="M86.8174 38.3106H109.562V35.6851H86.8174V38.3106Z" fill="#B9E7E0"/>
<path d="M86.8174 41.506H109.562V39.943H86.8174V41.506Z" fill="#B9E7E0"/>
<path d="M86.8174 45.1402H109.562V43.5771H86.8174V45.1402Z" fill="#B9E7E0"/>
<path d="M86.8174 48.7666H109.562V47.2113H86.8174V48.7666Z" fill="#B9E7E0"/>
<path d="M86.8174 52.4008H109.562V50.8378H86.8174V52.4008Z" fill="#B9E7E0"/>
<path d="M86.8174 56.0351H109.562V54.4644H86.8174V56.0351Z" fill="#B9E7E0"/>
<path d="M86.8174 59.6615H109.562V58.0985H86.8174V59.6615Z" fill="#B9E7E0"/>
<path d="M86.8174 63.2957H109.562V61.7327H86.8174V63.2957Z" fill="#B9E7E0"/>
<path d="M100.253 34.1143H98.0049V30.2338H100.253V34.1143Z" fill="#41A0D6"/>
<path d="M30.7489 81.3975H17.5596V69.9944H30.7489V81.3975Z" fill="white"/>
<path d="M25.8137 71.0338H23.4346V68.031H25.8137V71.0338Z" fill="#41A0D6"/>
<path d="M160.687 72.2041H147.505V60.801H160.687V72.2041Z" fill="white"/>
<path d="M155.752 61.8405H153.373V58.8376H155.752V61.8405Z" fill="#41A0D6"/>
<path d="M169.041 55.4575H155.852V44.0544H169.041V55.4575Z" fill="white"/>
<path d="M164.106 45.0939H161.727V42.0834H164.106V45.0939Z" fill="#41A0D6"/>
<path d="M37.7712 97.3664L22.1795 99.4683L20.3701 85.9787L35.9695 83.8767L37.7712 97.3664Z" fill="white"/>
<path d="M30.2948 85.894L27.4845 86.2713L27.0071 82.7141L29.8174 82.3368L30.2948 85.894Z" fill="#B72431"/>
<path d="M55.5878 108.423L39.9346 106.806L41.3205 93.2701L56.9737 94.8794L55.5878 108.423Z" fill="white"/>
<path d="M50.9914 95.5107L48.1733 95.2258L48.5352 91.6532L51.3533 91.9381L50.9914 95.5107Z" fill="#B72431"/>
<path d="M114.436 63.596H148.937V22.5804H114.436V63.596Z" fill="white"/>
<path d="M116.191 32.074H146.189V25.5833H116.191V32.074Z" fill="#B9E7E0"/>
<path d="M116.691 58.445H146.689V37.1479H116.691V58.445Z" fill="#B9E7E0"/>
<path d="M134.693 24.128H129.627V17.876H134.693V24.128Z" fill="#B72431"/>
<path d="M160.425 105.366L124.091 98.7061L128.764 73.0896L165.099 79.742L160.425 105.366Z" fill="white"/>
<path d="M158.385 103.28L126.747 97.4818L130.812 75.1761L162.442 80.9739L158.385 103.28Z" fill="#B9E7E0"/>
<path d="M148.637 78.4331L142.693 77.5938L143.248 73.6439L149.184 74.4832L148.637 78.4331Z" fill="#F79626"/>
</svg>
