<?xml version="1.0" encoding="UTF-8"?>
<svg xmlns="http://www.w3.org/2000/svg" xmlns:xlink="http://www.w3.org/1999/xlink" width="128px" height="126px" viewBox="0 0 127 126" version="1.1">
<g id="surface1">
<path style=" stroke:none;fill-rule:nonzero;fill:rgb(10.980392%,90.980393%,96.078432%);fill-opacity:1;" d="M 54.941406 54.097656 L 51.679688 44.859375 L 56.957031 30.644531 C 58.851562 25.875 58.027344 23.195312 54.265625 20.59375 L 47.828125 17.042969 L 49.761719 11.511719 L 63.382812 18.109375 L 77.386719 11.546875 L 79.285156 17.105469 L 73.875 20.078125 C 68.914062 22.207031 69.113281 26.800781 70.269531 30.878906 L 91.710938 90.914062 C 97.269531 106.464844 84.335938 108.753906 73.457031 114.175781 L 71.492188 109.015625 C 80.980469 104.480469 87.253906 102.847656 85.207031 91.792969 L 82.984375 85.972656 L 69.765625 50.722656 L 60.003906 50.636719 L 65.402344 38.675781 L 63.523438 35.121094 Z M 54.941406 54.097656 "/>
<path style=" stroke:none;fill-rule:nonzero;fill:rgb(10.980392%,90.980393%,96.078432%);fill-opacity:1;" d="M 55.359375 55.25 L 63.277344 55.25 L 59.367188 66.796875 Z M 55.359375 55.25 "/>
<path style=" stroke:none;fill-rule:nonzero;fill:rgb(10.980392%,90.980393%,96.078432%);fill-opacity:1;" d="M 44.09375 67.695312 L 47.636719 76.09375 L 41.574219 93.324219 C 41.167969 101.945312 50.589844 105.796875 55.804688 109.148438 L 53.613281 114.175781 C 38.355469 107.835938 29.324219 105.589844 36.464844 87.800781 Z M 44.09375 67.695312 "/>
<path style=" stroke:none;fill-rule:nonzero;fill:rgb(0%,31.37255%,39.215687%);fill-opacity:1;" d="M 71.8125 59.910156 L 77.804688 75.300781 L 69.523438 97.332031 L 57.6875 97.332031 L 38.015625 47.082031 L 23.90625 86.066406 C 22.5625 91.097656 26.890625 94.480469 30.992188 96.320312 L 30.941406 101.859375 C 17.941406 95.738281 15.308594 93.785156 17.679688 84.800781 L 34.339844 36.421875 C 36.0625 30.515625 29.828125 28.207031 25.839844 25.585938 L 28.675781 20.167969 C 43.402344 26.167969 47.089844 31.257812 49.804688 43.261719 L 63.546875 86.285156 Z M 71.8125 59.910156 "/>
<path style=" stroke:none;fill-rule:nonzero;fill:rgb(0%,31.37255%,39.215687%);fill-opacity:1;" d="M 82.828125 62.050781 L 88.875 46.976562 L 102.675781 84.914062 C 104.253906 92.503906 99.84375 94.027344 95.832031 96.335938 L 95.832031 101.867188 C 103.625 98.382812 112.789062 95.960938 109.101562 84.347656 L 92.898438 37.433594 C 92.320312 33.878906 92.398438 31.859375 94.125 30.078125 L 101.152344 25.941406 L 98.476562 20.125 L 89.125 24.390625 C 81.261719 27.835938 78.683594 36.019531 76.671875 44.640625 Z M 82.828125 62.050781 "/>
<path style="fill:none;stroke-width:6.71;stroke-linecap:butt;stroke-linejoin:miter;stroke:rgb(0%,31.37255%,39.215687%);stroke-opacity:1;stroke-miterlimit:4;" d="M 175.931615 88.400493 C 175.931615 41.435113 137.296474 3.36265 89.639482 3.36265 C 41.98249 3.36265 3.347349 41.435113 3.347349 88.400493 C 3.347349 135.365873 41.98249 173.438335 89.639482 173.438335 C 137.296474 173.438335 175.931615 135.365873 175.931615 88.400493 Z M 175.931615 88.400493 " transform="matrix(0.70835,0,0,0.710713,0,0.176527)"/>
</g>
</svg>
