<svg width="400" height="120" viewBox="0 0 400 120" fill="none" xmlns="http://www.w3.org/2000/svg">
<mask id="mask0_62_2183" style="mask-type:luminance" maskUnits="userSpaceOnUse" x="0" y="0" width="400" height="120">
<path d="M400 0H0V120H400V0Z" fill="white"/>
</mask>
<g mask="url(#mask0_62_2183)">
<mask id="mask1_62_2183" style="mask-type:luminance" maskUnits="userSpaceOnUse" x="9" y="9" width="388" height="111">
<path d="M9.33838 9.3335H396.887V119.354H9.33838V9.3335Z" fill="white"/>
</mask>
<g mask="url(#mask1_62_2183)">
<path d="M15.7893 72.3857L12.3967 62.3597L17.7895 51.8753L13.0351 41.3961L9.77637 30.9117L12.1049 19.3545L26.2586 18.2347L39.1781 15.594L52.3408 21.4742L65.1144 13.7503L78.3379 21.7086L91.227 17.9638L104.365 22.9013L117.358 22.6774L130.405 24.344L143.318 21.4222L155.618 17.1097L167.972 14.5628L180.326 12.0992L192.783 13.2138L205.32 17.1253L217.838 20.344L230.253 20.0732L242.4 10.3076L255.065 18.6878L267.504 19.1722L279.742 12.4795L292.084 9.53674L304.906 12.9065L318.191 14.7659L328.447 23.3961L341.367 25.4065L352.316 32.3388L368.294 26.7086L380.204 31.2242L396.346 37.1774L387.476 50.3388L387.16 62.094L374.362 69.8597L369.875 80.2815L373.796 93.3961L367.571 103.266L364.391 115.974L345.854 109.745L333.335 117.433L320.227 109.99L307.782 119.823L294.632 110.969L281.864 112.433L269.005 111.36L256.445 118.933L243.556 117.011L230.824 121.224L218.355 114.521L205.223 119.724L193.081 116.047L180.727 115.328L168.306 115.839L155.904 115.969L143.829 110.542L131.396 111.203L119.346 105.146L106.274 116.761L94.5648 104.834L81.5602 115.427L69.6377 107.245L57.5025 102.453L44.6438 110.724L27.2618 111.552L29.4687 98.1409L22.7931 90.2295L11.0106 83.5784L15.7893 72.3857Z" fill="black"/>
<path d="M15.7893 72.3857L12.3967 62.3597L17.7895 51.8753L13.0351 41.3961L9.77637 30.9117L12.1049 19.3545L26.2586 18.2347L39.1781 15.594L52.3408 21.4742L65.1144 13.7503L78.3379 21.7086L91.227 17.9638L104.365 22.9013L117.358 22.6774L130.405 24.344L143.318 21.4222L155.618 17.1097L167.972 14.5628L180.326 12.0992L192.783 13.2138L205.32 17.1253L217.838 20.344L230.253 20.0732L242.4 10.3076L255.065 18.6878L267.504 19.1722L279.742 12.4795L292.084 9.53674L304.906 12.9065L318.191 14.7659L328.447 23.3961L341.367 25.4065L352.316 32.3388L368.294 26.7086L380.204 31.2242L396.346 37.1774L387.476 50.3388L387.16 62.094L374.362 69.8597L369.875 80.2815L373.796 93.3961L367.571 103.266L364.391 115.974L345.854 109.745L333.335 117.433L320.227 109.99L307.782 119.823L294.632 110.969L281.864 112.433L269.005 111.36L256.445 118.933L243.556 117.011L230.824 121.224L218.355 114.521L205.223 119.724L193.081 116.047L180.727 115.328L168.306 115.839L155.904 115.969L143.829 110.542L131.396 111.203L119.346 105.146L106.274 116.761L94.5648 104.834L81.5602 115.427L69.6377 107.245L57.5025 102.453L44.6438 110.724L27.2618 111.552L29.4687 98.1409L22.7931 90.2295L11.0106 83.5784L15.7893 72.3857Z" fill="black"/>
</g>
<mask id="mask2_62_2183" style="mask-type:luminance" maskUnits="userSpaceOnUse" x="7" y="8" width="391" height="112">
<path d="M7.78223 8H397.586V119.354H7.78223V8Z" fill="white"/>
</mask>
<g mask="url(#mask2_62_2183)">
<path d="M230.739 121.984L218.3 115.307L205.265 120.474L192.917 116.734L180.721 115.99L168.343 116.495L155.715 116.63L143.653 111.203L131.208 111.885L119.486 105.995L106.238 117.766L94.504 105.812L81.6088 116.328L69.2061 107.849L57.6059 103.26L44.9113 111.401L26.3133 112.286L28.6358 98.3489L22.1973 90.7239L10.0499 83.8489L14.9563 72.3645L11.5577 62.3124L16.9322 51.8541L12.263 41.5728L8.95557 30.9426L11.424 18.7291L26.1674 17.5572L39.2814 14.901L52.2739 20.703L65.1144 12.9166L78.4655 20.953L91.2635 17.2291L104.523 22.2135L117.406 21.9895L130.356 23.6562L143.051 20.776L155.423 16.4426L167.765 13.8958L180.259 11.4166L193.039 12.5728L205.569 16.4843L217.941 19.651L229.931 19.3958L242.346 9.40617L255.356 18.0103L267.261 18.4687L279.384 11.8489L292.078 8.81763L305.077 12.2083L318.562 14.0937L328.83 22.7291L341.683 24.7239L352.414 31.5103L368.282 25.9218L380.514 30.552L397.483 36.8489L388.272 50.526L387.962 62.453L375.03 70.2968L370.714 80.3228L374.678 93.4843L368.331 103.505L364.95 116.906L345.951 110.516L333.335 118.26L320.294 110.854L307.825 120.74L294.413 111.703L281.882 113.146L269.188 112.078L256.627 119.651L243.635 117.719L230.739 121.984ZM218.416 113.75L230.916 120.463L243.47 116.307L256.256 118.213L268.793 110.656L281.852 111.755L294.857 110.255L307.74 118.932L320.148 109.13L333.317 116.594L345.744 108.969L363.801 115.031L366.817 103.016L372.951 93.2968L369.048 80.2343L373.681 69.427L386.375 61.7135L386.685 50.1822L395.215 37.4947L379.894 31.8645L368.276 27.4583L352.201 33.1249L341.039 26.0468L328.064 24.0155L317.808 15.3958L304.651 13.5468L292.054 10.2291L280.058 13.1093L267.704 19.8958L254.761 19.3958L242.437 11.2499L230.533 20.7916L217.68 21.078L205.04 17.828L192.601 13.8853L180.375 12.7916L168.185 15.2291L155.867 17.7499L143.525 22.078L130.454 25.0364L117.303 23.3541L104.207 23.5885L91.227 18.6926L78.2163 22.4687L65.1144 14.578L52.4198 22.2708L39.093 16.3124L26.3315 18.9062L12.7858 19.9843L10.5849 30.8801L13.7951 41.1822L18.6528 51.8905L13.2479 62.3905L16.6465 72.4114L11.9954 83.3072L23.3707 89.7239L30.3138 97.9687L28.198 110.823L44.3763 110.057L57.4235 101.667L70.118 106.708L81.5115 114.521L94.6195 103.844L106.299 115.745L119.194 104.286L131.572 110.516L143.987 109.833L156.08 115.26L168.282 115.135L180.721 114.62L193.227 115.349L205.125 118.958L218.416 113.75Z" fill="black"/>
</g>
<mask id="mask3_62_2183" style="mask-type:luminance" maskUnits="userSpaceOnUse" x="3" y="1" width="388" height="113">
<path d="M3.11279 1.08313H390.661V113.333H3.11279V1.08313Z" fill="white"/>
</mask>
<g mask="url(#mask3_62_2183)">
<path d="M9.78237 63.3957L6.39594 53.3644L11.7826 42.8801L7.02824 32.4009L3.75732 21.9165L6.09804 10.3644L20.2457 9.23942L33.1712 6.604L46.3339 12.479L59.1075 4.75505L72.3249 12.7186L85.2201 8.96338L98.3585 13.9113L111.345 13.6821L124.398 15.3592L137.312 12.4321L149.611 8.10921L161.965 5.56755L174.319 3.10921L186.777 4.2238L199.313 8.13005L211.825 11.3488L224.246 11.078L236.387 1.31234L249.058 9.69776L261.497 10.1821L273.735 3.48942L286.077 0.541504L298.9 3.9165L312.184 5.77067L322.44 14.4061L335.36 16.4165L346.31 23.3436L362.281 17.7134L374.197 22.229L390.339 28.1769L381.469 41.3488L381.153 53.104L368.355 60.8644L363.868 71.2915L367.795 84.4009L361.564 94.2707L358.378 106.979L339.847 100.755L327.329 108.443L314.221 101L301.775 110.833L288.619 101.974L275.851 103.443L262.999 102.364L250.432 109.937L237.549 108.026L224.818 112.234L212.348 105.526L199.216 110.729L187.068 107.062L174.726 106.333L162.299 106.849L149.897 106.979L137.822 101.547L125.389 102.208L113.339 96.1561L100.268 107.765L88.5579 95.8436L75.5533 106.427L63.6248 98.2446L51.5017 93.4582L38.6369 101.734L21.2488 102.557L23.4618 89.1509L16.7863 81.2342L5.00368 74.5832L9.78237 63.3957Z" fill="white"/>
</g>
<mask id="mask4_62_2183" style="mask-type:luminance" maskUnits="userSpaceOnUse" x="0" y="1" width="396" height="115">
<path d="M0.674805 1.08325H395.331V116H0.674805V1.08325Z" fill="white"/>
</mask>
<g mask="url(#mask4_62_2183)">
<path d="M224.52 115.01L212.147 108.365L199.386 113.422L186.491 109.521L174.708 108.844L162.348 109.349L149.21 109.49L137.202 104.063L124.69 104.74L113.862 99.3126L100.146 111.526L88.3391 99.5105L75.7236 109.745L62.0745 100.385L51.8544 96.3542L39.6523 104.182L17.8321 105.214L20.3734 89.7917L14.701 83.0626L1.44101 75.599L6.68177 63.3282L3.30142 53.1875L8.62122 42.8282L4.20123 33.0417L0.77832 22.0313L3.61149 8.05733L19.7715 6.76046L33.5543 3.95837L46.103 9.56254L59.1015 1.69796L72.7932 9.94275L85.354 6.29171L98.9422 11.4011L111.54 11.1823L124.234 12.8125L136.381 10.0573L148.705 5.72921L161.284 3.14587L174.131 0.578167L187.433 1.77608L200.231 5.76567L212.22 8.84379L223.061 8.60421L236.205 -1.9635L250.116 7.23442L260.707 7.65108L272.526 1.18233L286.12 -2.05725L299.568 1.48442L313.564 3.43754L323.875 12.0886L336.57 14.0625L346.705 20.5L362.312 14.9948L375.365 19.948L394.492 27L384.369 42.0417L384.041 54.4115L370.787 62.4532L366.92 71.4219L370.89 84.724L364.318 95.1459L360.494 110.38L340.248 103.594L327.377 111.495L314.5 104.182L301.909 114.13L287.768 104.63L275.87 105.99L263.753 104.979L251.058 112.609L237.768 110.635L224.52 115.01ZM212.561 102.693L225.128 109.474L237.214 105.448L249.708 107.302L262.172 99.7917L275.772 100.932L289.427 99.3594L301.593 107.557L313.886 97.8334L327.231 105.412L339.403 97.948L356.226 103.589L358.779 93.4115L364.683 84.1042L360.816 71.2136L365.929 59.3334L378.277 51.8698L378.569 40.6823L386.175 29.3959L373.036 24.5573L362.239 20.4844L345.908 26.1823L334.168 18.7605L321.036 16.7292L310.792 8.11983L298.237 6.35421L286.041 3.14587L274.933 5.79171L262.293 12.7032L248.012 12.1563L236.576 4.58858L225.432 13.5469L211.436 13.849L198.31 10.4584L186.108 6.65108L174.532 5.63546L162.634 8.00525L150.517 10.4948L138.242 14.8021L124.55 17.9011L111.156 16.1823L97.7628 16.4167L85.0682 11.6667L71.869 15.4844L59.1076 7.80733L46.565 15.3959L32.7822 9.24483L20.72 11.7084L8.59082 12.6719L6.74257 21.8073L9.80677 31.625L14.9381 42.9428L9.50279 53.573L12.8649 63.5209L8.5361 73.5886L18.8474 79.4063L26.5201 88.5053L24.6414 99.8959L37.5974 99.2865L51.1492 90.5678L65.1752 96.1094L75.3588 103.099L88.7951 92.2448L100.42 104.068L112.828 93.0365L126.137 99.7084L138.497 99.0261L150.602 104.453L162.214 104.333L174.757 103.818L187.67 104.568L199.064 108.016L212.561 102.693Z" fill="black"/>
<path d="M224.52 115.01L212.147 108.365L199.386 113.422L186.491 109.521L174.708 108.844L162.348 109.349L149.21 109.49L137.202 104.063L124.69 104.74L113.862 99.3126L100.146 111.526L88.3391 99.5105L75.7236 109.745L62.0745 100.385L51.8544 96.3542L39.6523 104.182L17.8321 105.214L20.3734 89.7917L14.701 83.0626L1.44101 75.599L6.68177 63.3282L3.30142 53.1875L8.62122 42.8282L4.20123 33.0417L0.77832 22.0313L3.61149 8.05733L19.7715 6.76046L33.5543 3.95837L46.103 9.56254L59.1015 1.69796L72.7932 9.94275L85.354 6.29171L98.9422 11.4011L111.54 11.1823L124.234 12.8125L136.381 10.0573L148.705 5.72921L161.284 3.14587L174.131 0.578167L187.433 1.77608L200.231 5.76567L212.22 8.84379L223.061 8.60421L236.205 -1.9635L250.116 7.23442L260.707 7.65108L272.526 1.18233L286.12 -2.05725L299.568 1.48442L313.564 3.43754L323.875 12.0886L336.57 14.0625L346.705 20.5L362.312 14.9948L375.365 19.948L394.492 27L384.369 42.0417L384.041 54.4115L370.787 62.4532L366.92 71.4219L370.89 84.724L364.318 95.1459L360.494 110.38L340.248 103.594L327.377 111.495L314.5 104.182L301.909 114.13L287.768 104.63L275.87 105.99L263.753 104.979L251.058 112.609L237.768 110.635L224.52 115.01ZM212.561 102.693L225.128 109.474L237.214 105.448L249.708 107.302L262.172 99.7917L275.772 100.932L289.427 99.3594L301.593 107.557L313.886 97.8334L327.231 105.412L339.403 97.948L356.226 103.589L358.779 93.4115L364.683 84.1042L360.816 71.2136L365.929 59.3334L378.277 51.8698L378.569 40.6823L386.175 29.3959L373.036 24.5573L362.239 20.4844L345.908 26.1823L334.168 18.7605L321.036 16.7292L310.792 8.11983L298.237 6.35421L286.041 3.14587L274.933 5.79171L262.293 12.7032L248.012 12.1563L236.576 4.58858L225.432 13.5469L211.436 13.849L198.31 10.4584L186.108 6.65108L174.532 5.63546L162.634 8.00525L150.517 10.4948L138.242 14.8021L124.55 17.9011L111.156 16.1823L97.7628 16.4167L85.0682 11.6667L71.869 15.4844L59.1076 7.80733L46.565 15.3959L32.7822 9.24483L20.72 11.7084L8.59082 12.6719L6.74257 21.8073L9.80677 31.625L14.9381 42.9428L9.50279 53.573L12.8649 63.5209L8.5361 73.5886L18.8474 79.4063L26.5201 88.5053L24.6414 99.8959L37.5974 99.2865L51.1492 90.5678L65.1752 96.1094L75.3588 103.099L88.7951 92.2448L100.42 104.068L112.828 93.0365L126.137 99.7084L138.497 99.0261L150.602 104.453L162.214 104.333L174.757 103.818L187.67 104.568L199.064 108.016L212.561 102.693Z" fill="black"/>
</g>
</g>
<path d="M23.6351 50.3708C23.1871 50.3708 22.8591 50.3068 22.6511 50.1788C22.4431 50.0508 22.3151 49.8748 22.2671 49.6508C22.2191 49.4108 22.1951 49.1628 22.1951 48.9068V35.0588C22.1951 34.8028 22.2191 34.5708 22.2671 34.3628C22.3311 34.1388 22.4671 33.9628 22.6751 33.8348C22.8831 33.6908 23.2111 33.6188 23.6591 33.6188H28.7471C29.4511 33.6188 30.1391 33.7388 30.8111 33.9788C31.4831 34.2188 32.0831 34.5788 32.6111 35.0588C33.1551 35.5388 33.5791 36.1308 33.8831 36.8348C34.2031 37.5388 34.3631 38.3628 34.3631 39.3068C34.3631 40.2348 34.2031 41.0508 33.8831 41.7548C33.5791 42.4428 33.1551 43.0268 32.6111 43.5068C32.0671 43.9868 31.4591 44.3468 30.7871 44.5868C30.1311 44.8268 29.4431 44.9468 28.7231 44.9468H25.0991V48.9308C25.0991 49.1868 25.0671 49.4268 25.0031 49.6508C24.9551 49.8748 24.8271 50.0508 24.6191 50.1788C24.4271 50.3068 24.0991 50.3708 23.6351 50.3708ZM25.0991 42.0188H28.7471C29.2431 42.0188 29.6911 41.9228 30.0911 41.7308C30.5071 41.5228 30.8431 41.2188 31.0991 40.8188C31.3551 40.4028 31.4831 39.8828 31.4831 39.2588C31.4831 38.6988 31.3631 38.2188 31.1231 37.8188C30.8991 37.4028 30.5791 37.0828 30.1631 36.8588C29.7631 36.6348 29.2831 36.5228 28.7231 36.5228H25.0991V42.0188ZM42.1303 50.5388C41.0903 50.5388 40.1783 50.3708 39.3943 50.0348C38.6263 49.6988 37.9783 49.2428 37.4503 48.6668C36.9383 48.0748 36.5463 47.4188 36.2743 46.6988C36.0183 45.9628 35.8903 45.2028 35.8903 44.4188C35.8903 43.2668 36.1543 42.2428 36.6823 41.3468C37.2103 40.4508 37.9383 39.7468 38.8663 39.2348C39.8103 38.7228 40.8903 38.4668 42.1063 38.4668C42.9703 38.4668 43.7303 38.6028 44.3863 38.8748C45.0423 39.1468 45.5863 39.5068 46.0183 39.9548C46.4663 40.3868 46.8023 40.8668 47.0263 41.3948C47.2663 41.9228 47.3863 42.4348 47.3863 42.9308C47.3863 43.7788 47.1783 44.3948 46.7623 44.7788C46.3623 45.1628 45.8583 45.3548 45.2503 45.3548H38.9143C38.9303 45.8988 39.0983 46.3708 39.4183 46.7708C39.7543 47.1708 40.1703 47.4828 40.6663 47.7068C41.1783 47.9148 41.6983 48.0188 42.2263 48.0188C42.6263 48.0188 42.9783 47.9948 43.2823 47.9468C43.6023 47.8988 43.8743 47.8428 44.0983 47.7788C44.3223 47.6988 44.5143 47.6188 44.6743 47.5388C44.8503 47.4588 45.0103 47.3868 45.1543 47.3228C45.2983 47.2588 45.4343 47.2188 45.5623 47.2028C45.7383 47.1868 45.9143 47.2268 46.0903 47.3228C46.2663 47.4188 46.4103 47.5868 46.5223 47.8268C46.6183 47.9868 46.6823 48.1388 46.7143 48.2828C46.7623 48.4108 46.7863 48.5388 46.7863 48.6668C46.7863 48.9868 46.5943 49.2908 46.2103 49.5788C45.8263 49.8508 45.2823 50.0748 44.5783 50.2508C43.8903 50.4428 43.0743 50.5388 42.1303 50.5388ZM38.9143 43.6508H43.8343C44.1063 43.6508 44.3143 43.6108 44.4583 43.5308C44.6023 43.4348 44.6743 43.2428 44.6743 42.9548C44.6743 42.5868 44.5623 42.2588 44.3383 41.9708C44.1143 41.6668 43.8103 41.4348 43.4263 41.2748C43.0423 41.0988 42.5943 41.0108 42.0823 41.0108C41.4903 41.0108 40.9543 41.1308 40.4743 41.3708C39.9943 41.5948 39.6103 41.9068 39.3223 42.3068C39.0503 42.7068 38.9143 43.1548 38.9143 43.6508ZM50.7718 50.3708C50.3398 50.3708 50.0198 50.2988 49.8118 50.1548C49.6198 50.0268 49.4998 49.8588 49.4518 49.6508C49.4038 49.4268 49.3798 49.1788 49.3798 48.9068V39.9308C49.3798 39.6748 49.4038 39.4428 49.4518 39.2348C49.4998 39.0268 49.6278 38.8668 49.8358 38.7548C50.0438 38.6268 50.3638 38.5628 50.7958 38.5628C51.1798 38.5628 51.4678 38.6108 51.6598 38.7068C51.8518 38.8028 51.9798 38.9228 52.0438 39.0668C52.1078 39.2108 52.1398 39.3548 52.1398 39.4988C52.1558 39.6428 52.1718 39.7548 52.1878 39.8348L52.0918 40.6028C52.1878 40.3468 52.3478 40.0988 52.5718 39.8588C52.7958 39.6188 53.0678 39.4028 53.3878 39.2108C53.7078 39.0028 54.0518 38.8428 54.4198 38.7308C54.8038 38.6028 55.1958 38.5388 55.5958 38.5388C56.3478 38.5388 57.0198 38.6748 57.6118 38.9468C58.2038 39.2188 58.7078 39.6028 59.1238 40.0988C59.5558 40.5948 59.8838 41.1868 60.1078 41.8748C60.3318 42.5468 60.4438 43.3068 60.4438 44.1548V48.9308C60.4438 49.2028 60.4118 49.4508 60.3478 49.6748C60.2998 49.8828 60.1798 50.0508 59.9878 50.1788C59.7958 50.3068 59.4678 50.3708 59.0038 50.3708C58.5558 50.3708 58.2278 50.2988 58.0198 50.1548C57.8118 50.0268 57.6838 49.8588 57.6358 49.6508C57.5878 49.4268 57.5638 49.1788 57.5638 48.9068V44.1308C57.5638 43.5548 57.4598 43.0588 57.2518 42.6428C57.0598 42.2268 56.7718 41.9068 56.3878 41.6828C56.0198 41.4588 55.5478 41.3468 54.9718 41.3468C54.4118 41.3468 53.9238 41.4668 53.5078 41.7068C53.0918 41.9308 52.7718 42.2508 52.5478 42.6668C52.3238 43.0828 52.2118 43.5708 52.2118 44.1308V48.9308C52.2118 49.2028 52.1878 49.4508 52.1398 49.6748C52.0918 49.8828 51.9638 50.0508 51.7558 50.1788C51.5638 50.3068 51.2358 50.3708 50.7718 50.3708ZM65.0349 55.1228C64.5229 54.8988 64.2269 54.6428 64.1469 54.3548C64.0669 54.0828 64.1389 53.7148 64.3629 53.2508L70.5549 39.3788C70.7789 38.8668 71.0189 38.5628 71.2749 38.4668C71.5309 38.3548 71.9229 38.4108 72.4509 38.6348C72.9469 38.8588 73.2349 39.1068 73.3149 39.3788C73.4109 39.6508 73.3549 40.0188 73.1469 40.4828L66.9069 54.4268C66.6989 54.9388 66.4669 55.2348 66.2109 55.3148C65.9549 55.4108 65.5629 55.3468 65.0349 55.1228ZM67.2669 49.2428L61.7229 40.7228C61.4349 40.2908 61.3149 39.9308 61.3629 39.6428C61.4269 39.3548 61.6829 39.0748 62.1309 38.8028C62.6269 38.4988 63.0109 38.3788 63.2829 38.4428C63.5709 38.5068 63.8589 38.7628 64.1469 39.2108L68.5389 46.0508L67.2669 49.2428ZM80.8022 50.5388C79.7622 50.5388 78.8502 50.3708 78.0662 50.0348C77.2982 49.6988 76.6502 49.2428 76.1222 48.6668C75.6102 48.0748 75.2182 47.4188 74.9462 46.6988C74.6902 45.9628 74.5622 45.2028 74.5622 44.4188C74.5622 43.2668 74.8262 42.2428 75.3542 41.3468C75.8822 40.4508 76.6102 39.7468 77.5382 39.2348C78.4822 38.7228 79.5622 38.4668 80.7782 38.4668C81.6422 38.4668 82.4022 38.6028 83.0582 38.8748C83.7142 39.1468 84.2582 39.5068 84.6902 39.9548C85.1382 40.3868 85.4742 40.8668 85.6982 41.3948C85.9382 41.9228 86.0582 42.4348 86.0582 42.9308C86.0582 43.7788 85.8502 44.3948 85.4342 44.7788C85.0342 45.1628 84.5302 45.3548 83.9222 45.3548H77.5862C77.6022 45.8988 77.7702 46.3708 78.0902 46.7708C78.4262 47.1708 78.8422 47.4828 79.3382 47.7068C79.8502 47.9148 80.3702 48.0188 80.8982 48.0188C81.2982 48.0188 81.6502 47.9948 81.9542 47.9468C82.2742 47.8988 82.5462 47.8428 82.7702 47.7788C82.9942 47.6988 83.1862 47.6188 83.3462 47.5388C83.5222 47.4588 83.6822 47.3868 83.8262 47.3228C83.9702 47.2588 84.1062 47.2188 84.2342 47.2028C84.4102 47.1868 84.5862 47.2268 84.7622 47.3228C84.9382 47.4188 85.0822 47.5868 85.1942 47.8268C85.2902 47.9868 85.3542 48.1388 85.3862 48.2828C85.4342 48.4108 85.4582 48.5388 85.4582 48.6668C85.4582 48.9868 85.2662 49.2908 84.8822 49.5788C84.4982 49.8508 83.9542 50.0748 83.2502 50.2508C82.5622 50.4428 81.7462 50.5388 80.8022 50.5388ZM77.5862 43.6508H82.5062C82.7782 43.6508 82.9862 43.6108 83.1302 43.5308C83.2742 43.4348 83.3462 43.2428 83.3462 42.9548C83.3462 42.5868 83.2342 42.2588 83.0102 41.9708C82.7862 41.6668 82.4822 41.4348 82.0982 41.2748C81.7142 41.0988 81.2662 41.0108 80.7542 41.0108C80.1622 41.0108 79.6262 41.1308 79.1462 41.3708C78.6662 41.5948 78.2822 41.9068 77.9942 42.3068C77.7222 42.7068 77.5862 43.1548 77.5862 43.6508ZM94.1957 50.3708C93.4117 50.3708 92.7077 50.2188 92.0837 49.9148C91.4757 49.5948 90.9557 49.1628 90.5237 48.6188C90.1077 48.0748 89.7877 47.4508 89.5637 46.7468C89.3557 46.0268 89.2517 45.2588 89.2517 44.4428C89.2677 43.6268 89.3877 42.8668 89.6117 42.1628C89.8357 41.4428 90.1557 40.8188 90.5717 40.2908C91.0037 39.7468 91.5237 39.3228 92.1317 39.0188C92.7397 38.7148 93.4277 38.5628 94.1957 38.5628C94.9317 38.5628 95.6197 38.7148 96.2597 39.0188C96.9157 39.3228 97.4917 39.7468 97.9877 40.2908C98.4997 40.8188 98.8997 41.4428 99.1877 42.1628C99.4757 42.8668 99.6197 43.6188 99.6197 44.4188C99.6197 45.2508 99.4757 46.0348 99.1877 46.7708C98.8997 47.4908 98.5077 48.1228 98.0117 48.6668C97.5157 49.1948 96.9397 49.6108 96.2837 49.9148C95.6277 50.2188 94.9317 50.3708 94.1957 50.3708ZM93.8117 47.5628C94.3717 47.5628 94.8757 47.4348 95.3237 47.1788C95.7717 46.9068 96.1237 46.5388 96.3797 46.0748C96.6517 45.6108 96.7877 45.0828 96.7877 44.4908C96.7877 43.8828 96.6517 43.3468 96.3797 42.8828C96.1237 42.4028 95.7717 42.0348 95.3237 41.7788C94.8757 41.5068 94.3717 41.3708 93.8117 41.3708C93.2677 41.3708 92.7717 41.5068 92.3237 41.7788C91.8757 42.0508 91.5157 42.4188 91.2437 42.8828C90.9877 43.3468 90.8597 43.8828 90.8597 44.4908C90.8597 45.0828 90.9877 45.6108 91.2437 46.0748C91.5157 46.5388 91.8757 46.9068 92.3237 47.1788C92.7717 47.4348 93.2677 47.5628 93.8117 47.5628ZM89.3717 50.3948C88.9397 50.3948 88.6197 50.3228 88.4117 50.1788C88.2037 50.0508 88.0757 49.8828 88.0277 49.6748C87.9797 49.4508 87.9557 49.2028 87.9557 48.9308V34.6268C87.9557 34.3548 87.9797 34.1148 88.0277 33.9068C88.0757 33.6828 88.2037 33.5068 88.4117 33.3788C88.6197 33.2508 88.9397 33.1868 89.3717 33.1868C89.8197 33.1868 90.1397 33.2508 90.3317 33.3788C90.5237 33.5068 90.6437 33.6828 90.6917 33.9068C90.7397 34.1308 90.7637 34.3708 90.7637 34.6268V49.4108C90.6997 49.7628 90.5637 50.0108 90.3557 50.1548C90.1637 50.3148 89.8357 50.3948 89.3717 50.3948ZM111.391 50.3468C110.927 50.3468 110.583 50.2588 110.359 50.0828C110.135 49.9068 110.023 49.6668 110.023 49.3628L110.191 48.5708C110.063 48.7788 109.847 49.0268 109.543 49.3148C109.239 49.5868 108.839 49.8348 108.343 50.0588C107.847 50.2668 107.247 50.3708 106.543 50.3708C105.791 50.3708 105.079 50.2188 104.407 49.9148C103.751 49.5948 103.167 49.1628 102.655 48.6188C102.159 48.0588 101.759 47.4268 101.455 46.7228C101.167 46.0028 101.023 45.2348 101.023 44.4188C101.023 43.6348 101.167 42.8988 101.455 42.2108C101.759 41.5068 102.167 40.8828 102.679 40.3388C103.191 39.7948 103.775 39.3708 104.431 39.0668C105.103 38.7468 105.807 38.5868 106.543 38.5868C107.199 38.5868 107.751 38.6748 108.199 38.8508C108.663 39.0268 109.055 39.2508 109.375 39.5228C109.695 39.7788 109.959 40.0508 110.167 40.3388L110.023 39.6428C110.023 39.2908 110.135 39.0268 110.359 38.8508C110.583 38.6588 110.935 38.5628 111.415 38.5628C111.863 38.5628 112.183 38.6348 112.375 38.7788C112.567 38.9068 112.687 39.0908 112.735 39.3308C112.783 39.5548 112.807 39.8108 112.807 40.0988V48.8828C112.807 49.1548 112.783 49.4028 112.735 49.6268C112.687 49.8508 112.559 50.0268 112.351 50.1548C112.159 50.2828 111.839 50.3468 111.391 50.3468ZM106.975 47.5628C107.519 47.5628 108.007 47.4268 108.439 47.1548C108.871 46.8828 109.215 46.5148 109.471 46.0508C109.743 45.5708 109.879 45.0428 109.879 44.4668C109.879 43.8428 109.743 43.2988 109.471 42.8348C109.199 42.3708 108.839 42.0108 108.391 41.7548C107.959 41.4828 107.471 41.3468 106.927 41.3468C106.335 41.3468 105.807 41.4908 105.343 41.7788C104.879 42.0508 104.511 42.4268 104.239 42.9068C103.983 43.3708 103.855 43.8988 103.855 44.4908C103.855 45.0668 103.991 45.5868 104.263 46.0508C104.535 46.5148 104.903 46.8828 105.367 47.1548C105.847 47.4268 106.383 47.5628 106.975 47.5628ZM121.383 50.3708C120.599 50.3708 119.895 50.2188 119.271 49.9148C118.663 49.5948 118.143 49.1628 117.711 48.6188C117.295 48.0748 116.975 47.4508 116.751 46.7468C116.543 46.0268 116.439 45.2588 116.439 44.4428C116.455 43.6268 116.575 42.8668 116.799 42.1628C117.023 41.4428 117.343 40.8188 117.759 40.2908C118.191 39.7468 118.711 39.3228 119.319 39.0188C119.927 38.7148 120.615 38.5628 121.383 38.5628C122.119 38.5628 122.807 38.7148 123.447 39.0188C124.103 39.3228 124.679 39.7468 125.175 40.2908C125.687 40.8188 126.087 41.4428 126.375 42.1628C126.663 42.8668 126.807 43.6188 126.807 44.4188C126.807 45.2508 126.663 46.0348 126.375 46.7708C126.087 47.4908 125.695 48.1228 125.199 48.6668C124.703 49.1948 124.127 49.6108 123.471 49.9148C122.815 50.2188 122.119 50.3708 121.383 50.3708ZM120.999 47.5628C121.559 47.5628 122.063 47.4348 122.511 47.1788C122.959 46.9068 123.311 46.5388 123.567 46.0748C123.839 45.6108 123.975 45.0828 123.975 44.4908C123.975 43.8828 123.839 43.3468 123.567 42.8828C123.311 42.4028 122.959 42.0348 122.511 41.7788C122.063 41.5068 121.559 41.3708 120.999 41.3708C120.455 41.3708 119.959 41.5068 119.511 41.7788C119.063 42.0508 118.703 42.4188 118.431 42.8828C118.175 43.3468 118.047 43.8828 118.047 44.4908C118.047 45.0828 118.175 45.6108 118.431 46.0748C118.703 46.5388 119.063 46.9068 119.511 47.1788C119.959 47.4348 120.455 47.5628 120.999 47.5628ZM116.559 50.3948C116.127 50.3948 115.807 50.3228 115.599 50.1788C115.391 50.0508 115.263 49.8828 115.215 49.6748C115.167 49.4508 115.143 49.2028 115.143 48.9308V34.6268C115.143 34.3548 115.167 34.1148 115.215 33.9068C115.263 33.6828 115.391 33.5068 115.599 33.3788C115.807 33.2508 116.127 33.1868 116.559 33.1868C117.007 33.1868 117.327 33.2508 117.519 33.3788C117.711 33.5068 117.831 33.6828 117.879 33.9068C117.927 34.1308 117.951 34.3708 117.951 34.6268V49.4108C117.887 49.7628 117.751 50.0108 117.543 50.1548C117.351 50.3148 117.023 50.3948 116.559 50.3948ZM130.389 42.4268C129.781 42.4268 129.357 42.3068 129.117 42.0668C128.877 41.8268 128.757 41.4188 128.757 40.8428C128.757 40.4268 128.805 40.0988 128.901 39.8588C129.013 39.6188 129.189 39.4508 129.429 39.3548C129.669 39.2428 129.989 39.1868 130.389 39.1868C130.997 39.1868 131.413 39.3068 131.637 39.5468C131.877 39.7868 131.997 40.2108 131.997 40.8188C131.997 41.2028 131.949 41.5148 131.853 41.7548C131.757 41.9948 131.589 42.1708 131.349 42.2828C131.109 42.3788 130.789 42.4268 130.389 42.4268ZM130.365 50.3948C129.773 50.3948 129.357 50.2828 129.117 50.0588C128.877 49.8188 128.757 49.4028 128.757 48.8108C128.757 48.3948 128.805 48.0748 128.901 47.8508C129.013 47.6108 129.189 47.4348 129.429 47.3228C129.669 47.2108 129.989 47.1548 130.389 47.1548C130.981 47.1548 131.397 47.2748 131.637 47.5148C131.877 47.7548 131.997 48.1788 131.997 48.7868C131.997 49.1868 131.941 49.5068 131.829 49.7468C131.733 49.9868 131.565 50.1548 131.325 50.2508C131.101 50.3468 130.781 50.3948 130.365 50.3948ZM144.585 50.3948C143.993 50.3948 143.465 50.3548 143.001 50.2748C142.553 50.1948 142.161 50.0588 141.825 49.8668C141.505 49.6748 141.241 49.4188 141.033 49.0988C140.825 48.7628 140.665 48.3548 140.553 47.8748C140.457 47.3948 140.409 46.8188 140.409 46.1468V34.5788C140.409 34.3068 140.433 34.0668 140.481 33.8588C140.545 33.6348 140.673 33.4588 140.865 33.3308C141.073 33.1868 141.401 33.1148 141.849 33.1148C142.297 33.1148 142.617 33.1788 142.809 33.3068C143.017 33.4348 143.145 33.6108 143.193 33.8348C143.257 34.0428 143.289 34.2828 143.289 34.5548V46.0268C143.289 46.3308 143.305 46.5868 143.337 46.7948C143.385 46.9868 143.457 47.1468 143.553 47.2748C143.665 47.3868 143.801 47.4668 143.961 47.5148C144.137 47.5628 144.345 47.5868 144.585 47.5868C144.793 47.5868 144.977 47.6108 145.137 47.6588C145.313 47.7068 145.449 47.8268 145.545 48.0188C145.657 48.2108 145.713 48.5228 145.713 48.9548C145.713 49.4028 145.657 49.7308 145.545 49.9388C145.449 50.1468 145.313 50.2748 145.137 50.3228C144.961 50.3708 144.777 50.3948 144.585 50.3948ZM148.978 50.3948C148.546 50.3948 148.226 50.3228 148.018 50.1788C147.81 50.0508 147.682 49.8828 147.634 49.6748C147.586 49.4508 147.562 49.2028 147.562 48.9308V40.0028C147.562 39.7468 147.586 39.5148 147.634 39.3068C147.698 39.0828 147.826 38.9068 148.018 38.7788C148.226 38.6508 148.554 38.5868 149.002 38.5868C149.45 38.5868 149.77 38.6508 149.962 38.7788C150.17 38.9068 150.298 39.0828 150.346 39.3068C150.394 39.5308 150.418 39.7788 150.418 40.0508V48.9548C150.418 49.2268 150.394 49.4748 150.346 49.6988C150.298 49.9068 150.17 50.0748 149.962 50.2028C149.77 50.3308 149.442 50.3948 148.978 50.3948ZM148.978 36.2588C148.514 36.2588 148.17 36.1948 147.946 36.0668C147.738 35.9228 147.602 35.7308 147.538 35.4908C147.49 35.2508 147.466 34.9868 147.466 34.6988C147.466 34.3948 147.49 34.1308 147.538 33.9068C147.602 33.6828 147.746 33.5068 147.97 33.3788C148.194 33.2348 148.538 33.1628 149.002 33.1628C149.482 33.1628 149.826 33.2348 150.034 33.3788C150.242 33.5228 150.378 33.7148 150.442 33.9548C150.506 34.1788 150.538 34.4428 150.538 34.7468C150.538 35.0188 150.506 35.2748 150.442 35.5148C150.378 35.7548 150.242 35.9388 150.034 36.0668C149.826 36.1948 149.474 36.2588 148.978 36.2588ZM154.459 50.3708C154.027 50.3708 153.707 50.2988 153.499 50.1548C153.307 50.0268 153.187 49.8588 153.139 49.6508C153.091 49.4268 153.067 49.1788 153.067 48.9068V39.9308C153.067 39.6748 153.091 39.4428 153.139 39.2348C153.187 39.0268 153.315 38.8668 153.523 38.7548C153.731 38.6268 154.051 38.5628 154.483 38.5628C154.867 38.5628 155.155 38.6108 155.347 38.7068C155.539 38.8028 155.667 38.9228 155.731 39.0668C155.795 39.2108 155.827 39.3548 155.827 39.4988C155.843 39.6428 155.859 39.7548 155.875 39.8348L155.779 40.6028C155.875 40.3468 156.035 40.0988 156.259 39.8588C156.483 39.6188 156.755 39.4028 157.075 39.2108C157.395 39.0028 157.739 38.8428 158.107 38.7308C158.491 38.6028 158.883 38.5388 159.283 38.5388C160.035 38.5388 160.707 38.6748 161.299 38.9468C161.891 39.2188 162.395 39.6028 162.811 40.0988C163.243 40.5948 163.571 41.1868 163.795 41.8748C164.019 42.5468 164.131 43.3068 164.131 44.1548V48.9308C164.131 49.2028 164.099 49.4508 164.035 49.6748C163.987 49.8828 163.867 50.0508 163.675 50.1788C163.483 50.3068 163.155 50.3708 162.691 50.3708C162.243 50.3708 161.915 50.2988 161.707 50.1548C161.499 50.0268 161.371 49.8588 161.323 49.6508C161.275 49.4268 161.251 49.1788 161.251 48.9068V44.1308C161.251 43.5548 161.147 43.0588 160.939 42.6428C160.747 42.2268 160.459 41.9068 160.075 41.6828C159.707 41.4588 159.235 41.3468 158.659 41.3468C158.099 41.3468 157.611 41.4668 157.195 41.7068C156.779 41.9308 156.459 42.2508 156.235 42.6668C156.011 43.0828 155.899 43.5708 155.899 44.1308V48.9308C155.899 49.2028 155.875 49.4508 155.827 49.6748C155.779 49.8828 155.651 50.0508 155.443 50.1788C155.251 50.3068 154.923 50.3708 154.459 50.3708ZM171.633 55.1948C171.057 55.1948 170.505 55.1228 169.977 54.9788C169.449 54.8508 168.969 54.6748 168.537 54.4508C168.121 54.2268 167.785 53.9868 167.529 53.7308C167.289 53.4748 167.169 53.2348 167.169 53.0108C167.169 52.7868 167.201 52.5948 167.265 52.4348C167.345 52.2748 167.457 52.1148 167.601 51.9548C167.793 51.7628 167.945 51.6188 168.057 51.5228C168.185 51.4268 168.353 51.3788 168.561 51.3788C168.737 51.3788 168.905 51.4428 169.065 51.5708C169.241 51.6988 169.441 51.8428 169.665 52.0028C169.889 52.1628 170.161 52.3068 170.481 52.4348C170.801 52.5628 171.209 52.6268 171.705 52.6268C172.121 52.6268 172.505 52.5548 172.857 52.4108C173.209 52.2668 173.505 52.0508 173.745 51.7628C174.001 51.4908 174.201 51.1628 174.345 50.7788C174.489 50.3948 174.561 49.9628 174.561 49.4828L174.537 39.5468C174.569 39.1788 174.697 38.9228 174.921 38.7788C175.145 38.6188 175.489 38.5388 175.953 38.5388C176.385 38.5388 176.697 38.6028 176.889 38.7308C177.081 38.8428 177.201 39.0108 177.249 39.2348C177.297 39.4428 177.321 39.6748 177.321 39.9308V49.6508C177.321 50.5308 177.169 51.3148 176.865 52.0028C176.561 52.6908 176.145 53.2668 175.617 53.7308C175.089 54.2108 174.481 54.5708 173.793 54.8108C173.121 55.0668 172.401 55.1948 171.633 55.1948ZM171.369 50.0828C170.617 50.0828 169.913 49.9388 169.257 49.6508C168.617 49.3628 168.049 48.9548 167.553 48.4268C167.073 47.8988 166.689 47.2908 166.401 46.6028C166.129 45.8988 165.993 45.1388 165.993 44.3228C165.993 43.5228 166.129 42.7788 166.401 42.0908C166.689 41.4028 167.073 40.7948 167.553 40.2668C168.049 39.7388 168.617 39.3308 169.257 39.0428C169.913 38.7388 170.609 38.5868 171.345 38.5868C172.065 38.5868 172.689 38.7308 173.217 39.0188C173.761 39.2908 174.209 39.6828 174.561 40.1948C174.913 40.7068 175.177 41.3148 175.353 42.0188C175.545 42.7228 175.641 43.4988 175.641 44.3468C175.641 45.5148 175.481 46.5308 175.161 47.3948C174.841 48.2588 174.369 48.9228 173.745 49.3868C173.121 49.8508 172.329 50.0828 171.369 50.0828ZM171.633 47.3708C172.177 47.3708 172.657 47.2428 173.073 46.9868C173.505 46.7148 173.841 46.3468 174.081 45.8828C174.337 45.4188 174.465 44.8988 174.465 44.3228C174.465 43.7308 174.337 43.2108 174.081 42.7628C173.841 42.2988 173.505 41.9388 173.073 41.6828C172.641 41.4268 172.153 41.2988 171.609 41.2988C171.065 41.2988 170.577 41.4348 170.145 41.7068C169.729 41.9628 169.401 42.3148 169.161 42.7628C168.921 43.2108 168.801 43.7308 168.801 44.3228C168.801 44.9148 168.921 45.4428 169.161 45.9068C169.417 46.3548 169.753 46.7148 170.169 46.9868C170.601 47.2428 171.089 47.3708 171.633 47.3708ZM189.287 47.8028C189.703 48.1548 189.919 48.4828 189.935 48.7868C189.967 49.0908 189.807 49.4428 189.455 49.8428C189.183 50.1468 188.943 50.3468 188.735 50.4428C188.527 50.5388 188.319 50.5388 188.111 50.4428C187.903 50.3628 187.655 50.2028 187.367 49.9628L182.783 46.0988V48.9548C182.783 49.2108 182.751 49.4508 182.687 49.6748C182.639 49.8988 182.511 50.0748 182.303 50.2028C182.111 50.3308 181.791 50.3948 181.343 50.3948C180.895 50.3948 180.567 50.3228 180.359 50.1788C180.167 50.0508 180.047 49.8748 179.999 49.6508C179.951 49.4268 179.927 49.1868 179.927 48.9308V34.6028C179.927 34.3308 179.951 34.0908 179.999 33.8828C180.063 33.6588 180.191 33.4828 180.383 33.3548C180.591 33.2108 180.919 33.1388 181.367 33.1388C181.815 33.1388 182.135 33.2108 182.327 33.3548C182.519 33.4828 182.639 33.6588 182.687 33.8828C182.751 34.0908 182.783 34.3388 182.783 34.6268V42.4988L186.095 39.2828C186.351 39.0428 186.591 38.8828 186.815 38.8028C187.039 38.7068 187.255 38.6988 187.463 38.7788C187.687 38.8428 187.919 39.0108 188.159 39.2828C188.559 39.7148 188.751 40.0748 188.735 40.3628C188.719 40.6348 188.519 40.9628 188.135 41.3468L184.895 44.3468L189.287 47.8028ZM195.978 50.3708C195.242 50.3708 194.562 50.2428 193.938 49.9868C193.33 49.7148 192.794 49.3308 192.33 48.8348C191.866 48.3388 191.506 47.7468 191.25 47.0588C190.994 46.3708 190.866 45.6108 190.866 44.7788V40.0028C190.866 39.7308 190.89 39.4908 190.938 39.2828C190.986 39.0588 191.114 38.8828 191.322 38.7548C191.53 38.6268 191.85 38.5628 192.282 38.5628C192.746 38.5628 193.074 38.6268 193.266 38.7548C193.474 38.8828 193.602 39.0588 193.65 39.2828C193.698 39.5068 193.722 39.7548 193.722 40.0268V44.7788C193.722 45.3548 193.818 45.8508 194.01 46.2668C194.218 46.6828 194.514 47.0108 194.898 47.2508C195.282 47.4748 195.754 47.5868 196.314 47.5868C196.89 47.5868 197.378 47.4748 197.778 47.2508C198.194 47.0108 198.514 46.6828 198.738 46.2668C198.962 45.8348 199.074 45.3388 199.074 44.7788V39.9788C199.074 39.7068 199.098 39.4668 199.146 39.2588C199.194 39.0348 199.322 38.8668 199.53 38.7548C199.738 38.6268 200.066 38.5628 200.514 38.5628C200.962 38.5628 201.282 38.6268 201.474 38.7548C201.666 38.8828 201.786 39.0588 201.834 39.2828C201.898 39.5068 201.93 39.7468 201.93 40.0028V49.0028C201.93 49.2428 201.898 49.4668 201.834 49.6748C201.786 49.8828 201.658 50.0508 201.45 50.1788C201.258 50.3068 200.938 50.3708 200.49 50.3708C200.17 50.3708 199.914 50.3308 199.722 50.2508C199.546 50.1868 199.41 50.0988 199.314 49.9868C199.234 49.8588 199.178 49.7308 199.146 49.6028C199.13 49.4748 199.122 49.3468 199.122 49.2188L199.314 48.5708C199.218 48.7148 199.074 48.8908 198.882 49.0988C198.69 49.2908 198.45 49.4908 198.162 49.6988C197.89 49.8908 197.57 50.0508 197.202 50.1788C196.834 50.3068 196.426 50.3708 195.978 50.3708ZM205.717 50.3708C205.285 50.3708 204.965 50.2988 204.757 50.1548C204.565 50.0268 204.445 49.8588 204.397 49.6508C204.349 49.4268 204.325 49.1788 204.325 48.9068V39.9308C204.325 39.6748 204.349 39.4428 204.397 39.2348C204.445 39.0268 204.573 38.8668 204.781 38.7548C204.989 38.6268 205.309 38.5628 205.741 38.5628C206.125 38.5628 206.413 38.6108 206.605 38.7068C206.797 38.8028 206.925 38.9228 206.989 39.0668C207.053 39.2108 207.085 39.3548 207.085 39.4988C207.101 39.6428 207.117 39.7548 207.133 39.8348L207.037 40.6028C207.133 40.3468 207.293 40.0988 207.517 39.8588C207.741 39.6188 208.013 39.4028 208.333 39.2108C208.653 39.0028 208.997 38.8428 209.365 38.7308C209.749 38.6028 210.141 38.5388 210.541 38.5388C211.293 38.5388 211.965 38.6748 212.557 38.9468C213.149 39.2188 213.653 39.6028 214.069 40.0988C214.501 40.5948 214.829 41.1868 215.053 41.8748C215.277 42.5468 215.389 43.3068 215.389 44.1548V48.9308C215.389 49.2028 215.357 49.4508 215.293 49.6748C215.245 49.8828 215.125 50.0508 214.933 50.1788C214.741 50.3068 214.413 50.3708 213.949 50.3708C213.501 50.3708 213.173 50.2988 212.965 50.1548C212.757 50.0268 212.629 49.8588 212.581 49.6508C212.533 49.4268 212.509 49.1788 212.509 48.9068V44.1308C212.509 43.5548 212.405 43.0588 212.197 42.6428C212.005 42.2268 211.717 41.9068 211.333 41.6828C210.965 41.4588 210.493 41.3468 209.917 41.3468C209.357 41.3468 208.869 41.4668 208.453 41.7068C208.037 41.9308 207.717 42.2508 207.493 42.6668C207.269 43.0828 207.157 43.5708 207.157 44.1308V48.9308C207.157 49.2028 207.133 49.4508 207.085 49.6748C207.037 49.8828 206.909 50.0508 206.701 50.1788C206.509 50.3068 206.181 50.3708 205.717 50.3708ZM222.891 55.1948C222.315 55.1948 221.763 55.1228 221.235 54.9788C220.707 54.8508 220.227 54.6748 219.795 54.4508C219.379 54.2268 219.043 53.9868 218.787 53.7308C218.547 53.4748 218.427 53.2348 218.427 53.0108C218.427 52.7868 218.459 52.5948 218.523 52.4348C218.603 52.2748 218.715 52.1148 218.859 51.9548C219.051 51.7628 219.203 51.6188 219.315 51.5228C219.443 51.4268 219.611 51.3788 219.819 51.3788C219.995 51.3788 220.163 51.4428 220.323 51.5708C220.499 51.6988 220.699 51.8428 220.923 52.0028C221.147 52.1628 221.419 52.3068 221.739 52.4348C222.059 52.5628 222.467 52.6268 222.963 52.6268C223.379 52.6268 223.763 52.5548 224.115 52.4108C224.467 52.2668 224.763 52.0508 225.003 51.7628C225.259 51.4908 225.459 51.1628 225.603 50.7788C225.747 50.3948 225.819 49.9628 225.819 49.4828L225.795 39.5468C225.827 39.1788 225.955 38.9228 226.179 38.7788C226.403 38.6188 226.747 38.5388 227.211 38.5388C227.643 38.5388 227.955 38.6028 228.147 38.7308C228.339 38.8428 228.459 39.0108 228.507 39.2348C228.555 39.4428 228.579 39.6748 228.579 39.9308V49.6508C228.579 50.5308 228.427 51.3148 228.123 52.0028C227.819 52.6908 227.403 53.2668 226.875 53.7308C226.347 54.2108 225.739 54.5708 225.051 54.8108C224.379 55.0668 223.659 55.1948 222.891 55.1948ZM222.627 50.0828C221.875 50.0828 221.171 49.9388 220.515 49.6508C219.875 49.3628 219.307 48.9548 218.811 48.4268C218.331 47.8988 217.947 47.2908 217.659 46.6028C217.387 45.8988 217.251 45.1388 217.251 44.3228C217.251 43.5228 217.387 42.7788 217.659 42.0908C217.947 41.4028 218.331 40.7948 218.811 40.2668C219.307 39.7388 219.875 39.3308 220.515 39.0428C221.171 38.7388 221.867 38.5868 222.603 38.5868C223.323 38.5868 223.947 38.7308 224.475 39.0188C225.019 39.2908 225.467 39.6828 225.819 40.1948C226.171 40.7068 226.435 41.3148 226.611 42.0188C226.803 42.7228 226.899 43.4988 226.899 44.3468C226.899 45.5148 226.739 46.5308 226.419 47.3948C226.099 48.2588 225.627 48.9228 225.003 49.3868C224.379 49.8508 223.587 50.0828 222.627 50.0828ZM222.891 47.3708C223.435 47.3708 223.915 47.2428 224.331 46.9868C224.763 46.7148 225.099 46.3468 225.339 45.8828C225.595 45.4188 225.723 44.8988 225.723 44.3228C225.723 43.7308 225.595 43.2108 225.339 42.7628C225.099 42.2988 224.763 41.9388 224.331 41.6828C223.899 41.4268 223.411 41.2988 222.867 41.2988C222.323 41.2988 221.835 41.4348 221.403 41.7068C220.987 41.9628 220.659 42.3148 220.419 42.7628C220.179 43.2108 220.059 43.7308 220.059 44.3228C220.059 44.9148 220.179 45.4428 220.419 45.9068C220.675 46.3548 221.011 46.7148 221.427 46.9868C221.859 47.2428 222.347 47.3708 222.891 47.3708ZM240.743 50.3468C240.279 50.3468 239.935 50.2588 239.711 50.0828C239.487 49.9068 239.375 49.6668 239.375 49.3628L239.543 48.5708C239.415 48.7788 239.199 49.0268 238.895 49.3148C238.591 49.5868 238.191 49.8348 237.695 50.0588C237.199 50.2668 236.599 50.3708 235.895 50.3708C235.143 50.3708 234.431 50.2188 233.759 49.9148C233.103 49.5948 232.519 49.1628 232.007 48.6188C231.511 48.0588 231.111 47.4268 230.807 46.7228C230.519 46.0028 230.375 45.2348 230.375 44.4188C230.375 43.6348 230.519 42.8988 230.807 42.2108C231.111 41.5068 231.519 40.8828 232.031 40.3388C232.543 39.7948 233.127 39.3708 233.783 39.0668C234.455 38.7468 235.159 38.5868 235.895 38.5868C236.551 38.5868 237.103 38.6748 237.551 38.8508C238.015 39.0268 238.407 39.2508 238.727 39.5228C239.047 39.7788 239.311 40.0508 239.519 40.3388L239.375 39.6428C239.375 39.2908 239.487 39.0268 239.711 38.8508C239.935 38.6588 240.287 38.5628 240.767 38.5628C241.215 38.5628 241.535 38.6348 241.727 38.7788C241.919 38.9068 242.039 39.0908 242.087 39.3308C242.135 39.5548 242.159 39.8108 242.159 40.0988V48.8828C242.159 49.1548 242.135 49.4028 242.087 49.6268C242.039 49.8508 241.911 50.0268 241.703 50.1548C241.511 50.2828 241.191 50.3468 240.743 50.3468ZM236.327 47.5628C236.871 47.5628 237.359 47.4268 237.791 47.1548C238.223 46.8828 238.567 46.5148 238.823 46.0508C239.095 45.5708 239.231 45.0428 239.231 44.4668C239.231 43.8428 239.095 43.2988 238.823 42.8348C238.551 42.3708 238.191 42.0108 237.743 41.7548C237.311 41.4828 236.823 41.3468 236.279 41.3468C235.687 41.3468 235.159 41.4908 234.695 41.7788C234.231 42.0508 233.863 42.4268 233.591 42.9068C233.335 43.3708 233.207 43.8988 233.207 44.4908C233.207 45.0668 233.343 45.5868 233.615 46.0508C233.887 46.5148 234.255 46.8828 234.719 47.1548C235.199 47.4268 235.735 47.5628 236.327 47.5628ZM245.983 50.3708C245.551 50.3708 245.231 50.2988 245.023 50.1548C244.831 50.0268 244.711 49.8588 244.663 49.6508C244.615 49.4268 244.591 49.1788 244.591 48.9068V39.9308C244.591 39.6748 244.615 39.4428 244.663 39.2348C244.711 39.0268 244.839 38.8668 245.047 38.7548C245.255 38.6268 245.575 38.5628 246.007 38.5628C246.391 38.5628 246.679 38.6108 246.871 38.7068C247.063 38.8028 247.191 38.9228 247.255 39.0668C247.319 39.2108 247.351 39.3548 247.351 39.4988C247.367 39.6428 247.383 39.7548 247.399 39.8348L247.303 40.6028C247.399 40.3468 247.559 40.0988 247.783 39.8588C248.007 39.6188 248.279 39.4028 248.599 39.2108C248.919 39.0028 249.263 38.8428 249.631 38.7308C250.015 38.6028 250.407 38.5388 250.807 38.5388C251.559 38.5388 252.231 38.6748 252.823 38.9468C253.415 39.2188 253.919 39.6028 254.335 40.0988C254.767 40.5948 255.095 41.1868 255.319 41.8748C255.543 42.5468 255.655 43.3068 255.655 44.1548V48.9308C255.655 49.2028 255.623 49.4508 255.559 49.6748C255.511 49.8828 255.391 50.0508 255.199 50.1788C255.007 50.3068 254.679 50.3708 254.215 50.3708C253.767 50.3708 253.439 50.2988 253.231 50.1548C253.023 50.0268 252.895 49.8588 252.847 49.6508C252.799 49.4268 252.775 49.1788 252.775 48.9068V44.1308C252.775 43.5548 252.671 43.0588 252.463 42.6428C252.271 42.2268 251.983 41.9068 251.599 41.6828C251.231 41.4588 250.759 41.3468 250.183 41.3468C249.623 41.3468 249.135 41.4668 248.719 41.7068C248.303 41.9308 247.983 42.2508 247.759 42.6668C247.535 43.0828 247.423 43.5708 247.423 44.1308V48.9308C247.423 49.2028 247.399 49.4508 247.351 49.6748C247.303 49.8828 247.175 50.0508 246.967 50.1788C246.775 50.3068 246.447 50.3708 245.983 50.3708ZM273.358 47.8028C273.774 48.1548 273.99 48.4828 274.006 48.7868C274.038 49.0908 273.878 49.4428 273.526 49.8428C273.254 50.1468 273.014 50.3468 272.806 50.4428C272.598 50.5388 272.39 50.5388 272.182 50.4428C271.974 50.3628 271.726 50.2028 271.438 49.9628L266.854 46.0988V48.9548C266.854 49.2108 266.822 49.4508 266.758 49.6748C266.71 49.8988 266.582 50.0748 266.374 50.2028C266.182 50.3308 265.862 50.3948 265.414 50.3948C264.966 50.3948 264.638 50.3228 264.43 50.1788C264.238 50.0508 264.118 49.8748 264.07 49.6508C264.022 49.4268 263.998 49.1868 263.998 48.9308V34.6028C263.998 34.3308 264.022 34.0908 264.07 33.8828C264.134 33.6588 264.262 33.4828 264.454 33.3548C264.662 33.2108 264.99 33.1388 265.438 33.1388C265.886 33.1388 266.206 33.2108 266.398 33.3548C266.59 33.4828 266.71 33.6588 266.758 33.8828C266.822 34.0908 266.854 34.3388 266.854 34.6268V42.4988L270.166 39.2828C270.422 39.0428 270.662 38.8828 270.886 38.8028C271.11 38.7068 271.326 38.6988 271.534 38.7788C271.758 38.8428 271.99 39.0108 272.23 39.2828C272.63 39.7148 272.822 40.0748 272.806 40.3628C272.79 40.6348 272.59 40.9628 272.206 41.3468L268.966 44.3468L273.358 47.8028ZM280.865 50.5388C279.825 50.5388 278.913 50.3708 278.129 50.0348C277.361 49.6988 276.713 49.2428 276.185 48.6668C275.673 48.0748 275.281 47.4188 275.009 46.6988C274.753 45.9628 274.625 45.2028 274.625 44.4188C274.625 43.2668 274.889 42.2428 275.417 41.3468C275.945 40.4508 276.673 39.7468 277.601 39.2348C278.545 38.7228 279.625 38.4668 280.841 38.4668C281.705 38.4668 282.465 38.6028 283.121 38.8748C283.777 39.1468 284.321 39.5068 284.753 39.9548C285.201 40.3868 285.537 40.8668 285.761 41.3948C286.001 41.9228 286.121 42.4348 286.121 42.9308C286.121 43.7788 285.913 44.3948 285.497 44.7788C285.097 45.1628 284.593 45.3548 283.985 45.3548H277.649C277.665 45.8988 277.833 46.3708 278.153 46.7708C278.489 47.1708 278.905 47.4828 279.401 47.7068C279.913 47.9148 280.433 48.0188 280.961 48.0188C281.361 48.0188 281.713 47.9948 282.017 47.9468C282.337 47.8988 282.609 47.8428 282.833 47.7788C283.057 47.6988 283.249 47.6188 283.409 47.5388C283.585 47.4588 283.745 47.3868 283.889 47.3228C284.033 47.2588 284.169 47.2188 284.297 47.2028C284.473 47.1868 284.649 47.2268 284.825 47.3228C285.001 47.4188 285.145 47.5868 285.257 47.8268C285.353 47.9868 285.417 48.1388 285.449 48.2828C285.497 48.4108 285.521 48.5388 285.521 48.6668C285.521 48.9868 285.329 49.2908 284.945 49.5788C284.561 49.8508 284.017 50.0748 283.313 50.2508C282.625 50.4428 281.809 50.5388 280.865 50.5388ZM277.649 43.6508H282.569C282.841 43.6508 283.049 43.6108 283.193 43.5308C283.337 43.4348 283.409 43.2428 283.409 42.9548C283.409 42.5868 283.297 42.2588 283.073 41.9708C282.849 41.6668 282.545 41.4348 282.161 41.2748C281.777 41.0988 281.329 41.0108 280.817 41.0108C280.225 41.0108 279.689 41.1308 279.209 41.3708C278.729 41.5948 278.345 41.9068 278.057 42.3068C277.785 42.7068 277.649 43.1548 277.649 43.6508ZM292.218 50.3948C291.626 50.3948 291.098 50.3548 290.634 50.2748C290.186 50.1948 289.794 50.0588 289.458 49.8668C289.138 49.6748 288.874 49.4188 288.666 49.0988C288.458 48.7628 288.298 48.3548 288.186 47.8748C288.09 47.3948 288.042 46.8188 288.042 46.1468V34.5788C288.042 34.3068 288.066 34.0668 288.114 33.8588C288.178 33.6348 288.306 33.4588 288.498 33.3308C288.706 33.1868 289.034 33.1148 289.482 33.1148C289.93 33.1148 290.25 33.1788 290.442 33.3068C290.65 33.4348 290.778 33.6108 290.826 33.8348C290.89 34.0428 290.922 34.2828 290.922 34.5548V46.0268C290.922 46.3308 290.938 46.5868 290.97 46.7948C291.018 46.9868 291.09 47.1468 291.186 47.2748C291.298 47.3868 291.434 47.4668 291.594 47.5148C291.77 47.5628 291.978 47.5868 292.218 47.5868C292.426 47.5868 292.61 47.6108 292.77 47.6588C292.946 47.7068 293.082 47.8268 293.178 48.0188C293.29 48.2108 293.346 48.5228 293.346 48.9548C293.346 49.4028 293.29 49.7308 293.178 49.9388C293.082 50.1468 292.946 50.2748 292.77 50.3228C292.594 50.3708 292.41 50.3948 292.218 50.3948ZM299.736 50.3708C299 50.3708 298.32 50.2428 297.696 49.9868C297.088 49.7148 296.552 49.3308 296.088 48.8348C295.624 48.3388 295.264 47.7468 295.008 47.0588C294.752 46.3708 294.624 45.6108 294.624 44.7788V40.0028C294.624 39.7308 294.648 39.4908 294.696 39.2828C294.744 39.0588 294.872 38.8828 295.08 38.7548C295.288 38.6268 295.608 38.5628 296.04 38.5628C296.504 38.5628 296.832 38.6268 297.024 38.7548C297.232 38.8828 297.36 39.0588 297.408 39.2828C297.456 39.5068 297.48 39.7548 297.48 40.0268V44.7788C297.48 45.3548 297.576 45.8508 297.768 46.2668C297.976 46.6828 298.272 47.0108 298.656 47.2508C299.04 47.4748 299.512 47.5868 300.072 47.5868C300.648 47.5868 301.136 47.4748 301.536 47.2508C301.952 47.0108 302.272 46.6828 302.496 46.2668C302.72 45.8348 302.832 45.3388 302.832 44.7788V39.9788C302.832 39.7068 302.856 39.4668 302.904 39.2588C302.952 39.0348 303.08 38.8668 303.288 38.7548C303.496 38.6268 303.824 38.5628 304.272 38.5628C304.72 38.5628 305.04 38.6268 305.232 38.7548C305.424 38.8828 305.544 39.0588 305.592 39.2828C305.656 39.5068 305.688 39.7468 305.688 40.0028V49.0028C305.688 49.2428 305.656 49.4668 305.592 49.6748C305.544 49.8828 305.416 50.0508 305.208 50.1788C305.016 50.3068 304.696 50.3708 304.248 50.3708C303.928 50.3708 303.672 50.3308 303.48 50.2508C303.304 50.1868 303.168 50.0988 303.072 49.9868C302.992 49.8588 302.936 49.7308 302.904 49.6028C302.888 49.4748 302.88 49.3468 302.88 49.2188L303.072 48.5708C302.976 48.7148 302.832 48.8908 302.64 49.0988C302.448 49.2908 302.208 49.4908 301.92 49.6988C301.648 49.8908 301.328 50.0508 300.96 50.1788C300.592 50.3068 300.184 50.3708 299.736 50.3708ZM317.899 50.3468C317.435 50.3468 317.091 50.2588 316.867 50.0828C316.643 49.9068 316.531 49.6668 316.531 49.3628L316.699 48.5708C316.571 48.7788 316.355 49.0268 316.051 49.3148C315.747 49.5868 315.347 49.8348 314.851 50.0588C314.355 50.2668 313.755 50.3708 313.051 50.3708C312.299 50.3708 311.587 50.2188 310.915 49.9148C310.259 49.5948 309.675 49.1628 309.163 48.6188C308.667 48.0588 308.267 47.4268 307.963 46.7228C307.675 46.0028 307.531 45.2348 307.531 44.4188C307.531 43.6348 307.675 42.8988 307.963 42.2108C308.267 41.5068 308.675 40.8828 309.187 40.3388C309.699 39.7948 310.283 39.3708 310.939 39.0668C311.611 38.7468 312.315 38.5868 313.051 38.5868C313.707 38.5868 314.259 38.6748 314.707 38.8508C315.171 39.0268 315.563 39.2508 315.883 39.5228C316.203 39.7788 316.467 40.0508 316.675 40.3388L316.531 39.6428C316.531 39.2908 316.643 39.0268 316.867 38.8508C317.091 38.6588 317.443 38.5628 317.923 38.5628C318.371 38.5628 318.691 38.6348 318.883 38.7788C319.075 38.9068 319.195 39.0908 319.243 39.3308C319.291 39.5548 319.315 39.8108 319.315 40.0988V48.8828C319.315 49.1548 319.291 49.4028 319.243 49.6268C319.195 49.8508 319.067 50.0268 318.859 50.1548C318.667 50.2828 318.347 50.3468 317.899 50.3468ZM313.483 47.5628C314.027 47.5628 314.515 47.4268 314.947 47.1548C315.379 46.8828 315.723 46.5148 315.979 46.0508C316.251 45.5708 316.387 45.0428 316.387 44.4668C316.387 43.8428 316.251 43.2988 315.979 42.8348C315.707 42.3708 315.347 42.0108 314.899 41.7548C314.467 41.4828 313.979 41.3468 313.435 41.3468C312.843 41.3468 312.315 41.4908 311.851 41.7788C311.387 42.0508 311.019 42.4268 310.747 42.9068C310.491 43.3708 310.363 43.8988 310.363 44.4908C310.363 45.0668 310.499 45.5868 310.771 46.0508C311.043 46.5148 311.411 46.8828 311.875 47.1548C312.355 47.4268 312.891 47.5628 313.483 47.5628ZM323.139 50.3948C322.707 50.3948 322.387 50.3228 322.179 50.1788C321.987 50.0508 321.867 49.8748 321.819 49.6508C321.771 49.4268 321.747 49.1788 321.747 48.9068V40.0028C321.747 39.7148 321.771 39.4668 321.819 39.2588C321.867 39.0348 321.987 38.8668 322.179 38.7548C322.387 38.6268 322.715 38.5628 323.163 38.5628C323.595 38.5628 323.907 38.6188 324.099 38.7308C324.307 38.8428 324.435 38.9868 324.483 39.1628C324.547 39.3228 324.579 39.4828 324.579 39.6428L324.387 40.0748C324.467 39.9468 324.579 39.7948 324.723 39.6188C324.867 39.4268 325.059 39.2428 325.299 39.0668C325.539 38.8748 325.827 38.7228 326.163 38.6108C326.499 38.4828 326.899 38.4188 327.363 38.4188C327.555 38.4188 327.755 38.4428 327.963 38.4908C328.187 38.5228 328.403 38.5788 328.611 38.6588C328.835 38.7228 329.035 38.8108 329.211 38.9228C329.387 39.0348 329.523 39.1708 329.619 39.3308C329.715 39.4748 329.763 39.6428 329.763 39.8348C329.763 40.3468 329.635 40.7788 329.379 41.1308C329.123 41.4828 328.819 41.6588 328.467 41.6588C328.227 41.6588 328.051 41.6348 327.939 41.5868C327.827 41.5388 327.731 41.4828 327.651 41.4188C327.587 41.3548 327.483 41.2988 327.339 41.2508C327.211 41.2028 327.003 41.1788 326.715 41.1788C326.475 41.1788 326.227 41.2188 325.971 41.2988C325.731 41.3788 325.507 41.4988 325.299 41.6588C325.091 41.8188 324.923 42.0268 324.795 42.2828C324.667 42.5228 324.603 42.8028 324.603 43.1228V48.9548C324.603 49.2268 324.579 49.4748 324.531 49.6988C324.483 49.9068 324.355 50.0748 324.147 50.2028C323.939 50.3308 323.603 50.3948 323.139 50.3948ZM336.117 55.1948C335.541 55.1948 334.989 55.1228 334.461 54.9788C333.933 54.8508 333.453 54.6748 333.021 54.4508C332.605 54.2268 332.269 53.9868 332.013 53.7308C331.773 53.4748 331.653 53.2348 331.653 53.0108C331.653 52.7868 331.685 52.5948 331.749 52.4348C331.829 52.2748 331.941 52.1148 332.085 51.9548C332.277 51.7628 332.429 51.6188 332.541 51.5228C332.669 51.4268 332.837 51.3788 333.045 51.3788C333.221 51.3788 333.389 51.4428 333.549 51.5708C333.725 51.6988 333.925 51.8428 334.149 52.0028C334.373 52.1628 334.645 52.3068 334.965 52.4348C335.285 52.5628 335.693 52.6268 336.189 52.6268C336.605 52.6268 336.989 52.5548 337.341 52.4108C337.693 52.2668 337.989 52.0508 338.229 51.7628C338.485 51.4908 338.685 51.1628 338.829 50.7788C338.973 50.3948 339.045 49.9628 339.045 49.4828L339.021 39.5468C339.053 39.1788 339.181 38.9228 339.405 38.7788C339.629 38.6188 339.973 38.5388 340.437 38.5388C340.869 38.5388 341.181 38.6028 341.373 38.7308C341.565 38.8428 341.685 39.0108 341.733 39.2348C341.781 39.4428 341.805 39.6748 341.805 39.9308V49.6508C341.805 50.5308 341.653 51.3148 341.349 52.0028C341.045 52.6908 340.629 53.2668 340.101 53.7308C339.573 54.2108 338.965 54.5708 338.277 54.8108C337.605 55.0668 336.885 55.1948 336.117 55.1948ZM335.853 50.0828C335.101 50.0828 334.397 49.9388 333.741 49.6508C333.101 49.3628 332.533 48.9548 332.037 48.4268C331.557 47.8988 331.173 47.2908 330.885 46.6028C330.613 45.8988 330.477 45.1388 330.477 44.3228C330.477 43.5228 330.613 42.7788 330.885 42.0908C331.173 41.4028 331.557 40.7948 332.037 40.2668C332.533 39.7388 333.101 39.3308 333.741 39.0428C334.397 38.7388 335.093 38.5868 335.829 38.5868C336.549 38.5868 337.173 38.7308 337.701 39.0188C338.245 39.2908 338.693 39.6828 339.045 40.1948C339.397 40.7068 339.661 41.3148 339.837 42.0188C340.029 42.7228 340.125 43.4988 340.125 44.3468C340.125 45.5148 339.965 46.5308 339.645 47.3948C339.325 48.2588 338.853 48.9228 338.229 49.3868C337.605 49.8508 336.813 50.0828 335.853 50.0828ZM336.117 47.3708C336.661 47.3708 337.141 47.2428 337.557 46.9868C337.989 46.7148 338.325 46.3468 338.565 45.8828C338.821 45.4188 338.949 44.8988 338.949 44.3228C338.949 43.7308 338.821 43.2108 338.565 42.7628C338.325 42.2988 337.989 41.9388 337.557 41.6828C337.125 41.4268 336.637 41.2988 336.093 41.2988C335.549 41.2988 335.061 41.4348 334.629 41.7068C334.213 41.9628 333.885 42.3148 333.645 42.7628C333.405 43.2108 333.285 43.7308 333.285 44.3228C333.285 44.9148 333.405 45.4428 333.645 45.9068C333.901 46.3548 334.237 46.7148 334.653 46.9868C335.085 47.2428 335.573 47.3708 336.117 47.3708ZM353.969 50.3468C353.505 50.3468 353.161 50.2588 352.937 50.0828C352.713 49.9068 352.601 49.6668 352.601 49.3628L352.769 48.5708C352.641 48.7788 352.425 49.0268 352.121 49.3148C351.817 49.5868 351.417 49.8348 350.921 50.0588C350.425 50.2668 349.825 50.3708 349.121 50.3708C348.369 50.3708 347.657 50.2188 346.985 49.9148C346.329 49.5948 345.745 49.1628 345.233 48.6188C344.737 48.0588 344.337 47.4268 344.033 46.7228C343.745 46.0028 343.601 45.2348 343.601 44.4188C343.601 43.6348 343.745 42.8988 344.033 42.2108C344.337 41.5068 344.745 40.8828 345.257 40.3388C345.769 39.7948 346.353 39.3708 347.009 39.0668C347.681 38.7468 348.385 38.5868 349.121 38.5868C349.777 38.5868 350.329 38.6748 350.777 38.8508C351.241 39.0268 351.633 39.2508 351.953 39.5228C352.273 39.7788 352.537 40.0508 352.745 40.3388L352.601 39.6428C352.601 39.2908 352.713 39.0268 352.937 38.8508C353.161 38.6588 353.513 38.5628 353.993 38.5628C354.441 38.5628 354.761 38.6348 354.953 38.7788C355.145 38.9068 355.265 39.0908 355.313 39.3308C355.361 39.5548 355.385 39.8108 355.385 40.0988V48.8828C355.385 49.1548 355.361 49.4028 355.313 49.6268C355.265 49.8508 355.137 50.0268 354.929 50.1548C354.737 50.2828 354.417 50.3468 353.969 50.3468ZM349.553 47.5628C350.097 47.5628 350.585 47.4268 351.017 47.1548C351.449 46.8828 351.793 46.5148 352.049 46.0508C352.321 45.5708 352.457 45.0428 352.457 44.4668C352.457 43.8428 352.321 43.2988 352.049 42.8348C351.777 42.3708 351.417 42.0108 350.969 41.7548C350.537 41.4828 350.049 41.3468 349.505 41.3468C348.913 41.3468 348.385 41.4908 347.921 41.7788C347.457 42.0508 347.089 42.4268 346.817 42.9068C346.561 43.3708 346.433 43.8988 346.433 44.4908C346.433 45.0668 346.569 45.5868 346.841 46.0508C347.113 46.5148 347.481 46.8828 347.945 47.1548C348.425 47.4268 348.961 47.5628 349.553 47.5628ZM357.937 52.8668C357.937 52.8668 357.905 52.8508 357.841 52.8188C357.777 52.8028 357.713 52.7388 357.649 52.6268C357.585 52.5308 357.553 52.3708 357.553 52.1468C357.553 51.8428 357.601 51.6428 357.697 51.5468C357.793 51.4668 357.857 51.4188 357.889 51.4028C357.905 51.3868 358.017 51.2908 358.225 51.1148C358.433 50.9548 358.553 50.6748 358.585 50.2748C358.425 50.2428 358.281 50.2028 358.153 50.1548C358.041 50.0908 357.945 50.0188 357.865 49.9388C357.705 49.7788 357.609 49.5948 357.577 49.3868C357.545 49.1628 357.529 48.9388 357.529 48.7148C357.529 48.3468 357.569 48.0428 357.649 47.8028C357.729 47.5628 357.881 47.3868 358.105 47.2748C358.345 47.1468 358.697 47.0828 359.161 47.0828C359.769 47.0828 360.201 47.2108 360.457 47.4668C360.601 47.6108 360.681 47.7948 360.697 48.0188C360.729 48.2428 360.745 48.4668 360.745 48.6908C360.745 48.8508 360.745 48.9868 360.745 49.0988C360.745 49.1948 360.737 49.2828 360.721 49.3628C360.657 50.0028 360.489 50.5868 360.217 51.1148C359.961 51.6428 359.633 52.0668 359.233 52.3868C358.849 52.7068 358.417 52.8668 357.937 52.8668ZM359.113 42.4508C358.505 42.4508 358.081 42.3308 357.841 42.0908C357.617 41.8348 357.505 41.4268 357.505 40.8668C357.505 40.4508 357.545 40.1228 357.625 39.8828C357.721 39.6428 357.889 39.4748 358.129 39.3788C358.385 39.2668 358.721 39.2108 359.137 39.2108C359.761 39.2108 360.185 39.3308 360.409 39.5708C360.633 39.8108 360.745 40.2348 360.745 40.8428C360.745 41.1308 360.713 41.4028 360.649 41.6588C360.585 41.8988 360.441 42.0908 360.217 42.2348C359.993 42.3788 359.625 42.4508 359.113 42.4508ZM95.6206 79.3708C95.2046 79.3708 94.8926 79.2988 94.6846 79.1548C94.4766 79.0268 94.3406 78.8508 94.2766 78.6268C94.2126 78.4028 94.1806 78.1628 94.1806 77.9068V64.0348C94.1806 63.7788 94.2046 63.5468 94.2526 63.3388C94.3166 63.1148 94.4526 62.9388 94.6606 62.8108C94.8686 62.6668 95.1966 62.5948 95.6446 62.5948L100.157 62.6188C101.325 62.6188 102.397 62.8188 103.373 63.2188C104.365 63.6188 105.221 64.1868 105.941 64.9228C106.661 65.6588 107.213 66.5388 107.597 67.5628C107.997 68.5708 108.197 69.6828 108.197 70.8988C108.197 72.1468 107.997 73.2908 107.597 74.3308C107.197 75.3708 106.637 76.2668 105.917 77.0188C105.197 77.7708 104.341 78.3548 103.349 78.7708C102.373 79.1708 101.285 79.3708 100.085 79.3708H95.6206ZM97.0846 76.4668H100.157C101.181 76.4668 102.077 76.2428 102.845 75.7948C103.613 75.3308 104.205 74.6908 104.621 73.8748C105.053 73.0588 105.269 72.1068 105.269 71.0188C105.269 69.9148 105.053 68.9548 104.621 68.1388C104.205 67.3068 103.605 66.6668 102.821 66.2188C102.053 65.7548 101.157 65.5228 100.133 65.5228H97.0846V76.4668ZM120.309 79.3468C119.845 79.3468 119.501 79.2588 119.277 79.0828C119.053 78.9068 118.941 78.6668 118.941 78.3628L119.109 77.5708C118.981 77.7788 118.765 78.0268 118.461 78.3148C118.157 78.5868 117.757 78.8348 117.261 79.0588C116.765 79.2668 116.165 79.3708 115.461 79.3708C114.709 79.3708 113.997 79.2188 113.325 78.9148C112.669 78.5948 112.085 78.1628 111.573 77.6188C111.077 77.0588 110.677 76.4268 110.373 75.7228C110.085 75.0028 109.941 74.2348 109.941 73.4188C109.941 72.6348 110.085 71.8988 110.373 71.2108C110.677 70.5068 111.085 69.8828 111.597 69.3388C112.109 68.7948 112.693 68.3708 113.349 68.0668C114.021 67.7468 114.725 67.5868 115.461 67.5868C116.117 67.5868 116.669 67.6748 117.117 67.8508C117.581 68.0268 117.973 68.2508 118.293 68.5228C118.613 68.7788 118.877 69.0508 119.085 69.3388L118.941 68.6428C118.941 68.2908 119.053 68.0268 119.277 67.8508C119.501 67.6588 119.853 67.5628 120.333 67.5628C120.781 67.5628 121.101 67.6348 121.293 67.7788C121.485 67.9068 121.605 68.0908 121.653 68.3308C121.701 68.5548 121.725 68.8108 121.725 69.0988V77.8828C121.725 78.1548 121.701 78.4028 121.653 78.6268C121.605 78.8508 121.477 79.0268 121.269 79.1548C121.077 79.2828 120.757 79.3468 120.309 79.3468ZM115.893 76.5628C116.437 76.5628 116.925 76.4268 117.357 76.1548C117.789 75.8828 118.133 75.5148 118.389 75.0508C118.661 74.5708 118.797 74.0428 118.797 73.4668C118.797 72.8428 118.661 72.2988 118.389 71.8348C118.117 71.3708 117.757 71.0108 117.309 70.7548C116.877 70.4828 116.389 70.3468 115.845 70.3468C115.253 70.3468 114.725 70.4908 114.261 70.7788C113.797 71.0508 113.429 71.4268 113.157 71.9068C112.901 72.3708 112.773 72.8988 112.773 73.4908C112.773 74.0668 112.909 74.5868 113.181 75.0508C113.453 75.5148 113.821 75.8828 114.285 76.1548C114.765 76.4268 115.301 76.5628 115.893 76.5628ZM125.525 79.3708C125.093 79.3708 124.773 79.3068 124.565 79.1788C124.373 79.0508 124.253 78.8748 124.205 78.6508C124.157 78.4268 124.133 78.1868 124.133 77.9308V68.9548C124.133 68.6988 124.157 68.4668 124.205 68.2588C124.253 68.0508 124.381 67.8828 124.589 67.7548C124.797 67.6268 125.125 67.5628 125.573 67.5628C126.037 67.5628 126.373 67.6588 126.581 67.8508C126.805 68.0428 126.917 68.3468 126.917 68.7628L126.701 69.4348C126.781 69.2588 126.917 69.0668 127.109 68.8588C127.301 68.6508 127.533 68.4428 127.805 68.2348C128.093 68.0268 128.413 67.8588 128.765 67.7308C129.117 67.6028 129.485 67.5388 129.869 67.5388C130.397 67.5388 130.877 67.6268 131.309 67.8028C131.757 67.9788 132.149 68.2348 132.485 68.5708C132.837 68.9068 133.141 69.3148 133.397 69.7948C133.669 69.3788 133.973 69.0028 134.309 68.6668C134.645 68.3148 135.037 68.0428 135.485 67.8508C135.933 67.6428 136.437 67.5388 136.997 67.5388C137.925 67.5388 138.701 67.7708 139.325 68.2348C139.965 68.6988 140.445 69.3628 140.765 70.2268C141.101 71.0748 141.269 72.0908 141.269 73.2748V77.9308C141.269 78.2028 141.237 78.4508 141.173 78.6748C141.125 78.8828 140.997 79.0508 140.789 79.1788C140.597 79.3068 140.277 79.3708 139.829 79.3708C139.381 79.3708 139.053 79.2988 138.845 79.1548C138.637 79.0268 138.509 78.8588 138.461 78.6508C138.413 78.4268 138.389 78.1788 138.389 77.9068V73.2508C138.389 72.6588 138.317 72.1468 138.173 71.7148C138.029 71.2828 137.813 70.9468 137.525 70.7068C137.253 70.4668 136.893 70.3468 136.445 70.3468C135.965 70.3468 135.549 70.4668 135.197 70.7068C134.861 70.9308 134.597 71.2588 134.405 71.6908C134.213 72.1228 134.117 72.6508 134.117 73.2748V77.9548C134.117 78.2268 134.077 78.4828 133.997 78.7228C133.917 78.9468 133.757 79.1148 133.517 79.2268C133.293 79.3548 132.965 79.4028 132.533 79.3708C132.133 79.3548 131.837 79.2748 131.645 79.1308C131.469 78.9868 131.357 78.8108 131.309 78.6028C131.277 78.3788 131.261 78.1468 131.261 77.9068V73.2508C131.261 72.6588 131.189 72.1468 131.045 71.7148C130.901 71.2668 130.685 70.9308 130.397 70.7068C130.125 70.4668 129.757 70.3468 129.293 70.3468C128.797 70.3468 128.373 70.4748 128.021 70.7308C127.685 70.9868 127.429 71.3308 127.253 71.7628C127.077 72.1948 126.989 72.6908 126.989 73.2508V77.9548C126.989 78.2108 126.957 78.4508 126.893 78.6748C126.845 78.8988 126.717 79.0668 126.509 79.1788C126.317 79.3068 125.989 79.3708 125.525 79.3708ZM149.752 79.2268C148.968 79.2268 148.264 79.0828 147.64 78.7948C147.032 78.4908 146.512 78.0748 146.08 77.5468C145.664 77.0028 145.344 76.3788 145.12 75.6748C144.912 74.9708 144.808 74.2108 144.808 73.3948C144.824 72.5788 144.944 71.8188 145.168 71.1148C145.392 70.3948 145.712 69.7708 146.128 69.2428C146.56 68.7148 147.08 68.2988 147.688 67.9948C148.296 67.6908 148.984 67.5388 149.752 67.5388C150.488 67.5388 151.176 67.6908 151.816 67.9948C152.472 68.2988 153.048 68.7228 153.544 69.2668C154.056 69.8108 154.456 70.4428 154.744 71.1628C155.032 71.8668 155.176 72.6268 155.176 73.4428C155.176 74.2748 155.032 75.0428 154.744 75.7468C154.456 76.4508 154.064 77.0668 153.568 77.5948C153.072 78.1068 152.496 78.5068 151.84 78.7948C151.184 79.0828 150.488 79.2268 149.752 79.2268ZM144.952 84.2188C144.52 84.2188 144.2 84.1548 143.992 84.0268C143.784 83.8988 143.656 83.7308 143.608 83.5228C143.56 83.3148 143.536 83.0748 143.536 82.8028V69.0028C143.536 68.7308 143.56 68.4908 143.608 68.2828C143.656 68.0748 143.776 67.9068 143.968 67.7788C144.176 67.6348 144.496 67.5628 144.928 67.5628C145.344 67.5628 145.672 67.6268 145.912 67.7548C146.152 67.8828 146.312 68.0988 146.392 68.4028V82.7788C146.408 83.0508 146.384 83.2908 146.32 83.4988C146.272 83.7228 146.144 83.8988 145.936 84.0268C145.728 84.1548 145.4 84.2188 144.952 84.2188ZM149.368 76.5388C149.928 76.5388 150.432 76.4108 150.88 76.1548C151.328 75.8828 151.68 75.5148 151.936 75.0508C152.208 74.5708 152.344 74.0348 152.344 73.4428C152.344 72.8348 152.208 72.2988 151.936 71.8348C151.68 71.3708 151.328 71.0108 150.88 70.7548C150.432 70.4828 149.928 70.3468 149.368 70.3468C148.824 70.3468 148.328 70.4828 147.88 70.7548C147.432 71.0268 147.072 71.3948 146.8 71.8588C146.544 72.3068 146.416 72.8348 146.416 73.4428C146.416 74.0348 146.544 74.5708 146.8 75.0508C147.072 75.5148 147.432 75.8828 147.88 76.1548C148.328 76.4108 148.824 76.5388 149.368 76.5388ZM167.043 79.3468C166.579 79.3468 166.235 79.2588 166.011 79.0828C165.787 78.9068 165.675 78.6668 165.675 78.3628L165.843 77.5708C165.715 77.7788 165.499 78.0268 165.195 78.3148C164.891 78.5868 164.491 78.8348 163.995 79.0588C163.499 79.2668 162.899 79.3708 162.195 79.3708C161.443 79.3708 160.731 79.2188 160.059 78.9148C159.403 78.5948 158.819 78.1628 158.307 77.6188C157.811 77.0588 157.411 76.4268 157.107 75.7228C156.819 75.0028 156.675 74.2348 156.675 73.4188C156.675 72.6348 156.819 71.8988 157.107 71.2108C157.411 70.5068 157.819 69.8828 158.331 69.3388C158.843 68.7948 159.427 68.3708 160.083 68.0668C160.755 67.7468 161.459 67.5868 162.195 67.5868C162.851 67.5868 163.403 67.6748 163.851 67.8508C164.315 68.0268 164.707 68.2508 165.027 68.5228C165.347 68.7788 165.611 69.0508 165.819 69.3388L165.675 68.6428C165.675 68.2908 165.787 68.0268 166.011 67.8508C166.235 67.6588 166.587 67.5628 167.067 67.5628C167.515 67.5628 167.835 67.6348 168.027 67.7788C168.219 67.9068 168.339 68.0908 168.387 68.3308C168.435 68.5548 168.459 68.8108 168.459 69.0988V77.8828C168.459 78.1548 168.435 78.4028 168.387 78.6268C168.339 78.8508 168.211 79.0268 168.003 79.1548C167.811 79.2828 167.491 79.3468 167.043 79.3468ZM162.627 76.5628C163.171 76.5628 163.659 76.4268 164.091 76.1548C164.523 75.8828 164.867 75.5148 165.123 75.0508C165.395 74.5708 165.531 74.0428 165.531 73.4668C165.531 72.8428 165.395 72.2988 165.123 71.8348C164.851 71.3708 164.491 71.0108 164.043 70.7548C163.611 70.4828 163.123 70.3468 162.579 70.3468C161.987 70.3468 161.459 70.4908 160.995 70.7788C160.531 71.0508 160.163 71.4268 159.891 71.9068C159.635 72.3708 159.507 72.8988 159.507 73.4908C159.507 74.0668 159.643 74.5868 159.915 75.0508C160.187 75.5148 160.555 75.8828 161.019 76.1548C161.499 76.4268 162.035 76.5628 162.627 76.5628ZM180.276 76.8028C180.692 77.1548 180.908 77.4828 180.924 77.7868C180.956 78.0908 180.796 78.4428 180.444 78.8428C180.172 79.1468 179.932 79.3468 179.724 79.4428C179.516 79.5388 179.308 79.5388 179.1 79.4428C178.892 79.3628 178.644 79.2028 178.356 78.9628L173.772 75.0988V77.9548C173.772 78.2108 173.74 78.4508 173.676 78.6748C173.628 78.8988 173.5 79.0748 173.292 79.2028C173.1 79.3308 172.78 79.3948 172.332 79.3948C171.884 79.3948 171.556 79.3228 171.348 79.1788C171.156 79.0508 171.036 78.8748 170.988 78.6508C170.94 78.4268 170.916 78.1868 170.916 77.9308V63.6028C170.916 63.3308 170.94 63.0908 170.988 62.8828C171.052 62.6588 171.18 62.4828 171.372 62.3548C171.58 62.2108 171.908 62.1388 172.356 62.1388C172.804 62.1388 173.124 62.2108 173.316 62.3548C173.508 62.4828 173.628 62.6588 173.676 62.8828C173.74 63.0908 173.772 63.3388 173.772 63.6268V71.4988L177.084 68.2828C177.34 68.0428 177.58 67.8828 177.804 67.8028C178.028 67.7068 178.244 67.6988 178.452 67.7788C178.676 67.8428 178.908 68.0108 179.148 68.2828C179.548 68.7148 179.74 69.0748 179.724 69.3628C179.708 69.6348 179.508 69.9628 179.124 70.3468L175.884 73.3468L180.276 76.8028ZM198.356 79.3468C197.892 79.3468 197.548 79.2588 197.324 79.0828C197.1 78.9068 196.988 78.6668 196.988 78.3628L197.156 77.5708C197.028 77.7788 196.812 78.0268 196.508 78.3148C196.204 78.5868 195.804 78.8348 195.308 79.0588C194.812 79.2668 194.212 79.3708 193.508 79.3708C192.756 79.3708 192.044 79.2188 191.372 78.9148C190.716 78.5948 190.132 78.1628 189.62 77.6188C189.124 77.0588 188.724 76.4268 188.42 75.7228C188.132 75.0028 187.988 74.2348 187.988 73.4188C187.988 72.6348 188.132 71.8988 188.42 71.2108C188.724 70.5068 189.132 69.8828 189.644 69.3388C190.156 68.7948 190.74 68.3708 191.396 68.0668C192.068 67.7468 192.772 67.5868 193.508 67.5868C194.164 67.5868 194.716 67.6748 195.164 67.8508C195.628 68.0268 196.02 68.2508 196.34 68.5228C196.66 68.7788 196.924 69.0508 197.132 69.3388L196.988 68.6428C196.988 68.2908 197.1 68.0268 197.324 67.8508C197.548 67.6588 197.9 67.5628 198.38 67.5628C198.828 67.5628 199.148 67.6348 199.34 67.7788C199.532 67.9068 199.652 68.0908 199.7 68.3308C199.748 68.5548 199.772 68.8108 199.772 69.0988V77.8828C199.772 78.1548 199.748 78.4028 199.7 78.6268C199.652 78.8508 199.524 79.0268 199.316 79.1548C199.124 79.2828 198.804 79.3468 198.356 79.3468ZM193.94 76.5628C194.484 76.5628 194.972 76.4268 195.404 76.1548C195.836 75.8828 196.18 75.5148 196.436 75.0508C196.708 74.5708 196.844 74.0428 196.844 73.4668C196.844 72.8428 196.708 72.2988 196.436 71.8348C196.164 71.3708 195.804 71.0108 195.356 70.7548C194.924 70.4828 194.436 70.3468 193.892 70.3468C193.3 70.3468 192.772 70.4908 192.308 70.7788C191.844 71.0508 191.476 71.4268 191.204 71.9068C190.948 72.3708 190.82 72.8988 190.82 73.4908C190.82 74.0668 190.956 74.5868 191.228 75.0508C191.5 75.5148 191.868 75.8828 192.332 76.1548C192.812 76.4268 193.348 76.5628 193.94 76.5628ZM211.588 76.8028C212.004 77.1548 212.22 77.4828 212.236 77.7868C212.268 78.0908 212.108 78.4428 211.756 78.8428C211.484 79.1468 211.244 79.3468 211.036 79.4428C210.828 79.5388 210.62 79.5388 210.412 79.4428C210.204 79.3628 209.956 79.2028 209.668 78.9628L205.084 75.0988V77.9548C205.084 78.2108 205.052 78.4508 204.988 78.6748C204.94 78.8988 204.812 79.0748 204.604 79.2028C204.412 79.3308 204.092 79.3948 203.644 79.3948C203.196 79.3948 202.868 79.3228 202.66 79.1788C202.468 79.0508 202.348 78.8748 202.3 78.6508C202.252 78.4268 202.228 78.1868 202.228 77.9308V63.6028C202.228 63.3308 202.252 63.0908 202.3 62.8828C202.364 62.6588 202.492 62.4828 202.684 62.3548C202.892 62.2108 203.22 62.1388 203.668 62.1388C204.116 62.1388 204.436 62.2108 204.628 62.3548C204.82 62.4828 204.94 62.6588 204.988 62.8828C205.052 63.0908 205.084 63.3388 205.084 63.6268V71.4988L208.396 68.2828C208.652 68.0428 208.892 67.8828 209.116 67.8028C209.34 67.7068 209.556 67.6988 209.764 67.7788C209.988 67.8428 210.22 68.0108 210.46 68.2828C210.86 68.7148 211.052 69.0748 211.036 69.3628C211.02 69.6348 210.82 69.9628 210.436 70.3468L207.196 73.3468L211.588 76.8028ZM223.223 79.3468C222.759 79.3468 222.415 79.2588 222.191 79.0828C221.967 78.9068 221.855 78.6668 221.855 78.3628L222.023 77.5708C221.895 77.7788 221.679 78.0268 221.375 78.3148C221.071 78.5868 220.671 78.8348 220.175 79.0588C219.679 79.2668 219.079 79.3708 218.375 79.3708C217.623 79.3708 216.911 79.2188 216.239 78.9148C215.583 78.5948 214.999 78.1628 214.487 77.6188C213.991 77.0588 213.591 76.4268 213.287 75.7228C212.999 75.0028 212.855 74.2348 212.855 73.4188C212.855 72.6348 212.999 71.8988 213.287 71.2108C213.591 70.5068 213.999 69.8828 214.511 69.3388C215.023 68.7948 215.607 68.3708 216.263 68.0668C216.935 67.7468 217.639 67.5868 218.375 67.5868C219.031 67.5868 219.583 67.6748 220.031 67.8508C220.495 68.0268 220.887 68.2508 221.207 68.5228C221.527 68.7788 221.791 69.0508 221.999 69.3388L221.855 68.6428C221.855 68.2908 221.967 68.0268 222.191 67.8508C222.415 67.6588 222.767 67.5628 223.247 67.5628C223.695 67.5628 224.015 67.6348 224.207 67.7788C224.399 67.9068 224.519 68.0908 224.567 68.3308C224.615 68.5548 224.639 68.8108 224.639 69.0988V77.8828C224.639 78.1548 224.615 78.4028 224.567 78.6268C224.519 78.8508 224.391 79.0268 224.183 79.1548C223.991 79.2828 223.671 79.3468 223.223 79.3468ZM218.807 76.5628C219.351 76.5628 219.839 76.4268 220.271 76.1548C220.703 75.8828 221.047 75.5148 221.303 75.0508C221.575 74.5708 221.711 74.0428 221.711 73.4668C221.711 72.8428 221.575 72.2988 221.303 71.8348C221.031 71.3708 220.671 71.0108 220.223 70.7548C219.791 70.4828 219.303 70.3468 218.759 70.3468C218.167 70.3468 217.639 70.4908 217.175 70.7788C216.711 71.0508 216.343 71.4268 216.071 71.9068C215.815 72.3708 215.687 72.8988 215.687 73.4908C215.687 74.0668 215.823 74.5868 216.095 75.0508C216.367 75.5148 216.735 75.8828 217.199 76.1548C217.679 76.4268 218.215 76.5628 218.807 76.5628ZM232.135 79.3708C231.399 79.3708 230.703 79.2188 230.047 78.9148C229.391 78.6108 228.815 78.1948 228.319 77.6668C227.823 77.1228 227.431 76.4908 227.143 75.7708C226.855 75.0348 226.711 74.2508 226.711 73.4188C226.711 72.6188 226.855 71.8668 227.143 71.1628C227.431 70.4428 227.823 69.8188 228.319 69.2908C228.831 68.7468 229.415 68.3228 230.071 68.0188C230.727 67.7148 231.415 67.5628 232.135 67.5628C232.903 67.5628 233.591 67.7148 234.199 68.0188C234.807 68.3228 235.319 68.7468 235.735 69.2908C236.167 69.8188 236.495 70.4428 236.719 71.1628C236.943 71.8668 237.063 72.6268 237.079 73.4428C237.079 74.2588 236.967 75.0268 236.743 75.7468C236.535 76.4508 236.215 77.0748 235.783 77.6188C235.367 78.1628 234.847 78.5948 234.223 78.9148C233.615 79.2188 232.919 79.3708 232.135 79.3708ZM232.519 76.5628C233.079 76.5628 233.575 76.4348 234.007 76.1788C234.455 75.9068 234.807 75.5388 235.063 75.0748C235.335 74.6108 235.471 74.0828 235.471 73.4908C235.471 72.8828 235.335 72.3468 235.063 71.8828C234.807 71.4188 234.455 71.0508 234.007 70.7788C233.575 70.5068 233.079 70.3708 232.519 70.3708C231.959 70.3708 231.455 70.5068 231.007 70.7788C230.559 71.0348 230.199 71.4028 229.927 71.8828C229.671 72.3468 229.543 72.8828 229.543 73.4908C229.543 74.0828 229.671 74.6108 229.927 75.0748C230.199 75.5388 230.559 75.9068 231.007 76.1788C231.471 76.4348 231.975 76.5628 232.519 76.5628ZM236.959 79.3708C236.511 79.3708 236.183 79.2988 235.975 79.1548C235.767 78.9948 235.631 78.7468 235.567 78.4108V63.6268C235.567 63.3548 235.583 63.1148 235.615 62.9068C235.663 62.6828 235.783 62.5068 235.975 62.3788C236.183 62.2348 236.503 62.1628 236.935 62.1628C237.399 62.1628 237.727 62.2268 237.919 62.3548C238.111 62.4828 238.231 62.6588 238.279 62.8828C238.343 63.0908 238.375 63.3308 238.375 63.6028V77.9068C238.375 78.1788 238.351 78.4268 238.303 78.6508C238.255 78.8748 238.127 79.0508 237.919 79.1788C237.727 79.3068 237.407 79.3708 236.959 79.3708ZM246.564 79.5388C245.524 79.5388 244.612 79.3708 243.828 79.0348C243.06 78.6988 242.412 78.2428 241.884 77.6668C241.372 77.0748 240.98 76.4188 240.708 75.6988C240.452 74.9628 240.324 74.2028 240.324 73.4188C240.324 72.2668 240.588 71.2428 241.116 70.3468C241.644 69.4508 242.372 68.7468 243.3 68.2348C244.244 67.7228 245.324 67.4668 246.54 67.4668C247.404 67.4668 248.164 67.6028 248.82 67.8748C249.476 68.1468 250.02 68.5068 250.452 68.9548C250.9 69.3868 251.236 69.8668 251.46 70.3948C251.7 70.9228 251.82 71.4348 251.82 71.9308C251.82 72.7788 251.612 73.3948 251.196 73.7788C250.796 74.1628 250.292 74.3548 249.684 74.3548H243.348C243.364 74.8988 243.532 75.3708 243.852 75.7708C244.188 76.1708 244.604 76.4828 245.1 76.7068C245.612 76.9148 246.132 77.0188 246.66 77.0188C247.06 77.0188 247.412 76.9948 247.716 76.9468C248.036 76.8988 248.308 76.8428 248.532 76.7788C248.756 76.6988 248.948 76.6188 249.108 76.5388C249.284 76.4588 249.444 76.3868 249.588 76.3228C249.732 76.2588 249.868 76.2188 249.996 76.2028C250.172 76.1868 250.348 76.2268 250.524 76.3228C250.7 76.4188 250.844 76.5868 250.956 76.8268C251.052 76.9868 251.116 77.1388 251.148 77.2828C251.196 77.4108 251.22 77.5388 251.22 77.6668C251.22 77.9868 251.028 78.2908 250.644 78.5788C250.26 78.8508 249.716 79.0748 249.012 79.2508C248.324 79.4428 247.508 79.5388 246.564 79.5388ZM243.348 72.6508H248.268C248.54 72.6508 248.748 72.6108 248.892 72.5308C249.036 72.4348 249.108 72.2428 249.108 71.9548C249.108 71.5868 248.996 71.2588 248.772 70.9708C248.548 70.6668 248.244 70.4348 247.86 70.2748C247.476 70.0988 247.028 70.0108 246.516 70.0108C245.924 70.0108 245.388 70.1308 244.908 70.3708C244.428 70.5948 244.044 70.9068 243.756 71.3068C243.484 71.7068 243.348 72.1548 243.348 72.6508ZM255.181 79.3708C254.749 79.3708 254.429 79.3068 254.221 79.1788C254.029 79.0508 253.909 78.8748 253.861 78.6508C253.813 78.4268 253.789 78.1868 253.789 77.9308V68.9548C253.789 68.6988 253.813 68.4668 253.861 68.2588C253.909 68.0508 254.037 67.8828 254.245 67.7548C254.453 67.6268 254.781 67.5628 255.229 67.5628C255.693 67.5628 256.029 67.6588 256.237 67.8508C256.461 68.0428 256.573 68.3468 256.573 68.7628L256.357 69.4348C256.437 69.2588 256.573 69.0668 256.765 68.8588C256.957 68.6508 257.189 68.4428 257.461 68.2348C257.749 68.0268 258.069 67.8588 258.421 67.7308C258.773 67.6028 259.141 67.5388 259.525 67.5388C260.053 67.5388 260.533 67.6268 260.965 67.8028C261.413 67.9788 261.805 68.2348 262.141 68.5708C262.493 68.9068 262.797 69.3148 263.053 69.7948C263.325 69.3788 263.629 69.0028 263.965 68.6668C264.301 68.3148 264.693 68.0428 265.141 67.8508C265.589 67.6428 266.093 67.5388 266.653 67.5388C267.581 67.5388 268.357 67.7708 268.981 68.2348C269.621 68.6988 270.101 69.3628 270.421 70.2268C270.757 71.0748 270.925 72.0908 270.925 73.2748V77.9308C270.925 78.2028 270.893 78.4508 270.829 78.6748C270.781 78.8828 270.653 79.0508 270.445 79.1788C270.253 79.3068 269.933 79.3708 269.485 79.3708C269.037 79.3708 268.709 79.2988 268.501 79.1548C268.293 79.0268 268.165 78.8588 268.117 78.6508C268.069 78.4268 268.045 78.1788 268.045 77.9068V73.2508C268.045 72.6588 267.973 72.1468 267.829 71.7148C267.685 71.2828 267.469 70.9468 267.181 70.7068C266.909 70.4668 266.549 70.3468 266.101 70.3468C265.621 70.3468 265.205 70.4668 264.853 70.7068C264.517 70.9308 264.253 71.2588 264.061 71.6908C263.869 72.1228 263.773 72.6508 263.773 73.2748V77.9548C263.773 78.2268 263.733 78.4828 263.653 78.7228C263.573 78.9468 263.413 79.1148 263.173 79.2268C262.949 79.3548 262.621 79.4028 262.189 79.3708C261.789 79.3548 261.493 79.2748 261.301 79.1308C261.125 78.9868 261.013 78.8108 260.965 78.6028C260.933 78.3788 260.917 78.1468 260.917 77.9068V73.2508C260.917 72.6588 260.845 72.1468 260.701 71.7148C260.557 71.2668 260.341 70.9308 260.053 70.7068C259.781 70.4668 259.413 70.3468 258.949 70.3468C258.453 70.3468 258.029 70.4748 257.677 70.7308C257.341 70.9868 257.085 71.3308 256.909 71.7628C256.733 72.1948 256.645 72.6908 256.645 73.2508V77.9548C256.645 78.2108 256.613 78.4508 256.549 78.6748C256.501 78.8988 256.373 79.0668 256.165 79.1788C255.973 79.3068 255.645 79.3708 255.181 79.3708ZM274.872 79.3948C274.44 79.3948 274.12 79.3228 273.912 79.1788C273.704 79.0508 273.576 78.8828 273.528 78.6748C273.48 78.4508 273.456 78.2028 273.456 77.9308V69.0028C273.456 68.7468 273.48 68.5148 273.528 68.3068C273.592 68.0828 273.72 67.9068 273.912 67.7788C274.12 67.6508 274.448 67.5868 274.896 67.5868C275.344 67.5868 275.664 67.6508 275.856 67.7788C276.064 67.9068 276.192 68.0828 276.24 68.3068C276.288 68.5308 276.312 68.7788 276.312 69.0508V77.9548C276.312 78.2268 276.288 78.4748 276.24 78.6988C276.192 78.9068 276.064 79.0748 275.856 79.2028C275.664 79.3308 275.336 79.3948 274.872 79.3948ZM274.872 65.2588C274.408 65.2588 274.064 65.1948 273.84 65.0668C273.632 64.9228 273.496 64.7308 273.432 64.4908C273.384 64.2508 273.36 63.9868 273.36 63.6988C273.36 63.3948 273.384 63.1308 273.432 62.9068C273.496 62.6828 273.64 62.5068 273.864 62.3788C274.088 62.2348 274.432 62.1628 274.896 62.1628C275.376 62.1628 275.72 62.2348 275.928 62.3788C276.136 62.5228 276.272 62.7148 276.336 62.9548C276.4 63.1788 276.432 63.4428 276.432 63.7468C276.432 64.0188 276.4 64.2748 276.336 64.5148C276.272 64.7548 276.136 64.9388 275.928 65.0668C275.72 65.1948 275.368 65.2588 274.872 65.2588ZM288.346 76.8028C288.762 77.1548 288.978 77.4828 288.994 77.7868C289.026 78.0908 288.866 78.4428 288.514 78.8428C288.242 79.1468 288.002 79.3468 287.794 79.4428C287.586 79.5388 287.378 79.5388 287.17 79.4428C286.962 79.3628 286.714 79.2028 286.426 78.9628L281.842 75.0988V77.9548C281.842 78.2108 281.81 78.4508 281.746 78.6748C281.698 78.8988 281.57 79.0748 281.362 79.2028C281.17 79.3308 280.85 79.3948 280.402 79.3948C279.954 79.3948 279.626 79.3228 279.418 79.1788C279.226 79.0508 279.106 78.8748 279.058 78.6508C279.01 78.4268 278.986 78.1868 278.986 77.9308V63.6028C278.986 63.3308 279.01 63.0908 279.058 62.8828C279.122 62.6588 279.25 62.4828 279.442 62.3548C279.65 62.2108 279.978 62.1388 280.426 62.1388C280.874 62.1388 281.194 62.2108 281.386 62.3548C281.578 62.4828 281.698 62.6588 281.746 62.8828C281.81 63.0908 281.842 63.3388 281.842 63.6268V71.4988L285.154 68.2828C285.41 68.0428 285.65 67.8828 285.874 67.8028C286.098 67.7068 286.314 67.6988 286.522 67.7788C286.746 67.8428 286.978 68.0108 287.218 68.2828C287.618 68.7148 287.81 69.0748 287.794 69.3628C287.778 69.6348 287.578 69.9628 287.194 70.3468L283.954 73.3468L288.346 76.8028Z" fill="black"/>
</svg>
