<svg width="336" height="108" viewBox="0 0 336 108" fill="none" xmlns="http://www.w3.org/2000/svg">
<mask id="mask0_61_1536" style="mask-type:luminance" maskUnits="userSpaceOnUse" x="0" y="0" width="336" height="108">
<path d="M336 0H0V108H336V0Z" fill="white"/>
</mask>
<g mask="url(#mask0_61_1536)">
<mask id="mask1_61_1536" style="mask-type:luminance" maskUnits="userSpaceOnUse" x="7" y="8" width="327" height="100">
<path d="M7.84424 8.3999H333.385V107.419H7.84424V8.3999Z" fill="white"/>
</mask>
<g mask="url(#mask1_61_1536)">
<path d="M13.2627 65.1468L10.413 56.1234L14.9429 46.6875L10.9493 37.2562L8.21191 27.8203L10.1679 17.4187L22.057 16.4109L32.9094 14.0343L43.966 19.3265L54.6959 12.375L65.8036 19.5375L76.6304 16.1671L87.6667 20.6109L98.5803 20.4093L109.54 21.9093L120.387 19.2796L130.719 15.3984L141.096 13.1062L151.474 10.889L161.938 11.8921L172.468 15.4125L182.984 18.3093L193.412 18.0656L203.616 9.27651L214.254 16.8187L224.703 17.2546L234.983 11.2312L245.351 8.58276L256.121 11.6156L267.28 13.289L275.895 21.0562L286.748 22.8656L295.946 29.1046L309.367 24.0374L319.371 28.1015L332.931 33.4593L325.479 45.3046L325.214 55.8843L314.464 62.8734L310.695 72.2531L313.989 84.0562L308.759 92.939L306.088 104.377L290.517 98.7703L280.002 105.689L268.991 98.9906L258.537 107.841L247.49 99.8718L236.766 101.189L225.964 100.223L215.413 107.039L204.586 105.309L193.892 109.102L183.418 103.069L172.387 107.752L162.188 104.442L151.811 103.795L141.377 104.255L130.959 104.372L120.816 99.4874L110.372 100.083L100.25 94.6312L89.2703 105.084L79.4342 94.3499L68.5103 103.884L58.4955 96.5203L48.3019 92.2078L37.5006 99.6515L22.8997 100.397L24.7535 88.3265L19.146 81.2062L9.24864 75.2203L13.2627 65.1468Z" fill="black"/>
<path d="M13.2627 65.1468L10.413 56.1234L14.9429 46.6875L10.9493 37.2562L8.21191 27.8203L10.1679 17.4187L22.057 16.4109L32.9094 14.0343L43.966 19.3265L54.6959 12.375L65.8036 19.5375L76.6304 16.1671L87.6667 20.6109L98.5803 20.4093L109.54 21.9093L120.387 19.2796L130.719 15.3984L141.096 13.1062L151.474 10.889L161.938 11.8921L172.468 15.4125L182.984 18.3093L193.412 18.0656L203.616 9.27651L214.254 16.8187L224.703 17.2546L234.983 11.2312L245.351 8.58276L256.121 11.6156L267.28 13.289L275.895 21.0562L286.748 22.8656L295.946 29.1046L309.367 24.0374L319.371 28.1015L332.931 33.4593L325.479 45.3046L325.214 55.8843L314.464 62.8734L310.695 72.2531L313.989 84.0562L308.759 92.939L306.088 104.377L290.517 98.7703L280.002 105.689L268.991 98.9906L258.537 107.841L247.49 99.8718L236.766 101.189L225.964 100.223L215.413 107.039L204.586 105.309L193.892 109.102L183.418 103.069L172.387 107.752L162.188 104.442L151.811 103.795L141.377 104.255L130.959 104.372L120.816 99.4874L110.372 100.083L100.25 94.6312L89.2703 105.084L79.4342 94.3499L68.5103 103.884L58.4955 96.5203L48.3019 92.2078L37.5006 99.6515L22.8997 100.397L24.7535 88.3265L19.146 81.2062L9.24864 75.2203L13.2627 65.1468Z" fill="black"/>
</g>
<mask id="mask2_61_1536" style="mask-type:luminance" maskUnits="userSpaceOnUse" x="6" y="7" width="328" height="101">
<path d="M6.53711 7.19995H333.973V107.419H6.53711V7.19995Z" fill="white"/>
</mask>
<g mask="url(#mask2_61_1536)">
<path d="M193.821 109.786L183.372 103.777L172.423 108.427L162.051 105.061L151.806 104.391L141.408 104.845L130.801 104.967L120.669 100.083L110.215 100.697L100.368 95.3954L89.2401 105.989L79.3836 95.2314L68.5517 104.695L58.1334 97.0642L48.3892 92.9345L37.7258 100.261L22.1034 101.058L24.0543 88.5142L18.646 81.6517L8.44221 75.4642L12.5636 65.1282L9.70875 56.0813L14.2233 46.6688L10.3012 37.4157L7.52295 27.8485L9.59639 16.8563L21.9809 15.8017L32.9967 13.411L43.9104 18.6329L54.6963 11.6251L65.9113 18.8579L76.6616 15.5063L87.7999 19.9923L98.6217 19.7907L109.5 21.2907L120.163 18.6985L130.556 14.7985L140.923 12.5063L151.418 10.2751L162.153 11.3157L172.678 14.836L183.071 17.686L193.142 17.4563L203.571 8.46572L214.5 16.2095L224.499 16.622L234.682 10.6642L245.346 7.93604L256.265 10.9876L267.592 12.6845L276.218 20.4563L287.014 22.2517L296.028 28.3595L309.357 23.3298L319.632 27.497L333.886 33.1642L326.149 45.4735L325.888 56.2079L315.026 63.2673L311.4 72.2907L314.73 84.136L309.398 93.1548L306.558 105.216L290.599 99.4642L280.002 106.434L269.048 99.7689L258.573 108.666L247.307 100.533L236.781 101.831L226.118 100.87L215.567 107.686L204.653 105.947L193.821 109.786ZM183.469 102.375L193.969 108.417L204.515 104.677L215.255 106.392L225.786 99.5907L236.756 100.58L247.68 99.2298L258.502 107.039L268.925 98.2173L279.987 104.934L290.425 98.072L305.593 103.528L308.126 92.7142L313.279 83.9673L310.001 72.211L313.892 62.4845L324.556 55.5423L324.816 45.1642L331.981 33.7454L319.111 28.6782L309.352 24.7126L295.849 29.8126L286.473 23.4423L275.574 21.6142L266.959 13.8563L255.907 12.1923L245.325 9.20635L235.249 11.7985L224.872 17.9063L213.999 17.4563L203.647 10.1251L193.648 18.7126L182.852 18.9704L172.234 16.0454L161.785 12.497L151.515 11.5126L141.275 13.7063L130.929 15.9751L120.561 19.8704L109.581 22.5329L98.5349 21.0188L87.5344 21.2298L76.6309 16.8235L65.7019 20.222L54.6963 13.1204L44.0329 20.0438L32.8384 14.6813L22.1188 17.0157L10.7404 17.986L8.89163 27.7923L11.5881 37.0642L15.6686 46.7017L11.1285 56.1517L13.9833 65.1704L10.0765 74.9767L19.6317 80.7517L25.4639 88.172L23.6866 99.7407L37.2764 99.0517L48.236 91.5001L58.8994 96.0376L68.4699 103.069L79.4806 93.4595L89.2912 104.17L100.123 93.8579L110.521 99.4642L120.95 98.8501L131.107 103.734L141.357 103.622L151.806 103.158L162.311 103.814L172.306 107.063L183.469 102.375Z" fill="black"/>
</g>
<mask id="mask3_61_1536" style="mask-type:luminance" maskUnits="userSpaceOnUse" x="2" y="0" width="327" height="102">
<path d="M2.61475 0.975098H328.156V102H2.61475V0.975098Z" fill="white"/>
</mask>
<g mask="url(#mask3_61_1536)">
<path d="M8.21729 57.0561L5.37269 48.0279L9.89749 38.592L5.90382 29.1607L3.15625 19.7248L5.12245 9.32793L17.0064 8.31543L27.8639 5.94355L38.9206 11.2311L49.6504 4.27949L60.753 11.4467L71.585 8.06699L82.6212 12.5201L93.5298 12.3139L104.495 13.8232L115.342 11.1889L125.673 7.29824L136.051 5.01074L146.428 2.79824L156.892 3.80137L167.423 7.31699L177.933 10.2139L188.367 9.97012L198.566 1.18105L209.209 8.72793L219.657 9.16387L229.938 3.14043L240.305 0.487305L251.076 3.5248L262.235 5.19355L270.85 12.9654L281.702 14.7748L290.9 21.0092L304.316 15.942L314.326 20.0061L327.885 25.3592L320.434 37.2139L320.168 47.7936L309.418 54.7779L305.649 64.1623L308.948 75.9607L303.714 84.8436L301.038 96.2811L285.471 90.6795L274.956 97.5982L263.945 90.8998L253.491 99.7498L242.44 91.7764L231.715 93.0982L220.919 92.1279L210.363 98.9436L199.541 97.2232L188.847 101.011L178.372 94.9732L167.341 99.6561L157.138 96.3561L146.77 95.6998L136.332 96.1639L125.913 96.2811L115.771 91.392L105.327 91.9873L95.2049 86.5404L84.2248 96.9889L74.3887 86.2592L63.4649 95.7842L53.4449 88.4201L43.2616 84.1123L32.4551 91.5607L17.8491 92.3014L19.708 80.2357L14.1006 73.1107L4.20319 67.1248L8.21729 57.0561Z" fill="white"/>
</g>
<mask id="mask4_61_1536" style="mask-type:luminance" maskUnits="userSpaceOnUse" x="0" y="0" width="333" height="105">
<path d="M0.566895 0.975098H332.078V104.4H0.566895V0.975098Z" fill="white"/>
</mask>
<g mask="url(#mask4_61_1536)">
<path d="M188.597 103.509L178.204 97.5281L167.484 102.08L156.652 98.5688L146.755 97.9594L136.372 98.4141L125.336 98.5406L115.25 93.6562L104.74 94.2656L95.6441 89.3813L84.1227 100.373L74.2049 89.5594L63.6078 98.7703L52.1426 90.3469L43.5577 86.7188L33.308 93.7641L14.979 94.6922L17.1137 80.8125L12.3488 74.7563L1.21047 68.0391L5.61271 56.9953L2.77322 47.8688L7.24184 38.5453L3.52905 29.7375L0.653809 19.8281L3.03367 7.25156L16.6081 6.08438L28.1857 3.5625L38.7265 8.60625L49.6453 1.52813L61.1463 8.94844L71.6973 5.6625L83.1115 10.2609L93.6932 10.0641L104.357 11.5313L114.56 9.05156L124.912 5.15625L135.479 2.83125L146.27 0.520313L157.444 1.59844L168.194 5.18906L178.265 7.95938L187.371 7.74375L198.412 -1.76719L210.097 6.51094L218.994 6.88594L228.922 1.06406L240.341 -1.85156L251.638 1.33594L263.394 3.09375L272.055 10.8797L282.719 12.6563L291.232 18.45L304.342 13.4953L315.307 17.9531L331.373 24.3L322.87 37.8375L322.594 48.9703L311.461 56.2078L308.213 64.2797L311.548 76.2516L306.027 85.6313L302.815 99.3422L285.808 93.2344L274.997 100.345L264.18 93.7641L253.604 102.717L241.725 94.1672L231.73 95.3906L221.552 94.4813L210.889 101.348L199.725 99.5719L188.597 103.509ZM178.551 92.4234L189.107 98.5266L199.26 94.9031L209.755 96.5719L220.224 89.8125L231.649 90.8391L243.119 89.4234L253.338 96.8016L263.664 88.05L274.874 94.8703L285.099 88.1531L299.23 93.2297L301.375 84.0703L306.334 75.6938L303.085 64.0922L307.38 53.4L317.753 46.6828L317.998 36.6141L324.387 26.4563L313.351 22.1016L304.28 18.4359L290.563 23.5641L280.701 16.8844L269.67 15.0563L261.065 7.30781L250.519 5.71875L240.274 2.83125L230.944 5.2125L220.326 11.4328L208.33 10.9406L198.724 4.12969L189.363 12.1922L177.606 12.4641L166.58 9.4125L156.331 5.98594L146.607 5.07188L136.612 7.20469L126.434 9.44531L116.123 13.3219L104.622 16.1109L93.3715 14.5641L82.1207 14.775L71.4573 10.5L60.37 13.9359L49.6504 7.02656L39.1147 13.8563L27.5371 8.32031L17.4048 10.5375L7.21631 11.4047L5.66378 19.6266L8.23771 28.4625L12.548 38.6484L7.98236 48.2156L10.8065 57.1688L7.17035 66.2297L15.8318 71.4656L22.2769 79.6547L20.6988 89.9062L31.5818 89.3578L42.9653 81.5109L54.7472 86.4984L63.3014 92.7891L74.5879 83.0203L84.3525 93.6609L94.7759 83.7328L105.955 89.7375L116.338 89.1234L126.506 94.0078L136.26 93.9L146.796 93.4359L157.643 94.1109L167.214 97.2141L178.551 92.4234Z" fill="black"/>
<path d="M188.597 103.509L178.204 97.5281L167.484 102.08L156.652 98.5688L146.755 97.9594L136.372 98.4141L125.336 98.5406L115.25 93.6562L104.74 94.2656L95.6441 89.3813L84.1227 100.373L74.2049 89.5594L63.6078 98.7703L52.1426 90.3469L43.5577 86.7188L33.308 93.7641L14.979 94.6922L17.1137 80.8125L12.3488 74.7563L1.21047 68.0391L5.61271 56.9953L2.77322 47.8688L7.24184 38.5453L3.52905 29.7375L0.653809 19.8281L3.03367 7.25156L16.6081 6.08438L28.1857 3.5625L38.7265 8.60625L49.6453 1.52813L61.1463 8.94844L71.6973 5.6625L83.1115 10.2609L93.6932 10.0641L104.357 11.5313L114.56 9.05156L124.912 5.15625L135.479 2.83125L146.27 0.520313L157.444 1.59844L168.194 5.18906L178.265 7.95938L187.371 7.74375L198.412 -1.76719L210.097 6.51094L218.994 6.88594L228.922 1.06406L240.341 -1.85156L251.638 1.33594L263.394 3.09375L272.055 10.8797L282.719 12.6563L291.232 18.45L304.342 13.4953L315.307 17.9531L331.373 24.3L322.87 37.8375L322.594 48.9703L311.461 56.2078L308.213 64.2797L311.548 76.2516L306.027 85.6313L302.815 99.3422L285.808 93.2344L274.997 100.345L264.18 93.7641L253.604 102.717L241.725 94.1672L231.73 95.3906L221.552 94.4813L210.889 101.348L199.725 99.5719L188.597 103.509ZM178.551 92.4234L189.107 98.5266L199.26 94.9031L209.755 96.5719L220.224 89.8125L231.649 90.8391L243.119 89.4234L253.338 96.8016L263.664 88.05L274.874 94.8703L285.099 88.1531L299.23 93.2297L301.375 84.0703L306.334 75.6938L303.085 64.0922L307.38 53.4L317.753 46.6828L317.998 36.6141L324.387 26.4563L313.351 22.1016L304.28 18.4359L290.563 23.5641L280.701 16.8844L269.67 15.0563L261.065 7.30781L250.519 5.71875L240.274 2.83125L230.944 5.2125L220.326 11.4328L208.33 10.9406L198.724 4.12969L189.363 12.1922L177.606 12.4641L166.58 9.4125L156.331 5.98594L146.607 5.07188L136.612 7.20469L126.434 9.44531L116.123 13.3219L104.622 16.1109L93.3715 14.5641L82.1207 14.775L71.4573 10.5L60.37 13.9359L49.6504 7.02656L39.1147 13.8563L27.5371 8.32031L17.4048 10.5375L7.21631 11.4047L5.66378 19.6266L8.23771 28.4625L12.548 38.6484L7.98236 48.2156L10.8065 57.1688L7.17035 66.2297L15.8318 71.4656L22.2769 79.6547L20.6988 89.9062L31.5818 89.3578L42.9653 81.5109L54.7472 86.4984L63.3014 92.7891L74.5879 83.0203L84.3525 93.6609L94.7759 83.7328L105.955 89.7375L116.338 89.1234L126.506 94.0078L136.26 93.9L146.796 93.4359L157.643 94.1109L167.214 97.2141L178.551 92.4234Z" fill="black"/>
</g>
</g>
<path d="M36.8732 61.439C36.3505 61.439 35.9679 61.3643 35.7252 61.215C35.4825 61.0657 35.3332 60.8603 35.2772 60.599C35.2212 60.319 35.1932 60.0297 35.1932 59.731V43.575C35.1932 43.2763 35.2212 43.0057 35.2772 42.763C35.3519 42.5017 35.5105 42.2963 35.7532 42.147C35.9959 41.979 36.3785 41.895 36.9012 41.895H42.8372C43.6585 41.895 44.4612 42.035 45.2452 42.315C46.0292 42.595 46.7292 43.015 47.3452 43.575C47.9799 44.135 48.4745 44.8257 48.8292 45.647C49.2025 46.4683 49.3892 47.4297 49.3892 48.531C49.3892 49.6137 49.2025 50.5657 48.8292 51.387C48.4745 52.1897 47.9799 52.871 47.3452 53.431C46.7105 53.991 46.0012 54.411 45.2172 54.691C44.4519 54.971 43.6492 55.111 42.8092 55.111H38.5812V59.759C38.5812 60.0577 38.5439 60.3377 38.4692 60.599C38.4132 60.8603 38.2639 61.0657 38.0212 61.215C37.7972 61.3643 37.4145 61.439 36.8732 61.439ZM38.5812 51.695H42.8372C43.4159 51.695 43.9385 51.583 44.4052 51.359C44.8905 51.1163 45.2825 50.7617 45.5812 50.295C45.8799 49.8097 46.0292 49.203 46.0292 48.475C46.0292 47.8217 45.8892 47.2617 45.6092 46.795C45.3479 46.3097 44.9745 45.9363 44.4892 45.675C44.0225 45.4137 43.4625 45.283 42.8092 45.283H38.5812V51.695ZM58.4509 61.635C57.2376 61.635 56.1736 61.439 55.2589 61.047C54.3629 60.655 53.6069 60.123 52.9909 59.451C52.3936 58.7603 51.9363 57.995 51.6189 57.155C51.3203 56.2963 51.1709 55.4097 51.1709 54.495C51.1709 53.151 51.4789 51.9563 52.0949 50.911C52.7109 49.8657 53.5603 49.0443 54.6429 48.447C55.7443 47.8497 57.0043 47.551 58.4229 47.551C59.4309 47.551 60.3176 47.7097 61.0829 48.027C61.8483 48.3443 62.4829 48.7643 62.9869 49.287C63.5096 49.791 63.9016 50.351 64.1629 50.967C64.4429 51.583 64.5829 52.1803 64.5829 52.759C64.5829 53.7483 64.3403 54.467 63.8549 54.915C63.3883 55.363 62.8003 55.587 62.0909 55.587H54.6989C54.7176 56.2217 54.9136 56.7723 55.2869 57.239C55.6789 57.7057 56.1643 58.0697 56.7429 58.331C57.3403 58.5737 57.9469 58.695 58.5629 58.695C59.0296 58.695 59.4403 58.667 59.7949 58.611C60.1683 58.555 60.4856 58.4897 60.7469 58.415C61.0083 58.3217 61.2323 58.2283 61.4189 58.135C61.6243 58.0417 61.8109 57.9577 61.9789 57.883C62.1469 57.8083 62.3056 57.7617 62.4549 57.743C62.6603 57.7243 62.8656 57.771 63.0709 57.883C63.2763 57.995 63.4443 58.191 63.5749 58.471C63.6869 58.6577 63.7616 58.835 63.7989 59.003C63.8549 59.1523 63.8829 59.3017 63.8829 59.451C63.8829 59.8243 63.6589 60.179 63.2109 60.515C62.7629 60.8323 62.1283 61.0937 61.3069 61.299C60.5043 61.523 59.5523 61.635 58.4509 61.635ZM54.6989 53.599H60.4389C60.7563 53.599 60.9989 53.5523 61.1669 53.459C61.3349 53.347 61.4189 53.123 61.4189 52.787C61.4189 52.3577 61.2883 51.975 61.0269 51.639C60.7656 51.2843 60.4109 51.0137 59.9629 50.827C59.5149 50.6217 58.9923 50.519 58.3949 50.519C57.7043 50.519 57.0789 50.659 56.5189 50.939C55.9589 51.2003 55.5109 51.5643 55.1749 52.031C54.8576 52.4977 54.6989 53.0203 54.6989 53.599ZM68.5327 61.467C68.0287 61.467 67.6553 61.383 67.4127 61.215C67.1887 61.0657 67.0487 60.8603 66.9927 60.599C66.9367 60.3377 66.9087 60.0483 66.9087 59.731V49.343C66.9087 49.007 66.9367 48.7177 66.9927 48.475C67.0487 48.2137 67.1887 48.0177 67.4127 47.887C67.6553 47.7377 68.038 47.663 68.5607 47.663C69.0647 47.663 69.4287 47.7283 69.6527 47.859C69.8953 47.9897 70.0447 48.1577 70.1007 48.363C70.1753 48.5497 70.2127 48.7363 70.2127 48.923L69.9887 49.427C70.082 49.2777 70.2127 49.1003 70.3807 48.895C70.5487 48.671 70.7727 48.4563 71.0527 48.251C71.3327 48.027 71.6687 47.8497 72.0607 47.719C72.4527 47.5697 72.9193 47.495 73.4607 47.495C73.6847 47.495 73.918 47.523 74.1607 47.579C74.422 47.6163 74.674 47.6817 74.9167 47.775C75.178 47.8497 75.4113 47.9523 75.6167 48.083C75.822 48.2137 75.9807 48.3723 76.0927 48.559C76.2047 48.727 76.2607 48.923 76.2607 49.147C76.2607 49.7443 76.1113 50.2483 75.8127 50.659C75.514 51.0697 75.1593 51.275 74.7487 51.275C74.4687 51.275 74.2633 51.247 74.1327 51.191C74.002 51.135 73.89 51.0697 73.7967 50.995C73.722 50.9203 73.6007 50.855 73.4327 50.799C73.2833 50.743 73.0407 50.715 72.7047 50.715C72.4247 50.715 72.1353 50.7617 71.8367 50.855C71.5567 50.9483 71.2953 51.0883 71.0527 51.275C70.81 51.4617 70.614 51.7043 70.4647 52.003C70.3153 52.283 70.2407 52.6097 70.2407 52.983V59.787C70.2407 60.1043 70.2127 60.3937 70.1567 60.655C70.1007 60.8977 69.9513 61.0937 69.7087 61.243C69.466 61.3923 69.074 61.467 68.5327 61.467ZM80.2938 61.467C79.7898 61.467 79.4164 61.383 79.1738 61.215C78.9311 61.0657 78.7818 60.8697 78.7258 60.627C78.6698 60.3657 78.6418 60.0763 78.6418 59.759V49.343C78.6418 49.0443 78.6698 48.7737 78.7258 48.531C78.8004 48.2697 78.9498 48.0643 79.1738 47.915C79.4164 47.7657 79.7991 47.691 80.3218 47.691C80.8444 47.691 81.2178 47.7657 81.4418 47.915C81.6844 48.0643 81.8338 48.2697 81.8898 48.531C81.9458 48.7923 81.9738 49.0817 81.9738 49.399V59.787C81.9738 60.1043 81.9458 60.3937 81.8898 60.655C81.8338 60.8977 81.6844 61.0937 81.4418 61.243C81.2178 61.3923 80.8351 61.467 80.2938 61.467ZM80.2938 44.975C79.7524 44.975 79.3511 44.9003 79.0898 44.751C78.8471 44.583 78.6884 44.359 78.6138 44.079C78.5578 43.799 78.5298 43.491 78.5298 43.155C78.5298 42.8003 78.5578 42.4923 78.6138 42.231C78.6884 41.9697 78.8564 41.7643 79.1178 41.615C79.3791 41.447 79.7804 41.363 80.3218 41.363C80.8818 41.363 81.2831 41.447 81.5258 41.615C81.7684 41.783 81.9271 42.007 82.0018 42.287C82.0764 42.5483 82.1138 42.8563 82.1138 43.211C82.1138 43.5283 82.0764 43.827 82.0018 44.107C81.9271 44.387 81.7684 44.6017 81.5258 44.751C81.2831 44.9003 80.8724 44.975 80.2938 44.975ZM89.8529 61.467C89.1623 61.467 88.5463 61.4203 88.0049 61.327C87.4823 61.2337 87.0249 61.075 86.6329 60.851C86.2596 60.627 85.9516 60.3283 85.7089 59.955C85.4663 59.563 85.2796 59.087 85.1489 58.527C85.0369 57.967 84.9809 57.295 84.9809 56.511V43.015C84.9809 42.6977 85.0089 42.4177 85.0649 42.175C85.1396 41.9137 85.2889 41.7083 85.5129 41.559C85.7556 41.391 86.1383 41.307 86.6609 41.307C87.1836 41.307 87.5569 41.3817 87.7809 41.531C88.0236 41.6803 88.1729 41.8857 88.2289 42.147C88.3036 42.3897 88.3409 42.6697 88.3409 42.987V56.371C88.3409 56.7257 88.3596 57.0243 88.3969 57.267C88.4529 57.491 88.5369 57.6777 88.6489 57.827C88.7796 57.9577 88.9383 58.051 89.1249 58.107C89.3303 58.163 89.5729 58.191 89.8529 58.191C90.0956 58.191 90.3103 58.219 90.4969 58.275C90.7023 58.331 90.8609 58.471 90.9729 58.695C91.1036 58.919 91.1689 59.283 91.1689 59.787C91.1689 60.3097 91.1036 60.6923 90.9729 60.935C90.8609 61.1777 90.7023 61.327 90.4969 61.383C90.2916 61.439 90.0769 61.467 89.8529 61.467ZM104.665 61.411C104.124 61.411 103.723 61.3083 103.461 61.103C103.2 60.8977 103.069 60.6177 103.069 60.263L103.265 59.339C103.116 59.5817 102.864 59.871 102.509 60.207C102.155 60.5243 101.688 60.8137 101.109 61.075C100.531 61.3177 99.8307 61.439 99.0094 61.439C98.132 61.439 97.3014 61.2617 96.5174 60.907C95.752 60.5337 95.0707 60.0297 94.4734 59.395C93.8947 58.7417 93.428 58.0043 93.0734 57.183C92.7374 56.343 92.5694 55.447 92.5694 54.495C92.5694 53.5803 92.7374 52.7217 93.0734 51.919C93.428 51.0977 93.904 50.3697 94.5014 49.735C95.0987 49.1003 95.78 48.6057 96.5454 48.251C97.3294 47.8777 98.1507 47.691 99.0094 47.691C99.7747 47.691 100.419 47.7937 100.941 47.999C101.483 48.2043 101.94 48.4657 102.313 48.783C102.687 49.0817 102.995 49.399 103.237 49.735L103.069 48.923C103.069 48.5123 103.2 48.2043 103.461 47.999C103.723 47.775 104.133 47.663 104.693 47.663C105.216 47.663 105.589 47.747 105.813 47.915C106.037 48.0643 106.177 48.279 106.233 48.559C106.289 48.8203 106.317 49.119 106.317 49.455V59.703C106.317 60.0203 106.289 60.3097 106.233 60.571C106.177 60.8323 106.028 61.0377 105.785 61.187C105.561 61.3363 105.188 61.411 104.665 61.411ZM99.5134 58.163C100.148 58.163 100.717 58.0043 101.221 57.687C101.725 57.3697 102.127 56.9403 102.425 56.399C102.743 55.839 102.901 55.223 102.901 54.551C102.901 53.823 102.743 53.1883 102.425 52.647C102.108 52.1057 101.688 51.6857 101.165 51.387C100.661 51.0697 100.092 50.911 99.4574 50.911C98.7667 50.911 98.1507 51.079 97.6094 51.415C97.068 51.7323 96.6387 52.171 96.3214 52.731C96.0227 53.2723 95.8734 53.8883 95.8734 54.579C95.8734 55.251 96.032 55.8577 96.3494 56.399C96.6667 56.9403 97.096 57.3697 97.6374 57.687C98.1974 58.0043 98.8227 58.163 99.5134 58.163ZM120.103 58.443C120.588 58.8537 120.84 59.2363 120.859 59.591C120.896 59.9457 120.709 60.3563 120.299 60.823C119.981 61.1777 119.701 61.411 119.459 61.523C119.216 61.635 118.973 61.635 118.731 61.523C118.488 61.4297 118.199 61.243 117.863 60.963L112.515 56.455V59.787C112.515 60.0857 112.477 60.3657 112.403 60.627C112.347 60.8883 112.197 61.0937 111.955 61.243C111.731 61.3923 111.357 61.467 110.835 61.467C110.312 61.467 109.929 61.383 109.687 61.215C109.463 61.0657 109.323 60.8603 109.267 60.599C109.211 60.3377 109.183 60.0577 109.183 59.759V43.043C109.183 42.7257 109.211 42.4457 109.267 42.203C109.341 41.9417 109.491 41.7363 109.715 41.587C109.957 41.419 110.34 41.335 110.863 41.335C111.385 41.335 111.759 41.419 111.983 41.587C112.207 41.7363 112.347 41.9417 112.403 42.203C112.477 42.4457 112.515 42.735 112.515 43.071V52.255L116.379 48.503C116.677 48.223 116.957 48.0363 117.219 47.943C117.48 47.831 117.732 47.8217 117.975 47.915C118.236 47.9897 118.507 48.1857 118.787 48.503C119.253 49.007 119.477 49.427 119.459 49.763C119.44 50.0803 119.207 50.463 118.759 50.911L114.979 54.411L120.103 58.443ZM127.909 61.439C127.05 61.439 126.257 61.2897 125.529 60.991C124.82 60.6737 124.194 60.2257 123.653 59.647C123.112 59.0683 122.692 58.3777 122.393 57.575C122.094 56.7723 121.945 55.8857 121.945 54.915V49.343C121.945 49.0257 121.973 48.7457 122.029 48.503C122.085 48.2417 122.234 48.0363 122.477 47.887C122.72 47.7377 123.093 47.663 123.597 47.663C124.138 47.663 124.521 47.7377 124.745 47.887C124.988 48.0363 125.137 48.2417 125.193 48.503C125.249 48.7643 125.277 49.0537 125.277 49.371V54.915C125.277 55.587 125.389 56.1657 125.613 56.651C125.856 57.1363 126.201 57.519 126.649 57.799C127.097 58.0603 127.648 58.191 128.301 58.191C128.973 58.191 129.542 58.0603 130.009 57.799C130.494 57.519 130.868 57.1363 131.129 56.651C131.39 56.147 131.521 55.5683 131.521 54.915V49.315C131.521 48.9977 131.549 48.7177 131.605 48.475C131.661 48.2137 131.81 48.0177 132.053 47.887C132.296 47.7377 132.678 47.663 133.201 47.663C133.724 47.663 134.097 47.7377 134.321 47.887C134.545 48.0363 134.685 48.2417 134.741 48.503C134.816 48.7643 134.853 49.0443 134.853 49.343V59.843C134.853 60.123 134.816 60.3843 134.741 60.627C134.685 60.8697 134.536 61.0657 134.293 61.215C134.069 61.3643 133.696 61.439 133.173 61.439C132.8 61.439 132.501 61.3923 132.277 61.299C132.072 61.2243 131.913 61.1217 131.801 60.991C131.708 60.8417 131.642 60.6923 131.605 60.543C131.586 60.3937 131.577 60.2443 131.577 60.095L131.801 59.339C131.689 59.507 131.521 59.7123 131.297 59.955C131.073 60.179 130.793 60.4123 130.457 60.655C130.14 60.879 129.766 61.0657 129.337 61.215C128.908 61.3643 128.432 61.439 127.909 61.439ZM146.188 61.439C145.684 61.439 145.311 61.3643 145.068 61.215C144.844 61.0657 144.704 60.8603 144.648 60.599C144.592 60.3377 144.564 60.0577 144.564 59.759V49.287C144.564 48.9883 144.592 48.7177 144.648 48.475C144.704 48.2323 144.854 48.0363 145.096 47.887C145.339 47.7377 145.722 47.663 146.244 47.663C146.786 47.663 147.178 47.775 147.42 47.999C147.682 48.223 147.812 48.5777 147.812 49.063L147.56 49.847C147.654 49.6417 147.812 49.4177 148.036 49.175C148.26 48.9323 148.531 48.6897 148.848 48.447C149.184 48.2043 149.558 48.0083 149.968 47.859C150.379 47.7097 150.808 47.635 151.256 47.635C151.872 47.635 152.432 47.7377 152.936 47.943C153.459 48.1483 153.916 48.447 154.308 48.839C154.719 49.231 155.074 49.707 155.372 50.267C155.69 49.7817 156.044 49.343 156.436 48.951C156.828 48.5403 157.286 48.223 157.808 47.999C158.331 47.7563 158.919 47.635 159.572 47.635C160.655 47.635 161.56 47.9057 162.288 48.447C163.035 48.9883 163.595 49.763 163.968 50.771C164.36 51.7603 164.556 52.9457 164.556 54.327V59.759C164.556 60.0763 164.519 60.3657 164.444 60.627C164.388 60.8697 164.239 61.0657 163.996 61.215C163.772 61.3643 163.399 61.439 162.876 61.439C162.354 61.439 161.971 61.355 161.728 61.187C161.486 61.0377 161.336 60.8417 161.28 60.599C161.224 60.3377 161.196 60.0483 161.196 59.731V54.299C161.196 53.6083 161.112 53.011 160.944 52.507C160.776 52.003 160.524 51.611 160.188 51.331C159.871 51.051 159.451 50.911 158.928 50.911C158.368 50.911 157.883 51.051 157.472 51.331C157.08 51.5923 156.772 51.975 156.548 52.479C156.324 52.983 156.212 53.599 156.212 54.327V59.787C156.212 60.1043 156.166 60.403 156.072 60.683C155.979 60.9443 155.792 61.1403 155.512 61.271C155.251 61.4203 154.868 61.4763 154.364 61.439C153.898 61.4203 153.552 61.327 153.328 61.159C153.123 60.991 152.992 60.7857 152.936 60.543C152.899 60.2817 152.88 60.011 152.88 59.731V54.299C152.88 53.6083 152.796 53.011 152.628 52.507C152.46 51.9843 152.208 51.5923 151.872 51.331C151.555 51.051 151.126 50.911 150.584 50.911C150.006 50.911 149.511 51.0603 149.1 51.359C148.708 51.6577 148.41 52.059 148.204 52.563C147.999 53.067 147.896 53.6457 147.896 54.299V59.787C147.896 60.0857 147.859 60.3657 147.784 60.627C147.728 60.8883 147.579 61.0843 147.336 61.215C147.112 61.3643 146.73 61.439 146.188 61.439ZM174.033 61.635C172.82 61.635 171.756 61.439 170.841 61.047C169.945 60.655 169.189 60.123 168.573 59.451C167.976 58.7603 167.518 57.995 167.201 57.155C166.902 56.2963 166.753 55.4097 166.753 54.495C166.753 53.151 167.061 51.9563 167.677 50.911C168.293 49.8657 169.142 49.0443 170.225 48.447C171.326 47.8497 172.586 47.551 174.005 47.551C175.013 47.551 175.9 47.7097 176.665 48.027C177.43 48.3443 178.065 48.7643 178.569 49.287C179.092 49.791 179.484 50.351 179.745 50.967C180.025 51.583 180.165 52.1803 180.165 52.759C180.165 53.7483 179.922 54.467 179.437 54.915C178.97 55.363 178.382 55.587 177.673 55.587H170.281C170.3 56.2217 170.496 56.7723 170.869 57.239C171.261 57.7057 171.746 58.0697 172.325 58.331C172.922 58.5737 173.529 58.695 174.145 58.695C174.612 58.695 175.022 58.667 175.377 58.611C175.75 58.555 176.068 58.4897 176.329 58.415C176.59 58.3217 176.814 58.2283 177.001 58.135C177.206 58.0417 177.393 57.9577 177.561 57.883C177.729 57.8083 177.888 57.7617 178.037 57.743C178.242 57.7243 178.448 57.771 178.653 57.883C178.858 57.995 179.026 58.191 179.157 58.471C179.269 58.6577 179.344 58.835 179.381 59.003C179.437 59.1523 179.465 59.3017 179.465 59.451C179.465 59.8243 179.241 60.179 178.793 60.515C178.345 60.8323 177.71 61.0937 176.889 61.299C176.086 61.523 175.134 61.635 174.033 61.635ZM170.281 53.599H176.021C176.338 53.599 176.581 53.5523 176.749 53.459C176.917 53.347 177.001 53.123 177.001 52.787C177.001 52.3577 176.87 51.975 176.609 51.639C176.348 51.2843 175.993 51.0137 175.545 50.827C175.097 50.6217 174.574 50.519 173.977 50.519C173.286 50.519 172.661 50.659 172.101 50.939C171.541 51.2003 171.093 51.5643 170.757 52.031C170.44 52.4977 170.281 53.0203 170.281 53.599ZM184.115 61.439C183.611 61.439 183.237 61.355 182.995 61.187C182.771 61.0377 182.631 60.8417 182.575 60.599C182.519 60.3377 182.491 60.0483 182.491 59.731V49.259C182.491 48.9603 182.519 48.6897 182.575 48.447C182.631 48.2043 182.78 48.0177 183.023 47.887C183.265 47.7377 183.639 47.663 184.143 47.663C184.591 47.663 184.927 47.719 185.151 47.831C185.375 47.943 185.524 48.083 185.599 48.251C185.673 48.419 185.711 48.587 185.711 48.755C185.729 48.923 185.748 49.0537 185.767 49.147L185.655 50.043C185.767 49.7443 185.953 49.455 186.215 49.175C186.476 48.895 186.793 48.643 187.167 48.419C187.54 48.1763 187.941 47.9897 188.371 47.859C188.819 47.7097 189.276 47.635 189.743 47.635C190.62 47.635 191.404 47.7937 192.095 48.111C192.785 48.4283 193.373 48.8763 193.859 49.455C194.363 50.0337 194.745 50.7243 195.007 51.527C195.268 52.311 195.399 53.1977 195.399 54.187V59.759C195.399 60.0763 195.361 60.3657 195.287 60.627C195.231 60.8697 195.091 61.0657 194.867 61.215C194.643 61.3643 194.26 61.439 193.719 61.439C193.196 61.439 192.813 61.355 192.571 61.187C192.328 61.0377 192.179 60.8417 192.123 60.599C192.067 60.3377 192.039 60.0483 192.039 59.731V54.159C192.039 53.487 191.917 52.9083 191.675 52.423C191.451 51.9377 191.115 51.5643 190.667 51.303C190.237 51.0417 189.687 50.911 189.015 50.911C188.361 50.911 187.792 51.051 187.307 51.331C186.821 51.5923 186.448 51.9657 186.187 52.451C185.925 52.9363 185.795 53.5057 185.795 54.159V59.759C185.795 60.0763 185.767 60.3657 185.711 60.627C185.655 60.8697 185.505 61.0657 185.263 61.215C185.039 61.3643 184.656 61.439 184.115 61.439ZM204.795 61.523C203.899 61.523 203.021 61.3737 202.163 61.075C201.323 60.7577 200.557 60.3003 199.867 59.703C199.195 59.1057 198.653 58.3777 198.243 57.519C197.851 56.6417 197.655 55.6523 197.655 54.551C197.655 53.4497 197.851 52.4697 198.243 51.611C198.653 50.7523 199.195 50.0243 199.867 49.427C200.539 48.8297 201.295 48.3723 202.135 48.055C202.975 47.7377 203.843 47.579 204.739 47.579C205.392 47.579 206.008 47.6723 206.587 47.859C207.184 48.0457 207.697 48.2697 208.127 48.531C208.556 48.7923 208.864 49.0537 209.051 49.315C209.293 49.539 209.499 49.7537 209.667 49.959C209.835 50.1643 209.891 50.4163 209.835 50.715C209.779 50.9017 209.695 51.079 209.583 51.247C209.471 51.3963 209.331 51.555 209.163 51.723C208.715 52.227 208.276 52.4137 207.847 52.283C207.604 52.1523 207.361 52.0123 207.119 51.863C206.876 51.7137 206.624 51.5737 206.363 51.443C206.12 51.2937 205.868 51.1723 205.607 51.079C205.345 50.9857 205.056 50.939 204.739 50.939C204.029 50.939 203.395 51.0977 202.835 51.415C202.293 51.7137 201.864 52.1337 201.547 52.675C201.248 53.2163 201.099 53.8417 201.099 54.551C201.099 55.2603 201.248 55.895 201.547 56.455C201.864 56.9963 202.293 57.4257 202.835 57.743C203.376 58.0417 203.992 58.191 204.683 58.191C205.019 58.191 205.336 58.1537 205.635 58.079C205.952 57.9857 206.232 57.8737 206.475 57.743C206.717 57.5937 206.913 57.4443 207.063 57.295C207.268 57.1643 207.455 57.043 207.623 56.931C207.791 56.819 207.968 56.763 208.155 56.763C208.379 56.763 208.593 56.847 208.799 57.015C209.023 57.1643 209.265 57.407 209.527 57.743C209.769 58.023 209.9 58.2937 209.919 58.555C209.956 58.8163 209.9 59.0683 209.751 59.311C209.62 59.5537 209.396 59.7777 209.079 59.983C208.855 60.207 208.519 60.4403 208.071 60.683C207.641 60.907 207.137 61.103 206.559 61.271C205.999 61.439 205.411 61.523 204.795 61.523ZM218.762 61.635C217.866 61.635 216.989 61.467 216.13 61.131C215.29 60.7763 214.525 60.2817 213.834 59.647C213.162 59.0123 212.621 58.2657 212.21 57.407C211.818 56.5483 211.622 55.6057 211.622 54.579C211.622 53.5897 211.809 52.6657 212.182 51.807C212.555 50.9483 213.069 50.1923 213.722 49.539C214.375 48.8857 215.122 48.3817 215.962 48.027C216.821 47.6537 217.735 47.467 218.706 47.467C220.013 47.467 221.198 47.7843 222.262 48.419C223.326 49.035 224.175 49.875 224.81 50.939C225.445 52.003 225.762 53.207 225.762 54.551C225.762 55.615 225.566 56.5857 225.174 57.463C224.782 58.3217 224.25 59.0683 223.578 59.703C222.906 60.319 222.15 60.795 221.31 61.131C220.489 61.467 219.639 61.635 218.762 61.635ZM218.706 58.331C219.322 58.331 219.91 58.1817 220.47 57.883C221.049 57.5657 221.515 57.1177 221.87 56.539C222.243 55.9603 222.43 55.279 222.43 54.495C222.43 53.767 222.262 53.123 221.926 52.563C221.609 52.003 221.17 51.5643 220.61 51.247C220.05 50.9297 219.406 50.771 218.678 50.771C217.987 50.771 217.362 50.939 216.802 51.275C216.242 51.5923 215.794 52.0403 215.458 52.619C215.141 53.179 214.982 53.8137 214.982 54.523C214.982 55.307 215.159 55.9883 215.514 56.567C215.869 57.127 216.326 57.5657 216.886 57.883C217.465 58.1817 218.071 58.331 218.706 58.331ZM229.615 61.439C229.111 61.439 228.737 61.355 228.495 61.187C228.271 61.0377 228.131 60.8417 228.075 60.599C228.019 60.3377 227.991 60.0483 227.991 59.731V49.259C227.991 48.9603 228.019 48.6897 228.075 48.447C228.131 48.2043 228.28 48.0177 228.523 47.887C228.765 47.7377 229.139 47.663 229.643 47.663C230.091 47.663 230.427 47.719 230.651 47.831C230.875 47.943 231.024 48.083 231.099 48.251C231.173 48.419 231.211 48.587 231.211 48.755C231.229 48.923 231.248 49.0537 231.267 49.147L231.155 50.043C231.267 49.7443 231.453 49.455 231.715 49.175C231.976 48.895 232.293 48.643 232.667 48.419C233.04 48.1763 233.441 47.9897 233.871 47.859C234.319 47.7097 234.776 47.635 235.243 47.635C236.12 47.635 236.904 47.7937 237.595 48.111C238.285 48.4283 238.873 48.8763 239.359 49.455C239.863 50.0337 240.245 50.7243 240.507 51.527C240.768 52.311 240.899 53.1977 240.899 54.187V59.759C240.899 60.0763 240.861 60.3657 240.787 60.627C240.731 60.8697 240.591 61.0657 240.367 61.215C240.143 61.3643 239.76 61.439 239.219 61.439C238.696 61.439 238.313 61.355 238.071 61.187C237.828 61.0377 237.679 60.8417 237.623 60.599C237.567 60.3377 237.539 60.0483 237.539 59.731V54.159C237.539 53.487 237.417 52.9083 237.175 52.423C236.951 51.9377 236.615 51.5643 236.167 51.303C235.737 51.0417 235.187 50.911 234.515 50.911C233.861 50.911 233.292 51.051 232.807 51.331C232.321 51.5923 231.948 51.9657 231.687 52.451C231.425 52.9363 231.295 53.5057 231.295 54.159V59.759C231.295 60.0763 231.267 60.3657 231.211 60.627C231.155 60.8697 231.005 61.0657 230.763 61.215C230.539 61.3643 230.156 61.439 229.615 61.439ZM250.161 61.467C249.247 61.467 248.463 61.3737 247.809 61.187C247.156 61.0003 246.624 60.711 246.213 60.319C245.803 59.927 245.495 59.423 245.289 58.807C245.103 58.1723 245.009 57.4257 245.009 56.567V44.695C245.009 44.359 245.037 44.0697 245.093 43.827C245.168 43.5843 245.317 43.3977 245.541 43.267C245.784 43.1177 246.157 43.043 246.661 43.043C247.184 43.043 247.557 43.1177 247.781 43.267C248.024 43.4163 248.173 43.6217 248.229 43.883C248.304 44.1257 248.341 44.3963 248.341 44.695V56.455C248.341 56.847 248.369 57.1643 248.425 57.407C248.5 57.6497 248.603 57.8363 248.733 57.967C248.883 58.079 249.069 58.163 249.293 58.219C249.536 58.2563 249.825 58.275 250.161 58.275C250.516 58.275 250.815 58.303 251.057 58.359C251.319 58.415 251.515 58.555 251.645 58.779C251.776 58.9843 251.841 59.3297 251.841 59.815C251.841 60.3377 251.757 60.7203 251.589 60.963C251.44 61.187 251.235 61.327 250.973 61.383C250.731 61.439 250.46 61.467 250.161 61.467ZM243.861 47.943L246.745 47.971L250.609 47.859C250.927 47.859 251.207 47.8963 251.449 47.971C251.711 48.027 251.916 48.1763 252.065 48.419C252.215 48.643 252.289 49.0163 252.289 49.539C252.289 50.0243 252.215 50.3883 252.065 50.631C251.916 50.8737 251.72 51.0323 251.477 51.107C251.235 51.163 250.955 51.191 250.637 51.191L246.885 51.135L243.777 51.163C243.311 51.1443 242.984 51.0137 242.797 50.771C242.629 50.5097 242.545 50.0897 242.545 49.511C242.545 48.9697 242.648 48.5777 242.853 48.335C243.077 48.0737 243.413 47.943 243.861 47.943ZM261.041 61.635C259.827 61.635 258.763 61.439 257.849 61.047C256.953 60.655 256.197 60.123 255.581 59.451C254.983 58.7603 254.526 57.995 254.209 57.155C253.91 56.2963 253.761 55.4097 253.761 54.495C253.761 53.151 254.069 51.9563 254.685 50.911C255.301 49.8657 256.15 49.0443 257.233 48.447C258.334 47.8497 259.594 47.551 261.013 47.551C262.021 47.551 262.907 47.7097 263.673 48.027C264.438 48.3443 265.073 48.7643 265.577 49.287C266.099 49.791 266.491 50.351 266.753 50.967C267.033 51.583 267.173 52.1803 267.173 52.759C267.173 53.7483 266.93 54.467 266.445 54.915C265.978 55.363 265.39 55.587 264.681 55.587H257.289C257.307 56.2217 257.503 56.7723 257.877 57.239C258.269 57.7057 258.754 58.0697 259.333 58.331C259.93 58.5737 260.537 58.695 261.153 58.695C261.619 58.695 262.03 58.667 262.385 58.611C262.758 58.555 263.075 58.4897 263.337 58.415C263.598 58.3217 263.822 58.2283 264.009 58.135C264.214 58.0417 264.401 57.9577 264.569 57.883C264.737 57.8083 264.895 57.7617 265.045 57.743C265.25 57.7243 265.455 57.771 265.661 57.883C265.866 57.995 266.034 58.191 266.165 58.471C266.277 58.6577 266.351 58.835 266.389 59.003C266.445 59.1523 266.473 59.3017 266.473 59.451C266.473 59.8243 266.249 60.179 265.801 60.515C265.353 60.8323 264.718 61.0937 263.897 61.299C263.094 61.523 262.142 61.635 261.041 61.635ZM257.289 53.599H263.029C263.346 53.599 263.589 53.5523 263.757 53.459C263.925 53.347 264.009 53.123 264.009 52.787C264.009 52.3577 263.878 51.975 263.617 51.639C263.355 51.2843 263.001 51.0137 262.553 50.827C262.105 50.6217 261.582 50.519 260.985 50.519C260.294 50.519 259.669 50.659 259.109 50.939C258.549 51.2003 258.101 51.5643 257.765 52.031C257.447 52.4977 257.289 53.0203 257.289 53.599ZM280.447 58.443C280.932 58.8537 281.184 59.2363 281.203 59.591C281.24 59.9457 281.053 60.3563 280.643 60.823C280.325 61.1777 280.045 61.411 279.803 61.523C279.56 61.635 279.317 61.635 279.075 61.523C278.832 61.4297 278.543 61.243 278.207 60.963L272.859 56.455V59.787C272.859 60.0857 272.821 60.3657 272.747 60.627C272.691 60.8883 272.541 61.0937 272.299 61.243C272.075 61.3923 271.701 61.467 271.179 61.467C270.656 61.467 270.273 61.383 270.031 61.215C269.807 61.0657 269.667 60.8603 269.611 60.599C269.555 60.3377 269.527 60.0577 269.527 59.759V43.043C269.527 42.7257 269.555 42.4457 269.611 42.203C269.685 41.9417 269.835 41.7363 270.059 41.587C270.301 41.419 270.684 41.335 271.207 41.335C271.729 41.335 272.103 41.419 272.327 41.587C272.551 41.7363 272.691 41.9417 272.747 42.203C272.821 42.4457 272.859 42.735 272.859 43.071V52.255L276.723 48.503C277.021 48.223 277.301 48.0363 277.563 47.943C277.824 47.831 278.076 47.8217 278.319 47.915C278.58 47.9897 278.851 48.1857 279.131 48.503C279.597 49.007 279.821 49.427 279.803 49.763C279.784 50.0803 279.551 50.463 279.103 50.911L275.323 54.411L280.447 58.443Z" fill="black"/>
</svg>
