<svg width="400" height="120" viewBox="0 0 400 120" fill="none" xmlns="http://www.w3.org/2000/svg">
<mask id="mask0_62_2183" style="mask-type:luminance" maskUnits="userSpaceOnUse" x="0" y="0" width="400" height="120">
<path d="M400 0H0V120H400V0Z" fill="white"/>
</mask>
<g mask="url(#mask0_62_2183)">
<mask id="mask1_62_2183" style="mask-type:luminance" maskUnits="userSpaceOnUse" x="9" y="9" width="388" height="111">
<path d="M9.33838 9.3335H396.887V119.354H9.33838V9.3335Z" fill="white"/>
</mask>
<g mask="url(#mask1_62_2183)">
<path d="M15.7893 72.3857L12.3967 62.3597L17.7895 51.8753L13.0351 41.3961L9.77637 30.9117L12.1049 19.3545L26.2586 18.2347L39.1781 15.594L52.3408 21.4742L65.1144 13.7503L78.3379 21.7086L91.227 17.9638L104.365 22.9013L117.358 22.6774L130.405 24.344L143.318 21.4222L155.618 17.1097L167.972 14.5628L180.326 12.0992L192.783 13.2138L205.32 17.1253L217.838 20.344L230.253 20.0732L242.4 10.3076L255.065 18.6878L267.504 19.1722L279.742 12.4795L292.084 9.53674L304.906 12.9065L318.191 14.7659L328.447 23.3961L341.367 25.4065L352.316 32.3388L368.294 26.7086L380.204 31.2242L396.346 37.1774L387.476 50.3388L387.16 62.094L374.362 69.8597L369.875 80.2815L373.796 93.3961L367.571 103.266L364.391 115.974L345.854 109.745L333.335 117.433L320.227 109.99L307.782 119.823L294.632 110.969L281.864 112.433L269.005 111.36L256.445 118.933L243.556 117.011L230.824 121.224L218.355 114.521L205.223 119.724L193.081 116.047L180.727 115.328L168.306 115.839L155.904 115.969L143.829 110.542L131.396 111.203L119.346 105.146L106.274 116.761L94.5648 104.834L81.5602 115.427L69.6377 107.245L57.5025 102.453L44.6438 110.724L27.2618 111.552L29.4687 98.1409L22.7931 90.2295L11.0106 83.5784L15.7893 72.3857Z" fill="black"/>
<path d="M15.7893 72.3857L12.3967 62.3597L17.7895 51.8753L13.0351 41.3961L9.77637 30.9117L12.1049 19.3545L26.2586 18.2347L39.1781 15.594L52.3408 21.4742L65.1144 13.7503L78.3379 21.7086L91.227 17.9638L104.365 22.9013L117.358 22.6774L130.405 24.344L143.318 21.4222L155.618 17.1097L167.972 14.5628L180.326 12.0992L192.783 13.2138L205.32 17.1253L217.838 20.344L230.253 20.0732L242.4 10.3076L255.065 18.6878L267.504 19.1722L279.742 12.4795L292.084 9.53674L304.906 12.9065L318.191 14.7659L328.447 23.3961L341.367 25.4065L352.316 32.3388L368.294 26.7086L380.204 31.2242L396.346 37.1774L387.476 50.3388L387.16 62.094L374.362 69.8597L369.875 80.2815L373.796 93.3961L367.571 103.266L364.391 115.974L345.854 109.745L333.335 117.433L320.227 109.99L307.782 119.823L294.632 110.969L281.864 112.433L269.005 111.36L256.445 118.933L243.556 117.011L230.824 121.224L218.355 114.521L205.223 119.724L193.081 116.047L180.727 115.328L168.306 115.839L155.904 115.969L143.829 110.542L131.396 111.203L119.346 105.146L106.274 116.761L94.5648 104.834L81.5602 115.427L69.6377 107.245L57.5025 102.453L44.6438 110.724L27.2618 111.552L29.4687 98.1409L22.7931 90.2295L11.0106 83.5784L15.7893 72.3857Z" fill="black"/>
</g>
<mask id="mask2_62_2183" style="mask-type:luminance" maskUnits="userSpaceOnUse" x="7" y="8" width="391" height="112">
<path d="M7.78223 8H397.586V119.354H7.78223V8Z" fill="white"/>
</mask>
<g mask="url(#mask2_62_2183)">
<path d="M230.739 121.984L218.3 115.307L205.265 120.474L192.917 116.734L180.721 115.99L168.343 116.495L155.715 116.63L143.653 111.203L131.208 111.885L119.486 105.995L106.238 117.766L94.504 105.812L81.6088 116.328L69.2061 107.849L57.6059 103.26L44.9113 111.401L26.3133 112.286L28.6358 98.3489L22.1973 90.7239L10.0499 83.8489L14.9563 72.3645L11.5577 62.3124L16.9322 51.8541L12.263 41.5728L8.95557 30.9426L11.424 18.7291L26.1674 17.5572L39.2814 14.901L52.2739 20.703L65.1144 12.9166L78.4655 20.953L91.2635 17.2291L104.523 22.2135L117.406 21.9895L130.356 23.6562L143.051 20.776L155.423 16.4426L167.765 13.8958L180.259 11.4166L193.039 12.5728L205.569 16.4843L217.941 19.651L229.931 19.3958L242.346 9.40617L255.356 18.0103L267.261 18.4687L279.384 11.8489L292.078 8.81763L305.077 12.2083L318.562 14.0937L328.83 22.7291L341.683 24.7239L352.414 31.5103L368.282 25.9218L380.514 30.552L397.483 36.8489L388.272 50.526L387.962 62.453L375.03 70.2968L370.714 80.3228L374.678 93.4843L368.331 103.505L364.95 116.906L345.951 110.516L333.335 118.26L320.294 110.854L307.825 120.74L294.413 111.703L281.882 113.146L269.188 112.078L256.627 119.651L243.635 117.719L230.739 121.984ZM218.416 113.75L230.916 120.463L243.47 116.307L256.256 118.213L268.793 110.656L281.852 111.755L294.857 110.255L307.74 118.932L320.148 109.13L333.317 116.594L345.744 108.969L363.801 115.031L366.817 103.016L372.951 93.2968L369.048 80.2343L373.681 69.427L386.375 61.7135L386.685 50.1822L395.215 37.4947L379.894 31.8645L368.276 27.4583L352.201 33.1249L341.039 26.0468L328.064 24.0155L317.808 15.3958L304.651 13.5468L292.054 10.2291L280.058 13.1093L267.704 19.8958L254.761 19.3958L242.437 11.2499L230.533 20.7916L217.68 21.078L205.04 17.828L192.601 13.8853L180.375 12.7916L168.185 15.2291L155.867 17.7499L143.525 22.078L130.454 25.0364L117.303 23.3541L104.207 23.5885L91.227 18.6926L78.2163 22.4687L65.1144 14.578L52.4198 22.2708L39.093 16.3124L26.3315 18.9062L12.7858 19.9843L10.5849 30.8801L13.7951 41.1822L18.6528 51.8905L13.2479 62.3905L16.6465 72.4114L11.9954 83.3072L23.3707 89.7239L30.3138 97.9687L28.198 110.823L44.3763 110.057L57.4235 101.667L70.118 106.708L81.5115 114.521L94.6195 103.844L106.299 115.745L119.194 104.286L131.572 110.516L143.987 109.833L156.08 115.26L168.282 115.135L180.721 114.62L193.227 115.349L205.125 118.958L218.416 113.75Z" fill="black"/>
</g>
<mask id="mask3_62_2183" style="mask-type:luminance" maskUnits="userSpaceOnUse" x="3" y="1" width="388" height="113">
<path d="M3.11279 1.08313H390.661V113.333H3.11279V1.08313Z" fill="white"/>
</mask>
<g mask="url(#mask3_62_2183)">
<path d="M9.78237 63.3957L6.39594 53.3644L11.7826 42.8801L7.02824 32.4009L3.75732 21.9165L6.09804 10.3644L20.2457 9.23942L33.1712 6.604L46.3339 12.479L59.1075 4.75505L72.3249 12.7186L85.2201 8.96338L98.3585 13.9113L111.345 13.6821L124.398 15.3592L137.312 12.4321L149.611 8.10921L161.965 5.56755L174.319 3.10921L186.777 4.2238L199.313 8.13005L211.825 11.3488L224.246 11.078L236.387 1.31234L249.058 9.69776L261.497 10.1821L273.735 3.48942L286.077 0.541504L298.9 3.9165L312.184 5.77067L322.44 14.4061L335.36 16.4165L346.31 23.3436L362.281 17.7134L374.197 22.229L390.339 28.1769L381.469 41.3488L381.153 53.104L368.355 60.8644L363.868 71.2915L367.796 84.4009L361.564 94.2707L358.378 106.979L339.847 100.755L327.329 108.443L314.221 101L301.775 110.833L288.619 101.974L275.851 103.443L262.999 102.364L250.432 109.937L237.549 108.026L224.818 112.234L212.348 105.526L199.216 110.729L187.068 107.062L174.726 106.333L162.299 106.849L149.897 106.979L137.822 101.547L125.389 102.208L113.339 96.1561L100.268 107.765L88.5579 95.8436L75.5533 106.427L63.6248 98.2446L51.5017 93.4582L38.6369 101.734L21.2488 102.557L23.4618 89.1509L16.7863 81.2342L5.00368 74.5832L9.78237 63.3957Z" fill="white"/>
</g>
<mask id="mask4_62_2183" style="mask-type:luminance" maskUnits="userSpaceOnUse" x="0" y="1" width="396" height="115">
<path d="M0.674805 1.08325H395.331V116H0.674805V1.08325Z" fill="white"/>
</mask>
<g mask="url(#mask4_62_2183)">
<path d="M224.52 115.01L212.147 108.365L199.386 113.422L186.491 109.521L174.708 108.844L162.348 109.349L149.21 109.49L137.202 104.063L124.69 104.74L113.862 99.3126L100.146 111.526L88.3391 99.5105L75.7236 109.745L62.0745 100.385L51.8544 96.3542L39.6524 104.182L17.8321 105.214L20.3734 89.7917L14.701 83.0626L1.44101 75.599L6.68177 63.3282L3.30142 53.1875L8.62122 42.8282L4.20123 33.0417L0.77832 22.0313L3.61149 8.05733L19.7715 6.76046L33.5543 3.95837L46.103 9.56254L59.1015 1.69796L72.7932 9.94275L85.354 6.29171L98.9422 11.4011L111.54 11.1823L124.234 12.8125L136.381 10.0573L148.705 5.72921L161.284 3.14587L174.131 0.578167L187.433 1.77608L200.231 5.76567L212.22 8.84379L223.061 8.60421L236.205 -1.9635L250.116 7.23442L260.707 7.65108L272.526 1.18233L286.12 -2.05725L299.568 1.48442L313.564 3.43754L323.875 12.0886L336.57 14.0625L346.705 20.5L362.312 14.9948L375.365 19.948L394.492 27L384.369 42.0417L384.041 54.4115L370.787 62.4532L366.92 71.4219L370.89 84.724L364.318 95.1459L360.494 110.38L340.248 103.594L327.377 111.495L314.5 104.182L301.909 114.13L287.768 104.63L275.87 105.99L263.753 104.979L251.058 112.609L237.768 110.635L224.52 115.01ZM212.561 102.693L225.128 109.474L237.214 105.448L249.708 107.302L262.172 99.7917L275.772 100.932L289.427 99.3594L301.593 107.557L313.886 97.8334L327.231 105.412L339.403 97.948L356.226 103.589L358.779 93.4115L364.683 84.1042L360.816 71.2136L365.929 59.3334L378.277 51.8698L378.569 40.6823L386.175 29.3959L373.036 24.5573L362.239 20.4844L345.908 26.1823L334.168 18.7605L321.036 16.7292L310.792 8.11983L298.237 6.35421L286.041 3.14587L274.933 5.79171L262.293 12.7032L248.012 12.1563L236.576 4.58858L225.432 13.5469L211.436 13.849L198.31 10.4584L186.108 6.65108L174.532 5.63546L162.634 8.00525L150.517 10.4948L138.242 14.8021L124.55 17.9011L111.156 16.1823L97.7628 16.4167L85.0682 11.6667L71.869 15.4844L59.1076 7.80733L46.565 15.3959L32.7822 9.24483L20.72 11.7084L8.59082 12.6719L6.74257 21.8073L9.80677 31.625L14.9381 42.9428L9.50279 53.573L12.8649 63.5209L8.5361 73.5886L18.8474 79.4063L26.5201 88.5053L24.6414 99.8959L37.5974 99.2865L51.1492 90.5678L65.1752 96.1094L75.3588 103.099L88.7951 92.2448L100.42 104.068L112.828 93.0365L126.137 99.7084L138.497 99.0261L150.602 104.453L162.214 104.333L174.757 103.818L187.67 104.568L199.064 108.016L212.561 102.693Z" fill="black"/>
<path d="M224.52 115.01L212.147 108.365L199.386 113.422L186.491 109.521L174.708 108.844L162.348 109.349L149.21 109.49L137.202 104.063L124.69 104.74L113.862 99.3126L100.146 111.526L88.3391 99.5105L75.7236 109.745L62.0745 100.385L51.8544 96.3542L39.6524 104.182L17.8321 105.214L20.3734 89.7917L14.701 83.0626L1.44101 75.599L6.68177 63.3282L3.30142 53.1875L8.62122 42.8282L4.20123 33.0417L0.77832 22.0313L3.61149 8.05733L19.7715 6.76046L33.5543 3.95837L46.103 9.56254L59.1015 1.69796L72.7932 9.94275L85.354 6.29171L98.9422 11.4011L111.54 11.1823L124.234 12.8125L136.381 10.0573L148.705 5.72921L161.284 3.14587L174.131 0.578167L187.433 1.77608L200.231 5.76567L212.22 8.84379L223.061 8.60421L236.205 -1.9635L250.116 7.23442L260.707 7.65108L272.526 1.18233L286.12 -2.05725L299.568 1.48442L313.564 3.43754L323.875 12.0886L336.57 14.0625L346.705 20.5L362.312 14.9948L375.365 19.948L394.492 27L384.369 42.0417L384.041 54.4115L370.787 62.4532L366.92 71.4219L370.89 84.724L364.318 95.1459L360.494 110.38L340.248 103.594L327.377 111.495L314.5 104.182L301.909 114.13L287.768 104.63L275.87 105.99L263.753 104.979L251.058 112.609L237.768 110.635L224.52 115.01ZM212.561 102.693L225.128 109.474L237.214 105.448L249.708 107.302L262.172 99.7917L275.772 100.932L289.427 99.3594L301.593 107.557L313.886 97.8334L327.231 105.412L339.403 97.948L356.226 103.589L358.779 93.4115L364.683 84.1042L360.816 71.2136L365.929 59.3334L378.277 51.8698L378.569 40.6823L386.175 29.3959L373.036 24.5573L362.239 20.4844L345.908 26.1823L334.168 18.7605L321.036 16.7292L310.792 8.11983L298.237 6.35421L286.041 3.14587L274.933 5.79171L262.293 12.7032L248.012 12.1563L236.576 4.58858L225.432 13.5469L211.436 13.849L198.31 10.4584L186.108 6.65108L174.532 5.63546L162.634 8.00525L150.517 10.4948L138.242 14.8021L124.55 17.9011L111.156 16.1823L97.7628 16.4167L85.0682 11.6667L71.869 15.4844L59.1076 7.80733L46.565 15.3959L32.7822 9.24483L20.72 11.7084L8.59082 12.6719L6.74257 21.8073L9.80677 31.625L14.9381 42.9428L9.50279 53.573L12.8649 63.5209L8.5361 73.5886L18.8474 79.4063L26.5201 88.5053L24.6414 99.8959L37.5974 99.2865L51.1492 90.5678L65.1752 96.1094L75.3588 103.099L88.7951 92.2448L100.42 104.068L112.828 93.0365L126.137 99.7084L138.497 99.0261L150.602 104.453L162.214 104.333L174.757 103.818L187.67 104.568L199.064 108.016L212.561 102.693Z" fill="black"/>
</g>
</g>
<path d="M26.4007 50.3708C25.9527 50.3708 25.6247 50.3068 25.4167 50.1788C25.2087 50.0508 25.0807 49.8748 25.0327 49.6508C24.9847 49.4108 24.9607 49.1628 24.9607 48.9068V35.0588C24.9607 34.8028 24.9847 34.5708 25.0327 34.3628C25.0967 34.1388 25.2327 33.9628 25.4407 33.8348C25.6487 33.6908 25.9767 33.6188 26.4247 33.6188H31.5127C32.2167 33.6188 32.9047 33.7388 33.5767 33.9788C34.2487 34.2188 34.8487 34.5788 35.3767 35.0588C35.9207 35.5388 36.3447 36.1308 36.6487 36.8348C36.9687 37.5388 37.1287 38.3628 37.1287 39.3068C37.1287 40.2348 36.9687 41.0508 36.6487 41.7548C36.3447 42.4428 35.9207 43.0268 35.3767 43.5068C34.8327 43.9868 34.2247 44.3468 33.5527 44.5868C32.8967 44.8268 32.2087 44.9468 31.4887 44.9468H27.8647V48.9308C27.8647 49.1868 27.8327 49.4268 27.7687 49.6508C27.7207 49.8748 27.5927 50.0508 27.3847 50.1788C27.1927 50.3068 26.8647 50.3708 26.4007 50.3708ZM27.8647 42.0188H31.5127C32.0087 42.0188 32.4567 41.9228 32.8567 41.7308C33.2727 41.5228 33.6087 41.2188 33.8647 40.8188C34.1207 40.4028 34.2487 39.8828 34.2487 39.2588C34.2487 38.6988 34.1287 38.2188 33.8887 37.8188C33.6647 37.4028 33.3447 37.0828 32.9287 36.8588C32.5287 36.6348 32.0487 36.5228 31.4887 36.5228H27.8647V42.0188ZM44.8959 50.5388C43.8559 50.5388 42.9439 50.3708 42.1599 50.0348C41.3919 49.6988 40.7439 49.2428 40.2159 48.6668C39.7039 48.0748 39.3119 47.4188 39.0399 46.6988C38.7839 45.9628 38.6559 45.2028 38.6559 44.4188C38.6559 43.2668 38.9199 42.2428 39.4479 41.3468C39.9759 40.4508 40.7039 39.7468 41.6319 39.2348C42.5759 38.7228 43.6559 38.4668 44.8719 38.4668C45.7359 38.4668 46.4959 38.6028 47.1519 38.8748C47.8079 39.1468 48.3519 39.5068 48.7839 39.9548C49.2319 40.3868 49.5679 40.8668 49.7919 41.3948C50.0319 41.9228 50.1519 42.4348 50.1519 42.9308C50.1519 43.7788 49.9439 44.3948 49.5279 44.7788C49.1279 45.1628 48.6239 45.3548 48.0159 45.3548H41.6799C41.6959 45.8988 41.8639 46.3708 42.1839 46.7708C42.5199 47.1708 42.9359 47.4828 43.4319 47.7068C43.9439 47.9148 44.4639 48.0188 44.9919 48.0188C45.3919 48.0188 45.7439 47.9948 46.0479 47.9468C46.3679 47.8988 46.6399 47.8428 46.8639 47.7788C47.0879 47.6988 47.2799 47.6188 47.4399 47.5388C47.6159 47.4588 47.7759 47.3868 47.9199 47.3228C48.0639 47.2588 48.1999 47.2188 48.3279 47.2028C48.5039 47.1868 48.6799 47.2268 48.8559 47.3228C49.0319 47.4188 49.1759 47.5868 49.2879 47.8268C49.3839 47.9868 49.4479 48.1388 49.4799 48.2828C49.5279 48.4108 49.5519 48.5388 49.5519 48.6668C49.5519 48.9868 49.3599 49.2908 48.9759 49.5788C48.5919 49.8508 48.0479 50.0748 47.3439 50.2508C46.6559 50.4428 45.8399 50.5388 44.8959 50.5388ZM41.6799 43.6508H46.5999C46.8719 43.6508 47.0799 43.6108 47.2239 43.5308C47.3679 43.4348 47.4399 43.2428 47.4399 42.9548C47.4399 42.5868 47.3279 42.2588 47.1039 41.9708C46.8799 41.6668 46.5759 41.4348 46.1919 41.2748C45.8079 41.0988 45.3599 41.0108 44.8479 41.0108C44.2559 41.0108 43.7199 41.1308 43.2399 41.3708C42.7599 41.5948 42.3759 41.9068 42.0879 42.3068C41.8159 42.7068 41.6799 43.1548 41.6799 43.6508ZM53.5374 50.3708C53.1054 50.3708 52.7854 50.2988 52.5774 50.1548C52.3854 50.0268 52.2654 49.8588 52.2174 49.6508C52.1694 49.4268 52.1454 49.1788 52.1454 48.9068V39.9308C52.1454 39.6748 52.1694 39.4428 52.2174 39.2348C52.2654 39.0268 52.3934 38.8668 52.6014 38.7548C52.8094 38.6268 53.1294 38.5628 53.5614 38.5628C53.9454 38.5628 54.2334 38.6108 54.4254 38.7068C54.6174 38.8028 54.7454 38.9228 54.8094 39.0668C54.8734 39.2108 54.9054 39.3548 54.9054 39.4988C54.9214 39.6428 54.9374 39.7548 54.9534 39.8348L54.8574 40.6028C54.9534 40.3468 55.1134 40.0988 55.3374 39.8588C55.5614 39.6188 55.8334 39.4028 56.1534 39.2108C56.4734 39.0028 56.8174 38.8428 57.1854 38.7308C57.5694 38.6028 57.9614 38.5388 58.3614 38.5388C59.1134 38.5388 59.7854 38.6748 60.3774 38.9468C60.9694 39.2188 61.4734 39.6028 61.8894 40.0988C62.3214 40.5948 62.6494 41.1868 62.8734 41.8748C63.0974 42.5468 63.2094 43.3068 63.2094 44.1548V48.9308C63.2094 49.2028 63.1774 49.4508 63.1134 49.6748C63.0654 49.8828 62.9454 50.0508 62.7534 50.1788C62.5614 50.3068 62.2334 50.3708 61.7694 50.3708C61.3214 50.3708 60.9934 50.2988 60.7854 50.1548C60.5774 50.0268 60.4494 49.8588 60.4014 49.6508C60.3534 49.4268 60.3294 49.1788 60.3294 48.9068V44.1308C60.3294 43.5548 60.2254 43.0588 60.0174 42.6428C59.8254 42.2268 59.5374 41.9068 59.1534 41.6828C58.7854 41.4588 58.3134 41.3468 57.7374 41.3468C57.1774 41.3468 56.6894 41.4668 56.2734 41.7068C55.8574 41.9308 55.5374 42.2508 55.3134 42.6668C55.0894 43.0828 54.9774 43.5708 54.9774 44.1308V48.9308C54.9774 49.2028 54.9534 49.4508 54.9054 49.6748C54.8574 49.8828 54.7294 50.0508 54.5214 50.1788C54.3294 50.3068 54.0014 50.3708 53.5374 50.3708ZM67.8006 55.1228C67.2886 54.8988 66.9926 54.6428 66.9126 54.3548C66.8326 54.0828 66.9046 53.7148 67.1286 53.2508L73.3206 39.3788C73.5446 38.8668 73.7846 38.5628 74.0406 38.4668C74.2966 38.3548 74.6886 38.4108 75.2166 38.6348C75.7126 38.8588 76.0006 39.1068 76.0806 39.3788C76.1766 39.6508 76.1206 40.0188 75.9126 40.4828L69.6726 54.4268C69.4646 54.9388 69.2326 55.2348 68.9766 55.3148C68.7206 55.4108 68.3286 55.3468 67.8006 55.1228ZM70.0326 49.2428L64.4886 40.7228C64.2006 40.2908 64.0806 39.9308 64.1286 39.6428C64.1926 39.3548 64.4486 39.0748 64.8966 38.8028C65.3926 38.4988 65.7766 38.3788 66.0486 38.4428C66.3366 38.5068 66.6246 38.7628 66.9126 39.2108L71.3046 46.0508L70.0326 49.2428ZM83.5678 50.5388C82.5278 50.5388 81.6158 50.3708 80.8318 50.0348C80.0638 49.6988 79.4158 49.2428 78.8878 48.6668C78.3758 48.0748 77.9838 47.4188 77.7118 46.6988C77.4558 45.9628 77.3278 45.2028 77.3278 44.4188C77.3278 43.2668 77.5918 42.2428 78.1198 41.3468C78.6478 40.4508 79.3758 39.7468 80.3038 39.2348C81.2478 38.7228 82.3278 38.4668 83.5438 38.4668C84.4078 38.4668 85.1678 38.6028 85.8238 38.8748C86.4798 39.1468 87.0238 39.5068 87.4558 39.9548C87.9038 40.3868 88.2398 40.8668 88.4638 41.3948C88.7038 41.9228 88.8238 42.4348 88.8238 42.9308C88.8238 43.7788 88.6158 44.3948 88.1998 44.7788C87.7998 45.1628 87.2958 45.3548 86.6878 45.3548H80.3518C80.3678 45.8988 80.5358 46.3708 80.8558 46.7708C81.1918 47.1708 81.6078 47.4828 82.1038 47.7068C82.6158 47.9148 83.1358 48.0188 83.6638 48.0188C84.0638 48.0188 84.4158 47.9948 84.7198 47.9468C85.0398 47.8988 85.3118 47.8428 85.5358 47.7788C85.7598 47.6988 85.9518 47.6188 86.1118 47.5388C86.2878 47.4588 86.4478 47.3868 86.5918 47.3228C86.7358 47.2588 86.8718 47.2188 86.9998 47.2028C87.1758 47.1868 87.3518 47.2268 87.5278 47.3228C87.7038 47.4188 87.8478 47.5868 87.9598 47.8268C88.0558 47.9868 88.1198 48.1388 88.1518 48.2828C88.1998 48.4108 88.2238 48.5388 88.2238 48.6668C88.2238 48.9868 88.0318 49.2908 87.6478 49.5788C87.2638 49.8508 86.7198 50.0748 86.0158 50.2508C85.3278 50.4428 84.5118 50.5388 83.5678 50.5388ZM80.3518 43.6508H85.2718C85.5438 43.6508 85.7518 43.6108 85.8958 43.5308C86.0398 43.4348 86.1118 43.2428 86.1118 42.9548C86.1118 42.5868 85.9998 42.2588 85.7758 41.9708C85.5518 41.6668 85.2478 41.4348 84.8638 41.2748C84.4798 41.0988 84.0318 41.0108 83.5198 41.0108C82.9278 41.0108 82.3918 41.1308 81.9118 41.3708C81.4318 41.5948 81.0478 41.9068 80.7598 42.3068C80.4878 42.7068 80.3518 43.1548 80.3518 43.6508ZM96.9613 50.3708C96.1773 50.3708 95.4733 50.2188 94.8493 49.9148C94.2413 49.5948 93.7213 49.1628 93.2893 48.6188C92.8733 48.0748 92.5533 47.4508 92.3293 46.7468C92.1213 46.0268 92.0173 45.2588 92.0173 44.4428C92.0333 43.6268 92.1533 42.8668 92.3773 42.1628C92.6013 41.4428 92.9213 40.8188 93.3373 40.2908C93.7693 39.7468 94.2893 39.3228 94.8973 39.0188C95.5053 38.7148 96.1933 38.5628 96.9613 38.5628C97.6973 38.5628 98.3853 38.7148 99.0253 39.0188C99.6813 39.3228 100.257 39.7468 100.753 40.2908C101.265 40.8188 101.665 41.4428 101.953 42.1628C102.241 42.8668 102.385 43.6188 102.385 44.4188C102.385 45.2508 102.241 46.0348 101.953 46.7708C101.665 47.4908 101.273 48.1228 100.777 48.6668C100.281 49.1948 99.7053 49.6108 99.0493 49.9148C98.3933 50.2188 97.6973 50.3708 96.9613 50.3708ZM96.5773 47.5628C97.1373 47.5628 97.6413 47.4348 98.0893 47.1788C98.5373 46.9068 98.8893 46.5388 99.1453 46.0748C99.4173 45.6108 99.5533 45.0828 99.5533 44.4908C99.5533 43.8828 99.4173 43.3468 99.1453 42.8828C98.8893 42.4028 98.5373 42.0348 98.0893 41.7788C97.6413 41.5068 97.1373 41.3708 96.5773 41.3708C96.0333 41.3708 95.5373 41.5068 95.0893 41.7788C94.6413 42.0508 94.2813 42.4188 94.0093 42.8828C93.7533 43.3468 93.6253 43.8828 93.6253 44.4908C93.6253 45.0828 93.7533 45.6108 94.0093 46.0748C94.2813 46.5388 94.6413 46.9068 95.0893 47.1788C95.5373 47.4348 96.0333 47.5628 96.5773 47.5628ZM92.1373 50.3948C91.7053 50.3948 91.3853 50.3228 91.1773 50.1788C90.9693 50.0508 90.8413 49.8828 90.7933 49.6748C90.7453 49.4508 90.7213 49.2028 90.7213 48.9308V34.6268C90.7213 34.3548 90.7453 34.1148 90.7933 33.9068C90.8413 33.6828 90.9693 33.5068 91.1773 33.3788C91.3853 33.2508 91.7053 33.1868 92.1373 33.1868C92.5853 33.1868 92.9053 33.2508 93.0973 33.3788C93.2893 33.5068 93.4093 33.6828 93.4573 33.9068C93.5053 34.1308 93.5293 34.3708 93.5293 34.6268V49.4108C93.4653 49.7628 93.3293 50.0108 93.1213 50.1548C92.9293 50.3148 92.6013 50.3948 92.1373 50.3948ZM114.157 50.3468C113.693 50.3468 113.349 50.2588 113.125 50.0828C112.901 49.9068 112.789 49.6668 112.789 49.3628L112.957 48.5708C112.829 48.7788 112.613 49.0268 112.309 49.3148C112.005 49.5868 111.605 49.8348 111.109 50.0588C110.613 50.2668 110.013 50.3708 109.309 50.3708C108.557 50.3708 107.845 50.2188 107.173 49.9148C106.517 49.5948 105.933 49.1628 105.421 48.6188C104.925 48.0588 104.525 47.4268 104.221 46.7228C103.933 46.0028 103.789 45.2348 103.789 44.4188C103.789 43.6348 103.933 42.8988 104.221 42.2108C104.525 41.5068 104.933 40.8828 105.445 40.3388C105.957 39.7948 106.541 39.3708 107.197 39.0668C107.869 38.7468 108.573 38.5868 109.309 38.5868C109.965 38.5868 110.517 38.6748 110.965 38.8508C111.429 39.0268 111.821 39.2508 112.141 39.5228C112.461 39.7788 112.725 40.0508 112.933 40.3388L112.789 39.6428C112.789 39.2908 112.901 39.0268 113.125 38.8508C113.349 38.6588 113.701 38.5628 114.181 38.5628C114.629 38.5628 114.949 38.6348 115.141 38.7788C115.333 38.9068 115.453 39.0908 115.501 39.3308C115.549 39.5548 115.573 39.8108 115.573 40.0988V48.8828C115.573 49.1548 115.549 49.4028 115.501 49.6268C115.453 49.8508 115.325 50.0268 115.117 50.1548C114.925 50.2828 114.605 50.3468 114.157 50.3468ZM109.741 47.5628C110.285 47.5628 110.773 47.4268 111.205 47.1548C111.637 46.8828 111.981 46.5148 112.237 46.0508C112.509 45.5708 112.645 45.0428 112.645 44.4668C112.645 43.8428 112.509 43.2988 112.237 42.8348C111.965 42.3708 111.605 42.0108 111.157 41.7548C110.725 41.4828 110.237 41.3468 109.693 41.3468C109.101 41.3468 108.573 41.4908 108.109 41.7788C107.645 42.0508 107.277 42.4268 107.005 42.9068C106.749 43.3708 106.621 43.8988 106.621 44.4908C106.621 45.0668 106.757 45.5868 107.029 46.0508C107.301 46.5148 107.669 46.8828 108.133 47.1548C108.613 47.4268 109.149 47.5628 109.741 47.5628ZM124.149 50.3708C123.365 50.3708 122.661 50.2188 122.037 49.9148C121.429 49.5948 120.909 49.1628 120.477 48.6188C120.061 48.0748 119.741 47.4508 119.517 46.7468C119.309 46.0268 119.205 45.2588 119.205 44.4428C119.221 43.6268 119.341 42.8668 119.565 42.1628C119.789 41.4428 120.109 40.8188 120.525 40.2908C120.957 39.7468 121.477 39.3228 122.085 39.0188C122.693 38.7148 123.381 38.5628 124.149 38.5628C124.885 38.5628 125.573 38.7148 126.213 39.0188C126.869 39.3228 127.445 39.7468 127.941 40.2908C128.453 40.8188 128.853 41.4428 129.141 42.1628C129.429 42.8668 129.573 43.6188 129.573 44.4188C129.573 45.2508 129.429 46.0348 129.141 46.7708C128.853 47.4908 128.461 48.1228 127.965 48.6668C127.469 49.1948 126.893 49.6108 126.237 49.9148C125.581 50.2188 124.885 50.3708 124.149 50.3708ZM123.765 47.5628C124.325 47.5628 124.829 47.4348 125.277 47.1788C125.725 46.9068 126.077 46.5388 126.333 46.0748C126.605 45.6108 126.741 45.0828 126.741 44.4908C126.741 43.8828 126.605 43.3468 126.333 42.8828C126.077 42.4028 125.725 42.0348 125.277 41.7788C124.829 41.5068 124.325 41.3708 123.765 41.3708C123.221 41.3708 122.725 41.5068 122.277 41.7788C121.829 42.0508 121.469 42.4188 121.197 42.8828C120.941 43.3468 120.813 43.8828 120.813 44.4908C120.813 45.0828 120.941 45.6108 121.197 46.0748C121.469 46.5388 121.829 46.9068 122.277 47.1788C122.725 47.4348 123.221 47.5628 123.765 47.5628ZM119.325 50.3948C118.893 50.3948 118.573 50.3228 118.365 50.1788C118.157 50.0508 118.029 49.8828 117.981 49.6748C117.933 49.4508 117.909 49.2028 117.909 48.9308V34.6268C117.909 34.3548 117.933 34.1148 117.981 33.9068C118.029 33.6828 118.157 33.5068 118.365 33.3788C118.573 33.2508 118.893 33.1868 119.325 33.1868C119.773 33.1868 120.093 33.2508 120.285 33.3788C120.477 33.5068 120.597 33.6828 120.645 33.9068C120.693 34.1308 120.717 34.3708 120.717 34.6268V49.4108C120.653 49.7628 120.517 50.0108 120.309 50.1548C120.117 50.3148 119.789 50.3948 119.325 50.3948ZM141.82 50.3948C141.228 50.3948 140.7 50.3548 140.236 50.2748C139.788 50.1948 139.396 50.0588 139.06 49.8668C138.74 49.6748 138.476 49.4188 138.268 49.0988C138.06 48.7628 137.9 48.3548 137.788 47.8748C137.692 47.3948 137.644 46.8188 137.644 46.1468V34.5788C137.644 34.3068 137.668 34.0668 137.716 33.8588C137.78 33.6348 137.908 33.4588 138.1 33.3308C138.308 33.1868 138.636 33.1148 139.084 33.1148C139.532 33.1148 139.852 33.1788 140.044 33.3068C140.252 33.4348 140.38 33.6108 140.428 33.8348C140.492 34.0428 140.524 34.2828 140.524 34.5548V46.0268C140.524 46.3308 140.54 46.5868 140.572 46.7948C140.62 46.9868 140.692 47.1468 140.788 47.2748C140.9 47.3868 141.036 47.4668 141.196 47.5148C141.372 47.5628 141.58 47.5868 141.82 47.5868C142.028 47.5868 142.212 47.6108 142.372 47.6588C142.548 47.7068 142.684 47.8268 142.78 48.0188C142.892 48.2108 142.948 48.5228 142.948 48.9548C142.948 49.4028 142.892 49.7308 142.78 49.9388C142.684 50.1468 142.548 50.2748 142.372 50.3228C142.196 50.3708 142.012 50.3948 141.82 50.3948ZM146.212 50.3948C145.78 50.3948 145.46 50.3228 145.252 50.1788C145.044 50.0508 144.916 49.8828 144.868 49.6748C144.82 49.4508 144.796 49.2028 144.796 48.9308V40.0028C144.796 39.7468 144.82 39.5148 144.868 39.3068C144.932 39.0828 145.06 38.9068 145.252 38.7788C145.46 38.6508 145.788 38.5868 146.236 38.5868C146.684 38.5868 147.004 38.6508 147.196 38.7788C147.404 38.9068 147.532 39.0828 147.58 39.3068C147.628 39.5308 147.652 39.7788 147.652 40.0508V48.9548C147.652 49.2268 147.628 49.4748 147.58 49.6988C147.532 49.9068 147.404 50.0748 147.196 50.2028C147.004 50.3308 146.676 50.3948 146.212 50.3948ZM146.212 36.2588C145.748 36.2588 145.404 36.1948 145.18 36.0668C144.972 35.9228 144.836 35.7308 144.772 35.4908C144.724 35.2508 144.7 34.9868 144.7 34.6988C144.7 34.3948 144.724 34.1308 144.772 33.9068C144.836 33.6828 144.98 33.5068 145.204 33.3788C145.428 33.2348 145.772 33.1628 146.236 33.1628C146.716 33.1628 147.06 33.2348 147.268 33.3788C147.476 33.5228 147.612 33.7148 147.676 33.9548C147.74 34.1788 147.772 34.4428 147.772 34.7468C147.772 35.0188 147.74 35.2748 147.676 35.5148C147.612 35.7548 147.476 35.9388 147.268 36.0668C147.06 36.1948 146.708 36.2588 146.212 36.2588ZM151.694 50.3708C151.262 50.3708 150.942 50.2988 150.734 50.1548C150.542 50.0268 150.422 49.8588 150.374 49.6508C150.326 49.4268 150.302 49.1788 150.302 48.9068V39.9308C150.302 39.6748 150.326 39.4428 150.374 39.2348C150.422 39.0268 150.55 38.8668 150.758 38.7548C150.966 38.6268 151.286 38.5628 151.718 38.5628C152.102 38.5628 152.39 38.6108 152.582 38.7068C152.774 38.8028 152.902 38.9228 152.966 39.0668C153.03 39.2108 153.062 39.3548 153.062 39.4988C153.078 39.6428 153.094 39.7548 153.11 39.8348L153.014 40.6028C153.11 40.3468 153.27 40.0988 153.494 39.8588C153.718 39.6188 153.99 39.4028 154.31 39.2108C154.63 39.0028 154.974 38.8428 155.342 38.7308C155.726 38.6028 156.118 38.5388 156.518 38.5388C157.27 38.5388 157.942 38.6748 158.534 38.9468C159.126 39.2188 159.63 39.6028 160.046 40.0988C160.478 40.5948 160.806 41.1868 161.03 41.8748C161.254 42.5468 161.366 43.3068 161.366 44.1548V48.9308C161.366 49.2028 161.334 49.4508 161.27 49.6748C161.222 49.8828 161.102 50.0508 160.91 50.1788C160.718 50.3068 160.39 50.3708 159.926 50.3708C159.478 50.3708 159.15 50.2988 158.942 50.1548C158.734 50.0268 158.606 49.8588 158.558 49.6508C158.51 49.4268 158.486 49.1788 158.486 48.9068V44.1308C158.486 43.5548 158.382 43.0588 158.174 42.6428C157.982 42.2268 157.694 41.9068 157.31 41.6828C156.942 41.4588 156.47 41.3468 155.894 41.3468C155.334 41.3468 154.846 41.4668 154.43 41.7068C154.014 41.9308 153.694 42.2508 153.47 42.6668C153.246 43.0828 153.134 43.5708 153.134 44.1308V48.9308C153.134 49.2028 153.11 49.4508 153.062 49.6748C153.014 49.8828 152.886 50.0508 152.678 50.1788C152.486 50.3068 152.158 50.3708 151.694 50.3708ZM168.867 55.1948C168.291 55.1948 167.739 55.1228 167.211 54.9788C166.683 54.8508 166.203 54.6748 165.771 54.4508C165.355 54.2268 165.019 53.9868 164.763 53.7308C164.523 53.4748 164.403 53.2348 164.403 53.0108C164.403 52.7868 164.435 52.5948 164.499 52.4348C164.579 52.2748 164.691 52.1148 164.835 51.9548C165.027 51.7628 165.179 51.6188 165.291 51.5228C165.419 51.4268 165.587 51.3788 165.795 51.3788C165.971 51.3788 166.139 51.4428 166.299 51.5708C166.475 51.6988 166.675 51.8428 166.899 52.0028C167.123 52.1628 167.395 52.3068 167.715 52.4348C168.035 52.5628 168.443 52.6268 168.939 52.6268C169.355 52.6268 169.739 52.5548 170.091 52.4108C170.443 52.2668 170.739 52.0508 170.979 51.7628C171.235 51.4908 171.435 51.1628 171.579 50.7788C171.723 50.3948 171.795 49.9628 171.795 49.4828L171.771 39.5468C171.803 39.1788 171.931 38.9228 172.155 38.7788C172.379 38.6188 172.723 38.5388 173.187 38.5388C173.619 38.5388 173.931 38.6028 174.123 38.7308C174.315 38.8428 174.435 39.0108 174.483 39.2348C174.531 39.4428 174.555 39.6748 174.555 39.9308V49.6508C174.555 50.5308 174.403 51.3148 174.099 52.0028C173.795 52.6908 173.379 53.2668 172.851 53.7308C172.323 54.2108 171.715 54.5708 171.027 54.8108C170.355 55.0668 169.635 55.1948 168.867 55.1948ZM168.603 50.0828C167.851 50.0828 167.147 49.9388 166.491 49.6508C165.851 49.3628 165.283 48.9548 164.787 48.4268C164.307 47.8988 163.923 47.2908 163.635 46.6028C163.363 45.8988 163.227 45.1388 163.227 44.3228C163.227 43.5228 163.363 42.7788 163.635 42.0908C163.923 41.4028 164.307 40.7948 164.787 40.2668C165.283 39.7388 165.851 39.3308 166.491 39.0428C167.147 38.7388 167.843 38.5868 168.579 38.5868C169.299 38.5868 169.923 38.7308 170.451 39.0188C170.995 39.2908 171.443 39.6828 171.795 40.1948C172.147 40.7068 172.411 41.3148 172.587 42.0188C172.779 42.7228 172.875 43.4988 172.875 44.3468C172.875 45.5148 172.715 46.5308 172.395 47.3948C172.075 48.2588 171.603 48.9228 170.979 49.3868C170.355 49.8508 169.563 50.0828 168.603 50.0828ZM168.867 47.3708C169.411 47.3708 169.891 47.2428 170.307 46.9868C170.739 46.7148 171.075 46.3468 171.315 45.8828C171.571 45.4188 171.699 44.8988 171.699 44.3228C171.699 43.7308 171.571 43.2108 171.315 42.7628C171.075 42.2988 170.739 41.9388 170.307 41.6828C169.875 41.4268 169.387 41.2988 168.843 41.2988C168.299 41.2988 167.811 41.4348 167.379 41.7068C166.963 41.9628 166.635 42.3148 166.395 42.7628C166.155 43.2108 166.035 43.7308 166.035 44.3228C166.035 44.9148 166.155 45.4428 166.395 45.9068C166.651 46.3548 166.987 46.7148 167.403 46.9868C167.835 47.2428 168.323 47.3708 168.867 47.3708ZM186.522 47.8028C186.938 48.1548 187.154 48.4828 187.17 48.7868C187.202 49.0908 187.042 49.4428 186.69 49.8428C186.418 50.1468 186.178 50.3468 185.97 50.4428C185.762 50.5388 185.554 50.5388 185.346 50.4428C185.138 50.3628 184.89 50.2028 184.602 49.9628L180.018 46.0988V48.9548C180.018 49.2108 179.986 49.4508 179.922 49.6748C179.874 49.8988 179.746 50.0748 179.538 50.2028C179.346 50.3308 179.026 50.3948 178.578 50.3948C178.13 50.3948 177.802 50.3228 177.594 50.1788C177.402 50.0508 177.282 49.8748 177.234 49.6508C177.186 49.4268 177.162 49.1868 177.162 48.9308V34.6028C177.162 34.3308 177.186 34.0908 177.234 33.8828C177.298 33.6588 177.426 33.4828 177.618 33.3548C177.826 33.2108 178.154 33.1388 178.602 33.1388C179.05 33.1388 179.37 33.2108 179.562 33.3548C179.754 33.4828 179.874 33.6588 179.922 33.8828C179.986 34.0908 180.018 34.3388 180.018 34.6268V42.4988L183.33 39.2828C183.586 39.0428 183.826 38.8828 184.05 38.8028C184.274 38.7068 184.49 38.6988 184.698 38.7788C184.922 38.8428 185.154 39.0108 185.394 39.2828C185.794 39.7148 185.986 40.0748 185.97 40.3628C185.954 40.6348 185.754 40.9628 185.37 41.3468L182.13 44.3468L186.522 47.8028ZM193.213 50.3708C192.477 50.3708 191.797 50.2428 191.173 49.9868C190.565 49.7148 190.029 49.3308 189.565 48.8348C189.101 48.3388 188.741 47.7468 188.485 47.0588C188.229 46.3708 188.101 45.6108 188.101 44.7788V40.0028C188.101 39.7308 188.125 39.4908 188.173 39.2828C188.221 39.0588 188.349 38.8828 188.557 38.7548C188.765 38.6268 189.085 38.5628 189.517 38.5628C189.981 38.5628 190.309 38.6268 190.501 38.7548C190.709 38.8828 190.837 39.0588 190.885 39.2828C190.933 39.5068 190.957 39.7548 190.957 40.0268V44.7788C190.957 45.3548 191.053 45.8508 191.245 46.2668C191.453 46.6828 191.749 47.0108 192.133 47.2508C192.517 47.4748 192.989 47.5868 193.549 47.5868C194.125 47.5868 194.613 47.4748 195.013 47.2508C195.429 47.0108 195.749 46.6828 195.973 46.2668C196.197 45.8348 196.309 45.3388 196.309 44.7788V39.9788C196.309 39.7068 196.333 39.4668 196.381 39.2588C196.429 39.0348 196.557 38.8668 196.765 38.7548C196.973 38.6268 197.301 38.5628 197.749 38.5628C198.197 38.5628 198.517 38.6268 198.709 38.7548C198.901 38.8828 199.021 39.0588 199.069 39.2828C199.133 39.5068 199.165 39.7468 199.165 40.0028V49.0028C199.165 49.2428 199.133 49.4668 199.069 49.6748C199.021 49.8828 198.893 50.0508 198.685 50.1788C198.493 50.3068 198.173 50.3708 197.725 50.3708C197.405 50.3708 197.149 50.3308 196.957 50.2508C196.781 50.1868 196.645 50.0988 196.549 49.9868C196.469 49.8588 196.413 49.7308 196.381 49.6028C196.365 49.4748 196.357 49.3468 196.357 49.2188L196.549 48.5708C196.453 48.7148 196.309 48.8908 196.117 49.0988C195.925 49.2908 195.685 49.4908 195.397 49.6988C195.125 49.8908 194.805 50.0508 194.437 50.1788C194.069 50.3068 193.661 50.3708 193.213 50.3708ZM202.951 50.3708C202.519 50.3708 202.199 50.2988 201.991 50.1548C201.799 50.0268 201.679 49.8588 201.631 49.6508C201.583 49.4268 201.559 49.1788 201.559 48.9068V39.9308C201.559 39.6748 201.583 39.4428 201.631 39.2348C201.679 39.0268 201.807 38.8668 202.015 38.7548C202.223 38.6268 202.543 38.5628 202.975 38.5628C203.359 38.5628 203.647 38.6108 203.839 38.7068C204.031 38.8028 204.159 38.9228 204.223 39.0668C204.287 39.2108 204.319 39.3548 204.319 39.4988C204.335 39.6428 204.351 39.7548 204.367 39.8348L204.271 40.6028C204.367 40.3468 204.527 40.0988 204.751 39.8588C204.975 39.6188 205.247 39.4028 205.567 39.2108C205.887 39.0028 206.231 38.8428 206.599 38.7308C206.983 38.6028 207.375 38.5388 207.775 38.5388C208.527 38.5388 209.199 38.6748 209.791 38.9468C210.383 39.2188 210.887 39.6028 211.303 40.0988C211.735 40.5948 212.063 41.1868 212.287 41.8748C212.511 42.5468 212.623 43.3068 212.623 44.1548V48.9308C212.623 49.2028 212.591 49.4508 212.527 49.6748C212.479 49.8828 212.359 50.0508 212.167 50.1788C211.975 50.3068 211.647 50.3708 211.183 50.3708C210.735 50.3708 210.407 50.2988 210.199 50.1548C209.991 50.0268 209.863 49.8588 209.815 49.6508C209.767 49.4268 209.743 49.1788 209.743 48.9068V44.1308C209.743 43.5548 209.639 43.0588 209.431 42.6428C209.239 42.2268 208.951 41.9068 208.567 41.6828C208.199 41.4588 207.727 41.3468 207.151 41.3468C206.591 41.3468 206.103 41.4668 205.687 41.7068C205.271 41.9308 204.951 42.2508 204.727 42.6668C204.503 43.0828 204.391 43.5708 204.391 44.1308V48.9308C204.391 49.2028 204.367 49.4508 204.319 49.6748C204.271 49.8828 204.143 50.0508 203.935 50.1788C203.743 50.3068 203.415 50.3708 202.951 50.3708ZM220.125 55.1948C219.549 55.1948 218.997 55.1228 218.469 54.9788C217.941 54.8508 217.461 54.6748 217.029 54.4508C216.613 54.2268 216.277 53.9868 216.021 53.7308C215.781 53.4748 215.661 53.2348 215.661 53.0108C215.661 52.7868 215.693 52.5948 215.757 52.4348C215.837 52.2748 215.949 52.1148 216.093 51.9548C216.285 51.7628 216.437 51.6188 216.549 51.5228C216.677 51.4268 216.845 51.3788 217.053 51.3788C217.229 51.3788 217.397 51.4428 217.557 51.5708C217.733 51.6988 217.933 51.8428 218.157 52.0028C218.381 52.1628 218.653 52.3068 218.973 52.4348C219.293 52.5628 219.701 52.6268 220.197 52.6268C220.613 52.6268 220.997 52.5548 221.349 52.4108C221.701 52.2668 221.997 52.0508 222.237 51.7628C222.493 51.4908 222.693 51.1628 222.837 50.7788C222.981 50.3948 223.053 49.9628 223.053 49.4828L223.029 39.5468C223.061 39.1788 223.189 38.9228 223.413 38.7788C223.637 38.6188 223.981 38.5388 224.445 38.5388C224.877 38.5388 225.189 38.6028 225.381 38.7308C225.573 38.8428 225.693 39.0108 225.741 39.2348C225.789 39.4428 225.813 39.6748 225.813 39.9308V49.6508C225.813 50.5308 225.661 51.3148 225.357 52.0028C225.053 52.6908 224.637 53.2668 224.109 53.7308C223.581 54.2108 222.973 54.5708 222.285 54.8108C221.613 55.0668 220.893 55.1948 220.125 55.1948ZM219.861 50.0828C219.109 50.0828 218.405 49.9388 217.749 49.6508C217.109 49.3628 216.541 48.9548 216.045 48.4268C215.565 47.8988 215.181 47.2908 214.893 46.6028C214.621 45.8988 214.485 45.1388 214.485 44.3228C214.485 43.5228 214.621 42.7788 214.893 42.0908C215.181 41.4028 215.565 40.7948 216.045 40.2668C216.541 39.7388 217.109 39.3308 217.749 39.0428C218.405 38.7388 219.101 38.5868 219.837 38.5868C220.557 38.5868 221.181 38.7308 221.709 39.0188C222.253 39.2908 222.701 39.6828 223.053 40.1948C223.405 40.7068 223.669 41.3148 223.845 42.0188C224.037 42.7228 224.133 43.4988 224.133 44.3468C224.133 45.5148 223.973 46.5308 223.653 47.3948C223.333 48.2588 222.861 48.9228 222.237 49.3868C221.613 49.8508 220.821 50.0828 219.861 50.0828ZM220.125 47.3708C220.669 47.3708 221.149 47.2428 221.565 46.9868C221.997 46.7148 222.333 46.3468 222.573 45.8828C222.829 45.4188 222.957 44.8988 222.957 44.3228C222.957 43.7308 222.829 43.2108 222.573 42.7628C222.333 42.2988 221.997 41.9388 221.565 41.6828C221.133 41.4268 220.645 41.2988 220.101 41.2988C219.557 41.2988 219.069 41.4348 218.637 41.7068C218.221 41.9628 217.893 42.3148 217.653 42.7628C217.413 43.2108 217.293 43.7308 217.293 44.3228C217.293 44.9148 217.413 45.4428 217.653 45.9068C217.909 46.3548 218.245 46.7148 218.661 46.9868C219.093 47.2428 219.581 47.3708 220.125 47.3708ZM237.977 50.3468C237.513 50.3468 237.169 50.2588 236.945 50.0828C236.721 49.9068 236.609 49.6668 236.609 49.3628L236.777 48.5708C236.649 48.7788 236.433 49.0268 236.129 49.3148C235.825 49.5868 235.425 49.8348 234.929 50.0588C234.433 50.2668 233.833 50.3708 233.129 50.3708C232.377 50.3708 231.665 50.2188 230.993 49.9148C230.337 49.5948 229.753 49.1628 229.241 48.6188C228.745 48.0588 228.345 47.4268 228.041 46.7228C227.753 46.0028 227.609 45.2348 227.609 44.4188C227.609 43.6348 227.753 42.8988 228.041 42.2108C228.345 41.5068 228.753 40.8828 229.265 40.3388C229.777 39.7948 230.361 39.3708 231.017 39.0668C231.689 38.7468 232.393 38.5868 233.129 38.5868C233.785 38.5868 234.337 38.6748 234.785 38.8508C235.249 39.0268 235.641 39.2508 235.961 39.5228C236.281 39.7788 236.545 40.0508 236.753 40.3388L236.609 39.6428C236.609 39.2908 236.721 39.0268 236.945 38.8508C237.169 38.6588 237.521 38.5628 238.001 38.5628C238.449 38.5628 238.769 38.6348 238.961 38.7788C239.153 38.9068 239.273 39.0908 239.321 39.3308C239.369 39.5548 239.393 39.8108 239.393 40.0988V48.8828C239.393 49.1548 239.369 49.4028 239.321 49.6268C239.273 49.8508 239.145 50.0268 238.937 50.1548C238.745 50.2828 238.425 50.3468 237.977 50.3468ZM233.561 47.5628C234.105 47.5628 234.593 47.4268 235.025 47.1548C235.457 46.8828 235.801 46.5148 236.057 46.0508C236.329 45.5708 236.465 45.0428 236.465 44.4668C236.465 43.8428 236.329 43.2988 236.057 42.8348C235.785 42.3708 235.425 42.0108 234.977 41.7548C234.545 41.4828 234.057 41.3468 233.513 41.3468C232.921 41.3468 232.393 41.4908 231.929 41.7788C231.465 42.0508 231.097 42.4268 230.825 42.9068C230.569 43.3708 230.441 43.8988 230.441 44.4908C230.441 45.0668 230.577 45.5868 230.849 46.0508C231.121 46.5148 231.489 46.8828 231.953 47.1548C232.433 47.4268 232.969 47.5628 233.561 47.5628ZM243.217 50.3708C242.785 50.3708 242.465 50.2988 242.257 50.1548C242.065 50.0268 241.945 49.8588 241.897 49.6508C241.849 49.4268 241.825 49.1788 241.825 48.9068V39.9308C241.825 39.6748 241.849 39.4428 241.897 39.2348C241.945 39.0268 242.073 38.8668 242.281 38.7548C242.489 38.6268 242.809 38.5628 243.241 38.5628C243.625 38.5628 243.913 38.6108 244.105 38.7068C244.297 38.8028 244.425 38.9228 244.489 39.0668C244.553 39.2108 244.585 39.3548 244.585 39.4988C244.601 39.6428 244.617 39.7548 244.633 39.8348L244.537 40.6028C244.633 40.3468 244.793 40.0988 245.017 39.8588C245.241 39.6188 245.513 39.4028 245.833 39.2108C246.153 39.0028 246.497 38.8428 246.865 38.7308C247.249 38.6028 247.641 38.5388 248.041 38.5388C248.793 38.5388 249.465 38.6748 250.057 38.9468C250.649 39.2188 251.153 39.6028 251.569 40.0988C252.001 40.5948 252.329 41.1868 252.553 41.8748C252.777 42.5468 252.889 43.3068 252.889 44.1548V48.9308C252.889 49.2028 252.857 49.4508 252.793 49.6748C252.745 49.8828 252.625 50.0508 252.433 50.1788C252.241 50.3068 251.913 50.3708 251.449 50.3708C251.001 50.3708 250.673 50.2988 250.465 50.1548C250.257 50.0268 250.129 49.8588 250.081 49.6508C250.033 49.4268 250.009 49.1788 250.009 48.9068V44.1308C250.009 43.5548 249.905 43.0588 249.697 42.6428C249.505 42.2268 249.217 41.9068 248.833 41.6828C248.465 41.4588 247.993 41.3468 247.417 41.3468C246.857 41.3468 246.369 41.4668 245.953 41.7068C245.537 41.9308 245.217 42.2508 244.993 42.6668C244.769 43.0828 244.657 43.5708 244.657 44.1308V48.9308C244.657 49.2028 244.633 49.4508 244.585 49.6748C244.537 49.8828 244.409 50.0508 244.201 50.1788C244.009 50.3068 243.681 50.3708 243.217 50.3708ZM270.592 47.8028C271.008 48.1548 271.224 48.4828 271.24 48.7868C271.272 49.0908 271.112 49.4428 270.76 49.8428C270.488 50.1468 270.248 50.3468 270.04 50.4428C269.832 50.5388 269.624 50.5388 269.416 50.4428C269.208 50.3628 268.96 50.2028 268.672 49.9628L264.088 46.0988V48.9548C264.088 49.2108 264.056 49.4508 263.992 49.6748C263.944 49.8988 263.816 50.0748 263.608 50.2028C263.416 50.3308 263.096 50.3948 262.648 50.3948C262.2 50.3948 261.872 50.3228 261.664 50.1788C261.472 50.0508 261.352 49.8748 261.304 49.6508C261.256 49.4268 261.232 49.1868 261.232 48.9308V34.6028C261.232 34.3308 261.256 34.0908 261.304 33.8828C261.368 33.6588 261.496 33.4828 261.688 33.3548C261.896 33.2108 262.224 33.1388 262.672 33.1388C263.12 33.1388 263.44 33.2108 263.632 33.3548C263.824 33.4828 263.944 33.6588 263.992 33.8828C264.056 34.0908 264.088 34.3388 264.088 34.6268V42.4988L267.4 39.2828C267.656 39.0428 267.896 38.8828 268.12 38.8028C268.344 38.7068 268.56 38.6988 268.768 38.7788C268.992 38.8428 269.224 39.0108 269.464 39.2828C269.864 39.7148 270.056 40.0748 270.04 40.3628C270.024 40.6348 269.824 40.9628 269.44 41.3468L266.2 44.3468L270.592 47.8028ZM278.099 50.5388C277.059 50.5388 276.147 50.3708 275.363 50.0348C274.595 49.6988 273.947 49.2428 273.419 48.6668C272.907 48.0748 272.515 47.4188 272.243 46.6988C271.987 45.9628 271.859 45.2028 271.859 44.4188C271.859 43.2668 272.123 42.2428 272.651 41.3468C273.179 40.4508 273.907 39.7468 274.835 39.2348C275.779 38.7228 276.859 38.4668 278.075 38.4668C278.939 38.4668 279.699 38.6028 280.355 38.8748C281.011 39.1468 281.555 39.5068 281.987 39.9548C282.435 40.3868 282.771 40.8668 282.995 41.3948C283.235 41.9228 283.355 42.4348 283.355 42.9308C283.355 43.7788 283.147 44.3948 282.731 44.7788C282.331 45.1628 281.827 45.3548 281.219 45.3548H274.883C274.899 45.8988 275.067 46.3708 275.387 46.7708C275.723 47.1708 276.139 47.4828 276.635 47.7068C277.147 47.9148 277.667 48.0188 278.195 48.0188C278.595 48.0188 278.947 47.9948 279.251 47.9468C279.571 47.8988 279.843 47.8428 280.067 47.7788C280.291 47.6988 280.483 47.6188 280.643 47.5388C280.819 47.4588 280.979 47.3868 281.123 47.3228C281.267 47.2588 281.403 47.2188 281.531 47.2028C281.707 47.1868 281.883 47.2268 282.059 47.3228C282.235 47.4188 282.379 47.5868 282.491 47.8268C282.587 47.9868 282.651 48.1388 282.683 48.2828C282.731 48.4108 282.755 48.5388 282.755 48.6668C282.755 48.9868 282.563 49.2908 282.179 49.5788C281.795 49.8508 281.251 50.0748 280.547 50.2508C279.859 50.4428 279.043 50.5388 278.099 50.5388ZM274.883 43.6508H279.803C280.075 43.6508 280.283 43.6108 280.427 43.5308C280.571 43.4348 280.643 43.2428 280.643 42.9548C280.643 42.5868 280.531 42.2588 280.307 41.9708C280.083 41.6668 279.779 41.4348 279.395 41.2748C279.011 41.0988 278.563 41.0108 278.051 41.0108C277.459 41.0108 276.923 41.1308 276.443 41.3708C275.963 41.5948 275.579 41.9068 275.291 42.3068C275.019 42.7068 274.883 43.1548 274.883 43.6508ZM289.453 50.3948C288.861 50.3948 288.333 50.3548 287.869 50.2748C287.421 50.1948 287.029 50.0588 286.693 49.8668C286.373 49.6748 286.109 49.4188 285.901 49.0988C285.693 48.7628 285.533 48.3548 285.421 47.8748C285.325 47.3948 285.277 46.8188 285.277 46.1468V34.5788C285.277 34.3068 285.301 34.0668 285.349 33.8588C285.413 33.6348 285.541 33.4588 285.733 33.3308C285.941 33.1868 286.269 33.1148 286.717 33.1148C287.165 33.1148 287.485 33.1788 287.677 33.3068C287.885 33.4348 288.013 33.6108 288.061 33.8348C288.125 34.0428 288.157 34.2828 288.157 34.5548V46.0268C288.157 46.3308 288.173 46.5868 288.205 46.7948C288.253 46.9868 288.325 47.1468 288.421 47.2748C288.533 47.3868 288.669 47.4668 288.829 47.5148C289.005 47.5628 289.213 47.5868 289.453 47.5868C289.661 47.5868 289.845 47.6108 290.005 47.6588C290.181 47.7068 290.317 47.8268 290.413 48.0188C290.525 48.2108 290.581 48.5228 290.581 48.9548C290.581 49.4028 290.525 49.7308 290.413 49.9388C290.317 50.1468 290.181 50.2748 290.005 50.3228C289.829 50.3708 289.645 50.3948 289.453 50.3948ZM296.971 50.3708C296.235 50.3708 295.555 50.2428 294.931 49.9868C294.323 49.7148 293.787 49.3308 293.323 48.8348C292.859 48.3388 292.499 47.7468 292.243 47.0588C291.987 46.3708 291.859 45.6108 291.859 44.7788V40.0028C291.859 39.7308 291.883 39.4908 291.931 39.2828C291.979 39.0588 292.107 38.8828 292.315 38.7548C292.523 38.6268 292.843 38.5628 293.275 38.5628C293.739 38.5628 294.067 38.6268 294.259 38.7548C294.467 38.8828 294.595 39.0588 294.643 39.2828C294.691 39.5068 294.715 39.7548 294.715 40.0268V44.7788C294.715 45.3548 294.811 45.8508 295.003 46.2668C295.211 46.6828 295.507 47.0108 295.891 47.2508C296.275 47.4748 296.747 47.5868 297.307 47.5868C297.883 47.5868 298.371 47.4748 298.771 47.2508C299.187 47.0108 299.507 46.6828 299.731 46.2668C299.955 45.8348 300.067 45.3388 300.067 44.7788V39.9788C300.067 39.7068 300.091 39.4668 300.139 39.2588C300.187 39.0348 300.315 38.8668 300.523 38.7548C300.731 38.6268 301.059 38.5628 301.507 38.5628C301.955 38.5628 302.275 38.6268 302.467 38.7548C302.659 38.8828 302.779 39.0588 302.827 39.2828C302.891 39.5068 302.923 39.7468 302.923 40.0028V49.0028C302.923 49.2428 302.891 49.4668 302.827 49.6748C302.779 49.8828 302.651 50.0508 302.443 50.1788C302.251 50.3068 301.931 50.3708 301.483 50.3708C301.163 50.3708 300.907 50.3308 300.715 50.2508C300.539 50.1868 300.403 50.0988 300.307 49.9868C300.227 49.8588 300.171 49.7308 300.139 49.6028C300.123 49.4748 300.115 49.3468 300.115 49.2188L300.307 48.5708C300.211 48.7148 300.067 48.8908 299.875 49.0988C299.683 49.2908 299.443 49.4908 299.155 49.6988C298.883 49.8908 298.563 50.0508 298.195 50.1788C297.827 50.3068 297.419 50.3708 296.971 50.3708ZM315.133 50.3468C314.669 50.3468 314.325 50.2588 314.101 50.0828C313.877 49.9068 313.765 49.6668 313.765 49.3628L313.933 48.5708C313.805 48.7788 313.589 49.0268 313.285 49.3148C312.981 49.5868 312.581 49.8348 312.085 50.0588C311.589 50.2668 310.989 50.3708 310.285 50.3708C309.533 50.3708 308.821 50.2188 308.149 49.9148C307.493 49.5948 306.909 49.1628 306.397 48.6188C305.901 48.0588 305.501 47.4268 305.197 46.7228C304.909 46.0028 304.765 45.2348 304.765 44.4188C304.765 43.6348 304.909 42.8988 305.197 42.2108C305.501 41.5068 305.909 40.8828 306.421 40.3388C306.933 39.7948 307.517 39.3708 308.173 39.0668C308.845 38.7468 309.549 38.5868 310.285 38.5868C310.941 38.5868 311.493 38.6748 311.941 38.8508C312.405 39.0268 312.797 39.2508 313.117 39.5228C313.437 39.7788 313.701 40.0508 313.909 40.3388L313.765 39.6428C313.765 39.2908 313.877 39.0268 314.101 38.8508C314.325 38.6588 314.677 38.5628 315.157 38.5628C315.605 38.5628 315.925 38.6348 316.117 38.7788C316.309 38.9068 316.429 39.0908 316.477 39.3308C316.525 39.5548 316.549 39.8108 316.549 40.0988V48.8828C316.549 49.1548 316.525 49.4028 316.477 49.6268C316.429 49.8508 316.301 50.0268 316.093 50.1548C315.901 50.2828 315.581 50.3468 315.133 50.3468ZM310.717 47.5628C311.261 47.5628 311.749 47.4268 312.181 47.1548C312.613 46.8828 312.957 46.5148 313.213 46.0508C313.485 45.5708 313.621 45.0428 313.621 44.4668C313.621 43.8428 313.485 43.2988 313.213 42.8348C312.941 42.3708 312.581 42.0108 312.133 41.7548C311.701 41.4828 311.213 41.3468 310.669 41.3468C310.077 41.3468 309.549 41.4908 309.085 41.7788C308.621 42.0508 308.253 42.4268 307.981 42.9068C307.725 43.3708 307.597 43.8988 307.597 44.4908C307.597 45.0668 307.733 45.5868 308.005 46.0508C308.277 46.5148 308.645 46.8828 309.109 47.1548C309.589 47.4268 310.125 47.5628 310.717 47.5628ZM320.373 50.3948C319.941 50.3948 319.621 50.3228 319.413 50.1788C319.221 50.0508 319.101 49.8748 319.053 49.6508C319.005 49.4268 318.981 49.1788 318.981 48.9068V40.0028C318.981 39.7148 319.005 39.4668 319.053 39.2588C319.101 39.0348 319.221 38.8668 319.413 38.7548C319.621 38.6268 319.949 38.5628 320.397 38.5628C320.829 38.5628 321.141 38.6188 321.333 38.7308C321.541 38.8428 321.669 38.9868 321.717 39.1628C321.781 39.3228 321.813 39.4828 321.813 39.6428L321.621 40.0748C321.701 39.9468 321.813 39.7948 321.957 39.6188C322.101 39.4268 322.293 39.2428 322.533 39.0668C322.773 38.8748 323.061 38.7228 323.397 38.6108C323.733 38.4828 324.133 38.4188 324.597 38.4188C324.789 38.4188 324.989 38.4428 325.197 38.4908C325.421 38.5228 325.637 38.5788 325.845 38.6588C326.069 38.7228 326.269 38.8108 326.445 38.9228C326.621 39.0348 326.757 39.1708 326.853 39.3308C326.949 39.4748 326.997 39.6428 326.997 39.8348C326.997 40.3468 326.869 40.7788 326.613 41.1308C326.357 41.4828 326.053 41.6588 325.701 41.6588C325.461 41.6588 325.285 41.6348 325.173 41.5868C325.061 41.5388 324.965 41.4828 324.885 41.4188C324.821 41.3548 324.717 41.2988 324.573 41.2508C324.445 41.2028 324.237 41.1788 323.949 41.1788C323.709 41.1788 323.461 41.2188 323.205 41.2988C322.965 41.3788 322.741 41.4988 322.533 41.6588C322.325 41.8188 322.157 42.0268 322.029 42.2828C321.901 42.5228 321.837 42.8028 321.837 43.1228V48.9548C321.837 49.2268 321.813 49.4748 321.765 49.6988C321.717 49.9068 321.589 50.0748 321.381 50.2028C321.173 50.3308 320.837 50.3948 320.373 50.3948ZM333.352 55.1948C332.776 55.1948 332.224 55.1228 331.696 54.9788C331.168 54.8508 330.688 54.6748 330.256 54.4508C329.84 54.2268 329.504 53.9868 329.248 53.7308C329.008 53.4748 328.888 53.2348 328.888 53.0108C328.888 52.7868 328.92 52.5948 328.984 52.4348C329.064 52.2748 329.176 52.1148 329.32 51.9548C329.512 51.7628 329.664 51.6188 329.776 51.5228C329.904 51.4268 330.072 51.3788 330.28 51.3788C330.456 51.3788 330.624 51.4428 330.784 51.5708C330.96 51.6988 331.16 51.8428 331.384 52.0028C331.608 52.1628 331.88 52.3068 332.2 52.4348C332.52 52.5628 332.928 52.6268 333.424 52.6268C333.84 52.6268 334.224 52.5548 334.576 52.4108C334.928 52.2668 335.224 52.0508 335.464 51.7628C335.72 51.4908 335.92 51.1628 336.064 50.7788C336.208 50.3948 336.28 49.9628 336.28 49.4828L336.256 39.5468C336.288 39.1788 336.416 38.9228 336.64 38.7788C336.864 38.6188 337.208 38.5388 337.672 38.5388C338.104 38.5388 338.416 38.6028 338.608 38.7308C338.8 38.8428 338.92 39.0108 338.968 39.2348C339.016 39.4428 339.04 39.6748 339.04 39.9308V49.6508C339.04 50.5308 338.888 51.3148 338.584 52.0028C338.28 52.6908 337.864 53.2668 337.336 53.7308C336.808 54.2108 336.2 54.5708 335.512 54.8108C334.84 55.0668 334.12 55.1948 333.352 55.1948ZM333.088 50.0828C332.336 50.0828 331.632 49.9388 330.976 49.6508C330.336 49.3628 329.768 48.9548 329.272 48.4268C328.792 47.8988 328.408 47.2908 328.12 46.6028C327.848 45.8988 327.712 45.1388 327.712 44.3228C327.712 43.5228 327.848 42.7788 328.12 42.0908C328.408 41.4028 328.792 40.7948 329.272 40.2668C329.768 39.7388 330.336 39.3308 330.976 39.0428C331.632 38.7388 332.328 38.5868 333.064 38.5868C333.784 38.5868 334.408 38.7308 334.936 39.0188C335.48 39.2908 335.928 39.6828 336.28 40.1948C336.632 40.7068 336.896 41.3148 337.072 42.0188C337.264 42.7228 337.36 43.4988 337.36 44.3468C337.36 45.5148 337.2 46.5308 336.88 47.3948C336.56 48.2588 336.088 48.9228 335.464 49.3868C334.84 49.8508 334.048 50.0828 333.088 50.0828ZM333.352 47.3708C333.896 47.3708 334.376 47.2428 334.792 46.9868C335.224 46.7148 335.56 46.3468 335.8 45.8828C336.056 45.4188 336.184 44.8988 336.184 44.3228C336.184 43.7308 336.056 43.2108 335.8 42.7628C335.56 42.2988 335.224 41.9388 334.792 41.6828C334.36 41.4268 333.872 41.2988 333.328 41.2988C332.784 41.2988 332.296 41.4348 331.864 41.7068C331.448 41.9628 331.12 42.3148 330.88 42.7628C330.64 43.2108 330.52 43.7308 330.52 44.3228C330.52 44.9148 330.64 45.4428 330.88 45.9068C331.136 46.3548 331.472 46.7148 331.888 46.9868C332.32 47.2428 332.808 47.3708 333.352 47.3708ZM351.204 50.3468C350.74 50.3468 350.396 50.2588 350.172 50.0828C349.948 49.9068 349.836 49.6668 349.836 49.3628L350.004 48.5708C349.876 48.7788 349.66 49.0268 349.356 49.3148C349.052 49.5868 348.652 49.8348 348.156 50.0588C347.66 50.2668 347.06 50.3708 346.356 50.3708C345.604 50.3708 344.892 50.2188 344.22 49.9148C343.564 49.5948 342.98 49.1628 342.468 48.6188C341.972 48.0588 341.572 47.4268 341.268 46.7228C340.98 46.0028 340.836 45.2348 340.836 44.4188C340.836 43.6348 340.98 42.8988 341.268 42.2108C341.572 41.5068 341.98 40.8828 342.492 40.3388C343.004 39.7948 343.588 39.3708 344.244 39.0668C344.916 38.7468 345.62 38.5868 346.356 38.5868C347.012 38.5868 347.564 38.6748 348.012 38.8508C348.476 39.0268 348.868 39.2508 349.188 39.5228C349.508 39.7788 349.772 40.0508 349.98 40.3388L349.836 39.6428C349.836 39.2908 349.948 39.0268 350.172 38.8508C350.396 38.6588 350.748 38.5628 351.228 38.5628C351.676 38.5628 351.996 38.6348 352.188 38.7788C352.38 38.9068 352.5 39.0908 352.548 39.3308C352.596 39.5548 352.62 39.8108 352.62 40.0988V48.8828C352.62 49.1548 352.596 49.4028 352.548 49.6268C352.5 49.8508 352.372 50.0268 352.164 50.1548C351.972 50.2828 351.652 50.3468 351.204 50.3468ZM346.788 47.5628C347.332 47.5628 347.82 47.4268 348.252 47.1548C348.684 46.8828 349.028 46.5148 349.284 46.0508C349.556 45.5708 349.692 45.0428 349.692 44.4668C349.692 43.8428 349.556 43.2988 349.284 42.8348C349.012 42.3708 348.652 42.0108 348.204 41.7548C347.772 41.4828 347.284 41.3468 346.74 41.3468C346.148 41.3468 345.62 41.4908 345.156 41.7788C344.692 42.0508 344.324 42.4268 344.052 42.9068C343.796 43.3708 343.668 43.8988 343.668 44.4908C343.668 45.0668 343.804 45.5868 344.076 46.0508C344.348 46.5148 344.716 46.8828 345.18 47.1548C345.66 47.4268 346.196 47.5628 346.788 47.5628ZM355.172 52.8668C355.172 52.8668 355.14 52.8508 355.076 52.8188C355.012 52.8028 354.948 52.7388 354.884 52.6268C354.82 52.5308 354.788 52.3708 354.788 52.1468C354.788 51.8428 354.836 51.6428 354.932 51.5468C355.028 51.4668 355.092 51.4188 355.124 51.4028C355.14 51.3868 355.252 51.2908 355.46 51.1148C355.668 50.9548 355.788 50.6748 355.82 50.2748C355.66 50.2428 355.516 50.2028 355.388 50.1548C355.276 50.0908 355.18 50.0188 355.1 49.9388C354.94 49.7788 354.844 49.5948 354.812 49.3868C354.78 49.1628 354.764 48.9388 354.764 48.7148C354.764 48.3468 354.804 48.0428 354.884 47.8028C354.964 47.5628 355.116 47.3868 355.34 47.2748C355.58 47.1468 355.932 47.0828 356.396 47.0828C357.004 47.0828 357.436 47.2108 357.692 47.4668C357.836 47.6108 357.916 47.7948 357.932 48.0188C357.964 48.2428 357.98 48.4668 357.98 48.6908C357.98 48.8508 357.98 48.9868 357.98 49.0988C357.98 49.1948 357.972 49.2828 357.956 49.3628C357.892 50.0028 357.724 50.5868 357.452 51.1148C357.196 51.6428 356.868 52.0668 356.468 52.3868C356.084 52.7068 355.652 52.8668 355.172 52.8668ZM356.348 42.4508C355.74 42.4508 355.316 42.3308 355.076 42.0908C354.852 41.8348 354.74 41.4268 354.74 40.8668C354.74 40.4508 354.78 40.1228 354.86 39.8828C354.956 39.6428 355.124 39.4748 355.364 39.3788C355.62 39.2668 355.956 39.2108 356.372 39.2108C356.996 39.2108 357.42 39.3308 357.644 39.5708C357.868 39.8108 357.98 40.2348 357.98 40.8428C357.98 41.1308 357.948 41.4028 357.884 41.6588C357.82 41.8988 357.676 42.0908 357.452 42.2348C357.228 42.3788 356.86 42.4508 356.348 42.4508ZM95.6206 79.3708C95.2046 79.3708 94.8926 79.2988 94.6846 79.1548C94.4766 79.0268 94.3406 78.8508 94.2766 78.6268C94.2126 78.4028 94.1806 78.1628 94.1806 77.9068V64.0348C94.1806 63.7788 94.2046 63.5468 94.2526 63.3388C94.3166 63.1148 94.4526 62.9388 94.6606 62.8108C94.8686 62.6668 95.1966 62.5948 95.6446 62.5948L100.157 62.6188C101.325 62.6188 102.397 62.8188 103.373 63.2188C104.365 63.6188 105.221 64.1868 105.941 64.9228C106.661 65.6588 107.213 66.5388 107.597 67.5628C107.997 68.5708 108.197 69.6828 108.197 70.8988C108.197 72.1468 107.997 73.2908 107.597 74.3308C107.197 75.3708 106.637 76.2668 105.917 77.0188C105.197 77.7708 104.341 78.3548 103.349 78.7708C102.373 79.1708 101.285 79.3708 100.085 79.3708H95.6206ZM97.0846 76.4668H100.157C101.181 76.4668 102.077 76.2428 102.845 75.7948C103.613 75.3308 104.205 74.6908 104.621 73.8748C105.053 73.0588 105.269 72.1068 105.269 71.0188C105.269 69.9148 105.053 68.9548 104.621 68.1388C104.205 67.3068 103.605 66.6668 102.821 66.2188C102.053 65.7548 101.157 65.5228 100.133 65.5228H97.0846V76.4668ZM120.309 79.3468C119.845 79.3468 119.501 79.2588 119.277 79.0828C119.053 78.9068 118.941 78.6668 118.941 78.3628L119.109 77.5708C118.981 77.7788 118.765 78.0268 118.461 78.3148C118.157 78.5868 117.757 78.8348 117.261 79.0588C116.765 79.2668 116.165 79.3708 115.461 79.3708C114.709 79.3708 113.997 79.2188 113.325 78.9148C112.669 78.5948 112.085 78.1628 111.573 77.6188C111.077 77.0588 110.677 76.4268 110.373 75.7228C110.085 75.0028 109.941 74.2348 109.941 73.4188C109.941 72.6348 110.085 71.8988 110.373 71.2108C110.677 70.5068 111.085 69.8828 111.597 69.3388C112.109 68.7948 112.693 68.3708 113.349 68.0668C114.021 67.7468 114.725 67.5868 115.461 67.5868C116.117 67.5868 116.669 67.6748 117.117 67.8508C117.581 68.0268 117.973 68.2508 118.293 68.5228C118.613 68.7788 118.877 69.0508 119.085 69.3388L118.941 68.6428C118.941 68.2908 119.053 68.0268 119.277 67.8508C119.501 67.6588 119.853 67.5628 120.333 67.5628C120.781 67.5628 121.101 67.6348 121.293 67.7788C121.485 67.9068 121.605 68.0908 121.653 68.3308C121.701 68.5548 121.725 68.8108 121.725 69.0988V77.8828C121.725 78.1548 121.701 78.4028 121.653 78.6268C121.605 78.8508 121.477 79.0268 121.269 79.1548C121.077 79.2828 120.757 79.3468 120.309 79.3468ZM115.893 76.5628C116.437 76.5628 116.925 76.4268 117.357 76.1548C117.789 75.8828 118.133 75.5148 118.389 75.0508C118.661 74.5708 118.797 74.0428 118.797 73.4668C118.797 72.8428 118.661 72.2988 118.389 71.8348C118.117 71.3708 117.757 71.0108 117.309 70.7548C116.877 70.4828 116.389 70.3468 115.845 70.3468C115.253 70.3468 114.725 70.4908 114.261 70.7788C113.797 71.0508 113.429 71.4268 113.157 71.9068C112.901 72.3708 112.773 72.8988 112.773 73.4908C112.773 74.0668 112.909 74.5868 113.181 75.0508C113.453 75.5148 113.821 75.8828 114.285 76.1548C114.765 76.4268 115.301 76.5628 115.893 76.5628ZM125.525 79.3708C125.093 79.3708 124.773 79.3068 124.565 79.1788C124.373 79.0508 124.253 78.8748 124.205 78.6508C124.157 78.4268 124.133 78.1868 124.133 77.9308V68.9548C124.133 68.6988 124.157 68.4668 124.205 68.2588C124.253 68.0508 124.381 67.8828 124.589 67.7548C124.797 67.6268 125.125 67.5628 125.573 67.5628C126.037 67.5628 126.373 67.6588 126.581 67.8508C126.805 68.0428 126.917 68.3468 126.917 68.7628L126.701 69.4348C126.781 69.2588 126.917 69.0668 127.109 68.8588C127.301 68.6508 127.533 68.4428 127.805 68.2348C128.093 68.0268 128.413 67.8588 128.765 67.7308C129.117 67.6028 129.485 67.5388 129.869 67.5388C130.397 67.5388 130.877 67.6268 131.309 67.8028C131.757 67.9788 132.149 68.2348 132.485 68.5708C132.837 68.9068 133.141 69.3148 133.397 69.7948C133.669 69.3788 133.973 69.0028 134.309 68.6668C134.645 68.3148 135.037 68.0428 135.485 67.8508C135.933 67.6428 136.437 67.5388 136.997 67.5388C137.925 67.5388 138.701 67.7708 139.325 68.2348C139.965 68.6988 140.445 69.3628 140.765 70.2268C141.101 71.0748 141.269 72.0908 141.269 73.2748V77.9308C141.269 78.2028 141.237 78.4508 141.173 78.6748C141.125 78.8828 140.997 79.0508 140.789 79.1788C140.597 79.3068 140.277 79.3708 139.829 79.3708C139.381 79.3708 139.053 79.2988 138.845 79.1548C138.637 79.0268 138.509 78.8588 138.461 78.6508C138.413 78.4268 138.389 78.1788 138.389 77.9068V73.2508C138.389 72.6588 138.317 72.1468 138.173 71.7148C138.029 71.2828 137.813 70.9468 137.525 70.7068C137.253 70.4668 136.893 70.3468 136.445 70.3468C135.965 70.3468 135.549 70.4668 135.197 70.7068C134.861 70.9308 134.597 71.2588 134.405 71.6908C134.213 72.1228 134.117 72.6508 134.117 73.2748V77.9548C134.117 78.2268 134.077 78.4828 133.997 78.7228C133.917 78.9468 133.757 79.1148 133.517 79.2268C133.293 79.3548 132.965 79.4028 132.533 79.3708C132.133 79.3548 131.837 79.2748 131.645 79.1308C131.469 78.9868 131.357 78.8108 131.309 78.6028C131.277 78.3788 131.261 78.1468 131.261 77.9068V73.2508C131.261 72.6588 131.189 72.1468 131.045 71.7148C130.901 71.2668 130.685 70.9308 130.397 70.7068C130.125 70.4668 129.757 70.3468 129.293 70.3468C128.797 70.3468 128.373 70.4748 128.021 70.7308C127.685 70.9868 127.429 71.3308 127.253 71.7628C127.077 72.1948 126.989 72.6908 126.989 73.2508V77.9548C126.989 78.2108 126.957 78.4508 126.893 78.6748C126.845 78.8988 126.717 79.0668 126.509 79.1788C126.317 79.3068 125.989 79.3708 125.525 79.3708ZM149.752 79.2268C148.968 79.2268 148.264 79.0828 147.64 78.7948C147.032 78.4908 146.512 78.0748 146.08 77.5468C145.664 77.0028 145.344 76.3788 145.12 75.6748C144.912 74.9708 144.808 74.2108 144.808 73.3948C144.824 72.5788 144.944 71.8188 145.168 71.1148C145.392 70.3948 145.712 69.7708 146.128 69.2428C146.56 68.7148 147.08 68.2988 147.688 67.9948C148.296 67.6908 148.984 67.5388 149.752 67.5388C150.488 67.5388 151.176 67.6908 151.816 67.9948C152.472 68.2988 153.048 68.7228 153.544 69.2668C154.056 69.8108 154.456 70.4428 154.744 71.1628C155.032 71.8668 155.176 72.6268 155.176 73.4428C155.176 74.2748 155.032 75.0428 154.744 75.7468C154.456 76.4508 154.064 77.0668 153.568 77.5948C153.072 78.1068 152.496 78.5068 151.84 78.7948C151.184 79.0828 150.488 79.2268 149.752 79.2268ZM144.952 84.2188C144.52 84.2188 144.2 84.1548 143.992 84.0268C143.784 83.8988 143.656 83.7308 143.608 83.5228C143.56 83.3148 143.536 83.0748 143.536 82.8028V69.0028C143.536 68.7308 143.56 68.4908 143.608 68.2828C143.656 68.0748 143.776 67.9068 143.968 67.7788C144.176 67.6348 144.496 67.5628 144.928 67.5628C145.344 67.5628 145.672 67.6268 145.912 67.7548C146.152 67.8828 146.312 68.0988 146.392 68.4028V82.7788C146.408 83.0508 146.384 83.2908 146.32 83.4988C146.272 83.7228 146.144 83.8988 145.936 84.0268C145.728 84.1548 145.4 84.2188 144.952 84.2188ZM149.368 76.5388C149.928 76.5388 150.432 76.4108 150.88 76.1548C151.328 75.8828 151.68 75.5148 151.936 75.0508C152.208 74.5708 152.344 74.0348 152.344 73.4428C152.344 72.8348 152.208 72.2988 151.936 71.8348C151.68 71.3708 151.328 71.0108 150.88 70.7548C150.432 70.4828 149.928 70.3468 149.368 70.3468C148.824 70.3468 148.328 70.4828 147.88 70.7548C147.432 71.0268 147.072 71.3948 146.8 71.8588C146.544 72.3068 146.416 72.8348 146.416 73.4428C146.416 74.0348 146.544 74.5708 146.8 75.0508C147.072 75.5148 147.432 75.8828 147.88 76.1548C148.328 76.4108 148.824 76.5388 149.368 76.5388ZM167.043 79.3468C166.579 79.3468 166.235 79.2588 166.011 79.0828C165.787 78.9068 165.675 78.6668 165.675 78.3628L165.843 77.5708C165.715 77.7788 165.499 78.0268 165.195 78.3148C164.891 78.5868 164.491 78.8348 163.995 79.0588C163.499 79.2668 162.899 79.3708 162.195 79.3708C161.443 79.3708 160.731 79.2188 160.059 78.9148C159.403 78.5948 158.819 78.1628 158.307 77.6188C157.811 77.0588 157.411 76.4268 157.107 75.7228C156.819 75.0028 156.675 74.2348 156.675 73.4188C156.675 72.6348 156.819 71.8988 157.107 71.2108C157.411 70.5068 157.819 69.8828 158.331 69.3388C158.843 68.7948 159.427 68.3708 160.083 68.0668C160.755 67.7468 161.459 67.5868 162.195 67.5868C162.851 67.5868 163.403 67.6748 163.851 67.8508C164.315 68.0268 164.707 68.2508 165.027 68.5228C165.347 68.7788 165.611 69.0508 165.819 69.3388L165.675 68.6428C165.675 68.2908 165.787 68.0268 166.011 67.8508C166.235 67.6588 166.587 67.5628 167.067 67.5628C167.515 67.5628 167.835 67.6348 168.027 67.7788C168.219 67.9068 168.339 68.0908 168.387 68.3308C168.435 68.5548 168.459 68.8108 168.459 69.0988V77.8828C168.459 78.1548 168.435 78.4028 168.387 78.6268C168.339 78.8508 168.211 79.0268 168.003 79.1548C167.811 79.2828 167.491 79.3468 167.043 79.3468ZM162.627 76.5628C163.171 76.5628 163.659 76.4268 164.091 76.1548C164.523 75.8828 164.867 75.5148 165.123 75.0508C165.395 74.5708 165.531 74.0428 165.531 73.4668C165.531 72.8428 165.395 72.2988 165.123 71.8348C164.851 71.3708 164.491 71.0108 164.043 70.7548C163.611 70.4828 163.123 70.3468 162.579 70.3468C161.987 70.3468 161.459 70.4908 160.995 70.7788C160.531 71.0508 160.163 71.4268 159.891 71.9068C159.635 72.3708 159.507 72.8988 159.507 73.4908C159.507 74.0668 159.643 74.5868 159.915 75.0508C160.187 75.5148 160.555 75.8828 161.019 76.1548C161.499 76.4268 162.035 76.5628 162.627 76.5628ZM180.276 76.8028C180.692 77.1548 180.908 77.4828 180.924 77.7868C180.956 78.0908 180.796 78.4428 180.444 78.8428C180.172 79.1468 179.932 79.3468 179.724 79.4428C179.516 79.5388 179.308 79.5388 179.1 79.4428C178.892 79.3628 178.644 79.2028 178.356 78.9628L173.772 75.0988V77.9548C173.772 78.2108 173.74 78.4508 173.676 78.6748C173.628 78.8988 173.5 79.0748 173.292 79.2028C173.1 79.3308 172.78 79.3948 172.332 79.3948C171.884 79.3948 171.556 79.3228 171.348 79.1788C171.156 79.0508 171.036 78.8748 170.988 78.6508C170.94 78.4268 170.916 78.1868 170.916 77.9308V63.6028C170.916 63.3308 170.94 63.0908 170.988 62.8828C171.052 62.6588 171.18 62.4828 171.372 62.3548C171.58 62.2108 171.908 62.1388 172.356 62.1388C172.804 62.1388 173.124 62.2108 173.316 62.3548C173.508 62.4828 173.628 62.6588 173.676 62.8828C173.74 63.0908 173.772 63.3388 173.772 63.6268V71.4988L177.084 68.2828C177.34 68.0428 177.58 67.8828 177.804 67.8028C178.028 67.7068 178.244 67.6988 178.452 67.7788C178.676 67.8428 178.908 68.0108 179.148 68.2828C179.548 68.7148 179.74 69.0748 179.724 69.3628C179.708 69.6348 179.508 69.9628 179.124 70.3468L175.884 73.3468L180.276 76.8028ZM198.356 79.3468C197.892 79.3468 197.548 79.2588 197.324 79.0828C197.1 78.9068 196.988 78.6668 196.988 78.3628L197.156 77.5708C197.028 77.7788 196.812 78.0268 196.508 78.3148C196.204 78.5868 195.804 78.8348 195.308 79.0588C194.812 79.2668 194.212 79.3708 193.508 79.3708C192.756 79.3708 192.044 79.2188 191.372 78.9148C190.716 78.5948 190.132 78.1628 189.62 77.6188C189.124 77.0588 188.724 76.4268 188.42 75.7228C188.132 75.0028 187.988 74.2348 187.988 73.4188C187.988 72.6348 188.132 71.8988 188.42 71.2108C188.724 70.5068 189.132 69.8828 189.644 69.3388C190.156 68.7948 190.74 68.3708 191.396 68.0668C192.068 67.7468 192.772 67.5868 193.508 67.5868C194.164 67.5868 194.716 67.6748 195.164 67.8508C195.628 68.0268 196.02 68.2508 196.34 68.5228C196.66 68.7788 196.924 69.0508 197.132 69.3388L196.988 68.6428C196.988 68.2908 197.1 68.0268 197.324 67.8508C197.548 67.6588 197.9 67.5628 198.38 67.5628C198.828 67.5628 199.148 67.6348 199.34 67.7788C199.532 67.9068 199.652 68.0908 199.7 68.3308C199.748 68.5548 199.772 68.8108 199.772 69.0988V77.8828C199.772 78.1548 199.748 78.4028 199.7 78.6268C199.652 78.8508 199.524 79.0268 199.316 79.1548C199.124 79.2828 198.804 79.3468 198.356 79.3468ZM193.94 76.5628C194.484 76.5628 194.972 76.4268 195.404 76.1548C195.836 75.8828 196.18 75.5148 196.436 75.0508C196.708 74.5708 196.844 74.0428 196.844 73.4668C196.844 72.8428 196.708 72.2988 196.436 71.8348C196.164 71.3708 195.804 71.0108 195.356 70.7548C194.924 70.4828 194.436 70.3468 193.892 70.3468C193.3 70.3468 192.772 70.4908 192.308 70.7788C191.844 71.0508 191.476 71.4268 191.204 71.9068C190.948 72.3708 190.82 72.8988 190.82 73.4908C190.82 74.0668 190.956 74.5868 191.228 75.0508C191.5 75.5148 191.868 75.8828 192.332 76.1548C192.812 76.4268 193.348 76.5628 193.94 76.5628ZM211.588 76.8028C212.004 77.1548 212.22 77.4828 212.236 77.7868C212.268 78.0908 212.108 78.4428 211.756 78.8428C211.484 79.1468 211.244 79.3468 211.036 79.4428C210.828 79.5388 210.62 79.5388 210.412 79.4428C210.204 79.3628 209.956 79.2028 209.668 78.9628L205.084 75.0988V77.9548C205.084 78.2108 205.052 78.4508 204.988 78.6748C204.94 78.8988 204.812 79.0748 204.604 79.2028C204.412 79.3308 204.092 79.3948 203.644 79.3948C203.196 79.3948 202.868 79.3228 202.66 79.1788C202.468 79.0508 202.348 78.8748 202.3 78.6508C202.252 78.4268 202.228 78.1868 202.228 77.9308V63.6028C202.228 63.3308 202.252 63.0908 202.3 62.8828C202.364 62.6588 202.492 62.4828 202.684 62.3548C202.892 62.2108 203.22 62.1388 203.668 62.1388C204.116 62.1388 204.436 62.2108 204.628 62.3548C204.82 62.4828 204.94 62.6588 204.988 62.8828C205.052 63.0908 205.084 63.3388 205.084 63.6268V71.4988L208.396 68.2828C208.652 68.0428 208.892 67.8828 209.116 67.8028C209.34 67.7068 209.556 67.6988 209.764 67.7788C209.988 67.8428 210.22 68.0108 210.46 68.2828C210.86 68.7148 211.052 69.0748 211.036 69.3628C211.02 69.6348 210.82 69.9628 210.436 70.3468L207.196 73.3468L211.588 76.8028ZM223.223 79.3468C222.759 79.3468 222.415 79.2588 222.191 79.0828C221.967 78.9068 221.855 78.6668 221.855 78.3628L222.023 77.5708C221.895 77.7788 221.679 78.0268 221.375 78.3148C221.071 78.5868 220.671 78.8348 220.175 79.0588C219.679 79.2668 219.079 79.3708 218.375 79.3708C217.623 79.3708 216.911 79.2188 216.239 78.9148C215.583 78.5948 214.999 78.1628 214.487 77.6188C213.991 77.0588 213.591 76.4268 213.287 75.7228C212.999 75.0028 212.855 74.2348 212.855 73.4188C212.855 72.6348 212.999 71.8988 213.287 71.2108C213.591 70.5068 213.999 69.8828 214.511 69.3388C215.023 68.7948 215.607 68.3708 216.263 68.0668C216.935 67.7468 217.639 67.5868 218.375 67.5868C219.031 67.5868 219.583 67.6748 220.031 67.8508C220.495 68.0268 220.887 68.2508 221.207 68.5228C221.527 68.7788 221.791 69.0508 221.999 69.3388L221.855 68.6428C221.855 68.2908 221.967 68.0268 222.191 67.8508C222.415 67.6588 222.767 67.5628 223.247 67.5628C223.695 67.5628 224.015 67.6348 224.207 67.7788C224.399 67.9068 224.519 68.0908 224.567 68.3308C224.615 68.5548 224.639 68.8108 224.639 69.0988V77.8828C224.639 78.1548 224.615 78.4028 224.567 78.6268C224.519 78.8508 224.391 79.0268 224.183 79.1548C223.991 79.2828 223.671 79.3468 223.223 79.3468ZM218.807 76.5628C219.351 76.5628 219.839 76.4268 220.271 76.1548C220.703 75.8828 221.047 75.5148 221.303 75.0508C221.575 74.5708 221.711 74.0428 221.711 73.4668C221.711 72.8428 221.575 72.2988 221.303 71.8348C221.031 71.3708 220.671 71.0108 220.223 70.7548C219.791 70.4828 219.303 70.3468 218.759 70.3468C218.167 70.3468 217.639 70.4908 217.175 70.7788C216.711 71.0508 216.343 71.4268 216.071 71.9068C215.815 72.3708 215.687 72.8988 215.687 73.4908C215.687 74.0668 215.823 74.5868 216.095 75.0508C216.367 75.5148 216.735 75.8828 217.199 76.1548C217.679 76.4268 218.215 76.5628 218.807 76.5628ZM232.135 79.3708C231.399 79.3708 230.703 79.2188 230.047 78.9148C229.391 78.6108 228.815 78.1948 228.319 77.6668C227.823 77.1228 227.431 76.4908 227.143 75.7708C226.855 75.0348 226.711 74.2508 226.711 73.4188C226.711 72.6188 226.855 71.8668 227.143 71.1628C227.431 70.4428 227.823 69.8188 228.319 69.2908C228.831 68.7468 229.415 68.3228 230.071 68.0188C230.727 67.7148 231.415 67.5628 232.135 67.5628C232.903 67.5628 233.591 67.7148 234.199 68.0188C234.807 68.3228 235.319 68.7468 235.735 69.2908C236.167 69.8188 236.495 70.4428 236.719 71.1628C236.943 71.8668 237.063 72.6268 237.079 73.4428C237.079 74.2588 236.967 75.0268 236.743 75.7468C236.535 76.4508 236.215 77.0748 235.783 77.6188C235.367 78.1628 234.847 78.5948 234.223 78.9148C233.615 79.2188 232.919 79.3708 232.135 79.3708ZM232.519 76.5628C233.079 76.5628 233.575 76.4348 234.007 76.1788C234.455 75.9068 234.807 75.5388 235.063 75.0748C235.335 74.6108 235.471 74.0828 235.471 73.4908C235.471 72.8828 235.335 72.3468 235.063 71.8828C234.807 71.4188 234.455 71.0508 234.007 70.7788C233.575 70.5068 233.079 70.3708 232.519 70.3708C231.959 70.3708 231.455 70.5068 231.007 70.7788C230.559 71.0348 230.199 71.4028 229.927 71.8828C229.671 72.3468 229.543 72.8828 229.543 73.4908C229.543 74.0828 229.671 74.6108 229.927 75.0748C230.199 75.5388 230.559 75.9068 231.007 76.1788C231.471 76.4348 231.975 76.5628 232.519 76.5628ZM236.959 79.3708C236.511 79.3708 236.183 79.2988 235.975 79.1548C235.767 78.9948 235.631 78.7468 235.567 78.4108V63.6268C235.567 63.3548 235.583 63.1148 235.615 62.9068C235.663 62.6828 235.783 62.5068 235.975 62.3788C236.183 62.2348 236.503 62.1628 236.935 62.1628C237.399 62.1628 237.727 62.2268 237.919 62.3548C238.111 62.4828 238.231 62.6588 238.279 62.8828C238.343 63.0908 238.375 63.3308 238.375 63.6028V77.9068C238.375 78.1788 238.351 78.4268 238.303 78.6508C238.255 78.8748 238.127 79.0508 237.919 79.1788C237.727 79.3068 237.407 79.3708 236.959 79.3708ZM246.564 79.5388C245.524 79.5388 244.612 79.3708 243.828 79.0348C243.06 78.6988 242.412 78.2428 241.884 77.6668C241.372 77.0748 240.98 76.4188 240.708 75.6988C240.452 74.9628 240.324 74.2028 240.324 73.4188C240.324 72.2668 240.588 71.2428 241.116 70.3468C241.644 69.4508 242.372 68.7468 243.3 68.2348C244.244 67.7228 245.324 67.4668 246.54 67.4668C247.404 67.4668 248.164 67.6028 248.82 67.8748C249.476 68.1468 250.02 68.5068 250.452 68.9548C250.9 69.3868 251.236 69.8668 251.46 70.3948C251.7 70.9228 251.82 71.4348 251.82 71.9308C251.82 72.7788 251.612 73.3948 251.196 73.7788C250.796 74.1628 250.292 74.3548 249.684 74.3548H243.348C243.364 74.8988 243.532 75.3708 243.852 75.7708C244.188 76.1708 244.604 76.4828 245.1 76.7068C245.612 76.9148 246.132 77.0188 246.66 77.0188C247.06 77.0188 247.412 76.9948 247.716 76.9468C248.036 76.8988 248.308 76.8428 248.532 76.7788C248.756 76.6988 248.948 76.6188 249.108 76.5388C249.284 76.4588 249.444 76.3868 249.588 76.3228C249.732 76.2588 249.868 76.2188 249.996 76.2028C250.172 76.1868 250.348 76.2268 250.524 76.3228C250.7 76.4188 250.844 76.5868 250.956 76.8268C251.052 76.9868 251.116 77.1388 251.148 77.2828C251.196 77.4108 251.22 77.5388 251.22 77.6668C251.22 77.9868 251.028 78.2908 250.644 78.5788C250.26 78.8508 249.716 79.0748 249.012 79.2508C248.324 79.4428 247.508 79.5388 246.564 79.5388ZM243.348 72.6508H248.268C248.54 72.6508 248.748 72.6108 248.892 72.5308C249.036 72.4348 249.108 72.2428 249.108 71.9548C249.108 71.5868 248.996 71.2588 248.772 70.9708C248.548 70.6668 248.244 70.4348 247.86 70.2748C247.476 70.0988 247.028 70.0108 246.516 70.0108C245.924 70.0108 245.388 70.1308 244.908 70.3708C244.428 70.5948 244.044 70.9068 243.756 71.3068C243.484 71.7068 243.348 72.1548 243.348 72.6508ZM255.181 79.3708C254.749 79.3708 254.429 79.3068 254.221 79.1788C254.029 79.0508 253.909 78.8748 253.861 78.6508C253.813 78.4268 253.789 78.1868 253.789 77.9308V68.9548C253.789 68.6988 253.813 68.4668 253.861 68.2588C253.909 68.0508 254.037 67.8828 254.245 67.7548C254.453 67.6268 254.781 67.5628 255.229 67.5628C255.693 67.5628 256.029 67.6588 256.237 67.8508C256.461 68.0428 256.573 68.3468 256.573 68.7628L256.357 69.4348C256.437 69.2588 256.573 69.0668 256.765 68.8588C256.957 68.6508 257.189 68.4428 257.461 68.2348C257.749 68.0268 258.069 67.8588 258.421 67.7308C258.773 67.6028 259.141 67.5388 259.525 67.5388C260.053 67.5388 260.533 67.6268 260.965 67.8028C261.413 67.9788 261.805 68.2348 262.141 68.5708C262.493 68.9068 262.797 69.3148 263.053 69.7948C263.325 69.3788 263.629 69.0028 263.965 68.6668C264.301 68.3148 264.693 68.0428 265.141 67.8508C265.589 67.6428 266.093 67.5388 266.653 67.5388C267.581 67.5388 268.357 67.7708 268.981 68.2348C269.621 68.6988 270.101 69.3628 270.421 70.2268C270.757 71.0748 270.925 72.0908 270.925 73.2748V77.9308C270.925 78.2028 270.893 78.4508 270.829 78.6748C270.781 78.8828 270.653 79.0508 270.445 79.1788C270.253 79.3068 269.933 79.3708 269.485 79.3708C269.037 79.3708 268.709 79.2988 268.501 79.1548C268.293 79.0268 268.165 78.8588 268.117 78.6508C268.069 78.4268 268.045 78.1788 268.045 77.9068V73.2508C268.045 72.6588 267.973 72.1468 267.829 71.7148C267.685 71.2828 267.469 70.9468 267.181 70.7068C266.909 70.4668 266.549 70.3468 266.101 70.3468C265.621 70.3468 265.205 70.4668 264.853 70.7068C264.517 70.9308 264.253 71.2588 264.061 71.6908C263.869 72.1228 263.773 72.6508 263.773 73.2748V77.9548C263.773 78.2268 263.733 78.4828 263.653 78.7228C263.573 78.9468 263.413 79.1148 263.173 79.2268C262.949 79.3548 262.621 79.4028 262.189 79.3708C261.789 79.3548 261.493 79.2748 261.301 79.1308C261.125 78.9868 261.013 78.8108 260.965 78.6028C260.933 78.3788 260.917 78.1468 260.917 77.9068V73.2508C260.917 72.6588 260.845 72.1468 260.701 71.7148C260.557 71.2668 260.341 70.9308 260.053 70.7068C259.781 70.4668 259.413 70.3468 258.949 70.3468C258.453 70.3468 258.029 70.4748 257.677 70.7308C257.341 70.9868 257.085 71.3308 256.909 71.7628C256.733 72.1948 256.645 72.6908 256.645 73.2508V77.9548C256.645 78.2108 256.613 78.4508 256.549 78.6748C256.501 78.8988 256.373 79.0668 256.165 79.1788C255.973 79.3068 255.645 79.3708 255.181 79.3708ZM274.872 79.3948C274.44 79.3948 274.12 79.3228 273.912 79.1788C273.704 79.0508 273.576 78.8828 273.528 78.6748C273.48 78.4508 273.456 78.2028 273.456 77.9308V69.0028C273.456 68.7468 273.48 68.5148 273.528 68.3068C273.592 68.0828 273.72 67.9068 273.912 67.7788C274.12 67.6508 274.448 67.5868 274.896 67.5868C275.344 67.5868 275.664 67.6508 275.856 67.7788C276.064 67.9068 276.192 68.0828 276.24 68.3068C276.288 68.5308 276.312 68.7788 276.312 69.0508V77.9548C276.312 78.2268 276.288 78.4748 276.24 78.6988C276.192 78.9068 276.064 79.0748 275.856 79.2028C275.664 79.3308 275.336 79.3948 274.872 79.3948ZM274.872 65.2588C274.408 65.2588 274.064 65.1948 273.84 65.0668C273.632 64.9228 273.496 64.7308 273.432 64.4908C273.384 64.2508 273.36 63.9868 273.36 63.6988C273.36 63.3948 273.384 63.1308 273.432 62.9068C273.496 62.6828 273.64 62.5068 273.864 62.3788C274.088 62.2348 274.432 62.1628 274.896 62.1628C275.376 62.1628 275.72 62.2348 275.928 62.3788C276.136 62.5228 276.272 62.7148 276.336 62.9548C276.4 63.1788 276.432 63.4428 276.432 63.7468C276.432 64.0188 276.4 64.2748 276.336 64.5148C276.272 64.7548 276.136 64.9388 275.928 65.0668C275.72 65.1948 275.368 65.2588 274.872 65.2588ZM288.346 76.8028C288.762 77.1548 288.978 77.4828 288.994 77.7868C289.026 78.0908 288.866 78.4428 288.514 78.8428C288.242 79.1468 288.002 79.3468 287.794 79.4428C287.586 79.5388 287.378 79.5388 287.17 79.4428C286.962 79.3628 286.714 79.2028 286.426 78.9628L281.842 75.0988V77.9548C281.842 78.2108 281.81 78.4508 281.746 78.6748C281.698 78.8988 281.57 79.0748 281.362 79.2028C281.17 79.3308 280.85 79.3948 280.402 79.3948C279.954 79.3948 279.626 79.3228 279.418 79.1788C279.226 79.0508 279.106 78.8748 279.058 78.6508C279.01 78.4268 278.986 78.1868 278.986 77.9308V63.6028C278.986 63.3308 279.01 63.0908 279.058 62.8828C279.122 62.6588 279.25 62.4828 279.442 62.3548C279.65 62.2108 279.978 62.1388 280.426 62.1388C280.874 62.1388 281.194 62.2108 281.386 62.3548C281.578 62.4828 281.698 62.6588 281.746 62.8828C281.81 63.0908 281.842 63.3388 281.842 63.6268V71.4988L285.154 68.2828C285.41 68.0428 285.65 67.8828 285.874 67.8028C286.098 67.7068 286.314 67.6988 286.522 67.7788C286.746 67.8428 286.978 68.0108 287.218 68.2828C287.618 68.7148 287.81 69.0748 287.794 69.3628C287.778 69.6348 287.578 69.9628 287.194 70.3468L283.954 73.3468L288.346 76.8028Z" fill="black"/>
</svg>
