<svg width="400" height="120" viewBox="0 0 400 120" fill="none" xmlns="http://www.w3.org/2000/svg">
<mask id="mask0_62_2268" style="mask-type:luminance" maskUnits="userSpaceOnUse" x="0" y="0" width="400" height="120">
<path d="M400 0H0V120H400V0Z" fill="white"/>
</mask>
<g mask="url(#mask0_62_2268)">
<mask id="mask1_62_2268" style="mask-type:luminance" maskUnits="userSpaceOnUse" x="9" y="9" width="388" height="111">
<path d="M9.33838 9.33325H396.887V119.354H9.33838V9.33325Z" fill="white"/>
</mask>
<g mask="url(#mask1_62_2268)">
<path d="M15.7893 72.3853L12.3967 62.3593L17.7895 51.8749L13.0351 41.3958L9.77637 30.9114L12.1049 19.3541L26.2586 18.2343L39.1781 15.5937L52.3408 21.4739L65.1144 13.7499L78.3379 21.7083L91.227 17.9635L104.365 22.901L117.358 22.677L130.405 24.3437L143.318 21.4218L155.618 17.1093L167.972 14.5624L180.326 12.0989L192.783 13.2135L205.32 17.1249L217.838 20.3437L230.253 20.0728L242.4 10.3072L255.065 18.6874L267.504 19.1718L279.742 12.4791L292.084 9.53638L304.906 12.9062L318.191 14.7655L328.447 23.3958L341.367 25.4062L352.316 32.3385L368.294 26.7083L380.204 31.2239L396.346 37.177L387.476 50.3385L387.16 62.0937L374.362 69.8593L369.875 80.2812L373.796 93.3957L367.571 103.266L364.391 115.974L345.854 109.745L333.335 117.432L320.227 109.989L307.782 119.823L294.632 110.969L281.864 112.432L269.005 111.359L256.445 118.932L243.556 117.01L230.824 121.224L218.355 114.521L205.223 119.724L193.081 116.047L180.727 115.328L168.306 115.838L155.904 115.969L143.829 110.542L131.396 111.203L119.346 105.146L106.274 116.76L94.5648 104.833L81.5602 115.427L69.6377 107.245L57.5025 102.453L44.6438 110.724L27.2618 111.552L29.4687 98.1405L22.7931 90.2291L11.0106 83.578L15.7893 72.3853Z" fill="black"/>
<path d="M15.7893 72.3853L12.3967 62.3593L17.7895 51.8749L13.0351 41.3958L9.77637 30.9114L12.1049 19.3541L26.2586 18.2343L39.1781 15.5937L52.3408 21.4739L65.1144 13.7499L78.3379 21.7083L91.227 17.9635L104.365 22.901L117.358 22.677L130.405 24.3437L143.318 21.4218L155.618 17.1093L167.972 14.5624L180.326 12.0989L192.783 13.2135L205.32 17.1249L217.838 20.3437L230.253 20.0728L242.4 10.3072L255.065 18.6874L267.504 19.1718L279.742 12.4791L292.084 9.53638L304.906 12.9062L318.191 14.7655L328.447 23.3958L341.367 25.4062L352.316 32.3385L368.294 26.7083L380.204 31.2239L396.346 37.177L387.476 50.3385L387.16 62.0937L374.362 69.8593L369.875 80.2812L373.796 93.3957L367.571 103.266L364.391 115.974L345.854 109.745L333.335 117.432L320.227 109.989L307.782 119.823L294.632 110.969L281.864 112.432L269.005 111.359L256.445 118.932L243.556 117.01L230.824 121.224L218.355 114.521L205.223 119.724L193.081 116.047L180.727 115.328L168.306 115.838L155.904 115.969L143.829 110.542L131.396 111.203L119.346 105.146L106.274 116.76L94.5648 104.833L81.5602 115.427L69.6377 107.245L57.5025 102.453L44.6438 110.724L27.2618 111.552L29.4687 98.1405L22.7931 90.2291L11.0106 83.578L15.7893 72.3853Z" fill="black"/>
</g>
<mask id="mask2_62_2268" style="mask-type:luminance" maskUnits="userSpaceOnUse" x="7" y="8" width="391" height="112">
<path d="M7.78223 8H397.586V119.354H7.78223V8Z" fill="white"/>
</mask>
<g mask="url(#mask2_62_2268)">
<path d="M230.739 121.984L218.3 115.307L205.265 120.474L192.917 116.734L180.721 115.99L168.343 116.495L155.715 116.63L143.653 111.203L131.208 111.885L119.486 105.995L106.238 117.766L94.504 105.812L81.6088 116.328L69.2061 107.849L57.6059 103.26L44.9113 111.401L26.3133 112.286L28.6358 98.3489L22.1973 90.7239L10.0499 83.8489L14.9563 72.3645L11.5577 62.3124L16.9322 51.8541L12.263 41.5728L8.95557 30.9426L11.424 18.7291L26.1674 17.5572L39.2814 14.901L52.2739 20.703L65.1144 12.9166L78.4655 20.953L91.2635 17.2291L104.523 22.2135L117.406 21.9895L130.356 23.6562L143.051 20.776L155.423 16.4426L167.765 13.8958L180.259 11.4166L193.039 12.5728L205.569 16.4843L217.941 19.651L229.931 19.3958L242.346 9.40617L255.356 18.0103L267.261 18.4687L279.384 11.8489L292.078 8.81763L305.077 12.2083L318.562 14.0937L328.83 22.7291L341.683 24.7239L352.414 31.5103L368.282 25.9218L380.514 30.552L397.483 36.8489L388.272 50.526L387.962 62.453L375.03 70.2968L370.714 80.3228L374.678 93.4843L368.331 103.505L364.95 116.906L345.951 110.516L333.335 118.26L320.294 110.854L307.825 120.74L294.413 111.703L281.882 113.146L269.188 112.078L256.627 119.651L243.635 117.719L230.739 121.984ZM218.416 113.75L230.916 120.463L243.47 116.307L256.256 118.213L268.793 110.656L281.852 111.755L294.857 110.255L307.74 118.932L320.148 109.13L333.317 116.594L345.744 108.969L363.801 115.031L366.817 103.016L372.951 93.2968L369.048 80.2343L373.681 69.427L386.375 61.7135L386.685 50.1822L395.215 37.4947L379.894 31.8645L368.276 27.4583L352.201 33.1249L341.039 26.0468L328.064 24.0155L317.808 15.3958L304.651 13.5468L292.054 10.2291L280.058 13.1093L267.704 19.8958L254.761 19.3958L242.437 11.2499L230.533 20.7916L217.68 21.078L205.04 17.828L192.601 13.8853L180.375 12.7916L168.185 15.2291L155.867 17.7499L143.525 22.078L130.454 25.0364L117.303 23.3541L104.207 23.5885L91.227 18.6926L78.2163 22.4687L65.1144 14.578L52.4198 22.2708L39.093 16.3124L26.3315 18.9062L12.7858 19.9843L10.5849 30.8801L13.7951 41.1822L18.6528 51.8905L13.2479 62.3905L16.6465 72.4114L11.9954 83.3072L23.3707 89.7239L30.3138 97.9687L28.198 110.823L44.3763 110.057L57.4235 101.667L70.118 106.708L81.5115 114.521L94.6195 103.844L106.299 115.745L119.194 104.286L131.572 110.516L143.987 109.833L156.08 115.26L168.282 115.135L180.721 114.62L193.227 115.349L205.125 118.958L218.416 113.75Z" fill="black"/>
</g>
<mask id="mask3_62_2268" style="mask-type:luminance" maskUnits="userSpaceOnUse" x="3" y="1" width="388" height="113">
<path d="M3.11279 1.08325H390.661V113.333H3.11279V1.08325Z" fill="white"/>
</mask>
<g mask="url(#mask3_62_2268)">
<path d="M9.78237 63.3954L6.39594 53.3642L11.7826 42.8798L7.02824 32.4006L3.75732 21.9163L6.09804 10.3642L20.2457 9.23918L33.1712 6.60376L46.3339 12.4788L59.1075 4.7548L72.3249 12.7183L85.2201 8.96313L98.3585 13.9111L111.345 13.6819L124.398 15.359L137.312 12.4319L149.611 8.10897L161.965 5.5673L174.319 3.10897L186.777 4.22355L199.313 8.1298L211.825 11.3486L224.246 11.0777L236.387 1.31209L249.058 9.69751L261.497 10.1819L273.735 3.48918L286.077 0.54126L298.9 3.91626L312.184 5.77043L322.44 14.4058L335.36 16.4163L346.31 23.3433L362.281 17.7131L374.197 22.2288L390.339 28.1767L381.469 41.3486L381.153 53.1038L368.355 60.8642L363.868 71.2913L367.795 84.4006L361.564 94.2704L358.378 106.979L339.847 100.755L327.329 108.442L314.221 101L301.775 110.833L288.619 101.974L275.851 103.442L262.999 102.364L250.432 109.937L237.549 108.026L224.818 112.234L212.348 105.526L199.216 110.729L187.068 107.062L174.726 106.333L162.299 106.849L149.897 106.979L137.822 101.546L125.389 102.208L113.339 96.1558L100.268 107.765L88.5579 95.8433L75.5533 106.427L63.6248 98.2444L51.5017 93.4579L38.6369 101.734L21.2488 102.557L23.4618 89.1506L16.7863 81.234L5.00368 74.5829L9.78237 63.3954Z" fill="white"/>
</g>
<mask id="mask4_62_2268" style="mask-type:luminance" maskUnits="userSpaceOnUse" x="0" y="1" width="396" height="115">
<path d="M0.674805 1.08325H395.331V116H0.674805V1.08325Z" fill="white"/>
</mask>
<g mask="url(#mask4_62_2268)">
<path d="M224.52 115.01L212.147 108.365L199.386 113.422L186.491 109.521L174.708 108.844L162.348 109.349L149.21 109.49L137.202 104.062L124.69 104.74L113.862 99.3124L100.146 111.526L88.3391 99.5103L75.7236 109.745L62.0745 100.385L51.8544 96.3541L39.6523 104.182L17.8321 105.213L20.3734 89.7916L14.701 83.0624L1.44101 75.5989L6.68177 63.3281L3.30142 53.1874L8.62122 42.828L4.20123 33.0416L0.77832 22.0312L3.61149 8.05721L19.7715 6.76034L33.5543 3.95825L46.103 9.56242L59.1015 1.69784L72.7932 9.94263L85.354 6.29159L98.9422 11.401L111.54 11.1822L124.234 12.8124L136.381 10.0572L148.705 5.72909L161.284 3.14575L174.131 0.578045L187.433 1.77596L200.231 5.76555L212.22 8.84367L223.061 8.60409L236.205 -1.96362L250.116 7.23429L260.707 7.65096L272.526 1.18221L286.12 -2.05737L299.568 1.48429L313.564 3.43742L323.875 12.0885L336.57 14.0624L346.705 20.4999L362.312 14.9947L375.365 19.9478L394.492 26.9999L384.369 42.0416L384.041 54.4114L370.787 62.4531L366.92 71.4218L370.89 84.7239L364.318 95.1458L360.494 110.38L340.248 103.594L327.377 111.495L314.5 104.182L301.909 114.13L287.768 104.63L275.87 105.99L263.753 104.979L251.058 112.609L237.768 110.635L224.52 115.01ZM212.561 102.693L225.128 109.474L237.214 105.448L249.708 107.302L262.172 99.7916L275.772 100.932L289.427 99.3593L301.593 107.557L313.886 97.8333L327.231 105.411L339.403 97.9478L356.226 103.588L358.779 93.4114L364.683 84.1041L360.816 71.2135L365.929 59.3333L378.277 51.8697L378.569 40.6822L386.175 29.3958L373.036 24.5572L362.239 20.4843L345.908 26.1822L334.168 18.7603L321.036 16.7291L310.792 8.11971L298.237 6.35409L286.041 3.14575L274.933 5.79159L262.293 12.703L248.012 12.1562L236.576 4.58846L225.432 13.5468L211.436 13.8489L198.31 10.4583L186.108 6.65096L174.532 5.63534L162.634 8.00513L150.517 10.4947L138.242 14.802L124.55 17.901L111.156 16.1822L97.7628 16.4166L85.0682 11.6666L71.869 15.4843L59.1076 7.80721L46.565 15.3958L32.7822 9.24471L20.72 11.7083L8.59082 12.6718L6.74257 21.8072L9.80677 31.6249L14.9381 42.9426L9.50279 53.5728L12.8649 63.5208L8.5361 73.5885L18.8474 79.4062L26.5201 88.5051L24.6414 99.8958L37.5974 99.2864L51.1492 90.5676L65.1752 96.1093L75.3588 103.099L88.7951 92.2447L100.42 104.068L112.828 93.0364L126.137 99.7083L138.497 99.026L150.602 104.453L162.214 104.333L174.757 103.818L187.67 104.568L199.064 108.016L212.561 102.693Z" fill="black"/>
<path d="M224.52 115.01L212.147 108.365L199.386 113.422L186.491 109.521L174.708 108.844L162.348 109.349L149.21 109.49L137.202 104.062L124.69 104.74L113.862 99.3124L100.146 111.526L88.3391 99.5103L75.7236 109.745L62.0745 100.385L51.8544 96.3541L39.6523 104.182L17.8321 105.213L20.3734 89.7916L14.701 83.0624L1.44101 75.5989L6.68177 63.3281L3.30142 53.1874L8.62122 42.828L4.20123 33.0416L0.77832 22.0312L3.61149 8.05721L19.7715 6.76034L33.5543 3.95825L46.103 9.56242L59.1015 1.69784L72.7932 9.94263L85.354 6.29159L98.9422 11.401L111.54 11.1822L124.234 12.8124L136.381 10.0572L148.705 5.72909L161.284 3.14575L174.131 0.578045L187.433 1.77596L200.231 5.76555L212.22 8.84367L223.061 8.60409L236.205 -1.96362L250.116 7.23429L260.707 7.65096L272.526 1.18221L286.12 -2.05737L299.568 1.48429L313.564 3.43742L323.875 12.0885L336.57 14.0624L346.705 20.4999L362.312 14.9947L375.365 19.9478L394.492 26.9999L384.369 42.0416L384.041 54.4114L370.787 62.4531L366.92 71.4218L370.89 84.7239L364.318 95.1458L360.494 110.38L340.248 103.594L327.377 111.495L314.5 104.182L301.909 114.13L287.768 104.63L275.87 105.99L263.753 104.979L251.058 112.609L237.768 110.635L224.52 115.01ZM212.561 102.693L225.128 109.474L237.214 105.448L249.708 107.302L262.172 99.7916L275.772 100.932L289.427 99.3593L301.593 107.557L313.886 97.8333L327.231 105.411L339.403 97.9478L356.226 103.588L358.779 93.4114L364.683 84.1041L360.816 71.2135L365.929 59.3333L378.277 51.8697L378.569 40.6822L386.175 29.3958L373.036 24.5572L362.239 20.4843L345.908 26.1822L334.168 18.7603L321.036 16.7291L310.792 8.11971L298.237 6.35409L286.041 3.14575L274.933 5.79159L262.293 12.703L248.012 12.1562L236.576 4.58846L225.432 13.5468L211.436 13.8489L198.31 10.4583L186.108 6.65096L174.532 5.63534L162.634 8.00513L150.517 10.4947L138.242 14.802L124.55 17.901L111.156 16.1822L97.7628 16.4166L85.0682 11.6666L71.869 15.4843L59.1076 7.80721L46.565 15.3958L32.7822 9.24471L20.72 11.7083L8.59082 12.6718L6.74257 21.8072L9.80677 31.6249L14.9381 42.9426L9.50279 53.5728L12.8649 63.5208L8.5361 73.5885L18.8474 79.4062L26.5201 88.5051L24.6414 99.8958L37.5974 99.2864L51.1492 90.5676L65.1752 96.1093L75.3588 103.099L88.7951 92.2447L100.42 104.068L112.828 93.0364L126.137 99.7083L138.497 99.026L150.602 104.453L162.214 104.333L174.757 103.818L187.67 104.568L199.064 108.016L212.561 102.693Z" fill="black"/>
</g>
</g>
<path d="M24.3652 54.4836C23.9172 54.4836 23.5892 54.4196 23.3812 54.2916C23.1732 54.1636 23.0452 53.9876 22.9972 53.7636C22.9492 53.5236 22.9252 53.2756 22.9252 53.0196V39.1716C22.9252 38.9156 22.9492 38.6836 22.9972 38.4756C23.0612 38.2516 23.1972 38.0756 23.4052 37.9476C23.6132 37.8036 23.9412 37.7316 24.3892 37.7316H29.4772C30.1812 37.7316 30.8692 37.8516 31.5412 38.0916C32.2132 38.3316 32.8132 38.6916 33.3412 39.1716C33.8852 39.6516 34.3092 40.2436 34.6132 40.9476C34.9332 41.6516 35.0932 42.4756 35.0932 43.4196C35.0932 44.3476 34.9332 45.1636 34.6132 45.8676C34.3092 46.5556 33.8852 47.1396 33.3412 47.6196C32.7972 48.0996 32.1892 48.4596 31.5172 48.6996C30.8612 48.9396 30.1732 49.0596 29.4532 49.0596H25.8292V53.0436C25.8292 53.2996 25.7972 53.5396 25.7332 53.7636C25.6852 53.9876 25.5572 54.1636 25.3492 54.2916C25.1572 54.4196 24.8292 54.4836 24.3652 54.4836ZM25.8292 46.1316H29.4772C29.9732 46.1316 30.4212 46.0356 30.8212 45.8436C31.2372 45.6356 31.5732 45.3316 31.8292 44.9316C32.0852 44.5156 32.2132 43.9956 32.2132 43.3716C32.2132 42.8116 32.0932 42.3316 31.8532 41.9316C31.6292 41.5156 31.3092 41.1956 30.8932 40.9716C30.4932 40.7476 30.0132 40.6356 29.4532 40.6356H25.8292V46.1316ZM42.8604 54.6516C41.8204 54.6516 40.9084 54.4836 40.1244 54.1476C39.3564 53.8116 38.7084 53.3556 38.1804 52.7796C37.6684 52.1876 37.2764 51.5316 37.0044 50.8116C36.7484 50.0756 36.6204 49.3156 36.6204 48.5316C36.6204 47.3796 36.8844 46.3556 37.4124 45.4596C37.9404 44.5636 38.6684 43.8596 39.5964 43.3476C40.5404 42.8356 41.6204 42.5796 42.8364 42.5796C43.7004 42.5796 44.4604 42.7156 45.1164 42.9876C45.7724 43.2596 46.3164 43.6196 46.7484 44.0676C47.1964 44.4996 47.5324 44.9796 47.7564 45.5076C47.9964 46.0356 48.1164 46.5476 48.1164 47.0436C48.1164 47.8916 47.9084 48.5076 47.4924 48.8916C47.0924 49.2756 46.5884 49.4676 45.9804 49.4676H39.6444C39.6604 50.0116 39.8284 50.4836 40.1484 50.8836C40.4844 51.2836 40.9004 51.5956 41.3964 51.8196C41.9084 52.0276 42.4284 52.1316 42.9564 52.1316C43.3564 52.1316 43.7084 52.1076 44.0124 52.0596C44.3324 52.0116 44.6044 51.9556 44.8284 51.8916C45.0524 51.8116 45.2444 51.7316 45.4044 51.6516C45.5804 51.5716 45.7404 51.4996 45.8844 51.4356C46.0284 51.3716 46.1644 51.3316 46.2924 51.3156C46.4684 51.2996 46.6444 51.3396 46.8204 51.4356C46.9964 51.5316 47.1404 51.6996 47.2524 51.9396C47.3484 52.0996 47.4124 52.2516 47.4444 52.3956C47.4924 52.5236 47.5164 52.6516 47.5164 52.7796C47.5164 53.0996 47.3244 53.4036 46.9404 53.6916C46.5564 53.9636 46.0124 54.1876 45.3084 54.3636C44.6204 54.5556 43.8044 54.6516 42.8604 54.6516ZM39.6444 47.7636H44.5644C44.8364 47.7636 45.0444 47.7236 45.1884 47.6436C45.3324 47.5476 45.4044 47.3556 45.4044 47.0676C45.4044 46.6996 45.2924 46.3716 45.0684 46.0836C44.8444 45.7796 44.5404 45.5476 44.1564 45.3876C43.7724 45.2116 43.3244 45.1236 42.8124 45.1236C42.2204 45.1236 41.6844 45.2436 41.2044 45.4836C40.7244 45.7076 40.3404 46.0196 40.0524 46.4196C39.7804 46.8196 39.6444 47.2676 39.6444 47.7636ZM51.5019 54.4836C51.0699 54.4836 50.7499 54.4116 50.5419 54.2676C50.3499 54.1396 50.2299 53.9716 50.1819 53.7636C50.1339 53.5396 50.1099 53.2916 50.1099 53.0196V44.0436C50.1099 43.7876 50.1339 43.5556 50.1819 43.3476C50.2299 43.1396 50.3579 42.9796 50.5659 42.8676C50.7739 42.7396 51.0939 42.6756 51.5259 42.6756C51.9099 42.6756 52.1979 42.7236 52.3899 42.8196C52.5819 42.9156 52.7099 43.0356 52.7739 43.1796C52.8379 43.3236 52.8699 43.4676 52.8699 43.6116C52.8859 43.7556 52.9019 43.8676 52.9179 43.9476L52.8219 44.7156C52.9179 44.4596 53.0779 44.2116 53.3019 43.9716C53.5259 43.7316 53.7979 43.5156 54.1179 43.3236C54.4379 43.1156 54.7819 42.9556 55.1499 42.8436C55.5339 42.7156 55.9259 42.6516 56.3259 42.6516C57.0779 42.6516 57.7499 42.7876 58.3419 43.0596C58.9339 43.3316 59.4379 43.7156 59.8539 44.2116C60.2859 44.7076 60.6139 45.2996 60.8379 45.9876C61.0619 46.6596 61.1739 47.4196 61.1739 48.2676V53.0436C61.1739 53.3156 61.1419 53.5636 61.0779 53.7876C61.0299 53.9956 60.9099 54.1636 60.7179 54.2916C60.5259 54.4196 60.1979 54.4836 59.7339 54.4836C59.2859 54.4836 58.9579 54.4116 58.7499 54.2676C58.5419 54.1396 58.4139 53.9716 58.3659 53.7636C58.3179 53.5396 58.2939 53.2916 58.2939 53.0196V48.2436C58.2939 47.6676 58.1899 47.1716 57.9819 46.7556C57.7899 46.3396 57.5019 46.0196 57.1179 45.7956C56.7499 45.5716 56.2779 45.4596 55.7019 45.4596C55.1419 45.4596 54.6539 45.5796 54.2379 45.8196C53.8219 46.0436 53.5019 46.3636 53.2779 46.7796C53.0539 47.1956 52.9419 47.6836 52.9419 48.2436V53.0436C52.9419 53.3156 52.9179 53.5636 52.8699 53.7876C52.8219 53.9956 52.6939 54.1636 52.4859 54.2916C52.2939 54.4196 51.9659 54.4836 51.5019 54.4836ZM65.765 59.2356C65.253 59.0116 64.957 58.7556 64.877 58.4676C64.797 58.1956 64.869 57.8276 65.093 57.3636L71.285 43.4916C71.509 42.9796 71.749 42.6756 72.005 42.5796C72.261 42.4676 72.653 42.5236 73.181 42.7476C73.677 42.9716 73.965 43.2196 74.045 43.4916C74.141 43.7636 74.085 44.1316 73.877 44.5956L67.637 58.5396C67.429 59.0516 67.197 59.3476 66.941 59.4276C66.685 59.5236 66.293 59.4596 65.765 59.2356ZM67.997 53.3556L62.453 44.8356C62.165 44.4036 62.045 44.0436 62.093 43.7556C62.157 43.4676 62.413 43.1876 62.861 42.9156C63.357 42.6116 63.741 42.4916 64.013 42.5556C64.301 42.6196 64.589 42.8756 64.877 43.3236L69.269 50.1636L67.997 53.3556ZM81.5323 54.6516C80.4923 54.6516 79.5803 54.4836 78.7963 54.1476C78.0283 53.8116 77.3803 53.3556 76.8523 52.7796C76.3403 52.1876 75.9483 51.5316 75.6763 50.8116C75.4203 50.0756 75.2923 49.3156 75.2923 48.5316C75.2923 47.3796 75.5563 46.3556 76.0843 45.4596C76.6123 44.5636 77.3403 43.8596 78.2683 43.3476C79.2123 42.8356 80.2923 42.5796 81.5083 42.5796C82.3723 42.5796 83.1323 42.7156 83.7883 42.9876C84.4443 43.2596 84.9883 43.6196 85.4203 44.0676C85.8683 44.4996 86.2043 44.9796 86.4283 45.5076C86.6683 46.0356 86.7883 46.5476 86.7883 47.0436C86.7883 47.8916 86.5803 48.5076 86.1643 48.8916C85.7643 49.2756 85.2603 49.4676 84.6523 49.4676H78.3163C78.3323 50.0116 78.5003 50.4836 78.8203 50.8836C79.1563 51.2836 79.5723 51.5956 80.0683 51.8196C80.5803 52.0276 81.1003 52.1316 81.6283 52.1316C82.0283 52.1316 82.3803 52.1076 82.6843 52.0596C83.0043 52.0116 83.2763 51.9556 83.5003 51.8916C83.7243 51.8116 83.9163 51.7316 84.0763 51.6516C84.2523 51.5716 84.4123 51.4996 84.5563 51.4356C84.7003 51.3716 84.8363 51.3316 84.9643 51.3156C85.1403 51.2996 85.3163 51.3396 85.4923 51.4356C85.6683 51.5316 85.8123 51.6996 85.9243 51.9396C86.0203 52.0996 86.0843 52.2516 86.1163 52.3956C86.1643 52.5236 86.1883 52.6516 86.1883 52.7796C86.1883 53.0996 85.9963 53.4036 85.6123 53.6916C85.2283 53.9636 84.6843 54.1876 83.9803 54.3636C83.2923 54.5556 82.4763 54.6516 81.5323 54.6516ZM78.3163 47.7636H83.2363C83.5083 47.7636 83.7163 47.7236 83.8603 47.6436C84.0043 47.5476 84.0763 47.3556 84.0763 47.0676C84.0763 46.6996 83.9643 46.3716 83.7403 46.0836C83.5163 45.7796 83.2123 45.5476 82.8283 45.3876C82.4443 45.2116 81.9963 45.1236 81.4843 45.1236C80.8923 45.1236 80.3563 45.2436 79.8763 45.4836C79.3963 45.7076 79.0123 46.0196 78.7243 46.4196C78.4523 46.8196 78.3163 47.2676 78.3163 47.7636ZM94.9258 54.4836C94.1418 54.4836 93.4378 54.3316 92.8138 54.0276C92.2058 53.7076 91.6858 53.2756 91.2538 52.7316C90.8378 52.1876 90.5178 51.5636 90.2938 50.8596C90.0858 50.1396 89.9818 49.3716 89.9818 48.5556C89.9978 47.7396 90.1178 46.9796 90.3418 46.2756C90.5658 45.5556 90.8858 44.9316 91.3018 44.4036C91.7338 43.8596 92.2538 43.4356 92.8618 43.1316C93.4698 42.8276 94.1578 42.6756 94.9258 42.6756C95.6618 42.6756 96.3498 42.8276 96.9898 43.1316C97.6458 43.4356 98.2218 43.8596 98.7178 44.4036C99.2298 44.9316 99.6298 45.5556 99.9178 46.2756C100.206 46.9796 100.35 47.7316 100.35 48.5316C100.35 49.3636 100.206 50.1476 99.9178 50.8836C99.6298 51.6036 99.2378 52.2356 98.7418 52.7796C98.2458 53.3076 97.6698 53.7236 97.0138 54.0276C96.3578 54.3316 95.6618 54.4836 94.9258 54.4836ZM94.5418 51.6756C95.1018 51.6756 95.6058 51.5476 96.0538 51.2916C96.5018 51.0196 96.8538 50.6516 97.1098 50.1876C97.3818 49.7236 97.5178 49.1956 97.5178 48.6036C97.5178 47.9956 97.3818 47.4596 97.1098 46.9956C96.8538 46.5156 96.5018 46.1476 96.0538 45.8916C95.6058 45.6196 95.1018 45.4836 94.5418 45.4836C93.9978 45.4836 93.5018 45.6196 93.0538 45.8916C92.6058 46.1636 92.2458 46.5316 91.9738 46.9956C91.7178 47.4596 91.5898 47.9956 91.5898 48.6036C91.5898 49.1956 91.7178 49.7236 91.9738 50.1876C92.2458 50.6516 92.6058 51.0196 93.0538 51.2916C93.5018 51.5476 93.9978 51.6756 94.5418 51.6756ZM90.1018 54.5076C89.6698 54.5076 89.3498 54.4356 89.1418 54.2916C88.9338 54.1636 88.8058 53.9956 88.7578 53.7876C88.7098 53.5636 88.6858 53.3156 88.6858 53.0436V38.7396C88.6858 38.4676 88.7098 38.2276 88.7578 38.0196C88.8058 37.7956 88.9338 37.6196 89.1418 37.4916C89.3498 37.3636 89.6698 37.2996 90.1018 37.2996C90.5498 37.2996 90.8698 37.3636 91.0618 37.4916C91.2538 37.6196 91.3738 37.7956 91.4218 38.0196C91.4698 38.2436 91.4938 38.4836 91.4938 38.7396V53.5236C91.4298 53.8756 91.2938 54.1236 91.0858 54.2676C90.8938 54.4276 90.5658 54.5076 90.1018 54.5076ZM112.121 54.4596C111.657 54.4596 111.313 54.3716 111.089 54.1956C110.865 54.0196 110.753 53.7796 110.753 53.4756L110.921 52.6836C110.793 52.8916 110.577 53.1396 110.273 53.4276C109.969 53.6996 109.569 53.9476 109.073 54.1716C108.577 54.3796 107.977 54.4836 107.273 54.4836C106.521 54.4836 105.809 54.3316 105.137 54.0276C104.481 53.7076 103.897 53.2756 103.385 52.7316C102.889 52.1716 102.489 51.5396 102.185 50.8356C101.897 50.1156 101.753 49.3476 101.753 48.5316C101.753 47.7476 101.897 47.0116 102.185 46.3236C102.489 45.6196 102.897 44.9956 103.409 44.4516C103.921 43.9076 104.505 43.4836 105.161 43.1796C105.833 42.8596 106.537 42.6996 107.273 42.6996C107.929 42.6996 108.481 42.7876 108.929 42.9636C109.393 43.1396 109.785 43.3636 110.105 43.6356C110.425 43.8916 110.689 44.1636 110.897 44.4516L110.753 43.7556C110.753 43.4036 110.865 43.1396 111.089 42.9636C111.313 42.7716 111.665 42.6756 112.145 42.6756C112.593 42.6756 112.913 42.7476 113.105 42.8916C113.297 43.0196 113.417 43.2036 113.465 43.4436C113.513 43.6676 113.537 43.9236 113.537 44.2116V52.9956C113.537 53.2676 113.513 53.5156 113.465 53.7396C113.417 53.9636 113.289 54.1396 113.081 54.2676C112.889 54.3956 112.569 54.4596 112.121 54.4596ZM107.705 51.6756C108.249 51.6756 108.737 51.5396 109.169 51.2676C109.601 50.9956 109.945 50.6276 110.201 50.1636C110.473 49.6836 110.609 49.1556 110.609 48.5796C110.609 47.9556 110.473 47.4116 110.201 46.9476C109.929 46.4836 109.569 46.1236 109.121 45.8676C108.689 45.5956 108.201 45.4596 107.657 45.4596C107.065 45.4596 106.537 45.6036 106.073 45.8916C105.609 46.1636 105.241 46.5396 104.969 47.0196C104.713 47.4836 104.585 48.0116 104.585 48.6036C104.585 49.1796 104.721 49.6996 104.993 50.1636C105.265 50.6276 105.633 50.9956 106.097 51.2676C106.577 51.5396 107.113 51.6756 107.705 51.6756ZM122.113 54.4836C121.329 54.4836 120.625 54.3316 120.001 54.0276C119.393 53.7076 118.873 53.2756 118.441 52.7316C118.025 52.1876 117.705 51.5636 117.481 50.8596C117.273 50.1396 117.169 49.3716 117.169 48.5556C117.185 47.7396 117.305 46.9796 117.529 46.2756C117.753 45.5556 118.073 44.9316 118.489 44.4036C118.921 43.8596 119.441 43.4356 120.049 43.1316C120.657 42.8276 121.345 42.6756 122.113 42.6756C122.849 42.6756 123.537 42.8276 124.177 43.1316C124.833 43.4356 125.409 43.8596 125.905 44.4036C126.417 44.9316 126.817 45.5556 127.105 46.2756C127.393 46.9796 127.537 47.7316 127.537 48.5316C127.537 49.3636 127.393 50.1476 127.105 50.8836C126.817 51.6036 126.425 52.2356 125.929 52.7796C125.433 53.3076 124.857 53.7236 124.201 54.0276C123.545 54.3316 122.849 54.4836 122.113 54.4836ZM121.729 51.6756C122.289 51.6756 122.793 51.5476 123.241 51.2916C123.689 51.0196 124.041 50.6516 124.297 50.1876C124.569 49.7236 124.705 49.1956 124.705 48.6036C124.705 47.9956 124.569 47.4596 124.297 46.9956C124.041 46.5156 123.689 46.1476 123.241 45.8916C122.793 45.6196 122.289 45.4836 121.729 45.4836C121.185 45.4836 120.689 45.6196 120.241 45.8916C119.793 46.1636 119.433 46.5316 119.161 46.9956C118.905 47.4596 118.777 47.9956 118.777 48.6036C118.777 49.1956 118.905 49.7236 119.161 50.1876C119.433 50.6516 119.793 51.0196 120.241 51.2916C120.689 51.5476 121.185 51.6756 121.729 51.6756ZM117.289 54.5076C116.857 54.5076 116.537 54.4356 116.329 54.2916C116.121 54.1636 115.993 53.9956 115.945 53.7876C115.897 53.5636 115.873 53.3156 115.873 53.0436V38.7396C115.873 38.4676 115.897 38.2276 115.945 38.0196C115.993 37.7956 116.121 37.6196 116.329 37.4916C116.537 37.3636 116.857 37.2996 117.289 37.2996C117.737 37.2996 118.057 37.3636 118.249 37.4916C118.441 37.6196 118.561 37.7956 118.609 38.0196C118.657 38.2436 118.681 38.4836 118.681 38.7396V53.5236C118.617 53.8756 118.481 54.1236 118.273 54.2676C118.081 54.4276 117.753 54.5076 117.289 54.5076ZM131.119 46.5396C130.511 46.5396 130.087 46.4196 129.847 46.1796C129.607 45.9396 129.487 45.5316 129.487 44.9556C129.487 44.5396 129.535 44.2116 129.631 43.9716C129.743 43.7316 129.919 43.5636 130.159 43.4676C130.399 43.3556 130.719 43.2996 131.119 43.2996C131.727 43.2996 132.143 43.4196 132.367 43.6596C132.607 43.8996 132.727 44.3236 132.727 44.9316C132.727 45.3156 132.679 45.6276 132.583 45.8676C132.487 46.1076 132.319 46.2836 132.079 46.3956C131.839 46.4916 131.519 46.5396 131.119 46.5396ZM131.095 54.5076C130.503 54.5076 130.087 54.3956 129.847 54.1716C129.607 53.9316 129.487 53.5156 129.487 52.9236C129.487 52.5076 129.535 52.1876 129.631 51.9636C129.743 51.7236 129.919 51.5476 130.159 51.4356C130.399 51.3236 130.719 51.2676 131.119 51.2676C131.711 51.2676 132.127 51.3876 132.367 51.6276C132.607 51.8676 132.727 52.2916 132.727 52.8996C132.727 53.2996 132.671 53.6196 132.559 53.8596C132.463 54.0996 132.295 54.2676 132.055 54.3636C131.831 54.4596 131.511 54.5076 131.095 54.5076ZM147.259 54.3396C146.475 54.3396 145.771 54.1956 145.147 53.9076C144.539 53.6036 144.019 53.1876 143.587 52.6596C143.171 52.1156 142.851 51.4916 142.627 50.7876C142.419 50.0836 142.315 49.3236 142.315 48.5076C142.331 47.6916 142.451 46.9316 142.675 46.2276C142.899 45.5076 143.219 44.8836 143.635 44.3556C144.067 43.8276 144.587 43.4116 145.195 43.1076C145.803 42.8036 146.491 42.6516 147.259 42.6516C147.995 42.6516 148.683 42.8036 149.323 43.1076C149.979 43.4116 150.555 43.8356 151.051 44.3796C151.563 44.9236 151.963 45.5556 152.251 46.2756C152.539 46.9796 152.683 47.7396 152.683 48.5556C152.683 49.3876 152.539 50.1556 152.251 50.8596C151.963 51.5636 151.571 52.1796 151.075 52.7076C150.579 53.2196 150.003 53.6196 149.347 53.9076C148.691 54.1956 147.995 54.3396 147.259 54.3396ZM142.459 59.3316C142.027 59.3316 141.707 59.2676 141.499 59.1396C141.291 59.0116 141.163 58.8436 141.115 58.6356C141.067 58.4276 141.043 58.1876 141.043 57.9156V44.1156C141.043 43.8436 141.067 43.6036 141.115 43.3956C141.163 43.1876 141.283 43.0196 141.475 42.8916C141.683 42.7476 142.003 42.6756 142.435 42.6756C142.851 42.6756 143.179 42.7396 143.419 42.8676C143.659 42.9956 143.819 43.2116 143.899 43.5156V57.8916C143.915 58.1636 143.891 58.4036 143.827 58.6116C143.779 58.8356 143.651 59.0116 143.443 59.1396C143.235 59.2676 142.907 59.3316 142.459 59.3316ZM146.875 51.6516C147.435 51.6516 147.939 51.5236 148.387 51.2676C148.835 50.9956 149.187 50.6276 149.443 50.1636C149.715 49.6836 149.851 49.1476 149.851 48.5556C149.851 47.9476 149.715 47.4116 149.443 46.9476C149.187 46.4836 148.835 46.1236 148.387 45.8676C147.939 45.5956 147.435 45.4596 146.875 45.4596C146.331 45.4596 145.835 45.5956 145.387 45.8676C144.939 46.1396 144.579 46.5076 144.307 46.9716C144.051 47.4196 143.923 47.9476 143.923 48.5556C143.923 49.1476 144.051 49.6836 144.307 50.1636C144.579 50.6276 144.939 50.9956 145.387 51.2676C145.835 51.5236 146.331 51.6516 146.875 51.6516ZM160.231 54.6516C159.463 54.6516 158.711 54.5076 157.975 54.2196C157.255 53.9156 156.599 53.4916 156.007 52.9476C155.431 52.4036 154.967 51.7636 154.615 51.0276C154.279 50.2916 154.111 49.4836 154.111 48.6036C154.111 47.7556 154.271 46.9636 154.591 46.2276C154.911 45.4916 155.351 44.8436 155.911 44.2836C156.471 43.7236 157.111 43.2916 157.831 42.9876C158.567 42.6676 159.351 42.5076 160.183 42.5076C161.303 42.5076 162.319 42.7796 163.231 43.3236C164.143 43.8516 164.871 44.5716 165.415 45.4836C165.959 46.3956 166.231 47.4276 166.231 48.5796C166.231 49.4916 166.063 50.3236 165.727 51.0756C165.391 51.8116 164.935 52.4516 164.359 52.9956C163.783 53.5236 163.135 53.9316 162.415 54.2196C161.711 54.5076 160.983 54.6516 160.231 54.6516ZM160.183 51.8196C160.711 51.8196 161.215 51.6916 161.695 51.4356C162.191 51.1636 162.591 50.7796 162.895 50.2836C163.215 49.7876 163.375 49.2036 163.375 48.5316C163.375 47.9076 163.231 47.3556 162.943 46.8756C162.671 46.3956 162.295 46.0196 161.815 45.7476C161.335 45.4756 160.783 45.3396 160.159 45.3396C159.567 45.3396 159.031 45.4836 158.551 45.7716C158.071 46.0436 157.687 46.4276 157.399 46.9236C157.127 47.4036 156.991 47.9476 156.991 48.5556C156.991 49.2276 157.143 49.8116 157.447 50.3076C157.751 50.7876 158.143 51.1636 158.623 51.4356C159.119 51.6916 159.639 51.8196 160.183 51.8196ZM172.245 54.5076C171.653 54.5076 171.125 54.4676 170.661 54.3876C170.213 54.3076 169.821 54.1716 169.485 53.9796C169.165 53.7876 168.901 53.5316 168.693 53.2116C168.485 52.8756 168.325 52.4676 168.213 51.9876C168.117 51.5076 168.069 50.9316 168.069 50.2596V38.6916C168.069 38.4196 168.093 38.1796 168.141 37.9716C168.205 37.7476 168.333 37.5716 168.525 37.4436C168.733 37.2996 169.061 37.2276 169.509 37.2276C169.957 37.2276 170.277 37.2916 170.469 37.4196C170.677 37.5476 170.805 37.7236 170.853 37.9476C170.917 38.1556 170.949 38.3956 170.949 38.6676V50.1396C170.949 50.4436 170.965 50.6996 170.997 50.9076C171.045 51.0996 171.117 51.2596 171.213 51.3876C171.325 51.4996 171.461 51.5796 171.621 51.6276C171.797 51.6756 172.005 51.6996 172.245 51.6996C172.453 51.6996 172.637 51.7236 172.797 51.7716C172.973 51.8196 173.109 51.9396 173.205 52.1316C173.317 52.3236 173.373 52.6356 173.373 53.0676C173.373 53.5156 173.317 53.8436 173.205 54.0516C173.109 54.2596 172.973 54.3876 172.797 54.4356C172.621 54.4836 172.437 54.5076 172.245 54.5076ZM184.942 54.4596C184.478 54.4596 184.134 54.3716 183.91 54.1956C183.686 54.0196 183.574 53.7796 183.574 53.4756L183.742 52.6836C183.614 52.8916 183.398 53.1396 183.094 53.4276C182.79 53.6996 182.39 53.9476 181.894 54.1716C181.398 54.3796 180.798 54.4836 180.094 54.4836C179.342 54.4836 178.63 54.3316 177.958 54.0276C177.302 53.7076 176.718 53.2756 176.206 52.7316C175.71 52.1716 175.31 51.5396 175.006 50.8356C174.718 50.1156 174.574 49.3476 174.574 48.5316C174.574 47.7476 174.718 47.0116 175.006 46.3236C175.31 45.6196 175.718 44.9956 176.23 44.4516C176.742 43.9076 177.326 43.4836 177.982 43.1796C178.654 42.8596 179.358 42.6996 180.094 42.6996C180.75 42.6996 181.302 42.7876 181.75 42.9636C182.214 43.1396 182.606 43.3636 182.926 43.6356C183.246 43.8916 183.51 44.1636 183.718 44.4516L183.574 43.7556C183.574 43.4036 183.686 43.1396 183.91 42.9636C184.134 42.7716 184.486 42.6756 184.966 42.6756C185.414 42.6756 185.734 42.7476 185.926 42.8916C186.118 43.0196 186.238 43.2036 186.286 43.4436C186.334 43.6676 186.358 43.9236 186.358 44.2116V52.9956C186.358 53.2676 186.334 53.5156 186.286 53.7396C186.238 53.9636 186.11 54.1396 185.902 54.2676C185.71 54.3956 185.39 54.4596 184.942 54.4596ZM180.526 51.6756C181.07 51.6756 181.558 51.5396 181.99 51.2676C182.422 50.9956 182.766 50.6276 183.022 50.1636C183.294 49.6836 183.43 49.1556 183.43 48.5796C183.43 47.9556 183.294 47.4116 183.022 46.9476C182.75 46.4836 182.39 46.1236 181.942 45.8676C181.51 45.5956 181.022 45.4596 180.478 45.4596C179.886 45.4596 179.358 45.6036 178.894 45.8916C178.43 46.1636 178.062 46.5396 177.79 47.0196C177.534 47.4836 177.406 48.0116 177.406 48.6036C177.406 49.1796 177.542 49.6996 177.814 50.1636C178.086 50.6276 178.454 50.9956 178.918 51.2676C179.398 51.5396 179.934 51.6756 180.526 51.6756ZM204.324 54.4596C203.86 54.4596 203.516 54.3716 203.292 54.1956C203.068 54.0196 202.956 53.7796 202.956 53.4756L203.124 52.6836C202.996 52.8916 202.78 53.1396 202.476 53.4276C202.172 53.6996 201.772 53.9476 201.276 54.1716C200.78 54.3796 200.18 54.4836 199.476 54.4836C198.724 54.4836 198.012 54.3316 197.34 54.0276C196.684 53.7076 196.1 53.2756 195.588 52.7316C195.092 52.1716 194.692 51.5396 194.388 50.8356C194.1 50.1156 193.956 49.3476 193.956 48.5316C193.956 47.7476 194.1 47.0116 194.388 46.3236C194.692 45.6196 195.1 44.9956 195.612 44.4516C196.124 43.9076 196.708 43.4836 197.364 43.1796C198.036 42.8596 198.74 42.6996 199.476 42.6996C200.132 42.6996 200.684 42.7876 201.132 42.9636C201.596 43.1396 201.988 43.3636 202.308 43.6356C202.628 43.8916 202.892 44.1636 203.1 44.4516L202.956 43.7556C202.956 43.4036 203.068 43.1396 203.292 42.9636C203.516 42.7716 203.868 42.6756 204.348 42.6756C204.796 42.6756 205.116 42.7476 205.308 42.8916C205.5 43.0196 205.62 43.2036 205.668 43.4436C205.716 43.6676 205.74 43.9236 205.74 44.2116V52.9956C205.74 53.2676 205.716 53.5156 205.668 53.7396C205.62 53.9636 205.492 54.1396 205.284 54.2676C205.092 54.3956 204.772 54.4596 204.324 54.4596ZM199.908 51.6756C200.452 51.6756 200.94 51.5396 201.372 51.2676C201.804 50.9956 202.148 50.6276 202.404 50.1636C202.676 49.6836 202.812 49.1556 202.812 48.5796C202.812 47.9556 202.676 47.4116 202.404 46.9476C202.132 46.4836 201.772 46.1236 201.324 45.8676C200.892 45.5956 200.404 45.4596 199.86 45.4596C199.268 45.4596 198.74 45.6036 198.276 45.8916C197.812 46.1636 197.444 46.5396 197.172 47.0196C196.916 47.4836 196.788 48.0116 196.788 48.6036C196.788 49.1796 196.924 49.6996 197.196 50.1636C197.468 50.6276 197.836 50.9956 198.3 51.2676C198.78 51.5396 199.316 51.6756 199.908 51.6756ZM212.252 54.6516C211.836 54.6516 211.396 54.6036 210.932 54.5076C210.468 54.4276 210.02 54.3076 209.588 54.1476C209.156 53.9716 208.78 53.7716 208.46 53.5476C208.156 53.3076 207.964 53.0436 207.884 52.7556C207.82 52.5956 207.796 52.4436 207.812 52.2996C207.828 52.1396 207.876 51.9796 207.956 51.8196C208.036 51.6436 208.156 51.4676 208.316 51.2916C208.46 51.1156 208.604 51.0196 208.748 51.0036C208.908 50.9716 209.108 51.0196 209.348 51.1476C209.556 51.2276 209.78 51.3316 210.02 51.4596C210.276 51.5876 210.532 51.7156 210.788 51.8436C211.06 51.9716 211.332 52.0756 211.604 52.1556C211.892 52.2356 212.172 52.2756 212.444 52.2756C213.036 52.2756 213.508 52.1796 213.86 51.9876C214.212 51.7796 214.388 51.4916 214.388 51.1236C214.388 50.9156 214.332 50.7316 214.22 50.5716C214.108 50.4116 213.956 50.2836 213.764 50.1876C213.588 50.0756 213.372 49.9796 213.116 49.8996C212.876 49.8036 212.612 49.7236 212.324 49.6596C212.052 49.5796 211.764 49.4916 211.46 49.3956C211.06 49.2836 210.66 49.1476 210.26 48.9876C209.86 48.8276 209.5 48.6196 209.18 48.3636C208.876 48.1076 208.628 47.7876 208.436 47.4036C208.244 47.0196 208.148 46.5396 208.148 45.9636C208.148 45.2436 208.316 44.6356 208.652 44.1396C209.004 43.6276 209.508 43.2356 210.164 42.9636C210.82 42.6916 211.612 42.5556 212.54 42.5556C212.86 42.5556 213.164 42.5796 213.452 42.6276C213.756 42.6756 214.044 42.7476 214.316 42.8436C214.604 42.9236 214.876 43.0276 215.132 43.1556C215.404 43.2836 215.66 43.4276 215.9 43.5876C216.3 43.8116 216.508 44.0756 216.524 44.3796C216.54 44.6676 216.428 44.9796 216.188 45.3156C216.012 45.5396 215.836 45.6996 215.66 45.7956C215.484 45.8756 215.3 45.8756 215.108 45.7956C214.852 45.6676 214.572 45.5316 214.268 45.3876C213.98 45.2276 213.676 45.0916 213.356 44.9796C213.052 44.8676 212.732 44.8116 212.396 44.8116C212.076 44.8116 211.788 44.8596 211.532 44.9556C211.276 45.0516 211.084 45.1876 210.956 45.3636C210.828 45.5396 210.764 45.7476 210.764 45.9876C210.764 46.2116 210.828 46.3956 210.956 46.5396C211.084 46.6836 211.252 46.8036 211.46 46.8996C211.668 46.9956 211.916 47.0836 212.204 47.1636C212.492 47.2276 212.796 47.2916 213.116 47.3556C213.564 47.4516 214.02 47.5716 214.484 47.7156C214.948 47.8596 215.372 48.0596 215.756 48.3156C216.156 48.5716 216.476 48.9156 216.716 49.3476C216.956 49.7636 217.076 50.3076 217.076 50.9796C217.076 52.1476 216.644 53.0516 215.78 53.6916C214.932 54.3316 213.756 54.6516 212.252 54.6516ZM224.06 54.4836C223.324 54.4836 222.644 54.3556 222.02 54.0996C221.412 53.8276 220.876 53.4436 220.412 52.9476C219.948 52.4516 219.588 51.8596 219.332 51.1716C219.076 50.4836 218.948 49.7236 218.948 48.8916V44.1156C218.948 43.8436 218.972 43.6036 219.02 43.3956C219.068 43.1716 219.196 42.9956 219.404 42.8676C219.612 42.7396 219.932 42.6756 220.364 42.6756C220.828 42.6756 221.156 42.7396 221.348 42.8676C221.556 42.9956 221.684 43.1716 221.732 43.3956C221.78 43.6196 221.804 43.8676 221.804 44.1396V48.8916C221.804 49.4676 221.9 49.9636 222.092 50.3796C222.3 50.7956 222.596 51.1236 222.98 51.3636C223.364 51.5876 223.836 51.6996 224.396 51.6996C224.972 51.6996 225.46 51.5876 225.86 51.3636C226.276 51.1236 226.596 50.7956 226.82 50.3796C227.044 49.9476 227.156 49.4516 227.156 48.8916V44.0916C227.156 43.8196 227.18 43.5796 227.228 43.3716C227.276 43.1476 227.404 42.9796 227.612 42.8676C227.82 42.7396 228.148 42.6756 228.596 42.6756C229.044 42.6756 229.364 42.7396 229.556 42.8676C229.748 42.9956 229.868 43.1716 229.916 43.3956C229.98 43.6196 230.012 43.8596 230.012 44.1156V53.1156C230.012 53.3556 229.98 53.5796 229.916 53.7876C229.868 53.9956 229.74 54.1636 229.532 54.2916C229.34 54.4196 229.02 54.4836 228.572 54.4836C228.252 54.4836 227.996 54.4436 227.804 54.3636C227.628 54.2996 227.492 54.2116 227.396 54.0996C227.316 53.9716 227.26 53.8436 227.228 53.7156C227.212 53.5876 227.204 53.4596 227.204 53.3316L227.396 52.6836C227.3 52.8276 227.156 53.0036 226.964 53.2116C226.772 53.4036 226.532 53.6036 226.244 53.8116C225.972 54.0036 225.652 54.1636 225.284 54.2916C224.916 54.4196 224.508 54.4836 224.06 54.4836ZM233.679 54.5076C233.231 54.5076 232.903 54.4356 232.695 54.2916C232.503 54.1636 232.383 53.9876 232.335 53.7636C232.287 53.5396 232.263 53.2996 232.263 53.0436V38.7156C232.263 38.4436 232.287 38.2036 232.335 37.9956C232.399 37.7716 232.527 37.5956 232.719 37.4676C232.927 37.3396 233.255 37.2756 233.703 37.2756C234.151 37.2756 234.471 37.3476 234.663 37.4916C234.871 37.6196 234.999 37.7956 235.047 38.0196C235.111 38.2276 235.143 38.4676 235.143 38.7396V44.1636C235.463 43.7956 235.871 43.4596 236.367 43.1556C236.879 42.8356 237.495 42.6756 238.215 42.6756C239.191 42.6756 240.063 42.9156 240.831 43.3956C241.599 43.8596 242.207 44.5076 242.655 45.3396C243.103 46.1716 243.327 47.1476 243.327 48.2676V53.0676C243.327 53.3236 243.303 53.5636 243.255 53.7876C243.207 53.9956 243.079 54.1636 242.871 54.2916C242.679 54.4196 242.359 54.4836 241.911 54.4836C241.463 54.4836 241.135 54.4196 240.927 54.2916C240.719 54.1636 240.591 53.9956 240.543 53.7876C240.495 53.5636 240.471 53.3076 240.471 53.0196V48.2436C240.471 47.6836 240.375 47.1956 240.183 46.7796C239.991 46.3636 239.703 46.0436 239.319 45.8196C238.951 45.5796 238.487 45.4596 237.927 45.4596C237.175 45.4596 236.543 45.6836 236.031 46.1316C235.519 46.5636 235.223 47.1236 235.143 47.8116V53.0676C235.143 53.3236 235.111 53.5636 235.047 53.7876C234.999 54.0116 234.871 54.1876 234.663 54.3156C234.471 54.4436 234.143 54.5076 233.679 54.5076ZM256.817 54.6516C256.049 54.6516 255.297 54.5076 254.561 54.2196C253.841 53.9156 253.185 53.4916 252.593 52.9476C252.017 52.4036 251.553 51.7636 251.201 51.0276C250.865 50.2916 250.697 49.4836 250.697 48.6036C250.697 47.7556 250.857 46.9636 251.177 46.2276C251.497 45.4916 251.937 44.8436 252.497 44.2836C253.057 43.7236 253.697 43.2916 254.417 42.9876C255.153 42.6676 255.937 42.5076 256.769 42.5076C257.889 42.5076 258.905 42.7796 259.817 43.3236C260.729 43.8516 261.457 44.5716 262.001 45.4836C262.545 46.3956 262.817 47.4276 262.817 48.5796C262.817 49.4916 262.649 50.3236 262.313 51.0756C261.977 51.8116 261.521 52.4516 260.945 52.9956C260.369 53.5236 259.721 53.9316 259.001 54.2196C258.297 54.5076 257.569 54.6516 256.817 54.6516ZM256.769 51.8196C257.297 51.8196 257.801 51.6916 258.281 51.4356C258.777 51.1636 259.177 50.7796 259.481 50.2836C259.801 49.7876 259.961 49.2036 259.961 48.5316C259.961 47.9076 259.817 47.3556 259.529 46.8756C259.257 46.3956 258.881 46.0196 258.401 45.7476C257.921 45.4756 257.369 45.3396 256.745 45.3396C256.153 45.3396 255.617 45.4836 255.137 45.7716C254.657 46.0436 254.273 46.4276 253.985 46.9236C253.713 47.4036 253.577 47.9476 253.577 48.5556C253.577 49.2276 253.729 49.8116 254.033 50.3076C254.337 50.7876 254.729 51.1636 255.209 51.4356C255.705 51.6916 256.225 51.8196 256.769 51.8196ZM266.119 54.5076C265.687 54.5076 265.367 54.4356 265.159 54.2916C264.967 54.1636 264.847 53.9876 264.799 53.7636C264.751 53.5396 264.727 53.2916 264.727 53.0196V44.1156C264.727 43.8276 264.751 43.5796 264.799 43.3716C264.847 43.1476 264.967 42.9796 265.159 42.8676C265.367 42.7396 265.695 42.6756 266.143 42.6756C266.575 42.6756 266.887 42.7316 267.079 42.8436C267.287 42.9556 267.415 43.0996 267.463 43.2756C267.527 43.4356 267.559 43.5956 267.559 43.7556L267.367 44.1876C267.447 44.0596 267.559 43.9076 267.703 43.7316C267.847 43.5396 268.039 43.3556 268.279 43.1796C268.519 42.9876 268.807 42.8356 269.143 42.7236C269.479 42.5956 269.879 42.5316 270.343 42.5316C270.535 42.5316 270.735 42.5556 270.943 42.6036C271.167 42.6356 271.383 42.6916 271.591 42.7716C271.815 42.8356 272.015 42.9236 272.191 43.0356C272.367 43.1476 272.503 43.2836 272.599 43.4436C272.695 43.5876 272.743 43.7556 272.743 43.9476C272.743 44.4596 272.615 44.8916 272.359 45.2436C272.103 45.5956 271.799 45.7716 271.447 45.7716C271.207 45.7716 271.031 45.7476 270.919 45.6996C270.807 45.6516 270.711 45.5956 270.631 45.5316C270.567 45.4676 270.463 45.4116 270.319 45.3636C270.191 45.3156 269.983 45.2916 269.695 45.2916C269.455 45.2916 269.207 45.3316 268.951 45.4116C268.711 45.4916 268.487 45.6116 268.279 45.7716C268.071 45.9316 267.903 46.1396 267.775 46.3956C267.647 46.6356 267.583 46.9156 267.583 47.2356V53.0676C267.583 53.3396 267.559 53.5876 267.511 53.8116C267.463 54.0196 267.335 54.1876 267.127 54.3156C266.919 54.4436 266.583 54.5076 266.119 54.5076ZM283.543 54.4596C283.079 54.4596 282.735 54.3716 282.511 54.1956C282.287 54.0196 282.175 53.7796 282.175 53.4756L282.343 52.6836C282.215 52.8916 281.999 53.1396 281.695 53.4276C281.391 53.6996 280.991 53.9476 280.495 54.1716C279.999 54.3796 279.399 54.4836 278.695 54.4836C277.943 54.4836 277.231 54.3316 276.559 54.0276C275.903 53.7076 275.319 53.2756 274.807 52.7316C274.311 52.1716 273.911 51.5396 273.607 50.8356C273.319 50.1156 273.175 49.3476 273.175 48.5316C273.175 47.7476 273.319 47.0116 273.607 46.3236C273.911 45.6196 274.319 44.9956 274.831 44.4516C275.343 43.9076 275.927 43.4836 276.583 43.1796C277.255 42.8596 277.959 42.6996 278.695 42.6996C279.351 42.6996 279.903 42.7876 280.351 42.9636C280.815 43.1396 281.207 43.3636 281.527 43.6356C281.847 43.8916 282.111 44.1636 282.319 44.4516L282.175 43.7556C282.175 43.4036 282.287 43.1396 282.511 42.9636C282.735 42.7716 283.087 42.6756 283.567 42.6756C284.015 42.6756 284.335 42.7476 284.527 42.8916C284.719 43.0196 284.839 43.2036 284.887 43.4436C284.935 43.6676 284.959 43.9236 284.959 44.2116V52.9956C284.959 53.2676 284.935 53.5156 284.887 53.7396C284.839 53.9636 284.711 54.1396 284.503 54.2676C284.311 54.3956 283.991 54.4596 283.543 54.4596ZM279.127 51.6756C279.671 51.6756 280.159 51.5396 280.591 51.2676C281.023 50.9956 281.367 50.6276 281.623 50.1636C281.895 49.6836 282.031 49.1556 282.031 48.5796C282.031 47.9556 281.895 47.4116 281.623 46.9476C281.351 46.4836 280.991 46.1236 280.543 45.8676C280.111 45.5956 279.623 45.4596 279.079 45.4596C278.487 45.4596 277.959 45.6036 277.495 45.8916C277.031 46.1636 276.663 46.5396 276.391 47.0196C276.135 47.4836 276.007 48.0116 276.007 48.6036C276.007 49.1796 276.143 49.6996 276.415 50.1636C276.687 50.6276 277.055 50.9956 277.519 51.2676C277.999 51.5396 278.535 51.6756 279.127 51.6756ZM288.783 54.4836C288.351 54.4836 288.031 54.4116 287.823 54.2676C287.631 54.1396 287.511 53.9716 287.463 53.7636C287.415 53.5396 287.391 53.2916 287.391 53.0196V44.0436C287.391 43.7876 287.415 43.5556 287.463 43.3476C287.511 43.1396 287.639 42.9796 287.847 42.8676C288.055 42.7396 288.375 42.6756 288.807 42.6756C289.191 42.6756 289.479 42.7236 289.671 42.8196C289.863 42.9156 289.991 43.0356 290.055 43.1796C290.119 43.3236 290.151 43.4676 290.151 43.6116C290.167 43.7556 290.183 43.8676 290.199 43.9476L290.103 44.7156C290.199 44.4596 290.359 44.2116 290.583 43.9716C290.807 43.7316 291.079 43.5156 291.399 43.3236C291.719 43.1156 292.063 42.9556 292.431 42.8436C292.815 42.7156 293.207 42.6516 293.607 42.6516C294.359 42.6516 295.031 42.7876 295.623 43.0596C296.215 43.3316 296.719 43.7156 297.135 44.2116C297.567 44.7076 297.895 45.2996 298.119 45.9876C298.343 46.6596 298.455 47.4196 298.455 48.2676V53.0436C298.455 53.3156 298.423 53.5636 298.359 53.7876C298.311 53.9956 298.191 54.1636 297.999 54.2916C297.807 54.4196 297.479 54.4836 297.015 54.4836C296.567 54.4836 296.239 54.4116 296.031 54.2676C295.823 54.1396 295.695 53.9716 295.647 53.7636C295.599 53.5396 295.575 53.2916 295.575 53.0196V48.2436C295.575 47.6676 295.471 47.1716 295.263 46.7556C295.071 46.3396 294.783 46.0196 294.399 45.7956C294.031 45.5716 293.559 45.4596 292.983 45.4596C292.423 45.4596 291.935 45.5796 291.519 45.8196C291.103 46.0436 290.783 46.3636 290.559 46.7796C290.335 47.1956 290.223 47.6836 290.223 48.2436V53.0436C290.223 53.3156 290.199 53.5636 290.151 53.7876C290.103 53.9956 289.975 54.1636 289.767 54.2916C289.575 54.4196 289.247 54.4836 288.783 54.4836ZM305.957 59.3076C305.381 59.3076 304.829 59.2356 304.301 59.0916C303.773 58.9636 303.293 58.7876 302.861 58.5636C302.445 58.3396 302.109 58.0996 301.853 57.8436C301.613 57.5876 301.493 57.3476 301.493 57.1236C301.493 56.8996 301.525 56.7076 301.589 56.5476C301.669 56.3876 301.781 56.2276 301.925 56.0676C302.117 55.8756 302.269 55.7316 302.381 55.6356C302.509 55.5396 302.677 55.4916 302.885 55.4916C303.061 55.4916 303.229 55.5556 303.389 55.6836C303.565 55.8116 303.765 55.9556 303.989 56.1156C304.213 56.2756 304.485 56.4196 304.805 56.5476C305.125 56.6756 305.533 56.7396 306.029 56.7396C306.445 56.7396 306.829 56.6676 307.181 56.5236C307.533 56.3796 307.829 56.1636 308.069 55.8756C308.325 55.6036 308.525 55.2756 308.669 54.8916C308.813 54.5076 308.885 54.0756 308.885 53.5956L308.861 43.6596C308.893 43.2916 309.021 43.0356 309.245 42.8916C309.469 42.7316 309.813 42.6516 310.277 42.6516C310.709 42.6516 311.021 42.7156 311.213 42.8436C311.405 42.9556 311.525 43.1236 311.573 43.3476C311.621 43.5556 311.645 43.7876 311.645 44.0436V53.7636C311.645 54.6436 311.493 55.4276 311.189 56.1156C310.885 56.8036 310.469 57.3796 309.941 57.8436C309.413 58.3236 308.805 58.6836 308.117 58.9236C307.445 59.1796 306.725 59.3076 305.957 59.3076ZM305.693 54.1956C304.941 54.1956 304.237 54.0516 303.581 53.7636C302.941 53.4756 302.373 53.0676 301.877 52.5396C301.397 52.0116 301.013 51.4036 300.725 50.7156C300.453 50.0116 300.317 49.2516 300.317 48.4356C300.317 47.6356 300.453 46.8916 300.725 46.2036C301.013 45.5156 301.397 44.9076 301.877 44.3796C302.373 43.8516 302.941 43.4436 303.581 43.1556C304.237 42.8516 304.933 42.6996 305.669 42.6996C306.389 42.6996 307.013 42.8436 307.541 43.1316C308.085 43.4036 308.533 43.7956 308.885 44.3076C309.237 44.8196 309.501 45.4276 309.677 46.1316C309.869 46.8356 309.965 47.6116 309.965 48.4596C309.965 49.6276 309.805 50.6436 309.485 51.5076C309.165 52.3716 308.693 53.0356 308.069 53.4996C307.445 53.9636 306.653 54.1956 305.693 54.1956ZM305.957 51.4836C306.501 51.4836 306.981 51.3556 307.397 51.0996C307.829 50.8276 308.165 50.4596 308.405 49.9956C308.661 49.5316 308.789 49.0116 308.789 48.4356C308.789 47.8436 308.661 47.3236 308.405 46.8756C308.165 46.4116 307.829 46.0516 307.397 45.7956C306.965 45.5396 306.477 45.4116 305.933 45.4116C305.389 45.4116 304.901 45.5476 304.469 45.8196C304.053 46.0756 303.725 46.4276 303.485 46.8756C303.245 47.3236 303.125 47.8436 303.125 48.4356C303.125 49.0276 303.245 49.5556 303.485 50.0196C303.741 50.4676 304.077 50.8276 304.493 51.0996C304.925 51.3556 305.413 51.4836 305.957 51.4836ZM325.684 54.5076C324.9 54.5076 324.228 54.4276 323.668 54.2676C323.108 54.1076 322.652 53.8596 322.3 53.5236C321.948 53.1876 321.684 52.7556 321.508 52.2276C321.348 51.6836 321.268 51.0436 321.268 50.3076V40.1316C321.268 39.8436 321.292 39.5956 321.34 39.3876C321.404 39.1796 321.532 39.0196 321.724 38.9076C321.932 38.7796 322.252 38.7156 322.684 38.7156C323.132 38.7156 323.452 38.7796 323.644 38.9076C323.852 39.0356 323.98 39.2116 324.028 39.4356C324.092 39.6436 324.124 39.8756 324.124 40.1316V50.2116C324.124 50.5476 324.148 50.8196 324.196 51.0276C324.26 51.2356 324.348 51.3956 324.46 51.5076C324.588 51.6036 324.748 51.6756 324.94 51.7236C325.148 51.7556 325.396 51.7716 325.684 51.7716C325.988 51.7716 326.244 51.7956 326.452 51.8436C326.676 51.8916 326.844 52.0116 326.956 52.2036C327.068 52.3796 327.124 52.6756 327.124 53.0916C327.124 53.5396 327.052 53.8676 326.908 54.0756C326.78 54.2676 326.604 54.3876 326.38 54.4356C326.172 54.4836 325.94 54.5076 325.684 54.5076ZM320.284 42.9156L322.756 42.9396L326.068 42.8436C326.34 42.8436 326.58 42.8756 326.788 42.9396C327.012 42.9876 327.188 43.1156 327.316 43.3236C327.444 43.5156 327.508 43.8356 327.508 44.2836C327.508 44.6996 327.444 45.0116 327.316 45.2196C327.188 45.4276 327.02 45.5636 326.812 45.6276C326.604 45.6756 326.364 45.6996 326.092 45.6996L322.876 45.6516L320.212 45.6756C319.812 45.6596 319.532 45.5476 319.372 45.3396C319.228 45.1156 319.156 44.7556 319.156 44.2596C319.156 43.7956 319.244 43.4596 319.42 43.2516C319.612 43.0276 319.9 42.9156 320.284 42.9156ZM334.193 54.4836C333.457 54.4836 332.777 54.3556 332.153 54.0996C331.545 53.8276 331.009 53.4436 330.545 52.9476C330.081 52.4516 329.721 51.8596 329.465 51.1716C329.209 50.4836 329.081 49.7236 329.081 48.8916V44.1156C329.081 43.8436 329.105 43.6036 329.153 43.3956C329.201 43.1716 329.329 42.9956 329.537 42.8676C329.745 42.7396 330.065 42.6756 330.497 42.6756C330.961 42.6756 331.289 42.7396 331.481 42.8676C331.689 42.9956 331.817 43.1716 331.865 43.3956C331.913 43.6196 331.937 43.8676 331.937 44.1396V48.8916C331.937 49.4676 332.033 49.9636 332.225 50.3796C332.433 50.7956 332.729 51.1236 333.113 51.3636C333.497 51.5876 333.969 51.6996 334.529 51.6996C335.105 51.6996 335.593 51.5876 335.993 51.3636C336.409 51.1236 336.729 50.7956 336.953 50.3796C337.177 49.9476 337.289 49.4516 337.289 48.8916V44.0916C337.289 43.8196 337.313 43.5796 337.361 43.3716C337.409 43.1476 337.537 42.9796 337.745 42.8676C337.953 42.7396 338.281 42.6756 338.729 42.6756C339.177 42.6756 339.497 42.7396 339.689 42.8676C339.881 42.9956 340.001 43.1716 340.049 43.3956C340.113 43.6196 340.145 43.8596 340.145 44.1156V53.1156C340.145 53.3556 340.113 53.5796 340.049 53.7876C340.001 53.9956 339.873 54.1636 339.665 54.2916C339.473 54.4196 339.153 54.4836 338.705 54.4836C338.385 54.4836 338.129 54.4436 337.937 54.3636C337.761 54.2996 337.625 54.2116 337.529 54.0996C337.449 53.9716 337.393 53.8436 337.361 53.7156C337.345 53.5876 337.337 53.4596 337.337 53.3316L337.529 52.6836C337.433 52.8276 337.289 53.0036 337.097 53.2116C336.905 53.4036 336.665 53.6036 336.377 53.8116C336.105 54.0036 335.785 54.1636 335.417 54.2916C335.049 54.4196 334.641 54.4836 334.193 54.4836ZM352.356 54.4596C351.892 54.4596 351.548 54.3716 351.324 54.1956C351.1 54.0196 350.988 53.7796 350.988 53.4756L351.156 52.6836C351.028 52.8916 350.812 53.1396 350.508 53.4276C350.204 53.6996 349.804 53.9476 349.308 54.1716C348.812 54.3796 348.212 54.4836 347.508 54.4836C346.756 54.4836 346.044 54.3316 345.372 54.0276C344.716 53.7076 344.132 53.2756 343.62 52.7316C343.124 52.1716 342.724 51.5396 342.42 50.8356C342.132 50.1156 341.988 49.3476 341.988 48.5316C341.988 47.7476 342.132 47.0116 342.42 46.3236C342.724 45.6196 343.132 44.9956 343.644 44.4516C344.156 43.9076 344.74 43.4836 345.396 43.1796C346.068 42.8596 346.772 42.6996 347.508 42.6996C348.164 42.6996 348.716 42.7876 349.164 42.9636C349.628 43.1396 350.02 43.3636 350.34 43.6356C350.66 43.8916 350.924 44.1636 351.132 44.4516L350.988 43.7556C350.988 43.4036 351.1 43.1396 351.324 42.9636C351.548 42.7716 351.9 42.6756 352.38 42.6756C352.828 42.6756 353.148 42.7476 353.34 42.8916C353.532 43.0196 353.652 43.2036 353.7 43.4436C353.748 43.6676 353.772 43.9236 353.772 44.2116V52.9956C353.772 53.2676 353.748 53.5156 353.7 53.7396C353.652 53.9636 353.524 54.1396 353.316 54.2676C353.124 54.3956 352.804 54.4596 352.356 54.4596ZM347.94 51.6756C348.484 51.6756 348.972 51.5396 349.404 51.2676C349.836 50.9956 350.18 50.6276 350.436 50.1636C350.708 49.6836 350.844 49.1556 350.844 48.5796C350.844 47.9556 350.708 47.4116 350.436 46.9476C350.164 46.4836 349.804 46.1236 349.356 45.8676C348.924 45.5956 348.436 45.4596 347.892 45.4596C347.3 45.4596 346.772 45.6036 346.308 45.8916C345.844 46.1636 345.476 46.5396 345.204 47.0196C344.948 47.4836 344.82 48.0116 344.82 48.6036C344.82 49.1796 344.956 49.6996 345.228 50.1636C345.5 50.6276 345.868 50.9956 346.332 51.2676C346.812 51.5396 347.348 51.6756 347.94 51.6756ZM356.324 56.9796C356.324 56.9796 356.292 56.9636 356.228 56.9316C356.164 56.9156 356.1 56.8516 356.036 56.7396C355.972 56.6436 355.94 56.4836 355.94 56.2596C355.94 55.9556 355.988 55.7556 356.084 55.6596C356.18 55.5796 356.244 55.5316 356.276 55.5156C356.292 55.4996 356.404 55.4036 356.612 55.2276C356.82 55.0676 356.94 54.7876 356.972 54.3876C356.812 54.3556 356.668 54.3156 356.54 54.2676C356.428 54.2036 356.332 54.1316 356.252 54.0516C356.092 53.8916 355.996 53.7076 355.964 53.4996C355.932 53.2756 355.916 53.0516 355.916 52.8276C355.916 52.4596 355.956 52.1556 356.036 51.9156C356.116 51.6756 356.268 51.4996 356.492 51.3876C356.732 51.2596 357.084 51.1956 357.548 51.1956C358.156 51.1956 358.588 51.3236 358.844 51.5796C358.988 51.7236 359.068 51.9076 359.084 52.1316C359.116 52.3556 359.132 52.5796 359.132 52.8036C359.132 52.9636 359.132 53.0996 359.132 53.2116C359.132 53.3076 359.124 53.3956 359.108 53.4756C359.044 54.1156 358.876 54.6996 358.604 55.2276C358.348 55.7556 358.02 56.1796 357.62 56.4996C357.236 56.8196 356.804 56.9796 356.324 56.9796ZM357.5 46.5636C356.892 46.5636 356.468 46.4436 356.228 46.2036C356.004 45.9476 355.892 45.5396 355.892 44.9796C355.892 44.5636 355.932 44.2356 356.012 43.9956C356.108 43.7556 356.276 43.5876 356.516 43.4916C356.772 43.3796 357.108 43.3236 357.524 43.3236C358.148 43.3236 358.572 43.4436 358.796 43.6836C359.02 43.9236 359.132 44.3476 359.132 44.9556C359.132 45.2436 359.1 45.5156 359.036 45.7716C358.972 46.0116 358.828 46.2036 358.604 46.3476C358.38 46.4916 358.012 46.5636 357.5 46.5636ZM95.1788 83.4836C94.7628 83.4836 94.4508 83.4116 94.2428 83.2676C94.0348 83.1396 93.8988 82.9636 93.8348 82.7396C93.7708 82.5156 93.7388 82.2756 93.7388 82.0196V68.1476C93.7388 67.8916 93.7628 67.6596 93.8108 67.4516C93.8748 67.2276 94.0108 67.0516 94.2188 66.9236C94.4268 66.7796 94.7548 66.7076 95.2028 66.7076L99.7148 66.7316C100.883 66.7316 101.955 66.9316 102.931 67.3316C103.923 67.7316 104.779 68.2996 105.499 69.0356C106.219 69.7716 106.771 70.6516 107.155 71.6756C107.555 72.6836 107.755 73.7956 107.755 75.0116C107.755 76.2596 107.555 77.4036 107.155 78.4436C106.755 79.4836 106.195 80.3796 105.475 81.1316C104.755 81.8836 103.899 82.4676 102.907 82.8836C101.931 83.2836 100.843 83.4836 99.6428 83.4836H95.1788ZM96.6428 80.5796H99.7148C100.739 80.5796 101.635 80.3556 102.403 79.9076C103.171 79.4436 103.763 78.8036 104.179 77.9876C104.611 77.1716 104.827 76.2196 104.827 75.1316C104.827 74.0276 104.611 73.0676 104.179 72.2516C103.763 71.4196 103.163 70.7796 102.379 70.3316C101.611 69.8676 100.715 69.6356 99.6908 69.6356H96.6428V80.5796ZM119.867 83.4596C119.403 83.4596 119.059 83.3716 118.835 83.1956C118.611 83.0196 118.499 82.7796 118.499 82.4756L118.667 81.6836C118.539 81.8916 118.323 82.1396 118.019 82.4276C117.715 82.6996 117.315 82.9476 116.819 83.1716C116.323 83.3796 115.723 83.4836 115.019 83.4836C114.267 83.4836 113.555 83.3316 112.883 83.0276C112.227 82.7076 111.643 82.2756 111.131 81.7316C110.635 81.1716 110.235 80.5396 109.931 79.8356C109.643 79.1156 109.499 78.3476 109.499 77.5316C109.499 76.7476 109.643 76.0116 109.931 75.3236C110.235 74.6196 110.643 73.9956 111.155 73.4516C111.667 72.9076 112.251 72.4836 112.907 72.1796C113.579 71.8596 114.283 71.6996 115.019 71.6996C115.675 71.6996 116.227 71.7876 116.675 71.9636C117.139 72.1396 117.531 72.3636 117.851 72.6356C118.171 72.8916 118.435 73.1636 118.643 73.4516L118.499 72.7556C118.499 72.4036 118.611 72.1396 118.835 71.9636C119.059 71.7716 119.411 71.6756 119.891 71.6756C120.339 71.6756 120.659 71.7476 120.851 71.8916C121.043 72.0196 121.163 72.2036 121.211 72.4436C121.259 72.6676 121.283 72.9236 121.283 73.2116V81.9956C121.283 82.2676 121.259 82.5156 121.211 82.7396C121.163 82.9636 121.035 83.1396 120.827 83.2676C120.635 83.3956 120.315 83.4596 119.867 83.4596ZM115.451 80.6756C115.995 80.6756 116.483 80.5396 116.915 80.2676C117.347 79.9956 117.691 79.6276 117.947 79.1636C118.219 78.6836 118.355 78.1556 118.355 77.5796C118.355 76.9556 118.219 76.4116 117.947 75.9476C117.675 75.4836 117.315 75.1236 116.867 74.8676C116.435 74.5956 115.947 74.4596 115.403 74.4596C114.811 74.4596 114.283 74.6036 113.819 74.8916C113.355 75.1636 112.987 75.5396 112.715 76.0196C112.459 76.4836 112.331 77.0116 112.331 77.6036C112.331 78.1796 112.467 78.6996 112.739 79.1636C113.011 79.6276 113.379 79.9956 113.843 80.2676C114.323 80.5396 114.859 80.6756 115.451 80.6756ZM125.083 83.4836C124.651 83.4836 124.331 83.4196 124.123 83.2916C123.931 83.1636 123.811 82.9876 123.763 82.7636C123.715 82.5396 123.691 82.2996 123.691 82.0436V73.0676C123.691 72.8116 123.715 72.5796 123.763 72.3716C123.811 72.1636 123.939 71.9956 124.147 71.8676C124.355 71.7396 124.683 71.6756 125.131 71.6756C125.595 71.6756 125.931 71.7716 126.139 71.9636C126.363 72.1556 126.475 72.4596 126.475 72.8756L126.259 73.5476C126.339 73.3716 126.475 73.1796 126.667 72.9716C126.859 72.7636 127.091 72.5556 127.363 72.3476C127.651 72.1396 127.971 71.9716 128.323 71.8436C128.675 71.7156 129.043 71.6516 129.427 71.6516C129.955 71.6516 130.435 71.7396 130.867 71.9156C131.315 72.0916 131.707 72.3476 132.043 72.6836C132.395 73.0196 132.699 73.4276 132.955 73.9076C133.227 73.4916 133.531 73.1156 133.867 72.7796C134.203 72.4276 134.595 72.1556 135.043 71.9636C135.491 71.7556 135.995 71.6516 136.555 71.6516C137.483 71.6516 138.259 71.8836 138.883 72.3476C139.523 72.8116 140.003 73.4756 140.323 74.3396C140.659 75.1876 140.827 76.2036 140.827 77.3876V82.0436C140.827 82.3156 140.795 82.5636 140.731 82.7876C140.683 82.9956 140.555 83.1636 140.347 83.2916C140.155 83.4196 139.835 83.4836 139.387 83.4836C138.939 83.4836 138.611 83.4116 138.403 83.2676C138.195 83.1396 138.067 82.9716 138.019 82.7636C137.971 82.5396 137.947 82.2916 137.947 82.0196V77.3636C137.947 76.7716 137.875 76.2596 137.731 75.8276C137.587 75.3956 137.371 75.0596 137.083 74.8196C136.811 74.5796 136.451 74.4596 136.003 74.4596C135.523 74.4596 135.107 74.5796 134.755 74.8196C134.419 75.0436 134.155 75.3716 133.963 75.8036C133.771 76.2356 133.675 76.7636 133.675 77.3876V82.0676C133.675 82.3396 133.635 82.5956 133.555 82.8356C133.475 83.0596 133.315 83.2276 133.075 83.3396C132.851 83.4676 132.523 83.5156 132.091 83.4836C131.691 83.4676 131.395 83.3876 131.203 83.2436C131.027 83.0996 130.915 82.9236 130.867 82.7156C130.835 82.4916 130.819 82.2596 130.819 82.0196V77.3636C130.819 76.7716 130.747 76.2596 130.603 75.8276C130.459 75.3796 130.243 75.0436 129.955 74.8196C129.683 74.5796 129.315 74.4596 128.851 74.4596C128.355 74.4596 127.931 74.5876 127.579 74.8436C127.243 75.0996 126.987 75.4436 126.811 75.8756C126.635 76.3076 126.547 76.8036 126.547 77.3636V82.0676C126.547 82.3236 126.515 82.5636 126.451 82.7876C126.403 83.0116 126.275 83.1796 126.067 83.2916C125.875 83.4196 125.547 83.4836 125.083 83.4836ZM149.31 83.3396C148.526 83.3396 147.822 83.1956 147.198 82.9076C146.59 82.6036 146.07 82.1876 145.638 81.6596C145.222 81.1156 144.902 80.4916 144.678 79.7876C144.47 79.0836 144.366 78.3236 144.366 77.5076C144.382 76.6916 144.502 75.9316 144.726 75.2276C144.95 74.5076 145.27 73.8836 145.686 73.3556C146.118 72.8276 146.638 72.4116 147.246 72.1076C147.854 71.8036 148.542 71.6516 149.31 71.6516C150.046 71.6516 150.734 71.8036 151.374 72.1076C152.03 72.4116 152.606 72.8356 153.102 73.3796C153.614 73.9236 154.014 74.5556 154.302 75.2756C154.59 75.9796 154.734 76.7396 154.734 77.5556C154.734 78.3876 154.59 79.1556 154.302 79.8596C154.014 80.5636 153.622 81.1796 153.126 81.7076C152.63 82.2196 152.054 82.6196 151.398 82.9076C150.742 83.1956 150.046 83.3396 149.31 83.3396ZM144.51 88.3316C144.078 88.3316 143.758 88.2676 143.55 88.1396C143.342 88.0116 143.214 87.8436 143.166 87.6356C143.118 87.4276 143.094 87.1876 143.094 86.9156V73.1156C143.094 72.8436 143.118 72.6036 143.166 72.3956C143.214 72.1876 143.334 72.0196 143.526 71.8916C143.734 71.7476 144.054 71.6756 144.486 71.6756C144.902 71.6756 145.23 71.7396 145.47 71.8676C145.71 71.9956 145.87 72.2116 145.95 72.5156V86.8916C145.966 87.1636 145.942 87.4036 145.878 87.6116C145.83 87.8356 145.702 88.0116 145.494 88.1396C145.286 88.2676 144.958 88.3316 144.51 88.3316ZM148.926 80.6516C149.486 80.6516 149.99 80.5236 150.438 80.2676C150.886 79.9956 151.238 79.6276 151.494 79.1636C151.766 78.6836 151.902 78.1476 151.902 77.5556C151.902 76.9476 151.766 76.4116 151.494 75.9476C151.238 75.4836 150.886 75.1236 150.438 74.8676C149.99 74.5956 149.486 74.4596 148.926 74.4596C148.382 74.4596 147.886 74.5956 147.438 74.8676C146.99 75.1396 146.63 75.5076 146.358 75.9716C146.102 76.4196 145.974 76.9476 145.974 77.5556C145.974 78.1476 146.102 78.6836 146.358 79.1636C146.63 79.6276 146.99 79.9956 147.438 80.2676C147.886 80.5236 148.382 80.6516 148.926 80.6516ZM166.602 83.4596C166.138 83.4596 165.794 83.3716 165.57 83.1956C165.346 83.0196 165.234 82.7796 165.234 82.4756L165.402 81.6836C165.274 81.8916 165.058 82.1396 164.754 82.4276C164.45 82.6996 164.05 82.9476 163.554 83.1716C163.058 83.3796 162.458 83.4836 161.754 83.4836C161.002 83.4836 160.29 83.3316 159.618 83.0276C158.962 82.7076 158.378 82.2756 157.866 81.7316C157.37 81.1716 156.97 80.5396 156.666 79.8356C156.378 79.1156 156.234 78.3476 156.234 77.5316C156.234 76.7476 156.378 76.0116 156.666 75.3236C156.97 74.6196 157.378 73.9956 157.89 73.4516C158.402 72.9076 158.986 72.4836 159.642 72.1796C160.314 71.8596 161.018 71.6996 161.754 71.6996C162.41 71.6996 162.962 71.7876 163.41 71.9636C163.874 72.1396 164.266 72.3636 164.586 72.6356C164.906 72.8916 165.17 73.1636 165.378 73.4516L165.234 72.7556C165.234 72.4036 165.346 72.1396 165.57 71.9636C165.794 71.7716 166.146 71.6756 166.626 71.6756C167.074 71.6756 167.394 71.7476 167.586 71.8916C167.778 72.0196 167.898 72.2036 167.946 72.4436C167.994 72.6676 168.018 72.9236 168.018 73.2116V81.9956C168.018 82.2676 167.994 82.5156 167.946 82.7396C167.898 82.9636 167.77 83.1396 167.562 83.2676C167.37 83.3956 167.05 83.4596 166.602 83.4596ZM162.186 80.6756C162.73 80.6756 163.218 80.5396 163.65 80.2676C164.082 79.9956 164.426 79.6276 164.682 79.1636C164.954 78.6836 165.09 78.1556 165.09 77.5796C165.09 76.9556 164.954 76.4116 164.682 75.9476C164.41 75.4836 164.05 75.1236 163.602 74.8676C163.17 74.5956 162.682 74.4596 162.138 74.4596C161.546 74.4596 161.018 74.6036 160.554 74.8916C160.09 75.1636 159.722 75.5396 159.45 76.0196C159.194 76.4836 159.066 77.0116 159.066 77.6036C159.066 78.1796 159.202 78.6996 159.474 79.1636C159.746 79.6276 160.114 79.9956 160.578 80.2676C161.058 80.5396 161.594 80.6756 162.186 80.6756ZM179.834 80.9156C180.25 81.2676 180.466 81.5956 180.482 81.8996C180.514 82.2036 180.354 82.5556 180.002 82.9556C179.73 83.2596 179.49 83.4596 179.282 83.5556C179.074 83.6516 178.866 83.6516 178.658 83.5556C178.45 83.4756 178.202 83.3156 177.914 83.0756L173.33 79.2116V82.0676C173.33 82.3236 173.298 82.5636 173.234 82.7876C173.186 83.0116 173.058 83.1876 172.85 83.3156C172.658 83.4436 172.338 83.5076 171.89 83.5076C171.442 83.5076 171.114 83.4356 170.906 83.2916C170.714 83.1636 170.594 82.9876 170.546 82.7636C170.498 82.5396 170.474 82.2996 170.474 82.0436V67.7156C170.474 67.4436 170.498 67.2036 170.546 66.9956C170.61 66.7716 170.738 66.5956 170.93 66.4676C171.138 66.3236 171.466 66.2516 171.914 66.2516C172.362 66.2516 172.682 66.3236 172.874 66.4676C173.066 66.5956 173.186 66.7716 173.234 66.9956C173.298 67.2036 173.33 67.4516 173.33 67.7396V75.6116L176.642 72.3956C176.898 72.1556 177.138 71.9956 177.362 71.9156C177.586 71.8196 177.802 71.8116 178.01 71.8916C178.234 71.9556 178.466 72.1236 178.706 72.3956C179.106 72.8276 179.298 73.1876 179.282 73.4756C179.266 73.7476 179.066 74.0756 178.682 74.4596L175.442 77.4596L179.834 80.9156ZM197.914 83.4596C197.45 83.4596 197.106 83.3716 196.882 83.1956C196.658 83.0196 196.546 82.7796 196.546 82.4756L196.714 81.6836C196.586 81.8916 196.37 82.1396 196.066 82.4276C195.762 82.6996 195.362 82.9476 194.866 83.1716C194.37 83.3796 193.77 83.4836 193.066 83.4836C192.314 83.4836 191.602 83.3316 190.93 83.0276C190.274 82.7076 189.69 82.2756 189.178 81.7316C188.682 81.1716 188.282 80.5396 187.978 79.8356C187.69 79.1156 187.546 78.3476 187.546 77.5316C187.546 76.7476 187.69 76.0116 187.978 75.3236C188.282 74.6196 188.69 73.9956 189.202 73.4516C189.714 72.9076 190.298 72.4836 190.954 72.1796C191.626 71.8596 192.33 71.6996 193.066 71.6996C193.722 71.6996 194.274 71.7876 194.722 71.9636C195.186 72.1396 195.578 72.3636 195.898 72.6356C196.218 72.8916 196.482 73.1636 196.69 73.4516L196.546 72.7556C196.546 72.4036 196.658 72.1396 196.882 71.9636C197.106 71.7716 197.458 71.6756 197.938 71.6756C198.386 71.6756 198.706 71.7476 198.898 71.8916C199.09 72.0196 199.21 72.2036 199.258 72.4436C199.306 72.6676 199.33 72.9236 199.33 73.2116V81.9956C199.33 82.2676 199.306 82.5156 199.258 82.7396C199.21 82.9636 199.082 83.1396 198.874 83.2676C198.682 83.3956 198.362 83.4596 197.914 83.4596ZM193.498 80.6756C194.042 80.6756 194.53 80.5396 194.962 80.2676C195.394 79.9956 195.738 79.6276 195.994 79.1636C196.266 78.6836 196.402 78.1556 196.402 77.5796C196.402 76.9556 196.266 76.4116 195.994 75.9476C195.722 75.4836 195.362 75.1236 194.914 74.8676C194.482 74.5956 193.994 74.4596 193.45 74.4596C192.858 74.4596 192.33 74.6036 191.866 74.8916C191.402 75.1636 191.034 75.5396 190.762 76.0196C190.506 76.4836 190.378 77.0116 190.378 77.6036C190.378 78.1796 190.514 78.6996 190.786 79.1636C191.058 79.6276 191.426 79.9956 191.89 80.2676C192.37 80.5396 192.906 80.6756 193.498 80.6756ZM211.146 80.9156C211.562 81.2676 211.778 81.5956 211.794 81.8996C211.826 82.2036 211.666 82.5556 211.314 82.9556C211.042 83.2596 210.802 83.4596 210.594 83.5556C210.386 83.6516 210.178 83.6516 209.97 83.5556C209.762 83.4756 209.514 83.3156 209.226 83.0756L204.642 79.2116V82.0676C204.642 82.3236 204.61 82.5636 204.546 82.7876C204.498 83.0116 204.37 83.1876 204.162 83.3156C203.97 83.4436 203.65 83.5076 203.202 83.5076C202.754 83.5076 202.426 83.4356 202.218 83.2916C202.026 83.1636 201.906 82.9876 201.858 82.7636C201.81 82.5396 201.786 82.2996 201.786 82.0436V67.7156C201.786 67.4436 201.81 67.2036 201.858 66.9956C201.922 66.7716 202.05 66.5956 202.242 66.4676C202.45 66.3236 202.778 66.2516 203.226 66.2516C203.674 66.2516 203.994 66.3236 204.186 66.4676C204.378 66.5956 204.498 66.7716 204.546 66.9956C204.61 67.2036 204.642 67.4516 204.642 67.7396V75.6116L207.954 72.3956C208.21 72.1556 208.45 71.9956 208.674 71.9156C208.898 71.8196 209.114 71.8116 209.322 71.8916C209.546 71.9556 209.778 72.1236 210.018 72.3956C210.418 72.8276 210.61 73.1876 210.594 73.4756C210.578 73.7476 210.378 74.0756 209.994 74.4596L206.754 77.4596L211.146 80.9156ZM222.781 83.4596C222.317 83.4596 221.973 83.3716 221.749 83.1956C221.525 83.0196 221.413 82.7796 221.413 82.4756L221.581 81.6836C221.453 81.8916 221.237 82.1396 220.933 82.4276C220.629 82.6996 220.229 82.9476 219.733 83.1716C219.237 83.3796 218.637 83.4836 217.933 83.4836C217.181 83.4836 216.469 83.3316 215.797 83.0276C215.141 82.7076 214.557 82.2756 214.045 81.7316C213.549 81.1716 213.149 80.5396 212.845 79.8356C212.557 79.1156 212.413 78.3476 212.413 77.5316C212.413 76.7476 212.557 76.0116 212.845 75.3236C213.149 74.6196 213.557 73.9956 214.069 73.4516C214.581 72.9076 215.165 72.4836 215.821 72.1796C216.493 71.8596 217.197 71.6996 217.933 71.6996C218.589 71.6996 219.141 71.7876 219.589 71.9636C220.053 72.1396 220.445 72.3636 220.765 72.6356C221.085 72.8916 221.349 73.1636 221.557 73.4516L221.413 72.7556C221.413 72.4036 221.525 72.1396 221.749 71.9636C221.973 71.7716 222.325 71.6756 222.805 71.6756C223.253 71.6756 223.573 71.7476 223.765 71.8916C223.957 72.0196 224.077 72.2036 224.125 72.4436C224.173 72.6676 224.197 72.9236 224.197 73.2116V81.9956C224.197 82.2676 224.173 82.5156 224.125 82.7396C224.077 82.9636 223.949 83.1396 223.741 83.2676C223.549 83.3956 223.229 83.4596 222.781 83.4596ZM218.365 80.6756C218.909 80.6756 219.397 80.5396 219.829 80.2676C220.261 79.9956 220.605 79.6276 220.861 79.1636C221.133 78.6836 221.269 78.1556 221.269 77.5796C221.269 76.9556 221.133 76.4116 220.861 75.9476C220.589 75.4836 220.229 75.1236 219.781 74.8676C219.349 74.5956 218.861 74.4596 218.317 74.4596C217.725 74.4596 217.197 74.6036 216.733 74.8916C216.269 75.1636 215.901 75.5396 215.629 76.0196C215.373 76.4836 215.245 77.0116 215.245 77.6036C215.245 78.1796 215.381 78.6996 215.653 79.1636C215.925 79.6276 216.293 79.9956 216.757 80.2676C217.237 80.5396 217.773 80.6756 218.365 80.6756ZM231.693 83.4836C230.957 83.4836 230.261 83.3316 229.605 83.0276C228.949 82.7236 228.373 82.3076 227.877 81.7796C227.381 81.2356 226.989 80.6036 226.701 79.8836C226.413 79.1476 226.269 78.3636 226.269 77.5316C226.269 76.7316 226.413 75.9796 226.701 75.2756C226.989 74.5556 227.381 73.9316 227.877 73.4036C228.389 72.8596 228.973 72.4356 229.629 72.1316C230.285 71.8276 230.973 71.6756 231.693 71.6756C232.461 71.6756 233.149 71.8276 233.757 72.1316C234.365 72.4356 234.877 72.8596 235.293 73.4036C235.725 73.9316 236.053 74.5556 236.277 75.2756C236.501 75.9796 236.621 76.7396 236.637 77.5556C236.637 78.3716 236.525 79.1396 236.301 79.8596C236.093 80.5636 235.773 81.1876 235.341 81.7316C234.925 82.2756 234.405 82.7076 233.781 83.0276C233.173 83.3316 232.477 83.4836 231.693 83.4836ZM232.077 80.6756C232.637 80.6756 233.133 80.5476 233.565 80.2916C234.013 80.0196 234.365 79.6516 234.621 79.1876C234.893 78.7236 235.029 78.1956 235.029 77.6036C235.029 76.9956 234.893 76.4596 234.621 75.9956C234.365 75.5316 234.013 75.1636 233.565 74.8916C233.133 74.6196 232.637 74.4836 232.077 74.4836C231.517 74.4836 231.013 74.6196 230.565 74.8916C230.117 75.1476 229.757 75.5156 229.485 75.9956C229.229 76.4596 229.101 76.9956 229.101 77.6036C229.101 78.1956 229.229 78.7236 229.485 79.1876C229.757 79.6516 230.117 80.0196 230.565 80.2916C231.029 80.5476 231.533 80.6756 232.077 80.6756ZM236.517 83.4836C236.069 83.4836 235.741 83.4116 235.533 83.2676C235.325 83.1076 235.189 82.8596 235.125 82.5236V67.7396C235.125 67.4676 235.141 67.2276 235.173 67.0196C235.221 66.7956 235.341 66.6196 235.533 66.4916C235.741 66.3476 236.061 66.2756 236.493 66.2756C236.957 66.2756 237.285 66.3396 237.477 66.4676C237.669 66.5956 237.789 66.7716 237.837 66.9956C237.901 67.2036 237.933 67.4436 237.933 67.7156V82.0196C237.933 82.2916 237.909 82.5396 237.861 82.7636C237.813 82.9876 237.685 83.1636 237.477 83.2916C237.285 83.4196 236.965 83.4836 236.517 83.4836ZM246.122 83.6516C245.082 83.6516 244.17 83.4836 243.386 83.1476C242.618 82.8116 241.97 82.3556 241.442 81.7796C240.93 81.1876 240.538 80.5316 240.266 79.8116C240.01 79.0756 239.882 78.3156 239.882 77.5316C239.882 76.3796 240.146 75.3556 240.674 74.4596C241.202 73.5636 241.93 72.8596 242.858 72.3476C243.802 71.8356 244.882 71.5796 246.098 71.5796C246.962 71.5796 247.722 71.7156 248.378 71.9876C249.034 72.2596 249.578 72.6196 250.01 73.0676C250.458 73.4996 250.794 73.9796 251.018 74.5076C251.258 75.0356 251.378 75.5476 251.378 76.0436C251.378 76.8916 251.17 77.5076 250.754 77.8916C250.354 78.2756 249.85 78.4676 249.242 78.4676H242.906C242.922 79.0116 243.09 79.4836 243.41 79.8836C243.746 80.2836 244.162 80.5956 244.658 80.8196C245.17 81.0276 245.69 81.1316 246.218 81.1316C246.618 81.1316 246.97 81.1076 247.274 81.0596C247.594 81.0116 247.866 80.9556 248.09 80.8916C248.314 80.8116 248.506 80.7316 248.666 80.6516C248.842 80.5716 249.002 80.4996 249.146 80.4356C249.29 80.3716 249.426 80.3316 249.554 80.3156C249.73 80.2996 249.906 80.3396 250.082 80.4356C250.258 80.5316 250.402 80.6996 250.514 80.9396C250.61 81.0996 250.674 81.2516 250.706 81.3956C250.754 81.5236 250.778 81.6516 250.778 81.7796C250.778 82.0996 250.586 82.4036 250.202 82.6916C249.818 82.9636 249.274 83.1876 248.57 83.3636C247.882 83.5556 247.066 83.6516 246.122 83.6516ZM242.906 76.7636H247.826C248.098 76.7636 248.306 76.7236 248.45 76.6436C248.594 76.5476 248.666 76.3556 248.666 76.0676C248.666 75.6996 248.554 75.3716 248.33 75.0836C248.106 74.7796 247.802 74.5476 247.418 74.3876C247.034 74.2116 246.586 74.1236 246.074 74.1236C245.482 74.1236 244.946 74.2436 244.466 74.4836C243.986 74.7076 243.602 75.0196 243.314 75.4196C243.042 75.8196 242.906 76.2676 242.906 76.7636ZM254.74 83.4836C254.308 83.4836 253.988 83.4196 253.78 83.2916C253.588 83.1636 253.468 82.9876 253.42 82.7636C253.372 82.5396 253.348 82.2996 253.348 82.0436V73.0676C253.348 72.8116 253.372 72.5796 253.42 72.3716C253.468 72.1636 253.596 71.9956 253.804 71.8676C254.012 71.7396 254.34 71.6756 254.788 71.6756C255.252 71.6756 255.588 71.7716 255.796 71.9636C256.02 72.1556 256.132 72.4596 256.132 72.8756L255.916 73.5476C255.996 73.3716 256.132 73.1796 256.324 72.9716C256.516 72.7636 256.748 72.5556 257.02 72.3476C257.308 72.1396 257.628 71.9716 257.98 71.8436C258.332 71.7156 258.7 71.6516 259.084 71.6516C259.612 71.6516 260.092 71.7396 260.524 71.9156C260.972 72.0916 261.364 72.3476 261.7 72.6836C262.052 73.0196 262.356 73.4276 262.612 73.9076C262.884 73.4916 263.188 73.1156 263.524 72.7796C263.86 72.4276 264.252 72.1556 264.7 71.9636C265.148 71.7556 265.652 71.6516 266.212 71.6516C267.14 71.6516 267.916 71.8836 268.54 72.3476C269.18 72.8116 269.66 73.4756 269.98 74.3396C270.316 75.1876 270.484 76.2036 270.484 77.3876V82.0436C270.484 82.3156 270.452 82.5636 270.388 82.7876C270.34 82.9956 270.212 83.1636 270.004 83.2916C269.812 83.4196 269.492 83.4836 269.044 83.4836C268.596 83.4836 268.268 83.4116 268.06 83.2676C267.852 83.1396 267.724 82.9716 267.676 82.7636C267.628 82.5396 267.604 82.2916 267.604 82.0196V77.3636C267.604 76.7716 267.532 76.2596 267.388 75.8276C267.244 75.3956 267.028 75.0596 266.74 74.8196C266.468 74.5796 266.108 74.4596 265.66 74.4596C265.18 74.4596 264.764 74.5796 264.412 74.8196C264.076 75.0436 263.812 75.3716 263.62 75.8036C263.428 76.2356 263.332 76.7636 263.332 77.3876V82.0676C263.332 82.3396 263.292 82.5956 263.212 82.8356C263.132 83.0596 262.972 83.2276 262.732 83.3396C262.508 83.4676 262.18 83.5156 261.748 83.4836C261.348 83.4676 261.052 83.3876 260.86 83.2436C260.684 83.0996 260.572 82.9236 260.524 82.7156C260.492 82.4916 260.476 82.2596 260.476 82.0196V77.3636C260.476 76.7716 260.404 76.2596 260.26 75.8276C260.116 75.3796 259.9 75.0436 259.612 74.8196C259.34 74.5796 258.972 74.4596 258.508 74.4596C258.012 74.4596 257.588 74.5876 257.236 74.8436C256.9 75.0996 256.644 75.4436 256.468 75.8756C256.292 76.3076 256.204 76.8036 256.204 77.3636V82.0676C256.204 82.3236 256.172 82.5636 256.108 82.7876C256.06 83.0116 255.932 83.1796 255.724 83.2916C255.532 83.4196 255.204 83.4836 254.74 83.4836ZM274.43 83.5076C273.998 83.5076 273.678 83.4356 273.47 83.2916C273.262 83.1636 273.134 82.9956 273.086 82.7876C273.038 82.5636 273.014 82.3156 273.014 82.0436V73.1156C273.014 72.8596 273.038 72.6276 273.086 72.4196C273.15 72.1956 273.278 72.0196 273.47 71.8916C273.678 71.7636 274.006 71.6996 274.454 71.6996C274.902 71.6996 275.222 71.7636 275.414 71.8916C275.622 72.0196 275.75 72.1956 275.798 72.4196C275.846 72.6436 275.87 72.8916 275.87 73.1636V82.0676C275.87 82.3396 275.846 82.5876 275.798 82.8116C275.75 83.0196 275.622 83.1876 275.414 83.3156C275.222 83.4436 274.894 83.5076 274.43 83.5076ZM274.43 69.3716C273.966 69.3716 273.622 69.3076 273.398 69.1796C273.19 69.0356 273.054 68.8436 272.99 68.6036C272.942 68.3636 272.918 68.0996 272.918 67.8116C272.918 67.5076 272.942 67.2436 272.99 67.0196C273.054 66.7956 273.198 66.6196 273.422 66.4916C273.646 66.3476 273.99 66.2756 274.454 66.2756C274.934 66.2756 275.278 66.3476 275.486 66.4916C275.694 66.6356 275.83 66.8276 275.894 67.0676C275.958 67.2916 275.99 67.5556 275.99 67.8596C275.99 68.1316 275.958 68.3876 275.894 68.6276C275.83 68.8676 275.694 69.0516 275.486 69.1796C275.278 69.3076 274.926 69.3716 274.43 69.3716ZM287.904 80.9156C288.32 81.2676 288.536 81.5956 288.552 81.8996C288.584 82.2036 288.424 82.5556 288.072 82.9556C287.8 83.2596 287.56 83.4596 287.352 83.5556C287.144 83.6516 286.936 83.6516 286.728 83.5556C286.52 83.4756 286.272 83.3156 285.984 83.0756L281.4 79.2116V82.0676C281.4 82.3236 281.368 82.5636 281.304 82.7876C281.256 83.0116 281.128 83.1876 280.92 83.3156C280.728 83.4436 280.408 83.5076 279.96 83.5076C279.512 83.5076 279.184 83.4356 278.976 83.2916C278.784 83.1636 278.664 82.9876 278.616 82.7636C278.568 82.5396 278.544 82.2996 278.544 82.0436V67.7156C278.544 67.4436 278.568 67.2036 278.616 66.9956C278.68 66.7716 278.808 66.5956 279 66.4676C279.208 66.3236 279.536 66.2516 279.984 66.2516C280.432 66.2516 280.752 66.3236 280.944 66.4676C281.136 66.5956 281.256 66.7716 281.304 66.9956C281.368 67.2036 281.4 67.4516 281.4 67.7396V75.6116L284.712 72.3956C284.968 72.1556 285.208 71.9956 285.432 71.9156C285.656 71.8196 285.872 71.8116 286.08 71.8916C286.304 71.9556 286.536 72.1236 286.776 72.3956C287.176 72.8276 287.368 73.1876 287.352 73.4756C287.336 73.7476 287.136 74.0756 286.752 74.4596L283.512 77.4596L287.904 80.9156Z" fill="black"/>
</svg>
