<svg width="400" height="120" viewBox="0 0 400 120" fill="none" xmlns="http://www.w3.org/2000/svg">
<mask id="mask0_62_2268" style="mask-type:luminance" maskUnits="userSpaceOnUse" x="0" y="0" width="400" height="120">
<path d="M400 0H0V120H400V0Z" fill="white"/>
</mask>
<g mask="url(#mask0_62_2268)">
<mask id="mask1_62_2268" style="mask-type:luminance" maskUnits="userSpaceOnUse" x="9" y="9" width="388" height="111">
<path d="M9.33838 9.33325H396.887V119.354H9.33838V9.33325Z" fill="white"/>
</mask>
<g mask="url(#mask1_62_2268)">
<path d="M15.7893 72.3853L12.3967 62.3593L17.7895 51.8749L13.0351 41.3958L9.77637 30.9114L12.1049 19.3541L26.2586 18.2343L39.1781 15.5937L52.3408 21.4739L65.1144 13.7499L78.3379 21.7083L91.227 17.9635L104.365 22.901L117.358 22.677L130.405 24.3437L143.318 21.4218L155.618 17.1093L167.972 14.5624L180.326 12.0989L192.783 13.2135L205.32 17.1249L217.838 20.3437L230.253 20.0728L242.4 10.3072L255.065 18.6874L267.504 19.1718L279.742 12.4791L292.084 9.53638L304.906 12.9062L318.191 14.7655L328.447 23.3958L341.367 25.4062L352.316 32.3385L368.294 26.7083L380.204 31.2239L396.346 37.177L387.476 50.3385L387.16 62.0937L374.362 69.8593L369.875 80.2812L373.796 93.3957L367.571 103.266L364.391 115.974L345.854 109.745L333.335 117.432L320.227 109.989L307.782 119.823L294.632 110.969L281.864 112.432L269.005 111.359L256.445 118.932L243.556 117.01L230.824 121.224L218.355 114.521L205.223 119.724L193.081 116.047L180.727 115.328L168.306 115.838L155.904 115.969L143.829 110.542L131.396 111.203L119.346 105.146L106.274 116.76L94.5648 104.833L81.5602 115.427L69.6377 107.245L57.5025 102.453L44.6438 110.724L27.2618 111.552L29.4687 98.1405L22.7931 90.2291L11.0106 83.578L15.7893 72.3853Z" fill="black"/>
<path d="M15.7893 72.3853L12.3967 62.3593L17.7895 51.8749L13.0351 41.3958L9.77637 30.9114L12.1049 19.3541L26.2586 18.2343L39.1781 15.5937L52.3408 21.4739L65.1144 13.7499L78.3379 21.7083L91.227 17.9635L104.365 22.901L117.358 22.677L130.405 24.3437L143.318 21.4218L155.618 17.1093L167.972 14.5624L180.326 12.0989L192.783 13.2135L205.32 17.1249L217.838 20.3437L230.253 20.0728L242.4 10.3072L255.065 18.6874L267.504 19.1718L279.742 12.4791L292.084 9.53638L304.906 12.9062L318.191 14.7655L328.447 23.3958L341.367 25.4062L352.316 32.3385L368.294 26.7083L380.204 31.2239L396.346 37.177L387.476 50.3385L387.16 62.0937L374.362 69.8593L369.875 80.2812L373.796 93.3957L367.571 103.266L364.391 115.974L345.854 109.745L333.335 117.432L320.227 109.989L307.782 119.823L294.632 110.969L281.864 112.432L269.005 111.359L256.445 118.932L243.556 117.01L230.824 121.224L218.355 114.521L205.223 119.724L193.081 116.047L180.727 115.328L168.306 115.838L155.904 115.969L143.829 110.542L131.396 111.203L119.346 105.146L106.274 116.76L94.5648 104.833L81.5602 115.427L69.6377 107.245L57.5025 102.453L44.6438 110.724L27.2618 111.552L29.4687 98.1405L22.7931 90.2291L11.0106 83.578L15.7893 72.3853Z" fill="black"/>
</g>
<mask id="mask2_62_2268" style="mask-type:luminance" maskUnits="userSpaceOnUse" x="7" y="8" width="391" height="112">
<path d="M7.78223 8H397.586V119.354H7.78223V8Z" fill="white"/>
</mask>
<g mask="url(#mask2_62_2268)">
<path d="M230.739 121.984L218.3 115.307L205.265 120.474L192.917 116.734L180.721 115.99L168.343 116.495L155.715 116.63L143.653 111.203L131.208 111.885L119.486 105.995L106.238 117.766L94.504 105.812L81.6088 116.328L69.2061 107.849L57.6059 103.26L44.9113 111.401L26.3133 112.286L28.6358 98.3489L22.1973 90.7239L10.0499 83.8489L14.9563 72.3645L11.5577 62.3124L16.9322 51.8541L12.263 41.5728L8.95557 30.9426L11.424 18.7291L26.1674 17.5572L39.2814 14.901L52.2739 20.703L65.1144 12.9166L78.4655 20.953L91.2635 17.2291L104.523 22.2135L117.406 21.9895L130.356 23.6562L143.051 20.776L155.423 16.4426L167.765 13.8958L180.259 11.4166L193.039 12.5728L205.569 16.4843L217.941 19.651L229.931 19.3958L242.346 9.40617L255.356 18.0103L267.261 18.4687L279.384 11.8489L292.078 8.81763L305.077 12.2083L318.562 14.0937L328.83 22.7291L341.683 24.7239L352.414 31.5103L368.282 25.9218L380.514 30.552L397.483 36.8489L388.272 50.526L387.962 62.453L375.03 70.2968L370.714 80.3228L374.678 93.4843L368.331 103.505L364.95 116.906L345.951 110.516L333.335 118.26L320.294 110.854L307.825 120.74L294.413 111.703L281.882 113.146L269.188 112.078L256.627 119.651L243.635 117.719L230.739 121.984ZM218.416 113.75L230.916 120.463L243.47 116.307L256.256 118.213L268.793 110.656L281.852 111.755L294.857 110.255L307.74 118.932L320.148 109.13L333.317 116.594L345.744 108.969L363.801 115.031L366.817 103.016L372.951 93.2968L369.048 80.2343L373.681 69.427L386.375 61.7135L386.685 50.1822L395.215 37.4947L379.894 31.8645L368.276 27.4583L352.201 33.1249L341.039 26.0468L328.064 24.0155L317.808 15.3958L304.651 13.5468L292.054 10.2291L280.058 13.1093L267.704 19.8958L254.761 19.3958L242.437 11.2499L230.533 20.7916L217.68 21.078L205.04 17.828L192.601 13.8853L180.375 12.7916L168.185 15.2291L155.867 17.7499L143.525 22.078L130.454 25.0364L117.303 23.3541L104.207 23.5885L91.227 18.6926L78.2163 22.4687L65.1144 14.578L52.4198 22.2708L39.093 16.3124L26.3315 18.9062L12.7858 19.9843L10.5849 30.8801L13.7951 41.1822L18.6528 51.8905L13.2479 62.3905L16.6465 72.4114L11.9954 83.3072L23.3707 89.7239L30.3138 97.9687L28.198 110.823L44.3763 110.057L57.4235 101.667L70.118 106.708L81.5115 114.521L94.6195 103.844L106.299 115.745L119.194 104.286L131.572 110.516L143.987 109.833L156.08 115.26L168.282 115.135L180.721 114.62L193.227 115.349L205.125 118.958L218.416 113.75Z" fill="black"/>
</g>
<mask id="mask3_62_2268" style="mask-type:luminance" maskUnits="userSpaceOnUse" x="3" y="1" width="388" height="113">
<path d="M3.11279 1.08325H390.661V113.333H3.11279V1.08325Z" fill="white"/>
</mask>
<g mask="url(#mask3_62_2268)">
<path d="M9.78237 63.3954L6.39594 53.3642L11.7826 42.8798L7.02824 32.4006L3.75732 21.9163L6.09804 10.3642L20.2457 9.23918L33.1712 6.60376L46.3339 12.4788L59.1075 4.7548L72.3249 12.7183L85.2201 8.96313L98.3585 13.9111L111.345 13.6819L124.398 15.359L137.312 12.4319L149.611 8.10897L161.965 5.5673L174.319 3.10897L186.777 4.22355L199.313 8.1298L211.825 11.3486L224.246 11.0777L236.387 1.31209L249.058 9.69751L261.497 10.1819L273.735 3.48918L286.077 0.54126L298.9 3.91626L312.184 5.77043L322.44 14.4058L335.36 16.4163L346.31 23.3433L362.281 17.7131L374.197 22.2288L390.339 28.1767L381.469 41.3486L381.153 53.1038L368.355 60.8642L363.868 71.2913L367.796 84.4006L361.564 94.2704L358.378 106.979L339.847 100.755L327.329 108.442L314.221 101L301.775 110.833L288.619 101.974L275.851 103.442L262.999 102.364L250.432 109.937L237.549 108.026L224.818 112.234L212.348 105.526L199.216 110.729L187.068 107.062L174.726 106.333L162.299 106.849L149.897 106.979L137.822 101.546L125.389 102.208L113.339 96.1558L100.268 107.765L88.5579 95.8433L75.5533 106.427L63.6248 98.2444L51.5017 93.4579L38.6369 101.734L21.2488 102.557L23.4618 89.1506L16.7863 81.234L5.00368 74.5829L9.78237 63.3954Z" fill="white"/>
</g>
<mask id="mask4_62_2268" style="mask-type:luminance" maskUnits="userSpaceOnUse" x="0" y="1" width="396" height="115">
<path d="M0.674805 1.08325H395.331V116H0.674805V1.08325Z" fill="white"/>
</mask>
<g mask="url(#mask4_62_2268)">
<path d="M224.52 115.01L212.147 108.365L199.386 113.422L186.491 109.521L174.708 108.844L162.348 109.349L149.21 109.49L137.202 104.062L124.69 104.74L113.862 99.3124L100.146 111.526L88.3391 99.5103L75.7236 109.745L62.0745 100.385L51.8544 96.3541L39.6524 104.182L17.8321 105.213L20.3734 89.7916L14.701 83.0624L1.44101 75.5989L6.68177 63.328L3.30142 53.1874L8.62122 42.828L4.20123 33.0416L0.77832 22.0312L3.61149 8.05721L19.7715 6.76034L33.5543 3.95825L46.103 9.56242L59.1015 1.69784L72.7932 9.94263L85.354 6.29159L98.9422 11.401L111.54 11.1822L124.234 12.8124L136.381 10.0572L148.705 5.72909L161.284 3.14575L174.131 0.578045L187.433 1.77596L200.231 5.76555L212.22 8.84367L223.061 8.60409L236.205 -1.96362L250.116 7.23429L260.707 7.65096L272.526 1.18221L286.12 -2.05737L299.568 1.48429L313.564 3.43742L323.875 12.0885L336.57 14.0624L346.705 20.4999L362.312 14.9947L375.365 19.9478L394.492 26.9999L384.369 42.0416L384.041 54.4114L370.787 62.453L366.92 71.4218L370.89 84.7239L364.318 95.1458L360.494 110.38L340.248 103.594L327.377 111.495L314.5 104.182L301.909 114.13L287.768 104.63L275.87 105.99L263.753 104.979L251.058 112.609L237.768 110.635L224.52 115.01ZM212.561 102.693L225.128 109.474L237.214 105.448L249.708 107.302L262.172 99.7916L275.772 100.932L289.427 99.3593L301.593 107.557L313.886 97.8333L327.231 105.411L339.403 97.9478L356.226 103.588L358.779 93.4114L364.683 84.1041L360.816 71.2135L365.929 59.3333L378.277 51.8697L378.569 40.6822L386.175 29.3958L373.036 24.5572L362.239 20.4843L345.908 26.1822L334.168 18.7603L321.036 16.7291L310.792 8.11971L298.237 6.35409L286.041 3.14575L274.933 5.79159L262.293 12.703L248.012 12.1562L236.576 4.58846L225.432 13.5468L211.436 13.8489L198.31 10.4583L186.108 6.65096L174.532 5.63534L162.634 8.00513L150.517 10.4947L138.242 14.802L124.55 17.901L111.156 16.1822L97.7628 16.4166L85.0682 11.6666L71.869 15.4843L59.1076 7.80721L46.565 15.3958L32.7822 9.24471L20.72 11.7083L8.59082 12.6718L6.74257 21.8072L9.80677 31.6249L14.9381 42.9426L9.50279 53.5728L12.8649 63.5208L8.5361 73.5885L18.8474 79.4062L26.5201 88.5051L24.6414 99.8958L37.5974 99.2864L51.1492 90.5676L65.1752 96.1093L75.3588 103.099L88.7951 92.2447L100.42 104.068L112.828 93.0364L126.137 99.7083L138.497 99.026L150.602 104.453L162.214 104.333L174.757 103.818L187.67 104.568L199.064 108.016L212.561 102.693Z" fill="black"/>
<path d="M224.52 115.01L212.147 108.365L199.386 113.422L186.491 109.521L174.708 108.844L162.348 109.349L149.21 109.49L137.202 104.062L124.69 104.74L113.862 99.3124L100.146 111.526L88.3391 99.5103L75.7236 109.745L62.0745 100.385L51.8544 96.3541L39.6524 104.182L17.8321 105.213L20.3734 89.7916L14.701 83.0624L1.44101 75.5989L6.68177 63.328L3.30142 53.1874L8.62122 42.828L4.20123 33.0416L0.77832 22.0312L3.61149 8.05721L19.7715 6.76034L33.5543 3.95825L46.103 9.56242L59.1015 1.69784L72.7932 9.94263L85.354 6.29159L98.9422 11.401L111.54 11.1822L124.234 12.8124L136.381 10.0572L148.705 5.72909L161.284 3.14575L174.131 0.578045L187.433 1.77596L200.231 5.76555L212.22 8.84367L223.061 8.60409L236.205 -1.96362L250.116 7.23429L260.707 7.65096L272.526 1.18221L286.12 -2.05737L299.568 1.48429L313.564 3.43742L323.875 12.0885L336.57 14.0624L346.705 20.4999L362.312 14.9947L375.365 19.9478L394.492 26.9999L384.369 42.0416L384.041 54.4114L370.787 62.453L366.92 71.4218L370.89 84.7239L364.318 95.1458L360.494 110.38L340.248 103.594L327.377 111.495L314.5 104.182L301.909 114.13L287.768 104.63L275.87 105.99L263.753 104.979L251.058 112.609L237.768 110.635L224.52 115.01ZM212.561 102.693L225.128 109.474L237.214 105.448L249.708 107.302L262.172 99.7916L275.772 100.932L289.427 99.3593L301.593 107.557L313.886 97.8333L327.231 105.411L339.403 97.9478L356.226 103.588L358.779 93.4114L364.683 84.1041L360.816 71.2135L365.929 59.3333L378.277 51.8697L378.569 40.6822L386.175 29.3958L373.036 24.5572L362.239 20.4843L345.908 26.1822L334.168 18.7603L321.036 16.7291L310.792 8.11971L298.237 6.35409L286.041 3.14575L274.933 5.79159L262.293 12.703L248.012 12.1562L236.576 4.58846L225.432 13.5468L211.436 13.8489L198.31 10.4583L186.108 6.65096L174.532 5.63534L162.634 8.00513L150.517 10.4947L138.242 14.802L124.55 17.901L111.156 16.1822L97.7628 16.4166L85.0682 11.6666L71.869 15.4843L59.1076 7.80721L46.565 15.3958L32.7822 9.24471L20.72 11.7083L8.59082 12.6718L6.74257 21.8072L9.80677 31.6249L14.9381 42.9426L9.50279 53.5728L12.8649 63.5208L8.5361 73.5885L18.8474 79.4062L26.5201 88.5051L24.6414 99.8958L37.5974 99.2864L51.1492 90.5676L65.1752 96.1093L75.3588 103.099L88.7951 92.2447L100.42 104.068L112.828 93.0364L126.137 99.7083L138.497 99.026L150.602 104.453L162.214 104.333L174.757 103.818L187.67 104.568L199.064 108.016L212.561 102.693Z" fill="black"/>
</g>
</g>
<path d="M27.1308 54.4836C26.6828 54.4836 26.3548 54.4196 26.1468 54.2916C25.9388 54.1636 25.8108 53.9876 25.7628 53.7636C25.7148 53.5236 25.6908 53.2756 25.6908 53.0196V39.1716C25.6908 38.9156 25.7148 38.6836 25.7628 38.4756C25.8268 38.2516 25.9628 38.0756 26.1708 37.9476C26.3788 37.8036 26.7068 37.7316 27.1548 37.7316H32.2428C32.9468 37.7316 33.6348 37.8516 34.3068 38.0916C34.9788 38.3316 35.5788 38.6916 36.1068 39.1716C36.6508 39.6516 37.0748 40.2436 37.3788 40.9476C37.6988 41.6516 37.8588 42.4756 37.8588 43.4196C37.8588 44.3476 37.6988 45.1636 37.3788 45.8676C37.0748 46.5556 36.6508 47.1396 36.1068 47.6196C35.5628 48.0996 34.9548 48.4596 34.2828 48.6996C33.6268 48.9396 32.9388 49.0596 32.2188 49.0596H28.5948V53.0436C28.5948 53.2996 28.5628 53.5396 28.4988 53.7636C28.4508 53.9876 28.3228 54.1636 28.1148 54.2916C27.9228 54.4196 27.5948 54.4836 27.1308 54.4836ZM28.5948 46.1316H32.2428C32.7388 46.1316 33.1868 46.0356 33.5868 45.8436C34.0028 45.6356 34.3388 45.3316 34.5948 44.9316C34.8508 44.5156 34.9788 43.9956 34.9788 43.3716C34.9788 42.8116 34.8588 42.3316 34.6188 41.9316C34.3948 41.5156 34.0748 41.1956 33.6588 40.9716C33.2588 40.7476 32.7788 40.6356 32.2188 40.6356H28.5948V46.1316ZM45.626 54.6516C44.586 54.6516 43.674 54.4836 42.89 54.1476C42.122 53.8116 41.474 53.3556 40.946 52.7796C40.434 52.1876 40.042 51.5316 39.77 50.8116C39.514 50.0756 39.386 49.3156 39.386 48.5316C39.386 47.3796 39.65 46.3556 40.178 45.4596C40.706 44.5636 41.434 43.8596 42.362 43.3476C43.306 42.8356 44.386 42.5796 45.602 42.5796C46.466 42.5796 47.226 42.7156 47.882 42.9876C48.538 43.2596 49.082 43.6196 49.514 44.0676C49.962 44.4996 50.298 44.9796 50.522 45.5076C50.762 46.0356 50.882 46.5476 50.882 47.0436C50.882 47.8916 50.674 48.5076 50.258 48.8916C49.858 49.2756 49.354 49.4676 48.746 49.4676H42.41C42.426 50.0116 42.594 50.4836 42.914 50.8836C43.25 51.2836 43.666 51.5956 44.162 51.8196C44.674 52.0276 45.194 52.1316 45.722 52.1316C46.122 52.1316 46.474 52.1076 46.778 52.0596C47.098 52.0116 47.37 51.9556 47.594 51.8916C47.818 51.8116 48.01 51.7316 48.17 51.6516C48.346 51.5716 48.506 51.4996 48.65 51.4356C48.794 51.3716 48.93 51.3316 49.058 51.3156C49.234 51.2996 49.41 51.3396 49.586 51.4356C49.762 51.5316 49.906 51.6996 50.018 51.9396C50.114 52.0996 50.178 52.2516 50.21 52.3956C50.258 52.5236 50.282 52.6516 50.282 52.7796C50.282 53.0996 50.09 53.4036 49.706 53.6916C49.322 53.9636 48.778 54.1876 48.074 54.3636C47.386 54.5556 46.57 54.6516 45.626 54.6516ZM42.41 47.7636H47.33C47.602 47.7636 47.81 47.7236 47.954 47.6436C48.098 47.5476 48.17 47.3556 48.17 47.0676C48.17 46.6996 48.058 46.3716 47.834 46.0836C47.61 45.7796 47.306 45.5476 46.922 45.3876C46.538 45.2116 46.09 45.1236 45.578 45.1236C44.986 45.1236 44.45 45.2436 43.97 45.4836C43.49 45.7076 43.106 46.0196 42.818 46.4196C42.546 46.8196 42.41 47.2676 42.41 47.7636ZM54.2675 54.4836C53.8355 54.4836 53.5155 54.4116 53.3075 54.2676C53.1155 54.1396 52.9955 53.9716 52.9475 53.7636C52.8995 53.5396 52.8755 53.2916 52.8755 53.0196V44.0436C52.8755 43.7876 52.8995 43.5556 52.9475 43.3476C52.9955 43.1396 53.1235 42.9796 53.3315 42.8676C53.5395 42.7396 53.8595 42.6756 54.2915 42.6756C54.6755 42.6756 54.9635 42.7236 55.1555 42.8196C55.3475 42.9156 55.4755 43.0356 55.5395 43.1796C55.6035 43.3236 55.6355 43.4676 55.6355 43.6116C55.6515 43.7556 55.6675 43.8676 55.6835 43.9476L55.5875 44.7156C55.6835 44.4596 55.8435 44.2116 56.0675 43.9716C56.2915 43.7316 56.5635 43.5156 56.8835 43.3236C57.2035 43.1156 57.5475 42.9556 57.9155 42.8436C58.2995 42.7156 58.6915 42.6516 59.0915 42.6516C59.8435 42.6516 60.5155 42.7876 61.1075 43.0596C61.6995 43.3316 62.2035 43.7156 62.6195 44.2116C63.0515 44.7076 63.3795 45.2996 63.6035 45.9876C63.8275 46.6596 63.9395 47.4196 63.9395 48.2676V53.0436C63.9395 53.3156 63.9075 53.5636 63.8435 53.7876C63.7955 53.9956 63.6755 54.1636 63.4835 54.2916C63.2915 54.4196 62.9635 54.4836 62.4995 54.4836C62.0515 54.4836 61.7235 54.4116 61.5155 54.2676C61.3075 54.1396 61.1795 53.9716 61.1315 53.7636C61.0835 53.5396 61.0595 53.2916 61.0595 53.0196V48.2436C61.0595 47.6676 60.9555 47.1716 60.7475 46.7556C60.5555 46.3396 60.2675 46.0196 59.8835 45.7956C59.5155 45.5716 59.0435 45.4596 58.4675 45.4596C57.9075 45.4596 57.4195 45.5796 57.0035 45.8196C56.5875 46.0436 56.2675 46.3636 56.0435 46.7796C55.8195 47.1956 55.7075 47.6836 55.7075 48.2436V53.0436C55.7075 53.3156 55.6835 53.5636 55.6355 53.7876C55.5875 53.9956 55.4595 54.1636 55.2515 54.2916C55.0595 54.4196 54.7315 54.4836 54.2675 54.4836ZM68.5306 59.2356C68.0186 59.0116 67.7226 58.7556 67.6426 58.4676C67.5626 58.1956 67.6346 57.8276 67.8586 57.3636L74.0506 43.4916C74.2746 42.9796 74.5146 42.6756 74.7706 42.5796C75.0266 42.4676 75.4186 42.5236 75.9466 42.7476C76.4426 42.9716 76.7306 43.2196 76.8106 43.4916C76.9066 43.7636 76.8506 44.1316 76.6426 44.5956L70.4026 58.5396C70.1946 59.0516 69.9626 59.3476 69.7066 59.4276C69.4506 59.5236 69.0586 59.4596 68.5306 59.2356ZM70.7626 53.3556L65.2186 44.8356C64.9306 44.4036 64.8106 44.0436 64.8586 43.7556C64.9226 43.4676 65.1786 43.1876 65.6266 42.9156C66.1226 42.6116 66.5066 42.4916 66.7786 42.5556C67.0666 42.6196 67.3546 42.8756 67.6426 43.3236L72.0346 50.1636L70.7626 53.3556ZM84.2979 54.6516C83.2579 54.6516 82.3459 54.4836 81.5619 54.1476C80.7939 53.8116 80.1459 53.3556 79.6179 52.7796C79.1059 52.1876 78.7139 51.5316 78.4419 50.8116C78.1859 50.0756 78.0579 49.3156 78.0579 48.5316C78.0579 47.3796 78.3219 46.3556 78.8499 45.4596C79.3779 44.5636 80.1059 43.8596 81.0339 43.3476C81.9779 42.8356 83.0579 42.5796 84.2739 42.5796C85.1379 42.5796 85.8979 42.7156 86.5539 42.9876C87.2099 43.2596 87.7539 43.6196 88.1859 44.0676C88.6339 44.4996 88.9699 44.9796 89.1939 45.5076C89.4339 46.0356 89.5539 46.5476 89.5539 47.0436C89.5539 47.8916 89.3459 48.5076 88.9299 48.8916C88.5299 49.2756 88.0259 49.4676 87.4179 49.4676H81.0819C81.0979 50.0116 81.2659 50.4836 81.5859 50.8836C81.9219 51.2836 82.3379 51.5956 82.8339 51.8196C83.3459 52.0276 83.8659 52.1316 84.3939 52.1316C84.7939 52.1316 85.1459 52.1076 85.4499 52.0596C85.7699 52.0116 86.0419 51.9556 86.2659 51.8916C86.4899 51.8116 86.6819 51.7316 86.8419 51.6516C87.0179 51.5716 87.1779 51.4996 87.3219 51.4356C87.4659 51.3716 87.6019 51.3316 87.7299 51.3156C87.9059 51.2996 88.0819 51.3396 88.2579 51.4356C88.4339 51.5316 88.5779 51.6996 88.6899 51.9396C88.7859 52.0996 88.8499 52.2516 88.8819 52.3956C88.9299 52.5236 88.9539 52.6516 88.9539 52.7796C88.9539 53.0996 88.7619 53.4036 88.3779 53.6916C87.9939 53.9636 87.4499 54.1876 86.7459 54.3636C86.0579 54.5556 85.2419 54.6516 84.2979 54.6516ZM81.0819 47.7636H86.0019C86.2739 47.7636 86.4819 47.7236 86.6259 47.6436C86.7699 47.5476 86.8419 47.3556 86.8419 47.0676C86.8419 46.6996 86.7299 46.3716 86.5059 46.0836C86.2819 45.7796 85.9779 45.5476 85.5939 45.3876C85.2099 45.2116 84.7619 45.1236 84.2499 45.1236C83.6579 45.1236 83.1219 45.2436 82.6419 45.4836C82.1619 45.7076 81.7779 46.0196 81.4899 46.4196C81.2179 46.8196 81.0819 47.2676 81.0819 47.7636ZM97.6914 54.4836C96.9074 54.4836 96.2034 54.3316 95.5794 54.0276C94.9714 53.7076 94.4514 53.2756 94.0194 52.7316C93.6034 52.1876 93.2834 51.5636 93.0594 50.8596C92.8514 50.1396 92.7474 49.3716 92.7474 48.5556C92.7634 47.7396 92.8834 46.9796 93.1074 46.2756C93.3314 45.5556 93.6514 44.9316 94.0674 44.4036C94.4994 43.8596 95.0194 43.4356 95.6274 43.1316C96.2354 42.8276 96.9234 42.6756 97.6914 42.6756C98.4274 42.6756 99.1154 42.8276 99.7554 43.1316C100.411 43.4356 100.987 43.8596 101.483 44.4036C101.995 44.9316 102.395 45.5556 102.683 46.2756C102.971 46.9796 103.115 47.7316 103.115 48.5316C103.115 49.3636 102.971 50.1476 102.683 50.8836C102.395 51.6036 102.003 52.2356 101.507 52.7796C101.011 53.3076 100.435 53.7236 99.7794 54.0276C99.1234 54.3316 98.4274 54.4836 97.6914 54.4836ZM97.3074 51.6756C97.8674 51.6756 98.3714 51.5476 98.8194 51.2916C99.2674 51.0196 99.6194 50.6516 99.8754 50.1876C100.147 49.7236 100.283 49.1956 100.283 48.6036C100.283 47.9956 100.147 47.4596 99.8754 46.9956C99.6194 46.5156 99.2674 46.1476 98.8194 45.8916C98.3714 45.6196 97.8674 45.4836 97.3074 45.4836C96.7634 45.4836 96.2674 45.6196 95.8194 45.8916C95.3714 46.1636 95.0114 46.5316 94.7394 46.9956C94.4834 47.4596 94.3554 47.9956 94.3554 48.6036C94.3554 49.1956 94.4834 49.7236 94.7394 50.1876C95.0114 50.6516 95.3714 51.0196 95.8194 51.2916C96.2674 51.5476 96.7634 51.6756 97.3074 51.6756ZM92.8674 54.5076C92.4354 54.5076 92.1154 54.4356 91.9074 54.2916C91.6994 54.1636 91.5714 53.9956 91.5234 53.7876C91.4754 53.5636 91.4514 53.3156 91.4514 53.0436V38.7396C91.4514 38.4676 91.4754 38.2276 91.5234 38.0196C91.5714 37.7956 91.6994 37.6196 91.9074 37.4916C92.1154 37.3636 92.4354 37.2996 92.8674 37.2996C93.3154 37.2996 93.6354 37.3636 93.8274 37.4916C94.0194 37.6196 94.1394 37.7956 94.1874 38.0196C94.2354 38.2436 94.2594 38.4836 94.2594 38.7396V53.5236C94.1954 53.8756 94.0594 54.1236 93.8514 54.2676C93.6594 54.4276 93.3314 54.5076 92.8674 54.5076ZM114.887 54.4596C114.423 54.4596 114.079 54.3716 113.855 54.1956C113.631 54.0196 113.519 53.7796 113.519 53.4756L113.687 52.6836C113.559 52.8916 113.343 53.1396 113.039 53.4276C112.735 53.6996 112.335 53.9476 111.839 54.1716C111.343 54.3796 110.743 54.4836 110.039 54.4836C109.287 54.4836 108.575 54.3316 107.903 54.0276C107.247 53.7076 106.663 53.2756 106.151 52.7316C105.655 52.1716 105.255 51.5396 104.951 50.8356C104.663 50.1156 104.519 49.3476 104.519 48.5316C104.519 47.7476 104.663 47.0116 104.951 46.3236C105.255 45.6196 105.663 44.9956 106.175 44.4516C106.687 43.9076 107.271 43.4836 107.927 43.1796C108.599 42.8596 109.303 42.6996 110.039 42.6996C110.695 42.6996 111.247 42.7876 111.695 42.9636C112.159 43.1396 112.551 43.3636 112.871 43.6356C113.191 43.8916 113.455 44.1636 113.663 44.4516L113.519 43.7556C113.519 43.4036 113.631 43.1396 113.855 42.9636C114.079 42.7716 114.431 42.6756 114.911 42.6756C115.359 42.6756 115.679 42.7476 115.871 42.8916C116.063 43.0196 116.183 43.2036 116.231 43.4436C116.279 43.6676 116.303 43.9236 116.303 44.2116V52.9956C116.303 53.2676 116.279 53.5156 116.231 53.7396C116.183 53.9636 116.055 54.1396 115.847 54.2676C115.655 54.3956 115.335 54.4596 114.887 54.4596ZM110.471 51.6756C111.015 51.6756 111.503 51.5396 111.935 51.2676C112.367 50.9956 112.711 50.6276 112.967 50.1636C113.239 49.6836 113.375 49.1556 113.375 48.5796C113.375 47.9556 113.239 47.4116 112.967 46.9476C112.695 46.4836 112.335 46.1236 111.887 45.8676C111.455 45.5956 110.967 45.4596 110.423 45.4596C109.831 45.4596 109.303 45.6036 108.839 45.8916C108.375 46.1636 108.007 46.5396 107.735 47.0196C107.479 47.4836 107.351 48.0116 107.351 48.6036C107.351 49.1796 107.487 49.6996 107.759 50.1636C108.031 50.6276 108.399 50.9956 108.863 51.2676C109.343 51.5396 109.879 51.6756 110.471 51.6756ZM124.879 54.4836C124.095 54.4836 123.391 54.3316 122.767 54.0276C122.159 53.7076 121.639 53.2756 121.207 52.7316C120.791 52.1876 120.471 51.5636 120.247 50.8596C120.039 50.1396 119.935 49.3716 119.935 48.5556C119.951 47.7396 120.071 46.9796 120.295 46.2756C120.519 45.5556 120.839 44.9316 121.255 44.4036C121.687 43.8596 122.207 43.4356 122.815 43.1316C123.423 42.8276 124.111 42.6756 124.879 42.6756C125.615 42.6756 126.303 42.8276 126.943 43.1316C127.599 43.4356 128.175 43.8596 128.671 44.4036C129.183 44.9316 129.583 45.5556 129.871 46.2756C130.159 46.9796 130.303 47.7316 130.303 48.5316C130.303 49.3636 130.159 50.1476 129.871 50.8836C129.583 51.6036 129.191 52.2356 128.695 52.7796C128.199 53.3076 127.623 53.7236 126.967 54.0276C126.311 54.3316 125.615 54.4836 124.879 54.4836ZM124.495 51.6756C125.055 51.6756 125.559 51.5476 126.007 51.2916C126.455 51.0196 126.807 50.6516 127.063 50.1876C127.335 49.7236 127.471 49.1956 127.471 48.6036C127.471 47.9956 127.335 47.4596 127.063 46.9956C126.807 46.5156 126.455 46.1476 126.007 45.8916C125.559 45.6196 125.055 45.4836 124.495 45.4836C123.951 45.4836 123.455 45.6196 123.007 45.8916C122.559 46.1636 122.199 46.5316 121.927 46.9956C121.671 47.4596 121.543 47.9956 121.543 48.6036C121.543 49.1956 121.671 49.7236 121.927 50.1876C122.199 50.6516 122.559 51.0196 123.007 51.2916C123.455 51.5476 123.951 51.6756 124.495 51.6756ZM120.055 54.5076C119.623 54.5076 119.303 54.4356 119.095 54.2916C118.887 54.1636 118.759 53.9956 118.711 53.7876C118.663 53.5636 118.639 53.3156 118.639 53.0436V38.7396C118.639 38.4676 118.663 38.2276 118.711 38.0196C118.759 37.7956 118.887 37.6196 119.095 37.4916C119.303 37.3636 119.623 37.2996 120.055 37.2996C120.503 37.2996 120.823 37.3636 121.015 37.4916C121.207 37.6196 121.327 37.7956 121.375 38.0196C121.423 38.2436 121.447 38.4836 121.447 38.7396V53.5236C121.383 53.8756 121.247 54.1236 121.039 54.2676C120.847 54.4276 120.519 54.5076 120.055 54.5076ZM144.494 54.3396C143.71 54.3396 143.006 54.1956 142.382 53.9076C141.774 53.6036 141.254 53.1876 140.822 52.6596C140.406 52.1156 140.086 51.4916 139.862 50.7876C139.654 50.0836 139.55 49.3236 139.55 48.5076C139.566 47.6916 139.686 46.9316 139.91 46.2276C140.134 45.5076 140.454 44.8836 140.87 44.3556C141.302 43.8276 141.822 43.4116 142.43 43.1076C143.038 42.8036 143.726 42.6516 144.494 42.6516C145.23 42.6516 145.918 42.8036 146.558 43.1076C147.214 43.4116 147.79 43.8356 148.286 44.3796C148.798 44.9236 149.198 45.5556 149.486 46.2756C149.774 46.9796 149.918 47.7396 149.918 48.5556C149.918 49.3876 149.774 50.1556 149.486 50.8596C149.198 51.5636 148.806 52.1796 148.31 52.7076C147.814 53.2196 147.238 53.6196 146.582 53.9076C145.926 54.1956 145.23 54.3396 144.494 54.3396ZM139.694 59.3316C139.262 59.3316 138.942 59.2676 138.734 59.1396C138.526 59.0116 138.398 58.8436 138.35 58.6356C138.302 58.4276 138.278 58.1876 138.278 57.9156V44.1156C138.278 43.8436 138.302 43.6036 138.35 43.3956C138.398 43.1876 138.518 43.0196 138.71 42.8916C138.918 42.7476 139.238 42.6756 139.67 42.6756C140.086 42.6756 140.414 42.7396 140.654 42.8676C140.894 42.9956 141.054 43.2116 141.134 43.5156V57.8916C141.15 58.1636 141.126 58.4036 141.062 58.6116C141.014 58.8356 140.886 59.0116 140.678 59.1396C140.47 59.2676 140.142 59.3316 139.694 59.3316ZM144.11 51.6516C144.67 51.6516 145.174 51.5236 145.622 51.2676C146.07 50.9956 146.422 50.6276 146.678 50.1636C146.95 49.6836 147.086 49.1476 147.086 48.5556C147.086 47.9476 146.95 47.4116 146.678 46.9476C146.422 46.4836 146.07 46.1236 145.622 45.8676C145.174 45.5956 144.67 45.4596 144.11 45.4596C143.566 45.4596 143.07 45.5956 142.622 45.8676C142.174 46.1396 141.814 46.5076 141.542 46.9716C141.286 47.4196 141.158 47.9476 141.158 48.5556C141.158 49.1476 141.286 49.6836 141.542 50.1636C141.814 50.6276 142.174 50.9956 142.622 51.2676C143.07 51.5236 143.566 51.6516 144.11 51.6516ZM157.465 54.6516C156.697 54.6516 155.945 54.5076 155.209 54.2196C154.489 53.9156 153.833 53.4916 153.241 52.9476C152.665 52.4036 152.201 51.7636 151.849 51.0276C151.513 50.2916 151.345 49.4836 151.345 48.6036C151.345 47.7556 151.505 46.9636 151.825 46.2276C152.145 45.4916 152.585 44.8436 153.145 44.2836C153.705 43.7236 154.345 43.2916 155.065 42.9876C155.801 42.6676 156.585 42.5076 157.417 42.5076C158.537 42.5076 159.553 42.7796 160.465 43.3236C161.377 43.8516 162.105 44.5716 162.649 45.4836C163.193 46.3956 163.465 47.4276 163.465 48.5796C163.465 49.4916 163.297 50.3236 162.961 51.0756C162.625 51.8116 162.169 52.4516 161.593 52.9956C161.017 53.5236 160.369 53.9316 159.649 54.2196C158.945 54.5076 158.217 54.6516 157.465 54.6516ZM157.417 51.8196C157.945 51.8196 158.449 51.6916 158.929 51.4356C159.425 51.1636 159.825 50.7796 160.129 50.2836C160.449 49.7876 160.609 49.2036 160.609 48.5316C160.609 47.9076 160.465 47.3556 160.177 46.8756C159.905 46.3956 159.529 46.0196 159.049 45.7476C158.569 45.4756 158.017 45.3396 157.393 45.3396C156.801 45.3396 156.265 45.4836 155.785 45.7716C155.305 46.0436 154.921 46.4276 154.633 46.9236C154.361 47.4036 154.225 47.9476 154.225 48.5556C154.225 49.2276 154.377 49.8116 154.681 50.3076C154.985 50.7876 155.377 51.1636 155.857 51.4356C156.353 51.6916 156.873 51.8196 157.417 51.8196ZM169.48 54.5076C168.888 54.5076 168.36 54.4676 167.896 54.3876C167.448 54.3076 167.056 54.1716 166.72 53.9796C166.4 53.7876 166.136 53.5316 165.928 53.2116C165.72 52.8756 165.56 52.4676 165.448 51.9876C165.352 51.5076 165.304 50.9316 165.304 50.2596V38.6916C165.304 38.4196 165.328 38.1796 165.376 37.9716C165.44 37.7476 165.568 37.5716 165.76 37.4436C165.968 37.2996 166.296 37.2276 166.744 37.2276C167.192 37.2276 167.512 37.2916 167.704 37.4196C167.912 37.5476 168.04 37.7236 168.088 37.9476C168.152 38.1556 168.184 38.3956 168.184 38.6676V50.1396C168.184 50.4436 168.2 50.6996 168.232 50.9076C168.28 51.0996 168.352 51.2596 168.448 51.3876C168.56 51.4996 168.696 51.5796 168.856 51.6276C169.032 51.6756 169.24 51.6996 169.48 51.6996C169.688 51.6996 169.872 51.7236 170.032 51.7716C170.208 51.8196 170.344 51.9396 170.44 52.1316C170.552 52.3236 170.608 52.6356 170.608 53.0676C170.608 53.5156 170.552 53.8436 170.44 54.0516C170.344 54.2596 170.208 54.3876 170.032 54.4356C169.856 54.4836 169.672 54.5076 169.48 54.5076ZM182.176 54.4596C181.712 54.4596 181.368 54.3716 181.144 54.1956C180.92 54.0196 180.808 53.7796 180.808 53.4756L180.976 52.6836C180.848 52.8916 180.632 53.1396 180.328 53.4276C180.024 53.6996 179.624 53.9476 179.128 54.1716C178.632 54.3796 178.032 54.4836 177.328 54.4836C176.576 54.4836 175.864 54.3316 175.192 54.0276C174.536 53.7076 173.952 53.2756 173.44 52.7316C172.944 52.1716 172.544 51.5396 172.24 50.8356C171.952 50.1156 171.808 49.3476 171.808 48.5316C171.808 47.7476 171.952 47.0116 172.24 46.3236C172.544 45.6196 172.952 44.9956 173.464 44.4516C173.976 43.9076 174.56 43.4836 175.216 43.1796C175.888 42.8596 176.592 42.6996 177.328 42.6996C177.984 42.6996 178.536 42.7876 178.984 42.9636C179.448 43.1396 179.84 43.3636 180.16 43.6356C180.48 43.8916 180.744 44.1636 180.952 44.4516L180.808 43.7556C180.808 43.4036 180.92 43.1396 181.144 42.9636C181.368 42.7716 181.72 42.6756 182.2 42.6756C182.648 42.6756 182.968 42.7476 183.16 42.8916C183.352 43.0196 183.472 43.2036 183.52 43.4436C183.568 43.6676 183.592 43.9236 183.592 44.2116V52.9956C183.592 53.2676 183.568 53.5156 183.52 53.7396C183.472 53.9636 183.344 54.1396 183.136 54.2676C182.944 54.3956 182.624 54.4596 182.176 54.4596ZM177.76 51.6756C178.304 51.6756 178.792 51.5396 179.224 51.2676C179.656 50.9956 180 50.6276 180.256 50.1636C180.528 49.6836 180.664 49.1556 180.664 48.5796C180.664 47.9556 180.528 47.4116 180.256 46.9476C179.984 46.4836 179.624 46.1236 179.176 45.8676C178.744 45.5956 178.256 45.4596 177.712 45.4596C177.12 45.4596 176.592 45.6036 176.128 45.8916C175.664 46.1636 175.296 46.5396 175.024 47.0196C174.768 47.4836 174.64 48.0116 174.64 48.6036C174.64 49.1796 174.776 49.6996 175.048 50.1636C175.32 50.6276 175.688 50.9956 176.152 51.2676C176.632 51.5396 177.168 51.6756 177.76 51.6756ZM201.559 54.4596C201.095 54.4596 200.751 54.3716 200.527 54.1956C200.303 54.0196 200.191 53.7796 200.191 53.4756L200.359 52.6836C200.231 52.8916 200.015 53.1396 199.711 53.4276C199.407 53.6996 199.007 53.9476 198.511 54.1716C198.015 54.3796 197.415 54.4836 196.711 54.4836C195.959 54.4836 195.247 54.3316 194.575 54.0276C193.919 53.7076 193.335 53.2756 192.823 52.7316C192.327 52.1716 191.927 51.5396 191.623 50.8356C191.335 50.1156 191.191 49.3476 191.191 48.5316C191.191 47.7476 191.335 47.0116 191.623 46.3236C191.927 45.6196 192.335 44.9956 192.847 44.4516C193.359 43.9076 193.943 43.4836 194.599 43.1796C195.271 42.8596 195.975 42.6996 196.711 42.6996C197.367 42.6996 197.919 42.7876 198.367 42.9636C198.831 43.1396 199.223 43.3636 199.543 43.6356C199.863 43.8916 200.127 44.1636 200.335 44.4516L200.191 43.7556C200.191 43.4036 200.303 43.1396 200.527 42.9636C200.751 42.7716 201.103 42.6756 201.583 42.6756C202.031 42.6756 202.351 42.7476 202.543 42.8916C202.735 43.0196 202.855 43.2036 202.903 43.4436C202.951 43.6676 202.975 43.9236 202.975 44.2116V52.9956C202.975 53.2676 202.951 53.5156 202.903 53.7396C202.855 53.9636 202.727 54.1396 202.519 54.2676C202.327 54.3956 202.007 54.4596 201.559 54.4596ZM197.143 51.6756C197.687 51.6756 198.175 51.5396 198.607 51.2676C199.039 50.9956 199.383 50.6276 199.639 50.1636C199.911 49.6836 200.047 49.1556 200.047 48.5796C200.047 47.9556 199.911 47.4116 199.639 46.9476C199.367 46.4836 199.007 46.1236 198.559 45.8676C198.127 45.5956 197.639 45.4596 197.095 45.4596C196.503 45.4596 195.975 45.6036 195.511 45.8916C195.047 46.1636 194.679 46.5396 194.407 47.0196C194.151 47.4836 194.023 48.0116 194.023 48.6036C194.023 49.1796 194.159 49.6996 194.431 50.1636C194.703 50.6276 195.071 50.9956 195.535 51.2676C196.015 51.5396 196.551 51.6756 197.143 51.6756ZM209.487 54.6516C209.071 54.6516 208.631 54.6036 208.167 54.5076C207.703 54.4276 207.255 54.3076 206.823 54.1476C206.391 53.9716 206.015 53.7716 205.695 53.5476C205.391 53.3076 205.199 53.0436 205.119 52.7556C205.055 52.5956 205.031 52.4436 205.047 52.2996C205.063 52.1396 205.111 51.9796 205.191 51.8196C205.271 51.6436 205.391 51.4676 205.551 51.2916C205.695 51.1156 205.839 51.0196 205.983 51.0036C206.143 50.9716 206.343 51.0196 206.583 51.1476C206.791 51.2276 207.015 51.3316 207.255 51.4596C207.511 51.5876 207.767 51.7156 208.023 51.8436C208.295 51.9716 208.567 52.0756 208.839 52.1556C209.127 52.2356 209.407 52.2756 209.679 52.2756C210.271 52.2756 210.743 52.1796 211.095 51.9876C211.447 51.7796 211.623 51.4916 211.623 51.1236C211.623 50.9156 211.567 50.7316 211.455 50.5716C211.343 50.4116 211.191 50.2836 210.999 50.1876C210.823 50.0756 210.607 49.9796 210.351 49.8996C210.111 49.8036 209.847 49.7236 209.559 49.6596C209.287 49.5796 208.999 49.4916 208.695 49.3956C208.295 49.2836 207.895 49.1476 207.495 48.9876C207.095 48.8276 206.735 48.6196 206.415 48.3636C206.111 48.1076 205.863 47.7876 205.671 47.4036C205.479 47.0196 205.383 46.5396 205.383 45.9636C205.383 45.2436 205.551 44.6356 205.887 44.1396C206.239 43.6276 206.743 43.2356 207.399 42.9636C208.055 42.6916 208.847 42.5556 209.775 42.5556C210.095 42.5556 210.399 42.5796 210.687 42.6276C210.991 42.6756 211.279 42.7476 211.551 42.8436C211.839 42.9236 212.111 43.0276 212.367 43.1556C212.639 43.2836 212.895 43.4276 213.135 43.5876C213.535 43.8116 213.743 44.0756 213.759 44.3796C213.775 44.6676 213.663 44.9796 213.423 45.3156C213.247 45.5396 213.071 45.6996 212.895 45.7956C212.719 45.8756 212.535 45.8756 212.343 45.7956C212.087 45.6676 211.807 45.5316 211.503 45.3876C211.215 45.2276 210.911 45.0916 210.591 44.9796C210.287 44.8676 209.967 44.8116 209.631 44.8116C209.311 44.8116 209.023 44.8596 208.767 44.9556C208.511 45.0516 208.319 45.1876 208.191 45.3636C208.063 45.5396 207.999 45.7476 207.999 45.9876C207.999 46.2116 208.063 46.3956 208.191 46.5396C208.319 46.6836 208.487 46.8036 208.695 46.8996C208.903 46.9956 209.151 47.0836 209.439 47.1636C209.727 47.2276 210.031 47.2916 210.351 47.3556C210.799 47.4516 211.255 47.5716 211.719 47.7156C212.183 47.8596 212.607 48.0596 212.991 48.3156C213.391 48.5716 213.711 48.9156 213.951 49.3476C214.191 49.7636 214.311 50.3076 214.311 50.9796C214.311 52.1476 213.879 53.0516 213.015 53.6916C212.167 54.3316 210.991 54.6516 209.487 54.6516ZM221.294 54.4836C220.558 54.4836 219.878 54.3556 219.254 54.0996C218.646 53.8276 218.11 53.4436 217.646 52.9476C217.182 52.4516 216.822 51.8596 216.566 51.1716C216.31 50.4836 216.182 49.7236 216.182 48.8916V44.1156C216.182 43.8436 216.206 43.6036 216.254 43.3956C216.302 43.1716 216.43 42.9956 216.638 42.8676C216.846 42.7396 217.166 42.6756 217.598 42.6756C218.062 42.6756 218.39 42.7396 218.582 42.8676C218.79 42.9956 218.918 43.1716 218.966 43.3956C219.014 43.6196 219.038 43.8676 219.038 44.1396V48.8916C219.038 49.4676 219.134 49.9636 219.326 50.3796C219.534 50.7956 219.83 51.1236 220.214 51.3636C220.598 51.5876 221.07 51.6996 221.63 51.6996C222.206 51.6996 222.694 51.5876 223.094 51.3636C223.51 51.1236 223.83 50.7956 224.054 50.3796C224.278 49.9476 224.39 49.4516 224.39 48.8916V44.0916C224.39 43.8196 224.414 43.5796 224.462 43.3716C224.51 43.1476 224.638 42.9796 224.846 42.8676C225.054 42.7396 225.382 42.6756 225.83 42.6756C226.278 42.6756 226.598 42.7396 226.79 42.8676C226.982 42.9956 227.102 43.1716 227.15 43.3956C227.214 43.6196 227.246 43.8596 227.246 44.1156V53.1156C227.246 53.3556 227.214 53.5796 227.15 53.7876C227.102 53.9956 226.974 54.1636 226.766 54.2916C226.574 54.4196 226.254 54.4836 225.806 54.4836C225.486 54.4836 225.23 54.4436 225.038 54.3636C224.862 54.2996 224.726 54.2116 224.63 54.0996C224.55 53.9716 224.494 53.8436 224.462 53.7156C224.446 53.5876 224.438 53.4596 224.438 53.3316L224.63 52.6836C224.534 52.8276 224.39 53.0036 224.198 53.2116C224.006 53.4036 223.766 53.6036 223.478 53.8116C223.206 54.0036 222.886 54.1636 222.518 54.2916C222.15 54.4196 221.742 54.4836 221.294 54.4836ZM230.913 54.5076C230.465 54.5076 230.137 54.4356 229.929 54.2916C229.737 54.1636 229.617 53.9876 229.569 53.7636C229.521 53.5396 229.497 53.2996 229.497 53.0436V38.7156C229.497 38.4436 229.521 38.2036 229.569 37.9956C229.633 37.7716 229.761 37.5956 229.953 37.4676C230.161 37.3396 230.489 37.2756 230.937 37.2756C231.385 37.2756 231.705 37.3476 231.897 37.4916C232.105 37.6196 232.233 37.7956 232.281 38.0196C232.345 38.2276 232.377 38.4676 232.377 38.7396V44.1636C232.697 43.7956 233.105 43.4596 233.601 43.1556C234.113 42.8356 234.729 42.6756 235.449 42.6756C236.425 42.6756 237.297 42.9156 238.065 43.3956C238.833 43.8596 239.441 44.5076 239.889 45.3396C240.337 46.1716 240.561 47.1476 240.561 48.2676V53.0676C240.561 53.3236 240.537 53.5636 240.489 53.7876C240.441 53.9956 240.313 54.1636 240.105 54.2916C239.913 54.4196 239.593 54.4836 239.145 54.4836C238.697 54.4836 238.369 54.4196 238.161 54.2916C237.953 54.1636 237.825 53.9956 237.777 53.7876C237.729 53.5636 237.705 53.3076 237.705 53.0196V48.2436C237.705 47.6836 237.609 47.1956 237.417 46.7796C237.225 46.3636 236.937 46.0436 236.553 45.8196C236.185 45.5796 235.721 45.4596 235.161 45.4596C234.409 45.4596 233.777 45.6836 233.265 46.1316C232.753 46.5636 232.457 47.1236 232.377 47.8116V53.0676C232.377 53.3236 232.345 53.5636 232.281 53.7876C232.233 54.0116 232.105 54.1876 231.897 54.3156C231.705 54.4436 231.377 54.5076 230.913 54.5076ZM254.051 54.6516C253.283 54.6516 252.531 54.5076 251.795 54.2196C251.075 53.9156 250.419 53.4916 249.827 52.9476C249.251 52.4036 248.787 51.7636 248.435 51.0276C248.099 50.2916 247.931 49.4836 247.931 48.6036C247.931 47.7556 248.091 46.9636 248.411 46.2276C248.731 45.4916 249.171 44.8436 249.731 44.2836C250.291 43.7236 250.931 43.2916 251.651 42.9876C252.387 42.6676 253.171 42.5076 254.003 42.5076C255.123 42.5076 256.139 42.7796 257.051 43.3236C257.963 43.8516 258.691 44.5716 259.235 45.4836C259.779 46.3956 260.051 47.4276 260.051 48.5796C260.051 49.4916 259.883 50.3236 259.547 51.0756C259.211 51.8116 258.755 52.4516 258.179 52.9956C257.603 53.5236 256.955 53.9316 256.235 54.2196C255.531 54.5076 254.803 54.6516 254.051 54.6516ZM254.003 51.8196C254.531 51.8196 255.035 51.6916 255.515 51.4356C256.011 51.1636 256.411 50.7796 256.715 50.2836C257.035 49.7876 257.195 49.2036 257.195 48.5316C257.195 47.9076 257.051 47.3556 256.763 46.8756C256.491 46.3956 256.115 46.0196 255.635 45.7476C255.155 45.4756 254.603 45.3396 253.979 45.3396C253.387 45.3396 252.851 45.4836 252.371 45.7716C251.891 46.0436 251.507 46.4276 251.219 46.9236C250.947 47.4036 250.811 47.9476 250.811 48.5556C250.811 49.2276 250.963 49.8116 251.267 50.3076C251.571 50.7876 251.963 51.1636 252.443 51.4356C252.939 51.6916 253.459 51.8196 254.003 51.8196ZM263.353 54.5076C262.921 54.5076 262.601 54.4356 262.393 54.2916C262.201 54.1636 262.081 53.9876 262.033 53.7636C261.985 53.5396 261.961 53.2916 261.961 53.0196V44.1156C261.961 43.8276 261.985 43.5796 262.033 43.3716C262.081 43.1476 262.201 42.9796 262.393 42.8676C262.601 42.7396 262.929 42.6756 263.377 42.6756C263.809 42.6756 264.121 42.7316 264.313 42.8436C264.521 42.9556 264.649 43.0996 264.697 43.2756C264.761 43.4356 264.793 43.5956 264.793 43.7556L264.601 44.1876C264.681 44.0596 264.793 43.9076 264.937 43.7316C265.081 43.5396 265.273 43.3556 265.513 43.1796C265.753 42.9876 266.041 42.8356 266.377 42.7236C266.713 42.5956 267.113 42.5316 267.577 42.5316C267.769 42.5316 267.969 42.5556 268.177 42.6036C268.401 42.6356 268.617 42.6916 268.825 42.7716C269.049 42.8356 269.249 42.9236 269.425 43.0356C269.601 43.1476 269.737 43.2836 269.833 43.4436C269.929 43.5876 269.977 43.7556 269.977 43.9476C269.977 44.4596 269.849 44.8916 269.593 45.2436C269.337 45.5956 269.033 45.7716 268.681 45.7716C268.441 45.7716 268.265 45.7476 268.153 45.6996C268.041 45.6516 267.945 45.5956 267.865 45.5316C267.801 45.4676 267.697 45.4116 267.553 45.3636C267.425 45.3156 267.217 45.2916 266.929 45.2916C266.689 45.2916 266.441 45.3316 266.185 45.4116C265.945 45.4916 265.721 45.6116 265.513 45.7716C265.305 45.9316 265.137 46.1396 265.009 46.3956C264.881 46.6356 264.817 46.9156 264.817 47.2356V53.0676C264.817 53.3396 264.793 53.5876 264.745 53.8116C264.697 54.0196 264.569 54.1876 264.361 54.3156C264.153 54.4436 263.817 54.5076 263.353 54.5076ZM280.777 54.4596C280.313 54.4596 279.969 54.3716 279.745 54.1956C279.521 54.0196 279.409 53.7796 279.409 53.4756L279.577 52.6836C279.449 52.8916 279.233 53.1396 278.929 53.4276C278.625 53.6996 278.225 53.9476 277.729 54.1716C277.233 54.3796 276.633 54.4836 275.929 54.4836C275.177 54.4836 274.465 54.3316 273.793 54.0276C273.137 53.7076 272.553 53.2756 272.041 52.7316C271.545 52.1716 271.145 51.5396 270.841 50.8356C270.553 50.1156 270.409 49.3476 270.409 48.5316C270.409 47.7476 270.553 47.0116 270.841 46.3236C271.145 45.6196 271.553 44.9956 272.065 44.4516C272.577 43.9076 273.161 43.4836 273.817 43.1796C274.489 42.8596 275.193 42.6996 275.929 42.6996C276.585 42.6996 277.137 42.7876 277.585 42.9636C278.049 43.1396 278.441 43.3636 278.761 43.6356C279.081 43.8916 279.345 44.1636 279.553 44.4516L279.409 43.7556C279.409 43.4036 279.521 43.1396 279.745 42.9636C279.969 42.7716 280.321 42.6756 280.801 42.6756C281.249 42.6756 281.569 42.7476 281.761 42.8916C281.953 43.0196 282.073 43.2036 282.121 43.4436C282.169 43.6676 282.193 43.9236 282.193 44.2116V52.9956C282.193 53.2676 282.169 53.5156 282.121 53.7396C282.073 53.9636 281.945 54.1396 281.737 54.2676C281.545 54.3956 281.225 54.4596 280.777 54.4596ZM276.361 51.6756C276.905 51.6756 277.393 51.5396 277.825 51.2676C278.257 50.9956 278.601 50.6276 278.857 50.1636C279.129 49.6836 279.265 49.1556 279.265 48.5796C279.265 47.9556 279.129 47.4116 278.857 46.9476C278.585 46.4836 278.225 46.1236 277.777 45.8676C277.345 45.5956 276.857 45.4596 276.313 45.4596C275.721 45.4596 275.193 45.6036 274.729 45.8916C274.265 46.1636 273.897 46.5396 273.625 47.0196C273.369 47.4836 273.241 48.0116 273.241 48.6036C273.241 49.1796 273.377 49.6996 273.649 50.1636C273.921 50.6276 274.289 50.9956 274.753 51.2676C275.233 51.5396 275.769 51.6756 276.361 51.6756ZM286.018 54.4836C285.586 54.4836 285.266 54.4116 285.058 54.2676C284.866 54.1396 284.746 53.9716 284.698 53.7636C284.65 53.5396 284.626 53.2916 284.626 53.0196V44.0436C284.626 43.7876 284.65 43.5556 284.698 43.3476C284.746 43.1396 284.874 42.9796 285.082 42.8676C285.29 42.7396 285.61 42.6756 286.042 42.6756C286.426 42.6756 286.714 42.7236 286.906 42.8196C287.098 42.9156 287.226 43.0356 287.29 43.1796C287.354 43.3236 287.386 43.4676 287.386 43.6116C287.402 43.7556 287.418 43.8676 287.434 43.9476L287.338 44.7156C287.434 44.4596 287.594 44.2116 287.818 43.9716C288.042 43.7316 288.314 43.5156 288.634 43.3236C288.954 43.1156 289.298 42.9556 289.666 42.8436C290.05 42.7156 290.442 42.6516 290.842 42.6516C291.594 42.6516 292.266 42.7876 292.858 43.0596C293.45 43.3316 293.954 43.7156 294.37 44.2116C294.802 44.7076 295.13 45.2996 295.354 45.9876C295.578 46.6596 295.69 47.4196 295.69 48.2676V53.0436C295.69 53.3156 295.658 53.5636 295.594 53.7876C295.546 53.9956 295.426 54.1636 295.234 54.2916C295.042 54.4196 294.714 54.4836 294.25 54.4836C293.802 54.4836 293.474 54.4116 293.266 54.2676C293.058 54.1396 292.93 53.9716 292.882 53.7636C292.834 53.5396 292.81 53.2916 292.81 53.0196V48.2436C292.81 47.6676 292.706 47.1716 292.498 46.7556C292.306 46.3396 292.018 46.0196 291.634 45.7956C291.266 45.5716 290.794 45.4596 290.218 45.4596C289.658 45.4596 289.17 45.5796 288.754 45.8196C288.338 46.0436 288.018 46.3636 287.794 46.7796C287.57 47.1956 287.458 47.6836 287.458 48.2436V53.0436C287.458 53.3156 287.434 53.5636 287.386 53.7876C287.338 53.9956 287.21 54.1636 287.002 54.2916C286.81 54.4196 286.482 54.4836 286.018 54.4836ZM303.191 59.3076C302.615 59.3076 302.063 59.2356 301.535 59.0916C301.007 58.9636 300.527 58.7876 300.095 58.5636C299.679 58.3396 299.343 58.0996 299.087 57.8436C298.847 57.5876 298.727 57.3476 298.727 57.1236C298.727 56.8996 298.759 56.7076 298.823 56.5476C298.903 56.3876 299.015 56.2276 299.159 56.0676C299.351 55.8756 299.503 55.7316 299.615 55.6356C299.743 55.5396 299.911 55.4916 300.119 55.4916C300.295 55.4916 300.463 55.5556 300.623 55.6836C300.799 55.8116 300.999 55.9556 301.223 56.1156C301.447 56.2756 301.719 56.4196 302.039 56.5476C302.359 56.6756 302.767 56.7396 303.263 56.7396C303.679 56.7396 304.063 56.6676 304.415 56.5236C304.767 56.3796 305.063 56.1636 305.303 55.8756C305.559 55.6036 305.759 55.2756 305.903 54.8916C306.047 54.5076 306.119 54.0756 306.119 53.5956L306.095 43.6596C306.127 43.2916 306.255 43.0356 306.479 42.8916C306.703 42.7316 307.047 42.6516 307.511 42.6516C307.943 42.6516 308.255 42.7156 308.447 42.8436C308.639 42.9556 308.759 43.1236 308.807 43.3476C308.855 43.5556 308.879 43.7876 308.879 44.0436V53.7636C308.879 54.6436 308.727 55.4276 308.423 56.1156C308.119 56.8036 307.703 57.3796 307.175 57.8436C306.647 58.3236 306.039 58.6836 305.351 58.9236C304.679 59.1796 303.959 59.3076 303.191 59.3076ZM302.927 54.1956C302.175 54.1956 301.471 54.0516 300.815 53.7636C300.175 53.4756 299.607 53.0676 299.111 52.5396C298.631 52.0116 298.247 51.4036 297.959 50.7156C297.687 50.0116 297.551 49.2516 297.551 48.4356C297.551 47.6356 297.687 46.8916 297.959 46.2036C298.247 45.5156 298.631 44.9076 299.111 44.3796C299.607 43.8516 300.175 43.4436 300.815 43.1556C301.471 42.8516 302.167 42.6996 302.903 42.6996C303.623 42.6996 304.247 42.8436 304.775 43.1316C305.319 43.4036 305.767 43.7956 306.119 44.3076C306.471 44.8196 306.735 45.4276 306.911 46.1316C307.103 46.8356 307.199 47.6116 307.199 48.4596C307.199 49.6276 307.039 50.6436 306.719 51.5076C306.399 52.3716 305.927 53.0356 305.303 53.4996C304.679 53.9636 303.887 54.1956 302.927 54.1956ZM303.191 51.4836C303.735 51.4836 304.215 51.3556 304.631 51.0996C305.063 50.8276 305.399 50.4596 305.639 49.9956C305.895 49.5316 306.023 49.0116 306.023 48.4356C306.023 47.8436 305.895 47.3236 305.639 46.8756C305.399 46.4116 305.063 46.0516 304.631 45.7956C304.199 45.5396 303.711 45.4116 303.167 45.4116C302.623 45.4116 302.135 45.5476 301.703 45.8196C301.287 46.0756 300.959 46.4276 300.719 46.8756C300.479 47.3236 300.359 47.8436 300.359 48.4356C300.359 49.0276 300.479 49.5556 300.719 50.0196C300.975 50.4676 301.311 50.8276 301.727 51.0996C302.159 51.3556 302.647 51.4836 303.191 51.4836ZM322.918 54.5076C322.134 54.5076 321.462 54.4276 320.902 54.2676C320.342 54.1076 319.886 53.8596 319.534 53.5236C319.182 53.1876 318.918 52.7556 318.742 52.2276C318.582 51.6836 318.502 51.0436 318.502 50.3076V40.1316C318.502 39.8436 318.526 39.5956 318.574 39.3876C318.638 39.1796 318.766 39.0196 318.958 38.9076C319.166 38.7796 319.486 38.7156 319.918 38.7156C320.366 38.7156 320.686 38.7796 320.878 38.9076C321.086 39.0356 321.214 39.2116 321.262 39.4356C321.326 39.6436 321.358 39.8756 321.358 40.1316V50.2116C321.358 50.5476 321.382 50.8196 321.43 51.0276C321.494 51.2356 321.582 51.3956 321.694 51.5076C321.822 51.6036 321.982 51.6756 322.174 51.7236C322.382 51.7556 322.63 51.7716 322.918 51.7716C323.222 51.7716 323.478 51.7956 323.686 51.8436C323.91 51.8916 324.078 52.0116 324.19 52.2036C324.302 52.3796 324.358 52.6756 324.358 53.0916C324.358 53.5396 324.286 53.8676 324.142 54.0756C324.014 54.2676 323.838 54.3876 323.614 54.4356C323.406 54.4836 323.174 54.5076 322.918 54.5076ZM317.518 42.9156L319.99 42.9396L323.302 42.8436C323.574 42.8436 323.814 42.8756 324.022 42.9396C324.246 42.9876 324.422 43.1156 324.55 43.3236C324.678 43.5156 324.742 43.8356 324.742 44.2836C324.742 44.6996 324.678 45.0116 324.55 45.2196C324.422 45.4276 324.254 45.5636 324.046 45.6276C323.838 45.6756 323.598 45.6996 323.326 45.6996L320.11 45.6516L317.446 45.6756C317.046 45.6596 316.766 45.5476 316.606 45.3396C316.462 45.1156 316.39 44.7556 316.39 44.2596C316.39 43.7956 316.478 43.4596 316.654 43.2516C316.846 43.0276 317.134 42.9156 317.518 42.9156ZM331.427 54.4836C330.691 54.4836 330.011 54.3556 329.387 54.0996C328.779 53.8276 328.243 53.4436 327.779 52.9476C327.315 52.4516 326.955 51.8596 326.699 51.1716C326.443 50.4836 326.315 49.7236 326.315 48.8916V44.1156C326.315 43.8436 326.339 43.6036 326.387 43.3956C326.435 43.1716 326.563 42.9956 326.771 42.8676C326.979 42.7396 327.299 42.6756 327.731 42.6756C328.195 42.6756 328.523 42.7396 328.715 42.8676C328.923 42.9956 329.051 43.1716 329.099 43.3956C329.147 43.6196 329.171 43.8676 329.171 44.1396V48.8916C329.171 49.4676 329.267 49.9636 329.459 50.3796C329.667 50.7956 329.963 51.1236 330.347 51.3636C330.731 51.5876 331.203 51.6996 331.763 51.6996C332.339 51.6996 332.827 51.5876 333.227 51.3636C333.643 51.1236 333.963 50.7956 334.187 50.3796C334.411 49.9476 334.523 49.4516 334.523 48.8916V44.0916C334.523 43.8196 334.547 43.5796 334.595 43.3716C334.643 43.1476 334.771 42.9796 334.979 42.8676C335.187 42.7396 335.515 42.6756 335.963 42.6756C336.411 42.6756 336.731 42.7396 336.923 42.8676C337.115 42.9956 337.235 43.1716 337.283 43.3956C337.347 43.6196 337.379 43.8596 337.379 44.1156V53.1156C337.379 53.3556 337.347 53.5796 337.283 53.7876C337.235 53.9956 337.107 54.1636 336.899 54.2916C336.707 54.4196 336.387 54.4836 335.939 54.4836C335.619 54.4836 335.363 54.4436 335.171 54.3636C334.995 54.2996 334.859 54.2116 334.763 54.0996C334.683 53.9716 334.627 53.8436 334.595 53.7156C334.579 53.5876 334.571 53.4596 334.571 53.3316L334.763 52.6836C334.667 52.8276 334.523 53.0036 334.331 53.2116C334.139 53.4036 333.899 53.6036 333.611 53.8116C333.339 54.0036 333.019 54.1636 332.651 54.2916C332.283 54.4196 331.875 54.4836 331.427 54.4836ZM349.59 54.4596C349.126 54.4596 348.782 54.3716 348.558 54.1956C348.334 54.0196 348.222 53.7796 348.222 53.4756L348.39 52.6836C348.262 52.8916 348.046 53.1396 347.742 53.4276C347.438 53.6996 347.038 53.9476 346.542 54.1716C346.046 54.3796 345.446 54.4836 344.742 54.4836C343.99 54.4836 343.278 54.3316 342.606 54.0276C341.95 53.7076 341.366 53.2756 340.854 52.7316C340.358 52.1716 339.958 51.5396 339.654 50.8356C339.366 50.1156 339.222 49.3476 339.222 48.5316C339.222 47.7476 339.366 47.0116 339.654 46.3236C339.958 45.6196 340.366 44.9956 340.878 44.4516C341.39 43.9076 341.974 43.4836 342.63 43.1796C343.302 42.8596 344.006 42.6996 344.742 42.6996C345.398 42.6996 345.95 42.7876 346.398 42.9636C346.862 43.1396 347.254 43.3636 347.574 43.6356C347.894 43.8916 348.158 44.1636 348.366 44.4516L348.222 43.7556C348.222 43.4036 348.334 43.1396 348.558 42.9636C348.782 42.7716 349.134 42.6756 349.614 42.6756C350.062 42.6756 350.382 42.7476 350.574 42.8916C350.766 43.0196 350.886 43.2036 350.934 43.4436C350.982 43.6676 351.006 43.9236 351.006 44.2116V52.9956C351.006 53.2676 350.982 53.5156 350.934 53.7396C350.886 53.9636 350.758 54.1396 350.55 54.2676C350.358 54.3956 350.038 54.4596 349.59 54.4596ZM345.174 51.6756C345.718 51.6756 346.206 51.5396 346.638 51.2676C347.07 50.9956 347.414 50.6276 347.67 50.1636C347.942 49.6836 348.078 49.1556 348.078 48.5796C348.078 47.9556 347.942 47.4116 347.67 46.9476C347.398 46.4836 347.038 46.1236 346.59 45.8676C346.158 45.5956 345.67 45.4596 345.126 45.4596C344.534 45.4596 344.006 45.6036 343.542 45.8916C343.078 46.1636 342.71 46.5396 342.438 47.0196C342.182 47.4836 342.054 48.0116 342.054 48.6036C342.054 49.1796 342.19 49.6996 342.462 50.1636C342.734 50.6276 343.102 50.9956 343.566 51.2676C344.046 51.5396 344.582 51.6756 345.174 51.6756ZM353.558 56.9796C353.558 56.9796 353.526 56.9636 353.462 56.9316C353.398 56.9156 353.334 56.8516 353.27 56.7396C353.206 56.6436 353.174 56.4836 353.174 56.2596C353.174 55.9556 353.222 55.7556 353.318 55.6596C353.414 55.5796 353.478 55.5316 353.51 55.5156C353.526 55.4996 353.638 55.4036 353.846 55.2276C354.054 55.0676 354.174 54.7876 354.206 54.3876C354.046 54.3556 353.902 54.3156 353.774 54.2676C353.662 54.2036 353.566 54.1316 353.486 54.0516C353.326 53.8916 353.23 53.7076 353.198 53.4996C353.166 53.2756 353.15 53.0516 353.15 52.8276C353.15 52.4596 353.19 52.1556 353.27 51.9156C353.35 51.6756 353.502 51.4996 353.726 51.3876C353.966 51.2596 354.318 51.1956 354.782 51.1956C355.39 51.1956 355.822 51.3236 356.078 51.5796C356.222 51.7236 356.302 51.9076 356.318 52.1316C356.35 52.3556 356.366 52.5796 356.366 52.8036C356.366 52.9636 356.366 53.0996 356.366 53.2116C356.366 53.3076 356.358 53.3956 356.342 53.4756C356.278 54.1156 356.11 54.6996 355.838 55.2276C355.582 55.7556 355.254 56.1796 354.854 56.4996C354.47 56.8196 354.038 56.9796 353.558 56.9796ZM354.734 46.5636C354.126 46.5636 353.702 46.4436 353.462 46.2036C353.238 45.9476 353.126 45.5396 353.126 44.9796C353.126 44.5636 353.166 44.2356 353.246 43.9956C353.342 43.7556 353.51 43.5876 353.75 43.4916C354.006 43.3796 354.342 43.3236 354.758 43.3236C355.382 43.3236 355.806 43.4436 356.03 43.6836C356.254 43.9236 356.366 44.3476 356.366 44.9556C356.366 45.2436 356.334 45.5156 356.27 45.7716C356.206 46.0116 356.062 46.2036 355.838 46.3476C355.614 46.4916 355.246 46.5636 354.734 46.5636ZM95.1788 83.4836C94.7628 83.4836 94.4508 83.4116 94.2428 83.2676C94.0348 83.1396 93.8988 82.9636 93.8348 82.7396C93.7708 82.5156 93.7388 82.2756 93.7388 82.0196V68.1476C93.7388 67.8916 93.7628 67.6596 93.8108 67.4516C93.8748 67.2276 94.0108 67.0516 94.2188 66.9236C94.4268 66.7796 94.7548 66.7076 95.2028 66.7076L99.7148 66.7316C100.883 66.7316 101.955 66.9316 102.931 67.3316C103.923 67.7316 104.779 68.2996 105.499 69.0356C106.219 69.7716 106.771 70.6516 107.155 71.6756C107.555 72.6836 107.755 73.7956 107.755 75.0116C107.755 76.2596 107.555 77.4036 107.155 78.4436C106.755 79.4836 106.195 80.3796 105.475 81.1316C104.755 81.8836 103.899 82.4676 102.907 82.8836C101.931 83.2836 100.843 83.4836 99.6428 83.4836H95.1788ZM96.6428 80.5796H99.7148C100.739 80.5796 101.635 80.3556 102.403 79.9076C103.171 79.4436 103.763 78.8036 104.179 77.9876C104.611 77.1716 104.827 76.2196 104.827 75.1316C104.827 74.0276 104.611 73.0676 104.179 72.2516C103.763 71.4196 103.163 70.7796 102.379 70.3316C101.611 69.8676 100.715 69.6356 99.6908 69.6356H96.6428V80.5796ZM119.867 83.4596C119.403 83.4596 119.059 83.3716 118.835 83.1956C118.611 83.0196 118.499 82.7796 118.499 82.4756L118.667 81.6836C118.539 81.8916 118.323 82.1396 118.019 82.4276C117.715 82.6996 117.315 82.9476 116.819 83.1716C116.323 83.3796 115.723 83.4836 115.019 83.4836C114.267 83.4836 113.555 83.3316 112.883 83.0276C112.227 82.7076 111.643 82.2756 111.131 81.7316C110.635 81.1716 110.235 80.5396 109.931 79.8356C109.643 79.1156 109.499 78.3476 109.499 77.5316C109.499 76.7476 109.643 76.0116 109.931 75.3236C110.235 74.6196 110.643 73.9956 111.155 73.4516C111.667 72.9076 112.251 72.4836 112.907 72.1796C113.579 71.8596 114.283 71.6996 115.019 71.6996C115.675 71.6996 116.227 71.7876 116.675 71.9636C117.139 72.1396 117.531 72.3636 117.851 72.6356C118.171 72.8916 118.435 73.1636 118.643 73.4516L118.499 72.7556C118.499 72.4036 118.611 72.1396 118.835 71.9636C119.059 71.7716 119.411 71.6756 119.891 71.6756C120.339 71.6756 120.659 71.7476 120.851 71.8916C121.043 72.0196 121.163 72.2036 121.211 72.4436C121.259 72.6676 121.283 72.9236 121.283 73.2116V81.9956C121.283 82.2676 121.259 82.5156 121.211 82.7396C121.163 82.9636 121.035 83.1396 120.827 83.2676C120.635 83.3956 120.315 83.4596 119.867 83.4596ZM115.451 80.6756C115.995 80.6756 116.483 80.5396 116.915 80.2676C117.347 79.9956 117.691 79.6276 117.947 79.1636C118.219 78.6836 118.355 78.1556 118.355 77.5796C118.355 76.9556 118.219 76.4116 117.947 75.9476C117.675 75.4836 117.315 75.1236 116.867 74.8676C116.435 74.5956 115.947 74.4596 115.403 74.4596C114.811 74.4596 114.283 74.6036 113.819 74.8916C113.355 75.1636 112.987 75.5396 112.715 76.0196C112.459 76.4836 112.331 77.0116 112.331 77.6036C112.331 78.1796 112.467 78.6996 112.739 79.1636C113.011 79.6276 113.379 79.9956 113.843 80.2676C114.323 80.5396 114.859 80.6756 115.451 80.6756ZM125.083 83.4836C124.651 83.4836 124.331 83.4196 124.123 83.2916C123.931 83.1636 123.811 82.9876 123.763 82.7636C123.715 82.5396 123.691 82.2996 123.691 82.0436V73.0676C123.691 72.8116 123.715 72.5796 123.763 72.3716C123.811 72.1636 123.939 71.9956 124.147 71.8676C124.355 71.7396 124.683 71.6756 125.131 71.6756C125.595 71.6756 125.931 71.7716 126.139 71.9636C126.363 72.1556 126.475 72.4596 126.475 72.8756L126.259 73.5476C126.339 73.3716 126.475 73.1796 126.667 72.9716C126.859 72.7636 127.091 72.5556 127.363 72.3476C127.651 72.1396 127.971 71.9716 128.323 71.8436C128.675 71.7156 129.043 71.6516 129.427 71.6516C129.955 71.6516 130.435 71.7396 130.867 71.9156C131.315 72.0916 131.707 72.3476 132.043 72.6836C132.395 73.0196 132.699 73.4276 132.955 73.9076C133.227 73.4916 133.531 73.1156 133.867 72.7796C134.203 72.4276 134.595 72.1556 135.043 71.9636C135.491 71.7556 135.995 71.6516 136.555 71.6516C137.483 71.6516 138.259 71.8836 138.883 72.3476C139.523 72.8116 140.003 73.4756 140.323 74.3396C140.659 75.1876 140.827 76.2036 140.827 77.3876V82.0436C140.827 82.3156 140.795 82.5636 140.731 82.7876C140.683 82.9956 140.555 83.1636 140.347 83.2916C140.155 83.4196 139.835 83.4836 139.387 83.4836C138.939 83.4836 138.611 83.4116 138.403 83.2676C138.195 83.1396 138.067 82.9716 138.019 82.7636C137.971 82.5396 137.947 82.2916 137.947 82.0196V77.3636C137.947 76.7716 137.875 76.2596 137.731 75.8276C137.587 75.3956 137.371 75.0596 137.083 74.8196C136.811 74.5796 136.451 74.4596 136.003 74.4596C135.523 74.4596 135.107 74.5796 134.755 74.8196C134.419 75.0436 134.155 75.3716 133.963 75.8036C133.771 76.2356 133.675 76.7636 133.675 77.3876V82.0676C133.675 82.3396 133.635 82.5956 133.555 82.8356C133.475 83.0596 133.315 83.2276 133.075 83.3396C132.851 83.4676 132.523 83.5156 132.091 83.4836C131.691 83.4676 131.395 83.3876 131.203 83.2436C131.027 83.0996 130.915 82.9236 130.867 82.7156C130.835 82.4916 130.819 82.2596 130.819 82.0196V77.3636C130.819 76.7716 130.747 76.2596 130.603 75.8276C130.459 75.3796 130.243 75.0436 129.955 74.8196C129.683 74.5796 129.315 74.4596 128.851 74.4596C128.355 74.4596 127.931 74.5876 127.579 74.8436C127.243 75.0996 126.987 75.4436 126.811 75.8756C126.635 76.3076 126.547 76.8036 126.547 77.3636V82.0676C126.547 82.3236 126.515 82.5636 126.451 82.7876C126.403 83.0116 126.275 83.1796 126.067 83.2916C125.875 83.4196 125.547 83.4836 125.083 83.4836ZM149.31 83.3396C148.526 83.3396 147.822 83.1956 147.198 82.9076C146.59 82.6036 146.07 82.1876 145.638 81.6596C145.222 81.1156 144.902 80.4916 144.678 79.7876C144.47 79.0836 144.366 78.3236 144.366 77.5076C144.382 76.6916 144.502 75.9316 144.726 75.2276C144.95 74.5076 145.27 73.8836 145.686 73.3556C146.118 72.8276 146.638 72.4116 147.246 72.1076C147.854 71.8036 148.542 71.6516 149.31 71.6516C150.046 71.6516 150.734 71.8036 151.374 72.1076C152.03 72.4116 152.606 72.8356 153.102 73.3796C153.614 73.9236 154.014 74.5556 154.302 75.2756C154.59 75.9796 154.734 76.7396 154.734 77.5556C154.734 78.3876 154.59 79.1556 154.302 79.8596C154.014 80.5636 153.622 81.1796 153.126 81.7076C152.63 82.2196 152.054 82.6196 151.398 82.9076C150.742 83.1956 150.046 83.3396 149.31 83.3396ZM144.51 88.3316C144.078 88.3316 143.758 88.2676 143.55 88.1396C143.342 88.0116 143.214 87.8436 143.166 87.6356C143.118 87.4276 143.094 87.1876 143.094 86.9156V73.1156C143.094 72.8436 143.118 72.6036 143.166 72.3956C143.214 72.1876 143.334 72.0196 143.526 71.8916C143.734 71.7476 144.054 71.6756 144.486 71.6756C144.902 71.6756 145.23 71.7396 145.47 71.8676C145.71 71.9956 145.87 72.2116 145.95 72.5156V86.8916C145.966 87.1636 145.942 87.4036 145.878 87.6116C145.83 87.8356 145.702 88.0116 145.494 88.1396C145.286 88.2676 144.958 88.3316 144.51 88.3316ZM148.926 80.6516C149.486 80.6516 149.99 80.5236 150.438 80.2676C150.886 79.9956 151.238 79.6276 151.494 79.1636C151.766 78.6836 151.902 78.1476 151.902 77.5556C151.902 76.9476 151.766 76.4116 151.494 75.9476C151.238 75.4836 150.886 75.1236 150.438 74.8676C149.99 74.5956 149.486 74.4596 148.926 74.4596C148.382 74.4596 147.886 74.5956 147.438 74.8676C146.99 75.1396 146.63 75.5076 146.358 75.9716C146.102 76.4196 145.974 76.9476 145.974 77.5556C145.974 78.1476 146.102 78.6836 146.358 79.1636C146.63 79.6276 146.99 79.9956 147.438 80.2676C147.886 80.5236 148.382 80.6516 148.926 80.6516ZM166.602 83.4596C166.138 83.4596 165.794 83.3716 165.57 83.1956C165.346 83.0196 165.234 82.7796 165.234 82.4756L165.402 81.6836C165.274 81.8916 165.058 82.1396 164.754 82.4276C164.45 82.6996 164.05 82.9476 163.554 83.1716C163.058 83.3796 162.458 83.4836 161.754 83.4836C161.002 83.4836 160.29 83.3316 159.618 83.0276C158.962 82.7076 158.378 82.2756 157.866 81.7316C157.37 81.1716 156.97 80.5396 156.666 79.8356C156.378 79.1156 156.234 78.3476 156.234 77.5316C156.234 76.7476 156.378 76.0116 156.666 75.3236C156.97 74.6196 157.378 73.9956 157.89 73.4516C158.402 72.9076 158.986 72.4836 159.642 72.1796C160.314 71.8596 161.018 71.6996 161.754 71.6996C162.41 71.6996 162.962 71.7876 163.41 71.9636C163.874 72.1396 164.266 72.3636 164.586 72.6356C164.906 72.8916 165.17 73.1636 165.378 73.4516L165.234 72.7556C165.234 72.4036 165.346 72.1396 165.57 71.9636C165.794 71.7716 166.146 71.6756 166.626 71.6756C167.074 71.6756 167.394 71.7476 167.586 71.8916C167.778 72.0196 167.898 72.2036 167.946 72.4436C167.994 72.6676 168.018 72.9236 168.018 73.2116V81.9956C168.018 82.2676 167.994 82.5156 167.946 82.7396C167.898 82.9636 167.77 83.1396 167.562 83.2676C167.37 83.3956 167.05 83.4596 166.602 83.4596ZM162.186 80.6756C162.73 80.6756 163.218 80.5396 163.65 80.2676C164.082 79.9956 164.426 79.6276 164.682 79.1636C164.954 78.6836 165.09 78.1556 165.09 77.5796C165.09 76.9556 164.954 76.4116 164.682 75.9476C164.41 75.4836 164.05 75.1236 163.602 74.8676C163.17 74.5956 162.682 74.4596 162.138 74.4596C161.546 74.4596 161.018 74.6036 160.554 74.8916C160.09 75.1636 159.722 75.5396 159.45 76.0196C159.194 76.4836 159.066 77.0116 159.066 77.6036C159.066 78.1796 159.202 78.6996 159.474 79.1636C159.746 79.6276 160.114 79.9956 160.578 80.2676C161.058 80.5396 161.594 80.6756 162.186 80.6756ZM179.834 80.9156C180.25 81.2676 180.466 81.5956 180.482 81.8996C180.514 82.2036 180.354 82.5556 180.002 82.9556C179.73 83.2596 179.49 83.4596 179.282 83.5556C179.074 83.6516 178.866 83.6516 178.658 83.5556C178.45 83.4756 178.202 83.3156 177.914 83.0756L173.33 79.2116V82.0676C173.33 82.3236 173.298 82.5636 173.234 82.7876C173.186 83.0116 173.058 83.1876 172.85 83.3156C172.658 83.4436 172.338 83.5076 171.89 83.5076C171.442 83.5076 171.114 83.4356 170.906 83.2916C170.714 83.1636 170.594 82.9876 170.546 82.7636C170.498 82.5396 170.474 82.2996 170.474 82.0436V67.7156C170.474 67.4436 170.498 67.2036 170.546 66.9956C170.61 66.7716 170.738 66.5956 170.93 66.4676C171.138 66.3236 171.466 66.2516 171.914 66.2516C172.362 66.2516 172.682 66.3236 172.874 66.4676C173.066 66.5956 173.186 66.7716 173.234 66.9956C173.298 67.2036 173.33 67.4516 173.33 67.7396V75.6116L176.642 72.3956C176.898 72.1556 177.138 71.9956 177.362 71.9156C177.586 71.8196 177.802 71.8116 178.01 71.8916C178.234 71.9556 178.466 72.1236 178.706 72.3956C179.106 72.8276 179.298 73.1876 179.282 73.4756C179.266 73.7476 179.066 74.0756 178.682 74.4596L175.442 77.4596L179.834 80.9156ZM197.914 83.4596C197.45 83.4596 197.106 83.3716 196.882 83.1956C196.658 83.0196 196.546 82.7796 196.546 82.4756L196.714 81.6836C196.586 81.8916 196.37 82.1396 196.066 82.4276C195.762 82.6996 195.362 82.9476 194.866 83.1716C194.37 83.3796 193.77 83.4836 193.066 83.4836C192.314 83.4836 191.602 83.3316 190.93 83.0276C190.274 82.7076 189.69 82.2756 189.178 81.7316C188.682 81.1716 188.282 80.5396 187.978 79.8356C187.69 79.1156 187.546 78.3476 187.546 77.5316C187.546 76.7476 187.69 76.0116 187.978 75.3236C188.282 74.6196 188.69 73.9956 189.202 73.4516C189.714 72.9076 190.298 72.4836 190.954 72.1796C191.626 71.8596 192.33 71.6996 193.066 71.6996C193.722 71.6996 194.274 71.7876 194.722 71.9636C195.186 72.1396 195.578 72.3636 195.898 72.6356C196.218 72.8916 196.482 73.1636 196.69 73.4516L196.546 72.7556C196.546 72.4036 196.658 72.1396 196.882 71.9636C197.106 71.7716 197.458 71.6756 197.938 71.6756C198.386 71.6756 198.706 71.7476 198.898 71.8916C199.09 72.0196 199.21 72.2036 199.258 72.4436C199.306 72.6676 199.33 72.9236 199.33 73.2116V81.9956C199.33 82.2676 199.306 82.5156 199.258 82.7396C199.21 82.9636 199.082 83.1396 198.874 83.2676C198.682 83.3956 198.362 83.4596 197.914 83.4596ZM193.498 80.6756C194.042 80.6756 194.53 80.5396 194.962 80.2676C195.394 79.9956 195.738 79.6276 195.994 79.1636C196.266 78.6836 196.402 78.1556 196.402 77.5796C196.402 76.9556 196.266 76.4116 195.994 75.9476C195.722 75.4836 195.362 75.1236 194.914 74.8676C194.482 74.5956 193.994 74.4596 193.45 74.4596C192.858 74.4596 192.33 74.6036 191.866 74.8916C191.402 75.1636 191.034 75.5396 190.762 76.0196C190.506 76.4836 190.378 77.0116 190.378 77.6036C190.378 78.1796 190.514 78.6996 190.786 79.1636C191.058 79.6276 191.426 79.9956 191.89 80.2676C192.37 80.5396 192.906 80.6756 193.498 80.6756ZM211.146 80.9156C211.562 81.2676 211.778 81.5956 211.794 81.8996C211.826 82.2036 211.666 82.5556 211.314 82.9556C211.042 83.2596 210.802 83.4596 210.594 83.5556C210.386 83.6516 210.178 83.6516 209.97 83.5556C209.762 83.4756 209.514 83.3156 209.226 83.0756L204.642 79.2116V82.0676C204.642 82.3236 204.61 82.5636 204.546 82.7876C204.498 83.0116 204.37 83.1876 204.162 83.3156C203.97 83.4436 203.65 83.5076 203.202 83.5076C202.754 83.5076 202.426 83.4356 202.218 83.2916C202.026 83.1636 201.906 82.9876 201.858 82.7636C201.81 82.5396 201.786 82.2996 201.786 82.0436V67.7156C201.786 67.4436 201.81 67.2036 201.858 66.9956C201.922 66.7716 202.05 66.5956 202.242 66.4676C202.45 66.3236 202.778 66.2516 203.226 66.2516C203.674 66.2516 203.994 66.3236 204.186 66.4676C204.378 66.5956 204.498 66.7716 204.546 66.9956C204.61 67.2036 204.642 67.4516 204.642 67.7396V75.6116L207.954 72.3956C208.21 72.1556 208.45 71.9956 208.674 71.9156C208.898 71.8196 209.114 71.8116 209.322 71.8916C209.546 71.9556 209.778 72.1236 210.018 72.3956C210.418 72.8276 210.61 73.1876 210.594 73.4756C210.578 73.7476 210.378 74.0756 209.994 74.4596L206.754 77.4596L211.146 80.9156ZM222.781 83.4596C222.317 83.4596 221.973 83.3716 221.749 83.1956C221.525 83.0196 221.413 82.7796 221.413 82.4756L221.581 81.6836C221.453 81.8916 221.237 82.1396 220.933 82.4276C220.629 82.6996 220.229 82.9476 219.733 83.1716C219.237 83.3796 218.637 83.4836 217.933 83.4836C217.181 83.4836 216.469 83.3316 215.797 83.0276C215.141 82.7076 214.557 82.2756 214.045 81.7316C213.549 81.1716 213.149 80.5396 212.845 79.8356C212.557 79.1156 212.413 78.3476 212.413 77.5316C212.413 76.7476 212.557 76.0116 212.845 75.3236C213.149 74.6196 213.557 73.9956 214.069 73.4516C214.581 72.9076 215.165 72.4836 215.821 72.1796C216.493 71.8596 217.197 71.6996 217.933 71.6996C218.589 71.6996 219.141 71.7876 219.589 71.9636C220.053 72.1396 220.445 72.3636 220.765 72.6356C221.085 72.8916 221.349 73.1636 221.557 73.4516L221.413 72.7556C221.413 72.4036 221.525 72.1396 221.749 71.9636C221.973 71.7716 222.325 71.6756 222.805 71.6756C223.253 71.6756 223.573 71.7476 223.765 71.8916C223.957 72.0196 224.077 72.2036 224.125 72.4436C224.173 72.6676 224.197 72.9236 224.197 73.2116V81.9956C224.197 82.2676 224.173 82.5156 224.125 82.7396C224.077 82.9636 223.949 83.1396 223.741 83.2676C223.549 83.3956 223.229 83.4596 222.781 83.4596ZM218.365 80.6756C218.909 80.6756 219.397 80.5396 219.829 80.2676C220.261 79.9956 220.605 79.6276 220.861 79.1636C221.133 78.6836 221.269 78.1556 221.269 77.5796C221.269 76.9556 221.133 76.4116 220.861 75.9476C220.589 75.4836 220.229 75.1236 219.781 74.8676C219.349 74.5956 218.861 74.4596 218.317 74.4596C217.725 74.4596 217.197 74.6036 216.733 74.8916C216.269 75.1636 215.901 75.5396 215.629 76.0196C215.373 76.4836 215.245 77.0116 215.245 77.6036C215.245 78.1796 215.381 78.6996 215.653 79.1636C215.925 79.6276 216.293 79.9956 216.757 80.2676C217.237 80.5396 217.773 80.6756 218.365 80.6756ZM231.693 83.4836C230.957 83.4836 230.261 83.3316 229.605 83.0276C228.949 82.7236 228.373 82.3076 227.877 81.7796C227.381 81.2356 226.989 80.6036 226.701 79.8836C226.413 79.1476 226.269 78.3636 226.269 77.5316C226.269 76.7316 226.413 75.9796 226.701 75.2756C226.989 74.5556 227.381 73.9316 227.877 73.4036C228.389 72.8596 228.973 72.4356 229.629 72.1316C230.285 71.8276 230.973 71.6756 231.693 71.6756C232.461 71.6756 233.149 71.8276 233.757 72.1316C234.365 72.4356 234.877 72.8596 235.293 73.4036C235.725 73.9316 236.053 74.5556 236.277 75.2756C236.501 75.9796 236.621 76.7396 236.637 77.5556C236.637 78.3716 236.525 79.1396 236.301 79.8596C236.093 80.5636 235.773 81.1876 235.341 81.7316C234.925 82.2756 234.405 82.7076 233.781 83.0276C233.173 83.3316 232.477 83.4836 231.693 83.4836ZM232.077 80.6756C232.637 80.6756 233.133 80.5476 233.565 80.2916C234.013 80.0196 234.365 79.6516 234.621 79.1876C234.893 78.7236 235.029 78.1956 235.029 77.6036C235.029 76.9956 234.893 76.4596 234.621 75.9956C234.365 75.5316 234.013 75.1636 233.565 74.8916C233.133 74.6196 232.637 74.4836 232.077 74.4836C231.517 74.4836 231.013 74.6196 230.565 74.8916C230.117 75.1476 229.757 75.5156 229.485 75.9956C229.229 76.4596 229.101 76.9956 229.101 77.6036C229.101 78.1956 229.229 78.7236 229.485 79.1876C229.757 79.6516 230.117 80.0196 230.565 80.2916C231.029 80.5476 231.533 80.6756 232.077 80.6756ZM236.517 83.4836C236.069 83.4836 235.741 83.4116 235.533 83.2676C235.325 83.1076 235.189 82.8596 235.125 82.5236V67.7396C235.125 67.4676 235.141 67.2276 235.173 67.0196C235.221 66.7956 235.341 66.6196 235.533 66.4916C235.741 66.3476 236.061 66.2756 236.493 66.2756C236.957 66.2756 237.285 66.3396 237.477 66.4676C237.669 66.5956 237.789 66.7716 237.837 66.9956C237.901 67.2036 237.933 67.4436 237.933 67.7156V82.0196C237.933 82.2916 237.909 82.5396 237.861 82.7636C237.813 82.9876 237.685 83.1636 237.477 83.2916C237.285 83.4196 236.965 83.4836 236.517 83.4836ZM246.122 83.6516C245.082 83.6516 244.17 83.4836 243.386 83.1476C242.618 82.8116 241.97 82.3556 241.442 81.7796C240.93 81.1876 240.538 80.5316 240.266 79.8116C240.01 79.0756 239.882 78.3156 239.882 77.5316C239.882 76.3796 240.146 75.3556 240.674 74.4596C241.202 73.5636 241.93 72.8596 242.858 72.3476C243.802 71.8356 244.882 71.5796 246.098 71.5796C246.962 71.5796 247.722 71.7156 248.378 71.9876C249.034 72.2596 249.578 72.6196 250.01 73.0676C250.458 73.4996 250.794 73.9796 251.018 74.5076C251.258 75.0356 251.378 75.5476 251.378 76.0436C251.378 76.8916 251.17 77.5076 250.754 77.8916C250.354 78.2756 249.85 78.4676 249.242 78.4676H242.906C242.922 79.0116 243.09 79.4836 243.41 79.8836C243.746 80.2836 244.162 80.5956 244.658 80.8196C245.17 81.0276 245.69 81.1316 246.218 81.1316C246.618 81.1316 246.97 81.1076 247.274 81.0596C247.594 81.0116 247.866 80.9556 248.09 80.8916C248.314 80.8116 248.506 80.7316 248.666 80.6516C248.842 80.5716 249.002 80.4996 249.146 80.4356C249.29 80.3716 249.426 80.3316 249.554 80.3156C249.73 80.2996 249.906 80.3396 250.082 80.4356C250.258 80.5316 250.402 80.6996 250.514 80.9396C250.61 81.0996 250.674 81.2516 250.706 81.3956C250.754 81.5236 250.778 81.6516 250.778 81.7796C250.778 82.0996 250.586 82.4036 250.202 82.6916C249.818 82.9636 249.274 83.1876 248.57 83.3636C247.882 83.5556 247.066 83.6516 246.122 83.6516ZM242.906 76.7636H247.826C248.098 76.7636 248.306 76.7236 248.45 76.6436C248.594 76.5476 248.666 76.3556 248.666 76.0676C248.666 75.6996 248.554 75.3716 248.33 75.0836C248.106 74.7796 247.802 74.5476 247.418 74.3876C247.034 74.2116 246.586 74.1236 246.074 74.1236C245.482 74.1236 244.946 74.2436 244.466 74.4836C243.986 74.7076 243.602 75.0196 243.314 75.4196C243.042 75.8196 242.906 76.2676 242.906 76.7636ZM254.74 83.4836C254.308 83.4836 253.988 83.4196 253.78 83.2916C253.588 83.1636 253.468 82.9876 253.42 82.7636C253.372 82.5396 253.348 82.2996 253.348 82.0436V73.0676C253.348 72.8116 253.372 72.5796 253.42 72.3716C253.468 72.1636 253.596 71.9956 253.804 71.8676C254.012 71.7396 254.34 71.6756 254.788 71.6756C255.252 71.6756 255.588 71.7716 255.796 71.9636C256.02 72.1556 256.132 72.4596 256.132 72.8756L255.916 73.5476C255.996 73.3716 256.132 73.1796 256.324 72.9716C256.516 72.7636 256.748 72.5556 257.02 72.3476C257.308 72.1396 257.628 71.9716 257.98 71.8436C258.332 71.7156 258.7 71.6516 259.084 71.6516C259.612 71.6516 260.092 71.7396 260.524 71.9156C260.972 72.0916 261.364 72.3476 261.7 72.6836C262.052 73.0196 262.356 73.4276 262.612 73.9076C262.884 73.4916 263.188 73.1156 263.524 72.7796C263.86 72.4276 264.252 72.1556 264.7 71.9636C265.148 71.7556 265.652 71.6516 266.212 71.6516C267.14 71.6516 267.916 71.8836 268.54 72.3476C269.18 72.8116 269.66 73.4756 269.98 74.3396C270.316 75.1876 270.484 76.2036 270.484 77.3876V82.0436C270.484 82.3156 270.452 82.5636 270.388 82.7876C270.34 82.9956 270.212 83.1636 270.004 83.2916C269.812 83.4196 269.492 83.4836 269.044 83.4836C268.596 83.4836 268.268 83.4116 268.06 83.2676C267.852 83.1396 267.724 82.9716 267.676 82.7636C267.628 82.5396 267.604 82.2916 267.604 82.0196V77.3636C267.604 76.7716 267.532 76.2596 267.388 75.8276C267.244 75.3956 267.028 75.0596 266.74 74.8196C266.468 74.5796 266.108 74.4596 265.66 74.4596C265.18 74.4596 264.764 74.5796 264.412 74.8196C264.076 75.0436 263.812 75.3716 263.62 75.8036C263.428 76.2356 263.332 76.7636 263.332 77.3876V82.0676C263.332 82.3396 263.292 82.5956 263.212 82.8356C263.132 83.0596 262.972 83.2276 262.732 83.3396C262.508 83.4676 262.18 83.5156 261.748 83.4836C261.348 83.4676 261.052 83.3876 260.86 83.2436C260.684 83.0996 260.572 82.9236 260.524 82.7156C260.492 82.4916 260.476 82.2596 260.476 82.0196V77.3636C260.476 76.7716 260.404 76.2596 260.26 75.8276C260.116 75.3796 259.9 75.0436 259.612 74.8196C259.34 74.5796 258.972 74.4596 258.508 74.4596C258.012 74.4596 257.588 74.5876 257.236 74.8436C256.9 75.0996 256.644 75.4436 256.468 75.8756C256.292 76.3076 256.204 76.8036 256.204 77.3636V82.0676C256.204 82.3236 256.172 82.5636 256.108 82.7876C256.06 83.0116 255.932 83.1796 255.724 83.2916C255.532 83.4196 255.204 83.4836 254.74 83.4836ZM274.43 83.5076C273.998 83.5076 273.678 83.4356 273.47 83.2916C273.262 83.1636 273.134 82.9956 273.086 82.7876C273.038 82.5636 273.014 82.3156 273.014 82.0436V73.1156C273.014 72.8596 273.038 72.6276 273.086 72.4196C273.15 72.1956 273.278 72.0196 273.47 71.8916C273.678 71.7636 274.006 71.6996 274.454 71.6996C274.902 71.6996 275.222 71.7636 275.414 71.8916C275.622 72.0196 275.75 72.1956 275.798 72.4196C275.846 72.6436 275.87 72.8916 275.87 73.1636V82.0676C275.87 82.3396 275.846 82.5876 275.798 82.8116C275.75 83.0196 275.622 83.1876 275.414 83.3156C275.222 83.4436 274.894 83.5076 274.43 83.5076ZM274.43 69.3716C273.966 69.3716 273.622 69.3076 273.398 69.1796C273.19 69.0356 273.054 68.8436 272.99 68.6036C272.942 68.3636 272.918 68.0996 272.918 67.8116C272.918 67.5076 272.942 67.2436 272.99 67.0196C273.054 66.7956 273.198 66.6196 273.422 66.4916C273.646 66.3476 273.99 66.2756 274.454 66.2756C274.934 66.2756 275.278 66.3476 275.486 66.4916C275.694 66.6356 275.83 66.8276 275.894 67.0676C275.958 67.2916 275.99 67.5556 275.99 67.8596C275.99 68.1316 275.958 68.3876 275.894 68.6276C275.83 68.8676 275.694 69.0516 275.486 69.1796C275.278 69.3076 274.926 69.3716 274.43 69.3716ZM287.904 80.9156C288.32 81.2676 288.536 81.5956 288.552 81.8996C288.584 82.2036 288.424 82.5556 288.072 82.9556C287.8 83.2596 287.56 83.4596 287.352 83.5556C287.144 83.6516 286.936 83.6516 286.728 83.5556C286.52 83.4756 286.272 83.3156 285.984 83.0756L281.4 79.2116V82.0676C281.4 82.3236 281.368 82.5636 281.304 82.7876C281.256 83.0116 281.128 83.1876 280.92 83.3156C280.728 83.4436 280.408 83.5076 279.96 83.5076C279.512 83.5076 279.184 83.4356 278.976 83.2916C278.784 83.1636 278.664 82.9876 278.616 82.7636C278.568 82.5396 278.544 82.2996 278.544 82.0436V67.7156C278.544 67.4436 278.568 67.2036 278.616 66.9956C278.68 66.7716 278.808 66.5956 279 66.4676C279.208 66.3236 279.536 66.2516 279.984 66.2516C280.432 66.2516 280.752 66.3236 280.944 66.4676C281.136 66.5956 281.256 66.7716 281.304 66.9956C281.368 67.2036 281.4 67.4516 281.4 67.7396V75.6116L284.712 72.3956C284.968 72.1556 285.208 71.9956 285.432 71.9156C285.656 71.8196 285.872 71.8116 286.08 71.8916C286.304 71.9556 286.536 72.1236 286.776 72.3956C287.176 72.8276 287.368 73.1876 287.352 73.4756C287.336 73.7476 287.136 74.0756 286.752 74.4596L283.512 77.4596L287.904 80.9156Z" fill="black"/>
</svg>
