<svg width="336" height="108" viewBox="0 0 336 108" fill="none" xmlns="http://www.w3.org/2000/svg">
<mask id="mask0_62_1695" style="mask-type:luminance" maskUnits="userSpaceOnUse" x="0" y="0" width="336" height="108">
<path d="M336 0H0V108H336V0Z" fill="white"/>
</mask>
<g mask="url(#mask0_62_1695)">
<mask id="mask1_62_1695" style="mask-type:luminance" maskUnits="userSpaceOnUse" x="7" y="8" width="327" height="100">
<path d="M7.84424 8.3999H333.385V107.419H7.84424V8.3999Z" fill="white"/>
</mask>
<g mask="url(#mask1_62_1695)">
<path d="M13.2627 65.1468L10.413 56.1234L14.9429 46.6874L10.9493 37.2562L8.21191 27.8203L10.1679 17.4187L22.057 16.4109L32.9094 14.0343L43.966 19.3265L54.6959 12.375L65.8036 19.5375L76.6304 16.1671L87.6667 20.6109L98.5803 20.4093L109.54 21.9093L120.387 19.2796L130.719 15.3984L141.096 13.1062L151.474 10.889L161.938 11.8921L172.468 15.4125L182.984 18.3093L193.412 18.0656L203.616 9.27651L214.254 16.8187L224.703 17.2546L234.983 11.2312L245.351 8.58276L256.121 11.6156L267.28 13.289L275.895 21.0562L286.748 22.8656L295.946 29.1046L309.367 24.0375L319.371 28.1015L332.931 33.4593L325.479 45.3046L325.214 55.8843L314.464 62.8734L310.695 72.2531L313.989 84.0562L308.759 92.939L306.088 104.377L290.517 98.7703L280.002 105.689L268.991 98.9906L258.537 107.841L247.49 99.8718L236.766 101.189L225.964 100.223L215.413 107.039L204.586 105.309L193.892 109.102L183.418 103.069L172.387 107.752L162.188 104.442L151.811 103.795L141.377 104.255L130.959 104.372L120.816 99.4874L110.372 100.083L100.25 94.6312L89.2703 105.084L79.4342 94.3499L68.5103 103.884L58.4955 96.5203L48.3019 92.2078L37.5006 99.6515L22.8997 100.397L24.7535 88.3265L19.146 81.2062L9.24864 75.2203L13.2627 65.1468Z" fill="black"/>
<path d="M13.2627 65.1468L10.413 56.1234L14.9429 46.6874L10.9493 37.2562L8.21191 27.8203L10.1679 17.4187L22.057 16.4109L32.9094 14.0343L43.966 19.3265L54.6959 12.375L65.8036 19.5375L76.6304 16.1671L87.6667 20.6109L98.5803 20.4093L109.54 21.9093L120.387 19.2796L130.719 15.3984L141.096 13.1062L151.474 10.889L161.938 11.8921L172.468 15.4125L182.984 18.3093L193.412 18.0656L203.616 9.27651L214.254 16.8187L224.703 17.2546L234.983 11.2312L245.351 8.58276L256.121 11.6156L267.28 13.289L275.895 21.0562L286.748 22.8656L295.946 29.1046L309.367 24.0375L319.371 28.1015L332.931 33.4593L325.479 45.3046L325.214 55.8843L314.464 62.8734L310.695 72.2531L313.989 84.0562L308.759 92.939L306.088 104.377L290.517 98.7703L280.002 105.689L268.991 98.9906L258.537 107.841L247.49 99.8718L236.766 101.189L225.964 100.223L215.413 107.039L204.586 105.309L193.892 109.102L183.418 103.069L172.387 107.752L162.188 104.442L151.811 103.795L141.377 104.255L130.959 104.372L120.816 99.4874L110.372 100.083L100.25 94.6312L89.2703 105.084L79.4342 94.3499L68.5103 103.884L58.4955 96.5203L48.3019 92.2078L37.5006 99.6515L22.8997 100.397L24.7535 88.3265L19.146 81.2062L9.24864 75.2203L13.2627 65.1468Z" fill="black"/>
</g>
<mask id="mask2_62_1695" style="mask-type:luminance" maskUnits="userSpaceOnUse" x="6" y="7" width="328" height="101">
<path d="M6.53687 7.19995H333.972V107.419H6.53687V7.19995Z" fill="white"/>
</mask>
<g mask="url(#mask2_62_1695)">
<path d="M193.821 109.786L183.372 103.777L172.423 108.427L162.05 105.061L151.806 104.391L141.408 104.845L130.8 104.967L120.668 100.083L110.214 100.697L100.368 95.3954L89.2396 105.989L79.3831 95.2314L68.5512 104.695L58.1329 97.0642L48.3887 92.9345L37.7253 100.261L22.103 101.058L24.0538 88.5142L18.6455 81.6517L8.44172 75.4642L12.5631 65.1282L9.70826 56.0813L14.2229 46.6688L10.3007 37.4157L7.52246 27.8485L9.59591 16.8563L21.9804 15.8017L32.9962 13.411L43.9099 18.6329L54.6959 11.6251L65.9108 18.8579L76.6611 15.5063L87.7995 19.9923L98.6212 19.7907L109.499 21.2907L120.163 18.6985L130.555 14.7985L140.923 12.5063L151.417 10.2751L162.152 11.3157L172.678 14.836L183.071 17.686L193.142 17.4563L203.57 8.46572L214.499 16.2095L224.499 16.622L234.682 10.6642L245.345 7.93604L256.264 10.9876L267.592 12.6845L276.217 20.4563L287.013 22.2517L296.027 28.3595L309.357 23.3298L319.632 27.497L333.886 33.1642L326.148 45.4735L325.888 56.2079L315.025 63.2673L311.399 72.2907L314.729 84.136L309.397 93.1548L306.558 105.216L290.599 99.4642L280.002 106.434L269.047 99.7689L258.573 108.666L247.307 100.533L236.781 101.831L226.118 100.87L215.566 107.686L204.653 105.947L193.821 109.786ZM183.469 102.375L193.969 108.417L204.515 104.677L215.255 106.392L225.786 99.5907L236.755 100.58L247.679 99.2298L258.501 107.039L268.924 98.2173L279.986 104.934L290.425 98.072L305.593 103.528L308.126 92.7142L313.279 83.9673L310 72.211L313.892 62.4845L324.555 55.5423L324.816 45.1642L331.981 33.7454L319.111 28.6782L309.352 24.7126L295.849 29.8126L286.472 23.4423L275.574 21.6142L266.958 13.8563L255.907 12.1923L245.325 9.20635L235.249 11.7985L224.871 17.9063L213.999 17.4563L203.647 10.1251L193.647 18.7126L182.851 18.9704L172.234 16.0454L161.785 12.497L151.514 11.5126L141.275 13.7063L130.928 15.9751L120.561 19.8704L109.581 22.5329L98.5344 21.0188L87.5339 21.2298L76.6304 16.8235L65.7015 20.222L54.6959 13.1204L44.0324 20.0438L32.8379 14.6813L22.1183 17.0157L10.7399 17.986L8.89114 27.7923L11.5876 37.0642L15.6681 46.7017L11.128 56.1517L13.9828 65.1704L10.076 74.9767L19.6312 80.7517L25.4634 88.172L23.6861 99.7407L37.2759 99.0517L48.2355 91.5001L58.8989 96.0376L68.4694 103.069L79.4802 93.4595L89.2907 104.17L100.123 93.8579L110.521 99.4642L120.949 98.8501L131.107 103.734L141.357 103.622L151.806 103.158L162.311 103.814L172.305 107.063L183.469 102.375Z" fill="black"/>
</g>
<mask id="mask3_62_1695" style="mask-type:luminance" maskUnits="userSpaceOnUse" x="2" y="0" width="327" height="102">
<path d="M2.61475 0.975098H328.156V102H2.61475V0.975098Z" fill="white"/>
</mask>
<g mask="url(#mask3_62_1695)">
<path d="M8.21729 57.0561L5.37269 48.0279L9.89749 38.592L5.90382 29.1607L3.15625 19.7248L5.12245 9.32793L17.0064 8.31543L27.8639 5.94355L38.9206 11.2311L49.6504 4.27949L60.753 11.4467L71.585 8.06699L82.6212 12.5201L93.5298 12.3139L104.495 13.8232L115.342 11.1889L125.673 7.29824L136.051 5.01074L146.428 2.79824L156.892 3.80137L167.423 7.31699L177.933 10.2139L188.367 9.97012L198.566 1.18105L209.209 8.72793L219.657 9.16387L229.938 3.14043L240.305 0.487305L251.076 3.5248L262.235 5.19355L270.85 12.9654L281.702 14.7748L290.9 21.0092L304.316 15.942L314.326 20.0061L327.885 25.3592L320.434 37.2139L320.168 47.7936L309.418 54.7779L305.649 64.1623L308.948 75.9607L303.714 84.8436L301.038 96.2811L285.471 90.6795L274.956 97.5982L263.945 90.8998L253.491 99.7498L242.44 91.7764L231.715 93.0982L220.919 92.1279L210.363 98.9436L199.541 97.2232L188.847 101.011L178.372 94.9732L167.341 99.6561L157.138 96.3561L146.77 95.6998L136.332 96.1639L125.913 96.2811L115.771 91.392L105.327 91.9873L95.2049 86.5404L84.2248 96.9889L74.3887 86.2592L63.4649 95.7842L53.4449 88.4201L43.2616 84.1123L32.4551 91.5607L17.8491 92.3014L19.708 80.2357L14.1006 73.1107L4.20319 67.1248L8.21729 57.0561Z" fill="white"/>
</g>
<mask id="mask4_62_1695" style="mask-type:luminance" maskUnits="userSpaceOnUse" x="0" y="0" width="333" height="105">
<path d="M0.566895 0.975098H332.078V104.4H0.566895V0.975098Z" fill="white"/>
</mask>
<g mask="url(#mask4_62_1695)">
<path d="M188.596 103.509L178.204 97.5281L167.484 102.08L156.652 98.5688L146.755 97.9594L136.372 98.4141L125.336 98.5406L115.25 93.6563L104.739 94.2656L95.6438 89.3813L84.1224 100.373L74.2046 89.5594L63.6076 98.7703L52.1424 90.3469L43.5575 86.7188L33.3077 93.7641L14.9787 94.6922L17.1134 80.8125L12.3486 74.7563L1.21023 68.0391L5.61247 56.9953L2.77297 47.8688L7.2416 38.5453L3.52881 29.7375L0.653564 19.8281L3.03343 7.25156L16.6078 6.08438L28.1854 3.5625L38.7263 8.60625L49.6451 1.52813L61.146 8.94844L71.6971 5.6625L83.1112 10.2609L93.693 10.0641L104.356 11.5313L114.56 9.05156L124.912 5.15625L135.478 2.83125L146.27 0.520313L157.444 1.59844L168.194 5.18906L178.265 7.95938L187.371 7.74375L198.412 -1.76719L210.097 6.51094L218.993 6.88594L228.921 1.06406L240.341 -1.85156L251.637 1.33594L263.394 3.09375L272.055 10.8797L282.718 12.6563L291.232 18.45L304.342 13.4953L315.306 17.9531L331.373 24.3L322.87 37.8375L322.594 48.9703L311.461 56.2078L308.213 64.2797L311.548 76.2516L306.027 85.6313L302.815 99.3422L285.808 93.2344L274.997 100.345L264.18 93.7641L253.603 102.717L241.725 94.1672L231.73 95.3906L221.552 94.4813L210.888 101.348L199.725 99.5719L188.596 103.509ZM178.551 92.4234L189.107 98.5266L199.26 94.9031L209.755 96.5719L220.224 89.8125L231.648 90.8391L243.119 89.4234L253.338 96.8016L263.664 88.05L274.874 94.8703L285.098 88.1531L299.229 93.2297L301.374 84.0703L306.333 75.6938L303.085 64.0922L307.38 53.4L317.753 46.6828L317.998 36.6141L324.387 26.4563L313.35 22.1016L304.28 18.4359L290.563 23.5641L280.701 16.8844L269.67 15.0563L261.065 7.30781L250.519 5.71875L240.274 2.83125L230.944 5.2125L220.326 11.4328L208.33 10.9406L198.724 4.12969L189.362 12.1922L177.606 12.4641L166.58 9.4125L156.33 5.98594L146.607 5.07188L136.612 7.20469L126.434 9.44531L116.123 13.3219L104.622 16.1109L93.3712 14.5641L82.1205 14.775L71.4571 10.5L60.3698 13.9359L49.6502 7.02656L39.1144 13.8563L27.5368 8.32031L17.4045 10.5375L7.21606 11.4047L5.66353 19.6266L8.23746 28.4625L12.5478 38.6484L7.98212 48.2156L10.8063 57.1688L7.1701 66.2297L15.8316 71.4656L22.2766 79.6547L20.6986 89.9063L31.5816 89.3578L42.9651 81.5109L54.7469 86.4984L63.3012 92.7891L74.5877 83.0203L84.3522 93.6609L94.7756 83.7328L105.955 89.7375L116.337 89.1234L126.505 94.0078L136.26 93.9L146.796 93.4359L157.643 94.1109L167.213 97.2141L178.551 92.4234Z" fill="black"/>
<path d="M188.596 103.509L178.204 97.5281L167.484 102.08L156.652 98.5688L146.755 97.9594L136.372 98.4141L125.336 98.5406L115.25 93.6563L104.739 94.2656L95.6438 89.3813L84.1224 100.373L74.2046 89.5594L63.6076 98.7703L52.1424 90.3469L43.5575 86.7188L33.3077 93.7641L14.9787 94.6922L17.1134 80.8125L12.3486 74.7563L1.21023 68.0391L5.61247 56.9953L2.77297 47.8688L7.2416 38.5453L3.52881 29.7375L0.653564 19.8281L3.03343 7.25156L16.6078 6.08438L28.1854 3.5625L38.7263 8.60625L49.6451 1.52813L61.146 8.94844L71.6971 5.6625L83.1112 10.2609L93.693 10.0641L104.356 11.5313L114.56 9.05156L124.912 5.15625L135.478 2.83125L146.27 0.520313L157.444 1.59844L168.194 5.18906L178.265 7.95938L187.371 7.74375L198.412 -1.76719L210.097 6.51094L218.993 6.88594L228.921 1.06406L240.341 -1.85156L251.637 1.33594L263.394 3.09375L272.055 10.8797L282.718 12.6563L291.232 18.45L304.342 13.4953L315.306 17.9531L331.373 24.3L322.87 37.8375L322.594 48.9703L311.461 56.2078L308.213 64.2797L311.548 76.2516L306.027 85.6313L302.815 99.3422L285.808 93.2344L274.997 100.345L264.18 93.7641L253.603 102.717L241.725 94.1672L231.73 95.3906L221.552 94.4813L210.888 101.348L199.725 99.5719L188.596 103.509ZM178.551 92.4234L189.107 98.5266L199.26 94.9031L209.755 96.5719L220.224 89.8125L231.648 90.8391L243.119 89.4234L253.338 96.8016L263.664 88.05L274.874 94.8703L285.098 88.1531L299.229 93.2297L301.374 84.0703L306.333 75.6938L303.085 64.0922L307.38 53.4L317.753 46.6828L317.998 36.6141L324.387 26.4563L313.35 22.1016L304.28 18.4359L290.563 23.5641L280.701 16.8844L269.67 15.0563L261.065 7.30781L250.519 5.71875L240.274 2.83125L230.944 5.2125L220.326 11.4328L208.33 10.9406L198.724 4.12969L189.362 12.1922L177.606 12.4641L166.58 9.4125L156.33 5.98594L146.607 5.07188L136.612 7.20469L126.434 9.44531L116.123 13.3219L104.622 16.1109L93.3712 14.5641L82.1205 14.775L71.4571 10.5L60.3698 13.9359L49.6502 7.02656L39.1144 13.8563L27.5368 8.32031L17.4045 10.5375L7.21606 11.4047L5.66353 19.6266L8.23746 28.4625L12.5478 38.6484L7.98212 48.2156L10.8063 57.1688L7.1701 66.2297L15.8316 71.4656L22.2766 79.6547L20.6986 89.9063L31.5816 89.3578L42.9651 81.5109L54.7469 86.4984L63.3012 92.7891L74.5877 83.0203L84.3522 93.6609L94.7756 83.7328L105.955 89.7375L116.337 89.1234L126.505 94.0078L136.26 93.9L146.796 93.4359L157.643 94.1109L167.213 97.2141L178.551 92.4234Z" fill="black"/>
</g>
</g>
<path d="M68.8262 61.579C67.9115 61.579 66.9875 61.4483 66.0542 61.187C65.1209 60.907 64.2249 60.4963 63.3662 59.955C62.5075 59.395 61.7422 58.7137 61.0702 57.911C60.4169 57.0897 59.8942 56.147 59.5022 55.083C59.1102 54.0003 58.9142 52.8057 58.9142 51.499C58.9142 50.211 59.1102 49.0537 59.5022 48.027C59.8942 46.9817 60.4169 46.067 61.0702 45.283C61.7422 44.499 62.4982 43.8457 63.3382 43.323C64.1969 42.8003 65.0929 42.4083 66.0262 42.147C66.9782 41.867 67.9209 41.7177 68.8542 41.699C69.8062 41.699 70.6275 41.8017 71.3182 42.007C72.0089 42.2123 72.5689 42.4363 72.9982 42.679C73.4275 42.903 73.7169 43.0617 73.8662 43.155C74.1649 43.3417 74.4449 43.5563 74.7062 43.799C74.9862 44.023 75.1355 44.303 75.1542 44.639C75.1729 44.863 75.1449 45.0683 75.0702 45.255C74.9955 45.423 74.8929 45.6003 74.7622 45.787C74.5382 46.1043 74.3142 46.3377 74.0902 46.487C73.8662 46.6363 73.6422 46.711 73.4182 46.711C73.2129 46.711 73.0169 46.655 72.8302 46.543C72.6622 46.431 72.4475 46.291 72.1862 46.123C72.0742 46.0483 71.8689 45.9363 71.5702 45.787C71.2902 45.619 70.9075 45.4697 70.4222 45.339C69.9555 45.2083 69.3862 45.143 68.7142 45.143C67.9115 45.143 67.1275 45.283 66.3622 45.563C65.5969 45.843 64.9062 46.263 64.2902 46.823C63.6929 47.3643 63.2169 48.0457 62.8622 48.867C62.5075 49.6697 62.3302 50.5937 62.3302 51.639C62.3302 52.6843 62.5075 53.6177 62.8622 54.439C63.2169 55.2417 63.6929 55.923 64.2902 56.483C64.9062 57.0243 65.5969 57.435 66.3622 57.715C67.1275 57.995 67.9115 58.135 68.7142 58.135C69.3489 58.135 69.8902 58.079 70.3382 57.967C70.8049 57.8363 71.1969 57.687 71.5142 57.519C71.8502 57.3323 72.1022 57.1923 72.2702 57.099C72.4755 56.9683 72.6715 56.847 72.8582 56.735C73.0449 56.623 73.2409 56.567 73.4462 56.567C73.6702 56.567 73.8849 56.6417 74.0902 56.791C74.3142 56.9403 74.5289 57.183 74.7342 57.519C74.8649 57.7243 74.9675 57.9203 75.0422 58.107C75.1169 58.2937 75.1449 58.4897 75.1262 58.695C75.1075 59.031 74.9582 59.3203 74.6782 59.563C74.4169 59.787 74.1369 59.983 73.8382 60.151C73.6889 60.2443 73.3995 60.4123 72.9702 60.655C72.5595 60.879 72.0089 61.0843 71.3182 61.271C70.6275 61.4763 69.7969 61.579 68.8262 61.579ZM79.4459 61.467C78.9419 61.467 78.5685 61.383 78.3259 61.215C78.0832 61.0657 77.9339 60.8697 77.8779 60.627C77.8219 60.3657 77.7939 60.0763 77.7939 59.759V49.343C77.7939 49.0443 77.8219 48.7737 77.8779 48.531C77.9525 48.2697 78.1019 48.0643 78.3259 47.915C78.5685 47.7657 78.9512 47.691 79.4739 47.691C79.9965 47.691 80.3699 47.7657 80.5939 47.915C80.8365 48.0643 80.9859 48.2697 81.0419 48.531C81.0979 48.7923 81.1259 49.0817 81.1259 49.399V59.787C81.1259 60.1043 81.0979 60.3937 81.0419 60.655C80.9859 60.8977 80.8365 61.0937 80.5939 61.243C80.3699 61.3923 79.9872 61.467 79.4459 61.467ZM79.4459 44.975C78.9045 44.975 78.5032 44.9003 78.2419 44.751C77.9992 44.583 77.8405 44.359 77.7659 44.079C77.7099 43.799 77.6819 43.491 77.6819 43.155C77.6819 42.8003 77.7099 42.4923 77.7659 42.231C77.8405 41.9697 78.0085 41.7643 78.2699 41.615C78.5312 41.447 78.9325 41.363 79.4739 41.363C80.0339 41.363 80.4352 41.447 80.6779 41.615C80.9205 41.783 81.0792 42.007 81.1539 42.287C81.2285 42.5483 81.2659 42.8563 81.2659 43.211C81.2659 43.5283 81.2285 43.827 81.1539 44.107C81.0792 44.387 80.9205 44.6017 80.6779 44.751C80.4352 44.9003 80.0245 44.975 79.4459 44.975ZM85.841 61.467C85.337 61.467 84.9637 61.383 84.721 61.215C84.497 61.0657 84.357 60.8603 84.301 60.599C84.245 60.3377 84.217 60.0483 84.217 59.731V49.343C84.217 49.007 84.245 48.7177 84.301 48.475C84.357 48.2137 84.497 48.0177 84.721 47.887C84.9637 47.7377 85.3464 47.663 85.869 47.663C86.373 47.663 86.737 47.7283 86.961 47.859C87.2037 47.9897 87.353 48.1577 87.409 48.363C87.4837 48.5497 87.521 48.7363 87.521 48.923L87.297 49.427C87.3904 49.2777 87.521 49.1003 87.689 48.895C87.857 48.671 88.081 48.4563 88.361 48.251C88.641 48.027 88.977 47.8497 89.369 47.719C89.761 47.5697 90.2277 47.495 90.769 47.495C90.993 47.495 91.2264 47.523 91.469 47.579C91.7304 47.6163 91.9824 47.6817 92.225 47.775C92.4864 47.8497 92.7197 47.9523 92.925 48.083C93.1304 48.2137 93.289 48.3723 93.401 48.559C93.513 48.727 93.569 48.923 93.569 49.147C93.569 49.7443 93.4197 50.2483 93.121 50.659C92.8224 51.0697 92.4677 51.275 92.057 51.275C91.777 51.275 91.5717 51.247 91.441 51.191C91.3104 51.135 91.1984 51.0697 91.105 50.995C91.0304 50.9203 90.909 50.855 90.741 50.799C90.5917 50.743 90.349 50.715 90.013 50.715C89.733 50.715 89.4437 50.7617 89.145 50.855C88.865 50.9483 88.6037 51.0883 88.361 51.275C88.1184 51.4617 87.9224 51.7043 87.773 52.003C87.6237 52.283 87.549 52.6097 87.549 52.983V59.787C87.549 60.1043 87.521 60.3937 87.465 60.655C87.409 60.8977 87.2597 61.0937 87.017 61.243C86.7744 61.3923 86.3824 61.467 85.841 61.467ZM97.6021 61.467C97.0981 61.467 96.7248 61.383 96.4821 61.215C96.2394 61.0657 96.0901 60.8697 96.0341 60.627C95.9781 60.3657 95.9501 60.0763 95.9501 59.759V49.343C95.9501 49.0443 95.9781 48.7737 96.0341 48.531C96.1088 48.2697 96.2581 48.0643 96.4821 47.915C96.7248 47.7657 97.1074 47.691 97.6301 47.691C98.1528 47.691 98.5261 47.7657 98.7501 47.915C98.9928 48.0643 99.1421 48.2697 99.1981 48.531C99.2541 48.7923 99.2821 49.0817 99.2821 49.399V59.787C99.2821 60.1043 99.2541 60.3937 99.1981 60.655C99.1421 60.8977 98.9928 61.0937 98.7501 61.243C98.5261 61.3923 98.1434 61.467 97.6021 61.467ZM97.6021 44.975C97.0608 44.975 96.6594 44.9003 96.3981 44.751C96.1554 44.583 95.9968 44.359 95.9221 44.079C95.8661 43.799 95.8381 43.491 95.8381 43.155C95.8381 42.8003 95.8661 42.4923 95.9221 42.231C95.9968 41.9697 96.1648 41.7643 96.4261 41.615C96.6874 41.447 97.0888 41.363 97.6301 41.363C98.1901 41.363 98.5914 41.447 98.8341 41.615C99.0768 41.783 99.2354 42.007 99.3101 42.287C99.3848 42.5483 99.4221 42.8563 99.4221 43.211C99.4221 43.5283 99.3848 43.827 99.3101 44.107C99.2354 44.387 99.0768 44.6017 98.8341 44.751C98.5914 44.9003 98.1808 44.975 97.6021 44.975ZM102.653 55.587C102.411 55.587 102.168 55.559 101.925 55.503C101.701 55.447 101.515 55.307 101.365 55.083C101.235 54.859 101.169 54.495 101.169 53.991C101.169 53.5057 101.235 53.1603 101.365 52.955C101.515 52.731 101.701 52.591 101.925 52.535C102.168 52.4603 102.401 52.423 102.625 52.423H109.597C109.84 52.423 110.073 52.4603 110.297 52.535C110.521 52.591 110.699 52.731 110.829 52.955C110.979 53.1603 111.053 53.515 111.053 54.019C111.053 54.5043 110.979 54.859 110.829 55.083C110.699 55.307 110.521 55.447 110.297 55.503C110.073 55.559 109.831 55.587 109.569 55.587H102.653ZM120.138 61.523C119.242 61.523 118.365 61.3737 117.506 61.075C116.666 60.7577 115.901 60.3003 115.21 59.703C114.538 59.1057 113.997 58.3777 113.586 57.519C113.194 56.6417 112.998 55.6523 112.998 54.551C112.998 53.4497 113.194 52.4697 113.586 51.611C113.997 50.7523 114.538 50.0243 115.21 49.427C115.882 48.8297 116.638 48.3723 117.478 48.055C118.318 47.7377 119.186 47.579 120.082 47.579C120.736 47.579 121.352 47.6723 121.93 47.859C122.528 48.0457 123.041 48.2697 123.47 48.531C123.9 48.7923 124.208 49.0537 124.394 49.315C124.637 49.539 124.842 49.7537 125.01 49.959C125.178 50.1643 125.234 50.4163 125.178 50.715C125.122 50.9017 125.038 51.079 124.926 51.247C124.814 51.3963 124.674 51.555 124.506 51.723C124.058 52.227 123.62 52.4137 123.19 52.283C122.948 52.1523 122.705 52.0123 122.462 51.863C122.22 51.7137 121.968 51.5737 121.706 51.443C121.464 51.2937 121.212 51.1723 120.95 51.079C120.689 50.9857 120.4 50.939 120.082 50.939C119.373 50.939 118.738 51.0977 118.178 51.415C117.637 51.7137 117.208 52.1337 116.89 52.675C116.592 53.2163 116.442 53.8417 116.442 54.551C116.442 55.2603 116.592 55.895 116.89 56.455C117.208 56.9963 117.637 57.4257 118.178 57.743C118.72 58.0417 119.336 58.191 120.026 58.191C120.362 58.191 120.68 58.1537 120.978 58.079C121.296 57.9857 121.576 57.8737 121.818 57.743C122.061 57.5937 122.257 57.4443 122.406 57.295C122.612 57.1643 122.798 57.043 122.966 56.931C123.134 56.819 123.312 56.763 123.498 56.763C123.722 56.763 123.937 56.847 124.142 57.015C124.366 57.1643 124.609 57.407 124.87 57.743C125.113 58.023 125.244 58.2937 125.262 58.555C125.3 58.8163 125.244 59.0683 125.094 59.311C124.964 59.5537 124.74 59.7777 124.422 59.983C124.198 60.207 123.862 60.4403 123.414 60.683C122.985 60.907 122.481 61.103 121.902 61.271C121.342 61.439 120.754 61.523 120.138 61.523ZM129.458 61.467C128.954 61.467 128.58 61.383 128.338 61.215C128.095 61.0657 127.946 60.8697 127.89 60.627C127.834 60.3657 127.806 60.0763 127.806 59.759V49.343C127.806 49.0443 127.834 48.7737 127.89 48.531C127.964 48.2697 128.114 48.0643 128.338 47.915C128.58 47.7657 128.963 47.691 129.486 47.691C130.008 47.691 130.382 47.7657 130.606 47.915C130.848 48.0643 130.998 48.2697 131.054 48.531C131.11 48.7923 131.138 49.0817 131.138 49.399V59.787C131.138 60.1043 131.11 60.3937 131.054 60.655C130.998 60.8977 130.848 61.0937 130.606 61.243C130.382 61.3923 129.999 61.467 129.458 61.467ZM129.458 44.975C128.916 44.975 128.515 44.9003 128.254 44.751C128.011 44.583 127.852 44.359 127.778 44.079C127.722 43.799 127.694 43.491 127.694 43.155C127.694 42.8003 127.722 42.4923 127.778 42.231C127.852 41.9697 128.02 41.7643 128.282 41.615C128.543 41.447 128.944 41.363 129.486 41.363C130.046 41.363 130.447 41.447 130.69 41.615C130.932 41.783 131.091 42.007 131.166 42.287C131.24 42.5483 131.278 42.8563 131.278 43.211C131.278 43.5283 131.24 43.827 131.166 44.107C131.091 44.387 130.932 44.6017 130.69 44.751C130.447 44.9003 130.036 44.975 129.458 44.975ZM135.853 61.467C135.349 61.467 134.975 61.383 134.733 61.215C134.509 61.0657 134.369 60.8603 134.313 60.599C134.257 60.3377 134.229 60.0483 134.229 59.731V49.343C134.229 49.007 134.257 48.7177 134.313 48.475C134.369 48.2137 134.509 48.0177 134.733 47.887C134.975 47.7377 135.358 47.663 135.881 47.663C136.385 47.663 136.749 47.7283 136.973 47.859C137.215 47.9897 137.365 48.1577 137.421 48.363C137.495 48.5497 137.533 48.7363 137.533 48.923L137.309 49.427C137.402 49.2777 137.533 49.1003 137.701 48.895C137.869 48.671 138.093 48.4563 138.373 48.251C138.653 48.027 138.989 47.8497 139.381 47.719C139.773 47.5697 140.239 47.495 140.781 47.495C141.005 47.495 141.238 47.523 141.481 47.579C141.742 47.6163 141.994 47.6817 142.237 47.775C142.498 47.8497 142.731 47.9523 142.937 48.083C143.142 48.2137 143.301 48.3723 143.413 48.559C143.525 48.727 143.581 48.923 143.581 49.147C143.581 49.7443 143.431 50.2483 143.133 50.659C142.834 51.0697 142.479 51.275 142.069 51.275C141.789 51.275 141.583 51.247 141.453 51.191C141.322 51.135 141.21 51.0697 141.117 50.995C141.042 50.9203 140.921 50.855 140.753 50.799C140.603 50.743 140.361 50.715 140.025 50.715C139.745 50.715 139.455 50.7617 139.157 50.855C138.877 50.9483 138.615 51.0883 138.373 51.275C138.13 51.4617 137.934 51.7043 137.785 52.003C137.635 52.283 137.561 52.6097 137.561 52.983V59.787C137.561 60.1043 137.533 60.3937 137.477 60.655C137.421 60.8977 137.271 61.0937 137.029 61.243C136.786 61.3923 136.394 61.467 135.853 61.467ZM147.614 61.467C147.11 61.467 146.736 61.383 146.494 61.215C146.251 61.0657 146.102 60.8697 146.046 60.627C145.99 60.3657 145.962 60.0763 145.962 59.759V49.343C145.962 49.0443 145.99 48.7737 146.046 48.531C146.12 48.2697 146.27 48.0643 146.494 47.915C146.736 47.7657 147.119 47.691 147.642 47.691C148.164 47.691 148.538 47.7657 148.762 47.915C149.004 48.0643 149.154 48.2697 149.21 48.531C149.266 48.7923 149.294 49.0817 149.294 49.399V59.787C149.294 60.1043 149.266 60.3937 149.21 60.655C149.154 60.8977 149.004 61.0937 148.762 61.243C148.538 61.3923 148.155 61.467 147.614 61.467ZM147.614 44.975C147.072 44.975 146.671 44.9003 146.41 44.751C146.167 44.583 146.008 44.359 145.934 44.079C145.878 43.799 145.85 43.491 145.85 43.155C145.85 42.8003 145.878 42.4923 145.934 42.231C146.008 41.9697 146.176 41.7643 146.438 41.615C146.699 41.447 147.1 41.363 147.642 41.363C148.202 41.363 148.603 41.447 148.846 41.615C149.088 41.783 149.247 42.007 149.322 42.287C149.396 42.5483 149.434 42.8563 149.434 43.211C149.434 43.5283 149.396 43.827 149.322 44.107C149.247 44.387 149.088 44.6017 148.846 44.751C148.603 44.9003 148.192 44.975 147.614 44.975ZM166.498 61.439C165.584 61.439 164.762 61.2617 164.034 60.907C163.325 60.5337 162.718 60.0297 162.214 59.395C161.729 58.7603 161.356 58.0323 161.094 57.211C160.852 56.371 160.73 55.475 160.73 54.523C160.749 53.571 160.889 52.6843 161.15 51.863C161.412 51.023 161.785 50.295 162.27 49.679C162.774 49.0443 163.381 48.5497 164.09 48.195C164.8 47.8403 165.602 47.663 166.498 47.663C167.357 47.663 168.16 47.8403 168.906 48.195C169.672 48.5497 170.344 49.0443 170.922 49.679C171.52 50.295 171.986 51.023 172.322 51.863C172.658 52.6843 172.826 53.5617 172.826 54.495C172.826 55.4657 172.658 56.3803 172.322 57.239C171.986 58.079 171.529 58.8163 170.95 59.451C170.372 60.067 169.7 60.5523 168.934 60.907C168.169 61.2617 167.357 61.439 166.498 61.439ZM166.05 58.163C166.704 58.163 167.292 58.0137 167.814 57.715C168.337 57.3977 168.748 56.9683 169.046 56.427C169.364 55.8857 169.522 55.2697 169.522 54.579C169.522 53.8697 169.364 53.2443 169.046 52.703C168.748 52.143 168.337 51.7137 167.814 51.415C167.292 51.0977 166.704 50.939 166.05 50.939C165.416 50.939 164.837 51.0977 164.314 51.415C163.792 51.7323 163.372 52.1617 163.054 52.703C162.756 53.2443 162.606 53.8697 162.606 54.579C162.606 55.2697 162.756 55.8857 163.054 56.427C163.372 56.9683 163.792 57.3977 164.314 57.715C164.837 58.0137 165.416 58.163 166.05 58.163ZM160.87 61.467C160.366 61.467 159.993 61.383 159.75 61.215C159.508 61.0657 159.358 60.8697 159.302 60.627C159.246 60.3657 159.218 60.0763 159.218 59.759V43.071C159.218 42.7537 159.246 42.4737 159.302 42.231C159.358 41.9697 159.508 41.7643 159.75 41.615C159.993 41.4657 160.366 41.391 160.87 41.391C161.393 41.391 161.766 41.4657 161.99 41.615C162.214 41.7643 162.354 41.9697 162.41 42.231C162.466 42.4923 162.494 42.7723 162.494 43.071V60.319C162.42 60.7297 162.261 61.019 162.018 61.187C161.794 61.3737 161.412 61.467 160.87 61.467ZM181.065 61.439C180.206 61.439 179.413 61.2897 178.685 60.991C177.976 60.6737 177.35 60.2257 176.809 59.647C176.268 59.0683 175.848 58.3777 175.549 57.575C175.25 56.7723 175.101 55.8857 175.101 54.915V49.343C175.101 49.0257 175.129 48.7457 175.185 48.503C175.241 48.2417 175.39 48.0363 175.633 47.887C175.876 47.7377 176.249 47.663 176.753 47.663C177.294 47.663 177.677 47.7377 177.901 47.887C178.144 48.0363 178.293 48.2417 178.349 48.503C178.405 48.7643 178.433 49.0537 178.433 49.371V54.915C178.433 55.587 178.545 56.1657 178.769 56.651C179.012 57.1363 179.357 57.519 179.805 57.799C180.253 58.0603 180.804 58.191 181.457 58.191C182.129 58.191 182.698 58.0603 183.165 57.799C183.65 57.519 184.024 57.1363 184.285 56.651C184.546 56.147 184.677 55.5683 184.677 54.915V49.315C184.677 48.9977 184.705 48.7177 184.761 48.475C184.817 48.2137 184.966 48.0177 185.209 47.887C185.452 47.7377 185.834 47.663 186.357 47.663C186.88 47.663 187.253 47.7377 187.477 47.887C187.701 48.0363 187.841 48.2417 187.897 48.503C187.972 48.7643 188.009 49.0443 188.009 49.343V59.843C188.009 60.123 187.972 60.3843 187.897 60.627C187.841 60.8697 187.692 61.0657 187.449 61.215C187.225 61.3643 186.852 61.439 186.329 61.439C185.956 61.439 185.657 61.3923 185.433 61.299C185.228 61.2243 185.069 61.1217 184.957 60.991C184.864 60.8417 184.798 60.6923 184.761 60.543C184.742 60.3937 184.733 60.2443 184.733 60.095L184.957 59.339C184.845 59.507 184.677 59.7123 184.453 59.955C184.229 60.179 183.949 60.4123 183.613 60.655C183.296 60.879 182.922 61.0657 182.493 61.215C182.064 61.3643 181.588 61.439 181.065 61.439ZM202.199 61.439C201.546 61.439 200.958 61.3737 200.435 61.243C199.931 61.1123 199.483 60.9163 199.091 60.655C198.699 60.375 198.372 60.039 198.111 59.647C197.85 59.255 197.654 58.7977 197.523 58.275C197.392 57.7337 197.327 57.1363 197.327 56.483V42.987C197.327 42.6697 197.355 42.3897 197.411 42.147C197.467 41.8857 197.616 41.6803 197.859 41.531C198.102 41.3817 198.484 41.307 199.007 41.307C199.511 41.307 199.884 41.3817 200.127 41.531C200.37 41.6803 200.519 41.8857 200.575 42.147C200.65 42.3897 200.687 42.6603 200.687 42.959V56.567C200.687 56.8283 200.715 57.0523 200.771 57.239C200.827 57.4257 200.911 57.5843 201.023 57.715C201.154 57.8457 201.312 57.939 201.499 57.995C201.704 58.051 201.938 58.079 202.199 58.079C202.628 58.079 202.964 58.135 203.207 58.247C203.45 58.359 203.627 58.5363 203.739 58.779C203.851 59.0217 203.907 59.3483 203.907 59.759C203.907 60.151 203.842 60.4777 203.711 60.739C203.599 60.9817 203.412 61.159 203.151 61.271C202.908 61.383 202.591 61.439 202.199 61.439ZM195.115 61.439C194.499 61.439 193.948 61.3737 193.463 61.243C192.978 61.131 192.558 60.9443 192.203 60.683C191.848 60.4217 191.55 60.095 191.307 59.703C191.083 59.311 190.915 58.8537 190.803 58.331C190.691 57.7897 190.635 57.1737 190.635 56.483V42.987C190.635 42.6697 190.663 42.3897 190.719 42.147C190.775 41.8857 190.924 41.6803 191.167 41.531C191.41 41.3817 191.783 41.307 192.287 41.307C192.81 41.307 193.183 41.3817 193.407 41.531C193.65 41.6803 193.799 41.8857 193.855 42.147C193.93 42.3897 193.967 42.6603 193.967 42.959V56.567C193.967 56.9217 194.014 57.211 194.107 57.435C194.219 57.659 194.359 57.827 194.527 57.939C194.695 58.0323 194.891 58.079 195.115 58.079C195.47 58.079 195.75 58.135 195.955 58.247C196.16 58.359 196.3 58.5363 196.375 58.779C196.468 59.0217 196.515 59.3483 196.515 59.759C196.515 60.151 196.468 60.4777 196.375 60.739C196.282 60.9817 196.132 61.159 195.927 61.271C195.722 61.383 195.451 61.439 195.115 61.439ZM209.532 66.983C208.935 66.7217 208.589 66.423 208.496 66.087C208.403 65.7697 208.487 65.3403 208.748 64.799L215.972 48.615C216.233 48.0177 216.513 47.663 216.812 47.551C217.111 47.4203 217.568 47.4857 218.184 47.747C218.763 48.0083 219.099 48.2977 219.192 48.615C219.304 48.9323 219.239 49.3617 218.996 49.903L211.716 66.171C211.473 66.7683 211.203 67.1137 210.904 67.207C210.605 67.319 210.148 67.2443 209.532 66.983ZM212.136 60.123L205.668 50.183C205.332 49.679 205.192 49.259 205.248 48.923C205.323 48.587 205.621 48.2603 206.144 47.943C206.723 47.5883 207.171 47.4483 207.488 47.523C207.824 47.5977 208.16 47.8963 208.496 48.419L213.62 56.399L212.136 60.123ZM223.055 61.467C222.551 61.467 222.178 61.383 221.935 61.215C221.693 61.0657 221.543 60.8697 221.487 60.627C221.431 60.3657 221.403 60.0763 221.403 59.759V49.343C221.403 49.0443 221.431 48.7737 221.487 48.531C221.562 48.2697 221.711 48.0643 221.935 47.915C222.178 47.7657 222.561 47.691 223.083 47.691C223.606 47.691 223.979 47.7657 224.203 47.915C224.446 48.0643 224.595 48.2697 224.651 48.531C224.707 48.7923 224.735 49.0817 224.735 49.399V59.787C224.735 60.1043 224.707 60.3937 224.651 60.655C224.595 60.8977 224.446 61.0937 224.203 61.243C223.979 61.3923 223.597 61.467 223.055 61.467ZM223.055 44.975C222.514 44.975 222.113 44.9003 221.851 44.751C221.609 44.583 221.45 44.359 221.375 44.079C221.319 43.799 221.291 43.491 221.291 43.155C221.291 42.8003 221.319 42.4923 221.375 42.231C221.45 41.9697 221.618 41.7643 221.879 41.615C222.141 41.447 222.542 41.363 223.083 41.363C223.643 41.363 224.045 41.447 224.287 41.615C224.53 41.783 224.689 42.007 224.763 42.287C224.838 42.5483 224.875 42.8563 224.875 43.211C224.875 43.5283 224.838 43.827 224.763 44.107C224.689 44.387 224.53 44.6017 224.287 44.751C224.045 44.9003 223.634 44.975 223.055 44.975ZM229.45 61.439C228.946 61.439 228.573 61.355 228.33 61.187C228.106 61.0377 227.966 60.8417 227.91 60.599C227.854 60.3377 227.826 60.0483 227.826 59.731V49.259C227.826 48.9603 227.854 48.6897 227.91 48.447C227.966 48.2043 228.116 48.0177 228.358 47.887C228.601 47.7377 228.974 47.663 229.478 47.663C229.926 47.663 230.262 47.719 230.486 47.831C230.71 47.943 230.86 48.083 230.934 48.251C231.009 48.419 231.046 48.587 231.046 48.755C231.065 48.923 231.084 49.0537 231.102 49.147L230.99 50.043C231.102 49.7443 231.289 49.455 231.55 49.175C231.812 48.895 232.129 48.643 232.502 48.419C232.876 48.1763 233.277 47.9897 233.706 47.859C234.154 47.7097 234.612 47.635 235.078 47.635C235.956 47.635 236.74 47.7937 237.43 48.111C238.121 48.4283 238.709 48.8763 239.194 49.455C239.698 50.0337 240.081 50.7243 240.342 51.527C240.604 52.311 240.734 53.1977 240.734 54.187V59.759C240.734 60.0763 240.697 60.3657 240.622 60.627C240.566 60.8697 240.426 61.0657 240.202 61.215C239.978 61.3643 239.596 61.439 239.054 61.439C238.532 61.439 238.149 61.355 237.906 61.187C237.664 61.0377 237.514 60.8417 237.458 60.599C237.402 60.3377 237.374 60.0483 237.374 59.731V54.159C237.374 53.487 237.253 52.9083 237.01 52.423C236.786 51.9377 236.45 51.5643 236.002 51.303C235.573 51.0417 235.022 50.911 234.35 50.911C233.697 50.911 233.128 51.051 232.642 51.331C232.157 51.5923 231.784 51.9657 231.522 52.451C231.261 52.9363 231.13 53.5057 231.13 54.159V59.759C231.13 60.0763 231.102 60.3657 231.046 60.627C230.99 60.8697 230.841 61.0657 230.598 61.215C230.374 61.3643 229.992 61.439 229.45 61.439ZM249.486 67.067C248.814 67.067 248.17 66.983 247.554 66.815C246.938 66.6657 246.378 66.4603 245.874 66.199C245.389 65.9377 244.997 65.6577 244.698 65.359C244.418 65.0603 244.278 64.7803 244.278 64.519C244.278 64.2577 244.316 64.0337 244.39 63.847C244.484 63.6603 244.614 63.4737 244.782 63.287C245.006 63.063 245.184 62.895 245.314 62.783C245.464 62.671 245.66 62.615 245.902 62.615C246.108 62.615 246.304 62.6897 246.49 62.839C246.696 62.9883 246.929 63.1563 247.19 63.343C247.452 63.5297 247.769 63.6977 248.142 63.847C248.516 63.9963 248.992 64.071 249.57 64.071C250.056 64.071 250.504 63.987 250.914 63.819C251.325 63.651 251.67 63.399 251.95 63.063C252.249 62.7457 252.482 62.363 252.65 61.915C252.818 61.467 252.902 60.963 252.902 60.403L252.874 48.811C252.912 48.3817 253.061 48.083 253.322 47.915C253.584 47.7283 253.985 47.635 254.526 47.635C255.03 47.635 255.394 47.7097 255.618 47.859C255.842 47.9897 255.982 48.1857 256.038 48.447C256.094 48.6897 256.122 48.9603 256.122 49.259V60.599C256.122 61.6257 255.945 62.5403 255.59 63.343C255.236 64.1457 254.75 64.8177 254.134 65.359C253.518 65.919 252.809 66.339 252.006 66.619C251.222 66.9177 250.382 67.067 249.486 67.067ZM249.178 61.103C248.301 61.103 247.48 60.935 246.714 60.599C245.968 60.263 245.305 59.787 244.726 59.171C244.166 58.555 243.718 57.8457 243.382 57.043C243.065 56.2217 242.906 55.335 242.906 54.383C242.906 53.4497 243.065 52.5817 243.382 51.779C243.718 50.9763 244.166 50.267 244.726 49.651C245.305 49.035 245.968 48.559 246.714 48.223C247.48 47.8683 248.292 47.691 249.15 47.691C249.99 47.691 250.718 47.859 251.334 48.195C251.969 48.5123 252.492 48.9697 252.902 49.567C253.313 50.1643 253.621 50.8737 253.826 51.695C254.05 52.5163 254.162 53.4217 254.162 54.411C254.162 55.7737 253.976 56.959 253.602 57.967C253.229 58.975 252.678 59.7497 251.95 60.291C251.222 60.8323 250.298 61.103 249.178 61.103ZM249.486 57.939C250.121 57.939 250.681 57.7897 251.166 57.491C251.67 57.1737 252.062 56.7443 252.342 56.203C252.641 55.6617 252.79 55.055 252.79 54.383C252.79 53.6923 252.641 53.0857 252.342 52.563C252.062 52.0217 251.67 51.6017 251.166 51.303C250.662 51.0043 250.093 50.855 249.458 50.855C248.824 50.855 248.254 51.0137 247.75 51.331C247.265 51.6297 246.882 52.0403 246.602 52.563C246.322 53.0857 246.182 53.6923 246.182 54.383C246.182 55.0737 246.322 55.6897 246.602 56.231C246.901 56.7537 247.293 57.1737 247.778 57.491C248.282 57.7897 248.852 57.939 249.486 57.939Z" fill="black"/>
</svg>
