<svg width="336" height="153" viewBox="0 0 336 153" fill="none" xmlns="http://www.w3.org/2000/svg">
<mask id="mask0_62_2035" style="mask-type:luminance" maskUnits="userSpaceOnUse" x="0" y="0" width="336" height="153">
<path d="M336 0H0V153H336V0Z" fill="white"/>
</mask>
<g mask="url(#mask0_62_2035)">
<mask id="mask1_62_2035" style="mask-type:luminance" maskUnits="userSpaceOnUse" x="7" y="11" width="327" height="142">
<path d="M7.84424 11.8999H333.385V152.176H7.84424V11.8999Z" fill="white"/>
</mask>
<g mask="url(#mask1_62_2035)">
<path d="M13.2627 92.2913L10.413 79.5081L14.9429 66.1406L10.9493 52.7796L8.21191 39.4121L10.1679 24.6765L22.057 23.2488L32.9094 19.882L43.966 27.3792L54.6959 17.5312L65.8036 27.6781L76.6304 22.9035L87.6667 29.1988L98.5803 28.9132L109.54 31.0382L120.387 27.3128L130.719 21.8144L141.096 18.5671L151.474 15.4261L161.938 16.8472L172.468 21.8343L182.984 25.9382L193.412 25.5929L203.616 13.1417L214.254 23.8265L224.703 24.4441L234.983 15.9109L245.351 12.1589L256.121 16.4554L267.28 18.8261L275.895 29.8296L286.748 32.3929L295.946 41.2316L309.367 34.0531L319.371 39.8105L332.931 47.4007L325.479 64.1816L325.214 79.1695L314.464 89.0706L310.695 102.359L313.989 119.08L308.759 131.664L306.088 147.867L290.517 139.925L280.002 149.726L268.991 140.237L258.537 152.774L247.49 141.485L236.766 143.351L225.964 141.983L215.413 151.639L204.586 149.188L193.892 154.56L183.418 146.014L172.387 152.648L162.188 147.96L151.811 147.043L141.377 147.694L130.959 147.86L120.816 140.941L110.372 141.784L100.25 134.061L89.2703 148.869L79.4342 133.662L68.5103 147.169L58.4955 136.737L48.3019 130.628L37.5006 141.173L22.8997 142.229L24.7535 125.129L19.146 115.042L9.24864 106.562L13.2627 92.2913Z" fill="black"/>
<path d="M13.2627 92.2913L10.413 79.5081L14.9429 66.1406L10.9493 52.7796L8.21191 39.4121L10.1679 24.6765L22.057 23.2488L32.9094 19.882L43.966 27.3792L54.6959 17.5312L65.8036 27.6781L76.6304 22.9035L87.6667 29.1988L98.5803 28.9132L109.54 31.0382L120.387 27.3128L130.719 21.8144L141.096 18.5671L151.474 15.4261L161.938 16.8472L172.468 21.8343L182.984 25.9382L193.412 25.5929L203.616 13.1417L214.254 23.8265L224.703 24.4441L234.983 15.9109L245.351 12.1589L256.121 16.4554L267.28 18.8261L275.895 29.8296L286.748 32.3929L295.946 41.2316L309.367 34.0531L319.371 39.8105L332.931 47.4007L325.479 64.1816L325.214 79.1695L314.464 89.0706L310.695 102.359L313.989 119.08L308.759 131.664L306.088 147.867L290.517 139.925L280.002 149.726L268.991 140.237L258.537 152.774L247.49 141.485L236.766 143.351L225.964 141.983L215.413 151.639L204.586 149.188L193.892 154.56L183.418 146.014L172.387 152.648L162.188 147.96L151.811 147.043L141.377 147.694L130.959 147.86L120.816 140.941L110.372 141.784L100.25 134.061L89.2703 148.869L79.4342 133.662L68.5103 147.169L58.4955 136.737L48.3019 130.628L37.5006 141.173L22.8997 142.229L24.7535 125.129L19.146 115.042L9.24864 106.562L13.2627 92.2913Z" fill="black"/>
</g>
<mask id="mask2_62_2035" style="mask-type:luminance" maskUnits="userSpaceOnUse" x="6" y="10" width="328" height="143">
<path d="M6.53687 10.2H333.972V152.177H6.53687V10.2Z" fill="white"/>
</mask>
<g mask="url(#mask2_62_2035)">
<path d="M193.821 155.53L183.372 147.017L172.423 153.604L162.05 148.836L151.806 147.887L141.408 148.531L130.8 148.704L120.668 141.784L110.214 142.654L100.368 135.143L89.2396 150.151L79.3831 134.911L68.5512 148.318L58.1329 137.508L48.3887 131.657L37.7253 142.036L22.103 143.165L24.0538 125.395L18.6455 115.673L8.44172 106.908L12.5631 92.2649L9.70826 79.4485L14.2229 66.1142L10.3007 53.0056L7.52246 39.4521L9.59591 23.8798L21.9804 22.3856L32.9962 18.9989L43.9099 26.3966L54.6959 16.4688L65.9108 26.7153L76.6611 21.9673L87.7995 28.3224L98.6212 28.0368L109.499 30.1618L120.163 26.4896L130.555 20.9646L140.923 17.7173L151.417 14.5563L162.152 16.0306L172.678 21.0177L183.071 25.0552L193.142 24.7298L203.57 11.9931L214.499 22.9634L224.499 23.5478L234.682 15.1075L245.345 11.2427L256.264 15.5657L267.592 17.9696L276.217 28.9798L287.013 31.5231L296.027 40.1759L309.357 33.0505L319.632 38.954L333.886 46.9825L326.148 64.4208L325.888 79.6278L315.025 89.6286L311.399 102.412L314.729 119.193L309.397 131.969L306.558 149.056L290.599 140.908L280.002 150.782L269.047 141.339L258.573 153.943L247.307 142.422L236.781 144.261L226.118 142.9L215.566 152.555L204.653 150.092L193.821 155.53ZM183.469 145.031L193.969 153.591L204.515 148.292L215.255 150.722L225.786 141.087L236.755 142.488L247.679 140.575L258.501 151.639L268.924 139.141L279.986 148.657L290.425 138.935L305.593 146.665L308.126 131.345L313.279 118.954L310 102.299L313.892 88.5196L324.555 78.6849L324.816 63.9825L331.981 47.806L319.111 40.6274L309.352 35.0095L295.849 42.2345L286.472 33.2099L275.574 30.62L266.958 19.6298L255.907 17.2724L245.325 13.0423L235.249 16.7146L224.871 25.3673L213.999 24.7298L203.647 14.3438L193.647 26.5095L182.851 26.8747L172.234 22.731L161.785 17.704L151.514 16.3095L141.275 19.4173L130.928 22.6313L120.561 28.1497L109.581 31.9216L98.5344 29.7767L87.5339 30.0755L76.6304 23.8333L65.7015 28.6478L54.6959 18.5872L44.0324 28.3954L32.8379 20.7985L22.1183 24.1056L10.7399 25.4802L8.89114 39.3724L11.5876 52.5075L15.6681 66.1606L11.128 79.5481L13.9828 92.3247L10.076 106.217L19.6312 114.398L25.4634 124.91L23.6861 141.299L37.2759 140.323L48.2355 129.625L58.8989 136.053L68.4694 146.014L79.4802 132.401L89.2907 147.575L100.123 132.965L110.521 140.908L120.949 140.038L131.107 146.957L141.357 146.798L151.806 146.14L162.311 147.07L172.305 151.672L183.469 145.031Z" fill="black"/>
</g>
<mask id="mask3_62_2035" style="mask-type:luminance" maskUnits="userSpaceOnUse" x="2" y="1" width="327" height="144">
<path d="M2.61475 1.38135H328.156V144.5H2.61475V1.38135Z" fill="white"/>
</mask>
<g mask="url(#mask3_62_2035)">
<path d="M8.21729 80.8295L5.37269 68.0397L9.89749 54.6721L5.90382 41.3111L3.15625 27.9436L5.12245 13.2147L17.0064 11.7803L27.8639 8.42012L38.9206 15.9107L49.6504 6.0627L60.753 16.2162L71.585 11.4283L82.6212 17.7369L93.5298 17.4447L104.495 19.583L115.342 15.851L125.673 10.3393L136.051 7.09863L146.428 3.96426L156.892 5.38535L167.423 10.3658L177.933 14.4697L188.367 14.1244L198.566 1.67324L209.209 12.3647L219.657 12.9822L229.938 4.44902L240.305 0.69043L251.076 4.99356L262.235 7.35762L270.85 18.3678L281.702 20.9311L290.9 29.7631L304.316 22.5846L314.326 28.342L327.885 35.9256L320.434 52.7197L320.168 67.7076L309.418 77.6022L305.649 90.8967L308.948 107.611L303.714 120.195L301.038 136.398L285.471 128.463L274.956 138.264L263.945 128.775L253.491 141.312L242.44 130.017L231.715 131.889L220.919 130.515L210.363 140.17L199.541 137.733L188.847 143.099L178.372 134.546L167.341 141.18L157.138 136.505L146.77 135.575L136.332 136.232L125.913 136.398L115.771 129.472L105.327 130.315L95.2049 122.599L84.2248 137.401L74.3887 122.201L63.4649 135.694L53.4449 125.262L43.2616 119.159L32.4551 129.711L17.8491 130.76L19.708 113.667L14.1006 103.574L4.20319 95.0936L8.21729 80.8295Z" fill="white"/>
</g>
<mask id="mask4_62_2035" style="mask-type:luminance" maskUnits="userSpaceOnUse" x="0" y="1" width="333" height="147">
<path d="M0.566895 1.38135H332.078V147.9H0.566895V1.38135Z" fill="white"/>
</mask>
<g mask="url(#mask4_62_2035)">
<path d="M188.596 146.638L178.204 138.165L167.484 144.613L156.652 139.639L146.755 138.776L136.372 139.42L125.336 139.599L115.25 132.68L104.739 133.543L95.6438 126.623L84.1224 142.196L74.2046 126.876L63.6076 139.925L52.1424 127.991L43.5575 122.852L33.3077 132.832L14.9787 134.147L17.1134 114.484L12.3486 105.905L1.21023 96.3887L5.61247 80.7434L2.77297 67.8141L7.2416 54.6059L3.52881 42.1281L0.653564 28.0898L3.03343 10.273L16.6078 8.61953L28.1854 5.04688L38.7263 12.1922L49.6451 2.16485L61.146 12.677L71.6971 8.02188L83.1112 14.5363L93.693 14.2574L104.356 16.3359L114.56 12.823L124.912 7.30469L135.478 4.01094L146.27 0.73711L157.444 2.26445L168.194 7.35117L178.265 11.2758L187.371 10.9703L198.412 -2.50351L210.097 9.22383L218.993 9.75508L228.921 1.50742L240.341 -2.62305L251.637 1.89258L263.394 4.38281L272.055 15.4129L282.718 17.9297L291.232 26.1375L304.342 19.1184L315.306 25.4336L331.373 34.425L322.87 53.6031L322.594 69.3746L311.461 79.6277L308.213 91.0629L311.548 108.023L306.027 121.311L302.815 140.735L285.808 132.082L274.997 142.156L264.18 132.832L253.603 145.516L241.725 133.404L231.73 135.137L221.552 133.848L210.888 143.577L199.725 141.06L188.596 146.638ZM178.551 130.933L189.107 139.579L199.26 134.446L209.755 136.81L220.224 127.234L231.648 128.689L243.119 126.683L253.338 137.136L263.664 124.738L274.874 134.4L285.098 124.884L299.229 132.075L301.374 119.1L306.333 107.233L303.085 90.7973L307.38 75.65L317.753 66.134L317.998 51.8699L324.387 37.4797L313.35 31.3105L304.28 26.1176L290.563 33.3824L280.701 23.9195L269.67 21.3297L261.065 10.3527L250.519 8.10156L240.274 4.01094L230.944 7.38438L220.326 16.1965L208.33 15.4992L198.724 5.85039L189.362 17.2723L177.606 17.6574L166.58 13.3344L156.33 8.48008L146.607 7.18516L136.612 10.2066L126.434 13.3809L116.123 18.8727L104.622 22.8238L93.3712 20.6324L82.1205 20.9313L71.4571 14.875L60.3698 19.7426L49.6502 9.9543L39.1144 19.6297L27.5368 11.7871L17.4045 14.9281L7.21606 16.1566L5.66353 27.8043L8.23746 40.3219L12.5478 54.752L7.98212 68.3055L10.8063 80.9891L7.1701 93.8254L15.8316 101.243L22.2766 112.844L20.6986 127.367L31.5816 126.59L42.9651 115.474L54.7469 122.539L63.3012 131.451L74.5877 117.612L84.3522 132.686L94.7756 118.621L105.955 127.128L116.337 126.258L126.505 133.178L136.26 133.025L146.796 132.368L157.643 133.324L167.213 137.72L178.551 130.933Z" fill="black"/>
<path d="M188.596 146.638L178.204 138.165L167.484 144.613L156.652 139.639L146.755 138.776L136.372 139.42L125.336 139.599L115.25 132.68L104.739 133.543L95.6438 126.623L84.1224 142.196L74.2046 126.876L63.6076 139.925L52.1424 127.991L43.5575 122.852L33.3077 132.832L14.9787 134.147L17.1134 114.484L12.3486 105.905L1.21023 96.3887L5.61247 80.7434L2.77297 67.8141L7.2416 54.6059L3.52881 42.1281L0.653564 28.0898L3.03343 10.273L16.6078 8.61953L28.1854 5.04688L38.7263 12.1922L49.6451 2.16485L61.146 12.677L71.6971 8.02188L83.1112 14.5363L93.693 14.2574L104.356 16.3359L114.56 12.823L124.912 7.30469L135.478 4.01094L146.27 0.73711L157.444 2.26445L168.194 7.35117L178.265 11.2758L187.371 10.9703L198.412 -2.50351L210.097 9.22383L218.993 9.75508L228.921 1.50742L240.341 -2.62305L251.637 1.89258L263.394 4.38281L272.055 15.4129L282.718 17.9297L291.232 26.1375L304.342 19.1184L315.306 25.4336L331.373 34.425L322.87 53.6031L322.594 69.3746L311.461 79.6277L308.213 91.0629L311.548 108.023L306.027 121.311L302.815 140.735L285.808 132.082L274.997 142.156L264.18 132.832L253.603 145.516L241.725 133.404L231.73 135.137L221.552 133.848L210.888 143.577L199.725 141.06L188.596 146.638ZM178.551 130.933L189.107 139.579L199.26 134.446L209.755 136.81L220.224 127.234L231.648 128.689L243.119 126.683L253.338 137.136L263.664 124.738L274.874 134.4L285.098 124.884L299.229 132.075L301.374 119.1L306.333 107.233L303.085 90.7973L307.38 75.65L317.753 66.134L317.998 51.8699L324.387 37.4797L313.35 31.3105L304.28 26.1176L290.563 33.3824L280.701 23.9195L269.67 21.3297L261.065 10.3527L250.519 8.10156L240.274 4.01094L230.944 7.38438L220.326 16.1965L208.33 15.4992L198.724 5.85039L189.362 17.2723L177.606 17.6574L166.58 13.3344L156.33 8.48008L146.607 7.18516L136.612 10.2066L126.434 13.3809L116.123 18.8727L104.622 22.8238L93.3712 20.6324L82.1205 20.9313L71.4571 14.875L60.3698 19.7426L49.6502 9.9543L39.1144 19.6297L27.5368 11.7871L17.4045 14.9281L7.21606 16.1566L5.66353 27.8043L8.23746 40.3219L12.5478 54.752L7.98212 68.3055L10.8063 80.9891L7.1701 93.8254L15.8316 101.243L22.2766 112.844L20.6986 127.367L31.5816 126.59L42.9651 115.474L54.7469 122.539L63.3012 131.451L74.5877 117.612L84.3522 132.686L94.7756 118.621L105.955 127.128L116.337 126.258L126.505 133.178L136.26 133.025L146.796 132.368L157.643 133.324L167.213 137.72L178.551 130.933Z" fill="black"/>
</g>
</g>
<path d="M61.6321 66.28C61.1094 66.28 60.7268 66.196 60.4841 66.028C60.2414 65.8787 60.0921 65.6733 60.0361 65.412C59.9801 65.1507 59.9521 64.8613 59.9521 64.544V48.388C59.9521 48.0893 59.9801 47.8093 60.0361 47.548C60.1108 47.2867 60.2601 47.0813 60.4841 46.932C60.7268 46.7827 61.1188 46.708 61.6601 46.708C62.1828 46.708 62.5561 46.7827 62.7801 46.932C63.0228 47.0813 63.1721 47.2867 63.2281 47.548C63.3028 47.8093 63.3401 48.0987 63.3401 48.416V64.572C63.3401 64.8893 63.3028 65.1787 63.2281 65.44C63.1721 65.6827 63.0228 65.8787 62.7801 66.028C62.5374 66.196 62.1548 66.28 61.6321 66.28ZM67.8658 66.252C67.3618 66.252 66.9885 66.168 66.7458 66C66.5218 65.8507 66.3818 65.6547 66.3258 65.412C66.2698 65.1507 66.2418 64.8613 66.2418 64.544V54.072C66.2418 53.7733 66.2698 53.5027 66.3258 53.26C66.3818 53.0173 66.5311 52.8307 66.7738 52.7C67.0165 52.5507 67.3898 52.476 67.8938 52.476C68.3418 52.476 68.6778 52.532 68.9018 52.644C69.1258 52.756 69.2751 52.896 69.3498 53.064C69.4245 53.232 69.4618 53.4 69.4618 53.568C69.4805 53.736 69.4991 53.8667 69.5178 53.96L69.4058 54.856C69.5178 54.5573 69.7045 54.268 69.9658 53.988C70.2271 53.708 70.5445 53.456 70.9178 53.232C71.2911 52.9893 71.6925 52.8027 72.1218 52.672C72.5698 52.5227 73.0271 52.448 73.4938 52.448C74.3711 52.448 75.1551 52.6067 75.8458 52.924C76.5365 53.2413 77.1245 53.6893 77.6098 54.268C78.1138 54.8467 78.4965 55.5373 78.7578 56.34C79.0191 57.124 79.1498 58.0107 79.1498 59V64.572C79.1498 64.8893 79.1125 65.1787 79.0378 65.44C78.9818 65.6827 78.8418 65.8787 78.6178 66.028C78.3938 66.1773 78.0111 66.252 77.4698 66.252C76.9471 66.252 76.5645 66.168 76.3218 66C76.0791 65.8507 75.9298 65.6547 75.8738 65.412C75.8178 65.1507 75.7898 64.8613 75.7898 64.544V58.972C75.7898 58.3 75.6685 57.7213 75.4258 57.236C75.2018 56.7507 74.8658 56.3773 74.4178 56.116C73.9885 55.8547 73.4378 55.724 72.7658 55.724C72.1125 55.724 71.5431 55.864 71.0578 56.144C70.5725 56.4053 70.1991 56.7787 69.9378 57.264C69.6765 57.7493 69.5458 58.3187 69.5458 58.972V64.572C69.5458 64.8893 69.5178 65.1787 69.4618 65.44C69.4058 65.6827 69.2565 65.8787 69.0138 66.028C68.7898 66.1773 68.4071 66.252 67.8658 66.252ZM87.9018 71.88C87.2298 71.88 86.5858 71.796 85.9698 71.628C85.3538 71.4787 84.7938 71.2733 84.2898 71.012C83.8044 70.7507 83.4124 70.4707 83.1138 70.172C82.8338 69.8733 82.6938 69.5933 82.6938 69.332C82.6938 69.0707 82.7311 68.8467 82.8058 68.66C82.8991 68.4733 83.0298 68.2867 83.1978 68.1C83.4218 67.876 83.5991 67.708 83.7298 67.596C83.8791 67.484 84.0751 67.428 84.3178 67.428C84.5231 67.428 84.7191 67.5027 84.9058 67.652C85.1111 67.8013 85.3444 67.9693 85.6058 68.156C85.8671 68.3427 86.1844 68.5107 86.5578 68.66C86.9311 68.8093 87.4071 68.884 87.9858 68.884C88.4711 68.884 88.9191 68.8 89.3298 68.632C89.7404 68.464 90.0858 68.212 90.3658 67.876C90.6644 67.5587 90.8978 67.176 91.0658 66.728C91.2338 66.28 91.3178 65.776 91.3178 65.216L91.2898 53.624C91.3271 53.1947 91.4764 52.896 91.7378 52.728C91.9991 52.5413 92.4004 52.448 92.9418 52.448C93.4458 52.448 93.8098 52.5227 94.0338 52.672C94.2578 52.8027 94.3978 52.9987 94.4538 53.26C94.5098 53.5027 94.5378 53.7733 94.5378 54.072V65.412C94.5378 66.4387 94.3604 67.3533 94.0058 68.156C93.6511 68.9587 93.1658 69.6307 92.5498 70.172C91.9338 70.732 91.2244 71.152 90.4218 71.432C89.6378 71.7307 88.7978 71.88 87.9018 71.88ZM87.5938 65.916C86.7164 65.916 85.8951 65.748 85.1298 65.412C84.3831 65.076 83.7204 64.6 83.1418 63.984C82.5818 63.368 82.1338 62.6587 81.7978 61.856C81.4804 61.0347 81.3218 60.148 81.3218 59.196C81.3218 58.2627 81.4804 57.3947 81.7978 56.592C82.1338 55.7893 82.5818 55.08 83.1418 54.464C83.7204 53.848 84.3831 53.372 85.1298 53.036C85.8951 52.6813 86.7071 52.504 87.5658 52.504C88.4058 52.504 89.1338 52.672 89.7498 53.008C90.3844 53.3253 90.9071 53.7827 91.3178 54.38C91.7284 54.9773 92.0364 55.6867 92.2418 56.508C92.4658 57.3293 92.5778 58.2347 92.5778 59.224C92.5778 60.5867 92.3911 61.772 92.0178 62.78C91.6444 63.788 91.0938 64.5627 90.3658 65.104C89.6378 65.6453 88.7138 65.916 87.5938 65.916ZM87.9018 62.752C88.5364 62.752 89.0964 62.6027 89.5818 62.304C90.0858 61.9867 90.4778 61.5573 90.7578 61.016C91.0564 60.4747 91.2058 59.868 91.2058 59.196C91.2058 58.5053 91.0564 57.8987 90.7578 57.376C90.4778 56.8347 90.0858 56.4147 89.5818 56.116C89.0778 55.8173 88.5084 55.668 87.8738 55.668C87.2391 55.668 86.6698 55.8267 86.1658 56.144C85.6804 56.4427 85.2978 56.8533 85.0178 57.376C84.7378 57.8987 84.5978 58.5053 84.5978 59.196C84.5978 59.8867 84.7378 60.5027 85.0178 61.044C85.3164 61.5667 85.7084 61.9867 86.1938 62.304C86.6978 62.6027 87.2671 62.752 87.9018 62.752ZM99.3144 66.28C98.8104 66.28 98.4371 66.196 98.1944 66.028C97.9517 65.8787 97.8024 65.6827 97.7464 65.44C97.6904 65.1787 97.6624 64.8893 97.6624 64.572V54.156C97.6624 53.8573 97.6904 53.5867 97.7464 53.344C97.8211 53.0827 97.9704 52.8773 98.1944 52.728C98.4371 52.5787 98.8197 52.504 99.3424 52.504C99.8651 52.504 100.238 52.5787 100.462 52.728C100.705 52.8773 100.854 53.0827 100.91 53.344C100.966 53.6053 100.994 53.8947 100.994 54.212V64.6C100.994 64.9173 100.966 65.2067 100.91 65.468C100.854 65.7107 100.705 65.9067 100.462 66.056C100.238 66.2053 99.8557 66.28 99.3144 66.28ZM99.3144 49.788C98.7731 49.788 98.3717 49.7133 98.1104 49.564C97.8677 49.396 97.7091 49.172 97.6344 48.892C97.5784 48.612 97.5504 48.304 97.5504 47.968C97.5504 47.6133 97.5784 47.3053 97.6344 47.044C97.7091 46.7827 97.8771 46.5773 98.1384 46.428C98.3997 46.26 98.8011 46.176 99.3424 46.176C99.9024 46.176 100.304 46.26 100.546 46.428C100.789 46.596 100.948 46.82 101.022 47.1C101.097 47.3613 101.134 47.6693 101.134 48.024C101.134 48.3413 101.097 48.64 101.022 48.92C100.948 49.2 100.789 49.4147 100.546 49.564C100.304 49.7133 99.8931 49.788 99.3144 49.788ZM105.71 66.252C105.206 66.252 104.832 66.168 104.59 66C104.366 65.8507 104.226 65.6547 104.17 65.412C104.114 65.1507 104.086 64.8613 104.086 64.544V54.072C104.086 53.7733 104.114 53.5027 104.17 53.26C104.226 53.0173 104.375 52.8307 104.618 52.7C104.86 52.5507 105.234 52.476 105.738 52.476C106.186 52.476 106.522 52.532 106.746 52.644C106.97 52.756 107.119 52.896 107.194 53.064C107.268 53.232 107.306 53.4 107.306 53.568C107.324 53.736 107.343 53.8667 107.362 53.96L107.25 54.856C107.362 54.5573 107.548 54.268 107.81 53.988C108.071 53.708 108.388 53.456 108.762 53.232C109.135 52.9893 109.536 52.8027 109.966 52.672C110.414 52.5227 110.871 52.448 111.338 52.448C112.215 52.448 112.999 52.6067 113.69 52.924C114.38 53.2413 114.968 53.6893 115.454 54.268C115.958 54.8467 116.34 55.5373 116.602 56.34C116.863 57.124 116.994 58.0107 116.994 59V64.572C116.994 64.8893 116.956 65.1787 116.882 65.44C116.826 65.6827 116.686 65.8787 116.462 66.028C116.238 66.1773 115.855 66.252 115.314 66.252C114.791 66.252 114.408 66.168 114.166 66C113.923 65.8507 113.774 65.6547 113.718 65.412C113.662 65.1507 113.634 64.8613 113.634 64.544V58.972C113.634 58.3 113.512 57.7213 113.27 57.236C113.046 56.7507 112.71 56.3773 112.262 56.116C111.832 55.8547 111.282 55.724 110.61 55.724C109.956 55.724 109.387 55.864 108.902 56.144C108.416 56.4053 108.043 56.7787 107.782 57.264C107.52 57.7493 107.39 58.3187 107.39 58.972V64.572C107.39 64.8893 107.362 65.1787 107.306 65.44C107.25 65.6827 107.1 65.8787 106.858 66.028C106.634 66.1773 106.251 66.252 105.71 66.252ZM128.295 66.252C127.791 66.252 127.418 66.1773 127.175 66.028C126.951 65.8787 126.811 65.6733 126.755 65.412C126.699 65.1507 126.671 64.8707 126.671 64.572V54.1C126.671 53.8013 126.699 53.5307 126.755 53.288C126.811 53.0453 126.96 52.8493 127.203 52.7C127.446 52.5507 127.828 52.476 128.351 52.476C128.892 52.476 129.284 52.588 129.527 52.812C129.788 53.036 129.919 53.3907 129.919 53.876L129.667 54.66C129.76 54.4547 129.919 54.2307 130.143 53.988C130.367 53.7453 130.638 53.5027 130.955 53.26C131.291 53.0173 131.664 52.8213 132.075 52.672C132.486 52.5227 132.915 52.448 133.363 52.448C133.979 52.448 134.539 52.5507 135.043 52.756C135.566 52.9613 136.023 53.26 136.415 53.652C136.826 54.044 137.18 54.52 137.479 55.08C137.796 54.5947 138.151 54.156 138.543 53.764C138.935 53.3533 139.392 53.036 139.915 52.812C140.438 52.5693 141.026 52.448 141.679 52.448C142.762 52.448 143.667 52.7187 144.395 53.26C145.142 53.8013 145.702 54.576 146.075 55.584C146.467 56.5733 146.663 57.7587 146.663 59.14V64.572C146.663 64.8893 146.626 65.1787 146.551 65.44C146.495 65.6827 146.346 65.8787 146.103 66.028C145.879 66.1773 145.506 66.252 144.983 66.252C144.46 66.252 144.078 66.168 143.835 66C143.592 65.8507 143.443 65.6547 143.387 65.412C143.331 65.1507 143.303 64.8613 143.303 64.544V59.112C143.303 58.4213 143.219 57.824 143.051 57.32C142.883 56.816 142.631 56.424 142.295 56.144C141.978 55.864 141.558 55.724 141.035 55.724C140.475 55.724 139.99 55.864 139.579 56.144C139.187 56.4053 138.879 56.788 138.655 57.292C138.431 57.796 138.319 58.412 138.319 59.14V64.6C138.319 64.9173 138.272 65.216 138.179 65.496C138.086 65.7573 137.899 65.9533 137.619 66.084C137.358 66.2333 136.975 66.2893 136.471 66.252C136.004 66.2333 135.659 66.14 135.435 65.972C135.23 65.804 135.099 65.5987 135.043 65.356C135.006 65.0947 134.987 64.824 134.987 64.544V59.112C134.987 58.4213 134.903 57.824 134.735 57.32C134.567 56.7973 134.315 56.4053 133.979 56.144C133.662 55.864 133.232 55.724 132.691 55.724C132.112 55.724 131.618 55.8733 131.207 56.172C130.815 56.4707 130.516 56.872 130.311 57.376C130.106 57.88 130.003 58.4587 130.003 59.112V64.6C130.003 64.8987 129.966 65.1787 129.891 65.44C129.835 65.7013 129.686 65.8973 129.443 66.028C129.219 66.1773 128.836 66.252 128.295 66.252ZM156.14 66.448C154.926 66.448 153.862 66.252 152.948 65.86C152.052 65.468 151.296 64.936 150.68 64.264C150.082 63.5733 149.625 62.808 149.308 61.968C149.009 61.1093 148.86 60.2227 148.86 59.308C148.86 57.964 149.168 56.7693 149.784 55.724C150.4 54.6787 151.249 53.8573 152.332 53.26C153.433 52.6627 154.693 52.364 156.112 52.364C157.12 52.364 158.006 52.5227 158.772 52.84C159.537 53.1573 160.172 53.5773 160.676 54.1C161.198 54.604 161.59 55.164 161.852 55.78C162.132 56.396 162.272 56.9933 162.272 57.572C162.272 58.5613 162.029 59.28 161.544 59.728C161.077 60.176 160.489 60.4 159.78 60.4H152.388C152.406 61.0347 152.602 61.5853 152.976 62.052C153.368 62.5187 153.853 62.8827 154.432 63.144C155.029 63.3867 155.636 63.508 156.252 63.508C156.718 63.508 157.129 63.48 157.484 63.424C157.857 63.368 158.174 63.3027 158.436 63.228C158.697 63.1347 158.921 63.0413 159.108 62.948C159.313 62.8547 159.5 62.7707 159.668 62.696C159.836 62.6213 159.994 62.5747 160.144 62.556C160.349 62.5373 160.554 62.584 160.76 62.696C160.965 62.808 161.133 63.004 161.264 63.284C161.376 63.4707 161.45 63.648 161.488 63.816C161.544 63.9653 161.572 64.1147 161.572 64.264C161.572 64.6373 161.348 64.992 160.9 65.328C160.452 65.6453 159.817 65.9067 158.996 66.112C158.193 66.336 157.241 66.448 156.14 66.448ZM152.388 58.412H158.128C158.445 58.412 158.688 58.3653 158.856 58.272C159.024 58.16 159.108 57.936 159.108 57.6C159.108 57.1707 158.977 56.788 158.716 56.452C158.454 56.0973 158.1 55.8267 157.652 55.64C157.204 55.4347 156.681 55.332 156.084 55.332C155.393 55.332 154.768 55.472 154.208 55.752C153.648 56.0133 153.2 56.3773 152.864 56.844C152.546 57.3107 152.388 57.8333 152.388 58.412ZM166.221 66.252C165.717 66.252 165.344 66.168 165.101 66C164.877 65.8507 164.737 65.6547 164.681 65.412C164.625 65.1507 164.597 64.8613 164.597 64.544V54.072C164.597 53.7733 164.625 53.5027 164.681 53.26C164.737 53.0173 164.887 52.8307 165.129 52.7C165.372 52.5507 165.745 52.476 166.249 52.476C166.697 52.476 167.033 52.532 167.257 52.644C167.481 52.756 167.631 52.896 167.705 53.064C167.78 53.232 167.817 53.4 167.817 53.568C167.836 53.736 167.855 53.8667 167.873 53.96L167.761 54.856C167.873 54.5573 168.06 54.268 168.321 53.988C168.583 53.708 168.9 53.456 169.273 53.232C169.647 52.9893 170.048 52.8027 170.477 52.672C170.925 52.5227 171.383 52.448 171.849 52.448C172.727 52.448 173.511 52.6067 174.201 52.924C174.892 53.2413 175.48 53.6893 175.965 54.268C176.469 54.8467 176.852 55.5373 177.113 56.34C177.375 57.124 177.505 58.0107 177.505 59V64.572C177.505 64.8893 177.468 65.1787 177.393 65.44C177.337 65.6827 177.197 65.8787 176.973 66.028C176.749 66.1773 176.367 66.252 175.825 66.252C175.303 66.252 174.92 66.168 174.677 66C174.435 65.8507 174.285 65.6547 174.229 65.412C174.173 65.1507 174.145 64.8613 174.145 64.544V58.972C174.145 58.3 174.024 57.7213 173.781 57.236C173.557 56.7507 173.221 56.3773 172.773 56.116C172.344 55.8547 171.793 55.724 171.121 55.724C170.468 55.724 169.899 55.864 169.413 56.144C168.928 56.4053 168.555 56.7787 168.293 57.264C168.032 57.7493 167.901 58.3187 167.901 58.972V64.572C167.901 64.8893 167.873 65.1787 167.817 65.44C167.761 65.6827 167.612 65.8787 167.369 66.028C167.145 66.1773 166.763 66.252 166.221 66.252ZM191.717 66.224C191.176 66.224 190.775 66.1213 190.513 65.916C190.252 65.7107 190.121 65.4307 190.121 65.076L190.317 64.152C190.168 64.3947 189.916 64.684 189.561 65.02C189.207 65.3373 188.74 65.6267 188.161 65.888C187.583 66.1307 186.883 66.252 186.061 66.252C185.184 66.252 184.353 66.0747 183.569 65.72C182.804 65.3467 182.123 64.8427 181.525 64.208C180.947 63.5547 180.48 62.8173 180.125 61.996C179.789 61.156 179.621 60.26 179.621 59.308C179.621 58.3933 179.789 57.5347 180.125 56.732C180.48 55.9107 180.956 55.1827 181.553 54.548C182.151 53.9133 182.832 53.4187 183.597 53.064C184.381 52.6907 185.203 52.504 186.061 52.504C186.827 52.504 187.471 52.6067 187.993 52.812C188.535 53.0173 188.992 53.2787 189.365 53.596C189.739 53.8947 190.047 54.212 190.289 54.548L190.121 53.736C190.121 53.3253 190.252 53.0173 190.513 52.812C190.775 52.588 191.185 52.476 191.745 52.476C192.268 52.476 192.641 52.56 192.865 52.728C193.089 52.8773 193.229 53.092 193.285 53.372C193.341 53.6333 193.369 53.932 193.369 54.268V64.516C193.369 64.8333 193.341 65.1227 193.285 65.384C193.229 65.6453 193.08 65.8507 192.837 66C192.613 66.1493 192.24 66.224 191.717 66.224ZM186.565 62.976C187.2 62.976 187.769 62.8173 188.273 62.5C188.777 62.1827 189.179 61.7533 189.477 61.212C189.795 60.652 189.953 60.036 189.953 59.364C189.953 58.636 189.795 58.0013 189.477 57.46C189.16 56.9187 188.74 56.4987 188.217 56.2C187.713 55.8827 187.144 55.724 186.509 55.724C185.819 55.724 185.203 55.892 184.661 56.228C184.12 56.5453 183.691 56.984 183.373 57.544C183.075 58.0853 182.925 58.7013 182.925 59.392C182.925 60.064 183.084 60.6707 183.401 61.212C183.719 61.7533 184.148 62.1827 184.689 62.5C185.249 62.8173 185.875 62.976 186.565 62.976ZM197.803 66.252C197.299 66.252 196.925 66.1773 196.683 66.028C196.459 65.8787 196.319 65.6733 196.263 65.412C196.207 65.1507 196.179 64.8707 196.179 64.572V54.1C196.179 53.8013 196.207 53.5307 196.263 53.288C196.319 53.0453 196.468 52.8493 196.711 52.7C196.953 52.5507 197.336 52.476 197.859 52.476C198.4 52.476 198.792 52.588 199.035 52.812C199.296 53.036 199.427 53.3907 199.427 53.876L199.175 54.66C199.268 54.4547 199.427 54.2307 199.651 53.988C199.875 53.7453 200.145 53.5027 200.463 53.26C200.799 53.0173 201.172 52.8213 201.583 52.672C201.993 52.5227 202.423 52.448 202.871 52.448C203.487 52.448 204.047 52.5507 204.551 52.756C205.073 52.9613 205.531 53.26 205.923 53.652C206.333 54.044 206.688 54.52 206.987 55.08C207.304 54.5947 207.659 54.156 208.051 53.764C208.443 53.3533 208.9 53.036 209.423 52.812C209.945 52.5693 210.533 52.448 211.187 52.448C212.269 52.448 213.175 52.7187 213.903 53.26C214.649 53.8013 215.209 54.576 215.583 55.584C215.975 56.5733 216.171 57.7587 216.171 59.14V64.572C216.171 64.8893 216.133 65.1787 216.059 65.44C216.003 65.6827 215.853 65.8787 215.611 66.028C215.387 66.1773 215.013 66.252 214.491 66.252C213.968 66.252 213.585 66.168 213.343 66C213.1 65.8507 212.951 65.6547 212.895 65.412C212.839 65.1507 212.811 64.8613 212.811 64.544V59.112C212.811 58.4213 212.727 57.824 212.559 57.32C212.391 56.816 212.139 56.424 211.803 56.144C211.485 55.864 211.065 55.724 210.543 55.724C209.983 55.724 209.497 55.864 209.087 56.144C208.695 56.4053 208.387 56.788 208.163 57.292C207.939 57.796 207.827 58.412 207.827 59.14V64.6C207.827 64.9173 207.78 65.216 207.687 65.496C207.593 65.7573 207.407 65.9533 207.127 66.084C206.865 66.2333 206.483 66.2893 205.979 66.252C205.512 66.2333 205.167 66.14 204.943 65.972C204.737 65.804 204.607 65.5987 204.551 65.356C204.513 65.0947 204.495 64.824 204.495 64.544V59.112C204.495 58.4213 204.411 57.824 204.243 57.32C204.075 56.7973 203.823 56.4053 203.487 56.144C203.169 55.864 202.74 55.724 202.199 55.724C201.62 55.724 201.125 55.8733 200.715 56.172C200.323 56.4707 200.024 56.872 199.819 57.376C199.613 57.88 199.511 58.4587 199.511 59.112V64.6C199.511 64.8987 199.473 65.1787 199.399 65.44C199.343 65.7013 199.193 65.8973 198.951 66.028C198.727 66.1773 198.344 66.252 197.803 66.252ZM226.179 66.252C225.265 66.252 224.443 66.0747 223.715 65.72C223.006 65.3467 222.399 64.8427 221.895 64.208C221.41 63.5733 221.037 62.8453 220.775 62.024C220.533 61.184 220.411 60.288 220.411 59.336C220.43 58.384 220.57 57.4973 220.831 56.676C221.093 55.836 221.466 55.108 221.951 54.492C222.455 53.8573 223.062 53.3627 223.771 53.008C224.481 52.6533 225.283 52.476 226.179 52.476C227.038 52.476 227.841 52.6533 228.587 53.008C229.353 53.3627 230.025 53.8573 230.603 54.492C231.201 55.108 231.667 55.836 232.003 56.676C232.339 57.4973 232.507 58.3747 232.507 59.308C232.507 60.2787 232.339 61.1933 232.003 62.052C231.667 62.892 231.21 63.6293 230.631 64.264C230.053 64.88 229.381 65.3653 228.615 65.72C227.85 66.0747 227.038 66.252 226.179 66.252ZM225.731 62.976C226.385 62.976 226.973 62.8267 227.495 62.528C228.018 62.2107 228.429 61.7813 228.727 61.24C229.045 60.6987 229.203 60.0827 229.203 59.392C229.203 58.6827 229.045 58.0573 228.727 57.516C228.429 56.956 228.018 56.5267 227.495 56.228C226.973 55.9107 226.385 55.752 225.731 55.752C225.097 55.752 224.518 55.9107 223.995 56.228C223.473 56.5453 223.053 56.9747 222.735 57.516C222.437 58.0573 222.287 58.6827 222.287 59.392C222.287 60.0827 222.437 60.6987 222.735 61.24C223.053 61.7813 223.473 62.2107 223.995 62.528C224.518 62.8267 225.097 62.976 225.731 62.976ZM220.551 66.28C220.047 66.28 219.674 66.196 219.431 66.028C219.189 65.8787 219.039 65.6827 218.983 65.44C218.927 65.1787 218.899 64.8893 218.899 64.572V47.884C218.899 47.5667 218.927 47.2867 218.983 47.044C219.039 46.7827 219.189 46.5773 219.431 46.428C219.674 46.2787 220.047 46.204 220.551 46.204C221.074 46.204 221.447 46.2787 221.671 46.428C221.895 46.5773 222.035 46.7827 222.091 47.044C222.147 47.3053 222.175 47.5853 222.175 47.884V65.132C222.101 65.5427 221.942 65.832 221.699 66C221.475 66.1867 221.093 66.28 220.551 66.28ZM246.241 66.224C245.699 66.224 245.298 66.1213 245.037 65.916C244.775 65.7107 244.645 65.4307 244.645 65.076L244.841 64.152C244.691 64.3947 244.439 64.684 244.085 65.02C243.73 65.3373 243.263 65.6267 242.685 65.888C242.106 66.1307 241.406 66.252 240.585 66.252C239.707 66.252 238.877 66.0747 238.093 65.72C237.327 65.3467 236.646 64.8427 236.049 64.208C235.47 63.5547 235.003 62.8173 234.649 61.996C234.313 61.156 234.145 60.26 234.145 59.308C234.145 58.3933 234.313 57.5347 234.649 56.732C235.003 55.9107 235.479 55.1827 236.077 54.548C236.674 53.9133 237.355 53.4187 238.121 53.064C238.905 52.6907 239.726 52.504 240.585 52.504C241.35 52.504 241.994 52.6067 242.517 52.812C243.058 53.0173 243.515 53.2787 243.889 53.596C244.262 53.8947 244.57 54.212 244.813 54.548L244.645 53.736C244.645 53.3253 244.775 53.0173 245.037 52.812C245.298 52.588 245.709 52.476 246.269 52.476C246.791 52.476 247.165 52.56 247.389 52.728C247.613 52.8773 247.753 53.092 247.809 53.372C247.865 53.6333 247.893 53.932 247.893 54.268V64.516C247.893 64.8333 247.865 65.1227 247.809 65.384C247.753 65.6453 247.603 65.8507 247.361 66C247.137 66.1493 246.763 66.224 246.241 66.224ZM241.089 62.976C241.723 62.976 242.293 62.8173 242.797 62.5C243.301 62.1827 243.702 61.7533 244.001 61.212C244.318 60.652 244.477 60.036 244.477 59.364C244.477 58.636 244.318 58.0013 244.001 57.46C243.683 56.9187 243.263 56.4987 242.741 56.2C242.237 55.8827 241.667 55.724 241.033 55.724C240.342 55.724 239.726 55.892 239.185 56.228C238.643 56.5453 238.214 56.984 237.897 57.544C237.598 58.0853 237.449 58.7013 237.449 59.392C237.449 60.064 237.607 60.6707 237.925 61.212C238.242 61.7533 238.671 62.1827 239.213 62.5C239.773 62.8173 240.398 62.976 241.089 62.976ZM252.214 66.28C251.691 66.28 251.309 66.196 251.066 66.028C250.842 65.8787 250.702 65.6733 250.646 65.412C250.59 65.1507 250.562 64.8707 250.562 64.572V47.856C250.562 47.5387 250.59 47.2587 250.646 47.016C250.721 46.7547 250.87 46.5493 251.094 46.4C251.337 46.2507 251.719 46.176 252.242 46.176C252.765 46.176 253.138 46.26 253.362 46.428C253.605 46.5773 253.754 46.7827 253.81 47.044C253.885 47.2867 253.922 47.5667 253.922 47.884V54.212C254.295 53.7827 254.771 53.3907 255.35 53.036C255.947 52.6627 256.666 52.476 257.506 52.476C258.645 52.476 259.662 52.756 260.558 53.316C261.454 53.8573 262.163 54.6133 262.686 55.584C263.209 56.5547 263.47 57.6933 263.47 59V64.6C263.47 64.8987 263.442 65.1787 263.386 65.44C263.33 65.6827 263.181 65.8787 262.938 66.028C262.714 66.1773 262.341 66.252 261.818 66.252C261.295 66.252 260.913 66.1773 260.67 66.028C260.427 65.8787 260.278 65.6827 260.222 65.44C260.166 65.1787 260.138 64.88 260.138 64.544V58.972C260.138 58.3187 260.026 57.7493 259.802 57.264C259.578 56.7787 259.242 56.4053 258.794 56.144C258.365 55.864 257.823 55.724 257.17 55.724C256.293 55.724 255.555 55.9853 254.958 56.508C254.361 57.012 254.015 57.6653 253.922 58.468V64.6C253.922 64.8987 253.885 65.1787 253.81 65.44C253.754 65.7013 253.605 65.9067 253.362 66.056C253.138 66.2053 252.755 66.28 252.214 66.28ZM86.915 100.084C86.0003 100.084 85.179 99.916 84.451 99.58C83.7417 99.2253 83.135 98.74 82.631 98.124C82.1457 97.4893 81.7723 96.7613 81.511 95.94C81.2683 95.1187 81.147 94.232 81.147 93.28C81.1657 92.328 81.3057 91.4413 81.567 90.62C81.8283 89.78 82.2017 89.052 82.687 88.436C83.191 87.82 83.7977 87.3347 84.507 86.98C85.2163 86.6253 86.019 86.448 86.915 86.448C87.7737 86.448 88.5763 86.6253 89.323 86.98C90.0883 87.3347 90.7603 87.8293 91.339 88.464C91.9363 89.0987 92.403 89.836 92.739 90.676C93.075 91.4973 93.243 92.384 93.243 93.336C93.243 94.3067 93.075 95.2027 92.739 96.024C92.403 96.8453 91.9457 97.564 91.367 98.18C90.7883 98.7773 90.1163 99.244 89.351 99.58C88.5857 99.916 87.7737 100.084 86.915 100.084ZM81.315 105.908C80.811 105.908 80.4377 105.833 80.195 105.684C79.9523 105.535 79.803 105.339 79.747 105.096C79.691 104.853 79.663 104.573 79.663 104.256V88.156C79.663 87.8387 79.691 87.5587 79.747 87.316C79.803 87.0733 79.943 86.8773 80.167 86.728C80.4097 86.56 80.783 86.476 81.287 86.476C81.7723 86.476 82.155 86.5507 82.435 86.7C82.715 86.8493 82.9017 87.1013 82.995 87.456V104.228C83.0137 104.545 82.9857 104.825 82.911 105.068C82.855 105.329 82.7057 105.535 82.463 105.684C82.2203 105.833 81.8377 105.908 81.315 105.908ZM86.467 96.948C87.1203 96.948 87.7083 96.7987 88.231 96.5C88.7537 96.1827 89.1643 95.7533 89.463 95.212C89.7803 94.652 89.939 94.0267 89.939 93.336C89.939 92.6267 89.7803 92.0013 89.463 91.46C89.1643 90.9187 88.7537 90.4987 88.231 90.2C87.7083 89.8827 87.1203 89.724 86.467 89.724C85.8323 89.724 85.2537 89.8827 84.731 90.2C84.2083 90.5173 83.7883 90.9467 83.471 91.488C83.1723 92.0107 83.023 92.6267 83.023 93.336C83.023 94.0267 83.1723 94.652 83.471 95.212C83.7883 95.7533 84.2083 96.1827 84.731 96.5C85.2537 96.7987 85.8323 96.948 86.467 96.948ZM102.272 100.448C101.059 100.448 99.995 100.252 99.0803 99.86C98.1843 99.468 97.4283 98.936 96.8123 98.264C96.215 97.5733 95.7577 96.808 95.4403 95.968C95.1417 95.1093 94.9923 94.2227 94.9923 93.308C94.9923 91.964 95.3003 90.7693 95.9163 89.724C96.5323 88.6787 97.3817 87.8573 98.4643 87.26C99.5657 86.6627 100.826 86.364 102.244 86.364C103.252 86.364 104.139 86.5227 104.904 86.84C105.67 87.1573 106.304 87.5773 106.808 88.1C107.331 88.604 107.723 89.164 107.984 89.78C108.264 90.396 108.404 90.9933 108.404 91.572C108.404 92.5613 108.162 93.28 107.676 93.728C107.21 94.176 106.622 94.4 105.912 94.4H98.5203C98.539 95.0347 98.735 95.5853 99.1083 96.052C99.5003 96.5187 99.9857 96.8827 100.564 97.144C101.162 97.3867 101.768 97.508 102.384 97.508C102.851 97.508 103.262 97.48 103.616 97.424C103.99 97.368 104.307 97.3027 104.568 97.228C104.83 97.1347 105.054 97.0413 105.24 96.948C105.446 96.8547 105.632 96.7707 105.8 96.696C105.968 96.6213 106.127 96.5747 106.276 96.556C106.482 96.5373 106.687 96.584 106.892 96.696C107.098 96.808 107.266 97.004 107.396 97.284C107.508 97.4707 107.583 97.648 107.62 97.816C107.676 97.9653 107.704 98.1147 107.704 98.264C107.704 98.6373 107.48 98.992 107.032 99.328C106.584 99.6453 105.95 99.9067 105.128 100.112C104.326 100.336 103.374 100.448 102.272 100.448ZM98.5203 92.412H104.26C104.578 92.412 104.82 92.3653 104.988 92.272C105.156 92.16 105.24 91.936 105.24 91.6C105.24 91.1707 105.11 90.788 104.848 90.452C104.587 90.0973 104.232 89.8267 103.784 89.64C103.336 89.4347 102.814 89.332 102.216 89.332C101.526 89.332 100.9 89.472 100.34 89.752C99.7803 90.0133 99.3323 90.3773 98.9963 90.844C98.679 91.3107 98.5203 91.8333 98.5203 92.412ZM112.354 100.252C111.85 100.252 111.477 100.168 111.234 100C111.01 99.8507 110.87 99.6547 110.814 99.412C110.758 99.1507 110.73 98.8613 110.73 98.544V88.072C110.73 87.7733 110.758 87.5027 110.814 87.26C110.87 87.0173 111.019 86.8307 111.262 86.7C111.505 86.5507 111.878 86.476 112.382 86.476C112.83 86.476 113.166 86.532 113.39 86.644C113.614 86.756 113.763 86.896 113.838 87.064C113.913 87.232 113.95 87.4 113.95 87.568C113.969 87.736 113.987 87.8667 114.006 87.96L113.894 88.856C114.006 88.5573 114.193 88.268 114.454 87.988C114.715 87.708 115.033 87.456 115.406 87.232C115.779 86.9893 116.181 86.8027 116.61 86.672C117.058 86.5227 117.515 86.448 117.982 86.448C118.859 86.448 119.643 86.6067 120.334 86.924C121.025 87.2413 121.613 87.6893 122.098 88.268C122.602 88.8467 122.985 89.5373 123.246 90.34C123.507 91.124 123.638 92.0107 123.638 93V98.572C123.638 98.8893 123.601 99.1787 123.526 99.44C123.47 99.6827 123.33 99.8787 123.106 100.028C122.882 100.177 122.499 100.252 121.958 100.252C121.435 100.252 121.053 100.168 120.81 100C120.567 99.8507 120.418 99.6547 120.362 99.412C120.306 99.1507 120.278 98.8613 120.278 98.544V92.972C120.278 92.3 120.157 91.7213 119.914 91.236C119.69 90.7507 119.354 90.3773 118.906 90.116C118.477 89.8547 117.926 89.724 117.254 89.724C116.601 89.724 116.031 89.864 115.546 90.144C115.061 90.4053 114.687 90.7787 114.426 91.264C114.165 91.7493 114.034 92.3187 114.034 92.972V98.572C114.034 98.8893 114.006 99.1787 113.95 99.44C113.894 99.6827 113.745 99.8787 113.502 100.028C113.278 100.177 112.895 100.252 112.354 100.252ZM132.39 105.88C131.718 105.88 131.074 105.796 130.458 105.628C129.842 105.479 129.282 105.273 128.778 105.012C128.293 104.751 127.901 104.471 127.602 104.172C127.322 103.873 127.182 103.593 127.182 103.332C127.182 103.071 127.219 102.847 127.294 102.66C127.387 102.473 127.518 102.287 127.686 102.1C127.91 101.876 128.087 101.708 128.218 101.596C128.367 101.484 128.563 101.428 128.806 101.428C129.011 101.428 129.207 101.503 129.394 101.652C129.599 101.801 129.833 101.969 130.094 102.156C130.355 102.343 130.673 102.511 131.046 102.66C131.419 102.809 131.895 102.884 132.474 102.884C132.959 102.884 133.407 102.8 133.818 102.632C134.229 102.464 134.574 102.212 134.854 101.876C135.153 101.559 135.386 101.176 135.554 100.728C135.722 100.28 135.806 99.776 135.806 99.216L135.778 87.624C135.815 87.1947 135.965 86.896 136.226 86.728C136.487 86.5413 136.889 86.448 137.43 86.448C137.934 86.448 138.298 86.5227 138.522 86.672C138.746 86.8027 138.886 86.9987 138.942 87.26C138.998 87.5027 139.026 87.7733 139.026 88.072V99.412C139.026 100.439 138.849 101.353 138.494 102.156C138.139 102.959 137.654 103.631 137.038 104.172C136.422 104.732 135.713 105.152 134.91 105.432C134.126 105.731 133.286 105.88 132.39 105.88ZM132.082 99.916C131.205 99.916 130.383 99.748 129.618 99.412C128.871 99.076 128.209 98.6 127.63 97.984C127.07 97.368 126.622 96.6587 126.286 95.856C125.969 95.0347 125.81 94.148 125.81 93.196C125.81 92.2627 125.969 91.3947 126.286 90.592C126.622 89.7893 127.07 89.08 127.63 88.464C128.209 87.848 128.871 87.372 129.618 87.036C130.383 86.6813 131.195 86.504 132.054 86.504C132.894 86.504 133.622 86.672 134.238 87.008C134.873 87.3253 135.395 87.7827 135.806 88.38C136.217 88.9773 136.525 89.6867 136.73 90.508C136.954 91.3293 137.066 92.2347 137.066 93.224C137.066 94.5867 136.879 95.772 136.506 96.78C136.133 97.788 135.582 98.5627 134.854 99.104C134.126 99.6453 133.202 99.916 132.082 99.916ZM132.39 96.752C133.025 96.752 133.585 96.6027 134.07 96.304C134.574 95.9867 134.966 95.5573 135.246 95.016C135.545 94.4747 135.694 93.868 135.694 93.196C135.694 92.5053 135.545 91.8987 135.246 91.376C134.966 90.8347 134.574 90.4147 134.07 90.116C133.566 89.8173 132.997 89.668 132.362 89.668C131.727 89.668 131.158 89.8267 130.654 90.144C130.169 90.4427 129.786 90.8533 129.506 91.376C129.226 91.8987 129.086 92.5053 129.086 93.196C129.086 93.8867 129.226 94.5027 129.506 95.044C129.805 95.5667 130.197 95.9867 130.682 96.304C131.186 96.6027 131.755 96.752 132.39 96.752ZM148.675 100.448C147.461 100.448 146.397 100.252 145.483 99.86C144.587 99.468 143.831 98.936 143.215 98.264C142.617 97.5733 142.16 96.808 141.843 95.968C141.544 95.1093 141.395 94.2227 141.395 93.308C141.395 91.964 141.703 90.7693 142.319 89.724C142.935 88.6787 143.784 87.8573 144.867 87.26C145.968 86.6627 147.228 86.364 148.647 86.364C149.655 86.364 150.541 86.5227 151.307 86.84C152.072 87.1573 152.707 87.5773 153.211 88.1C153.733 88.604 154.125 89.164 154.387 89.78C154.667 90.396 154.807 90.9933 154.807 91.572C154.807 92.5613 154.564 93.28 154.079 93.728C153.612 94.176 153.024 94.4 152.315 94.4H144.923C144.941 95.0347 145.137 95.5853 145.511 96.052C145.903 96.5187 146.388 96.8827 146.967 97.144C147.564 97.3867 148.171 97.508 148.787 97.508C149.253 97.508 149.664 97.48 150.019 97.424C150.392 97.368 150.709 97.3027 150.971 97.228C151.232 97.1347 151.456 97.0413 151.643 96.948C151.848 96.8547 152.035 96.7707 152.203 96.696C152.371 96.6213 152.529 96.5747 152.679 96.556C152.884 96.5373 153.089 96.584 153.295 96.696C153.5 96.808 153.668 97.004 153.799 97.284C153.911 97.4707 153.985 97.648 154.023 97.816C154.079 97.9653 154.107 98.1147 154.107 98.264C154.107 98.6373 153.883 98.992 153.435 99.328C152.987 99.6453 152.352 99.9067 151.531 100.112C150.728 100.336 149.776 100.448 148.675 100.448ZM144.923 92.412H150.663C150.98 92.412 151.223 92.3653 151.391 92.272C151.559 92.16 151.643 91.936 151.643 91.6C151.643 91.1707 151.512 90.788 151.251 90.452C150.989 90.0973 150.635 89.8267 150.187 89.64C149.739 89.4347 149.216 89.332 148.619 89.332C147.928 89.332 147.303 89.472 146.743 89.752C146.183 90.0133 145.735 90.3773 145.399 90.844C145.081 91.3107 144.923 91.8333 144.923 92.412ZM163.635 100.28C162.72 100.28 161.936 100.187 161.283 100C160.63 99.8133 160.098 99.524 159.687 99.132C159.276 98.74 158.968 98.236 158.763 97.62C158.576 96.9853 158.483 96.2387 158.483 95.38V83.508C158.483 83.172 158.511 82.8827 158.567 82.64C158.642 82.3973 158.791 82.2107 159.015 82.08C159.258 81.9307 159.631 81.856 160.135 81.856C160.658 81.856 161.031 81.9307 161.255 82.08C161.498 82.2293 161.647 82.4347 161.703 82.696C161.778 82.9387 161.815 83.2093 161.815 83.508V95.268C161.815 95.66 161.843 95.9773 161.899 96.22C161.974 96.4627 162.076 96.6493 162.207 96.78C162.356 96.892 162.543 96.976 162.767 97.032C163.01 97.0693 163.299 97.088 163.635 97.088C163.99 97.088 164.288 97.116 164.531 97.172C164.792 97.228 164.988 97.368 165.119 97.592C165.25 97.7973 165.315 98.1427 165.315 98.628C165.315 99.1507 165.231 99.5333 165.063 99.776C164.914 100 164.708 100.14 164.447 100.196C164.204 100.252 163.934 100.28 163.635 100.28ZM157.335 86.756L160.219 86.784L164.083 86.672C164.4 86.672 164.68 86.7093 164.923 86.784C165.184 86.84 165.39 86.9893 165.539 87.232C165.688 87.456 165.763 87.8293 165.763 88.352C165.763 88.8373 165.688 89.2013 165.539 89.444C165.39 89.6867 165.194 89.8453 164.951 89.92C164.708 89.976 164.428 90.004 164.111 90.004L160.359 89.948L157.251 89.976C156.784 89.9573 156.458 89.8267 156.271 89.584C156.103 89.3227 156.019 88.9027 156.019 88.324C156.019 87.7827 156.122 87.3907 156.327 87.148C156.551 86.8867 156.887 86.756 157.335 86.756ZM179.331 100.224C178.789 100.224 178.388 100.121 178.127 99.916C177.865 99.7107 177.735 99.4307 177.735 99.076L177.931 98.152C177.781 98.3947 177.529 98.684 177.175 99.02C176.82 99.3373 176.353 99.6267 175.775 99.888C175.196 100.131 174.496 100.252 173.675 100.252C172.797 100.252 171.967 100.075 171.183 99.72C170.417 99.3467 169.736 98.8427 169.139 98.208C168.56 97.5547 168.093 96.8173 167.739 95.996C167.403 95.156 167.235 94.26 167.235 93.308C167.235 92.3933 167.403 91.5347 167.739 90.732C168.093 89.9107 168.569 89.1827 169.167 88.548C169.764 87.9133 170.445 87.4187 171.211 87.064C171.995 86.6907 172.816 86.504 173.675 86.504C174.44 86.504 175.084 86.6067 175.607 86.812C176.148 87.0173 176.605 87.2787 176.979 87.596C177.352 87.8947 177.66 88.212 177.903 88.548L177.735 87.736C177.735 87.3253 177.865 87.0173 178.127 86.812C178.388 86.588 178.799 86.476 179.359 86.476C179.881 86.476 180.255 86.56 180.479 86.728C180.703 86.8773 180.843 87.092 180.899 87.372C180.955 87.6333 180.983 87.932 180.983 88.268V98.516C180.983 98.8333 180.955 99.1227 180.899 99.384C180.843 99.6453 180.693 99.8507 180.451 100C180.227 100.149 179.853 100.224 179.331 100.224ZM174.179 96.976C174.813 96.976 175.383 96.8173 175.887 96.5C176.391 96.1827 176.792 95.7533 177.091 95.212C177.408 94.652 177.567 94.036 177.567 93.364C177.567 92.636 177.408 92.0013 177.091 91.46C176.773 90.9187 176.353 90.4987 175.831 90.2C175.327 89.8827 174.757 89.724 174.123 89.724C173.432 89.724 172.816 89.892 172.275 90.228C171.733 90.5453 171.304 90.984 170.987 91.544C170.688 92.0853 170.539 92.7013 170.539 93.392C170.539 94.064 170.697 94.6707 171.015 95.212C171.332 95.7533 171.761 96.1827 172.303 96.5C172.863 96.8173 173.488 96.976 174.179 96.976ZM185.304 100.28C184.781 100.28 184.399 100.196 184.156 100.028C183.932 99.8787 183.792 99.6733 183.736 99.412C183.68 99.1507 183.652 98.8707 183.652 98.572V81.856C183.652 81.5387 183.68 81.2587 183.736 81.016C183.811 80.7547 183.96 80.5493 184.184 80.4C184.427 80.2507 184.809 80.176 185.332 80.176C185.855 80.176 186.228 80.26 186.452 80.428C186.695 80.5773 186.844 80.7827 186.9 81.044C186.975 81.2867 187.012 81.5667 187.012 81.884V88.212C187.385 87.7827 187.861 87.3907 188.44 87.036C189.037 86.6627 189.756 86.476 190.596 86.476C191.735 86.476 192.752 86.756 193.648 87.316C194.544 87.8573 195.253 88.6133 195.776 89.584C196.299 90.5547 196.56 91.6933 196.56 93V98.6C196.56 98.8987 196.532 99.1787 196.476 99.44C196.42 99.6827 196.271 99.8787 196.028 100.028C195.804 100.177 195.431 100.252 194.908 100.252C194.385 100.252 194.003 100.177 193.76 100.028C193.517 99.8787 193.368 99.6827 193.312 99.44C193.256 99.1787 193.228 98.88 193.228 98.544V92.972C193.228 92.3187 193.116 91.7493 192.892 91.264C192.668 90.7787 192.332 90.4053 191.884 90.144C191.455 89.864 190.913 89.724 190.26 89.724C189.383 89.724 188.645 89.9853 188.048 90.508C187.451 91.012 187.105 91.6653 187.012 92.468V98.6C187.012 98.8987 186.975 99.1787 186.9 99.44C186.844 99.7013 186.695 99.9067 186.452 100.056C186.228 100.205 185.845 100.28 185.304 100.28ZM204.762 100.252C203.903 100.252 203.11 100.103 202.382 99.804C201.672 99.4867 201.047 99.0387 200.506 98.46C199.964 97.8813 199.544 97.1907 199.246 96.388C198.947 95.5853 198.798 94.6987 198.798 93.728V88.156C198.798 87.8387 198.826 87.5587 198.882 87.316C198.938 87.0547 199.087 86.8493 199.33 86.7C199.572 86.5507 199.946 86.476 200.45 86.476C200.991 86.476 201.374 86.5507 201.598 86.7C201.84 86.8493 201.99 87.0547 202.046 87.316C202.102 87.5773 202.13 87.8667 202.13 88.184V93.728C202.13 94.4 202.242 94.9787 202.466 95.464C202.708 95.9493 203.054 96.332 203.502 96.612C203.95 96.8733 204.5 97.004 205.154 97.004C205.826 97.004 206.395 96.8733 206.862 96.612C207.347 96.332 207.72 95.9493 207.982 95.464C208.243 94.96 208.374 94.3813 208.374 93.728V88.128C208.374 87.8107 208.402 87.5307 208.458 87.288C208.514 87.0267 208.663 86.8307 208.906 86.7C209.148 86.5507 209.531 86.476 210.054 86.476C210.576 86.476 210.95 86.5507 211.174 86.7C211.398 86.8493 211.538 87.0547 211.594 87.316C211.668 87.5773 211.706 87.8573 211.706 88.156V98.656C211.706 98.936 211.668 99.1973 211.594 99.44C211.538 99.6827 211.388 99.8787 211.146 100.028C210.922 100.177 210.548 100.252 210.026 100.252C209.652 100.252 209.354 100.205 209.13 100.112C208.924 100.037 208.766 99.9347 208.654 99.804C208.56 99.6547 208.495 99.5053 208.458 99.356C208.439 99.2067 208.43 99.0573 208.43 98.908L208.654 98.152C208.542 98.32 208.374 98.5253 208.15 98.768C207.926 98.992 207.646 99.2253 207.31 99.468C206.992 99.692 206.619 99.8787 206.19 100.028C205.76 100.177 205.284 100.252 204.762 100.252ZM225.952 100.224C225.41 100.224 225.009 100.121 224.748 99.916C224.486 99.7107 224.356 99.4307 224.356 99.076L224.552 98.152C224.402 98.3947 224.15 98.684 223.796 99.02C223.441 99.3373 222.974 99.6267 222.396 99.888C221.817 100.131 221.117 100.252 220.296 100.252C219.418 100.252 218.588 100.075 217.804 99.72C217.038 99.3467 216.357 98.8427 215.76 98.208C215.181 97.5547 214.714 96.8173 214.36 95.996C214.024 95.156 213.856 94.26 213.856 93.308C213.856 92.3933 214.024 91.5347 214.36 90.732C214.714 89.9107 215.19 89.1827 215.788 88.548C216.385 87.9133 217.066 87.4187 217.832 87.064C218.616 86.6907 219.437 86.504 220.296 86.504C221.061 86.504 221.705 86.6067 222.228 86.812C222.769 87.0173 223.226 87.2787 223.6 87.596C223.973 87.8947 224.281 88.212 224.524 88.548L224.356 87.736C224.356 87.3253 224.486 87.0173 224.748 86.812C225.009 86.588 225.42 86.476 225.98 86.476C226.502 86.476 226.876 86.56 227.1 86.728C227.324 86.8773 227.464 87.092 227.52 87.372C227.576 87.6333 227.604 87.932 227.604 88.268V98.516C227.604 98.8333 227.576 99.1227 227.52 99.384C227.464 99.6453 227.314 99.8507 227.072 100C226.848 100.149 226.474 100.224 225.952 100.224ZM220.8 96.976C221.434 96.976 222.004 96.8173 222.508 96.5C223.012 96.1827 223.413 95.7533 223.712 95.212C224.029 94.652 224.188 94.036 224.188 93.364C224.188 92.636 224.029 92.0013 223.712 91.46C223.394 90.9187 222.974 90.4987 222.452 90.2C221.948 89.8827 221.378 89.724 220.744 89.724C220.053 89.724 219.437 89.892 218.896 90.228C218.354 90.5453 217.925 90.984 217.608 91.544C217.309 92.0853 217.16 92.7013 217.16 93.392C217.16 94.064 217.318 94.6707 217.636 95.212C217.953 95.7533 218.382 96.1827 218.924 96.5C219.484 96.8173 220.109 96.976 220.8 96.976ZM232.065 100.252C231.561 100.252 231.188 100.168 230.945 100C230.721 99.8507 230.581 99.6547 230.525 99.412C230.469 99.1507 230.441 98.8613 230.441 98.544V88.072C230.441 87.7733 230.469 87.5027 230.525 87.26C230.581 87.0173 230.73 86.8307 230.973 86.7C231.216 86.5507 231.589 86.476 232.093 86.476C232.541 86.476 232.877 86.532 233.101 86.644C233.325 86.756 233.474 86.896 233.549 87.064C233.624 87.232 233.661 87.4 233.661 87.568C233.68 87.736 233.698 87.8667 233.717 87.96L233.605 88.856C233.717 88.5573 233.904 88.268 234.165 87.988C234.426 87.708 234.744 87.456 235.117 87.232C235.49 86.9893 235.892 86.8027 236.321 86.672C236.769 86.5227 237.226 86.448 237.693 86.448C238.57 86.448 239.354 86.6067 240.045 86.924C240.736 87.2413 241.324 87.6893 241.809 88.268C242.313 88.8467 242.696 89.5373 242.957 90.34C243.218 91.124 243.349 92.0107 243.349 93V98.572C243.349 98.8893 243.312 99.1787 243.237 99.44C243.181 99.6827 243.041 99.8787 242.817 100.028C242.593 100.177 242.21 100.252 241.669 100.252C241.146 100.252 240.764 100.168 240.521 100C240.278 99.8507 240.129 99.6547 240.073 99.412C240.017 99.1507 239.989 98.8613 239.989 98.544V92.972C239.989 92.3 239.868 91.7213 239.625 91.236C239.401 90.7507 239.065 90.3773 238.617 90.116C238.188 89.8547 237.637 89.724 236.965 89.724C236.312 89.724 235.742 89.864 235.257 90.144C234.772 90.4053 234.398 90.7787 234.137 91.264C233.876 91.7493 233.745 92.3187 233.745 92.972V98.572C233.745 98.8893 233.717 99.1787 233.661 99.44C233.605 99.6827 233.456 99.8787 233.213 100.028C232.989 100.177 232.606 100.252 232.065 100.252Z" fill="black"/>
</svg>
