<svg width="400" height="120" viewBox="0 0 400 120" fill="none" xmlns="http://www.w3.org/2000/svg">
<mask id="mask0_62_2458" style="mask-type:luminance" maskUnits="userSpaceOnUse" x="0" y="0" width="400" height="120">
<path d="M400 0H0V120H400V0Z" fill="white"/>
</mask>
<g mask="url(#mask0_62_2458)">
<mask id="mask1_62_2458" style="mask-type:luminance" maskUnits="userSpaceOnUse" x="9" y="9" width="388" height="111">
<path d="M9.33838 9.33325H396.887V119.354H9.33838V9.33325Z" fill="white"/>
</mask>
<g mask="url(#mask1_62_2458)">
<path d="M15.789 72.3853L12.3965 62.3593L17.7893 51.8749L13.0349 41.3958L9.77612 30.9114L12.1047 19.3541L26.2584 18.2343L39.1779 15.5937L52.3406 21.4739L65.1142 13.7499L78.3376 21.7083L91.2267 17.9635L104.365 22.901L117.358 22.677L130.405 24.3437L143.318 21.4218L155.618 17.1093L167.972 14.5624L180.326 12.0989L192.783 13.2135L205.32 17.1249L217.838 20.3437L230.253 20.0728L242.4 10.3072L255.064 18.6874L267.503 19.1718L279.742 12.4791L292.084 9.53638L304.906 12.9062L318.19 14.7655L328.447 23.3958L341.367 25.4062L352.316 32.3385L368.294 26.7083L380.204 31.2239L396.346 37.177L387.476 50.3385L387.159 62.0937L374.361 69.8593L369.875 80.2812L373.796 93.3957L367.57 103.266L364.391 115.974L345.853 109.745L333.335 117.432L320.227 109.989L307.782 119.823L294.631 110.969L281.864 112.432L269.005 111.359L256.444 118.932L243.555 117.01L230.824 121.224L218.355 114.521L205.222 119.724L193.081 116.047L180.727 115.328L168.306 115.838L155.903 115.969L143.829 110.542L131.396 111.203L119.346 105.146L106.274 116.76L94.5645 104.833L81.5599 115.427L69.6375 107.245L57.5023 102.453L44.6436 110.724L27.2615 111.552L29.4685 98.1405L22.7929 90.2291L11.0103 83.578L15.789 72.3853Z" fill="black"/>
<path d="M15.789 72.3853L12.3965 62.3593L17.7893 51.8749L13.0349 41.3958L9.77612 30.9114L12.1047 19.3541L26.2584 18.2343L39.1779 15.5937L52.3406 21.4739L65.1142 13.7499L78.3376 21.7083L91.2267 17.9635L104.365 22.901L117.358 22.677L130.405 24.3437L143.318 21.4218L155.618 17.1093L167.972 14.5624L180.326 12.0989L192.783 13.2135L205.32 17.1249L217.838 20.3437L230.253 20.0728L242.4 10.3072L255.064 18.6874L267.503 19.1718L279.742 12.4791L292.084 9.53638L304.906 12.9062L318.19 14.7655L328.447 23.3958L341.367 25.4062L352.316 32.3385L368.294 26.7083L380.204 31.2239L396.346 37.177L387.476 50.3385L387.159 62.0937L374.361 69.8593L369.875 80.2812L373.796 93.3957L367.57 103.266L364.391 115.974L345.853 109.745L333.335 117.432L320.227 109.989L307.782 119.823L294.631 110.969L281.864 112.432L269.005 111.359L256.444 118.932L243.555 117.01L230.824 121.224L218.355 114.521L205.222 119.724L193.081 116.047L180.727 115.328L168.306 115.838L155.903 115.969L143.829 110.542L131.396 111.203L119.346 105.146L106.274 116.76L94.5645 104.833L81.5599 115.427L69.6375 107.245L57.5023 102.453L44.6436 110.724L27.2615 111.552L29.4685 98.1405L22.7929 90.2291L11.0103 83.578L15.789 72.3853Z" fill="black"/>
</g>
<mask id="mask2_62_2458" style="mask-type:luminance" maskUnits="userSpaceOnUse" x="7" y="8" width="391" height="112">
<path d="M7.78198 8H397.586V119.354H7.78198V8Z" fill="white"/>
</mask>
<g mask="url(#mask2_62_2458)">
<path d="M230.739 121.985L218.3 115.307L205.265 120.474L192.917 116.735L180.721 115.99L168.342 116.495L155.715 116.63L143.653 111.203L131.207 111.886L119.485 105.995L106.238 117.766L94.5037 105.813L81.6085 116.328L69.2058 107.849L57.6056 103.261L44.9111 111.401L26.3131 112.287L28.6355 98.3491L22.1971 90.7241L10.0497 83.8491L14.9561 72.3647L11.5575 62.3127L16.932 51.8543L12.2627 41.5731L8.95532 30.9429L11.4237 18.7293L26.1671 17.5575L39.2812 14.9012L52.2737 20.7033L65.1141 12.9168L78.4653 20.9533L91.2632 17.2293L104.523 22.2137L117.406 21.9897L130.356 23.6564L143.051 20.7762L155.423 16.4429L167.765 13.896L180.259 11.4168L193.039 12.5731L205.569 16.4845L217.941 19.6512L229.931 19.396L242.345 9.40641L255.356 18.0106L267.26 18.4689L279.383 11.8491L292.078 8.81787L305.076 12.2085L318.561 14.0939L328.83 22.7293L341.683 24.7241L352.414 31.5106L368.282 25.922L380.514 30.5522L397.483 36.8491L388.272 50.5262L387.962 62.4533L375.03 70.297L370.714 80.3231L374.678 93.4845L368.33 103.505L364.95 116.906L345.951 110.516L333.335 118.261L320.294 110.854L307.825 120.74L294.413 111.703L281.882 113.146L269.188 112.078L256.627 119.651L243.634 117.719L230.739 121.985ZM218.415 113.75L230.915 120.464L243.47 116.307L256.256 118.214L268.792 110.656L281.852 111.755L294.856 110.255L307.739 118.932L320.148 109.13L333.317 116.594L345.744 108.969L363.801 115.031L366.816 103.016L372.951 93.297L369.048 80.2345L373.681 69.4272L386.375 61.7137L386.685 50.1825L395.215 37.495L379.894 31.8647L368.276 27.4585L352.201 33.1252L341.038 26.047L328.064 24.0158L317.807 15.396L304.651 13.547L292.054 10.2293L280.058 13.1095L267.704 19.896L254.76 19.396L242.437 11.2502L230.532 20.7918L217.68 21.0783L205.04 17.8283L192.601 13.8856L180.374 12.7918L168.184 15.2293L155.867 17.7502L143.525 22.0783L130.453 25.0366L117.303 23.3543L104.207 23.5887L91.2267 18.6929L78.216 22.4689L65.1141 14.5783L52.4196 22.271L39.0927 16.3127L26.3313 18.9064L12.7856 19.9845L10.5847 30.8804L13.7948 41.1825L18.6526 51.8908L13.2476 62.3908L16.6462 72.4116L11.9952 83.3075L23.3704 89.7241L30.3135 97.9689L28.1978 110.823L44.376 110.057L57.4232 101.667L70.1178 106.708L81.5113 114.521L94.6192 103.844L106.298 115.745L119.194 104.287L131.572 110.516L143.987 109.833L156.08 115.261L168.282 115.136L180.721 114.62L193.227 115.349L205.125 118.958L218.415 113.75Z" fill="black"/>
</g>
<mask id="mask3_62_2458" style="mask-type:luminance" maskUnits="userSpaceOnUse" x="3" y="1" width="388" height="113">
<path d="M3.11279 1.08337H390.661V113.333H3.11279V1.08337Z" fill="white"/>
</mask>
<g mask="url(#mask3_62_2458)">
<path d="M9.78237 63.3957L6.39594 53.3644L11.7826 42.8801L7.02824 32.4009L3.75732 21.9165L6.09804 10.3644L20.2457 9.23942L33.1712 6.604L46.3339 12.479L59.1075 4.75505L72.3249 12.7186L85.2201 8.96338L98.3585 13.9113L111.345 13.6821L124.398 15.3592L137.312 12.4321L149.611 8.10921L161.965 5.56755L174.319 3.10921L186.777 4.2238L199.313 8.13005L211.825 11.3488L224.246 11.078L236.387 1.31234L249.058 9.69776L261.497 10.1821L273.735 3.48942L286.077 0.541504L298.9 3.9165L312.184 5.77067L322.44 14.4061L335.36 16.4165L346.31 23.3436L362.281 17.7134L374.197 22.229L390.339 28.1769L381.469 41.3488L381.153 53.104L368.355 60.8644L363.868 71.2915L367.795 84.4009L361.564 94.2707L358.378 106.979L339.847 100.755L327.329 108.443L314.221 101L301.775 110.833L288.619 101.974L275.851 103.443L262.999 102.364L250.432 109.937L237.549 108.026L224.818 112.234L212.348 105.526L199.216 110.729L187.068 107.062L174.726 106.333L162.299 106.849L149.897 106.979L137.822 101.547L125.389 102.208L113.339 96.1561L100.268 107.765L88.5579 95.8436L75.5533 106.427L63.6248 98.2446L51.5017 93.4582L38.6369 101.734L21.2488 102.557L23.4618 89.1509L16.7863 81.2342L5.00368 74.5832L9.78237 63.3957Z" fill="white"/>
</g>
<mask id="mask4_62_2458" style="mask-type:luminance" maskUnits="userSpaceOnUse" x="0" y="1" width="396" height="115">
<path d="M0.674805 1.08337H395.331V116H0.674805V1.08337Z" fill="white"/>
</mask>
<g mask="url(#mask4_62_2458)">
<path d="M224.52 115.01L212.147 108.365L199.386 113.422L186.491 109.521L174.708 108.844L162.348 109.349L149.21 109.49L137.202 104.063L124.69 104.74L113.862 99.3126L100.146 111.526L88.3389 99.5105L75.7234 109.745L62.0743 100.385L51.8542 96.3542L39.6521 104.182L17.8318 105.214L20.3732 89.7917L14.7007 83.0626L1.44077 75.599L6.68153 63.3282L3.30118 53.1875L8.62097 42.8282L4.20099 33.0417L0.778076 22.0313L3.61125 8.05733L19.7713 6.76046L33.5541 3.95837L46.1027 9.56254L59.1013 1.69796L72.7929 9.94275L85.3537 6.29171L98.942 11.4011L111.539 11.1823L124.234 12.8125L136.381 10.0573L148.705 5.72921L161.284 3.14587L174.13 0.578167L187.433 1.77608L200.231 5.76567L212.22 8.84379L223.06 8.60421L236.205 -1.9635L250.115 7.23442L260.706 7.65108L272.525 1.18233L286.12 -2.05725L299.568 1.48442L313.564 3.43754L323.875 12.0886L336.57 14.0625L346.705 20.5L362.311 14.9948L375.365 19.948L394.492 27L384.369 42.0417L384.041 54.4115L370.787 62.4532L366.92 71.4219L370.89 84.724L364.318 95.1459L360.494 110.38L340.248 103.594L327.377 111.495L314.5 104.182L301.909 114.13L287.767 104.63L275.869 105.99L263.752 104.979L251.058 112.609L237.767 110.635L224.52 115.01ZM212.561 102.693L225.128 109.474L237.214 105.448L249.708 107.302L262.172 99.7917L275.772 100.932L289.427 99.3594L301.593 107.557L313.886 97.8334L327.231 105.412L339.403 97.948L356.226 103.589L358.779 93.4115L364.683 84.1042L360.816 71.2136L365.929 59.3334L378.277 51.8698L378.569 40.6823L386.174 29.3959L373.036 24.5573L362.238 20.4844L345.908 26.1823L334.168 18.7605L321.036 16.7292L310.791 8.11983L298.237 6.35421L286.041 3.14587L274.933 5.79171L262.293 12.7032L248.012 12.1563L236.576 4.58858L225.432 13.5469L211.436 13.849L198.31 10.4584L186.108 6.65108L174.532 5.63546L162.634 8.00525L150.517 10.4948L138.242 14.8021L124.55 17.9011L111.156 16.1823L97.7625 16.4167L85.068 11.6667L71.8688 15.4844L59.1074 7.80733L46.5648 15.3959L32.782 9.24483L20.7197 11.7084L8.59058 12.6719L6.74233 21.8073L9.80653 31.625L14.9379 42.9428L9.50254 53.573L12.8647 63.5209L8.53586 73.5886L18.8471 79.4063L26.5198 88.5053L24.6412 99.8959L37.5971 99.2865L51.1489 90.5678L65.175 96.1094L75.3586 103.099L88.7949 92.2448L100.419 104.068L112.828 93.0365L126.137 99.7084L138.497 99.0261L150.602 104.453L162.214 104.333L174.757 103.818L187.67 104.568L199.064 108.016L212.561 102.693Z" fill="black"/>
<path d="M224.52 115.01L212.147 108.365L199.386 113.422L186.491 109.521L174.708 108.844L162.348 109.349L149.21 109.49L137.202 104.063L124.69 104.74L113.862 99.3126L100.146 111.526L88.3389 99.5105L75.7234 109.745L62.0743 100.385L51.8542 96.3542L39.6521 104.182L17.8318 105.214L20.3732 89.7917L14.7007 83.0626L1.44077 75.599L6.68153 63.3282L3.30118 53.1875L8.62097 42.8282L4.20099 33.0417L0.778076 22.0313L3.61125 8.05733L19.7713 6.76046L33.5541 3.95837L46.1027 9.56254L59.1013 1.69796L72.7929 9.94275L85.3537 6.29171L98.942 11.4011L111.539 11.1823L124.234 12.8125L136.381 10.0573L148.705 5.72921L161.284 3.14587L174.13 0.578167L187.433 1.77608L200.231 5.76567L212.22 8.84379L223.06 8.60421L236.205 -1.9635L250.115 7.23442L260.706 7.65108L272.525 1.18233L286.12 -2.05725L299.568 1.48442L313.564 3.43754L323.875 12.0886L336.57 14.0625L346.705 20.5L362.311 14.9948L375.365 19.948L394.492 27L384.369 42.0417L384.041 54.4115L370.787 62.4532L366.92 71.4219L370.89 84.724L364.318 95.1459L360.494 110.38L340.248 103.594L327.377 111.495L314.5 104.182L301.909 114.13L287.767 104.63L275.869 105.99L263.752 104.979L251.058 112.609L237.767 110.635L224.52 115.01ZM212.561 102.693L225.128 109.474L237.214 105.448L249.708 107.302L262.172 99.7917L275.772 100.932L289.427 99.3594L301.593 107.557L313.886 97.8334L327.231 105.412L339.403 97.948L356.226 103.589L358.779 93.4115L364.683 84.1042L360.816 71.2136L365.929 59.3334L378.277 51.8698L378.569 40.6823L386.174 29.3959L373.036 24.5573L362.238 20.4844L345.908 26.1823L334.168 18.7605L321.036 16.7292L310.791 8.11983L298.237 6.35421L286.041 3.14587L274.933 5.79171L262.293 12.7032L248.012 12.1563L236.576 4.58858L225.432 13.5469L211.436 13.849L198.31 10.4584L186.108 6.65108L174.532 5.63546L162.634 8.00525L150.517 10.4948L138.242 14.8021L124.55 17.9011L111.156 16.1823L97.7625 16.4167L85.068 11.6667L71.8688 15.4844L59.1074 7.80733L46.5648 15.3959L32.782 9.24483L20.7197 11.7084L8.59058 12.6719L6.74233 21.8073L9.80653 31.625L14.9379 42.9428L9.50254 53.573L12.8647 63.5209L8.53586 73.5886L18.8471 79.4063L26.5198 88.5053L24.6412 99.8959L37.5971 99.2865L51.1489 90.5678L65.175 96.1094L75.3586 103.099L88.7949 92.2448L100.419 104.068L112.828 93.0365L126.137 99.7084L138.497 99.0261L150.602 104.453L162.214 104.333L174.757 103.818L187.67 104.568L199.064 108.016L212.561 102.693Z" fill="black"/>
</g>
</g>
<path d="M25.6106 54.412C25.1626 54.412 24.8346 54.348 24.6266 54.22C24.4186 54.092 24.2906 53.916 24.2426 53.692C24.1946 53.452 24.1706 53.204 24.1706 52.948V39.1C24.1706 38.844 24.1946 38.612 24.2426 38.404C24.3066 38.18 24.4426 38.004 24.6506 37.876C24.8586 37.732 25.1866 37.66 25.6346 37.66H30.7226C31.4266 37.66 32.1146 37.78 32.7866 38.02C33.4586 38.26 34.0586 38.62 34.5866 39.1C35.1306 39.58 35.5546 40.172 35.8586 40.876C36.1786 41.58 36.3386 42.404 36.3386 43.348C36.3386 44.276 36.1786 45.092 35.8586 45.796C35.5546 46.484 35.1306 47.068 34.5866 47.548C34.0426 48.028 33.4346 48.388 32.7626 48.628C32.1066 48.868 31.4186 48.988 30.6986 48.988H27.0746V52.972C27.0746 53.228 27.0426 53.468 26.9786 53.692C26.9306 53.916 26.8026 54.092 26.5946 54.22C26.4026 54.348 26.0746 54.412 25.6106 54.412ZM27.0746 46.06H30.7226C31.2186 46.06 31.6666 45.964 32.0666 45.772C32.4826 45.564 32.8186 45.26 33.0746 44.86C33.3306 44.444 33.4586 43.924 33.4586 43.3C33.4586 42.74 33.3386 42.26 33.0986 41.86C32.8746 41.444 32.5546 41.124 32.1386 40.9C31.7386 40.676 31.2586 40.564 30.6986 40.564H27.0746V46.06ZM44.1058 54.58C43.0658 54.58 42.1538 54.412 41.3698 54.076C40.6018 53.74 39.9538 53.284 39.4258 52.708C38.9138 52.116 38.5218 51.46 38.2498 50.74C37.9938 50.004 37.8658 49.244 37.8658 48.46C37.8658 47.308 38.1298 46.284 38.6578 45.388C39.1858 44.492 39.9138 43.788 40.8418 43.276C41.7858 42.764 42.8658 42.508 44.0818 42.508C44.9458 42.508 45.7058 42.644 46.3618 42.916C47.0178 43.188 47.5618 43.548 47.9938 43.996C48.4418 44.428 48.7778 44.908 49.0018 45.436C49.2418 45.964 49.3618 46.476 49.3618 46.972C49.3618 47.82 49.1538 48.436 48.7378 48.82C48.3378 49.204 47.8338 49.396 47.2258 49.396H40.8898C40.9058 49.94 41.0738 50.412 41.3938 50.812C41.7298 51.212 42.1458 51.524 42.6418 51.748C43.1538 51.956 43.6738 52.06 44.2018 52.06C44.6018 52.06 44.9538 52.036 45.2578 51.988C45.5778 51.94 45.8498 51.884 46.0738 51.82C46.2978 51.74 46.4898 51.66 46.6498 51.58C46.8258 51.5 46.9858 51.428 47.1298 51.364C47.2738 51.3 47.4098 51.26 47.5378 51.244C47.7138 51.228 47.8898 51.268 48.0658 51.364C48.2418 51.46 48.3858 51.628 48.4978 51.868C48.5938 52.028 48.6578 52.18 48.6898 52.324C48.7378 52.452 48.7618 52.58 48.7618 52.708C48.7618 53.028 48.5698 53.332 48.1858 53.62C47.8018 53.892 47.2578 54.116 46.5538 54.292C45.8658 54.484 45.0498 54.58 44.1058 54.58ZM40.8898 47.692H45.8098C46.0818 47.692 46.2898 47.652 46.4338 47.572C46.5778 47.476 46.6498 47.284 46.6498 46.996C46.6498 46.628 46.5378 46.3 46.3138 46.012C46.0898 45.708 45.7858 45.476 45.4018 45.316C45.0178 45.14 44.5698 45.052 44.0578 45.052C43.4658 45.052 42.9298 45.172 42.4498 45.412C41.9698 45.636 41.5858 45.948 41.2978 46.348C41.0258 46.748 40.8898 47.196 40.8898 47.692ZM52.7473 54.412C52.3153 54.412 51.9953 54.34 51.7873 54.196C51.5953 54.068 51.4753 53.9 51.4273 53.692C51.3793 53.468 51.3553 53.22 51.3553 52.948V43.972C51.3553 43.716 51.3793 43.484 51.4273 43.276C51.4753 43.068 51.6033 42.908 51.8113 42.796C52.0193 42.668 52.3393 42.604 52.7713 42.604C53.1553 42.604 53.4433 42.652 53.6353 42.748C53.8273 42.844 53.9553 42.964 54.0193 43.108C54.0833 43.252 54.1153 43.396 54.1153 43.54C54.1313 43.684 54.1473 43.796 54.1633 43.876L54.0673 44.644C54.1633 44.388 54.3233 44.14 54.5473 43.9C54.7713 43.66 55.0433 43.444 55.3633 43.252C55.6833 43.044 56.0273 42.884 56.3953 42.772C56.7793 42.644 57.1713 42.58 57.5713 42.58C58.3233 42.58 58.9953 42.716 59.5873 42.988C60.1793 43.26 60.6833 43.644 61.0993 44.14C61.5313 44.636 61.8593 45.228 62.0833 45.916C62.3073 46.588 62.4193 47.348 62.4193 48.196V52.972C62.4193 53.244 62.3873 53.492 62.3233 53.716C62.2753 53.924 62.1553 54.092 61.9633 54.22C61.7713 54.348 61.4433 54.412 60.9793 54.412C60.5313 54.412 60.2033 54.34 59.9953 54.196C59.7873 54.068 59.6593 53.9 59.6113 53.692C59.5633 53.468 59.5393 53.22 59.5393 52.948V48.172C59.5393 47.596 59.4353 47.1 59.2273 46.684C59.0353 46.268 58.7473 45.948 58.3633 45.724C57.9953 45.5 57.5233 45.388 56.9473 45.388C56.3873 45.388 55.8993 45.508 55.4833 45.748C55.0673 45.972 54.7473 46.292 54.5233 46.708C54.2993 47.124 54.1873 47.612 54.1873 48.172V52.972C54.1873 53.244 54.1633 53.492 54.1153 53.716C54.0673 53.924 53.9393 54.092 53.7313 54.22C53.5393 54.348 53.2113 54.412 52.7473 54.412ZM67.0104 59.164C66.4984 58.94 66.2024 58.684 66.1224 58.396C66.0424 58.124 66.1144 57.756 66.3384 57.292L72.5304 43.42C72.7544 42.908 72.9944 42.604 73.2504 42.508C73.5064 42.396 73.8984 42.452 74.4264 42.676C74.9224 42.9 75.2104 43.148 75.2904 43.42C75.3864 43.692 75.3304 44.06 75.1224 44.524L68.8824 58.468C68.6744 58.98 68.4424 59.276 68.1864 59.356C67.9304 59.452 67.5384 59.388 67.0104 59.164ZM69.2424 53.284L63.6984 44.764C63.4104 44.332 63.2904 43.972 63.3384 43.684C63.4024 43.396 63.6584 43.116 64.1064 42.844C64.6024 42.54 64.9864 42.42 65.2584 42.484C65.5464 42.548 65.8344 42.804 66.1224 43.252L70.5144 50.092L69.2424 53.284ZM82.7776 54.58C81.7376 54.58 80.8256 54.412 80.0416 54.076C79.2736 53.74 78.6256 53.284 78.0976 52.708C77.5856 52.116 77.1936 51.46 76.9216 50.74C76.6656 50.004 76.5376 49.244 76.5376 48.46C76.5376 47.308 76.8016 46.284 77.3296 45.388C77.8576 44.492 78.5856 43.788 79.5136 43.276C80.4576 42.764 81.5376 42.508 82.7536 42.508C83.6176 42.508 84.3776 42.644 85.0336 42.916C85.6896 43.188 86.2336 43.548 86.6656 43.996C87.1136 44.428 87.4496 44.908 87.6736 45.436C87.9136 45.964 88.0336 46.476 88.0336 46.972C88.0336 47.82 87.8256 48.436 87.4096 48.82C87.0096 49.204 86.5056 49.396 85.8976 49.396H79.5616C79.5776 49.94 79.7456 50.412 80.0656 50.812C80.4016 51.212 80.8176 51.524 81.3136 51.748C81.8256 51.956 82.3456 52.06 82.8736 52.06C83.2736 52.06 83.6256 52.036 83.9296 51.988C84.2496 51.94 84.5216 51.884 84.7456 51.82C84.9696 51.74 85.1616 51.66 85.3216 51.58C85.4976 51.5 85.6576 51.428 85.8016 51.364C85.9456 51.3 86.0816 51.26 86.2096 51.244C86.3856 51.228 86.5616 51.268 86.7376 51.364C86.9136 51.46 87.0576 51.628 87.1696 51.868C87.2656 52.028 87.3296 52.18 87.3616 52.324C87.4096 52.452 87.4336 52.58 87.4336 52.708C87.4336 53.028 87.2416 53.332 86.8576 53.62C86.4736 53.892 85.9296 54.116 85.2256 54.292C84.5376 54.484 83.7216 54.58 82.7776 54.58ZM79.5616 47.692H84.4816C84.7536 47.692 84.9616 47.652 85.1056 47.572C85.2496 47.476 85.3216 47.284 85.3216 46.996C85.3216 46.628 85.2096 46.3 84.9856 46.012C84.7616 45.708 84.4576 45.476 84.0736 45.316C83.6896 45.14 83.2416 45.052 82.7296 45.052C82.1376 45.052 81.6016 45.172 81.1216 45.412C80.6416 45.636 80.2576 45.948 79.9696 46.348C79.6976 46.748 79.5616 47.196 79.5616 47.692ZM96.1711 54.412C95.3871 54.412 94.6831 54.26 94.0591 53.956C93.4511 53.636 92.9311 53.204 92.4991 52.66C92.0831 52.116 91.7631 51.492 91.5391 50.788C91.3311 50.068 91.2271 49.3 91.2271 48.484C91.2431 47.668 91.3631 46.908 91.5871 46.204C91.8111 45.484 92.1311 44.86 92.5471 44.332C92.9791 43.788 93.4991 43.364 94.1071 43.06C94.7151 42.756 95.4031 42.604 96.1711 42.604C96.9071 42.604 97.5951 42.756 98.2351 43.06C98.8911 43.364 99.4671 43.788 99.9631 44.332C100.475 44.86 100.875 45.484 101.163 46.204C101.451 46.908 101.595 47.66 101.595 48.46C101.595 49.292 101.451 50.076 101.163 50.812C100.875 51.532 100.483 52.164 99.9871 52.708C99.4911 53.236 98.9151 53.652 98.2591 53.956C97.6031 54.26 96.9071 54.412 96.1711 54.412ZM95.7871 51.604C96.3471 51.604 96.8511 51.476 97.2991 51.22C97.7471 50.948 98.0991 50.58 98.3551 50.116C98.6271 49.652 98.7631 49.124 98.7631 48.532C98.7631 47.924 98.6271 47.388 98.3551 46.924C98.0991 46.444 97.7471 46.076 97.2991 45.82C96.8511 45.548 96.3471 45.412 95.7871 45.412C95.2431 45.412 94.7471 45.548 94.2991 45.82C93.8511 46.092 93.4911 46.46 93.2191 46.924C92.9631 47.388 92.8351 47.924 92.8351 48.532C92.8351 49.124 92.9631 49.652 93.2191 50.116C93.4911 50.58 93.8511 50.948 94.2991 51.22C94.7471 51.476 95.2431 51.604 95.7871 51.604ZM91.3471 54.436C90.9151 54.436 90.5951 54.364 90.3871 54.22C90.1791 54.092 90.0511 53.924 90.0031 53.716C89.9551 53.492 89.9311 53.244 89.9311 52.972V38.668C89.9311 38.396 89.9551 38.156 90.0031 37.948C90.0511 37.724 90.1791 37.548 90.3871 37.42C90.5951 37.292 90.9151 37.228 91.3471 37.228C91.7951 37.228 92.1151 37.292 92.3071 37.42C92.4991 37.548 92.6191 37.724 92.6671 37.948C92.7151 38.172 92.7391 38.412 92.7391 38.668V53.452C92.6751 53.804 92.5391 54.052 92.3311 54.196C92.1391 54.356 91.8111 54.436 91.3471 54.436ZM113.367 54.388C112.903 54.388 112.559 54.3 112.335 54.124C112.111 53.948 111.999 53.708 111.999 53.404L112.167 52.612C112.039 52.82 111.823 53.068 111.519 53.356C111.215 53.628 110.815 53.876 110.319 54.1C109.823 54.308 109.223 54.412 108.519 54.412C107.767 54.412 107.055 54.26 106.383 53.956C105.727 53.636 105.143 53.204 104.631 52.66C104.135 52.1 103.735 51.468 103.431 50.764C103.143 50.044 102.999 49.276 102.999 48.46C102.999 47.676 103.143 46.94 103.431 46.252C103.735 45.548 104.143 44.924 104.655 44.38C105.167 43.836 105.751 43.412 106.407 43.108C107.079 42.788 107.783 42.628 108.519 42.628C109.175 42.628 109.727 42.716 110.175 42.892C110.639 43.068 111.031 43.292 111.351 43.564C111.671 43.82 111.935 44.092 112.143 44.38L111.999 43.684C111.999 43.332 112.111 43.068 112.335 42.892C112.559 42.7 112.911 42.604 113.391 42.604C113.839 42.604 114.159 42.676 114.351 42.82C114.543 42.948 114.663 43.132 114.711 43.372C114.759 43.596 114.783 43.852 114.783 44.14V52.924C114.783 53.196 114.759 53.444 114.711 53.668C114.663 53.892 114.535 54.068 114.327 54.196C114.135 54.324 113.815 54.388 113.367 54.388ZM108.951 51.604C109.495 51.604 109.983 51.468 110.415 51.196C110.847 50.924 111.191 50.556 111.447 50.092C111.719 49.612 111.855 49.084 111.855 48.508C111.855 47.884 111.719 47.34 111.447 46.876C111.175 46.412 110.815 46.052 110.367 45.796C109.935 45.524 109.447 45.388 108.903 45.388C108.311 45.388 107.783 45.532 107.319 45.82C106.855 46.092 106.487 46.468 106.215 46.948C105.959 47.412 105.831 47.94 105.831 48.532C105.831 49.108 105.967 49.628 106.239 50.092C106.511 50.556 106.879 50.924 107.343 51.196C107.823 51.468 108.359 51.604 108.951 51.604ZM123.359 54.412C122.575 54.412 121.871 54.26 121.247 53.956C120.639 53.636 120.119 53.204 119.687 52.66C119.271 52.116 118.951 51.492 118.727 50.788C118.519 50.068 118.415 49.3 118.415 48.484C118.431 47.668 118.551 46.908 118.775 46.204C118.999 45.484 119.319 44.86 119.735 44.332C120.167 43.788 120.687 43.364 121.295 43.06C121.903 42.756 122.591 42.604 123.359 42.604C124.095 42.604 124.783 42.756 125.423 43.06C126.079 43.364 126.655 43.788 127.151 44.332C127.663 44.86 128.063 45.484 128.351 46.204C128.639 46.908 128.783 47.66 128.783 48.46C128.783 49.292 128.639 50.076 128.351 50.812C128.063 51.532 127.671 52.164 127.175 52.708C126.679 53.236 126.103 53.652 125.447 53.956C124.791 54.26 124.095 54.412 123.359 54.412ZM122.975 51.604C123.535 51.604 124.039 51.476 124.487 51.22C124.935 50.948 125.287 50.58 125.543 50.116C125.815 49.652 125.951 49.124 125.951 48.532C125.951 47.924 125.815 47.388 125.543 46.924C125.287 46.444 124.935 46.076 124.487 45.82C124.039 45.548 123.535 45.412 122.975 45.412C122.431 45.412 121.935 45.548 121.487 45.82C121.039 46.092 120.679 46.46 120.407 46.924C120.151 47.388 120.023 47.924 120.023 48.532C120.023 49.124 120.151 49.652 120.407 50.116C120.679 50.58 121.039 50.948 121.487 51.22C121.935 51.476 122.431 51.604 122.975 51.604ZM118.535 54.436C118.103 54.436 117.783 54.364 117.575 54.22C117.367 54.092 117.239 53.924 117.191 53.716C117.143 53.492 117.119 53.244 117.119 52.972V38.668C117.119 38.396 117.143 38.156 117.191 37.948C117.239 37.724 117.367 37.548 117.575 37.42C117.783 37.292 118.103 37.228 118.535 37.228C118.983 37.228 119.303 37.292 119.495 37.42C119.687 37.548 119.807 37.724 119.855 37.948C119.903 38.172 119.927 38.412 119.927 38.668V53.452C119.863 53.804 119.727 54.052 119.519 54.196C119.327 54.356 118.999 54.436 118.535 54.436ZM132.364 46.468C131.756 46.468 131.332 46.348 131.092 46.108C130.852 45.868 130.732 45.46 130.732 44.884C130.732 44.468 130.78 44.14 130.876 43.9C130.988 43.66 131.164 43.492 131.404 43.396C131.644 43.284 131.964 43.228 132.364 43.228C132.972 43.228 133.388 43.348 133.612 43.588C133.852 43.828 133.972 44.252 133.972 44.86C133.972 45.244 133.924 45.556 133.828 45.796C133.732 46.036 133.564 46.212 133.324 46.324C133.084 46.42 132.764 46.468 132.364 46.468ZM132.34 54.436C131.748 54.436 131.332 54.324 131.092 54.1C130.852 53.86 130.732 53.444 130.732 52.852C130.732 52.436 130.78 52.116 130.876 51.892C130.988 51.652 131.164 51.476 131.404 51.364C131.644 51.252 131.964 51.196 132.364 51.196C132.956 51.196 133.372 51.316 133.612 51.556C133.852 51.796 133.972 52.22 133.972 52.828C133.972 53.228 133.916 53.548 133.804 53.788C133.708 54.028 133.54 54.196 133.3 54.292C133.076 54.388 132.756 54.436 132.34 54.436ZM146.561 54.436C145.969 54.436 145.441 54.396 144.977 54.316C144.529 54.236 144.137 54.1 143.801 53.908C143.481 53.716 143.217 53.46 143.009 53.14C142.801 52.804 142.641 52.396 142.529 51.916C142.433 51.436 142.385 50.86 142.385 50.188V38.62C142.385 38.348 142.409 38.108 142.457 37.9C142.521 37.676 142.649 37.5 142.841 37.372C143.049 37.228 143.377 37.156 143.825 37.156C144.273 37.156 144.593 37.22 144.785 37.348C144.993 37.476 145.121 37.652 145.169 37.876C145.233 38.084 145.265 38.324 145.265 38.596V50.068C145.265 50.372 145.281 50.628 145.313 50.836C145.361 51.028 145.433 51.188 145.529 51.316C145.641 51.428 145.777 51.508 145.937 51.556C146.113 51.604 146.321 51.628 146.561 51.628C146.769 51.628 146.953 51.652 147.113 51.7C147.289 51.748 147.425 51.868 147.521 52.06C147.633 52.252 147.689 52.564 147.689 52.996C147.689 53.444 147.633 53.772 147.521 53.98C147.425 54.188 147.289 54.316 147.113 54.364C146.937 54.412 146.753 54.436 146.561 54.436ZM150.953 54.436C150.521 54.436 150.201 54.364 149.993 54.22C149.785 54.092 149.657 53.924 149.609 53.716C149.561 53.492 149.537 53.244 149.537 52.972V44.044C149.537 43.788 149.561 43.556 149.609 43.348C149.673 43.124 149.801 42.948 149.993 42.82C150.201 42.692 150.529 42.628 150.977 42.628C151.425 42.628 151.745 42.692 151.937 42.82C152.145 42.948 152.273 43.124 152.321 43.348C152.369 43.572 152.393 43.82 152.393 44.092V52.996C152.393 53.268 152.369 53.516 152.321 53.74C152.273 53.948 152.145 54.116 151.937 54.244C151.745 54.372 151.417 54.436 150.953 54.436ZM150.953 40.3C150.489 40.3 150.145 40.236 149.921 40.108C149.713 39.964 149.577 39.772 149.513 39.532C149.465 39.292 149.441 39.028 149.441 38.74C149.441 38.436 149.465 38.172 149.513 37.948C149.577 37.724 149.721 37.548 149.945 37.42C150.169 37.276 150.513 37.204 150.977 37.204C151.457 37.204 151.801 37.276 152.009 37.42C152.217 37.564 152.353 37.756 152.417 37.996C152.481 38.22 152.513 38.484 152.513 38.788C152.513 39.06 152.481 39.316 152.417 39.556C152.353 39.796 152.217 39.98 152.009 40.108C151.801 40.236 151.449 40.3 150.953 40.3ZM156.435 54.412C156.003 54.412 155.683 54.34 155.475 54.196C155.283 54.068 155.163 53.9 155.115 53.692C155.067 53.468 155.043 53.22 155.043 52.948V43.972C155.043 43.716 155.067 43.484 155.115 43.276C155.163 43.068 155.291 42.908 155.499 42.796C155.707 42.668 156.027 42.604 156.459 42.604C156.843 42.604 157.131 42.652 157.323 42.748C157.515 42.844 157.643 42.964 157.707 43.108C157.771 43.252 157.803 43.396 157.803 43.54C157.819 43.684 157.835 43.796 157.851 43.876L157.755 44.644C157.851 44.388 158.011 44.14 158.235 43.9C158.459 43.66 158.731 43.444 159.051 43.252C159.371 43.044 159.715 42.884 160.083 42.772C160.467 42.644 160.859 42.58 161.259 42.58C162.011 42.58 162.683 42.716 163.275 42.988C163.867 43.26 164.371 43.644 164.787 44.14C165.219 44.636 165.547 45.228 165.771 45.916C165.995 46.588 166.107 47.348 166.107 48.196V52.972C166.107 53.244 166.075 53.492 166.011 53.716C165.963 53.924 165.843 54.092 165.651 54.22C165.459 54.348 165.131 54.412 164.667 54.412C164.219 54.412 163.891 54.34 163.683 54.196C163.475 54.068 163.347 53.9 163.299 53.692C163.251 53.468 163.227 53.22 163.227 52.948V48.172C163.227 47.596 163.123 47.1 162.915 46.684C162.723 46.268 162.435 45.948 162.051 45.724C161.683 45.5 161.211 45.388 160.635 45.388C160.075 45.388 159.587 45.508 159.171 45.748C158.755 45.972 158.435 46.292 158.211 46.708C157.987 47.124 157.875 47.612 157.875 48.172V52.972C157.875 53.244 157.851 53.492 157.803 53.716C157.755 53.924 157.627 54.092 157.419 54.22C157.227 54.348 156.899 54.412 156.435 54.412ZM173.608 59.236C173.032 59.236 172.48 59.164 171.952 59.02C171.424 58.892 170.944 58.716 170.512 58.492C170.096 58.268 169.76 58.028 169.504 57.772C169.264 57.516 169.144 57.276 169.144 57.052C169.144 56.828 169.176 56.636 169.24 56.476C169.32 56.316 169.432 56.156 169.576 55.996C169.768 55.804 169.92 55.66 170.032 55.564C170.16 55.468 170.328 55.42 170.536 55.42C170.712 55.42 170.88 55.484 171.04 55.612C171.216 55.74 171.416 55.884 171.64 56.044C171.864 56.204 172.136 56.348 172.456 56.476C172.776 56.604 173.184 56.668 173.68 56.668C174.096 56.668 174.48 56.596 174.832 56.452C175.184 56.308 175.48 56.092 175.72 55.804C175.976 55.532 176.176 55.204 176.32 54.82C176.464 54.436 176.536 54.004 176.536 53.524L176.512 43.588C176.544 43.22 176.672 42.964 176.896 42.82C177.12 42.66 177.464 42.58 177.928 42.58C178.36 42.58 178.672 42.644 178.864 42.772C179.056 42.884 179.176 43.052 179.224 43.276C179.272 43.484 179.296 43.716 179.296 43.972V53.692C179.296 54.572 179.144 55.356 178.84 56.044C178.536 56.732 178.12 57.308 177.592 57.772C177.064 58.252 176.456 58.612 175.768 58.852C175.096 59.108 174.376 59.236 173.608 59.236ZM173.344 54.124C172.592 54.124 171.888 53.98 171.232 53.692C170.592 53.404 170.024 52.996 169.528 52.468C169.048 51.94 168.664 51.332 168.376 50.644C168.104 49.94 167.968 49.18 167.968 48.364C167.968 47.564 168.104 46.82 168.376 46.132C168.664 45.444 169.048 44.836 169.528 44.308C170.024 43.78 170.592 43.372 171.232 43.084C171.888 42.78 172.584 42.628 173.32 42.628C174.04 42.628 174.664 42.772 175.192 43.06C175.736 43.332 176.184 43.724 176.536 44.236C176.888 44.748 177.152 45.356 177.328 46.06C177.52 46.764 177.616 47.54 177.616 48.388C177.616 49.556 177.456 50.572 177.136 51.436C176.816 52.3 176.344 52.964 175.72 53.428C175.096 53.892 174.304 54.124 173.344 54.124ZM173.608 51.412C174.152 51.412 174.632 51.284 175.048 51.028C175.48 50.756 175.816 50.388 176.056 49.924C176.312 49.46 176.44 48.94 176.44 48.364C176.44 47.772 176.312 47.252 176.056 46.804C175.816 46.34 175.48 45.98 175.048 45.724C174.616 45.468 174.128 45.34 173.584 45.34C173.04 45.34 172.552 45.476 172.12 45.748C171.704 46.004 171.376 46.356 171.136 46.804C170.896 47.252 170.776 47.772 170.776 48.364C170.776 48.956 170.896 49.484 171.136 49.948C171.392 50.396 171.728 50.756 172.144 51.028C172.576 51.284 173.064 51.412 173.608 51.412ZM191.263 51.844C191.679 52.196 191.895 52.524 191.911 52.828C191.943 53.132 191.783 53.484 191.431 53.884C191.159 54.188 190.919 54.388 190.711 54.484C190.503 54.58 190.295 54.58 190.087 54.484C189.879 54.404 189.631 54.244 189.343 54.004L184.759 50.14V52.996C184.759 53.252 184.727 53.492 184.663 53.716C184.615 53.94 184.487 54.116 184.279 54.244C184.087 54.372 183.767 54.436 183.319 54.436C182.871 54.436 182.543 54.364 182.335 54.22C182.143 54.092 182.023 53.916 181.975 53.692C181.927 53.468 181.903 53.228 181.903 52.972V38.644C181.903 38.372 181.927 38.132 181.975 37.924C182.039 37.7 182.167 37.524 182.359 37.396C182.567 37.252 182.895 37.18 183.343 37.18C183.791 37.18 184.111 37.252 184.303 37.396C184.495 37.524 184.615 37.7 184.663 37.924C184.727 38.132 184.759 38.38 184.759 38.668V46.54L188.071 43.324C188.327 43.084 188.567 42.924 188.791 42.844C189.015 42.748 189.231 42.74 189.439 42.82C189.663 42.884 189.895 43.052 190.135 43.324C190.535 43.756 190.727 44.116 190.711 44.404C190.695 44.676 190.495 45.004 190.111 45.388L186.871 48.388L191.263 51.844ZM197.954 54.412C197.218 54.412 196.538 54.284 195.914 54.028C195.306 53.756 194.77 53.372 194.306 52.876C193.842 52.38 193.482 51.788 193.226 51.1C192.97 50.412 192.842 49.652 192.842 48.82V44.044C192.842 43.772 192.866 43.532 192.914 43.324C192.962 43.1 193.09 42.924 193.298 42.796C193.506 42.668 193.826 42.604 194.258 42.604C194.722 42.604 195.05 42.668 195.242 42.796C195.45 42.924 195.578 43.1 195.626 43.324C195.674 43.548 195.698 43.796 195.698 44.068V48.82C195.698 49.396 195.794 49.892 195.986 50.308C196.194 50.724 196.49 51.052 196.874 51.292C197.258 51.516 197.73 51.628 198.29 51.628C198.866 51.628 199.354 51.516 199.754 51.292C200.17 51.052 200.49 50.724 200.714 50.308C200.938 49.876 201.05 49.38 201.05 48.82V44.02C201.05 43.748 201.074 43.508 201.122 43.3C201.17 43.076 201.298 42.908 201.506 42.796C201.714 42.668 202.042 42.604 202.49 42.604C202.938 42.604 203.258 42.668 203.45 42.796C203.642 42.924 203.762 43.1 203.81 43.324C203.874 43.548 203.906 43.788 203.906 44.044V53.044C203.906 53.284 203.874 53.508 203.81 53.716C203.762 53.924 203.634 54.092 203.426 54.22C203.234 54.348 202.914 54.412 202.466 54.412C202.146 54.412 201.89 54.372 201.698 54.292C201.522 54.228 201.386 54.14 201.29 54.028C201.21 53.9 201.154 53.772 201.122 53.644C201.106 53.516 201.098 53.388 201.098 53.26L201.29 52.612C201.194 52.756 201.05 52.932 200.858 53.14C200.666 53.332 200.426 53.532 200.138 53.74C199.866 53.932 199.546 54.092 199.178 54.22C198.81 54.348 198.402 54.412 197.954 54.412ZM207.693 54.412C207.261 54.412 206.941 54.34 206.733 54.196C206.541 54.068 206.421 53.9 206.373 53.692C206.325 53.468 206.301 53.22 206.301 52.948V43.972C206.301 43.716 206.325 43.484 206.373 43.276C206.421 43.068 206.549 42.908 206.757 42.796C206.965 42.668 207.285 42.604 207.717 42.604C208.101 42.604 208.389 42.652 208.581 42.748C208.773 42.844 208.901 42.964 208.965 43.108C209.029 43.252 209.061 43.396 209.061 43.54C209.077 43.684 209.093 43.796 209.109 43.876L209.013 44.644C209.109 44.388 209.269 44.14 209.493 43.9C209.717 43.66 209.989 43.444 210.309 43.252C210.629 43.044 210.973 42.884 211.341 42.772C211.725 42.644 212.117 42.58 212.517 42.58C213.269 42.58 213.941 42.716 214.533 42.988C215.125 43.26 215.629 43.644 216.045 44.14C216.477 44.636 216.805 45.228 217.029 45.916C217.253 46.588 217.365 47.348 217.365 48.196V52.972C217.365 53.244 217.333 53.492 217.269 53.716C217.221 53.924 217.101 54.092 216.909 54.22C216.717 54.348 216.389 54.412 215.925 54.412C215.477 54.412 215.149 54.34 214.941 54.196C214.733 54.068 214.605 53.9 214.557 53.692C214.509 53.468 214.485 53.22 214.485 52.948V48.172C214.485 47.596 214.381 47.1 214.173 46.684C213.981 46.268 213.693 45.948 213.309 45.724C212.941 45.5 212.469 45.388 211.893 45.388C211.333 45.388 210.845 45.508 210.429 45.748C210.013 45.972 209.693 46.292 209.469 46.708C209.245 47.124 209.133 47.612 209.133 48.172V52.972C209.133 53.244 209.109 53.492 209.061 53.716C209.013 53.924 208.885 54.092 208.677 54.22C208.485 54.348 208.157 54.412 207.693 54.412ZM224.866 59.236C224.29 59.236 223.738 59.164 223.21 59.02C222.682 58.892 222.202 58.716 221.77 58.492C221.354 58.268 221.018 58.028 220.762 57.772C220.522 57.516 220.402 57.276 220.402 57.052C220.402 56.828 220.434 56.636 220.498 56.476C220.578 56.316 220.69 56.156 220.834 55.996C221.026 55.804 221.178 55.66 221.29 55.564C221.418 55.468 221.586 55.42 221.794 55.42C221.97 55.42 222.138 55.484 222.298 55.612C222.474 55.74 222.674 55.884 222.898 56.044C223.122 56.204 223.394 56.348 223.714 56.476C224.034 56.604 224.442 56.668 224.938 56.668C225.354 56.668 225.738 56.596 226.09 56.452C226.442 56.308 226.738 56.092 226.978 55.804C227.234 55.532 227.434 55.204 227.578 54.82C227.722 54.436 227.794 54.004 227.794 53.524L227.77 43.588C227.802 43.22 227.93 42.964 228.154 42.82C228.378 42.66 228.722 42.58 229.186 42.58C229.618 42.58 229.93 42.644 230.122 42.772C230.314 42.884 230.434 43.052 230.482 43.276C230.53 43.484 230.554 43.716 230.554 43.972V53.692C230.554 54.572 230.402 55.356 230.098 56.044C229.794 56.732 229.378 57.308 228.85 57.772C228.322 58.252 227.714 58.612 227.026 58.852C226.354 59.108 225.634 59.236 224.866 59.236ZM224.602 54.124C223.85 54.124 223.146 53.98 222.49 53.692C221.85 53.404 221.282 52.996 220.786 52.468C220.306 51.94 219.922 51.332 219.634 50.644C219.362 49.94 219.226 49.18 219.226 48.364C219.226 47.564 219.362 46.82 219.634 46.132C219.922 45.444 220.306 44.836 220.786 44.308C221.282 43.78 221.85 43.372 222.49 43.084C223.146 42.78 223.842 42.628 224.578 42.628C225.298 42.628 225.922 42.772 226.45 43.06C226.994 43.332 227.442 43.724 227.794 44.236C228.146 44.748 228.41 45.356 228.586 46.06C228.778 46.764 228.874 47.54 228.874 48.388C228.874 49.556 228.714 50.572 228.394 51.436C228.074 52.3 227.602 52.964 226.978 53.428C226.354 53.892 225.562 54.124 224.602 54.124ZM224.866 51.412C225.41 51.412 225.89 51.284 226.306 51.028C226.738 50.756 227.074 50.388 227.314 49.924C227.57 49.46 227.698 48.94 227.698 48.364C227.698 47.772 227.57 47.252 227.314 46.804C227.074 46.34 226.738 45.98 226.306 45.724C225.874 45.468 225.386 45.34 224.842 45.34C224.298 45.34 223.81 45.476 223.378 45.748C222.962 46.004 222.634 46.356 222.394 46.804C222.154 47.252 222.034 47.772 222.034 48.364C222.034 48.956 222.154 49.484 222.394 49.948C222.65 50.396 222.986 50.756 223.402 51.028C223.834 51.284 224.322 51.412 224.866 51.412ZM242.718 54.388C242.254 54.388 241.91 54.3 241.686 54.124C241.462 53.948 241.35 53.708 241.35 53.404L241.518 52.612C241.39 52.82 241.174 53.068 240.87 53.356C240.566 53.628 240.166 53.876 239.67 54.1C239.174 54.308 238.574 54.412 237.87 54.412C237.118 54.412 236.406 54.26 235.734 53.956C235.078 53.636 234.494 53.204 233.982 52.66C233.486 52.1 233.086 51.468 232.782 50.764C232.494 50.044 232.35 49.276 232.35 48.46C232.35 47.676 232.494 46.94 232.782 46.252C233.086 45.548 233.494 44.924 234.006 44.38C234.518 43.836 235.102 43.412 235.758 43.108C236.43 42.788 237.134 42.628 237.87 42.628C238.526 42.628 239.078 42.716 239.526 42.892C239.99 43.068 240.382 43.292 240.702 43.564C241.022 43.82 241.286 44.092 241.494 44.38L241.35 43.684C241.35 43.332 241.462 43.068 241.686 42.892C241.91 42.7 242.262 42.604 242.742 42.604C243.19 42.604 243.51 42.676 243.702 42.82C243.894 42.948 244.014 43.132 244.062 43.372C244.11 43.596 244.134 43.852 244.134 44.14V52.924C244.134 53.196 244.11 53.444 244.062 53.668C244.014 53.892 243.886 54.068 243.678 54.196C243.486 54.324 243.166 54.388 242.718 54.388ZM238.302 51.604C238.846 51.604 239.334 51.468 239.766 51.196C240.198 50.924 240.542 50.556 240.798 50.092C241.07 49.612 241.206 49.084 241.206 48.508C241.206 47.884 241.07 47.34 240.798 46.876C240.526 46.412 240.166 46.052 239.718 45.796C239.286 45.524 238.798 45.388 238.254 45.388C237.662 45.388 237.134 45.532 236.67 45.82C236.206 46.092 235.838 46.468 235.566 46.948C235.31 47.412 235.182 47.94 235.182 48.532C235.182 49.108 235.318 49.628 235.59 50.092C235.862 50.556 236.23 50.924 236.694 51.196C237.174 51.468 237.71 51.604 238.302 51.604ZM247.958 54.412C247.526 54.412 247.206 54.34 246.998 54.196C246.806 54.068 246.686 53.9 246.638 53.692C246.59 53.468 246.566 53.22 246.566 52.948V43.972C246.566 43.716 246.59 43.484 246.638 43.276C246.686 43.068 246.814 42.908 247.022 42.796C247.23 42.668 247.55 42.604 247.982 42.604C248.366 42.604 248.654 42.652 248.846 42.748C249.038 42.844 249.166 42.964 249.23 43.108C249.294 43.252 249.326 43.396 249.326 43.54C249.342 43.684 249.358 43.796 249.374 43.876L249.278 44.644C249.374 44.388 249.534 44.14 249.758 43.9C249.982 43.66 250.254 43.444 250.574 43.252C250.894 43.044 251.238 42.884 251.606 42.772C251.99 42.644 252.382 42.58 252.782 42.58C253.534 42.58 254.206 42.716 254.798 42.988C255.39 43.26 255.894 43.644 256.31 44.14C256.742 44.636 257.07 45.228 257.294 45.916C257.518 46.588 257.63 47.348 257.63 48.196V52.972C257.63 53.244 257.598 53.492 257.534 53.716C257.486 53.924 257.366 54.092 257.174 54.22C256.982 54.348 256.654 54.412 256.19 54.412C255.742 54.412 255.414 54.34 255.206 54.196C254.998 54.068 254.87 53.9 254.822 53.692C254.774 53.468 254.75 53.22 254.75 52.948V48.172C254.75 47.596 254.646 47.1 254.438 46.684C254.246 46.268 253.958 45.948 253.574 45.724C253.206 45.5 252.734 45.388 252.158 45.388C251.598 45.388 251.11 45.508 250.694 45.748C250.278 45.972 249.958 46.292 249.734 46.708C249.51 47.124 249.398 47.612 249.398 48.172V52.972C249.398 53.244 249.374 53.492 249.326 53.716C249.278 53.924 249.15 54.092 248.942 54.22C248.75 54.348 248.422 54.412 247.958 54.412ZM275.333 51.844C275.749 52.196 275.965 52.524 275.981 52.828C276.013 53.132 275.853 53.484 275.501 53.884C275.229 54.188 274.989 54.388 274.781 54.484C274.573 54.58 274.365 54.58 274.157 54.484C273.949 54.404 273.701 54.244 273.413 54.004L268.829 50.14V52.996C268.829 53.252 268.797 53.492 268.733 53.716C268.685 53.94 268.557 54.116 268.349 54.244C268.157 54.372 267.837 54.436 267.389 54.436C266.941 54.436 266.613 54.364 266.405 54.22C266.213 54.092 266.093 53.916 266.045 53.692C265.997 53.468 265.973 53.228 265.973 52.972V38.644C265.973 38.372 265.997 38.132 266.045 37.924C266.109 37.7 266.237 37.524 266.429 37.396C266.637 37.252 266.965 37.18 267.413 37.18C267.861 37.18 268.181 37.252 268.373 37.396C268.565 37.524 268.685 37.7 268.733 37.924C268.797 38.132 268.829 38.38 268.829 38.668V46.54L272.141 43.324C272.397 43.084 272.637 42.924 272.861 42.844C273.085 42.748 273.301 42.74 273.509 42.82C273.733 42.884 273.965 43.052 274.205 43.324C274.605 43.756 274.797 44.116 274.781 44.404C274.765 44.676 274.565 45.004 274.181 45.388L270.941 48.388L275.333 51.844ZM282.84 54.58C281.8 54.58 280.888 54.412 280.104 54.076C279.336 53.74 278.688 53.284 278.16 52.708C277.648 52.116 277.256 51.46 276.984 50.74C276.728 50.004 276.6 49.244 276.6 48.46C276.6 47.308 276.864 46.284 277.392 45.388C277.92 44.492 278.648 43.788 279.576 43.276C280.52 42.764 281.6 42.508 282.816 42.508C283.68 42.508 284.44 42.644 285.096 42.916C285.752 43.188 286.296 43.548 286.728 43.996C287.176 44.428 287.512 44.908 287.736 45.436C287.976 45.964 288.096 46.476 288.096 46.972C288.096 47.82 287.888 48.436 287.472 48.82C287.072 49.204 286.568 49.396 285.96 49.396H279.624C279.64 49.94 279.808 50.412 280.128 50.812C280.464 51.212 280.88 51.524 281.376 51.748C281.888 51.956 282.408 52.06 282.936 52.06C283.336 52.06 283.688 52.036 283.992 51.988C284.312 51.94 284.584 51.884 284.808 51.82C285.032 51.74 285.224 51.66 285.384 51.58C285.56 51.5 285.72 51.428 285.864 51.364C286.008 51.3 286.144 51.26 286.272 51.244C286.448 51.228 286.624 51.268 286.8 51.364C286.976 51.46 287.12 51.628 287.232 51.868C287.328 52.028 287.392 52.18 287.424 52.324C287.472 52.452 287.496 52.58 287.496 52.708C287.496 53.028 287.304 53.332 286.92 53.62C286.536 53.892 285.992 54.116 285.288 54.292C284.6 54.484 283.784 54.58 282.84 54.58ZM279.624 47.692H284.544C284.816 47.692 285.024 47.652 285.168 47.572C285.312 47.476 285.384 47.284 285.384 46.996C285.384 46.628 285.272 46.3 285.048 46.012C284.824 45.708 284.52 45.476 284.136 45.316C283.752 45.14 283.304 45.052 282.792 45.052C282.2 45.052 281.664 45.172 281.184 45.412C280.704 45.636 280.32 45.948 280.032 46.348C279.76 46.748 279.624 47.196 279.624 47.692ZM294.194 54.436C293.602 54.436 293.074 54.396 292.61 54.316C292.162 54.236 291.77 54.1 291.434 53.908C291.114 53.716 290.85 53.46 290.642 53.14C290.434 52.804 290.274 52.396 290.162 51.916C290.066 51.436 290.018 50.86 290.018 50.188V38.62C290.018 38.348 290.042 38.108 290.09 37.9C290.154 37.676 290.282 37.5 290.474 37.372C290.682 37.228 291.01 37.156 291.458 37.156C291.906 37.156 292.226 37.22 292.418 37.348C292.626 37.476 292.754 37.652 292.802 37.876C292.866 38.084 292.898 38.324 292.898 38.596V50.068C292.898 50.372 292.914 50.628 292.946 50.836C292.994 51.028 293.066 51.188 293.162 51.316C293.274 51.428 293.41 51.508 293.57 51.556C293.746 51.604 293.954 51.628 294.194 51.628C294.402 51.628 294.586 51.652 294.746 51.7C294.922 51.748 295.058 51.868 295.154 52.06C295.266 52.252 295.322 52.564 295.322 52.996C295.322 53.444 295.266 53.772 295.154 53.98C295.058 54.188 294.922 54.316 294.746 54.364C294.57 54.412 294.386 54.436 294.194 54.436ZM301.712 54.412C300.976 54.412 300.296 54.284 299.672 54.028C299.064 53.756 298.528 53.372 298.064 52.876C297.6 52.38 297.24 51.788 296.984 51.1C296.728 50.412 296.6 49.652 296.6 48.82V44.044C296.6 43.772 296.624 43.532 296.672 43.324C296.72 43.1 296.848 42.924 297.056 42.796C297.264 42.668 297.584 42.604 298.016 42.604C298.48 42.604 298.808 42.668 299 42.796C299.208 42.924 299.336 43.1 299.384 43.324C299.432 43.548 299.456 43.796 299.456 44.068V48.82C299.456 49.396 299.552 49.892 299.744 50.308C299.952 50.724 300.248 51.052 300.632 51.292C301.016 51.516 301.488 51.628 302.048 51.628C302.624 51.628 303.112 51.516 303.512 51.292C303.928 51.052 304.248 50.724 304.472 50.308C304.696 49.876 304.808 49.38 304.808 48.82V44.02C304.808 43.748 304.832 43.508 304.88 43.3C304.928 43.076 305.056 42.908 305.264 42.796C305.472 42.668 305.8 42.604 306.248 42.604C306.696 42.604 307.016 42.668 307.208 42.796C307.4 42.924 307.52 43.1 307.568 43.324C307.632 43.548 307.664 43.788 307.664 44.044V53.044C307.664 53.284 307.632 53.508 307.568 53.716C307.52 53.924 307.392 54.092 307.184 54.22C306.992 54.348 306.672 54.412 306.224 54.412C305.904 54.412 305.648 54.372 305.456 54.292C305.28 54.228 305.144 54.14 305.048 54.028C304.968 53.9 304.912 53.772 304.88 53.644C304.864 53.516 304.856 53.388 304.856 53.26L305.048 52.612C304.952 52.756 304.808 52.932 304.616 53.14C304.424 53.332 304.184 53.532 303.896 53.74C303.624 53.932 303.304 54.092 302.936 54.22C302.568 54.348 302.16 54.412 301.712 54.412ZM319.874 54.388C319.41 54.388 319.066 54.3 318.842 54.124C318.618 53.948 318.506 53.708 318.506 53.404L318.674 52.612C318.546 52.82 318.33 53.068 318.026 53.356C317.722 53.628 317.322 53.876 316.826 54.1C316.33 54.308 315.73 54.412 315.026 54.412C314.274 54.412 313.562 54.26 312.89 53.956C312.234 53.636 311.65 53.204 311.138 52.66C310.642 52.1 310.242 51.468 309.938 50.764C309.65 50.044 309.506 49.276 309.506 48.46C309.506 47.676 309.65 46.94 309.938 46.252C310.242 45.548 310.65 44.924 311.162 44.38C311.674 43.836 312.258 43.412 312.914 43.108C313.586 42.788 314.29 42.628 315.026 42.628C315.682 42.628 316.234 42.716 316.682 42.892C317.146 43.068 317.538 43.292 317.858 43.564C318.178 43.82 318.442 44.092 318.65 44.38L318.506 43.684C318.506 43.332 318.618 43.068 318.842 42.892C319.066 42.7 319.418 42.604 319.898 42.604C320.346 42.604 320.666 42.676 320.858 42.82C321.05 42.948 321.17 43.132 321.218 43.372C321.266 43.596 321.29 43.852 321.29 44.14V52.924C321.29 53.196 321.266 53.444 321.218 53.668C321.17 53.892 321.042 54.068 320.834 54.196C320.642 54.324 320.322 54.388 319.874 54.388ZM315.458 51.604C316.002 51.604 316.49 51.468 316.922 51.196C317.354 50.924 317.698 50.556 317.954 50.092C318.226 49.612 318.362 49.084 318.362 48.508C318.362 47.884 318.226 47.34 317.954 46.876C317.682 46.412 317.322 46.052 316.874 45.796C316.442 45.524 315.954 45.388 315.41 45.388C314.818 45.388 314.29 45.532 313.826 45.82C313.362 46.092 312.994 46.468 312.722 46.948C312.466 47.412 312.338 47.94 312.338 48.532C312.338 49.108 312.474 49.628 312.746 50.092C313.018 50.556 313.386 50.924 313.85 51.196C314.33 51.468 314.866 51.604 315.458 51.604ZM325.114 54.436C324.682 54.436 324.362 54.364 324.154 54.22C323.962 54.092 323.842 53.916 323.794 53.692C323.746 53.468 323.722 53.22 323.722 52.948V44.044C323.722 43.756 323.746 43.508 323.794 43.3C323.842 43.076 323.962 42.908 324.154 42.796C324.362 42.668 324.69 42.604 325.138 42.604C325.57 42.604 325.882 42.66 326.074 42.772C326.282 42.884 326.41 43.028 326.458 43.204C326.522 43.364 326.554 43.524 326.554 43.684L326.362 44.116C326.442 43.988 326.554 43.836 326.698 43.66C326.842 43.468 327.034 43.284 327.274 43.108C327.514 42.916 327.802 42.764 328.138 42.652C328.474 42.524 328.874 42.46 329.338 42.46C329.53 42.46 329.73 42.484 329.938 42.532C330.162 42.564 330.378 42.62 330.586 42.7C330.81 42.764 331.01 42.852 331.186 42.964C331.362 43.076 331.498 43.212 331.594 43.372C331.69 43.516 331.738 43.684 331.738 43.876C331.738 44.388 331.61 44.82 331.354 45.172C331.098 45.524 330.794 45.7 330.442 45.7C330.202 45.7 330.026 45.676 329.914 45.628C329.802 45.58 329.706 45.524 329.626 45.46C329.562 45.396 329.458 45.34 329.314 45.292C329.186 45.244 328.978 45.22 328.69 45.22C328.45 45.22 328.202 45.26 327.946 45.34C327.706 45.42 327.482 45.54 327.274 45.7C327.066 45.86 326.898 46.068 326.77 46.324C326.642 46.564 326.578 46.844 326.578 47.164V52.996C326.578 53.268 326.554 53.516 326.506 53.74C326.458 53.948 326.33 54.116 326.122 54.244C325.914 54.372 325.578 54.436 325.114 54.436ZM338.093 59.236C337.517 59.236 336.965 59.164 336.437 59.02C335.909 58.892 335.429 58.716 334.997 58.492C334.581 58.268 334.245 58.028 333.989 57.772C333.749 57.516 333.629 57.276 333.629 57.052C333.629 56.828 333.661 56.636 333.725 56.476C333.805 56.316 333.917 56.156 334.061 55.996C334.253 55.804 334.405 55.66 334.517 55.564C334.645 55.468 334.813 55.42 335.021 55.42C335.197 55.42 335.365 55.484 335.525 55.612C335.701 55.74 335.901 55.884 336.125 56.044C336.349 56.204 336.621 56.348 336.941 56.476C337.261 56.604 337.669 56.668 338.165 56.668C338.581 56.668 338.965 56.596 339.317 56.452C339.669 56.308 339.965 56.092 340.205 55.804C340.461 55.532 340.661 55.204 340.805 54.82C340.949 54.436 341.021 54.004 341.021 53.524L340.997 43.588C341.029 43.22 341.157 42.964 341.381 42.82C341.605 42.66 341.949 42.58 342.413 42.58C342.845 42.58 343.157 42.644 343.349 42.772C343.541 42.884 343.661 43.052 343.709 43.276C343.757 43.484 343.781 43.716 343.781 43.972V53.692C343.781 54.572 343.629 55.356 343.325 56.044C343.021 56.732 342.605 57.308 342.077 57.772C341.549 58.252 340.941 58.612 340.253 58.852C339.581 59.108 338.861 59.236 338.093 59.236ZM337.829 54.124C337.077 54.124 336.373 53.98 335.717 53.692C335.077 53.404 334.509 52.996 334.013 52.468C333.533 51.94 333.149 51.332 332.861 50.644C332.589 49.94 332.453 49.18 332.453 48.364C332.453 47.564 332.589 46.82 332.861 46.132C333.149 45.444 333.533 44.836 334.013 44.308C334.509 43.78 335.077 43.372 335.717 43.084C336.373 42.78 337.069 42.628 337.805 42.628C338.525 42.628 339.149 42.772 339.677 43.06C340.221 43.332 340.669 43.724 341.021 44.236C341.373 44.748 341.637 45.356 341.813 46.06C342.005 46.764 342.101 47.54 342.101 48.388C342.101 49.556 341.941 50.572 341.621 51.436C341.301 52.3 340.829 52.964 340.205 53.428C339.581 53.892 338.789 54.124 337.829 54.124ZM338.093 51.412C338.637 51.412 339.117 51.284 339.533 51.028C339.965 50.756 340.301 50.388 340.541 49.924C340.797 49.46 340.925 48.94 340.925 48.364C340.925 47.772 340.797 47.252 340.541 46.804C340.301 46.34 339.965 45.98 339.533 45.724C339.101 45.468 338.613 45.34 338.069 45.34C337.525 45.34 337.037 45.476 336.605 45.748C336.189 46.004 335.861 46.356 335.621 46.804C335.381 47.252 335.261 47.772 335.261 48.364C335.261 48.956 335.381 49.484 335.621 49.948C335.877 50.396 336.213 50.756 336.629 51.028C337.061 51.284 337.549 51.412 338.093 51.412ZM355.945 54.388C355.481 54.388 355.137 54.3 354.913 54.124C354.689 53.948 354.577 53.708 354.577 53.404L354.745 52.612C354.617 52.82 354.401 53.068 354.097 53.356C353.793 53.628 353.393 53.876 352.897 54.1C352.401 54.308 351.801 54.412 351.097 54.412C350.345 54.412 349.633 54.26 348.961 53.956C348.305 53.636 347.721 53.204 347.209 52.66C346.713 52.1 346.313 51.468 346.009 50.764C345.721 50.044 345.577 49.276 345.577 48.46C345.577 47.676 345.721 46.94 346.009 46.252C346.313 45.548 346.721 44.924 347.233 44.38C347.745 43.836 348.329 43.412 348.985 43.108C349.657 42.788 350.361 42.628 351.097 42.628C351.753 42.628 352.305 42.716 352.753 42.892C353.217 43.068 353.609 43.292 353.929 43.564C354.249 43.82 354.513 44.092 354.721 44.38L354.577 43.684C354.577 43.332 354.689 43.068 354.913 42.892C355.137 42.7 355.489 42.604 355.969 42.604C356.417 42.604 356.737 42.676 356.929 42.82C357.121 42.948 357.241 43.132 357.289 43.372C357.337 43.596 357.361 43.852 357.361 44.14V52.924C357.361 53.196 357.337 53.444 357.289 53.668C357.241 53.892 357.113 54.068 356.905 54.196C356.713 54.324 356.393 54.388 355.945 54.388ZM351.529 51.604C352.073 51.604 352.561 51.468 352.993 51.196C353.425 50.924 353.769 50.556 354.025 50.092C354.297 49.612 354.433 49.084 354.433 48.508C354.433 47.884 354.297 47.34 354.025 46.876C353.753 46.412 353.393 46.052 352.945 45.796C352.513 45.524 352.025 45.388 351.481 45.388C350.889 45.388 350.361 45.532 349.897 45.82C349.433 46.092 349.065 46.468 348.793 46.948C348.537 47.412 348.409 47.94 348.409 48.532C348.409 49.108 348.545 49.628 348.817 50.092C349.089 50.556 349.457 50.924 349.921 51.196C350.401 51.468 350.937 51.604 351.529 51.604ZM359.913 56.908C359.913 56.908 359.881 56.892 359.817 56.86C359.753 56.844 359.689 56.78 359.625 56.668C359.561 56.572 359.529 56.412 359.529 56.188C359.529 55.884 359.577 55.684 359.673 55.588C359.769 55.508 359.833 55.46 359.865 55.444C359.881 55.428 359.993 55.332 360.201 55.156C360.409 54.996 360.529 54.716 360.561 54.316C360.401 54.284 360.257 54.244 360.129 54.196C360.017 54.132 359.921 54.06 359.841 53.98C359.681 53.82 359.585 53.636 359.553 53.428C359.521 53.204 359.505 52.98 359.505 52.756C359.505 52.388 359.545 52.084 359.625 51.844C359.705 51.604 359.857 51.428 360.081 51.316C360.321 51.188 360.673 51.124 361.137 51.124C361.745 51.124 362.177 51.252 362.433 51.508C362.577 51.652 362.657 51.836 362.673 52.06C362.705 52.284 362.721 52.508 362.721 52.732C362.721 52.892 362.721 53.028 362.721 53.14C362.721 53.236 362.713 53.324 362.697 53.404C362.633 54.044 362.465 54.628 362.193 55.156C361.937 55.684 361.609 56.108 361.209 56.428C360.825 56.748 360.393 56.908 359.913 56.908ZM361.089 46.492C360.481 46.492 360.057 46.372 359.817 46.132C359.593 45.876 359.481 45.468 359.481 44.908C359.481 44.492 359.521 44.164 359.601 43.924C359.697 43.684 359.865 43.516 360.105 43.42C360.361 43.308 360.697 43.252 361.113 43.252C361.737 43.252 362.161 43.372 362.385 43.612C362.609 43.852 362.721 44.276 362.721 44.884C362.721 45.172 362.689 45.444 362.625 45.7C362.561 45.94 362.417 46.132 362.193 46.276C361.969 46.42 361.601 46.492 361.089 46.492ZM96.0726 83.412C95.6566 83.412 95.3446 83.34 95.1366 83.196C94.9286 83.068 94.7926 82.892 94.7286 82.668C94.6646 82.444 94.6326 82.204 94.6326 81.948V68.076C94.6326 67.82 94.6566 67.588 94.7046 67.38C94.7686 67.156 94.9046 66.98 95.1126 66.852C95.3206 66.708 95.6486 66.636 96.0966 66.636L100.609 66.66C101.777 66.66 102.849 66.86 103.825 67.26C104.817 67.66 105.673 68.228 106.393 68.964C107.113 69.7 107.665 70.58 108.049 71.604C108.449 72.612 108.649 73.724 108.649 74.94C108.649 76.188 108.449 77.332 108.049 78.372C107.649 79.412 107.089 80.308 106.369 81.06C105.649 81.812 104.793 82.396 103.801 82.812C102.825 83.212 101.737 83.412 100.537 83.412H96.0726ZM97.5366 80.508H100.609C101.633 80.508 102.529 80.284 103.297 79.836C104.065 79.372 104.657 78.732 105.073 77.916C105.505 77.1 105.721 76.148 105.721 75.06C105.721 73.956 105.505 72.996 105.073 72.18C104.657 71.348 104.057 70.708 103.273 70.26C102.505 69.796 101.609 69.564 100.585 69.564H97.5366V80.508ZM120.761 83.388C120.297 83.388 119.953 83.3 119.729 83.124C119.505 82.948 119.393 82.708 119.393 82.404L119.561 81.612C119.433 81.82 119.217 82.068 118.913 82.356C118.609 82.628 118.209 82.876 117.713 83.1C117.217 83.308 116.617 83.412 115.913 83.412C115.161 83.412 114.449 83.26 113.777 82.956C113.121 82.636 112.537 82.204 112.025 81.66C111.529 81.1 111.129 80.468 110.825 79.764C110.537 79.044 110.393 78.276 110.393 77.46C110.393 76.676 110.537 75.94 110.825 75.252C111.129 74.548 111.537 73.924 112.049 73.38C112.561 72.836 113.145 72.412 113.801 72.108C114.473 71.788 115.177 71.628 115.913 71.628C116.569 71.628 117.121 71.716 117.569 71.892C118.033 72.068 118.425 72.292 118.745 72.564C119.065 72.82 119.329 73.092 119.537 73.38L119.393 72.684C119.393 72.332 119.505 72.068 119.729 71.892C119.953 71.7 120.305 71.604 120.785 71.604C121.233 71.604 121.553 71.676 121.745 71.82C121.937 71.948 122.057 72.132 122.105 72.372C122.153 72.596 122.177 72.852 122.177 73.14V81.924C122.177 82.196 122.153 82.444 122.105 82.668C122.057 82.892 121.929 83.068 121.721 83.196C121.529 83.324 121.209 83.388 120.761 83.388ZM116.345 80.604C116.889 80.604 117.377 80.468 117.809 80.196C118.241 79.924 118.585 79.556 118.841 79.092C119.113 78.612 119.249 78.084 119.249 77.508C119.249 76.884 119.113 76.34 118.841 75.876C118.569 75.412 118.209 75.052 117.761 74.796C117.329 74.524 116.841 74.388 116.297 74.388C115.705 74.388 115.177 74.532 114.713 74.82C114.249 75.092 113.881 75.468 113.609 75.948C113.353 76.412 113.225 76.94 113.225 77.532C113.225 78.108 113.361 78.628 113.633 79.092C113.905 79.556 114.273 79.924 114.737 80.196C115.217 80.468 115.753 80.604 116.345 80.604ZM125.977 83.412C125.545 83.412 125.225 83.348 125.017 83.22C124.825 83.092 124.705 82.916 124.657 82.692C124.609 82.468 124.585 82.228 124.585 81.972V72.996C124.585 72.74 124.609 72.508 124.657 72.3C124.705 72.092 124.833 71.924 125.041 71.796C125.249 71.668 125.577 71.604 126.025 71.604C126.489 71.604 126.825 71.7 127.033 71.892C127.257 72.084 127.369 72.388 127.369 72.804L127.153 73.476C127.233 73.3 127.369 73.108 127.561 72.9C127.753 72.692 127.985 72.484 128.257 72.276C128.545 72.068 128.865 71.9 129.217 71.772C129.569 71.644 129.937 71.58 130.321 71.58C130.849 71.58 131.329 71.668 131.761 71.844C132.209 72.02 132.601 72.276 132.937 72.612C133.289 72.948 133.593 73.356 133.849 73.836C134.121 73.42 134.425 73.044 134.761 72.708C135.097 72.356 135.489 72.084 135.937 71.892C136.385 71.684 136.889 71.58 137.449 71.58C138.377 71.58 139.153 71.812 139.777 72.276C140.417 72.74 140.897 73.404 141.217 74.268C141.553 75.116 141.721 76.132 141.721 77.316V81.972C141.721 82.244 141.689 82.492 141.625 82.716C141.577 82.924 141.449 83.092 141.241 83.22C141.049 83.348 140.729 83.412 140.281 83.412C139.833 83.412 139.505 83.34 139.297 83.196C139.089 83.068 138.961 82.9 138.913 82.692C138.865 82.468 138.841 82.22 138.841 81.948V77.292C138.841 76.7 138.769 76.188 138.625 75.756C138.481 75.324 138.265 74.988 137.977 74.748C137.705 74.508 137.345 74.388 136.897 74.388C136.417 74.388 136.001 74.508 135.649 74.748C135.313 74.972 135.049 75.3 134.857 75.732C134.665 76.164 134.569 76.692 134.569 77.316V81.996C134.569 82.268 134.529 82.524 134.449 82.764C134.369 82.988 134.209 83.156 133.969 83.268C133.745 83.396 133.417 83.444 132.985 83.412C132.585 83.396 132.289 83.316 132.097 83.172C131.921 83.028 131.809 82.852 131.761 82.644C131.729 82.42 131.713 82.188 131.713 81.948V77.292C131.713 76.7 131.641 76.188 131.497 75.756C131.353 75.308 131.137 74.972 130.849 74.748C130.577 74.508 130.209 74.388 129.745 74.388C129.249 74.388 128.825 74.516 128.473 74.772C128.137 75.028 127.881 75.372 127.705 75.804C127.529 76.236 127.441 76.732 127.441 77.292V81.996C127.441 82.252 127.409 82.492 127.345 82.716C127.297 82.94 127.169 83.108 126.961 83.22C126.769 83.348 126.441 83.412 125.977 83.412ZM150.204 83.268C149.42 83.268 148.716 83.124 148.092 82.836C147.484 82.532 146.964 82.116 146.532 81.588C146.116 81.044 145.796 80.42 145.572 79.716C145.364 79.012 145.26 78.252 145.26 77.436C145.276 76.62 145.396 75.86 145.62 75.156C145.844 74.436 146.164 73.812 146.58 73.284C147.012 72.756 147.532 72.34 148.14 72.036C148.748 71.732 149.436 71.58 150.204 71.58C150.94 71.58 151.628 71.732 152.268 72.036C152.924 72.34 153.5 72.764 153.996 73.308C154.508 73.852 154.908 74.484 155.196 75.204C155.484 75.908 155.628 76.668 155.628 77.484C155.628 78.316 155.484 79.084 155.196 79.788C154.908 80.492 154.516 81.108 154.02 81.636C153.524 82.148 152.948 82.548 152.292 82.836C151.636 83.124 150.94 83.268 150.204 83.268ZM145.404 88.26C144.972 88.26 144.652 88.196 144.444 88.068C144.236 87.94 144.108 87.772 144.06 87.564C144.012 87.356 143.988 87.116 143.988 86.844V73.044C143.988 72.772 144.012 72.532 144.06 72.324C144.108 72.116 144.228 71.948 144.42 71.82C144.628 71.676 144.948 71.604 145.38 71.604C145.796 71.604 146.124 71.668 146.364 71.796C146.604 71.924 146.764 72.14 146.844 72.444V86.82C146.86 87.092 146.836 87.332 146.772 87.54C146.724 87.764 146.596 87.94 146.388 88.068C146.18 88.196 145.852 88.26 145.404 88.26ZM149.82 80.58C150.38 80.58 150.884 80.452 151.332 80.196C151.78 79.924 152.132 79.556 152.388 79.092C152.66 78.612 152.796 78.076 152.796 77.484C152.796 76.876 152.66 76.34 152.388 75.876C152.132 75.412 151.78 75.052 151.332 74.796C150.884 74.524 150.38 74.388 149.82 74.388C149.276 74.388 148.78 74.524 148.332 74.796C147.884 75.068 147.524 75.436 147.252 75.9C146.996 76.348 146.868 76.876 146.868 77.484C146.868 78.076 146.996 78.612 147.252 79.092C147.524 79.556 147.884 79.924 148.332 80.196C148.78 80.452 149.276 80.58 149.82 80.58ZM167.495 83.388C167.031 83.388 166.687 83.3 166.463 83.124C166.239 82.948 166.127 82.708 166.127 82.404L166.295 81.612C166.167 81.82 165.951 82.068 165.647 82.356C165.343 82.628 164.943 82.876 164.447 83.1C163.951 83.308 163.351 83.412 162.647 83.412C161.895 83.412 161.183 83.26 160.511 82.956C159.855 82.636 159.271 82.204 158.759 81.66C158.263 81.1 157.863 80.468 157.559 79.764C157.271 79.044 157.127 78.276 157.127 77.46C157.127 76.676 157.271 75.94 157.559 75.252C157.863 74.548 158.271 73.924 158.783 73.38C159.295 72.836 159.879 72.412 160.535 72.108C161.207 71.788 161.911 71.628 162.647 71.628C163.303 71.628 163.855 71.716 164.303 71.892C164.767 72.068 165.159 72.292 165.479 72.564C165.799 72.82 166.063 73.092 166.271 73.38L166.127 72.684C166.127 72.332 166.239 72.068 166.463 71.892C166.687 71.7 167.039 71.604 167.519 71.604C167.967 71.604 168.287 71.676 168.479 71.82C168.671 71.948 168.791 72.132 168.839 72.372C168.887 72.596 168.911 72.852 168.911 73.14V81.924C168.911 82.196 168.887 82.444 168.839 82.668C168.791 82.892 168.663 83.068 168.455 83.196C168.263 83.324 167.943 83.388 167.495 83.388ZM163.079 80.604C163.623 80.604 164.111 80.468 164.543 80.196C164.975 79.924 165.319 79.556 165.575 79.092C165.847 78.612 165.983 78.084 165.983 77.508C165.983 76.884 165.847 76.34 165.575 75.876C165.303 75.412 164.943 75.052 164.495 74.796C164.063 74.524 163.575 74.388 163.031 74.388C162.439 74.388 161.911 74.532 161.447 74.82C160.983 75.092 160.615 75.468 160.343 75.948C160.087 76.412 159.959 76.94 159.959 77.532C159.959 78.108 160.095 78.628 160.367 79.092C160.639 79.556 161.007 79.924 161.471 80.196C161.951 80.468 162.487 80.604 163.079 80.604ZM180.728 80.844C181.144 81.196 181.36 81.524 181.376 81.828C181.408 82.132 181.248 82.484 180.896 82.884C180.624 83.188 180.384 83.388 180.176 83.484C179.968 83.58 179.76 83.58 179.552 83.484C179.344 83.404 179.096 83.244 178.808 83.004L174.224 79.14V81.996C174.224 82.252 174.192 82.492 174.128 82.716C174.08 82.94 173.952 83.116 173.744 83.244C173.552 83.372 173.232 83.436 172.784 83.436C172.336 83.436 172.008 83.364 171.8 83.22C171.608 83.092 171.488 82.916 171.44 82.692C171.392 82.468 171.368 82.228 171.368 81.972V67.644C171.368 67.372 171.392 67.132 171.44 66.924C171.504 66.7 171.632 66.524 171.824 66.396C172.032 66.252 172.36 66.18 172.808 66.18C173.256 66.18 173.576 66.252 173.768 66.396C173.96 66.524 174.08 66.7 174.128 66.924C174.192 67.132 174.224 67.38 174.224 67.668V75.54L177.536 72.324C177.792 72.084 178.032 71.924 178.256 71.844C178.48 71.748 178.696 71.74 178.904 71.82C179.128 71.884 179.36 72.052 179.6 72.324C180 72.756 180.192 73.116 180.176 73.404C180.16 73.676 179.96 74.004 179.576 74.388L176.336 77.388L180.728 80.844ZM195.274 83.268C194.49 83.268 193.786 83.124 193.162 82.836C192.554 82.532 192.034 82.116 191.602 81.588C191.186 81.044 190.866 80.42 190.642 79.716C190.434 79.012 190.33 78.252 190.33 77.436C190.346 76.62 190.466 75.86 190.69 75.156C190.914 74.436 191.234 73.812 191.65 73.284C192.082 72.756 192.602 72.34 193.21 72.036C193.818 71.732 194.506 71.58 195.274 71.58C196.01 71.58 196.698 71.732 197.338 72.036C197.994 72.34 198.57 72.764 199.066 73.308C199.578 73.852 199.978 74.484 200.266 75.204C200.554 75.908 200.698 76.668 200.698 77.484C200.698 78.316 200.554 79.084 200.266 79.788C199.978 80.492 199.586 81.108 199.09 81.636C198.594 82.148 198.018 82.548 197.362 82.836C196.706 83.124 196.01 83.268 195.274 83.268ZM190.474 88.26C190.042 88.26 189.722 88.196 189.514 88.068C189.306 87.94 189.178 87.772 189.13 87.564C189.082 87.356 189.058 87.116 189.058 86.844V73.044C189.058 72.772 189.082 72.532 189.13 72.324C189.178 72.116 189.298 71.948 189.49 71.82C189.698 71.676 190.018 71.604 190.45 71.604C190.866 71.604 191.194 71.668 191.434 71.796C191.674 71.924 191.834 72.14 191.914 72.444V86.82C191.93 87.092 191.906 87.332 191.842 87.54C191.794 87.764 191.666 87.94 191.458 88.068C191.25 88.196 190.922 88.26 190.474 88.26ZM194.89 80.58C195.45 80.58 195.954 80.452 196.402 80.196C196.85 79.924 197.202 79.556 197.458 79.092C197.73 78.612 197.866 78.076 197.866 77.484C197.866 76.876 197.73 76.34 197.458 75.876C197.202 75.412 196.85 75.052 196.402 74.796C195.954 74.524 195.45 74.388 194.89 74.388C194.346 74.388 193.85 74.524 193.402 74.796C192.954 75.068 192.594 75.436 192.322 75.9C192.066 76.348 191.938 76.876 191.938 77.484C191.938 78.076 192.066 78.612 192.322 79.092C192.594 79.556 192.954 79.924 193.402 80.196C193.85 80.452 194.346 80.58 194.89 80.58ZM206.83 83.58C206.414 83.58 205.974 83.532 205.51 83.436C205.046 83.356 204.598 83.236 204.166 83.076C203.734 82.9 203.358 82.7 203.038 82.476C202.734 82.236 202.542 81.972 202.462 81.684C202.398 81.524 202.374 81.372 202.39 81.228C202.406 81.068 202.454 80.908 202.534 80.748C202.614 80.572 202.734 80.396 202.894 80.22C203.038 80.044 203.182 79.948 203.326 79.932C203.486 79.9 203.686 79.948 203.926 80.076C204.134 80.156 204.358 80.26 204.598 80.388C204.854 80.516 205.11 80.644 205.366 80.772C205.638 80.9 205.91 81.004 206.182 81.084C206.47 81.164 206.75 81.204 207.022 81.204C207.614 81.204 208.086 81.108 208.438 80.916C208.79 80.708 208.966 80.42 208.966 80.052C208.966 79.844 208.91 79.66 208.798 79.5C208.686 79.34 208.534 79.212 208.342 79.116C208.166 79.004 207.95 78.908 207.694 78.828C207.454 78.732 207.19 78.652 206.902 78.588C206.63 78.508 206.342 78.42 206.038 78.324C205.638 78.212 205.238 78.076 204.838 77.916C204.438 77.756 204.078 77.548 203.758 77.292C203.454 77.036 203.206 76.716 203.014 76.332C202.822 75.948 202.726 75.468 202.726 74.892C202.726 74.172 202.894 73.564 203.23 73.068C203.582 72.556 204.086 72.164 204.742 71.892C205.398 71.62 206.19 71.484 207.118 71.484C207.438 71.484 207.742 71.508 208.03 71.556C208.334 71.604 208.622 71.676 208.894 71.772C209.182 71.852 209.454 71.956 209.71 72.084C209.982 72.212 210.238 72.356 210.478 72.516C210.878 72.74 211.086 73.004 211.102 73.308C211.118 73.596 211.006 73.908 210.766 74.244C210.59 74.468 210.414 74.628 210.238 74.724C210.062 74.804 209.878 74.804 209.686 74.724C209.43 74.596 209.15 74.46 208.846 74.316C208.558 74.156 208.254 74.02 207.934 73.908C207.63 73.796 207.31 73.74 206.974 73.74C206.654 73.74 206.366 73.788 206.11 73.884C205.854 73.98 205.662 74.116 205.534 74.292C205.406 74.468 205.342 74.676 205.342 74.916C205.342 75.14 205.406 75.324 205.534 75.468C205.662 75.612 205.83 75.732 206.038 75.828C206.246 75.924 206.494 76.012 206.782 76.092C207.07 76.156 207.374 76.22 207.694 76.284C208.142 76.38 208.598 76.5 209.062 76.644C209.526 76.788 209.95 76.988 210.334 77.244C210.734 77.5 211.054 77.844 211.294 78.276C211.534 78.692 211.654 79.236 211.654 79.908C211.654 81.076 211.222 81.98 210.358 82.62C209.51 83.26 208.334 83.58 206.83 83.58ZM215.277 83.436C214.845 83.436 214.525 83.364 214.317 83.22C214.109 83.092 213.981 82.924 213.933 82.716C213.885 82.492 213.861 82.244 213.861 81.972V73.044C213.861 72.788 213.885 72.556 213.933 72.348C213.997 72.124 214.125 71.948 214.317 71.82C214.525 71.692 214.853 71.628 215.301 71.628C215.749 71.628 216.069 71.692 216.261 71.82C216.469 71.948 216.597 72.124 216.645 72.348C216.693 72.572 216.717 72.82 216.717 73.092V81.996C216.717 82.268 216.693 82.516 216.645 82.74C216.597 82.948 216.469 83.116 216.261 83.244C216.069 83.372 215.741 83.436 215.277 83.436ZM215.277 69.3C214.813 69.3 214.469 69.236 214.245 69.108C214.037 68.964 213.901 68.772 213.837 68.532C213.789 68.292 213.765 68.028 213.765 67.74C213.765 67.436 213.789 67.172 213.837 66.948C213.901 66.724 214.045 66.548 214.269 66.42C214.493 66.276 214.837 66.204 215.301 66.204C215.781 66.204 216.125 66.276 216.333 66.42C216.541 66.564 216.677 66.756 216.741 66.996C216.805 67.22 216.837 67.484 216.837 67.788C216.837 68.06 216.805 68.316 216.741 68.556C216.677 68.796 216.541 68.98 216.333 69.108C216.125 69.236 215.773 69.3 215.277 69.3ZM228.751 80.844C229.167 81.196 229.383 81.524 229.399 81.828C229.431 82.132 229.271 82.484 228.919 82.884C228.647 83.188 228.407 83.388 228.199 83.484C227.991 83.58 227.783 83.58 227.575 83.484C227.367 83.404 227.119 83.244 226.831 83.004L222.247 79.14V81.996C222.247 82.252 222.215 82.492 222.151 82.716C222.103 82.94 221.975 83.116 221.767 83.244C221.575 83.372 221.255 83.436 220.807 83.436C220.359 83.436 220.031 83.364 219.823 83.22C219.631 83.092 219.511 82.916 219.463 82.692C219.415 82.468 219.391 82.228 219.391 81.972V67.644C219.391 67.372 219.415 67.132 219.463 66.924C219.527 66.7 219.655 66.524 219.847 66.396C220.055 66.252 220.383 66.18 220.831 66.18C221.279 66.18 221.599 66.252 221.791 66.396C221.983 66.524 222.103 66.7 222.151 66.924C222.215 67.132 222.247 67.38 222.247 67.668V75.54L225.559 72.324C225.815 72.084 226.055 71.924 226.279 71.844C226.503 71.748 226.719 71.74 226.927 71.82C227.151 71.884 227.383 72.052 227.623 72.324C228.023 72.756 228.215 73.116 228.199 73.404C228.183 73.676 227.983 74.004 227.599 74.388L224.359 77.388L228.751 80.844ZM236.066 83.58C235.298 83.58 234.546 83.436 233.81 83.148C233.09 82.844 232.434 82.42 231.842 81.876C231.266 81.332 230.802 80.692 230.45 79.956C230.114 79.22 229.946 78.412 229.946 77.532C229.946 76.684 230.106 75.892 230.426 75.156C230.746 74.42 231.186 73.772 231.746 73.212C232.306 72.652 232.946 72.22 233.666 71.916C234.402 71.596 235.186 71.436 236.018 71.436C237.138 71.436 238.154 71.708 239.066 72.252C239.978 72.78 240.706 73.5 241.25 74.412C241.794 75.324 242.066 76.356 242.066 77.508C242.066 78.42 241.898 79.252 241.562 80.004C241.226 80.74 240.77 81.38 240.194 81.924C239.618 82.452 238.97 82.86 238.25 83.148C237.546 83.436 236.818 83.58 236.066 83.58ZM236.018 80.748C236.546 80.748 237.05 80.62 237.53 80.364C238.026 80.092 238.426 79.708 238.73 79.212C239.05 78.716 239.21 78.132 239.21 77.46C239.21 76.836 239.066 76.284 238.778 75.804C238.506 75.324 238.13 74.948 237.65 74.676C237.17 74.404 236.618 74.268 235.994 74.268C235.402 74.268 234.866 74.412 234.386 74.7C233.906 74.972 233.522 75.356 233.234 75.852C232.962 76.332 232.826 76.876 232.826 77.484C232.826 78.156 232.978 78.74 233.282 79.236C233.586 79.716 233.978 80.092 234.458 80.364C234.954 80.62 235.474 80.748 236.018 80.748ZM248.08 83.436C247.488 83.436 246.96 83.396 246.496 83.316C246.048 83.236 245.656 83.1 245.32 82.908C245 82.716 244.736 82.46 244.528 82.14C244.32 81.804 244.16 81.396 244.048 80.916C243.952 80.436 243.904 79.86 243.904 79.188V67.62C243.904 67.348 243.928 67.108 243.976 66.9C244.04 66.676 244.168 66.5 244.36 66.372C244.568 66.228 244.896 66.156 245.344 66.156C245.792 66.156 246.112 66.22 246.304 66.348C246.512 66.476 246.64 66.652 246.688 66.876C246.752 67.084 246.784 67.324 246.784 67.596V79.068C246.784 79.372 246.8 79.628 246.832 79.836C246.88 80.028 246.952 80.188 247.048 80.316C247.16 80.428 247.296 80.508 247.456 80.556C247.632 80.604 247.84 80.628 248.08 80.628C248.288 80.628 248.472 80.652 248.632 80.7C248.808 80.748 248.944 80.868 249.04 81.06C249.152 81.252 249.208 81.564 249.208 81.996C249.208 82.444 249.152 82.772 249.04 82.98C248.944 83.188 248.808 83.316 248.632 83.364C248.456 83.412 248.272 83.436 248.08 83.436ZM256.457 83.58C255.689 83.58 254.937 83.436 254.201 83.148C253.481 82.844 252.825 82.42 252.233 81.876C251.657 81.332 251.193 80.692 250.841 79.956C250.505 79.22 250.337 78.412 250.337 77.532C250.337 76.684 250.497 75.892 250.817 75.156C251.137 74.42 251.577 73.772 252.137 73.212C252.697 72.652 253.337 72.22 254.057 71.916C254.793 71.596 255.577 71.436 256.409 71.436C257.529 71.436 258.545 71.708 259.457 72.252C260.369 72.78 261.097 73.5 261.641 74.412C262.185 75.324 262.457 76.356 262.457 77.508C262.457 78.42 262.289 79.252 261.953 80.004C261.617 80.74 261.161 81.38 260.585 81.924C260.009 82.452 259.361 82.86 258.641 83.148C257.937 83.436 257.209 83.58 256.457 83.58ZM256.409 80.748C256.937 80.748 257.441 80.62 257.921 80.364C258.417 80.092 258.817 79.708 259.121 79.212C259.441 78.716 259.601 78.132 259.601 77.46C259.601 76.836 259.457 76.284 259.169 75.804C258.897 75.324 258.521 74.948 258.041 74.676C257.561 74.404 257.009 74.268 256.385 74.268C255.793 74.268 255.257 74.412 254.777 74.7C254.297 74.972 253.913 75.356 253.625 75.852C253.353 76.332 253.217 76.876 253.217 77.484C253.217 78.156 253.369 78.74 253.673 79.236C253.977 79.716 254.369 80.092 254.849 80.364C255.345 80.62 255.865 80.748 256.409 80.748ZM269.503 88.236C268.927 88.236 268.375 88.164 267.847 88.02C267.319 87.892 266.839 87.716 266.407 87.492C265.991 87.268 265.655 87.028 265.399 86.772C265.159 86.516 265.039 86.276 265.039 86.052C265.039 85.828 265.071 85.636 265.135 85.476C265.215 85.316 265.327 85.156 265.471 84.996C265.663 84.804 265.815 84.66 265.927 84.564C266.055 84.468 266.223 84.42 266.431 84.42C266.607 84.42 266.775 84.484 266.935 84.612C267.111 84.74 267.311 84.884 267.535 85.044C267.759 85.204 268.031 85.348 268.351 85.476C268.671 85.604 269.079 85.668 269.575 85.668C269.991 85.668 270.375 85.596 270.727 85.452C271.079 85.308 271.375 85.092 271.615 84.804C271.871 84.532 272.071 84.204 272.215 83.82C272.359 83.436 272.431 83.004 272.431 82.524L272.407 72.588C272.439 72.22 272.567 71.964 272.791 71.82C273.015 71.66 273.359 71.58 273.823 71.58C274.255 71.58 274.567 71.644 274.759 71.772C274.951 71.884 275.071 72.052 275.119 72.276C275.167 72.484 275.191 72.716 275.191 72.972V82.692C275.191 83.572 275.039 84.356 274.735 85.044C274.431 85.732 274.015 86.308 273.487 86.772C272.959 87.252 272.351 87.612 271.663 87.852C270.991 88.108 270.271 88.236 269.503 88.236ZM269.239 83.124C268.487 83.124 267.783 82.98 267.127 82.692C266.487 82.404 265.919 81.996 265.423 81.468C264.943 80.94 264.559 80.332 264.271 79.644C263.999 78.94 263.863 78.18 263.863 77.364C263.863 76.564 263.999 75.82 264.271 75.132C264.559 74.444 264.943 73.836 265.423 73.308C265.919 72.78 266.487 72.372 267.127 72.084C267.783 71.78 268.479 71.628 269.215 71.628C269.935 71.628 270.559 71.772 271.087 72.06C271.631 72.332 272.079 72.724 272.431 73.236C272.783 73.748 273.047 74.356 273.223 75.06C273.415 75.764 273.511 76.54 273.511 77.388C273.511 78.556 273.351 79.572 273.031 80.436C272.711 81.3 272.239 81.964 271.615 82.428C270.991 82.892 270.199 83.124 269.239 83.124ZM269.503 80.412C270.047 80.412 270.527 80.284 270.943 80.028C271.375 79.756 271.711 79.388 271.951 78.924C272.207 78.46 272.335 77.94 272.335 77.364C272.335 76.772 272.207 76.252 271.951 75.804C271.711 75.34 271.375 74.98 270.943 74.724C270.511 74.468 270.023 74.34 269.479 74.34C268.935 74.34 268.447 74.476 268.015 74.748C267.599 75.004 267.271 75.356 267.031 75.804C266.791 76.252 266.671 76.772 266.671 77.364C266.671 77.956 266.791 78.484 267.031 78.948C267.287 79.396 267.623 79.756 268.039 80.028C268.471 80.284 268.959 80.412 269.503 80.412ZM279.285 83.436C278.853 83.436 278.533 83.364 278.325 83.22C278.117 83.092 277.989 82.924 277.941 82.716C277.893 82.492 277.869 82.244 277.869 81.972V73.044C277.869 72.788 277.893 72.556 277.941 72.348C278.005 72.124 278.133 71.948 278.325 71.82C278.533 71.692 278.861 71.628 279.309 71.628C279.757 71.628 280.077 71.692 280.269 71.82C280.477 71.948 280.605 72.124 280.653 72.348C280.701 72.572 280.725 72.82 280.725 73.092V81.996C280.725 82.268 280.701 82.516 280.653 82.74C280.605 82.948 280.477 83.116 280.269 83.244C280.077 83.372 279.749 83.436 279.285 83.436ZM279.285 69.3C278.821 69.3 278.477 69.236 278.253 69.108C278.045 68.964 277.909 68.772 277.845 68.532C277.797 68.292 277.773 68.028 277.773 67.74C277.773 67.436 277.797 67.172 277.845 66.948C277.909 66.724 278.053 66.548 278.277 66.42C278.501 66.276 278.845 66.204 279.309 66.204C279.789 66.204 280.133 66.276 280.341 66.42C280.549 66.564 280.685 66.756 280.749 66.996C280.813 67.22 280.845 67.484 280.845 67.788C280.845 68.06 280.813 68.316 280.749 68.556C280.685 68.796 280.549 68.98 280.341 69.108C280.133 69.236 279.781 69.3 279.285 69.3ZM287.455 83.58C287.039 83.58 286.599 83.532 286.135 83.436C285.671 83.356 285.223 83.236 284.791 83.076C284.359 82.9 283.983 82.7 283.663 82.476C283.359 82.236 283.167 81.972 283.087 81.684C283.023 81.524 282.999 81.372 283.015 81.228C283.031 81.068 283.079 80.908 283.159 80.748C283.239 80.572 283.359 80.396 283.519 80.22C283.663 80.044 283.807 79.948 283.951 79.932C284.111 79.9 284.311 79.948 284.551 80.076C284.759 80.156 284.983 80.26 285.223 80.388C285.479 80.516 285.735 80.644 285.991 80.772C286.263 80.9 286.535 81.004 286.807 81.084C287.095 81.164 287.375 81.204 287.647 81.204C288.239 81.204 288.711 81.108 289.063 80.916C289.415 80.708 289.591 80.42 289.591 80.052C289.591 79.844 289.535 79.66 289.423 79.5C289.311 79.34 289.159 79.212 288.967 79.116C288.791 79.004 288.575 78.908 288.319 78.828C288.079 78.732 287.815 78.652 287.527 78.588C287.255 78.508 286.967 78.42 286.663 78.324C286.263 78.212 285.863 78.076 285.463 77.916C285.063 77.756 284.703 77.548 284.383 77.292C284.079 77.036 283.831 76.716 283.639 76.332C283.447 75.948 283.351 75.468 283.351 74.892C283.351 74.172 283.519 73.564 283.855 73.068C284.207 72.556 284.711 72.164 285.367 71.892C286.023 71.62 286.815 71.484 287.743 71.484C288.063 71.484 288.367 71.508 288.655 71.556C288.959 71.604 289.247 71.676 289.519 71.772C289.807 71.852 290.079 71.956 290.335 72.084C290.607 72.212 290.863 72.356 291.103 72.516C291.503 72.74 291.711 73.004 291.727 73.308C291.743 73.596 291.631 73.908 291.391 74.244C291.215 74.468 291.039 74.628 290.863 74.724C290.687 74.804 290.503 74.804 290.311 74.724C290.055 74.596 289.775 74.46 289.471 74.316C289.183 74.156 288.879 74.02 288.559 73.908C288.255 73.796 287.935 73.74 287.599 73.74C287.279 73.74 286.991 73.788 286.735 73.884C286.479 73.98 286.287 74.116 286.159 74.292C286.031 74.468 285.967 74.676 285.967 74.916C285.967 75.14 286.031 75.324 286.159 75.468C286.287 75.612 286.455 75.732 286.663 75.828C286.871 75.924 287.119 76.012 287.407 76.092C287.695 76.156 287.999 76.22 288.319 76.284C288.767 76.38 289.223 76.5 289.687 76.644C290.151 76.788 290.575 76.988 290.959 77.244C291.359 77.5 291.679 77.844 291.919 78.276C292.159 78.692 292.279 79.236 292.279 79.908C292.279 81.076 291.847 81.98 290.983 82.62C290.135 83.26 288.959 83.58 287.455 83.58Z" fill="black"/>
</svg>
