<svg width="400" height="120" viewBox="0 0 400 120" fill="none" xmlns="http://www.w3.org/2000/svg">
<mask id="mask0_62_2353" style="mask-type:luminance" maskUnits="userSpaceOnUse" x="0" y="0" width="400" height="120">
<path d="M400 0H0V120H400V0Z" fill="white"/>
</mask>
<g mask="url(#mask0_62_2353)">
<mask id="mask1_62_2353" style="mask-type:luminance" maskUnits="userSpaceOnUse" x="9" y="9" width="388" height="111">
<path d="M9.33838 9.33325H396.887V119.354H9.33838V9.33325Z" fill="white"/>
</mask>
<g mask="url(#mask1_62_2353)">
<path d="M15.789 72.3853L12.3965 62.3593L17.7893 51.8749L13.0349 41.3958L9.77612 30.9114L12.1047 19.3541L26.2584 18.2343L39.1779 15.5937L52.3406 21.4739L65.1142 13.7499L78.3376 21.7083L91.2267 17.9635L104.365 22.901L117.358 22.677L130.405 24.3437L143.318 21.4218L155.618 17.1093L167.972 14.5624L180.326 12.0989L192.783 13.2135L205.32 17.1249L217.838 20.3437L230.253 20.0728L242.4 10.3072L255.064 18.6874L267.503 19.1718L279.742 12.4791L292.084 9.53638L304.906 12.9062L318.19 14.7655L328.447 23.3958L341.367 25.4062L352.316 32.3385L368.294 26.7083L380.204 31.2239L396.346 37.177L387.475 50.3385L387.159 62.0937L374.361 69.8593L369.875 80.2812L373.796 93.3957L367.57 103.266L364.391 115.974L345.853 109.745L333.335 117.432L320.227 109.989L307.782 119.823L294.631 110.969L281.864 112.432L269.005 111.359L256.444 118.932L243.555 117.01L230.824 121.224L218.355 114.521L205.222 119.724L193.081 116.047L180.727 115.328L168.306 115.838L155.903 115.969L143.829 110.542L131.396 111.203L119.346 105.146L106.274 116.76L94.5645 104.833L81.5599 115.427L69.6375 107.245L57.5023 102.453L44.6436 110.724L27.2615 111.552L29.4685 98.1405L22.7929 90.2291L11.0103 83.578L15.789 72.3853Z" fill="black"/>
<path d="M15.789 72.3853L12.3965 62.3593L17.7893 51.8749L13.0349 41.3958L9.77612 30.9114L12.1047 19.3541L26.2584 18.2343L39.1779 15.5937L52.3406 21.4739L65.1142 13.7499L78.3376 21.7083L91.2267 17.9635L104.365 22.901L117.358 22.677L130.405 24.3437L143.318 21.4218L155.618 17.1093L167.972 14.5624L180.326 12.0989L192.783 13.2135L205.32 17.1249L217.838 20.3437L230.253 20.0728L242.4 10.3072L255.064 18.6874L267.503 19.1718L279.742 12.4791L292.084 9.53638L304.906 12.9062L318.19 14.7655L328.447 23.3958L341.367 25.4062L352.316 32.3385L368.294 26.7083L380.204 31.2239L396.346 37.177L387.475 50.3385L387.159 62.0937L374.361 69.8593L369.875 80.2812L373.796 93.3957L367.57 103.266L364.391 115.974L345.853 109.745L333.335 117.432L320.227 109.989L307.782 119.823L294.631 110.969L281.864 112.432L269.005 111.359L256.444 118.932L243.555 117.01L230.824 121.224L218.355 114.521L205.222 119.724L193.081 116.047L180.727 115.328L168.306 115.838L155.903 115.969L143.829 110.542L131.396 111.203L119.346 105.146L106.274 116.76L94.5645 104.833L81.5599 115.427L69.6375 107.245L57.5023 102.453L44.6436 110.724L27.2615 111.552L29.4685 98.1405L22.7929 90.2291L11.0103 83.578L15.789 72.3853Z" fill="black"/>
</g>
<mask id="mask2_62_2353" style="mask-type:luminance" maskUnits="userSpaceOnUse" x="7" y="8" width="391" height="112">
<path d="M7.78198 8H397.586V119.354H7.78198V8Z" fill="white"/>
</mask>
<g mask="url(#mask2_62_2353)">
<path d="M230.739 121.985L218.3 115.307L205.265 120.474L192.917 116.735L180.721 115.99L168.342 116.495L155.715 116.63L143.653 111.203L131.207 111.886L119.485 105.995L106.238 117.766L94.5037 105.813L81.6085 116.328L69.2058 107.849L57.6056 103.261L44.9111 111.401L26.3131 112.287L28.6355 98.3491L22.1971 90.7241L10.0497 83.8491L14.9561 72.3647L11.5575 62.3127L16.932 51.8543L12.2627 41.5731L8.95532 30.9429L11.4237 18.7293L26.1671 17.5575L39.2812 14.9012L52.2737 20.7033L65.1141 12.9168L78.4653 20.9533L91.2632 17.2293L104.523 22.2137L117.406 21.9897L130.356 23.6564L143.051 20.7762L155.423 16.4429L167.765 13.896L180.259 11.4168L193.038 12.5731L205.569 16.4845L217.941 19.6512L229.931 19.396L242.345 9.40641L255.356 18.0106L267.26 18.4689L279.383 11.8491L292.078 8.81787L305.076 12.2085L318.561 14.0939L328.83 22.7293L341.683 24.7241L352.414 31.5106L368.282 25.922L380.514 30.5522L397.483 36.8491L388.272 50.5262L387.962 62.4533L375.03 70.297L370.714 80.3231L374.678 93.4845L368.33 103.505L364.95 116.906L345.951 110.516L333.335 118.261L320.294 110.854L307.824 120.74L294.413 111.703L281.882 113.146L269.188 112.078L256.627 119.651L243.634 117.719L230.739 121.985ZM218.415 113.75L230.915 120.464L243.47 116.307L256.256 118.214L268.792 110.656L281.852 111.755L294.856 110.255L307.739 118.932L320.148 109.13L333.317 116.594L345.744 108.969L363.801 115.031L366.816 103.016L372.951 93.297L369.048 80.2345L373.681 69.4272L386.375 61.7137L386.685 50.1825L395.215 37.495L379.894 31.8647L368.276 27.4585L352.201 33.1252L341.038 26.047L328.064 24.0158L317.807 15.396L304.651 13.547L292.054 10.2293L280.058 13.1095L267.704 19.896L254.76 19.396L242.437 11.2502L230.532 20.7918L217.68 21.0783L205.04 17.8283L192.601 13.8856L180.374 12.7918L168.184 15.2293L155.867 17.7502L143.525 22.0783L130.453 25.0366L117.303 23.3543L104.207 23.5887L91.2267 18.6929L78.216 22.4689L65.1141 14.5783L52.4196 22.271L39.0927 16.3127L26.3313 18.9064L12.7856 19.9845L10.5847 30.8804L13.7948 41.1825L18.6526 51.8908L13.2476 62.3908L16.6462 72.4116L11.9952 83.3075L23.3705 89.7241L30.3135 97.9689L28.1978 110.823L44.376 110.057L57.4232 101.667L70.1178 106.708L81.5113 114.521L94.6192 103.844L106.298 115.745L119.194 104.287L131.572 110.516L143.987 109.833L156.08 115.261L168.282 115.136L180.721 114.62L193.227 115.349L205.125 118.958L218.415 113.75Z" fill="black"/>
</g>
<mask id="mask3_62_2353" style="mask-type:luminance" maskUnits="userSpaceOnUse" x="3" y="1" width="388" height="113">
<path d="M3.11279 1.08337H390.661V113.333H3.11279V1.08337Z" fill="white"/>
</mask>
<g mask="url(#mask3_62_2353)">
<path d="M9.78237 63.3957L6.39594 53.3644L11.7826 42.8801L7.02824 32.4009L3.75732 21.9165L6.09804 10.3644L20.2457 9.23942L33.1712 6.604L46.3339 12.479L59.1075 4.75505L72.3249 12.7186L85.2201 8.96338L98.3585 13.9113L111.345 13.6821L124.398 15.3592L137.312 12.4321L149.611 8.10921L161.965 5.56755L174.319 3.10921L186.777 4.2238L199.313 8.13005L211.825 11.3488L224.246 11.078L236.387 1.31234L249.058 9.69776L261.497 10.1821L273.735 3.48942L286.077 0.541504L298.9 3.9165L312.184 5.77067L322.44 14.4061L335.36 16.4165L346.31 23.3436L362.281 17.7134L374.197 22.229L390.339 28.1769L381.469 41.3488L381.153 53.104L368.355 60.8644L363.868 71.2915L367.796 84.4009L361.564 94.2707L358.378 106.979L339.847 100.755L327.329 108.443L314.221 101L301.775 110.833L288.619 101.974L275.851 103.443L262.999 102.364L250.432 109.937L237.549 108.026L224.818 112.234L212.348 105.526L199.216 110.729L187.068 107.062L174.726 106.333L162.299 106.849L149.897 106.979L137.822 101.547L125.389 102.208L113.339 96.1561L100.268 107.765L88.5579 95.8436L75.5533 106.427L63.6248 98.2446L51.5017 93.4582L38.6369 101.734L21.2488 102.557L23.4618 89.1509L16.7863 81.2342L5.00368 74.5832L9.78237 63.3957Z" fill="white"/>
</g>
<mask id="mask4_62_2353" style="mask-type:luminance" maskUnits="userSpaceOnUse" x="0" y="1" width="396" height="115">
<path d="M0.674805 1.08337H395.331V116H0.674805V1.08337Z" fill="white"/>
</mask>
<g mask="url(#mask4_62_2353)">
<path d="M224.52 115.01L212.147 108.365L199.386 113.422L186.491 109.521L174.708 108.844L162.348 109.349L149.21 109.49L137.202 104.063L124.69 104.74L113.862 99.3126L100.146 111.526L88.3389 99.5105L75.7234 109.745L62.0743 100.385L51.8542 96.3542L39.6521 104.182L17.8318 105.214L20.3732 89.7917L14.7007 83.0626L1.44077 75.599L6.68153 63.3282L3.30118 53.1875L8.62097 42.8282L4.20099 33.0417L0.778076 22.0313L3.61125 8.05733L19.7713 6.76046L33.5541 3.95837L46.1027 9.56254L59.1013 1.69796L72.7929 9.94275L85.3537 6.29171L98.942 11.4011L111.539 11.1823L124.234 12.8125L136.381 10.0573L148.705 5.72921L161.284 3.14587L174.13 0.578167L187.433 1.77608L200.231 5.76567L212.22 8.84379L223.06 8.60421L236.205 -1.9635L250.115 7.23442L260.706 7.65108L272.525 1.18233L286.12 -2.05725L299.568 1.48442L313.564 3.43754L323.875 12.0886L336.57 14.0625L346.705 20.5L362.311 14.9948L375.365 19.948L394.492 27L384.369 42.0417L384.04 54.4115L370.787 62.4532L366.92 71.4219L370.89 84.724L364.318 95.1459L360.494 110.38L340.248 103.594L327.377 111.495L314.5 104.182L301.909 114.13L287.767 104.63L275.869 105.99L263.752 104.979L251.058 112.609L237.767 110.635L224.52 115.01ZM212.561 102.693L225.128 109.474L237.214 105.448L249.708 107.302L262.172 99.7917L275.772 100.932L289.427 99.3594L301.593 107.557L313.886 97.8334L327.231 105.412L339.403 97.948L356.226 103.589L358.779 93.4115L364.683 84.1042L360.816 71.2136L365.929 59.3334L378.277 51.8698L378.569 40.6823L386.174 29.3959L373.036 24.5573L362.238 20.4844L345.908 26.1823L334.168 18.7605L321.036 16.7292L310.791 8.11983L298.237 6.35421L286.041 3.14587L274.933 5.79171L262.293 12.7032L248.012 12.1563L236.576 4.58858L225.432 13.5469L211.436 13.849L198.31 10.4584L186.108 6.65108L174.532 5.63546L162.634 8.00525L150.517 10.4948L138.242 14.8021L124.55 17.9011L111.156 16.1823L97.7625 16.4167L85.068 11.6667L71.8688 15.4844L59.1074 7.80733L46.5648 15.3959L32.782 9.24483L20.7197 11.7084L8.59058 12.6719L6.74233 21.8073L9.80653 31.625L14.9379 42.9428L9.50254 53.573L12.8647 63.5209L8.53586 73.5886L18.8471 79.4063L26.5198 88.5053L24.6412 99.8959L37.5971 99.2865L51.1489 90.5678L65.175 96.1094L75.3586 103.099L88.7949 92.2448L100.419 104.068L112.828 93.0365L126.137 99.7084L138.497 99.0261L150.602 104.453L162.214 104.333L174.757 103.818L187.67 104.568L199.064 108.016L212.561 102.693Z" fill="black"/>
<path d="M224.52 115.01L212.147 108.365L199.386 113.422L186.491 109.521L174.708 108.844L162.348 109.349L149.21 109.49L137.202 104.063L124.69 104.74L113.862 99.3126L100.146 111.526L88.3389 99.5105L75.7234 109.745L62.0743 100.385L51.8542 96.3542L39.6521 104.182L17.8318 105.214L20.3732 89.7917L14.7007 83.0626L1.44077 75.599L6.68153 63.3282L3.30118 53.1875L8.62097 42.8282L4.20099 33.0417L0.778076 22.0313L3.61125 8.05733L19.7713 6.76046L33.5541 3.95837L46.1027 9.56254L59.1013 1.69796L72.7929 9.94275L85.3537 6.29171L98.942 11.4011L111.539 11.1823L124.234 12.8125L136.381 10.0573L148.705 5.72921L161.284 3.14587L174.13 0.578167L187.433 1.77608L200.231 5.76567L212.22 8.84379L223.06 8.60421L236.205 -1.9635L250.115 7.23442L260.706 7.65108L272.525 1.18233L286.12 -2.05725L299.568 1.48442L313.564 3.43754L323.875 12.0886L336.57 14.0625L346.705 20.5L362.311 14.9948L375.365 19.948L394.492 27L384.369 42.0417L384.04 54.4115L370.787 62.4532L366.92 71.4219L370.89 84.724L364.318 95.1459L360.494 110.38L340.248 103.594L327.377 111.495L314.5 104.182L301.909 114.13L287.767 104.63L275.869 105.99L263.752 104.979L251.058 112.609L237.767 110.635L224.52 115.01ZM212.561 102.693L225.128 109.474L237.214 105.448L249.708 107.302L262.172 99.7917L275.772 100.932L289.427 99.3594L301.593 107.557L313.886 97.8334L327.231 105.412L339.403 97.948L356.226 103.589L358.779 93.4115L364.683 84.1042L360.816 71.2136L365.929 59.3334L378.277 51.8698L378.569 40.6823L386.174 29.3959L373.036 24.5573L362.238 20.4844L345.908 26.1823L334.168 18.7605L321.036 16.7292L310.791 8.11983L298.237 6.35421L286.041 3.14587L274.933 5.79171L262.293 12.7032L248.012 12.1563L236.576 4.58858L225.432 13.5469L211.436 13.849L198.31 10.4584L186.108 6.65108L174.532 5.63546L162.634 8.00525L150.517 10.4948L138.242 14.8021L124.55 17.9011L111.156 16.1823L97.7625 16.4167L85.068 11.6667L71.8688 15.4844L59.1074 7.80733L46.5648 15.3959L32.782 9.24483L20.7197 11.7084L8.59058 12.6719L6.74233 21.8073L9.80653 31.625L14.9379 42.9428L9.50254 53.573L12.8647 63.5209L8.53586 73.5886L18.8471 79.4063L26.5198 88.5053L24.6412 99.8959L37.5971 99.2865L51.1489 90.5678L65.175 96.1094L75.3586 103.099L88.7949 92.2448L100.419 104.068L112.828 93.0365L126.137 99.7084L138.497 99.0261L150.602 104.453L162.214 104.333L174.757 103.818L187.67 104.568L199.064 108.016L212.561 102.693Z" fill="black"/>
</g>
</g>
<path d="M28.7824 54.412C28.3344 54.412 28.0064 54.348 27.7984 54.22C27.5904 54.092 27.4624 53.916 27.4144 53.692C27.3664 53.452 27.3424 53.204 27.3424 52.948V39.1C27.3424 38.844 27.3664 38.612 27.4144 38.404C27.4784 38.18 27.6144 38.004 27.8224 37.876C28.0304 37.732 28.3584 37.66 28.8064 37.66H33.8944C34.5984 37.66 35.2864 37.78 35.9584 38.02C36.6304 38.26 37.2304 38.62 37.7584 39.1C38.3024 39.58 38.7264 40.172 39.0304 40.876C39.3504 41.58 39.5104 42.404 39.5104 43.348C39.5104 44.276 39.3504 45.092 39.0304 45.796C38.7264 46.484 38.3024 47.068 37.7584 47.548C37.2144 48.028 36.6064 48.388 35.9344 48.628C35.2784 48.868 34.5904 48.988 33.8704 48.988H30.2464V52.972C30.2464 53.228 30.2144 53.468 30.1504 53.692C30.1024 53.916 29.9744 54.092 29.7664 54.22C29.5744 54.348 29.2464 54.412 28.7824 54.412ZM30.2464 46.06H33.8944C34.3904 46.06 34.8384 45.964 35.2384 45.772C35.6544 45.564 35.9904 45.26 36.2464 44.86C36.5024 44.444 36.6304 43.924 36.6304 43.3C36.6304 42.74 36.5104 42.26 36.2704 41.86C36.0464 41.444 35.7264 41.124 35.3104 40.9C34.9104 40.676 34.4304 40.564 33.8704 40.564H30.2464V46.06ZM47.2776 54.58C46.2376 54.58 45.3256 54.412 44.5416 54.076C43.7736 53.74 43.1256 53.284 42.5976 52.708C42.0856 52.116 41.6936 51.46 41.4216 50.74C41.1656 50.004 41.0376 49.244 41.0376 48.46C41.0376 47.308 41.3016 46.284 41.8296 45.388C42.3576 44.492 43.0856 43.788 44.0136 43.276C44.9576 42.764 46.0376 42.508 47.2536 42.508C48.1176 42.508 48.8776 42.644 49.5336 42.916C50.1896 43.188 50.7336 43.548 51.1656 43.996C51.6136 44.428 51.9496 44.908 52.1736 45.436C52.4136 45.964 52.5336 46.476 52.5336 46.972C52.5336 47.82 52.3256 48.436 51.9096 48.82C51.5096 49.204 51.0056 49.396 50.3976 49.396H44.0616C44.0776 49.94 44.2456 50.412 44.5656 50.812C44.9016 51.212 45.3176 51.524 45.8136 51.748C46.3256 51.956 46.8456 52.06 47.3736 52.06C47.7736 52.06 48.1256 52.036 48.4296 51.988C48.7496 51.94 49.0216 51.884 49.2456 51.82C49.4696 51.74 49.6616 51.66 49.8216 51.58C49.9976 51.5 50.1576 51.428 50.3016 51.364C50.4456 51.3 50.5816 51.26 50.7096 51.244C50.8856 51.228 51.0616 51.268 51.2376 51.364C51.4136 51.46 51.5576 51.628 51.6696 51.868C51.7656 52.028 51.8296 52.18 51.8616 52.324C51.9096 52.452 51.9336 52.58 51.9336 52.708C51.9336 53.028 51.7416 53.332 51.3576 53.62C50.9736 53.892 50.4296 54.116 49.7256 54.292C49.0376 54.484 48.2216 54.58 47.2776 54.58ZM44.0616 47.692H48.9816C49.2536 47.692 49.4616 47.652 49.6056 47.572C49.7496 47.476 49.8216 47.284 49.8216 46.996C49.8216 46.628 49.7096 46.3 49.4856 46.012C49.2616 45.708 48.9576 45.476 48.5736 45.316C48.1896 45.14 47.7416 45.052 47.2296 45.052C46.6376 45.052 46.1016 45.172 45.6216 45.412C45.1416 45.636 44.7576 45.948 44.4696 46.348C44.1976 46.748 44.0616 47.196 44.0616 47.692ZM55.9191 54.412C55.4871 54.412 55.1671 54.34 54.9591 54.196C54.7671 54.068 54.6471 53.9 54.5991 53.692C54.5511 53.468 54.5271 53.22 54.5271 52.948V43.972C54.5271 43.716 54.5511 43.484 54.5991 43.276C54.6471 43.068 54.7751 42.908 54.9831 42.796C55.1911 42.668 55.5111 42.604 55.9431 42.604C56.3271 42.604 56.6151 42.652 56.8071 42.748C56.9991 42.844 57.1271 42.964 57.1911 43.108C57.2551 43.252 57.2871 43.396 57.2871 43.54C57.3031 43.684 57.3191 43.796 57.3351 43.876L57.2391 44.644C57.3351 44.388 57.4951 44.14 57.7191 43.9C57.9431 43.66 58.2151 43.444 58.5351 43.252C58.8551 43.044 59.1991 42.884 59.5671 42.772C59.9511 42.644 60.3431 42.58 60.7431 42.58C61.4951 42.58 62.1671 42.716 62.7591 42.988C63.3511 43.26 63.8551 43.644 64.2711 44.14C64.7031 44.636 65.0311 45.228 65.2551 45.916C65.4791 46.588 65.5911 47.348 65.5911 48.196V52.972C65.5911 53.244 65.5591 53.492 65.4951 53.716C65.4471 53.924 65.3271 54.092 65.1351 54.22C64.9431 54.348 64.6151 54.412 64.1511 54.412C63.7031 54.412 63.3751 54.34 63.1671 54.196C62.9591 54.068 62.8311 53.9 62.7831 53.692C62.7351 53.468 62.7111 53.22 62.7111 52.948V48.172C62.7111 47.596 62.6071 47.1 62.3991 46.684C62.2071 46.268 61.9191 45.948 61.5351 45.724C61.1671 45.5 60.6951 45.388 60.1191 45.388C59.5591 45.388 59.0711 45.508 58.6551 45.748C58.2391 45.972 57.9191 46.292 57.6951 46.708C57.4711 47.124 57.3591 47.612 57.3591 48.172V52.972C57.3591 53.244 57.3351 53.492 57.2871 53.716C57.2391 53.924 57.1111 54.092 56.9031 54.22C56.7111 54.348 56.3831 54.412 55.9191 54.412ZM70.1823 59.164C69.6703 58.94 69.3743 58.684 69.2943 58.396C69.2143 58.124 69.2863 57.756 69.5103 57.292L75.7023 43.42C75.9263 42.908 76.1663 42.604 76.4223 42.508C76.6783 42.396 77.0703 42.452 77.5983 42.676C78.0943 42.9 78.3823 43.148 78.4623 43.42C78.5583 43.692 78.5023 44.06 78.2943 44.524L72.0543 58.468C71.8463 58.98 71.6143 59.276 71.3583 59.356C71.1023 59.452 70.7103 59.388 70.1823 59.164ZM72.4143 53.284L66.8703 44.764C66.5823 44.332 66.4623 43.972 66.5103 43.684C66.5743 43.396 66.8303 43.116 67.2783 42.844C67.7743 42.54 68.1583 42.42 68.4303 42.484C68.7183 42.548 69.0063 42.804 69.2943 43.252L73.6863 50.092L72.4143 53.284ZM85.9495 54.58C84.9095 54.58 83.9975 54.412 83.2135 54.076C82.4455 53.74 81.7975 53.284 81.2695 52.708C80.7575 52.116 80.3655 51.46 80.0935 50.74C79.8375 50.004 79.7095 49.244 79.7095 48.46C79.7095 47.308 79.9735 46.284 80.5015 45.388C81.0295 44.492 81.7575 43.788 82.6855 43.276C83.6295 42.764 84.7095 42.508 85.9255 42.508C86.7895 42.508 87.5495 42.644 88.2055 42.916C88.8615 43.188 89.4055 43.548 89.8375 43.996C90.2855 44.428 90.6215 44.908 90.8455 45.436C91.0855 45.964 91.2055 46.476 91.2055 46.972C91.2055 47.82 90.9975 48.436 90.5815 48.82C90.1815 49.204 89.6775 49.396 89.0695 49.396H82.7335C82.7495 49.94 82.9175 50.412 83.2375 50.812C83.5735 51.212 83.9895 51.524 84.4855 51.748C84.9975 51.956 85.5175 52.06 86.0455 52.06C86.4455 52.06 86.7975 52.036 87.1015 51.988C87.4215 51.94 87.6935 51.884 87.9175 51.82C88.1415 51.74 88.3335 51.66 88.4935 51.58C88.6695 51.5 88.8295 51.428 88.9735 51.364C89.1175 51.3 89.2535 51.26 89.3815 51.244C89.5575 51.228 89.7335 51.268 89.9095 51.364C90.0855 51.46 90.2295 51.628 90.3415 51.868C90.4375 52.028 90.5015 52.18 90.5335 52.324C90.5815 52.452 90.6055 52.58 90.6055 52.708C90.6055 53.028 90.4135 53.332 90.0295 53.62C89.6455 53.892 89.1015 54.116 88.3975 54.292C87.7095 54.484 86.8935 54.58 85.9495 54.58ZM82.7335 47.692H87.6535C87.9255 47.692 88.1335 47.652 88.2775 47.572C88.4215 47.476 88.4935 47.284 88.4935 46.996C88.4935 46.628 88.3815 46.3 88.1575 46.012C87.9335 45.708 87.6295 45.476 87.2455 45.316C86.8615 45.14 86.4135 45.052 85.9015 45.052C85.3095 45.052 84.7735 45.172 84.2935 45.412C83.8135 45.636 83.4295 45.948 83.1415 46.348C82.8695 46.748 82.7335 47.196 82.7335 47.692ZM99.343 54.412C98.559 54.412 97.855 54.26 97.231 53.956C96.623 53.636 96.103 53.204 95.671 52.66C95.255 52.116 94.935 51.492 94.711 50.788C94.503 50.068 94.399 49.3 94.399 48.484C94.415 47.668 94.535 46.908 94.759 46.204C94.983 45.484 95.303 44.86 95.719 44.332C96.151 43.788 96.671 43.364 97.279 43.06C97.887 42.756 98.575 42.604 99.343 42.604C100.079 42.604 100.767 42.756 101.407 43.06C102.063 43.364 102.639 43.788 103.135 44.332C103.647 44.86 104.047 45.484 104.335 46.204C104.623 46.908 104.767 47.66 104.767 48.46C104.767 49.292 104.623 50.076 104.335 50.812C104.047 51.532 103.655 52.164 103.159 52.708C102.663 53.236 102.087 53.652 101.431 53.956C100.775 54.26 100.079 54.412 99.343 54.412ZM98.959 51.604C99.519 51.604 100.023 51.476 100.471 51.22C100.919 50.948 101.271 50.58 101.527 50.116C101.799 49.652 101.935 49.124 101.935 48.532C101.935 47.924 101.799 47.388 101.527 46.924C101.271 46.444 100.919 46.076 100.471 45.82C100.023 45.548 99.519 45.412 98.959 45.412C98.415 45.412 97.919 45.548 97.471 45.82C97.023 46.092 96.663 46.46 96.391 46.924C96.135 47.388 96.007 47.924 96.007 48.532C96.007 49.124 96.135 49.652 96.391 50.116C96.663 50.58 97.023 50.948 97.471 51.22C97.919 51.476 98.415 51.604 98.959 51.604ZM94.519 54.436C94.087 54.436 93.767 54.364 93.559 54.22C93.351 54.092 93.223 53.924 93.175 53.716C93.127 53.492 93.103 53.244 93.103 52.972V38.668C93.103 38.396 93.127 38.156 93.175 37.948C93.223 37.724 93.351 37.548 93.559 37.42C93.767 37.292 94.087 37.228 94.519 37.228C94.967 37.228 95.287 37.292 95.479 37.42C95.671 37.548 95.791 37.724 95.839 37.948C95.887 38.172 95.911 38.412 95.911 38.668V53.452C95.847 53.804 95.711 54.052 95.503 54.196C95.311 54.356 94.983 54.436 94.519 54.436ZM116.538 54.388C116.074 54.388 115.73 54.3 115.506 54.124C115.282 53.948 115.17 53.708 115.17 53.404L115.338 52.612C115.21 52.82 114.994 53.068 114.69 53.356C114.386 53.628 113.986 53.876 113.49 54.1C112.994 54.308 112.394 54.412 111.69 54.412C110.938 54.412 110.226 54.26 109.554 53.956C108.898 53.636 108.314 53.204 107.802 52.66C107.306 52.1 106.906 51.468 106.602 50.764C106.314 50.044 106.17 49.276 106.17 48.46C106.17 47.676 106.314 46.94 106.602 46.252C106.906 45.548 107.314 44.924 107.826 44.38C108.338 43.836 108.922 43.412 109.578 43.108C110.25 42.788 110.954 42.628 111.69 42.628C112.346 42.628 112.898 42.716 113.346 42.892C113.81 43.068 114.202 43.292 114.522 43.564C114.842 43.82 115.106 44.092 115.314 44.38L115.17 43.684C115.17 43.332 115.282 43.068 115.506 42.892C115.73 42.7 116.082 42.604 116.562 42.604C117.01 42.604 117.33 42.676 117.522 42.82C117.714 42.948 117.834 43.132 117.882 43.372C117.93 43.596 117.954 43.852 117.954 44.14V52.924C117.954 53.196 117.93 53.444 117.882 53.668C117.834 53.892 117.706 54.068 117.498 54.196C117.306 54.324 116.986 54.388 116.538 54.388ZM112.122 51.604C112.666 51.604 113.154 51.468 113.586 51.196C114.018 50.924 114.362 50.556 114.618 50.092C114.89 49.612 115.026 49.084 115.026 48.508C115.026 47.884 114.89 47.34 114.618 46.876C114.346 46.412 113.986 46.052 113.538 45.796C113.106 45.524 112.618 45.388 112.074 45.388C111.482 45.388 110.954 45.532 110.49 45.82C110.026 46.092 109.658 46.468 109.386 46.948C109.13 47.412 109.002 47.94 109.002 48.532C109.002 49.108 109.138 49.628 109.41 50.092C109.682 50.556 110.05 50.924 110.514 51.196C110.994 51.468 111.53 51.604 112.122 51.604ZM126.531 54.412C125.747 54.412 125.043 54.26 124.419 53.956C123.811 53.636 123.291 53.204 122.859 52.66C122.443 52.116 122.123 51.492 121.899 50.788C121.691 50.068 121.587 49.3 121.587 48.484C121.603 47.668 121.723 46.908 121.947 46.204C122.171 45.484 122.491 44.86 122.907 44.332C123.339 43.788 123.859 43.364 124.467 43.06C125.075 42.756 125.763 42.604 126.531 42.604C127.267 42.604 127.955 42.756 128.595 43.06C129.251 43.364 129.827 43.788 130.323 44.332C130.835 44.86 131.235 45.484 131.523 46.204C131.811 46.908 131.955 47.66 131.955 48.46C131.955 49.292 131.811 50.076 131.523 50.812C131.235 51.532 130.843 52.164 130.347 52.708C129.851 53.236 129.275 53.652 128.619 53.956C127.963 54.26 127.267 54.412 126.531 54.412ZM126.147 51.604C126.707 51.604 127.211 51.476 127.659 51.22C128.107 50.948 128.459 50.58 128.715 50.116C128.987 49.652 129.123 49.124 129.123 48.532C129.123 47.924 128.987 47.388 128.715 46.924C128.459 46.444 128.107 46.076 127.659 45.82C127.211 45.548 126.707 45.412 126.147 45.412C125.603 45.412 125.107 45.548 124.659 45.82C124.211 46.092 123.851 46.46 123.579 46.924C123.323 47.388 123.195 47.924 123.195 48.532C123.195 49.124 123.323 49.652 123.579 50.116C123.851 50.58 124.211 50.948 124.659 51.22C125.107 51.476 125.603 51.604 126.147 51.604ZM121.707 54.436C121.275 54.436 120.955 54.364 120.747 54.22C120.539 54.092 120.411 53.924 120.363 53.716C120.315 53.492 120.291 53.244 120.291 52.972V38.668C120.291 38.396 120.315 38.156 120.363 37.948C120.411 37.724 120.539 37.548 120.747 37.42C120.955 37.292 121.275 37.228 121.707 37.228C122.155 37.228 122.475 37.292 122.667 37.42C122.859 37.548 122.979 37.724 123.027 37.948C123.075 38.172 123.099 38.412 123.099 38.668V53.452C123.035 53.804 122.899 54.052 122.691 54.196C122.499 54.356 122.171 54.436 121.707 54.436ZM135.536 46.468C134.928 46.468 134.504 46.348 134.264 46.108C134.024 45.868 133.904 45.46 133.904 44.884C133.904 44.468 133.952 44.14 134.048 43.9C134.16 43.66 134.336 43.492 134.576 43.396C134.816 43.284 135.136 43.228 135.536 43.228C136.144 43.228 136.56 43.348 136.784 43.588C137.024 43.828 137.144 44.252 137.144 44.86C137.144 45.244 137.096 45.556 137 45.796C136.904 46.036 136.736 46.212 136.496 46.324C136.256 46.42 135.936 46.468 135.536 46.468ZM135.512 54.436C134.92 54.436 134.504 54.324 134.264 54.1C134.024 53.86 133.904 53.444 133.904 52.852C133.904 52.436 133.952 52.116 134.048 51.892C134.16 51.652 134.336 51.476 134.576 51.364C134.816 51.252 135.136 51.196 135.536 51.196C136.128 51.196 136.544 51.316 136.784 51.556C137.024 51.796 137.144 52.22 137.144 52.828C137.144 53.228 137.088 53.548 136.976 53.788C136.88 54.028 136.712 54.196 136.472 54.292C136.248 54.388 135.928 54.436 135.512 54.436ZM151.677 54.268C150.893 54.268 150.189 54.124 149.565 53.836C148.957 53.532 148.437 53.116 148.005 52.588C147.589 52.044 147.269 51.42 147.045 50.716C146.837 50.012 146.733 49.252 146.733 48.436C146.749 47.62 146.869 46.86 147.093 46.156C147.317 45.436 147.637 44.812 148.053 44.284C148.485 43.756 149.005 43.34 149.613 43.036C150.221 42.732 150.909 42.58 151.677 42.58C152.413 42.58 153.101 42.732 153.741 43.036C154.397 43.34 154.973 43.764 155.469 44.308C155.981 44.852 156.381 45.484 156.669 46.204C156.957 46.908 157.101 47.668 157.101 48.484C157.101 49.316 156.957 50.084 156.669 50.788C156.381 51.492 155.989 52.108 155.493 52.636C154.997 53.148 154.421 53.548 153.765 53.836C153.109 54.124 152.413 54.268 151.677 54.268ZM146.877 59.26C146.445 59.26 146.125 59.196 145.917 59.068C145.709 58.94 145.581 58.772 145.533 58.564C145.485 58.356 145.461 58.116 145.461 57.844V44.044C145.461 43.772 145.485 43.532 145.533 43.324C145.581 43.116 145.701 42.948 145.893 42.82C146.101 42.676 146.421 42.604 146.853 42.604C147.269 42.604 147.597 42.668 147.837 42.796C148.077 42.924 148.237 43.14 148.317 43.444V57.82C148.333 58.092 148.309 58.332 148.245 58.54C148.197 58.764 148.069 58.94 147.861 59.068C147.653 59.196 147.325 59.26 146.877 59.26ZM151.293 51.58C151.853 51.58 152.357 51.452 152.805 51.196C153.253 50.924 153.605 50.556 153.861 50.092C154.133 49.612 154.269 49.076 154.269 48.484C154.269 47.876 154.133 47.34 153.861 46.876C153.605 46.412 153.253 46.052 152.805 45.796C152.357 45.524 151.853 45.388 151.293 45.388C150.749 45.388 150.253 45.524 149.805 45.796C149.357 46.068 148.997 46.436 148.725 46.9C148.469 47.348 148.341 47.876 148.341 48.484C148.341 49.076 148.469 49.612 148.725 50.092C148.997 50.556 149.357 50.924 149.805 51.196C150.253 51.452 150.749 51.58 151.293 51.58ZM164.648 54.58C163.88 54.58 163.128 54.436 162.392 54.148C161.672 53.844 161.016 53.42 160.424 52.876C159.848 52.332 159.384 51.692 159.032 50.956C158.696 50.22 158.528 49.412 158.528 48.532C158.528 47.684 158.688 46.892 159.008 46.156C159.328 45.42 159.768 44.772 160.328 44.212C160.888 43.652 161.528 43.22 162.248 42.916C162.984 42.596 163.768 42.436 164.6 42.436C165.72 42.436 166.736 42.708 167.648 43.252C168.56 43.78 169.288 44.5 169.832 45.412C170.376 46.324 170.648 47.356 170.648 48.508C170.648 49.42 170.48 50.252 170.144 51.004C169.808 51.74 169.352 52.38 168.776 52.924C168.2 53.452 167.552 53.86 166.832 54.148C166.128 54.436 165.4 54.58 164.648 54.58ZM164.6 51.748C165.128 51.748 165.632 51.62 166.112 51.364C166.608 51.092 167.008 50.708 167.312 50.212C167.632 49.716 167.792 49.132 167.792 48.46C167.792 47.836 167.648 47.284 167.36 46.804C167.088 46.324 166.712 45.948 166.232 45.676C165.752 45.404 165.2 45.268 164.576 45.268C163.984 45.268 163.448 45.412 162.968 45.7C162.488 45.972 162.104 46.356 161.816 46.852C161.544 47.332 161.408 47.876 161.408 48.484C161.408 49.156 161.56 49.74 161.864 50.236C162.168 50.716 162.56 51.092 163.04 51.364C163.536 51.62 164.056 51.748 164.6 51.748ZM176.662 54.436C176.07 54.436 175.542 54.396 175.078 54.316C174.63 54.236 174.238 54.1 173.902 53.908C173.582 53.716 173.318 53.46 173.11 53.14C172.902 52.804 172.742 52.396 172.63 51.916C172.534 51.436 172.486 50.86 172.486 50.188V38.62C172.486 38.348 172.51 38.108 172.558 37.9C172.622 37.676 172.75 37.5 172.942 37.372C173.15 37.228 173.478 37.156 173.926 37.156C174.374 37.156 174.694 37.22 174.886 37.348C175.094 37.476 175.222 37.652 175.27 37.876C175.334 38.084 175.366 38.324 175.366 38.596V50.068C175.366 50.372 175.382 50.628 175.414 50.836C175.462 51.028 175.534 51.188 175.63 51.316C175.742 51.428 175.878 51.508 176.038 51.556C176.214 51.604 176.422 51.628 176.662 51.628C176.87 51.628 177.054 51.652 177.214 51.7C177.39 51.748 177.526 51.868 177.622 52.06C177.734 52.252 177.79 52.564 177.79 52.996C177.79 53.444 177.734 53.772 177.622 53.98C177.526 54.188 177.39 54.316 177.214 54.364C177.038 54.412 176.854 54.436 176.662 54.436ZM189.359 54.388C188.895 54.388 188.551 54.3 188.327 54.124C188.103 53.948 187.991 53.708 187.991 53.404L188.159 52.612C188.031 52.82 187.815 53.068 187.511 53.356C187.207 53.628 186.807 53.876 186.311 54.1C185.815 54.308 185.215 54.412 184.511 54.412C183.759 54.412 183.047 54.26 182.375 53.956C181.719 53.636 181.135 53.204 180.623 52.66C180.127 52.1 179.727 51.468 179.423 50.764C179.135 50.044 178.991 49.276 178.991 48.46C178.991 47.676 179.135 46.94 179.423 46.252C179.727 45.548 180.135 44.924 180.647 44.38C181.159 43.836 181.743 43.412 182.399 43.108C183.071 42.788 183.775 42.628 184.511 42.628C185.167 42.628 185.719 42.716 186.167 42.892C186.631 43.068 187.023 43.292 187.343 43.564C187.663 43.82 187.927 44.092 188.135 44.38L187.991 43.684C187.991 43.332 188.103 43.068 188.327 42.892C188.551 42.7 188.903 42.604 189.383 42.604C189.831 42.604 190.151 42.676 190.343 42.82C190.535 42.948 190.655 43.132 190.703 43.372C190.751 43.596 190.775 43.852 190.775 44.14V52.924C190.775 53.196 190.751 53.444 190.703 53.668C190.655 53.892 190.527 54.068 190.319 54.196C190.127 54.324 189.807 54.388 189.359 54.388ZM184.943 51.604C185.487 51.604 185.975 51.468 186.407 51.196C186.839 50.924 187.183 50.556 187.439 50.092C187.711 49.612 187.847 49.084 187.847 48.508C187.847 47.884 187.711 47.34 187.439 46.876C187.167 46.412 186.807 46.052 186.359 45.796C185.927 45.524 185.439 45.388 184.895 45.388C184.303 45.388 183.775 45.532 183.311 45.82C182.847 46.092 182.479 46.468 182.207 46.948C181.951 47.412 181.823 47.94 181.823 48.532C181.823 49.108 181.959 49.628 182.231 50.092C182.503 50.556 182.871 50.924 183.335 51.196C183.815 51.468 184.351 51.604 184.943 51.604ZM208.742 54.388C208.278 54.388 207.934 54.3 207.71 54.124C207.486 53.948 207.374 53.708 207.374 53.404L207.542 52.612C207.414 52.82 207.198 53.068 206.894 53.356C206.59 53.628 206.19 53.876 205.694 54.1C205.198 54.308 204.598 54.412 203.894 54.412C203.142 54.412 202.43 54.26 201.758 53.956C201.102 53.636 200.518 53.204 200.006 52.66C199.51 52.1 199.11 51.468 198.806 50.764C198.518 50.044 198.374 49.276 198.374 48.46C198.374 47.676 198.518 46.94 198.806 46.252C199.11 45.548 199.518 44.924 200.03 44.38C200.542 43.836 201.126 43.412 201.782 43.108C202.454 42.788 203.158 42.628 203.894 42.628C204.55 42.628 205.102 42.716 205.55 42.892C206.014 43.068 206.406 43.292 206.726 43.564C207.046 43.82 207.31 44.092 207.518 44.38L207.374 43.684C207.374 43.332 207.486 43.068 207.71 42.892C207.934 42.7 208.286 42.604 208.766 42.604C209.214 42.604 209.534 42.676 209.726 42.82C209.918 42.948 210.038 43.132 210.086 43.372C210.134 43.596 210.158 43.852 210.158 44.14V52.924C210.158 53.196 210.134 53.444 210.086 53.668C210.038 53.892 209.91 54.068 209.702 54.196C209.51 54.324 209.19 54.388 208.742 54.388ZM204.326 51.604C204.87 51.604 205.358 51.468 205.79 51.196C206.222 50.924 206.566 50.556 206.822 50.092C207.094 49.612 207.23 49.084 207.23 48.508C207.23 47.884 207.094 47.34 206.822 46.876C206.55 46.412 206.19 46.052 205.742 45.796C205.31 45.524 204.822 45.388 204.278 45.388C203.686 45.388 203.158 45.532 202.694 45.82C202.23 46.092 201.862 46.468 201.59 46.948C201.334 47.412 201.206 47.94 201.206 48.532C201.206 49.108 201.342 49.628 201.614 50.092C201.886 50.556 202.254 50.924 202.718 51.196C203.198 51.468 203.734 51.604 204.326 51.604ZM216.67 54.58C216.254 54.58 215.814 54.532 215.35 54.436C214.886 54.356 214.438 54.236 214.006 54.076C213.574 53.9 213.198 53.7 212.878 53.476C212.574 53.236 212.382 52.972 212.302 52.684C212.238 52.524 212.214 52.372 212.23 52.228C212.246 52.068 212.294 51.908 212.374 51.748C212.454 51.572 212.574 51.396 212.734 51.22C212.878 51.044 213.022 50.948 213.166 50.932C213.326 50.9 213.526 50.948 213.766 51.076C213.974 51.156 214.198 51.26 214.438 51.388C214.694 51.516 214.95 51.644 215.206 51.772C215.478 51.9 215.75 52.004 216.022 52.084C216.31 52.164 216.59 52.204 216.862 52.204C217.454 52.204 217.926 52.108 218.278 51.916C218.63 51.708 218.806 51.42 218.806 51.052C218.806 50.844 218.75 50.66 218.638 50.5C218.526 50.34 218.374 50.212 218.182 50.116C218.006 50.004 217.79 49.908 217.534 49.828C217.294 49.732 217.03 49.652 216.742 49.588C216.47 49.508 216.182 49.42 215.878 49.324C215.478 49.212 215.078 49.076 214.678 48.916C214.278 48.756 213.918 48.548 213.598 48.292C213.294 48.036 213.046 47.716 212.854 47.332C212.662 46.948 212.566 46.468 212.566 45.892C212.566 45.172 212.734 44.564 213.07 44.068C213.422 43.556 213.926 43.164 214.582 42.892C215.238 42.62 216.03 42.484 216.958 42.484C217.278 42.484 217.582 42.508 217.87 42.556C218.174 42.604 218.462 42.676 218.734 42.772C219.022 42.852 219.294 42.956 219.55 43.084C219.822 43.212 220.078 43.356 220.318 43.516C220.718 43.74 220.926 44.004 220.942 44.308C220.958 44.596 220.846 44.908 220.606 45.244C220.43 45.468 220.254 45.628 220.078 45.724C219.902 45.804 219.718 45.804 219.526 45.724C219.27 45.596 218.99 45.46 218.686 45.316C218.398 45.156 218.094 45.02 217.774 44.908C217.47 44.796 217.15 44.74 216.814 44.74C216.494 44.74 216.206 44.788 215.95 44.884C215.694 44.98 215.502 45.116 215.374 45.292C215.246 45.468 215.182 45.676 215.182 45.916C215.182 46.14 215.246 46.324 215.374 46.468C215.502 46.612 215.67 46.732 215.878 46.828C216.086 46.924 216.334 47.012 216.622 47.092C216.91 47.156 217.214 47.22 217.534 47.284C217.982 47.38 218.438 47.5 218.902 47.644C219.366 47.788 219.79 47.988 220.174 48.244C220.574 48.5 220.894 48.844 221.134 49.276C221.374 49.692 221.494 50.236 221.494 50.908C221.494 52.076 221.062 52.98 220.198 53.62C219.35 54.26 218.174 54.58 216.67 54.58ZM228.477 54.412C227.741 54.412 227.061 54.284 226.437 54.028C225.829 53.756 225.293 53.372 224.829 52.876C224.365 52.38 224.005 51.788 223.749 51.1C223.493 50.412 223.365 49.652 223.365 48.82V44.044C223.365 43.772 223.389 43.532 223.437 43.324C223.485 43.1 223.613 42.924 223.821 42.796C224.029 42.668 224.349 42.604 224.781 42.604C225.245 42.604 225.573 42.668 225.765 42.796C225.973 42.924 226.101 43.1 226.149 43.324C226.197 43.548 226.221 43.796 226.221 44.068V48.82C226.221 49.396 226.317 49.892 226.509 50.308C226.717 50.724 227.013 51.052 227.397 51.292C227.781 51.516 228.253 51.628 228.813 51.628C229.389 51.628 229.877 51.516 230.277 51.292C230.693 51.052 231.013 50.724 231.237 50.308C231.461 49.876 231.573 49.38 231.573 48.82V44.02C231.573 43.748 231.597 43.508 231.645 43.3C231.693 43.076 231.821 42.908 232.029 42.796C232.237 42.668 232.565 42.604 233.013 42.604C233.461 42.604 233.781 42.668 233.973 42.796C234.165 42.924 234.285 43.1 234.333 43.324C234.397 43.548 234.429 43.788 234.429 44.044V53.044C234.429 53.284 234.397 53.508 234.333 53.716C234.285 53.924 234.157 54.092 233.949 54.22C233.757 54.348 233.437 54.412 232.989 54.412C232.669 54.412 232.413 54.372 232.221 54.292C232.045 54.228 231.909 54.14 231.813 54.028C231.733 53.9 231.677 53.772 231.645 53.644C231.629 53.516 231.621 53.388 231.621 53.26L231.813 52.612C231.717 52.756 231.573 52.932 231.381 53.14C231.189 53.332 230.949 53.532 230.661 53.74C230.389 53.932 230.069 54.092 229.701 54.22C229.333 54.348 228.925 54.412 228.477 54.412ZM238.096 54.436C237.648 54.436 237.32 54.364 237.112 54.22C236.92 54.092 236.8 53.916 236.752 53.692C236.704 53.468 236.68 53.228 236.68 52.972V38.644C236.68 38.372 236.704 38.132 236.752 37.924C236.816 37.7 236.944 37.524 237.136 37.396C237.344 37.268 237.672 37.204 238.12 37.204C238.568 37.204 238.888 37.276 239.08 37.42C239.288 37.548 239.416 37.724 239.464 37.948C239.528 38.156 239.56 38.396 239.56 38.668V44.092C239.88 43.724 240.288 43.388 240.784 43.084C241.296 42.764 241.912 42.604 242.632 42.604C243.608 42.604 244.48 42.844 245.248 43.324C246.016 43.788 246.624 44.436 247.072 45.268C247.52 46.1 247.744 47.076 247.744 48.196V52.996C247.744 53.252 247.72 53.492 247.672 53.716C247.624 53.924 247.496 54.092 247.288 54.22C247.096 54.348 246.776 54.412 246.328 54.412C245.88 54.412 245.552 54.348 245.344 54.22C245.136 54.092 245.008 53.924 244.96 53.716C244.912 53.492 244.888 53.236 244.888 52.948V48.172C244.888 47.612 244.792 47.124 244.6 46.708C244.408 46.292 244.12 45.972 243.736 45.748C243.368 45.508 242.904 45.388 242.344 45.388C241.592 45.388 240.96 45.612 240.448 46.06C239.936 46.492 239.64 47.052 239.56 47.74V52.996C239.56 53.252 239.528 53.492 239.464 53.716C239.416 53.94 239.288 54.116 239.08 54.244C238.888 54.372 238.56 54.436 238.096 54.436ZM261.234 54.58C260.466 54.58 259.714 54.436 258.978 54.148C258.258 53.844 257.602 53.42 257.01 52.876C256.434 52.332 255.97 51.692 255.618 50.956C255.282 50.22 255.114 49.412 255.114 48.532C255.114 47.684 255.274 46.892 255.594 46.156C255.914 45.42 256.354 44.772 256.914 44.212C257.474 43.652 258.114 43.22 258.834 42.916C259.57 42.596 260.354 42.436 261.186 42.436C262.306 42.436 263.322 42.708 264.234 43.252C265.146 43.78 265.874 44.5 266.418 45.412C266.962 46.324 267.234 47.356 267.234 48.508C267.234 49.42 267.066 50.252 266.73 51.004C266.394 51.74 265.938 52.38 265.362 52.924C264.786 53.452 264.138 53.86 263.418 54.148C262.714 54.436 261.986 54.58 261.234 54.58ZM261.186 51.748C261.714 51.748 262.218 51.62 262.698 51.364C263.194 51.092 263.594 50.708 263.898 50.212C264.218 49.716 264.378 49.132 264.378 48.46C264.378 47.836 264.234 47.284 263.946 46.804C263.674 46.324 263.298 45.948 262.818 45.676C262.338 45.404 261.786 45.268 261.162 45.268C260.57 45.268 260.034 45.412 259.554 45.7C259.074 45.972 258.69 46.356 258.402 46.852C258.13 47.332 257.994 47.876 257.994 48.484C257.994 49.156 258.146 49.74 258.45 50.236C258.754 50.716 259.146 51.092 259.626 51.364C260.122 51.62 260.642 51.748 261.186 51.748ZM270.536 54.436C270.104 54.436 269.784 54.364 269.576 54.22C269.384 54.092 269.264 53.916 269.216 53.692C269.168 53.468 269.144 53.22 269.144 52.948V44.044C269.144 43.756 269.168 43.508 269.216 43.3C269.264 43.076 269.384 42.908 269.576 42.796C269.784 42.668 270.112 42.604 270.56 42.604C270.992 42.604 271.304 42.66 271.496 42.772C271.704 42.884 271.832 43.028 271.88 43.204C271.944 43.364 271.976 43.524 271.976 43.684L271.784 44.116C271.864 43.988 271.976 43.836 272.12 43.66C272.264 43.468 272.456 43.284 272.696 43.108C272.936 42.916 273.224 42.764 273.56 42.652C273.896 42.524 274.296 42.46 274.76 42.46C274.952 42.46 275.152 42.484 275.36 42.532C275.584 42.564 275.8 42.62 276.008 42.7C276.232 42.764 276.432 42.852 276.608 42.964C276.784 43.076 276.92 43.212 277.016 43.372C277.112 43.516 277.16 43.684 277.16 43.876C277.16 44.388 277.032 44.82 276.776 45.172C276.52 45.524 276.216 45.7 275.864 45.7C275.624 45.7 275.448 45.676 275.336 45.628C275.224 45.58 275.128 45.524 275.048 45.46C274.984 45.396 274.88 45.34 274.736 45.292C274.608 45.244 274.4 45.22 274.112 45.22C273.872 45.22 273.624 45.26 273.368 45.34C273.128 45.42 272.904 45.54 272.696 45.7C272.488 45.86 272.32 46.068 272.192 46.324C272.064 46.564 272 46.844 272 47.164V52.996C272 53.268 271.976 53.516 271.928 53.74C271.88 53.948 271.752 54.116 271.544 54.244C271.336 54.372 271 54.436 270.536 54.436ZM287.96 54.388C287.496 54.388 287.152 54.3 286.928 54.124C286.704 53.948 286.592 53.708 286.592 53.404L286.76 52.612C286.632 52.82 286.416 53.068 286.112 53.356C285.808 53.628 285.408 53.876 284.912 54.1C284.416 54.308 283.816 54.412 283.112 54.412C282.36 54.412 281.648 54.26 280.976 53.956C280.32 53.636 279.736 53.204 279.224 52.66C278.728 52.1 278.328 51.468 278.024 50.764C277.736 50.044 277.592 49.276 277.592 48.46C277.592 47.676 277.736 46.94 278.024 46.252C278.328 45.548 278.736 44.924 279.248 44.38C279.76 43.836 280.344 43.412 281 43.108C281.672 42.788 282.376 42.628 283.112 42.628C283.768 42.628 284.32 42.716 284.768 42.892C285.232 43.068 285.624 43.292 285.944 43.564C286.264 43.82 286.528 44.092 286.736 44.38L286.592 43.684C286.592 43.332 286.704 43.068 286.928 42.892C287.152 42.7 287.504 42.604 287.984 42.604C288.432 42.604 288.752 42.676 288.944 42.82C289.136 42.948 289.256 43.132 289.304 43.372C289.352 43.596 289.376 43.852 289.376 44.14V52.924C289.376 53.196 289.352 53.444 289.304 53.668C289.256 53.892 289.128 54.068 288.92 54.196C288.728 54.324 288.408 54.388 287.96 54.388ZM283.544 51.604C284.088 51.604 284.576 51.468 285.008 51.196C285.44 50.924 285.784 50.556 286.04 50.092C286.312 49.612 286.448 49.084 286.448 48.508C286.448 47.884 286.312 47.34 286.04 46.876C285.768 46.412 285.408 46.052 284.96 45.796C284.528 45.524 284.04 45.388 283.496 45.388C282.904 45.388 282.376 45.532 281.912 45.82C281.448 46.092 281.08 46.468 280.808 46.948C280.552 47.412 280.424 47.94 280.424 48.532C280.424 49.108 280.56 49.628 280.832 50.092C281.104 50.556 281.472 50.924 281.936 51.196C282.416 51.468 282.952 51.604 283.544 51.604ZM293.2 54.412C292.768 54.412 292.448 54.34 292.24 54.196C292.048 54.068 291.928 53.9 291.88 53.692C291.832 53.468 291.808 53.22 291.808 52.948V43.972C291.808 43.716 291.832 43.484 291.88 43.276C291.928 43.068 292.056 42.908 292.264 42.796C292.472 42.668 292.792 42.604 293.224 42.604C293.608 42.604 293.896 42.652 294.088 42.748C294.28 42.844 294.408 42.964 294.472 43.108C294.536 43.252 294.568 43.396 294.568 43.54C294.584 43.684 294.6 43.796 294.616 43.876L294.52 44.644C294.616 44.388 294.776 44.14 295 43.9C295.224 43.66 295.496 43.444 295.816 43.252C296.136 43.044 296.48 42.884 296.848 42.772C297.232 42.644 297.624 42.58 298.024 42.58C298.776 42.58 299.448 42.716 300.04 42.988C300.632 43.26 301.136 43.644 301.552 44.14C301.984 44.636 302.312 45.228 302.536 45.916C302.76 46.588 302.872 47.348 302.872 48.196V52.972C302.872 53.244 302.84 53.492 302.776 53.716C302.728 53.924 302.608 54.092 302.416 54.22C302.224 54.348 301.896 54.412 301.432 54.412C300.984 54.412 300.656 54.34 300.448 54.196C300.24 54.068 300.112 53.9 300.064 53.692C300.016 53.468 299.992 53.22 299.992 52.948V48.172C299.992 47.596 299.888 47.1 299.68 46.684C299.488 46.268 299.2 45.948 298.816 45.724C298.448 45.5 297.976 45.388 297.4 45.388C296.84 45.388 296.352 45.508 295.936 45.748C295.52 45.972 295.2 46.292 294.976 46.708C294.752 47.124 294.64 47.612 294.64 48.172V52.972C294.64 53.244 294.616 53.492 294.568 53.716C294.52 53.924 294.392 54.092 294.184 54.22C293.992 54.348 293.664 54.412 293.2 54.412ZM310.374 59.236C309.798 59.236 309.246 59.164 308.718 59.02C308.19 58.892 307.71 58.716 307.278 58.492C306.862 58.268 306.526 58.028 306.27 57.772C306.03 57.516 305.91 57.276 305.91 57.052C305.91 56.828 305.942 56.636 306.006 56.476C306.086 56.316 306.198 56.156 306.342 55.996C306.534 55.804 306.686 55.66 306.798 55.564C306.926 55.468 307.094 55.42 307.302 55.42C307.478 55.42 307.646 55.484 307.806 55.612C307.982 55.74 308.182 55.884 308.406 56.044C308.63 56.204 308.902 56.348 309.222 56.476C309.542 56.604 309.95 56.668 310.446 56.668C310.862 56.668 311.246 56.596 311.598 56.452C311.95 56.308 312.246 56.092 312.486 55.804C312.742 55.532 312.942 55.204 313.086 54.82C313.23 54.436 313.302 54.004 313.302 53.524L313.278 43.588C313.31 43.22 313.438 42.964 313.662 42.82C313.886 42.66 314.23 42.58 314.694 42.58C315.126 42.58 315.438 42.644 315.63 42.772C315.822 42.884 315.942 43.052 315.99 43.276C316.038 43.484 316.062 43.716 316.062 43.972V53.692C316.062 54.572 315.91 55.356 315.606 56.044C315.302 56.732 314.886 57.308 314.358 57.772C313.83 58.252 313.222 58.612 312.534 58.852C311.862 59.108 311.142 59.236 310.374 59.236ZM310.11 54.124C309.358 54.124 308.654 53.98 307.998 53.692C307.358 53.404 306.79 52.996 306.294 52.468C305.814 51.94 305.43 51.332 305.142 50.644C304.87 49.94 304.734 49.18 304.734 48.364C304.734 47.564 304.87 46.82 305.142 46.132C305.43 45.444 305.814 44.836 306.294 44.308C306.79 43.78 307.358 43.372 307.998 43.084C308.654 42.78 309.35 42.628 310.086 42.628C310.806 42.628 311.43 42.772 311.958 43.06C312.502 43.332 312.95 43.724 313.302 44.236C313.654 44.748 313.918 45.356 314.094 46.06C314.286 46.764 314.382 47.54 314.382 48.388C314.382 49.556 314.222 50.572 313.902 51.436C313.582 52.3 313.11 52.964 312.486 53.428C311.862 53.892 311.07 54.124 310.11 54.124ZM310.374 51.412C310.918 51.412 311.398 51.284 311.814 51.028C312.246 50.756 312.582 50.388 312.822 49.924C313.078 49.46 313.206 48.94 313.206 48.364C313.206 47.772 313.078 47.252 312.822 46.804C312.582 46.34 312.246 45.98 311.814 45.724C311.382 45.468 310.894 45.34 310.35 45.34C309.806 45.34 309.318 45.476 308.886 45.748C308.47 46.004 308.142 46.356 307.902 46.804C307.662 47.252 307.542 47.772 307.542 48.364C307.542 48.956 307.662 49.484 307.902 49.948C308.158 50.396 308.494 50.756 308.91 51.028C309.342 51.284 309.83 51.412 310.374 51.412ZM330.101 54.436C329.317 54.436 328.645 54.356 328.085 54.196C327.525 54.036 327.069 53.788 326.717 53.452C326.365 53.116 326.101 52.684 325.925 52.156C325.765 51.612 325.685 50.972 325.685 50.236V40.06C325.685 39.772 325.709 39.524 325.757 39.316C325.821 39.108 325.949 38.948 326.141 38.836C326.349 38.708 326.669 38.644 327.101 38.644C327.549 38.644 327.869 38.708 328.061 38.836C328.269 38.964 328.397 39.14 328.445 39.364C328.509 39.572 328.541 39.804 328.541 40.06V50.14C328.541 50.476 328.565 50.748 328.613 50.956C328.677 51.164 328.765 51.324 328.877 51.436C329.005 51.532 329.165 51.604 329.357 51.652C329.565 51.684 329.813 51.7 330.101 51.7C330.405 51.7 330.661 51.724 330.869 51.772C331.093 51.82 331.261 51.94 331.373 52.132C331.485 52.308 331.541 52.604 331.541 53.02C331.541 53.468 331.469 53.796 331.325 54.004C331.197 54.196 331.021 54.316 330.797 54.364C330.589 54.412 330.357 54.436 330.101 54.436ZM324.701 42.844L327.173 42.868L330.485 42.772C330.757 42.772 330.997 42.804 331.205 42.868C331.429 42.916 331.605 43.044 331.733 43.252C331.861 43.444 331.925 43.764 331.925 44.212C331.925 44.628 331.861 44.94 331.733 45.148C331.605 45.356 331.437 45.492 331.229 45.556C331.021 45.604 330.781 45.628 330.509 45.628L327.293 45.58L324.629 45.604C324.229 45.588 323.949 45.476 323.789 45.268C323.645 45.044 323.573 44.684 323.573 44.188C323.573 43.724 323.661 43.388 323.837 43.18C324.029 42.956 324.317 42.844 324.701 42.844ZM338.61 54.412C337.874 54.412 337.194 54.284 336.57 54.028C335.962 53.756 335.426 53.372 334.962 52.876C334.498 52.38 334.138 51.788 333.882 51.1C333.626 50.412 333.498 49.652 333.498 48.82V44.044C333.498 43.772 333.522 43.532 333.57 43.324C333.618 43.1 333.746 42.924 333.954 42.796C334.162 42.668 334.482 42.604 334.914 42.604C335.378 42.604 335.706 42.668 335.898 42.796C336.106 42.924 336.234 43.1 336.282 43.324C336.33 43.548 336.354 43.796 336.354 44.068V48.82C336.354 49.396 336.45 49.892 336.642 50.308C336.85 50.724 337.146 51.052 337.53 51.292C337.914 51.516 338.386 51.628 338.946 51.628C339.522 51.628 340.01 51.516 340.41 51.292C340.826 51.052 341.146 50.724 341.37 50.308C341.594 49.876 341.706 49.38 341.706 48.82V44.02C341.706 43.748 341.73 43.508 341.778 43.3C341.826 43.076 341.954 42.908 342.162 42.796C342.37 42.668 342.698 42.604 343.146 42.604C343.594 42.604 343.914 42.668 344.106 42.796C344.298 42.924 344.418 43.1 344.466 43.324C344.53 43.548 344.562 43.788 344.562 44.044V53.044C344.562 53.284 344.53 53.508 344.466 53.716C344.418 53.924 344.29 54.092 344.082 54.22C343.89 54.348 343.57 54.412 343.122 54.412C342.802 54.412 342.546 54.372 342.354 54.292C342.178 54.228 342.042 54.14 341.946 54.028C341.866 53.9 341.81 53.772 341.778 53.644C341.762 53.516 341.754 53.388 341.754 53.26L341.946 52.612C341.85 52.756 341.706 52.932 341.514 53.14C341.322 53.332 341.082 53.532 340.794 53.74C340.522 53.932 340.202 54.092 339.834 54.22C339.466 54.348 339.058 54.412 338.61 54.412ZM356.773 54.388C356.309 54.388 355.965 54.3 355.741 54.124C355.517 53.948 355.405 53.708 355.405 53.404L355.573 52.612C355.445 52.82 355.229 53.068 354.925 53.356C354.621 53.628 354.221 53.876 353.725 54.1C353.229 54.308 352.629 54.412 351.925 54.412C351.173 54.412 350.461 54.26 349.789 53.956C349.133 53.636 348.549 53.204 348.037 52.66C347.541 52.1 347.141 51.468 346.837 50.764C346.549 50.044 346.405 49.276 346.405 48.46C346.405 47.676 346.549 46.94 346.837 46.252C347.141 45.548 347.549 44.924 348.061 44.38C348.573 43.836 349.157 43.412 349.813 43.108C350.485 42.788 351.189 42.628 351.925 42.628C352.581 42.628 353.133 42.716 353.581 42.892C354.045 43.068 354.437 43.292 354.757 43.564C355.077 43.82 355.341 44.092 355.549 44.38L355.405 43.684C355.405 43.332 355.517 43.068 355.741 42.892C355.965 42.7 356.317 42.604 356.797 42.604C357.245 42.604 357.565 42.676 357.757 42.82C357.949 42.948 358.069 43.132 358.117 43.372C358.165 43.596 358.189 43.852 358.189 44.14V52.924C358.189 53.196 358.165 53.444 358.117 53.668C358.069 53.892 357.941 54.068 357.733 54.196C357.541 54.324 357.221 54.388 356.773 54.388ZM352.357 51.604C352.901 51.604 353.389 51.468 353.821 51.196C354.253 50.924 354.597 50.556 354.853 50.092C355.125 49.612 355.261 49.084 355.261 48.508C355.261 47.884 355.125 47.34 354.853 46.876C354.581 46.412 354.221 46.052 353.773 45.796C353.341 45.524 352.853 45.388 352.309 45.388C351.717 45.388 351.189 45.532 350.725 45.82C350.261 46.092 349.893 46.468 349.621 46.948C349.365 47.412 349.237 47.94 349.237 48.532C349.237 49.108 349.373 49.628 349.645 50.092C349.917 50.556 350.285 50.924 350.749 51.196C351.229 51.468 351.765 51.604 352.357 51.604ZM360.741 56.908C360.741 56.908 360.709 56.892 360.645 56.86C360.581 56.844 360.517 56.78 360.453 56.668C360.389 56.572 360.357 56.412 360.357 56.188C360.357 55.884 360.405 55.684 360.501 55.588C360.597 55.508 360.661 55.46 360.693 55.444C360.709 55.428 360.821 55.332 361.029 55.156C361.237 54.996 361.357 54.716 361.389 54.316C361.229 54.284 361.085 54.244 360.957 54.196C360.845 54.132 360.749 54.06 360.669 53.98C360.509 53.82 360.413 53.636 360.381 53.428C360.349 53.204 360.333 52.98 360.333 52.756C360.333 52.388 360.373 52.084 360.453 51.844C360.533 51.604 360.685 51.428 360.909 51.316C361.149 51.188 361.501 51.124 361.965 51.124C362.573 51.124 363.005 51.252 363.261 51.508C363.405 51.652 363.485 51.836 363.501 52.06C363.533 52.284 363.549 52.508 363.549 52.732C363.549 52.892 363.549 53.028 363.549 53.14C363.549 53.236 363.541 53.324 363.525 53.404C363.461 54.044 363.293 54.628 363.021 55.156C362.765 55.684 362.437 56.108 362.037 56.428C361.653 56.748 361.221 56.908 360.741 56.908ZM361.917 46.492C361.309 46.492 360.885 46.372 360.645 46.132C360.421 45.876 360.309 45.468 360.309 44.908C360.309 44.492 360.349 44.164 360.429 43.924C360.525 43.684 360.693 43.516 360.933 43.42C361.189 43.308 361.525 43.252 361.941 43.252C362.565 43.252 362.989 43.372 363.213 43.612C363.437 43.852 363.549 44.276 363.549 44.884C363.549 45.172 363.517 45.444 363.453 45.7C363.389 45.94 363.245 46.132 363.021 46.276C362.797 46.42 362.429 46.492 361.917 46.492ZM119.928 83.412C119.512 83.412 119.2 83.34 118.992 83.196C118.784 83.068 118.648 82.892 118.584 82.668C118.52 82.444 118.488 82.204 118.488 81.948V68.076C118.488 67.82 118.512 67.588 118.56 67.38C118.624 67.156 118.76 66.98 118.968 66.852C119.176 66.708 119.504 66.636 119.952 66.636L124.464 66.66C125.632 66.66 126.704 66.86 127.68 67.26C128.672 67.66 129.528 68.228 130.248 68.964C130.968 69.7 131.52 70.58 131.904 71.604C132.304 72.612 132.504 73.724 132.504 74.94C132.504 76.188 132.304 77.332 131.904 78.372C131.504 79.412 130.944 80.308 130.224 81.06C129.504 81.812 128.648 82.396 127.656 82.812C126.68 83.212 125.592 83.412 124.392 83.412H119.928ZM121.392 80.508H124.464C125.488 80.508 126.384 80.284 127.152 79.836C127.92 79.372 128.512 78.732 128.928 77.916C129.36 77.1 129.576 76.148 129.576 75.06C129.576 73.956 129.36 72.996 128.928 72.18C128.512 71.348 127.912 70.708 127.128 70.26C126.36 69.796 125.464 69.564 124.44 69.564H121.392V80.508ZM144.617 83.388C144.153 83.388 143.809 83.3 143.585 83.124C143.361 82.948 143.249 82.708 143.249 82.404L143.417 81.612C143.289 81.82 143.073 82.068 142.769 82.356C142.465 82.628 142.065 82.876 141.569 83.1C141.073 83.308 140.473 83.412 139.769 83.412C139.017 83.412 138.305 83.26 137.633 82.956C136.977 82.636 136.393 82.204 135.881 81.66C135.385 81.1 134.985 80.468 134.681 79.764C134.393 79.044 134.249 78.276 134.249 77.46C134.249 76.676 134.393 75.94 134.681 75.252C134.985 74.548 135.393 73.924 135.905 73.38C136.417 72.836 137.001 72.412 137.657 72.108C138.329 71.788 139.033 71.628 139.769 71.628C140.425 71.628 140.977 71.716 141.425 71.892C141.889 72.068 142.281 72.292 142.601 72.564C142.921 72.82 143.185 73.092 143.393 73.38L143.249 72.684C143.249 72.332 143.361 72.068 143.585 71.892C143.809 71.7 144.161 71.604 144.641 71.604C145.089 71.604 145.409 71.676 145.601 71.82C145.793 71.948 145.913 72.132 145.961 72.372C146.009 72.596 146.033 72.852 146.033 73.14V81.924C146.033 82.196 146.009 82.444 145.961 82.668C145.913 82.892 145.785 83.068 145.577 83.196C145.385 83.324 145.065 83.388 144.617 83.388ZM140.201 80.604C140.745 80.604 141.233 80.468 141.665 80.196C142.097 79.924 142.441 79.556 142.697 79.092C142.969 78.612 143.105 78.084 143.105 77.508C143.105 76.884 142.969 76.34 142.697 75.876C142.425 75.412 142.065 75.052 141.617 74.796C141.185 74.524 140.697 74.388 140.153 74.388C139.561 74.388 139.033 74.532 138.569 74.82C138.105 75.092 137.737 75.468 137.465 75.948C137.209 76.412 137.081 76.94 137.081 77.532C137.081 78.108 137.217 78.628 137.489 79.092C137.761 79.556 138.129 79.924 138.593 80.196C139.073 80.468 139.609 80.604 140.201 80.604ZM149.833 83.412C149.401 83.412 149.081 83.348 148.873 83.22C148.681 83.092 148.561 82.916 148.513 82.692C148.465 82.468 148.441 82.228 148.441 81.972V72.996C148.441 72.74 148.465 72.508 148.513 72.3C148.561 72.092 148.689 71.924 148.897 71.796C149.105 71.668 149.433 71.604 149.881 71.604C150.345 71.604 150.681 71.7 150.889 71.892C151.113 72.084 151.225 72.388 151.225 72.804L151.009 73.476C151.089 73.3 151.225 73.108 151.417 72.9C151.609 72.692 151.841 72.484 152.113 72.276C152.401 72.068 152.721 71.9 153.073 71.772C153.425 71.644 153.793 71.58 154.177 71.58C154.705 71.58 155.185 71.668 155.617 71.844C156.065 72.02 156.457 72.276 156.793 72.612C157.145 72.948 157.449 73.356 157.705 73.836C157.977 73.42 158.281 73.044 158.617 72.708C158.953 72.356 159.345 72.084 159.793 71.892C160.241 71.684 160.745 71.58 161.305 71.58C162.233 71.58 163.009 71.812 163.633 72.276C164.273 72.74 164.753 73.404 165.073 74.268C165.409 75.116 165.577 76.132 165.577 77.316V81.972C165.577 82.244 165.545 82.492 165.481 82.716C165.433 82.924 165.305 83.092 165.097 83.22C164.905 83.348 164.585 83.412 164.137 83.412C163.689 83.412 163.361 83.34 163.153 83.196C162.945 83.068 162.817 82.9 162.769 82.692C162.721 82.468 162.697 82.22 162.697 81.948V77.292C162.697 76.7 162.625 76.188 162.481 75.756C162.337 75.324 162.121 74.988 161.833 74.748C161.561 74.508 161.201 74.388 160.753 74.388C160.273 74.388 159.857 74.508 159.505 74.748C159.169 74.972 158.905 75.3 158.713 75.732C158.521 76.164 158.425 76.692 158.425 77.316V81.996C158.425 82.268 158.385 82.524 158.305 82.764C158.225 82.988 158.065 83.156 157.825 83.268C157.601 83.396 157.273 83.444 156.841 83.412C156.441 83.396 156.145 83.316 155.953 83.172C155.777 83.028 155.665 82.852 155.617 82.644C155.585 82.42 155.569 82.188 155.569 81.948V77.292C155.569 76.7 155.497 76.188 155.353 75.756C155.209 75.308 154.993 74.972 154.705 74.748C154.433 74.508 154.065 74.388 153.601 74.388C153.105 74.388 152.681 74.516 152.329 74.772C151.993 75.028 151.737 75.372 151.561 75.804C151.385 76.236 151.297 76.732 151.297 77.292V81.996C151.297 82.252 151.265 82.492 151.201 82.716C151.153 82.94 151.025 83.108 150.817 83.22C150.625 83.348 150.297 83.412 149.833 83.412ZM174.06 83.268C173.276 83.268 172.572 83.124 171.948 82.836C171.34 82.532 170.82 82.116 170.388 81.588C169.972 81.044 169.652 80.42 169.428 79.716C169.22 79.012 169.116 78.252 169.116 77.436C169.132 76.62 169.252 75.86 169.476 75.156C169.7 74.436 170.02 73.812 170.436 73.284C170.868 72.756 171.388 72.34 171.996 72.036C172.604 71.732 173.292 71.58 174.06 71.58C174.796 71.58 175.484 71.732 176.124 72.036C176.78 72.34 177.356 72.764 177.852 73.308C178.364 73.852 178.764 74.484 179.052 75.204C179.34 75.908 179.484 76.668 179.484 77.484C179.484 78.316 179.34 79.084 179.052 79.788C178.764 80.492 178.372 81.108 177.876 81.636C177.38 82.148 176.804 82.548 176.148 82.836C175.492 83.124 174.796 83.268 174.06 83.268ZM169.26 88.26C168.828 88.26 168.508 88.196 168.3 88.068C168.092 87.94 167.964 87.772 167.916 87.564C167.868 87.356 167.844 87.116 167.844 86.844V73.044C167.844 72.772 167.868 72.532 167.916 72.324C167.964 72.116 168.084 71.948 168.276 71.82C168.484 71.676 168.804 71.604 169.236 71.604C169.652 71.604 169.98 71.668 170.22 71.796C170.46 71.924 170.62 72.14 170.7 72.444V86.82C170.716 87.092 170.692 87.332 170.628 87.54C170.58 87.764 170.452 87.94 170.244 88.068C170.036 88.196 169.708 88.26 169.26 88.26ZM173.676 80.58C174.236 80.58 174.74 80.452 175.188 80.196C175.636 79.924 175.988 79.556 176.244 79.092C176.516 78.612 176.652 78.076 176.652 77.484C176.652 76.876 176.516 76.34 176.244 75.876C175.988 75.412 175.636 75.052 175.188 74.796C174.74 74.524 174.236 74.388 173.676 74.388C173.132 74.388 172.636 74.524 172.188 74.796C171.74 75.068 171.38 75.436 171.108 75.9C170.852 76.348 170.724 76.876 170.724 77.484C170.724 78.076 170.852 78.612 171.108 79.092C171.38 79.556 171.74 79.924 172.188 80.196C172.636 80.452 173.132 80.58 173.676 80.58ZM191.351 83.388C190.887 83.388 190.543 83.3 190.319 83.124C190.095 82.948 189.983 82.708 189.983 82.404L190.151 81.612C190.023 81.82 189.807 82.068 189.503 82.356C189.199 82.628 188.799 82.876 188.303 83.1C187.807 83.308 187.207 83.412 186.503 83.412C185.751 83.412 185.039 83.26 184.367 82.956C183.711 82.636 183.127 82.204 182.615 81.66C182.119 81.1 181.719 80.468 181.415 79.764C181.127 79.044 180.983 78.276 180.983 77.46C180.983 76.676 181.127 75.94 181.415 75.252C181.719 74.548 182.127 73.924 182.639 73.38C183.151 72.836 183.735 72.412 184.391 72.108C185.063 71.788 185.767 71.628 186.503 71.628C187.159 71.628 187.711 71.716 188.159 71.892C188.623 72.068 189.015 72.292 189.335 72.564C189.655 72.82 189.919 73.092 190.127 73.38L189.983 72.684C189.983 72.332 190.095 72.068 190.319 71.892C190.543 71.7 190.895 71.604 191.375 71.604C191.823 71.604 192.143 71.676 192.335 71.82C192.527 71.948 192.647 72.132 192.695 72.372C192.743 72.596 192.767 72.852 192.767 73.14V81.924C192.767 82.196 192.743 82.444 192.695 82.668C192.647 82.892 192.519 83.068 192.311 83.196C192.119 83.324 191.799 83.388 191.351 83.388ZM186.935 80.604C187.479 80.604 187.967 80.468 188.399 80.196C188.831 79.924 189.175 79.556 189.431 79.092C189.703 78.612 189.839 78.084 189.839 77.508C189.839 76.884 189.703 76.34 189.431 75.876C189.159 75.412 188.799 75.052 188.351 74.796C187.919 74.524 187.431 74.388 186.887 74.388C186.295 74.388 185.767 74.532 185.303 74.82C184.839 75.092 184.471 75.468 184.199 75.948C183.943 76.412 183.815 76.94 183.815 77.532C183.815 78.108 183.951 78.628 184.223 79.092C184.495 79.556 184.863 79.924 185.327 80.196C185.807 80.468 186.343 80.604 186.935 80.604ZM204.583 80.844C204.999 81.196 205.215 81.524 205.231 81.828C205.263 82.132 205.103 82.484 204.751 82.884C204.479 83.188 204.239 83.388 204.031 83.484C203.823 83.58 203.615 83.58 203.407 83.484C203.199 83.404 202.951 83.244 202.663 83.004L198.079 79.14V81.996C198.079 82.252 198.047 82.492 197.983 82.716C197.935 82.94 197.807 83.116 197.599 83.244C197.407 83.372 197.087 83.436 196.639 83.436C196.191 83.436 195.863 83.364 195.655 83.22C195.463 83.092 195.343 82.916 195.295 82.692C195.247 82.468 195.223 82.228 195.223 81.972V67.644C195.223 67.372 195.247 67.132 195.295 66.924C195.359 66.7 195.487 66.524 195.679 66.396C195.887 66.252 196.215 66.18 196.663 66.18C197.111 66.18 197.431 66.252 197.623 66.396C197.815 66.524 197.935 66.7 197.983 66.924C198.047 67.132 198.079 67.38 198.079 67.668V75.54L201.391 72.324C201.647 72.084 201.887 71.924 202.111 71.844C202.335 71.748 202.551 71.74 202.759 71.82C202.983 71.884 203.215 72.052 203.455 72.324C203.855 72.756 204.047 73.116 204.031 73.404C204.015 73.676 203.815 74.004 203.431 74.388L200.191 77.388L204.583 80.844ZM217.162 83.58C216.746 83.58 216.306 83.532 215.842 83.436C215.378 83.356 214.93 83.236 214.498 83.076C214.066 82.9 213.69 82.7 213.37 82.476C213.066 82.236 212.874 81.972 212.794 81.684C212.73 81.524 212.706 81.372 212.722 81.228C212.738 81.068 212.786 80.908 212.866 80.748C212.946 80.572 213.066 80.396 213.226 80.22C213.37 80.044 213.514 79.948 213.658 79.932C213.818 79.9 214.018 79.948 214.258 80.076C214.466 80.156 214.69 80.26 214.93 80.388C215.186 80.516 215.442 80.644 215.698 80.772C215.97 80.9 216.242 81.004 216.514 81.084C216.802 81.164 217.082 81.204 217.354 81.204C217.946 81.204 218.418 81.108 218.77 80.916C219.122 80.708 219.298 80.42 219.298 80.052C219.298 79.844 219.242 79.66 219.13 79.5C219.018 79.34 218.866 79.212 218.674 79.116C218.498 79.004 218.282 78.908 218.026 78.828C217.786 78.732 217.522 78.652 217.234 78.588C216.962 78.508 216.674 78.42 216.37 78.324C215.97 78.212 215.57 78.076 215.17 77.916C214.77 77.756 214.41 77.548 214.09 77.292C213.786 77.036 213.538 76.716 213.346 76.332C213.154 75.948 213.058 75.468 213.058 74.892C213.058 74.172 213.226 73.564 213.562 73.068C213.914 72.556 214.418 72.164 215.074 71.892C215.73 71.62 216.522 71.484 217.45 71.484C217.77 71.484 218.074 71.508 218.362 71.556C218.666 71.604 218.954 71.676 219.226 71.772C219.514 71.852 219.786 71.956 220.042 72.084C220.314 72.212 220.57 72.356 220.81 72.516C221.21 72.74 221.418 73.004 221.434 73.308C221.45 73.596 221.338 73.908 221.098 74.244C220.922 74.468 220.746 74.628 220.57 74.724C220.394 74.804 220.21 74.804 220.018 74.724C219.762 74.596 219.482 74.46 219.178 74.316C218.89 74.156 218.586 74.02 218.266 73.908C217.962 73.796 217.642 73.74 217.306 73.74C216.986 73.74 216.698 73.788 216.442 73.884C216.186 73.98 215.994 74.116 215.866 74.292C215.738 74.468 215.674 74.676 215.674 74.916C215.674 75.14 215.738 75.324 215.866 75.468C215.994 75.612 216.162 75.732 216.37 75.828C216.578 75.924 216.826 76.012 217.114 76.092C217.402 76.156 217.706 76.22 218.026 76.284C218.474 76.38 218.93 76.5 219.394 76.644C219.858 76.788 220.282 76.988 220.666 77.244C221.066 77.5 221.386 77.844 221.626 78.276C221.866 78.692 221.986 79.236 221.986 79.908C221.986 81.076 221.554 81.98 220.69 82.62C219.842 83.26 218.666 83.58 217.162 83.58ZM229.593 83.58C228.825 83.58 228.073 83.436 227.337 83.148C226.617 82.844 225.961 82.42 225.369 81.876C224.793 81.332 224.329 80.692 223.977 79.956C223.641 79.22 223.473 78.412 223.473 77.532C223.473 76.684 223.633 75.892 223.953 75.156C224.273 74.42 224.713 73.772 225.273 73.212C225.833 72.652 226.473 72.22 227.193 71.916C227.929 71.596 228.713 71.436 229.545 71.436C230.665 71.436 231.681 71.708 232.593 72.252C233.505 72.78 234.233 73.5 234.777 74.412C235.321 75.324 235.593 76.356 235.593 77.508C235.593 78.42 235.425 79.252 235.089 80.004C234.753 80.74 234.297 81.38 233.721 81.924C233.145 82.452 232.497 82.86 231.777 83.148C231.073 83.436 230.345 83.58 229.593 83.58ZM229.545 80.748C230.073 80.748 230.577 80.62 231.057 80.364C231.553 80.092 231.953 79.708 232.257 79.212C232.577 78.716 232.737 78.132 232.737 77.46C232.737 76.836 232.593 76.284 232.305 75.804C232.033 75.324 231.657 74.948 231.177 74.676C230.697 74.404 230.145 74.268 229.521 74.268C228.929 74.268 228.393 74.412 227.913 74.7C227.433 74.972 227.049 75.356 226.761 75.852C226.489 76.332 226.353 76.876 226.353 77.484C226.353 78.156 226.505 78.74 226.809 79.236C227.113 79.716 227.505 80.092 227.985 80.364C228.481 80.62 229.001 80.748 229.545 80.748ZM241.584 83.58C241.168 83.58 240.728 83.532 240.264 83.436C239.8 83.356 239.352 83.236 238.92 83.076C238.488 82.9 238.112 82.7 237.792 82.476C237.488 82.236 237.296 81.972 237.216 81.684C237.152 81.524 237.128 81.372 237.144 81.228C237.16 81.068 237.208 80.908 237.288 80.748C237.368 80.572 237.488 80.396 237.648 80.22C237.792 80.044 237.936 79.948 238.08 79.932C238.24 79.9 238.44 79.948 238.68 80.076C238.888 80.156 239.112 80.26 239.352 80.388C239.608 80.516 239.864 80.644 240.12 80.772C240.392 80.9 240.664 81.004 240.936 81.084C241.224 81.164 241.504 81.204 241.776 81.204C242.368 81.204 242.84 81.108 243.192 80.916C243.544 80.708 243.72 80.42 243.72 80.052C243.72 79.844 243.664 79.66 243.552 79.5C243.44 79.34 243.288 79.212 243.096 79.116C242.92 79.004 242.704 78.908 242.448 78.828C242.208 78.732 241.944 78.652 241.656 78.588C241.384 78.508 241.096 78.42 240.792 78.324C240.392 78.212 239.992 78.076 239.592 77.916C239.192 77.756 238.832 77.548 238.512 77.292C238.208 77.036 237.96 76.716 237.768 76.332C237.576 75.948 237.48 75.468 237.48 74.892C237.48 74.172 237.648 73.564 237.984 73.068C238.336 72.556 238.84 72.164 239.496 71.892C240.152 71.62 240.944 71.484 241.872 71.484C242.192 71.484 242.496 71.508 242.784 71.556C243.088 71.604 243.376 71.676 243.648 71.772C243.936 71.852 244.208 71.956 244.464 72.084C244.736 72.212 244.992 72.356 245.232 72.516C245.632 72.74 245.84 73.004 245.856 73.308C245.872 73.596 245.76 73.908 245.52 74.244C245.344 74.468 245.168 74.628 244.992 74.724C244.816 74.804 244.632 74.804 244.44 74.724C244.184 74.596 243.904 74.46 243.6 74.316C243.312 74.156 243.008 74.02 242.688 73.908C242.384 73.796 242.064 73.74 241.728 73.74C241.408 73.74 241.12 73.788 240.864 73.884C240.608 73.98 240.416 74.116 240.288 74.292C240.16 74.468 240.096 74.676 240.096 74.916C240.096 75.14 240.16 75.324 240.288 75.468C240.416 75.612 240.584 75.732 240.792 75.828C241 75.924 241.248 76.012 241.536 76.092C241.824 76.156 242.128 76.22 242.448 76.284C242.896 76.38 243.352 76.5 243.816 76.644C244.28 76.788 244.704 76.988 245.088 77.244C245.488 77.5 245.808 77.844 246.048 78.276C246.288 78.692 246.408 79.236 246.408 79.908C246.408 81.076 245.976 81.98 245.112 82.62C244.264 83.26 243.088 83.58 241.584 83.58ZM250.031 83.436C249.599 83.436 249.279 83.364 249.071 83.22C248.863 83.092 248.735 82.924 248.687 82.716C248.639 82.492 248.615 82.244 248.615 81.972V73.044C248.615 72.788 248.639 72.556 248.687 72.348C248.751 72.124 248.879 71.948 249.071 71.82C249.279 71.692 249.607 71.628 250.055 71.628C250.503 71.628 250.823 71.692 251.015 71.82C251.223 71.948 251.351 72.124 251.399 72.348C251.447 72.572 251.471 72.82 251.471 73.092V81.996C251.471 82.268 251.447 82.516 251.399 82.74C251.351 82.948 251.223 83.116 251.015 83.244C250.823 83.372 250.495 83.436 250.031 83.436ZM250.031 69.3C249.567 69.3 249.223 69.236 248.999 69.108C248.791 68.964 248.655 68.772 248.591 68.532C248.543 68.292 248.519 68.028 248.519 67.74C248.519 67.436 248.543 67.172 248.591 66.948C248.655 66.724 248.799 66.548 249.023 66.42C249.247 66.276 249.591 66.204 250.055 66.204C250.535 66.204 250.879 66.276 251.087 66.42C251.295 66.564 251.431 66.756 251.495 66.996C251.559 67.22 251.591 67.484 251.591 67.788C251.591 68.06 251.559 68.316 251.495 68.556C251.431 68.796 251.295 68.98 251.087 69.108C250.879 69.236 250.527 69.3 250.031 69.3ZM263.703 83.388C263.239 83.388 262.895 83.3 262.671 83.124C262.447 82.948 262.335 82.708 262.335 82.404L262.503 81.612C262.375 81.82 262.159 82.068 261.855 82.356C261.551 82.628 261.151 82.876 260.655 83.1C260.159 83.308 259.559 83.412 258.855 83.412C258.103 83.412 257.391 83.26 256.719 82.956C256.063 82.636 255.479 82.204 254.967 81.66C254.471 81.1 254.071 80.468 253.767 79.764C253.479 79.044 253.335 78.276 253.335 77.46C253.335 76.676 253.479 75.94 253.767 75.252C254.071 74.548 254.479 73.924 254.991 73.38C255.503 72.836 256.087 72.412 256.743 72.108C257.415 71.788 258.119 71.628 258.855 71.628C259.511 71.628 260.063 71.716 260.511 71.892C260.975 72.068 261.367 72.292 261.687 72.564C262.007 72.82 262.271 73.092 262.479 73.38L262.335 72.684C262.335 72.332 262.447 72.068 262.671 71.892C262.895 71.7 263.247 71.604 263.727 71.604C264.175 71.604 264.495 71.676 264.687 71.82C264.879 71.948 264.999 72.132 265.047 72.372C265.095 72.596 265.119 72.852 265.119 73.14V81.924C265.119 82.196 265.095 82.444 265.047 82.668C264.999 82.892 264.871 83.068 264.663 83.196C264.471 83.324 264.151 83.388 263.703 83.388ZM259.287 80.604C259.831 80.604 260.319 80.468 260.751 80.196C261.183 79.924 261.527 79.556 261.783 79.092C262.055 78.612 262.191 78.084 262.191 77.508C262.191 76.884 262.055 76.34 261.783 75.876C261.511 75.412 261.151 75.052 260.703 74.796C260.271 74.524 259.783 74.388 259.239 74.388C258.647 74.388 258.119 74.532 257.655 74.82C257.191 75.092 256.823 75.468 256.551 75.948C256.295 76.412 256.167 76.94 256.167 77.532C256.167 78.108 256.303 78.628 256.575 79.092C256.847 79.556 257.215 79.924 257.679 80.196C258.159 80.468 258.695 80.604 259.287 80.604ZM271.655 83.436C271.063 83.436 270.535 83.396 270.071 83.316C269.623 83.236 269.231 83.1 268.895 82.908C268.575 82.716 268.311 82.46 268.103 82.14C267.895 81.804 267.735 81.396 267.623 80.916C267.527 80.436 267.479 79.86 267.479 79.188V67.62C267.479 67.348 267.503 67.108 267.551 66.9C267.615 66.676 267.743 66.5 267.935 66.372C268.143 66.228 268.471 66.156 268.919 66.156C269.367 66.156 269.687 66.22 269.879 66.348C270.087 66.476 270.215 66.652 270.263 66.876C270.327 67.084 270.359 67.324 270.359 67.596V79.068C270.359 79.372 270.375 79.628 270.407 79.836C270.455 80.028 270.527 80.188 270.623 80.316C270.735 80.428 270.871 80.508 271.031 80.556C271.207 80.604 271.415 80.628 271.655 80.628C271.863 80.628 272.047 80.652 272.207 80.7C272.383 80.748 272.519 80.868 272.615 81.06C272.727 81.252 272.783 81.564 272.783 81.996C272.783 82.444 272.727 82.772 272.615 82.98C272.519 83.188 272.383 83.316 272.207 83.364C272.031 83.412 271.847 83.436 271.655 83.436Z" fill="black"/>
</svg>
