<svg width="400" height="120" viewBox="0 0 400 120" fill="none" xmlns="http://www.w3.org/2000/svg">
<mask id="mask0_62_2353" style="mask-type:luminance" maskUnits="userSpaceOnUse" x="0" y="0" width="400" height="120">
<path d="M400 0H0V120H400V0Z" fill="white"/>
</mask>
<g mask="url(#mask0_62_2353)">
<mask id="mask1_62_2353" style="mask-type:luminance" maskUnits="userSpaceOnUse" x="9" y="9" width="388" height="111">
<path d="M9.33838 9.33325H396.887V119.354H9.33838V9.33325Z" fill="white"/>
</mask>
<g mask="url(#mask1_62_2353)">
<path d="M15.789 72.3853L12.3965 62.3593L17.7893 51.8749L13.0349 41.3958L9.77612 30.9114L12.1047 19.3541L26.2584 18.2343L39.1779 15.5937L52.3406 21.4739L65.1142 13.7499L78.3376 21.7083L91.2267 17.9635L104.365 22.901L117.358 22.677L130.405 24.3437L143.318 21.4218L155.618 17.1093L167.972 14.5624L180.326 12.0989L192.783 13.2135L205.32 17.1249L217.838 20.3437L230.253 20.0728L242.4 10.3072L255.064 18.6874L267.503 19.1718L279.742 12.4791L292.084 9.53638L304.906 12.9062L318.19 14.7655L328.447 23.3958L341.367 25.4062L352.316 32.3385L368.294 26.7083L380.204 31.2239L396.346 37.177L387.475 50.3385L387.159 62.0937L374.361 69.8593L369.875 80.2812L373.796 93.3957L367.57 103.266L364.391 115.974L345.853 109.745L333.335 117.432L320.227 109.989L307.782 119.823L294.631 110.969L281.864 112.432L269.005 111.359L256.444 118.932L243.555 117.01L230.824 121.224L218.355 114.521L205.222 119.724L193.081 116.047L180.727 115.328L168.306 115.838L155.903 115.969L143.829 110.542L131.396 111.203L119.346 105.146L106.274 116.76L94.5645 104.833L81.5599 115.427L69.6375 107.245L57.5023 102.453L44.6436 110.724L27.2615 111.552L29.4685 98.1405L22.7929 90.2291L11.0103 83.578L15.789 72.3853Z" fill="black"/>
<path d="M15.789 72.3853L12.3965 62.3593L17.7893 51.8749L13.0349 41.3958L9.77612 30.9114L12.1047 19.3541L26.2584 18.2343L39.1779 15.5937L52.3406 21.4739L65.1142 13.7499L78.3376 21.7083L91.2267 17.9635L104.365 22.901L117.358 22.677L130.405 24.3437L143.318 21.4218L155.618 17.1093L167.972 14.5624L180.326 12.0989L192.783 13.2135L205.32 17.1249L217.838 20.3437L230.253 20.0728L242.4 10.3072L255.064 18.6874L267.503 19.1718L279.742 12.4791L292.084 9.53638L304.906 12.9062L318.19 14.7655L328.447 23.3958L341.367 25.4062L352.316 32.3385L368.294 26.7083L380.204 31.2239L396.346 37.177L387.475 50.3385L387.159 62.0937L374.361 69.8593L369.875 80.2812L373.796 93.3957L367.57 103.266L364.391 115.974L345.853 109.745L333.335 117.432L320.227 109.989L307.782 119.823L294.631 110.969L281.864 112.432L269.005 111.359L256.444 118.932L243.555 117.01L230.824 121.224L218.355 114.521L205.222 119.724L193.081 116.047L180.727 115.328L168.306 115.838L155.903 115.969L143.829 110.542L131.396 111.203L119.346 105.146L106.274 116.76L94.5645 104.833L81.5599 115.427L69.6375 107.245L57.5023 102.453L44.6436 110.724L27.2615 111.552L29.4685 98.1405L22.7929 90.2291L11.0103 83.578L15.789 72.3853Z" fill="black"/>
</g>
<mask id="mask2_62_2353" style="mask-type:luminance" maskUnits="userSpaceOnUse" x="7" y="8" width="391" height="112">
<path d="M7.78198 8H397.586V119.354H7.78198V8Z" fill="white"/>
</mask>
<g mask="url(#mask2_62_2353)">
<path d="M230.739 121.985L218.3 115.307L205.265 120.474L192.917 116.735L180.721 115.99L168.342 116.495L155.715 116.63L143.653 111.203L131.207 111.886L119.485 105.995L106.238 117.766L94.5037 105.813L81.6085 116.328L69.2058 107.849L57.6056 103.261L44.9111 111.401L26.3131 112.287L28.6355 98.3491L22.1971 90.7241L10.0497 83.8491L14.9561 72.3647L11.5575 62.3127L16.932 51.8543L12.2627 41.5731L8.95532 30.9429L11.4237 18.7293L26.1671 17.5575L39.2812 14.9012L52.2737 20.7033L65.1141 12.9168L78.4653 20.9533L91.2632 17.2293L104.523 22.2137L117.406 21.9897L130.356 23.6564L143.051 20.7762L155.423 16.4429L167.765 13.896L180.259 11.4168L193.038 12.5731L205.569 16.4845L217.941 19.6512L229.931 19.396L242.345 9.40641L255.356 18.0106L267.26 18.4689L279.383 11.8491L292.078 8.81787L305.076 12.2085L318.561 14.0939L328.83 22.7293L341.683 24.7241L352.414 31.5106L368.282 25.922L380.514 30.5522L397.483 36.8491L388.272 50.5262L387.962 62.4533L375.03 70.297L370.714 80.3231L374.678 93.4845L368.33 103.505L364.95 116.906L345.951 110.516L333.335 118.261L320.294 110.854L307.824 120.74L294.413 111.703L281.882 113.146L269.188 112.078L256.627 119.651L243.634 117.719L230.739 121.985ZM218.415 113.75L230.915 120.464L243.47 116.307L256.256 118.214L268.792 110.656L281.852 111.755L294.856 110.255L307.739 118.932L320.148 109.13L333.317 116.594L345.744 108.969L363.801 115.031L366.816 103.016L372.951 93.297L369.048 80.2345L373.681 69.4272L386.375 61.7137L386.685 50.1825L395.215 37.495L379.894 31.8647L368.276 27.4585L352.201 33.1252L341.038 26.047L328.064 24.0158L317.807 15.396L304.651 13.547L292.054 10.2293L280.058 13.1095L267.704 19.896L254.76 19.396L242.437 11.2502L230.532 20.7918L217.68 21.0783L205.04 17.8283L192.601 13.8856L180.374 12.7918L168.184 15.2293L155.867 17.7502L143.525 22.0783L130.453 25.0366L117.303 23.3543L104.207 23.5887L91.2267 18.6929L78.216 22.4689L65.1141 14.5783L52.4196 22.271L39.0927 16.3127L26.3313 18.9064L12.7856 19.9845L10.5847 30.8804L13.7948 41.1825L18.6526 51.8908L13.2476 62.3908L16.6462 72.4116L11.9952 83.3075L23.3705 89.7241L30.3135 97.9689L28.1978 110.823L44.376 110.057L57.4232 101.667L70.1178 106.708L81.5113 114.521L94.6192 103.844L106.298 115.745L119.194 104.287L131.572 110.516L143.987 109.833L156.08 115.261L168.282 115.136L180.721 114.62L193.227 115.349L205.125 118.958L218.415 113.75Z" fill="black"/>
</g>
<mask id="mask3_62_2353" style="mask-type:luminance" maskUnits="userSpaceOnUse" x="3" y="1" width="388" height="113">
<path d="M3.11279 1.08337H390.661V113.333H3.11279V1.08337Z" fill="white"/>
</mask>
<g mask="url(#mask3_62_2353)">
<path d="M9.78237 63.3957L6.39594 53.3644L11.7826 42.8801L7.02824 32.4009L3.75732 21.9165L6.09804 10.3644L20.2457 9.23942L33.1712 6.604L46.3339 12.479L59.1075 4.75505L72.3249 12.7186L85.2201 8.96338L98.3585 13.9113L111.345 13.6821L124.398 15.3592L137.312 12.4321L149.611 8.10921L161.965 5.56755L174.319 3.10921L186.777 4.2238L199.313 8.13005L211.825 11.3488L224.246 11.078L236.387 1.31234L249.058 9.69776L261.497 10.1821L273.735 3.48942L286.077 0.541504L298.9 3.9165L312.184 5.77067L322.44 14.4061L335.36 16.4165L346.31 23.3436L362.281 17.7134L374.197 22.229L390.339 28.1769L381.469 41.3488L381.153 53.104L368.355 60.8644L363.868 71.2915L367.796 84.4009L361.564 94.2707L358.378 106.979L339.847 100.755L327.329 108.443L314.221 101L301.775 110.833L288.619 101.974L275.851 103.443L262.999 102.364L250.432 109.937L237.549 108.026L224.818 112.234L212.348 105.526L199.216 110.729L187.068 107.062L174.726 106.333L162.299 106.849L149.897 106.979L137.822 101.547L125.389 102.208L113.339 96.1561L100.268 107.765L88.5579 95.8436L75.5533 106.427L63.6248 98.2446L51.5017 93.4582L38.6369 101.734L21.2488 102.557L23.4618 89.1509L16.7863 81.2342L5.00368 74.5832L9.78237 63.3957Z" fill="white"/>
</g>
<mask id="mask4_62_2353" style="mask-type:luminance" maskUnits="userSpaceOnUse" x="0" y="1" width="396" height="115">
<path d="M0.674805 1.08337H395.331V116H0.674805V1.08337Z" fill="white"/>
</mask>
<g mask="url(#mask4_62_2353)">
<path d="M224.52 115.01L212.147 108.365L199.386 113.422L186.491 109.521L174.708 108.844L162.348 109.349L149.21 109.49L137.202 104.063L124.69 104.74L113.862 99.3126L100.146 111.526L88.3389 99.5105L75.7234 109.745L62.0743 100.385L51.8542 96.3542L39.6521 104.182L17.8318 105.214L20.3732 89.7917L14.7007 83.0626L1.44077 75.599L6.68153 63.3282L3.30118 53.1875L8.62097 42.8282L4.20099 33.0417L0.778076 22.0313L3.61125 8.05733L19.7713 6.76046L33.5541 3.95837L46.1027 9.56254L59.1013 1.69796L72.7929 9.94275L85.3537 6.29171L98.942 11.4011L111.539 11.1823L124.234 12.8125L136.381 10.0573L148.705 5.72921L161.284 3.14587L174.13 0.578167L187.433 1.77608L200.231 5.76567L212.22 8.84379L223.06 8.60421L236.205 -1.9635L250.115 7.23442L260.706 7.65108L272.525 1.18233L286.12 -2.05725L299.568 1.48442L313.564 3.43754L323.875 12.0886L336.57 14.0625L346.705 20.5L362.311 14.9948L375.365 19.948L394.492 27L384.369 42.0417L384.04 54.4115L370.787 62.4532L366.92 71.4219L370.89 84.724L364.318 95.1459L360.494 110.38L340.248 103.594L327.377 111.495L314.5 104.182L301.909 114.13L287.767 104.63L275.869 105.99L263.752 104.979L251.058 112.609L237.767 110.635L224.52 115.01ZM212.561 102.693L225.128 109.474L237.214 105.448L249.708 107.302L262.172 99.7917L275.772 100.932L289.427 99.3594L301.593 107.557L313.886 97.8334L327.231 105.412L339.403 97.948L356.226 103.589L358.779 93.4115L364.683 84.1042L360.816 71.2136L365.929 59.3334L378.277 51.8698L378.569 40.6823L386.174 29.3959L373.036 24.5573L362.238 20.4844L345.908 26.1823L334.168 18.7605L321.036 16.7292L310.791 8.11983L298.237 6.35421L286.041 3.14587L274.933 5.79171L262.293 12.7032L248.012 12.1563L236.576 4.58858L225.432 13.5469L211.436 13.849L198.31 10.4584L186.108 6.65108L174.532 5.63546L162.634 8.00525L150.517 10.4948L138.242 14.8021L124.55 17.9011L111.156 16.1823L97.7625 16.4167L85.068 11.6667L71.8688 15.4844L59.1074 7.80733L46.5648 15.3959L32.782 9.24483L20.7197 11.7084L8.59058 12.6719L6.74233 21.8073L9.80653 31.625L14.9379 42.9428L9.50254 53.573L12.8647 63.5209L8.53586 73.5886L18.8471 79.4063L26.5198 88.5053L24.6412 99.8959L37.5971 99.2865L51.1489 90.5678L65.175 96.1094L75.3586 103.099L88.7949 92.2448L100.419 104.068L112.828 93.0365L126.137 99.7084L138.497 99.0261L150.602 104.453L162.214 104.333L174.757 103.818L187.67 104.568L199.064 108.016L212.561 102.693Z" fill="black"/>
<path d="M224.52 115.01L212.147 108.365L199.386 113.422L186.491 109.521L174.708 108.844L162.348 109.349L149.21 109.49L137.202 104.063L124.69 104.74L113.862 99.3126L100.146 111.526L88.3389 99.5105L75.7234 109.745L62.0743 100.385L51.8542 96.3542L39.6521 104.182L17.8318 105.214L20.3732 89.7917L14.7007 83.0626L1.44077 75.599L6.68153 63.3282L3.30118 53.1875L8.62097 42.8282L4.20099 33.0417L0.778076 22.0313L3.61125 8.05733L19.7713 6.76046L33.5541 3.95837L46.1027 9.56254L59.1013 1.69796L72.7929 9.94275L85.3537 6.29171L98.942 11.4011L111.539 11.1823L124.234 12.8125L136.381 10.0573L148.705 5.72921L161.284 3.14587L174.13 0.578167L187.433 1.77608L200.231 5.76567L212.22 8.84379L223.06 8.60421L236.205 -1.9635L250.115 7.23442L260.706 7.65108L272.525 1.18233L286.12 -2.05725L299.568 1.48442L313.564 3.43754L323.875 12.0886L336.57 14.0625L346.705 20.5L362.311 14.9948L375.365 19.948L394.492 27L384.369 42.0417L384.04 54.4115L370.787 62.4532L366.92 71.4219L370.89 84.724L364.318 95.1459L360.494 110.38L340.248 103.594L327.377 111.495L314.5 104.182L301.909 114.13L287.767 104.63L275.869 105.99L263.752 104.979L251.058 112.609L237.767 110.635L224.52 115.01ZM212.561 102.693L225.128 109.474L237.214 105.448L249.708 107.302L262.172 99.7917L275.772 100.932L289.427 99.3594L301.593 107.557L313.886 97.8334L327.231 105.412L339.403 97.948L356.226 103.589L358.779 93.4115L364.683 84.1042L360.816 71.2136L365.929 59.3334L378.277 51.8698L378.569 40.6823L386.174 29.3959L373.036 24.5573L362.238 20.4844L345.908 26.1823L334.168 18.7605L321.036 16.7292L310.791 8.11983L298.237 6.35421L286.041 3.14587L274.933 5.79171L262.293 12.7032L248.012 12.1563L236.576 4.58858L225.432 13.5469L211.436 13.849L198.31 10.4584L186.108 6.65108L174.532 5.63546L162.634 8.00525L150.517 10.4948L138.242 14.8021L124.55 17.9011L111.156 16.1823L97.7625 16.4167L85.068 11.6667L71.8688 15.4844L59.1074 7.80733L46.5648 15.3959L32.782 9.24483L20.7197 11.7084L8.59058 12.6719L6.74233 21.8073L9.80653 31.625L14.9379 42.9428L9.50254 53.573L12.8647 63.5209L8.53586 73.5886L18.8471 79.4063L26.5198 88.5053L24.6412 99.8959L37.5971 99.2865L51.1489 90.5678L65.175 96.1094L75.3586 103.099L88.7949 92.2448L100.419 104.068L112.828 93.0365L126.137 99.7084L138.497 99.0261L150.602 104.453L162.214 104.333L174.757 103.818L187.67 104.568L199.064 108.016L212.561 102.693Z" fill="black"/>
</g>
</g>
<path d="M31.5481 54.412C31.1001 54.412 30.7721 54.348 30.5641 54.22C30.3561 54.092 30.2281 53.916 30.1801 53.692C30.1321 53.452 30.1081 53.204 30.1081 52.948V39.1C30.1081 38.844 30.1321 38.612 30.1801 38.404C30.2441 38.18 30.3801 38.004 30.5881 37.876C30.7961 37.732 31.1241 37.66 31.5721 37.66H36.6601C37.3641 37.66 38.0521 37.78 38.7241 38.02C39.3961 38.26 39.9961 38.62 40.5241 39.1C41.0681 39.58 41.4921 40.172 41.7961 40.876C42.1161 41.58 42.2761 42.404 42.2761 43.348C42.2761 44.276 42.1161 45.092 41.7961 45.796C41.4921 46.484 41.0681 47.068 40.5241 47.548C39.9801 48.028 39.3721 48.388 38.7001 48.628C38.0441 48.868 37.3561 48.988 36.6361 48.988H33.0121V52.972C33.0121 53.228 32.9801 53.468 32.9161 53.692C32.8681 53.916 32.7401 54.092 32.5321 54.22C32.3401 54.348 32.0121 54.412 31.5481 54.412ZM33.0121 46.06H36.6601C37.1561 46.06 37.6041 45.964 38.0041 45.772C38.4201 45.564 38.7561 45.26 39.0121 44.86C39.2681 44.444 39.3961 43.924 39.3961 43.3C39.3961 42.74 39.2761 42.26 39.0361 41.86C38.8121 41.444 38.4921 41.124 38.0761 40.9C37.6761 40.676 37.1961 40.564 36.6361 40.564H33.0121V46.06ZM50.0433 54.58C49.0033 54.58 48.0913 54.412 47.3073 54.076C46.5393 53.74 45.8913 53.284 45.3633 52.708C44.8513 52.116 44.4593 51.46 44.1873 50.74C43.9313 50.004 43.8033 49.244 43.8033 48.46C43.8033 47.308 44.0673 46.284 44.5953 45.388C45.1233 44.492 45.8513 43.788 46.7793 43.276C47.7233 42.764 48.8033 42.508 50.0193 42.508C50.8833 42.508 51.6433 42.644 52.2993 42.916C52.9553 43.188 53.4993 43.548 53.9313 43.996C54.3793 44.428 54.7153 44.908 54.9393 45.436C55.1793 45.964 55.2993 46.476 55.2993 46.972C55.2993 47.82 55.0913 48.436 54.6753 48.82C54.2753 49.204 53.7713 49.396 53.1633 49.396H46.8273C46.8433 49.94 47.0113 50.412 47.3313 50.812C47.6673 51.212 48.0833 51.524 48.5793 51.748C49.0913 51.956 49.6113 52.06 50.1393 52.06C50.5393 52.06 50.8913 52.036 51.1953 51.988C51.5153 51.94 51.7873 51.884 52.0113 51.82C52.2353 51.74 52.4273 51.66 52.5873 51.58C52.7633 51.5 52.9233 51.428 53.0673 51.364C53.2113 51.3 53.3473 51.26 53.4753 51.244C53.6513 51.228 53.8273 51.268 54.0033 51.364C54.1793 51.46 54.3233 51.628 54.4353 51.868C54.5313 52.028 54.5953 52.18 54.6273 52.324C54.6753 52.452 54.6993 52.58 54.6993 52.708C54.6993 53.028 54.5073 53.332 54.1233 53.62C53.7393 53.892 53.1953 54.116 52.4913 54.292C51.8033 54.484 50.9873 54.58 50.0433 54.58ZM46.8273 47.692H51.7473C52.0193 47.692 52.2273 47.652 52.3713 47.572C52.5153 47.476 52.5873 47.284 52.5873 46.996C52.5873 46.628 52.4753 46.3 52.2513 46.012C52.0273 45.708 51.7233 45.476 51.3393 45.316C50.9553 45.14 50.5073 45.052 49.9953 45.052C49.4033 45.052 48.8673 45.172 48.3873 45.412C47.9073 45.636 47.5233 45.948 47.2353 46.348C46.9633 46.748 46.8273 47.196 46.8273 47.692ZM58.6848 54.412C58.2528 54.412 57.9328 54.34 57.7248 54.196C57.5328 54.068 57.4128 53.9 57.3648 53.692C57.3168 53.468 57.2928 53.22 57.2928 52.948V43.972C57.2928 43.716 57.3168 43.484 57.3648 43.276C57.4128 43.068 57.5408 42.908 57.7488 42.796C57.9568 42.668 58.2768 42.604 58.7088 42.604C59.0928 42.604 59.3808 42.652 59.5728 42.748C59.7648 42.844 59.8928 42.964 59.9568 43.108C60.0208 43.252 60.0528 43.396 60.0528 43.54C60.0688 43.684 60.0848 43.796 60.1008 43.876L60.0048 44.644C60.1008 44.388 60.2608 44.14 60.4848 43.9C60.7088 43.66 60.9808 43.444 61.3008 43.252C61.6208 43.044 61.9648 42.884 62.3328 42.772C62.7168 42.644 63.1088 42.58 63.5088 42.58C64.2608 42.58 64.9328 42.716 65.5248 42.988C66.1168 43.26 66.6208 43.644 67.0368 44.14C67.4688 44.636 67.7968 45.228 68.0208 45.916C68.2448 46.588 68.3568 47.348 68.3568 48.196V52.972C68.3568 53.244 68.3248 53.492 68.2608 53.716C68.2128 53.924 68.0928 54.092 67.9008 54.22C67.7088 54.348 67.3808 54.412 66.9168 54.412C66.4688 54.412 66.1408 54.34 65.9328 54.196C65.7248 54.068 65.5968 53.9 65.5488 53.692C65.5008 53.468 65.4768 53.22 65.4768 52.948V48.172C65.4768 47.596 65.3728 47.1 65.1648 46.684C64.9728 46.268 64.6848 45.948 64.3008 45.724C63.9328 45.5 63.4608 45.388 62.8848 45.388C62.3248 45.388 61.8368 45.508 61.4208 45.748C61.0048 45.972 60.6848 46.292 60.4608 46.708C60.2368 47.124 60.1248 47.612 60.1248 48.172V52.972C60.1248 53.244 60.1008 53.492 60.0528 53.716C60.0048 53.924 59.8768 54.092 59.6688 54.22C59.4768 54.348 59.1488 54.412 58.6848 54.412ZM72.9479 59.164C72.4359 58.94 72.1399 58.684 72.0599 58.396C71.9799 58.124 72.0519 57.756 72.2759 57.292L78.4679 43.42C78.6919 42.908 78.9319 42.604 79.1879 42.508C79.4439 42.396 79.8359 42.452 80.3639 42.676C80.8599 42.9 81.1479 43.148 81.2279 43.42C81.3239 43.692 81.2679 44.06 81.0599 44.524L74.8199 58.468C74.6119 58.98 74.3799 59.276 74.1239 59.356C73.8679 59.452 73.4759 59.388 72.9479 59.164ZM75.1799 53.284L69.6359 44.764C69.3479 44.332 69.2279 43.972 69.2759 43.684C69.3399 43.396 69.5959 43.116 70.0439 42.844C70.5399 42.54 70.9239 42.42 71.1959 42.484C71.4839 42.548 71.7719 42.804 72.0599 43.252L76.4519 50.092L75.1799 53.284ZM88.7151 54.58C87.6751 54.58 86.7631 54.412 85.9791 54.076C85.2111 53.74 84.5631 53.284 84.0351 52.708C83.5231 52.116 83.1311 51.46 82.8591 50.74C82.6031 50.004 82.4751 49.244 82.4751 48.46C82.4751 47.308 82.7391 46.284 83.2671 45.388C83.7951 44.492 84.5231 43.788 85.4511 43.276C86.3951 42.764 87.4751 42.508 88.6911 42.508C89.5551 42.508 90.3151 42.644 90.9711 42.916C91.6271 43.188 92.1711 43.548 92.6031 43.996C93.0511 44.428 93.3871 44.908 93.6111 45.436C93.8511 45.964 93.9711 46.476 93.9711 46.972C93.9711 47.82 93.7631 48.436 93.3471 48.82C92.9471 49.204 92.4431 49.396 91.8351 49.396H85.4991C85.5151 49.94 85.6831 50.412 86.0031 50.812C86.3391 51.212 86.7551 51.524 87.2511 51.748C87.7631 51.956 88.2831 52.06 88.8111 52.06C89.2111 52.06 89.5631 52.036 89.8671 51.988C90.1871 51.94 90.4591 51.884 90.6831 51.82C90.9071 51.74 91.0991 51.66 91.2591 51.58C91.4351 51.5 91.5951 51.428 91.7391 51.364C91.8831 51.3 92.0191 51.26 92.1471 51.244C92.3231 51.228 92.4991 51.268 92.6751 51.364C92.8511 51.46 92.9951 51.628 93.1071 51.868C93.2031 52.028 93.2671 52.18 93.2991 52.324C93.3471 52.452 93.3711 52.58 93.3711 52.708C93.3711 53.028 93.1791 53.332 92.7951 53.62C92.4111 53.892 91.8671 54.116 91.1631 54.292C90.4751 54.484 89.6591 54.58 88.7151 54.58ZM85.4991 47.692H90.4191C90.6911 47.692 90.8991 47.652 91.0431 47.572C91.1871 47.476 91.2591 47.284 91.2591 46.996C91.2591 46.628 91.1471 46.3 90.9231 46.012C90.6991 45.708 90.3951 45.476 90.0111 45.316C89.6271 45.14 89.1791 45.052 88.6671 45.052C88.0751 45.052 87.5391 45.172 87.0591 45.412C86.5791 45.636 86.1951 45.948 85.9071 46.348C85.6351 46.748 85.4991 47.196 85.4991 47.692ZM102.109 54.412C101.325 54.412 100.621 54.26 99.9966 53.956C99.3886 53.636 98.8686 53.204 98.4366 52.66C98.0206 52.116 97.7006 51.492 97.4766 50.788C97.2686 50.068 97.1646 49.3 97.1646 48.484C97.1806 47.668 97.3006 46.908 97.5246 46.204C97.7486 45.484 98.0686 44.86 98.4846 44.332C98.9166 43.788 99.4366 43.364 100.045 43.06C100.653 42.756 101.341 42.604 102.109 42.604C102.845 42.604 103.533 42.756 104.173 43.06C104.829 43.364 105.405 43.788 105.901 44.332C106.413 44.86 106.813 45.484 107.101 46.204C107.389 46.908 107.533 47.66 107.533 48.46C107.533 49.292 107.389 50.076 107.101 50.812C106.813 51.532 106.421 52.164 105.925 52.708C105.429 53.236 104.853 53.652 104.197 53.956C103.541 54.26 102.845 54.412 102.109 54.412ZM101.725 51.604C102.285 51.604 102.789 51.476 103.237 51.22C103.685 50.948 104.037 50.58 104.293 50.116C104.565 49.652 104.701 49.124 104.701 48.532C104.701 47.924 104.565 47.388 104.293 46.924C104.037 46.444 103.685 46.076 103.237 45.82C102.789 45.548 102.285 45.412 101.725 45.412C101.181 45.412 100.685 45.548 100.237 45.82C99.7886 46.092 99.4286 46.46 99.1566 46.924C98.9006 47.388 98.7726 47.924 98.7726 48.532C98.7726 49.124 98.9006 49.652 99.1566 50.116C99.4286 50.58 99.7886 50.948 100.237 51.22C100.685 51.476 101.181 51.604 101.725 51.604ZM97.2846 54.436C96.8526 54.436 96.5326 54.364 96.3246 54.22C96.1166 54.092 95.9886 53.924 95.9406 53.716C95.8926 53.492 95.8686 53.244 95.8686 52.972V38.668C95.8686 38.396 95.8926 38.156 95.9406 37.948C95.9886 37.724 96.1166 37.548 96.3246 37.42C96.5326 37.292 96.8526 37.228 97.2846 37.228C97.7326 37.228 98.0526 37.292 98.2446 37.42C98.4366 37.548 98.5566 37.724 98.6046 37.948C98.6526 38.172 98.6766 38.412 98.6766 38.668V53.452C98.6126 53.804 98.4766 54.052 98.2686 54.196C98.0766 54.356 97.7486 54.436 97.2846 54.436ZM119.304 54.388C118.84 54.388 118.496 54.3 118.272 54.124C118.048 53.948 117.936 53.708 117.936 53.404L118.104 52.612C117.976 52.82 117.76 53.068 117.456 53.356C117.152 53.628 116.752 53.876 116.256 54.1C115.76 54.308 115.16 54.412 114.456 54.412C113.704 54.412 112.992 54.26 112.32 53.956C111.664 53.636 111.08 53.204 110.568 52.66C110.072 52.1 109.672 51.468 109.368 50.764C109.08 50.044 108.936 49.276 108.936 48.46C108.936 47.676 109.08 46.94 109.368 46.252C109.672 45.548 110.08 44.924 110.592 44.38C111.104 43.836 111.688 43.412 112.344 43.108C113.016 42.788 113.72 42.628 114.456 42.628C115.112 42.628 115.664 42.716 116.112 42.892C116.576 43.068 116.968 43.292 117.288 43.564C117.608 43.82 117.872 44.092 118.08 44.38L117.936 43.684C117.936 43.332 118.048 43.068 118.272 42.892C118.496 42.7 118.848 42.604 119.328 42.604C119.776 42.604 120.096 42.676 120.288 42.82C120.48 42.948 120.6 43.132 120.648 43.372C120.696 43.596 120.72 43.852 120.72 44.14V52.924C120.72 53.196 120.696 53.444 120.648 53.668C120.6 53.892 120.472 54.068 120.264 54.196C120.072 54.324 119.752 54.388 119.304 54.388ZM114.888 51.604C115.432 51.604 115.92 51.468 116.352 51.196C116.784 50.924 117.128 50.556 117.384 50.092C117.656 49.612 117.792 49.084 117.792 48.508C117.792 47.884 117.656 47.34 117.384 46.876C117.112 46.412 116.752 46.052 116.304 45.796C115.872 45.524 115.384 45.388 114.84 45.388C114.248 45.388 113.72 45.532 113.256 45.82C112.792 46.092 112.424 46.468 112.152 46.948C111.896 47.412 111.768 47.94 111.768 48.532C111.768 49.108 111.904 49.628 112.176 50.092C112.448 50.556 112.816 50.924 113.28 51.196C113.76 51.468 114.296 51.604 114.888 51.604ZM129.296 54.412C128.512 54.412 127.808 54.26 127.184 53.956C126.576 53.636 126.056 53.204 125.624 52.66C125.208 52.116 124.888 51.492 124.664 50.788C124.456 50.068 124.352 49.3 124.352 48.484C124.368 47.668 124.488 46.908 124.712 46.204C124.936 45.484 125.256 44.86 125.672 44.332C126.104 43.788 126.624 43.364 127.232 43.06C127.84 42.756 128.528 42.604 129.296 42.604C130.032 42.604 130.72 42.756 131.36 43.06C132.016 43.364 132.592 43.788 133.088 44.332C133.6 44.86 134 45.484 134.288 46.204C134.576 46.908 134.72 47.66 134.72 48.46C134.72 49.292 134.576 50.076 134.288 50.812C134 51.532 133.608 52.164 133.112 52.708C132.616 53.236 132.04 53.652 131.384 53.956C130.728 54.26 130.032 54.412 129.296 54.412ZM128.912 51.604C129.472 51.604 129.976 51.476 130.424 51.22C130.872 50.948 131.224 50.58 131.48 50.116C131.752 49.652 131.888 49.124 131.888 48.532C131.888 47.924 131.752 47.388 131.48 46.924C131.224 46.444 130.872 46.076 130.424 45.82C129.976 45.548 129.472 45.412 128.912 45.412C128.368 45.412 127.872 45.548 127.424 45.82C126.976 46.092 126.616 46.46 126.344 46.924C126.088 47.388 125.96 47.924 125.96 48.532C125.96 49.124 126.088 49.652 126.344 50.116C126.616 50.58 126.976 50.948 127.424 51.22C127.872 51.476 128.368 51.604 128.912 51.604ZM124.472 54.436C124.04 54.436 123.72 54.364 123.512 54.22C123.304 54.092 123.176 53.924 123.128 53.716C123.08 53.492 123.056 53.244 123.056 52.972V38.668C123.056 38.396 123.08 38.156 123.128 37.948C123.176 37.724 123.304 37.548 123.512 37.42C123.72 37.292 124.04 37.228 124.472 37.228C124.92 37.228 125.24 37.292 125.432 37.42C125.624 37.548 125.744 37.724 125.792 37.948C125.84 38.172 125.864 38.412 125.864 38.668V53.452C125.8 53.804 125.664 54.052 125.456 54.196C125.264 54.356 124.936 54.436 124.472 54.436ZM148.911 54.268C148.127 54.268 147.423 54.124 146.799 53.836C146.191 53.532 145.671 53.116 145.239 52.588C144.823 52.044 144.503 51.42 144.279 50.716C144.071 50.012 143.967 49.252 143.967 48.436C143.983 47.62 144.103 46.86 144.327 46.156C144.551 45.436 144.871 44.812 145.287 44.284C145.719 43.756 146.239 43.34 146.847 43.036C147.455 42.732 148.143 42.58 148.911 42.58C149.647 42.58 150.335 42.732 150.975 43.036C151.631 43.34 152.207 43.764 152.703 44.308C153.215 44.852 153.615 45.484 153.903 46.204C154.191 46.908 154.335 47.668 154.335 48.484C154.335 49.316 154.191 50.084 153.903 50.788C153.615 51.492 153.223 52.108 152.727 52.636C152.231 53.148 151.655 53.548 150.999 53.836C150.343 54.124 149.647 54.268 148.911 54.268ZM144.111 59.26C143.679 59.26 143.359 59.196 143.151 59.068C142.943 58.94 142.815 58.772 142.767 58.564C142.719 58.356 142.695 58.116 142.695 57.844V44.044C142.695 43.772 142.719 43.532 142.767 43.324C142.815 43.116 142.935 42.948 143.127 42.82C143.335 42.676 143.655 42.604 144.087 42.604C144.503 42.604 144.831 42.668 145.071 42.796C145.311 42.924 145.471 43.14 145.551 43.444V57.82C145.567 58.092 145.543 58.332 145.479 58.54C145.431 58.764 145.303 58.94 145.095 59.068C144.887 59.196 144.559 59.26 144.111 59.26ZM148.527 51.58C149.087 51.58 149.591 51.452 150.039 51.196C150.487 50.924 150.839 50.556 151.095 50.092C151.367 49.612 151.503 49.076 151.503 48.484C151.503 47.876 151.367 47.34 151.095 46.876C150.839 46.412 150.487 46.052 150.039 45.796C149.591 45.524 149.087 45.388 148.527 45.388C147.983 45.388 147.487 45.524 147.039 45.796C146.591 46.068 146.231 46.436 145.959 46.9C145.703 47.348 145.575 47.876 145.575 48.484C145.575 49.076 145.703 49.612 145.959 50.092C146.231 50.556 146.591 50.924 147.039 51.196C147.487 51.452 147.983 51.58 148.527 51.58ZM161.883 54.58C161.115 54.58 160.363 54.436 159.627 54.148C158.907 53.844 158.251 53.42 157.659 52.876C157.083 52.332 156.619 51.692 156.267 50.956C155.931 50.22 155.763 49.412 155.763 48.532C155.763 47.684 155.923 46.892 156.243 46.156C156.563 45.42 157.003 44.772 157.563 44.212C158.123 43.652 158.763 43.22 159.483 42.916C160.219 42.596 161.003 42.436 161.835 42.436C162.955 42.436 163.971 42.708 164.883 43.252C165.795 43.78 166.523 44.5 167.067 45.412C167.611 46.324 167.883 47.356 167.883 48.508C167.883 49.42 167.715 50.252 167.379 51.004C167.043 51.74 166.587 52.38 166.011 52.924C165.435 53.452 164.787 53.86 164.067 54.148C163.363 54.436 162.635 54.58 161.883 54.58ZM161.835 51.748C162.363 51.748 162.867 51.62 163.347 51.364C163.843 51.092 164.243 50.708 164.547 50.212C164.867 49.716 165.027 49.132 165.027 48.46C165.027 47.836 164.883 47.284 164.595 46.804C164.323 46.324 163.947 45.948 163.467 45.676C162.987 45.404 162.435 45.268 161.811 45.268C161.219 45.268 160.683 45.412 160.203 45.7C159.723 45.972 159.339 46.356 159.051 46.852C158.779 47.332 158.643 47.876 158.643 48.484C158.643 49.156 158.795 49.74 159.099 50.236C159.403 50.716 159.795 51.092 160.275 51.364C160.771 51.62 161.291 51.748 161.835 51.748ZM173.897 54.436C173.305 54.436 172.777 54.396 172.313 54.316C171.865 54.236 171.473 54.1 171.137 53.908C170.817 53.716 170.553 53.46 170.345 53.14C170.137 52.804 169.977 52.396 169.865 51.916C169.769 51.436 169.721 50.86 169.721 50.188V38.62C169.721 38.348 169.745 38.108 169.793 37.9C169.857 37.676 169.985 37.5 170.177 37.372C170.385 37.228 170.713 37.156 171.161 37.156C171.609 37.156 171.929 37.22 172.121 37.348C172.329 37.476 172.457 37.652 172.505 37.876C172.569 38.084 172.601 38.324 172.601 38.596V50.068C172.601 50.372 172.617 50.628 172.649 50.836C172.697 51.028 172.769 51.188 172.865 51.316C172.977 51.428 173.113 51.508 173.273 51.556C173.449 51.604 173.657 51.628 173.897 51.628C174.105 51.628 174.289 51.652 174.449 51.7C174.625 51.748 174.761 51.868 174.857 52.06C174.969 52.252 175.025 52.564 175.025 52.996C175.025 53.444 174.969 53.772 174.857 53.98C174.761 54.188 174.625 54.316 174.449 54.364C174.273 54.412 174.089 54.436 173.897 54.436ZM186.593 54.388C186.129 54.388 185.785 54.3 185.561 54.124C185.337 53.948 185.225 53.708 185.225 53.404L185.393 52.612C185.265 52.82 185.049 53.068 184.745 53.356C184.441 53.628 184.041 53.876 183.545 54.1C183.049 54.308 182.449 54.412 181.745 54.412C180.993 54.412 180.281 54.26 179.609 53.956C178.953 53.636 178.369 53.204 177.857 52.66C177.361 52.1 176.961 51.468 176.657 50.764C176.369 50.044 176.225 49.276 176.225 48.46C176.225 47.676 176.369 46.94 176.657 46.252C176.961 45.548 177.369 44.924 177.881 44.38C178.393 43.836 178.977 43.412 179.633 43.108C180.305 42.788 181.009 42.628 181.745 42.628C182.401 42.628 182.953 42.716 183.401 42.892C183.865 43.068 184.257 43.292 184.577 43.564C184.897 43.82 185.161 44.092 185.369 44.38L185.225 43.684C185.225 43.332 185.337 43.068 185.561 42.892C185.785 42.7 186.137 42.604 186.617 42.604C187.065 42.604 187.385 42.676 187.577 42.82C187.769 42.948 187.889 43.132 187.937 43.372C187.985 43.596 188.009 43.852 188.009 44.14V52.924C188.009 53.196 187.985 53.444 187.937 53.668C187.889 53.892 187.761 54.068 187.553 54.196C187.361 54.324 187.041 54.388 186.593 54.388ZM182.177 51.604C182.721 51.604 183.209 51.468 183.641 51.196C184.073 50.924 184.417 50.556 184.673 50.092C184.945 49.612 185.081 49.084 185.081 48.508C185.081 47.884 184.945 47.34 184.673 46.876C184.401 46.412 184.041 46.052 183.593 45.796C183.161 45.524 182.673 45.388 182.129 45.388C181.537 45.388 181.009 45.532 180.545 45.82C180.081 46.092 179.713 46.468 179.441 46.948C179.185 47.412 179.057 47.94 179.057 48.532C179.057 49.108 179.193 49.628 179.465 50.092C179.737 50.556 180.105 50.924 180.569 51.196C181.049 51.468 181.585 51.604 182.177 51.604ZM205.976 54.388C205.512 54.388 205.168 54.3 204.944 54.124C204.72 53.948 204.608 53.708 204.608 53.404L204.776 52.612C204.648 52.82 204.432 53.068 204.128 53.356C203.824 53.628 203.424 53.876 202.928 54.1C202.432 54.308 201.832 54.412 201.128 54.412C200.376 54.412 199.664 54.26 198.992 53.956C198.336 53.636 197.752 53.204 197.24 52.66C196.744 52.1 196.344 51.468 196.04 50.764C195.752 50.044 195.608 49.276 195.608 48.46C195.608 47.676 195.752 46.94 196.04 46.252C196.344 45.548 196.752 44.924 197.264 44.38C197.776 43.836 198.36 43.412 199.016 43.108C199.688 42.788 200.392 42.628 201.128 42.628C201.784 42.628 202.336 42.716 202.784 42.892C203.248 43.068 203.64 43.292 203.96 43.564C204.28 43.82 204.544 44.092 204.752 44.38L204.608 43.684C204.608 43.332 204.72 43.068 204.944 42.892C205.168 42.7 205.52 42.604 206 42.604C206.448 42.604 206.768 42.676 206.96 42.82C207.152 42.948 207.272 43.132 207.32 43.372C207.368 43.596 207.392 43.852 207.392 44.14V52.924C207.392 53.196 207.368 53.444 207.32 53.668C207.272 53.892 207.144 54.068 206.936 54.196C206.744 54.324 206.424 54.388 205.976 54.388ZM201.56 51.604C202.104 51.604 202.592 51.468 203.024 51.196C203.456 50.924 203.8 50.556 204.056 50.092C204.328 49.612 204.464 49.084 204.464 48.508C204.464 47.884 204.328 47.34 204.056 46.876C203.784 46.412 203.424 46.052 202.976 45.796C202.544 45.524 202.056 45.388 201.512 45.388C200.92 45.388 200.392 45.532 199.928 45.82C199.464 46.092 199.096 46.468 198.824 46.948C198.568 47.412 198.44 47.94 198.44 48.532C198.44 49.108 198.576 49.628 198.848 50.092C199.12 50.556 199.488 50.924 199.952 51.196C200.432 51.468 200.968 51.604 201.56 51.604ZM213.904 54.58C213.488 54.58 213.048 54.532 212.584 54.436C212.12 54.356 211.672 54.236 211.24 54.076C210.808 53.9 210.432 53.7 210.112 53.476C209.808 53.236 209.616 52.972 209.536 52.684C209.472 52.524 209.448 52.372 209.464 52.228C209.48 52.068 209.528 51.908 209.608 51.748C209.688 51.572 209.808 51.396 209.968 51.22C210.112 51.044 210.256 50.948 210.4 50.932C210.56 50.9 210.76 50.948 211 51.076C211.208 51.156 211.432 51.26 211.672 51.388C211.928 51.516 212.184 51.644 212.44 51.772C212.712 51.9 212.984 52.004 213.256 52.084C213.544 52.164 213.824 52.204 214.096 52.204C214.688 52.204 215.16 52.108 215.512 51.916C215.864 51.708 216.04 51.42 216.04 51.052C216.04 50.844 215.984 50.66 215.872 50.5C215.76 50.34 215.608 50.212 215.416 50.116C215.24 50.004 215.024 49.908 214.768 49.828C214.528 49.732 214.264 49.652 213.976 49.588C213.704 49.508 213.416 49.42 213.112 49.324C212.712 49.212 212.312 49.076 211.912 48.916C211.512 48.756 211.152 48.548 210.832 48.292C210.528 48.036 210.28 47.716 210.088 47.332C209.896 46.948 209.8 46.468 209.8 45.892C209.8 45.172 209.968 44.564 210.304 44.068C210.656 43.556 211.16 43.164 211.816 42.892C212.472 42.62 213.264 42.484 214.192 42.484C214.512 42.484 214.816 42.508 215.104 42.556C215.408 42.604 215.696 42.676 215.968 42.772C216.256 42.852 216.528 42.956 216.784 43.084C217.056 43.212 217.312 43.356 217.552 43.516C217.952 43.74 218.16 44.004 218.176 44.308C218.192 44.596 218.08 44.908 217.84 45.244C217.664 45.468 217.488 45.628 217.312 45.724C217.136 45.804 216.952 45.804 216.76 45.724C216.504 45.596 216.224 45.46 215.92 45.316C215.632 45.156 215.328 45.02 215.008 44.908C214.704 44.796 214.384 44.74 214.048 44.74C213.728 44.74 213.44 44.788 213.184 44.884C212.928 44.98 212.736 45.116 212.608 45.292C212.48 45.468 212.416 45.676 212.416 45.916C212.416 46.14 212.48 46.324 212.608 46.468C212.736 46.612 212.904 46.732 213.112 46.828C213.32 46.924 213.568 47.012 213.856 47.092C214.144 47.156 214.448 47.22 214.768 47.284C215.216 47.38 215.672 47.5 216.136 47.644C216.6 47.788 217.024 47.988 217.408 48.244C217.808 48.5 218.128 48.844 218.368 49.276C218.608 49.692 218.728 50.236 218.728 50.908C218.728 52.076 218.296 52.98 217.432 53.62C216.584 54.26 215.408 54.58 213.904 54.58ZM225.712 54.412C224.976 54.412 224.296 54.284 223.672 54.028C223.064 53.756 222.528 53.372 222.064 52.876C221.6 52.38 221.24 51.788 220.984 51.1C220.728 50.412 220.6 49.652 220.6 48.82V44.044C220.6 43.772 220.624 43.532 220.672 43.324C220.72 43.1 220.848 42.924 221.056 42.796C221.264 42.668 221.584 42.604 222.016 42.604C222.48 42.604 222.808 42.668 223 42.796C223.208 42.924 223.336 43.1 223.384 43.324C223.432 43.548 223.456 43.796 223.456 44.068V48.82C223.456 49.396 223.552 49.892 223.744 50.308C223.952 50.724 224.248 51.052 224.632 51.292C225.016 51.516 225.488 51.628 226.048 51.628C226.624 51.628 227.112 51.516 227.512 51.292C227.928 51.052 228.248 50.724 228.472 50.308C228.696 49.876 228.808 49.38 228.808 48.82V44.02C228.808 43.748 228.832 43.508 228.88 43.3C228.928 43.076 229.056 42.908 229.264 42.796C229.472 42.668 229.8 42.604 230.248 42.604C230.696 42.604 231.016 42.668 231.208 42.796C231.4 42.924 231.52 43.1 231.568 43.324C231.632 43.548 231.664 43.788 231.664 44.044V53.044C231.664 53.284 231.632 53.508 231.568 53.716C231.52 53.924 231.392 54.092 231.184 54.22C230.992 54.348 230.672 54.412 230.224 54.412C229.904 54.412 229.648 54.372 229.456 54.292C229.28 54.228 229.144 54.14 229.048 54.028C228.968 53.9 228.912 53.772 228.88 53.644C228.864 53.516 228.856 53.388 228.856 53.26L229.048 52.612C228.952 52.756 228.808 52.932 228.616 53.14C228.424 53.332 228.184 53.532 227.896 53.74C227.624 53.932 227.304 54.092 226.936 54.22C226.568 54.348 226.16 54.412 225.712 54.412ZM235.33 54.436C234.882 54.436 234.554 54.364 234.346 54.22C234.154 54.092 234.034 53.916 233.986 53.692C233.938 53.468 233.914 53.228 233.914 52.972V38.644C233.914 38.372 233.938 38.132 233.986 37.924C234.05 37.7 234.178 37.524 234.37 37.396C234.578 37.268 234.906 37.204 235.354 37.204C235.802 37.204 236.122 37.276 236.314 37.42C236.522 37.548 236.65 37.724 236.698 37.948C236.762 38.156 236.794 38.396 236.794 38.668V44.092C237.114 43.724 237.522 43.388 238.018 43.084C238.53 42.764 239.146 42.604 239.866 42.604C240.842 42.604 241.714 42.844 242.482 43.324C243.25 43.788 243.858 44.436 244.306 45.268C244.754 46.1 244.978 47.076 244.978 48.196V52.996C244.978 53.252 244.954 53.492 244.906 53.716C244.858 53.924 244.73 54.092 244.522 54.22C244.33 54.348 244.01 54.412 243.562 54.412C243.114 54.412 242.786 54.348 242.578 54.22C242.37 54.092 242.242 53.924 242.194 53.716C242.146 53.492 242.122 53.236 242.122 52.948V48.172C242.122 47.612 242.026 47.124 241.834 46.708C241.642 46.292 241.354 45.972 240.97 45.748C240.602 45.508 240.138 45.388 239.578 45.388C238.826 45.388 238.194 45.612 237.682 46.06C237.17 46.492 236.874 47.052 236.794 47.74V52.996C236.794 53.252 236.762 53.492 236.698 53.716C236.65 53.94 236.522 54.116 236.314 54.244C236.122 54.372 235.794 54.436 235.33 54.436ZM258.468 54.58C257.7 54.58 256.948 54.436 256.212 54.148C255.492 53.844 254.836 53.42 254.244 52.876C253.668 52.332 253.204 51.692 252.852 50.956C252.516 50.22 252.348 49.412 252.348 48.532C252.348 47.684 252.508 46.892 252.828 46.156C253.148 45.42 253.588 44.772 254.148 44.212C254.708 43.652 255.348 43.22 256.068 42.916C256.804 42.596 257.588 42.436 258.42 42.436C259.54 42.436 260.556 42.708 261.468 43.252C262.38 43.78 263.108 44.5 263.652 45.412C264.196 46.324 264.468 47.356 264.468 48.508C264.468 49.42 264.3 50.252 263.964 51.004C263.628 51.74 263.172 52.38 262.596 52.924C262.02 53.452 261.372 53.86 260.652 54.148C259.948 54.436 259.22 54.58 258.468 54.58ZM258.42 51.748C258.948 51.748 259.452 51.62 259.932 51.364C260.428 51.092 260.828 50.708 261.132 50.212C261.452 49.716 261.612 49.132 261.612 48.46C261.612 47.836 261.468 47.284 261.18 46.804C260.908 46.324 260.532 45.948 260.052 45.676C259.572 45.404 259.02 45.268 258.396 45.268C257.804 45.268 257.268 45.412 256.788 45.7C256.308 45.972 255.924 46.356 255.636 46.852C255.364 47.332 255.228 47.876 255.228 48.484C255.228 49.156 255.38 49.74 255.684 50.236C255.988 50.716 256.38 51.092 256.86 51.364C257.356 51.62 257.876 51.748 258.42 51.748ZM267.771 54.436C267.339 54.436 267.019 54.364 266.811 54.22C266.619 54.092 266.499 53.916 266.451 53.692C266.403 53.468 266.379 53.22 266.379 52.948V44.044C266.379 43.756 266.403 43.508 266.451 43.3C266.499 43.076 266.619 42.908 266.811 42.796C267.019 42.668 267.347 42.604 267.795 42.604C268.227 42.604 268.539 42.66 268.731 42.772C268.939 42.884 269.067 43.028 269.115 43.204C269.179 43.364 269.211 43.524 269.211 43.684L269.019 44.116C269.099 43.988 269.211 43.836 269.355 43.66C269.499 43.468 269.691 43.284 269.931 43.108C270.171 42.916 270.459 42.764 270.795 42.652C271.131 42.524 271.531 42.46 271.995 42.46C272.187 42.46 272.387 42.484 272.595 42.532C272.819 42.564 273.035 42.62 273.243 42.7C273.467 42.764 273.667 42.852 273.843 42.964C274.019 43.076 274.155 43.212 274.251 43.372C274.347 43.516 274.395 43.684 274.395 43.876C274.395 44.388 274.267 44.82 274.011 45.172C273.755 45.524 273.451 45.7 273.099 45.7C272.859 45.7 272.683 45.676 272.571 45.628C272.459 45.58 272.363 45.524 272.283 45.46C272.219 45.396 272.115 45.34 271.971 45.292C271.843 45.244 271.635 45.22 271.347 45.22C271.107 45.22 270.859 45.26 270.603 45.34C270.363 45.42 270.139 45.54 269.931 45.7C269.723 45.86 269.555 46.068 269.427 46.324C269.299 46.564 269.235 46.844 269.235 47.164V52.996C269.235 53.268 269.211 53.516 269.163 53.74C269.115 53.948 268.987 54.116 268.779 54.244C268.571 54.372 268.235 54.436 267.771 54.436ZM285.195 54.388C284.731 54.388 284.387 54.3 284.163 54.124C283.939 53.948 283.827 53.708 283.827 53.404L283.995 52.612C283.867 52.82 283.651 53.068 283.347 53.356C283.043 53.628 282.643 53.876 282.147 54.1C281.651 54.308 281.051 54.412 280.347 54.412C279.595 54.412 278.883 54.26 278.211 53.956C277.555 53.636 276.971 53.204 276.459 52.66C275.963 52.1 275.563 51.468 275.259 50.764C274.971 50.044 274.827 49.276 274.827 48.46C274.827 47.676 274.971 46.94 275.259 46.252C275.563 45.548 275.971 44.924 276.483 44.38C276.995 43.836 277.579 43.412 278.235 43.108C278.907 42.788 279.611 42.628 280.347 42.628C281.003 42.628 281.555 42.716 282.003 42.892C282.467 43.068 282.859 43.292 283.179 43.564C283.499 43.82 283.763 44.092 283.971 44.38L283.827 43.684C283.827 43.332 283.939 43.068 284.163 42.892C284.387 42.7 284.739 42.604 285.219 42.604C285.667 42.604 285.987 42.676 286.179 42.82C286.371 42.948 286.491 43.132 286.539 43.372C286.587 43.596 286.611 43.852 286.611 44.14V52.924C286.611 53.196 286.587 53.444 286.539 53.668C286.491 53.892 286.363 54.068 286.155 54.196C285.963 54.324 285.643 54.388 285.195 54.388ZM280.779 51.604C281.323 51.604 281.811 51.468 282.243 51.196C282.675 50.924 283.019 50.556 283.275 50.092C283.547 49.612 283.683 49.084 283.683 48.508C283.683 47.884 283.547 47.34 283.275 46.876C283.003 46.412 282.643 46.052 282.195 45.796C281.763 45.524 281.275 45.388 280.731 45.388C280.139 45.388 279.611 45.532 279.147 45.82C278.683 46.092 278.315 46.468 278.043 46.948C277.787 47.412 277.659 47.94 277.659 48.532C277.659 49.108 277.795 49.628 278.067 50.092C278.339 50.556 278.707 50.924 279.171 51.196C279.651 51.468 280.187 51.604 280.779 51.604ZM290.435 54.412C290.003 54.412 289.683 54.34 289.475 54.196C289.283 54.068 289.163 53.9 289.115 53.692C289.067 53.468 289.043 53.22 289.043 52.948V43.972C289.043 43.716 289.067 43.484 289.115 43.276C289.163 43.068 289.291 42.908 289.499 42.796C289.707 42.668 290.027 42.604 290.459 42.604C290.843 42.604 291.131 42.652 291.323 42.748C291.515 42.844 291.643 42.964 291.707 43.108C291.771 43.252 291.803 43.396 291.803 43.54C291.819 43.684 291.835 43.796 291.851 43.876L291.755 44.644C291.851 44.388 292.011 44.14 292.235 43.9C292.459 43.66 292.731 43.444 293.051 43.252C293.371 43.044 293.715 42.884 294.083 42.772C294.467 42.644 294.859 42.58 295.259 42.58C296.011 42.58 296.683 42.716 297.275 42.988C297.867 43.26 298.371 43.644 298.787 44.14C299.219 44.636 299.547 45.228 299.771 45.916C299.995 46.588 300.107 47.348 300.107 48.196V52.972C300.107 53.244 300.075 53.492 300.011 53.716C299.963 53.924 299.843 54.092 299.651 54.22C299.459 54.348 299.131 54.412 298.667 54.412C298.219 54.412 297.891 54.34 297.683 54.196C297.475 54.068 297.347 53.9 297.299 53.692C297.251 53.468 297.227 53.22 297.227 52.948V48.172C297.227 47.596 297.123 47.1 296.915 46.684C296.723 46.268 296.435 45.948 296.051 45.724C295.683 45.5 295.211 45.388 294.635 45.388C294.075 45.388 293.587 45.508 293.171 45.748C292.755 45.972 292.435 46.292 292.211 46.708C291.987 47.124 291.875 47.612 291.875 48.172V52.972C291.875 53.244 291.851 53.492 291.803 53.716C291.755 53.924 291.627 54.092 291.419 54.22C291.227 54.348 290.899 54.412 290.435 54.412ZM307.608 59.236C307.032 59.236 306.48 59.164 305.952 59.02C305.424 58.892 304.944 58.716 304.512 58.492C304.096 58.268 303.76 58.028 303.504 57.772C303.264 57.516 303.144 57.276 303.144 57.052C303.144 56.828 303.176 56.636 303.24 56.476C303.32 56.316 303.432 56.156 303.576 55.996C303.768 55.804 303.92 55.66 304.032 55.564C304.16 55.468 304.328 55.42 304.536 55.42C304.712 55.42 304.88 55.484 305.04 55.612C305.216 55.74 305.416 55.884 305.64 56.044C305.864 56.204 306.136 56.348 306.456 56.476C306.776 56.604 307.184 56.668 307.68 56.668C308.096 56.668 308.48 56.596 308.832 56.452C309.184 56.308 309.48 56.092 309.72 55.804C309.976 55.532 310.176 55.204 310.32 54.82C310.464 54.436 310.536 54.004 310.536 53.524L310.512 43.588C310.544 43.22 310.672 42.964 310.896 42.82C311.12 42.66 311.464 42.58 311.928 42.58C312.36 42.58 312.672 42.644 312.864 42.772C313.056 42.884 313.176 43.052 313.224 43.276C313.272 43.484 313.296 43.716 313.296 43.972V53.692C313.296 54.572 313.144 55.356 312.84 56.044C312.536 56.732 312.12 57.308 311.592 57.772C311.064 58.252 310.456 58.612 309.768 58.852C309.096 59.108 308.376 59.236 307.608 59.236ZM307.344 54.124C306.592 54.124 305.888 53.98 305.232 53.692C304.592 53.404 304.024 52.996 303.528 52.468C303.048 51.94 302.664 51.332 302.376 50.644C302.104 49.94 301.968 49.18 301.968 48.364C301.968 47.564 302.104 46.82 302.376 46.132C302.664 45.444 303.048 44.836 303.528 44.308C304.024 43.78 304.592 43.372 305.232 43.084C305.888 42.78 306.584 42.628 307.32 42.628C308.04 42.628 308.664 42.772 309.192 43.06C309.736 43.332 310.184 43.724 310.536 44.236C310.888 44.748 311.152 45.356 311.328 46.06C311.52 46.764 311.616 47.54 311.616 48.388C311.616 49.556 311.456 50.572 311.136 51.436C310.816 52.3 310.344 52.964 309.72 53.428C309.096 53.892 308.304 54.124 307.344 54.124ZM307.608 51.412C308.152 51.412 308.632 51.284 309.048 51.028C309.48 50.756 309.816 50.388 310.056 49.924C310.312 49.46 310.44 48.94 310.44 48.364C310.44 47.772 310.312 47.252 310.056 46.804C309.816 46.34 309.48 45.98 309.048 45.724C308.616 45.468 308.128 45.34 307.584 45.34C307.04 45.34 306.552 45.476 306.12 45.748C305.704 46.004 305.376 46.356 305.136 46.804C304.896 47.252 304.776 47.772 304.776 48.364C304.776 48.956 304.896 49.484 305.136 49.948C305.392 50.396 305.728 50.756 306.144 51.028C306.576 51.284 307.064 51.412 307.608 51.412ZM327.335 54.436C326.551 54.436 325.879 54.356 325.319 54.196C324.759 54.036 324.303 53.788 323.951 53.452C323.599 53.116 323.335 52.684 323.159 52.156C322.999 51.612 322.919 50.972 322.919 50.236V40.06C322.919 39.772 322.943 39.524 322.991 39.316C323.055 39.108 323.183 38.948 323.375 38.836C323.583 38.708 323.903 38.644 324.335 38.644C324.783 38.644 325.103 38.708 325.295 38.836C325.503 38.964 325.631 39.14 325.679 39.364C325.743 39.572 325.775 39.804 325.775 40.06V50.14C325.775 50.476 325.799 50.748 325.847 50.956C325.911 51.164 325.999 51.324 326.111 51.436C326.239 51.532 326.399 51.604 326.591 51.652C326.799 51.684 327.047 51.7 327.335 51.7C327.639 51.7 327.895 51.724 328.103 51.772C328.327 51.82 328.495 51.94 328.607 52.132C328.719 52.308 328.775 52.604 328.775 53.02C328.775 53.468 328.703 53.796 328.559 54.004C328.431 54.196 328.255 54.316 328.031 54.364C327.823 54.412 327.591 54.436 327.335 54.436ZM321.935 42.844L324.407 42.868L327.719 42.772C327.991 42.772 328.231 42.804 328.439 42.868C328.663 42.916 328.839 43.044 328.967 43.252C329.095 43.444 329.159 43.764 329.159 44.212C329.159 44.628 329.095 44.94 328.967 45.148C328.839 45.356 328.671 45.492 328.463 45.556C328.255 45.604 328.015 45.628 327.743 45.628L324.527 45.58L321.863 45.604C321.463 45.588 321.183 45.476 321.023 45.268C320.879 45.044 320.807 44.684 320.807 44.188C320.807 43.724 320.895 43.388 321.071 43.18C321.263 42.956 321.551 42.844 321.935 42.844ZM335.844 54.412C335.108 54.412 334.428 54.284 333.804 54.028C333.196 53.756 332.66 53.372 332.196 52.876C331.732 52.38 331.372 51.788 331.116 51.1C330.86 50.412 330.732 49.652 330.732 48.82V44.044C330.732 43.772 330.756 43.532 330.804 43.324C330.852 43.1 330.98 42.924 331.188 42.796C331.396 42.668 331.716 42.604 332.148 42.604C332.612 42.604 332.94 42.668 333.132 42.796C333.34 42.924 333.468 43.1 333.516 43.324C333.564 43.548 333.588 43.796 333.588 44.068V48.82C333.588 49.396 333.684 49.892 333.876 50.308C334.084 50.724 334.38 51.052 334.764 51.292C335.148 51.516 335.62 51.628 336.18 51.628C336.756 51.628 337.244 51.516 337.644 51.292C338.06 51.052 338.38 50.724 338.604 50.308C338.828 49.876 338.94 49.38 338.94 48.82V44.02C338.94 43.748 338.964 43.508 339.012 43.3C339.06 43.076 339.188 42.908 339.396 42.796C339.604 42.668 339.932 42.604 340.38 42.604C340.828 42.604 341.148 42.668 341.34 42.796C341.532 42.924 341.652 43.1 341.7 43.324C341.764 43.548 341.796 43.788 341.796 44.044V53.044C341.796 53.284 341.764 53.508 341.7 53.716C341.652 53.924 341.524 54.092 341.316 54.22C341.124 54.348 340.804 54.412 340.356 54.412C340.036 54.412 339.78 54.372 339.588 54.292C339.412 54.228 339.276 54.14 339.18 54.028C339.1 53.9 339.044 53.772 339.012 53.644C338.996 53.516 338.988 53.388 338.988 53.26L339.18 52.612C339.084 52.756 338.94 52.932 338.748 53.14C338.556 53.332 338.316 53.532 338.028 53.74C337.756 53.932 337.436 54.092 337.068 54.22C336.7 54.348 336.292 54.412 335.844 54.412ZM354.007 54.388C353.543 54.388 353.199 54.3 352.975 54.124C352.751 53.948 352.639 53.708 352.639 53.404L352.807 52.612C352.679 52.82 352.463 53.068 352.159 53.356C351.855 53.628 351.455 53.876 350.959 54.1C350.463 54.308 349.863 54.412 349.159 54.412C348.407 54.412 347.695 54.26 347.023 53.956C346.367 53.636 345.783 53.204 345.271 52.66C344.775 52.1 344.375 51.468 344.071 50.764C343.783 50.044 343.639 49.276 343.639 48.46C343.639 47.676 343.783 46.94 344.071 46.252C344.375 45.548 344.783 44.924 345.295 44.38C345.807 43.836 346.391 43.412 347.047 43.108C347.719 42.788 348.423 42.628 349.159 42.628C349.815 42.628 350.367 42.716 350.815 42.892C351.279 43.068 351.671 43.292 351.991 43.564C352.311 43.82 352.575 44.092 352.783 44.38L352.639 43.684C352.639 43.332 352.751 43.068 352.975 42.892C353.199 42.7 353.551 42.604 354.031 42.604C354.479 42.604 354.799 42.676 354.991 42.82C355.183 42.948 355.303 43.132 355.351 43.372C355.399 43.596 355.423 43.852 355.423 44.14V52.924C355.423 53.196 355.399 53.444 355.351 53.668C355.303 53.892 355.175 54.068 354.967 54.196C354.775 54.324 354.455 54.388 354.007 54.388ZM349.591 51.604C350.135 51.604 350.623 51.468 351.055 51.196C351.487 50.924 351.831 50.556 352.087 50.092C352.359 49.612 352.495 49.084 352.495 48.508C352.495 47.884 352.359 47.34 352.087 46.876C351.815 46.412 351.455 46.052 351.007 45.796C350.575 45.524 350.087 45.388 349.543 45.388C348.951 45.388 348.423 45.532 347.959 45.82C347.495 46.092 347.127 46.468 346.855 46.948C346.599 47.412 346.471 47.94 346.471 48.532C346.471 49.108 346.607 49.628 346.879 50.092C347.151 50.556 347.519 50.924 347.983 51.196C348.463 51.468 348.999 51.604 349.591 51.604ZM357.975 56.908C357.975 56.908 357.943 56.892 357.879 56.86C357.815 56.844 357.751 56.78 357.687 56.668C357.623 56.572 357.591 56.412 357.591 56.188C357.591 55.884 357.639 55.684 357.735 55.588C357.831 55.508 357.895 55.46 357.927 55.444C357.943 55.428 358.055 55.332 358.263 55.156C358.471 54.996 358.591 54.716 358.623 54.316C358.463 54.284 358.319 54.244 358.191 54.196C358.079 54.132 357.983 54.06 357.903 53.98C357.743 53.82 357.647 53.636 357.615 53.428C357.583 53.204 357.567 52.98 357.567 52.756C357.567 52.388 357.607 52.084 357.687 51.844C357.767 51.604 357.919 51.428 358.143 51.316C358.383 51.188 358.735 51.124 359.199 51.124C359.807 51.124 360.239 51.252 360.495 51.508C360.639 51.652 360.719 51.836 360.735 52.06C360.767 52.284 360.783 52.508 360.783 52.732C360.783 52.892 360.783 53.028 360.783 53.14C360.783 53.236 360.775 53.324 360.759 53.404C360.695 54.044 360.527 54.628 360.255 55.156C359.999 55.684 359.671 56.108 359.271 56.428C358.887 56.748 358.455 56.908 357.975 56.908ZM359.151 46.492C358.543 46.492 358.119 46.372 357.879 46.132C357.655 45.876 357.543 45.468 357.543 44.908C357.543 44.492 357.583 44.164 357.663 43.924C357.759 43.684 357.927 43.516 358.167 43.42C358.423 43.308 358.759 43.252 359.175 43.252C359.799 43.252 360.223 43.372 360.447 43.612C360.671 43.852 360.783 44.276 360.783 44.884C360.783 45.172 360.751 45.444 360.687 45.7C360.623 45.94 360.479 46.132 360.255 46.276C360.031 46.42 359.663 46.492 359.151 46.492ZM119.928 83.412C119.512 83.412 119.2 83.34 118.992 83.196C118.784 83.068 118.648 82.892 118.584 82.668C118.52 82.444 118.488 82.204 118.488 81.948V68.076C118.488 67.82 118.512 67.588 118.56 67.38C118.624 67.156 118.76 66.98 118.968 66.852C119.176 66.708 119.504 66.636 119.952 66.636L124.464 66.66C125.632 66.66 126.704 66.86 127.68 67.26C128.672 67.66 129.528 68.228 130.248 68.964C130.968 69.7 131.52 70.58 131.904 71.604C132.304 72.612 132.504 73.724 132.504 74.94C132.504 76.188 132.304 77.332 131.904 78.372C131.504 79.412 130.944 80.308 130.224 81.06C129.504 81.812 128.648 82.396 127.656 82.812C126.68 83.212 125.592 83.412 124.392 83.412H119.928ZM121.392 80.508H124.464C125.488 80.508 126.384 80.284 127.152 79.836C127.92 79.372 128.512 78.732 128.928 77.916C129.36 77.1 129.576 76.148 129.576 75.06C129.576 73.956 129.36 72.996 128.928 72.18C128.512 71.348 127.912 70.708 127.128 70.26C126.36 69.796 125.464 69.564 124.44 69.564H121.392V80.508ZM144.617 83.388C144.153 83.388 143.809 83.3 143.585 83.124C143.361 82.948 143.249 82.708 143.249 82.404L143.417 81.612C143.289 81.82 143.073 82.068 142.769 82.356C142.465 82.628 142.065 82.876 141.569 83.1C141.073 83.308 140.473 83.412 139.769 83.412C139.017 83.412 138.305 83.26 137.633 82.956C136.977 82.636 136.393 82.204 135.881 81.66C135.385 81.1 134.985 80.468 134.681 79.764C134.393 79.044 134.249 78.276 134.249 77.46C134.249 76.676 134.393 75.94 134.681 75.252C134.985 74.548 135.393 73.924 135.905 73.38C136.417 72.836 137.001 72.412 137.657 72.108C138.329 71.788 139.033 71.628 139.769 71.628C140.425 71.628 140.977 71.716 141.425 71.892C141.889 72.068 142.281 72.292 142.601 72.564C142.921 72.82 143.185 73.092 143.393 73.38L143.249 72.684C143.249 72.332 143.361 72.068 143.585 71.892C143.809 71.7 144.161 71.604 144.641 71.604C145.089 71.604 145.409 71.676 145.601 71.82C145.793 71.948 145.913 72.132 145.961 72.372C146.009 72.596 146.033 72.852 146.033 73.14V81.924C146.033 82.196 146.009 82.444 145.961 82.668C145.913 82.892 145.785 83.068 145.577 83.196C145.385 83.324 145.065 83.388 144.617 83.388ZM140.201 80.604C140.745 80.604 141.233 80.468 141.665 80.196C142.097 79.924 142.441 79.556 142.697 79.092C142.969 78.612 143.105 78.084 143.105 77.508C143.105 76.884 142.969 76.34 142.697 75.876C142.425 75.412 142.065 75.052 141.617 74.796C141.185 74.524 140.697 74.388 140.153 74.388C139.561 74.388 139.033 74.532 138.569 74.82C138.105 75.092 137.737 75.468 137.465 75.948C137.209 76.412 137.081 76.94 137.081 77.532C137.081 78.108 137.217 78.628 137.489 79.092C137.761 79.556 138.129 79.924 138.593 80.196C139.073 80.468 139.609 80.604 140.201 80.604ZM149.833 83.412C149.401 83.412 149.081 83.348 148.873 83.22C148.681 83.092 148.561 82.916 148.513 82.692C148.465 82.468 148.441 82.228 148.441 81.972V72.996C148.441 72.74 148.465 72.508 148.513 72.3C148.561 72.092 148.689 71.924 148.897 71.796C149.105 71.668 149.433 71.604 149.881 71.604C150.345 71.604 150.681 71.7 150.889 71.892C151.113 72.084 151.225 72.388 151.225 72.804L151.009 73.476C151.089 73.3 151.225 73.108 151.417 72.9C151.609 72.692 151.841 72.484 152.113 72.276C152.401 72.068 152.721 71.9 153.073 71.772C153.425 71.644 153.793 71.58 154.177 71.58C154.705 71.58 155.185 71.668 155.617 71.844C156.065 72.02 156.457 72.276 156.793 72.612C157.145 72.948 157.449 73.356 157.705 73.836C157.977 73.42 158.281 73.044 158.617 72.708C158.953 72.356 159.345 72.084 159.793 71.892C160.241 71.684 160.745 71.58 161.305 71.58C162.233 71.58 163.009 71.812 163.633 72.276C164.273 72.74 164.753 73.404 165.073 74.268C165.409 75.116 165.577 76.132 165.577 77.316V81.972C165.577 82.244 165.545 82.492 165.481 82.716C165.433 82.924 165.305 83.092 165.097 83.22C164.905 83.348 164.585 83.412 164.137 83.412C163.689 83.412 163.361 83.34 163.153 83.196C162.945 83.068 162.817 82.9 162.769 82.692C162.721 82.468 162.697 82.22 162.697 81.948V77.292C162.697 76.7 162.625 76.188 162.481 75.756C162.337 75.324 162.121 74.988 161.833 74.748C161.561 74.508 161.201 74.388 160.753 74.388C160.273 74.388 159.857 74.508 159.505 74.748C159.169 74.972 158.905 75.3 158.713 75.732C158.521 76.164 158.425 76.692 158.425 77.316V81.996C158.425 82.268 158.385 82.524 158.305 82.764C158.225 82.988 158.065 83.156 157.825 83.268C157.601 83.396 157.273 83.444 156.841 83.412C156.441 83.396 156.145 83.316 155.953 83.172C155.777 83.028 155.665 82.852 155.617 82.644C155.585 82.42 155.569 82.188 155.569 81.948V77.292C155.569 76.7 155.497 76.188 155.353 75.756C155.209 75.308 154.993 74.972 154.705 74.748C154.433 74.508 154.065 74.388 153.601 74.388C153.105 74.388 152.681 74.516 152.329 74.772C151.993 75.028 151.737 75.372 151.561 75.804C151.385 76.236 151.297 76.732 151.297 77.292V81.996C151.297 82.252 151.265 82.492 151.201 82.716C151.153 82.94 151.025 83.108 150.817 83.22C150.625 83.348 150.297 83.412 149.833 83.412ZM174.06 83.268C173.276 83.268 172.572 83.124 171.948 82.836C171.34 82.532 170.82 82.116 170.388 81.588C169.972 81.044 169.652 80.42 169.428 79.716C169.22 79.012 169.116 78.252 169.116 77.436C169.132 76.62 169.252 75.86 169.476 75.156C169.7 74.436 170.02 73.812 170.436 73.284C170.868 72.756 171.388 72.34 171.996 72.036C172.604 71.732 173.292 71.58 174.06 71.58C174.796 71.58 175.484 71.732 176.124 72.036C176.78 72.34 177.356 72.764 177.852 73.308C178.364 73.852 178.764 74.484 179.052 75.204C179.34 75.908 179.484 76.668 179.484 77.484C179.484 78.316 179.34 79.084 179.052 79.788C178.764 80.492 178.372 81.108 177.876 81.636C177.38 82.148 176.804 82.548 176.148 82.836C175.492 83.124 174.796 83.268 174.06 83.268ZM169.26 88.26C168.828 88.26 168.508 88.196 168.3 88.068C168.092 87.94 167.964 87.772 167.916 87.564C167.868 87.356 167.844 87.116 167.844 86.844V73.044C167.844 72.772 167.868 72.532 167.916 72.324C167.964 72.116 168.084 71.948 168.276 71.82C168.484 71.676 168.804 71.604 169.236 71.604C169.652 71.604 169.98 71.668 170.22 71.796C170.46 71.924 170.62 72.14 170.7 72.444V86.82C170.716 87.092 170.692 87.332 170.628 87.54C170.58 87.764 170.452 87.94 170.244 88.068C170.036 88.196 169.708 88.26 169.26 88.26ZM173.676 80.58C174.236 80.58 174.74 80.452 175.188 80.196C175.636 79.924 175.988 79.556 176.244 79.092C176.516 78.612 176.652 78.076 176.652 77.484C176.652 76.876 176.516 76.34 176.244 75.876C175.988 75.412 175.636 75.052 175.188 74.796C174.74 74.524 174.236 74.388 173.676 74.388C173.132 74.388 172.636 74.524 172.188 74.796C171.74 75.068 171.38 75.436 171.108 75.9C170.852 76.348 170.724 76.876 170.724 77.484C170.724 78.076 170.852 78.612 171.108 79.092C171.38 79.556 171.74 79.924 172.188 80.196C172.636 80.452 173.132 80.58 173.676 80.58ZM191.351 83.388C190.887 83.388 190.543 83.3 190.319 83.124C190.095 82.948 189.983 82.708 189.983 82.404L190.151 81.612C190.023 81.82 189.807 82.068 189.503 82.356C189.199 82.628 188.799 82.876 188.303 83.1C187.807 83.308 187.207 83.412 186.503 83.412C185.751 83.412 185.039 83.26 184.367 82.956C183.711 82.636 183.127 82.204 182.615 81.66C182.119 81.1 181.719 80.468 181.415 79.764C181.127 79.044 180.983 78.276 180.983 77.46C180.983 76.676 181.127 75.94 181.415 75.252C181.719 74.548 182.127 73.924 182.639 73.38C183.151 72.836 183.735 72.412 184.391 72.108C185.063 71.788 185.767 71.628 186.503 71.628C187.159 71.628 187.711 71.716 188.159 71.892C188.623 72.068 189.015 72.292 189.335 72.564C189.655 72.82 189.919 73.092 190.127 73.38L189.983 72.684C189.983 72.332 190.095 72.068 190.319 71.892C190.543 71.7 190.895 71.604 191.375 71.604C191.823 71.604 192.143 71.676 192.335 71.82C192.527 71.948 192.647 72.132 192.695 72.372C192.743 72.596 192.767 72.852 192.767 73.14V81.924C192.767 82.196 192.743 82.444 192.695 82.668C192.647 82.892 192.519 83.068 192.311 83.196C192.119 83.324 191.799 83.388 191.351 83.388ZM186.935 80.604C187.479 80.604 187.967 80.468 188.399 80.196C188.831 79.924 189.175 79.556 189.431 79.092C189.703 78.612 189.839 78.084 189.839 77.508C189.839 76.884 189.703 76.34 189.431 75.876C189.159 75.412 188.799 75.052 188.351 74.796C187.919 74.524 187.431 74.388 186.887 74.388C186.295 74.388 185.767 74.532 185.303 74.82C184.839 75.092 184.471 75.468 184.199 75.948C183.943 76.412 183.815 76.94 183.815 77.532C183.815 78.108 183.951 78.628 184.223 79.092C184.495 79.556 184.863 79.924 185.327 80.196C185.807 80.468 186.343 80.604 186.935 80.604ZM204.583 80.844C204.999 81.196 205.215 81.524 205.231 81.828C205.263 82.132 205.103 82.484 204.751 82.884C204.479 83.188 204.239 83.388 204.031 83.484C203.823 83.58 203.615 83.58 203.407 83.484C203.199 83.404 202.951 83.244 202.663 83.004L198.079 79.14V81.996C198.079 82.252 198.047 82.492 197.983 82.716C197.935 82.94 197.807 83.116 197.599 83.244C197.407 83.372 197.087 83.436 196.639 83.436C196.191 83.436 195.863 83.364 195.655 83.22C195.463 83.092 195.343 82.916 195.295 82.692C195.247 82.468 195.223 82.228 195.223 81.972V67.644C195.223 67.372 195.247 67.132 195.295 66.924C195.359 66.7 195.487 66.524 195.679 66.396C195.887 66.252 196.215 66.18 196.663 66.18C197.111 66.18 197.431 66.252 197.623 66.396C197.815 66.524 197.935 66.7 197.983 66.924C198.047 67.132 198.079 67.38 198.079 67.668V75.54L201.391 72.324C201.647 72.084 201.887 71.924 202.111 71.844C202.335 71.748 202.551 71.74 202.759 71.82C202.983 71.884 203.215 72.052 203.455 72.324C203.855 72.756 204.047 73.116 204.031 73.404C204.015 73.676 203.815 74.004 203.431 74.388L200.191 77.388L204.583 80.844ZM217.162 83.58C216.746 83.58 216.306 83.532 215.842 83.436C215.378 83.356 214.93 83.236 214.498 83.076C214.066 82.9 213.69 82.7 213.37 82.476C213.066 82.236 212.874 81.972 212.794 81.684C212.73 81.524 212.706 81.372 212.722 81.228C212.738 81.068 212.786 80.908 212.866 80.748C212.946 80.572 213.066 80.396 213.226 80.22C213.37 80.044 213.514 79.948 213.658 79.932C213.818 79.9 214.018 79.948 214.258 80.076C214.466 80.156 214.69 80.26 214.93 80.388C215.186 80.516 215.442 80.644 215.698 80.772C215.97 80.9 216.242 81.004 216.514 81.084C216.802 81.164 217.082 81.204 217.354 81.204C217.946 81.204 218.418 81.108 218.77 80.916C219.122 80.708 219.298 80.42 219.298 80.052C219.298 79.844 219.242 79.66 219.13 79.5C219.018 79.34 218.866 79.212 218.674 79.116C218.498 79.004 218.282 78.908 218.026 78.828C217.786 78.732 217.522 78.652 217.234 78.588C216.962 78.508 216.674 78.42 216.37 78.324C215.97 78.212 215.57 78.076 215.17 77.916C214.77 77.756 214.41 77.548 214.09 77.292C213.786 77.036 213.538 76.716 213.346 76.332C213.154 75.948 213.058 75.468 213.058 74.892C213.058 74.172 213.226 73.564 213.562 73.068C213.914 72.556 214.418 72.164 215.074 71.892C215.73 71.62 216.522 71.484 217.45 71.484C217.77 71.484 218.074 71.508 218.362 71.556C218.666 71.604 218.954 71.676 219.226 71.772C219.514 71.852 219.786 71.956 220.042 72.084C220.314 72.212 220.57 72.356 220.81 72.516C221.21 72.74 221.418 73.004 221.434 73.308C221.45 73.596 221.338 73.908 221.098 74.244C220.922 74.468 220.746 74.628 220.57 74.724C220.394 74.804 220.21 74.804 220.018 74.724C219.762 74.596 219.482 74.46 219.178 74.316C218.89 74.156 218.586 74.02 218.266 73.908C217.962 73.796 217.642 73.74 217.306 73.74C216.986 73.74 216.698 73.788 216.442 73.884C216.186 73.98 215.994 74.116 215.866 74.292C215.738 74.468 215.674 74.676 215.674 74.916C215.674 75.14 215.738 75.324 215.866 75.468C215.994 75.612 216.162 75.732 216.37 75.828C216.578 75.924 216.826 76.012 217.114 76.092C217.402 76.156 217.706 76.22 218.026 76.284C218.474 76.38 218.93 76.5 219.394 76.644C219.858 76.788 220.282 76.988 220.666 77.244C221.066 77.5 221.386 77.844 221.626 78.276C221.866 78.692 221.986 79.236 221.986 79.908C221.986 81.076 221.554 81.98 220.69 82.62C219.842 83.26 218.666 83.58 217.162 83.58ZM229.593 83.58C228.825 83.58 228.073 83.436 227.337 83.148C226.617 82.844 225.961 82.42 225.369 81.876C224.793 81.332 224.329 80.692 223.977 79.956C223.641 79.22 223.473 78.412 223.473 77.532C223.473 76.684 223.633 75.892 223.953 75.156C224.273 74.42 224.713 73.772 225.273 73.212C225.833 72.652 226.473 72.22 227.193 71.916C227.929 71.596 228.713 71.436 229.545 71.436C230.665 71.436 231.681 71.708 232.593 72.252C233.505 72.78 234.233 73.5 234.777 74.412C235.321 75.324 235.593 76.356 235.593 77.508C235.593 78.42 235.425 79.252 235.089 80.004C234.753 80.74 234.297 81.38 233.721 81.924C233.145 82.452 232.497 82.86 231.777 83.148C231.073 83.436 230.345 83.58 229.593 83.58ZM229.545 80.748C230.073 80.748 230.577 80.62 231.057 80.364C231.553 80.092 231.953 79.708 232.257 79.212C232.577 78.716 232.737 78.132 232.737 77.46C232.737 76.836 232.593 76.284 232.305 75.804C232.033 75.324 231.657 74.948 231.177 74.676C230.697 74.404 230.145 74.268 229.521 74.268C228.929 74.268 228.393 74.412 227.913 74.7C227.433 74.972 227.049 75.356 226.761 75.852C226.489 76.332 226.353 76.876 226.353 77.484C226.353 78.156 226.505 78.74 226.809 79.236C227.113 79.716 227.505 80.092 227.985 80.364C228.481 80.62 229.001 80.748 229.545 80.748ZM241.584 83.58C241.168 83.58 240.728 83.532 240.264 83.436C239.8 83.356 239.352 83.236 238.92 83.076C238.488 82.9 238.112 82.7 237.792 82.476C237.488 82.236 237.296 81.972 237.216 81.684C237.152 81.524 237.128 81.372 237.144 81.228C237.16 81.068 237.208 80.908 237.288 80.748C237.368 80.572 237.488 80.396 237.648 80.22C237.792 80.044 237.936 79.948 238.08 79.932C238.24 79.9 238.44 79.948 238.68 80.076C238.888 80.156 239.112 80.26 239.352 80.388C239.608 80.516 239.864 80.644 240.12 80.772C240.392 80.9 240.664 81.004 240.936 81.084C241.224 81.164 241.504 81.204 241.776 81.204C242.368 81.204 242.84 81.108 243.192 80.916C243.544 80.708 243.72 80.42 243.72 80.052C243.72 79.844 243.664 79.66 243.552 79.5C243.44 79.34 243.288 79.212 243.096 79.116C242.92 79.004 242.704 78.908 242.448 78.828C242.208 78.732 241.944 78.652 241.656 78.588C241.384 78.508 241.096 78.42 240.792 78.324C240.392 78.212 239.992 78.076 239.592 77.916C239.192 77.756 238.832 77.548 238.512 77.292C238.208 77.036 237.96 76.716 237.768 76.332C237.576 75.948 237.48 75.468 237.48 74.892C237.48 74.172 237.648 73.564 237.984 73.068C238.336 72.556 238.84 72.164 239.496 71.892C240.152 71.62 240.944 71.484 241.872 71.484C242.192 71.484 242.496 71.508 242.784 71.556C243.088 71.604 243.376 71.676 243.648 71.772C243.936 71.852 244.208 71.956 244.464 72.084C244.736 72.212 244.992 72.356 245.232 72.516C245.632 72.74 245.84 73.004 245.856 73.308C245.872 73.596 245.76 73.908 245.52 74.244C245.344 74.468 245.168 74.628 244.992 74.724C244.816 74.804 244.632 74.804 244.44 74.724C244.184 74.596 243.904 74.46 243.6 74.316C243.312 74.156 243.008 74.02 242.688 73.908C242.384 73.796 242.064 73.74 241.728 73.74C241.408 73.74 241.12 73.788 240.864 73.884C240.608 73.98 240.416 74.116 240.288 74.292C240.16 74.468 240.096 74.676 240.096 74.916C240.096 75.14 240.16 75.324 240.288 75.468C240.416 75.612 240.584 75.732 240.792 75.828C241 75.924 241.248 76.012 241.536 76.092C241.824 76.156 242.128 76.22 242.448 76.284C242.896 76.38 243.352 76.5 243.816 76.644C244.28 76.788 244.704 76.988 245.088 77.244C245.488 77.5 245.808 77.844 246.048 78.276C246.288 78.692 246.408 79.236 246.408 79.908C246.408 81.076 245.976 81.98 245.112 82.62C244.264 83.26 243.088 83.58 241.584 83.58ZM250.031 83.436C249.599 83.436 249.279 83.364 249.071 83.22C248.863 83.092 248.735 82.924 248.687 82.716C248.639 82.492 248.615 82.244 248.615 81.972V73.044C248.615 72.788 248.639 72.556 248.687 72.348C248.751 72.124 248.879 71.948 249.071 71.82C249.279 71.692 249.607 71.628 250.055 71.628C250.503 71.628 250.823 71.692 251.015 71.82C251.223 71.948 251.351 72.124 251.399 72.348C251.447 72.572 251.471 72.82 251.471 73.092V81.996C251.471 82.268 251.447 82.516 251.399 82.74C251.351 82.948 251.223 83.116 251.015 83.244C250.823 83.372 250.495 83.436 250.031 83.436ZM250.031 69.3C249.567 69.3 249.223 69.236 248.999 69.108C248.791 68.964 248.655 68.772 248.591 68.532C248.543 68.292 248.519 68.028 248.519 67.74C248.519 67.436 248.543 67.172 248.591 66.948C248.655 66.724 248.799 66.548 249.023 66.42C249.247 66.276 249.591 66.204 250.055 66.204C250.535 66.204 250.879 66.276 251.087 66.42C251.295 66.564 251.431 66.756 251.495 66.996C251.559 67.22 251.591 67.484 251.591 67.788C251.591 68.06 251.559 68.316 251.495 68.556C251.431 68.796 251.295 68.98 251.087 69.108C250.879 69.236 250.527 69.3 250.031 69.3ZM263.703 83.388C263.239 83.388 262.895 83.3 262.671 83.124C262.447 82.948 262.335 82.708 262.335 82.404L262.503 81.612C262.375 81.82 262.159 82.068 261.855 82.356C261.551 82.628 261.151 82.876 260.655 83.1C260.159 83.308 259.559 83.412 258.855 83.412C258.103 83.412 257.391 83.26 256.719 82.956C256.063 82.636 255.479 82.204 254.967 81.66C254.471 81.1 254.071 80.468 253.767 79.764C253.479 79.044 253.335 78.276 253.335 77.46C253.335 76.676 253.479 75.94 253.767 75.252C254.071 74.548 254.479 73.924 254.991 73.38C255.503 72.836 256.087 72.412 256.743 72.108C257.415 71.788 258.119 71.628 258.855 71.628C259.511 71.628 260.063 71.716 260.511 71.892C260.975 72.068 261.367 72.292 261.687 72.564C262.007 72.82 262.271 73.092 262.479 73.38L262.335 72.684C262.335 72.332 262.447 72.068 262.671 71.892C262.895 71.7 263.247 71.604 263.727 71.604C264.175 71.604 264.495 71.676 264.687 71.82C264.879 71.948 264.999 72.132 265.047 72.372C265.095 72.596 265.119 72.852 265.119 73.14V81.924C265.119 82.196 265.095 82.444 265.047 82.668C264.999 82.892 264.871 83.068 264.663 83.196C264.471 83.324 264.151 83.388 263.703 83.388ZM259.287 80.604C259.831 80.604 260.319 80.468 260.751 80.196C261.183 79.924 261.527 79.556 261.783 79.092C262.055 78.612 262.191 78.084 262.191 77.508C262.191 76.884 262.055 76.34 261.783 75.876C261.511 75.412 261.151 75.052 260.703 74.796C260.271 74.524 259.783 74.388 259.239 74.388C258.647 74.388 258.119 74.532 257.655 74.82C257.191 75.092 256.823 75.468 256.551 75.948C256.295 76.412 256.167 76.94 256.167 77.532C256.167 78.108 256.303 78.628 256.575 79.092C256.847 79.556 257.215 79.924 257.679 80.196C258.159 80.468 258.695 80.604 259.287 80.604ZM271.655 83.436C271.063 83.436 270.535 83.396 270.071 83.316C269.623 83.236 269.231 83.1 268.895 82.908C268.575 82.716 268.311 82.46 268.103 82.14C267.895 81.804 267.735 81.396 267.623 80.916C267.527 80.436 267.479 79.86 267.479 79.188V67.62C267.479 67.348 267.503 67.108 267.551 66.9C267.615 66.676 267.743 66.5 267.935 66.372C268.143 66.228 268.471 66.156 268.919 66.156C269.367 66.156 269.687 66.22 269.879 66.348C270.087 66.476 270.215 66.652 270.263 66.876C270.327 67.084 270.359 67.324 270.359 67.596V79.068C270.359 79.372 270.375 79.628 270.407 79.836C270.455 80.028 270.527 80.188 270.623 80.316C270.735 80.428 270.871 80.508 271.031 80.556C271.207 80.604 271.415 80.628 271.655 80.628C271.863 80.628 272.047 80.652 272.207 80.7C272.383 80.748 272.519 80.868 272.615 81.06C272.727 81.252 272.783 81.564 272.783 81.996C272.783 82.444 272.727 82.772 272.615 82.98C272.519 83.188 272.383 83.316 272.207 83.364C272.031 83.412 271.847 83.436 271.655 83.436Z" fill="black"/>
</svg>
