<svg width="400" height="120" viewBox="0 0 400 120" fill="none" xmlns="http://www.w3.org/2000/svg">
<mask id="mask0_62_2458" style="mask-type:luminance" maskUnits="userSpaceOnUse" x="0" y="0" width="400" height="120">
<path d="M400 0H0V120H400V0Z" fill="white"/>
</mask>
<g mask="url(#mask0_62_2458)">
<mask id="mask1_62_2458" style="mask-type:luminance" maskUnits="userSpaceOnUse" x="9" y="9" width="388" height="111">
<path d="M9.33838 9.33325H396.887V119.354H9.33838V9.33325Z" fill="white"/>
</mask>
<g mask="url(#mask1_62_2458)">
<path d="M15.789 72.3853L12.3965 62.3593L17.7893 51.8749L13.0349 41.3958L9.77612 30.9114L12.1047 19.3541L26.2584 18.2343L39.1779 15.5937L52.3406 21.4739L65.1142 13.7499L78.3376 21.7083L91.2267 17.9635L104.365 22.901L117.358 22.677L130.405 24.3437L143.318 21.4218L155.618 17.1093L167.972 14.5624L180.326 12.0989L192.783 13.2135L205.32 17.1249L217.838 20.3437L230.253 20.0728L242.4 10.3072L255.064 18.6874L267.503 19.1718L279.742 12.4791L292.084 9.53638L304.906 12.9062L318.19 14.7655L328.447 23.3958L341.367 25.4062L352.316 32.3385L368.294 26.7083L380.204 31.2239L396.346 37.177L387.475 50.3385L387.159 62.0937L374.361 69.8593L369.875 80.2812L373.796 93.3957L367.57 103.266L364.391 115.974L345.853 109.745L333.335 117.432L320.227 109.989L307.782 119.823L294.631 110.969L281.864 112.432L269.005 111.359L256.444 118.932L243.555 117.01L230.824 121.224L218.355 114.521L205.222 119.724L193.081 116.047L180.727 115.328L168.306 115.838L155.903 115.969L143.829 110.542L131.396 111.203L119.346 105.146L106.274 116.76L94.5645 104.833L81.5599 115.427L69.6375 107.245L57.5023 102.453L44.6436 110.724L27.2615 111.552L29.4685 98.1405L22.7929 90.2291L11.0103 83.578L15.789 72.3853Z" fill="black"/>
<path d="M15.789 72.3853L12.3965 62.3593L17.7893 51.8749L13.0349 41.3958L9.77612 30.9114L12.1047 19.3541L26.2584 18.2343L39.1779 15.5937L52.3406 21.4739L65.1142 13.7499L78.3376 21.7083L91.2267 17.9635L104.365 22.901L117.358 22.677L130.405 24.3437L143.318 21.4218L155.618 17.1093L167.972 14.5624L180.326 12.0989L192.783 13.2135L205.32 17.1249L217.838 20.3437L230.253 20.0728L242.4 10.3072L255.064 18.6874L267.503 19.1718L279.742 12.4791L292.084 9.53638L304.906 12.9062L318.19 14.7655L328.447 23.3958L341.367 25.4062L352.316 32.3385L368.294 26.7083L380.204 31.2239L396.346 37.177L387.475 50.3385L387.159 62.0937L374.361 69.8593L369.875 80.2812L373.796 93.3957L367.57 103.266L364.391 115.974L345.853 109.745L333.335 117.432L320.227 109.989L307.782 119.823L294.631 110.969L281.864 112.432L269.005 111.359L256.444 118.932L243.555 117.01L230.824 121.224L218.355 114.521L205.222 119.724L193.081 116.047L180.727 115.328L168.306 115.838L155.903 115.969L143.829 110.542L131.396 111.203L119.346 105.146L106.274 116.76L94.5645 104.833L81.5599 115.427L69.6375 107.245L57.5023 102.453L44.6436 110.724L27.2615 111.552L29.4685 98.1405L22.7929 90.2291L11.0103 83.578L15.789 72.3853Z" fill="black"/>
</g>
<mask id="mask2_62_2458" style="mask-type:luminance" maskUnits="userSpaceOnUse" x="7" y="8" width="391" height="112">
<path d="M7.78198 8H397.586V119.354H7.78198V8Z" fill="white"/>
</mask>
<g mask="url(#mask2_62_2458)">
<path d="M230.739 121.985L218.3 115.307L205.265 120.474L192.917 116.735L180.721 115.99L168.342 116.495L155.715 116.63L143.653 111.203L131.207 111.886L119.485 105.995L106.238 117.766L94.5037 105.813L81.6085 116.328L69.2058 107.849L57.6056 103.261L44.9111 111.401L26.3131 112.287L28.6355 98.3491L22.1971 90.7241L10.0497 83.8491L14.9561 72.3647L11.5575 62.3127L16.932 51.8543L12.2627 41.5731L8.95532 30.9429L11.4237 18.7293L26.1671 17.5575L39.2812 14.9012L52.2737 20.7033L65.1141 12.9168L78.4653 20.9533L91.2632 17.2293L104.523 22.2137L117.406 21.9897L130.356 23.6564L143.051 20.7762L155.423 16.4429L167.765 13.896L180.259 11.4168L193.038 12.5731L205.569 16.4845L217.941 19.6512L229.931 19.396L242.345 9.40641L255.356 18.0106L267.26 18.4689L279.383 11.8491L292.078 8.81787L305.076 12.2085L318.561 14.0939L328.83 22.7293L341.683 24.7241L352.414 31.5106L368.282 25.922L380.514 30.5522L397.483 36.8491L388.272 50.5262L387.962 62.4533L375.03 70.297L370.714 80.3231L374.678 93.4845L368.33 103.505L364.95 116.906L345.951 110.516L333.335 118.261L320.294 110.854L307.824 120.74L294.413 111.703L281.882 113.146L269.188 112.078L256.627 119.651L243.634 117.719L230.739 121.985ZM218.415 113.75L230.915 120.464L243.47 116.307L256.256 118.214L268.792 110.656L281.852 111.755L294.856 110.255L307.739 118.932L320.148 109.13L333.317 116.594L345.744 108.969L363.801 115.031L366.816 103.016L372.951 93.297L369.048 80.2345L373.681 69.4272L386.375 61.7137L386.685 50.1825L395.215 37.495L379.894 31.8647L368.276 27.4585L352.201 33.1252L341.038 26.047L328.064 24.0158L317.807 15.396L304.651 13.547L292.054 10.2293L280.058 13.1095L267.704 19.896L254.76 19.396L242.437 11.2502L230.532 20.7918L217.68 21.0783L205.04 17.8283L192.601 13.8856L180.374 12.7918L168.184 15.2293L155.867 17.7502L143.525 22.0783L130.453 25.0366L117.303 23.3543L104.207 23.5887L91.2267 18.6929L78.216 22.4689L65.1141 14.5783L52.4196 22.271L39.0927 16.3127L26.3313 18.9064L12.7856 19.9845L10.5847 30.8804L13.7948 41.1825L18.6526 51.8908L13.2476 62.3908L16.6462 72.4116L11.9952 83.3075L23.3705 89.7241L30.3135 97.9689L28.1978 110.823L44.376 110.057L57.4232 101.667L70.1178 106.708L81.5113 114.521L94.6192 103.844L106.298 115.745L119.194 104.287L131.572 110.516L143.987 109.833L156.08 115.261L168.282 115.136L180.721 114.62L193.227 115.349L205.125 118.958L218.415 113.75Z" fill="black"/>
</g>
<mask id="mask3_62_2458" style="mask-type:luminance" maskUnits="userSpaceOnUse" x="3" y="1" width="388" height="113">
<path d="M3.11279 1.08337H390.661V113.333H3.11279V1.08337Z" fill="white"/>
</mask>
<g mask="url(#mask3_62_2458)">
<path d="M9.78237 63.3957L6.39594 53.3644L11.7826 42.8801L7.02824 32.4009L3.75732 21.9165L6.09804 10.3644L20.2457 9.23942L33.1712 6.604L46.3339 12.479L59.1075 4.75505L72.3249 12.7186L85.2201 8.96338L98.3585 13.9113L111.345 13.6821L124.398 15.3592L137.312 12.4321L149.611 8.10921L161.965 5.56755L174.319 3.10921L186.777 4.2238L199.313 8.13005L211.825 11.3488L224.246 11.078L236.387 1.31234L249.058 9.69776L261.497 10.1821L273.735 3.48942L286.077 0.541504L298.9 3.9165L312.184 5.77067L322.44 14.4061L335.36 16.4165L346.31 23.3436L362.281 17.7134L374.197 22.229L390.339 28.1769L381.469 41.3488L381.153 53.104L368.355 60.8644L363.868 71.2915L367.796 84.4009L361.564 94.2707L358.378 106.979L339.847 100.755L327.329 108.443L314.221 101L301.775 110.833L288.619 101.974L275.851 103.443L262.999 102.364L250.432 109.937L237.549 108.026L224.818 112.234L212.348 105.526L199.216 110.729L187.068 107.062L174.726 106.333L162.299 106.849L149.897 106.979L137.822 101.547L125.389 102.208L113.339 96.1561L100.268 107.765L88.5579 95.8436L75.5533 106.427L63.6248 98.2446L51.5017 93.4582L38.6369 101.734L21.2488 102.557L23.4618 89.1509L16.7863 81.2342L5.00368 74.5832L9.78237 63.3957Z" fill="white"/>
</g>
<mask id="mask4_62_2458" style="mask-type:luminance" maskUnits="userSpaceOnUse" x="0" y="1" width="396" height="115">
<path d="M0.674805 1.08337H395.331V116H0.674805V1.08337Z" fill="white"/>
</mask>
<g mask="url(#mask4_62_2458)">
<path d="M224.52 115.01L212.147 108.365L199.386 113.422L186.491 109.521L174.708 108.844L162.348 109.349L149.21 109.49L137.202 104.063L124.69 104.74L113.862 99.3126L100.146 111.526L88.3389 99.5105L75.7234 109.745L62.0743 100.385L51.8542 96.3542L39.6521 104.182L17.8318 105.214L20.3732 89.7917L14.7007 83.0626L1.44077 75.599L6.68153 63.3282L3.30118 53.1875L8.62097 42.8282L4.20099 33.0417L0.778076 22.0313L3.61125 8.05733L19.7713 6.76046L33.5541 3.95837L46.1027 9.56254L59.1013 1.69796L72.7929 9.94275L85.3537 6.29171L98.942 11.4011L111.539 11.1823L124.234 12.8125L136.381 10.0573L148.705 5.72921L161.284 3.14587L174.13 0.578167L187.433 1.77608L200.231 5.76567L212.22 8.84379L223.06 8.60421L236.205 -1.9635L250.115 7.23442L260.706 7.65108L272.525 1.18233L286.12 -2.05725L299.568 1.48442L313.564 3.43754L323.875 12.0886L336.57 14.0625L346.705 20.5L362.311 14.9948L375.365 19.948L394.492 27L384.369 42.0417L384.04 54.4115L370.787 62.4532L366.92 71.4219L370.89 84.724L364.318 95.1459L360.494 110.38L340.248 103.594L327.377 111.495L314.5 104.182L301.909 114.13L287.767 104.63L275.869 105.99L263.752 104.979L251.058 112.609L237.767 110.635L224.52 115.01ZM212.561 102.693L225.128 109.474L237.214 105.448L249.708 107.302L262.172 99.7917L275.772 100.932L289.427 99.3594L301.593 107.557L313.886 97.8334L327.231 105.412L339.403 97.948L356.226 103.589L358.779 93.4115L364.683 84.1042L360.816 71.2136L365.929 59.3334L378.277 51.8698L378.569 40.6823L386.174 29.3959L373.036 24.5573L362.238 20.4844L345.908 26.1823L334.168 18.7605L321.036 16.7292L310.791 8.11983L298.237 6.35421L286.041 3.14587L274.933 5.79171L262.293 12.7032L248.012 12.1563L236.576 4.58858L225.432 13.5469L211.436 13.849L198.31 10.4584L186.108 6.65108L174.532 5.63546L162.634 8.00525L150.517 10.4948L138.242 14.8021L124.55 17.9011L111.156 16.1823L97.7625 16.4167L85.068 11.6667L71.8688 15.4844L59.1074 7.80733L46.5648 15.3959L32.782 9.24483L20.7197 11.7084L8.59058 12.6719L6.74233 21.8073L9.80653 31.625L14.9379 42.9428L9.50254 53.573L12.8647 63.5209L8.53586 73.5886L18.8471 79.4063L26.5198 88.5053L24.6412 99.8959L37.5971 99.2865L51.1489 90.5678L65.175 96.1094L75.3586 103.099L88.7949 92.2448L100.419 104.068L112.828 93.0365L126.137 99.7084L138.497 99.0261L150.602 104.453L162.214 104.333L174.757 103.818L187.67 104.568L199.064 108.016L212.561 102.693Z" fill="black"/>
<path d="M224.52 115.01L212.147 108.365L199.386 113.422L186.491 109.521L174.708 108.844L162.348 109.349L149.21 109.49L137.202 104.063L124.69 104.74L113.862 99.3126L100.146 111.526L88.3389 99.5105L75.7234 109.745L62.0743 100.385L51.8542 96.3542L39.6521 104.182L17.8318 105.214L20.3732 89.7917L14.7007 83.0626L1.44077 75.599L6.68153 63.3282L3.30118 53.1875L8.62097 42.8282L4.20099 33.0417L0.778076 22.0313L3.61125 8.05733L19.7713 6.76046L33.5541 3.95837L46.1027 9.56254L59.1013 1.69796L72.7929 9.94275L85.3537 6.29171L98.942 11.4011L111.539 11.1823L124.234 12.8125L136.381 10.0573L148.705 5.72921L161.284 3.14587L174.13 0.578167L187.433 1.77608L200.231 5.76567L212.22 8.84379L223.06 8.60421L236.205 -1.9635L250.115 7.23442L260.706 7.65108L272.525 1.18233L286.12 -2.05725L299.568 1.48442L313.564 3.43754L323.875 12.0886L336.57 14.0625L346.705 20.5L362.311 14.9948L375.365 19.948L394.492 27L384.369 42.0417L384.04 54.4115L370.787 62.4532L366.92 71.4219L370.89 84.724L364.318 95.1459L360.494 110.38L340.248 103.594L327.377 111.495L314.5 104.182L301.909 114.13L287.767 104.63L275.869 105.99L263.752 104.979L251.058 112.609L237.767 110.635L224.52 115.01ZM212.561 102.693L225.128 109.474L237.214 105.448L249.708 107.302L262.172 99.7917L275.772 100.932L289.427 99.3594L301.593 107.557L313.886 97.8334L327.231 105.412L339.403 97.948L356.226 103.589L358.779 93.4115L364.683 84.1042L360.816 71.2136L365.929 59.3334L378.277 51.8698L378.569 40.6823L386.174 29.3959L373.036 24.5573L362.238 20.4844L345.908 26.1823L334.168 18.7605L321.036 16.7292L310.791 8.11983L298.237 6.35421L286.041 3.14587L274.933 5.79171L262.293 12.7032L248.012 12.1563L236.576 4.58858L225.432 13.5469L211.436 13.849L198.31 10.4584L186.108 6.65108L174.532 5.63546L162.634 8.00525L150.517 10.4948L138.242 14.8021L124.55 17.9011L111.156 16.1823L97.7625 16.4167L85.068 11.6667L71.8688 15.4844L59.1074 7.80733L46.5648 15.3959L32.782 9.24483L20.7197 11.7084L8.59058 12.6719L6.74233 21.8073L9.80653 31.625L14.9379 42.9428L9.50254 53.573L12.8647 63.5209L8.53586 73.5886L18.8471 79.4063L26.5198 88.5053L24.6412 99.8959L37.5971 99.2865L51.1489 90.5678L65.175 96.1094L75.3586 103.099L88.7949 92.2448L100.419 104.068L112.828 93.0365L126.137 99.7084L138.497 99.0261L150.602 104.453L162.214 104.333L174.757 103.818L187.67 104.568L199.064 108.016L212.561 102.693Z" fill="black"/>
</g>
</g>
<path d="M28.3762 54.412C27.9282 54.412 27.6002 54.348 27.3922 54.22C27.1842 54.092 27.0562 53.916 27.0082 53.692C26.9602 53.452 26.9362 53.204 26.9362 52.948V39.1C26.9362 38.844 26.9602 38.612 27.0082 38.404C27.0722 38.18 27.2082 38.004 27.4162 37.876C27.6242 37.732 27.9522 37.66 28.4002 37.66H33.4882C34.1922 37.66 34.8802 37.78 35.5522 38.02C36.2242 38.26 36.8242 38.62 37.3522 39.1C37.8962 39.58 38.3202 40.172 38.6242 40.876C38.9442 41.58 39.1042 42.404 39.1042 43.348C39.1042 44.276 38.9442 45.092 38.6242 45.796C38.3202 46.484 37.8962 47.068 37.3522 47.548C36.8082 48.028 36.2002 48.388 35.5282 48.628C34.8722 48.868 34.1842 48.988 33.4642 48.988H29.8402V52.972C29.8402 53.228 29.8082 53.468 29.7442 53.692C29.6962 53.916 29.5682 54.092 29.3602 54.22C29.1682 54.348 28.8402 54.412 28.3762 54.412ZM29.8402 46.06H33.4882C33.9842 46.06 34.4322 45.964 34.8322 45.772C35.2482 45.564 35.5842 45.26 35.8402 44.86C36.0962 44.444 36.2242 43.924 36.2242 43.3C36.2242 42.74 36.1042 42.26 35.8642 41.86C35.6402 41.444 35.3202 41.124 34.9042 40.9C34.5042 40.676 34.0242 40.564 33.4642 40.564H29.8402V46.06ZM46.8714 54.58C45.8314 54.58 44.9194 54.412 44.1354 54.076C43.3674 53.74 42.7194 53.284 42.1914 52.708C41.6794 52.116 41.2874 51.46 41.0154 50.74C40.7594 50.004 40.6314 49.244 40.6314 48.46C40.6314 47.308 40.8954 46.284 41.4234 45.388C41.9514 44.492 42.6794 43.788 43.6074 43.276C44.5514 42.764 45.6314 42.508 46.8474 42.508C47.7114 42.508 48.4714 42.644 49.1274 42.916C49.7834 43.188 50.3274 43.548 50.7594 43.996C51.2074 44.428 51.5434 44.908 51.7674 45.436C52.0074 45.964 52.1274 46.476 52.1274 46.972C52.1274 47.82 51.9194 48.436 51.5034 48.82C51.1034 49.204 50.5994 49.396 49.9914 49.396H43.6554C43.6714 49.94 43.8394 50.412 44.1594 50.812C44.4954 51.212 44.9114 51.524 45.4074 51.748C45.9194 51.956 46.4394 52.06 46.9674 52.06C47.3674 52.06 47.7194 52.036 48.0234 51.988C48.3434 51.94 48.6154 51.884 48.8394 51.82C49.0634 51.74 49.2554 51.66 49.4154 51.58C49.5914 51.5 49.7514 51.428 49.8954 51.364C50.0394 51.3 50.1754 51.26 50.3034 51.244C50.4794 51.228 50.6554 51.268 50.8314 51.364C51.0074 51.46 51.1514 51.628 51.2634 51.868C51.3594 52.028 51.4234 52.18 51.4554 52.324C51.5034 52.452 51.5274 52.58 51.5274 52.708C51.5274 53.028 51.3354 53.332 50.9514 53.62C50.5674 53.892 50.0234 54.116 49.3194 54.292C48.6314 54.484 47.8154 54.58 46.8714 54.58ZM43.6554 47.692H48.5754C48.8474 47.692 49.0554 47.652 49.1994 47.572C49.3434 47.476 49.4154 47.284 49.4154 46.996C49.4154 46.628 49.3034 46.3 49.0794 46.012C48.8554 45.708 48.5514 45.476 48.1674 45.316C47.7834 45.14 47.3354 45.052 46.8234 45.052C46.2314 45.052 45.6954 45.172 45.2154 45.412C44.7354 45.636 44.3514 45.948 44.0634 46.348C43.7914 46.748 43.6554 47.196 43.6554 47.692ZM55.5129 54.412C55.0809 54.412 54.7609 54.34 54.5529 54.196C54.3609 54.068 54.2409 53.9 54.1929 53.692C54.1449 53.468 54.1209 53.22 54.1209 52.948V43.972C54.1209 43.716 54.1449 43.484 54.1929 43.276C54.2409 43.068 54.3689 42.908 54.5769 42.796C54.7849 42.668 55.1049 42.604 55.5369 42.604C55.9209 42.604 56.2089 42.652 56.4009 42.748C56.5929 42.844 56.7209 42.964 56.7849 43.108C56.8489 43.252 56.8809 43.396 56.8809 43.54C56.8969 43.684 56.9129 43.796 56.9289 43.876L56.8329 44.644C56.9289 44.388 57.0889 44.14 57.3129 43.9C57.5369 43.66 57.8089 43.444 58.1289 43.252C58.4489 43.044 58.7929 42.884 59.1609 42.772C59.5449 42.644 59.9369 42.58 60.3369 42.58C61.0889 42.58 61.7609 42.716 62.3529 42.988C62.9449 43.26 63.4489 43.644 63.8649 44.14C64.2969 44.636 64.6249 45.228 64.8489 45.916C65.0729 46.588 65.1849 47.348 65.1849 48.196V52.972C65.1849 53.244 65.1529 53.492 65.0889 53.716C65.0409 53.924 64.9209 54.092 64.7289 54.22C64.5369 54.348 64.2089 54.412 63.7449 54.412C63.2969 54.412 62.9689 54.34 62.7609 54.196C62.5529 54.068 62.4249 53.9 62.3769 53.692C62.3289 53.468 62.3049 53.22 62.3049 52.948V48.172C62.3049 47.596 62.2009 47.1 61.9929 46.684C61.8009 46.268 61.5129 45.948 61.1289 45.724C60.7609 45.5 60.2889 45.388 59.7129 45.388C59.1529 45.388 58.6649 45.508 58.2489 45.748C57.8329 45.972 57.5129 46.292 57.2889 46.708C57.0649 47.124 56.9529 47.612 56.9529 48.172V52.972C56.9529 53.244 56.9289 53.492 56.8809 53.716C56.8329 53.924 56.7049 54.092 56.4969 54.22C56.3049 54.348 55.9769 54.412 55.5129 54.412ZM69.776 59.164C69.264 58.94 68.968 58.684 68.888 58.396C68.808 58.124 68.88 57.756 69.104 57.292L75.296 43.42C75.52 42.908 75.76 42.604 76.016 42.508C76.272 42.396 76.664 42.452 77.192 42.676C77.688 42.9 77.976 43.148 78.056 43.42C78.152 43.692 78.096 44.06 77.888 44.524L71.648 58.468C71.44 58.98 71.208 59.276 70.952 59.356C70.696 59.452 70.304 59.388 69.776 59.164ZM72.008 53.284L66.464 44.764C66.176 44.332 66.056 43.972 66.104 43.684C66.168 43.396 66.424 43.116 66.872 42.844C67.368 42.54 67.752 42.42 68.024 42.484C68.312 42.548 68.6 42.804 68.888 43.252L73.28 50.092L72.008 53.284ZM85.5433 54.58C84.5033 54.58 83.5913 54.412 82.8073 54.076C82.0393 53.74 81.3913 53.284 80.8633 52.708C80.3513 52.116 79.9593 51.46 79.6873 50.74C79.4313 50.004 79.3033 49.244 79.3033 48.46C79.3033 47.308 79.5673 46.284 80.0953 45.388C80.6233 44.492 81.3513 43.788 82.2793 43.276C83.2233 42.764 84.3033 42.508 85.5193 42.508C86.3833 42.508 87.1433 42.644 87.7993 42.916C88.4553 43.188 88.9993 43.548 89.4313 43.996C89.8793 44.428 90.2153 44.908 90.4393 45.436C90.6793 45.964 90.7993 46.476 90.7993 46.972C90.7993 47.82 90.5913 48.436 90.1753 48.82C89.7753 49.204 89.2713 49.396 88.6633 49.396H82.3273C82.3433 49.94 82.5113 50.412 82.8313 50.812C83.1673 51.212 83.5833 51.524 84.0793 51.748C84.5913 51.956 85.1113 52.06 85.6393 52.06C86.0393 52.06 86.3913 52.036 86.6953 51.988C87.0153 51.94 87.2873 51.884 87.5113 51.82C87.7353 51.74 87.9273 51.66 88.0873 51.58C88.2633 51.5 88.4233 51.428 88.5673 51.364C88.7113 51.3 88.8473 51.26 88.9753 51.244C89.1513 51.228 89.3273 51.268 89.5033 51.364C89.6793 51.46 89.8233 51.628 89.9353 51.868C90.0313 52.028 90.0953 52.18 90.1273 52.324C90.1753 52.452 90.1993 52.58 90.1993 52.708C90.1993 53.028 90.0073 53.332 89.6233 53.62C89.2393 53.892 88.6953 54.116 87.9913 54.292C87.3033 54.484 86.4873 54.58 85.5433 54.58ZM82.3273 47.692H87.2473C87.5193 47.692 87.7273 47.652 87.8713 47.572C88.0153 47.476 88.0873 47.284 88.0873 46.996C88.0873 46.628 87.9753 46.3 87.7513 46.012C87.5273 45.708 87.2233 45.476 86.8393 45.316C86.4553 45.14 86.0073 45.052 85.4953 45.052C84.9033 45.052 84.3673 45.172 83.8873 45.412C83.4073 45.636 83.0233 45.948 82.7353 46.348C82.4633 46.748 82.3273 47.196 82.3273 47.692ZM98.9368 54.412C98.1528 54.412 97.4488 54.26 96.8248 53.956C96.2168 53.636 95.6968 53.204 95.2648 52.66C94.8488 52.116 94.5288 51.492 94.3048 50.788C94.0968 50.068 93.9928 49.3 93.9928 48.484C94.0088 47.668 94.1288 46.908 94.3528 46.204C94.5768 45.484 94.8968 44.86 95.3128 44.332C95.7448 43.788 96.2648 43.364 96.8728 43.06C97.4808 42.756 98.1688 42.604 98.9368 42.604C99.6728 42.604 100.361 42.756 101.001 43.06C101.657 43.364 102.233 43.788 102.729 44.332C103.241 44.86 103.641 45.484 103.929 46.204C104.217 46.908 104.361 47.66 104.361 48.46C104.361 49.292 104.217 50.076 103.929 50.812C103.641 51.532 103.249 52.164 102.753 52.708C102.257 53.236 101.681 53.652 101.025 53.956C100.369 54.26 99.6728 54.412 98.9368 54.412ZM98.5528 51.604C99.1128 51.604 99.6168 51.476 100.065 51.22C100.513 50.948 100.865 50.58 101.121 50.116C101.393 49.652 101.529 49.124 101.529 48.532C101.529 47.924 101.393 47.388 101.121 46.924C100.865 46.444 100.513 46.076 100.065 45.82C99.6168 45.548 99.1128 45.412 98.5528 45.412C98.0088 45.412 97.5128 45.548 97.0648 45.82C96.6168 46.092 96.2568 46.46 95.9848 46.924C95.7288 47.388 95.6008 47.924 95.6008 48.532C95.6008 49.124 95.7288 49.652 95.9848 50.116C96.2568 50.58 96.6168 50.948 97.0648 51.22C97.5128 51.476 98.0088 51.604 98.5528 51.604ZM94.1128 54.436C93.6808 54.436 93.3608 54.364 93.1528 54.22C92.9448 54.092 92.8168 53.924 92.7688 53.716C92.7208 53.492 92.6968 53.244 92.6968 52.972V38.668C92.6968 38.396 92.7208 38.156 92.7688 37.948C92.8168 37.724 92.9448 37.548 93.1528 37.42C93.3608 37.292 93.6808 37.228 94.1128 37.228C94.5608 37.228 94.8808 37.292 95.0728 37.42C95.2648 37.548 95.3848 37.724 95.4328 37.948C95.4808 38.172 95.5048 38.412 95.5048 38.668V53.452C95.4408 53.804 95.3048 54.052 95.0968 54.196C94.9048 54.356 94.5768 54.436 94.1128 54.436ZM116.132 54.388C115.668 54.388 115.324 54.3 115.1 54.124C114.876 53.948 114.764 53.708 114.764 53.404L114.932 52.612C114.804 52.82 114.588 53.068 114.284 53.356C113.98 53.628 113.58 53.876 113.084 54.1C112.588 54.308 111.988 54.412 111.284 54.412C110.532 54.412 109.82 54.26 109.148 53.956C108.492 53.636 107.908 53.204 107.396 52.66C106.9 52.1 106.5 51.468 106.196 50.764C105.908 50.044 105.764 49.276 105.764 48.46C105.764 47.676 105.908 46.94 106.196 46.252C106.5 45.548 106.908 44.924 107.42 44.38C107.932 43.836 108.516 43.412 109.172 43.108C109.844 42.788 110.548 42.628 111.284 42.628C111.94 42.628 112.492 42.716 112.94 42.892C113.404 43.068 113.796 43.292 114.116 43.564C114.436 43.82 114.7 44.092 114.908 44.38L114.764 43.684C114.764 43.332 114.876 43.068 115.1 42.892C115.324 42.7 115.676 42.604 116.156 42.604C116.604 42.604 116.924 42.676 117.116 42.82C117.308 42.948 117.428 43.132 117.476 43.372C117.524 43.596 117.548 43.852 117.548 44.14V52.924C117.548 53.196 117.524 53.444 117.476 53.668C117.428 53.892 117.3 54.068 117.092 54.196C116.9 54.324 116.58 54.388 116.132 54.388ZM111.716 51.604C112.26 51.604 112.748 51.468 113.18 51.196C113.612 50.924 113.956 50.556 114.212 50.092C114.484 49.612 114.62 49.084 114.62 48.508C114.62 47.884 114.484 47.34 114.212 46.876C113.94 46.412 113.58 46.052 113.132 45.796C112.7 45.524 112.212 45.388 111.668 45.388C111.076 45.388 110.548 45.532 110.084 45.82C109.62 46.092 109.252 46.468 108.98 46.948C108.724 47.412 108.596 47.94 108.596 48.532C108.596 49.108 108.732 49.628 109.004 50.092C109.276 50.556 109.644 50.924 110.108 51.196C110.588 51.468 111.124 51.604 111.716 51.604ZM126.124 54.412C125.34 54.412 124.636 54.26 124.012 53.956C123.404 53.636 122.884 53.204 122.452 52.66C122.036 52.116 121.716 51.492 121.492 50.788C121.284 50.068 121.18 49.3 121.18 48.484C121.196 47.668 121.316 46.908 121.54 46.204C121.764 45.484 122.084 44.86 122.5 44.332C122.932 43.788 123.452 43.364 124.06 43.06C124.668 42.756 125.356 42.604 126.124 42.604C126.86 42.604 127.548 42.756 128.188 43.06C128.844 43.364 129.42 43.788 129.916 44.332C130.428 44.86 130.828 45.484 131.116 46.204C131.404 46.908 131.548 47.66 131.548 48.46C131.548 49.292 131.404 50.076 131.116 50.812C130.828 51.532 130.436 52.164 129.94 52.708C129.444 53.236 128.868 53.652 128.212 53.956C127.556 54.26 126.86 54.412 126.124 54.412ZM125.74 51.604C126.3 51.604 126.804 51.476 127.252 51.22C127.7 50.948 128.052 50.58 128.308 50.116C128.58 49.652 128.716 49.124 128.716 48.532C128.716 47.924 128.58 47.388 128.308 46.924C128.052 46.444 127.7 46.076 127.252 45.82C126.804 45.548 126.3 45.412 125.74 45.412C125.196 45.412 124.7 45.548 124.252 45.82C123.804 46.092 123.444 46.46 123.172 46.924C122.916 47.388 122.788 47.924 122.788 48.532C122.788 49.124 122.916 49.652 123.172 50.116C123.444 50.58 123.804 50.948 124.252 51.22C124.7 51.476 125.196 51.604 125.74 51.604ZM121.3 54.436C120.868 54.436 120.548 54.364 120.34 54.22C120.132 54.092 120.004 53.924 119.956 53.716C119.908 53.492 119.884 53.244 119.884 52.972V38.668C119.884 38.396 119.908 38.156 119.956 37.948C120.004 37.724 120.132 37.548 120.34 37.42C120.548 37.292 120.868 37.228 121.3 37.228C121.748 37.228 122.068 37.292 122.26 37.42C122.452 37.548 122.572 37.724 122.62 37.948C122.668 38.172 122.692 38.412 122.692 38.668V53.452C122.628 53.804 122.492 54.052 122.284 54.196C122.092 54.356 121.764 54.436 121.3 54.436ZM143.795 54.436C143.203 54.436 142.675 54.396 142.211 54.316C141.763 54.236 141.371 54.1 141.035 53.908C140.715 53.716 140.451 53.46 140.243 53.14C140.035 52.804 139.875 52.396 139.763 51.916C139.667 51.436 139.619 50.86 139.619 50.188V38.62C139.619 38.348 139.643 38.108 139.691 37.9C139.755 37.676 139.883 37.5 140.075 37.372C140.283 37.228 140.611 37.156 141.059 37.156C141.507 37.156 141.827 37.22 142.019 37.348C142.227 37.476 142.355 37.652 142.403 37.876C142.467 38.084 142.499 38.324 142.499 38.596V50.068C142.499 50.372 142.515 50.628 142.547 50.836C142.595 51.028 142.667 51.188 142.763 51.316C142.875 51.428 143.011 51.508 143.171 51.556C143.347 51.604 143.555 51.628 143.795 51.628C144.003 51.628 144.187 51.652 144.347 51.7C144.523 51.748 144.659 51.868 144.755 52.06C144.867 52.252 144.923 52.564 144.923 52.996C144.923 53.444 144.867 53.772 144.755 53.98C144.659 54.188 144.523 54.316 144.347 54.364C144.171 54.412 143.987 54.436 143.795 54.436ZM148.188 54.436C147.756 54.436 147.436 54.364 147.228 54.22C147.02 54.092 146.892 53.924 146.844 53.716C146.796 53.492 146.772 53.244 146.772 52.972V44.044C146.772 43.788 146.796 43.556 146.844 43.348C146.908 43.124 147.036 42.948 147.228 42.82C147.436 42.692 147.764 42.628 148.212 42.628C148.66 42.628 148.98 42.692 149.172 42.82C149.38 42.948 149.508 43.124 149.556 43.348C149.604 43.572 149.628 43.82 149.628 44.092V52.996C149.628 53.268 149.604 53.516 149.556 53.74C149.508 53.948 149.38 54.116 149.172 54.244C148.98 54.372 148.652 54.436 148.188 54.436ZM148.188 40.3C147.724 40.3 147.38 40.236 147.156 40.108C146.948 39.964 146.812 39.772 146.748 39.532C146.7 39.292 146.676 39.028 146.676 38.74C146.676 38.436 146.7 38.172 146.748 37.948C146.812 37.724 146.956 37.548 147.18 37.42C147.404 37.276 147.748 37.204 148.212 37.204C148.692 37.204 149.036 37.276 149.244 37.42C149.452 37.564 149.588 37.756 149.652 37.996C149.716 38.22 149.748 38.484 149.748 38.788C149.748 39.06 149.716 39.316 149.652 39.556C149.588 39.796 149.452 39.98 149.244 40.108C149.036 40.236 148.684 40.3 148.188 40.3ZM153.669 54.412C153.237 54.412 152.917 54.34 152.709 54.196C152.517 54.068 152.397 53.9 152.349 53.692C152.301 53.468 152.277 53.22 152.277 52.948V43.972C152.277 43.716 152.301 43.484 152.349 43.276C152.397 43.068 152.525 42.908 152.733 42.796C152.941 42.668 153.261 42.604 153.693 42.604C154.077 42.604 154.365 42.652 154.557 42.748C154.749 42.844 154.877 42.964 154.941 43.108C155.005 43.252 155.037 43.396 155.037 43.54C155.053 43.684 155.069 43.796 155.085 43.876L154.989 44.644C155.085 44.388 155.245 44.14 155.469 43.9C155.693 43.66 155.965 43.444 156.285 43.252C156.605 43.044 156.949 42.884 157.317 42.772C157.701 42.644 158.093 42.58 158.493 42.58C159.245 42.58 159.917 42.716 160.509 42.988C161.101 43.26 161.605 43.644 162.021 44.14C162.453 44.636 162.781 45.228 163.005 45.916C163.229 46.588 163.341 47.348 163.341 48.196V52.972C163.341 53.244 163.309 53.492 163.245 53.716C163.197 53.924 163.077 54.092 162.885 54.22C162.693 54.348 162.365 54.412 161.901 54.412C161.453 54.412 161.125 54.34 160.917 54.196C160.709 54.068 160.581 53.9 160.533 53.692C160.485 53.468 160.461 53.22 160.461 52.948V48.172C160.461 47.596 160.357 47.1 160.149 46.684C159.957 46.268 159.669 45.948 159.285 45.724C158.917 45.5 158.445 45.388 157.869 45.388C157.309 45.388 156.821 45.508 156.405 45.748C155.989 45.972 155.669 46.292 155.445 46.708C155.221 47.124 155.109 47.612 155.109 48.172V52.972C155.109 53.244 155.085 53.492 155.037 53.716C154.989 53.924 154.861 54.092 154.653 54.22C154.461 54.348 154.133 54.412 153.669 54.412ZM170.843 59.236C170.267 59.236 169.715 59.164 169.187 59.02C168.659 58.892 168.179 58.716 167.747 58.492C167.331 58.268 166.995 58.028 166.739 57.772C166.499 57.516 166.379 57.276 166.379 57.052C166.379 56.828 166.411 56.636 166.475 56.476C166.555 56.316 166.667 56.156 166.811 55.996C167.003 55.804 167.155 55.66 167.267 55.564C167.395 55.468 167.563 55.42 167.771 55.42C167.947 55.42 168.115 55.484 168.275 55.612C168.451 55.74 168.651 55.884 168.875 56.044C169.099 56.204 169.371 56.348 169.691 56.476C170.011 56.604 170.419 56.668 170.915 56.668C171.331 56.668 171.715 56.596 172.067 56.452C172.419 56.308 172.715 56.092 172.955 55.804C173.211 55.532 173.411 55.204 173.555 54.82C173.699 54.436 173.771 54.004 173.771 53.524L173.747 43.588C173.779 43.22 173.907 42.964 174.131 42.82C174.355 42.66 174.699 42.58 175.163 42.58C175.595 42.58 175.907 42.644 176.099 42.772C176.291 42.884 176.411 43.052 176.459 43.276C176.507 43.484 176.531 43.716 176.531 43.972V53.692C176.531 54.572 176.379 55.356 176.075 56.044C175.771 56.732 175.355 57.308 174.827 57.772C174.299 58.252 173.691 58.612 173.003 58.852C172.331 59.108 171.611 59.236 170.843 59.236ZM170.579 54.124C169.827 54.124 169.123 53.98 168.467 53.692C167.827 53.404 167.259 52.996 166.763 52.468C166.283 51.94 165.899 51.332 165.611 50.644C165.339 49.94 165.203 49.18 165.203 48.364C165.203 47.564 165.339 46.82 165.611 46.132C165.899 45.444 166.283 44.836 166.763 44.308C167.259 43.78 167.827 43.372 168.467 43.084C169.123 42.78 169.819 42.628 170.555 42.628C171.275 42.628 171.899 42.772 172.427 43.06C172.971 43.332 173.419 43.724 173.771 44.236C174.123 44.748 174.387 45.356 174.563 46.06C174.755 46.764 174.851 47.54 174.851 48.388C174.851 49.556 174.691 50.572 174.371 51.436C174.051 52.3 173.579 52.964 172.955 53.428C172.331 53.892 171.539 54.124 170.579 54.124ZM170.843 51.412C171.387 51.412 171.867 51.284 172.283 51.028C172.715 50.756 173.051 50.388 173.291 49.924C173.547 49.46 173.675 48.94 173.675 48.364C173.675 47.772 173.547 47.252 173.291 46.804C173.051 46.34 172.715 45.98 172.283 45.724C171.851 45.468 171.363 45.34 170.819 45.34C170.275 45.34 169.787 45.476 169.355 45.748C168.939 46.004 168.611 46.356 168.371 46.804C168.131 47.252 168.011 47.772 168.011 48.364C168.011 48.956 168.131 49.484 168.371 49.948C168.627 50.396 168.963 50.756 169.379 51.028C169.811 51.284 170.299 51.412 170.843 51.412ZM188.497 51.844C188.913 52.196 189.129 52.524 189.145 52.828C189.177 53.132 189.017 53.484 188.665 53.884C188.393 54.188 188.153 54.388 187.945 54.484C187.737 54.58 187.529 54.58 187.321 54.484C187.113 54.404 186.865 54.244 186.577 54.004L181.993 50.14V52.996C181.993 53.252 181.961 53.492 181.897 53.716C181.849 53.94 181.721 54.116 181.513 54.244C181.321 54.372 181.001 54.436 180.553 54.436C180.105 54.436 179.777 54.364 179.569 54.22C179.377 54.092 179.257 53.916 179.209 53.692C179.161 53.468 179.137 53.228 179.137 52.972V38.644C179.137 38.372 179.161 38.132 179.209 37.924C179.273 37.7 179.401 37.524 179.593 37.396C179.801 37.252 180.129 37.18 180.577 37.18C181.025 37.18 181.345 37.252 181.537 37.396C181.729 37.524 181.849 37.7 181.897 37.924C181.961 38.132 181.993 38.38 181.993 38.668V46.54L185.305 43.324C185.561 43.084 185.801 42.924 186.025 42.844C186.249 42.748 186.465 42.74 186.673 42.82C186.897 42.884 187.129 43.052 187.369 43.324C187.769 43.756 187.961 44.116 187.945 44.404C187.929 44.676 187.729 45.004 187.345 45.388L184.105 48.388L188.497 51.844ZM195.188 54.412C194.452 54.412 193.772 54.284 193.148 54.028C192.54 53.756 192.004 53.372 191.54 52.876C191.076 52.38 190.716 51.788 190.46 51.1C190.204 50.412 190.076 49.652 190.076 48.82V44.044C190.076 43.772 190.1 43.532 190.148 43.324C190.196 43.1 190.324 42.924 190.532 42.796C190.74 42.668 191.06 42.604 191.492 42.604C191.956 42.604 192.284 42.668 192.476 42.796C192.684 42.924 192.812 43.1 192.86 43.324C192.908 43.548 192.932 43.796 192.932 44.068V48.82C192.932 49.396 193.028 49.892 193.22 50.308C193.428 50.724 193.724 51.052 194.108 51.292C194.492 51.516 194.964 51.628 195.524 51.628C196.1 51.628 196.588 51.516 196.988 51.292C197.404 51.052 197.724 50.724 197.948 50.308C198.172 49.876 198.284 49.38 198.284 48.82V44.02C198.284 43.748 198.308 43.508 198.356 43.3C198.404 43.076 198.532 42.908 198.74 42.796C198.948 42.668 199.276 42.604 199.724 42.604C200.172 42.604 200.492 42.668 200.684 42.796C200.876 42.924 200.996 43.1 201.044 43.324C201.108 43.548 201.14 43.788 201.14 44.044V53.044C201.14 53.284 201.108 53.508 201.044 53.716C200.996 53.924 200.868 54.092 200.66 54.22C200.468 54.348 200.148 54.412 199.7 54.412C199.38 54.412 199.124 54.372 198.932 54.292C198.756 54.228 198.62 54.14 198.524 54.028C198.444 53.9 198.388 53.772 198.356 53.644C198.34 53.516 198.332 53.388 198.332 53.26L198.524 52.612C198.428 52.756 198.284 52.932 198.092 53.14C197.9 53.332 197.66 53.532 197.372 53.74C197.1 53.932 196.78 54.092 196.412 54.22C196.044 54.348 195.636 54.412 195.188 54.412ZM204.927 54.412C204.495 54.412 204.175 54.34 203.967 54.196C203.775 54.068 203.655 53.9 203.607 53.692C203.559 53.468 203.535 53.22 203.535 52.948V43.972C203.535 43.716 203.559 43.484 203.607 43.276C203.655 43.068 203.783 42.908 203.991 42.796C204.199 42.668 204.519 42.604 204.951 42.604C205.335 42.604 205.623 42.652 205.815 42.748C206.007 42.844 206.135 42.964 206.199 43.108C206.263 43.252 206.295 43.396 206.295 43.54C206.311 43.684 206.327 43.796 206.343 43.876L206.247 44.644C206.343 44.388 206.503 44.14 206.727 43.9C206.951 43.66 207.223 43.444 207.543 43.252C207.863 43.044 208.207 42.884 208.575 42.772C208.959 42.644 209.351 42.58 209.751 42.58C210.503 42.58 211.175 42.716 211.767 42.988C212.359 43.26 212.863 43.644 213.279 44.14C213.711 44.636 214.039 45.228 214.263 45.916C214.487 46.588 214.599 47.348 214.599 48.196V52.972C214.599 53.244 214.567 53.492 214.503 53.716C214.455 53.924 214.335 54.092 214.143 54.22C213.951 54.348 213.623 54.412 213.159 54.412C212.711 54.412 212.383 54.34 212.175 54.196C211.967 54.068 211.839 53.9 211.791 53.692C211.743 53.468 211.719 53.22 211.719 52.948V48.172C211.719 47.596 211.615 47.1 211.407 46.684C211.215 46.268 210.927 45.948 210.543 45.724C210.175 45.5 209.703 45.388 209.127 45.388C208.567 45.388 208.079 45.508 207.663 45.748C207.247 45.972 206.927 46.292 206.703 46.708C206.479 47.124 206.367 47.612 206.367 48.172V52.972C206.367 53.244 206.343 53.492 206.295 53.716C206.247 53.924 206.119 54.092 205.911 54.22C205.719 54.348 205.391 54.412 204.927 54.412ZM222.101 59.236C221.525 59.236 220.973 59.164 220.445 59.02C219.917 58.892 219.437 58.716 219.005 58.492C218.589 58.268 218.253 58.028 217.997 57.772C217.757 57.516 217.637 57.276 217.637 57.052C217.637 56.828 217.669 56.636 217.733 56.476C217.813 56.316 217.925 56.156 218.069 55.996C218.261 55.804 218.413 55.66 218.525 55.564C218.653 55.468 218.821 55.42 219.029 55.42C219.205 55.42 219.373 55.484 219.533 55.612C219.709 55.74 219.909 55.884 220.133 56.044C220.357 56.204 220.629 56.348 220.949 56.476C221.269 56.604 221.677 56.668 222.173 56.668C222.589 56.668 222.973 56.596 223.325 56.452C223.677 56.308 223.973 56.092 224.213 55.804C224.469 55.532 224.669 55.204 224.813 54.82C224.957 54.436 225.029 54.004 225.029 53.524L225.005 43.588C225.037 43.22 225.165 42.964 225.389 42.82C225.613 42.66 225.957 42.58 226.421 42.58C226.853 42.58 227.165 42.644 227.357 42.772C227.549 42.884 227.669 43.052 227.717 43.276C227.765 43.484 227.789 43.716 227.789 43.972V53.692C227.789 54.572 227.637 55.356 227.333 56.044C227.029 56.732 226.613 57.308 226.085 57.772C225.557 58.252 224.949 58.612 224.261 58.852C223.589 59.108 222.869 59.236 222.101 59.236ZM221.837 54.124C221.085 54.124 220.381 53.98 219.725 53.692C219.085 53.404 218.517 52.996 218.021 52.468C217.541 51.94 217.157 51.332 216.869 50.644C216.597 49.94 216.461 49.18 216.461 48.364C216.461 47.564 216.597 46.82 216.869 46.132C217.157 45.444 217.541 44.836 218.021 44.308C218.517 43.78 219.085 43.372 219.725 43.084C220.381 42.78 221.077 42.628 221.813 42.628C222.533 42.628 223.157 42.772 223.685 43.06C224.229 43.332 224.677 43.724 225.029 44.236C225.381 44.748 225.645 45.356 225.821 46.06C226.013 46.764 226.109 47.54 226.109 48.388C226.109 49.556 225.949 50.572 225.629 51.436C225.309 52.3 224.837 52.964 224.213 53.428C223.589 53.892 222.797 54.124 221.837 54.124ZM222.101 51.412C222.645 51.412 223.125 51.284 223.541 51.028C223.973 50.756 224.309 50.388 224.549 49.924C224.805 49.46 224.933 48.94 224.933 48.364C224.933 47.772 224.805 47.252 224.549 46.804C224.309 46.34 223.973 45.98 223.541 45.724C223.109 45.468 222.621 45.34 222.077 45.34C221.533 45.34 221.045 45.476 220.613 45.748C220.197 46.004 219.869 46.356 219.629 46.804C219.389 47.252 219.269 47.772 219.269 48.364C219.269 48.956 219.389 49.484 219.629 49.948C219.885 50.396 220.221 50.756 220.637 51.028C221.069 51.284 221.557 51.412 222.101 51.412ZM239.953 54.388C239.489 54.388 239.145 54.3 238.921 54.124C238.697 53.948 238.585 53.708 238.585 53.404L238.753 52.612C238.625 52.82 238.409 53.068 238.105 53.356C237.801 53.628 237.401 53.876 236.905 54.1C236.409 54.308 235.809 54.412 235.105 54.412C234.353 54.412 233.641 54.26 232.969 53.956C232.313 53.636 231.729 53.204 231.217 52.66C230.721 52.1 230.321 51.468 230.017 50.764C229.729 50.044 229.585 49.276 229.585 48.46C229.585 47.676 229.729 46.94 230.017 46.252C230.321 45.548 230.729 44.924 231.241 44.38C231.753 43.836 232.337 43.412 232.993 43.108C233.665 42.788 234.369 42.628 235.105 42.628C235.761 42.628 236.313 42.716 236.761 42.892C237.225 43.068 237.617 43.292 237.937 43.564C238.257 43.82 238.521 44.092 238.729 44.38L238.585 43.684C238.585 43.332 238.697 43.068 238.921 42.892C239.145 42.7 239.497 42.604 239.977 42.604C240.425 42.604 240.745 42.676 240.937 42.82C241.129 42.948 241.249 43.132 241.297 43.372C241.345 43.596 241.369 43.852 241.369 44.14V52.924C241.369 53.196 241.345 53.444 241.297 53.668C241.249 53.892 241.121 54.068 240.913 54.196C240.721 54.324 240.401 54.388 239.953 54.388ZM235.537 51.604C236.081 51.604 236.569 51.468 237.001 51.196C237.433 50.924 237.777 50.556 238.033 50.092C238.305 49.612 238.441 49.084 238.441 48.508C238.441 47.884 238.305 47.34 238.033 46.876C237.761 46.412 237.401 46.052 236.953 45.796C236.521 45.524 236.033 45.388 235.489 45.388C234.897 45.388 234.369 45.532 233.905 45.82C233.441 46.092 233.073 46.468 232.801 46.948C232.545 47.412 232.417 47.94 232.417 48.532C232.417 49.108 232.553 49.628 232.825 50.092C233.097 50.556 233.465 50.924 233.929 51.196C234.409 51.468 234.945 51.604 235.537 51.604ZM245.193 54.412C244.761 54.412 244.441 54.34 244.233 54.196C244.041 54.068 243.921 53.9 243.873 53.692C243.825 53.468 243.801 53.22 243.801 52.948V43.972C243.801 43.716 243.825 43.484 243.873 43.276C243.921 43.068 244.049 42.908 244.257 42.796C244.465 42.668 244.785 42.604 245.217 42.604C245.601 42.604 245.889 42.652 246.081 42.748C246.273 42.844 246.401 42.964 246.465 43.108C246.529 43.252 246.561 43.396 246.561 43.54C246.577 43.684 246.593 43.796 246.609 43.876L246.513 44.644C246.609 44.388 246.769 44.14 246.993 43.9C247.217 43.66 247.489 43.444 247.809 43.252C248.129 43.044 248.473 42.884 248.841 42.772C249.225 42.644 249.617 42.58 250.017 42.58C250.769 42.58 251.441 42.716 252.033 42.988C252.625 43.26 253.129 43.644 253.545 44.14C253.977 44.636 254.305 45.228 254.529 45.916C254.753 46.588 254.865 47.348 254.865 48.196V52.972C254.865 53.244 254.833 53.492 254.769 53.716C254.721 53.924 254.601 54.092 254.409 54.22C254.217 54.348 253.889 54.412 253.425 54.412C252.977 54.412 252.649 54.34 252.441 54.196C252.233 54.068 252.105 53.9 252.057 53.692C252.009 53.468 251.985 53.22 251.985 52.948V48.172C251.985 47.596 251.881 47.1 251.673 46.684C251.481 46.268 251.193 45.948 250.809 45.724C250.441 45.5 249.969 45.388 249.393 45.388C248.833 45.388 248.345 45.508 247.929 45.748C247.513 45.972 247.193 46.292 246.969 46.708C246.745 47.124 246.633 47.612 246.633 48.172V52.972C246.633 53.244 246.609 53.492 246.561 53.716C246.513 53.924 246.385 54.092 246.177 54.22C245.985 54.348 245.657 54.412 245.193 54.412ZM272.567 51.844C272.983 52.196 273.199 52.524 273.215 52.828C273.247 53.132 273.087 53.484 272.735 53.884C272.463 54.188 272.223 54.388 272.015 54.484C271.807 54.58 271.599 54.58 271.391 54.484C271.183 54.404 270.935 54.244 270.647 54.004L266.063 50.14V52.996C266.063 53.252 266.031 53.492 265.967 53.716C265.919 53.94 265.791 54.116 265.583 54.244C265.391 54.372 265.071 54.436 264.623 54.436C264.175 54.436 263.847 54.364 263.639 54.22C263.447 54.092 263.327 53.916 263.279 53.692C263.231 53.468 263.207 53.228 263.207 52.972V38.644C263.207 38.372 263.231 38.132 263.279 37.924C263.343 37.7 263.471 37.524 263.663 37.396C263.871 37.252 264.199 37.18 264.647 37.18C265.095 37.18 265.415 37.252 265.607 37.396C265.799 37.524 265.919 37.7 265.967 37.924C266.031 38.132 266.063 38.38 266.063 38.668V46.54L269.375 43.324C269.631 43.084 269.871 42.924 270.095 42.844C270.319 42.748 270.535 42.74 270.743 42.82C270.967 42.884 271.199 43.052 271.439 43.324C271.839 43.756 272.031 44.116 272.015 44.404C271.999 44.676 271.799 45.004 271.415 45.388L268.175 48.388L272.567 51.844ZM280.075 54.58C279.035 54.58 278.123 54.412 277.339 54.076C276.571 53.74 275.923 53.284 275.395 52.708C274.883 52.116 274.491 51.46 274.219 50.74C273.963 50.004 273.835 49.244 273.835 48.46C273.835 47.308 274.099 46.284 274.627 45.388C275.155 44.492 275.883 43.788 276.811 43.276C277.755 42.764 278.835 42.508 280.051 42.508C280.915 42.508 281.675 42.644 282.331 42.916C282.987 43.188 283.531 43.548 283.963 43.996C284.411 44.428 284.747 44.908 284.971 45.436C285.211 45.964 285.331 46.476 285.331 46.972C285.331 47.82 285.123 48.436 284.707 48.82C284.307 49.204 283.803 49.396 283.195 49.396H276.859C276.875 49.94 277.043 50.412 277.363 50.812C277.699 51.212 278.115 51.524 278.611 51.748C279.123 51.956 279.643 52.06 280.171 52.06C280.571 52.06 280.923 52.036 281.227 51.988C281.547 51.94 281.819 51.884 282.043 51.82C282.267 51.74 282.459 51.66 282.619 51.58C282.795 51.5 282.955 51.428 283.099 51.364C283.243 51.3 283.379 51.26 283.507 51.244C283.683 51.228 283.859 51.268 284.035 51.364C284.211 51.46 284.355 51.628 284.467 51.868C284.563 52.028 284.627 52.18 284.659 52.324C284.707 52.452 284.731 52.58 284.731 52.708C284.731 53.028 284.539 53.332 284.155 53.62C283.771 53.892 283.227 54.116 282.523 54.292C281.835 54.484 281.019 54.58 280.075 54.58ZM276.859 47.692H281.779C282.051 47.692 282.259 47.652 282.403 47.572C282.547 47.476 282.619 47.284 282.619 46.996C282.619 46.628 282.507 46.3 282.283 46.012C282.059 45.708 281.755 45.476 281.371 45.316C280.987 45.14 280.539 45.052 280.027 45.052C279.435 45.052 278.899 45.172 278.419 45.412C277.939 45.636 277.555 45.948 277.267 46.348C276.995 46.748 276.859 47.196 276.859 47.692ZM291.428 54.436C290.836 54.436 290.308 54.396 289.844 54.316C289.396 54.236 289.004 54.1 288.668 53.908C288.348 53.716 288.084 53.46 287.876 53.14C287.668 52.804 287.508 52.396 287.396 51.916C287.3 51.436 287.252 50.86 287.252 50.188V38.62C287.252 38.348 287.276 38.108 287.324 37.9C287.388 37.676 287.516 37.5 287.708 37.372C287.916 37.228 288.244 37.156 288.692 37.156C289.14 37.156 289.46 37.22 289.652 37.348C289.86 37.476 289.988 37.652 290.036 37.876C290.1 38.084 290.132 38.324 290.132 38.596V50.068C290.132 50.372 290.148 50.628 290.18 50.836C290.228 51.028 290.3 51.188 290.396 51.316C290.508 51.428 290.644 51.508 290.804 51.556C290.98 51.604 291.188 51.628 291.428 51.628C291.636 51.628 291.82 51.652 291.98 51.7C292.156 51.748 292.292 51.868 292.388 52.06C292.5 52.252 292.556 52.564 292.556 52.996C292.556 53.444 292.5 53.772 292.388 53.98C292.292 54.188 292.156 54.316 291.98 54.364C291.804 54.412 291.62 54.436 291.428 54.436ZM298.946 54.412C298.21 54.412 297.53 54.284 296.906 54.028C296.298 53.756 295.762 53.372 295.298 52.876C294.834 52.38 294.474 51.788 294.218 51.1C293.962 50.412 293.834 49.652 293.834 48.82V44.044C293.834 43.772 293.858 43.532 293.906 43.324C293.954 43.1 294.082 42.924 294.29 42.796C294.498 42.668 294.818 42.604 295.25 42.604C295.714 42.604 296.042 42.668 296.234 42.796C296.442 42.924 296.57 43.1 296.618 43.324C296.666 43.548 296.69 43.796 296.69 44.068V48.82C296.69 49.396 296.786 49.892 296.978 50.308C297.186 50.724 297.482 51.052 297.866 51.292C298.25 51.516 298.722 51.628 299.282 51.628C299.858 51.628 300.346 51.516 300.746 51.292C301.162 51.052 301.482 50.724 301.706 50.308C301.93 49.876 302.042 49.38 302.042 48.82V44.02C302.042 43.748 302.066 43.508 302.114 43.3C302.162 43.076 302.29 42.908 302.498 42.796C302.706 42.668 303.034 42.604 303.482 42.604C303.93 42.604 304.25 42.668 304.442 42.796C304.634 42.924 304.754 43.1 304.802 43.324C304.866 43.548 304.898 43.788 304.898 44.044V53.044C304.898 53.284 304.866 53.508 304.802 53.716C304.754 53.924 304.626 54.092 304.418 54.22C304.226 54.348 303.906 54.412 303.458 54.412C303.138 54.412 302.882 54.372 302.69 54.292C302.514 54.228 302.378 54.14 302.282 54.028C302.202 53.9 302.146 53.772 302.114 53.644C302.098 53.516 302.09 53.388 302.09 53.26L302.282 52.612C302.186 52.756 302.042 52.932 301.85 53.14C301.658 53.332 301.418 53.532 301.13 53.74C300.858 53.932 300.538 54.092 300.17 54.22C299.802 54.348 299.394 54.412 298.946 54.412ZM317.109 54.388C316.645 54.388 316.301 54.3 316.077 54.124C315.853 53.948 315.741 53.708 315.741 53.404L315.909 52.612C315.781 52.82 315.565 53.068 315.261 53.356C314.957 53.628 314.557 53.876 314.061 54.1C313.565 54.308 312.965 54.412 312.261 54.412C311.509 54.412 310.797 54.26 310.125 53.956C309.469 53.636 308.885 53.204 308.373 52.66C307.877 52.1 307.477 51.468 307.173 50.764C306.885 50.044 306.741 49.276 306.741 48.46C306.741 47.676 306.885 46.94 307.173 46.252C307.477 45.548 307.885 44.924 308.397 44.38C308.909 43.836 309.493 43.412 310.149 43.108C310.821 42.788 311.525 42.628 312.261 42.628C312.917 42.628 313.469 42.716 313.917 42.892C314.381 43.068 314.773 43.292 315.093 43.564C315.413 43.82 315.677 44.092 315.885 44.38L315.741 43.684C315.741 43.332 315.853 43.068 316.077 42.892C316.301 42.7 316.653 42.604 317.133 42.604C317.581 42.604 317.901 42.676 318.093 42.82C318.285 42.948 318.405 43.132 318.453 43.372C318.501 43.596 318.525 43.852 318.525 44.14V52.924C318.525 53.196 318.501 53.444 318.453 53.668C318.405 53.892 318.277 54.068 318.069 54.196C317.877 54.324 317.557 54.388 317.109 54.388ZM312.693 51.604C313.237 51.604 313.725 51.468 314.157 51.196C314.589 50.924 314.933 50.556 315.189 50.092C315.461 49.612 315.597 49.084 315.597 48.508C315.597 47.884 315.461 47.34 315.189 46.876C314.917 46.412 314.557 46.052 314.109 45.796C313.677 45.524 313.189 45.388 312.645 45.388C312.053 45.388 311.525 45.532 311.061 45.82C310.597 46.092 310.229 46.468 309.957 46.948C309.701 47.412 309.573 47.94 309.573 48.532C309.573 49.108 309.709 49.628 309.981 50.092C310.253 50.556 310.621 50.924 311.085 51.196C311.565 51.468 312.101 51.604 312.693 51.604ZM322.349 54.436C321.917 54.436 321.597 54.364 321.389 54.22C321.197 54.092 321.077 53.916 321.029 53.692C320.981 53.468 320.957 53.22 320.957 52.948V44.044C320.957 43.756 320.981 43.508 321.029 43.3C321.077 43.076 321.197 42.908 321.389 42.796C321.597 42.668 321.925 42.604 322.373 42.604C322.805 42.604 323.117 42.66 323.309 42.772C323.517 42.884 323.645 43.028 323.693 43.204C323.757 43.364 323.789 43.524 323.789 43.684L323.597 44.116C323.677 43.988 323.789 43.836 323.933 43.66C324.077 43.468 324.269 43.284 324.509 43.108C324.749 42.916 325.037 42.764 325.373 42.652C325.709 42.524 326.109 42.46 326.573 42.46C326.765 42.46 326.965 42.484 327.173 42.532C327.397 42.564 327.613 42.62 327.821 42.7C328.045 42.764 328.245 42.852 328.421 42.964C328.597 43.076 328.733 43.212 328.829 43.372C328.925 43.516 328.973 43.684 328.973 43.876C328.973 44.388 328.845 44.82 328.589 45.172C328.333 45.524 328.029 45.7 327.677 45.7C327.437 45.7 327.261 45.676 327.149 45.628C327.037 45.58 326.941 45.524 326.861 45.46C326.797 45.396 326.693 45.34 326.549 45.292C326.421 45.244 326.213 45.22 325.925 45.22C325.685 45.22 325.437 45.26 325.181 45.34C324.941 45.42 324.717 45.54 324.509 45.7C324.301 45.86 324.133 46.068 324.005 46.324C323.877 46.564 323.813 46.844 323.813 47.164V52.996C323.813 53.268 323.789 53.516 323.741 53.74C323.693 53.948 323.565 54.116 323.357 54.244C323.149 54.372 322.813 54.436 322.349 54.436ZM335.327 59.236C334.751 59.236 334.199 59.164 333.671 59.02C333.143 58.892 332.663 58.716 332.231 58.492C331.815 58.268 331.479 58.028 331.223 57.772C330.983 57.516 330.863 57.276 330.863 57.052C330.863 56.828 330.895 56.636 330.959 56.476C331.039 56.316 331.151 56.156 331.295 55.996C331.487 55.804 331.639 55.66 331.751 55.564C331.879 55.468 332.047 55.42 332.255 55.42C332.431 55.42 332.599 55.484 332.759 55.612C332.935 55.74 333.135 55.884 333.359 56.044C333.583 56.204 333.855 56.348 334.175 56.476C334.495 56.604 334.903 56.668 335.399 56.668C335.815 56.668 336.199 56.596 336.551 56.452C336.903 56.308 337.199 56.092 337.439 55.804C337.695 55.532 337.895 55.204 338.039 54.82C338.183 54.436 338.255 54.004 338.255 53.524L338.231 43.588C338.263 43.22 338.391 42.964 338.615 42.82C338.839 42.66 339.183 42.58 339.647 42.58C340.079 42.58 340.391 42.644 340.583 42.772C340.775 42.884 340.895 43.052 340.943 43.276C340.991 43.484 341.015 43.716 341.015 43.972V53.692C341.015 54.572 340.863 55.356 340.559 56.044C340.255 56.732 339.839 57.308 339.311 57.772C338.783 58.252 338.175 58.612 337.487 58.852C336.815 59.108 336.095 59.236 335.327 59.236ZM335.063 54.124C334.311 54.124 333.607 53.98 332.951 53.692C332.311 53.404 331.743 52.996 331.247 52.468C330.767 51.94 330.383 51.332 330.095 50.644C329.823 49.94 329.687 49.18 329.687 48.364C329.687 47.564 329.823 46.82 330.095 46.132C330.383 45.444 330.767 44.836 331.247 44.308C331.743 43.78 332.311 43.372 332.951 43.084C333.607 42.78 334.303 42.628 335.039 42.628C335.759 42.628 336.383 42.772 336.911 43.06C337.455 43.332 337.903 43.724 338.255 44.236C338.607 44.748 338.871 45.356 339.047 46.06C339.239 46.764 339.335 47.54 339.335 48.388C339.335 49.556 339.175 50.572 338.855 51.436C338.535 52.3 338.063 52.964 337.439 53.428C336.815 53.892 336.023 54.124 335.063 54.124ZM335.327 51.412C335.871 51.412 336.351 51.284 336.767 51.028C337.199 50.756 337.535 50.388 337.775 49.924C338.031 49.46 338.159 48.94 338.159 48.364C338.159 47.772 338.031 47.252 337.775 46.804C337.535 46.34 337.199 45.98 336.767 45.724C336.335 45.468 335.847 45.34 335.303 45.34C334.759 45.34 334.271 45.476 333.839 45.748C333.423 46.004 333.095 46.356 332.855 46.804C332.615 47.252 332.495 47.772 332.495 48.364C332.495 48.956 332.615 49.484 332.855 49.948C333.111 50.396 333.447 50.756 333.863 51.028C334.295 51.284 334.783 51.412 335.327 51.412ZM353.179 54.388C352.715 54.388 352.371 54.3 352.147 54.124C351.923 53.948 351.811 53.708 351.811 53.404L351.979 52.612C351.851 52.82 351.635 53.068 351.331 53.356C351.027 53.628 350.627 53.876 350.131 54.1C349.635 54.308 349.035 54.412 348.331 54.412C347.579 54.412 346.867 54.26 346.195 53.956C345.539 53.636 344.955 53.204 344.443 52.66C343.947 52.1 343.547 51.468 343.243 50.764C342.955 50.044 342.811 49.276 342.811 48.46C342.811 47.676 342.955 46.94 343.243 46.252C343.547 45.548 343.955 44.924 344.467 44.38C344.979 43.836 345.563 43.412 346.219 43.108C346.891 42.788 347.595 42.628 348.331 42.628C348.987 42.628 349.539 42.716 349.987 42.892C350.451 43.068 350.843 43.292 351.163 43.564C351.483 43.82 351.747 44.092 351.955 44.38L351.811 43.684C351.811 43.332 351.923 43.068 352.147 42.892C352.371 42.7 352.723 42.604 353.203 42.604C353.651 42.604 353.971 42.676 354.163 42.82C354.355 42.948 354.475 43.132 354.523 43.372C354.571 43.596 354.595 43.852 354.595 44.14V52.924C354.595 53.196 354.571 53.444 354.523 53.668C354.475 53.892 354.347 54.068 354.139 54.196C353.947 54.324 353.627 54.388 353.179 54.388ZM348.763 51.604C349.307 51.604 349.795 51.468 350.227 51.196C350.659 50.924 351.003 50.556 351.259 50.092C351.531 49.612 351.667 49.084 351.667 48.508C351.667 47.884 351.531 47.34 351.259 46.876C350.987 46.412 350.627 46.052 350.179 45.796C349.747 45.524 349.259 45.388 348.715 45.388C348.123 45.388 347.595 45.532 347.131 45.82C346.667 46.092 346.299 46.468 346.027 46.948C345.771 47.412 345.643 47.94 345.643 48.532C345.643 49.108 345.779 49.628 346.051 50.092C346.323 50.556 346.691 50.924 347.155 51.196C347.635 51.468 348.171 51.604 348.763 51.604ZM357.147 56.908C357.147 56.908 357.115 56.892 357.051 56.86C356.987 56.844 356.923 56.78 356.859 56.668C356.795 56.572 356.763 56.412 356.763 56.188C356.763 55.884 356.811 55.684 356.907 55.588C357.003 55.508 357.067 55.46 357.099 55.444C357.115 55.428 357.227 55.332 357.435 55.156C357.643 54.996 357.763 54.716 357.795 54.316C357.635 54.284 357.491 54.244 357.363 54.196C357.251 54.132 357.155 54.06 357.075 53.98C356.915 53.82 356.819 53.636 356.787 53.428C356.755 53.204 356.739 52.98 356.739 52.756C356.739 52.388 356.779 52.084 356.859 51.844C356.939 51.604 357.091 51.428 357.315 51.316C357.555 51.188 357.907 51.124 358.371 51.124C358.979 51.124 359.411 51.252 359.667 51.508C359.811 51.652 359.891 51.836 359.907 52.06C359.939 52.284 359.955 52.508 359.955 52.732C359.955 52.892 359.955 53.028 359.955 53.14C359.955 53.236 359.947 53.324 359.931 53.404C359.867 54.044 359.699 54.628 359.427 55.156C359.171 55.684 358.843 56.108 358.443 56.428C358.059 56.748 357.627 56.908 357.147 56.908ZM358.323 46.492C357.715 46.492 357.291 46.372 357.051 46.132C356.827 45.876 356.715 45.468 356.715 44.908C356.715 44.492 356.755 44.164 356.835 43.924C356.931 43.684 357.099 43.516 357.339 43.42C357.595 43.308 357.931 43.252 358.347 43.252C358.971 43.252 359.395 43.372 359.619 43.612C359.843 43.852 359.955 44.276 359.955 44.884C359.955 45.172 359.923 45.444 359.859 45.7C359.795 45.94 359.651 46.132 359.427 46.276C359.203 46.42 358.835 46.492 358.323 46.492ZM96.0726 83.412C95.6566 83.412 95.3446 83.34 95.1366 83.196C94.9286 83.068 94.7926 82.892 94.7286 82.668C94.6646 82.444 94.6326 82.204 94.6326 81.948V68.076C94.6326 67.82 94.6566 67.588 94.7046 67.38C94.7686 67.156 94.9046 66.98 95.1126 66.852C95.3206 66.708 95.6486 66.636 96.0966 66.636L100.609 66.66C101.777 66.66 102.849 66.86 103.825 67.26C104.817 67.66 105.673 68.228 106.393 68.964C107.113 69.7 107.665 70.58 108.049 71.604C108.449 72.612 108.649 73.724 108.649 74.94C108.649 76.188 108.449 77.332 108.049 78.372C107.649 79.412 107.089 80.308 106.369 81.06C105.649 81.812 104.793 82.396 103.801 82.812C102.825 83.212 101.737 83.412 100.537 83.412H96.0726ZM97.5366 80.508H100.609C101.633 80.508 102.529 80.284 103.297 79.836C104.065 79.372 104.657 78.732 105.073 77.916C105.505 77.1 105.721 76.148 105.721 75.06C105.721 73.956 105.505 72.996 105.073 72.18C104.657 71.348 104.057 70.708 103.273 70.26C102.505 69.796 101.609 69.564 100.585 69.564H97.5366V80.508ZM120.761 83.388C120.297 83.388 119.953 83.3 119.729 83.124C119.505 82.948 119.393 82.708 119.393 82.404L119.561 81.612C119.433 81.82 119.217 82.068 118.913 82.356C118.609 82.628 118.209 82.876 117.713 83.1C117.217 83.308 116.617 83.412 115.913 83.412C115.161 83.412 114.449 83.26 113.777 82.956C113.121 82.636 112.537 82.204 112.025 81.66C111.529 81.1 111.129 80.468 110.825 79.764C110.537 79.044 110.393 78.276 110.393 77.46C110.393 76.676 110.537 75.94 110.825 75.252C111.129 74.548 111.537 73.924 112.049 73.38C112.561 72.836 113.145 72.412 113.801 72.108C114.473 71.788 115.177 71.628 115.913 71.628C116.569 71.628 117.121 71.716 117.569 71.892C118.033 72.068 118.425 72.292 118.745 72.564C119.065 72.82 119.329 73.092 119.537 73.38L119.393 72.684C119.393 72.332 119.505 72.068 119.729 71.892C119.953 71.7 120.305 71.604 120.785 71.604C121.233 71.604 121.553 71.676 121.745 71.82C121.937 71.948 122.057 72.132 122.105 72.372C122.153 72.596 122.177 72.852 122.177 73.14V81.924C122.177 82.196 122.153 82.444 122.105 82.668C122.057 82.892 121.929 83.068 121.721 83.196C121.529 83.324 121.209 83.388 120.761 83.388ZM116.345 80.604C116.889 80.604 117.377 80.468 117.809 80.196C118.241 79.924 118.585 79.556 118.841 79.092C119.113 78.612 119.249 78.084 119.249 77.508C119.249 76.884 119.113 76.34 118.841 75.876C118.569 75.412 118.209 75.052 117.761 74.796C117.329 74.524 116.841 74.388 116.297 74.388C115.705 74.388 115.177 74.532 114.713 74.82C114.249 75.092 113.881 75.468 113.609 75.948C113.353 76.412 113.225 76.94 113.225 77.532C113.225 78.108 113.361 78.628 113.633 79.092C113.905 79.556 114.273 79.924 114.737 80.196C115.217 80.468 115.753 80.604 116.345 80.604ZM125.977 83.412C125.545 83.412 125.225 83.348 125.017 83.22C124.825 83.092 124.705 82.916 124.657 82.692C124.609 82.468 124.585 82.228 124.585 81.972V72.996C124.585 72.74 124.609 72.508 124.657 72.3C124.705 72.092 124.833 71.924 125.041 71.796C125.249 71.668 125.577 71.604 126.025 71.604C126.489 71.604 126.825 71.7 127.033 71.892C127.257 72.084 127.369 72.388 127.369 72.804L127.153 73.476C127.233 73.3 127.369 73.108 127.561 72.9C127.753 72.692 127.985 72.484 128.257 72.276C128.545 72.068 128.865 71.9 129.217 71.772C129.569 71.644 129.937 71.58 130.321 71.58C130.849 71.58 131.329 71.668 131.761 71.844C132.209 72.02 132.601 72.276 132.937 72.612C133.289 72.948 133.593 73.356 133.849 73.836C134.121 73.42 134.425 73.044 134.761 72.708C135.097 72.356 135.489 72.084 135.937 71.892C136.385 71.684 136.889 71.58 137.449 71.58C138.377 71.58 139.153 71.812 139.777 72.276C140.417 72.74 140.897 73.404 141.217 74.268C141.553 75.116 141.721 76.132 141.721 77.316V81.972C141.721 82.244 141.689 82.492 141.625 82.716C141.577 82.924 141.449 83.092 141.241 83.22C141.049 83.348 140.729 83.412 140.281 83.412C139.833 83.412 139.505 83.34 139.297 83.196C139.089 83.068 138.961 82.9 138.913 82.692C138.865 82.468 138.841 82.22 138.841 81.948V77.292C138.841 76.7 138.769 76.188 138.625 75.756C138.481 75.324 138.265 74.988 137.977 74.748C137.705 74.508 137.345 74.388 136.897 74.388C136.417 74.388 136.001 74.508 135.649 74.748C135.313 74.972 135.049 75.3 134.857 75.732C134.665 76.164 134.569 76.692 134.569 77.316V81.996C134.569 82.268 134.529 82.524 134.449 82.764C134.369 82.988 134.209 83.156 133.969 83.268C133.745 83.396 133.417 83.444 132.985 83.412C132.585 83.396 132.289 83.316 132.097 83.172C131.921 83.028 131.809 82.852 131.761 82.644C131.729 82.42 131.713 82.188 131.713 81.948V77.292C131.713 76.7 131.641 76.188 131.497 75.756C131.353 75.308 131.137 74.972 130.849 74.748C130.577 74.508 130.209 74.388 129.745 74.388C129.249 74.388 128.825 74.516 128.473 74.772C128.137 75.028 127.881 75.372 127.705 75.804C127.529 76.236 127.441 76.732 127.441 77.292V81.996C127.441 82.252 127.409 82.492 127.345 82.716C127.297 82.94 127.169 83.108 126.961 83.22C126.769 83.348 126.441 83.412 125.977 83.412ZM150.204 83.268C149.42 83.268 148.716 83.124 148.092 82.836C147.484 82.532 146.964 82.116 146.532 81.588C146.116 81.044 145.796 80.42 145.572 79.716C145.364 79.012 145.26 78.252 145.26 77.436C145.276 76.62 145.396 75.86 145.62 75.156C145.844 74.436 146.164 73.812 146.58 73.284C147.012 72.756 147.532 72.34 148.14 72.036C148.748 71.732 149.436 71.58 150.204 71.58C150.94 71.58 151.628 71.732 152.268 72.036C152.924 72.34 153.5 72.764 153.996 73.308C154.508 73.852 154.908 74.484 155.196 75.204C155.484 75.908 155.628 76.668 155.628 77.484C155.628 78.316 155.484 79.084 155.196 79.788C154.908 80.492 154.516 81.108 154.02 81.636C153.524 82.148 152.948 82.548 152.292 82.836C151.636 83.124 150.94 83.268 150.204 83.268ZM145.404 88.26C144.972 88.26 144.652 88.196 144.444 88.068C144.236 87.94 144.108 87.772 144.06 87.564C144.012 87.356 143.988 87.116 143.988 86.844V73.044C143.988 72.772 144.012 72.532 144.06 72.324C144.108 72.116 144.228 71.948 144.42 71.82C144.628 71.676 144.948 71.604 145.38 71.604C145.796 71.604 146.124 71.668 146.364 71.796C146.604 71.924 146.764 72.14 146.844 72.444V86.82C146.86 87.092 146.836 87.332 146.772 87.54C146.724 87.764 146.596 87.94 146.388 88.068C146.18 88.196 145.852 88.26 145.404 88.26ZM149.82 80.58C150.38 80.58 150.884 80.452 151.332 80.196C151.78 79.924 152.132 79.556 152.388 79.092C152.66 78.612 152.796 78.076 152.796 77.484C152.796 76.876 152.66 76.34 152.388 75.876C152.132 75.412 151.78 75.052 151.332 74.796C150.884 74.524 150.38 74.388 149.82 74.388C149.276 74.388 148.78 74.524 148.332 74.796C147.884 75.068 147.524 75.436 147.252 75.9C146.996 76.348 146.868 76.876 146.868 77.484C146.868 78.076 146.996 78.612 147.252 79.092C147.524 79.556 147.884 79.924 148.332 80.196C148.78 80.452 149.276 80.58 149.82 80.58ZM167.495 83.388C167.031 83.388 166.687 83.3 166.463 83.124C166.239 82.948 166.127 82.708 166.127 82.404L166.295 81.612C166.167 81.82 165.951 82.068 165.647 82.356C165.343 82.628 164.943 82.876 164.447 83.1C163.951 83.308 163.351 83.412 162.647 83.412C161.895 83.412 161.183 83.26 160.511 82.956C159.855 82.636 159.271 82.204 158.759 81.66C158.263 81.1 157.863 80.468 157.559 79.764C157.271 79.044 157.127 78.276 157.127 77.46C157.127 76.676 157.271 75.94 157.559 75.252C157.863 74.548 158.271 73.924 158.783 73.38C159.295 72.836 159.879 72.412 160.535 72.108C161.207 71.788 161.911 71.628 162.647 71.628C163.303 71.628 163.855 71.716 164.303 71.892C164.767 72.068 165.159 72.292 165.479 72.564C165.799 72.82 166.063 73.092 166.271 73.38L166.127 72.684C166.127 72.332 166.239 72.068 166.463 71.892C166.687 71.7 167.039 71.604 167.519 71.604C167.967 71.604 168.287 71.676 168.479 71.82C168.671 71.948 168.791 72.132 168.839 72.372C168.887 72.596 168.911 72.852 168.911 73.14V81.924C168.911 82.196 168.887 82.444 168.839 82.668C168.791 82.892 168.663 83.068 168.455 83.196C168.263 83.324 167.943 83.388 167.495 83.388ZM163.079 80.604C163.623 80.604 164.111 80.468 164.543 80.196C164.975 79.924 165.319 79.556 165.575 79.092C165.847 78.612 165.983 78.084 165.983 77.508C165.983 76.884 165.847 76.34 165.575 75.876C165.303 75.412 164.943 75.052 164.495 74.796C164.063 74.524 163.575 74.388 163.031 74.388C162.439 74.388 161.911 74.532 161.447 74.82C160.983 75.092 160.615 75.468 160.343 75.948C160.087 76.412 159.959 76.94 159.959 77.532C159.959 78.108 160.095 78.628 160.367 79.092C160.639 79.556 161.007 79.924 161.471 80.196C161.951 80.468 162.487 80.604 163.079 80.604ZM180.728 80.844C181.144 81.196 181.36 81.524 181.376 81.828C181.408 82.132 181.248 82.484 180.896 82.884C180.624 83.188 180.384 83.388 180.176 83.484C179.968 83.58 179.76 83.58 179.552 83.484C179.344 83.404 179.096 83.244 178.808 83.004L174.224 79.14V81.996C174.224 82.252 174.192 82.492 174.128 82.716C174.08 82.94 173.952 83.116 173.744 83.244C173.552 83.372 173.232 83.436 172.784 83.436C172.336 83.436 172.008 83.364 171.8 83.22C171.608 83.092 171.488 82.916 171.44 82.692C171.392 82.468 171.368 82.228 171.368 81.972V67.644C171.368 67.372 171.392 67.132 171.44 66.924C171.504 66.7 171.632 66.524 171.824 66.396C172.032 66.252 172.36 66.18 172.808 66.18C173.256 66.18 173.576 66.252 173.768 66.396C173.96 66.524 174.08 66.7 174.128 66.924C174.192 67.132 174.224 67.38 174.224 67.668V75.54L177.536 72.324C177.792 72.084 178.032 71.924 178.256 71.844C178.48 71.748 178.696 71.74 178.904 71.82C179.128 71.884 179.36 72.052 179.6 72.324C180 72.756 180.192 73.116 180.176 73.404C180.16 73.676 179.96 74.004 179.576 74.388L176.336 77.388L180.728 80.844ZM195.274 83.268C194.49 83.268 193.786 83.124 193.162 82.836C192.554 82.532 192.034 82.116 191.602 81.588C191.186 81.044 190.866 80.42 190.642 79.716C190.434 79.012 190.33 78.252 190.33 77.436C190.346 76.62 190.466 75.86 190.69 75.156C190.914 74.436 191.234 73.812 191.65 73.284C192.082 72.756 192.602 72.34 193.21 72.036C193.818 71.732 194.506 71.58 195.274 71.58C196.01 71.58 196.698 71.732 197.338 72.036C197.994 72.34 198.57 72.764 199.066 73.308C199.578 73.852 199.978 74.484 200.266 75.204C200.554 75.908 200.698 76.668 200.698 77.484C200.698 78.316 200.554 79.084 200.266 79.788C199.978 80.492 199.586 81.108 199.09 81.636C198.594 82.148 198.018 82.548 197.362 82.836C196.706 83.124 196.01 83.268 195.274 83.268ZM190.474 88.26C190.042 88.26 189.722 88.196 189.514 88.068C189.306 87.94 189.178 87.772 189.13 87.564C189.082 87.356 189.058 87.116 189.058 86.844V73.044C189.058 72.772 189.082 72.532 189.13 72.324C189.178 72.116 189.298 71.948 189.49 71.82C189.698 71.676 190.018 71.604 190.45 71.604C190.866 71.604 191.194 71.668 191.434 71.796C191.674 71.924 191.834 72.14 191.914 72.444V86.82C191.93 87.092 191.906 87.332 191.842 87.54C191.794 87.764 191.666 87.94 191.458 88.068C191.25 88.196 190.922 88.26 190.474 88.26ZM194.89 80.58C195.45 80.58 195.954 80.452 196.402 80.196C196.85 79.924 197.202 79.556 197.458 79.092C197.73 78.612 197.866 78.076 197.866 77.484C197.866 76.876 197.73 76.34 197.458 75.876C197.202 75.412 196.85 75.052 196.402 74.796C195.954 74.524 195.45 74.388 194.89 74.388C194.346 74.388 193.85 74.524 193.402 74.796C192.954 75.068 192.594 75.436 192.322 75.9C192.066 76.348 191.938 76.876 191.938 77.484C191.938 78.076 192.066 78.612 192.322 79.092C192.594 79.556 192.954 79.924 193.402 80.196C193.85 80.452 194.346 80.58 194.89 80.58ZM206.83 83.58C206.414 83.58 205.974 83.532 205.51 83.436C205.046 83.356 204.598 83.236 204.166 83.076C203.734 82.9 203.358 82.7 203.038 82.476C202.734 82.236 202.542 81.972 202.462 81.684C202.398 81.524 202.374 81.372 202.39 81.228C202.406 81.068 202.454 80.908 202.534 80.748C202.614 80.572 202.734 80.396 202.894 80.22C203.038 80.044 203.182 79.948 203.326 79.932C203.486 79.9 203.686 79.948 203.926 80.076C204.134 80.156 204.358 80.26 204.598 80.388C204.854 80.516 205.11 80.644 205.366 80.772C205.638 80.9 205.91 81.004 206.182 81.084C206.47 81.164 206.75 81.204 207.022 81.204C207.614 81.204 208.086 81.108 208.438 80.916C208.79 80.708 208.966 80.42 208.966 80.052C208.966 79.844 208.91 79.66 208.798 79.5C208.686 79.34 208.534 79.212 208.342 79.116C208.166 79.004 207.95 78.908 207.694 78.828C207.454 78.732 207.19 78.652 206.902 78.588C206.63 78.508 206.342 78.42 206.038 78.324C205.638 78.212 205.238 78.076 204.838 77.916C204.438 77.756 204.078 77.548 203.758 77.292C203.454 77.036 203.206 76.716 203.014 76.332C202.822 75.948 202.726 75.468 202.726 74.892C202.726 74.172 202.894 73.564 203.23 73.068C203.582 72.556 204.086 72.164 204.742 71.892C205.398 71.62 206.19 71.484 207.118 71.484C207.438 71.484 207.742 71.508 208.03 71.556C208.334 71.604 208.622 71.676 208.894 71.772C209.182 71.852 209.454 71.956 209.71 72.084C209.982 72.212 210.238 72.356 210.478 72.516C210.878 72.74 211.086 73.004 211.102 73.308C211.118 73.596 211.006 73.908 210.766 74.244C210.59 74.468 210.414 74.628 210.238 74.724C210.062 74.804 209.878 74.804 209.686 74.724C209.43 74.596 209.15 74.46 208.846 74.316C208.558 74.156 208.254 74.02 207.934 73.908C207.63 73.796 207.31 73.74 206.974 73.74C206.654 73.74 206.366 73.788 206.11 73.884C205.854 73.98 205.662 74.116 205.534 74.292C205.406 74.468 205.342 74.676 205.342 74.916C205.342 75.14 205.406 75.324 205.534 75.468C205.662 75.612 205.83 75.732 206.038 75.828C206.246 75.924 206.494 76.012 206.782 76.092C207.07 76.156 207.374 76.22 207.694 76.284C208.142 76.38 208.598 76.5 209.062 76.644C209.526 76.788 209.95 76.988 210.334 77.244C210.734 77.5 211.054 77.844 211.294 78.276C211.534 78.692 211.654 79.236 211.654 79.908C211.654 81.076 211.222 81.98 210.358 82.62C209.51 83.26 208.334 83.58 206.83 83.58ZM215.277 83.436C214.845 83.436 214.525 83.364 214.317 83.22C214.109 83.092 213.981 82.924 213.933 82.716C213.885 82.492 213.861 82.244 213.861 81.972V73.044C213.861 72.788 213.885 72.556 213.933 72.348C213.997 72.124 214.125 71.948 214.317 71.82C214.525 71.692 214.853 71.628 215.301 71.628C215.749 71.628 216.069 71.692 216.261 71.82C216.469 71.948 216.597 72.124 216.645 72.348C216.693 72.572 216.717 72.82 216.717 73.092V81.996C216.717 82.268 216.693 82.516 216.645 82.74C216.597 82.948 216.469 83.116 216.261 83.244C216.069 83.372 215.741 83.436 215.277 83.436ZM215.277 69.3C214.813 69.3 214.469 69.236 214.245 69.108C214.037 68.964 213.901 68.772 213.837 68.532C213.789 68.292 213.765 68.028 213.765 67.74C213.765 67.436 213.789 67.172 213.837 66.948C213.901 66.724 214.045 66.548 214.269 66.42C214.493 66.276 214.837 66.204 215.301 66.204C215.781 66.204 216.125 66.276 216.333 66.42C216.541 66.564 216.677 66.756 216.741 66.996C216.805 67.22 216.837 67.484 216.837 67.788C216.837 68.06 216.805 68.316 216.741 68.556C216.677 68.796 216.541 68.98 216.333 69.108C216.125 69.236 215.773 69.3 215.277 69.3ZM228.751 80.844C229.167 81.196 229.383 81.524 229.399 81.828C229.431 82.132 229.271 82.484 228.919 82.884C228.647 83.188 228.407 83.388 228.199 83.484C227.991 83.58 227.783 83.58 227.575 83.484C227.367 83.404 227.119 83.244 226.831 83.004L222.247 79.14V81.996C222.247 82.252 222.215 82.492 222.151 82.716C222.103 82.94 221.975 83.116 221.767 83.244C221.575 83.372 221.255 83.436 220.807 83.436C220.359 83.436 220.031 83.364 219.823 83.22C219.631 83.092 219.511 82.916 219.463 82.692C219.415 82.468 219.391 82.228 219.391 81.972V67.644C219.391 67.372 219.415 67.132 219.463 66.924C219.527 66.7 219.655 66.524 219.847 66.396C220.055 66.252 220.383 66.18 220.831 66.18C221.279 66.18 221.599 66.252 221.791 66.396C221.983 66.524 222.103 66.7 222.151 66.924C222.215 67.132 222.247 67.38 222.247 67.668V75.54L225.559 72.324C225.815 72.084 226.055 71.924 226.279 71.844C226.503 71.748 226.719 71.74 226.927 71.82C227.151 71.884 227.383 72.052 227.623 72.324C228.023 72.756 228.215 73.116 228.199 73.404C228.183 73.676 227.983 74.004 227.599 74.388L224.359 77.388L228.751 80.844ZM236.066 83.58C235.298 83.58 234.546 83.436 233.81 83.148C233.09 82.844 232.434 82.42 231.842 81.876C231.266 81.332 230.802 80.692 230.45 79.956C230.114 79.22 229.946 78.412 229.946 77.532C229.946 76.684 230.106 75.892 230.426 75.156C230.746 74.42 231.186 73.772 231.746 73.212C232.306 72.652 232.946 72.22 233.666 71.916C234.402 71.596 235.186 71.436 236.018 71.436C237.138 71.436 238.154 71.708 239.066 72.252C239.978 72.78 240.706 73.5 241.25 74.412C241.794 75.324 242.066 76.356 242.066 77.508C242.066 78.42 241.898 79.252 241.562 80.004C241.226 80.74 240.77 81.38 240.194 81.924C239.618 82.452 238.97 82.86 238.25 83.148C237.546 83.436 236.818 83.58 236.066 83.58ZM236.018 80.748C236.546 80.748 237.05 80.62 237.53 80.364C238.026 80.092 238.426 79.708 238.73 79.212C239.05 78.716 239.21 78.132 239.21 77.46C239.21 76.836 239.066 76.284 238.778 75.804C238.506 75.324 238.13 74.948 237.65 74.676C237.17 74.404 236.618 74.268 235.994 74.268C235.402 74.268 234.866 74.412 234.386 74.7C233.906 74.972 233.522 75.356 233.234 75.852C232.962 76.332 232.826 76.876 232.826 77.484C232.826 78.156 232.978 78.74 233.282 79.236C233.586 79.716 233.978 80.092 234.458 80.364C234.954 80.62 235.474 80.748 236.018 80.748ZM248.08 83.436C247.488 83.436 246.96 83.396 246.496 83.316C246.048 83.236 245.656 83.1 245.32 82.908C245 82.716 244.736 82.46 244.528 82.14C244.32 81.804 244.16 81.396 244.048 80.916C243.952 80.436 243.904 79.86 243.904 79.188V67.62C243.904 67.348 243.928 67.108 243.976 66.9C244.04 66.676 244.168 66.5 244.36 66.372C244.568 66.228 244.896 66.156 245.344 66.156C245.792 66.156 246.112 66.22 246.304 66.348C246.512 66.476 246.64 66.652 246.688 66.876C246.752 67.084 246.784 67.324 246.784 67.596V79.068C246.784 79.372 246.8 79.628 246.832 79.836C246.88 80.028 246.952 80.188 247.048 80.316C247.16 80.428 247.296 80.508 247.456 80.556C247.632 80.604 247.84 80.628 248.08 80.628C248.288 80.628 248.472 80.652 248.632 80.7C248.808 80.748 248.944 80.868 249.04 81.06C249.152 81.252 249.208 81.564 249.208 81.996C249.208 82.444 249.152 82.772 249.04 82.98C248.944 83.188 248.808 83.316 248.632 83.364C248.456 83.412 248.272 83.436 248.08 83.436ZM256.457 83.58C255.689 83.58 254.937 83.436 254.201 83.148C253.481 82.844 252.825 82.42 252.233 81.876C251.657 81.332 251.193 80.692 250.841 79.956C250.505 79.22 250.337 78.412 250.337 77.532C250.337 76.684 250.497 75.892 250.817 75.156C251.137 74.42 251.577 73.772 252.137 73.212C252.697 72.652 253.337 72.22 254.057 71.916C254.793 71.596 255.577 71.436 256.409 71.436C257.529 71.436 258.545 71.708 259.457 72.252C260.369 72.78 261.097 73.5 261.641 74.412C262.185 75.324 262.457 76.356 262.457 77.508C262.457 78.42 262.289 79.252 261.953 80.004C261.617 80.74 261.161 81.38 260.585 81.924C260.009 82.452 259.361 82.86 258.641 83.148C257.937 83.436 257.209 83.58 256.457 83.58ZM256.409 80.748C256.937 80.748 257.441 80.62 257.921 80.364C258.417 80.092 258.817 79.708 259.121 79.212C259.441 78.716 259.601 78.132 259.601 77.46C259.601 76.836 259.457 76.284 259.169 75.804C258.897 75.324 258.521 74.948 258.041 74.676C257.561 74.404 257.009 74.268 256.385 74.268C255.793 74.268 255.257 74.412 254.777 74.7C254.297 74.972 253.913 75.356 253.625 75.852C253.353 76.332 253.217 76.876 253.217 77.484C253.217 78.156 253.369 78.74 253.673 79.236C253.977 79.716 254.369 80.092 254.849 80.364C255.345 80.62 255.865 80.748 256.409 80.748ZM269.503 88.236C268.927 88.236 268.375 88.164 267.847 88.02C267.319 87.892 266.839 87.716 266.407 87.492C265.991 87.268 265.655 87.028 265.399 86.772C265.159 86.516 265.039 86.276 265.039 86.052C265.039 85.828 265.071 85.636 265.135 85.476C265.215 85.316 265.327 85.156 265.471 84.996C265.663 84.804 265.815 84.66 265.927 84.564C266.055 84.468 266.223 84.42 266.431 84.42C266.607 84.42 266.775 84.484 266.935 84.612C267.111 84.74 267.311 84.884 267.535 85.044C267.759 85.204 268.031 85.348 268.351 85.476C268.671 85.604 269.079 85.668 269.575 85.668C269.991 85.668 270.375 85.596 270.727 85.452C271.079 85.308 271.375 85.092 271.615 84.804C271.871 84.532 272.071 84.204 272.215 83.82C272.359 83.436 272.431 83.004 272.431 82.524L272.407 72.588C272.439 72.22 272.567 71.964 272.791 71.82C273.015 71.66 273.359 71.58 273.823 71.58C274.255 71.58 274.567 71.644 274.759 71.772C274.951 71.884 275.071 72.052 275.119 72.276C275.167 72.484 275.191 72.716 275.191 72.972V82.692C275.191 83.572 275.039 84.356 274.735 85.044C274.431 85.732 274.015 86.308 273.487 86.772C272.959 87.252 272.351 87.612 271.663 87.852C270.991 88.108 270.271 88.236 269.503 88.236ZM269.239 83.124C268.487 83.124 267.783 82.98 267.127 82.692C266.487 82.404 265.919 81.996 265.423 81.468C264.943 80.94 264.559 80.332 264.271 79.644C263.999 78.94 263.863 78.18 263.863 77.364C263.863 76.564 263.999 75.82 264.271 75.132C264.559 74.444 264.943 73.836 265.423 73.308C265.919 72.78 266.487 72.372 267.127 72.084C267.783 71.78 268.479 71.628 269.215 71.628C269.935 71.628 270.559 71.772 271.087 72.06C271.631 72.332 272.079 72.724 272.431 73.236C272.783 73.748 273.047 74.356 273.223 75.06C273.415 75.764 273.511 76.54 273.511 77.388C273.511 78.556 273.351 79.572 273.031 80.436C272.711 81.3 272.239 81.964 271.615 82.428C270.991 82.892 270.199 83.124 269.239 83.124ZM269.503 80.412C270.047 80.412 270.527 80.284 270.943 80.028C271.375 79.756 271.711 79.388 271.951 78.924C272.207 78.46 272.335 77.94 272.335 77.364C272.335 76.772 272.207 76.252 271.951 75.804C271.711 75.34 271.375 74.98 270.943 74.724C270.511 74.468 270.023 74.34 269.479 74.34C268.935 74.34 268.447 74.476 268.015 74.748C267.599 75.004 267.271 75.356 267.031 75.804C266.791 76.252 266.671 76.772 266.671 77.364C266.671 77.956 266.791 78.484 267.031 78.948C267.287 79.396 267.623 79.756 268.039 80.028C268.471 80.284 268.959 80.412 269.503 80.412ZM279.285 83.436C278.853 83.436 278.533 83.364 278.325 83.22C278.117 83.092 277.989 82.924 277.941 82.716C277.893 82.492 277.869 82.244 277.869 81.972V73.044C277.869 72.788 277.893 72.556 277.941 72.348C278.005 72.124 278.133 71.948 278.325 71.82C278.533 71.692 278.861 71.628 279.309 71.628C279.757 71.628 280.077 71.692 280.269 71.82C280.477 71.948 280.605 72.124 280.653 72.348C280.701 72.572 280.725 72.82 280.725 73.092V81.996C280.725 82.268 280.701 82.516 280.653 82.74C280.605 82.948 280.477 83.116 280.269 83.244C280.077 83.372 279.749 83.436 279.285 83.436ZM279.285 69.3C278.821 69.3 278.477 69.236 278.253 69.108C278.045 68.964 277.909 68.772 277.845 68.532C277.797 68.292 277.773 68.028 277.773 67.74C277.773 67.436 277.797 67.172 277.845 66.948C277.909 66.724 278.053 66.548 278.277 66.42C278.501 66.276 278.845 66.204 279.309 66.204C279.789 66.204 280.133 66.276 280.341 66.42C280.549 66.564 280.685 66.756 280.749 66.996C280.813 67.22 280.845 67.484 280.845 67.788C280.845 68.06 280.813 68.316 280.749 68.556C280.685 68.796 280.549 68.98 280.341 69.108C280.133 69.236 279.781 69.3 279.285 69.3ZM287.455 83.58C287.039 83.58 286.599 83.532 286.135 83.436C285.671 83.356 285.223 83.236 284.791 83.076C284.359 82.9 283.983 82.7 283.663 82.476C283.359 82.236 283.167 81.972 283.087 81.684C283.023 81.524 282.999 81.372 283.015 81.228C283.031 81.068 283.079 80.908 283.159 80.748C283.239 80.572 283.359 80.396 283.519 80.22C283.663 80.044 283.807 79.948 283.951 79.932C284.111 79.9 284.311 79.948 284.551 80.076C284.759 80.156 284.983 80.26 285.223 80.388C285.479 80.516 285.735 80.644 285.991 80.772C286.263 80.9 286.535 81.004 286.807 81.084C287.095 81.164 287.375 81.204 287.647 81.204C288.239 81.204 288.711 81.108 289.063 80.916C289.415 80.708 289.591 80.42 289.591 80.052C289.591 79.844 289.535 79.66 289.423 79.5C289.311 79.34 289.159 79.212 288.967 79.116C288.791 79.004 288.575 78.908 288.319 78.828C288.079 78.732 287.815 78.652 287.527 78.588C287.255 78.508 286.967 78.42 286.663 78.324C286.263 78.212 285.863 78.076 285.463 77.916C285.063 77.756 284.703 77.548 284.383 77.292C284.079 77.036 283.831 76.716 283.639 76.332C283.447 75.948 283.351 75.468 283.351 74.892C283.351 74.172 283.519 73.564 283.855 73.068C284.207 72.556 284.711 72.164 285.367 71.892C286.023 71.62 286.815 71.484 287.743 71.484C288.063 71.484 288.367 71.508 288.655 71.556C288.959 71.604 289.247 71.676 289.519 71.772C289.807 71.852 290.079 71.956 290.335 72.084C290.607 72.212 290.863 72.356 291.103 72.516C291.503 72.74 291.711 73.004 291.727 73.308C291.743 73.596 291.631 73.908 291.391 74.244C291.215 74.468 291.039 74.628 290.863 74.724C290.687 74.804 290.503 74.804 290.311 74.724C290.055 74.596 289.775 74.46 289.471 74.316C289.183 74.156 288.879 74.02 288.559 73.908C288.255 73.796 287.935 73.74 287.599 73.74C287.279 73.74 286.991 73.788 286.735 73.884C286.479 73.98 286.287 74.116 286.159 74.292C286.031 74.468 285.967 74.676 285.967 74.916C285.967 75.14 286.031 75.324 286.159 75.468C286.287 75.612 286.455 75.732 286.663 75.828C286.871 75.924 287.119 76.012 287.407 76.092C287.695 76.156 287.999 76.22 288.319 76.284C288.767 76.38 289.223 76.5 289.687 76.644C290.151 76.788 290.575 76.988 290.959 77.244C291.359 77.5 291.679 77.844 291.919 78.276C292.159 78.692 292.279 79.236 292.279 79.908C292.279 81.076 291.847 81.98 290.983 82.62C290.135 83.26 288.959 83.58 287.455 83.58Z" fill="black"/>
</svg>
