<svg width="336" height="108" viewBox="0 0 336 108" fill="none" xmlns="http://www.w3.org/2000/svg">
<mask id="mask0_61_1565" style="mask-type:luminance" maskUnits="userSpaceOnUse" x="0" y="0" width="336" height="108">
<path d="M336 0H0V108H336V0Z" fill="white"/>
</mask>
<g mask="url(#mask0_61_1565)">
<mask id="mask1_61_1565" style="mask-type:luminance" maskUnits="userSpaceOnUse" x="7" y="8" width="327" height="100">
<path d="M7.84424 8.3999H333.385V107.419H7.84424V8.3999Z" fill="white"/>
</mask>
<g mask="url(#mask1_61_1565)">
<path d="M13.2627 65.1468L10.413 56.1234L14.9429 46.6874L10.9493 37.2562L8.21191 27.8203L10.1679 17.4187L22.057 16.4109L32.9094 14.0343L43.966 19.3265L54.6959 12.375L65.8036 19.5375L76.6304 16.1671L87.6667 20.6109L98.5803 20.4093L109.54 21.9093L120.387 19.2796L130.719 15.3984L141.096 13.1062L151.474 10.889L161.938 11.8921L172.468 15.4125L182.984 18.3093L193.412 18.0656L203.616 9.27651L214.254 16.8187L224.703 17.2546L234.983 11.2312L245.351 8.58276L256.121 11.6156L267.28 13.289L275.895 21.0562L286.748 22.8656L295.946 29.1046L309.367 24.0375L319.371 28.1015L332.931 33.4593L325.479 45.3046L325.214 55.8843L314.464 62.8734L310.695 72.2531L313.989 84.0562L308.759 92.939L306.088 104.377L290.517 98.7703L280.002 105.689L268.991 98.9906L258.537 107.841L247.49 99.8718L236.766 101.189L225.964 100.223L215.413 107.039L204.586 105.309L193.892 109.102L183.418 103.069L172.387 107.752L162.188 104.442L151.811 103.795L141.377 104.255L130.959 104.372L120.816 99.4874L110.372 100.083L100.25 94.6312L89.2703 105.084L79.4342 94.3499L68.5103 103.884L58.4955 96.5203L48.3019 92.2078L37.5006 99.6515L22.8997 100.397L24.7535 88.3265L19.146 81.2062L9.24864 75.2203L13.2627 65.1468Z" fill="black"/>
<path d="M13.2627 65.1468L10.413 56.1234L14.9429 46.6874L10.9493 37.2562L8.21191 27.8203L10.1679 17.4187L22.057 16.4109L32.9094 14.0343L43.966 19.3265L54.6959 12.375L65.8036 19.5375L76.6304 16.1671L87.6667 20.6109L98.5803 20.4093L109.54 21.9093L120.387 19.2796L130.719 15.3984L141.096 13.1062L151.474 10.889L161.938 11.8921L172.468 15.4125L182.984 18.3093L193.412 18.0656L203.616 9.27651L214.254 16.8187L224.703 17.2546L234.983 11.2312L245.351 8.58276L256.121 11.6156L267.28 13.289L275.895 21.0562L286.748 22.8656L295.946 29.1046L309.367 24.0375L319.371 28.1015L332.931 33.4593L325.479 45.3046L325.214 55.8843L314.464 62.8734L310.695 72.2531L313.989 84.0562L308.759 92.939L306.088 104.377L290.517 98.7703L280.002 105.689L268.991 98.9906L258.537 107.841L247.49 99.8718L236.766 101.189L225.964 100.223L215.413 107.039L204.586 105.309L193.892 109.102L183.418 103.069L172.387 107.752L162.188 104.442L151.811 103.795L141.377 104.255L130.959 104.372L120.816 99.4874L110.372 100.083L100.25 94.6312L89.2703 105.084L79.4342 94.3499L68.5103 103.884L58.4955 96.5203L48.3019 92.2078L37.5006 99.6515L22.8997 100.397L24.7535 88.3265L19.146 81.2062L9.24864 75.2203L13.2627 65.1468Z" fill="black"/>
</g>
<mask id="mask2_61_1565" style="mask-type:luminance" maskUnits="userSpaceOnUse" x="6" y="7" width="328" height="101">
<path d="M6.53711 7.19995H333.973V107.419H6.53711V7.19995Z" fill="white"/>
</mask>
<g mask="url(#mask2_61_1565)">
<path d="M193.821 109.786L183.372 103.777L172.423 108.427L162.051 105.061L151.806 104.391L141.408 104.845L130.801 104.967L120.669 100.083L110.215 100.697L100.368 95.3954L89.2401 105.989L79.3836 95.2314L68.5516 104.695L58.1334 97.0642L48.3892 92.9345L37.7258 100.261L22.1034 101.058L24.0543 88.5142L18.646 81.6517L8.44221 75.4642L12.5636 65.1282L9.70875 56.0813L14.2233 46.6688L10.3012 37.4157L7.52295 27.8485L9.59639 16.8563L21.9809 15.8017L32.9967 13.411L43.9104 18.6329L54.6963 11.6251L65.9113 18.8579L76.6616 15.5063L87.7999 19.9923L98.6217 19.7907L109.5 21.2907L120.163 18.6985L130.556 14.7985L140.923 12.5063L151.418 10.2751L162.153 11.3157L172.678 14.836L183.071 17.686L193.142 17.4563L203.571 8.46572L214.5 16.2095L224.499 16.622L234.682 10.6642L245.346 7.93604L256.265 10.9876L267.592 12.6845L276.218 20.4563L287.014 22.2517L296.028 28.3595L309.357 23.3298L319.632 27.497L333.886 33.1642L326.149 45.4735L325.888 56.2079L315.026 63.2673L311.4 72.2907L314.73 84.136L309.398 93.1548L306.558 105.216L290.599 99.4642L280.002 106.434L269.048 99.7689L258.573 108.666L247.307 100.533L236.781 101.831L226.118 100.87L215.567 107.686L204.653 105.947L193.821 109.786ZM183.469 102.375L193.969 108.417L204.515 104.677L215.255 106.392L225.786 99.5907L236.756 100.58L247.68 99.2298L258.502 107.039L268.925 98.2173L279.987 104.934L290.425 98.072L305.593 103.528L308.126 92.7142L313.279 83.9673L310.001 72.211L313.892 62.4845L324.556 55.5423L324.816 45.1642L331.981 33.7454L319.111 28.6782L309.352 24.7126L295.849 29.8126L286.473 23.4423L275.574 21.6142L266.959 13.8563L255.907 12.1923L245.325 9.20635L235.249 11.7985L224.872 17.9063L213.999 17.4563L203.647 10.1251L193.648 18.7126L182.852 18.9704L172.234 16.0454L161.785 12.497L151.515 11.5126L141.275 13.7063L130.929 15.9751L120.561 19.8704L109.581 22.5329L98.5349 21.0188L87.5344 21.2298L76.6309 16.8235L65.7019 20.222L54.6963 13.1204L44.0329 20.0438L32.8384 14.6813L22.1188 17.0157L10.7404 17.986L8.89163 27.7923L11.5881 37.0642L15.6686 46.7017L11.1285 56.1517L13.9833 65.1704L10.0765 74.9767L19.6317 80.7517L25.4639 88.172L23.6866 99.7407L37.2764 99.0517L48.236 91.5001L58.8994 96.0376L68.4699 103.069L79.4806 93.4595L89.2912 104.17L100.123 93.8579L110.521 99.4642L120.95 98.8501L131.107 103.734L141.357 103.622L151.806 103.158L162.311 103.814L172.306 107.063L183.469 102.375Z" fill="black"/>
</g>
<mask id="mask3_61_1565" style="mask-type:luminance" maskUnits="userSpaceOnUse" x="2" y="0" width="327" height="102">
<path d="M2.61475 0.975098H328.156V102H2.61475V0.975098Z" fill="white"/>
</mask>
<g mask="url(#mask3_61_1565)">
<path d="M8.21729 57.0561L5.37269 48.0279L9.89749 38.592L5.90382 29.1607L3.15625 19.7248L5.12245 9.32793L17.0064 8.31543L27.8639 5.94355L38.9206 11.2311L49.6504 4.27949L60.753 11.4467L71.585 8.06699L82.6212 12.5201L93.5298 12.3139L104.495 13.8232L115.342 11.1889L125.673 7.29824L136.051 5.01074L146.428 2.79824L156.892 3.80137L167.423 7.31699L177.933 10.2139L188.367 9.97012L198.566 1.18105L209.209 8.72793L219.657 9.16387L229.938 3.14043L240.305 0.487305L251.076 3.5248L262.235 5.19355L270.85 12.9654L281.702 14.7748L290.9 21.0092L304.316 15.942L314.326 20.0061L327.885 25.3592L320.434 37.2139L320.168 47.7936L309.418 54.7779L305.649 64.1623L308.948 75.9607L303.714 84.8436L301.038 96.2811L285.471 90.6795L274.956 97.5982L263.945 90.8998L253.491 99.7498L242.44 91.7764L231.715 93.0982L220.919 92.1279L210.363 98.9436L199.541 97.2232L188.847 101.011L178.372 94.9732L167.341 99.6561L157.138 96.3561L146.77 95.6998L136.332 96.1639L125.913 96.2811L115.771 91.392L105.327 91.9873L95.2049 86.5404L84.2248 96.9889L74.3887 86.2592L63.4649 95.7842L53.4449 88.4201L43.2616 84.1123L32.4551 91.5607L17.8491 92.3014L19.708 80.2357L14.1006 73.1107L4.20319 67.1248L8.21729 57.0561Z" fill="white"/>
</g>
<mask id="mask4_61_1565" style="mask-type:luminance" maskUnits="userSpaceOnUse" x="0" y="0" width="333" height="105">
<path d="M0.566895 0.975098H332.078V104.4H0.566895V0.975098Z" fill="white"/>
</mask>
<g mask="url(#mask4_61_1565)">
<path d="M188.597 103.509L178.204 97.5281L167.484 102.08L156.652 98.5688L146.755 97.9594L136.372 98.4141L125.336 98.5406L115.25 93.6563L104.74 94.2656L95.6441 89.3813L84.1227 100.373L74.2049 89.5594L63.6078 98.7703L52.1426 90.3469L43.5577 86.7188L33.308 93.7641L14.979 94.6922L17.1137 80.8125L12.3488 74.7563L1.21047 68.0391L5.61271 56.9953L2.77322 47.8688L7.24184 38.5453L3.52905 29.7375L0.653809 19.8281L3.03367 7.25156L16.6081 6.08438L28.1857 3.5625L38.7265 8.60625L49.6453 1.52813L61.1463 8.94844L71.6973 5.6625L83.1115 10.2609L93.6932 10.0641L104.357 11.5313L114.56 9.05156L124.912 5.15625L135.479 2.83125L146.27 0.520313L157.444 1.59844L168.194 5.18906L178.265 7.95938L187.371 7.74375L198.412 -1.76719L210.097 6.51094L218.994 6.88594L228.922 1.06406L240.341 -1.85156L251.638 1.33594L263.394 3.09375L272.055 10.8797L282.719 12.6563L291.232 18.45L304.342 13.4953L315.307 17.9531L331.373 24.3L322.87 37.8375L322.594 48.9703L311.461 56.2078L308.213 64.2797L311.548 76.2516L306.027 85.6313L302.815 99.3422L285.808 93.2344L274.997 100.345L264.18 93.7641L253.604 102.717L241.725 94.1672L231.73 95.3906L221.552 94.4813L210.889 101.348L199.725 99.5719L188.597 103.509ZM178.551 92.4234L189.107 98.5266L199.26 94.9031L209.755 96.5719L220.224 89.8125L231.649 90.8391L243.119 89.4234L253.338 96.8016L263.665 88.05L274.874 94.8703L285.099 88.1531L299.23 93.2297L301.375 84.0703L306.334 75.6938L303.085 64.0922L307.38 53.4L317.753 46.6828L317.998 36.6141L324.387 26.4563L313.351 22.1016L304.281 18.4359L290.563 23.5641L280.701 16.8844L269.67 15.0563L261.065 7.30781L250.519 5.71875L240.274 2.83125L230.944 5.2125L220.326 11.4328L208.33 10.9406L198.724 4.12969L189.363 12.1922L177.606 12.4641L166.58 9.4125L156.331 5.98594L146.607 5.07188L136.612 7.20469L126.434 9.44531L116.123 13.3219L104.622 16.1109L93.3715 14.5641L82.1207 14.775L71.4573 10.5L60.37 13.9359L49.6504 7.02656L39.1147 13.8563L27.5371 8.32031L17.4048 10.5375L7.21631 11.4047L5.66378 19.6266L8.23771 28.4625L12.548 38.6484L7.98236 48.2156L10.8065 57.1688L7.17035 66.2297L15.8318 71.4656L22.2769 79.6547L20.6988 89.9063L31.5818 89.3578L42.9653 81.5109L54.7472 86.4984L63.3014 92.7891L74.5879 83.0203L84.3525 93.6609L94.7759 83.7328L105.955 89.7375L116.338 89.1234L126.506 94.0078L136.26 93.9L146.796 93.4359L157.643 94.1109L167.214 97.2141L178.551 92.4234Z" fill="black"/>
<path d="M188.597 103.509L178.204 97.5281L167.484 102.08L156.652 98.5688L146.755 97.9594L136.372 98.4141L125.336 98.5406L115.25 93.6563L104.74 94.2656L95.6441 89.3813L84.1227 100.373L74.2049 89.5594L63.6078 98.7703L52.1426 90.3469L43.5577 86.7188L33.308 93.7641L14.979 94.6922L17.1137 80.8125L12.3488 74.7563L1.21047 68.0391L5.61271 56.9953L2.77322 47.8688L7.24184 38.5453L3.52905 29.7375L0.653809 19.8281L3.03367 7.25156L16.6081 6.08438L28.1857 3.5625L38.7265 8.60625L49.6453 1.52813L61.1463 8.94844L71.6973 5.6625L83.1115 10.2609L93.6932 10.0641L104.357 11.5313L114.56 9.05156L124.912 5.15625L135.479 2.83125L146.27 0.520313L157.444 1.59844L168.194 5.18906L178.265 7.95938L187.371 7.74375L198.412 -1.76719L210.097 6.51094L218.994 6.88594L228.922 1.06406L240.341 -1.85156L251.638 1.33594L263.394 3.09375L272.055 10.8797L282.719 12.6563L291.232 18.45L304.342 13.4953L315.307 17.9531L331.373 24.3L322.87 37.8375L322.594 48.9703L311.461 56.2078L308.213 64.2797L311.548 76.2516L306.027 85.6313L302.815 99.3422L285.808 93.2344L274.997 100.345L264.18 93.7641L253.604 102.717L241.725 94.1672L231.73 95.3906L221.552 94.4813L210.889 101.348L199.725 99.5719L188.597 103.509ZM178.551 92.4234L189.107 98.5266L199.26 94.9031L209.755 96.5719L220.224 89.8125L231.649 90.8391L243.119 89.4234L253.338 96.8016L263.665 88.05L274.874 94.8703L285.099 88.1531L299.23 93.2297L301.375 84.0703L306.334 75.6938L303.085 64.0922L307.38 53.4L317.753 46.6828L317.998 36.6141L324.387 26.4563L313.351 22.1016L304.281 18.4359L290.563 23.5641L280.701 16.8844L269.67 15.0563L261.065 7.30781L250.519 5.71875L240.274 2.83125L230.944 5.2125L220.326 11.4328L208.33 10.9406L198.724 4.12969L189.363 12.1922L177.606 12.4641L166.58 9.4125L156.331 5.98594L146.607 5.07188L136.612 7.20469L126.434 9.44531L116.123 13.3219L104.622 16.1109L93.3715 14.5641L82.1207 14.775L71.4573 10.5L60.37 13.9359L49.6504 7.02656L39.1147 13.8563L27.5371 8.32031L17.4048 10.5375L7.21631 11.4047L5.66378 19.6266L8.23771 28.4625L12.548 38.6484L7.98236 48.2156L10.8065 57.1688L7.17035 66.2297L15.8318 71.4656L22.2769 79.6547L20.6988 89.9063L31.5818 89.3578L42.9653 81.5109L54.7472 86.4984L63.3014 92.7891L74.5879 83.0203L84.3525 93.6609L94.7759 83.7328L105.955 89.7375L116.338 89.1234L126.506 94.0078L136.26 93.9L146.796 93.4359L157.643 94.1109L167.214 97.2141L178.551 92.4234Z" fill="black"/>
</g>
</g>
<path d="M56.383 61.439C55.8603 61.439 55.4776 61.3643 55.235 61.215C54.9923 61.0657 54.843 60.8603 54.787 60.599C54.731 60.319 54.703 60.0297 54.703 59.731V43.575C54.703 43.2763 54.731 43.0057 54.787 42.763C54.8616 42.5017 55.0203 42.2963 55.263 42.147C55.5056 41.979 55.8883 41.895 56.411 41.895H62.347C63.1683 41.895 63.971 42.035 64.755 42.315C65.539 42.595 66.239 43.015 66.855 43.575C67.4896 44.135 67.9843 44.8257 68.339 45.647C68.7123 46.4683 68.899 47.4297 68.899 48.531C68.899 49.6137 68.7123 50.5657 68.339 51.387C67.9843 52.1897 67.4896 52.871 66.855 53.431C66.2203 53.991 65.511 54.411 64.727 54.691C63.9616 54.971 63.159 55.111 62.319 55.111H58.091V59.759C58.091 60.0577 58.0536 60.3377 57.979 60.599C57.923 60.8603 57.7736 61.0657 57.531 61.215C57.307 61.3643 56.9243 61.439 56.383 61.439ZM58.091 51.695H62.347C62.9256 51.695 63.4483 51.583 63.915 51.359C64.4003 51.1163 64.7923 50.7617 65.091 50.295C65.3896 49.8097 65.539 49.203 65.539 48.475C65.539 47.8217 65.399 47.2617 65.119 46.795C64.8576 46.3097 64.4843 45.9363 63.999 45.675C63.5323 45.4137 62.9723 45.283 62.319 45.283H58.091V51.695ZM77.9607 61.635C76.7474 61.635 75.6833 61.439 74.7687 61.047C73.8727 60.655 73.1167 60.123 72.5007 59.451C71.9033 58.7603 71.446 57.995 71.1287 57.155C70.83 56.2963 70.6807 55.4097 70.6807 54.495C70.6807 53.151 70.9887 51.9563 71.6047 50.911C72.2207 49.8657 73.07 49.0443 74.1527 48.447C75.254 47.8497 76.514 47.551 77.9327 47.551C78.9407 47.551 79.8274 47.7097 80.5927 48.027C81.358 48.3443 81.9927 48.7643 82.4967 49.287C83.0194 49.791 83.4114 50.351 83.6727 50.967C83.9527 51.583 84.0927 52.1803 84.0927 52.759C84.0927 53.7483 83.85 54.467 83.3647 54.915C82.898 55.363 82.31 55.587 81.6007 55.587H74.2087C74.2273 56.2217 74.4233 56.7723 74.7967 57.239C75.1887 57.7057 75.674 58.0697 76.2527 58.331C76.85 58.5737 77.4567 58.695 78.0727 58.695C78.5393 58.695 78.95 58.667 79.3047 58.611C79.678 58.555 79.9953 58.4897 80.2567 58.415C80.518 58.3217 80.742 58.2283 80.9287 58.135C81.134 58.0417 81.3207 57.9577 81.4887 57.883C81.6567 57.8083 81.8154 57.7617 81.9647 57.743C82.17 57.7243 82.3754 57.771 82.5807 57.883C82.786 57.995 82.954 58.191 83.0847 58.471C83.1967 58.6577 83.2714 58.835 83.3087 59.003C83.3647 59.1523 83.3927 59.3017 83.3927 59.451C83.3927 59.8243 83.1687 60.179 82.7207 60.515C82.2727 60.8323 81.638 61.0937 80.8167 61.299C80.014 61.523 79.062 61.635 77.9607 61.635ZM74.2087 53.599H79.9487C80.266 53.599 80.5087 53.5523 80.6767 53.459C80.8447 53.347 80.9287 53.123 80.9287 52.787C80.9287 52.3577 80.798 51.975 80.5367 51.639C80.2754 51.2843 79.9207 51.0137 79.4727 50.827C79.0247 50.6217 78.502 50.519 77.9047 50.519C77.214 50.519 76.5887 50.659 76.0287 50.939C75.4687 51.2003 75.0207 51.5643 74.6847 52.031C74.3673 52.4977 74.2087 53.0203 74.2087 53.599ZM88.0424 61.467C87.5384 61.467 87.1651 61.383 86.9224 61.215C86.6984 61.0657 86.5584 60.8603 86.5024 60.599C86.4464 60.3377 86.4184 60.0483 86.4184 59.731V49.343C86.4184 49.007 86.4464 48.7177 86.5024 48.475C86.5584 48.2137 86.6984 48.0177 86.9224 47.887C87.1651 47.7377 87.5478 47.663 88.0704 47.663C88.5744 47.663 88.9384 47.7283 89.1624 47.859C89.4051 47.9897 89.5544 48.1577 89.6104 48.363C89.6851 48.5497 89.7224 48.7363 89.7224 48.923L89.4984 49.427C89.5918 49.2777 89.7224 49.1003 89.8904 48.895C90.0584 48.671 90.2824 48.4563 90.5624 48.251C90.8424 48.027 91.1784 47.8497 91.5704 47.719C91.9624 47.5697 92.4291 47.495 92.9704 47.495C93.1944 47.495 93.4278 47.523 93.6704 47.579C93.9318 47.6163 94.1838 47.6817 94.4264 47.775C94.6878 47.8497 94.9211 47.9523 95.1264 48.083C95.3318 48.2137 95.4904 48.3723 95.6024 48.559C95.7144 48.727 95.7704 48.923 95.7704 49.147C95.7704 49.7443 95.6211 50.2483 95.3224 50.659C95.0238 51.0697 94.6691 51.275 94.2584 51.275C93.9784 51.275 93.7731 51.247 93.6424 51.191C93.5118 51.135 93.3998 51.0697 93.3064 50.995C93.2318 50.9203 93.1104 50.855 92.9424 50.799C92.7931 50.743 92.5504 50.715 92.2144 50.715C91.9344 50.715 91.6451 50.7617 91.3464 50.855C91.0664 50.9483 90.8051 51.0883 90.5624 51.275C90.3198 51.4617 90.1238 51.7043 89.9744 52.003C89.8251 52.283 89.7504 52.6097 89.7504 52.983V59.787C89.7504 60.1043 89.7224 60.3937 89.6664 60.655C89.6104 60.8977 89.4611 61.0937 89.2184 61.243C88.9758 61.3923 88.5838 61.467 88.0424 61.467ZM99.8035 61.467C99.2995 61.467 98.9262 61.383 98.6835 61.215C98.4409 61.0657 98.2915 60.8697 98.2355 60.627C98.1795 60.3657 98.1515 60.0763 98.1515 59.759V49.343C98.1515 49.0443 98.1795 48.7737 98.2355 48.531C98.3102 48.2697 98.4595 48.0643 98.6835 47.915C98.9262 47.7657 99.3089 47.691 99.8315 47.691C100.354 47.691 100.728 47.7657 100.952 47.915C101.194 48.0643 101.344 48.2697 101.4 48.531C101.456 48.7923 101.484 49.0817 101.484 49.399V59.787C101.484 60.1043 101.456 60.3937 101.4 60.655C101.344 60.8977 101.194 61.0937 100.952 61.243C100.728 61.3923 100.345 61.467 99.8035 61.467ZM99.8035 44.975C99.2622 44.975 98.8609 44.9003 98.5995 44.751C98.3569 44.583 98.1982 44.359 98.1235 44.079C98.0675 43.799 98.0395 43.491 98.0395 43.155C98.0395 42.8003 98.0675 42.4923 98.1235 42.231C98.1982 41.9697 98.3662 41.7643 98.6275 41.615C98.8889 41.447 99.2902 41.363 99.8315 41.363C100.392 41.363 100.793 41.447 101.036 41.615C101.278 41.783 101.437 42.007 101.512 42.287C101.586 42.5483 101.624 42.8563 101.624 43.211C101.624 43.5283 101.586 43.827 101.512 44.107C101.437 44.387 101.278 44.6017 101.036 44.751C100.793 44.9003 100.382 44.975 99.8035 44.975ZM109.363 61.467C108.672 61.467 108.056 61.4203 107.515 61.327C106.992 61.2337 106.535 61.075 106.143 60.851C105.769 60.627 105.461 60.3283 105.219 59.955C104.976 59.563 104.789 59.087 104.659 58.527C104.547 57.967 104.491 57.295 104.491 56.511V43.015C104.491 42.6977 104.519 42.4177 104.575 42.175C104.649 41.9137 104.799 41.7083 105.023 41.559C105.265 41.391 105.648 41.307 106.171 41.307C106.693 41.307 107.067 41.3817 107.291 41.531C107.533 41.6803 107.683 41.8857 107.739 42.147C107.813 42.3897 107.851 42.6697 107.851 42.987V56.371C107.851 56.7257 107.869 57.0243 107.907 57.267C107.963 57.491 108.047 57.6777 108.159 57.827C108.289 57.9577 108.448 58.051 108.635 58.107C108.84 58.163 109.083 58.191 109.363 58.191C109.605 58.191 109.82 58.219 110.007 58.275C110.212 58.331 110.371 58.471 110.483 58.695C110.613 58.919 110.679 59.283 110.679 59.787C110.679 60.3097 110.613 60.6923 110.483 60.935C110.371 61.1777 110.212 61.327 110.007 61.383C109.801 61.439 109.587 61.467 109.363 61.467ZM124.175 61.411C123.634 61.411 123.232 61.3083 122.971 61.103C122.71 60.8977 122.579 60.6177 122.579 60.263L122.775 59.339C122.626 59.5817 122.374 59.871 122.019 60.207C121.664 60.5243 121.198 60.8137 120.619 61.075C120.04 61.3177 119.34 61.439 118.519 61.439C117.642 61.439 116.811 61.2617 116.027 60.907C115.262 60.5337 114.58 60.0297 113.983 59.395C113.404 58.7417 112.938 58.0043 112.583 57.183C112.247 56.343 112.079 55.447 112.079 54.495C112.079 53.5803 112.247 52.7217 112.583 51.919C112.938 51.0977 113.414 50.3697 114.011 49.735C114.608 49.1003 115.29 48.6057 116.055 48.251C116.839 47.8777 117.66 47.691 118.519 47.691C119.284 47.691 119.928 47.7937 120.451 47.999C120.992 48.2043 121.45 48.4657 121.823 48.783C122.196 49.0817 122.504 49.399 122.747 49.735L122.579 48.923C122.579 48.5123 122.71 48.2043 122.971 47.999C123.232 47.775 123.643 47.663 124.203 47.663C124.726 47.663 125.099 47.747 125.323 47.915C125.547 48.0643 125.687 48.279 125.743 48.559C125.799 48.8203 125.827 49.119 125.827 49.455V59.703C125.827 60.0203 125.799 60.3097 125.743 60.571C125.687 60.8323 125.538 61.0377 125.295 61.187C125.071 61.3363 124.698 61.411 124.175 61.411ZM119.023 58.163C119.658 58.163 120.227 58.0043 120.731 57.687C121.235 57.3697 121.636 56.9403 121.935 56.399C122.252 55.839 122.411 55.223 122.411 54.551C122.411 53.823 122.252 53.1883 121.935 52.647C121.618 52.1057 121.198 51.6857 120.675 51.387C120.171 51.0697 119.602 50.911 118.967 50.911C118.276 50.911 117.66 51.079 117.119 51.415C116.578 51.7323 116.148 52.171 115.831 52.731C115.532 53.2723 115.383 53.8883 115.383 54.579C115.383 55.251 115.542 55.8577 115.859 56.399C116.176 56.9403 116.606 57.3697 117.147 57.687C117.707 58.0043 118.332 58.163 119.023 58.163ZM139.613 58.443C140.098 58.8537 140.35 59.2363 140.369 59.591C140.406 59.9457 140.219 60.3563 139.809 60.823C139.491 61.1777 139.211 61.411 138.969 61.523C138.726 61.635 138.483 61.635 138.241 61.523C137.998 61.4297 137.709 61.243 137.373 60.963L132.025 56.455V59.787C132.025 60.0857 131.987 60.3657 131.913 60.627C131.857 60.8883 131.707 61.0937 131.465 61.243C131.241 61.3923 130.867 61.467 130.345 61.467C129.822 61.467 129.439 61.383 129.197 61.215C128.973 61.0657 128.833 60.8603 128.777 60.599C128.721 60.3377 128.693 60.0577 128.693 59.759V43.043C128.693 42.7257 128.721 42.4457 128.777 42.203C128.851 41.9417 129.001 41.7363 129.225 41.587C129.467 41.419 129.85 41.335 130.373 41.335C130.895 41.335 131.269 41.419 131.493 41.587C131.717 41.7363 131.857 41.9417 131.913 42.203C131.987 42.4457 132.025 42.735 132.025 43.071V52.255L135.889 48.503C136.187 48.223 136.467 48.0363 136.729 47.943C136.99 47.831 137.242 47.8217 137.485 47.915C137.746 47.9897 138.017 48.1857 138.297 48.503C138.763 49.007 138.987 49.427 138.969 49.763C138.95 50.0803 138.717 50.463 138.269 50.911L134.489 54.411L139.613 58.443ZM147.419 61.439C146.56 61.439 145.767 61.2897 145.039 60.991C144.33 60.6737 143.704 60.2257 143.163 59.647C142.622 59.0683 142.202 58.3777 141.903 57.575C141.604 56.7723 141.455 55.8857 141.455 54.915V49.343C141.455 49.0257 141.483 48.7457 141.539 48.503C141.595 48.2417 141.744 48.0363 141.987 47.887C142.23 47.7377 142.603 47.663 143.107 47.663C143.648 47.663 144.031 47.7377 144.255 47.887C144.498 48.0363 144.647 48.2417 144.703 48.503C144.759 48.7643 144.787 49.0537 144.787 49.371V54.915C144.787 55.587 144.899 56.1657 145.123 56.651C145.366 57.1363 145.711 57.519 146.159 57.799C146.607 58.0603 147.158 58.191 147.811 58.191C148.483 58.191 149.052 58.0603 149.519 57.799C150.004 57.519 150.378 57.1363 150.639 56.651C150.9 56.147 151.031 55.5683 151.031 54.915V49.315C151.031 48.9977 151.059 48.7177 151.115 48.475C151.171 48.2137 151.32 48.0177 151.563 47.887C151.806 47.7377 152.188 47.663 152.711 47.663C153.234 47.663 153.607 47.7377 153.831 47.887C154.055 48.0363 154.195 48.2417 154.251 48.503C154.326 48.7643 154.363 49.0443 154.363 49.343V59.843C154.363 60.123 154.326 60.3843 154.251 60.627C154.195 60.8697 154.046 61.0657 153.803 61.215C153.579 61.3643 153.206 61.439 152.683 61.439C152.31 61.439 152.011 61.3923 151.787 61.299C151.582 61.2243 151.423 61.1217 151.311 60.991C151.218 60.8417 151.152 60.6923 151.115 60.543C151.096 60.3937 151.087 60.2443 151.087 60.095L151.311 59.339C151.199 59.507 151.031 59.7123 150.807 59.955C150.583 60.179 150.303 60.4123 149.967 60.655C149.65 60.879 149.276 61.0657 148.847 61.215C148.418 61.3643 147.942 61.439 147.419 61.439ZM171.27 61.439C170.355 61.439 169.534 61.2617 168.806 60.907C168.097 60.5337 167.49 60.0297 166.986 59.395C166.501 58.7603 166.127 58.0323 165.866 57.211C165.623 56.371 165.502 55.475 165.502 54.523C165.521 53.571 165.661 52.6843 165.922 51.863C166.183 51.023 166.557 50.295 167.042 49.679C167.546 49.0443 168.153 48.5497 168.862 48.195C169.571 47.8403 170.374 47.663 171.27 47.663C172.129 47.663 172.931 47.8403 173.678 48.195C174.443 48.5497 175.115 49.0443 175.694 49.679C176.291 50.295 176.758 51.023 177.094 51.863C177.43 52.6843 177.598 53.5617 177.598 54.495C177.598 55.4657 177.43 56.3803 177.094 57.239C176.758 58.079 176.301 58.8163 175.722 59.451C175.143 60.067 174.471 60.5523 173.706 60.907C172.941 61.2617 172.129 61.439 171.27 61.439ZM170.822 58.163C171.475 58.163 172.063 58.0137 172.586 57.715C173.109 57.3977 173.519 56.9683 173.818 56.427C174.135 55.8857 174.294 55.2697 174.294 54.579C174.294 53.8697 174.135 53.2443 173.818 52.703C173.519 52.143 173.109 51.7137 172.586 51.415C172.063 51.0977 171.475 50.939 170.822 50.939C170.187 50.939 169.609 51.0977 169.086 51.415C168.563 51.7323 168.143 52.1617 167.826 52.703C167.527 53.2443 167.378 53.8697 167.378 54.579C167.378 55.2697 167.527 55.8857 167.826 56.427C168.143 56.9683 168.563 57.3977 169.086 57.715C169.609 58.0137 170.187 58.163 170.822 58.163ZM165.642 61.467C165.138 61.467 164.765 61.383 164.522 61.215C164.279 61.0657 164.13 60.8697 164.074 60.627C164.018 60.3657 163.99 60.0763 163.99 59.759V43.071C163.99 42.7537 164.018 42.4737 164.074 42.231C164.13 41.9697 164.279 41.7643 164.522 41.615C164.765 41.4657 165.138 41.391 165.642 41.391C166.165 41.391 166.538 41.4657 166.762 41.615C166.986 41.7643 167.126 41.9697 167.182 42.231C167.238 42.4923 167.266 42.7723 167.266 43.071V60.319C167.191 60.7297 167.033 61.019 166.79 61.187C166.566 61.3737 166.183 61.467 165.642 61.467ZM185.837 61.439C184.978 61.439 184.185 61.2897 183.457 60.991C182.747 60.6737 182.122 60.2257 181.581 59.647C181.039 59.0683 180.619 58.3777 180.321 57.575C180.022 56.7723 179.873 55.8857 179.873 54.915V49.343C179.873 49.0257 179.901 48.7457 179.957 48.503C180.013 48.2417 180.162 48.0363 180.405 47.887C180.647 47.7377 181.021 47.663 181.525 47.663C182.066 47.663 182.449 47.7377 182.673 47.887C182.915 48.0363 183.065 48.2417 183.121 48.503C183.177 48.7643 183.205 49.0537 183.205 49.371V54.915C183.205 55.587 183.317 56.1657 183.541 56.651C183.783 57.1363 184.129 57.519 184.577 57.799C185.025 58.0603 185.575 58.191 186.229 58.191C186.901 58.191 187.47 58.0603 187.937 57.799C188.422 57.519 188.795 57.1363 189.057 56.651C189.318 56.147 189.449 55.5683 189.449 54.915V49.315C189.449 48.9977 189.477 48.7177 189.533 48.475C189.589 48.2137 189.738 48.0177 189.981 47.887C190.223 47.7377 190.606 47.663 191.129 47.663C191.651 47.663 192.025 47.7377 192.249 47.887C192.473 48.0363 192.613 48.2417 192.669 48.503C192.743 48.7643 192.781 49.0443 192.781 49.343V59.843C192.781 60.123 192.743 60.3843 192.669 60.627C192.613 60.8697 192.463 61.0657 192.221 61.215C191.997 61.3643 191.623 61.439 191.101 61.439C190.727 61.439 190.429 61.3923 190.205 61.299C189.999 61.2243 189.841 61.1217 189.729 60.991C189.635 60.8417 189.57 60.6923 189.533 60.543C189.514 60.3937 189.505 60.2443 189.505 60.095L189.729 59.339C189.617 59.507 189.449 59.7123 189.225 59.955C189.001 60.179 188.721 60.4123 188.385 60.655C188.067 60.879 187.694 61.0657 187.265 61.215C186.835 61.3643 186.359 61.439 185.837 61.439ZM206.971 61.439C206.317 61.439 205.729 61.3737 205.207 61.243C204.703 61.1123 204.255 60.9163 203.863 60.655C203.471 60.375 203.144 60.039 202.883 59.647C202.621 59.255 202.425 58.7977 202.295 58.275C202.164 57.7337 202.099 57.1363 202.099 56.483V42.987C202.099 42.6697 202.127 42.3897 202.183 42.147C202.239 41.8857 202.388 41.6803 202.631 41.531C202.873 41.3817 203.256 41.307 203.779 41.307C204.283 41.307 204.656 41.3817 204.899 41.531C205.141 41.6803 205.291 41.8857 205.347 42.147C205.421 42.3897 205.459 42.6603 205.459 42.959V56.567C205.459 56.8283 205.487 57.0523 205.543 57.239C205.599 57.4257 205.683 57.5843 205.795 57.715C205.925 57.8457 206.084 57.939 206.271 57.995C206.476 58.051 206.709 58.079 206.971 58.079C207.4 58.079 207.736 58.135 207.979 58.247C208.221 58.359 208.399 58.5363 208.511 58.779C208.623 59.0217 208.679 59.3483 208.679 59.759C208.679 60.151 208.613 60.4777 208.483 60.739C208.371 60.9817 208.184 61.159 207.923 61.271C207.68 61.383 207.363 61.439 206.971 61.439ZM199.887 61.439C199.271 61.439 198.72 61.3737 198.235 61.243C197.749 61.131 197.329 60.9443 196.975 60.683C196.62 60.4217 196.321 60.095 196.079 59.703C195.855 59.311 195.687 58.8537 195.575 58.331C195.463 57.7897 195.407 57.1737 195.407 56.483V42.987C195.407 42.6697 195.435 42.3897 195.491 42.147C195.547 41.8857 195.696 41.6803 195.939 41.531C196.181 41.3817 196.555 41.307 197.059 41.307C197.581 41.307 197.955 41.3817 198.179 41.531C198.421 41.6803 198.571 41.8857 198.627 42.147C198.701 42.3897 198.739 42.6603 198.739 42.959V56.567C198.739 56.9217 198.785 57.211 198.879 57.435C198.991 57.659 199.131 57.827 199.299 57.939C199.467 58.0323 199.663 58.079 199.887 58.079C200.241 58.079 200.521 58.135 200.727 58.247C200.932 58.359 201.072 58.5363 201.147 58.779C201.24 59.0217 201.287 59.3483 201.287 59.759C201.287 60.151 201.24 60.4777 201.147 60.739C201.053 60.9817 200.904 61.159 200.699 61.271C200.493 61.383 200.223 61.439 199.887 61.439ZM214.304 66.983C213.707 66.7217 213.361 66.423 213.268 66.087C213.175 65.7697 213.259 65.3403 213.52 64.799L220.744 48.615C221.005 48.0177 221.285 47.663 221.584 47.551C221.883 47.4203 222.34 47.4857 222.956 47.747C223.535 48.0083 223.871 48.2977 223.964 48.615C224.076 48.9323 224.011 49.3617 223.768 49.903L216.488 66.171C216.245 66.7683 215.975 67.1137 215.676 67.207C215.377 67.319 214.92 67.2443 214.304 66.983ZM216.908 60.123L210.44 50.183C210.104 49.679 209.964 49.259 210.02 48.923C210.095 48.587 210.393 48.2603 210.916 47.943C211.495 47.5883 211.943 47.4483 212.26 47.523C212.596 47.5977 212.932 47.8963 213.268 48.419L218.392 56.399L216.908 60.123ZM227.827 61.467C227.323 61.467 226.95 61.383 226.707 61.215C226.464 61.0657 226.315 60.8697 226.259 60.627C226.203 60.3657 226.175 60.0763 226.175 59.759V49.343C226.175 49.0443 226.203 48.7737 226.259 48.531C226.334 48.2697 226.483 48.0643 226.707 47.915C226.95 47.7657 227.332 47.691 227.855 47.691C228.378 47.691 228.751 47.7657 228.975 47.915C229.218 48.0643 229.367 48.2697 229.423 48.531C229.479 48.7923 229.507 49.0817 229.507 49.399V59.787C229.507 60.1043 229.479 60.3937 229.423 60.655C229.367 60.8977 229.218 61.0937 228.975 61.243C228.751 61.3923 228.368 61.467 227.827 61.467ZM227.827 44.975C227.286 44.975 226.884 44.9003 226.623 44.751C226.38 44.583 226.222 44.359 226.147 44.079C226.091 43.799 226.063 43.491 226.063 43.155C226.063 42.8003 226.091 42.4923 226.147 42.231C226.222 41.9697 226.39 41.7643 226.651 41.615C226.912 41.447 227.314 41.363 227.855 41.363C228.415 41.363 228.816 41.447 229.059 41.615C229.302 41.783 229.46 42.007 229.535 42.287C229.61 42.5483 229.647 42.8563 229.647 43.211C229.647 43.5283 229.61 43.827 229.535 44.107C229.46 44.387 229.302 44.6017 229.059 44.751C228.816 44.9003 228.406 44.975 227.827 44.975ZM234.222 61.439C233.718 61.439 233.345 61.355 233.102 61.187C232.878 61.0377 232.738 60.8417 232.682 60.599C232.626 60.3377 232.598 60.0483 232.598 59.731V49.259C232.598 48.9603 232.626 48.6897 232.682 48.447C232.738 48.2043 232.887 48.0177 233.13 47.887C233.373 47.7377 233.746 47.663 234.25 47.663C234.698 47.663 235.034 47.719 235.258 47.831C235.482 47.943 235.631 48.083 235.706 48.251C235.781 48.419 235.818 48.587 235.818 48.755C235.837 48.923 235.855 49.0537 235.874 49.147L235.762 50.043C235.874 49.7443 236.061 49.455 236.322 49.175C236.583 48.895 236.901 48.643 237.274 48.419C237.647 48.1763 238.049 47.9897 238.478 47.859C238.926 47.7097 239.383 47.635 239.85 47.635C240.727 47.635 241.511 47.7937 242.202 48.111C242.893 48.4283 243.481 48.8763 243.966 49.455C244.47 50.0337 244.853 50.7243 245.114 51.527C245.375 52.311 245.506 53.1977 245.506 54.187V59.759C245.506 60.0763 245.469 60.3657 245.394 60.627C245.338 60.8697 245.198 61.0657 244.974 61.215C244.75 61.3643 244.367 61.439 243.826 61.439C243.303 61.439 242.921 61.355 242.678 61.187C242.435 61.0377 242.286 60.8417 242.23 60.599C242.174 60.3377 242.146 60.0483 242.146 59.731V54.159C242.146 53.487 242.025 52.9083 241.782 52.423C241.558 51.9377 241.222 51.5643 240.774 51.303C240.345 51.0417 239.794 50.911 239.122 50.911C238.469 50.911 237.899 51.051 237.414 51.331C236.929 51.5923 236.555 51.9657 236.294 52.451C236.033 52.9363 235.902 53.5057 235.902 54.159V59.759C235.902 60.0763 235.874 60.3657 235.818 60.627C235.762 60.8697 235.613 61.0657 235.37 61.215C235.146 61.3643 234.763 61.439 234.222 61.439ZM254.258 67.067C253.586 67.067 252.942 66.983 252.326 66.815C251.71 66.6657 251.15 66.4603 250.646 66.199C250.161 65.9377 249.769 65.6577 249.47 65.359C249.19 65.0603 249.05 64.7803 249.05 64.519C249.05 64.2577 249.087 64.0337 249.162 63.847C249.255 63.6603 249.386 63.4737 249.554 63.287C249.778 63.063 249.955 62.895 250.086 62.783C250.235 62.671 250.431 62.615 250.674 62.615C250.879 62.615 251.075 62.6897 251.262 62.839C251.467 62.9883 251.701 63.1563 251.962 63.343C252.223 63.5297 252.541 63.6977 252.914 63.847C253.287 63.9963 253.763 64.071 254.342 64.071C254.827 64.071 255.275 63.987 255.686 63.819C256.097 63.651 256.442 63.399 256.722 63.063C257.021 62.7457 257.254 62.363 257.422 61.915C257.59 61.467 257.674 60.963 257.674 60.403L257.646 48.811C257.683 48.3817 257.833 48.083 258.094 47.915C258.355 47.7283 258.757 47.635 259.298 47.635C259.802 47.635 260.166 47.7097 260.39 47.859C260.614 47.9897 260.754 48.1857 260.81 48.447C260.866 48.6897 260.894 48.9603 260.894 49.259V60.599C260.894 61.6257 260.717 62.5403 260.362 63.343C260.007 64.1457 259.522 64.8177 258.906 65.359C258.29 65.919 257.581 66.339 256.778 66.619C255.994 66.9177 255.154 67.067 254.258 67.067ZM253.95 61.103C253.073 61.103 252.251 60.935 251.486 60.599C250.739 60.263 250.077 59.787 249.498 59.171C248.938 58.555 248.49 57.8457 248.154 57.043C247.837 56.2217 247.678 55.335 247.678 54.383C247.678 53.4497 247.837 52.5817 248.154 51.779C248.49 50.9763 248.938 50.267 249.498 49.651C250.077 49.035 250.739 48.559 251.486 48.223C252.251 47.8683 253.063 47.691 253.922 47.691C254.762 47.691 255.49 47.859 256.106 48.195C256.741 48.5123 257.263 48.9697 257.674 49.567C258.085 50.1643 258.393 50.8737 258.598 51.695C258.822 52.5163 258.934 53.4217 258.934 54.411C258.934 55.7737 258.747 56.959 258.374 57.967C258.001 58.975 257.45 59.7497 256.722 60.291C255.994 60.8323 255.07 61.103 253.95 61.103ZM254.258 57.939C254.893 57.939 255.453 57.7897 255.938 57.491C256.442 57.1737 256.834 56.7443 257.114 56.203C257.413 55.6617 257.562 55.055 257.562 54.383C257.562 53.6923 257.413 53.0857 257.114 52.563C256.834 52.0217 256.442 51.6017 255.938 51.303C255.434 51.0043 254.865 50.855 254.23 50.855C253.595 50.855 253.026 51.0137 252.522 51.331C252.037 51.6297 251.654 52.0403 251.374 52.563C251.094 53.0857 250.954 53.6923 250.954 54.383C250.954 55.0737 251.094 55.6897 251.374 56.231C251.673 56.7537 252.065 57.1737 252.55 57.491C253.054 57.7897 253.623 57.939 254.258 57.939Z" fill="black"/>
</svg>
