<svg width="400" height="120" viewBox="0 0 400 120" fill="none" xmlns="http://www.w3.org/2000/svg">
<mask id="mask0_62_2211" style="mask-type:luminance" maskUnits="userSpaceOnUse" x="0" y="0" width="400" height="120">
<path d="M400 0H0V120H400V0Z" fill="white"/>
</mask>
<g mask="url(#mask0_62_2211)">
<mask id="mask1_62_2211" style="mask-type:luminance" maskUnits="userSpaceOnUse" x="9" y="9" width="388" height="111">
<path d="M9.33838 9.33301H396.887V119.354H9.33838V9.33301Z" fill="white"/>
</mask>
<g mask="url(#mask1_62_2211)">
<path d="M15.7893 72.3852L12.3967 62.3592L17.7895 51.8748L13.0351 41.3956L9.77637 30.9113L12.1049 19.354L26.2586 18.2342L39.1781 15.5935L52.3408 21.4738L65.1144 13.7498L78.3379 21.7081L91.227 17.9633L104.365 22.9008L117.358 22.6769L130.405 24.3435L143.318 21.4217L155.618 17.1092L167.972 14.5623L180.326 12.0988L192.783 13.2133L205.32 17.1248L217.838 20.3435L230.253 20.0727L242.4 10.3071L255.065 18.6873L267.504 19.1717L279.742 12.479L292.084 9.53625L304.906 12.906L318.191 14.7654L328.447 23.3956L341.367 25.406L352.316 32.3383L368.294 26.7081L380.204 31.2238L396.346 37.1769L387.476 50.3383L387.16 62.0935L374.362 69.8592L369.875 80.2811L373.796 93.3956L367.571 103.265L364.391 115.974L345.854 109.745L333.335 117.432L320.227 109.989L307.782 119.823L294.632 110.969L281.864 112.432L269.005 111.359L256.445 118.932L243.556 117.01L230.824 121.224L218.355 114.521L205.223 119.724L193.081 116.047L180.727 115.328L168.306 115.838L155.904 115.969L143.829 110.541L131.396 111.203L119.346 105.146L106.274 116.76L94.5648 104.833L81.5602 115.427L69.6377 107.245L57.5025 102.453L44.6438 110.724L27.2618 111.552L29.4687 98.1404L22.7931 90.229L11.0106 83.5779L15.7893 72.3852Z" fill="black"/>
<path d="M15.7893 72.3852L12.3967 62.3592L17.7895 51.8748L13.0351 41.3956L9.77637 30.9113L12.1049 19.354L26.2586 18.2342L39.1781 15.5935L52.3408 21.4738L65.1144 13.7498L78.3379 21.7081L91.227 17.9633L104.365 22.9008L117.358 22.6769L130.405 24.3435L143.318 21.4217L155.618 17.1092L167.972 14.5623L180.326 12.0988L192.783 13.2133L205.32 17.1248L217.838 20.3435L230.253 20.0727L242.4 10.3071L255.065 18.6873L267.504 19.1717L279.742 12.479L292.084 9.53625L304.906 12.906L318.191 14.7654L328.447 23.3956L341.367 25.406L352.316 32.3383L368.294 26.7081L380.204 31.2238L396.346 37.1769L387.476 50.3383L387.16 62.0935L374.362 69.8592L369.875 80.2811L373.796 93.3956L367.571 103.265L364.391 115.974L345.854 109.745L333.335 117.432L320.227 109.989L307.782 119.823L294.632 110.969L281.864 112.432L269.005 111.359L256.445 118.932L243.556 117.01L230.824 121.224L218.355 114.521L205.223 119.724L193.081 116.047L180.727 115.328L168.306 115.838L155.904 115.969L143.829 110.541L131.396 111.203L119.346 105.146L106.274 116.76L94.5648 104.833L81.5602 115.427L69.6377 107.245L57.5025 102.453L44.6438 110.724L27.2618 111.552L29.4687 98.1404L22.7931 90.229L11.0106 83.5779L15.7893 72.3852Z" fill="black"/>
</g>
<mask id="mask2_62_2211" style="mask-type:luminance" maskUnits="userSpaceOnUse" x="7" y="7" width="391" height="113">
<path d="M7.78223 7.99976H397.586V119.354H7.78223V7.99976Z" fill="white"/>
</mask>
<g mask="url(#mask2_62_2211)">
<path d="M230.74 121.984L218.301 115.307L205.266 120.474L192.918 116.734L180.722 115.989L168.343 116.495L155.716 116.63L143.653 111.203L131.208 111.885L119.486 105.995L106.238 117.765L94.5045 105.812L81.6093 116.328L69.2065 107.849L57.6063 103.26L44.9118 111.401L26.3138 112.286L28.6363 98.3488L22.1978 90.7238L10.0504 83.8488L14.9568 72.3644L11.5582 62.3123L16.9327 51.854L12.2634 41.5727L8.95605 30.9425L11.4244 18.729L26.1679 17.5571L39.2819 14.9008L52.2744 20.7029L65.1149 12.9165L78.466 20.9529L91.2639 17.229L104.524 22.2133L117.407 21.9894L130.357 23.656L143.051 20.7758L155.424 16.4425L167.766 13.8956L180.26 11.4165L193.039 12.5727L205.57 16.4842L217.942 19.6508L229.931 19.3956L242.346 9.40605L255.357 18.0102L267.261 18.4685L279.384 11.8488L292.079 8.8175L305.077 12.2081L318.562 14.0935L328.831 22.729L341.683 24.7238L352.414 31.5102L368.282 25.9217L380.515 30.5519L397.484 36.8488L388.273 50.5258L387.963 62.4529L375.031 70.2967L370.714 80.3227L374.678 93.4842L368.331 103.505L364.951 116.906L345.951 110.515L333.336 118.26L320.295 110.854L307.825 120.739L294.413 111.703L281.883 113.146L269.188 112.078L256.628 119.651L243.635 117.719L230.74 121.984ZM218.416 113.75L230.916 120.463L243.471 116.307L256.257 118.213L268.793 110.656L281.852 111.755L294.857 110.255L307.74 118.932L320.149 109.13L333.318 116.594L345.745 108.969L363.802 115.031L366.817 103.015L372.952 93.2967L369.048 80.2342L373.681 69.4269L386.376 61.7133L386.686 50.1821L395.216 37.4946L379.895 31.8644L368.276 27.4581L352.201 33.1248L341.039 26.0467L328.065 24.0154L317.808 15.3956L304.652 13.5467L292.054 10.229L280.059 13.1092L267.705 19.8956L254.761 19.3956L242.437 11.2498L230.533 20.7915L217.681 21.0779L205.041 17.8279L192.601 13.8852L180.375 12.7915L168.185 15.229L155.868 17.7498L143.526 22.0779L130.454 25.0363L117.304 23.354L104.208 23.5883L91.2275 18.6925L78.2168 22.4685L65.1149 14.5779L52.4203 22.2706L39.0935 16.3123L26.332 18.906L12.7863 19.9842L10.5854 30.88L13.7955 41.1821L18.6533 51.8904L13.2484 62.3904L16.647 72.4113L11.9959 83.3071L23.3712 89.7238L30.3143 97.9686L28.1985 110.823L44.3768 110.057L57.424 101.666L70.1185 106.708L81.512 114.521L94.62 103.844L106.299 115.745L119.194 104.286L131.573 110.515L143.988 109.833L156.08 115.26L168.282 115.135L180.722 114.62L193.228 115.349L205.126 118.958L218.416 113.75Z" fill="black"/>
</g>
<mask id="mask3_62_2211" style="mask-type:luminance" maskUnits="userSpaceOnUse" x="3" y="1" width="388" height="113">
<path d="M3.11279 1.08313H390.661V113.333H3.11279V1.08313Z" fill="white"/>
</mask>
<g mask="url(#mask3_62_2211)">
<path d="M9.78286 63.3953L6.39643 53.3641L11.7831 42.8797L7.02873 32.4005L3.75781 21.9161L6.09852 10.3641L20.2461 9.23906L33.1717 6.60364L46.3344 12.4786L59.108 4.75468L72.3254 12.7182L85.2206 8.96301L98.359 13.9109L111.345 13.6818L124.399 15.3588L137.312 12.4318L149.611 8.10885L161.965 5.56718L174.32 3.10885L186.777 4.22343L199.314 8.12968L211.826 11.3484L224.247 11.0776L236.388 1.31197L249.058 9.69739L261.497 10.1818L273.736 3.48906L286.078 0.541138L298.9 3.91614L312.184 5.7703L322.441 14.4057L335.36 16.4161L346.31 23.3432L362.282 17.713L374.198 22.2286L390.34 28.1766L381.469 41.3484L381.153 53.1036L368.355 60.8641L363.868 71.2911L367.796 84.4005L361.564 94.2703L358.378 106.979L339.847 100.755L327.329 108.442L314.221 100.999L301.776 110.833L288.619 101.973L275.852 103.442L262.999 102.364L250.432 109.937L237.549 108.026L224.818 112.234L212.349 105.526L199.216 110.729L187.069 107.062L174.727 106.333L162.3 106.848L149.897 106.979L137.823 101.546L125.39 102.208L113.34 96.1557L100.268 107.765L88.5584 95.8432L75.5538 106.427L63.6253 98.2443L51.5022 93.4578L38.6374 101.734L21.2493 102.557L23.4623 89.1505L16.7868 81.2338L5.00417 74.5828L9.78286 63.3953Z" fill="white"/>
</g>
<mask id="mask4_62_2211" style="mask-type:luminance" maskUnits="userSpaceOnUse" x="0" y="1" width="396" height="115">
<path d="M0.674805 1.08325H395.331V116H0.674805V1.08325Z" fill="white"/>
</mask>
<g mask="url(#mask4_62_2211)">
<path d="M224.52 115.01L212.147 108.365L199.386 113.422L186.491 109.521L174.708 108.844L162.348 109.349L149.21 109.49L137.202 104.062L124.69 104.74L113.862 99.3124L100.146 111.526L88.3391 99.5103L75.7236 109.745L62.0745 100.385L51.8544 96.3541L39.6524 104.182L17.8321 105.213L20.3734 89.7916L14.701 83.0624L1.44101 75.5989L6.68177 63.328L3.30142 53.1874L8.62122 42.828L4.20123 33.0416L0.77832 22.0312L3.61149 8.05721L19.7715 6.76034L33.5543 3.95825L46.103 9.56242L59.1015 1.69784L72.7932 9.94263L85.354 6.29159L98.9422 11.401L111.54 11.1822L124.234 12.8124L136.381 10.0572L148.705 5.72909L161.284 3.14575L174.131 0.578045L187.433 1.77596L200.231 5.76555L212.22 8.84367L223.061 8.60409L236.205 -1.96362L250.116 7.23429L260.707 7.65096L272.526 1.18221L286.12 -2.05737L299.568 1.48429L313.564 3.43742L323.875 12.0885L336.57 14.0624L346.705 20.4999L362.312 14.9947L375.365 19.9478L394.492 26.9999L384.369 42.0416L384.041 54.4114L370.787 62.453L366.92 71.4218L370.89 84.7239L364.318 95.1458L360.494 110.38L340.248 103.594L327.377 111.495L314.5 104.182L301.909 114.13L287.768 104.63L275.87 105.99L263.753 104.979L251.058 112.609L237.768 110.635L224.52 115.01ZM212.561 102.693L225.128 109.474L237.214 105.448L249.708 107.302L262.172 99.7916L275.772 100.932L289.427 99.3593L301.593 107.557L313.886 97.8333L327.231 105.411L339.403 97.9478L356.226 103.588L358.779 93.4114L364.683 84.1041L360.816 71.2135L365.929 59.3333L378.277 51.8697L378.569 40.6822L386.175 29.3958L373.036 24.5572L362.239 20.4843L345.908 26.1822L334.168 18.7603L321.036 16.7291L310.792 8.11971L298.237 6.35409L286.041 3.14575L274.933 5.79159L262.293 12.703L248.012 12.1562L236.576 4.58846L225.432 13.5468L211.436 13.8489L198.31 10.4583L186.108 6.65096L174.532 5.63534L162.634 8.00513L150.517 10.4947L138.242 14.802L124.55 17.901L111.156 16.1822L97.7628 16.4166L85.0682 11.6666L71.869 15.4843L59.1076 7.80721L46.565 15.3958L32.7822 9.24471L20.72 11.7083L8.59082 12.6718L6.74257 21.8072L9.80677 31.6249L14.9381 42.9426L9.50279 53.5728L12.8649 63.5208L8.5361 73.5885L18.8474 79.4062L26.5201 88.5051L24.6414 99.8958L37.5974 99.2864L51.1492 90.5676L65.1752 96.1093L75.3588 103.099L88.7951 92.2447L100.42 104.068L112.828 93.0364L126.137 99.7083L138.497 99.026L150.602 104.453L162.214 104.333L174.757 103.818L187.67 104.568L199.064 108.016L212.561 102.693Z" fill="black"/>
<path d="M224.52 115.01L212.147 108.365L199.386 113.422L186.491 109.521L174.708 108.844L162.348 109.349L149.21 109.49L137.202 104.062L124.69 104.74L113.862 99.3124L100.146 111.526L88.3391 99.5103L75.7236 109.745L62.0745 100.385L51.8544 96.3541L39.6524 104.182L17.8321 105.213L20.3734 89.7916L14.701 83.0624L1.44101 75.5989L6.68177 63.328L3.30142 53.1874L8.62122 42.828L4.20123 33.0416L0.77832 22.0312L3.61149 8.05721L19.7715 6.76034L33.5543 3.95825L46.103 9.56242L59.1015 1.69784L72.7932 9.94263L85.354 6.29159L98.9422 11.401L111.54 11.1822L124.234 12.8124L136.381 10.0572L148.705 5.72909L161.284 3.14575L174.131 0.578045L187.433 1.77596L200.231 5.76555L212.22 8.84367L223.061 8.60409L236.205 -1.96362L250.116 7.23429L260.707 7.65096L272.526 1.18221L286.12 -2.05737L299.568 1.48429L313.564 3.43742L323.875 12.0885L336.57 14.0624L346.705 20.4999L362.312 14.9947L375.365 19.9478L394.492 26.9999L384.369 42.0416L384.041 54.4114L370.787 62.453L366.92 71.4218L370.89 84.7239L364.318 95.1458L360.494 110.38L340.248 103.594L327.377 111.495L314.5 104.182L301.909 114.13L287.768 104.63L275.87 105.99L263.753 104.979L251.058 112.609L237.768 110.635L224.52 115.01ZM212.561 102.693L225.128 109.474L237.214 105.448L249.708 107.302L262.172 99.7916L275.772 100.932L289.427 99.3593L301.593 107.557L313.886 97.8333L327.231 105.411L339.403 97.9478L356.226 103.588L358.779 93.4114L364.683 84.1041L360.816 71.2135L365.929 59.3333L378.277 51.8697L378.569 40.6822L386.175 29.3958L373.036 24.5572L362.239 20.4843L345.908 26.1822L334.168 18.7603L321.036 16.7291L310.792 8.11971L298.237 6.35409L286.041 3.14575L274.933 5.79159L262.293 12.703L248.012 12.1562L236.576 4.58846L225.432 13.5468L211.436 13.8489L198.31 10.4583L186.108 6.65096L174.532 5.63534L162.634 8.00513L150.517 10.4947L138.242 14.802L124.55 17.901L111.156 16.1822L97.7628 16.4166L85.0682 11.6666L71.869 15.4843L59.1076 7.80721L46.565 15.3958L32.7822 9.24471L20.72 11.7083L8.59082 12.6718L6.74257 21.8072L9.80677 31.6249L14.9381 42.9426L9.50279 53.5728L12.8649 63.5208L8.5361 73.5885L18.8474 79.4062L26.5201 88.5051L24.6414 99.8958L37.5974 99.2864L51.1492 90.5676L65.1752 96.1093L75.3588 103.099L88.7951 92.2447L100.42 104.068L112.828 93.0364L126.137 99.7083L138.497 99.026L150.602 104.453L162.214 104.333L174.757 103.818L187.67 104.568L199.064 108.016L212.561 102.693Z" fill="black"/>
</g>
</g>
<path d="M33.416 55.3287C32.968 55.3287 32.64 55.2647 32.432 55.1367C32.224 55.0087 32.096 54.8327 32.048 54.6087C32 54.3687 31.976 54.1207 31.976 53.8647V40.0167C31.976 39.7607 32 39.5287 32.048 39.3207C32.112 39.0967 32.248 38.9207 32.456 38.7927C32.664 38.6487 32.992 38.5767 33.44 38.5767H38.528C39.232 38.5767 39.92 38.6967 40.592 38.9367C41.264 39.1767 41.864 39.5367 42.392 40.0167C42.936 40.4967 43.36 41.0887 43.664 41.7927C43.984 42.4967 44.144 43.3207 44.144 44.2647C44.144 45.1927 43.984 46.0087 43.664 46.7127C43.36 47.4007 42.936 47.9847 42.392 48.4647C41.848 48.9447 41.24 49.3047 40.568 49.5447C39.912 49.7847 39.224 49.9047 38.504 49.9047H34.88V53.8887C34.88 54.1447 34.848 54.3847 34.784 54.6087C34.736 54.8327 34.608 55.0087 34.4 55.1367C34.208 55.2647 33.88 55.3287 33.416 55.3287ZM34.88 46.9767H38.528C39.024 46.9767 39.472 46.8807 39.872 46.6887C40.288 46.4807 40.624 46.1767 40.88 45.7767C41.136 45.3607 41.264 44.8407 41.264 44.2167C41.264 43.6567 41.144 43.1767 40.904 42.7767C40.68 42.3607 40.36 42.0407 39.944 41.8167C39.544 41.5927 39.064 41.4807 38.504 41.4807H34.88V46.9767ZM51.9112 55.4967C50.8712 55.4967 49.9592 55.3287 49.1752 54.9927C48.4072 54.6567 47.7592 54.2007 47.2312 53.6247C46.7192 53.0327 46.3272 52.3767 46.0552 51.6567C45.7992 50.9207 45.6712 50.1607 45.6712 49.3767C45.6712 48.2247 45.9352 47.2007 46.4632 46.3047C46.9912 45.4087 47.7192 44.7047 48.6472 44.1927C49.5912 43.6807 50.6712 43.4247 51.8872 43.4247C52.7512 43.4247 53.5112 43.5607 54.1672 43.8327C54.8232 44.1047 55.3672 44.4647 55.7992 44.9127C56.2472 45.3447 56.5832 45.8247 56.8072 46.3527C57.0472 46.8807 57.1672 47.3927 57.1672 47.8887C57.1672 48.7367 56.9592 49.3527 56.5432 49.7367C56.1432 50.1207 55.6392 50.3127 55.0312 50.3127H48.6952C48.7112 50.8567 48.8792 51.3287 49.1992 51.7287C49.5352 52.1287 49.9512 52.4407 50.4472 52.6647C50.9592 52.8727 51.4792 52.9767 52.0072 52.9767C52.4072 52.9767 52.7592 52.9527 53.0632 52.9047C53.3832 52.8567 53.6552 52.8007 53.8792 52.7367C54.1032 52.6567 54.2952 52.5767 54.4552 52.4967C54.6312 52.4167 54.7912 52.3447 54.9352 52.2807C55.0792 52.2167 55.2152 52.1767 55.3432 52.1607C55.5192 52.1447 55.6952 52.1847 55.8712 52.2807C56.0472 52.3767 56.1912 52.5447 56.3032 52.7847C56.3992 52.9447 56.4632 53.0967 56.4952 53.2407C56.5432 53.3687 56.5672 53.4967 56.5672 53.6247C56.5672 53.9447 56.3752 54.2487 55.9912 54.5367C55.6072 54.8087 55.0632 55.0327 54.3592 55.2087C53.6712 55.4007 52.8552 55.4967 51.9112 55.4967ZM48.6952 48.6087H53.6152C53.8872 48.6087 54.0952 48.5687 54.2392 48.4887C54.3832 48.3927 54.4552 48.2007 54.4552 47.9127C54.4552 47.5447 54.3432 47.2167 54.1192 46.9287C53.8952 46.6247 53.5912 46.3927 53.2072 46.2327C52.8232 46.0567 52.3752 45.9687 51.8632 45.9687C51.2712 45.9687 50.7352 46.0887 50.2552 46.3287C49.7752 46.5527 49.3912 46.8647 49.1032 47.2647C48.8312 47.6647 48.6952 48.1127 48.6952 48.6087ZM60.5527 55.3287C60.1207 55.3287 59.8007 55.2567 59.5927 55.1127C59.4007 54.9847 59.2807 54.8167 59.2327 54.6087C59.1847 54.3847 59.1607 54.1367 59.1607 53.8647V44.8887C59.1607 44.6327 59.1847 44.4007 59.2327 44.1927C59.2807 43.9847 59.4087 43.8247 59.6167 43.7127C59.8247 43.5847 60.1447 43.5207 60.5767 43.5207C60.9607 43.5207 61.2487 43.5687 61.4407 43.6647C61.6327 43.7607 61.7607 43.8807 61.8247 44.0247C61.8887 44.1687 61.9207 44.3127 61.9207 44.4567C61.9367 44.6007 61.9527 44.7127 61.9687 44.7927L61.8727 45.5607C61.9687 45.3047 62.1287 45.0567 62.3527 44.8167C62.5767 44.5767 62.8487 44.3607 63.1687 44.1687C63.4887 43.9607 63.8327 43.8007 64.2007 43.6887C64.5847 43.5607 64.9767 43.4967 65.3767 43.4967C66.1287 43.4967 66.8007 43.6327 67.3927 43.9047C67.9847 44.1767 68.4887 44.5607 68.9047 45.0567C69.3367 45.5527 69.6647 46.1447 69.8887 46.8327C70.1127 47.5047 70.2247 48.2647 70.2247 49.1127V53.8887C70.2247 54.1607 70.1927 54.4087 70.1287 54.6327C70.0807 54.8407 69.9607 55.0087 69.7687 55.1367C69.5767 55.2647 69.2487 55.3287 68.7847 55.3287C68.3367 55.3287 68.0087 55.2567 67.8007 55.1127C67.5927 54.9847 67.4647 54.8167 67.4167 54.6087C67.3687 54.3847 67.3447 54.1367 67.3447 53.8647V49.0887C67.3447 48.5127 67.2407 48.0167 67.0327 47.6007C66.8407 47.1847 66.5527 46.8647 66.1687 46.6407C65.8007 46.4167 65.3287 46.3047 64.7527 46.3047C64.1927 46.3047 63.7047 46.4247 63.2887 46.6647C62.8727 46.8887 62.5527 47.2087 62.3287 47.6247C62.1047 48.0407 61.9927 48.5287 61.9927 49.0887V53.8887C61.9927 54.1607 61.9687 54.4087 61.9207 54.6327C61.8727 54.8407 61.7447 55.0087 61.5367 55.1367C61.3447 55.2647 61.0167 55.3287 60.5527 55.3287ZM74.8158 60.0807C74.3038 59.8567 74.0078 59.6007 73.9278 59.3127C73.8478 59.0407 73.9198 58.6727 74.1438 58.2087L80.3358 44.3367C80.5598 43.8247 80.7998 43.5207 81.0558 43.4247C81.3118 43.3127 81.7038 43.3687 82.2318 43.5927C82.7278 43.8167 83.0158 44.0647 83.0958 44.3367C83.1918 44.6087 83.1358 44.9767 82.9278 45.4407L76.6878 59.3847C76.4798 59.8967 76.2478 60.1927 75.9918 60.2727C75.7358 60.3687 75.3438 60.3047 74.8158 60.0807ZM77.0478 54.2007L71.5038 45.6807C71.2158 45.2487 71.0958 44.8887 71.1438 44.6007C71.2078 44.3127 71.4638 44.0327 71.9118 43.7607C72.4078 43.4567 72.7918 43.3367 73.0638 43.4007C73.3518 43.4647 73.6398 43.7207 73.9278 44.1687L78.3198 51.0087L77.0478 54.2007ZM90.583 55.4967C89.543 55.4967 88.631 55.3287 87.847 54.9927C87.079 54.6567 86.431 54.2007 85.903 53.6247C85.391 53.0327 84.999 52.3767 84.727 51.6567C84.471 50.9207 84.343 50.1607 84.343 49.3767C84.343 48.2247 84.607 47.2007 85.135 46.3047C85.663 45.4087 86.391 44.7047 87.319 44.1927C88.263 43.6807 89.343 43.4247 90.559 43.4247C91.423 43.4247 92.183 43.5607 92.839 43.8327C93.495 44.1047 94.039 44.4647 94.471 44.9127C94.919 45.3447 95.255 45.8247 95.479 46.3527C95.719 46.8807 95.839 47.3927 95.839 47.8887C95.839 48.7367 95.631 49.3527 95.215 49.7367C94.815 50.1207 94.311 50.3127 93.703 50.3127H87.367C87.383 50.8567 87.551 51.3287 87.871 51.7287C88.207 52.1287 88.623 52.4407 89.119 52.6647C89.631 52.8727 90.151 52.9767 90.679 52.9767C91.079 52.9767 91.431 52.9527 91.735 52.9047C92.055 52.8567 92.327 52.8007 92.551 52.7367C92.775 52.6567 92.967 52.5767 93.127 52.4967C93.303 52.4167 93.463 52.3447 93.607 52.2807C93.751 52.2167 93.887 52.1767 94.015 52.1607C94.191 52.1447 94.367 52.1847 94.543 52.2807C94.719 52.3767 94.863 52.5447 94.975 52.7847C95.071 52.9447 95.135 53.0967 95.167 53.2407C95.215 53.3687 95.239 53.4967 95.239 53.6247C95.239 53.9447 95.047 54.2487 94.663 54.5367C94.279 54.8087 93.735 55.0327 93.031 55.2087C92.343 55.4007 91.527 55.4967 90.583 55.4967ZM87.367 48.6087H92.287C92.559 48.6087 92.767 48.5687 92.911 48.4887C93.055 48.3927 93.127 48.2007 93.127 47.9127C93.127 47.5447 93.015 47.2167 92.791 46.9287C92.567 46.6247 92.263 46.3927 91.879 46.2327C91.495 46.0567 91.047 45.9687 90.535 45.9687C89.943 45.9687 89.407 46.0887 88.927 46.3287C88.447 46.5527 88.063 46.8647 87.775 47.2647C87.503 47.6647 87.367 48.1127 87.367 48.6087ZM103.977 55.3287C103.193 55.3287 102.489 55.1767 101.865 54.8727C101.257 54.5527 100.737 54.1207 100.305 53.5767C99.8885 53.0327 99.5685 52.4087 99.3445 51.7047C99.1365 50.9847 99.0325 50.2167 99.0325 49.4007C99.0485 48.5847 99.1685 47.8247 99.3925 47.1207C99.6165 46.4007 99.9365 45.7767 100.353 45.2487C100.785 44.7047 101.305 44.2807 101.913 43.9767C102.521 43.6727 103.209 43.5207 103.977 43.5207C104.713 43.5207 105.401 43.6727 106.041 43.9767C106.697 44.2807 107.273 44.7047 107.769 45.2487C108.281 45.7767 108.681 46.4007 108.969 47.1207C109.257 47.8247 109.401 48.5767 109.401 49.3767C109.401 50.2087 109.257 50.9927 108.969 51.7287C108.681 52.4487 108.289 53.0807 107.793 53.6247C107.297 54.1527 106.721 54.5687 106.065 54.8727C105.409 55.1767 104.713 55.3287 103.977 55.3287ZM103.593 52.5207C104.153 52.5207 104.657 52.3927 105.105 52.1367C105.553 51.8647 105.905 51.4967 106.161 51.0327C106.433 50.5687 106.569 50.0407 106.569 49.4487C106.569 48.8407 106.433 48.3047 106.161 47.8407C105.905 47.3607 105.553 46.9927 105.105 46.7367C104.657 46.4647 104.153 46.3287 103.593 46.3287C103.049 46.3287 102.553 46.4647 102.105 46.7367C101.657 47.0087 101.297 47.3767 101.025 47.8407C100.769 48.3047 100.641 48.8407 100.641 49.4487C100.641 50.0407 100.769 50.5687 101.025 51.0327C101.297 51.4967 101.657 51.8647 102.105 52.1367C102.553 52.3927 103.049 52.5207 103.593 52.5207ZM99.1525 55.3527C98.7205 55.3527 98.4005 55.2807 98.1925 55.1367C97.9845 55.0087 97.8565 54.8407 97.8085 54.6327C97.7605 54.4087 97.7365 54.1607 97.7365 53.8887V39.5847C97.7365 39.3127 97.7605 39.0727 97.8085 38.8647C97.8565 38.6407 97.9845 38.4647 98.1925 38.3367C98.4005 38.2087 98.7205 38.1447 99.1525 38.1447C99.6005 38.1447 99.9205 38.2087 100.113 38.3367C100.305 38.4647 100.425 38.6407 100.473 38.8647C100.521 39.0887 100.545 39.3287 100.545 39.5847V54.3687C100.481 54.7207 100.345 54.9687 100.137 55.1127C99.9445 55.2727 99.6165 55.3527 99.1525 55.3527ZM121.172 55.3047C120.708 55.3047 120.364 55.2167 120.14 55.0407C119.916 54.8647 119.804 54.6247 119.804 54.3207L119.972 53.5287C119.844 53.7367 119.628 53.9847 119.324 54.2727C119.02 54.5447 118.62 54.7927 118.124 55.0167C117.628 55.2247 117.028 55.3287 116.324 55.3287C115.572 55.3287 114.86 55.1767 114.188 54.8727C113.532 54.5527 112.948 54.1207 112.436 53.5767C111.94 53.0167 111.54 52.3847 111.236 51.6807C110.948 50.9607 110.804 50.1927 110.804 49.3767C110.804 48.5927 110.948 47.8567 111.236 47.1687C111.54 46.4647 111.948 45.8407 112.46 45.2967C112.972 44.7527 113.556 44.3287 114.212 44.0247C114.884 43.7047 115.588 43.5447 116.324 43.5447C116.98 43.5447 117.532 43.6327 117.98 43.8087C118.444 43.9847 118.836 44.2087 119.156 44.4807C119.476 44.7367 119.74 45.0087 119.948 45.2967L119.804 44.6007C119.804 44.2487 119.916 43.9847 120.14 43.8087C120.364 43.6167 120.716 43.5207 121.196 43.5207C121.644 43.5207 121.964 43.5927 122.156 43.7367C122.348 43.8647 122.468 44.0487 122.516 44.2887C122.564 44.5127 122.588 44.7687 122.588 45.0567V53.8407C122.588 54.1127 122.564 54.3607 122.516 54.5847C122.468 54.8087 122.34 54.9847 122.132 55.1127C121.94 55.2407 121.62 55.3047 121.172 55.3047ZM116.756 52.5207C117.3 52.5207 117.788 52.3847 118.22 52.1127C118.652 51.8407 118.996 51.4727 119.252 51.0087C119.524 50.5287 119.66 50.0007 119.66 49.4247C119.66 48.8007 119.524 48.2567 119.252 47.7927C118.98 47.3287 118.62 46.9687 118.172 46.7127C117.74 46.4407 117.252 46.3047 116.708 46.3047C116.116 46.3047 115.588 46.4487 115.124 46.7367C114.66 47.0087 114.292 47.3847 114.02 47.8647C113.764 48.3287 113.636 48.8567 113.636 49.4487C113.636 50.0247 113.772 50.5447 114.044 51.0087C114.316 51.4727 114.684 51.8407 115.148 52.1127C115.628 52.3847 116.164 52.5207 116.756 52.5207ZM131.164 55.3287C130.38 55.3287 129.676 55.1767 129.052 54.8727C128.444 54.5527 127.924 54.1207 127.492 53.5767C127.076 53.0327 126.756 52.4087 126.532 51.7047C126.324 50.9847 126.22 50.2167 126.22 49.4007C126.236 48.5847 126.356 47.8247 126.58 47.1207C126.804 46.4007 127.124 45.7767 127.54 45.2487C127.972 44.7047 128.492 44.2807 129.1 43.9767C129.708 43.6727 130.396 43.5207 131.164 43.5207C131.9 43.5207 132.588 43.6727 133.228 43.9767C133.884 44.2807 134.46 44.7047 134.956 45.2487C135.468 45.7767 135.868 46.4007 136.156 47.1207C136.444 47.8247 136.588 48.5767 136.588 49.3767C136.588 50.2087 136.444 50.9927 136.156 51.7287C135.868 52.4487 135.476 53.0807 134.98 53.6247C134.484 54.1527 133.908 54.5687 133.252 54.8727C132.596 55.1767 131.9 55.3287 131.164 55.3287ZM130.78 52.5207C131.34 52.5207 131.844 52.3927 132.292 52.1367C132.74 51.8647 133.092 51.4967 133.348 51.0327C133.62 50.5687 133.756 50.0407 133.756 49.4487C133.756 48.8407 133.62 48.3047 133.348 47.8407C133.092 47.3607 132.74 46.9927 132.292 46.7367C131.844 46.4647 131.34 46.3287 130.78 46.3287C130.236 46.3287 129.74 46.4647 129.292 46.7367C128.844 47.0087 128.484 47.3767 128.212 47.8407C127.956 48.3047 127.828 48.8407 127.828 49.4487C127.828 50.0407 127.956 50.5687 128.212 51.0327C128.484 51.4967 128.844 51.8647 129.292 52.1367C129.74 52.3927 130.236 52.5207 130.78 52.5207ZM126.34 55.3527C125.908 55.3527 125.588 55.2807 125.38 55.1367C125.172 55.0087 125.044 54.8407 124.996 54.6327C124.948 54.4087 124.924 54.1607 124.924 53.8887V39.5847C124.924 39.3127 124.948 39.0727 124.996 38.8647C125.044 38.6407 125.172 38.4647 125.38 38.3367C125.588 38.2087 125.908 38.1447 126.34 38.1447C126.788 38.1447 127.108 38.2087 127.3 38.3367C127.492 38.4647 127.612 38.6407 127.66 38.8647C127.708 39.0887 127.732 39.3287 127.732 39.5847V54.3687C127.668 54.7207 127.532 54.9687 127.324 55.1127C127.132 55.2727 126.804 55.3527 126.34 55.3527ZM150.779 55.1847C149.995 55.1847 149.291 55.0407 148.667 54.7527C148.059 54.4487 147.539 54.0327 147.107 53.5047C146.691 52.9607 146.371 52.3367 146.147 51.6327C145.939 50.9287 145.835 50.1687 145.835 49.3527C145.851 48.5367 145.971 47.7767 146.195 47.0727C146.419 46.3527 146.739 45.7287 147.155 45.2007C147.587 44.6727 148.107 44.2567 148.715 43.9527C149.323 43.6487 150.011 43.4967 150.779 43.4967C151.515 43.4967 152.203 43.6487 152.843 43.9527C153.499 44.2567 154.075 44.6807 154.571 45.2247C155.083 45.7687 155.483 46.4007 155.771 47.1207C156.059 47.8247 156.203 48.5847 156.203 49.4007C156.203 50.2327 156.059 51.0007 155.771 51.7047C155.483 52.4087 155.091 53.0247 154.595 53.5527C154.099 54.0647 153.523 54.4647 152.867 54.7527C152.211 55.0407 151.515 55.1847 150.779 55.1847ZM145.979 60.1767C145.547 60.1767 145.227 60.1127 145.019 59.9847C144.811 59.8567 144.683 59.6887 144.635 59.4807C144.587 59.2727 144.563 59.0327 144.563 58.7607V44.9607C144.563 44.6887 144.587 44.4487 144.635 44.2407C144.683 44.0327 144.803 43.8647 144.995 43.7367C145.203 43.5927 145.523 43.5207 145.955 43.5207C146.371 43.5207 146.699 43.5847 146.939 43.7127C147.179 43.8407 147.339 44.0567 147.419 44.3607V58.7367C147.435 59.0087 147.411 59.2487 147.347 59.4567C147.299 59.6807 147.171 59.8567 146.963 59.9847C146.755 60.1127 146.427 60.1767 145.979 60.1767ZM150.395 52.4967C150.955 52.4967 151.459 52.3687 151.907 52.1127C152.355 51.8407 152.707 51.4727 152.963 51.0087C153.235 50.5287 153.371 49.9927 153.371 49.4007C153.371 48.7927 153.235 48.2567 152.963 47.7927C152.707 47.3287 152.355 46.9687 151.907 46.7127C151.459 46.4407 150.955 46.3047 150.395 46.3047C149.851 46.3047 149.355 46.4407 148.907 46.7127C148.459 46.9847 148.099 47.3527 147.827 47.8167C147.571 48.2647 147.443 48.7927 147.443 49.4007C147.443 49.9927 147.571 50.5287 147.827 51.0087C148.099 51.4727 148.459 51.8407 148.907 52.1127C149.355 52.3687 149.851 52.4967 150.395 52.4967ZM163.942 55.4967C162.902 55.4967 161.99 55.3287 161.206 54.9927C160.438 54.6567 159.79 54.2007 159.262 53.6247C158.75 53.0327 158.358 52.3767 158.086 51.6567C157.83 50.9207 157.702 50.1607 157.702 49.3767C157.702 48.2247 157.966 47.2007 158.494 46.3047C159.022 45.4087 159.75 44.7047 160.678 44.1927C161.622 43.6807 162.702 43.4247 163.918 43.4247C164.782 43.4247 165.542 43.5607 166.198 43.8327C166.854 44.1047 167.398 44.4647 167.83 44.9127C168.278 45.3447 168.614 45.8247 168.838 46.3527C169.078 46.8807 169.198 47.3927 169.198 47.8887C169.198 48.7367 168.99 49.3527 168.574 49.7367C168.174 50.1207 167.67 50.3127 167.062 50.3127H160.726C160.742 50.8567 160.91 51.3287 161.23 51.7287C161.566 52.1287 161.982 52.4407 162.478 52.6647C162.99 52.8727 163.51 52.9767 164.038 52.9767C164.438 52.9767 164.79 52.9527 165.094 52.9047C165.414 52.8567 165.686 52.8007 165.91 52.7367C166.134 52.6567 166.326 52.5767 166.486 52.4967C166.662 52.4167 166.822 52.3447 166.966 52.2807C167.11 52.2167 167.246 52.1767 167.374 52.1607C167.55 52.1447 167.726 52.1847 167.902 52.2807C168.078 52.3767 168.222 52.5447 168.334 52.7847C168.43 52.9447 168.494 53.0967 168.526 53.2407C168.574 53.3687 168.598 53.4967 168.598 53.6247C168.598 53.9447 168.406 54.2487 168.022 54.5367C167.638 54.8087 167.094 55.0327 166.39 55.2087C165.702 55.4007 164.886 55.4967 163.942 55.4967ZM160.726 48.6087H165.646C165.918 48.6087 166.126 48.5687 166.27 48.4887C166.414 48.3927 166.486 48.2007 166.486 47.9127C166.486 47.5447 166.374 47.2167 166.15 46.9287C165.926 46.6247 165.622 46.3927 165.238 46.2327C164.854 46.0567 164.406 45.9687 163.894 45.9687C163.302 45.9687 162.766 46.0887 162.286 46.3287C161.806 46.5527 161.422 46.8647 161.134 47.2647C160.862 47.6647 160.726 48.1127 160.726 48.6087ZM172.584 55.3527C172.152 55.3527 171.832 55.2807 171.624 55.1367C171.432 55.0087 171.312 54.8327 171.264 54.6087C171.216 54.3847 171.192 54.1367 171.192 53.8647V44.9607C171.192 44.6727 171.216 44.4247 171.264 44.2167C171.312 43.9927 171.432 43.8247 171.624 43.7127C171.832 43.5847 172.16 43.5207 172.608 43.5207C173.04 43.5207 173.352 43.5767 173.544 43.6887C173.752 43.8007 173.88 43.9447 173.928 44.1207C173.992 44.2807 174.024 44.4407 174.024 44.6007L173.832 45.0327C173.912 44.9047 174.024 44.7527 174.168 44.5767C174.312 44.3847 174.504 44.2007 174.744 44.0247C174.984 43.8327 175.272 43.6807 175.608 43.5687C175.944 43.4407 176.344 43.3767 176.808 43.3767C177 43.3767 177.2 43.4007 177.408 43.4487C177.632 43.4807 177.848 43.5367 178.056 43.6167C178.28 43.6807 178.48 43.7687 178.656 43.8807C178.832 43.9927 178.968 44.1287 179.064 44.2887C179.16 44.4327 179.208 44.6007 179.208 44.7927C179.208 45.3047 179.08 45.7367 178.824 46.0887C178.568 46.4407 178.264 46.6167 177.912 46.6167C177.672 46.6167 177.496 46.5927 177.384 46.5447C177.272 46.4967 177.176 46.4407 177.096 46.3767C177.032 46.3127 176.928 46.2567 176.784 46.2087C176.656 46.1607 176.448 46.1367 176.16 46.1367C175.92 46.1367 175.672 46.1767 175.416 46.2567C175.176 46.3367 174.952 46.4567 174.744 46.6167C174.536 46.7767 174.368 46.9847 174.24 47.2407C174.112 47.4807 174.048 47.7607 174.048 48.0807V53.9127C174.048 54.1847 174.024 54.4327 173.976 54.6567C173.928 54.8647 173.8 55.0327 173.592 55.1607C173.384 55.2887 173.048 55.3527 172.584 55.3527ZM185.562 60.1527C184.986 60.1527 184.434 60.0807 183.906 59.9367C183.378 59.8087 182.898 59.6327 182.466 59.4087C182.05 59.1847 181.714 58.9447 181.458 58.6887C181.218 58.4327 181.098 58.1927 181.098 57.9687C181.098 57.7447 181.13 57.5527 181.194 57.3927C181.274 57.2327 181.386 57.0727 181.53 56.9127C181.722 56.7207 181.874 56.5767 181.986 56.4807C182.114 56.3847 182.282 56.3367 182.49 56.3367C182.666 56.3367 182.834 56.4007 182.994 56.5287C183.17 56.6567 183.37 56.8007 183.594 56.9607C183.818 57.1207 184.09 57.2647 184.41 57.3927C184.73 57.5207 185.138 57.5847 185.634 57.5847C186.05 57.5847 186.434 57.5127 186.786 57.3687C187.138 57.2247 187.434 57.0087 187.674 56.7207C187.93 56.4487 188.13 56.1207 188.274 55.7367C188.418 55.3527 188.49 54.9207 188.49 54.4407L188.466 44.5047C188.498 44.1367 188.626 43.8807 188.85 43.7367C189.074 43.5767 189.418 43.4967 189.882 43.4967C190.314 43.4967 190.626 43.5607 190.818 43.6887C191.01 43.8007 191.13 43.9687 191.178 44.1927C191.226 44.4007 191.25 44.6327 191.25 44.8887V54.6087C191.25 55.4887 191.098 56.2727 190.794 56.9607C190.49 57.6487 190.074 58.2247 189.546 58.6887C189.018 59.1687 188.41 59.5287 187.722 59.7687C187.05 60.0247 186.33 60.1527 185.562 60.1527ZM185.298 55.0407C184.546 55.0407 183.842 54.8967 183.186 54.6087C182.546 54.3207 181.978 53.9127 181.482 53.3847C181.002 52.8567 180.618 52.2487 180.33 51.5607C180.058 50.8567 179.922 50.0967 179.922 49.2807C179.922 48.4807 180.058 47.7367 180.33 47.0487C180.618 46.3607 181.002 45.7527 181.482 45.2247C181.978 44.6967 182.546 44.2887 183.186 44.0007C183.842 43.6967 184.538 43.5447 185.274 43.5447C185.994 43.5447 186.618 43.6887 187.146 43.9767C187.69 44.2487 188.138 44.6407 188.49 45.1527C188.842 45.6647 189.106 46.2727 189.282 46.9767C189.474 47.6807 189.57 48.4567 189.57 49.3047C189.57 50.4727 189.41 51.4887 189.09 52.3527C188.77 53.2167 188.298 53.8807 187.674 54.3447C187.05 54.8087 186.258 55.0407 185.298 55.0407ZM185.562 52.3287C186.106 52.3287 186.586 52.2007 187.002 51.9447C187.434 51.6727 187.77 51.3047 188.01 50.8407C188.266 50.3767 188.394 49.8567 188.394 49.2807C188.394 48.6887 188.266 48.1687 188.01 47.7207C187.77 47.2567 187.434 46.8967 187.002 46.6407C186.57 46.3847 186.082 46.2567 185.538 46.2567C184.994 46.2567 184.506 46.3927 184.074 46.6647C183.658 46.9207 183.33 47.2727 183.09 47.7207C182.85 48.1687 182.73 48.6887 182.73 49.2807C182.73 49.8727 182.85 50.4007 183.09 50.8647C183.346 51.3127 183.682 51.6727 184.098 51.9447C184.53 52.2007 185.018 52.3287 185.562 52.3287ZM203.414 55.3047C202.95 55.3047 202.606 55.2167 202.382 55.0407C202.158 54.8647 202.046 54.6247 202.046 54.3207L202.214 53.5287C202.086 53.7367 201.87 53.9847 201.566 54.2727C201.262 54.5447 200.862 54.7927 200.366 55.0167C199.87 55.2247 199.27 55.3287 198.566 55.3287C197.814 55.3287 197.102 55.1767 196.43 54.8727C195.774 54.5527 195.19 54.1207 194.678 53.5767C194.182 53.0167 193.782 52.3847 193.478 51.6807C193.19 50.9607 193.046 50.1927 193.046 49.3767C193.046 48.5927 193.19 47.8567 193.478 47.1687C193.782 46.4647 194.19 45.8407 194.702 45.2967C195.214 44.7527 195.798 44.3287 196.454 44.0247C197.126 43.7047 197.83 43.5447 198.566 43.5447C199.222 43.5447 199.774 43.6327 200.222 43.8087C200.686 43.9847 201.078 44.2087 201.398 44.4807C201.718 44.7367 201.982 45.0087 202.19 45.2967L202.046 44.6007C202.046 44.2487 202.158 43.9847 202.382 43.8087C202.606 43.6167 202.958 43.5207 203.438 43.5207C203.886 43.5207 204.206 43.5927 204.398 43.7367C204.59 43.8647 204.71 44.0487 204.758 44.2887C204.806 44.5127 204.83 44.7687 204.83 45.0567V53.8407C204.83 54.1127 204.806 54.3607 204.758 54.5847C204.71 54.8087 204.582 54.9847 204.374 55.1127C204.182 55.2407 203.862 55.3047 203.414 55.3047ZM198.998 52.5207C199.542 52.5207 200.03 52.3847 200.462 52.1127C200.894 51.8407 201.238 51.4727 201.494 51.0087C201.766 50.5287 201.902 50.0007 201.902 49.4247C201.902 48.8007 201.766 48.2567 201.494 47.7927C201.222 47.3287 200.862 46.9687 200.414 46.7127C199.982 46.4407 199.494 46.3047 198.95 46.3047C198.358 46.3047 197.83 46.4487 197.366 46.7367C196.902 47.0087 196.534 47.3847 196.262 47.8647C196.006 48.3287 195.878 48.8567 195.878 49.4487C195.878 50.0247 196.014 50.5447 196.286 51.0087C196.558 51.4727 196.926 51.8407 197.39 52.1127C197.87 52.3847 198.406 52.5207 198.998 52.5207ZM212.134 55.3287C211.398 55.3287 210.718 55.2007 210.094 54.9447C209.486 54.6727 208.95 54.2887 208.486 53.7927C208.022 53.2967 207.662 52.7047 207.406 52.0167C207.15 51.3287 207.022 50.5687 207.022 49.7367V44.9607C207.022 44.6887 207.046 44.4487 207.094 44.2407C207.142 44.0167 207.27 43.8407 207.478 43.7127C207.686 43.5847 208.006 43.5207 208.438 43.5207C208.902 43.5207 209.23 43.5847 209.422 43.7127C209.63 43.8407 209.758 44.0167 209.806 44.2407C209.854 44.4647 209.878 44.7127 209.878 44.9847V49.7367C209.878 50.3127 209.974 50.8087 210.166 51.2247C210.374 51.6407 210.67 51.9687 211.054 52.2087C211.438 52.4327 211.91 52.5447 212.47 52.5447C213.046 52.5447 213.534 52.4327 213.934 52.2087C214.35 51.9687 214.67 51.6407 214.894 51.2247C215.118 50.7927 215.23 50.2967 215.23 49.7367V44.9367C215.23 44.6647 215.254 44.4247 215.302 44.2167C215.35 43.9927 215.478 43.8247 215.686 43.7127C215.894 43.5847 216.222 43.5207 216.67 43.5207C217.118 43.5207 217.438 43.5847 217.63 43.7127C217.822 43.8407 217.942 44.0167 217.99 44.2407C218.054 44.4647 218.086 44.7047 218.086 44.9607V53.9607C218.086 54.2007 218.054 54.4247 217.99 54.6327C217.942 54.8407 217.814 55.0087 217.606 55.1367C217.414 55.2647 217.094 55.3287 216.646 55.3287C216.326 55.3287 216.07 55.2887 215.878 55.2087C215.702 55.1447 215.566 55.0567 215.47 54.9447C215.39 54.8167 215.334 54.6887 215.302 54.5607C215.286 54.4327 215.278 54.3047 215.278 54.1767L215.47 53.5287C215.374 53.6727 215.23 53.8487 215.038 54.0567C214.846 54.2487 214.606 54.4487 214.318 54.6567C214.046 54.8487 213.726 55.0087 213.358 55.1367C212.99 55.2647 212.582 55.3287 212.134 55.3287ZM224.585 55.3527C223.993 55.3527 223.465 55.3127 223.001 55.2327C222.553 55.1527 222.161 55.0167 221.825 54.8247C221.505 54.6327 221.241 54.3767 221.033 54.0567C220.825 53.7207 220.665 53.3127 220.553 52.8327C220.457 52.3527 220.409 51.7767 220.409 51.1047V39.5367C220.409 39.2647 220.433 39.0247 220.481 38.8167C220.545 38.5927 220.673 38.4167 220.865 38.2887C221.073 38.1447 221.401 38.0727 221.849 38.0727C222.297 38.0727 222.617 38.1367 222.809 38.2647C223.017 38.3927 223.145 38.5687 223.193 38.7927C223.257 39.0007 223.289 39.2407 223.289 39.5127V50.9847C223.289 51.2887 223.305 51.5447 223.337 51.7527C223.385 51.9447 223.457 52.1047 223.553 52.2327C223.665 52.3447 223.801 52.4247 223.961 52.4727C224.137 52.5207 224.345 52.5447 224.585 52.5447C224.793 52.5447 224.977 52.5687 225.137 52.6167C225.313 52.6647 225.449 52.7847 225.545 52.9767C225.657 53.1687 225.713 53.4807 225.713 53.9127C225.713 54.3607 225.657 54.6887 225.545 54.8967C225.449 55.1047 225.313 55.2327 225.137 55.2807C224.961 55.3287 224.777 55.3527 224.585 55.3527ZM237.281 55.3047C236.817 55.3047 236.473 55.2167 236.249 55.0407C236.025 54.8647 235.913 54.6247 235.913 54.3207L236.081 53.5287C235.953 53.7367 235.737 53.9847 235.433 54.2727C235.129 54.5447 234.729 54.7927 234.233 55.0167C233.737 55.2247 233.137 55.3287 232.433 55.3287C231.681 55.3287 230.969 55.1767 230.297 54.8727C229.641 54.5527 229.057 54.1207 228.545 53.5767C228.049 53.0167 227.649 52.3847 227.345 51.6807C227.057 50.9607 226.913 50.1927 226.913 49.3767C226.913 48.5927 227.057 47.8567 227.345 47.1687C227.649 46.4647 228.057 45.8407 228.569 45.2967C229.081 44.7527 229.665 44.3287 230.321 44.0247C230.993 43.7047 231.697 43.5447 232.433 43.5447C233.089 43.5447 233.641 43.6327 234.089 43.8087C234.553 43.9847 234.945 44.2087 235.265 44.4807C235.585 44.7367 235.849 45.0087 236.057 45.2967L235.913 44.6007C235.913 44.2487 236.025 43.9847 236.249 43.8087C236.473 43.6167 236.825 43.5207 237.305 43.5207C237.753 43.5207 238.073 43.5927 238.265 43.7367C238.457 43.8647 238.577 44.0487 238.625 44.2887C238.673 44.5127 238.697 44.7687 238.697 45.0567V53.8407C238.697 54.1127 238.673 54.3607 238.625 54.5847C238.577 54.8087 238.449 54.9847 238.241 55.1127C238.049 55.2407 237.729 55.3047 237.281 55.3047ZM232.865 52.5207C233.409 52.5207 233.897 52.3847 234.329 52.1127C234.761 51.8407 235.105 51.4727 235.361 51.0087C235.633 50.5287 235.769 50.0007 235.769 49.4247C235.769 48.8007 235.633 48.2567 235.361 47.7927C235.089 47.3287 234.729 46.9687 234.281 46.7127C233.849 46.4407 233.361 46.3047 232.817 46.3047C232.225 46.3047 231.697 46.4487 231.233 46.7367C230.769 47.0087 230.401 47.3847 230.129 47.8647C229.873 48.3287 229.745 48.8567 229.745 49.4487C229.745 50.0247 229.881 50.5447 230.153 51.0087C230.425 51.4727 230.793 51.8407 231.257 52.1127C231.737 52.3847 232.273 52.5207 232.865 52.5207ZM242.521 55.3287C242.089 55.3287 241.769 55.2567 241.561 55.1127C241.369 54.9847 241.249 54.8167 241.201 54.6087C241.153 54.3847 241.129 54.1367 241.129 53.8647V44.8887C241.129 44.6327 241.153 44.4007 241.201 44.1927C241.249 43.9847 241.377 43.8247 241.585 43.7127C241.793 43.5847 242.113 43.5207 242.545 43.5207C242.929 43.5207 243.217 43.5687 243.409 43.6647C243.601 43.7607 243.729 43.8807 243.793 44.0247C243.857 44.1687 243.889 44.3127 243.889 44.4567C243.905 44.6007 243.921 44.7127 243.937 44.7927L243.841 45.5607C243.937 45.3047 244.097 45.0567 244.321 44.8167C244.545 44.5767 244.817 44.3607 245.137 44.1687C245.457 43.9607 245.801 43.8007 246.169 43.6887C246.553 43.5607 246.945 43.4967 247.345 43.4967C248.097 43.4967 248.769 43.6327 249.361 43.9047C249.953 44.1767 250.457 44.5607 250.873 45.0567C251.305 45.5527 251.633 46.1447 251.857 46.8327C252.081 47.5047 252.193 48.2647 252.193 49.1127V53.8887C252.193 54.1607 252.161 54.4087 252.097 54.6327C252.049 54.8407 251.929 55.0087 251.737 55.1367C251.545 55.2647 251.217 55.3287 250.753 55.3287C250.305 55.3287 249.977 55.2567 249.769 55.1127C249.561 54.9847 249.433 54.8167 249.385 54.6087C249.337 54.3847 249.313 54.1367 249.313 53.8647V49.0887C249.313 48.5127 249.209 48.0167 249.001 47.6007C248.809 47.1847 248.521 46.8647 248.137 46.6407C247.769 46.4167 247.297 46.3047 246.721 46.3047C246.161 46.3047 245.673 46.4247 245.257 46.6647C244.841 46.8887 244.521 47.2087 244.297 47.6247C244.073 48.0407 243.961 48.5287 243.961 49.0887V53.8887C243.961 54.1607 243.937 54.4087 243.889 54.6327C243.841 54.8407 243.713 55.0087 243.505 55.1367C243.313 55.2647 242.985 55.3287 242.521 55.3287ZM254.679 57.8247C254.679 57.8247 254.647 57.8087 254.583 57.7767C254.519 57.7607 254.455 57.6967 254.391 57.5847C254.327 57.4887 254.295 57.3287 254.295 57.1047C254.295 56.8007 254.343 56.6007 254.439 56.5047C254.535 56.4247 254.599 56.3767 254.631 56.3607C254.647 56.3447 254.759 56.2487 254.967 56.0727C255.175 55.9127 255.295 55.6327 255.327 55.2327C255.167 55.2007 255.023 55.1607 254.895 55.1127C254.783 55.0487 254.687 54.9767 254.607 54.8967C254.447 54.7367 254.351 54.5527 254.319 54.3447C254.287 54.1207 254.271 53.8967 254.271 53.6727C254.271 53.3047 254.311 53.0007 254.391 52.7607C254.471 52.5207 254.623 52.3447 254.847 52.2327C255.087 52.1047 255.439 52.0407 255.903 52.0407C256.511 52.0407 256.943 52.1687 257.199 52.4247C257.343 52.5687 257.423 52.7527 257.439 52.9767C257.471 53.2007 257.487 53.4247 257.487 53.6487C257.487 53.8087 257.487 53.9447 257.487 54.0567C257.487 54.1527 257.479 54.2407 257.463 54.3207C257.399 54.9607 257.231 55.5447 256.959 56.0727C256.703 56.6007 256.375 57.0247 255.975 57.3447C255.591 57.6647 255.159 57.8247 254.679 57.8247ZM255.855 47.4087C255.247 47.4087 254.823 47.2887 254.583 47.0487C254.359 46.7927 254.247 46.3847 254.247 45.8247C254.247 45.4087 254.287 45.0807 254.367 44.8407C254.463 44.6007 254.631 44.4327 254.871 44.3367C255.127 44.2247 255.463 44.1687 255.879 44.1687C256.503 44.1687 256.927 44.2887 257.151 44.5287C257.375 44.7687 257.487 45.1927 257.487 45.8007C257.487 46.0887 257.455 46.3607 257.391 46.6167C257.327 46.8567 257.183 47.0487 256.959 47.1927C256.735 47.3367 256.367 47.4087 255.855 47.4087ZM267.132 55.3287C266.716 55.3287 266.404 55.2567 266.196 55.1127C265.988 54.9847 265.852 54.8087 265.788 54.5847C265.724 54.3607 265.692 54.1207 265.692 53.8647V39.9927C265.692 39.7367 265.716 39.5047 265.764 39.2967C265.828 39.0727 265.964 38.8967 266.172 38.7687C266.38 38.6247 266.708 38.5527 267.156 38.5527L271.668 38.5767C272.836 38.5767 273.908 38.7767 274.884 39.1767C275.876 39.5767 276.732 40.1447 277.452 40.8807C278.172 41.6167 278.724 42.4967 279.108 43.5207C279.508 44.5287 279.708 45.6407 279.708 46.8567C279.708 48.1047 279.508 49.2487 279.108 50.2887C278.708 51.3287 278.148 52.2247 277.428 52.9767C276.708 53.7287 275.852 54.3127 274.86 54.7287C273.884 55.1287 272.796 55.3287 271.596 55.3287H267.132ZM268.596 52.4247H271.668C272.692 52.4247 273.588 52.2007 274.356 51.7527C275.124 51.2887 275.716 50.6487 276.132 49.8327C276.564 49.0167 276.78 48.0647 276.78 46.9767C276.78 45.8727 276.564 44.9127 276.132 44.0967C275.716 43.2647 275.116 42.6247 274.332 42.1767C273.564 41.7127 272.668 41.4807 271.644 41.4807H268.596V52.4247ZM291.82 55.3047C291.356 55.3047 291.012 55.2167 290.788 55.0407C290.564 54.8647 290.452 54.6247 290.452 54.3207L290.62 53.5287C290.492 53.7367 290.276 53.9847 289.972 54.2727C289.668 54.5447 289.268 54.7927 288.772 55.0167C288.276 55.2247 287.676 55.3287 286.972 55.3287C286.22 55.3287 285.508 55.1767 284.836 54.8727C284.18 54.5527 283.596 54.1207 283.084 53.5767C282.588 53.0167 282.188 52.3847 281.884 51.6807C281.596 50.9607 281.452 50.1927 281.452 49.3767C281.452 48.5927 281.596 47.8567 281.884 47.1687C282.188 46.4647 282.596 45.8407 283.108 45.2967C283.62 44.7527 284.204 44.3287 284.86 44.0247C285.532 43.7047 286.236 43.5447 286.972 43.5447C287.628 43.5447 288.18 43.6327 288.628 43.8087C289.092 43.9847 289.484 44.2087 289.804 44.4807C290.124 44.7367 290.388 45.0087 290.596 45.2967L290.452 44.6007C290.452 44.2487 290.564 43.9847 290.788 43.8087C291.012 43.6167 291.364 43.5207 291.844 43.5207C292.292 43.5207 292.612 43.5927 292.804 43.7367C292.996 43.8647 293.116 44.0487 293.164 44.2887C293.212 44.5127 293.236 44.7687 293.236 45.0567V53.8407C293.236 54.1127 293.212 54.3607 293.164 54.5847C293.116 54.8087 292.988 54.9847 292.78 55.1127C292.588 55.2407 292.268 55.3047 291.82 55.3047ZM287.404 52.5207C287.948 52.5207 288.436 52.3847 288.868 52.1127C289.3 51.8407 289.644 51.4727 289.9 51.0087C290.172 50.5287 290.308 50.0007 290.308 49.4247C290.308 48.8007 290.172 48.2567 289.9 47.7927C289.628 47.3287 289.268 46.9687 288.82 46.7127C288.388 46.4407 287.9 46.3047 287.356 46.3047C286.764 46.3047 286.236 46.4487 285.772 46.7367C285.308 47.0087 284.94 47.3847 284.668 47.8647C284.412 48.3287 284.284 48.8567 284.284 49.4487C284.284 50.0247 284.42 50.5447 284.692 51.0087C284.964 51.4727 285.332 51.8407 285.796 52.1127C286.276 52.3847 286.812 52.5207 287.404 52.5207ZM297.036 55.3287C296.604 55.3287 296.284 55.2647 296.076 55.1367C295.884 55.0087 295.764 54.8327 295.716 54.6087C295.668 54.3847 295.644 54.1447 295.644 53.8887V44.9127C295.644 44.6567 295.668 44.4247 295.716 44.2167C295.764 44.0087 295.892 43.8407 296.1 43.7127C296.308 43.5847 296.636 43.5207 297.084 43.5207C297.548 43.5207 297.884 43.6167 298.092 43.8087C298.316 44.0007 298.428 44.3047 298.428 44.7207L298.212 45.3927C298.292 45.2167 298.428 45.0247 298.62 44.8167C298.812 44.6087 299.044 44.4007 299.316 44.1927C299.604 43.9847 299.924 43.8167 300.276 43.6887C300.628 43.5607 300.996 43.4967 301.38 43.4967C301.908 43.4967 302.388 43.5847 302.82 43.7607C303.268 43.9367 303.66 44.1927 303.996 44.5287C304.348 44.8647 304.652 45.2727 304.908 45.7527C305.18 45.3367 305.484 44.9607 305.82 44.6247C306.156 44.2727 306.548 44.0007 306.996 43.8087C307.444 43.6007 307.948 43.4967 308.508 43.4967C309.436 43.4967 310.212 43.7287 310.836 44.1927C311.476 44.6567 311.956 45.3207 312.276 46.1847C312.612 47.0327 312.78 48.0487 312.78 49.2327V53.8887C312.78 54.1607 312.748 54.4087 312.684 54.6327C312.636 54.8407 312.508 55.0087 312.3 55.1367C312.108 55.2647 311.788 55.3287 311.34 55.3287C310.892 55.3287 310.564 55.2567 310.356 55.1127C310.148 54.9847 310.02 54.8167 309.972 54.6087C309.924 54.3847 309.9 54.1367 309.9 53.8647V49.2087C309.9 48.6167 309.828 48.1047 309.684 47.6727C309.54 47.2407 309.324 46.9047 309.036 46.6647C308.764 46.4247 308.404 46.3047 307.956 46.3047C307.476 46.3047 307.06 46.4247 306.708 46.6647C306.372 46.8887 306.108 47.2167 305.916 47.6487C305.724 48.0807 305.628 48.6087 305.628 49.2327V53.9127C305.628 54.1847 305.588 54.4407 305.508 54.6807C305.428 54.9047 305.268 55.0727 305.028 55.1847C304.804 55.3127 304.476 55.3607 304.044 55.3287C303.644 55.3127 303.348 55.2327 303.156 55.0887C302.98 54.9447 302.868 54.7687 302.82 54.5607C302.788 54.3367 302.772 54.1047 302.772 53.8647V49.2087C302.772 48.6167 302.7 48.1047 302.556 47.6727C302.412 47.2247 302.196 46.8887 301.908 46.6647C301.636 46.4247 301.268 46.3047 300.804 46.3047C300.308 46.3047 299.884 46.4327 299.532 46.6887C299.196 46.9447 298.94 47.2887 298.764 47.7207C298.588 48.1527 298.5 48.6487 298.5 49.2087V53.9127C298.5 54.1687 298.468 54.4087 298.404 54.6327C298.356 54.8567 298.228 55.0247 298.02 55.1367C297.828 55.2647 297.5 55.3287 297.036 55.3287ZM321.263 55.1847C320.479 55.1847 319.775 55.0407 319.151 54.7527C318.543 54.4487 318.023 54.0327 317.591 53.5047C317.175 52.9607 316.855 52.3367 316.631 51.6327C316.423 50.9287 316.319 50.1687 316.319 49.3527C316.335 48.5367 316.455 47.7767 316.679 47.0727C316.903 46.3527 317.223 45.7287 317.639 45.2007C318.071 44.6727 318.591 44.2567 319.199 43.9527C319.807 43.6487 320.495 43.4967 321.263 43.4967C321.999 43.4967 322.687 43.6487 323.327 43.9527C323.983 44.2567 324.559 44.6807 325.055 45.2247C325.567 45.7687 325.967 46.4007 326.255 47.1207C326.543 47.8247 326.687 48.5847 326.687 49.4007C326.687 50.2327 326.543 51.0007 326.255 51.7047C325.967 52.4087 325.575 53.0247 325.079 53.5527C324.583 54.0647 324.007 54.4647 323.351 54.7527C322.695 55.0407 321.999 55.1847 321.263 55.1847ZM316.463 60.1767C316.031 60.1767 315.711 60.1127 315.503 59.9847C315.295 59.8567 315.167 59.6887 315.119 59.4807C315.071 59.2727 315.047 59.0327 315.047 58.7607V44.9607C315.047 44.6887 315.071 44.4487 315.119 44.2407C315.167 44.0327 315.287 43.8647 315.479 43.7367C315.687 43.5927 316.007 43.5207 316.439 43.5207C316.855 43.5207 317.183 43.5847 317.423 43.7127C317.663 43.8407 317.823 44.0567 317.903 44.3607V58.7367C317.919 59.0087 317.895 59.2487 317.831 59.4567C317.783 59.6807 317.655 59.8567 317.447 59.9847C317.239 60.1127 316.911 60.1767 316.463 60.1767ZM320.879 52.4967C321.439 52.4967 321.943 52.3687 322.391 52.1127C322.839 51.8407 323.191 51.4727 323.447 51.0087C323.719 50.5287 323.855 49.9927 323.855 49.4007C323.855 48.7927 323.719 48.2567 323.447 47.7927C323.191 47.3287 322.839 46.9687 322.391 46.7127C321.943 46.4407 321.439 46.3047 320.879 46.3047C320.335 46.3047 319.839 46.4407 319.391 46.7127C318.943 46.9847 318.583 47.3527 318.311 47.8167C318.055 48.2647 317.927 48.7927 317.927 49.4007C317.927 49.9927 318.055 50.5287 318.311 51.0087C318.583 51.4727 318.943 51.8407 319.391 52.1127C319.839 52.3687 320.335 52.4967 320.879 52.4967ZM338.555 55.3047C338.091 55.3047 337.747 55.2167 337.523 55.0407C337.299 54.8647 337.187 54.6247 337.187 54.3207L337.355 53.5287C337.227 53.7367 337.011 53.9847 336.707 54.2727C336.403 54.5447 336.003 54.7927 335.507 55.0167C335.011 55.2247 334.411 55.3287 333.707 55.3287C332.955 55.3287 332.243 55.1767 331.571 54.8727C330.915 54.5527 330.331 54.1207 329.819 53.5767C329.323 53.0167 328.923 52.3847 328.619 51.6807C328.331 50.9607 328.187 50.1927 328.187 49.3767C328.187 48.5927 328.331 47.8567 328.619 47.1687C328.923 46.4647 329.331 45.8407 329.843 45.2967C330.355 44.7527 330.939 44.3287 331.595 44.0247C332.267 43.7047 332.971 43.5447 333.707 43.5447C334.363 43.5447 334.915 43.6327 335.363 43.8087C335.827 43.9847 336.219 44.2087 336.539 44.4807C336.859 44.7367 337.123 45.0087 337.331 45.2967L337.187 44.6007C337.187 44.2487 337.299 43.9847 337.523 43.8087C337.747 43.6167 338.099 43.5207 338.579 43.5207C339.027 43.5207 339.347 43.5927 339.539 43.7367C339.731 43.8647 339.851 44.0487 339.899 44.2887C339.947 44.5127 339.971 44.7687 339.971 45.0567V53.8407C339.971 54.1127 339.947 54.3607 339.899 54.5847C339.851 54.8087 339.723 54.9847 339.515 55.1127C339.323 55.2407 339.003 55.3047 338.555 55.3047ZM334.139 52.5207C334.683 52.5207 335.171 52.3847 335.603 52.1127C336.035 51.8407 336.379 51.4727 336.635 51.0087C336.907 50.5287 337.043 50.0007 337.043 49.4247C337.043 48.8007 336.907 48.2567 336.635 47.7927C336.363 47.3287 336.003 46.9687 335.555 46.7127C335.123 46.4407 334.635 46.3047 334.091 46.3047C333.499 46.3047 332.971 46.4487 332.507 46.7367C332.043 47.0087 331.675 47.3847 331.403 47.8647C331.147 48.3287 331.019 48.8567 331.019 49.4487C331.019 50.0247 331.155 50.5447 331.427 51.0087C331.699 51.4727 332.067 51.8407 332.531 52.1127C333.011 52.3847 333.547 52.5207 334.139 52.5207ZM351.787 52.7607C352.203 53.1127 352.419 53.4407 352.435 53.7447C352.467 54.0487 352.307 54.4007 351.955 54.8007C351.683 55.1047 351.443 55.3047 351.235 55.4007C351.027 55.4967 350.819 55.4967 350.611 55.4007C350.403 55.3207 350.155 55.1607 349.867 54.9207L345.283 51.0567V53.9127C345.283 54.1687 345.251 54.4087 345.187 54.6327C345.139 54.8567 345.011 55.0327 344.803 55.1607C344.611 55.2887 344.291 55.3527 343.843 55.3527C343.395 55.3527 343.067 55.2807 342.859 55.1367C342.667 55.0087 342.547 54.8327 342.499 54.6087C342.451 54.3847 342.427 54.1447 342.427 53.8887V39.5607C342.427 39.2887 342.451 39.0487 342.499 38.8407C342.563 38.6167 342.691 38.4407 342.883 38.3127C343.091 38.1687 343.419 38.0967 343.867 38.0967C344.315 38.0967 344.635 38.1687 344.827 38.3127C345.019 38.4407 345.139 38.6167 345.187 38.8407C345.251 39.0487 345.283 39.2967 345.283 39.5847V47.4567L348.595 44.2407C348.851 44.0007 349.091 43.8407 349.315 43.7607C349.539 43.6647 349.755 43.6567 349.963 43.7367C350.187 43.8007 350.419 43.9687 350.659 44.2407C351.059 44.6727 351.251 45.0327 351.235 45.3207C351.219 45.5927 351.019 45.9207 350.635 46.3047L347.395 49.3047L351.787 52.7607ZM146.56 84.1847C145.776 84.1847 145.072 84.0407 144.448 83.7527C143.84 83.4487 143.32 83.0327 142.888 82.5047C142.472 81.9607 142.152 81.3367 141.928 80.6327C141.72 79.9287 141.616 79.1687 141.616 78.3527C141.632 77.5367 141.752 76.7767 141.976 76.0727C142.2 75.3527 142.52 74.7287 142.936 74.2007C143.368 73.6727 143.888 73.2567 144.496 72.9527C145.104 72.6487 145.792 72.4967 146.56 72.4967C147.296 72.4967 147.984 72.6487 148.624 72.9527C149.28 73.2567 149.856 73.6807 150.352 74.2247C150.864 74.7687 151.264 75.4007 151.552 76.1207C151.84 76.8247 151.984 77.5847 151.984 78.4007C151.984 79.2327 151.84 80.0007 151.552 80.7047C151.264 81.4087 150.872 82.0247 150.376 82.5527C149.88 83.0647 149.304 83.4647 148.648 83.7527C147.992 84.0407 147.296 84.1847 146.56 84.1847ZM141.76 89.1767C141.328 89.1767 141.008 89.1127 140.8 88.9847C140.592 88.8567 140.464 88.6887 140.416 88.4807C140.368 88.2727 140.344 88.0327 140.344 87.7607V73.9607C140.344 73.6887 140.368 73.4487 140.416 73.2407C140.464 73.0327 140.584 72.8647 140.776 72.7367C140.984 72.5927 141.304 72.5207 141.736 72.5207C142.152 72.5207 142.48 72.5847 142.72 72.7127C142.96 72.8407 143.12 73.0567 143.2 73.3607V87.7367C143.216 88.0087 143.192 88.2487 143.128 88.4567C143.08 88.6807 142.952 88.8567 142.744 88.9847C142.536 89.1127 142.208 89.1767 141.76 89.1767ZM146.176 81.4967C146.736 81.4967 147.24 81.3687 147.688 81.1127C148.136 80.8407 148.488 80.4727 148.744 80.0087C149.016 79.5287 149.152 78.9927 149.152 78.4007C149.152 77.7927 149.016 77.2567 148.744 76.7927C148.488 76.3287 148.136 75.9687 147.688 75.7127C147.24 75.4407 146.736 75.3047 146.176 75.3047C145.632 75.3047 145.136 75.4407 144.688 75.7127C144.24 75.9847 143.88 76.3527 143.608 76.8167C143.352 77.2647 143.224 77.7927 143.224 78.4007C143.224 78.9927 143.352 79.5287 143.608 80.0087C143.88 80.4727 144.24 80.8407 144.688 81.1127C145.136 81.3687 145.632 81.4967 146.176 81.4967ZM158.116 84.4967C157.7 84.4967 157.26 84.4487 156.796 84.3527C156.332 84.2727 155.884 84.1527 155.452 83.9927C155.02 83.8167 154.644 83.6167 154.324 83.3927C154.02 83.1527 153.828 82.8887 153.748 82.6007C153.684 82.4407 153.66 82.2887 153.676 82.1447C153.692 81.9847 153.74 81.8247 153.82 81.6647C153.9 81.4887 154.02 81.3127 154.18 81.1367C154.324 80.9607 154.468 80.8647 154.612 80.8487C154.772 80.8167 154.972 80.8647 155.212 80.9927C155.42 81.0727 155.644 81.1767 155.884 81.3047C156.14 81.4327 156.396 81.5607 156.652 81.6887C156.924 81.8167 157.196 81.9207 157.468 82.0007C157.756 82.0807 158.036 82.1207 158.308 82.1207C158.9 82.1207 159.372 82.0247 159.724 81.8327C160.076 81.6247 160.252 81.3367 160.252 80.9687C160.252 80.7607 160.196 80.5767 160.084 80.4167C159.972 80.2567 159.82 80.1287 159.628 80.0327C159.452 79.9207 159.236 79.8247 158.98 79.7447C158.74 79.6487 158.476 79.5687 158.188 79.5047C157.916 79.4247 157.628 79.3367 157.324 79.2407C156.924 79.1287 156.524 78.9927 156.124 78.8327C155.724 78.6727 155.364 78.4647 155.044 78.2087C154.74 77.9527 154.492 77.6327 154.3 77.2487C154.108 76.8647 154.012 76.3847 154.012 75.8087C154.012 75.0887 154.18 74.4807 154.516 73.9847C154.868 73.4727 155.372 73.0807 156.028 72.8087C156.684 72.5367 157.476 72.4007 158.404 72.4007C158.724 72.4007 159.028 72.4247 159.316 72.4727C159.62 72.5207 159.908 72.5927 160.18 72.6887C160.468 72.7687 160.74 72.8727 160.996 73.0007C161.268 73.1287 161.524 73.2727 161.764 73.4327C162.164 73.6567 162.372 73.9207 162.388 74.2247C162.404 74.5127 162.292 74.8247 162.052 75.1607C161.876 75.3847 161.7 75.5447 161.524 75.6407C161.348 75.7207 161.164 75.7207 160.972 75.6407C160.716 75.5127 160.436 75.3767 160.132 75.2327C159.844 75.0727 159.54 74.9367 159.22 74.8247C158.916 74.7127 158.596 74.6567 158.26 74.6567C157.94 74.6567 157.652 74.7047 157.396 74.8007C157.14 74.8967 156.948 75.0327 156.82 75.2087C156.692 75.3847 156.628 75.5927 156.628 75.8327C156.628 76.0567 156.692 76.2407 156.82 76.3847C156.948 76.5287 157.116 76.6487 157.324 76.7447C157.532 76.8407 157.78 76.9287 158.068 77.0087C158.356 77.0727 158.66 77.1367 158.98 77.2007C159.428 77.2967 159.884 77.4167 160.348 77.5607C160.812 77.7047 161.236 77.9047 161.62 78.1607C162.02 78.4167 162.34 78.7607 162.58 79.1927C162.82 79.6087 162.94 80.1527 162.94 80.8247C162.94 81.9927 162.508 82.8967 161.644 83.5367C160.796 84.1767 159.62 84.4967 158.116 84.4967ZM166.563 84.3527C166.131 84.3527 165.811 84.2807 165.603 84.1367C165.395 84.0087 165.267 83.8407 165.219 83.6327C165.171 83.4087 165.147 83.1607 165.147 82.8887V73.9607C165.147 73.7047 165.171 73.4727 165.219 73.2647C165.283 73.0407 165.411 72.8647 165.603 72.7367C165.811 72.6087 166.139 72.5447 166.587 72.5447C167.035 72.5447 167.355 72.6087 167.547 72.7367C167.755 72.8647 167.883 73.0407 167.931 73.2647C167.979 73.4887 168.003 73.7367 168.003 74.0087V82.9127C168.003 83.1847 167.979 83.4327 167.931 83.6567C167.883 83.8647 167.755 84.0327 167.547 84.1607C167.355 84.2887 167.027 84.3527 166.563 84.3527ZM166.563 70.2167C166.099 70.2167 165.755 70.1527 165.531 70.0247C165.323 69.8807 165.187 69.6887 165.123 69.4487C165.075 69.2087 165.051 68.9447 165.051 68.6567C165.051 68.3527 165.075 68.0887 165.123 67.8647C165.187 67.6407 165.331 67.4647 165.555 67.3367C165.779 67.1927 166.123 67.1207 166.587 67.1207C167.067 67.1207 167.411 67.1927 167.619 67.3367C167.827 67.4807 167.963 67.6727 168.027 67.9127C168.091 68.1367 168.123 68.4007 168.123 68.7047C168.123 68.9767 168.091 69.2327 168.027 69.4727C167.963 69.7127 167.827 69.8967 167.619 70.0247C167.411 70.1527 167.059 70.2167 166.563 70.2167ZM180.037 81.7607C180.453 82.1127 180.669 82.4407 180.685 82.7447C180.717 83.0487 180.557 83.4007 180.205 83.8007C179.933 84.1047 179.693 84.3047 179.485 84.4007C179.277 84.4967 179.069 84.4967 178.861 84.4007C178.653 84.3207 178.405 84.1607 178.117 83.9207L173.533 80.0567V82.9127C173.533 83.1687 173.501 83.4087 173.437 83.6327C173.389 83.8567 173.261 84.0327 173.053 84.1607C172.861 84.2887 172.541 84.3527 172.093 84.3527C171.645 84.3527 171.317 84.2807 171.109 84.1367C170.917 84.0087 170.797 83.8327 170.749 83.6087C170.701 83.3847 170.677 83.1447 170.677 82.8887V68.5607C170.677 68.2887 170.701 68.0487 170.749 67.8407C170.813 67.6167 170.941 67.4407 171.133 67.3127C171.341 67.1687 171.669 67.0967 172.117 67.0967C172.565 67.0967 172.885 67.1687 173.077 67.3127C173.269 67.4407 173.389 67.6167 173.437 67.8407C173.501 68.0487 173.533 68.2967 173.533 68.5847V76.4567L176.845 73.2407C177.101 73.0007 177.341 72.8407 177.565 72.7607C177.789 72.6647 178.005 72.6567 178.213 72.7367C178.437 72.8007 178.669 72.9687 178.909 73.2407C179.309 73.6727 179.501 74.0327 179.485 74.3207C179.469 74.5927 179.269 74.9207 178.885 75.3047L175.645 78.3047L180.037 81.7607ZM187.352 84.4967C186.584 84.4967 185.832 84.3527 185.096 84.0647C184.376 83.7607 183.72 83.3367 183.128 82.7927C182.552 82.2487 182.088 81.6087 181.736 80.8727C181.4 80.1367 181.232 79.3287 181.232 78.4487C181.232 77.6007 181.392 76.8087 181.712 76.0727C182.032 75.3367 182.472 74.6887 183.032 74.1287C183.592 73.5687 184.232 73.1367 184.952 72.8327C185.688 72.5127 186.472 72.3527 187.304 72.3527C188.424 72.3527 189.44 72.6247 190.352 73.1687C191.264 73.6967 191.992 74.4167 192.536 75.3287C193.08 76.2407 193.352 77.2727 193.352 78.4247C193.352 79.3367 193.184 80.1687 192.848 80.9207C192.512 81.6567 192.056 82.2967 191.48 82.8407C190.904 83.3687 190.256 83.7767 189.536 84.0647C188.832 84.3527 188.104 84.4967 187.352 84.4967ZM187.304 81.6647C187.832 81.6647 188.336 81.5367 188.816 81.2807C189.312 81.0087 189.712 80.6247 190.016 80.1287C190.336 79.6327 190.496 79.0487 190.496 78.3767C190.496 77.7527 190.352 77.2007 190.064 76.7207C189.792 76.2407 189.416 75.8647 188.936 75.5927C188.456 75.3207 187.904 75.1847 187.28 75.1847C186.688 75.1847 186.152 75.3287 185.672 75.6167C185.192 75.8887 184.808 76.2727 184.52 76.7687C184.248 77.2487 184.112 77.7927 184.112 78.4007C184.112 79.0727 184.264 79.6567 184.568 80.1527C184.872 80.6327 185.264 81.0087 185.744 81.2807C186.24 81.5367 186.76 81.6647 187.304 81.6647ZM199.366 84.3527C198.774 84.3527 198.246 84.3127 197.782 84.2327C197.334 84.1527 196.942 84.0167 196.606 83.8247C196.286 83.6327 196.022 83.3767 195.814 83.0567C195.606 82.7207 195.446 82.3127 195.334 81.8327C195.238 81.3527 195.19 80.7767 195.19 80.1047V68.5367C195.19 68.2647 195.214 68.0247 195.262 67.8167C195.326 67.5927 195.454 67.4167 195.646 67.2887C195.854 67.1447 196.182 67.0727 196.63 67.0727C197.078 67.0727 197.398 67.1367 197.59 67.2647C197.798 67.3927 197.926 67.5687 197.974 67.7927C198.038 68.0007 198.07 68.2407 198.07 68.5127V79.9847C198.07 80.2887 198.086 80.5447 198.118 80.7527C198.166 80.9447 198.238 81.1047 198.334 81.2327C198.446 81.3447 198.582 81.4247 198.742 81.4727C198.918 81.5207 199.126 81.5447 199.366 81.5447C199.574 81.5447 199.758 81.5687 199.918 81.6167C200.094 81.6647 200.23 81.7847 200.326 81.9767C200.438 82.1687 200.494 82.4807 200.494 82.9127C200.494 83.3607 200.438 83.6887 200.326 83.8967C200.23 84.1047 200.094 84.2327 199.918 84.2807C199.742 84.3287 199.558 84.3527 199.366 84.3527ZM207.743 84.4967C206.975 84.4967 206.223 84.3527 205.487 84.0647C204.767 83.7607 204.111 83.3367 203.519 82.7927C202.943 82.2487 202.479 81.6087 202.127 80.8727C201.791 80.1367 201.623 79.3287 201.623 78.4487C201.623 77.6007 201.783 76.8087 202.103 76.0727C202.423 75.3367 202.863 74.6887 203.423 74.1287C203.983 73.5687 204.623 73.1367 205.343 72.8327C206.079 72.5127 206.863 72.3527 207.695 72.3527C208.815 72.3527 209.831 72.6247 210.743 73.1687C211.655 73.6967 212.383 74.4167 212.927 75.3287C213.471 76.2407 213.743 77.2727 213.743 78.4247C213.743 79.3367 213.575 80.1687 213.239 80.9207C212.903 81.6567 212.447 82.2967 211.871 82.8407C211.295 83.3687 210.647 83.7767 209.927 84.0647C209.223 84.3527 208.495 84.4967 207.743 84.4967ZM207.695 81.6647C208.223 81.6647 208.727 81.5367 209.207 81.2807C209.703 81.0087 210.103 80.6247 210.407 80.1287C210.727 79.6327 210.887 79.0487 210.887 78.3767C210.887 77.7527 210.743 77.2007 210.455 76.7207C210.183 76.2407 209.807 75.8647 209.327 75.5927C208.847 75.3207 208.295 75.1847 207.671 75.1847C207.079 75.1847 206.543 75.3287 206.063 75.6167C205.583 75.8887 205.199 76.2727 204.911 76.7687C204.639 77.2487 204.503 77.7927 204.503 78.4007C204.503 79.0727 204.655 79.6567 204.959 80.1527C205.263 80.6327 205.655 81.0087 206.135 81.2807C206.631 81.5367 207.151 81.6647 207.695 81.6647ZM220.789 89.1527C220.213 89.1527 219.661 89.0807 219.133 88.9367C218.605 88.8087 218.125 88.6327 217.693 88.4087C217.277 88.1847 216.941 87.9447 216.685 87.6887C216.445 87.4327 216.325 87.1927 216.325 86.9687C216.325 86.7447 216.357 86.5527 216.421 86.3927C216.501 86.2327 216.613 86.0727 216.757 85.9127C216.949 85.7207 217.101 85.5767 217.213 85.4807C217.341 85.3847 217.509 85.3367 217.717 85.3367C217.893 85.3367 218.061 85.4007 218.221 85.5287C218.397 85.6567 218.597 85.8007 218.821 85.9607C219.045 86.1207 219.317 86.2647 219.637 86.3927C219.957 86.5207 220.365 86.5847 220.861 86.5847C221.277 86.5847 221.661 86.5127 222.013 86.3687C222.365 86.2247 222.661 86.0087 222.901 85.7207C223.157 85.4487 223.357 85.1207 223.501 84.7367C223.645 84.3527 223.717 83.9207 223.717 83.4407L223.693 73.5047C223.725 73.1367 223.853 72.8807 224.077 72.7367C224.301 72.5767 224.645 72.4967 225.109 72.4967C225.541 72.4967 225.853 72.5607 226.045 72.6887C226.237 72.8007 226.357 72.9687 226.405 73.1927C226.453 73.4007 226.477 73.6327 226.477 73.8887V83.6087C226.477 84.4887 226.325 85.2727 226.021 85.9607C225.717 86.6487 225.301 87.2247 224.773 87.6887C224.245 88.1687 223.637 88.5287 222.949 88.7687C222.277 89.0247 221.557 89.1527 220.789 89.1527ZM220.525 84.0407C219.773 84.0407 219.069 83.8967 218.413 83.6087C217.773 83.3207 217.205 82.9127 216.709 82.3847C216.229 81.8567 215.845 81.2487 215.557 80.5607C215.285 79.8567 215.149 79.0967 215.149 78.2807C215.149 77.4807 215.285 76.7367 215.557 76.0487C215.845 75.3607 216.229 74.7527 216.709 74.2247C217.205 73.6967 217.773 73.2887 218.413 73.0007C219.069 72.6967 219.765 72.5447 220.501 72.5447C221.221 72.5447 221.845 72.6887 222.373 72.9767C222.917 73.2487 223.365 73.6407 223.717 74.1527C224.069 74.6647 224.333 75.2727 224.509 75.9767C224.701 76.6807 224.797 77.4567 224.797 78.3047C224.797 79.4727 224.637 80.4887 224.317 81.3527C223.997 82.2167 223.525 82.8807 222.901 83.3447C222.277 83.8087 221.485 84.0407 220.525 84.0407ZM220.789 81.3287C221.333 81.3287 221.813 81.2007 222.229 80.9447C222.661 80.6727 222.997 80.3047 223.237 79.8407C223.493 79.3767 223.621 78.8567 223.621 78.2807C223.621 77.6887 223.493 77.1687 223.237 76.7207C222.997 76.2567 222.661 75.8967 222.229 75.6407C221.797 75.3847 221.309 75.2567 220.765 75.2567C220.221 75.2567 219.733 75.3927 219.301 75.6647C218.885 75.9207 218.557 76.2727 218.317 76.7207C218.077 77.1687 217.957 77.6887 217.957 78.2807C217.957 78.8727 218.077 79.4007 218.317 79.8647C218.573 80.3127 218.909 80.6727 219.325 80.9447C219.757 81.2007 220.245 81.3287 220.789 81.3287ZM230.571 84.3527C230.139 84.3527 229.819 84.2807 229.611 84.1367C229.403 84.0087 229.275 83.8407 229.227 83.6327C229.179 83.4087 229.155 83.1607 229.155 82.8887V73.9607C229.155 73.7047 229.179 73.4727 229.227 73.2647C229.291 73.0407 229.419 72.8647 229.611 72.7367C229.819 72.6087 230.147 72.5447 230.595 72.5447C231.043 72.5447 231.363 72.6087 231.555 72.7367C231.763 72.8647 231.891 73.0407 231.939 73.2647C231.987 73.4887 232.011 73.7367 232.011 74.0087V82.9127C232.011 83.1847 231.987 83.4327 231.939 83.6567C231.891 83.8647 231.763 84.0327 231.555 84.1607C231.363 84.2887 231.035 84.3527 230.571 84.3527ZM230.571 70.2167C230.107 70.2167 229.763 70.1527 229.539 70.0247C229.331 69.8807 229.195 69.6887 229.131 69.4487C229.083 69.2087 229.059 68.9447 229.059 68.6567C229.059 68.3527 229.083 68.0887 229.131 67.8647C229.195 67.6407 229.339 67.4647 229.563 67.3367C229.787 67.1927 230.131 67.1207 230.595 67.1207C231.075 67.1207 231.419 67.1927 231.627 67.3367C231.835 67.4807 231.971 67.6727 232.035 67.9127C232.099 68.1367 232.131 68.4007 232.131 68.7047C232.131 68.9767 232.099 69.2327 232.035 69.4727C231.971 69.7127 231.835 69.8967 231.627 70.0247C231.419 70.1527 231.067 70.2167 230.571 70.2167ZM238.741 84.4967C238.325 84.4967 237.885 84.4487 237.421 84.3527C236.957 84.2727 236.509 84.1527 236.077 83.9927C235.645 83.8167 235.269 83.6167 234.949 83.3927C234.645 83.1527 234.453 82.8887 234.373 82.6007C234.309 82.4407 234.285 82.2887 234.301 82.1447C234.317 81.9847 234.365 81.8247 234.445 81.6647C234.525 81.4887 234.645 81.3127 234.805 81.1367C234.949 80.9607 235.093 80.8647 235.237 80.8487C235.397 80.8167 235.597 80.8647 235.837 80.9927C236.045 81.0727 236.269 81.1767 236.509 81.3047C236.765 81.4327 237.021 81.5607 237.277 81.6887C237.549 81.8167 237.821 81.9207 238.093 82.0007C238.381 82.0807 238.661 82.1207 238.933 82.1207C239.525 82.1207 239.997 82.0247 240.349 81.8327C240.701 81.6247 240.877 81.3367 240.877 80.9687C240.877 80.7607 240.821 80.5767 240.709 80.4167C240.597 80.2567 240.445 80.1287 240.253 80.0327C240.077 79.9207 239.861 79.8247 239.605 79.7447C239.365 79.6487 239.101 79.5687 238.813 79.5047C238.541 79.4247 238.253 79.3367 237.949 79.2407C237.549 79.1287 237.149 78.9927 236.749 78.8327C236.349 78.6727 235.989 78.4647 235.669 78.2087C235.365 77.9527 235.117 77.6327 234.925 77.2487C234.733 76.8647 234.637 76.3847 234.637 75.8087C234.637 75.0887 234.805 74.4807 235.141 73.9847C235.493 73.4727 235.997 73.0807 236.653 72.8087C237.309 72.5367 238.101 72.4007 239.029 72.4007C239.349 72.4007 239.653 72.4247 239.941 72.4727C240.245 72.5207 240.533 72.5927 240.805 72.6887C241.093 72.7687 241.365 72.8727 241.621 73.0007C241.893 73.1287 242.149 73.2727 242.389 73.4327C242.789 73.6567 242.997 73.9207 243.013 74.2247C243.029 74.5127 242.917 74.8247 242.677 75.1607C242.501 75.3847 242.325 75.5447 242.149 75.6407C241.973 75.7207 241.789 75.7207 241.597 75.6407C241.341 75.5127 241.061 75.3767 240.757 75.2327C240.469 75.0727 240.165 74.9367 239.845 74.8247C239.541 74.7127 239.221 74.6567 238.885 74.6567C238.565 74.6567 238.277 74.7047 238.021 74.8007C237.765 74.8967 237.573 75.0327 237.445 75.2087C237.317 75.3847 237.253 75.5927 237.253 75.8327C237.253 76.0567 237.317 76.2407 237.445 76.3847C237.573 76.5287 237.741 76.6487 237.949 76.7447C238.157 76.8407 238.405 76.9287 238.693 77.0087C238.981 77.0727 239.285 77.1367 239.605 77.2007C240.053 77.2967 240.509 77.4167 240.973 77.5607C241.437 77.7047 241.861 77.9047 242.245 78.1607C242.645 78.4167 242.965 78.7607 243.205 79.1927C243.445 79.6087 243.565 80.1527 243.565 80.8247C243.565 81.9927 243.133 82.8967 242.269 83.5367C241.421 84.1767 240.245 84.4967 238.741 84.4967Z" fill="black"/>
</svg>
