<svg width="400" height="120" viewBox="0 0 400 120" fill="none" xmlns="http://www.w3.org/2000/svg">
<mask id="mask0_62_2296" style="mask-type:luminance" maskUnits="userSpaceOnUse" x="0" y="0" width="400" height="120">
<path d="M400 0H0V120H400V0Z" fill="white"/>
</mask>
<g mask="url(#mask0_62_2296)">
<mask id="mask1_62_2296" style="mask-type:luminance" maskUnits="userSpaceOnUse" x="9" y="9" width="388" height="111">
<path d="M9.33838 9.33313H396.887V119.354H9.33838V9.33313Z" fill="white"/>
</mask>
<g mask="url(#mask1_62_2296)">
<path d="M15.7893 72.3852L12.3967 62.3592L17.7895 51.8748L13.0351 41.3956L9.77637 30.9113L12.1049 19.354L26.2586 18.2342L39.1781 15.5935L52.3408 21.4738L65.1144 13.7498L78.3379 21.7081L91.227 17.9633L104.365 22.9008L117.358 22.6769L130.405 24.3435L143.318 21.4217L155.618 17.1092L167.972 14.5623L180.326 12.0988L192.783 13.2133L205.32 17.1248L217.838 20.3435L230.253 20.0727L242.4 10.3071L255.065 18.6873L267.504 19.1717L279.742 12.479L292.084 9.53625L304.906 12.906L318.191 14.7654L328.447 23.3956L341.367 25.406L352.316 32.3383L368.294 26.7081L380.204 31.2238L396.346 37.1769L387.476 50.3383L387.16 62.0935L374.362 69.8592L369.875 80.281L373.796 93.3956L367.571 103.265L364.391 115.974L345.854 109.745L333.335 117.432L320.227 109.989L307.782 119.823L294.632 110.969L281.864 112.432L269.005 111.359L256.445 118.932L243.556 117.01L230.824 121.224L218.355 114.521L205.223 119.724L193.081 116.047L180.727 115.328L168.306 115.838L155.904 115.969L143.829 110.541L131.396 111.203L119.346 105.146L106.274 116.76L94.5648 104.833L81.5602 115.427L69.6377 107.245L57.5025 102.453L44.6438 110.724L27.2618 111.552L29.4687 98.1404L22.7931 90.229L11.0106 83.5779L15.7893 72.3852Z" fill="black"/>
<path d="M15.7893 72.3852L12.3967 62.3592L17.7895 51.8748L13.0351 41.3956L9.77637 30.9113L12.1049 19.354L26.2586 18.2342L39.1781 15.5935L52.3408 21.4738L65.1144 13.7498L78.3379 21.7081L91.227 17.9633L104.365 22.9008L117.358 22.6769L130.405 24.3435L143.318 21.4217L155.618 17.1092L167.972 14.5623L180.326 12.0988L192.783 13.2133L205.32 17.1248L217.838 20.3435L230.253 20.0727L242.4 10.3071L255.065 18.6873L267.504 19.1717L279.742 12.479L292.084 9.53625L304.906 12.906L318.191 14.7654L328.447 23.3956L341.367 25.406L352.316 32.3383L368.294 26.7081L380.204 31.2238L396.346 37.1769L387.476 50.3383L387.16 62.0935L374.362 69.8592L369.875 80.281L373.796 93.3956L367.571 103.265L364.391 115.974L345.854 109.745L333.335 117.432L320.227 109.989L307.782 119.823L294.632 110.969L281.864 112.432L269.005 111.359L256.445 118.932L243.556 117.01L230.824 121.224L218.355 114.521L205.223 119.724L193.081 116.047L180.727 115.328L168.306 115.838L155.904 115.969L143.829 110.541L131.396 111.203L119.346 105.146L106.274 116.76L94.5648 104.833L81.5602 115.427L69.6377 107.245L57.5025 102.453L44.6438 110.724L27.2618 111.552L29.4687 98.1404L22.7931 90.229L11.0106 83.5779L15.7893 72.3852Z" fill="black"/>
</g>
<mask id="mask2_62_2296" style="mask-type:luminance" maskUnits="userSpaceOnUse" x="7" y="7" width="391" height="113">
<path d="M7.78223 7.99976H397.586V119.354H7.78223V7.99976Z" fill="white"/>
</mask>
<g mask="url(#mask2_62_2296)">
<path d="M230.739 121.984L218.3 115.307L205.265 120.474L192.917 116.734L180.721 115.989L168.343 116.495L155.715 116.63L143.653 111.203L131.208 111.885L119.486 105.995L106.238 117.765L94.504 105.812L81.6088 116.328L69.2061 107.849L57.6059 103.26L44.9113 111.401L26.3133 112.286L28.6358 98.3488L22.1973 90.7238L10.0499 83.8488L14.9563 72.3644L11.5577 62.3123L16.9322 51.854L12.263 41.5727L8.95557 30.9425L11.424 18.729L26.1674 17.5571L39.2814 14.9008L52.2739 20.7029L65.1144 12.9165L78.4655 20.9529L91.2635 17.229L104.523 22.2133L117.406 21.9894L130.356 23.656L143.051 20.7758L155.423 16.4425L167.765 13.8956L180.259 11.4165L193.039 12.5727L205.569 16.4842L217.941 19.6508L229.931 19.3956L242.346 9.40605L255.356 18.0102L267.261 18.4685L279.384 11.8488L292.078 8.8175L305.077 12.2081L318.562 14.0935L328.83 22.729L341.683 24.7238L352.414 31.5102L368.282 25.9217L380.514 30.5519L397.483 36.8488L388.272 50.5258L387.962 62.4529L375.03 70.2967L370.714 80.3227L374.678 93.4842L368.331 103.505L364.95 116.906L345.951 110.515L333.335 118.26L320.294 110.854L307.825 120.739L294.413 111.703L281.882 113.146L269.188 112.078L256.627 119.651L243.635 117.719L230.739 121.984ZM218.416 113.75L230.916 120.463L243.47 116.307L256.256 118.213L268.793 110.656L281.852 111.755L294.857 110.255L307.74 118.932L320.148 109.13L333.317 116.594L345.744 108.969L363.801 115.031L366.817 103.015L372.951 93.2967L369.048 80.2342L373.681 69.4269L386.375 61.7133L386.685 50.1821L395.215 37.4946L379.894 31.8644L368.276 27.4581L352.201 33.1248L341.039 26.0467L328.064 24.0154L317.808 15.3956L304.651 13.5467L292.054 10.229L280.058 13.1092L267.704 19.8956L254.761 19.3956L242.437 11.2498L230.533 20.7915L217.68 21.0779L205.04 17.8279L192.601 13.8852L180.375 12.7915L168.185 15.229L155.867 17.7498L143.525 22.0779L130.454 25.0363L117.303 23.354L104.207 23.5883L91.227 18.6925L78.2163 22.4685L65.1144 14.5779L52.4198 22.2706L39.093 16.3123L26.3315 18.906L12.7858 19.9842L10.5849 30.88L13.7951 41.1821L18.6528 51.8904L13.2479 62.3904L16.6465 72.4113L11.9954 83.3071L23.3707 89.7238L30.3138 97.9685L28.198 110.823L44.3763 110.057L57.4235 101.666L70.118 106.708L81.5115 114.521L94.6195 103.844L106.299 115.745L119.194 104.286L131.572 110.515L143.987 109.833L156.08 115.26L168.282 115.135L180.721 114.62L193.227 115.349L205.125 118.958L218.416 113.75Z" fill="black"/>
</g>
<mask id="mask3_62_2296" style="mask-type:luminance" maskUnits="userSpaceOnUse" x="3" y="1" width="388" height="113">
<path d="M3.11279 1.08313H390.661V113.333H3.11279V1.08313Z" fill="white"/>
</mask>
<g mask="url(#mask3_62_2296)">
<path d="M9.78237 63.3953L6.39594 53.3641L11.7826 42.8797L7.02824 32.4005L3.75732 21.9161L6.09804 10.3641L20.2457 9.23906L33.1712 6.60364L46.3339 12.4786L59.1075 4.75468L72.3249 12.7182L85.2201 8.96301L98.3585 13.9109L111.345 13.6818L124.398 15.3588L137.312 12.4318L149.611 8.10885L161.965 5.56718L174.319 3.10885L186.777 4.22343L199.313 8.12968L211.825 11.3484L224.246 11.0776L236.387 1.31197L249.058 9.69739L261.497 10.1818L273.735 3.48906L286.077 0.541138L298.9 3.91614L312.184 5.7703L322.44 14.4057L335.36 16.4161L346.31 23.3432L362.281 17.713L374.197 22.2286L390.339 28.1766L381.469 41.3484L381.153 53.1036L368.355 60.8641L363.868 71.2911L367.795 84.4005L361.564 94.2703L358.378 106.979L339.847 100.755L327.329 108.442L314.221 100.999L301.775 110.833L288.619 101.973L275.851 103.442L262.999 102.364L250.432 109.937L237.549 108.026L224.818 112.234L212.348 105.526L199.216 110.729L187.068 107.062L174.726 106.333L162.299 106.848L149.897 106.979L137.822 101.546L125.389 102.208L113.339 96.1557L100.268 107.765L88.5579 95.8432L75.5533 106.427L63.6248 98.2443L51.5017 93.4578L38.6369 101.734L21.2488 102.557L23.4618 89.1505L16.7863 81.2338L5.00368 74.5828L9.78237 63.3953Z" fill="white"/>
</g>
<mask id="mask4_62_2296" style="mask-type:luminance" maskUnits="userSpaceOnUse" x="0" y="1" width="396" height="115">
<path d="M0.674805 1.08325H395.331V116H0.674805V1.08325Z" fill="white"/>
</mask>
<g mask="url(#mask4_62_2296)">
<path d="M224.52 115.01L212.147 108.365L199.386 113.422L186.491 109.521L174.708 108.844L162.348 109.349L149.21 109.49L137.202 104.062L124.69 104.74L113.862 99.3124L100.146 111.526L88.3391 99.5103L75.7236 109.745L62.0745 100.385L51.8544 96.3541L39.6523 104.182L17.8321 105.213L20.3734 89.7916L14.701 83.0624L1.44101 75.5989L6.68177 63.3281L3.30142 53.1874L8.62122 42.828L4.20123 33.0416L0.77832 22.0312L3.61149 8.05721L19.7715 6.76034L33.5543 3.95825L46.103 9.56242L59.1015 1.69784L72.7932 9.94263L85.354 6.29159L98.9422 11.401L111.54 11.1822L124.234 12.8124L136.381 10.0572L148.705 5.72909L161.284 3.14575L174.131 0.578045L187.433 1.77596L200.231 5.76555L212.22 8.84367L223.061 8.60409L236.205 -1.96362L250.116 7.23429L260.707 7.65096L272.526 1.18221L286.12 -2.05737L299.568 1.48429L313.564 3.43742L323.875 12.0885L336.57 14.0624L346.705 20.4999L362.312 14.9947L375.365 19.9478L394.492 26.9999L384.369 42.0416L384.041 54.4114L370.787 62.4531L366.92 71.4218L370.89 84.7239L364.318 95.1458L360.494 110.38L340.248 103.594L327.377 111.495L314.5 104.182L301.909 114.13L287.768 104.63L275.87 105.99L263.753 104.979L251.058 112.609L237.768 110.635L224.52 115.01ZM212.561 102.693L225.128 109.474L237.214 105.448L249.708 107.302L262.172 99.7916L275.772 100.932L289.427 99.3593L301.593 107.557L313.886 97.8333L327.231 105.411L339.403 97.9478L356.226 103.588L358.779 93.4114L364.683 84.1041L360.816 71.2135L365.929 59.3333L378.277 51.8697L378.569 40.6822L386.175 29.3958L373.036 24.5572L362.239 20.4843L345.908 26.1822L334.168 18.7603L321.036 16.7291L310.792 8.11971L298.237 6.35409L286.041 3.14575L274.933 5.79159L262.293 12.703L248.012 12.1562L236.576 4.58846L225.432 13.5468L211.436 13.8489L198.31 10.4583L186.108 6.65096L174.532 5.63534L162.634 8.00513L150.517 10.4947L138.242 14.802L124.55 17.901L111.156 16.1822L97.7628 16.4166L85.0682 11.6666L71.869 15.4843L59.1076 7.80721L46.565 15.3958L32.7822 9.24471L20.72 11.7083L8.59082 12.6718L6.74257 21.8072L9.80677 31.6249L14.9381 42.9426L9.50279 53.5728L12.8649 63.5208L8.5361 73.5885L18.8474 79.4062L26.5201 88.5051L24.6414 99.8958L37.5974 99.2864L51.1492 90.5676L65.1752 96.1093L75.3588 103.099L88.7951 92.2447L100.42 104.068L112.828 93.0364L126.137 99.7083L138.497 99.026L150.602 104.453L162.214 104.333L174.757 103.818L187.67 104.568L199.064 108.016L212.561 102.693Z" fill="black"/>
<path d="M224.52 115.01L212.147 108.365L199.386 113.422L186.491 109.521L174.708 108.844L162.348 109.349L149.21 109.49L137.202 104.062L124.69 104.74L113.862 99.3124L100.146 111.526L88.3391 99.5103L75.7236 109.745L62.0745 100.385L51.8544 96.3541L39.6523 104.182L17.8321 105.213L20.3734 89.7916L14.701 83.0624L1.44101 75.5989L6.68177 63.3281L3.30142 53.1874L8.62122 42.828L4.20123 33.0416L0.77832 22.0312L3.61149 8.05721L19.7715 6.76034L33.5543 3.95825L46.103 9.56242L59.1015 1.69784L72.7932 9.94263L85.354 6.29159L98.9422 11.401L111.54 11.1822L124.234 12.8124L136.381 10.0572L148.705 5.72909L161.284 3.14575L174.131 0.578045L187.433 1.77596L200.231 5.76555L212.22 8.84367L223.061 8.60409L236.205 -1.96362L250.116 7.23429L260.707 7.65096L272.526 1.18221L286.12 -2.05737L299.568 1.48429L313.564 3.43742L323.875 12.0885L336.57 14.0624L346.705 20.4999L362.312 14.9947L375.365 19.9478L394.492 26.9999L384.369 42.0416L384.041 54.4114L370.787 62.4531L366.92 71.4218L370.89 84.7239L364.318 95.1458L360.494 110.38L340.248 103.594L327.377 111.495L314.5 104.182L301.909 114.13L287.768 104.63L275.87 105.99L263.753 104.979L251.058 112.609L237.768 110.635L224.52 115.01ZM212.561 102.693L225.128 109.474L237.214 105.448L249.708 107.302L262.172 99.7916L275.772 100.932L289.427 99.3593L301.593 107.557L313.886 97.8333L327.231 105.411L339.403 97.9478L356.226 103.588L358.779 93.4114L364.683 84.1041L360.816 71.2135L365.929 59.3333L378.277 51.8697L378.569 40.6822L386.175 29.3958L373.036 24.5572L362.239 20.4843L345.908 26.1822L334.168 18.7603L321.036 16.7291L310.792 8.11971L298.237 6.35409L286.041 3.14575L274.933 5.79159L262.293 12.703L248.012 12.1562L236.576 4.58846L225.432 13.5468L211.436 13.8489L198.31 10.4583L186.108 6.65096L174.532 5.63534L162.634 8.00513L150.517 10.4947L138.242 14.802L124.55 17.901L111.156 16.1822L97.7628 16.4166L85.0682 11.6666L71.869 15.4843L59.1076 7.80721L46.565 15.3958L32.7822 9.24471L20.72 11.7083L8.59082 12.6718L6.74257 21.8072L9.80677 31.6249L14.9381 42.9426L9.50279 53.5728L12.8649 63.5208L8.5361 73.5885L18.8474 79.4062L26.5201 88.5051L24.6414 99.8958L37.5974 99.2864L51.1492 90.5676L65.1752 96.1093L75.3588 103.099L88.7951 92.2447L100.42 104.068L112.828 93.0364L126.137 99.7083L138.497 99.026L150.602 104.453L162.214 104.333L174.757 103.818L187.67 104.568L199.064 108.016L212.561 102.693Z" fill="black"/>
</g>
</g>
<path d="M50.1113 53.4836C49.6633 53.4836 49.3353 53.4196 49.1273 53.2916C48.9193 53.1636 48.7913 52.9876 48.7433 52.7636C48.6953 52.5236 48.6713 52.2756 48.6713 52.0196V38.1716C48.6713 37.9156 48.6953 37.6836 48.7433 37.4756C48.8073 37.2516 48.9433 37.0756 49.1513 36.9476C49.3593 36.8036 49.6873 36.7316 50.1353 36.7316H55.2233C55.9273 36.7316 56.6153 36.8516 57.2873 37.0916C57.9593 37.3316 58.5593 37.6916 59.0873 38.1716C59.6313 38.6516 60.0553 39.2436 60.3593 39.9476C60.6793 40.6516 60.8393 41.4756 60.8393 42.4196C60.8393 43.3476 60.6793 44.1636 60.3593 44.8676C60.0553 45.5556 59.6313 46.1396 59.0873 46.6196C58.5433 47.0996 57.9353 47.4596 57.2633 47.6996C56.6073 47.9396 55.9193 48.0596 55.1993 48.0596H51.5753V52.0436C51.5753 52.2996 51.5433 52.5396 51.4793 52.7636C51.4313 52.9876 51.3033 53.1636 51.0953 53.2916C50.9033 53.4196 50.5753 53.4836 50.1113 53.4836ZM51.5753 45.1316H55.2233C55.7193 45.1316 56.1673 45.0356 56.5673 44.8436C56.9833 44.6356 57.3193 44.3316 57.5753 43.9316C57.8313 43.5156 57.9593 42.9956 57.9593 42.3716C57.9593 41.8116 57.8393 41.3316 57.5993 40.9316C57.3753 40.5156 57.0553 40.1956 56.6393 39.9716C56.2393 39.7476 55.7593 39.6356 55.1993 39.6356H51.5753V45.1316ZM68.6065 53.6516C67.5665 53.6516 66.6545 53.4836 65.8705 53.1476C65.1025 52.8116 64.4545 52.3556 63.9265 51.7796C63.4145 51.1876 63.0225 50.5316 62.7505 49.8116C62.4945 49.0756 62.3665 48.3156 62.3665 47.5316C62.3665 46.3796 62.6305 45.3556 63.1585 44.4596C63.6865 43.5636 64.4145 42.8596 65.3425 42.3476C66.2865 41.8356 67.3665 41.5796 68.5825 41.5796C69.4465 41.5796 70.2065 41.7156 70.8625 41.9876C71.5185 42.2596 72.0625 42.6196 72.4945 43.0676C72.9425 43.4996 73.2785 43.9796 73.5025 44.5076C73.7425 45.0356 73.8625 45.5476 73.8625 46.0436C73.8625 46.8916 73.6545 47.5076 73.2385 47.8916C72.8385 48.2756 72.3345 48.4676 71.7265 48.4676H65.3905C65.4065 49.0116 65.5745 49.4836 65.8945 49.8836C66.2305 50.2836 66.6465 50.5956 67.1425 50.8196C67.6545 51.0276 68.1745 51.1316 68.7025 51.1316C69.1025 51.1316 69.4545 51.1076 69.7585 51.0596C70.0785 51.0116 70.3505 50.9556 70.5745 50.8916C70.7985 50.8116 70.9905 50.7316 71.1505 50.6516C71.3265 50.5716 71.4865 50.4996 71.6305 50.4356C71.7745 50.3716 71.9105 50.3316 72.0385 50.3156C72.2145 50.2996 72.3905 50.3396 72.5665 50.4356C72.7425 50.5316 72.8865 50.6996 72.9985 50.9396C73.0945 51.0996 73.1585 51.2516 73.1905 51.3956C73.2385 51.5236 73.2625 51.6516 73.2625 51.7796C73.2625 52.0996 73.0705 52.4036 72.6865 52.6916C72.3025 52.9636 71.7585 53.1876 71.0545 53.3636C70.3665 53.5556 69.5505 53.6516 68.6065 53.6516ZM65.3905 46.7636H70.3105C70.5825 46.7636 70.7905 46.7236 70.9345 46.6436C71.0785 46.5476 71.1505 46.3556 71.1505 46.0676C71.1505 45.6996 71.0385 45.3716 70.8145 45.0836C70.5905 44.7796 70.2865 44.5476 69.9025 44.3876C69.5185 44.2116 69.0705 44.1236 68.5585 44.1236C67.9665 44.1236 67.4305 44.2436 66.9505 44.4836C66.4705 44.7076 66.0865 45.0196 65.7985 45.4196C65.5265 45.8196 65.3905 46.2676 65.3905 46.7636ZM77.248 53.4836C76.816 53.4836 76.496 53.4116 76.288 53.2676C76.096 53.1396 75.976 52.9716 75.928 52.7636C75.88 52.5396 75.856 52.2916 75.856 52.0196V43.0436C75.856 42.7876 75.88 42.5556 75.928 42.3476C75.976 42.1396 76.104 41.9796 76.312 41.8676C76.52 41.7396 76.84 41.6756 77.272 41.6756C77.656 41.6756 77.944 41.7236 78.136 41.8196C78.328 41.9156 78.456 42.0356 78.52 42.1796C78.584 42.3236 78.616 42.4676 78.616 42.6116C78.632 42.7556 78.648 42.8676 78.664 42.9476L78.568 43.7156C78.664 43.4596 78.824 43.2116 79.048 42.9716C79.272 42.7316 79.544 42.5156 79.864 42.3236C80.184 42.1156 80.528 41.9556 80.896 41.8436C81.28 41.7156 81.672 41.6516 82.072 41.6516C82.824 41.6516 83.496 41.7876 84.088 42.0596C84.68 42.3316 85.184 42.7156 85.6 43.2116C86.032 43.7076 86.36 44.2996 86.584 44.9876C86.808 45.6596 86.92 46.4196 86.92 47.2676V52.0436C86.92 52.3156 86.888 52.5636 86.824 52.7876C86.776 52.9956 86.656 53.1636 86.464 53.2916C86.272 53.4196 85.944 53.4836 85.48 53.4836C85.032 53.4836 84.704 53.4116 84.496 53.2676C84.288 53.1396 84.16 52.9716 84.112 52.7636C84.064 52.5396 84.04 52.2916 84.04 52.0196V47.2436C84.04 46.6676 83.936 46.1716 83.728 45.7556C83.536 45.3396 83.248 45.0196 82.864 44.7956C82.496 44.5716 82.024 44.4596 81.448 44.4596C80.888 44.4596 80.4 44.5796 79.984 44.8196C79.568 45.0436 79.248 45.3636 79.024 45.7796C78.8 46.1956 78.688 46.6836 78.688 47.2436V52.0436C78.688 52.3156 78.664 52.5636 78.616 52.7876C78.568 52.9956 78.44 53.1636 78.232 53.2916C78.04 53.4196 77.712 53.4836 77.248 53.4836ZM91.5111 58.2356C90.9991 58.0116 90.7031 57.7556 90.6231 57.4676C90.5431 57.1956 90.6151 56.8276 90.8391 56.3636L97.0311 42.4916C97.2551 41.9796 97.4951 41.6756 97.7511 41.5796C98.0071 41.4676 98.3991 41.5236 98.9271 41.7476C99.4231 41.9716 99.7111 42.2196 99.7911 42.4916C99.8871 42.7636 99.8311 43.1316 99.6231 43.5956L93.3831 57.5396C93.1751 58.0516 92.9431 58.3476 92.6871 58.4276C92.4311 58.5236 92.0391 58.4596 91.5111 58.2356ZM93.7431 52.3556L88.1991 43.8356C87.9111 43.4036 87.7911 43.0436 87.8391 42.7556C87.9031 42.4676 88.1591 42.1876 88.6071 41.9156C89.1031 41.6116 89.4871 41.4916 89.7591 41.5556C90.0471 41.6196 90.3351 41.8756 90.6231 42.3236L95.0151 49.1636L93.7431 52.3556ZM107.278 53.6516C106.238 53.6516 105.326 53.4836 104.542 53.1476C103.774 52.8116 103.126 52.3556 102.598 51.7796C102.086 51.1876 101.694 50.5316 101.422 49.8116C101.166 49.0756 101.038 48.3156 101.038 47.5316C101.038 46.3796 101.302 45.3556 101.83 44.4596C102.358 43.5636 103.086 42.8596 104.014 42.3476C104.958 41.8356 106.038 41.5796 107.254 41.5796C108.118 41.5796 108.878 41.7156 109.534 41.9876C110.19 42.2596 110.734 42.6196 111.166 43.0676C111.614 43.4996 111.95 43.9796 112.174 44.5076C112.414 45.0356 112.534 45.5476 112.534 46.0436C112.534 46.8916 112.326 47.5076 111.91 47.8916C111.51 48.2756 111.006 48.4676 110.398 48.4676H104.062C104.078 49.0116 104.246 49.4836 104.566 49.8836C104.902 50.2836 105.318 50.5956 105.814 50.8196C106.326 51.0276 106.846 51.1316 107.374 51.1316C107.774 51.1316 108.126 51.1076 108.43 51.0596C108.75 51.0116 109.022 50.9556 109.246 50.8916C109.47 50.8116 109.662 50.7316 109.822 50.6516C109.998 50.5716 110.158 50.4996 110.302 50.4356C110.446 50.3716 110.582 50.3316 110.71 50.3156C110.886 50.2996 111.062 50.3396 111.238 50.4356C111.414 50.5316 111.558 50.6996 111.67 50.9396C111.766 51.0996 111.83 51.2516 111.862 51.3956C111.91 51.5236 111.934 51.6516 111.934 51.7796C111.934 52.0996 111.742 52.4036 111.358 52.6916C110.974 52.9636 110.43 53.1876 109.726 53.3636C109.038 53.5556 108.222 53.6516 107.278 53.6516ZM104.062 46.7636H108.982C109.254 46.7636 109.462 46.7236 109.606 46.6436C109.75 46.5476 109.822 46.3556 109.822 46.0676C109.822 45.6996 109.71 45.3716 109.486 45.0836C109.262 44.7796 108.958 44.5476 108.574 44.3876C108.19 44.2116 107.742 44.1236 107.23 44.1236C106.638 44.1236 106.102 44.2436 105.622 44.4836C105.142 44.7076 104.758 45.0196 104.47 45.4196C104.198 45.8196 104.062 46.2676 104.062 46.7636ZM120.672 53.4836C119.888 53.4836 119.184 53.3316 118.56 53.0276C117.952 52.7076 117.432 52.2756 117 51.7316C116.584 51.1876 116.264 50.5636 116.04 49.8596C115.832 49.1396 115.728 48.3716 115.728 47.5556C115.744 46.7396 115.864 45.9796 116.088 45.2756C116.312 44.5556 116.632 43.9316 117.048 43.4036C117.48 42.8596 118 42.4356 118.608 42.1316C119.216 41.8276 119.904 41.6756 120.672 41.6756C121.408 41.6756 122.096 41.8276 122.736 42.1316C123.392 42.4356 123.968 42.8596 124.464 43.4036C124.976 43.9316 125.376 44.5556 125.664 45.2756C125.952 45.9796 126.096 46.7316 126.096 47.5316C126.096 48.3636 125.952 49.1476 125.664 49.8836C125.376 50.6036 124.984 51.2356 124.488 51.7796C123.992 52.3076 123.416 52.7236 122.76 53.0276C122.104 53.3316 121.408 53.4836 120.672 53.4836ZM120.288 50.6756C120.848 50.6756 121.352 50.5476 121.8 50.2916C122.248 50.0196 122.6 49.6516 122.856 49.1876C123.128 48.7236 123.264 48.1956 123.264 47.6036C123.264 46.9956 123.128 46.4596 122.856 45.9956C122.6 45.5156 122.248 45.1476 121.8 44.8916C121.352 44.6196 120.848 44.4836 120.288 44.4836C119.744 44.4836 119.248 44.6196 118.8 44.8916C118.352 45.1636 117.992 45.5316 117.72 45.9956C117.464 46.4596 117.336 46.9956 117.336 47.6036C117.336 48.1956 117.464 48.7236 117.72 49.1876C117.992 49.6516 118.352 50.0196 118.8 50.2916C119.248 50.5476 119.744 50.6756 120.288 50.6756ZM115.848 53.5076C115.416 53.5076 115.096 53.4356 114.888 53.2916C114.68 53.1636 114.552 52.9956 114.504 52.7876C114.456 52.5636 114.432 52.3156 114.432 52.0436V37.7396C114.432 37.4676 114.456 37.2276 114.504 37.0196C114.552 36.7956 114.68 36.6196 114.888 36.4916C115.096 36.3636 115.416 36.2996 115.848 36.2996C116.296 36.2996 116.616 36.3636 116.808 36.4916C117 36.6196 117.12 36.7956 117.168 37.0196C117.216 37.2436 117.24 37.4836 117.24 37.7396V52.5236C117.176 52.8756 117.04 53.1236 116.832 53.2676C116.64 53.4276 116.312 53.5076 115.848 53.5076ZM137.867 53.4596C137.403 53.4596 137.059 53.3716 136.835 53.1956C136.611 53.0196 136.499 52.7796 136.499 52.4756L136.667 51.6836C136.539 51.8916 136.323 52.1396 136.019 52.4276C135.715 52.6996 135.315 52.9476 134.819 53.1716C134.323 53.3796 133.723 53.4836 133.019 53.4836C132.267 53.4836 131.555 53.3316 130.883 53.0276C130.227 52.7076 129.643 52.2756 129.131 51.7316C128.635 51.1716 128.235 50.5396 127.931 49.8356C127.643 49.1156 127.499 48.3476 127.499 47.5316C127.499 46.7476 127.643 46.0116 127.931 45.3236C128.235 44.6196 128.643 43.9956 129.155 43.4516C129.667 42.9076 130.251 42.4836 130.907 42.1796C131.579 41.8596 132.283 41.6996 133.019 41.6996C133.675 41.6996 134.227 41.7876 134.675 41.9636C135.139 42.1396 135.531 42.3636 135.851 42.6356C136.171 42.8916 136.435 43.1636 136.643 43.4516L136.499 42.7556C136.499 42.4036 136.611 42.1396 136.835 41.9636C137.059 41.7716 137.411 41.6756 137.891 41.6756C138.339 41.6756 138.659 41.7476 138.851 41.8916C139.043 42.0196 139.163 42.2036 139.211 42.4436C139.259 42.6676 139.283 42.9236 139.283 43.2116V51.9956C139.283 52.2676 139.259 52.5156 139.211 52.7396C139.163 52.9636 139.035 53.1396 138.827 53.2676C138.635 53.3956 138.315 53.4596 137.867 53.4596ZM133.451 50.6756C133.995 50.6756 134.483 50.5396 134.915 50.2676C135.347 49.9956 135.691 49.6276 135.947 49.1636C136.219 48.6836 136.355 48.1556 136.355 47.5796C136.355 46.9556 136.219 46.4116 135.947 45.9476C135.675 45.4836 135.315 45.1236 134.867 44.8676C134.435 44.5956 133.947 44.4596 133.403 44.4596C132.811 44.4596 132.283 44.6036 131.819 44.8916C131.355 45.1636 130.987 45.5396 130.715 46.0196C130.459 46.4836 130.331 47.0116 130.331 47.6036C130.331 48.1796 130.467 48.6996 130.739 49.1636C131.011 49.6276 131.379 49.9956 131.843 50.2676C132.323 50.5396 132.859 50.6756 133.451 50.6756ZM147.859 53.4836C147.075 53.4836 146.371 53.3316 145.747 53.0276C145.139 52.7076 144.619 52.2756 144.187 51.7316C143.771 51.1876 143.451 50.5636 143.227 49.8596C143.019 49.1396 142.915 48.3716 142.915 47.5556C142.931 46.7396 143.051 45.9796 143.275 45.2756C143.499 44.5556 143.819 43.9316 144.235 43.4036C144.667 42.8596 145.187 42.4356 145.795 42.1316C146.403 41.8276 147.091 41.6756 147.859 41.6756C148.595 41.6756 149.283 41.8276 149.923 42.1316C150.579 42.4356 151.155 42.8596 151.651 43.4036C152.163 43.9316 152.563 44.5556 152.851 45.2756C153.139 45.9796 153.283 46.7316 153.283 47.5316C153.283 48.3636 153.139 49.1476 152.851 49.8836C152.563 50.6036 152.171 51.2356 151.675 51.7796C151.179 52.3076 150.603 52.7236 149.947 53.0276C149.291 53.3316 148.595 53.4836 147.859 53.4836ZM147.475 50.6756C148.035 50.6756 148.539 50.5476 148.987 50.2916C149.435 50.0196 149.787 49.6516 150.043 49.1876C150.315 48.7236 150.451 48.1956 150.451 47.6036C150.451 46.9956 150.315 46.4596 150.043 45.9956C149.787 45.5156 149.435 45.1476 148.987 44.8916C148.539 44.6196 148.035 44.4836 147.475 44.4836C146.931 44.4836 146.435 44.6196 145.987 44.8916C145.539 45.1636 145.179 45.5316 144.907 45.9956C144.651 46.4596 144.523 46.9956 144.523 47.6036C144.523 48.1956 144.651 48.7236 144.907 49.1876C145.179 49.6516 145.539 50.0196 145.987 50.2916C146.435 50.5476 146.931 50.6756 147.475 50.6756ZM143.035 53.5076C142.603 53.5076 142.283 53.4356 142.075 53.2916C141.867 53.1636 141.739 52.9956 141.691 52.7876C141.643 52.5636 141.619 52.3156 141.619 52.0436V37.7396C141.619 37.4676 141.643 37.2276 141.691 37.0196C141.739 36.7956 141.867 36.6196 142.075 36.4916C142.283 36.3636 142.603 36.2996 143.035 36.2996C143.483 36.2996 143.803 36.3636 143.995 36.4916C144.187 36.6196 144.307 36.7956 144.355 37.0196C144.403 37.2436 144.427 37.4836 144.427 37.7396V52.5236C144.363 52.8756 144.227 53.1236 144.019 53.2676C143.827 53.4276 143.499 53.5076 143.035 53.5076ZM156.865 45.5396C156.257 45.5396 155.833 45.4196 155.593 45.1796C155.353 44.9396 155.233 44.5316 155.233 43.9556C155.233 43.5396 155.281 43.2116 155.377 42.9716C155.489 42.7316 155.665 42.5636 155.905 42.4676C156.145 42.3556 156.465 42.2996 156.865 42.2996C157.473 42.2996 157.889 42.4196 158.113 42.6596C158.353 42.8996 158.473 43.3236 158.473 43.9316C158.473 44.3156 158.425 44.6276 158.329 44.8676C158.233 45.1076 158.065 45.2836 157.825 45.3956C157.585 45.4916 157.265 45.5396 156.865 45.5396ZM156.841 53.5076C156.249 53.5076 155.833 53.3956 155.593 53.1716C155.353 52.9316 155.233 52.5156 155.233 51.9236C155.233 51.5076 155.281 51.1876 155.377 50.9636C155.489 50.7236 155.665 50.5476 155.905 50.4356C156.145 50.3236 156.465 50.2676 156.865 50.2676C157.457 50.2676 157.873 50.3876 158.113 50.6276C158.353 50.8676 158.473 51.2916 158.473 51.8996C158.473 52.2996 158.417 52.6196 158.305 52.8596C158.209 53.0996 158.041 53.2676 157.801 53.3636C157.577 53.4596 157.257 53.5076 156.841 53.5076ZM173.102 53.4836C172.318 53.4836 171.614 53.3316 170.99 53.0276C170.382 52.7076 169.862 52.2756 169.43 51.7316C169.014 51.1876 168.694 50.5636 168.47 49.8596C168.262 49.1396 168.158 48.3716 168.158 47.5556C168.174 46.7396 168.294 45.9796 168.518 45.2756C168.742 44.5556 169.062 43.9316 169.478 43.4036C169.91 42.8596 170.43 42.4356 171.038 42.1316C171.646 41.8276 172.334 41.6756 173.102 41.6756C173.838 41.6756 174.526 41.8276 175.166 42.1316C175.822 42.4356 176.398 42.8596 176.894 43.4036C177.406 43.9316 177.806 44.5556 178.094 45.2756C178.382 45.9796 178.526 46.7316 178.526 47.5316C178.526 48.3636 178.382 49.1476 178.094 49.8836C177.806 50.6036 177.414 51.2356 176.918 51.7796C176.422 52.3076 175.846 52.7236 175.19 53.0276C174.534 53.3316 173.838 53.4836 173.102 53.4836ZM172.718 50.6756C173.278 50.6756 173.782 50.5476 174.23 50.2916C174.678 50.0196 175.03 49.6516 175.286 49.1876C175.558 48.7236 175.694 48.1956 175.694 47.6036C175.694 46.9956 175.558 46.4596 175.286 45.9956C175.03 45.5156 174.678 45.1476 174.23 44.8916C173.782 44.6196 173.278 44.4836 172.718 44.4836C172.174 44.4836 171.678 44.6196 171.23 44.8916C170.782 45.1636 170.422 45.5316 170.15 45.9956C169.894 46.4596 169.766 46.9956 169.766 47.6036C169.766 48.1956 169.894 48.7236 170.15 49.1876C170.422 49.6516 170.782 50.0196 171.23 50.2916C171.678 50.5476 172.174 50.6756 172.718 50.6756ZM168.278 53.5076C167.846 53.5076 167.526 53.4356 167.318 53.2916C167.11 53.1636 166.982 52.9956 166.934 52.7876C166.886 52.5636 166.862 52.3156 166.862 52.0436V37.7396C166.862 37.4676 166.886 37.2276 166.934 37.0196C166.982 36.7956 167.11 36.6196 167.318 36.4916C167.526 36.3636 167.846 36.2996 168.278 36.2996C168.726 36.2996 169.046 36.3636 169.238 36.4916C169.43 36.6196 169.55 36.7956 169.598 37.0196C169.646 37.2436 169.67 37.4836 169.67 37.7396V52.5236C169.606 52.8756 169.47 53.1236 169.262 53.2676C169.07 53.4276 168.742 53.5076 168.278 53.5076ZM185.587 53.4836C184.851 53.4836 184.171 53.3556 183.547 53.0996C182.939 52.8276 182.403 52.4436 181.939 51.9476C181.475 51.4516 181.115 50.8596 180.859 50.1716C180.603 49.4836 180.475 48.7236 180.475 47.8916V43.1156C180.475 42.8436 180.499 42.6036 180.547 42.3956C180.595 42.1716 180.723 41.9956 180.931 41.8676C181.139 41.7396 181.459 41.6756 181.891 41.6756C182.355 41.6756 182.683 41.7396 182.875 41.8676C183.083 41.9956 183.211 42.1716 183.259 42.3956C183.307 42.6196 183.331 42.8676 183.331 43.1396V47.8916C183.331 48.4676 183.427 48.9636 183.619 49.3796C183.827 49.7956 184.123 50.1236 184.507 50.3636C184.891 50.5876 185.363 50.6996 185.923 50.6996C186.499 50.6996 186.987 50.5876 187.387 50.3636C187.803 50.1236 188.123 49.7956 188.347 49.3796C188.571 48.9476 188.683 48.4516 188.683 47.8916V43.0916C188.683 42.8196 188.707 42.5796 188.755 42.3716C188.803 42.1476 188.931 41.9796 189.139 41.8676C189.347 41.7396 189.675 41.6756 190.123 41.6756C190.571 41.6756 190.891 41.7396 191.083 41.8676C191.275 41.9956 191.395 42.1716 191.443 42.3956C191.507 42.6196 191.539 42.8596 191.539 43.1156V52.1156C191.539 52.3556 191.507 52.5796 191.443 52.7876C191.395 52.9956 191.267 53.1636 191.059 53.2916C190.867 53.4196 190.547 53.4836 190.099 53.4836C189.779 53.4836 189.523 53.4436 189.331 53.3636C189.155 53.2996 189.019 53.2116 188.923 53.0996C188.843 52.9716 188.787 52.8436 188.755 52.7156C188.739 52.5876 188.731 52.4596 188.731 52.3316L188.923 51.6836C188.827 51.8276 188.683 52.0036 188.491 52.2116C188.299 52.4036 188.059 52.6036 187.771 52.8116C187.499 53.0036 187.179 53.1636 186.811 53.2916C186.443 53.4196 186.035 53.4836 185.587 53.4836ZM198.998 53.4836C198.262 53.4836 197.566 53.3316 196.91 53.0276C196.254 52.7236 195.678 52.3076 195.182 51.7796C194.686 51.2356 194.294 50.6036 194.006 49.8836C193.718 49.1476 193.574 48.3636 193.574 47.5316C193.574 46.7316 193.718 45.9796 194.006 45.2756C194.294 44.5556 194.686 43.9316 195.182 43.4036C195.694 42.8596 196.278 42.4356 196.934 42.1316C197.59 41.8276 198.278 41.6756 198.998 41.6756C199.766 41.6756 200.454 41.8276 201.062 42.1316C201.67 42.4356 202.182 42.8596 202.598 43.4036C203.03 43.9316 203.358 44.5556 203.582 45.2756C203.806 45.9796 203.926 46.7396 203.942 47.5556C203.942 48.3716 203.83 49.1396 203.606 49.8596C203.398 50.5636 203.078 51.1876 202.646 51.7316C202.23 52.2756 201.71 52.7076 201.086 53.0276C200.478 53.3316 199.782 53.4836 198.998 53.4836ZM199.382 50.6756C199.942 50.6756 200.438 50.5476 200.87 50.2916C201.318 50.0196 201.67 49.6516 201.926 49.1876C202.198 48.7236 202.334 48.1956 202.334 47.6036C202.334 46.9956 202.198 46.4596 201.926 45.9956C201.67 45.5316 201.318 45.1636 200.87 44.8916C200.438 44.6196 199.942 44.4836 199.382 44.4836C198.822 44.4836 198.318 44.6196 197.87 44.8916C197.422 45.1476 197.062 45.5156 196.79 45.9956C196.534 46.4596 196.406 46.9956 196.406 47.6036C196.406 48.1956 196.534 48.7236 196.79 49.1876C197.062 49.6516 197.422 50.0196 197.87 50.2916C198.334 50.5476 198.838 50.6756 199.382 50.6756ZM203.822 53.4836C203.374 53.4836 203.046 53.4116 202.838 53.2676C202.63 53.1076 202.494 52.8596 202.43 52.5236V37.7396C202.43 37.4676 202.446 37.2276 202.478 37.0196C202.526 36.7956 202.646 36.6196 202.838 36.4916C203.046 36.3476 203.366 36.2756 203.798 36.2756C204.262 36.2756 204.59 36.3396 204.782 36.4676C204.974 36.5956 205.094 36.7716 205.142 36.9956C205.206 37.2036 205.238 37.4436 205.238 37.7156V52.0196C205.238 52.2916 205.214 52.5396 205.166 52.7636C205.118 52.9876 204.99 53.1636 204.782 53.2916C204.59 53.4196 204.27 53.4836 203.822 53.4836ZM217.32 53.4596C216.856 53.4596 216.512 53.3716 216.288 53.1956C216.064 53.0196 215.952 52.7796 215.952 52.4756L216.12 51.6836C215.992 51.8916 215.776 52.1396 215.472 52.4276C215.168 52.6996 214.768 52.9476 214.272 53.1716C213.776 53.3796 213.176 53.4836 212.472 53.4836C211.72 53.4836 211.008 53.3316 210.336 53.0276C209.68 52.7076 209.096 52.2756 208.584 51.7316C208.088 51.1716 207.688 50.5396 207.384 49.8356C207.096 49.1156 206.952 48.3476 206.952 47.5316C206.952 46.7476 207.096 46.0116 207.384 45.3236C207.688 44.6196 208.096 43.9956 208.608 43.4516C209.12 42.9076 209.704 42.4836 210.36 42.1796C211.032 41.8596 211.736 41.6996 212.472 41.6996C213.128 41.6996 213.68 41.7876 214.128 41.9636C214.592 42.1396 214.984 42.3636 215.304 42.6356C215.624 42.8916 215.888 43.1636 216.096 43.4516L215.952 42.7556C215.952 42.4036 216.064 42.1396 216.288 41.9636C216.512 41.7716 216.864 41.6756 217.344 41.6756C217.792 41.6756 218.112 41.7476 218.304 41.8916C218.496 42.0196 218.616 42.2036 218.664 42.4436C218.712 42.6676 218.736 42.9236 218.736 43.2116V51.9956C218.736 52.2676 218.712 52.5156 218.664 52.7396C218.616 52.9636 218.488 53.1396 218.28 53.2676C218.088 53.3956 217.768 53.4596 217.32 53.4596ZM212.904 50.6756C213.448 50.6756 213.936 50.5396 214.368 50.2676C214.8 49.9956 215.144 49.6276 215.4 49.1636C215.672 48.6836 215.808 48.1556 215.808 47.5796C215.808 46.9556 215.672 46.4116 215.4 45.9476C215.128 45.4836 214.768 45.1236 214.32 44.8676C213.888 44.5956 213.4 44.4596 212.856 44.4596C212.264 44.4596 211.736 44.6036 211.272 44.8916C210.808 45.1636 210.44 45.5396 210.168 46.0196C209.912 46.4836 209.784 47.0116 209.784 47.6036C209.784 48.1796 209.92 48.6996 210.192 49.1636C210.464 49.6276 210.832 49.9956 211.296 50.2676C211.776 50.5396 212.312 50.6756 212.904 50.6756ZM223.652 58.2356C223.14 58.0116 222.844 57.7556 222.764 57.4676C222.684 57.1956 222.756 56.8276 222.98 56.3636L229.172 42.4916C229.396 41.9796 229.636 41.6756 229.892 41.5796C230.148 41.4676 230.54 41.5236 231.068 41.7476C231.564 41.9716 231.852 42.2196 231.932 42.4916C232.028 42.7636 231.972 43.1316 231.764 43.5956L225.524 57.5396C225.316 58.0516 225.084 58.3476 224.828 58.4276C224.572 58.5236 224.18 58.4596 223.652 58.2356ZM225.884 52.3556L220.34 43.8356C220.052 43.4036 219.932 43.0436 219.98 42.7556C220.044 42.4676 220.3 42.1876 220.748 41.9156C221.244 41.6116 221.628 41.4916 221.9 41.5556C222.188 41.6196 222.476 41.8756 222.764 42.3236L227.156 49.1636L225.884 52.3556ZM243.547 53.4596C243.083 53.4596 242.739 53.3716 242.515 53.1956C242.291 53.0196 242.179 52.7796 242.179 52.4756L242.347 51.6836C242.219 51.8916 242.003 52.1396 241.699 52.4276C241.395 52.6996 240.995 52.9476 240.499 53.1716C240.003 53.3796 239.403 53.4836 238.699 53.4836C237.947 53.4836 237.235 53.3316 236.563 53.0276C235.907 52.7076 235.323 52.2756 234.811 51.7316C234.315 51.1716 233.915 50.5396 233.611 49.8356C233.323 49.1156 233.179 48.3476 233.179 47.5316C233.179 46.7476 233.323 46.0116 233.611 45.3236C233.915 44.6196 234.323 43.9956 234.835 43.4516C235.347 42.9076 235.931 42.4836 236.587 42.1796C237.259 41.8596 237.963 41.6996 238.699 41.6996C239.355 41.6996 239.907 41.7876 240.355 41.9636C240.819 42.1396 241.211 42.3636 241.531 42.6356C241.851 42.8916 242.115 43.1636 242.323 43.4516L242.179 42.7556C242.179 42.4036 242.291 42.1396 242.515 41.9636C242.739 41.7716 243.091 41.6756 243.571 41.6756C244.019 41.6756 244.339 41.7476 244.531 41.8916C244.723 42.0196 244.843 42.2036 244.891 42.4436C244.939 42.6676 244.963 42.9236 244.963 43.2116V51.9956C244.963 52.2676 244.939 52.5156 244.891 52.7396C244.843 52.9636 244.715 53.1396 244.507 53.2676C244.315 53.3956 243.995 53.4596 243.547 53.4596ZM239.131 50.6756C239.675 50.6756 240.163 50.5396 240.595 50.2676C241.027 49.9956 241.371 49.6276 241.627 49.1636C241.899 48.6836 242.035 48.1556 242.035 47.5796C242.035 46.9556 241.899 46.4116 241.627 45.9476C241.355 45.4836 240.995 45.1236 240.547 44.8676C240.115 44.5956 239.627 44.4596 239.083 44.4596C238.491 44.4596 237.963 44.6036 237.499 44.8916C237.035 45.1636 236.667 45.5396 236.395 46.0196C236.139 46.4836 236.011 47.0116 236.011 47.6036C236.011 48.1796 236.147 48.6996 236.419 49.1636C236.691 49.6276 237.059 49.9956 237.523 50.2676C238.003 50.5396 238.539 50.6756 239.131 50.6756ZM257.428 53.6516C257.012 53.6516 256.572 53.6036 256.108 53.5076C255.644 53.4276 255.196 53.3076 254.764 53.1476C254.332 52.9716 253.956 52.7716 253.636 52.5476C253.332 52.3076 253.14 52.0436 253.06 51.7556C252.996 51.5956 252.972 51.4436 252.988 51.2996C253.004 51.1396 253.052 50.9796 253.132 50.8196C253.212 50.6436 253.332 50.4676 253.492 50.2916C253.636 50.1156 253.78 50.0196 253.924 50.0036C254.084 49.9716 254.284 50.0196 254.524 50.1476C254.732 50.2276 254.956 50.3316 255.196 50.4596C255.452 50.5876 255.708 50.7156 255.964 50.8436C256.236 50.9716 256.508 51.0756 256.78 51.1556C257.068 51.2356 257.348 51.2756 257.62 51.2756C258.212 51.2756 258.684 51.1796 259.036 50.9876C259.388 50.7796 259.564 50.4916 259.564 50.1236C259.564 49.9156 259.508 49.7316 259.396 49.5716C259.284 49.4116 259.132 49.2836 258.94 49.1876C258.764 49.0756 258.548 48.9796 258.292 48.8996C258.052 48.8036 257.788 48.7236 257.5 48.6596C257.228 48.5796 256.94 48.4916 256.636 48.3956C256.236 48.2836 255.836 48.1476 255.436 47.9876C255.036 47.8276 254.676 47.6196 254.356 47.3636C254.052 47.1076 253.804 46.7876 253.612 46.4036C253.42 46.0196 253.324 45.5396 253.324 44.9636C253.324 44.2436 253.492 43.6356 253.828 43.1396C254.18 42.6276 254.684 42.2356 255.34 41.9636C255.996 41.6916 256.788 41.5556 257.716 41.5556C258.036 41.5556 258.34 41.5796 258.628 41.6276C258.932 41.6756 259.22 41.7476 259.492 41.8436C259.78 41.9236 260.052 42.0276 260.308 42.1556C260.58 42.2836 260.836 42.4276 261.076 42.5876C261.476 42.8116 261.684 43.0756 261.7 43.3796C261.716 43.6676 261.604 43.9796 261.364 44.3156C261.188 44.5396 261.012 44.6996 260.836 44.7956C260.66 44.8756 260.476 44.8756 260.284 44.7956C260.028 44.6676 259.748 44.5316 259.444 44.3876C259.156 44.2276 258.852 44.0916 258.532 43.9796C258.228 43.8676 257.908 43.8116 257.572 43.8116C257.252 43.8116 256.964 43.8596 256.708 43.9556C256.452 44.0516 256.26 44.1876 256.132 44.3636C256.004 44.5396 255.94 44.7476 255.94 44.9876C255.94 45.2116 256.004 45.3956 256.132 45.5396C256.26 45.6836 256.428 45.8036 256.636 45.8996C256.844 45.9956 257.092 46.0836 257.38 46.1636C257.668 46.2276 257.972 46.2916 258.292 46.3556C258.74 46.4516 259.196 46.5716 259.66 46.7156C260.124 46.8596 260.548 47.0596 260.932 47.3156C261.332 47.5716 261.652 47.9156 261.892 48.3476C262.132 48.7636 262.252 49.3076 262.252 49.9796C262.252 51.1476 261.82 52.0516 260.956 52.6916C260.108 53.3316 258.932 53.6516 257.428 53.6516ZM270.052 53.6516C269.012 53.6516 268.1 53.4836 267.316 53.1476C266.548 52.8116 265.9 52.3556 265.372 51.7796C264.86 51.1876 264.468 50.5316 264.196 49.8116C263.94 49.0756 263.812 48.3156 263.812 47.5316C263.812 46.3796 264.076 45.3556 264.604 44.4596C265.132 43.5636 265.86 42.8596 266.788 42.3476C267.732 41.8356 268.812 41.5796 270.028 41.5796C270.892 41.5796 271.652 41.7156 272.308 41.9876C272.964 42.2596 273.508 42.6196 273.94 43.0676C274.388 43.4996 274.724 43.9796 274.948 44.5076C275.188 45.0356 275.308 45.5476 275.308 46.0436C275.308 46.8916 275.1 47.5076 274.684 47.8916C274.284 48.2756 273.78 48.4676 273.172 48.4676H266.836C266.852 49.0116 267.02 49.4836 267.34 49.8836C267.676 50.2836 268.092 50.5956 268.588 50.8196C269.1 51.0276 269.62 51.1316 270.148 51.1316C270.548 51.1316 270.9 51.1076 271.204 51.0596C271.524 51.0116 271.796 50.9556 272.02 50.8916C272.244 50.8116 272.436 50.7316 272.596 50.6516C272.772 50.5716 272.932 50.4996 273.076 50.4356C273.22 50.3716 273.356 50.3316 273.484 50.3156C273.66 50.2996 273.836 50.3396 274.012 50.4356C274.188 50.5316 274.332 50.6996 274.444 50.9396C274.54 51.0996 274.604 51.2516 274.636 51.3956C274.684 51.5236 274.708 51.6516 274.708 51.7796C274.708 52.0996 274.516 52.4036 274.132 52.6916C273.748 52.9636 273.204 53.1876 272.5 53.3636C271.812 53.5556 270.996 53.6516 270.052 53.6516ZM266.836 46.7636H271.756C272.028 46.7636 272.236 46.7236 272.38 46.6436C272.524 46.5476 272.596 46.3556 272.596 46.0676C272.596 45.6996 272.484 45.3716 272.26 45.0836C272.036 44.7796 271.732 44.5476 271.348 44.3876C270.964 44.2116 270.516 44.1236 270.004 44.1236C269.412 44.1236 268.876 44.2436 268.396 44.4836C267.916 44.7076 267.532 45.0196 267.244 45.4196C266.972 45.8196 266.836 46.2676 266.836 46.7636ZM286.685 50.9156C287.101 51.2676 287.317 51.5956 287.333 51.8996C287.365 52.2036 287.205 52.5556 286.853 52.9556C286.581 53.2596 286.341 53.4596 286.133 53.5556C285.925 53.6516 285.717 53.6516 285.509 53.5556C285.301 53.4756 285.053 53.3156 284.765 53.0756L280.181 49.2116V52.0676C280.181 52.3236 280.149 52.5636 280.085 52.7876C280.037 53.0116 279.909 53.1876 279.701 53.3156C279.509 53.4436 279.189 53.5076 278.741 53.5076C278.293 53.5076 277.965 53.4356 277.757 53.2916C277.565 53.1636 277.445 52.9876 277.397 52.7636C277.349 52.5396 277.325 52.2996 277.325 52.0436V37.7156C277.325 37.4436 277.349 37.2036 277.397 36.9956C277.461 36.7716 277.589 36.5956 277.781 36.4676C277.989 36.3236 278.317 36.2516 278.765 36.2516C279.213 36.2516 279.533 36.3236 279.725 36.4676C279.917 36.5956 280.037 36.7716 280.085 36.9956C280.149 37.2036 280.181 37.4516 280.181 37.7396V45.6116L283.493 42.3956C283.749 42.1556 283.989 41.9956 284.213 41.9156C284.437 41.8196 284.653 41.8116 284.861 41.8916C285.085 41.9556 285.317 42.1236 285.557 42.3956C285.957 42.8276 286.149 43.1876 286.133 43.4756C286.117 43.7476 285.917 44.0756 285.533 44.4596L282.293 47.4596L286.685 50.9156ZM294 53.6516C293.232 53.6516 292.48 53.5076 291.744 53.2196C291.024 52.9156 290.368 52.4916 289.776 51.9476C289.2 51.4036 288.736 50.7636 288.384 50.0276C288.048 49.2916 287.88 48.4836 287.88 47.6036C287.88 46.7556 288.04 45.9636 288.36 45.2276C288.68 44.4916 289.12 43.8436 289.68 43.2836C290.24 42.7236 290.88 42.2916 291.6 41.9876C292.336 41.6676 293.12 41.5076 293.952 41.5076C295.072 41.5076 296.088 41.7796 297 42.3236C297.912 42.8516 298.64 43.5716 299.184 44.4836C299.728 45.3956 300 46.4276 300 47.5796C300 48.4916 299.832 49.3236 299.496 50.0756C299.16 50.8116 298.704 51.4516 298.128 51.9956C297.552 52.5236 296.904 52.9316 296.184 53.2196C295.48 53.5076 294.752 53.6516 294 53.6516ZM293.952 50.8196C294.48 50.8196 294.984 50.6916 295.464 50.4356C295.96 50.1636 296.36 49.7796 296.664 49.2836C296.984 48.7876 297.144 48.2036 297.144 47.5316C297.144 46.9076 297 46.3556 296.712 45.8756C296.44 45.3956 296.064 45.0196 295.584 44.7476C295.104 44.4756 294.552 44.3396 293.928 44.3396C293.336 44.3396 292.8 44.4836 292.32 44.7716C291.84 45.0436 291.456 45.4276 291.168 45.9236C290.896 46.4036 290.76 46.9476 290.76 47.5556C290.76 48.2276 290.912 48.8116 291.216 49.3076C291.52 49.7876 291.912 50.1636 292.392 50.4356C292.888 50.6916 293.408 50.8196 293.952 50.8196ZM306.015 53.5076C305.423 53.5076 304.895 53.4676 304.431 53.3876C303.983 53.3076 303.591 53.1716 303.255 52.9796C302.935 52.7876 302.671 52.5316 302.463 52.2116C302.255 51.8756 302.095 51.4676 301.983 50.9876C301.887 50.5076 301.839 49.9316 301.839 49.2596V37.6916C301.839 37.4196 301.863 37.1796 301.911 36.9716C301.975 36.7476 302.103 36.5716 302.295 36.4436C302.503 36.2996 302.831 36.2276 303.279 36.2276C303.727 36.2276 304.047 36.2916 304.239 36.4196C304.447 36.5476 304.575 36.7236 304.623 36.9476C304.687 37.1556 304.719 37.3956 304.719 37.6676V49.1396C304.719 49.4436 304.735 49.6996 304.767 49.9076C304.815 50.0996 304.887 50.2596 304.983 50.3876C305.095 50.4996 305.231 50.5796 305.391 50.6276C305.567 50.6756 305.775 50.6996 306.015 50.6996C306.223 50.6996 306.407 50.7236 306.567 50.7716C306.743 50.8196 306.879 50.9396 306.975 51.1316C307.087 51.3236 307.143 51.6356 307.143 52.0676C307.143 52.5156 307.087 52.8436 306.975 53.0516C306.879 53.2596 306.743 53.3876 306.567 53.4356C306.391 53.4836 306.207 53.5076 306.015 53.5076ZM318.711 53.4596C318.247 53.4596 317.903 53.3716 317.679 53.1956C317.455 53.0196 317.343 52.7796 317.343 52.4756L317.511 51.6836C317.383 51.8916 317.167 52.1396 316.863 52.4276C316.559 52.6996 316.159 52.9476 315.663 53.1716C315.167 53.3796 314.567 53.4836 313.863 53.4836C313.111 53.4836 312.399 53.3316 311.727 53.0276C311.071 52.7076 310.487 52.2756 309.975 51.7316C309.479 51.1716 309.079 50.5396 308.775 49.8356C308.487 49.1156 308.343 48.3476 308.343 47.5316C308.343 46.7476 308.487 46.0116 308.775 45.3236C309.079 44.6196 309.487 43.9956 309.999 43.4516C310.511 42.9076 311.095 42.4836 311.751 42.1796C312.423 41.8596 313.127 41.6996 313.863 41.6996C314.519 41.6996 315.071 41.7876 315.519 41.9636C315.983 42.1396 316.375 42.3636 316.695 42.6356C317.015 42.8916 317.279 43.1636 317.487 43.4516L317.343 42.7556C317.343 42.4036 317.455 42.1396 317.679 41.9636C317.903 41.7716 318.255 41.6756 318.735 41.6756C319.183 41.6756 319.503 41.7476 319.695 41.8916C319.887 42.0196 320.007 42.2036 320.055 42.4436C320.103 42.6676 320.127 42.9236 320.127 43.2116V51.9956C320.127 52.2676 320.103 52.5156 320.055 52.7396C320.007 52.9636 319.879 53.1396 319.671 53.2676C319.479 53.3956 319.159 53.4596 318.711 53.4596ZM314.295 50.6756C314.839 50.6756 315.327 50.5396 315.759 50.2676C316.191 49.9956 316.535 49.6276 316.791 49.1636C317.063 48.6836 317.199 48.1556 317.199 47.5796C317.199 46.9556 317.063 46.4116 316.791 45.9476C316.519 45.4836 316.159 45.1236 315.711 44.8676C315.279 44.5956 314.791 44.4596 314.247 44.4596C313.655 44.4596 313.127 44.6036 312.663 44.8916C312.199 45.1636 311.831 45.5396 311.559 46.0196C311.303 46.4836 311.175 47.0116 311.175 47.6036C311.175 48.1796 311.311 48.6996 311.583 49.1636C311.855 49.6276 312.223 49.9956 312.687 50.2676C313.167 50.5396 313.703 50.6756 314.295 50.6756ZM323.831 53.5076C323.383 53.5076 323.055 53.4356 322.847 53.2916C322.655 53.1636 322.535 52.9876 322.487 52.7636C322.439 52.5396 322.415 52.2996 322.415 52.0436V37.7156C322.415 37.4436 322.439 37.2036 322.487 36.9956C322.551 36.7716 322.679 36.5956 322.871 36.4676C323.079 36.3396 323.407 36.2756 323.855 36.2756C324.303 36.2756 324.623 36.3476 324.815 36.4916C325.023 36.6196 325.151 36.7956 325.199 37.0196C325.263 37.2276 325.295 37.4676 325.295 37.7396V43.1636C325.615 42.7956 326.023 42.4596 326.519 42.1556C327.031 41.8356 327.647 41.6756 328.367 41.6756C329.343 41.6756 330.215 41.9156 330.983 42.3956C331.751 42.8596 332.359 43.5076 332.807 44.3396C333.255 45.1716 333.479 46.1476 333.479 47.2676V52.0676C333.479 52.3236 333.455 52.5636 333.407 52.7876C333.359 52.9956 333.231 53.1636 333.023 53.2916C332.831 53.4196 332.511 53.4836 332.063 53.4836C331.615 53.4836 331.287 53.4196 331.079 53.2916C330.871 53.1636 330.743 52.9956 330.695 52.7876C330.647 52.5636 330.623 52.3076 330.623 52.0196V47.2436C330.623 46.6836 330.527 46.1956 330.335 45.7796C330.143 45.3636 329.855 45.0436 329.471 44.8196C329.103 44.5796 328.639 44.4596 328.079 44.4596C327.327 44.4596 326.695 44.6836 326.183 45.1316C325.671 45.5636 325.375 46.1236 325.295 46.8116V52.0676C325.295 52.3236 325.263 52.5636 325.199 52.7876C325.151 53.0116 325.023 53.1876 324.815 53.3156C324.623 53.4436 324.295 53.5076 323.831 53.5076ZM80.0173 82.3396C79.2333 82.3396 78.5293 82.1956 77.9053 81.9076C77.2973 81.6036 76.7773 81.1876 76.3453 80.6596C75.9293 80.1156 75.6093 79.4916 75.3853 78.7876C75.1773 78.0836 75.0733 77.3236 75.0733 76.5076C75.0893 75.6916 75.2093 74.9316 75.4333 74.2276C75.6573 73.5076 75.9773 72.8836 76.3933 72.3556C76.8253 71.8276 77.3453 71.4116 77.9533 71.1076C78.5613 70.8036 79.2493 70.6516 80.0173 70.6516C80.7533 70.6516 81.4413 70.8036 82.0813 71.1076C82.7373 71.4116 83.3133 71.8356 83.8093 72.3796C84.3213 72.9236 84.7213 73.5556 85.0093 74.2756C85.2973 74.9796 85.4413 75.7396 85.4413 76.5556C85.4413 77.3876 85.2973 78.1556 85.0093 78.8596C84.7213 79.5636 84.3293 80.1796 83.8333 80.7076C83.3373 81.2196 82.7613 81.6196 82.1053 81.9076C81.4493 82.1956 80.7533 82.3396 80.0173 82.3396ZM75.2173 87.3316C74.7853 87.3316 74.4653 87.2676 74.2573 87.1396C74.0493 87.0116 73.9213 86.8436 73.8733 86.6356C73.8253 86.4276 73.8013 86.1876 73.8013 85.9156V72.1156C73.8013 71.8436 73.8253 71.6036 73.8733 71.3956C73.9213 71.1876 74.0413 71.0196 74.2333 70.8916C74.4413 70.7476 74.7613 70.6756 75.1933 70.6756C75.6093 70.6756 75.9373 70.7396 76.1773 70.8676C76.4173 70.9956 76.5773 71.2116 76.6573 71.5156V85.8916C76.6733 86.1636 76.6493 86.4036 76.5853 86.6116C76.5373 86.8356 76.4093 87.0116 76.2013 87.1396C75.9933 87.2676 75.6653 87.3316 75.2173 87.3316ZM79.6333 79.6516C80.1933 79.6516 80.6973 79.5236 81.1453 79.2676C81.5933 78.9956 81.9453 78.6276 82.2013 78.1636C82.4733 77.6836 82.6093 77.1476 82.6093 76.5556C82.6093 75.9476 82.4733 75.4116 82.2013 74.9476C81.9453 74.4836 81.5933 74.1236 81.1453 73.8676C80.6973 73.5956 80.1933 73.4596 79.6333 73.4596C79.0893 73.4596 78.5933 73.5956 78.1453 73.8676C77.6973 74.1396 77.3373 74.5076 77.0653 74.9716C76.8093 75.4196 76.6813 75.9476 76.6813 76.5556C76.6813 77.1476 76.8093 77.6836 77.0653 78.1636C77.3373 78.6276 77.6973 78.9956 78.1453 79.2676C78.5933 79.5236 79.0893 79.6516 79.6333 79.6516ZM93.1807 82.6516C92.1407 82.6516 91.2287 82.4836 90.4447 82.1476C89.6767 81.8116 89.0287 81.3556 88.5007 80.7796C87.9887 80.1876 87.5967 79.5316 87.3247 78.8116C87.0687 78.0756 86.9407 77.3156 86.9407 76.5316C86.9407 75.3796 87.2047 74.3556 87.7327 73.4596C88.2607 72.5636 88.9887 71.8596 89.9167 71.3476C90.8607 70.8356 91.9407 70.5796 93.1567 70.5796C94.0207 70.5796 94.7807 70.7156 95.4367 70.9876C96.0927 71.2596 96.6367 71.6196 97.0687 72.0676C97.5167 72.4996 97.8527 72.9796 98.0767 73.5076C98.3167 74.0356 98.4367 74.5476 98.4367 75.0436C98.4367 75.8916 98.2287 76.5076 97.8127 76.8916C97.4127 77.2756 96.9087 77.4676 96.3007 77.4676H89.9647C89.9807 78.0116 90.1487 78.4836 90.4687 78.8836C90.8047 79.2836 91.2207 79.5956 91.7167 79.8196C92.2287 80.0276 92.7487 80.1316 93.2767 80.1316C93.6767 80.1316 94.0287 80.1076 94.3327 80.0596C94.6527 80.0116 94.9247 79.9556 95.1487 79.8916C95.3727 79.8116 95.5647 79.7316 95.7247 79.6516C95.9007 79.5716 96.0607 79.4996 96.2047 79.4356C96.3487 79.3716 96.4847 79.3316 96.6127 79.3156C96.7887 79.2996 96.9647 79.3396 97.1407 79.4356C97.3167 79.5316 97.4607 79.6996 97.5727 79.9396C97.6687 80.0996 97.7327 80.2516 97.7647 80.3956C97.8127 80.5236 97.8367 80.6516 97.8367 80.7796C97.8367 81.0996 97.6447 81.4036 97.2607 81.6916C96.8767 81.9636 96.3327 82.1876 95.6287 82.3636C94.9407 82.5556 94.1247 82.6516 93.1807 82.6516ZM89.9647 75.7636H94.8847C95.1567 75.7636 95.3647 75.7236 95.5087 75.6436C95.6527 75.5476 95.7247 75.3556 95.7247 75.0676C95.7247 74.6996 95.6127 74.3716 95.3887 74.0836C95.1647 73.7796 94.8607 73.5476 94.4767 73.3876C94.0927 73.2116 93.6447 73.1236 93.1327 73.1236C92.5407 73.1236 92.0047 73.2436 91.5247 73.4836C91.0447 73.7076 90.6607 74.0196 90.3727 74.4196C90.1007 74.8196 89.9647 75.2676 89.9647 75.7636ZM101.822 82.5076C101.39 82.5076 101.07 82.4356 100.862 82.2916C100.67 82.1636 100.55 81.9876 100.502 81.7636C100.454 81.5396 100.43 81.2916 100.43 81.0196V72.1156C100.43 71.8276 100.454 71.5796 100.502 71.3716C100.55 71.1476 100.67 70.9796 100.862 70.8676C101.07 70.7396 101.398 70.6756 101.846 70.6756C102.278 70.6756 102.59 70.7316 102.782 70.8436C102.99 70.9556 103.118 71.0996 103.166 71.2756C103.23 71.4356 103.262 71.5956 103.262 71.7556L103.07 72.1876C103.15 72.0596 103.262 71.9076 103.406 71.7316C103.55 71.5396 103.742 71.3556 103.982 71.1796C104.222 70.9876 104.51 70.8356 104.846 70.7236C105.182 70.5956 105.582 70.5316 106.046 70.5316C106.238 70.5316 106.438 70.5556 106.646 70.6036C106.87 70.6356 107.086 70.6916 107.294 70.7716C107.518 70.8356 107.718 70.9236 107.894 71.0356C108.07 71.1476 108.206 71.2836 108.302 71.4436C108.398 71.5876 108.446 71.7556 108.446 71.9476C108.446 72.4596 108.318 72.8916 108.062 73.2436C107.806 73.5956 107.502 73.7716 107.15 73.7716C106.91 73.7716 106.734 73.7476 106.622 73.6996C106.51 73.6516 106.414 73.5956 106.334 73.5316C106.27 73.4676 106.166 73.4116 106.022 73.3636C105.894 73.3156 105.686 73.2916 105.398 73.2916C105.158 73.2916 104.91 73.3316 104.654 73.4116C104.414 73.4916 104.19 73.6116 103.982 73.7716C103.774 73.9316 103.606 74.1396 103.478 74.3956C103.35 74.6356 103.286 74.9156 103.286 75.2356V81.0676C103.286 81.3396 103.262 81.5876 103.214 81.8116C103.166 82.0196 103.038 82.1876 102.83 82.3156C102.622 82.4436 102.286 82.5076 101.822 82.5076ZM111.759 82.4836C111.327 82.4836 111.007 82.4196 110.799 82.2916C110.607 82.1636 110.487 81.9876 110.439 81.7636C110.391 81.5396 110.367 81.2996 110.367 81.0436V72.0676C110.367 71.8116 110.391 71.5796 110.439 71.3716C110.487 71.1636 110.615 70.9956 110.823 70.8676C111.031 70.7396 111.359 70.6756 111.807 70.6756C112.271 70.6756 112.607 70.7716 112.815 70.9636C113.039 71.1556 113.151 71.4596 113.151 71.8756L112.935 72.5476C113.015 72.3716 113.151 72.1796 113.343 71.9716C113.535 71.7636 113.767 71.5556 114.039 71.3476C114.327 71.1396 114.647 70.9716 114.999 70.8436C115.351 70.7156 115.719 70.6516 116.103 70.6516C116.631 70.6516 117.111 70.7396 117.543 70.9156C117.991 71.0916 118.383 71.3476 118.719 71.6836C119.071 72.0196 119.375 72.4276 119.631 72.9076C119.903 72.4916 120.207 72.1156 120.543 71.7796C120.879 71.4276 121.271 71.1556 121.719 70.9636C122.167 70.7556 122.671 70.6516 123.231 70.6516C124.159 70.6516 124.935 70.8836 125.559 71.3476C126.199 71.8116 126.679 72.4756 126.999 73.3396C127.335 74.1876 127.503 75.2036 127.503 76.3876V81.0436C127.503 81.3156 127.471 81.5636 127.407 81.7876C127.359 81.9956 127.231 82.1636 127.023 82.2916C126.831 82.4196 126.511 82.4836 126.063 82.4836C125.615 82.4836 125.287 82.4116 125.079 82.2676C124.871 82.1396 124.743 81.9716 124.695 81.7636C124.647 81.5396 124.623 81.2916 124.623 81.0196V76.3636C124.623 75.7716 124.551 75.2596 124.407 74.8276C124.263 74.3956 124.047 74.0596 123.759 73.8196C123.487 73.5796 123.127 73.4596 122.679 73.4596C122.199 73.4596 121.783 73.5796 121.431 73.8196C121.095 74.0436 120.831 74.3716 120.639 74.8036C120.447 75.2356 120.351 75.7636 120.351 76.3876V81.0676C120.351 81.3396 120.311 81.5956 120.231 81.8356C120.151 82.0596 119.991 82.2276 119.751 82.3396C119.527 82.4676 119.199 82.5156 118.767 82.4836C118.367 82.4676 118.071 82.3876 117.879 82.2436C117.703 82.0996 117.591 81.9236 117.543 81.7156C117.511 81.4916 117.495 81.2596 117.495 81.0196V76.3636C117.495 75.7716 117.423 75.2596 117.279 74.8276C117.135 74.3796 116.919 74.0436 116.631 73.8196C116.359 73.5796 115.991 73.4596 115.527 73.4596C115.031 73.4596 114.607 73.5876 114.255 73.8436C113.919 74.0996 113.663 74.4436 113.487 74.8756C113.311 75.3076 113.223 75.8036 113.223 76.3636V81.0676C113.223 81.3236 113.191 81.5636 113.127 81.7876C113.079 82.0116 112.951 82.1796 112.743 82.2916C112.551 82.4196 112.223 82.4836 111.759 82.4836ZM131.45 82.5076C131.018 82.5076 130.698 82.4356 130.49 82.2916C130.282 82.1636 130.154 81.9956 130.106 81.7876C130.058 81.5636 130.034 81.3156 130.034 81.0436V72.1156C130.034 71.8596 130.058 71.6276 130.106 71.4196C130.17 71.1956 130.298 71.0196 130.49 70.8916C130.698 70.7636 131.026 70.6996 131.474 70.6996C131.922 70.6996 132.242 70.7636 132.434 70.8916C132.642 71.0196 132.77 71.1956 132.818 71.4196C132.866 71.6436 132.89 71.8916 132.89 72.1636V81.0676C132.89 81.3396 132.866 81.5876 132.818 81.8116C132.77 82.0196 132.642 82.1876 132.434 82.3156C132.242 82.4436 131.914 82.5076 131.45 82.5076ZM131.45 68.3716C130.986 68.3716 130.642 68.3076 130.418 68.1796C130.21 68.0356 130.074 67.8436 130.01 67.6036C129.962 67.3636 129.938 67.0996 129.938 66.8116C129.938 66.5076 129.962 66.2436 130.01 66.0196C130.074 65.7956 130.218 65.6196 130.442 65.4916C130.666 65.3476 131.01 65.2756 131.474 65.2756C131.954 65.2756 132.298 65.3476 132.506 65.4916C132.714 65.6356 132.85 65.8276 132.914 66.0676C132.978 66.2916 133.01 66.5556 133.01 66.8596C133.01 67.1316 132.978 67.3876 132.914 67.6276C132.85 67.8676 132.714 68.0516 132.506 68.1796C132.298 68.3076 131.946 68.3716 131.45 68.3716ZM139.62 82.6516C139.204 82.6516 138.764 82.6036 138.3 82.5076C137.836 82.4276 137.388 82.3076 136.956 82.1476C136.524 81.9716 136.148 81.7716 135.828 81.5476C135.524 81.3076 135.332 81.0436 135.252 80.7556C135.188 80.5956 135.164 80.4436 135.18 80.2996C135.196 80.1396 135.244 79.9796 135.324 79.8196C135.404 79.6436 135.524 79.4676 135.684 79.2916C135.828 79.1156 135.972 79.0196 136.116 79.0036C136.276 78.9716 136.476 79.0196 136.716 79.1476C136.924 79.2276 137.148 79.3316 137.388 79.4596C137.644 79.5876 137.9 79.7156 138.156 79.8436C138.428 79.9716 138.7 80.0756 138.972 80.1556C139.26 80.2356 139.54 80.2756 139.812 80.2756C140.404 80.2756 140.876 80.1796 141.228 79.9876C141.58 79.7796 141.756 79.4916 141.756 79.1236C141.756 78.9156 141.7 78.7316 141.588 78.5716C141.476 78.4116 141.324 78.2836 141.132 78.1876C140.956 78.0756 140.74 77.9796 140.484 77.8996C140.244 77.8036 139.98 77.7236 139.692 77.6596C139.42 77.5796 139.132 77.4916 138.828 77.3956C138.428 77.2836 138.028 77.1476 137.628 76.9876C137.228 76.8276 136.868 76.6196 136.548 76.3636C136.244 76.1076 135.996 75.7876 135.804 75.4036C135.612 75.0196 135.516 74.5396 135.516 73.9636C135.516 73.2436 135.684 72.6356 136.02 72.1396C136.372 71.6276 136.876 71.2356 137.532 70.9636C138.188 70.6916 138.98 70.5556 139.908 70.5556C140.228 70.5556 140.532 70.5796 140.82 70.6276C141.124 70.6756 141.412 70.7476 141.684 70.8436C141.972 70.9236 142.244 71.0276 142.5 71.1556C142.772 71.2836 143.028 71.4276 143.268 71.5876C143.668 71.8116 143.876 72.0756 143.892 72.3796C143.908 72.6676 143.796 72.9796 143.556 73.3156C143.38 73.5396 143.204 73.6996 143.028 73.7956C142.852 73.8756 142.668 73.8756 142.476 73.7956C142.22 73.6676 141.94 73.5316 141.636 73.3876C141.348 73.2276 141.044 73.0916 140.724 72.9796C140.42 72.8676 140.1 72.8116 139.764 72.8116C139.444 72.8116 139.156 72.8596 138.9 72.9556C138.644 73.0516 138.452 73.1876 138.324 73.3636C138.196 73.5396 138.132 73.7476 138.132 73.9876C138.132 74.2116 138.196 74.3956 138.324 74.5396C138.452 74.6836 138.62 74.8036 138.828 74.8996C139.036 74.9956 139.284 75.0836 139.572 75.1636C139.86 75.2276 140.164 75.2916 140.484 75.3556C140.932 75.4516 141.388 75.5716 141.852 75.7156C142.316 75.8596 142.74 76.0596 143.124 76.3156C143.524 76.5716 143.844 76.9156 144.084 77.3476C144.324 77.7636 144.444 78.3076 144.444 78.9796C144.444 80.1476 144.012 81.0516 143.148 81.6916C142.3 82.3316 141.124 82.6516 139.62 82.6516ZM148.067 82.5076C147.635 82.5076 147.315 82.4356 147.107 82.2916C146.899 82.1636 146.771 81.9956 146.723 81.7876C146.675 81.5636 146.651 81.3156 146.651 81.0436V72.1156C146.651 71.8596 146.675 71.6276 146.723 71.4196C146.787 71.1956 146.915 71.0196 147.107 70.8916C147.315 70.7636 147.643 70.6996 148.091 70.6996C148.539 70.6996 148.859 70.7636 149.051 70.8916C149.259 71.0196 149.387 71.1956 149.435 71.4196C149.483 71.6436 149.507 71.8916 149.507 72.1636V81.0676C149.507 81.3396 149.483 81.5876 149.435 81.8116C149.387 82.0196 149.259 82.1876 149.051 82.3156C148.859 82.4436 148.531 82.5076 148.067 82.5076ZM148.067 68.3716C147.603 68.3716 147.259 68.3076 147.035 68.1796C146.827 68.0356 146.691 67.8436 146.627 67.6036C146.579 67.3636 146.555 67.0996 146.555 66.8116C146.555 66.5076 146.579 66.2436 146.627 66.0196C146.691 65.7956 146.835 65.6196 147.059 65.4916C147.283 65.3476 147.627 65.2756 148.091 65.2756C148.571 65.2756 148.915 65.3476 149.123 65.4916C149.331 65.6356 149.467 65.8276 149.531 66.0676C149.595 66.2916 149.627 66.5556 149.627 66.8596C149.627 67.1316 149.595 67.3876 149.531 67.6276C149.467 67.8676 149.331 68.0516 149.123 68.1796C148.915 68.3076 148.563 68.3716 148.067 68.3716ZM154.612 82.5076C154.18 82.5076 153.86 82.4436 153.652 82.3156C153.46 82.1876 153.34 82.0116 153.292 81.7876C153.244 81.5476 153.22 81.2996 153.22 81.0436V69.3796C153.22 68.7876 153.3 68.2436 153.46 67.7476C153.62 67.2356 153.876 66.7956 154.228 66.4276C154.58 66.0596 155.036 65.7716 155.596 65.5636C156.156 65.3396 156.836 65.2276 157.636 65.2276C157.908 65.2276 158.148 65.2596 158.356 65.3236C158.58 65.3716 158.756 65.4916 158.884 65.6836C159.028 65.8756 159.1 66.2036 159.1 66.6676C159.1 67.0996 159.028 67.4196 158.884 67.6276C158.756 67.8356 158.58 67.9636 158.356 68.0116C158.132 68.0596 157.884 68.0836 157.612 68.0836C157.34 68.0836 157.1 68.0996 156.892 68.1316C156.7 68.1476 156.54 68.1956 156.412 68.2756C156.3 68.3556 156.212 68.4836 156.148 68.6596C156.1 68.8356 156.076 69.0596 156.076 69.3316V81.0916C156.076 81.3476 156.044 81.5876 155.98 81.8116C155.932 82.0196 155.804 82.1876 155.596 82.3156C155.388 82.4436 155.06 82.5076 154.612 82.5076ZM152.236 70.9156L154.708 70.9396L158.02 70.8436C158.292 70.8436 158.532 70.8756 158.74 70.9396C158.964 70.9876 159.14 71.1156 159.268 71.3236C159.396 71.5156 159.46 71.8356 159.46 72.2836C159.46 72.6996 159.396 73.0116 159.268 73.2196C159.14 73.4276 158.972 73.5636 158.764 73.6276C158.556 73.6756 158.316 73.6996 158.044 73.6996L154.828 73.6516L152.164 73.6756C151.764 73.6596 151.484 73.5476 151.324 73.3396C151.18 73.1156 151.108 72.7556 151.108 72.2596C151.108 71.7956 151.196 71.4596 151.372 71.2516C151.564 71.0276 151.852 70.9156 152.236 70.9156ZM161.371 84.9796C161.371 84.9796 161.339 84.9636 161.275 84.9316C161.211 84.9156 161.147 84.8516 161.083 84.7396C161.019 84.6436 160.987 84.4836 160.987 84.2596C160.987 83.9556 161.035 83.7556 161.131 83.6596C161.227 83.5796 161.291 83.5316 161.323 83.5156C161.339 83.4996 161.451 83.4036 161.659 83.2276C161.867 83.0676 161.987 82.7876 162.019 82.3876C161.859 82.3556 161.715 82.3156 161.587 82.2676C161.475 82.2036 161.379 82.1316 161.299 82.0516C161.139 81.8916 161.043 81.7076 161.011 81.4996C160.979 81.2756 160.963 81.0516 160.963 80.8276C160.963 80.4596 161.003 80.1556 161.083 79.9156C161.163 79.6756 161.315 79.4996 161.539 79.3876C161.779 79.2596 162.131 79.1956 162.595 79.1956C163.203 79.1956 163.635 79.3236 163.891 79.5796C164.035 79.7236 164.115 79.9076 164.131 80.1316C164.163 80.3556 164.179 80.5796 164.179 80.8036C164.179 80.9636 164.179 81.0996 164.179 81.2116C164.179 81.3076 164.171 81.3956 164.155 81.4756C164.091 82.1156 163.923 82.6996 163.651 83.2276C163.395 83.7556 163.067 84.1796 162.667 84.4996C162.283 84.8196 161.851 84.9796 161.371 84.9796ZM162.547 74.5636C161.939 74.5636 161.515 74.4436 161.275 74.2036C161.051 73.9476 160.939 73.5396 160.939 72.9796C160.939 72.5636 160.979 72.2356 161.059 71.9956C161.155 71.7556 161.323 71.5876 161.563 71.4916C161.819 71.3796 162.155 71.3236 162.571 71.3236C163.195 71.3236 163.619 71.4436 163.843 71.6836C164.067 71.9236 164.179 72.3476 164.179 72.9556C164.179 73.2436 164.147 73.5156 164.083 73.7716C164.019 74.0116 163.875 74.2036 163.651 74.3476C163.427 74.4916 163.059 74.5636 162.547 74.5636ZM173.823 82.4836C173.407 82.4836 173.095 82.4116 172.887 82.2676C172.679 82.1396 172.543 81.9636 172.479 81.7396C172.415 81.5156 172.383 81.2756 172.383 81.0196V67.1476C172.383 66.8916 172.407 66.6596 172.455 66.4516C172.519 66.2276 172.655 66.0516 172.863 65.9236C173.071 65.7796 173.399 65.7076 173.847 65.7076L178.359 65.7316C179.527 65.7316 180.599 65.9316 181.575 66.3316C182.567 66.7316 183.423 67.2996 184.143 68.0356C184.863 68.7716 185.415 69.6516 185.799 70.6756C186.199 71.6836 186.399 72.7956 186.399 74.0116C186.399 75.2596 186.199 76.4036 185.799 77.4436C185.399 78.4836 184.839 79.3796 184.119 80.1316C183.399 80.8836 182.543 81.4676 181.551 81.8836C180.575 82.2836 179.487 82.4836 178.287 82.4836H173.823ZM175.287 79.5796H178.359C179.383 79.5796 180.279 79.3556 181.047 78.9076C181.815 78.4436 182.407 77.8036 182.823 76.9876C183.255 76.1716 183.471 75.2196 183.471 74.1316C183.471 73.0276 183.255 72.0676 182.823 71.2516C182.407 70.4196 181.807 69.7796 181.023 69.3316C180.255 68.8676 179.359 68.6356 178.335 68.6356H175.287V79.5796ZM198.512 82.4596C198.048 82.4596 197.704 82.3716 197.48 82.1956C197.256 82.0196 197.144 81.7796 197.144 81.4756L197.312 80.6836C197.184 80.8916 196.968 81.1396 196.664 81.4276C196.36 81.6996 195.96 81.9476 195.464 82.1716C194.968 82.3796 194.368 82.4836 193.664 82.4836C192.912 82.4836 192.2 82.3316 191.528 82.0276C190.872 81.7076 190.288 81.2756 189.776 80.7316C189.28 80.1716 188.88 79.5396 188.576 78.8356C188.288 78.1156 188.144 77.3476 188.144 76.5316C188.144 75.7476 188.288 75.0116 188.576 74.3236C188.88 73.6196 189.288 72.9956 189.8 72.4516C190.312 71.9076 190.896 71.4836 191.552 71.1796C192.224 70.8596 192.928 70.6996 193.664 70.6996C194.32 70.6996 194.872 70.7876 195.32 70.9636C195.784 71.1396 196.176 71.3636 196.496 71.6356C196.816 71.8916 197.08 72.1636 197.288 72.4516L197.144 71.7556C197.144 71.4036 197.256 71.1396 197.48 70.9636C197.704 70.7716 198.056 70.6756 198.536 70.6756C198.984 70.6756 199.304 70.7476 199.496 70.8916C199.688 71.0196 199.808 71.2036 199.856 71.4436C199.904 71.6676 199.928 71.9236 199.928 72.2116V80.9956C199.928 81.2676 199.904 81.5156 199.856 81.7396C199.808 81.9636 199.68 82.1396 199.472 82.2676C199.28 82.3956 198.96 82.4596 198.512 82.4596ZM194.096 79.6756C194.64 79.6756 195.128 79.5396 195.56 79.2676C195.992 78.9956 196.336 78.6276 196.592 78.1636C196.864 77.6836 197 77.1556 197 76.5796C197 75.9556 196.864 75.4116 196.592 74.9476C196.32 74.4836 195.96 74.1236 195.512 73.8676C195.08 73.5956 194.592 73.4596 194.048 73.4596C193.456 73.4596 192.928 73.6036 192.464 73.8916C192 74.1636 191.632 74.5396 191.36 75.0196C191.104 75.4836 190.976 76.0116 190.976 76.6036C190.976 77.1796 191.112 77.6996 191.384 78.1636C191.656 78.6276 192.024 78.9956 192.488 79.2676C192.968 79.5396 193.504 79.6756 194.096 79.6756ZM203.728 82.4836C203.296 82.4836 202.976 82.4196 202.768 82.2916C202.576 82.1636 202.456 81.9876 202.408 81.7636C202.36 81.5396 202.336 81.2996 202.336 81.0436V72.0676C202.336 71.8116 202.36 71.5796 202.408 71.3716C202.456 71.1636 202.584 70.9956 202.792 70.8676C203 70.7396 203.328 70.6756 203.776 70.6756C204.24 70.6756 204.576 70.7716 204.784 70.9636C205.008 71.1556 205.12 71.4596 205.12 71.8756L204.904 72.5476C204.984 72.3716 205.12 72.1796 205.312 71.9716C205.504 71.7636 205.736 71.5556 206.008 71.3476C206.296 71.1396 206.616 70.9716 206.968 70.8436C207.32 70.7156 207.688 70.6516 208.072 70.6516C208.6 70.6516 209.08 70.7396 209.512 70.9156C209.96 71.0916 210.352 71.3476 210.688 71.6836C211.04 72.0196 211.344 72.4276 211.6 72.9076C211.872 72.4916 212.176 72.1156 212.512 71.7796C212.848 71.4276 213.24 71.1556 213.688 70.9636C214.136 70.7556 214.64 70.6516 215.2 70.6516C216.128 70.6516 216.904 70.8836 217.528 71.3476C218.168 71.8116 218.648 72.4756 218.968 73.3396C219.304 74.1876 219.472 75.2036 219.472 76.3876V81.0436C219.472 81.3156 219.44 81.5636 219.376 81.7876C219.328 81.9956 219.2 82.1636 218.992 82.2916C218.8 82.4196 218.48 82.4836 218.032 82.4836C217.584 82.4836 217.256 82.4116 217.048 82.2676C216.84 82.1396 216.712 81.9716 216.664 81.7636C216.616 81.5396 216.592 81.2916 216.592 81.0196V76.3636C216.592 75.7716 216.52 75.2596 216.376 74.8276C216.232 74.3956 216.016 74.0596 215.728 73.8196C215.456 73.5796 215.096 73.4596 214.648 73.4596C214.168 73.4596 213.752 73.5796 213.4 73.8196C213.064 74.0436 212.8 74.3716 212.608 74.8036C212.416 75.2356 212.32 75.7636 212.32 76.3876V81.0676C212.32 81.3396 212.28 81.5956 212.2 81.8356C212.12 82.0596 211.96 82.2276 211.72 82.3396C211.496 82.4676 211.168 82.5156 210.736 82.4836C210.336 82.4676 210.04 82.3876 209.848 82.2436C209.672 82.0996 209.56 81.9236 209.512 81.7156C209.48 81.4916 209.464 81.2596 209.464 81.0196V76.3636C209.464 75.7716 209.392 75.2596 209.248 74.8276C209.104 74.3796 208.888 74.0436 208.6 73.8196C208.328 73.5796 207.96 73.4596 207.496 73.4596C207 73.4596 206.576 73.5876 206.224 73.8436C205.888 74.0996 205.632 74.4436 205.456 74.8756C205.28 75.3076 205.192 75.8036 205.192 76.3636V81.0676C205.192 81.3236 205.16 81.5636 205.096 81.7876C205.048 82.0116 204.92 82.1796 204.712 82.2916C204.52 82.4196 204.192 82.4836 203.728 82.4836ZM227.955 82.3396C227.171 82.3396 226.467 82.1956 225.843 81.9076C225.235 81.6036 224.715 81.1876 224.283 80.6596C223.867 80.1156 223.547 79.4916 223.323 78.7876C223.115 78.0836 223.011 77.3236 223.011 76.5076C223.027 75.6916 223.147 74.9316 223.371 74.2276C223.595 73.5076 223.915 72.8836 224.331 72.3556C224.763 71.8276 225.283 71.4116 225.891 71.1076C226.499 70.8036 227.187 70.6516 227.955 70.6516C228.691 70.6516 229.379 70.8036 230.019 71.1076C230.675 71.4116 231.251 71.8356 231.747 72.3796C232.259 72.9236 232.659 73.5556 232.947 74.2756C233.235 74.9796 233.379 75.7396 233.379 76.5556C233.379 77.3876 233.235 78.1556 232.947 78.8596C232.659 79.5636 232.267 80.1796 231.771 80.7076C231.275 81.2196 230.699 81.6196 230.043 81.9076C229.387 82.1956 228.691 82.3396 227.955 82.3396ZM223.155 87.3316C222.723 87.3316 222.403 87.2676 222.195 87.1396C221.987 87.0116 221.859 86.8436 221.811 86.6356C221.763 86.4276 221.739 86.1876 221.739 85.9156V72.1156C221.739 71.8436 221.763 71.6036 221.811 71.3956C221.859 71.1876 221.979 71.0196 222.171 70.8916C222.379 70.7476 222.699 70.6756 223.131 70.6756C223.547 70.6756 223.875 70.7396 224.115 70.8676C224.355 70.9956 224.515 71.2116 224.595 71.5156V85.8916C224.611 86.1636 224.587 86.4036 224.523 86.6116C224.475 86.8356 224.347 87.0116 224.139 87.1396C223.931 87.2676 223.603 87.3316 223.155 87.3316ZM227.571 79.6516C228.131 79.6516 228.635 79.5236 229.083 79.2676C229.531 78.9956 229.883 78.6276 230.139 78.1636C230.411 77.6836 230.547 77.1476 230.547 76.5556C230.547 75.9476 230.411 75.4116 230.139 74.9476C229.883 74.4836 229.531 74.1236 229.083 73.8676C228.635 73.5956 228.131 73.4596 227.571 73.4596C227.027 73.4596 226.531 73.5956 226.083 73.8676C225.635 74.1396 225.275 74.5076 225.003 74.9716C224.747 75.4196 224.619 75.9476 224.619 76.5556C224.619 77.1476 224.747 77.6836 225.003 78.1636C225.275 78.6276 225.635 78.9956 226.083 79.2676C226.531 79.5236 227.027 79.6516 227.571 79.6516ZM245.246 82.4596C244.782 82.4596 244.438 82.3716 244.214 82.1956C243.99 82.0196 243.878 81.7796 243.878 81.4756L244.046 80.6836C243.918 80.8916 243.702 81.1396 243.398 81.4276C243.094 81.6996 242.694 81.9476 242.198 82.1716C241.702 82.3796 241.102 82.4836 240.398 82.4836C239.646 82.4836 238.934 82.3316 238.262 82.0276C237.606 81.7076 237.022 81.2756 236.51 80.7316C236.014 80.1716 235.614 79.5396 235.31 78.8356C235.022 78.1156 234.878 77.3476 234.878 76.5316C234.878 75.7476 235.022 75.0116 235.31 74.3236C235.614 73.6196 236.022 72.9956 236.534 72.4516C237.046 71.9076 237.63 71.4836 238.286 71.1796C238.958 70.8596 239.662 70.6996 240.398 70.6996C241.054 70.6996 241.606 70.7876 242.054 70.9636C242.518 71.1396 242.91 71.3636 243.23 71.6356C243.55 71.8916 243.814 72.1636 244.022 72.4516L243.878 71.7556C243.878 71.4036 243.99 71.1396 244.214 70.9636C244.438 70.7716 244.79 70.6756 245.27 70.6756C245.718 70.6756 246.038 70.7476 246.23 70.8916C246.422 71.0196 246.542 71.2036 246.59 71.4436C246.638 71.6676 246.662 71.9236 246.662 72.2116V80.9956C246.662 81.2676 246.638 81.5156 246.59 81.7396C246.542 81.9636 246.414 82.1396 246.206 82.2676C246.014 82.3956 245.694 82.4596 245.246 82.4596ZM240.83 79.6756C241.374 79.6756 241.862 79.5396 242.294 79.2676C242.726 78.9956 243.07 78.6276 243.326 78.1636C243.598 77.6836 243.734 77.1556 243.734 76.5796C243.734 75.9556 243.598 75.4116 243.326 74.9476C243.054 74.4836 242.694 74.1236 242.246 73.8676C241.814 73.5956 241.326 73.4596 240.782 73.4596C240.19 73.4596 239.662 73.6036 239.198 73.8916C238.734 74.1636 238.366 74.5396 238.094 75.0196C237.838 75.4836 237.71 76.0116 237.71 76.6036C237.71 77.1796 237.846 77.6996 238.118 78.1636C238.39 78.6276 238.758 78.9956 239.222 79.2676C239.702 79.5396 240.238 79.6756 240.83 79.6756ZM258.478 79.9156C258.894 80.2676 259.11 80.5956 259.126 80.8996C259.158 81.2036 258.998 81.5556 258.646 81.9556C258.374 82.2596 258.134 82.4596 257.926 82.5556C257.718 82.6516 257.51 82.6516 257.302 82.5556C257.094 82.4756 256.846 82.3156 256.558 82.0756L251.974 78.2116V81.0676C251.974 81.3236 251.942 81.5636 251.878 81.7876C251.83 82.0116 251.702 82.1876 251.494 82.3156C251.302 82.4436 250.982 82.5076 250.534 82.5076C250.086 82.5076 249.758 82.4356 249.55 82.2916C249.358 82.1636 249.238 81.9876 249.19 81.7636C249.142 81.5396 249.118 81.2996 249.118 81.0436V66.7156C249.118 66.4436 249.142 66.2036 249.19 65.9956C249.254 65.7716 249.382 65.5956 249.574 65.4676C249.782 65.3236 250.11 65.2516 250.558 65.2516C251.006 65.2516 251.326 65.3236 251.518 65.4676C251.71 65.5956 251.83 65.7716 251.878 65.9956C251.942 66.2036 251.974 66.4516 251.974 66.7396V74.6116L255.286 71.3956C255.542 71.1556 255.782 70.9956 256.006 70.9156C256.23 70.8196 256.446 70.8116 256.654 70.8916C256.878 70.9556 257.11 71.1236 257.35 71.3956C257.75 71.8276 257.942 72.1876 257.926 72.4756C257.91 72.7476 257.71 73.0756 257.326 73.4596L254.086 76.4596L258.478 79.9156ZM269.432 82.5076C269 82.5076 268.68 82.4436 268.472 82.3156C268.28 82.1876 268.16 82.0116 268.112 81.7876C268.064 81.5476 268.04 81.2996 268.04 81.0436V69.3796C268.04 68.7876 268.12 68.2436 268.28 67.7476C268.44 67.2356 268.696 66.7956 269.048 66.4276C269.4 66.0596 269.856 65.7716 270.416 65.5636C270.976 65.3396 271.656 65.2276 272.456 65.2276C272.728 65.2276 272.968 65.2596 273.176 65.3236C273.4 65.3716 273.576 65.4916 273.704 65.6836C273.848 65.8756 273.92 66.2036 273.92 66.6676C273.92 67.0996 273.848 67.4196 273.704 67.6276C273.576 67.8356 273.4 67.9636 273.176 68.0116C272.952 68.0596 272.704 68.0836 272.432 68.0836C272.16 68.0836 271.92 68.0996 271.712 68.1316C271.52 68.1476 271.36 68.1956 271.232 68.2756C271.12 68.3556 271.032 68.4836 270.968 68.6596C270.92 68.8356 270.896 69.0596 270.896 69.3316V81.0916C270.896 81.3476 270.864 81.5876 270.8 81.8116C270.752 82.0196 270.624 82.1876 270.416 82.3156C270.208 82.4436 269.88 82.5076 269.432 82.5076ZM267.056 70.9156L269.528 70.9396L272.84 70.8436C273.112 70.8436 273.352 70.8756 273.56 70.9396C273.784 70.9876 273.96 71.1156 274.088 71.3236C274.216 71.5156 274.28 71.8356 274.28 72.2836C274.28 72.6996 274.216 73.0116 274.088 73.2196C273.96 73.4276 273.792 73.5636 273.584 73.6276C273.376 73.6756 273.136 73.6996 272.864 73.6996L269.648 73.6516L266.984 73.6756C266.584 73.6596 266.304 73.5476 266.144 73.3396C266 73.1156 265.928 72.7556 265.928 72.2596C265.928 71.7956 266.016 71.4596 266.192 71.2516C266.384 71.0276 266.672 70.9156 267.056 70.9156ZM277.583 82.5076C277.151 82.5076 276.831 82.4356 276.623 82.2916C276.415 82.1636 276.287 81.9956 276.239 81.7876C276.191 81.5636 276.167 81.3156 276.167 81.0436V72.1156C276.167 71.8596 276.191 71.6276 276.239 71.4196C276.303 71.1956 276.431 71.0196 276.623 70.8916C276.831 70.7636 277.159 70.6996 277.607 70.6996C278.055 70.6996 278.375 70.7636 278.567 70.8916C278.775 71.0196 278.903 71.1956 278.951 71.4196C278.999 71.6436 279.023 71.8916 279.023 72.1636V81.0676C279.023 81.3396 278.999 81.5876 278.951 81.8116C278.903 82.0196 278.775 82.1876 278.567 82.3156C278.375 82.4436 278.047 82.5076 277.583 82.5076ZM277.583 68.3716C277.119 68.3716 276.775 68.3076 276.551 68.1796C276.343 68.0356 276.207 67.8436 276.143 67.6036C276.095 67.3636 276.071 67.0996 276.071 66.8116C276.071 66.5076 276.095 66.2436 276.143 66.0196C276.207 65.7956 276.351 65.6196 276.575 65.4916C276.799 65.3476 277.143 65.2756 277.607 65.2756C278.087 65.2756 278.431 65.3476 278.639 65.4916C278.847 65.6356 278.983 65.8276 279.047 66.0676C279.111 66.2916 279.143 66.5556 279.143 66.8596C279.143 67.1316 279.111 67.3876 279.047 67.6276C278.983 67.8676 278.847 68.0516 278.639 68.1796C278.431 68.3076 278.079 68.3716 277.583 68.3716ZM285.752 82.6516C285.336 82.6516 284.896 82.6036 284.432 82.5076C283.968 82.4276 283.52 82.3076 283.088 82.1476C282.656 81.9716 282.28 81.7716 281.96 81.5476C281.656 81.3076 281.464 81.0436 281.384 80.7556C281.32 80.5956 281.296 80.4436 281.312 80.2996C281.328 80.1396 281.376 79.9796 281.456 79.8196C281.536 79.6436 281.656 79.4676 281.816 79.2916C281.96 79.1156 282.104 79.0196 282.248 79.0036C282.408 78.9716 282.608 79.0196 282.848 79.1476C283.056 79.2276 283.28 79.3316 283.52 79.4596C283.776 79.5876 284.032 79.7156 284.288 79.8436C284.56 79.9716 284.832 80.0756 285.104 80.1556C285.392 80.2356 285.672 80.2756 285.944 80.2756C286.536 80.2756 287.008 80.1796 287.36 79.9876C287.712 79.7796 287.888 79.4916 287.888 79.1236C287.888 78.9156 287.832 78.7316 287.72 78.5716C287.608 78.4116 287.456 78.2836 287.264 78.1876C287.088 78.0756 286.872 77.9796 286.616 77.8996C286.376 77.8036 286.112 77.7236 285.824 77.6596C285.552 77.5796 285.264 77.4916 284.96 77.3956C284.56 77.2836 284.16 77.1476 283.76 76.9876C283.36 76.8276 283 76.6196 282.68 76.3636C282.376 76.1076 282.128 75.7876 281.936 75.4036C281.744 75.0196 281.648 74.5396 281.648 73.9636C281.648 73.2436 281.816 72.6356 282.152 72.1396C282.504 71.6276 283.008 71.2356 283.664 70.9636C284.32 70.6916 285.112 70.5556 286.04 70.5556C286.36 70.5556 286.664 70.5796 286.952 70.6276C287.256 70.6756 287.544 70.7476 287.816 70.8436C288.104 70.9236 288.376 71.0276 288.632 71.1556C288.904 71.2836 289.16 71.4276 289.4 71.5876C289.8 71.8116 290.008 72.0756 290.024 72.3796C290.04 72.6676 289.928 72.9796 289.688 73.3156C289.512 73.5396 289.336 73.6996 289.16 73.7956C288.984 73.8756 288.8 73.8756 288.608 73.7956C288.352 73.6676 288.072 73.5316 287.768 73.3876C287.48 73.2276 287.176 73.0916 286.856 72.9796C286.552 72.8676 286.232 72.8116 285.896 72.8116C285.576 72.8116 285.288 72.8596 285.032 72.9556C284.776 73.0516 284.584 73.1876 284.456 73.3636C284.328 73.5396 284.264 73.7476 284.264 73.9876C284.264 74.2116 284.328 74.3956 284.456 74.5396C284.584 74.6836 284.752 74.8036 284.96 74.8996C285.168 74.9956 285.416 75.0836 285.704 75.1636C285.992 75.2276 286.296 75.2916 286.616 75.3556C287.064 75.4516 287.52 75.5716 287.984 75.7156C288.448 75.8596 288.872 76.0596 289.256 76.3156C289.656 76.5716 289.976 76.9156 290.216 77.3476C290.456 77.7636 290.576 78.3076 290.576 78.9796C290.576 80.1476 290.144 81.0516 289.28 81.6916C288.432 82.3316 287.256 82.6516 285.752 82.6516ZM294.2 82.5076C293.768 82.5076 293.448 82.4356 293.24 82.2916C293.032 82.1636 292.904 81.9956 292.856 81.7876C292.808 81.5636 292.784 81.3156 292.784 81.0436V72.1156C292.784 71.8596 292.808 71.6276 292.856 71.4196C292.92 71.1956 293.048 71.0196 293.24 70.8916C293.448 70.7636 293.776 70.6996 294.224 70.6996C294.672 70.6996 294.992 70.7636 295.184 70.8916C295.392 71.0196 295.52 71.1956 295.568 71.4196C295.616 71.6436 295.64 71.8916 295.64 72.1636V81.0676C295.64 81.3396 295.616 81.5876 295.568 81.8116C295.52 82.0196 295.392 82.1876 295.184 82.3156C294.992 82.4436 294.664 82.5076 294.2 82.5076ZM294.2 68.3716C293.736 68.3716 293.392 68.3076 293.168 68.1796C292.96 68.0356 292.824 67.8436 292.76 67.6036C292.712 67.3636 292.688 67.0996 292.688 66.8116C292.688 66.5076 292.712 66.2436 292.76 66.0196C292.824 65.7956 292.968 65.6196 293.192 65.4916C293.416 65.3476 293.76 65.2756 294.224 65.2756C294.704 65.2756 295.048 65.3476 295.256 65.4916C295.464 65.6356 295.6 65.8276 295.664 66.0676C295.728 66.2916 295.76 66.5556 295.76 66.8596C295.76 67.1316 295.728 67.3876 295.664 67.6276C295.6 67.8676 295.464 68.0516 295.256 68.1796C295.048 68.3076 294.696 68.3716 294.2 68.3716ZM307.674 79.9156C308.09 80.2676 308.306 80.5956 308.322 80.8996C308.354 81.2036 308.194 81.5556 307.842 81.9556C307.57 82.2596 307.33 82.4596 307.122 82.5556C306.914 82.6516 306.706 82.6516 306.498 82.5556C306.29 82.4756 306.042 82.3156 305.754 82.0756L301.17 78.2116V81.0676C301.17 81.3236 301.138 81.5636 301.074 81.7876C301.026 82.0116 300.898 82.1876 300.69 82.3156C300.498 82.4436 300.178 82.5076 299.73 82.5076C299.282 82.5076 298.954 82.4356 298.746 82.2916C298.554 82.1636 298.434 81.9876 298.386 81.7636C298.338 81.5396 298.314 81.2996 298.314 81.0436V66.7156C298.314 66.4436 298.338 66.2036 298.386 65.9956C298.45 65.7716 298.578 65.5956 298.77 65.4676C298.978 65.3236 299.306 65.2516 299.754 65.2516C300.202 65.2516 300.522 65.3236 300.714 65.4676C300.906 65.5956 301.026 65.7716 301.074 65.9956C301.138 66.2036 301.17 66.4516 301.17 66.7396V74.6116L304.482 71.3956C304.738 71.1556 304.978 70.9956 305.202 70.9156C305.426 70.8196 305.642 70.8116 305.85 70.8916C306.074 70.9556 306.306 71.1236 306.546 71.3956C306.946 71.8276 307.138 72.1876 307.122 72.4756C307.106 72.7476 306.906 73.0756 306.522 73.4596L303.282 76.4596L307.674 79.9156Z" fill="black"/>
</svg>
