<svg width="336" height="108" viewBox="0 0 336 108" fill="none" xmlns="http://www.w3.org/2000/svg">
<mask id="mask0_62_1723" style="mask-type:luminance" maskUnits="userSpaceOnUse" x="0" y="0" width="336" height="108">
<path d="M336 0H0V108H336V0Z" fill="white"/>
</mask>
<g mask="url(#mask0_62_1723)">
<mask id="mask1_62_1723" style="mask-type:luminance" maskUnits="userSpaceOnUse" x="7" y="8" width="327" height="100">
<path d="M7.84424 8.3999H333.385V107.419H7.84424V8.3999Z" fill="white"/>
</mask>
<g mask="url(#mask1_62_1723)">
<path d="M13.2627 65.1468L10.413 56.1234L14.9429 46.6874L10.9493 37.2562L8.21191 27.8203L10.1679 17.4187L22.057 16.4109L32.9094 14.0343L43.966 19.3265L54.6959 12.375L65.8036 19.5375L76.6304 16.1671L87.6667 20.6109L98.5803 20.4093L109.54 21.9093L120.387 19.2796L130.719 15.3984L141.096 13.1062L151.474 10.889L161.938 11.8921L172.468 15.4125L182.984 18.3093L193.412 18.0656L203.616 9.27651L214.254 16.8187L224.703 17.2546L234.983 11.2312L245.351 8.58276L256.121 11.6156L267.28 13.289L275.895 21.0562L286.748 22.8656L295.946 29.1046L309.367 24.0375L319.371 28.1015L332.931 33.4593L325.479 45.3046L325.214 55.8843L314.464 62.8734L310.695 72.2531L313.989 84.0562L308.759 92.939L306.088 104.377L290.517 98.7703L280.002 105.689L268.991 98.9906L258.537 107.841L247.49 99.8718L236.766 101.189L225.964 100.223L215.413 107.039L204.586 105.309L193.892 109.102L183.418 103.069L172.387 107.752L162.188 104.442L151.811 103.795L141.377 104.255L130.959 104.372L120.816 99.4874L110.372 100.083L100.25 94.6312L89.2703 105.084L79.4342 94.3499L68.5103 103.884L58.4955 96.5203L48.3019 92.2078L37.5006 99.6515L22.8997 100.397L24.7535 88.3265L19.146 81.2062L9.24864 75.2203L13.2627 65.1468Z" fill="black"/>
<path d="M13.2627 65.1468L10.413 56.1234L14.9429 46.6874L10.9493 37.2562L8.21191 27.8203L10.1679 17.4187L22.057 16.4109L32.9094 14.0343L43.966 19.3265L54.6959 12.375L65.8036 19.5375L76.6304 16.1671L87.6667 20.6109L98.5803 20.4093L109.54 21.9093L120.387 19.2796L130.719 15.3984L141.096 13.1062L151.474 10.889L161.938 11.8921L172.468 15.4125L182.984 18.3093L193.412 18.0656L203.616 9.27651L214.254 16.8187L224.703 17.2546L234.983 11.2312L245.351 8.58276L256.121 11.6156L267.28 13.289L275.895 21.0562L286.748 22.8656L295.946 29.1046L309.367 24.0375L319.371 28.1015L332.931 33.4593L325.479 45.3046L325.214 55.8843L314.464 62.8734L310.695 72.2531L313.989 84.0562L308.759 92.939L306.088 104.377L290.517 98.7703L280.002 105.689L268.991 98.9906L258.537 107.841L247.49 99.8718L236.766 101.189L225.964 100.223L215.413 107.039L204.586 105.309L193.892 109.102L183.418 103.069L172.387 107.752L162.188 104.442L151.811 103.795L141.377 104.255L130.959 104.372L120.816 99.4874L110.372 100.083L100.25 94.6312L89.2703 105.084L79.4342 94.3499L68.5103 103.884L58.4955 96.5203L48.3019 92.2078L37.5006 99.6515L22.8997 100.397L24.7535 88.3265L19.146 81.2062L9.24864 75.2203L13.2627 65.1468Z" fill="black"/>
</g>
<mask id="mask2_62_1723" style="mask-type:luminance" maskUnits="userSpaceOnUse" x="6" y="7" width="328" height="101">
<path d="M6.53687 7.19995H333.972V107.419H6.53687V7.19995Z" fill="white"/>
</mask>
<g mask="url(#mask2_62_1723)">
<path d="M193.821 109.786L183.372 103.777L172.423 108.427L162.05 105.061L151.806 104.391L141.408 104.845L130.8 104.967L120.668 100.083L110.214 100.697L100.368 95.3954L89.2396 105.989L79.3831 95.2314L68.5512 104.695L58.1329 97.0642L48.3887 92.9345L37.7253 100.261L22.103 101.058L24.0538 88.5142L18.6455 81.6517L8.44172 75.4642L12.5631 65.1282L9.70826 56.0813L14.2229 46.6688L10.3007 37.4157L7.52246 27.8485L9.59591 16.8563L21.9804 15.8017L32.9962 13.411L43.9099 18.6329L54.6959 11.6251L65.9108 18.8579L76.6611 15.5063L87.7995 19.9923L98.6212 19.7907L109.499 21.2907L120.163 18.6985L130.555 14.7985L140.923 12.5063L151.417 10.2751L162.152 11.3157L172.678 14.836L183.071 17.686L193.142 17.4563L203.57 8.46572L214.499 16.2095L224.499 16.622L234.682 10.6642L245.345 7.93604L256.264 10.9876L267.592 12.6845L276.217 20.4563L287.013 22.2517L296.027 28.3595L309.357 23.3298L319.632 27.497L333.886 33.1642L326.148 45.4735L325.888 56.2079L315.025 63.2673L311.399 72.2907L314.729 84.136L309.397 93.1548L306.558 105.216L290.599 99.4642L280.002 106.434L269.047 99.7689L258.573 108.666L247.307 100.533L236.781 101.831L226.118 100.87L215.566 107.686L204.653 105.947L193.821 109.786ZM183.469 102.375L193.969 108.417L204.515 104.677L215.255 106.392L225.786 99.5907L236.755 100.58L247.679 99.2298L258.501 107.039L268.924 98.2173L279.986 104.934L290.425 98.072L305.593 103.528L308.126 92.7142L313.279 83.9673L310 72.211L313.892 62.4845L324.555 55.5423L324.816 45.1642L331.981 33.7454L319.111 28.6782L309.352 24.7126L295.849 29.8126L286.472 23.4423L275.574 21.6142L266.958 13.8563L255.907 12.1923L245.325 9.20635L235.249 11.7985L224.871 17.9063L213.999 17.4563L203.647 10.1251L193.647 18.7126L182.851 18.9704L172.234 16.0454L161.785 12.497L151.514 11.5126L141.275 13.7063L130.928 15.9751L120.561 19.8704L109.581 22.5329L98.5344 21.0188L87.5339 21.2298L76.6304 16.8235L65.7015 20.222L54.6959 13.1204L44.0324 20.0438L32.8379 14.6813L22.1183 17.0157L10.7399 17.986L8.89114 27.7923L11.5876 37.0642L15.6681 46.7017L11.128 56.1517L13.9828 65.1704L10.076 74.9767L19.6312 80.7517L25.4634 88.172L23.6861 99.7407L37.2759 99.0517L48.2355 91.5001L58.8989 96.0376L68.4694 103.069L79.4802 93.4595L89.2907 104.17L100.123 93.8579L110.521 99.4642L120.949 98.8501L131.107 103.734L141.357 103.622L151.806 103.158L162.311 103.814L172.305 107.063L183.469 102.375Z" fill="black"/>
</g>
<mask id="mask3_62_1723" style="mask-type:luminance" maskUnits="userSpaceOnUse" x="2" y="0" width="327" height="102">
<path d="M2.61475 0.975098H328.156V102H2.61475V0.975098Z" fill="white"/>
</mask>
<g mask="url(#mask3_62_1723)">
<path d="M8.21729 57.0561L5.37269 48.0279L9.89749 38.592L5.90382 29.1607L3.15625 19.7248L5.12245 9.32793L17.0064 8.31543L27.8639 5.94355L38.9206 11.2311L49.6504 4.27949L60.753 11.4467L71.585 8.06699L82.6212 12.5201L93.5298 12.3139L104.495 13.8232L115.342 11.1889L125.673 7.29824L136.051 5.01074L146.428 2.79824L156.892 3.80137L167.423 7.31699L177.933 10.2139L188.367 9.97012L198.566 1.18105L209.209 8.72793L219.657 9.16387L229.938 3.14043L240.305 0.487305L251.076 3.5248L262.235 5.19355L270.85 12.9654L281.702 14.7748L290.9 21.0092L304.316 15.942L314.326 20.0061L327.885 25.3592L320.434 37.2139L320.168 47.7936L309.418 54.7779L305.649 64.1623L308.948 75.9607L303.714 84.8436L301.038 96.2811L285.471 90.6795L274.956 97.5982L263.945 90.8998L253.491 99.7498L242.44 91.7764L231.715 93.0982L220.919 92.1279L210.363 98.9436L199.541 97.2232L188.847 101.011L178.372 94.9732L167.341 99.6561L157.138 96.3561L146.77 95.6998L136.332 96.1639L125.913 96.2811L115.771 91.392L105.327 91.9873L95.2049 86.5404L84.2248 96.9889L74.3887 86.2592L63.4649 95.7842L53.4449 88.4201L43.2616 84.1123L32.4551 91.5607L17.8491 92.3014L19.708 80.2357L14.1006 73.1107L4.20319 67.1248L8.21729 57.0561Z" fill="white"/>
</g>
<mask id="mask4_62_1723" style="mask-type:luminance" maskUnits="userSpaceOnUse" x="0" y="0" width="333" height="105">
<path d="M0.566895 0.975098H332.078V104.4H0.566895V0.975098Z" fill="white"/>
</mask>
<g mask="url(#mask4_62_1723)">
<path d="M188.596 103.509L178.204 97.5281L167.484 102.08L156.652 98.5688L146.755 97.9594L136.372 98.4141L125.336 98.5406L115.25 93.6563L104.739 94.2656L95.6438 89.3813L84.1224 100.373L74.2046 89.5594L63.6076 98.7703L52.1424 90.3469L43.5575 86.7188L33.3077 93.7641L14.9787 94.6922L17.1134 80.8125L12.3486 74.7563L1.21023 68.0391L5.61247 56.9953L2.77297 47.8688L7.2416 38.5453L3.52881 29.7375L0.653564 19.8281L3.03343 7.25156L16.6078 6.08438L28.1854 3.5625L38.7263 8.60625L49.6451 1.52813L61.146 8.94844L71.6971 5.6625L83.1112 10.2609L93.693 10.0641L104.356 11.5313L114.56 9.05156L124.912 5.15625L135.478 2.83125L146.27 0.520313L157.444 1.59844L168.194 5.18906L178.265 7.95938L187.371 7.74375L198.412 -1.76719L210.097 6.51094L218.993 6.88594L228.921 1.06406L240.341 -1.85156L251.637 1.33594L263.394 3.09375L272.055 10.8797L282.718 12.6563L291.232 18.45L304.342 13.4953L315.306 17.9531L331.373 24.3L322.87 37.8375L322.594 48.9703L311.461 56.2078L308.213 64.2797L311.548 76.2516L306.027 85.6313L302.815 99.3422L285.808 93.2344L274.997 100.345L264.18 93.7641L253.603 102.717L241.725 94.1672L231.73 95.3906L221.552 94.4813L210.888 101.348L199.725 99.5719L188.596 103.509ZM178.551 92.4234L189.107 98.5266L199.26 94.9031L209.755 96.5719L220.224 89.8125L231.648 90.8391L243.119 89.4234L253.338 96.8016L263.664 88.05L274.874 94.8703L285.098 88.1531L299.229 93.2297L301.374 84.0703L306.333 75.6938L303.085 64.0922L307.38 53.4L317.753 46.6828L317.998 36.6141L324.387 26.4563L313.35 22.1016L304.28 18.4359L290.563 23.5641L280.701 16.8844L269.67 15.0563L261.065 7.30781L250.519 5.71875L240.274 2.83125L230.944 5.2125L220.326 11.4328L208.33 10.9406L198.724 4.12969L189.362 12.1922L177.606 12.4641L166.58 9.4125L156.33 5.98594L146.607 5.07188L136.612 7.20469L126.434 9.44531L116.123 13.3219L104.622 16.1109L93.3712 14.5641L82.1205 14.775L71.4571 10.5L60.3698 13.9359L49.6502 7.02656L39.1144 13.8563L27.5368 8.32031L17.4045 10.5375L7.21606 11.4047L5.66353 19.6266L8.23746 28.4625L12.5478 38.6484L7.98212 48.2156L10.8063 57.1688L7.1701 66.2297L15.8316 71.4656L22.2766 79.6547L20.6986 89.9063L31.5816 89.3578L42.9651 81.5109L54.7469 86.4984L63.3012 92.7891L74.5877 83.0203L84.3522 93.6609L94.7756 83.7328L105.955 89.7375L116.337 89.1234L126.505 94.0078L136.26 93.9L146.796 93.4359L157.643 94.1109L167.213 97.2141L178.551 92.4234Z" fill="black"/>
<path d="M188.596 103.509L178.204 97.5281L167.484 102.08L156.652 98.5688L146.755 97.9594L136.372 98.4141L125.336 98.5406L115.25 93.6563L104.739 94.2656L95.6438 89.3813L84.1224 100.373L74.2046 89.5594L63.6076 98.7703L52.1424 90.3469L43.5575 86.7188L33.3077 93.7641L14.9787 94.6922L17.1134 80.8125L12.3486 74.7563L1.21023 68.0391L5.61247 56.9953L2.77297 47.8688L7.2416 38.5453L3.52881 29.7375L0.653564 19.8281L3.03343 7.25156L16.6078 6.08438L28.1854 3.5625L38.7263 8.60625L49.6451 1.52813L61.146 8.94844L71.6971 5.6625L83.1112 10.2609L93.693 10.0641L104.356 11.5313L114.56 9.05156L124.912 5.15625L135.478 2.83125L146.27 0.520313L157.444 1.59844L168.194 5.18906L178.265 7.95938L187.371 7.74375L198.412 -1.76719L210.097 6.51094L218.993 6.88594L228.921 1.06406L240.341 -1.85156L251.637 1.33594L263.394 3.09375L272.055 10.8797L282.718 12.6563L291.232 18.45L304.342 13.4953L315.306 17.9531L331.373 24.3L322.87 37.8375L322.594 48.9703L311.461 56.2078L308.213 64.2797L311.548 76.2516L306.027 85.6313L302.815 99.3422L285.808 93.2344L274.997 100.345L264.18 93.7641L253.603 102.717L241.725 94.1672L231.73 95.3906L221.552 94.4813L210.888 101.348L199.725 99.5719L188.596 103.509ZM178.551 92.4234L189.107 98.5266L199.26 94.9031L209.755 96.5719L220.224 89.8125L231.648 90.8391L243.119 89.4234L253.338 96.8016L263.664 88.05L274.874 94.8703L285.098 88.1531L299.229 93.2297L301.374 84.0703L306.333 75.6938L303.085 64.0922L307.38 53.4L317.753 46.6828L317.998 36.6141L324.387 26.4563L313.35 22.1016L304.28 18.4359L290.563 23.5641L280.701 16.8844L269.67 15.0563L261.065 7.30781L250.519 5.71875L240.274 2.83125L230.944 5.2125L220.326 11.4328L208.33 10.9406L198.724 4.12969L189.362 12.1922L177.606 12.4641L166.58 9.4125L156.33 5.98594L146.607 5.07188L136.612 7.20469L126.434 9.44531L116.123 13.3219L104.622 16.1109L93.3712 14.5641L82.1205 14.775L71.4571 10.5L60.3698 13.9359L49.6502 7.02656L39.1144 13.8563L27.5368 8.32031L17.4045 10.5375L7.21606 11.4047L5.66353 19.6266L8.23746 28.4625L12.5478 38.6484L7.98212 48.2156L10.8063 57.1688L7.1701 66.2297L15.8316 71.4656L22.2766 79.6547L20.6986 89.9063L31.5816 89.3578L42.9651 81.5109L54.7469 86.4984L63.3012 92.7891L74.5877 83.0203L84.3522 93.6609L94.7756 83.7328L105.955 89.7375L116.337 89.1234L126.505 94.0078L136.26 93.9L146.796 93.4359L157.643 94.1109L167.213 97.2141L178.551 92.4234Z" fill="black"/>
</g>
</g>
<path d="M78.3792 41.867C78.6592 41.867 78.9019 41.895 79.1072 41.951C79.3312 42.007 79.5086 42.147 79.6392 42.371C79.7699 42.5763 79.8352 42.9123 79.8352 43.379C79.8352 43.8457 79.7699 44.191 79.6392 44.415C79.5086 44.6203 79.3312 44.751 79.1072 44.807C78.8832 44.8443 78.6312 44.863 78.3512 44.863H73.1992V59.787C73.1992 60.1043 73.1619 60.3937 73.0872 60.655C73.0312 60.8977 72.8819 61.0937 72.6392 61.243C72.4152 61.3923 72.0326 61.467 71.4912 61.467C70.9872 61.467 70.6139 61.383 70.3712 61.215C70.1286 61.0657 69.9792 60.8697 69.9232 60.627C69.8672 60.3657 69.8392 60.0763 69.8392 59.759V44.863H64.6312C64.3699 44.863 64.1272 44.835 63.9032 44.779C63.6792 44.723 63.4926 44.5923 63.3432 44.387C63.2126 44.1817 63.1472 43.8457 63.1472 43.379C63.1472 42.9123 63.2126 42.5763 63.3432 42.371C63.4739 42.147 63.6512 42.007 63.8752 41.951C64.1179 41.895 64.3699 41.867 64.6312 41.867H78.3792ZM84.487 61.439C83.6283 61.439 82.835 61.2897 82.107 60.991C81.3976 60.6737 80.7723 60.2257 80.231 59.647C79.6896 59.0683 79.2696 58.3777 78.971 57.575C78.6723 56.7723 78.523 55.8857 78.523 54.915V49.343C78.523 49.0257 78.551 48.7457 78.607 48.503C78.663 48.2417 78.8123 48.0363 79.055 47.887C79.2976 47.7377 79.671 47.663 80.175 47.663C80.7163 47.663 81.099 47.7377 81.323 47.887C81.5656 48.0363 81.715 48.2417 81.771 48.503C81.827 48.7643 81.855 49.0537 81.855 49.371V54.915C81.855 55.587 81.967 56.1657 82.191 56.651C82.4336 57.1363 82.779 57.519 83.227 57.799C83.675 58.0603 84.2256 58.191 84.879 58.191C85.551 58.191 86.1203 58.0603 86.587 57.799C87.0723 57.519 87.4456 57.1363 87.707 56.651C87.9683 56.147 88.099 55.5683 88.099 54.915V49.315C88.099 48.9977 88.127 48.7177 88.183 48.475C88.239 48.2137 88.3883 48.0177 88.631 47.887C88.8736 47.7377 89.2563 47.663 89.779 47.663C90.3016 47.663 90.675 47.7377 90.899 47.887C91.123 48.0363 91.263 48.2417 91.319 48.503C91.3936 48.7643 91.431 49.0443 91.431 49.343V59.843C91.431 60.123 91.3936 60.3843 91.319 60.627C91.263 60.8697 91.1136 61.0657 90.871 61.215C90.647 61.3643 90.2736 61.439 89.751 61.439C89.3776 61.439 89.079 61.3923 88.855 61.299C88.6496 61.2243 88.491 61.1217 88.379 60.991C88.2856 60.8417 88.2203 60.6923 88.183 60.543C88.1643 60.3937 88.155 60.2443 88.155 60.095L88.379 59.339C88.267 59.507 88.099 59.7123 87.875 59.955C87.651 60.179 87.371 60.4123 87.035 60.655C86.7176 60.879 86.3443 61.0657 85.915 61.215C85.4856 61.3643 85.0096 61.439 84.487 61.439ZM91.5648 67.039C91.2848 67.039 91.0235 67.0017 90.7808 66.927C90.5195 66.871 90.3142 66.731 90.1648 66.507C89.9968 66.283 89.9128 65.9097 89.9128 65.387C89.9128 64.9017 89.9968 64.547 90.1648 64.323C90.3142 64.099 90.5195 63.9497 90.7808 63.875C91.0235 63.8003 91.3035 63.763 91.6208 63.763C91.9568 63.763 92.2928 63.7257 92.6288 63.651C92.9648 63.595 93.2728 63.4643 93.5528 63.259C93.8328 63.0723 94.0475 62.783 94.1968 62.391C94.3648 62.0177 94.4488 61.5137 94.4488 60.879V49.175C94.4488 48.895 94.4768 48.643 94.5328 48.419C94.6075 48.1763 94.7662 47.9897 95.0088 47.859C95.2515 47.7097 95.6248 47.635 96.1288 47.635C96.6328 47.635 96.9968 47.7097 97.2208 47.859C97.4448 48.0083 97.5848 48.2137 97.6408 48.475C97.7155 48.7363 97.7528 49.0163 97.7528 49.315V60.935C97.7528 61.9617 97.5755 62.8577 97.2208 63.623C96.8848 64.407 96.4275 65.051 95.8488 65.555C95.2702 66.059 94.6075 66.4323 93.8608 66.675C93.1328 66.9177 92.3675 67.039 91.5648 67.039ZM96.0728 44.947C95.4008 44.947 94.9342 44.8163 94.6728 44.555C94.4302 44.2937 94.3088 43.8177 94.3088 43.127C94.3088 42.455 94.4302 41.9977 94.6728 41.755C94.9342 41.5123 95.4102 41.391 96.1008 41.391C96.7728 41.391 97.2302 41.5217 97.4728 41.783C97.7342 42.0257 97.8648 42.4923 97.8648 43.183C97.8648 43.855 97.7342 44.3217 97.4728 44.583C97.2302 44.8257 96.7635 44.947 96.0728 44.947ZM106.581 61.439C105.722 61.439 104.929 61.2897 104.201 60.991C103.491 60.6737 102.866 60.2257 102.325 59.647C101.783 59.0683 101.363 58.3777 101.065 57.575C100.766 56.7723 100.617 55.8857 100.617 54.915V49.343C100.617 49.0257 100.645 48.7457 100.701 48.503C100.757 48.2417 100.906 48.0363 101.149 47.887C101.391 47.7377 101.765 47.663 102.269 47.663C102.81 47.663 103.193 47.7377 103.417 47.887C103.659 48.0363 103.809 48.2417 103.865 48.503C103.921 48.7643 103.949 49.0537 103.949 49.371V54.915C103.949 55.587 104.061 56.1657 104.285 56.651C104.527 57.1363 104.873 57.519 105.321 57.799C105.769 58.0603 106.319 58.191 106.973 58.191C107.645 58.191 108.214 58.0603 108.681 57.799C109.166 57.519 109.539 57.1363 109.801 56.651C110.062 56.147 110.193 55.5683 110.193 54.915V49.315C110.193 48.9977 110.221 48.7177 110.277 48.475C110.333 48.2137 110.482 48.0177 110.725 47.887C110.967 47.7377 111.35 47.663 111.873 47.663C112.395 47.663 112.769 47.7377 112.993 47.887C113.217 48.0363 113.357 48.2417 113.413 48.503C113.487 48.7643 113.525 49.0443 113.525 49.343V59.843C113.525 60.123 113.487 60.3843 113.413 60.627C113.357 60.8697 113.207 61.0657 112.965 61.215C112.741 61.3643 112.367 61.439 111.845 61.439C111.471 61.439 111.173 61.3923 110.949 61.299C110.743 61.2243 110.585 61.1217 110.473 60.991C110.379 60.8417 110.314 60.6923 110.277 60.543C110.258 60.3937 110.249 60.2443 110.249 60.095L110.473 59.339C110.361 59.507 110.193 59.7123 109.969 59.955C109.745 60.179 109.465 60.4123 109.129 60.655C108.811 60.879 108.438 61.0657 108.009 61.215C107.579 61.3643 107.103 61.439 106.581 61.439ZM127.771 61.411C127.229 61.411 126.828 61.3083 126.567 61.103C126.305 60.8977 126.175 60.6177 126.175 60.263L126.371 59.339C126.221 59.5817 125.969 59.871 125.615 60.207C125.26 60.5243 124.793 60.8137 124.215 61.075C123.636 61.3177 122.936 61.439 122.115 61.439C121.237 61.439 120.407 61.2617 119.623 60.907C118.857 60.5337 118.176 60.0297 117.579 59.395C117 58.7417 116.533 58.0043 116.179 57.183C115.843 56.343 115.675 55.447 115.675 54.495C115.675 53.5803 115.843 52.7217 116.179 51.919C116.533 51.0977 117.009 50.3697 117.607 49.735C118.204 49.1003 118.885 48.6057 119.651 48.251C120.435 47.8777 121.256 47.691 122.115 47.691C122.88 47.691 123.524 47.7937 124.047 47.999C124.588 48.2043 125.045 48.4657 125.419 48.783C125.792 49.0817 126.1 49.399 126.343 49.735L126.175 48.923C126.175 48.5123 126.305 48.2043 126.567 47.999C126.828 47.775 127.239 47.663 127.799 47.663C128.321 47.663 128.695 47.747 128.919 47.915C129.143 48.0643 129.283 48.279 129.339 48.559C129.395 48.8203 129.423 49.119 129.423 49.455V59.703C129.423 60.0203 129.395 60.3097 129.339 60.571C129.283 60.8323 129.133 61.0377 128.891 61.187C128.667 61.3363 128.293 61.411 127.771 61.411ZM122.619 58.163C123.253 58.163 123.823 58.0043 124.327 57.687C124.831 57.3697 125.232 56.9403 125.531 56.399C125.848 55.839 126.007 55.223 126.007 54.551C126.007 53.823 125.848 53.1883 125.531 52.647C125.213 52.1057 124.793 51.6857 124.271 51.387C123.767 51.0697 123.197 50.911 122.563 50.911C121.872 50.911 121.256 51.079 120.715 51.415C120.173 51.7323 119.744 52.171 119.427 52.731C119.128 53.2723 118.979 53.8883 118.979 54.579C118.979 55.251 119.137 55.8577 119.455 56.399C119.772 56.9403 120.201 57.3697 120.743 57.687C121.303 58.0043 121.928 58.163 122.619 58.163ZM133.884 61.439C133.38 61.439 133.007 61.355 132.764 61.187C132.54 61.0377 132.4 60.8417 132.344 60.599C132.288 60.3377 132.26 60.0483 132.26 59.731V49.259C132.26 48.9603 132.288 48.6897 132.344 48.447C132.4 48.2043 132.549 48.0177 132.792 47.887C133.035 47.7377 133.408 47.663 133.912 47.663C134.36 47.663 134.696 47.719 134.92 47.831C135.144 47.943 135.293 48.083 135.368 48.251C135.443 48.419 135.48 48.587 135.48 48.755C135.499 48.923 135.517 49.0537 135.536 49.147L135.424 50.043C135.536 49.7443 135.723 49.455 135.984 49.175C136.245 48.895 136.563 48.643 136.936 48.419C137.309 48.1763 137.711 47.9897 138.14 47.859C138.588 47.7097 139.045 47.635 139.512 47.635C140.389 47.635 141.173 47.7937 141.864 48.111C142.555 48.4283 143.143 48.8763 143.628 49.455C144.132 50.0337 144.515 50.7243 144.776 51.527C145.037 52.311 145.168 53.1977 145.168 54.187V59.759C145.168 60.0763 145.131 60.3657 145.056 60.627C145 60.8697 144.86 61.0657 144.636 61.215C144.412 61.3643 144.029 61.439 143.488 61.439C142.965 61.439 142.583 61.355 142.34 61.187C142.097 61.0377 141.948 60.8417 141.892 60.599C141.836 60.3377 141.808 60.0483 141.808 59.731V54.159C141.808 53.487 141.687 52.9083 141.444 52.423C141.22 51.9377 140.884 51.5643 140.436 51.303C140.007 51.0417 139.456 50.911 138.784 50.911C138.131 50.911 137.561 51.051 137.076 51.331C136.591 51.5923 136.217 51.9657 135.956 52.451C135.695 52.9363 135.564 53.5057 135.564 54.159V59.759C135.564 60.0763 135.536 60.3657 135.48 60.627C135.424 60.8697 135.275 61.0657 135.032 61.215C134.808 61.3643 134.425 61.439 133.884 61.439ZM162.041 61.439C161.127 61.439 160.305 61.2617 159.577 60.907C158.868 60.5337 158.261 60.0297 157.757 59.395C157.272 58.7603 156.899 58.0323 156.637 57.211C156.395 56.371 156.273 55.475 156.273 54.523C156.292 53.571 156.432 52.6843 156.693 51.863C156.955 51.023 157.328 50.295 157.813 49.679C158.317 49.0443 158.924 48.5497 159.633 48.195C160.343 47.8403 161.145 47.663 162.041 47.663C162.9 47.663 163.703 47.8403 164.449 48.195C165.215 48.5497 165.887 49.0443 166.465 49.679C167.063 50.295 167.529 51.023 167.865 51.863C168.201 52.6843 168.369 53.5617 168.369 54.495C168.369 55.4657 168.201 56.3803 167.865 57.239C167.529 58.079 167.072 58.8163 166.493 59.451C165.915 60.067 165.243 60.5523 164.477 60.907C163.712 61.2617 162.9 61.439 162.041 61.439ZM161.593 58.163C162.247 58.163 162.835 58.0137 163.357 57.715C163.88 57.3977 164.291 56.9683 164.589 56.427C164.907 55.8857 165.065 55.2697 165.065 54.579C165.065 53.8697 164.907 53.2443 164.589 52.703C164.291 52.143 163.88 51.7137 163.357 51.415C162.835 51.0977 162.247 50.939 161.593 50.939C160.959 50.939 160.38 51.0977 159.857 51.415C159.335 51.7323 158.915 52.1617 158.597 52.703C158.299 53.2443 158.149 53.8697 158.149 54.579C158.149 55.2697 158.299 55.8857 158.597 56.427C158.915 56.9683 159.335 57.3977 159.857 57.715C160.38 58.0137 160.959 58.163 161.593 58.163ZM156.413 61.467C155.909 61.467 155.536 61.383 155.293 61.215C155.051 61.0657 154.901 60.8697 154.845 60.627C154.789 60.3657 154.761 60.0763 154.761 59.759V43.071C154.761 42.7537 154.789 42.4737 154.845 42.231C154.901 41.9697 155.051 41.7643 155.293 41.615C155.536 41.4657 155.909 41.391 156.413 41.391C156.936 41.391 157.309 41.4657 157.533 41.615C157.757 41.7643 157.897 41.9697 157.953 42.231C158.009 42.4923 158.037 42.7723 158.037 43.071V60.319C157.963 60.7297 157.804 61.019 157.561 61.187C157.337 61.3737 156.955 61.467 156.413 61.467ZM176.608 61.439C175.749 61.439 174.956 61.2897 174.228 60.991C173.519 60.6737 172.893 60.2257 172.352 59.647C171.811 59.0683 171.391 58.3777 171.092 57.575C170.793 56.7723 170.644 55.8857 170.644 54.915V49.343C170.644 49.0257 170.672 48.7457 170.728 48.503C170.784 48.2417 170.933 48.0363 171.176 47.887C171.419 47.7377 171.792 47.663 172.296 47.663C172.837 47.663 173.22 47.7377 173.444 47.887C173.687 48.0363 173.836 48.2417 173.892 48.503C173.948 48.7643 173.976 49.0537 173.976 49.371V54.915C173.976 55.587 174.088 56.1657 174.312 56.651C174.555 57.1363 174.9 57.519 175.348 57.799C175.796 58.0603 176.347 58.191 177 58.191C177.672 58.191 178.241 58.0603 178.708 57.799C179.193 57.519 179.567 57.1363 179.828 56.651C180.089 56.147 180.22 55.5683 180.22 54.915V49.315C180.22 48.9977 180.248 48.7177 180.304 48.475C180.36 48.2137 180.509 48.0177 180.752 47.887C180.995 47.7377 181.377 47.663 181.9 47.663C182.423 47.663 182.796 47.7377 183.02 47.887C183.244 48.0363 183.384 48.2417 183.44 48.503C183.515 48.7643 183.552 49.0443 183.552 49.343V59.843C183.552 60.123 183.515 60.3843 183.44 60.627C183.384 60.8697 183.235 61.0657 182.992 61.215C182.768 61.3643 182.395 61.439 181.872 61.439C181.499 61.439 181.2 61.3923 180.976 61.299C180.771 61.2243 180.612 61.1217 180.5 60.991C180.407 60.8417 180.341 60.6923 180.304 60.543C180.285 60.3937 180.276 60.2443 180.276 60.095L180.5 59.339C180.388 59.507 180.22 59.7123 179.996 59.955C179.772 60.179 179.492 60.4123 179.156 60.655C178.839 60.879 178.465 61.0657 178.036 61.215C177.607 61.3643 177.131 61.439 176.608 61.439ZM197.742 61.439C197.089 61.439 196.501 61.3737 195.978 61.243C195.474 61.1123 195.026 60.9163 194.634 60.655C194.242 60.375 193.915 60.039 193.654 59.647C193.393 59.255 193.197 58.7977 193.066 58.275C192.935 57.7337 192.87 57.1363 192.87 56.483V42.987C192.87 42.6697 192.898 42.3897 192.954 42.147C193.01 41.8857 193.159 41.6803 193.402 41.531C193.645 41.3817 194.027 41.307 194.55 41.307C195.054 41.307 195.427 41.3817 195.67 41.531C195.913 41.6803 196.062 41.8857 196.118 42.147C196.193 42.3897 196.23 42.6603 196.23 42.959V56.567C196.23 56.8283 196.258 57.0523 196.314 57.239C196.37 57.4257 196.454 57.5843 196.566 57.715C196.697 57.8457 196.855 57.939 197.042 57.995C197.247 58.051 197.481 58.079 197.742 58.079C198.171 58.079 198.507 58.135 198.75 58.247C198.993 58.359 199.17 58.5363 199.282 58.779C199.394 59.0217 199.45 59.3483 199.45 59.759C199.45 60.151 199.385 60.4777 199.254 60.739C199.142 60.9817 198.955 61.159 198.694 61.271C198.451 61.383 198.134 61.439 197.742 61.439ZM190.658 61.439C190.042 61.439 189.491 61.3737 189.006 61.243C188.521 61.131 188.101 60.9443 187.746 60.683C187.391 60.4217 187.093 60.095 186.85 59.703C186.626 59.311 186.458 58.8537 186.346 58.331C186.234 57.7897 186.178 57.1737 186.178 56.483V42.987C186.178 42.6697 186.206 42.3897 186.262 42.147C186.318 41.8857 186.467 41.6803 186.71 41.531C186.953 41.3817 187.326 41.307 187.83 41.307C188.353 41.307 188.726 41.3817 188.95 41.531C189.193 41.6803 189.342 41.8857 189.398 42.147C189.473 42.3897 189.51 42.6603 189.51 42.959V56.567C189.51 56.9217 189.557 57.211 189.65 57.435C189.762 57.659 189.902 57.827 190.07 57.939C190.238 58.0323 190.434 58.079 190.658 58.079C191.013 58.079 191.293 58.135 191.498 58.247C191.703 58.359 191.843 58.5363 191.918 58.779C192.011 59.0217 192.058 59.3483 192.058 59.759C192.058 60.151 192.011 60.4777 191.918 60.739C191.825 60.9817 191.675 61.159 191.47 61.271C191.265 61.383 190.994 61.439 190.658 61.439ZM205.075 66.983C204.478 66.7217 204.132 66.423 204.039 66.087C203.946 65.7697 204.03 65.3403 204.291 64.799L211.515 48.615C211.776 48.0177 212.056 47.663 212.355 47.551C212.654 47.4203 213.111 47.4857 213.727 47.747C214.306 48.0083 214.642 48.2977 214.735 48.615C214.847 48.9323 214.782 49.3617 214.539 49.903L207.259 66.171C207.016 66.7683 206.746 67.1137 206.447 67.207C206.148 67.319 205.691 67.2443 205.075 66.983ZM207.679 60.123L201.211 50.183C200.875 49.679 200.735 49.259 200.791 48.923C200.866 48.587 201.164 48.2603 201.687 47.943C202.266 47.5883 202.714 47.4483 203.031 47.523C203.367 47.5977 203.703 47.8963 204.039 48.419L209.163 56.399L207.679 60.123ZM218.598 61.467C218.094 61.467 217.721 61.383 217.478 61.215C217.236 61.0657 217.086 60.8697 217.03 60.627C216.974 60.3657 216.946 60.0763 216.946 59.759V49.343C216.946 49.0443 216.974 48.7737 217.03 48.531C217.105 48.2697 217.254 48.0643 217.478 47.915C217.721 47.7657 218.104 47.691 218.626 47.691C219.149 47.691 219.522 47.7657 219.746 47.915C219.989 48.0643 220.138 48.2697 220.194 48.531C220.25 48.7923 220.278 49.0817 220.278 49.399V59.787C220.278 60.1043 220.25 60.3937 220.194 60.655C220.138 60.8977 219.989 61.0937 219.746 61.243C219.522 61.3923 219.14 61.467 218.598 61.467ZM218.598 44.975C218.057 44.975 217.656 44.9003 217.394 44.751C217.152 44.583 216.993 44.359 216.918 44.079C216.862 43.799 216.834 43.491 216.834 43.155C216.834 42.8003 216.862 42.4923 216.918 42.231C216.993 41.9697 217.161 41.7643 217.422 41.615C217.684 41.447 218.085 41.363 218.626 41.363C219.186 41.363 219.588 41.447 219.83 41.615C220.073 41.783 220.232 42.007 220.306 42.287C220.381 42.5483 220.418 42.8563 220.418 43.211C220.418 43.5283 220.381 43.827 220.306 44.107C220.232 44.387 220.073 44.6017 219.83 44.751C219.588 44.9003 219.177 44.975 218.598 44.975ZM224.993 61.439C224.489 61.439 224.116 61.355 223.873 61.187C223.649 61.0377 223.509 60.8417 223.453 60.599C223.397 60.3377 223.369 60.0483 223.369 59.731V49.259C223.369 48.9603 223.397 48.6897 223.453 48.447C223.509 48.2043 223.659 48.0177 223.901 47.887C224.144 47.7377 224.517 47.663 225.021 47.663C225.469 47.663 225.805 47.719 226.029 47.831C226.253 47.943 226.403 48.083 226.477 48.251C226.552 48.419 226.589 48.587 226.589 48.755C226.608 48.923 226.627 49.0537 226.645 49.147L226.533 50.043C226.645 49.7443 226.832 49.455 227.093 49.175C227.355 48.895 227.672 48.643 228.045 48.419C228.419 48.1763 228.82 47.9897 229.249 47.859C229.697 47.7097 230.155 47.635 230.621 47.635C231.499 47.635 232.283 47.7937 232.973 48.111C233.664 48.4283 234.252 48.8763 234.737 49.455C235.241 50.0337 235.624 50.7243 235.885 51.527C236.147 52.311 236.277 53.1977 236.277 54.187V59.759C236.277 60.0763 236.24 60.3657 236.165 60.627C236.109 60.8697 235.969 61.0657 235.745 61.215C235.521 61.3643 235.139 61.439 234.597 61.439C234.075 61.439 233.692 61.355 233.449 61.187C233.207 61.0377 233.057 60.8417 233.001 60.599C232.945 60.3377 232.917 60.0483 232.917 59.731V54.159C232.917 53.487 232.796 52.9083 232.553 52.423C232.329 51.9377 231.993 51.5643 231.545 51.303C231.116 51.0417 230.565 50.911 229.893 50.911C229.24 50.911 228.671 51.051 228.185 51.331C227.7 51.5923 227.327 51.9657 227.065 52.451C226.804 52.9363 226.673 53.5057 226.673 54.159V59.759C226.673 60.0763 226.645 60.3657 226.589 60.627C226.533 60.8697 226.384 61.0657 226.141 61.215C225.917 61.3643 225.535 61.439 224.993 61.439ZM245.029 67.067C244.357 67.067 243.713 66.983 243.097 66.815C242.481 66.6657 241.921 66.4603 241.417 66.199C240.932 65.9377 240.54 65.6577 240.241 65.359C239.961 65.0603 239.821 64.7803 239.821 64.519C239.821 64.2577 239.859 64.0337 239.933 63.847C240.027 63.6603 240.157 63.4737 240.325 63.287C240.549 63.063 240.727 62.895 240.857 62.783C241.007 62.671 241.203 62.615 241.445 62.615C241.651 62.615 241.847 62.6897 242.033 62.839C242.239 62.9883 242.472 63.1563 242.733 63.343C242.995 63.5297 243.312 63.6977 243.685 63.847C244.059 63.9963 244.535 64.071 245.113 64.071C245.599 64.071 246.047 63.987 246.457 63.819C246.868 63.651 247.213 63.399 247.493 63.063C247.792 62.7457 248.025 62.363 248.193 61.915C248.361 61.467 248.445 60.963 248.445 60.403L248.417 48.811C248.455 48.3817 248.604 48.083 248.865 47.915C249.127 47.7283 249.528 47.635 250.069 47.635C250.573 47.635 250.937 47.7097 251.161 47.859C251.385 47.9897 251.525 48.1857 251.581 48.447C251.637 48.6897 251.665 48.9603 251.665 49.259V60.599C251.665 61.6257 251.488 62.5403 251.133 63.343C250.779 64.1457 250.293 64.8177 249.677 65.359C249.061 65.919 248.352 66.339 247.549 66.619C246.765 66.9177 245.925 67.067 245.029 67.067ZM244.721 61.103C243.844 61.103 243.023 60.935 242.257 60.599C241.511 60.263 240.848 59.787 240.269 59.171C239.709 58.555 239.261 57.8457 238.925 57.043C238.608 56.2217 238.449 55.335 238.449 54.383C238.449 53.4497 238.608 52.5817 238.925 51.779C239.261 50.9763 239.709 50.267 240.269 49.651C240.848 49.035 241.511 48.559 242.257 48.223C243.023 47.8683 243.835 47.691 244.693 47.691C245.533 47.691 246.261 47.859 246.877 48.195C247.512 48.5123 248.035 48.9697 248.445 49.567C248.856 50.1643 249.164 50.8737 249.369 51.695C249.593 52.5163 249.705 53.4217 249.705 54.411C249.705 55.7737 249.519 56.959 249.145 57.967C248.772 58.975 248.221 59.7497 247.493 60.291C246.765 60.8323 245.841 61.103 244.721 61.103ZM245.029 57.939C245.664 57.939 246.224 57.7897 246.709 57.491C247.213 57.1737 247.605 56.7443 247.885 56.203C248.184 55.6617 248.333 55.055 248.333 54.383C248.333 53.6923 248.184 53.0857 247.885 52.563C247.605 52.0217 247.213 51.6017 246.709 51.303C246.205 51.0043 245.636 50.855 245.001 50.855C244.367 50.855 243.797 51.0137 243.293 51.331C242.808 51.6297 242.425 52.0403 242.145 52.563C241.865 53.0857 241.725 53.6923 241.725 54.383C241.725 55.0737 241.865 55.6897 242.145 56.231C242.444 56.7537 242.836 57.1737 243.321 57.491C243.825 57.7897 244.395 57.939 245.029 57.939Z" fill="black"/>
</svg>
