<svg width="400" height="120" viewBox="0 0 400 120" fill="none" xmlns="http://www.w3.org/2000/svg">
<mask id="mask0_62_2296" style="mask-type:luminance" maskUnits="userSpaceOnUse" x="0" y="0" width="400" height="120">
<path d="M400 0H0V120H400V0Z" fill="white"/>
</mask>
<g mask="url(#mask0_62_2296)">
<mask id="mask1_62_2296" style="mask-type:luminance" maskUnits="userSpaceOnUse" x="9" y="9" width="388" height="111">
<path d="M9.33838 9.33313H396.887V119.354H9.33838V9.33313Z" fill="white"/>
</mask>
<g mask="url(#mask1_62_2296)">
<path d="M15.7893 72.3852L12.3967 62.3592L17.7895 51.8748L13.0351 41.3956L9.77637 30.9113L12.1049 19.354L26.2586 18.2342L39.1781 15.5935L52.3408 21.4738L65.1144 13.7498L78.3379 21.7081L91.227 17.9633L104.365 22.9008L117.358 22.6769L130.405 24.3435L143.318 21.4217L155.618 17.1092L167.972 14.5623L180.326 12.0988L192.783 13.2133L205.32 17.1248L217.838 20.3435L230.253 20.0727L242.4 10.3071L255.065 18.6873L267.504 19.1717L279.742 12.479L292.084 9.53625L304.906 12.906L318.191 14.7654L328.447 23.3956L341.367 25.406L352.316 32.3383L368.294 26.7081L380.204 31.2238L396.346 37.1769L387.476 50.3383L387.16 62.0935L374.362 69.8592L369.875 80.281L373.796 93.3956L367.571 103.265L364.391 115.974L345.854 109.745L333.335 117.432L320.227 109.989L307.782 119.823L294.632 110.969L281.864 112.432L269.005 111.359L256.445 118.932L243.556 117.01L230.824 121.224L218.355 114.521L205.223 119.724L193.081 116.047L180.727 115.328L168.306 115.838L155.904 115.969L143.829 110.541L131.396 111.203L119.346 105.146L106.274 116.76L94.5648 104.833L81.5602 115.427L69.6377 107.245L57.5025 102.453L44.6438 110.724L27.2618 111.552L29.4687 98.1404L22.7931 90.229L11.0106 83.5779L15.7893 72.3852Z" fill="black"/>
<path d="M15.7893 72.3852L12.3967 62.3592L17.7895 51.8748L13.0351 41.3956L9.77637 30.9113L12.1049 19.354L26.2586 18.2342L39.1781 15.5935L52.3408 21.4738L65.1144 13.7498L78.3379 21.7081L91.227 17.9633L104.365 22.9008L117.358 22.6769L130.405 24.3435L143.318 21.4217L155.618 17.1092L167.972 14.5623L180.326 12.0988L192.783 13.2133L205.32 17.1248L217.838 20.3435L230.253 20.0727L242.4 10.3071L255.065 18.6873L267.504 19.1717L279.742 12.479L292.084 9.53625L304.906 12.906L318.191 14.7654L328.447 23.3956L341.367 25.406L352.316 32.3383L368.294 26.7081L380.204 31.2238L396.346 37.1769L387.476 50.3383L387.16 62.0935L374.362 69.8592L369.875 80.281L373.796 93.3956L367.571 103.265L364.391 115.974L345.854 109.745L333.335 117.432L320.227 109.989L307.782 119.823L294.632 110.969L281.864 112.432L269.005 111.359L256.445 118.932L243.556 117.01L230.824 121.224L218.355 114.521L205.223 119.724L193.081 116.047L180.727 115.328L168.306 115.838L155.904 115.969L143.829 110.541L131.396 111.203L119.346 105.146L106.274 116.76L94.5648 104.833L81.5602 115.427L69.6377 107.245L57.5025 102.453L44.6438 110.724L27.2618 111.552L29.4687 98.1404L22.7931 90.229L11.0106 83.5779L15.7893 72.3852Z" fill="black"/>
</g>
<mask id="mask2_62_2296" style="mask-type:luminance" maskUnits="userSpaceOnUse" x="7" y="7" width="391" height="113">
<path d="M7.78223 7.99976H397.586V119.354H7.78223V7.99976Z" fill="white"/>
</mask>
<g mask="url(#mask2_62_2296)">
<path d="M230.739 121.984L218.3 115.307L205.265 120.474L192.917 116.734L180.721 115.989L168.343 116.495L155.715 116.63L143.653 111.203L131.208 111.885L119.486 105.995L106.238 117.765L94.504 105.812L81.6088 116.328L69.2061 107.849L57.6059 103.26L44.9113 111.401L26.3133 112.286L28.6358 98.3488L22.1973 90.7238L10.0499 83.8488L14.9563 72.3644L11.5577 62.3123L16.9322 51.854L12.263 41.5727L8.95557 30.9425L11.424 18.729L26.1674 17.5571L39.2814 14.9008L52.2739 20.7029L65.1144 12.9165L78.4655 20.9529L91.2635 17.229L104.523 22.2133L117.406 21.9894L130.356 23.656L143.051 20.7758L155.423 16.4425L167.765 13.8956L180.259 11.4165L193.039 12.5727L205.569 16.4842L217.941 19.6508L229.931 19.3956L242.346 9.40605L255.356 18.0102L267.261 18.4685L279.384 11.8488L292.078 8.8175L305.077 12.2081L318.562 14.0935L328.83 22.729L341.683 24.7238L352.414 31.5102L368.282 25.9217L380.514 30.5519L397.483 36.8488L388.272 50.5258L387.962 62.4529L375.03 70.2967L370.714 80.3227L374.678 93.4842L368.331 103.505L364.95 116.906L345.951 110.515L333.335 118.26L320.294 110.854L307.825 120.739L294.413 111.703L281.882 113.146L269.188 112.078L256.627 119.651L243.635 117.719L230.739 121.984ZM218.416 113.75L230.916 120.463L243.47 116.307L256.256 118.213L268.793 110.656L281.852 111.755L294.857 110.255L307.74 118.932L320.148 109.13L333.317 116.594L345.744 108.969L363.801 115.031L366.817 103.015L372.951 93.2967L369.048 80.2342L373.681 69.4269L386.375 61.7133L386.685 50.1821L395.215 37.4946L379.894 31.8644L368.276 27.4581L352.201 33.1248L341.039 26.0467L328.064 24.0154L317.808 15.3956L304.651 13.5467L292.054 10.229L280.058 13.1092L267.704 19.8956L254.761 19.3956L242.437 11.2498L230.533 20.7915L217.68 21.0779L205.04 17.8279L192.601 13.8852L180.375 12.7915L168.185 15.229L155.867 17.7498L143.525 22.0779L130.454 25.0363L117.303 23.354L104.207 23.5883L91.227 18.6925L78.2163 22.4685L65.1144 14.5779L52.4198 22.2706L39.093 16.3123L26.3315 18.906L12.7858 19.9842L10.5849 30.88L13.7951 41.1821L18.6528 51.8904L13.2479 62.3904L16.6465 72.4113L11.9954 83.3071L23.3707 89.7238L30.3138 97.9686L28.198 110.823L44.3763 110.057L57.4235 101.666L70.118 106.708L81.5115 114.521L94.6195 103.844L106.299 115.745L119.194 104.286L131.572 110.515L143.987 109.833L156.08 115.26L168.282 115.135L180.721 114.62L193.227 115.349L205.125 118.958L218.416 113.75Z" fill="black"/>
</g>
<mask id="mask3_62_2296" style="mask-type:luminance" maskUnits="userSpaceOnUse" x="3" y="1" width="388" height="113">
<path d="M3.11279 1.08313H390.661V113.333H3.11279V1.08313Z" fill="white"/>
</mask>
<g mask="url(#mask3_62_2296)">
<path d="M9.78237 63.3953L6.39594 53.3641L11.7826 42.8797L7.02824 32.4005L3.75732 21.9161L6.09804 10.3641L20.2457 9.23906L33.1712 6.60364L46.3339 12.4786L59.1075 4.75468L72.3249 12.7182L85.2201 8.96301L98.3585 13.9109L111.345 13.6818L124.398 15.3588L137.312 12.4318L149.611 8.10885L161.965 5.56718L174.319 3.10885L186.777 4.22343L199.313 8.12968L211.825 11.3484L224.246 11.0776L236.387 1.31197L249.058 9.69739L261.497 10.1818L273.735 3.48906L286.077 0.541138L298.9 3.91614L312.184 5.7703L322.44 14.4057L335.36 16.4161L346.31 23.3432L362.281 17.713L374.197 22.2286L390.339 28.1766L381.469 41.3484L381.153 53.1036L368.355 60.8641L363.868 71.2911L367.796 84.4005L361.564 94.2703L358.378 106.979L339.847 100.755L327.329 108.442L314.221 100.999L301.775 110.833L288.619 101.973L275.851 103.442L262.999 102.364L250.432 109.937L237.549 108.026L224.818 112.234L212.348 105.526L199.216 110.729L187.068 107.062L174.726 106.333L162.299 106.848L149.897 106.979L137.822 101.546L125.389 102.208L113.339 96.1557L100.268 107.765L88.5579 95.8432L75.5533 106.427L63.6248 98.2443L51.5017 93.4578L38.6369 101.734L21.2488 102.557L23.4618 89.1505L16.7863 81.2338L5.00368 74.5828L9.78237 63.3953Z" fill="white"/>
</g>
<mask id="mask4_62_2296" style="mask-type:luminance" maskUnits="userSpaceOnUse" x="0" y="1" width="396" height="115">
<path d="M0.674805 1.08325H395.331V116H0.674805V1.08325Z" fill="white"/>
</mask>
<g mask="url(#mask4_62_2296)">
<path d="M224.52 115.01L212.147 108.365L199.386 113.422L186.491 109.521L174.708 108.844L162.348 109.349L149.21 109.49L137.202 104.062L124.69 104.74L113.862 99.3124L100.146 111.526L88.3391 99.5103L75.7236 109.745L62.0745 100.385L51.8544 96.3541L39.6524 104.182L17.8321 105.213L20.3734 89.7916L14.701 83.0624L1.44101 75.5989L6.68177 63.328L3.30142 53.1874L8.62122 42.828L4.20123 33.0416L0.77832 22.0312L3.61149 8.05721L19.7715 6.76034L33.5543 3.95825L46.103 9.56242L59.1015 1.69784L72.7932 9.94263L85.354 6.29159L98.9422 11.401L111.54 11.1822L124.234 12.8124L136.381 10.0572L148.705 5.72909L161.284 3.14575L174.131 0.578045L187.433 1.77596L200.231 5.76555L212.22 8.84367L223.061 8.60409L236.205 -1.96362L250.116 7.23429L260.707 7.65096L272.526 1.18221L286.12 -2.05737L299.568 1.48429L313.564 3.43742L323.875 12.0885L336.57 14.0624L346.705 20.4999L362.312 14.9947L375.365 19.9478L394.492 26.9999L384.369 42.0416L384.041 54.4114L370.787 62.453L366.92 71.4218L370.89 84.7239L364.318 95.1458L360.494 110.38L340.248 103.594L327.377 111.495L314.5 104.182L301.909 114.13L287.768 104.63L275.87 105.99L263.753 104.979L251.058 112.609L237.768 110.635L224.52 115.01ZM212.561 102.693L225.128 109.474L237.214 105.448L249.708 107.302L262.172 99.7916L275.772 100.932L289.427 99.3593L301.593 107.557L313.886 97.8333L327.231 105.411L339.403 97.9478L356.226 103.588L358.779 93.4114L364.683 84.1041L360.816 71.2135L365.929 59.3333L378.277 51.8697L378.569 40.6822L386.175 29.3958L373.036 24.5572L362.239 20.4843L345.908 26.1822L334.168 18.7603L321.036 16.7291L310.792 8.11971L298.237 6.35409L286.041 3.14575L274.933 5.79159L262.293 12.703L248.012 12.1562L236.576 4.58846L225.432 13.5468L211.436 13.8489L198.31 10.4583L186.108 6.65096L174.532 5.63534L162.634 8.00513L150.517 10.4947L138.242 14.802L124.55 17.901L111.156 16.1822L97.7628 16.4166L85.0682 11.6666L71.869 15.4843L59.1076 7.80721L46.565 15.3958L32.7822 9.24471L20.72 11.7083L8.59082 12.6718L6.74257 21.8072L9.80677 31.6249L14.9381 42.9426L9.50279 53.5728L12.8649 63.5208L8.5361 73.5885L18.8474 79.4062L26.5201 88.5051L24.6414 99.8958L37.5974 99.2864L51.1492 90.5676L65.1752 96.1093L75.3588 103.099L88.7951 92.2447L100.42 104.068L112.828 93.0364L126.137 99.7083L138.497 99.026L150.602 104.453L162.214 104.333L174.757 103.818L187.67 104.568L199.064 108.016L212.561 102.693Z" fill="black"/>
<path d="M224.52 115.01L212.147 108.365L199.386 113.422L186.491 109.521L174.708 108.844L162.348 109.349L149.21 109.49L137.202 104.062L124.69 104.74L113.862 99.3124L100.146 111.526L88.3391 99.5103L75.7236 109.745L62.0745 100.385L51.8544 96.3541L39.6524 104.182L17.8321 105.213L20.3734 89.7916L14.701 83.0624L1.44101 75.5989L6.68177 63.328L3.30142 53.1874L8.62122 42.828L4.20123 33.0416L0.77832 22.0312L3.61149 8.05721L19.7715 6.76034L33.5543 3.95825L46.103 9.56242L59.1015 1.69784L72.7932 9.94263L85.354 6.29159L98.9422 11.401L111.54 11.1822L124.234 12.8124L136.381 10.0572L148.705 5.72909L161.284 3.14575L174.131 0.578045L187.433 1.77596L200.231 5.76555L212.22 8.84367L223.061 8.60409L236.205 -1.96362L250.116 7.23429L260.707 7.65096L272.526 1.18221L286.12 -2.05737L299.568 1.48429L313.564 3.43742L323.875 12.0885L336.57 14.0624L346.705 20.4999L362.312 14.9947L375.365 19.9478L394.492 26.9999L384.369 42.0416L384.041 54.4114L370.787 62.453L366.92 71.4218L370.89 84.7239L364.318 95.1458L360.494 110.38L340.248 103.594L327.377 111.495L314.5 104.182L301.909 114.13L287.768 104.63L275.87 105.99L263.753 104.979L251.058 112.609L237.768 110.635L224.52 115.01ZM212.561 102.693L225.128 109.474L237.214 105.448L249.708 107.302L262.172 99.7916L275.772 100.932L289.427 99.3593L301.593 107.557L313.886 97.8333L327.231 105.411L339.403 97.9478L356.226 103.588L358.779 93.4114L364.683 84.1041L360.816 71.2135L365.929 59.3333L378.277 51.8697L378.569 40.6822L386.175 29.3958L373.036 24.5572L362.239 20.4843L345.908 26.1822L334.168 18.7603L321.036 16.7291L310.792 8.11971L298.237 6.35409L286.041 3.14575L274.933 5.79159L262.293 12.703L248.012 12.1562L236.576 4.58846L225.432 13.5468L211.436 13.8489L198.31 10.4583L186.108 6.65096L174.532 5.63534L162.634 8.00513L150.517 10.4947L138.242 14.802L124.55 17.901L111.156 16.1822L97.7628 16.4166L85.0682 11.6666L71.869 15.4843L59.1076 7.80721L46.565 15.3958L32.7822 9.24471L20.72 11.7083L8.59082 12.6718L6.74257 21.8072L9.80677 31.6249L14.9381 42.9426L9.50279 53.5728L12.8649 63.5208L8.5361 73.5885L18.8474 79.4062L26.5201 88.5051L24.6414 99.8958L37.5974 99.2864L51.1492 90.5676L65.1752 96.1093L75.3588 103.099L88.7951 92.2447L100.42 104.068L112.828 93.0364L126.137 99.7083L138.497 99.026L150.602 104.453L162.214 104.333L174.757 103.818L187.67 104.568L199.064 108.016L212.561 102.693Z" fill="black"/>
</g>
</g>
<path d="M52.8769 53.4836C52.4289 53.4836 52.1009 53.4196 51.8929 53.2916C51.6849 53.1636 51.5569 52.9876 51.5089 52.7636C51.4609 52.5236 51.4369 52.2756 51.4369 52.0196V38.1716C51.4369 37.9156 51.4609 37.6836 51.5089 37.4756C51.5729 37.2516 51.7089 37.0756 51.9169 36.9476C52.1249 36.8036 52.4529 36.7316 52.9009 36.7316H57.9889C58.6929 36.7316 59.3809 36.8516 60.0529 37.0916C60.7249 37.3316 61.3249 37.6916 61.8529 38.1716C62.3969 38.6516 62.8209 39.2436 63.1249 39.9476C63.4449 40.6516 63.6049 41.4756 63.6049 42.4196C63.6049 43.3476 63.4449 44.1636 63.1249 44.8676C62.8209 45.5556 62.3969 46.1396 61.8529 46.6196C61.3089 47.0996 60.7009 47.4596 60.0289 47.6996C59.3729 47.9396 58.6849 48.0596 57.9649 48.0596H54.3409V52.0436C54.3409 52.2996 54.3089 52.5396 54.2449 52.7636C54.1969 52.9876 54.0689 53.1636 53.8609 53.2916C53.6689 53.4196 53.3409 53.4836 52.8769 53.4836ZM54.3409 45.1316H57.9889C58.4849 45.1316 58.9329 45.0356 59.3329 44.8436C59.7489 44.6356 60.0849 44.3316 60.3409 43.9316C60.5969 43.5156 60.7249 42.9956 60.7249 42.3716C60.7249 41.8116 60.6049 41.3316 60.3649 40.9316C60.1409 40.5156 59.8209 40.1956 59.4049 39.9716C59.0049 39.7476 58.5249 39.6356 57.9649 39.6356H54.3409V45.1316ZM71.3721 53.6516C70.3321 53.6516 69.4201 53.4836 68.6361 53.1476C67.8681 52.8116 67.2201 52.3556 66.6921 51.7796C66.1801 51.1876 65.7881 50.5316 65.5161 49.8116C65.2601 49.0756 65.1321 48.3156 65.1321 47.5316C65.1321 46.3796 65.3961 45.3556 65.9241 44.4596C66.4521 43.5636 67.1801 42.8596 68.1081 42.3476C69.0521 41.8356 70.1321 41.5796 71.3481 41.5796C72.2121 41.5796 72.9721 41.7156 73.6281 41.9876C74.2841 42.2596 74.8281 42.6196 75.2601 43.0676C75.7081 43.4996 76.0441 43.9796 76.2681 44.5076C76.5081 45.0356 76.6281 45.5476 76.6281 46.0436C76.6281 46.8916 76.4201 47.5076 76.0041 47.8916C75.6041 48.2756 75.1001 48.4676 74.4921 48.4676H68.1561C68.1721 49.0116 68.3401 49.4836 68.6601 49.8836C68.9961 50.2836 69.4121 50.5956 69.9081 50.8196C70.4201 51.0276 70.9401 51.1316 71.4681 51.1316C71.8681 51.1316 72.2201 51.1076 72.5241 51.0596C72.8441 51.0116 73.1161 50.9556 73.3401 50.8916C73.5641 50.8116 73.7561 50.7316 73.9161 50.6516C74.0921 50.5716 74.2521 50.4996 74.3961 50.4356C74.5401 50.3716 74.6761 50.3316 74.8041 50.3156C74.9801 50.2996 75.1561 50.3396 75.3321 50.4356C75.5081 50.5316 75.6521 50.6996 75.7641 50.9396C75.8601 51.0996 75.9241 51.2516 75.9561 51.3956C76.0041 51.5236 76.0281 51.6516 76.0281 51.7796C76.0281 52.0996 75.8361 52.4036 75.4521 52.6916C75.0681 52.9636 74.5241 53.1876 73.8201 53.3636C73.1321 53.5556 72.3161 53.6516 71.3721 53.6516ZM68.1561 46.7636H73.0761C73.3481 46.7636 73.5561 46.7236 73.7001 46.6436C73.8441 46.5476 73.9161 46.3556 73.9161 46.0676C73.9161 45.6996 73.8041 45.3716 73.5801 45.0836C73.3561 44.7796 73.0521 44.5476 72.6681 44.3876C72.2841 44.2116 71.8361 44.1236 71.3241 44.1236C70.7321 44.1236 70.1961 44.2436 69.7161 44.4836C69.2361 44.7076 68.8521 45.0196 68.5641 45.4196C68.2921 45.8196 68.1561 46.2676 68.1561 46.7636ZM80.0136 53.4836C79.5816 53.4836 79.2616 53.4116 79.0536 53.2676C78.8616 53.1396 78.7416 52.9716 78.6936 52.7636C78.6456 52.5396 78.6216 52.2916 78.6216 52.0196V43.0436C78.6216 42.7876 78.6456 42.5556 78.6936 42.3476C78.7416 42.1396 78.8696 41.9796 79.0776 41.8676C79.2856 41.7396 79.6056 41.6756 80.0376 41.6756C80.4216 41.6756 80.7096 41.7236 80.9016 41.8196C81.0936 41.9156 81.2216 42.0356 81.2856 42.1796C81.3496 42.3236 81.3816 42.4676 81.3816 42.6116C81.3976 42.7556 81.4136 42.8676 81.4296 42.9476L81.3336 43.7156C81.4296 43.4596 81.5896 43.2116 81.8136 42.9716C82.0376 42.7316 82.3096 42.5156 82.6296 42.3236C82.9496 42.1156 83.2936 41.9556 83.6616 41.8436C84.0456 41.7156 84.4376 41.6516 84.8376 41.6516C85.5896 41.6516 86.2616 41.7876 86.8536 42.0596C87.4456 42.3316 87.9496 42.7156 88.3656 43.2116C88.7976 43.7076 89.1256 44.2996 89.3496 44.9876C89.5736 45.6596 89.6856 46.4196 89.6856 47.2676V52.0436C89.6856 52.3156 89.6536 52.5636 89.5896 52.7876C89.5416 52.9956 89.4216 53.1636 89.2296 53.2916C89.0376 53.4196 88.7096 53.4836 88.2456 53.4836C87.7976 53.4836 87.4696 53.4116 87.2616 53.2676C87.0536 53.1396 86.9256 52.9716 86.8776 52.7636C86.8296 52.5396 86.8056 52.2916 86.8056 52.0196V47.2436C86.8056 46.6676 86.7016 46.1716 86.4936 45.7556C86.3016 45.3396 86.0136 45.0196 85.6296 44.7956C85.2616 44.5716 84.7896 44.4596 84.2136 44.4596C83.6536 44.4596 83.1656 44.5796 82.7496 44.8196C82.3336 45.0436 82.0136 45.3636 81.7896 45.7796C81.5656 46.1956 81.4536 46.6836 81.4536 47.2436V52.0436C81.4536 52.3156 81.4296 52.5636 81.3816 52.7876C81.3336 52.9956 81.2056 53.1636 80.9976 53.2916C80.8056 53.4196 80.4776 53.4836 80.0136 53.4836ZM94.2767 58.2356C93.7647 58.0116 93.4687 57.7556 93.3887 57.4676C93.3087 57.1956 93.3807 56.8276 93.6047 56.3636L99.7967 42.4916C100.021 41.9796 100.261 41.6756 100.517 41.5796C100.773 41.4676 101.165 41.5236 101.693 41.7476C102.189 41.9716 102.477 42.2196 102.557 42.4916C102.653 42.7636 102.597 43.1316 102.389 43.5956L96.1487 57.5396C95.9407 58.0516 95.7087 58.3476 95.4527 58.4276C95.1967 58.5236 94.8047 58.4596 94.2767 58.2356ZM96.5087 52.3556L90.9647 43.8356C90.6767 43.4036 90.5567 43.0436 90.6047 42.7556C90.6687 42.4676 90.9247 42.1876 91.3727 41.9156C91.8687 41.6116 92.2527 41.4916 92.5247 41.5556C92.8127 41.6196 93.1007 41.8756 93.3887 42.3236L97.7807 49.1636L96.5087 52.3556ZM110.044 53.6516C109.004 53.6516 108.092 53.4836 107.308 53.1476C106.54 52.8116 105.892 52.3556 105.364 51.7796C104.852 51.1876 104.46 50.5316 104.188 49.8116C103.932 49.0756 103.804 48.3156 103.804 47.5316C103.804 46.3796 104.068 45.3556 104.596 44.4596C105.124 43.5636 105.852 42.8596 106.78 42.3476C107.724 41.8356 108.804 41.5796 110.02 41.5796C110.884 41.5796 111.644 41.7156 112.3 41.9876C112.956 42.2596 113.5 42.6196 113.932 43.0676C114.38 43.4996 114.716 43.9796 114.94 44.5076C115.18 45.0356 115.3 45.5476 115.3 46.0436C115.3 46.8916 115.092 47.5076 114.676 47.8916C114.276 48.2756 113.772 48.4676 113.164 48.4676H106.828C106.844 49.0116 107.012 49.4836 107.332 49.8836C107.668 50.2836 108.084 50.5956 108.58 50.8196C109.092 51.0276 109.612 51.1316 110.14 51.1316C110.54 51.1316 110.892 51.1076 111.196 51.0596C111.516 51.0116 111.788 50.9556 112.012 50.8916C112.236 50.8116 112.428 50.7316 112.588 50.6516C112.764 50.5716 112.924 50.4996 113.068 50.4356C113.212 50.3716 113.348 50.3316 113.476 50.3156C113.652 50.2996 113.828 50.3396 114.004 50.4356C114.18 50.5316 114.324 50.6996 114.436 50.9396C114.532 51.0996 114.596 51.2516 114.628 51.3956C114.676 51.5236 114.7 51.6516 114.7 51.7796C114.7 52.0996 114.508 52.4036 114.124 52.6916C113.74 52.9636 113.196 53.1876 112.492 53.3636C111.804 53.5556 110.988 53.6516 110.044 53.6516ZM106.828 46.7636H111.748C112.02 46.7636 112.228 46.7236 112.372 46.6436C112.516 46.5476 112.588 46.3556 112.588 46.0676C112.588 45.6996 112.476 45.3716 112.252 45.0836C112.028 44.7796 111.724 44.5476 111.34 44.3876C110.956 44.2116 110.508 44.1236 109.996 44.1236C109.404 44.1236 108.868 44.2436 108.388 44.4836C107.908 44.7076 107.524 45.0196 107.236 45.4196C106.964 45.8196 106.828 46.2676 106.828 46.7636ZM123.437 53.4836C122.653 53.4836 121.949 53.3316 121.325 53.0276C120.717 52.7076 120.197 52.2756 119.765 51.7316C119.349 51.1876 119.029 50.5636 118.805 49.8596C118.597 49.1396 118.493 48.3716 118.493 47.5556C118.509 46.7396 118.629 45.9796 118.853 45.2756C119.077 44.5556 119.397 43.9316 119.813 43.4036C120.245 42.8596 120.765 42.4356 121.373 42.1316C121.981 41.8276 122.669 41.6756 123.437 41.6756C124.173 41.6756 124.861 41.8276 125.501 42.1316C126.157 42.4356 126.733 42.8596 127.229 43.4036C127.741 43.9316 128.141 44.5556 128.429 45.2756C128.717 45.9796 128.861 46.7316 128.861 47.5316C128.861 48.3636 128.717 49.1476 128.429 49.8836C128.141 50.6036 127.749 51.2356 127.253 51.7796C126.757 52.3076 126.181 52.7236 125.525 53.0276C124.869 53.3316 124.173 53.4836 123.437 53.4836ZM123.053 50.6756C123.613 50.6756 124.117 50.5476 124.565 50.2916C125.013 50.0196 125.365 49.6516 125.621 49.1876C125.893 48.7236 126.029 48.1956 126.029 47.6036C126.029 46.9956 125.893 46.4596 125.621 45.9956C125.365 45.5156 125.013 45.1476 124.565 44.8916C124.117 44.6196 123.613 44.4836 123.053 44.4836C122.509 44.4836 122.013 44.6196 121.565 44.8916C121.117 45.1636 120.757 45.5316 120.485 45.9956C120.229 46.4596 120.101 46.9956 120.101 47.6036C120.101 48.1956 120.229 48.7236 120.485 49.1876C120.757 49.6516 121.117 50.0196 121.565 50.2916C122.013 50.5476 122.509 50.6756 123.053 50.6756ZM118.613 53.5076C118.181 53.5076 117.861 53.4356 117.653 53.2916C117.445 53.1636 117.317 52.9956 117.269 52.7876C117.221 52.5636 117.197 52.3156 117.197 52.0436V37.7396C117.197 37.4676 117.221 37.2276 117.269 37.0196C117.317 36.7956 117.445 36.6196 117.653 36.4916C117.861 36.3636 118.181 36.2996 118.613 36.2996C119.061 36.2996 119.381 36.3636 119.573 36.4916C119.765 36.6196 119.885 36.7956 119.933 37.0196C119.981 37.2436 120.005 37.4836 120.005 37.7396V52.5236C119.941 52.8756 119.805 53.1236 119.597 53.2676C119.405 53.4276 119.077 53.5076 118.613 53.5076ZM140.633 53.4596C140.169 53.4596 139.825 53.3716 139.601 53.1956C139.377 53.0196 139.265 52.7796 139.265 52.4756L139.433 51.6836C139.305 51.8916 139.089 52.1396 138.785 52.4276C138.481 52.6996 138.081 52.9476 137.585 53.1716C137.089 53.3796 136.489 53.4836 135.785 53.4836C135.033 53.4836 134.321 53.3316 133.649 53.0276C132.993 52.7076 132.409 52.2756 131.897 51.7316C131.401 51.1716 131.001 50.5396 130.697 49.8356C130.409 49.1156 130.265 48.3476 130.265 47.5316C130.265 46.7476 130.409 46.0116 130.697 45.3236C131.001 44.6196 131.409 43.9956 131.921 43.4516C132.433 42.9076 133.017 42.4836 133.673 42.1796C134.345 41.8596 135.049 41.6996 135.785 41.6996C136.441 41.6996 136.993 41.7876 137.441 41.9636C137.905 42.1396 138.297 42.3636 138.617 42.6356C138.937 42.8916 139.201 43.1636 139.409 43.4516L139.265 42.7556C139.265 42.4036 139.377 42.1396 139.601 41.9636C139.825 41.7716 140.177 41.6756 140.657 41.6756C141.105 41.6756 141.425 41.7476 141.617 41.8916C141.809 42.0196 141.929 42.2036 141.977 42.4436C142.025 42.6676 142.049 42.9236 142.049 43.2116V51.9956C142.049 52.2676 142.025 52.5156 141.977 52.7396C141.929 52.9636 141.801 53.1396 141.593 53.2676C141.401 53.3956 141.081 53.4596 140.633 53.4596ZM136.217 50.6756C136.761 50.6756 137.249 50.5396 137.681 50.2676C138.113 49.9956 138.457 49.6276 138.713 49.1636C138.985 48.6836 139.121 48.1556 139.121 47.5796C139.121 46.9556 138.985 46.4116 138.713 45.9476C138.441 45.4836 138.081 45.1236 137.633 44.8676C137.201 44.5956 136.713 44.4596 136.169 44.4596C135.577 44.4596 135.049 44.6036 134.585 44.8916C134.121 45.1636 133.753 45.5396 133.481 46.0196C133.225 46.4836 133.097 47.0116 133.097 47.6036C133.097 48.1796 133.233 48.6996 133.505 49.1636C133.777 49.6276 134.145 49.9956 134.609 50.2676C135.089 50.5396 135.625 50.6756 136.217 50.6756ZM150.625 53.4836C149.841 53.4836 149.137 53.3316 148.513 53.0276C147.905 52.7076 147.385 52.2756 146.953 51.7316C146.537 51.1876 146.217 50.5636 145.993 49.8596C145.785 49.1396 145.681 48.3716 145.681 47.5556C145.697 46.7396 145.817 45.9796 146.041 45.2756C146.265 44.5556 146.585 43.9316 147.001 43.4036C147.433 42.8596 147.953 42.4356 148.561 42.1316C149.169 41.8276 149.857 41.6756 150.625 41.6756C151.361 41.6756 152.049 41.8276 152.689 42.1316C153.345 42.4356 153.921 42.8596 154.417 43.4036C154.929 43.9316 155.329 44.5556 155.617 45.2756C155.905 45.9796 156.049 46.7316 156.049 47.5316C156.049 48.3636 155.905 49.1476 155.617 49.8836C155.329 50.6036 154.937 51.2356 154.441 51.7796C153.945 52.3076 153.369 52.7236 152.713 53.0276C152.057 53.3316 151.361 53.4836 150.625 53.4836ZM150.241 50.6756C150.801 50.6756 151.305 50.5476 151.753 50.2916C152.201 50.0196 152.553 49.6516 152.809 49.1876C153.081 48.7236 153.217 48.1956 153.217 47.6036C153.217 46.9956 153.081 46.4596 152.809 45.9956C152.553 45.5156 152.201 45.1476 151.753 44.8916C151.305 44.6196 150.801 44.4836 150.241 44.4836C149.697 44.4836 149.201 44.6196 148.753 44.8916C148.305 45.1636 147.945 45.5316 147.673 45.9956C147.417 46.4596 147.289 46.9956 147.289 47.6036C147.289 48.1956 147.417 48.7236 147.673 49.1876C147.945 49.6516 148.305 50.0196 148.753 50.2916C149.201 50.5476 149.697 50.6756 150.241 50.6756ZM145.801 53.5076C145.369 53.5076 145.049 53.4356 144.841 53.2916C144.633 53.1636 144.505 52.9956 144.457 52.7876C144.409 52.5636 144.385 52.3156 144.385 52.0436V37.7396C144.385 37.4676 144.409 37.2276 144.457 37.0196C144.505 36.7956 144.633 36.6196 144.841 36.4916C145.049 36.3636 145.369 36.2996 145.801 36.2996C146.249 36.2996 146.569 36.3636 146.761 36.4916C146.953 36.6196 147.073 36.7956 147.121 37.0196C147.169 37.2436 147.193 37.4836 147.193 37.7396V52.5236C147.129 52.8756 146.993 53.1236 146.785 53.2676C146.593 53.4276 146.265 53.5076 145.801 53.5076ZM170.336 53.4836C169.552 53.4836 168.848 53.3316 168.224 53.0276C167.616 52.7076 167.096 52.2756 166.664 51.7316C166.248 51.1876 165.928 50.5636 165.704 49.8596C165.496 49.1396 165.392 48.3716 165.392 47.5556C165.408 46.7396 165.528 45.9796 165.752 45.2756C165.976 44.5556 166.296 43.9316 166.712 43.4036C167.144 42.8596 167.664 42.4356 168.272 42.1316C168.88 41.8276 169.568 41.6756 170.336 41.6756C171.072 41.6756 171.76 41.8276 172.4 42.1316C173.056 42.4356 173.632 42.8596 174.128 43.4036C174.64 43.9316 175.04 44.5556 175.328 45.2756C175.616 45.9796 175.76 46.7316 175.76 47.5316C175.76 48.3636 175.616 49.1476 175.328 49.8836C175.04 50.6036 174.648 51.2356 174.152 51.7796C173.656 52.3076 173.08 52.7236 172.424 53.0276C171.768 53.3316 171.072 53.4836 170.336 53.4836ZM169.952 50.6756C170.512 50.6756 171.016 50.5476 171.464 50.2916C171.912 50.0196 172.264 49.6516 172.52 49.1876C172.792 48.7236 172.928 48.1956 172.928 47.6036C172.928 46.9956 172.792 46.4596 172.52 45.9956C172.264 45.5156 171.912 45.1476 171.464 44.8916C171.016 44.6196 170.512 44.4836 169.952 44.4836C169.408 44.4836 168.912 44.6196 168.464 44.8916C168.016 45.1636 167.656 45.5316 167.384 45.9956C167.128 46.4596 167 46.9956 167 47.6036C167 48.1956 167.128 48.7236 167.384 49.1876C167.656 49.6516 168.016 50.0196 168.464 50.2916C168.912 50.5476 169.408 50.6756 169.952 50.6756ZM165.512 53.5076C165.08 53.5076 164.76 53.4356 164.552 53.2916C164.344 53.1636 164.216 52.9956 164.168 52.7876C164.12 52.5636 164.096 52.3156 164.096 52.0436V37.7396C164.096 37.4676 164.12 37.2276 164.168 37.0196C164.216 36.7956 164.344 36.6196 164.552 36.4916C164.76 36.3636 165.08 36.2996 165.512 36.2996C165.96 36.2996 166.28 36.3636 166.472 36.4916C166.664 36.6196 166.784 36.7956 166.832 37.0196C166.88 37.2436 166.904 37.4836 166.904 37.7396V52.5236C166.84 52.8756 166.704 53.1236 166.496 53.2676C166.304 53.4276 165.976 53.5076 165.512 53.5076ZM182.822 53.4836C182.086 53.4836 181.406 53.3556 180.782 53.0996C180.174 52.8276 179.638 52.4436 179.174 51.9476C178.71 51.4516 178.35 50.8596 178.094 50.1716C177.838 49.4836 177.71 48.7236 177.71 47.8916V43.1156C177.71 42.8436 177.734 42.6036 177.782 42.3956C177.83 42.1716 177.958 41.9956 178.166 41.8676C178.374 41.7396 178.694 41.6756 179.126 41.6756C179.59 41.6756 179.918 41.7396 180.11 41.8676C180.318 41.9956 180.446 42.1716 180.494 42.3956C180.542 42.6196 180.566 42.8676 180.566 43.1396V47.8916C180.566 48.4676 180.662 48.9636 180.854 49.3796C181.062 49.7956 181.358 50.1236 181.742 50.3636C182.126 50.5876 182.598 50.6996 183.158 50.6996C183.734 50.6996 184.222 50.5876 184.622 50.3636C185.038 50.1236 185.358 49.7956 185.582 49.3796C185.806 48.9476 185.918 48.4516 185.918 47.8916V43.0916C185.918 42.8196 185.942 42.5796 185.99 42.3716C186.038 42.1476 186.166 41.9796 186.374 41.8676C186.582 41.7396 186.91 41.6756 187.358 41.6756C187.806 41.6756 188.126 41.7396 188.318 41.8676C188.51 41.9956 188.63 42.1716 188.678 42.3956C188.742 42.6196 188.774 42.8596 188.774 43.1156V52.1156C188.774 52.3556 188.742 52.5796 188.678 52.7876C188.63 52.9956 188.502 53.1636 188.294 53.2916C188.102 53.4196 187.782 53.4836 187.334 53.4836C187.014 53.4836 186.758 53.4436 186.566 53.3636C186.39 53.2996 186.254 53.2116 186.158 53.0996C186.078 52.9716 186.022 52.8436 185.99 52.7156C185.974 52.5876 185.966 52.4596 185.966 52.3316L186.158 51.6836C186.062 51.8276 185.918 52.0036 185.726 52.2116C185.534 52.4036 185.294 52.6036 185.006 52.8116C184.734 53.0036 184.414 53.1636 184.046 53.2916C183.678 53.4196 183.27 53.4836 182.822 53.4836ZM196.232 53.4836C195.496 53.4836 194.8 53.3316 194.144 53.0276C193.488 52.7236 192.912 52.3076 192.416 51.7796C191.92 51.2356 191.528 50.6036 191.24 49.8836C190.952 49.1476 190.808 48.3636 190.808 47.5316C190.808 46.7316 190.952 45.9796 191.24 45.2756C191.528 44.5556 191.92 43.9316 192.416 43.4036C192.928 42.8596 193.512 42.4356 194.168 42.1316C194.824 41.8276 195.512 41.6756 196.232 41.6756C197 41.6756 197.688 41.8276 198.296 42.1316C198.904 42.4356 199.416 42.8596 199.832 43.4036C200.264 43.9316 200.592 44.5556 200.816 45.2756C201.04 45.9796 201.16 46.7396 201.176 47.5556C201.176 48.3716 201.064 49.1396 200.84 49.8596C200.632 50.5636 200.312 51.1876 199.88 51.7316C199.464 52.2756 198.944 52.7076 198.32 53.0276C197.712 53.3316 197.016 53.4836 196.232 53.4836ZM196.616 50.6756C197.176 50.6756 197.672 50.5476 198.104 50.2916C198.552 50.0196 198.904 49.6516 199.16 49.1876C199.432 48.7236 199.568 48.1956 199.568 47.6036C199.568 46.9956 199.432 46.4596 199.16 45.9956C198.904 45.5316 198.552 45.1636 198.104 44.8916C197.672 44.6196 197.176 44.4836 196.616 44.4836C196.056 44.4836 195.552 44.6196 195.104 44.8916C194.656 45.1476 194.296 45.5156 194.024 45.9956C193.768 46.4596 193.64 46.9956 193.64 47.6036C193.64 48.1956 193.768 48.7236 194.024 49.1876C194.296 49.6516 194.656 50.0196 195.104 50.2916C195.568 50.5476 196.072 50.6756 196.616 50.6756ZM201.056 53.4836C200.608 53.4836 200.28 53.4116 200.072 53.2676C199.864 53.1076 199.728 52.8596 199.664 52.5236V37.7396C199.664 37.4676 199.68 37.2276 199.712 37.0196C199.76 36.7956 199.88 36.6196 200.072 36.4916C200.28 36.3476 200.6 36.2756 201.032 36.2756C201.496 36.2756 201.824 36.3396 202.016 36.4676C202.208 36.5956 202.328 36.7716 202.376 36.9956C202.44 37.2036 202.472 37.4436 202.472 37.7156V52.0196C202.472 52.2916 202.448 52.5396 202.4 52.7636C202.352 52.9876 202.224 53.1636 202.016 53.2916C201.824 53.4196 201.504 53.4836 201.056 53.4836ZM214.555 53.4596C214.091 53.4596 213.747 53.3716 213.523 53.1956C213.299 53.0196 213.187 52.7796 213.187 52.4756L213.355 51.6836C213.227 51.8916 213.011 52.1396 212.707 52.4276C212.403 52.6996 212.003 52.9476 211.507 53.1716C211.011 53.3796 210.411 53.4836 209.707 53.4836C208.955 53.4836 208.243 53.3316 207.571 53.0276C206.915 52.7076 206.331 52.2756 205.819 51.7316C205.323 51.1716 204.923 50.5396 204.619 49.8356C204.331 49.1156 204.187 48.3476 204.187 47.5316C204.187 46.7476 204.331 46.0116 204.619 45.3236C204.923 44.6196 205.331 43.9956 205.843 43.4516C206.355 42.9076 206.939 42.4836 207.595 42.1796C208.267 41.8596 208.971 41.6996 209.707 41.6996C210.363 41.6996 210.915 41.7876 211.363 41.9636C211.827 42.1396 212.219 42.3636 212.539 42.6356C212.859 42.8916 213.123 43.1636 213.331 43.4516L213.187 42.7556C213.187 42.4036 213.299 42.1396 213.523 41.9636C213.747 41.7716 214.099 41.6756 214.579 41.6756C215.027 41.6756 215.347 41.7476 215.539 41.8916C215.731 42.0196 215.851 42.2036 215.899 42.4436C215.947 42.6676 215.971 42.9236 215.971 43.2116V51.9956C215.971 52.2676 215.947 52.5156 215.899 52.7396C215.851 52.9636 215.723 53.1396 215.515 53.2676C215.323 53.3956 215.003 53.4596 214.555 53.4596ZM210.139 50.6756C210.683 50.6756 211.171 50.5396 211.603 50.2676C212.035 49.9956 212.379 49.6276 212.635 49.1636C212.907 48.6836 213.043 48.1556 213.043 47.5796C213.043 46.9556 212.907 46.4116 212.635 45.9476C212.363 45.4836 212.003 45.1236 211.555 44.8676C211.123 44.5956 210.635 44.4596 210.091 44.4596C209.499 44.4596 208.971 44.6036 208.507 44.8916C208.043 45.1636 207.675 45.5396 207.403 46.0196C207.147 46.4836 207.019 47.0116 207.019 47.6036C207.019 48.1796 207.155 48.6996 207.427 49.1636C207.699 49.6276 208.067 49.9956 208.531 50.2676C209.011 50.5396 209.547 50.6756 210.139 50.6756ZM220.886 58.2356C220.374 58.0116 220.078 57.7556 219.998 57.4676C219.918 57.1956 219.99 56.8276 220.214 56.3636L226.406 42.4916C226.63 41.9796 226.87 41.6756 227.126 41.5796C227.382 41.4676 227.774 41.5236 228.302 41.7476C228.798 41.9716 229.086 42.2196 229.166 42.4916C229.262 42.7636 229.206 43.1316 228.998 43.5956L222.758 57.5396C222.55 58.0516 222.318 58.3476 222.062 58.4276C221.806 58.5236 221.414 58.4596 220.886 58.2356ZM223.118 52.3556L217.574 43.8356C217.286 43.4036 217.166 43.0436 217.214 42.7556C217.278 42.4676 217.534 42.1876 217.982 41.9156C218.478 41.6116 218.862 41.4916 219.134 41.5556C219.422 41.6196 219.71 41.8756 219.998 42.3236L224.39 49.1636L223.118 52.3556ZM240.781 53.4596C240.317 53.4596 239.973 53.3716 239.749 53.1956C239.525 53.0196 239.413 52.7796 239.413 52.4756L239.581 51.6836C239.453 51.8916 239.237 52.1396 238.933 52.4276C238.629 52.6996 238.229 52.9476 237.733 53.1716C237.237 53.3796 236.637 53.4836 235.933 53.4836C235.181 53.4836 234.469 53.3316 233.797 53.0276C233.141 52.7076 232.557 52.2756 232.045 51.7316C231.549 51.1716 231.149 50.5396 230.845 49.8356C230.557 49.1156 230.413 48.3476 230.413 47.5316C230.413 46.7476 230.557 46.0116 230.845 45.3236C231.149 44.6196 231.557 43.9956 232.069 43.4516C232.581 42.9076 233.165 42.4836 233.821 42.1796C234.493 41.8596 235.197 41.6996 235.933 41.6996C236.589 41.6996 237.141 41.7876 237.589 41.9636C238.053 42.1396 238.445 42.3636 238.765 42.6356C239.085 42.8916 239.349 43.1636 239.557 43.4516L239.413 42.7556C239.413 42.4036 239.525 42.1396 239.749 41.9636C239.973 41.7716 240.325 41.6756 240.805 41.6756C241.253 41.6756 241.573 41.7476 241.765 41.8916C241.957 42.0196 242.077 42.2036 242.125 42.4436C242.173 42.6676 242.197 42.9236 242.197 43.2116V51.9956C242.197 52.2676 242.173 52.5156 242.125 52.7396C242.077 52.9636 241.949 53.1396 241.741 53.2676C241.549 53.3956 241.229 53.4596 240.781 53.4596ZM236.365 50.6756C236.909 50.6756 237.397 50.5396 237.829 50.2676C238.261 49.9956 238.605 49.6276 238.861 49.1636C239.133 48.6836 239.269 48.1556 239.269 47.5796C239.269 46.9556 239.133 46.4116 238.861 45.9476C238.589 45.4836 238.229 45.1236 237.781 44.8676C237.349 44.5956 236.861 44.4596 236.317 44.4596C235.725 44.4596 235.197 44.6036 234.733 44.8916C234.269 45.1636 233.901 45.5396 233.629 46.0196C233.373 46.4836 233.245 47.0116 233.245 47.6036C233.245 48.1796 233.381 48.6996 233.653 49.1636C233.925 49.6276 234.293 49.9956 234.757 50.2676C235.237 50.5396 235.773 50.6756 236.365 50.6756ZM254.663 53.6516C254.247 53.6516 253.807 53.6036 253.343 53.5076C252.879 53.4276 252.431 53.3076 251.999 53.1476C251.567 52.9716 251.191 52.7716 250.871 52.5476C250.567 52.3076 250.375 52.0436 250.295 51.7556C250.231 51.5956 250.207 51.4436 250.223 51.2996C250.239 51.1396 250.287 50.9796 250.367 50.8196C250.447 50.6436 250.567 50.4676 250.727 50.2916C250.871 50.1156 251.015 50.0196 251.159 50.0036C251.319 49.9716 251.519 50.0196 251.759 50.1476C251.967 50.2276 252.191 50.3316 252.431 50.4596C252.687 50.5876 252.943 50.7156 253.199 50.8436C253.471 50.9716 253.743 51.0756 254.015 51.1556C254.303 51.2356 254.583 51.2756 254.855 51.2756C255.447 51.2756 255.919 51.1796 256.271 50.9876C256.623 50.7796 256.799 50.4916 256.799 50.1236C256.799 49.9156 256.743 49.7316 256.631 49.5716C256.519 49.4116 256.367 49.2836 256.175 49.1876C255.999 49.0756 255.783 48.9796 255.527 48.8996C255.287 48.8036 255.023 48.7236 254.735 48.6596C254.463 48.5796 254.175 48.4916 253.871 48.3956C253.471 48.2836 253.071 48.1476 252.671 47.9876C252.271 47.8276 251.911 47.6196 251.591 47.3636C251.287 47.1076 251.039 46.7876 250.847 46.4036C250.655 46.0196 250.559 45.5396 250.559 44.9636C250.559 44.2436 250.727 43.6356 251.063 43.1396C251.415 42.6276 251.919 42.2356 252.575 41.9636C253.231 41.6916 254.023 41.5556 254.951 41.5556C255.271 41.5556 255.575 41.5796 255.863 41.6276C256.167 41.6756 256.455 41.7476 256.727 41.8436C257.015 41.9236 257.287 42.0276 257.543 42.1556C257.815 42.2836 258.071 42.4276 258.311 42.5876C258.711 42.8116 258.919 43.0756 258.935 43.3796C258.951 43.6676 258.839 43.9796 258.599 44.3156C258.423 44.5396 258.247 44.6996 258.071 44.7956C257.895 44.8756 257.711 44.8756 257.519 44.7956C257.263 44.6676 256.983 44.5316 256.679 44.3876C256.391 44.2276 256.087 44.0916 255.767 43.9796C255.463 43.8676 255.143 43.8116 254.807 43.8116C254.487 43.8116 254.199 43.8596 253.943 43.9556C253.687 44.0516 253.495 44.1876 253.367 44.3636C253.239 44.5396 253.175 44.7476 253.175 44.9876C253.175 45.2116 253.239 45.3956 253.367 45.5396C253.495 45.6836 253.663 45.8036 253.871 45.8996C254.079 45.9956 254.327 46.0836 254.615 46.1636C254.903 46.2276 255.207 46.2916 255.527 46.3556C255.975 46.4516 256.431 46.5716 256.895 46.7156C257.359 46.8596 257.783 47.0596 258.167 47.3156C258.567 47.5716 258.887 47.9156 259.127 48.3476C259.367 48.7636 259.487 49.3076 259.487 49.9796C259.487 51.1476 259.055 52.0516 258.191 52.6916C257.343 53.3316 256.167 53.6516 254.663 53.6516ZM267.286 53.6516C266.246 53.6516 265.334 53.4836 264.55 53.1476C263.782 52.8116 263.134 52.3556 262.606 51.7796C262.094 51.1876 261.702 50.5316 261.43 49.8116C261.174 49.0756 261.046 48.3156 261.046 47.5316C261.046 46.3796 261.31 45.3556 261.838 44.4596C262.366 43.5636 263.094 42.8596 264.022 42.3476C264.966 41.8356 266.046 41.5796 267.262 41.5796C268.126 41.5796 268.886 41.7156 269.542 41.9876C270.198 42.2596 270.742 42.6196 271.174 43.0676C271.622 43.4996 271.958 43.9796 272.182 44.5076C272.422 45.0356 272.542 45.5476 272.542 46.0436C272.542 46.8916 272.334 47.5076 271.918 47.8916C271.518 48.2756 271.014 48.4676 270.406 48.4676H264.07C264.086 49.0116 264.254 49.4836 264.574 49.8836C264.91 50.2836 265.326 50.5956 265.822 50.8196C266.334 51.0276 266.854 51.1316 267.382 51.1316C267.782 51.1316 268.134 51.1076 268.438 51.0596C268.758 51.0116 269.03 50.9556 269.254 50.8916C269.478 50.8116 269.67 50.7316 269.83 50.6516C270.006 50.5716 270.166 50.4996 270.31 50.4356C270.454 50.3716 270.59 50.3316 270.718 50.3156C270.894 50.2996 271.07 50.3396 271.246 50.4356C271.422 50.5316 271.566 50.6996 271.678 50.9396C271.774 51.0996 271.838 51.2516 271.87 51.3956C271.918 51.5236 271.942 51.6516 271.942 51.7796C271.942 52.0996 271.75 52.4036 271.366 52.6916C270.982 52.9636 270.438 53.1876 269.734 53.3636C269.046 53.5556 268.23 53.6516 267.286 53.6516ZM264.07 46.7636H268.99C269.262 46.7636 269.47 46.7236 269.614 46.6436C269.758 46.5476 269.83 46.3556 269.83 46.0676C269.83 45.6996 269.718 45.3716 269.494 45.0836C269.27 44.7796 268.966 44.5476 268.582 44.3876C268.198 44.2116 267.75 44.1236 267.238 44.1236C266.646 44.1236 266.11 44.2436 265.63 44.4836C265.15 44.7076 264.766 45.0196 264.478 45.4196C264.206 45.8196 264.07 46.2676 264.07 46.7636ZM283.92 50.9156C284.336 51.2676 284.552 51.5956 284.568 51.8996C284.6 52.2036 284.44 52.5556 284.088 52.9556C283.816 53.2596 283.576 53.4596 283.368 53.5556C283.16 53.6516 282.952 53.6516 282.744 53.5556C282.536 53.4756 282.288 53.3156 282 53.0756L277.416 49.2116V52.0676C277.416 52.3236 277.384 52.5636 277.32 52.7876C277.272 53.0116 277.144 53.1876 276.936 53.3156C276.744 53.4436 276.424 53.5076 275.976 53.5076C275.528 53.5076 275.2 53.4356 274.992 53.2916C274.8 53.1636 274.68 52.9876 274.632 52.7636C274.584 52.5396 274.56 52.2996 274.56 52.0436V37.7156C274.56 37.4436 274.584 37.2036 274.632 36.9956C274.696 36.7716 274.824 36.5956 275.016 36.4676C275.224 36.3236 275.552 36.2516 276 36.2516C276.448 36.2516 276.768 36.3236 276.96 36.4676C277.152 36.5956 277.272 36.7716 277.32 36.9956C277.384 37.2036 277.416 37.4516 277.416 37.7396V45.6116L280.728 42.3956C280.984 42.1556 281.224 41.9956 281.448 41.9156C281.672 41.8196 281.888 41.8116 282.096 41.8916C282.32 41.9556 282.552 42.1236 282.792 42.3956C283.192 42.8276 283.384 43.1876 283.368 43.4756C283.352 43.7476 283.152 44.0756 282.768 44.4596L279.528 47.4596L283.92 50.9156ZM291.235 53.6516C290.467 53.6516 289.715 53.5076 288.979 53.2196C288.259 52.9156 287.603 52.4916 287.011 51.9476C286.435 51.4036 285.971 50.7636 285.619 50.0276C285.283 49.2916 285.115 48.4836 285.115 47.6036C285.115 46.7556 285.275 45.9636 285.595 45.2276C285.915 44.4916 286.355 43.8436 286.915 43.2836C287.475 42.7236 288.115 42.2916 288.835 41.9876C289.571 41.6676 290.355 41.5076 291.187 41.5076C292.307 41.5076 293.323 41.7796 294.235 42.3236C295.147 42.8516 295.875 43.5716 296.419 44.4836C296.963 45.3956 297.235 46.4276 297.235 47.5796C297.235 48.4916 297.067 49.3236 296.731 50.0756C296.395 50.8116 295.939 51.4516 295.363 51.9956C294.787 52.5236 294.139 52.9316 293.419 53.2196C292.715 53.5076 291.987 53.6516 291.235 53.6516ZM291.187 50.8196C291.715 50.8196 292.219 50.6916 292.699 50.4356C293.195 50.1636 293.595 49.7796 293.899 49.2836C294.219 48.7876 294.379 48.2036 294.379 47.5316C294.379 46.9076 294.235 46.3556 293.947 45.8756C293.675 45.3956 293.299 45.0196 292.819 44.7476C292.339 44.4756 291.787 44.3396 291.163 44.3396C290.571 44.3396 290.035 44.4836 289.555 44.7716C289.075 45.0436 288.691 45.4276 288.403 45.9236C288.131 46.4036 287.995 46.9476 287.995 47.5556C287.995 48.2276 288.147 48.8116 288.451 49.3076C288.755 49.7876 289.147 50.1636 289.627 50.4356C290.123 50.6916 290.643 50.8196 291.187 50.8196ZM303.249 53.5076C302.657 53.5076 302.129 53.4676 301.665 53.3876C301.217 53.3076 300.825 53.1716 300.489 52.9796C300.169 52.7876 299.905 52.5316 299.697 52.2116C299.489 51.8756 299.329 51.4676 299.217 50.9876C299.121 50.5076 299.073 49.9316 299.073 49.2596V37.6916C299.073 37.4196 299.097 37.1796 299.145 36.9716C299.209 36.7476 299.337 36.5716 299.529 36.4436C299.737 36.2996 300.065 36.2276 300.513 36.2276C300.961 36.2276 301.281 36.2916 301.473 36.4196C301.681 36.5476 301.809 36.7236 301.857 36.9476C301.921 37.1556 301.953 37.3956 301.953 37.6676V49.1396C301.953 49.4436 301.969 49.6996 302.001 49.9076C302.049 50.0996 302.121 50.2596 302.217 50.3876C302.329 50.4996 302.465 50.5796 302.625 50.6276C302.801 50.6756 303.009 50.6996 303.249 50.6996C303.457 50.6996 303.641 50.7236 303.801 50.7716C303.977 50.8196 304.113 50.9396 304.209 51.1316C304.321 51.3236 304.377 51.6356 304.377 52.0676C304.377 52.5156 304.321 52.8436 304.209 53.0516C304.113 53.2596 303.977 53.3876 303.801 53.4356C303.625 53.4836 303.441 53.5076 303.249 53.5076ZM315.945 53.4596C315.481 53.4596 315.137 53.3716 314.913 53.1956C314.689 53.0196 314.577 52.7796 314.577 52.4756L314.745 51.6836C314.617 51.8916 314.401 52.1396 314.097 52.4276C313.793 52.6996 313.393 52.9476 312.897 53.1716C312.401 53.3796 311.801 53.4836 311.097 53.4836C310.345 53.4836 309.633 53.3316 308.961 53.0276C308.305 52.7076 307.721 52.2756 307.209 51.7316C306.713 51.1716 306.313 50.5396 306.009 49.8356C305.721 49.1156 305.577 48.3476 305.577 47.5316C305.577 46.7476 305.721 46.0116 306.009 45.3236C306.313 44.6196 306.721 43.9956 307.233 43.4516C307.745 42.9076 308.329 42.4836 308.985 42.1796C309.657 41.8596 310.361 41.6996 311.097 41.6996C311.753 41.6996 312.305 41.7876 312.753 41.9636C313.217 42.1396 313.609 42.3636 313.929 42.6356C314.249 42.8916 314.513 43.1636 314.721 43.4516L314.577 42.7556C314.577 42.4036 314.689 42.1396 314.913 41.9636C315.137 41.7716 315.489 41.6756 315.969 41.6756C316.417 41.6756 316.737 41.7476 316.929 41.8916C317.121 42.0196 317.241 42.2036 317.289 42.4436C317.337 42.6676 317.361 42.9236 317.361 43.2116V51.9956C317.361 52.2676 317.337 52.5156 317.289 52.7396C317.241 52.9636 317.113 53.1396 316.905 53.2676C316.713 53.3956 316.393 53.4596 315.945 53.4596ZM311.529 50.6756C312.073 50.6756 312.561 50.5396 312.993 50.2676C313.425 49.9956 313.769 49.6276 314.025 49.1636C314.297 48.6836 314.433 48.1556 314.433 47.5796C314.433 46.9556 314.297 46.4116 314.025 45.9476C313.753 45.4836 313.393 45.1236 312.945 44.8676C312.513 44.5956 312.025 44.4596 311.481 44.4596C310.889 44.4596 310.361 44.6036 309.897 44.8916C309.433 45.1636 309.065 45.5396 308.793 46.0196C308.537 46.4836 308.409 47.0116 308.409 47.6036C308.409 48.1796 308.545 48.6996 308.817 49.1636C309.089 49.6276 309.457 49.9956 309.921 50.2676C310.401 50.5396 310.937 50.6756 311.529 50.6756ZM321.065 53.5076C320.617 53.5076 320.289 53.4356 320.081 53.2916C319.889 53.1636 319.769 52.9876 319.721 52.7636C319.673 52.5396 319.649 52.2996 319.649 52.0436V37.7156C319.649 37.4436 319.673 37.2036 319.721 36.9956C319.785 36.7716 319.913 36.5956 320.105 36.4676C320.313 36.3396 320.641 36.2756 321.089 36.2756C321.537 36.2756 321.857 36.3476 322.049 36.4916C322.257 36.6196 322.385 36.7956 322.433 37.0196C322.497 37.2276 322.529 37.4676 322.529 37.7396V43.1636C322.849 42.7956 323.257 42.4596 323.753 42.1556C324.265 41.8356 324.881 41.6756 325.601 41.6756C326.577 41.6756 327.449 41.9156 328.217 42.3956C328.985 42.8596 329.593 43.5076 330.041 44.3396C330.489 45.1716 330.713 46.1476 330.713 47.2676V52.0676C330.713 52.3236 330.689 52.5636 330.641 52.7876C330.593 52.9956 330.465 53.1636 330.257 53.2916C330.065 53.4196 329.745 53.4836 329.297 53.4836C328.849 53.4836 328.521 53.4196 328.313 53.2916C328.105 53.1636 327.977 52.9956 327.929 52.7876C327.881 52.5636 327.857 52.3076 327.857 52.0196V47.2436C327.857 46.6836 327.761 46.1956 327.569 45.7796C327.377 45.3636 327.089 45.0436 326.705 44.8196C326.337 44.5796 325.873 44.4596 325.313 44.4596C324.561 44.4596 323.929 44.6836 323.417 45.1316C322.905 45.5636 322.609 46.1236 322.529 46.8116V52.0676C322.529 52.3236 322.497 52.5636 322.433 52.7876C322.385 53.0116 322.257 53.1876 322.049 53.3156C321.857 53.4436 321.529 53.5076 321.065 53.5076ZM80.0173 82.3396C79.2333 82.3396 78.5293 82.1956 77.9053 81.9076C77.2973 81.6036 76.7773 81.1876 76.3453 80.6596C75.9293 80.1156 75.6093 79.4916 75.3853 78.7876C75.1773 78.0836 75.0733 77.3236 75.0733 76.5076C75.0893 75.6916 75.2093 74.9316 75.4333 74.2276C75.6573 73.5076 75.9773 72.8836 76.3933 72.3556C76.8253 71.8276 77.3453 71.4116 77.9533 71.1076C78.5613 70.8036 79.2493 70.6516 80.0173 70.6516C80.7533 70.6516 81.4413 70.8036 82.0813 71.1076C82.7373 71.4116 83.3133 71.8356 83.8093 72.3796C84.3213 72.9236 84.7213 73.5556 85.0093 74.2756C85.2973 74.9796 85.4413 75.7396 85.4413 76.5556C85.4413 77.3876 85.2973 78.1556 85.0093 78.8596C84.7213 79.5636 84.3293 80.1796 83.8333 80.7076C83.3373 81.2196 82.7613 81.6196 82.1053 81.9076C81.4493 82.1956 80.7533 82.3396 80.0173 82.3396ZM75.2173 87.3316C74.7853 87.3316 74.4653 87.2676 74.2573 87.1396C74.0493 87.0116 73.9213 86.8436 73.8733 86.6356C73.8253 86.4276 73.8013 86.1876 73.8013 85.9156V72.1156C73.8013 71.8436 73.8253 71.6036 73.8733 71.3956C73.9213 71.1876 74.0413 71.0196 74.2333 70.8916C74.4413 70.7476 74.7613 70.6756 75.1933 70.6756C75.6093 70.6756 75.9373 70.7396 76.1773 70.8676C76.4173 70.9956 76.5773 71.2116 76.6573 71.5156V85.8916C76.6733 86.1636 76.6493 86.4036 76.5853 86.6116C76.5373 86.8356 76.4093 87.0116 76.2013 87.1396C75.9933 87.2676 75.6653 87.3316 75.2173 87.3316ZM79.6333 79.6516C80.1933 79.6516 80.6973 79.5236 81.1453 79.2676C81.5933 78.9956 81.9453 78.6276 82.2013 78.1636C82.4733 77.6836 82.6093 77.1476 82.6093 76.5556C82.6093 75.9476 82.4733 75.4116 82.2013 74.9476C81.9453 74.4836 81.5933 74.1236 81.1453 73.8676C80.6973 73.5956 80.1933 73.4596 79.6333 73.4596C79.0893 73.4596 78.5933 73.5956 78.1453 73.8676C77.6973 74.1396 77.3373 74.5076 77.0653 74.9716C76.8093 75.4196 76.6813 75.9476 76.6813 76.5556C76.6813 77.1476 76.8093 77.6836 77.0653 78.1636C77.3373 78.6276 77.6973 78.9956 78.1453 79.2676C78.5933 79.5236 79.0893 79.6516 79.6333 79.6516ZM93.1807 82.6516C92.1407 82.6516 91.2287 82.4836 90.4447 82.1476C89.6767 81.8116 89.0287 81.3556 88.5007 80.7796C87.9887 80.1876 87.5967 79.5316 87.3247 78.8116C87.0687 78.0756 86.9407 77.3156 86.9407 76.5316C86.9407 75.3796 87.2047 74.3556 87.7327 73.4596C88.2607 72.5636 88.9887 71.8596 89.9167 71.3476C90.8607 70.8356 91.9407 70.5796 93.1567 70.5796C94.0207 70.5796 94.7807 70.7156 95.4367 70.9876C96.0927 71.2596 96.6367 71.6196 97.0687 72.0676C97.5167 72.4996 97.8527 72.9796 98.0767 73.5076C98.3167 74.0356 98.4367 74.5476 98.4367 75.0436C98.4367 75.8916 98.2287 76.5076 97.8127 76.8916C97.4127 77.2756 96.9087 77.4676 96.3007 77.4676H89.9647C89.9807 78.0116 90.1487 78.4836 90.4687 78.8836C90.8047 79.2836 91.2207 79.5956 91.7167 79.8196C92.2287 80.0276 92.7487 80.1316 93.2767 80.1316C93.6767 80.1316 94.0287 80.1076 94.3327 80.0596C94.6527 80.0116 94.9247 79.9556 95.1487 79.8916C95.3727 79.8116 95.5647 79.7316 95.7247 79.6516C95.9007 79.5716 96.0607 79.4996 96.2047 79.4356C96.3487 79.3716 96.4847 79.3316 96.6127 79.3156C96.7887 79.2996 96.9647 79.3396 97.1407 79.4356C97.3167 79.5316 97.4607 79.6996 97.5727 79.9396C97.6687 80.0996 97.7327 80.2516 97.7647 80.3956C97.8127 80.5236 97.8367 80.6516 97.8367 80.7796C97.8367 81.0996 97.6447 81.4036 97.2607 81.6916C96.8767 81.9636 96.3327 82.1876 95.6287 82.3636C94.9407 82.5556 94.1247 82.6516 93.1807 82.6516ZM89.9647 75.7636H94.8847C95.1567 75.7636 95.3647 75.7236 95.5087 75.6436C95.6527 75.5476 95.7247 75.3556 95.7247 75.0676C95.7247 74.6996 95.6127 74.3716 95.3887 74.0836C95.1647 73.7796 94.8607 73.5476 94.4767 73.3876C94.0927 73.2116 93.6447 73.1236 93.1327 73.1236C92.5407 73.1236 92.0047 73.2436 91.5247 73.4836C91.0447 73.7076 90.6607 74.0196 90.3727 74.4196C90.1007 74.8196 89.9647 75.2676 89.9647 75.7636ZM101.822 82.5076C101.39 82.5076 101.07 82.4356 100.862 82.2916C100.67 82.1636 100.55 81.9876 100.502 81.7636C100.454 81.5396 100.43 81.2916 100.43 81.0196V72.1156C100.43 71.8276 100.454 71.5796 100.502 71.3716C100.55 71.1476 100.67 70.9796 100.862 70.8676C101.07 70.7396 101.398 70.6756 101.846 70.6756C102.278 70.6756 102.59 70.7316 102.782 70.8436C102.99 70.9556 103.118 71.0996 103.166 71.2756C103.23 71.4356 103.262 71.5956 103.262 71.7556L103.07 72.1876C103.15 72.0596 103.262 71.9076 103.406 71.7316C103.55 71.5396 103.742 71.3556 103.982 71.1796C104.222 70.9876 104.51 70.8356 104.846 70.7236C105.182 70.5956 105.582 70.5316 106.046 70.5316C106.238 70.5316 106.438 70.5556 106.646 70.6036C106.87 70.6356 107.086 70.6916 107.294 70.7716C107.518 70.8356 107.718 70.9236 107.894 71.0356C108.07 71.1476 108.206 71.2836 108.302 71.4436C108.398 71.5876 108.446 71.7556 108.446 71.9476C108.446 72.4596 108.318 72.8916 108.062 73.2436C107.806 73.5956 107.502 73.7716 107.15 73.7716C106.91 73.7716 106.734 73.7476 106.622 73.6996C106.51 73.6516 106.414 73.5956 106.334 73.5316C106.27 73.4676 106.166 73.4116 106.022 73.3636C105.894 73.3156 105.686 73.2916 105.398 73.2916C105.158 73.2916 104.91 73.3316 104.654 73.4116C104.414 73.4916 104.19 73.6116 103.982 73.7716C103.774 73.9316 103.606 74.1396 103.478 74.3956C103.35 74.6356 103.286 74.9156 103.286 75.2356V81.0676C103.286 81.3396 103.262 81.5876 103.214 81.8116C103.166 82.0196 103.038 82.1876 102.83 82.3156C102.622 82.4436 102.286 82.5076 101.822 82.5076ZM111.759 82.4836C111.327 82.4836 111.007 82.4196 110.799 82.2916C110.607 82.1636 110.487 81.9876 110.439 81.7636C110.391 81.5396 110.367 81.2996 110.367 81.0436V72.0676C110.367 71.8116 110.391 71.5796 110.439 71.3716C110.487 71.1636 110.615 70.9956 110.823 70.8676C111.031 70.7396 111.359 70.6756 111.807 70.6756C112.271 70.6756 112.607 70.7716 112.815 70.9636C113.039 71.1556 113.151 71.4596 113.151 71.8756L112.935 72.5476C113.015 72.3716 113.151 72.1796 113.343 71.9716C113.535 71.7636 113.767 71.5556 114.039 71.3476C114.327 71.1396 114.647 70.9716 114.999 70.8436C115.351 70.7156 115.719 70.6516 116.103 70.6516C116.631 70.6516 117.111 70.7396 117.543 70.9156C117.991 71.0916 118.383 71.3476 118.719 71.6836C119.071 72.0196 119.375 72.4276 119.631 72.9076C119.903 72.4916 120.207 72.1156 120.543 71.7796C120.879 71.4276 121.271 71.1556 121.719 70.9636C122.167 70.7556 122.671 70.6516 123.231 70.6516C124.159 70.6516 124.935 70.8836 125.559 71.3476C126.199 71.8116 126.679 72.4756 126.999 73.3396C127.335 74.1876 127.503 75.2036 127.503 76.3876V81.0436C127.503 81.3156 127.471 81.5636 127.407 81.7876C127.359 81.9956 127.231 82.1636 127.023 82.2916C126.831 82.4196 126.511 82.4836 126.063 82.4836C125.615 82.4836 125.287 82.4116 125.079 82.2676C124.871 82.1396 124.743 81.9716 124.695 81.7636C124.647 81.5396 124.623 81.2916 124.623 81.0196V76.3636C124.623 75.7716 124.551 75.2596 124.407 74.8276C124.263 74.3956 124.047 74.0596 123.759 73.8196C123.487 73.5796 123.127 73.4596 122.679 73.4596C122.199 73.4596 121.783 73.5796 121.431 73.8196C121.095 74.0436 120.831 74.3716 120.639 74.8036C120.447 75.2356 120.351 75.7636 120.351 76.3876V81.0676C120.351 81.3396 120.311 81.5956 120.231 81.8356C120.151 82.0596 119.991 82.2276 119.751 82.3396C119.527 82.4676 119.199 82.5156 118.767 82.4836C118.367 82.4676 118.071 82.3876 117.879 82.2436C117.703 82.0996 117.591 81.9236 117.543 81.7156C117.511 81.4916 117.495 81.2596 117.495 81.0196V76.3636C117.495 75.7716 117.423 75.2596 117.279 74.8276C117.135 74.3796 116.919 74.0436 116.631 73.8196C116.359 73.5796 115.991 73.4596 115.527 73.4596C115.031 73.4596 114.607 73.5876 114.255 73.8436C113.919 74.0996 113.663 74.4436 113.487 74.8756C113.311 75.3076 113.223 75.8036 113.223 76.3636V81.0676C113.223 81.3236 113.191 81.5636 113.127 81.7876C113.079 82.0116 112.951 82.1796 112.743 82.2916C112.551 82.4196 112.223 82.4836 111.759 82.4836ZM131.45 82.5076C131.018 82.5076 130.698 82.4356 130.49 82.2916C130.282 82.1636 130.154 81.9956 130.106 81.7876C130.058 81.5636 130.034 81.3156 130.034 81.0436V72.1156C130.034 71.8596 130.058 71.6276 130.106 71.4196C130.17 71.1956 130.298 71.0196 130.49 70.8916C130.698 70.7636 131.026 70.6996 131.474 70.6996C131.922 70.6996 132.242 70.7636 132.434 70.8916C132.642 71.0196 132.77 71.1956 132.818 71.4196C132.866 71.6436 132.89 71.8916 132.89 72.1636V81.0676C132.89 81.3396 132.866 81.5876 132.818 81.8116C132.77 82.0196 132.642 82.1876 132.434 82.3156C132.242 82.4436 131.914 82.5076 131.45 82.5076ZM131.45 68.3716C130.986 68.3716 130.642 68.3076 130.418 68.1796C130.21 68.0356 130.074 67.8436 130.01 67.6036C129.962 67.3636 129.938 67.0996 129.938 66.8116C129.938 66.5076 129.962 66.2436 130.01 66.0196C130.074 65.7956 130.218 65.6196 130.442 65.4916C130.666 65.3476 131.01 65.2756 131.474 65.2756C131.954 65.2756 132.298 65.3476 132.506 65.4916C132.714 65.6356 132.85 65.8276 132.914 66.0676C132.978 66.2916 133.01 66.5556 133.01 66.8596C133.01 67.1316 132.978 67.3876 132.914 67.6276C132.85 67.8676 132.714 68.0516 132.506 68.1796C132.298 68.3076 131.946 68.3716 131.45 68.3716ZM139.62 82.6516C139.204 82.6516 138.764 82.6036 138.3 82.5076C137.836 82.4276 137.388 82.3076 136.956 82.1476C136.524 81.9716 136.148 81.7716 135.828 81.5476C135.524 81.3076 135.332 81.0436 135.252 80.7556C135.188 80.5956 135.164 80.4436 135.18 80.2996C135.196 80.1396 135.244 79.9796 135.324 79.8196C135.404 79.6436 135.524 79.4676 135.684 79.2916C135.828 79.1156 135.972 79.0196 136.116 79.0036C136.276 78.9716 136.476 79.0196 136.716 79.1476C136.924 79.2276 137.148 79.3316 137.388 79.4596C137.644 79.5876 137.9 79.7156 138.156 79.8436C138.428 79.9716 138.7 80.0756 138.972 80.1556C139.26 80.2356 139.54 80.2756 139.812 80.2756C140.404 80.2756 140.876 80.1796 141.228 79.9876C141.58 79.7796 141.756 79.4916 141.756 79.1236C141.756 78.9156 141.7 78.7316 141.588 78.5716C141.476 78.4116 141.324 78.2836 141.132 78.1876C140.956 78.0756 140.74 77.9796 140.484 77.8996C140.244 77.8036 139.98 77.7236 139.692 77.6596C139.42 77.5796 139.132 77.4916 138.828 77.3956C138.428 77.2836 138.028 77.1476 137.628 76.9876C137.228 76.8276 136.868 76.6196 136.548 76.3636C136.244 76.1076 135.996 75.7876 135.804 75.4036C135.612 75.0196 135.516 74.5396 135.516 73.9636C135.516 73.2436 135.684 72.6356 136.02 72.1396C136.372 71.6276 136.876 71.2356 137.532 70.9636C138.188 70.6916 138.98 70.5556 139.908 70.5556C140.228 70.5556 140.532 70.5796 140.82 70.6276C141.124 70.6756 141.412 70.7476 141.684 70.8436C141.972 70.9236 142.244 71.0276 142.5 71.1556C142.772 71.2836 143.028 71.4276 143.268 71.5876C143.668 71.8116 143.876 72.0756 143.892 72.3796C143.908 72.6676 143.796 72.9796 143.556 73.3156C143.38 73.5396 143.204 73.6996 143.028 73.7956C142.852 73.8756 142.668 73.8756 142.476 73.7956C142.22 73.6676 141.94 73.5316 141.636 73.3876C141.348 73.2276 141.044 73.0916 140.724 72.9796C140.42 72.8676 140.1 72.8116 139.764 72.8116C139.444 72.8116 139.156 72.8596 138.9 72.9556C138.644 73.0516 138.452 73.1876 138.324 73.3636C138.196 73.5396 138.132 73.7476 138.132 73.9876C138.132 74.2116 138.196 74.3956 138.324 74.5396C138.452 74.6836 138.62 74.8036 138.828 74.8996C139.036 74.9956 139.284 75.0836 139.572 75.1636C139.86 75.2276 140.164 75.2916 140.484 75.3556C140.932 75.4516 141.388 75.5716 141.852 75.7156C142.316 75.8596 142.74 76.0596 143.124 76.3156C143.524 76.5716 143.844 76.9156 144.084 77.3476C144.324 77.7636 144.444 78.3076 144.444 78.9796C144.444 80.1476 144.012 81.0516 143.148 81.6916C142.3 82.3316 141.124 82.6516 139.62 82.6516ZM148.067 82.5076C147.635 82.5076 147.315 82.4356 147.107 82.2916C146.899 82.1636 146.771 81.9956 146.723 81.7876C146.675 81.5636 146.651 81.3156 146.651 81.0436V72.1156C146.651 71.8596 146.675 71.6276 146.723 71.4196C146.787 71.1956 146.915 71.0196 147.107 70.8916C147.315 70.7636 147.643 70.6996 148.091 70.6996C148.539 70.6996 148.859 70.7636 149.051 70.8916C149.259 71.0196 149.387 71.1956 149.435 71.4196C149.483 71.6436 149.507 71.8916 149.507 72.1636V81.0676C149.507 81.3396 149.483 81.5876 149.435 81.8116C149.387 82.0196 149.259 82.1876 149.051 82.3156C148.859 82.4436 148.531 82.5076 148.067 82.5076ZM148.067 68.3716C147.603 68.3716 147.259 68.3076 147.035 68.1796C146.827 68.0356 146.691 67.8436 146.627 67.6036C146.579 67.3636 146.555 67.0996 146.555 66.8116C146.555 66.5076 146.579 66.2436 146.627 66.0196C146.691 65.7956 146.835 65.6196 147.059 65.4916C147.283 65.3476 147.627 65.2756 148.091 65.2756C148.571 65.2756 148.915 65.3476 149.123 65.4916C149.331 65.6356 149.467 65.8276 149.531 66.0676C149.595 66.2916 149.627 66.5556 149.627 66.8596C149.627 67.1316 149.595 67.3876 149.531 67.6276C149.467 67.8676 149.331 68.0516 149.123 68.1796C148.915 68.3076 148.563 68.3716 148.067 68.3716ZM154.612 82.5076C154.18 82.5076 153.86 82.4436 153.652 82.3156C153.46 82.1876 153.34 82.0116 153.292 81.7876C153.244 81.5476 153.22 81.2996 153.22 81.0436V69.3796C153.22 68.7876 153.3 68.2436 153.46 67.7476C153.62 67.2356 153.876 66.7956 154.228 66.4276C154.58 66.0596 155.036 65.7716 155.596 65.5636C156.156 65.3396 156.836 65.2276 157.636 65.2276C157.908 65.2276 158.148 65.2596 158.356 65.3236C158.58 65.3716 158.756 65.4916 158.884 65.6836C159.028 65.8756 159.1 66.2036 159.1 66.6676C159.1 67.0996 159.028 67.4196 158.884 67.6276C158.756 67.8356 158.58 67.9636 158.356 68.0116C158.132 68.0596 157.884 68.0836 157.612 68.0836C157.34 68.0836 157.1 68.0996 156.892 68.1316C156.7 68.1476 156.54 68.1956 156.412 68.2756C156.3 68.3556 156.212 68.4836 156.148 68.6596C156.1 68.8356 156.076 69.0596 156.076 69.3316V81.0916C156.076 81.3476 156.044 81.5876 155.98 81.8116C155.932 82.0196 155.804 82.1876 155.596 82.3156C155.388 82.4436 155.06 82.5076 154.612 82.5076ZM152.236 70.9156L154.708 70.9396L158.02 70.8436C158.292 70.8436 158.532 70.8756 158.74 70.9396C158.964 70.9876 159.14 71.1156 159.268 71.3236C159.396 71.5156 159.46 71.8356 159.46 72.2836C159.46 72.6996 159.396 73.0116 159.268 73.2196C159.14 73.4276 158.972 73.5636 158.764 73.6276C158.556 73.6756 158.316 73.6996 158.044 73.6996L154.828 73.6516L152.164 73.6756C151.764 73.6596 151.484 73.5476 151.324 73.3396C151.18 73.1156 151.108 72.7556 151.108 72.2596C151.108 71.7956 151.196 71.4596 151.372 71.2516C151.564 71.0276 151.852 70.9156 152.236 70.9156ZM161.371 84.9796C161.371 84.9796 161.339 84.9636 161.275 84.9316C161.211 84.9156 161.147 84.8516 161.083 84.7396C161.019 84.6436 160.987 84.4836 160.987 84.2596C160.987 83.9556 161.035 83.7556 161.131 83.6596C161.227 83.5796 161.291 83.5316 161.323 83.5156C161.339 83.4996 161.451 83.4036 161.659 83.2276C161.867 83.0676 161.987 82.7876 162.019 82.3876C161.859 82.3556 161.715 82.3156 161.587 82.2676C161.475 82.2036 161.379 82.1316 161.299 82.0516C161.139 81.8916 161.043 81.7076 161.011 81.4996C160.979 81.2756 160.963 81.0516 160.963 80.8276C160.963 80.4596 161.003 80.1556 161.083 79.9156C161.163 79.6756 161.315 79.4996 161.539 79.3876C161.779 79.2596 162.131 79.1956 162.595 79.1956C163.203 79.1956 163.635 79.3236 163.891 79.5796C164.035 79.7236 164.115 79.9076 164.131 80.1316C164.163 80.3556 164.179 80.5796 164.179 80.8036C164.179 80.9636 164.179 81.0996 164.179 81.2116C164.179 81.3076 164.171 81.3956 164.155 81.4756C164.091 82.1156 163.923 82.6996 163.651 83.2276C163.395 83.7556 163.067 84.1796 162.667 84.4996C162.283 84.8196 161.851 84.9796 161.371 84.9796ZM162.547 74.5636C161.939 74.5636 161.515 74.4436 161.275 74.2036C161.051 73.9476 160.939 73.5396 160.939 72.9796C160.939 72.5636 160.979 72.2356 161.059 71.9956C161.155 71.7556 161.323 71.5876 161.563 71.4916C161.819 71.3796 162.155 71.3236 162.571 71.3236C163.195 71.3236 163.619 71.4436 163.843 71.6836C164.067 71.9236 164.179 72.3476 164.179 72.9556C164.179 73.2436 164.147 73.5156 164.083 73.7716C164.019 74.0116 163.875 74.2036 163.651 74.3476C163.427 74.4916 163.059 74.5636 162.547 74.5636ZM173.823 82.4836C173.407 82.4836 173.095 82.4116 172.887 82.2676C172.679 82.1396 172.543 81.9636 172.479 81.7396C172.415 81.5156 172.383 81.2756 172.383 81.0196V67.1476C172.383 66.8916 172.407 66.6596 172.455 66.4516C172.519 66.2276 172.655 66.0516 172.863 65.9236C173.071 65.7796 173.399 65.7076 173.847 65.7076L178.359 65.7316C179.527 65.7316 180.599 65.9316 181.575 66.3316C182.567 66.7316 183.423 67.2996 184.143 68.0356C184.863 68.7716 185.415 69.6516 185.799 70.6756C186.199 71.6836 186.399 72.7956 186.399 74.0116C186.399 75.2596 186.199 76.4036 185.799 77.4436C185.399 78.4836 184.839 79.3796 184.119 80.1316C183.399 80.8836 182.543 81.4676 181.551 81.8836C180.575 82.2836 179.487 82.4836 178.287 82.4836H173.823ZM175.287 79.5796H178.359C179.383 79.5796 180.279 79.3556 181.047 78.9076C181.815 78.4436 182.407 77.8036 182.823 76.9876C183.255 76.1716 183.471 75.2196 183.471 74.1316C183.471 73.0276 183.255 72.0676 182.823 71.2516C182.407 70.4196 181.807 69.7796 181.023 69.3316C180.255 68.8676 179.359 68.6356 178.335 68.6356H175.287V79.5796ZM198.512 82.4596C198.048 82.4596 197.704 82.3716 197.48 82.1956C197.256 82.0196 197.144 81.7796 197.144 81.4756L197.312 80.6836C197.184 80.8916 196.968 81.1396 196.664 81.4276C196.36 81.6996 195.96 81.9476 195.464 82.1716C194.968 82.3796 194.368 82.4836 193.664 82.4836C192.912 82.4836 192.2 82.3316 191.528 82.0276C190.872 81.7076 190.288 81.2756 189.776 80.7316C189.28 80.1716 188.88 79.5396 188.576 78.8356C188.288 78.1156 188.144 77.3476 188.144 76.5316C188.144 75.7476 188.288 75.0116 188.576 74.3236C188.88 73.6196 189.288 72.9956 189.8 72.4516C190.312 71.9076 190.896 71.4836 191.552 71.1796C192.224 70.8596 192.928 70.6996 193.664 70.6996C194.32 70.6996 194.872 70.7876 195.32 70.9636C195.784 71.1396 196.176 71.3636 196.496 71.6356C196.816 71.8916 197.08 72.1636 197.288 72.4516L197.144 71.7556C197.144 71.4036 197.256 71.1396 197.48 70.9636C197.704 70.7716 198.056 70.6756 198.536 70.6756C198.984 70.6756 199.304 70.7476 199.496 70.8916C199.688 71.0196 199.808 71.2036 199.856 71.4436C199.904 71.6676 199.928 71.9236 199.928 72.2116V80.9956C199.928 81.2676 199.904 81.5156 199.856 81.7396C199.808 81.9636 199.68 82.1396 199.472 82.2676C199.28 82.3956 198.96 82.4596 198.512 82.4596ZM194.096 79.6756C194.64 79.6756 195.128 79.5396 195.56 79.2676C195.992 78.9956 196.336 78.6276 196.592 78.1636C196.864 77.6836 197 77.1556 197 76.5796C197 75.9556 196.864 75.4116 196.592 74.9476C196.32 74.4836 195.96 74.1236 195.512 73.8676C195.08 73.5956 194.592 73.4596 194.048 73.4596C193.456 73.4596 192.928 73.6036 192.464 73.8916C192 74.1636 191.632 74.5396 191.36 75.0196C191.104 75.4836 190.976 76.0116 190.976 76.6036C190.976 77.1796 191.112 77.6996 191.384 78.1636C191.656 78.6276 192.024 78.9956 192.488 79.2676C192.968 79.5396 193.504 79.6756 194.096 79.6756ZM203.728 82.4836C203.296 82.4836 202.976 82.4196 202.768 82.2916C202.576 82.1636 202.456 81.9876 202.408 81.7636C202.36 81.5396 202.336 81.2996 202.336 81.0436V72.0676C202.336 71.8116 202.36 71.5796 202.408 71.3716C202.456 71.1636 202.584 70.9956 202.792 70.8676C203 70.7396 203.328 70.6756 203.776 70.6756C204.24 70.6756 204.576 70.7716 204.784 70.9636C205.008 71.1556 205.12 71.4596 205.12 71.8756L204.904 72.5476C204.984 72.3716 205.12 72.1796 205.312 71.9716C205.504 71.7636 205.736 71.5556 206.008 71.3476C206.296 71.1396 206.616 70.9716 206.968 70.8436C207.32 70.7156 207.688 70.6516 208.072 70.6516C208.6 70.6516 209.08 70.7396 209.512 70.9156C209.96 71.0916 210.352 71.3476 210.688 71.6836C211.04 72.0196 211.344 72.4276 211.6 72.9076C211.872 72.4916 212.176 72.1156 212.512 71.7796C212.848 71.4276 213.24 71.1556 213.688 70.9636C214.136 70.7556 214.64 70.6516 215.2 70.6516C216.128 70.6516 216.904 70.8836 217.528 71.3476C218.168 71.8116 218.648 72.4756 218.968 73.3396C219.304 74.1876 219.472 75.2036 219.472 76.3876V81.0436C219.472 81.3156 219.44 81.5636 219.376 81.7876C219.328 81.9956 219.2 82.1636 218.992 82.2916C218.8 82.4196 218.48 82.4836 218.032 82.4836C217.584 82.4836 217.256 82.4116 217.048 82.2676C216.84 82.1396 216.712 81.9716 216.664 81.7636C216.616 81.5396 216.592 81.2916 216.592 81.0196V76.3636C216.592 75.7716 216.52 75.2596 216.376 74.8276C216.232 74.3956 216.016 74.0596 215.728 73.8196C215.456 73.5796 215.096 73.4596 214.648 73.4596C214.168 73.4596 213.752 73.5796 213.4 73.8196C213.064 74.0436 212.8 74.3716 212.608 74.8036C212.416 75.2356 212.32 75.7636 212.32 76.3876V81.0676C212.32 81.3396 212.28 81.5956 212.2 81.8356C212.12 82.0596 211.96 82.2276 211.72 82.3396C211.496 82.4676 211.168 82.5156 210.736 82.4836C210.336 82.4676 210.04 82.3876 209.848 82.2436C209.672 82.0996 209.56 81.9236 209.512 81.7156C209.48 81.4916 209.464 81.2596 209.464 81.0196V76.3636C209.464 75.7716 209.392 75.2596 209.248 74.8276C209.104 74.3796 208.888 74.0436 208.6 73.8196C208.328 73.5796 207.96 73.4596 207.496 73.4596C207 73.4596 206.576 73.5876 206.224 73.8436C205.888 74.0996 205.632 74.4436 205.456 74.8756C205.28 75.3076 205.192 75.8036 205.192 76.3636V81.0676C205.192 81.3236 205.16 81.5636 205.096 81.7876C205.048 82.0116 204.92 82.1796 204.712 82.2916C204.52 82.4196 204.192 82.4836 203.728 82.4836ZM227.955 82.3396C227.171 82.3396 226.467 82.1956 225.843 81.9076C225.235 81.6036 224.715 81.1876 224.283 80.6596C223.867 80.1156 223.547 79.4916 223.323 78.7876C223.115 78.0836 223.011 77.3236 223.011 76.5076C223.027 75.6916 223.147 74.9316 223.371 74.2276C223.595 73.5076 223.915 72.8836 224.331 72.3556C224.763 71.8276 225.283 71.4116 225.891 71.1076C226.499 70.8036 227.187 70.6516 227.955 70.6516C228.691 70.6516 229.379 70.8036 230.019 71.1076C230.675 71.4116 231.251 71.8356 231.747 72.3796C232.259 72.9236 232.659 73.5556 232.947 74.2756C233.235 74.9796 233.379 75.7396 233.379 76.5556C233.379 77.3876 233.235 78.1556 232.947 78.8596C232.659 79.5636 232.267 80.1796 231.771 80.7076C231.275 81.2196 230.699 81.6196 230.043 81.9076C229.387 82.1956 228.691 82.3396 227.955 82.3396ZM223.155 87.3316C222.723 87.3316 222.403 87.2676 222.195 87.1396C221.987 87.0116 221.859 86.8436 221.811 86.6356C221.763 86.4276 221.739 86.1876 221.739 85.9156V72.1156C221.739 71.8436 221.763 71.6036 221.811 71.3956C221.859 71.1876 221.979 71.0196 222.171 70.8916C222.379 70.7476 222.699 70.6756 223.131 70.6756C223.547 70.6756 223.875 70.7396 224.115 70.8676C224.355 70.9956 224.515 71.2116 224.595 71.5156V85.8916C224.611 86.1636 224.587 86.4036 224.523 86.6116C224.475 86.8356 224.347 87.0116 224.139 87.1396C223.931 87.2676 223.603 87.3316 223.155 87.3316ZM227.571 79.6516C228.131 79.6516 228.635 79.5236 229.083 79.2676C229.531 78.9956 229.883 78.6276 230.139 78.1636C230.411 77.6836 230.547 77.1476 230.547 76.5556C230.547 75.9476 230.411 75.4116 230.139 74.9476C229.883 74.4836 229.531 74.1236 229.083 73.8676C228.635 73.5956 228.131 73.4596 227.571 73.4596C227.027 73.4596 226.531 73.5956 226.083 73.8676C225.635 74.1396 225.275 74.5076 225.003 74.9716C224.747 75.4196 224.619 75.9476 224.619 76.5556C224.619 77.1476 224.747 77.6836 225.003 78.1636C225.275 78.6276 225.635 78.9956 226.083 79.2676C226.531 79.5236 227.027 79.6516 227.571 79.6516ZM245.246 82.4596C244.782 82.4596 244.438 82.3716 244.214 82.1956C243.99 82.0196 243.878 81.7796 243.878 81.4756L244.046 80.6836C243.918 80.8916 243.702 81.1396 243.398 81.4276C243.094 81.6996 242.694 81.9476 242.198 82.1716C241.702 82.3796 241.102 82.4836 240.398 82.4836C239.646 82.4836 238.934 82.3316 238.262 82.0276C237.606 81.7076 237.022 81.2756 236.51 80.7316C236.014 80.1716 235.614 79.5396 235.31 78.8356C235.022 78.1156 234.878 77.3476 234.878 76.5316C234.878 75.7476 235.022 75.0116 235.31 74.3236C235.614 73.6196 236.022 72.9956 236.534 72.4516C237.046 71.9076 237.63 71.4836 238.286 71.1796C238.958 70.8596 239.662 70.6996 240.398 70.6996C241.054 70.6996 241.606 70.7876 242.054 70.9636C242.518 71.1396 242.91 71.3636 243.23 71.6356C243.55 71.8916 243.814 72.1636 244.022 72.4516L243.878 71.7556C243.878 71.4036 243.99 71.1396 244.214 70.9636C244.438 70.7716 244.79 70.6756 245.27 70.6756C245.718 70.6756 246.038 70.7476 246.23 70.8916C246.422 71.0196 246.542 71.2036 246.59 71.4436C246.638 71.6676 246.662 71.9236 246.662 72.2116V80.9956C246.662 81.2676 246.638 81.5156 246.59 81.7396C246.542 81.9636 246.414 82.1396 246.206 82.2676C246.014 82.3956 245.694 82.4596 245.246 82.4596ZM240.83 79.6756C241.374 79.6756 241.862 79.5396 242.294 79.2676C242.726 78.9956 243.07 78.6276 243.326 78.1636C243.598 77.6836 243.734 77.1556 243.734 76.5796C243.734 75.9556 243.598 75.4116 243.326 74.9476C243.054 74.4836 242.694 74.1236 242.246 73.8676C241.814 73.5956 241.326 73.4596 240.782 73.4596C240.19 73.4596 239.662 73.6036 239.198 73.8916C238.734 74.1636 238.366 74.5396 238.094 75.0196C237.838 75.4836 237.71 76.0116 237.71 76.6036C237.71 77.1796 237.846 77.6996 238.118 78.1636C238.39 78.6276 238.758 78.9956 239.222 79.2676C239.702 79.5396 240.238 79.6756 240.83 79.6756ZM258.478 79.9156C258.894 80.2676 259.11 80.5956 259.126 80.8996C259.158 81.2036 258.998 81.5556 258.646 81.9556C258.374 82.2596 258.134 82.4596 257.926 82.5556C257.718 82.6516 257.51 82.6516 257.302 82.5556C257.094 82.4756 256.846 82.3156 256.558 82.0756L251.974 78.2116V81.0676C251.974 81.3236 251.942 81.5636 251.878 81.7876C251.83 82.0116 251.702 82.1876 251.494 82.3156C251.302 82.4436 250.982 82.5076 250.534 82.5076C250.086 82.5076 249.758 82.4356 249.55 82.2916C249.358 82.1636 249.238 81.9876 249.19 81.7636C249.142 81.5396 249.118 81.2996 249.118 81.0436V66.7156C249.118 66.4436 249.142 66.2036 249.19 65.9956C249.254 65.7716 249.382 65.5956 249.574 65.4676C249.782 65.3236 250.11 65.2516 250.558 65.2516C251.006 65.2516 251.326 65.3236 251.518 65.4676C251.71 65.5956 251.83 65.7716 251.878 65.9956C251.942 66.2036 251.974 66.4516 251.974 66.7396V74.6116L255.286 71.3956C255.542 71.1556 255.782 70.9956 256.006 70.9156C256.23 70.8196 256.446 70.8116 256.654 70.8916C256.878 70.9556 257.11 71.1236 257.35 71.3956C257.75 71.8276 257.942 72.1876 257.926 72.4756C257.91 72.7476 257.71 73.0756 257.326 73.4596L254.086 76.4596L258.478 79.9156ZM269.432 82.5076C269 82.5076 268.68 82.4436 268.472 82.3156C268.28 82.1876 268.16 82.0116 268.112 81.7876C268.064 81.5476 268.04 81.2996 268.04 81.0436V69.3796C268.04 68.7876 268.12 68.2436 268.28 67.7476C268.44 67.2356 268.696 66.7956 269.048 66.4276C269.4 66.0596 269.856 65.7716 270.416 65.5636C270.976 65.3396 271.656 65.2276 272.456 65.2276C272.728 65.2276 272.968 65.2596 273.176 65.3236C273.4 65.3716 273.576 65.4916 273.704 65.6836C273.848 65.8756 273.92 66.2036 273.92 66.6676C273.92 67.0996 273.848 67.4196 273.704 67.6276C273.576 67.8356 273.4 67.9636 273.176 68.0116C272.952 68.0596 272.704 68.0836 272.432 68.0836C272.16 68.0836 271.92 68.0996 271.712 68.1316C271.52 68.1476 271.36 68.1956 271.232 68.2756C271.12 68.3556 271.032 68.4836 270.968 68.6596C270.92 68.8356 270.896 69.0596 270.896 69.3316V81.0916C270.896 81.3476 270.864 81.5876 270.8 81.8116C270.752 82.0196 270.624 82.1876 270.416 82.3156C270.208 82.4436 269.88 82.5076 269.432 82.5076ZM267.056 70.9156L269.528 70.9396L272.84 70.8436C273.112 70.8436 273.352 70.8756 273.56 70.9396C273.784 70.9876 273.96 71.1156 274.088 71.3236C274.216 71.5156 274.28 71.8356 274.28 72.2836C274.28 72.6996 274.216 73.0116 274.088 73.2196C273.96 73.4276 273.792 73.5636 273.584 73.6276C273.376 73.6756 273.136 73.6996 272.864 73.6996L269.648 73.6516L266.984 73.6756C266.584 73.6596 266.304 73.5476 266.144 73.3396C266 73.1156 265.928 72.7556 265.928 72.2596C265.928 71.7956 266.016 71.4596 266.192 71.2516C266.384 71.0276 266.672 70.9156 267.056 70.9156ZM277.583 82.5076C277.151 82.5076 276.831 82.4356 276.623 82.2916C276.415 82.1636 276.287 81.9956 276.239 81.7876C276.191 81.5636 276.167 81.3156 276.167 81.0436V72.1156C276.167 71.8596 276.191 71.6276 276.239 71.4196C276.303 71.1956 276.431 71.0196 276.623 70.8916C276.831 70.7636 277.159 70.6996 277.607 70.6996C278.055 70.6996 278.375 70.7636 278.567 70.8916C278.775 71.0196 278.903 71.1956 278.951 71.4196C278.999 71.6436 279.023 71.8916 279.023 72.1636V81.0676C279.023 81.3396 278.999 81.5876 278.951 81.8116C278.903 82.0196 278.775 82.1876 278.567 82.3156C278.375 82.4436 278.047 82.5076 277.583 82.5076ZM277.583 68.3716C277.119 68.3716 276.775 68.3076 276.551 68.1796C276.343 68.0356 276.207 67.8436 276.143 67.6036C276.095 67.3636 276.071 67.0996 276.071 66.8116C276.071 66.5076 276.095 66.2436 276.143 66.0196C276.207 65.7956 276.351 65.6196 276.575 65.4916C276.799 65.3476 277.143 65.2756 277.607 65.2756C278.087 65.2756 278.431 65.3476 278.639 65.4916C278.847 65.6356 278.983 65.8276 279.047 66.0676C279.111 66.2916 279.143 66.5556 279.143 66.8596C279.143 67.1316 279.111 67.3876 279.047 67.6276C278.983 67.8676 278.847 68.0516 278.639 68.1796C278.431 68.3076 278.079 68.3716 277.583 68.3716ZM285.752 82.6516C285.336 82.6516 284.896 82.6036 284.432 82.5076C283.968 82.4276 283.52 82.3076 283.088 82.1476C282.656 81.9716 282.28 81.7716 281.96 81.5476C281.656 81.3076 281.464 81.0436 281.384 80.7556C281.32 80.5956 281.296 80.4436 281.312 80.2996C281.328 80.1396 281.376 79.9796 281.456 79.8196C281.536 79.6436 281.656 79.4676 281.816 79.2916C281.96 79.1156 282.104 79.0196 282.248 79.0036C282.408 78.9716 282.608 79.0196 282.848 79.1476C283.056 79.2276 283.28 79.3316 283.52 79.4596C283.776 79.5876 284.032 79.7156 284.288 79.8436C284.56 79.9716 284.832 80.0756 285.104 80.1556C285.392 80.2356 285.672 80.2756 285.944 80.2756C286.536 80.2756 287.008 80.1796 287.36 79.9876C287.712 79.7796 287.888 79.4916 287.888 79.1236C287.888 78.9156 287.832 78.7316 287.72 78.5716C287.608 78.4116 287.456 78.2836 287.264 78.1876C287.088 78.0756 286.872 77.9796 286.616 77.8996C286.376 77.8036 286.112 77.7236 285.824 77.6596C285.552 77.5796 285.264 77.4916 284.96 77.3956C284.56 77.2836 284.16 77.1476 283.76 76.9876C283.36 76.8276 283 76.6196 282.68 76.3636C282.376 76.1076 282.128 75.7876 281.936 75.4036C281.744 75.0196 281.648 74.5396 281.648 73.9636C281.648 73.2436 281.816 72.6356 282.152 72.1396C282.504 71.6276 283.008 71.2356 283.664 70.9636C284.32 70.6916 285.112 70.5556 286.04 70.5556C286.36 70.5556 286.664 70.5796 286.952 70.6276C287.256 70.6756 287.544 70.7476 287.816 70.8436C288.104 70.9236 288.376 71.0276 288.632 71.1556C288.904 71.2836 289.16 71.4276 289.4 71.5876C289.8 71.8116 290.008 72.0756 290.024 72.3796C290.04 72.6676 289.928 72.9796 289.688 73.3156C289.512 73.5396 289.336 73.6996 289.16 73.7956C288.984 73.8756 288.8 73.8756 288.608 73.7956C288.352 73.6676 288.072 73.5316 287.768 73.3876C287.48 73.2276 287.176 73.0916 286.856 72.9796C286.552 72.8676 286.232 72.8116 285.896 72.8116C285.576 72.8116 285.288 72.8596 285.032 72.9556C284.776 73.0516 284.584 73.1876 284.456 73.3636C284.328 73.5396 284.264 73.7476 284.264 73.9876C284.264 74.2116 284.328 74.3956 284.456 74.5396C284.584 74.6836 284.752 74.8036 284.96 74.8996C285.168 74.9956 285.416 75.0836 285.704 75.1636C285.992 75.2276 286.296 75.2916 286.616 75.3556C287.064 75.4516 287.52 75.5716 287.984 75.7156C288.448 75.8596 288.872 76.0596 289.256 76.3156C289.656 76.5716 289.976 76.9156 290.216 77.3476C290.456 77.7636 290.576 78.3076 290.576 78.9796C290.576 80.1476 290.144 81.0516 289.28 81.6916C288.432 82.3316 287.256 82.6516 285.752 82.6516ZM294.2 82.5076C293.768 82.5076 293.448 82.4356 293.24 82.2916C293.032 82.1636 292.904 81.9956 292.856 81.7876C292.808 81.5636 292.784 81.3156 292.784 81.0436V72.1156C292.784 71.8596 292.808 71.6276 292.856 71.4196C292.92 71.1956 293.048 71.0196 293.24 70.8916C293.448 70.7636 293.776 70.6996 294.224 70.6996C294.672 70.6996 294.992 70.7636 295.184 70.8916C295.392 71.0196 295.52 71.1956 295.568 71.4196C295.616 71.6436 295.64 71.8916 295.64 72.1636V81.0676C295.64 81.3396 295.616 81.5876 295.568 81.8116C295.52 82.0196 295.392 82.1876 295.184 82.3156C294.992 82.4436 294.664 82.5076 294.2 82.5076ZM294.2 68.3716C293.736 68.3716 293.392 68.3076 293.168 68.1796C292.96 68.0356 292.824 67.8436 292.76 67.6036C292.712 67.3636 292.688 67.0996 292.688 66.8116C292.688 66.5076 292.712 66.2436 292.76 66.0196C292.824 65.7956 292.968 65.6196 293.192 65.4916C293.416 65.3476 293.76 65.2756 294.224 65.2756C294.704 65.2756 295.048 65.3476 295.256 65.4916C295.464 65.6356 295.6 65.8276 295.664 66.0676C295.728 66.2916 295.76 66.5556 295.76 66.8596C295.76 67.1316 295.728 67.3876 295.664 67.6276C295.6 67.8676 295.464 68.0516 295.256 68.1796C295.048 68.3076 294.696 68.3716 294.2 68.3716ZM307.674 79.9156C308.09 80.2676 308.306 80.5956 308.322 80.8996C308.354 81.2036 308.194 81.5556 307.842 81.9556C307.57 82.2596 307.33 82.4596 307.122 82.5556C306.914 82.6516 306.706 82.6516 306.498 82.5556C306.29 82.4756 306.042 82.3156 305.754 82.0756L301.17 78.2116V81.0676C301.17 81.3236 301.138 81.5636 301.074 81.7876C301.026 82.0116 300.898 82.1876 300.69 82.3156C300.498 82.4436 300.178 82.5076 299.73 82.5076C299.282 82.5076 298.954 82.4356 298.746 82.2916C298.554 82.1636 298.434 81.9876 298.386 81.7636C298.338 81.5396 298.314 81.2996 298.314 81.0436V66.7156C298.314 66.4436 298.338 66.2036 298.386 65.9956C298.45 65.7716 298.578 65.5956 298.77 65.4676C298.978 65.3236 299.306 65.2516 299.754 65.2516C300.202 65.2516 300.522 65.3236 300.714 65.4676C300.906 65.5956 301.026 65.7716 301.074 65.9956C301.138 66.2036 301.17 66.4516 301.17 66.7396V74.6116L304.482 71.3956C304.738 71.1556 304.978 70.9956 305.202 70.9156C305.426 70.8196 305.642 70.8116 305.85 70.8916C306.074 70.9556 306.306 71.1236 306.546 71.3956C306.946 71.8276 307.138 72.1876 307.122 72.4756C307.106 72.7476 306.906 73.0756 306.522 73.4596L303.282 76.4596L307.674 79.9156Z" fill="black"/>
</svg>
