<svg width="400" height="120" viewBox="0 0 400 120" fill="none" xmlns="http://www.w3.org/2000/svg">
<mask id="mask0_62_2381" style="mask-type:luminance" maskUnits="userSpaceOnUse" x="0" y="0" width="400" height="120">
<path d="M400 0H0V120H400V0Z" fill="white"/>
</mask>
<g mask="url(#mask0_62_2381)">
<mask id="mask1_62_2381" style="mask-type:luminance" maskUnits="userSpaceOnUse" x="9" y="9" width="388" height="111">
<path d="M9.33838 9.33325H396.887V119.354H9.33838V9.33325Z" fill="white"/>
</mask>
<g mask="url(#mask1_62_2381)">
<path d="M15.789 72.3853L12.3965 62.3593L17.7893 51.8749L13.0349 41.3958L9.77612 30.9114L12.1047 19.3541L26.2584 18.2343L39.1779 15.5937L52.3406 21.4739L65.1142 13.7499L78.3376 21.7083L91.2267 17.9635L104.365 22.901L117.358 22.677L130.405 24.3437L143.318 21.4218L155.618 17.1093L167.972 14.5624L180.326 12.0989L192.783 13.2135L205.32 17.1249L217.838 20.3437L230.253 20.0728L242.4 10.3072L255.064 18.6874L267.503 19.1718L279.742 12.4791L292.084 9.53638L304.906 12.9062L318.19 14.7655L328.447 23.3958L341.367 25.4062L352.316 32.3385L368.294 26.7083L380.204 31.2239L396.346 37.177L387.475 50.3385L387.159 62.0937L374.361 69.8593L369.875 80.2812L373.796 93.3957L367.57 103.266L364.391 115.974L345.853 109.745L333.335 117.432L320.227 109.989L307.782 119.823L294.631 110.969L281.864 112.432L269.005 111.359L256.444 118.932L243.555 117.01L230.824 121.224L218.355 114.521L205.222 119.724L193.081 116.047L180.727 115.328L168.306 115.838L155.903 115.969L143.829 110.542L131.396 111.203L119.346 105.146L106.274 116.76L94.5645 104.833L81.5599 115.427L69.6375 107.245L57.5023 102.453L44.6436 110.724L27.2615 111.552L29.4685 98.1405L22.7929 90.2291L11.0103 83.578L15.789 72.3853Z" fill="black"/>
<path d="M15.789 72.3853L12.3965 62.3593L17.7893 51.8749L13.0349 41.3958L9.77612 30.9114L12.1047 19.3541L26.2584 18.2343L39.1779 15.5937L52.3406 21.4739L65.1142 13.7499L78.3376 21.7083L91.2267 17.9635L104.365 22.901L117.358 22.677L130.405 24.3437L143.318 21.4218L155.618 17.1093L167.972 14.5624L180.326 12.0989L192.783 13.2135L205.32 17.1249L217.838 20.3437L230.253 20.0728L242.4 10.3072L255.064 18.6874L267.503 19.1718L279.742 12.4791L292.084 9.53638L304.906 12.9062L318.19 14.7655L328.447 23.3958L341.367 25.4062L352.316 32.3385L368.294 26.7083L380.204 31.2239L396.346 37.177L387.475 50.3385L387.159 62.0937L374.361 69.8593L369.875 80.2812L373.796 93.3957L367.57 103.266L364.391 115.974L345.853 109.745L333.335 117.432L320.227 109.989L307.782 119.823L294.631 110.969L281.864 112.432L269.005 111.359L256.444 118.932L243.555 117.01L230.824 121.224L218.355 114.521L205.222 119.724L193.081 116.047L180.727 115.328L168.306 115.838L155.903 115.969L143.829 110.542L131.396 111.203L119.346 105.146L106.274 116.76L94.5645 104.833L81.5599 115.427L69.6375 107.245L57.5023 102.453L44.6436 110.724L27.2615 111.552L29.4685 98.1405L22.7929 90.2291L11.0103 83.578L15.789 72.3853Z" fill="black"/>
</g>
<mask id="mask2_62_2381" style="mask-type:luminance" maskUnits="userSpaceOnUse" x="7" y="8" width="391" height="112">
<path d="M7.78198 8H397.586V119.354H7.78198V8Z" fill="white"/>
</mask>
<g mask="url(#mask2_62_2381)">
<path d="M230.739 121.984L218.3 115.307L205.265 120.474L192.917 116.734L180.721 115.99L168.342 116.495L155.715 116.63L143.653 111.203L131.207 111.885L119.485 105.995L106.238 117.766L94.5037 105.812L81.6085 116.328L69.2058 107.849L57.6056 103.26L44.9111 111.401L26.3131 112.286L28.6355 98.3489L22.1971 90.7239L10.0497 83.8489L14.9561 72.3645L11.5575 62.3124L16.932 51.8541L12.2627 41.5728L8.95532 30.9426L11.4237 18.7291L26.1671 17.5572L39.2812 14.901L52.2737 20.703L65.1141 12.9166L78.4653 20.953L91.2632 17.2291L104.523 22.2135L117.406 21.9895L130.356 23.6562L143.051 20.776L155.423 16.4426L167.765 13.8958L180.259 11.4166L193.038 12.5728L205.569 16.4843L217.941 19.651L229.931 19.3958L242.345 9.40617L255.356 18.0103L267.26 18.4687L279.383 11.8489L292.078 8.81763L305.076 12.2083L318.561 14.0937L328.83 22.7291L341.683 24.7239L352.414 31.5103L368.282 25.9218L380.514 30.552L397.483 36.8489L388.272 50.526L387.962 62.4531L375.03 70.2968L370.714 80.3229L374.678 93.4843L368.33 103.505L364.95 116.906L345.951 110.516L333.335 118.26L320.294 110.854L307.824 120.74L294.413 111.703L281.882 113.146L269.188 112.078L256.627 119.651L243.634 117.719L230.739 121.984ZM218.415 113.75L230.915 120.463L243.47 116.307L256.256 118.213L268.792 110.656L281.852 111.755L294.856 110.255L307.739 118.932L320.148 109.13L333.317 116.594L345.744 108.969L363.801 115.031L366.816 103.016L372.951 93.2968L369.048 80.2343L373.681 69.427L386.375 61.7135L386.685 50.1822L395.215 37.4947L379.894 31.8645L368.276 27.4583L352.201 33.1249L341.038 26.0468L328.064 24.0155L317.807 15.3958L304.651 13.5468L292.054 10.2291L280.058 13.1093L267.704 19.8958L254.76 19.3958L242.437 11.2499L230.532 20.7916L217.68 21.078L205.04 17.828L192.601 13.8853L180.374 12.7916L168.184 15.2291L155.867 17.7499L143.525 22.078L130.453 25.0364L117.303 23.3541L104.207 23.5885L91.2267 18.6926L78.216 22.4687L65.1141 14.578L52.4196 22.2708L39.0927 16.3124L26.3313 18.9062L12.7856 19.9843L10.5847 30.8801L13.7948 41.1822L18.6526 51.8906L13.2476 62.3906L16.6462 72.4114L11.9952 83.3072L23.3705 89.7239L30.3135 97.9687L28.1978 110.823L44.376 110.057L57.4232 101.667L70.1178 106.708L81.5113 114.521L94.6192 103.844L106.298 115.745L119.194 104.286L131.572 110.516L143.987 109.833L156.08 115.26L168.282 115.135L180.721 114.62L193.227 115.349L205.125 118.958L218.415 113.75Z" fill="black"/>
</g>
<mask id="mask3_62_2381" style="mask-type:luminance" maskUnits="userSpaceOnUse" x="3" y="1" width="388" height="113">
<path d="M3.11279 1.08301H390.661V113.333H3.11279V1.08301Z" fill="white"/>
</mask>
<g mask="url(#mask3_62_2381)">
<path d="M9.78237 63.3954L6.39594 53.3642L11.7826 42.8798L7.02824 32.4006L3.75732 21.9163L6.09804 10.3642L20.2457 9.23918L33.1712 6.60376L46.3339 12.4788L59.1075 4.7548L72.3249 12.7183L85.2201 8.96313L98.3585 13.9111L111.345 13.6819L124.398 15.359L137.312 12.4319L149.611 8.10897L161.965 5.5673L174.319 3.10897L186.777 4.22355L199.313 8.1298L211.825 11.3486L224.246 11.0777L236.387 1.31209L249.058 9.69751L261.497 10.1819L273.735 3.48918L286.077 0.54126L298.9 3.91626L312.184 5.77043L322.44 14.4058L335.36 16.4163L346.31 23.3433L362.281 17.7131L374.197 22.2288L390.339 28.1767L381.469 41.3486L381.153 53.1038L368.355 60.8642L363.868 71.2913L367.796 84.4006L361.564 94.2704L358.378 106.979L339.847 100.755L327.329 108.442L314.221 101L301.775 110.833L288.619 101.974L275.851 103.442L262.999 102.364L250.432 109.937L237.549 108.026L224.818 112.234L212.348 105.526L199.216 110.729L187.068 107.062L174.726 106.333L162.299 106.849L149.897 106.979L137.822 101.546L125.389 102.208L113.339 96.1558L100.268 107.765L88.5579 95.8433L75.5533 106.427L63.6248 98.2444L51.5017 93.4579L38.6369 101.734L21.2488 102.557L23.4618 89.1506L16.7863 81.234L5.00368 74.5829L9.78237 63.3954Z" fill="white"/>
</g>
<mask id="mask4_62_2381" style="mask-type:luminance" maskUnits="userSpaceOnUse" x="0" y="1" width="396" height="115">
<path d="M0.674805 1.08325H395.331V116H0.674805V1.08325Z" fill="white"/>
</mask>
<g mask="url(#mask4_62_2381)">
<path d="M224.52 115.01L212.147 108.365L199.386 113.422L186.491 109.521L174.708 108.844L162.348 109.349L149.21 109.49L137.202 104.062L124.69 104.74L113.862 99.3124L100.146 111.526L88.3389 99.5103L75.7234 109.745L62.0743 100.385L51.8542 96.3541L39.6521 104.182L17.8318 105.213L20.3732 89.7916L14.7007 83.0624L1.44077 75.5989L6.68153 63.328L3.30118 53.1874L8.62097 42.828L4.20099 33.0416L0.778076 22.0312L3.61125 8.05721L19.7713 6.76034L33.5541 3.95825L46.1027 9.56242L59.1013 1.69784L72.7929 9.94263L85.3537 6.29159L98.942 11.401L111.539 11.1822L124.234 12.8124L136.381 10.0572L148.705 5.72909L161.284 3.14575L174.13 0.578044L187.433 1.77596L200.231 5.76554L212.22 8.84367L223.06 8.60409L236.205 -1.96362L250.115 7.23429L260.706 7.65096L272.525 1.18221L286.12 -2.05737L299.568 1.48429L313.564 3.43742L323.875 12.0885L336.57 14.0624L346.705 20.4999L362.311 14.9947L375.365 19.9478L394.492 26.9999L384.369 42.0416L384.04 54.4114L370.787 62.453L366.92 71.4218L370.89 84.7239L364.318 95.1458L360.494 110.38L340.248 103.594L327.377 111.495L314.5 104.182L301.909 114.13L287.767 104.63L275.869 105.99L263.752 104.979L251.058 112.609L237.767 110.635L224.52 115.01ZM212.561 102.693L225.128 109.474L237.214 105.448L249.708 107.302L262.172 99.7916L275.772 100.932L289.427 99.3593L301.593 107.557L313.886 97.8333L327.231 105.411L339.403 97.9478L356.226 103.588L358.779 93.4114L364.683 84.1041L360.816 71.2135L365.929 59.3333L378.277 51.8697L378.569 40.6822L386.174 29.3958L373.036 24.5572L362.238 20.4843L345.908 26.1822L334.168 18.7603L321.036 16.7291L310.791 8.11971L298.237 6.35409L286.041 3.14575L274.933 5.79159L262.293 12.703L248.012 12.1562L236.576 4.58846L225.432 13.5468L211.436 13.8489L198.31 10.4583L186.108 6.65096L174.532 5.63534L162.634 8.00513L150.517 10.4947L138.242 14.802L124.55 17.901L111.156 16.1822L97.7625 16.4166L85.068 11.6666L71.8688 15.4843L59.1074 7.80721L46.5648 15.3958L32.782 9.24471L20.7197 11.7083L8.59058 12.6718L6.74233 21.8072L9.80653 31.6249L14.9379 42.9426L9.50254 53.5728L12.8647 63.5208L8.53586 73.5885L18.8471 79.4062L26.5198 88.5051L24.6412 99.8958L37.5971 99.2864L51.1489 90.5676L65.175 96.1093L75.3586 103.099L88.7949 92.2447L100.419 104.068L112.828 93.0364L126.137 99.7083L138.497 99.026L150.602 104.453L162.214 104.333L174.757 103.818L187.67 104.568L199.064 108.016L212.561 102.693Z" fill="black"/>
<path d="M224.52 115.01L212.147 108.365L199.386 113.422L186.491 109.521L174.708 108.844L162.348 109.349L149.21 109.49L137.202 104.062L124.69 104.74L113.862 99.3124L100.146 111.526L88.3389 99.5103L75.7234 109.745L62.0743 100.385L51.8542 96.3541L39.6521 104.182L17.8318 105.213L20.3732 89.7916L14.7007 83.0624L1.44077 75.5989L6.68153 63.328L3.30118 53.1874L8.62097 42.828L4.20099 33.0416L0.778076 22.0312L3.61125 8.05721L19.7713 6.76034L33.5541 3.95825L46.1027 9.56242L59.1013 1.69784L72.7929 9.94263L85.3537 6.29159L98.942 11.401L111.539 11.1822L124.234 12.8124L136.381 10.0572L148.705 5.72909L161.284 3.14575L174.13 0.578044L187.433 1.77596L200.231 5.76554L212.22 8.84367L223.06 8.60409L236.205 -1.96362L250.115 7.23429L260.706 7.65096L272.525 1.18221L286.12 -2.05737L299.568 1.48429L313.564 3.43742L323.875 12.0885L336.57 14.0624L346.705 20.4999L362.311 14.9947L375.365 19.9478L394.492 26.9999L384.369 42.0416L384.04 54.4114L370.787 62.453L366.92 71.4218L370.89 84.7239L364.318 95.1458L360.494 110.38L340.248 103.594L327.377 111.495L314.5 104.182L301.909 114.13L287.767 104.63L275.869 105.99L263.752 104.979L251.058 112.609L237.767 110.635L224.52 115.01ZM212.561 102.693L225.128 109.474L237.214 105.448L249.708 107.302L262.172 99.7916L275.772 100.932L289.427 99.3593L301.593 107.557L313.886 97.8333L327.231 105.411L339.403 97.9478L356.226 103.588L358.779 93.4114L364.683 84.1041L360.816 71.2135L365.929 59.3333L378.277 51.8697L378.569 40.6822L386.174 29.3958L373.036 24.5572L362.238 20.4843L345.908 26.1822L334.168 18.7603L321.036 16.7291L310.791 8.11971L298.237 6.35409L286.041 3.14575L274.933 5.79159L262.293 12.703L248.012 12.1562L236.576 4.58846L225.432 13.5468L211.436 13.8489L198.31 10.4583L186.108 6.65096L174.532 5.63534L162.634 8.00513L150.517 10.4947L138.242 14.802L124.55 17.901L111.156 16.1822L97.7625 16.4166L85.068 11.6666L71.8688 15.4843L59.1074 7.80721L46.5648 15.3958L32.782 9.24471L20.7197 11.7083L8.59058 12.6718L6.74233 21.8072L9.80653 31.6249L14.9379 42.9426L9.50254 53.5728L12.8647 63.5208L8.53586 73.5885L18.8471 79.4062L26.5198 88.5051L24.6412 99.8958L37.5971 99.2864L51.1489 90.5676L65.175 96.1093L75.3586 103.099L88.7949 92.2447L100.419 104.068L112.828 93.0364L126.137 99.7083L138.497 99.026L150.602 104.453L162.214 104.333L174.757 103.818L187.67 104.568L199.064 108.016L212.561 102.693Z" fill="black"/>
</g>
</g>
<path d="M55.0921 49.7231C54.6441 49.7231 54.3161 49.6591 54.1081 49.5311C53.9001 49.4031 53.7721 49.2271 53.7241 49.0031C53.6761 48.7631 53.6521 48.5151 53.6521 48.2591V34.4111C53.6521 34.1551 53.6761 33.9231 53.7241 33.7151C53.7881 33.4911 53.9241 33.3151 54.1321 33.1871C54.3401 33.0431 54.6681 32.9711 55.1161 32.9711H60.2041C60.9081 32.9711 61.5961 33.0911 62.2681 33.3311C62.9401 33.5711 63.5401 33.9311 64.0681 34.4111C64.6121 34.8911 65.0361 35.4831 65.3401 36.1871C65.6601 36.8911 65.8201 37.7151 65.8201 38.6591C65.8201 39.5871 65.6601 40.4031 65.3401 41.1071C65.0361 41.7951 64.6121 42.3791 64.0681 42.8591C63.5241 43.3391 62.9161 43.6991 62.2441 43.9391C61.5881 44.1791 60.9001 44.2991 60.1801 44.2991H56.5561V48.2831C56.5561 48.5391 56.5241 48.7791 56.4601 49.0031C56.4121 49.2271 56.2841 49.4031 56.0761 49.5311C55.8841 49.6591 55.5561 49.7231 55.0921 49.7231ZM56.5561 41.3711H60.2041C60.7001 41.3711 61.1481 41.2751 61.5481 41.0831C61.9641 40.8751 62.3001 40.5711 62.5561 40.1711C62.8121 39.7551 62.9401 39.2351 62.9401 38.6111C62.9401 38.0511 62.8201 37.5711 62.5801 37.1711C62.3561 36.7551 62.0361 36.4351 61.6201 36.2111C61.2201 35.9871 60.7401 35.8751 60.1801 35.8751H56.5561V41.3711ZM73.5873 49.8911C72.5473 49.8911 71.6353 49.7231 70.8513 49.3871C70.0833 49.0511 69.4353 48.5951 68.9073 48.0191C68.3953 47.4271 68.0033 46.7711 67.7313 46.0511C67.4753 45.3151 67.3473 44.5551 67.3473 43.7711C67.3473 42.6191 67.6113 41.5951 68.1393 40.6991C68.6673 39.8031 69.3953 39.0991 70.3233 38.5871C71.2673 38.0751 72.3473 37.8191 73.5633 37.8191C74.4273 37.8191 75.1873 37.9551 75.8433 38.2271C76.4993 38.4991 77.0433 38.8591 77.4753 39.3071C77.9233 39.7391 78.2593 40.2191 78.4833 40.7471C78.7233 41.2751 78.8433 41.7871 78.8433 42.2831C78.8433 43.1311 78.6353 43.7471 78.2193 44.1311C77.8193 44.5151 77.3153 44.7071 76.7073 44.7071H70.3713C70.3873 45.2511 70.5553 45.7231 70.8753 46.1231C71.2113 46.5231 71.6273 46.8351 72.1233 47.0591C72.6353 47.2671 73.1553 47.3711 73.6833 47.3711C74.0833 47.3711 74.4353 47.3471 74.7393 47.2991C75.0593 47.2511 75.3313 47.1951 75.5553 47.1311C75.7793 47.0511 75.9713 46.9711 76.1313 46.8911C76.3073 46.8111 76.4673 46.7391 76.6113 46.6751C76.7553 46.6111 76.8913 46.5711 77.0193 46.5551C77.1953 46.5391 77.3713 46.5791 77.5473 46.6751C77.7233 46.7711 77.8673 46.9391 77.9793 47.1791C78.0753 47.3391 78.1393 47.4911 78.1713 47.6351C78.2193 47.7631 78.2433 47.8911 78.2433 48.0191C78.2433 48.3391 78.0513 48.6431 77.6673 48.9311C77.2833 49.2031 76.7393 49.4271 76.0353 49.6031C75.3473 49.7951 74.5313 49.8911 73.5873 49.8911ZM70.3713 43.0031H75.2913C75.5633 43.0031 75.7713 42.9631 75.9153 42.8831C76.0593 42.7871 76.1313 42.5951 76.1313 42.3071C76.1313 41.9391 76.0193 41.6111 75.7953 41.3231C75.5713 41.0191 75.2673 40.7871 74.8833 40.6271C74.4993 40.4511 74.0513 40.3631 73.5393 40.3631C72.9473 40.3631 72.4113 40.4831 71.9313 40.7231C71.4513 40.9471 71.0673 41.2591 70.7793 41.6591C70.5073 42.0591 70.3713 42.5071 70.3713 43.0031ZM82.2288 49.7231C81.7968 49.7231 81.4768 49.6511 81.2688 49.5071C81.0768 49.3791 80.9568 49.2111 80.9088 49.0031C80.8608 48.7791 80.8368 48.5311 80.8368 48.2591V39.2831C80.8368 39.0271 80.8608 38.7951 80.9088 38.5871C80.9568 38.3791 81.0848 38.2191 81.2928 38.1071C81.5008 37.9791 81.8208 37.9151 82.2528 37.9151C82.6368 37.9151 82.9248 37.9631 83.1168 38.0591C83.3088 38.1551 83.4368 38.2751 83.5008 38.4191C83.5648 38.5631 83.5968 38.7071 83.5968 38.8511C83.6128 38.9951 83.6288 39.1071 83.6448 39.1871L83.5488 39.9551C83.6448 39.6991 83.8048 39.4511 84.0288 39.2111C84.2528 38.9711 84.5248 38.7551 84.8448 38.5631C85.1648 38.3551 85.5088 38.1951 85.8768 38.0831C86.2608 37.9551 86.6528 37.8911 87.0528 37.8911C87.8048 37.8911 88.4768 38.0271 89.0688 38.2991C89.6608 38.5711 90.1648 38.9551 90.5808 39.4511C91.0128 39.9471 91.3408 40.5391 91.5648 41.2271C91.7888 41.8991 91.9008 42.6591 91.9008 43.5071V48.2831C91.9008 48.5551 91.8688 48.8031 91.8048 49.0271C91.7568 49.2351 91.6368 49.4031 91.4448 49.5311C91.2528 49.6591 90.9248 49.7231 90.4608 49.7231C90.0128 49.7231 89.6848 49.6511 89.4768 49.5071C89.2688 49.3791 89.1408 49.2111 89.0928 49.0031C89.0448 48.7791 89.0208 48.5311 89.0208 48.2591V43.4831C89.0208 42.9071 88.9168 42.4111 88.7088 41.9951C88.5168 41.5791 88.2288 41.2591 87.8448 41.0351C87.4768 40.8111 87.0048 40.6991 86.4288 40.6991C85.8688 40.6991 85.3808 40.8191 84.9648 41.0591C84.5488 41.2831 84.2288 41.6031 84.0048 42.0191C83.7808 42.4351 83.6688 42.9231 83.6688 43.4831V48.2831C83.6688 48.5551 83.6448 48.8031 83.5968 49.0271C83.5488 49.2351 83.4208 49.4031 83.2128 49.5311C83.0208 49.6591 82.6928 49.7231 82.2288 49.7231ZM96.4919 54.4751C95.9799 54.2511 95.6839 53.9951 95.6039 53.7071C95.5239 53.4351 95.5959 53.0671 95.8199 52.6031L102.012 38.7311C102.236 38.2191 102.476 37.9151 102.732 37.8191C102.988 37.7071 103.38 37.7631 103.908 37.9871C104.404 38.2111 104.692 38.4591 104.772 38.7311C104.868 39.0031 104.812 39.3711 104.604 39.8351L98.3639 53.7791C98.1559 54.2911 97.9239 54.5871 97.6679 54.6671C97.4119 54.7631 97.0199 54.6991 96.4919 54.4751ZM98.7239 48.5951L93.1799 40.0751C92.8919 39.6431 92.7719 39.2831 92.8199 38.9951C92.8839 38.7071 93.1399 38.4271 93.5879 38.1551C94.0839 37.8511 94.4679 37.7311 94.7399 37.7951C95.0279 37.8591 95.3159 38.1151 95.6039 38.5631L99.9959 45.4031L98.7239 48.5951ZM112.259 49.8911C111.219 49.8911 110.307 49.7231 109.523 49.3871C108.755 49.0511 108.107 48.5951 107.579 48.0191C107.067 47.4271 106.675 46.7711 106.403 46.0511C106.147 45.3151 106.019 44.5551 106.019 43.7711C106.019 42.6191 106.283 41.5951 106.811 40.6991C107.339 39.8031 108.067 39.0991 108.995 38.5871C109.939 38.0751 111.019 37.8191 112.235 37.8191C113.099 37.8191 113.859 37.9551 114.515 38.2271C115.171 38.4991 115.715 38.8591 116.147 39.3071C116.595 39.7391 116.931 40.2191 117.155 40.7471C117.395 41.2751 117.515 41.7871 117.515 42.2831C117.515 43.1311 117.307 43.7471 116.891 44.1311C116.491 44.5151 115.987 44.7071 115.379 44.7071H109.043C109.059 45.2511 109.227 45.7231 109.547 46.1231C109.883 46.5231 110.299 46.8351 110.795 47.0591C111.307 47.2671 111.827 47.3711 112.355 47.3711C112.755 47.3711 113.107 47.3471 113.411 47.2991C113.731 47.2511 114.003 47.1951 114.227 47.1311C114.451 47.0511 114.643 46.9711 114.803 46.8911C114.979 46.8111 115.139 46.7391 115.283 46.6751C115.427 46.6111 115.563 46.5711 115.691 46.5551C115.867 46.5391 116.043 46.5791 116.219 46.6751C116.395 46.7711 116.539 46.9391 116.651 47.1791C116.747 47.3391 116.811 47.4911 116.843 47.6351C116.891 47.7631 116.915 47.8911 116.915 48.0191C116.915 48.3391 116.723 48.6431 116.339 48.9311C115.955 49.2031 115.411 49.4271 114.707 49.6031C114.019 49.7951 113.203 49.8911 112.259 49.8911ZM109.043 43.0031H113.963C114.235 43.0031 114.443 42.9631 114.587 42.8831C114.731 42.7871 114.803 42.5951 114.803 42.3071C114.803 41.9391 114.691 41.6111 114.467 41.3231C114.243 41.0191 113.939 40.7871 113.555 40.6271C113.171 40.4511 112.723 40.3631 112.211 40.3631C111.619 40.3631 111.083 40.4831 110.603 40.7231C110.123 40.9471 109.739 41.2591 109.451 41.6591C109.179 42.0591 109.043 42.5071 109.043 43.0031ZM125.653 49.7231C124.869 49.7231 124.165 49.5711 123.541 49.2671C122.933 48.9471 122.413 48.5151 121.981 47.9711C121.565 47.4271 121.245 46.8031 121.021 46.0991C120.813 45.3791 120.709 44.6111 120.709 43.7951C120.725 42.9791 120.845 42.2191 121.069 41.5151C121.293 40.7951 121.613 40.1711 122.029 39.6431C122.461 39.0991 122.981 38.6751 123.589 38.3711C124.197 38.0671 124.885 37.9151 125.653 37.9151C126.389 37.9151 127.077 38.0671 127.717 38.3711C128.373 38.6751 128.949 39.0991 129.445 39.6431C129.957 40.1711 130.357 40.7951 130.645 41.5151C130.933 42.2191 131.077 42.9711 131.077 43.7711C131.077 44.6031 130.933 45.3871 130.645 46.1231C130.357 46.8431 129.965 47.4751 129.469 48.0191C128.973 48.5471 128.397 48.9631 127.741 49.2671C127.085 49.5711 126.389 49.7231 125.653 49.7231ZM125.269 46.9151C125.829 46.9151 126.333 46.7871 126.781 46.5311C127.229 46.2591 127.581 45.8911 127.837 45.4271C128.109 44.9631 128.245 44.4351 128.245 43.8431C128.245 43.2351 128.109 42.6991 127.837 42.2351C127.581 41.7551 127.229 41.3871 126.781 41.1311C126.333 40.8591 125.829 40.7231 125.269 40.7231C124.725 40.7231 124.229 40.8591 123.781 41.1311C123.333 41.4031 122.973 41.7711 122.701 42.2351C122.445 42.6991 122.317 43.2351 122.317 43.8431C122.317 44.4351 122.445 44.9631 122.701 45.4271C122.973 45.8911 123.333 46.2591 123.781 46.5311C124.229 46.7871 124.725 46.9151 125.269 46.9151ZM120.829 49.7471C120.397 49.7471 120.077 49.6751 119.869 49.5311C119.661 49.4031 119.533 49.2351 119.485 49.0271C119.437 48.8031 119.413 48.5551 119.413 48.2831V33.9791C119.413 33.7071 119.437 33.4671 119.485 33.2591C119.533 33.0351 119.661 32.8591 119.869 32.7311C120.077 32.6031 120.397 32.5391 120.829 32.5391C121.277 32.5391 121.597 32.6031 121.789 32.7311C121.981 32.8591 122.101 33.0351 122.149 33.2591C122.197 33.4831 122.221 33.7231 122.221 33.9791V48.7631C122.157 49.1151 122.021 49.3631 121.813 49.5071C121.621 49.6671 121.293 49.7471 120.829 49.7471ZM142.848 49.6991C142.384 49.6991 142.04 49.6111 141.816 49.4351C141.592 49.2591 141.48 49.0191 141.48 48.7151L141.648 47.9231C141.52 48.1311 141.304 48.3791 141 48.6671C140.696 48.9391 140.296 49.1871 139.8 49.4111C139.304 49.6191 138.704 49.7231 138 49.7231C137.248 49.7231 136.536 49.5711 135.864 49.2671C135.208 48.9471 134.624 48.5151 134.112 47.9711C133.616 47.4111 133.216 46.7791 132.912 46.0751C132.624 45.3551 132.48 44.5871 132.48 43.7711C132.48 42.9871 132.624 42.2511 132.912 41.5631C133.216 40.8591 133.624 40.2351 134.136 39.6911C134.648 39.1471 135.232 38.7231 135.888 38.4191C136.56 38.0991 137.264 37.9391 138 37.9391C138.656 37.9391 139.208 38.0271 139.656 38.2031C140.12 38.3791 140.512 38.6031 140.832 38.8751C141.152 39.1311 141.416 39.4031 141.624 39.6911L141.48 38.9951C141.48 38.6431 141.592 38.3791 141.816 38.2031C142.04 38.0111 142.392 37.9151 142.872 37.9151C143.32 37.9151 143.64 37.9871 143.832 38.1311C144.024 38.2591 144.144 38.4431 144.192 38.6831C144.24 38.9071 144.264 39.1631 144.264 39.4511V48.2351C144.264 48.5071 144.24 48.7551 144.192 48.9791C144.144 49.2031 144.016 49.3791 143.808 49.5071C143.616 49.6351 143.296 49.6991 142.848 49.6991ZM138.432 46.9151C138.976 46.9151 139.464 46.7791 139.896 46.5071C140.328 46.2351 140.672 45.8671 140.928 45.4031C141.2 44.9231 141.336 44.3951 141.336 43.8191C141.336 43.1951 141.2 42.6511 140.928 42.1871C140.656 41.7231 140.296 41.3631 139.848 41.1071C139.416 40.8351 138.928 40.6991 138.384 40.6991C137.792 40.6991 137.264 40.8431 136.8 41.1311C136.336 41.4031 135.968 41.7791 135.696 42.2591C135.44 42.7231 135.312 43.2511 135.312 43.8431C135.312 44.4191 135.448 44.9391 135.72 45.4031C135.992 45.8671 136.36 46.2351 136.824 46.5071C137.304 46.7791 137.84 46.9151 138.432 46.9151ZM152.84 49.7231C152.056 49.7231 151.352 49.5711 150.728 49.2671C150.12 48.9471 149.6 48.5151 149.168 47.9711C148.752 47.4271 148.432 46.8031 148.208 46.0991C148 45.3791 147.896 44.6111 147.896 43.7951C147.912 42.9791 148.032 42.2191 148.256 41.5151C148.48 40.7951 148.8 40.1711 149.216 39.6431C149.648 39.0991 150.168 38.6751 150.776 38.3711C151.384 38.0671 152.072 37.9151 152.84 37.9151C153.576 37.9151 154.264 38.0671 154.904 38.3711C155.56 38.6751 156.136 39.0991 156.632 39.6431C157.144 40.1711 157.544 40.7951 157.832 41.5151C158.12 42.2191 158.264 42.9711 158.264 43.7711C158.264 44.6031 158.12 45.3871 157.832 46.1231C157.544 46.8431 157.152 47.4751 156.656 48.0191C156.16 48.5471 155.584 48.9631 154.928 49.2671C154.272 49.5711 153.576 49.7231 152.84 49.7231ZM152.456 46.9151C153.016 46.9151 153.52 46.7871 153.968 46.5311C154.416 46.2591 154.768 45.8911 155.024 45.4271C155.296 44.9631 155.432 44.4351 155.432 43.8431C155.432 43.2351 155.296 42.6991 155.024 42.2351C154.768 41.7551 154.416 41.3871 153.968 41.1311C153.52 40.8591 153.016 40.7231 152.456 40.7231C151.912 40.7231 151.416 40.8591 150.968 41.1311C150.52 41.4031 150.16 41.7711 149.888 42.2351C149.632 42.6991 149.504 43.2351 149.504 43.8431C149.504 44.4351 149.632 44.9631 149.888 45.4271C150.16 45.8911 150.52 46.2591 150.968 46.5311C151.416 46.7871 151.912 46.9151 152.456 46.9151ZM148.016 49.7471C147.584 49.7471 147.264 49.6751 147.056 49.5311C146.848 49.4031 146.72 49.2351 146.672 49.0271C146.624 48.8031 146.6 48.5551 146.6 48.2831V33.9791C146.6 33.7071 146.624 33.4671 146.672 33.2591C146.72 33.0351 146.848 32.8591 147.056 32.7311C147.264 32.6031 147.584 32.5391 148.016 32.5391C148.464 32.5391 148.784 32.6031 148.976 32.7311C149.168 32.8591 149.288 33.0351 149.336 33.2591C149.384 33.4831 149.408 33.7231 149.408 33.9791V48.7631C149.344 49.1151 149.208 49.3631 149 49.5071C148.808 49.6671 148.48 49.7471 148.016 49.7471ZM172.551 49.7231C171.767 49.7231 171.063 49.5711 170.439 49.2671C169.831 48.9471 169.311 48.5151 168.879 47.9711C168.463 47.4271 168.143 46.8031 167.919 46.0991C167.711 45.3791 167.607 44.6111 167.607 43.7951C167.623 42.9791 167.743 42.2191 167.967 41.5151C168.191 40.7951 168.511 40.1711 168.927 39.6431C169.359 39.0991 169.879 38.6751 170.487 38.3711C171.095 38.0671 171.783 37.9151 172.551 37.9151C173.287 37.9151 173.975 38.0671 174.615 38.3711C175.271 38.6751 175.847 39.0991 176.343 39.6431C176.855 40.1711 177.255 40.7951 177.543 41.5151C177.831 42.2191 177.975 42.9711 177.975 43.7711C177.975 44.6031 177.831 45.3871 177.543 46.1231C177.255 46.8431 176.863 47.4751 176.367 48.0191C175.871 48.5471 175.295 48.9631 174.639 49.2671C173.983 49.5711 173.287 49.7231 172.551 49.7231ZM172.167 46.9151C172.727 46.9151 173.231 46.7871 173.679 46.5311C174.127 46.2591 174.479 45.8911 174.735 45.4271C175.007 44.9631 175.143 44.4351 175.143 43.8431C175.143 43.2351 175.007 42.6991 174.735 42.2351C174.479 41.7551 174.127 41.3871 173.679 41.1311C173.231 40.8591 172.727 40.7231 172.167 40.7231C171.623 40.7231 171.127 40.8591 170.679 41.1311C170.231 41.4031 169.871 41.7711 169.599 42.2351C169.343 42.6991 169.215 43.2351 169.215 43.8431C169.215 44.4351 169.343 44.9631 169.599 45.4271C169.871 45.8911 170.231 46.2591 170.679 46.5311C171.127 46.7871 171.623 46.9151 172.167 46.9151ZM167.727 49.7471C167.295 49.7471 166.975 49.6751 166.767 49.5311C166.559 49.4031 166.431 49.2351 166.383 49.0271C166.335 48.8031 166.311 48.5551 166.311 48.2831V33.9791C166.311 33.7071 166.335 33.4671 166.383 33.2591C166.431 33.0351 166.559 32.8591 166.767 32.7311C166.975 32.6031 167.295 32.5391 167.727 32.5391C168.175 32.5391 168.495 32.6031 168.687 32.7311C168.879 32.8591 168.999 33.0351 169.047 33.2591C169.095 33.4831 169.119 33.7231 169.119 33.9791V48.7631C169.055 49.1151 168.919 49.3631 168.711 49.5071C168.519 49.6671 168.191 49.7471 167.727 49.7471ZM185.037 49.7231C184.301 49.7231 183.621 49.5951 182.997 49.3391C182.389 49.0671 181.853 48.6831 181.389 48.1871C180.925 47.6911 180.565 47.0991 180.309 46.4111C180.053 45.7231 179.925 44.9631 179.925 44.1311V39.3551C179.925 39.0831 179.949 38.8431 179.997 38.6351C180.045 38.4111 180.173 38.2351 180.381 38.1071C180.589 37.9791 180.909 37.9151 181.341 37.9151C181.805 37.9151 182.133 37.9791 182.325 38.1071C182.533 38.2351 182.661 38.4111 182.709 38.6351C182.757 38.8591 182.781 39.1071 182.781 39.3791V44.1311C182.781 44.7071 182.877 45.2031 183.069 45.6191C183.277 46.0351 183.573 46.3631 183.957 46.6031C184.341 46.8271 184.813 46.9391 185.373 46.9391C185.949 46.9391 186.437 46.8271 186.837 46.6031C187.253 46.3631 187.573 46.0351 187.797 45.6191C188.021 45.1871 188.133 44.6911 188.133 44.1311V39.3311C188.133 39.0591 188.157 38.8191 188.205 38.6111C188.253 38.3871 188.381 38.2191 188.589 38.1071C188.797 37.9791 189.125 37.9151 189.573 37.9151C190.021 37.9151 190.341 37.9791 190.533 38.1071C190.725 38.2351 190.845 38.4111 190.893 38.6351C190.957 38.8591 190.989 39.0991 190.989 39.3551V48.3551C190.989 48.5951 190.957 48.8191 190.893 49.0271C190.845 49.2351 190.717 49.4031 190.509 49.5311C190.317 49.6591 189.997 49.7231 189.549 49.7231C189.229 49.7231 188.973 49.6831 188.781 49.6031C188.605 49.5391 188.469 49.4511 188.373 49.3391C188.293 49.2111 188.237 49.0831 188.205 48.9551C188.189 48.8271 188.181 48.6991 188.181 48.5711L188.373 47.9231C188.277 48.0671 188.133 48.2431 187.941 48.4511C187.749 48.6431 187.509 48.8431 187.221 49.0511C186.949 49.2431 186.629 49.4031 186.261 49.5311C185.893 49.6591 185.485 49.7231 185.037 49.7231ZM198.448 49.7231C197.712 49.7231 197.016 49.5711 196.36 49.2671C195.704 48.9631 195.128 48.5471 194.632 48.0191C194.136 47.4751 193.744 46.8431 193.456 46.1231C193.168 45.3871 193.024 44.6031 193.024 43.7711C193.024 42.9711 193.168 42.2191 193.456 41.5151C193.744 40.7951 194.136 40.1711 194.632 39.6431C195.144 39.0991 195.728 38.6751 196.384 38.3711C197.04 38.0671 197.728 37.9151 198.448 37.9151C199.216 37.9151 199.904 38.0671 200.512 38.3711C201.12 38.6751 201.632 39.0991 202.048 39.6431C202.48 40.1711 202.808 40.7951 203.032 41.5151C203.256 42.2191 203.376 42.9791 203.392 43.7951C203.392 44.6111 203.28 45.3791 203.056 46.0991C202.848 46.8031 202.528 47.4271 202.096 47.9711C201.68 48.5151 201.16 48.9471 200.536 49.2671C199.928 49.5711 199.232 49.7231 198.448 49.7231ZM198.832 46.9151C199.392 46.9151 199.888 46.7871 200.32 46.5311C200.768 46.2591 201.12 45.8911 201.376 45.4271C201.648 44.9631 201.784 44.4351 201.784 43.8431C201.784 43.2351 201.648 42.6991 201.376 42.2351C201.12 41.7711 200.768 41.4031 200.32 41.1311C199.888 40.8591 199.392 40.7231 198.832 40.7231C198.272 40.7231 197.768 40.8591 197.32 41.1311C196.872 41.3871 196.512 41.7551 196.24 42.2351C195.984 42.6991 195.856 43.2351 195.856 43.8431C195.856 44.4351 195.984 44.9631 196.24 45.4271C196.512 45.8911 196.872 46.2591 197.32 46.5311C197.784 46.7871 198.288 46.9151 198.832 46.9151ZM203.272 49.7231C202.824 49.7231 202.496 49.6511 202.288 49.5071C202.08 49.3471 201.944 49.0991 201.88 48.7631V33.9791C201.88 33.7071 201.896 33.4671 201.928 33.2591C201.976 33.0351 202.096 32.8591 202.288 32.7311C202.496 32.5871 202.816 32.5151 203.248 32.5151C203.712 32.5151 204.04 32.5791 204.232 32.7071C204.424 32.8351 204.544 33.0111 204.592 33.2351C204.656 33.4431 204.688 33.6831 204.688 33.9551V48.2591C204.688 48.5311 204.664 48.7791 204.616 49.0031C204.568 49.2271 204.44 49.4031 204.232 49.5311C204.04 49.6591 203.72 49.7231 203.272 49.7231ZM216.77 49.6991C216.306 49.6991 215.962 49.6111 215.738 49.4351C215.514 49.2591 215.402 49.0191 215.402 48.7151L215.57 47.9231C215.442 48.1311 215.226 48.3791 214.922 48.6671C214.618 48.9391 214.218 49.1871 213.722 49.4111C213.226 49.6191 212.626 49.7231 211.922 49.7231C211.17 49.7231 210.458 49.5711 209.786 49.2671C209.13 48.9471 208.546 48.5151 208.034 47.9711C207.538 47.4111 207.138 46.7791 206.834 46.0751C206.546 45.3551 206.402 44.5871 206.402 43.7711C206.402 42.9871 206.546 42.2511 206.834 41.5631C207.138 40.8591 207.546 40.2351 208.058 39.6911C208.57 39.1471 209.154 38.7231 209.81 38.4191C210.482 38.0991 211.186 37.9391 211.922 37.9391C212.578 37.9391 213.13 38.0271 213.578 38.2031C214.042 38.3791 214.434 38.6031 214.754 38.8751C215.074 39.1311 215.338 39.4031 215.546 39.6911L215.402 38.9951C215.402 38.6431 215.514 38.3791 215.738 38.2031C215.962 38.0111 216.314 37.9151 216.794 37.9151C217.242 37.9151 217.562 37.9871 217.754 38.1311C217.946 38.2591 218.066 38.4431 218.114 38.6831C218.162 38.9071 218.186 39.1631 218.186 39.4511V48.2351C218.186 48.5071 218.162 48.7551 218.114 48.9791C218.066 49.2031 217.938 49.3791 217.73 49.5071C217.538 49.6351 217.218 49.6991 216.77 49.6991ZM212.354 46.9151C212.898 46.9151 213.386 46.7791 213.818 46.5071C214.25 46.2351 214.594 45.8671 214.85 45.4031C215.122 44.9231 215.258 44.3951 215.258 43.8191C215.258 43.1951 215.122 42.6511 214.85 42.1871C214.578 41.7231 214.218 41.3631 213.77 41.1071C213.338 40.8351 212.85 40.6991 212.306 40.6991C211.714 40.6991 211.186 40.8431 210.722 41.1311C210.258 41.4031 209.89 41.7791 209.618 42.2591C209.362 42.7231 209.234 43.2511 209.234 43.8431C209.234 44.4191 209.37 44.9391 209.642 45.4031C209.914 45.8671 210.282 46.2351 210.746 46.5071C211.226 46.7791 211.762 46.9151 212.354 46.9151ZM223.101 54.4751C222.589 54.2511 222.293 53.9951 222.213 53.7071C222.133 53.4351 222.205 53.0671 222.429 52.6031L228.621 38.7311C228.845 38.2191 229.085 37.9151 229.341 37.8191C229.597 37.7071 229.989 37.7631 230.517 37.9871C231.013 38.2111 231.301 38.4591 231.381 38.7311C231.477 39.0031 231.421 39.3711 231.213 39.8351L224.973 53.7791C224.765 54.2911 224.533 54.5871 224.277 54.6671C224.021 54.7631 223.629 54.6991 223.101 54.4751ZM225.333 48.5951L219.789 40.0751C219.501 39.6431 219.381 39.2831 219.429 38.9951C219.493 38.7071 219.749 38.4271 220.197 38.1551C220.693 37.8511 221.077 37.7311 221.349 37.7951C221.637 37.8591 221.925 38.1151 222.213 38.5631L226.605 45.4031L225.333 48.5951ZM242.997 49.6991C242.533 49.6991 242.189 49.6111 241.965 49.4351C241.741 49.2591 241.629 49.0191 241.629 48.7151L241.797 47.9231C241.669 48.1311 241.453 48.3791 241.149 48.6671C240.845 48.9391 240.445 49.1871 239.949 49.4111C239.453 49.6191 238.853 49.7231 238.149 49.7231C237.397 49.7231 236.685 49.5711 236.013 49.2671C235.357 48.9471 234.773 48.5151 234.261 47.9711C233.765 47.4111 233.365 46.7791 233.061 46.0751C232.773 45.3551 232.629 44.5871 232.629 43.7711C232.629 42.9871 232.773 42.2511 233.061 41.5631C233.365 40.8591 233.773 40.2351 234.285 39.6911C234.797 39.1471 235.381 38.7231 236.037 38.4191C236.709 38.0991 237.413 37.9391 238.149 37.9391C238.805 37.9391 239.357 38.0271 239.805 38.2031C240.269 38.3791 240.661 38.6031 240.981 38.8751C241.301 39.1311 241.565 39.4031 241.773 39.6911L241.629 38.9951C241.629 38.6431 241.741 38.3791 241.965 38.2031C242.189 38.0111 242.541 37.9151 243.021 37.9151C243.469 37.9151 243.789 37.9871 243.981 38.1311C244.173 38.2591 244.293 38.4431 244.341 38.6831C244.389 38.9071 244.413 39.1631 244.413 39.4511V48.2351C244.413 48.5071 244.389 48.7551 244.341 48.9791C244.293 49.2031 244.165 49.3791 243.957 49.5071C243.765 49.6351 243.445 49.6991 242.997 49.6991ZM238.581 46.9151C239.125 46.9151 239.613 46.7791 240.045 46.5071C240.477 46.2351 240.821 45.8671 241.077 45.4031C241.349 44.9231 241.485 44.3951 241.485 43.8191C241.485 43.1951 241.349 42.6511 241.077 42.1871C240.805 41.7231 240.445 41.3631 239.997 41.1071C239.565 40.8351 239.077 40.6991 238.533 40.6991C237.941 40.6991 237.413 40.8431 236.949 41.1311C236.485 41.4031 236.117 41.7791 235.845 42.2591C235.589 42.7231 235.461 43.2511 235.461 43.8431C235.461 44.4191 235.597 44.9391 235.869 45.4031C236.141 45.8671 236.509 46.2351 236.973 46.5071C237.453 46.7791 237.989 46.9151 238.581 46.9151ZM256.878 49.8911C256.462 49.8911 256.022 49.8431 255.558 49.7471C255.094 49.6671 254.646 49.5471 254.214 49.3871C253.782 49.2111 253.406 49.0111 253.086 48.7871C252.782 48.5471 252.59 48.2831 252.51 47.9951C252.446 47.8351 252.422 47.6831 252.438 47.5391C252.454 47.3791 252.502 47.2191 252.582 47.0591C252.662 46.8831 252.782 46.7071 252.942 46.5311C253.086 46.3551 253.23 46.2591 253.374 46.2431C253.534 46.2111 253.734 46.2591 253.974 46.3871C254.182 46.4671 254.406 46.5711 254.646 46.6991C254.902 46.8271 255.158 46.9551 255.414 47.0831C255.686 47.2111 255.958 47.3151 256.23 47.3951C256.518 47.4751 256.798 47.5151 257.07 47.5151C257.662 47.5151 258.134 47.4191 258.486 47.2271C258.838 47.0191 259.014 46.7311 259.014 46.3631C259.014 46.1551 258.958 45.9711 258.846 45.8111C258.734 45.6511 258.582 45.5231 258.39 45.4271C258.214 45.3151 257.998 45.2191 257.742 45.1391C257.502 45.0431 257.238 44.9631 256.95 44.8991C256.678 44.8191 256.39 44.7311 256.086 44.6351C255.686 44.5231 255.286 44.3871 254.886 44.2271C254.486 44.0671 254.126 43.8591 253.806 43.6031C253.502 43.3471 253.254 43.0271 253.062 42.6431C252.87 42.2591 252.774 41.7791 252.774 41.2031C252.774 40.4831 252.942 39.8751 253.278 39.3791C253.63 38.8671 254.134 38.4751 254.79 38.2031C255.446 37.9311 256.238 37.7951 257.166 37.7951C257.486 37.7951 257.79 37.8191 258.078 37.8671C258.382 37.9151 258.67 37.9871 258.942 38.0831C259.23 38.1631 259.502 38.2671 259.758 38.3951C260.03 38.5231 260.286 38.6671 260.526 38.8271C260.926 39.0511 261.134 39.3151 261.15 39.6191C261.166 39.9071 261.054 40.2191 260.814 40.5551C260.638 40.7791 260.462 40.9391 260.286 41.0351C260.11 41.1151 259.926 41.1151 259.734 41.0351C259.478 40.9071 259.198 40.7711 258.894 40.6271C258.606 40.4671 258.302 40.3311 257.982 40.2191C257.678 40.1071 257.358 40.0511 257.022 40.0511C256.702 40.0511 256.414 40.0991 256.158 40.1951C255.902 40.2911 255.71 40.4271 255.582 40.6031C255.454 40.7791 255.39 40.9871 255.39 41.2271C255.39 41.4511 255.454 41.6351 255.582 41.7791C255.71 41.9231 255.878 42.0431 256.086 42.1391C256.294 42.2351 256.542 42.3231 256.83 42.4031C257.118 42.4671 257.422 42.5311 257.742 42.5951C258.19 42.6911 258.646 42.8111 259.11 42.9551C259.574 43.0991 259.998 43.2991 260.382 43.5551C260.782 43.8111 261.102 44.1551 261.342 44.5871C261.582 45.0031 261.702 45.5471 261.702 46.2191C261.702 47.3871 261.27 48.2911 260.406 48.9311C259.558 49.5711 258.382 49.8911 256.878 49.8911ZM269.501 49.8911C268.461 49.8911 267.549 49.7231 266.765 49.3871C265.997 49.0511 265.349 48.5951 264.821 48.0191C264.309 47.4271 263.917 46.7711 263.645 46.0511C263.389 45.3151 263.261 44.5551 263.261 43.7711C263.261 42.6191 263.525 41.5951 264.053 40.6991C264.581 39.8031 265.309 39.0991 266.237 38.5871C267.181 38.0751 268.261 37.8191 269.477 37.8191C270.341 37.8191 271.101 37.9551 271.757 38.2271C272.413 38.4991 272.957 38.8591 273.389 39.3071C273.837 39.7391 274.173 40.2191 274.397 40.7471C274.637 41.2751 274.757 41.7871 274.757 42.2831C274.757 43.1311 274.549 43.7471 274.133 44.1311C273.733 44.5151 273.229 44.7071 272.621 44.7071H266.285C266.301 45.2511 266.469 45.7231 266.789 46.1231C267.125 46.5231 267.541 46.8351 268.037 47.0591C268.549 47.2671 269.069 47.3711 269.597 47.3711C269.997 47.3711 270.349 47.3471 270.653 47.2991C270.973 47.2511 271.245 47.1951 271.469 47.1311C271.693 47.0511 271.885 46.9711 272.045 46.8911C272.221 46.8111 272.381 46.7391 272.525 46.6751C272.669 46.6111 272.805 46.5711 272.933 46.5551C273.109 46.5391 273.285 46.5791 273.461 46.6751C273.637 46.7711 273.781 46.9391 273.893 47.1791C273.989 47.3391 274.053 47.4911 274.085 47.6351C274.133 47.7631 274.157 47.8911 274.157 48.0191C274.157 48.3391 273.965 48.6431 273.581 48.9311C273.197 49.2031 272.653 49.4271 271.949 49.6031C271.261 49.7951 270.445 49.8911 269.501 49.8911ZM266.285 43.0031H271.205C271.477 43.0031 271.685 42.9631 271.829 42.8831C271.973 42.7871 272.045 42.5951 272.045 42.3071C272.045 41.9391 271.933 41.6111 271.709 41.3231C271.485 41.0191 271.181 40.7871 270.797 40.6271C270.413 40.4511 269.965 40.3631 269.453 40.3631C268.861 40.3631 268.325 40.4831 267.845 40.7231C267.365 40.9471 266.981 41.2591 266.693 41.6591C266.421 42.0591 266.285 42.5071 266.285 43.0031ZM286.135 47.1551C286.551 47.5071 286.767 47.8351 286.783 48.1391C286.815 48.4431 286.655 48.7951 286.303 49.1951C286.031 49.4991 285.791 49.6991 285.583 49.7951C285.375 49.8911 285.167 49.8911 284.959 49.7951C284.751 49.7151 284.503 49.5551 284.215 49.3151L279.631 45.4511V48.3071C279.631 48.5631 279.599 48.8031 279.535 49.0271C279.487 49.2511 279.359 49.4271 279.151 49.5551C278.959 49.6831 278.639 49.7471 278.191 49.7471C277.743 49.7471 277.415 49.6751 277.207 49.5311C277.015 49.4031 276.895 49.2271 276.847 49.0031C276.799 48.7791 276.775 48.5391 276.775 48.2831V33.9551C276.775 33.6831 276.799 33.4431 276.847 33.2351C276.911 33.0111 277.039 32.8351 277.231 32.7071C277.439 32.5631 277.767 32.4911 278.215 32.4911C278.663 32.4911 278.983 32.5631 279.175 32.7071C279.367 32.8351 279.487 33.0111 279.535 33.2351C279.599 33.4431 279.631 33.6911 279.631 33.9791V41.8511L282.943 38.6351C283.199 38.3951 283.439 38.2351 283.663 38.1551C283.887 38.0591 284.103 38.0511 284.311 38.1311C284.535 38.1951 284.767 38.3631 285.007 38.6351C285.407 39.0671 285.599 39.4271 285.583 39.7151C285.567 39.9871 285.367 40.3151 284.983 40.6991L281.743 43.6991L286.135 47.1551ZM293.45 49.8911C292.682 49.8911 291.93 49.7471 291.194 49.4591C290.474 49.1551 289.818 48.7311 289.226 48.1871C288.65 47.6431 288.186 47.0031 287.834 46.2671C287.498 45.5311 287.33 44.7231 287.33 43.8431C287.33 42.9951 287.49 42.2031 287.81 41.4671C288.13 40.7311 288.57 40.0831 289.13 39.5231C289.69 38.9631 290.33 38.5311 291.05 38.2271C291.786 37.9071 292.57 37.7471 293.402 37.7471C294.522 37.7471 295.538 38.0191 296.45 38.5631C297.362 39.0911 298.09 39.8111 298.634 40.7231C299.178 41.6351 299.45 42.6671 299.45 43.8191C299.45 44.7311 299.282 45.5631 298.946 46.3151C298.61 47.0511 298.154 47.6911 297.578 48.2351C297.002 48.7631 296.354 49.1711 295.634 49.4591C294.93 49.7471 294.202 49.8911 293.45 49.8911ZM293.402 47.0591C293.93 47.0591 294.434 46.9311 294.914 46.6751C295.41 46.4031 295.81 46.0191 296.114 45.5231C296.434 45.0271 296.594 44.4431 296.594 43.7711C296.594 43.1471 296.45 42.5951 296.162 42.1151C295.89 41.6351 295.514 41.2591 295.034 40.9871C294.554 40.7151 294.002 40.5791 293.378 40.5791C292.786 40.5791 292.25 40.7231 291.77 41.0111C291.29 41.2831 290.906 41.6671 290.618 42.1631C290.346 42.6431 290.21 43.1871 290.21 43.7951C290.21 44.4671 290.362 45.0511 290.666 45.5471C290.97 46.0271 291.362 46.4031 291.842 46.6751C292.338 46.9311 292.858 47.0591 293.402 47.0591ZM305.464 49.7471C304.872 49.7471 304.344 49.7071 303.88 49.6271C303.432 49.5471 303.04 49.4111 302.704 49.2191C302.384 49.0271 302.12 48.7711 301.912 48.4511C301.704 48.1151 301.544 47.7071 301.432 47.2271C301.336 46.7471 301.288 46.1711 301.288 45.4991V33.9311C301.288 33.6591 301.312 33.4191 301.36 33.2111C301.424 32.9871 301.552 32.8111 301.744 32.6831C301.952 32.5391 302.28 32.4671 302.728 32.4671C303.176 32.4671 303.496 32.5311 303.688 32.6591C303.896 32.7871 304.024 32.9631 304.072 33.1871C304.136 33.3951 304.168 33.6351 304.168 33.9071V45.3791C304.168 45.6831 304.184 45.9391 304.216 46.1471C304.264 46.3391 304.336 46.4991 304.432 46.6271C304.544 46.7391 304.68 46.8191 304.84 46.8671C305.016 46.9151 305.224 46.9391 305.464 46.9391C305.672 46.9391 305.856 46.9631 306.016 47.0111C306.192 47.0591 306.328 47.1791 306.424 47.3711C306.536 47.5631 306.592 47.8751 306.592 48.3071C306.592 48.7551 306.536 49.0831 306.424 49.2911C306.328 49.4991 306.192 49.6271 306.016 49.6751C305.84 49.7231 305.656 49.7471 305.464 49.7471ZM318.161 49.6991C317.697 49.6991 317.353 49.6111 317.129 49.4351C316.905 49.2591 316.793 49.0191 316.793 48.7151L316.961 47.9231C316.833 48.1311 316.617 48.3791 316.313 48.6671C316.009 48.9391 315.609 49.1871 315.113 49.4111C314.617 49.6191 314.017 49.7231 313.313 49.7231C312.561 49.7231 311.849 49.5711 311.177 49.2671C310.521 48.9471 309.937 48.5151 309.425 47.9711C308.929 47.4111 308.529 46.7791 308.225 46.0751C307.937 45.3551 307.793 44.5871 307.793 43.7711C307.793 42.9871 307.937 42.2511 308.225 41.5631C308.529 40.8591 308.937 40.2351 309.449 39.6911C309.961 39.1471 310.545 38.7231 311.201 38.4191C311.873 38.0991 312.577 37.9391 313.313 37.9391C313.969 37.9391 314.521 38.0271 314.969 38.2031C315.433 38.3791 315.825 38.6031 316.145 38.8751C316.465 39.1311 316.729 39.4031 316.937 39.6911L316.793 38.9951C316.793 38.6431 316.905 38.3791 317.129 38.2031C317.353 38.0111 317.705 37.9151 318.185 37.9151C318.633 37.9151 318.953 37.9871 319.145 38.1311C319.337 38.2591 319.457 38.4431 319.505 38.6831C319.553 38.9071 319.577 39.1631 319.577 39.4511V48.2351C319.577 48.5071 319.553 48.7551 319.505 48.9791C319.457 49.2031 319.329 49.3791 319.121 49.5071C318.929 49.6351 318.609 49.6991 318.161 49.6991ZM313.745 46.9151C314.289 46.9151 314.777 46.7791 315.209 46.5071C315.641 46.2351 315.985 45.8671 316.241 45.4031C316.513 44.9231 316.649 44.3951 316.649 43.8191C316.649 43.1951 316.513 42.6511 316.241 42.1871C315.969 41.7231 315.609 41.3631 315.161 41.1071C314.729 40.8351 314.241 40.6991 313.697 40.6991C313.105 40.6991 312.577 40.8431 312.113 41.1311C311.649 41.4031 311.281 41.7791 311.009 42.2591C310.753 42.7231 310.625 43.2511 310.625 43.8431C310.625 44.4191 310.761 44.9391 311.033 45.4031C311.305 45.8671 311.673 46.2351 312.137 46.5071C312.617 46.7791 313.153 46.9151 313.745 46.9151ZM323.281 49.7471C322.833 49.7471 322.505 49.6751 322.297 49.5311C322.105 49.4031 321.985 49.2271 321.937 49.0031C321.889 48.7791 321.865 48.5391 321.865 48.2831V33.9551C321.865 33.6831 321.889 33.4431 321.937 33.2351C322.001 33.0111 322.129 32.8351 322.321 32.7071C322.529 32.5791 322.857 32.5151 323.305 32.5151C323.753 32.5151 324.073 32.5871 324.265 32.7311C324.473 32.8591 324.601 33.0351 324.649 33.2591C324.713 33.4671 324.745 33.7071 324.745 33.9791V39.4031C325.065 39.0351 325.473 38.6991 325.969 38.3951C326.481 38.0751 327.097 37.9151 327.817 37.9151C328.793 37.9151 329.665 38.1551 330.433 38.6351C331.201 39.0991 331.809 39.7471 332.257 40.5791C332.705 41.4111 332.929 42.3871 332.929 43.5071V48.3071C332.929 48.5631 332.905 48.8031 332.857 49.0271C332.809 49.2351 332.681 49.4031 332.473 49.5311C332.281 49.6591 331.961 49.7231 331.513 49.7231C331.065 49.7231 330.737 49.6591 330.529 49.5311C330.321 49.4031 330.193 49.2351 330.145 49.0271C330.097 48.8031 330.073 48.5471 330.073 48.2591V43.4831C330.073 42.9231 329.977 42.4351 329.785 42.0191C329.593 41.6031 329.305 41.2831 328.921 41.0591C328.553 40.8191 328.089 40.6991 327.529 40.6991C326.777 40.6991 326.145 40.9231 325.633 41.3711C325.121 41.8031 324.825 42.3631 324.745 43.0511V48.3071C324.745 48.5631 324.713 48.8031 324.649 49.0271C324.601 49.2511 324.473 49.4271 324.265 49.5551C324.073 49.6831 323.745 49.7471 323.281 49.7471ZM82.2325 78.5791C81.4485 78.5791 80.7445 78.4351 80.1205 78.1471C79.5125 77.8431 78.9925 77.4271 78.5605 76.8991C78.1445 76.3551 77.8245 75.7311 77.6005 75.0271C77.3925 74.3231 77.2885 73.5631 77.2885 72.7471C77.3045 71.9311 77.4245 71.1711 77.6485 70.4671C77.8725 69.7471 78.1925 69.1231 78.6085 68.5951C79.0405 68.0671 79.5605 67.6511 80.1685 67.3471C80.7765 67.0431 81.4645 66.8911 82.2325 66.8911C82.9685 66.8911 83.6565 67.0431 84.2965 67.3471C84.9525 67.6511 85.5285 68.0751 86.0245 68.6191C86.5365 69.1631 86.9365 69.7951 87.2245 70.5151C87.5125 71.2191 87.6565 71.9791 87.6565 72.7951C87.6565 73.6271 87.5125 74.3951 87.2245 75.0991C86.9365 75.8031 86.5445 76.4191 86.0485 76.9471C85.5525 77.4591 84.9765 77.8591 84.3205 78.1471C83.6645 78.4351 82.9685 78.5791 82.2325 78.5791ZM77.4325 83.5711C77.0005 83.5711 76.6805 83.5071 76.4725 83.3791C76.2645 83.2511 76.1365 83.0831 76.0885 82.8751C76.0405 82.6671 76.0165 82.4271 76.0165 82.1551V68.3551C76.0165 68.0831 76.0405 67.8431 76.0885 67.6351C76.1365 67.4271 76.2565 67.2591 76.4485 67.1311C76.6565 66.9871 76.9765 66.9151 77.4085 66.9151C77.8245 66.9151 78.1525 66.9791 78.3925 67.1071C78.6325 67.2351 78.7925 67.4511 78.8725 67.7551V82.1311C78.8885 82.4031 78.8645 82.6431 78.8005 82.8511C78.7525 83.0751 78.6245 83.2511 78.4165 83.3791C78.2085 83.5071 77.8805 83.5711 77.4325 83.5711ZM81.8485 75.8911C82.4085 75.8911 82.9125 75.7631 83.3605 75.5071C83.8085 75.2351 84.1605 74.8671 84.4165 74.4031C84.6885 73.9231 84.8245 73.3871 84.8245 72.7951C84.8245 72.1871 84.6885 71.6511 84.4165 71.1871C84.1605 70.7231 83.8085 70.3631 83.3605 70.1071C82.9125 69.8351 82.4085 69.6991 81.8485 69.6991C81.3045 69.6991 80.8085 69.8351 80.3605 70.1071C79.9125 70.3791 79.5525 70.7471 79.2805 71.2111C79.0245 71.6591 78.8965 72.1871 78.8965 72.7951C78.8965 73.3871 79.0245 73.9231 79.2805 74.4031C79.5525 74.8671 79.9125 75.2351 80.3605 75.5071C80.8085 75.7631 81.3045 75.8911 81.8485 75.8911ZM95.3959 78.8911C94.3559 78.8911 93.4439 78.7231 92.6599 78.3871C91.8919 78.0511 91.2439 77.5951 90.7159 77.0191C90.2039 76.4271 89.8119 75.7711 89.5399 75.0511C89.2839 74.3151 89.1559 73.5551 89.1559 72.7711C89.1559 71.6191 89.4199 70.5951 89.9479 69.6991C90.4759 68.8031 91.2039 68.0991 92.1319 67.5871C93.0759 67.0751 94.1559 66.8191 95.3719 66.8191C96.2359 66.8191 96.9959 66.9551 97.6519 67.2271C98.3079 67.4991 98.8519 67.8591 99.2839 68.3071C99.7319 68.7391 100.068 69.2191 100.292 69.7471C100.532 70.2751 100.652 70.7871 100.652 71.2831C100.652 72.1311 100.444 72.7471 100.028 73.1311C99.6279 73.5151 99.1239 73.7071 98.5159 73.7071H92.1799C92.1959 74.2511 92.3639 74.7231 92.6839 75.1231C93.0199 75.5231 93.4359 75.8351 93.9319 76.0591C94.4439 76.2671 94.9639 76.3711 95.4919 76.3711C95.8919 76.3711 96.2439 76.3471 96.5479 76.2991C96.8679 76.2511 97.1399 76.1951 97.3639 76.1311C97.5879 76.0511 97.7799 75.9711 97.9399 75.8911C98.1159 75.8111 98.2759 75.7391 98.4199 75.6751C98.5639 75.6111 98.6999 75.5711 98.8279 75.5551C99.0039 75.5391 99.1799 75.5791 99.3559 75.6751C99.5319 75.7711 99.6759 75.9391 99.7879 76.1791C99.8839 76.3391 99.9479 76.4911 99.9799 76.6351C100.028 76.7631 100.052 76.8911 100.052 77.0191C100.052 77.3391 99.8599 77.6431 99.4759 77.9311C99.0919 78.2031 98.5479 78.4271 97.8439 78.6031C97.1559 78.7951 96.3399 78.8911 95.3959 78.8911ZM92.1799 72.0031H97.0999C97.3719 72.0031 97.5799 71.9631 97.7239 71.8831C97.8679 71.7871 97.9399 71.5951 97.9399 71.3071C97.9399 70.9391 97.8279 70.6111 97.6039 70.3231C97.3799 70.0191 97.0759 69.7871 96.6919 69.6271C96.3079 69.4511 95.8599 69.3631 95.3479 69.3631C94.7559 69.3631 94.2199 69.4831 93.7399 69.7231C93.2599 69.9471 92.8759 70.2591 92.5879 70.6591C92.3159 71.0591 92.1799 71.5071 92.1799 72.0031ZM104.037 78.7471C103.605 78.7471 103.285 78.6751 103.077 78.5311C102.885 78.4031 102.765 78.2271 102.717 78.0031C102.669 77.7791 102.645 77.5311 102.645 77.2591V68.3551C102.645 68.0671 102.669 67.8191 102.717 67.6111C102.765 67.3871 102.885 67.2191 103.077 67.1071C103.285 66.9791 103.613 66.9151 104.061 66.9151C104.493 66.9151 104.805 66.9711 104.997 67.0831C105.205 67.1951 105.333 67.3391 105.381 67.5151C105.445 67.6751 105.477 67.8351 105.477 67.9951L105.285 68.4271C105.365 68.2991 105.477 68.1471 105.621 67.9711C105.765 67.7791 105.957 67.5951 106.197 67.4191C106.437 67.2271 106.725 67.0751 107.061 66.9631C107.397 66.8351 107.797 66.7711 108.261 66.7711C108.453 66.7711 108.653 66.7951 108.861 66.8431C109.085 66.8751 109.301 66.9311 109.509 67.0111C109.733 67.0751 109.933 67.1631 110.109 67.2751C110.285 67.3871 110.421 67.5231 110.517 67.6831C110.613 67.8271 110.661 67.9951 110.661 68.1871C110.661 68.6991 110.533 69.1311 110.277 69.4831C110.021 69.8351 109.717 70.0111 109.365 70.0111C109.125 70.0111 108.949 69.9871 108.837 69.9391C108.725 69.8911 108.629 69.8351 108.549 69.7711C108.485 69.7071 108.381 69.6511 108.237 69.6031C108.109 69.5551 107.901 69.5311 107.613 69.5311C107.373 69.5311 107.125 69.5711 106.869 69.6511C106.629 69.7311 106.405 69.8511 106.197 70.0111C105.989 70.1711 105.821 70.3791 105.693 70.6351C105.565 70.8751 105.501 71.1551 105.501 71.4751V77.3071C105.501 77.5791 105.477 77.8271 105.429 78.0511C105.381 78.2591 105.253 78.4271 105.045 78.5551C104.837 78.6831 104.501 78.7471 104.037 78.7471ZM113.974 78.7231C113.542 78.7231 113.222 78.6591 113.014 78.5311C112.822 78.4031 112.702 78.2271 112.654 78.0031C112.606 77.7791 112.582 77.5391 112.582 77.2831V68.3071C112.582 68.0511 112.606 67.8191 112.654 67.6111C112.702 67.4031 112.83 67.2351 113.038 67.1071C113.246 66.9791 113.574 66.9151 114.022 66.9151C114.486 66.9151 114.822 67.0111 115.03 67.2031C115.254 67.3951 115.366 67.6991 115.366 68.1151L115.15 68.7871C115.23 68.6111 115.366 68.4191 115.558 68.2111C115.75 68.0031 115.982 67.7951 116.254 67.5871C116.542 67.3791 116.862 67.2111 117.214 67.0831C117.566 66.9551 117.934 66.8911 118.318 66.8911C118.846 66.8911 119.326 66.9791 119.758 67.1551C120.206 67.3311 120.598 67.5871 120.934 67.9231C121.286 68.2591 121.59 68.6671 121.846 69.1471C122.118 68.7311 122.422 68.3551 122.758 68.0191C123.094 67.6671 123.486 67.3951 123.934 67.2031C124.382 66.9951 124.886 66.8911 125.446 66.8911C126.374 66.8911 127.15 67.1231 127.774 67.5871C128.414 68.0511 128.894 68.7151 129.214 69.5791C129.55 70.4271 129.718 71.4431 129.718 72.6271V77.2831C129.718 77.5551 129.686 77.8031 129.622 78.0271C129.574 78.2351 129.446 78.4031 129.238 78.5311C129.046 78.6591 128.726 78.7231 128.278 78.7231C127.83 78.7231 127.502 78.6511 127.294 78.5071C127.086 78.3791 126.958 78.2111 126.91 78.0031C126.862 77.7791 126.838 77.5311 126.838 77.2591V72.6031C126.838 72.0111 126.766 71.4991 126.622 71.0671C126.478 70.6351 126.262 70.2991 125.974 70.0591C125.702 69.8191 125.342 69.6991 124.894 69.6991C124.414 69.6991 123.998 69.8191 123.646 70.0591C123.31 70.2831 123.046 70.6111 122.854 71.0431C122.662 71.4751 122.566 72.0031 122.566 72.6271V77.3071C122.566 77.5791 122.526 77.8351 122.446 78.0751C122.366 78.2991 122.206 78.4671 121.966 78.5791C121.742 78.7071 121.414 78.7551 120.982 78.7231C120.582 78.7071 120.286 78.6271 120.094 78.4831C119.918 78.3391 119.806 78.1631 119.758 77.9551C119.726 77.7311 119.71 77.4991 119.71 77.2591V72.6031C119.71 72.0111 119.638 71.4991 119.494 71.0671C119.35 70.6191 119.134 70.2831 118.846 70.0591C118.574 69.8191 118.206 69.6991 117.742 69.6991C117.246 69.6991 116.822 69.8271 116.47 70.0831C116.134 70.3391 115.878 70.6831 115.702 71.1151C115.526 71.5471 115.438 72.0431 115.438 72.6031V77.3071C115.438 77.5631 115.406 77.8031 115.342 78.0271C115.294 78.2511 115.166 78.4191 114.958 78.5311C114.766 78.6591 114.438 78.7231 113.974 78.7231ZM133.665 78.7471C133.233 78.7471 132.913 78.6751 132.705 78.5311C132.497 78.4031 132.369 78.2351 132.321 78.0271C132.273 77.8031 132.249 77.5551 132.249 77.2831V68.3551C132.249 68.0991 132.273 67.8671 132.321 67.6591C132.385 67.4351 132.513 67.2591 132.705 67.1311C132.913 67.0031 133.241 66.9391 133.689 66.9391C134.137 66.9391 134.457 67.0031 134.649 67.1311C134.857 67.2591 134.985 67.4351 135.033 67.6591C135.081 67.8831 135.105 68.1311 135.105 68.4031V77.3071C135.105 77.5791 135.081 77.8271 135.033 78.0511C134.985 78.2591 134.857 78.4271 134.649 78.5551C134.457 78.6831 134.129 78.7471 133.665 78.7471ZM133.665 64.6111C133.201 64.6111 132.857 64.5471 132.633 64.4191C132.425 64.2751 132.289 64.0831 132.225 63.8431C132.177 63.6031 132.153 63.3391 132.153 63.0511C132.153 62.7471 132.177 62.4831 132.225 62.2591C132.289 62.0351 132.433 61.8591 132.657 61.7311C132.881 61.5871 133.225 61.5151 133.689 61.5151C134.169 61.5151 134.513 61.5871 134.721 61.7311C134.929 61.8751 135.065 62.0671 135.129 62.3071C135.193 62.5311 135.225 62.7951 135.225 63.0991C135.225 63.3711 135.193 63.6271 135.129 63.8671C135.065 64.1071 134.929 64.2911 134.721 64.4191C134.513 64.5471 134.161 64.6111 133.665 64.6111ZM141.835 78.8911C141.419 78.8911 140.979 78.8431 140.515 78.7471C140.051 78.6671 139.603 78.5471 139.171 78.3871C138.739 78.2111 138.363 78.0111 138.043 77.7871C137.739 77.5471 137.547 77.2831 137.467 76.9951C137.403 76.8351 137.379 76.6831 137.395 76.5391C137.411 76.3791 137.459 76.2191 137.539 76.0591C137.619 75.8831 137.739 75.7071 137.899 75.5311C138.043 75.3551 138.187 75.2591 138.331 75.2431C138.491 75.2111 138.691 75.2591 138.931 75.3871C139.139 75.4671 139.363 75.5711 139.603 75.6991C139.859 75.8271 140.115 75.9551 140.371 76.0831C140.643 76.2111 140.915 76.3151 141.187 76.3951C141.475 76.4751 141.755 76.5151 142.027 76.5151C142.619 76.5151 143.091 76.4191 143.443 76.2271C143.795 76.0191 143.971 75.7311 143.971 75.3631C143.971 75.1551 143.915 74.9711 143.803 74.8111C143.691 74.6511 143.539 74.5231 143.347 74.4271C143.171 74.3151 142.955 74.2191 142.699 74.1391C142.459 74.0431 142.195 73.9631 141.907 73.8991C141.635 73.8191 141.347 73.7311 141.043 73.6351C140.643 73.5231 140.243 73.3871 139.843 73.2271C139.443 73.0671 139.083 72.8591 138.763 72.6031C138.459 72.3471 138.211 72.0271 138.019 71.6431C137.827 71.2591 137.731 70.7791 137.731 70.2031C137.731 69.4831 137.899 68.8751 138.235 68.3791C138.587 67.8671 139.091 67.4751 139.747 67.2031C140.403 66.9311 141.195 66.7951 142.123 66.7951C142.443 66.7951 142.747 66.8191 143.035 66.8671C143.339 66.9151 143.627 66.9871 143.899 67.0831C144.187 67.1631 144.459 67.2671 144.715 67.3951C144.987 67.5231 145.243 67.6671 145.483 67.8271C145.883 68.0511 146.091 68.3151 146.107 68.6191C146.123 68.9071 146.011 69.2191 145.771 69.5551C145.595 69.7791 145.419 69.9391 145.243 70.0351C145.067 70.1151 144.883 70.1151 144.691 70.0351C144.435 69.9071 144.155 69.7711 143.851 69.6271C143.563 69.4671 143.259 69.3311 142.939 69.2191C142.635 69.1071 142.315 69.0511 141.979 69.0511C141.659 69.0511 141.371 69.0991 141.115 69.1951C140.859 69.2911 140.667 69.4271 140.539 69.6031C140.411 69.7791 140.347 69.9871 140.347 70.2271C140.347 70.4511 140.411 70.6351 140.539 70.7791C140.667 70.9231 140.835 71.0431 141.043 71.1391C141.251 71.2351 141.499 71.3231 141.787 71.4031C142.075 71.4671 142.379 71.5311 142.699 71.5951C143.147 71.6911 143.603 71.8111 144.067 71.9551C144.531 72.0991 144.955 72.2991 145.339 72.5551C145.739 72.8111 146.059 73.1551 146.299 73.5871C146.539 74.0031 146.659 74.5471 146.659 75.2191C146.659 76.3871 146.227 77.2911 145.363 77.9311C144.515 78.5711 143.339 78.8911 141.835 78.8911ZM150.282 78.7471C149.85 78.7471 149.53 78.6751 149.322 78.5311C149.114 78.4031 148.986 78.2351 148.938 78.0271C148.89 77.8031 148.866 77.5551 148.866 77.2831V68.3551C148.866 68.0991 148.89 67.8671 148.938 67.6591C149.002 67.4351 149.13 67.2591 149.322 67.1311C149.53 67.0031 149.858 66.9391 150.306 66.9391C150.754 66.9391 151.074 67.0031 151.266 67.1311C151.474 67.2591 151.602 67.4351 151.65 67.6591C151.698 67.8831 151.722 68.1311 151.722 68.4031V77.3071C151.722 77.5791 151.698 77.8271 151.65 78.0511C151.602 78.2591 151.474 78.4271 151.266 78.5551C151.074 78.6831 150.746 78.7471 150.282 78.7471ZM150.282 64.6111C149.818 64.6111 149.474 64.5471 149.25 64.4191C149.042 64.2751 148.906 64.0831 148.842 63.8431C148.794 63.6031 148.77 63.3391 148.77 63.0511C148.77 62.7471 148.794 62.4831 148.842 62.2591C148.906 62.0351 149.05 61.8591 149.274 61.7311C149.498 61.5871 149.842 61.5151 150.306 61.5151C150.786 61.5151 151.13 61.5871 151.338 61.7311C151.546 61.8751 151.682 62.0671 151.746 62.3071C151.81 62.5311 151.842 62.7951 151.842 63.0991C151.842 63.3711 151.81 63.6271 151.746 63.8671C151.682 64.1071 151.546 64.2911 151.338 64.4191C151.13 64.5471 150.778 64.6111 150.282 64.6111ZM156.827 78.7471C156.395 78.7471 156.075 78.6831 155.867 78.5551C155.675 78.4271 155.555 78.2511 155.507 78.0271C155.459 77.7871 155.435 77.5391 155.435 77.2831V65.6191C155.435 65.0271 155.515 64.4831 155.675 63.9871C155.835 63.4751 156.091 63.0351 156.443 62.6671C156.795 62.2991 157.251 62.0111 157.811 61.8031C158.371 61.5791 159.051 61.4671 159.851 61.4671C160.123 61.4671 160.363 61.4991 160.571 61.5631C160.795 61.6111 160.971 61.7311 161.099 61.9231C161.243 62.1151 161.315 62.4431 161.315 62.9071C161.315 63.3391 161.243 63.6591 161.099 63.8671C160.971 64.0751 160.795 64.2031 160.571 64.2511C160.347 64.2991 160.099 64.3231 159.827 64.3231C159.555 64.3231 159.315 64.3391 159.107 64.3711C158.915 64.3871 158.755 64.4351 158.627 64.5151C158.515 64.5951 158.427 64.7231 158.363 64.8991C158.315 65.0751 158.291 65.2991 158.291 65.5711V77.3311C158.291 77.5871 158.259 77.8271 158.195 78.0511C158.147 78.2591 158.019 78.4271 157.811 78.5551C157.603 78.6831 157.275 78.7471 156.827 78.7471ZM154.451 67.1551L156.923 67.1791L160.235 67.0831C160.507 67.0831 160.747 67.1151 160.955 67.1791C161.179 67.2271 161.355 67.3551 161.483 67.5631C161.611 67.7551 161.675 68.0751 161.675 68.5231C161.675 68.9391 161.611 69.2511 161.483 69.4591C161.355 69.6671 161.187 69.8031 160.979 69.8671C160.771 69.9151 160.531 69.9391 160.259 69.9391L157.043 69.8911L154.379 69.9151C153.979 69.8991 153.699 69.7871 153.539 69.5791C153.395 69.3551 153.323 68.9951 153.323 68.4991C153.323 68.0351 153.411 67.6991 153.587 67.4911C153.779 67.2671 154.067 67.1551 154.451 67.1551ZM163.586 81.2191C163.586 81.2191 163.554 81.2031 163.49 81.1711C163.426 81.1551 163.362 81.0911 163.298 80.9791C163.234 80.8831 163.202 80.7231 163.202 80.4991C163.202 80.1951 163.25 79.9951 163.346 79.8991C163.442 79.8191 163.506 79.7711 163.538 79.7551C163.554 79.7391 163.666 79.6431 163.874 79.4671C164.082 79.3071 164.202 79.0271 164.234 78.6271C164.074 78.5951 163.93 78.5551 163.802 78.5071C163.69 78.4431 163.594 78.3711 163.514 78.2911C163.354 78.1311 163.258 77.9471 163.226 77.7391C163.194 77.5151 163.178 77.2911 163.178 77.0671C163.178 76.6991 163.218 76.3951 163.298 76.1551C163.378 75.9151 163.53 75.7391 163.754 75.6271C163.994 75.4991 164.346 75.4351 164.81 75.4351C165.418 75.4351 165.85 75.5631 166.106 75.8191C166.25 75.9631 166.33 76.1471 166.346 76.3711C166.378 76.5951 166.394 76.8191 166.394 77.0431C166.394 77.2031 166.394 77.3391 166.394 77.4511C166.394 77.5471 166.386 77.6351 166.37 77.7151C166.306 78.3551 166.138 78.9391 165.866 79.4671C165.61 79.9951 165.282 80.4191 164.882 80.7391C164.498 81.0591 164.066 81.2191 163.586 81.2191ZM164.762 70.8031C164.154 70.8031 163.73 70.6831 163.49 70.4431C163.266 70.1871 163.154 69.7791 163.154 69.2191C163.154 68.8031 163.194 68.4751 163.274 68.2351C163.37 67.9951 163.538 67.8271 163.778 67.7311C164.034 67.6191 164.37 67.5631 164.786 67.5631C165.41 67.5631 165.834 67.6831 166.058 67.9231C166.282 68.1631 166.394 68.5871 166.394 69.1951C166.394 69.4831 166.362 69.7551 166.298 70.0111C166.234 70.2511 166.09 70.4431 165.866 70.5871C165.642 70.7311 165.274 70.8031 164.762 70.8031ZM176.039 78.7231C175.623 78.7231 175.311 78.6511 175.103 78.5071C174.895 78.3791 174.759 78.2031 174.695 77.9791C174.631 77.7551 174.599 77.5151 174.599 77.2591V63.3871C174.599 63.1311 174.623 62.8991 174.671 62.6911C174.735 62.4671 174.871 62.2911 175.079 62.1631C175.287 62.0191 175.615 61.9471 176.063 61.9471L180.575 61.9711C181.743 61.9711 182.815 62.1711 183.791 62.5711C184.783 62.9711 185.639 63.5391 186.359 64.2751C187.079 65.0111 187.631 65.8911 188.015 66.9151C188.415 67.9231 188.615 69.0351 188.615 70.2511C188.615 71.4991 188.415 72.6431 188.015 73.6831C187.615 74.7231 187.055 75.6191 186.335 76.3711C185.615 77.1231 184.759 77.7071 183.767 78.1231C182.791 78.5231 181.703 78.7231 180.503 78.7231H176.039ZM177.503 75.8191H180.575C181.599 75.8191 182.495 75.5951 183.263 75.1471C184.031 74.6831 184.623 74.0431 185.039 73.2271C185.471 72.4111 185.687 71.4591 185.687 70.3711C185.687 69.2671 185.471 68.3071 185.039 67.4911C184.623 66.6591 184.023 66.0191 183.239 65.5711C182.471 65.1071 181.575 64.8751 180.551 64.8751H177.503V75.8191ZM200.727 78.6991C200.263 78.6991 199.919 78.6111 199.695 78.4351C199.471 78.2591 199.359 78.0191 199.359 77.7151L199.527 76.9231C199.399 77.1311 199.183 77.3791 198.879 77.6671C198.575 77.9391 198.175 78.1871 197.679 78.4111C197.183 78.6191 196.583 78.7231 195.879 78.7231C195.127 78.7231 194.415 78.5711 193.743 78.2671C193.087 77.9471 192.503 77.5151 191.991 76.9711C191.495 76.4111 191.095 75.7791 190.791 75.0751C190.503 74.3551 190.359 73.5871 190.359 72.7711C190.359 71.9871 190.503 71.2511 190.791 70.5631C191.095 69.8591 191.503 69.2351 192.015 68.6911C192.527 68.1471 193.111 67.7231 193.767 67.4191C194.439 67.0991 195.143 66.9391 195.879 66.9391C196.535 66.9391 197.087 67.0271 197.535 67.2031C197.999 67.3791 198.391 67.6031 198.711 67.8751C199.031 68.1311 199.295 68.4031 199.503 68.6911L199.359 67.9951C199.359 67.6431 199.471 67.3791 199.695 67.2031C199.919 67.0111 200.271 66.9151 200.751 66.9151C201.199 66.9151 201.519 66.9871 201.711 67.1311C201.903 67.2591 202.023 67.4431 202.071 67.6831C202.119 67.9071 202.143 68.1631 202.143 68.4511V77.2351C202.143 77.5071 202.119 77.7551 202.071 77.9791C202.023 78.2031 201.895 78.3791 201.687 78.5071C201.495 78.6351 201.175 78.6991 200.727 78.6991ZM196.311 75.9151C196.855 75.9151 197.343 75.7791 197.775 75.5071C198.207 75.2351 198.551 74.8671 198.807 74.4031C199.079 73.9231 199.215 73.3951 199.215 72.8191C199.215 72.1951 199.079 71.6511 198.807 71.1871C198.535 70.7231 198.175 70.3631 197.727 70.1071C197.295 69.8351 196.807 69.6991 196.263 69.6991C195.671 69.6991 195.143 69.8431 194.679 70.1311C194.215 70.4031 193.847 70.7791 193.575 71.2591C193.319 71.7231 193.191 72.2511 193.191 72.8431C193.191 73.4191 193.327 73.9391 193.599 74.4031C193.871 74.8671 194.239 75.2351 194.703 75.5071C195.183 75.7791 195.719 75.9151 196.311 75.9151ZM205.943 78.7231C205.511 78.7231 205.191 78.6591 204.983 78.5311C204.791 78.4031 204.671 78.2271 204.623 78.0031C204.575 77.7791 204.551 77.5391 204.551 77.2831V68.3071C204.551 68.0511 204.575 67.8191 204.623 67.6111C204.671 67.4031 204.799 67.2351 205.007 67.1071C205.215 66.9791 205.543 66.9151 205.991 66.9151C206.455 66.9151 206.791 67.0111 206.999 67.2031C207.223 67.3951 207.335 67.6991 207.335 68.1151L207.119 68.7871C207.199 68.6111 207.335 68.4191 207.527 68.2111C207.719 68.0031 207.951 67.7951 208.223 67.5871C208.511 67.3791 208.831 67.2111 209.183 67.0831C209.535 66.9551 209.903 66.8911 210.287 66.8911C210.815 66.8911 211.295 66.9791 211.727 67.1551C212.175 67.3311 212.567 67.5871 212.903 67.9231C213.255 68.2591 213.559 68.6671 213.815 69.1471C214.087 68.7311 214.391 68.3551 214.727 68.0191C215.063 67.6671 215.455 67.3951 215.903 67.2031C216.351 66.9951 216.855 66.8911 217.415 66.8911C218.343 66.8911 219.119 67.1231 219.743 67.5871C220.383 68.0511 220.863 68.7151 221.183 69.5791C221.519 70.4271 221.687 71.4431 221.687 72.6271V77.2831C221.687 77.5551 221.655 77.8031 221.591 78.0271C221.543 78.2351 221.415 78.4031 221.207 78.5311C221.015 78.6591 220.695 78.7231 220.247 78.7231C219.799 78.7231 219.471 78.6511 219.263 78.5071C219.055 78.3791 218.927 78.2111 218.879 78.0031C218.831 77.7791 218.807 77.5311 218.807 77.2591V72.6031C218.807 72.0111 218.735 71.4991 218.591 71.0671C218.447 70.6351 218.231 70.2991 217.943 70.0591C217.671 69.8191 217.311 69.6991 216.863 69.6991C216.383 69.6991 215.967 69.8191 215.615 70.0591C215.279 70.2831 215.015 70.6111 214.823 71.0431C214.631 71.4751 214.535 72.0031 214.535 72.6271V77.3071C214.535 77.5791 214.495 77.8351 214.415 78.0751C214.335 78.2991 214.175 78.4671 213.935 78.5791C213.711 78.7071 213.383 78.7551 212.951 78.7231C212.551 78.7071 212.255 78.6271 212.063 78.4831C211.887 78.3391 211.775 78.1631 211.727 77.9551C211.695 77.7311 211.679 77.4991 211.679 77.2591V72.6031C211.679 72.0111 211.607 71.4991 211.463 71.0671C211.319 70.6191 211.103 70.2831 210.815 70.0591C210.543 69.8191 210.175 69.6991 209.711 69.6991C209.215 69.6991 208.791 69.8271 208.439 70.0831C208.103 70.3391 207.847 70.6831 207.671 71.1151C207.495 71.5471 207.407 72.0431 207.407 72.6031V77.3071C207.407 77.5631 207.375 77.8031 207.311 78.0271C207.263 78.2511 207.135 78.4191 206.927 78.5311C206.735 78.6591 206.407 78.7231 205.943 78.7231ZM230.17 78.5791C229.386 78.5791 228.682 78.4351 228.058 78.1471C227.45 77.8431 226.93 77.4271 226.498 76.8991C226.082 76.3551 225.762 75.7311 225.538 75.0271C225.33 74.3231 225.226 73.5631 225.226 72.7471C225.242 71.9311 225.362 71.1711 225.586 70.4671C225.81 69.7471 226.13 69.1231 226.546 68.5951C226.978 68.0671 227.498 67.6511 228.106 67.3471C228.714 67.0431 229.402 66.8911 230.17 66.8911C230.906 66.8911 231.594 67.0431 232.234 67.3471C232.89 67.6511 233.466 68.0751 233.962 68.6191C234.474 69.1631 234.874 69.7951 235.162 70.5151C235.45 71.2191 235.594 71.9791 235.594 72.7951C235.594 73.6271 235.45 74.3951 235.162 75.0991C234.874 75.8031 234.482 76.4191 233.986 76.9471C233.49 77.4591 232.914 77.8591 232.258 78.1471C231.602 78.4351 230.906 78.5791 230.17 78.5791ZM225.37 83.5711C224.938 83.5711 224.618 83.5071 224.41 83.3791C224.202 83.2511 224.074 83.0831 224.026 82.8751C223.978 82.6671 223.954 82.4271 223.954 82.1551V68.3551C223.954 68.0831 223.978 67.8431 224.026 67.6351C224.074 67.4271 224.194 67.2591 224.386 67.1311C224.594 66.9871 224.914 66.9151 225.346 66.9151C225.762 66.9151 226.09 66.9791 226.33 67.1071C226.57 67.2351 226.73 67.4511 226.81 67.7551V82.1311C226.826 82.4031 226.802 82.6431 226.738 82.8511C226.69 83.0751 226.562 83.2511 226.354 83.3791C226.146 83.5071 225.818 83.5711 225.37 83.5711ZM229.786 75.8911C230.346 75.8911 230.85 75.7631 231.298 75.5071C231.746 75.2351 232.098 74.8671 232.354 74.4031C232.626 73.9231 232.762 73.3871 232.762 72.7951C232.762 72.1871 232.626 71.6511 232.354 71.1871C232.098 70.7231 231.746 70.3631 231.298 70.1071C230.85 69.8351 230.346 69.6991 229.786 69.6991C229.242 69.6991 228.746 69.8351 228.298 70.1071C227.85 70.3791 227.49 70.7471 227.218 71.2111C226.962 71.6591 226.834 72.1871 226.834 72.7951C226.834 73.3871 226.962 73.9231 227.218 74.4031C227.49 74.8671 227.85 75.2351 228.298 75.5071C228.746 75.7631 229.242 75.8911 229.786 75.8911ZM247.461 78.6991C246.997 78.6991 246.653 78.6111 246.429 78.4351C246.205 78.2591 246.093 78.0191 246.093 77.7151L246.261 76.9231C246.133 77.1311 245.917 77.3791 245.613 77.6671C245.309 77.9391 244.909 78.1871 244.413 78.4111C243.917 78.6191 243.317 78.7231 242.613 78.7231C241.861 78.7231 241.149 78.5711 240.477 78.2671C239.821 77.9471 239.237 77.5151 238.725 76.9711C238.229 76.4111 237.829 75.7791 237.525 75.0751C237.237 74.3551 237.093 73.5871 237.093 72.7711C237.093 71.9871 237.237 71.2511 237.525 70.5631C237.829 69.8591 238.237 69.2351 238.749 68.6911C239.261 68.1471 239.845 67.7231 240.501 67.4191C241.173 67.0991 241.877 66.9391 242.613 66.9391C243.269 66.9391 243.821 67.0271 244.269 67.2031C244.733 67.3791 245.125 67.6031 245.445 67.8751C245.765 68.1311 246.029 68.4031 246.237 68.6911L246.093 67.9951C246.093 67.6431 246.205 67.3791 246.429 67.2031C246.653 67.0111 247.005 66.9151 247.485 66.9151C247.933 66.9151 248.253 66.9871 248.445 67.1311C248.637 67.2591 248.757 67.4431 248.805 67.6831C248.853 67.9071 248.877 68.1631 248.877 68.4511V77.2351C248.877 77.5071 248.853 77.7551 248.805 77.9791C248.757 78.2031 248.629 78.3791 248.421 78.5071C248.229 78.6351 247.909 78.6991 247.461 78.6991ZM243.045 75.9151C243.589 75.9151 244.077 75.7791 244.509 75.5071C244.941 75.2351 245.285 74.8671 245.541 74.4031C245.813 73.9231 245.949 73.3951 245.949 72.8191C245.949 72.1951 245.813 71.6511 245.541 71.1871C245.269 70.7231 244.909 70.3631 244.461 70.1071C244.029 69.8351 243.541 69.6991 242.997 69.6991C242.405 69.6991 241.877 69.8431 241.413 70.1311C240.949 70.4031 240.581 70.7791 240.309 71.2591C240.053 71.7231 239.925 72.2511 239.925 72.8431C239.925 73.4191 240.061 73.9391 240.333 74.4031C240.605 74.8671 240.973 75.2351 241.437 75.5071C241.917 75.7791 242.453 75.9151 243.045 75.9151ZM260.693 76.1551C261.109 76.5071 261.325 76.8351 261.341 77.1391C261.373 77.4431 261.213 77.7951 260.861 78.1951C260.589 78.4991 260.349 78.6991 260.141 78.7951C259.933 78.8911 259.725 78.8911 259.517 78.7951C259.309 78.7151 259.061 78.5551 258.773 78.3151L254.189 74.4511V77.3071C254.189 77.5631 254.157 77.8031 254.093 78.0271C254.045 78.2511 253.917 78.4271 253.709 78.5551C253.517 78.6831 253.197 78.7471 252.749 78.7471C252.301 78.7471 251.973 78.6751 251.765 78.5311C251.573 78.4031 251.453 78.2271 251.405 78.0031C251.357 77.7791 251.333 77.5391 251.333 77.2831V62.9551C251.333 62.6831 251.357 62.4431 251.405 62.2351C251.469 62.0111 251.597 61.8351 251.789 61.7071C251.997 61.5631 252.325 61.4911 252.773 61.4911C253.221 61.4911 253.541 61.5631 253.733 61.7071C253.925 61.8351 254.045 62.0111 254.093 62.2351C254.157 62.4431 254.189 62.6911 254.189 62.9791V70.8511L257.501 67.6351C257.757 67.3951 257.997 67.2351 258.221 67.1551C258.445 67.0591 258.661 67.0511 258.869 67.1311C259.093 67.1951 259.325 67.3631 259.565 67.6351C259.965 68.0671 260.157 68.4271 260.141 68.7151C260.125 68.9871 259.925 69.3151 259.541 69.6991L256.301 72.6991L260.693 76.1551ZM271.648 78.7471C271.216 78.7471 270.896 78.6831 270.688 78.5551C270.496 78.4271 270.376 78.2511 270.328 78.0271C270.28 77.7871 270.256 77.5391 270.256 77.2831V65.6191C270.256 65.0271 270.336 64.4831 270.496 63.9871C270.656 63.4751 270.912 63.0351 271.264 62.6671C271.616 62.2991 272.072 62.0111 272.632 61.8031C273.192 61.5791 273.872 61.4671 274.672 61.4671C274.944 61.4671 275.184 61.4991 275.392 61.5631C275.616 61.6111 275.792 61.7311 275.92 61.9231C276.064 62.1151 276.136 62.4431 276.136 62.9071C276.136 63.3391 276.064 63.6591 275.92 63.8671C275.792 64.0751 275.616 64.2031 275.392 64.2511C275.168 64.2991 274.92 64.3231 274.648 64.3231C274.376 64.3231 274.136 64.3391 273.928 64.3711C273.736 64.3871 273.576 64.4351 273.448 64.5151C273.336 64.5951 273.248 64.7231 273.184 64.8991C273.136 65.0751 273.112 65.2991 273.112 65.5711V77.3311C273.112 77.5871 273.08 77.8271 273.016 78.0511C272.968 78.2591 272.84 78.4271 272.632 78.5551C272.424 78.6831 272.096 78.7471 271.648 78.7471ZM269.272 67.1551L271.744 67.1791L275.056 67.0831C275.328 67.0831 275.568 67.1151 275.776 67.1791C276 67.2271 276.176 67.3551 276.304 67.5631C276.432 67.7551 276.496 68.0751 276.496 68.5231C276.496 68.9391 276.432 69.2511 276.304 69.4591C276.176 69.6671 276.008 69.8031 275.8 69.8671C275.592 69.9151 275.352 69.9391 275.08 69.9391L271.864 69.8911L269.2 69.9151C268.8 69.8991 268.52 69.7871 268.36 69.5791C268.216 69.3551 268.144 68.9951 268.144 68.4991C268.144 68.0351 268.232 67.6991 268.408 67.4911C268.6 67.2671 268.888 67.1551 269.272 67.1551ZM279.798 78.7471C279.366 78.7471 279.046 78.6751 278.838 78.5311C278.63 78.4031 278.502 78.2351 278.454 78.0271C278.406 77.8031 278.382 77.5551 278.382 77.2831V68.3551C278.382 68.0991 278.406 67.8671 278.454 67.6591C278.518 67.4351 278.646 67.2591 278.838 67.1311C279.046 67.0031 279.374 66.9391 279.822 66.9391C280.27 66.9391 280.59 67.0031 280.782 67.1311C280.99 67.2591 281.118 67.4351 281.166 67.6591C281.214 67.8831 281.238 68.1311 281.238 68.4031V77.3071C281.238 77.5791 281.214 77.8271 281.166 78.0511C281.118 78.2591 280.99 78.4271 280.782 78.5551C280.59 78.6831 280.262 78.7471 279.798 78.7471ZM279.798 64.6111C279.334 64.6111 278.99 64.5471 278.766 64.4191C278.558 64.2751 278.422 64.0831 278.358 63.8431C278.31 63.6031 278.286 63.3391 278.286 63.0511C278.286 62.7471 278.31 62.4831 278.358 62.2591C278.422 62.0351 278.566 61.8591 278.79 61.7311C279.014 61.5871 279.358 61.5151 279.822 61.5151C280.302 61.5151 280.646 61.5871 280.854 61.7311C281.062 61.8751 281.198 62.0671 281.262 62.3071C281.326 62.5311 281.358 62.7951 281.358 63.0991C281.358 63.3711 281.326 63.6271 281.262 63.8671C281.198 64.1071 281.062 64.2911 280.854 64.4191C280.646 64.5471 280.294 64.6111 279.798 64.6111ZM287.968 78.8911C287.552 78.8911 287.112 78.8431 286.648 78.7471C286.184 78.6671 285.736 78.5471 285.304 78.3871C284.872 78.2111 284.496 78.0111 284.176 77.7871C283.872 77.5471 283.68 77.2831 283.6 76.9951C283.536 76.8351 283.512 76.6831 283.528 76.5391C283.544 76.3791 283.592 76.2191 283.672 76.0591C283.752 75.8831 283.872 75.7071 284.032 75.5311C284.176 75.3551 284.32 75.2591 284.464 75.2431C284.624 75.2111 284.824 75.2591 285.064 75.3871C285.272 75.4671 285.496 75.5711 285.736 75.6991C285.992 75.8271 286.248 75.9551 286.504 76.0831C286.776 76.2111 287.048 76.3151 287.32 76.3951C287.608 76.4751 287.888 76.5151 288.16 76.5151C288.752 76.5151 289.224 76.4191 289.576 76.2271C289.928 76.0191 290.104 75.7311 290.104 75.3631C290.104 75.1551 290.048 74.9711 289.936 74.8111C289.824 74.6511 289.672 74.5231 289.48 74.4271C289.304 74.3151 289.088 74.2191 288.832 74.1391C288.592 74.0431 288.328 73.9631 288.04 73.8991C287.768 73.8191 287.48 73.7311 287.176 73.6351C286.776 73.5231 286.376 73.3871 285.976 73.2271C285.576 73.0671 285.216 72.8591 284.896 72.6031C284.592 72.3471 284.344 72.0271 284.152 71.6431C283.96 71.2591 283.864 70.7791 283.864 70.2031C283.864 69.4831 284.032 68.8751 284.368 68.3791C284.72 67.8671 285.224 67.4751 285.88 67.2031C286.536 66.9311 287.328 66.7951 288.256 66.7951C288.576 66.7951 288.88 66.8191 289.168 66.8671C289.472 66.9151 289.76 66.9871 290.032 67.0831C290.32 67.1631 290.592 67.2671 290.848 67.3951C291.12 67.5231 291.376 67.6671 291.616 67.8271C292.016 68.0511 292.224 68.3151 292.24 68.6191C292.256 68.9071 292.144 69.2191 291.904 69.5551C291.728 69.7791 291.552 69.9391 291.376 70.0351C291.2 70.1151 291.016 70.1151 290.824 70.0351C290.568 69.9071 290.288 69.7711 289.984 69.6271C289.696 69.4671 289.392 69.3311 289.072 69.2191C288.768 69.1071 288.448 69.0511 288.112 69.0511C287.792 69.0511 287.504 69.0991 287.248 69.1951C286.992 69.2911 286.8 69.4271 286.672 69.6031C286.544 69.7791 286.48 69.9871 286.48 70.2271C286.48 70.4511 286.544 70.6351 286.672 70.7791C286.8 70.9231 286.968 71.0431 287.176 71.1391C287.384 71.2351 287.632 71.3231 287.92 71.4031C288.208 71.4671 288.512 71.5311 288.832 71.5951C289.28 71.6911 289.736 71.8111 290.2 71.9551C290.664 72.0991 291.088 72.2991 291.472 72.5551C291.872 72.8111 292.192 73.1551 292.432 73.5871C292.672 74.0031 292.792 74.5471 292.792 75.2191C292.792 76.3871 292.36 77.2911 291.496 77.9311C290.648 78.5711 289.472 78.8911 287.968 78.8911ZM296.415 78.7471C295.983 78.7471 295.663 78.6751 295.455 78.5311C295.247 78.4031 295.119 78.2351 295.071 78.0271C295.023 77.8031 294.999 77.5551 294.999 77.2831V68.3551C294.999 68.0991 295.023 67.8671 295.071 67.6591C295.135 67.4351 295.263 67.2591 295.455 67.1311C295.663 67.0031 295.991 66.9391 296.439 66.9391C296.887 66.9391 297.207 67.0031 297.399 67.1311C297.607 67.2591 297.735 67.4351 297.783 67.6591C297.831 67.8831 297.855 68.1311 297.855 68.4031V77.3071C297.855 77.5791 297.831 77.8271 297.783 78.0511C297.735 78.2591 297.607 78.4271 297.399 78.5551C297.207 78.6831 296.879 78.7471 296.415 78.7471ZM296.415 64.6111C295.951 64.6111 295.607 64.5471 295.383 64.4191C295.175 64.2751 295.039 64.0831 294.975 63.8431C294.927 63.6031 294.903 63.3391 294.903 63.0511C294.903 62.7471 294.927 62.4831 294.975 62.2591C295.039 62.0351 295.183 61.8591 295.407 61.7311C295.631 61.5871 295.975 61.5151 296.439 61.5151C296.919 61.5151 297.263 61.5871 297.471 61.7311C297.679 61.8751 297.815 62.0671 297.879 62.3071C297.943 62.5311 297.975 62.7951 297.975 63.0991C297.975 63.3711 297.943 63.6271 297.879 63.8671C297.815 64.1071 297.679 64.2911 297.471 64.4191C297.263 64.5471 296.911 64.6111 296.415 64.6111ZM309.889 76.1551C310.305 76.5071 310.521 76.8351 310.537 77.1391C310.569 77.4431 310.409 77.7951 310.057 78.1951C309.785 78.4991 309.545 78.6991 309.337 78.7951C309.129 78.8911 308.921 78.8911 308.713 78.7951C308.505 78.7151 308.257 78.5551 307.969 78.3151L303.385 74.4511V77.3071C303.385 77.5631 303.353 77.8031 303.289 78.0271C303.241 78.2511 303.113 78.4271 302.905 78.5551C302.713 78.6831 302.393 78.7471 301.945 78.7471C301.497 78.7471 301.169 78.6751 300.961 78.5311C300.769 78.4031 300.649 78.2271 300.601 78.0031C300.553 77.7791 300.529 77.5391 300.529 77.2831V62.9551C300.529 62.6831 300.553 62.4431 300.601 62.2351C300.665 62.0111 300.793 61.8351 300.985 61.7071C301.193 61.5631 301.521 61.4911 301.969 61.4911C302.417 61.4911 302.737 61.5631 302.929 61.7071C303.121 61.8351 303.241 62.0111 303.289 62.2351C303.353 62.4431 303.385 62.6911 303.385 62.9791V70.8511L306.697 67.6351C306.953 67.3951 307.193 67.2351 307.417 67.1551C307.641 67.0591 307.857 67.0511 308.065 67.1311C308.289 67.1951 308.521 67.3631 308.761 67.6351C309.161 68.0671 309.353 68.4271 309.337 68.7151C309.321 68.9871 309.121 69.3151 308.737 69.6991L305.497 72.6991L309.889 76.1551Z" fill="black"/>
</svg>
