<svg width="400" height="120" viewBox="0 0 400 120" fill="none" xmlns="http://www.w3.org/2000/svg">
<mask id="mask0_62_2381" style="mask-type:luminance" maskUnits="userSpaceOnUse" x="0" y="0" width="400" height="120">
<path d="M400 0H0V120H400V0Z" fill="white"/>
</mask>
<g mask="url(#mask0_62_2381)">
<mask id="mask1_62_2381" style="mask-type:luminance" maskUnits="userSpaceOnUse" x="9" y="9" width="388" height="111">
<path d="M9.33838 9.33325H396.887V119.354H9.33838V9.33325Z" fill="white"/>
</mask>
<g mask="url(#mask1_62_2381)">
<path d="M15.789 72.3853L12.3965 62.3593L17.7893 51.8749L13.0349 41.3958L9.77612 30.9114L12.1047 19.3541L26.2584 18.2343L39.1779 15.5937L52.3406 21.4739L65.1142 13.7499L78.3376 21.7083L91.2267 17.9635L104.365 22.901L117.358 22.677L130.405 24.3437L143.318 21.4218L155.618 17.1093L167.972 14.5624L180.326 12.0989L192.783 13.2135L205.32 17.1249L217.838 20.3437L230.253 20.0728L242.4 10.3072L255.064 18.6874L267.503 19.1718L279.742 12.4791L292.084 9.53638L304.906 12.9062L318.19 14.7655L328.447 23.3958L341.367 25.4062L352.316 32.3385L368.294 26.7083L380.204 31.2239L396.346 37.177L387.476 50.3385L387.159 62.0937L374.361 69.8593L369.875 80.2812L373.796 93.3957L367.57 103.266L364.391 115.974L345.853 109.745L333.335 117.432L320.227 109.989L307.782 119.823L294.631 110.969L281.864 112.432L269.005 111.359L256.444 118.932L243.555 117.01L230.824 121.224L218.355 114.521L205.222 119.724L193.081 116.047L180.727 115.328L168.306 115.838L155.903 115.969L143.829 110.542L131.396 111.203L119.346 105.146L106.274 116.76L94.5645 104.833L81.5599 115.427L69.6375 107.245L57.5023 102.453L44.6436 110.724L27.2615 111.552L29.4685 98.1405L22.7929 90.2291L11.0103 83.578L15.789 72.3853Z" fill="black"/>
<path d="M15.789 72.3853L12.3965 62.3593L17.7893 51.8749L13.0349 41.3958L9.77612 30.9114L12.1047 19.3541L26.2584 18.2343L39.1779 15.5937L52.3406 21.4739L65.1142 13.7499L78.3376 21.7083L91.2267 17.9635L104.365 22.901L117.358 22.677L130.405 24.3437L143.318 21.4218L155.618 17.1093L167.972 14.5624L180.326 12.0989L192.783 13.2135L205.32 17.1249L217.838 20.3437L230.253 20.0728L242.4 10.3072L255.064 18.6874L267.503 19.1718L279.742 12.4791L292.084 9.53638L304.906 12.9062L318.19 14.7655L328.447 23.3958L341.367 25.4062L352.316 32.3385L368.294 26.7083L380.204 31.2239L396.346 37.177L387.476 50.3385L387.159 62.0937L374.361 69.8593L369.875 80.2812L373.796 93.3957L367.57 103.266L364.391 115.974L345.853 109.745L333.335 117.432L320.227 109.989L307.782 119.823L294.631 110.969L281.864 112.432L269.005 111.359L256.444 118.932L243.555 117.01L230.824 121.224L218.355 114.521L205.222 119.724L193.081 116.047L180.727 115.328L168.306 115.838L155.903 115.969L143.829 110.542L131.396 111.203L119.346 105.146L106.274 116.76L94.5645 104.833L81.5599 115.427L69.6375 107.245L57.5023 102.453L44.6436 110.724L27.2615 111.552L29.4685 98.1405L22.7929 90.2291L11.0103 83.578L15.789 72.3853Z" fill="black"/>
</g>
<mask id="mask2_62_2381" style="mask-type:luminance" maskUnits="userSpaceOnUse" x="7" y="8" width="391" height="112">
<path d="M7.78198 8H397.586V119.354H7.78198V8Z" fill="white"/>
</mask>
<g mask="url(#mask2_62_2381)">
<path d="M230.739 121.984L218.3 115.307L205.265 120.474L192.917 116.734L180.721 115.99L168.342 116.495L155.715 116.63L143.653 111.203L131.207 111.885L119.485 105.995L106.238 117.766L94.5037 105.812L81.6085 116.328L69.2058 107.849L57.6056 103.26L44.9111 111.401L26.3131 112.286L28.6355 98.3489L22.1971 90.7239L10.0497 83.8489L14.9561 72.3645L11.5575 62.3124L16.932 51.8541L12.2627 41.5728L8.95532 30.9426L11.4237 18.7291L26.1671 17.5572L39.2812 14.901L52.2737 20.703L65.1141 12.9166L78.4653 20.953L91.2632 17.2291L104.523 22.2135L117.406 21.9895L130.356 23.6562L143.051 20.776L155.423 16.4426L167.765 13.8958L180.259 11.4166L193.039 12.5728L205.569 16.4843L217.941 19.651L229.931 19.3958L242.345 9.40617L255.356 18.0103L267.26 18.4687L279.383 11.8489L292.078 8.81763L305.076 12.2083L318.561 14.0937L328.83 22.7291L341.683 24.7239L352.414 31.5103L368.282 25.9218L380.514 30.552L397.483 36.8489L388.272 50.526L387.962 62.4531L375.03 70.2968L370.714 80.3229L374.678 93.4843L368.33 103.505L364.95 116.906L345.951 110.516L333.335 118.26L320.294 110.854L307.825 120.74L294.413 111.703L281.882 113.146L269.188 112.078L256.627 119.651L243.634 117.719L230.739 121.984ZM218.415 113.75L230.915 120.463L243.47 116.307L256.256 118.213L268.792 110.656L281.852 111.755L294.856 110.255L307.739 118.932L320.148 109.13L333.317 116.594L345.744 108.969L363.801 115.031L366.816 103.016L372.951 93.2968L369.048 80.2343L373.681 69.427L386.375 61.7135L386.685 50.1822L395.215 37.4947L379.894 31.8645L368.276 27.4583L352.201 33.1249L341.038 26.0468L328.064 24.0155L317.807 15.3958L304.651 13.5468L292.054 10.2291L280.058 13.1093L267.704 19.8958L254.76 19.3958L242.437 11.2499L230.532 20.7916L217.68 21.078L205.04 17.828L192.601 13.8853L180.374 12.7916L168.184 15.2291L155.867 17.7499L143.525 22.078L130.453 25.0364L117.303 23.3541L104.207 23.5885L91.2267 18.6926L78.216 22.4687L65.1141 14.578L52.4196 22.2708L39.0927 16.3124L26.3313 18.9062L12.7856 19.9843L10.5847 30.8801L13.7948 41.1822L18.6526 51.8906L13.2476 62.3906L16.6462 72.4114L11.9952 83.3072L23.3704 89.7239L30.3135 97.9687L28.1978 110.823L44.376 110.057L57.4232 101.667L70.1178 106.708L81.5113 114.521L94.6192 103.844L106.298 115.745L119.194 104.286L131.572 110.516L143.987 109.833L156.08 115.26L168.282 115.135L180.721 114.62L193.227 115.349L205.125 118.958L218.415 113.75Z" fill="black"/>
</g>
<mask id="mask3_62_2381" style="mask-type:luminance" maskUnits="userSpaceOnUse" x="3" y="1" width="388" height="113">
<path d="M3.11279 1.08301H390.661V113.333H3.11279V1.08301Z" fill="white"/>
</mask>
<g mask="url(#mask3_62_2381)">
<path d="M9.78237 63.3954L6.39594 53.3642L11.7826 42.8798L7.02824 32.4006L3.75732 21.9163L6.09804 10.3642L20.2457 9.23918L33.1712 6.60376L46.3339 12.4788L59.1075 4.7548L72.3249 12.7183L85.2201 8.96313L98.3585 13.9111L111.345 13.6819L124.398 15.359L137.312 12.4319L149.611 8.10897L161.965 5.5673L174.319 3.10897L186.777 4.22355L199.313 8.1298L211.825 11.3486L224.246 11.0777L236.387 1.31209L249.058 9.69751L261.497 10.1819L273.735 3.48918L286.077 0.54126L298.9 3.91626L312.184 5.77043L322.44 14.4058L335.36 16.4163L346.31 23.3433L362.281 17.7131L374.197 22.2288L390.339 28.1767L381.469 41.3486L381.153 53.1038L368.355 60.8642L363.868 71.2913L367.795 84.4006L361.564 94.2704L358.378 106.979L339.847 100.755L327.329 108.442L314.221 101L301.775 110.833L288.619 101.974L275.851 103.442L262.999 102.364L250.432 109.937L237.549 108.026L224.818 112.234L212.348 105.526L199.216 110.729L187.068 107.062L174.726 106.333L162.299 106.849L149.897 106.979L137.822 101.546L125.389 102.208L113.339 96.1558L100.268 107.765L88.5579 95.8433L75.5533 106.427L63.6248 98.2444L51.5017 93.4579L38.6369 101.734L21.2488 102.557L23.4618 89.1506L16.7863 81.234L5.00368 74.5829L9.78237 63.3954Z" fill="white"/>
</g>
<mask id="mask4_62_2381" style="mask-type:luminance" maskUnits="userSpaceOnUse" x="0" y="1" width="396" height="115">
<path d="M0.674805 1.08325H395.331V116H0.674805V1.08325Z" fill="white"/>
</mask>
<g mask="url(#mask4_62_2381)">
<path d="M224.52 115.01L212.147 108.365L199.386 113.422L186.491 109.521L174.708 108.844L162.348 109.349L149.21 109.49L137.202 104.062L124.69 104.74L113.862 99.3124L100.146 111.526L88.3389 99.5103L75.7234 109.745L62.0743 100.385L51.8542 96.3541L39.6521 104.182L17.8318 105.213L20.3732 89.7916L14.7007 83.0624L1.44077 75.5989L6.68153 63.328L3.30118 53.1874L8.62097 42.828L4.20099 33.0416L0.778076 22.0312L3.61125 8.05721L19.7713 6.76034L33.5541 3.95825L46.1027 9.56242L59.1013 1.69784L72.7929 9.94263L85.3537 6.29159L98.942 11.401L111.539 11.1822L124.234 12.8124L136.381 10.0572L148.705 5.72909L161.284 3.14575L174.13 0.578044L187.433 1.77596L200.231 5.76555L212.22 8.84367L223.06 8.60409L236.205 -1.96362L250.115 7.23429L260.706 7.65096L272.525 1.18221L286.12 -2.05737L299.568 1.48429L313.564 3.43742L323.875 12.0885L336.57 14.0624L346.705 20.4999L362.311 14.9947L375.365 19.9478L394.492 26.9999L384.369 42.0416L384.041 54.4114L370.787 62.453L366.92 71.4218L370.89 84.7239L364.318 95.1458L360.494 110.38L340.248 103.594L327.377 111.495L314.5 104.182L301.909 114.13L287.767 104.63L275.869 105.99L263.752 104.979L251.058 112.609L237.767 110.635L224.52 115.01ZM212.561 102.693L225.128 109.474L237.214 105.448L249.708 107.302L262.172 99.7916L275.772 100.932L289.427 99.3593L301.593 107.557L313.886 97.8333L327.231 105.411L339.403 97.9478L356.226 103.588L358.779 93.4114L364.683 84.1041L360.816 71.2135L365.929 59.3333L378.277 51.8697L378.569 40.6822L386.174 29.3958L373.036 24.5572L362.238 20.4843L345.908 26.1822L334.168 18.7603L321.036 16.7291L310.791 8.11971L298.237 6.35409L286.041 3.14575L274.933 5.79159L262.293 12.703L248.012 12.1562L236.576 4.58846L225.432 13.5468L211.436 13.8489L198.31 10.4583L186.108 6.65096L174.532 5.63534L162.634 8.00513L150.517 10.4947L138.242 14.802L124.55 17.901L111.156 16.1822L97.7625 16.4166L85.068 11.6666L71.8688 15.4843L59.1074 7.80721L46.5648 15.3958L32.782 9.24471L20.7197 11.7083L8.59058 12.6718L6.74233 21.8072L9.80653 31.6249L14.9379 42.9426L9.50254 53.5728L12.8647 63.5208L8.53586 73.5885L18.8471 79.4062L26.5198 88.5051L24.6412 99.8958L37.5971 99.2864L51.1489 90.5676L65.175 96.1093L75.3586 103.099L88.7949 92.2447L100.419 104.068L112.828 93.0364L126.137 99.7083L138.497 99.026L150.602 104.453L162.214 104.333L174.757 103.818L187.67 104.568L199.064 108.016L212.561 102.693Z" fill="black"/>
<path d="M224.52 115.01L212.147 108.365L199.386 113.422L186.491 109.521L174.708 108.844L162.348 109.349L149.21 109.49L137.202 104.062L124.69 104.74L113.862 99.3124L100.146 111.526L88.3389 99.5103L75.7234 109.745L62.0743 100.385L51.8542 96.3541L39.6521 104.182L17.8318 105.213L20.3732 89.7916L14.7007 83.0624L1.44077 75.5989L6.68153 63.328L3.30118 53.1874L8.62097 42.828L4.20099 33.0416L0.778076 22.0312L3.61125 8.05721L19.7713 6.76034L33.5541 3.95825L46.1027 9.56242L59.1013 1.69784L72.7929 9.94263L85.3537 6.29159L98.942 11.401L111.539 11.1822L124.234 12.8124L136.381 10.0572L148.705 5.72909L161.284 3.14575L174.13 0.578044L187.433 1.77596L200.231 5.76555L212.22 8.84367L223.06 8.60409L236.205 -1.96362L250.115 7.23429L260.706 7.65096L272.525 1.18221L286.12 -2.05737L299.568 1.48429L313.564 3.43742L323.875 12.0885L336.57 14.0624L346.705 20.4999L362.311 14.9947L375.365 19.9478L394.492 26.9999L384.369 42.0416L384.041 54.4114L370.787 62.453L366.92 71.4218L370.89 84.7239L364.318 95.1458L360.494 110.38L340.248 103.594L327.377 111.495L314.5 104.182L301.909 114.13L287.767 104.63L275.869 105.99L263.752 104.979L251.058 112.609L237.767 110.635L224.52 115.01ZM212.561 102.693L225.128 109.474L237.214 105.448L249.708 107.302L262.172 99.7916L275.772 100.932L289.427 99.3593L301.593 107.557L313.886 97.8333L327.231 105.411L339.403 97.9478L356.226 103.588L358.779 93.4114L364.683 84.1041L360.816 71.2135L365.929 59.3333L378.277 51.8697L378.569 40.6822L386.174 29.3958L373.036 24.5572L362.238 20.4843L345.908 26.1822L334.168 18.7603L321.036 16.7291L310.791 8.11971L298.237 6.35409L286.041 3.14575L274.933 5.79159L262.293 12.703L248.012 12.1562L236.576 4.58846L225.432 13.5468L211.436 13.8489L198.31 10.4583L186.108 6.65096L174.532 5.63534L162.634 8.00513L150.517 10.4947L138.242 14.802L124.55 17.901L111.156 16.1822L97.7625 16.4166L85.068 11.6666L71.8688 15.4843L59.1074 7.80721L46.5648 15.3958L32.782 9.24471L20.7197 11.7083L8.59058 12.6718L6.74233 21.8072L9.80653 31.6249L14.9379 42.9426L9.50254 53.5728L12.8647 63.5208L8.53586 73.5885L18.8471 79.4062L26.5198 88.5051L24.6412 99.8958L37.5971 99.2864L51.1489 90.5676L65.175 96.1093L75.3586 103.099L88.7949 92.2447L100.419 104.068L112.828 93.0364L126.137 99.7083L138.497 99.026L150.602 104.453L162.214 104.333L174.757 103.818L187.67 104.568L199.064 108.016L212.561 102.693Z" fill="black"/>
</g>
</g>
<path d="M52.3265 49.7231C51.8785 49.7231 51.5505 49.6591 51.3425 49.5311C51.1345 49.4031 51.0065 49.2271 50.9585 49.0031C50.9105 48.7631 50.8865 48.5151 50.8865 48.2591V34.4111C50.8865 34.1551 50.9105 33.9231 50.9585 33.7151C51.0225 33.4911 51.1585 33.3151 51.3665 33.1871C51.5745 33.0431 51.9025 32.9711 52.3505 32.9711H57.4385C58.1425 32.9711 58.8305 33.0911 59.5025 33.3311C60.1745 33.5711 60.7745 33.9311 61.3025 34.4111C61.8465 34.8911 62.2705 35.4831 62.5745 36.1871C62.8945 36.8911 63.0545 37.7151 63.0545 38.6591C63.0545 39.5871 62.8945 40.4031 62.5745 41.1071C62.2705 41.7951 61.8465 42.3791 61.3025 42.8591C60.7585 43.3391 60.1505 43.6991 59.4785 43.9391C58.8225 44.1791 58.1345 44.2991 57.4145 44.2991H53.7905V48.2831C53.7905 48.5391 53.7585 48.7791 53.6945 49.0031C53.6465 49.2271 53.5185 49.4031 53.3105 49.5311C53.1185 49.6591 52.7905 49.7231 52.3265 49.7231ZM53.7905 41.3711H57.4385C57.9345 41.3711 58.3825 41.2751 58.7825 41.0831C59.1985 40.8751 59.5345 40.5711 59.7905 40.1711C60.0465 39.7551 60.1745 39.2351 60.1745 38.6111C60.1745 38.0511 60.0545 37.5711 59.8145 37.1711C59.5905 36.7551 59.2705 36.4351 58.8545 36.2111C58.4545 35.9871 57.9745 35.8751 57.4145 35.8751H53.7905V41.3711ZM70.8217 49.8911C69.7817 49.8911 68.8697 49.7231 68.0857 49.3871C67.3177 49.0511 66.6697 48.5951 66.1417 48.0191C65.6297 47.4271 65.2377 46.7711 64.9657 46.0511C64.7097 45.3151 64.5817 44.5551 64.5817 43.7711C64.5817 42.6191 64.8457 41.5951 65.3737 40.6991C65.9017 39.8031 66.6297 39.0991 67.5577 38.5871C68.5017 38.0751 69.5817 37.8191 70.7977 37.8191C71.6617 37.8191 72.4217 37.9551 73.0777 38.2271C73.7337 38.4991 74.2777 38.8591 74.7097 39.3071C75.1577 39.7391 75.4937 40.2191 75.7177 40.7471C75.9577 41.2751 76.0777 41.7871 76.0777 42.2831C76.0777 43.1311 75.8697 43.7471 75.4537 44.1311C75.0537 44.5151 74.5497 44.7071 73.9417 44.7071H67.6057C67.6217 45.2511 67.7897 45.7231 68.1097 46.1231C68.4457 46.5231 68.8617 46.8351 69.3577 47.0591C69.8697 47.2671 70.3897 47.3711 70.9177 47.3711C71.3177 47.3711 71.6697 47.3471 71.9737 47.2991C72.2937 47.2511 72.5657 47.1951 72.7897 47.1311C73.0137 47.0511 73.2057 46.9711 73.3657 46.8911C73.5417 46.8111 73.7017 46.7391 73.8457 46.6751C73.9897 46.6111 74.1257 46.5711 74.2537 46.5551C74.4297 46.5391 74.6057 46.5791 74.7817 46.6751C74.9577 46.7711 75.1017 46.9391 75.2137 47.1791C75.3097 47.3391 75.3737 47.4911 75.4057 47.6351C75.4537 47.7631 75.4777 47.8911 75.4777 48.0191C75.4777 48.3391 75.2857 48.6431 74.9017 48.9311C74.5177 49.2031 73.9737 49.4271 73.2697 49.6031C72.5817 49.7951 71.7657 49.8911 70.8217 49.8911ZM67.6057 43.0031H72.5257C72.7977 43.0031 73.0057 42.9631 73.1497 42.8831C73.2937 42.7871 73.3657 42.5951 73.3657 42.3071C73.3657 41.9391 73.2537 41.6111 73.0297 41.3231C72.8057 41.0191 72.5017 40.7871 72.1177 40.6271C71.7337 40.4511 71.2857 40.3631 70.7737 40.3631C70.1817 40.3631 69.6457 40.4831 69.1657 40.7231C68.6857 40.9471 68.3017 41.2591 68.0137 41.6591C67.7417 42.0591 67.6057 42.5071 67.6057 43.0031ZM79.4632 49.7231C79.0312 49.7231 78.7112 49.6511 78.5032 49.5071C78.3112 49.3791 78.1912 49.2111 78.1432 49.0031C78.0952 48.7791 78.0712 48.5311 78.0712 48.2591V39.2831C78.0712 39.0271 78.0952 38.7951 78.1432 38.5871C78.1912 38.3791 78.3192 38.2191 78.5272 38.1071C78.7352 37.9791 79.0552 37.9151 79.4872 37.9151C79.8712 37.9151 80.1592 37.9631 80.3512 38.0591C80.5432 38.1551 80.6712 38.2751 80.7352 38.4191C80.7992 38.5631 80.8312 38.7071 80.8312 38.8511C80.8472 38.9951 80.8632 39.1071 80.8792 39.1871L80.7832 39.9551C80.8792 39.6991 81.0392 39.4511 81.2632 39.2111C81.4872 38.9711 81.7592 38.7551 82.0792 38.5631C82.3992 38.3551 82.7432 38.1951 83.1112 38.0831C83.4952 37.9551 83.8872 37.8911 84.2872 37.8911C85.0392 37.8911 85.7112 38.0271 86.3032 38.2991C86.8952 38.5711 87.3992 38.9551 87.8152 39.4511C88.2472 39.9471 88.5752 40.5391 88.7992 41.2271C89.0232 41.8991 89.1352 42.6591 89.1352 43.5071V48.2831C89.1352 48.5551 89.1032 48.8031 89.0392 49.0271C88.9912 49.2351 88.8712 49.4031 88.6792 49.5311C88.4872 49.6591 88.1592 49.7231 87.6952 49.7231C87.2472 49.7231 86.9192 49.6511 86.7112 49.5071C86.5032 49.3791 86.3752 49.2111 86.3272 49.0031C86.2792 48.7791 86.2552 48.5311 86.2552 48.2591V43.4831C86.2552 42.9071 86.1512 42.4111 85.9432 41.9951C85.7512 41.5791 85.4632 41.2591 85.0792 41.0351C84.7112 40.8111 84.2392 40.6991 83.6632 40.6991C83.1032 40.6991 82.6152 40.8191 82.1992 41.0591C81.7832 41.2831 81.4632 41.6031 81.2392 42.0191C81.0152 42.4351 80.9032 42.9231 80.9032 43.4831V48.2831C80.9032 48.5551 80.8792 48.8031 80.8312 49.0271C80.7832 49.2351 80.6552 49.4031 80.4472 49.5311C80.2552 49.6591 79.9272 49.7231 79.4632 49.7231ZM93.7263 54.4751C93.2143 54.2511 92.9183 53.9951 92.8383 53.7071C92.7583 53.4351 92.8303 53.0671 93.0543 52.6031L99.2463 38.7311C99.4703 38.2191 99.7103 37.9151 99.9663 37.8191C100.222 37.7071 100.614 37.7631 101.142 37.9871C101.638 38.2111 101.926 38.4591 102.006 38.7311C102.102 39.0031 102.046 39.3711 101.838 39.8351L95.5983 53.7791C95.3903 54.2911 95.1583 54.5871 94.9023 54.6671C94.6463 54.7631 94.2543 54.6991 93.7263 54.4751ZM95.9583 48.5951L90.4143 40.0751C90.1263 39.6431 90.0063 39.2831 90.0543 38.9951C90.1183 38.7071 90.3743 38.4271 90.8223 38.1551C91.3183 37.8511 91.7023 37.7311 91.9743 37.7951C92.2623 37.8591 92.5503 38.1151 92.8383 38.5631L97.2303 45.4031L95.9583 48.5951ZM109.494 49.8911C108.454 49.8911 107.542 49.7231 106.758 49.3871C105.99 49.0511 105.342 48.5951 104.814 48.0191C104.302 47.4271 103.91 46.7711 103.638 46.0511C103.382 45.3151 103.254 44.5551 103.254 43.7711C103.254 42.6191 103.518 41.5951 104.046 40.6991C104.574 39.8031 105.302 39.0991 106.23 38.5871C107.174 38.0751 108.254 37.8191 109.47 37.8191C110.334 37.8191 111.094 37.9551 111.75 38.2271C112.406 38.4991 112.95 38.8591 113.382 39.3071C113.83 39.7391 114.166 40.2191 114.39 40.7471C114.63 41.2751 114.75 41.7871 114.75 42.2831C114.75 43.1311 114.542 43.7471 114.126 44.1311C113.726 44.5151 113.222 44.7071 112.614 44.7071H106.278C106.294 45.2511 106.462 45.7231 106.782 46.1231C107.118 46.5231 107.534 46.8351 108.03 47.0591C108.542 47.2671 109.062 47.3711 109.59 47.3711C109.99 47.3711 110.342 47.3471 110.646 47.2991C110.966 47.2511 111.238 47.1951 111.462 47.1311C111.686 47.0511 111.878 46.9711 112.038 46.8911C112.214 46.8111 112.374 46.7391 112.518 46.6751C112.662 46.6111 112.798 46.5711 112.926 46.5551C113.102 46.5391 113.278 46.5791 113.454 46.6751C113.63 46.7711 113.774 46.9391 113.886 47.1791C113.982 47.3391 114.046 47.4911 114.078 47.6351C114.126 47.7631 114.15 47.8911 114.15 48.0191C114.15 48.3391 113.958 48.6431 113.574 48.9311C113.19 49.2031 112.646 49.4271 111.942 49.6031C111.254 49.7951 110.438 49.8911 109.494 49.8911ZM106.278 43.0031H111.198C111.47 43.0031 111.678 42.9631 111.822 42.8831C111.966 42.7871 112.038 42.5951 112.038 42.3071C112.038 41.9391 111.926 41.6111 111.702 41.3231C111.478 41.0191 111.174 40.7871 110.79 40.6271C110.406 40.4511 109.958 40.3631 109.446 40.3631C108.854 40.3631 108.318 40.4831 107.838 40.7231C107.358 40.9471 106.974 41.2591 106.686 41.6591C106.414 42.0591 106.278 42.5071 106.278 43.0031ZM122.887 49.7231C122.103 49.7231 121.399 49.5711 120.775 49.2671C120.167 48.9471 119.647 48.5151 119.215 47.9711C118.799 47.4271 118.479 46.8031 118.255 46.0991C118.047 45.3791 117.943 44.6111 117.943 43.7951C117.959 42.9791 118.079 42.2191 118.303 41.5151C118.527 40.7951 118.847 40.1711 119.263 39.6431C119.695 39.0991 120.215 38.6751 120.823 38.3711C121.431 38.0671 122.119 37.9151 122.887 37.9151C123.623 37.9151 124.311 38.0671 124.951 38.3711C125.607 38.6751 126.183 39.0991 126.679 39.6431C127.191 40.1711 127.591 40.7951 127.879 41.5151C128.167 42.2191 128.311 42.9711 128.311 43.7711C128.311 44.6031 128.167 45.3871 127.879 46.1231C127.591 46.8431 127.199 47.4751 126.703 48.0191C126.207 48.5471 125.631 48.9631 124.975 49.2671C124.319 49.5711 123.623 49.7231 122.887 49.7231ZM122.503 46.9151C123.063 46.9151 123.567 46.7871 124.015 46.5311C124.463 46.2591 124.815 45.8911 125.071 45.4271C125.343 44.9631 125.479 44.4351 125.479 43.8431C125.479 43.2351 125.343 42.6991 125.071 42.2351C124.815 41.7551 124.463 41.3871 124.015 41.1311C123.567 40.8591 123.063 40.7231 122.503 40.7231C121.959 40.7231 121.463 40.8591 121.015 41.1311C120.567 41.4031 120.207 41.7711 119.935 42.2351C119.679 42.6991 119.551 43.2351 119.551 43.8431C119.551 44.4351 119.679 44.9631 119.935 45.4271C120.207 45.8911 120.567 46.2591 121.015 46.5311C121.463 46.7871 121.959 46.9151 122.503 46.9151ZM118.063 49.7471C117.631 49.7471 117.311 49.6751 117.103 49.5311C116.895 49.4031 116.767 49.2351 116.719 49.0271C116.671 48.8031 116.647 48.5551 116.647 48.2831V33.9791C116.647 33.7071 116.671 33.4671 116.719 33.2591C116.767 33.0351 116.895 32.8591 117.103 32.7311C117.311 32.6031 117.631 32.5391 118.063 32.5391C118.511 32.5391 118.831 32.6031 119.023 32.7311C119.215 32.8591 119.335 33.0351 119.383 33.2591C119.431 33.4831 119.455 33.7231 119.455 33.9791V48.7631C119.391 49.1151 119.255 49.3631 119.047 49.5071C118.855 49.6671 118.527 49.7471 118.063 49.7471ZM140.082 49.6991C139.618 49.6991 139.274 49.6111 139.05 49.4351C138.826 49.2591 138.714 49.0191 138.714 48.7151L138.882 47.9231C138.754 48.1311 138.538 48.3791 138.234 48.6671C137.93 48.9391 137.53 49.1871 137.034 49.4111C136.538 49.6191 135.938 49.7231 135.234 49.7231C134.482 49.7231 133.77 49.5711 133.098 49.2671C132.442 48.9471 131.858 48.5151 131.346 47.9711C130.85 47.4111 130.45 46.7791 130.146 46.0751C129.858 45.3551 129.714 44.5871 129.714 43.7711C129.714 42.9871 129.858 42.2511 130.146 41.5631C130.45 40.8591 130.858 40.2351 131.37 39.6911C131.882 39.1471 132.466 38.7231 133.122 38.4191C133.794 38.0991 134.498 37.9391 135.234 37.9391C135.89 37.9391 136.442 38.0271 136.89 38.2031C137.354 38.3791 137.746 38.6031 138.066 38.8751C138.386 39.1311 138.65 39.4031 138.858 39.6911L138.714 38.9951C138.714 38.6431 138.826 38.3791 139.05 38.2031C139.274 38.0111 139.626 37.9151 140.106 37.9151C140.554 37.9151 140.874 37.9871 141.066 38.1311C141.258 38.2591 141.378 38.4431 141.426 38.6831C141.474 38.9071 141.498 39.1631 141.498 39.4511V48.2351C141.498 48.5071 141.474 48.7551 141.426 48.9791C141.378 49.2031 141.25 49.3791 141.042 49.5071C140.85 49.6351 140.53 49.6991 140.082 49.6991ZM135.666 46.9151C136.21 46.9151 136.698 46.7791 137.13 46.5071C137.562 46.2351 137.906 45.8671 138.162 45.4031C138.434 44.9231 138.57 44.3951 138.57 43.8191C138.57 43.1951 138.434 42.6511 138.162 42.1871C137.89 41.7231 137.53 41.3631 137.082 41.1071C136.65 40.8351 136.162 40.6991 135.618 40.6991C135.026 40.6991 134.498 40.8431 134.034 41.1311C133.57 41.4031 133.202 41.7791 132.93 42.2591C132.674 42.7231 132.546 43.2511 132.546 43.8431C132.546 44.4191 132.682 44.9391 132.954 45.4031C133.226 45.8671 133.594 46.2351 134.058 46.5071C134.538 46.7791 135.074 46.9151 135.666 46.9151ZM150.075 49.7231C149.291 49.7231 148.587 49.5711 147.963 49.2671C147.355 48.9471 146.835 48.5151 146.403 47.9711C145.987 47.4271 145.667 46.8031 145.443 46.0991C145.235 45.3791 145.131 44.6111 145.131 43.7951C145.147 42.9791 145.267 42.2191 145.491 41.5151C145.715 40.7951 146.035 40.1711 146.451 39.6431C146.883 39.0991 147.403 38.6751 148.011 38.3711C148.619 38.0671 149.307 37.9151 150.075 37.9151C150.811 37.9151 151.499 38.0671 152.139 38.3711C152.795 38.6751 153.371 39.0991 153.867 39.6431C154.379 40.1711 154.779 40.7951 155.067 41.5151C155.355 42.2191 155.499 42.9711 155.499 43.7711C155.499 44.6031 155.355 45.3871 155.067 46.1231C154.779 46.8431 154.387 47.4751 153.891 48.0191C153.395 48.5471 152.819 48.9631 152.163 49.2671C151.507 49.5711 150.811 49.7231 150.075 49.7231ZM149.691 46.9151C150.251 46.9151 150.755 46.7871 151.203 46.5311C151.651 46.2591 152.003 45.8911 152.259 45.4271C152.531 44.9631 152.667 44.4351 152.667 43.8431C152.667 43.2351 152.531 42.6991 152.259 42.2351C152.003 41.7551 151.651 41.3871 151.203 41.1311C150.755 40.8591 150.251 40.7231 149.691 40.7231C149.147 40.7231 148.651 40.8591 148.203 41.1311C147.755 41.4031 147.395 41.7711 147.123 42.2351C146.867 42.6991 146.739 43.2351 146.739 43.8431C146.739 44.4351 146.867 44.9631 147.123 45.4271C147.395 45.8911 147.755 46.2591 148.203 46.5311C148.651 46.7871 149.147 46.9151 149.691 46.9151ZM145.251 49.7471C144.819 49.7471 144.499 49.6751 144.291 49.5311C144.083 49.4031 143.955 49.2351 143.907 49.0271C143.859 48.8031 143.835 48.5551 143.835 48.2831V33.9791C143.835 33.7071 143.859 33.4671 143.907 33.2591C143.955 33.0351 144.083 32.8591 144.291 32.7311C144.499 32.6031 144.819 32.5391 145.251 32.5391C145.699 32.5391 146.019 32.6031 146.211 32.7311C146.403 32.8591 146.523 33.0351 146.571 33.2591C146.619 33.4831 146.643 33.7231 146.643 33.9791V48.7631C146.579 49.1151 146.443 49.3631 146.235 49.5071C146.043 49.6671 145.715 49.7471 145.251 49.7471ZM159.08 41.7791C158.472 41.7791 158.048 41.6591 157.808 41.4191C157.568 41.1791 157.448 40.7711 157.448 40.1951C157.448 39.7791 157.496 39.4511 157.592 39.2111C157.704 38.9711 157.88 38.8031 158.12 38.7071C158.36 38.5951 158.68 38.5391 159.08 38.5391C159.688 38.5391 160.104 38.6591 160.328 38.8991C160.568 39.1391 160.688 39.5631 160.688 40.1711C160.688 40.5551 160.64 40.8671 160.544 41.1071C160.448 41.3471 160.28 41.5231 160.04 41.6351C159.8 41.7311 159.48 41.7791 159.08 41.7791ZM159.056 49.7471C158.464 49.7471 158.048 49.6351 157.808 49.4111C157.568 49.1711 157.448 48.7551 157.448 48.1631C157.448 47.7471 157.496 47.4271 157.592 47.2031C157.704 46.9631 157.88 46.7871 158.12 46.6751C158.36 46.5631 158.68 46.5071 159.08 46.5071C159.672 46.5071 160.088 46.6271 160.328 46.8671C160.568 47.1071 160.688 47.5311 160.688 48.1391C160.688 48.5391 160.632 48.8591 160.52 49.0991C160.424 49.3391 160.256 49.5071 160.016 49.6031C159.792 49.6991 159.472 49.7471 159.056 49.7471ZM175.317 49.7231C174.533 49.7231 173.829 49.5711 173.205 49.2671C172.597 48.9471 172.077 48.5151 171.645 47.9711C171.229 47.4271 170.909 46.8031 170.685 46.0991C170.477 45.3791 170.373 44.6111 170.373 43.7951C170.389 42.9791 170.509 42.2191 170.733 41.5151C170.957 40.7951 171.277 40.1711 171.693 39.6431C172.125 39.0991 172.645 38.6751 173.253 38.3711C173.861 38.0671 174.549 37.9151 175.317 37.9151C176.053 37.9151 176.741 38.0671 177.381 38.3711C178.037 38.6751 178.613 39.0991 179.109 39.6431C179.621 40.1711 180.021 40.7951 180.309 41.5151C180.597 42.2191 180.741 42.9711 180.741 43.7711C180.741 44.6031 180.597 45.3871 180.309 46.1231C180.021 46.8431 179.629 47.4751 179.133 48.0191C178.637 48.5471 178.061 48.9631 177.405 49.2671C176.749 49.5711 176.053 49.7231 175.317 49.7231ZM174.933 46.9151C175.493 46.9151 175.997 46.7871 176.445 46.5311C176.893 46.2591 177.245 45.8911 177.501 45.4271C177.773 44.9631 177.909 44.4351 177.909 43.8431C177.909 43.2351 177.773 42.6991 177.501 42.2351C177.245 41.7551 176.893 41.3871 176.445 41.1311C175.997 40.8591 175.493 40.7231 174.933 40.7231C174.389 40.7231 173.893 40.8591 173.445 41.1311C172.997 41.4031 172.637 41.7711 172.365 42.2351C172.109 42.6991 171.981 43.2351 171.981 43.8431C171.981 44.4351 172.109 44.9631 172.365 45.4271C172.637 45.8911 172.997 46.2591 173.445 46.5311C173.893 46.7871 174.389 46.9151 174.933 46.9151ZM170.493 49.7471C170.061 49.7471 169.741 49.6751 169.533 49.5311C169.325 49.4031 169.197 49.2351 169.149 49.0271C169.101 48.8031 169.077 48.5551 169.077 48.2831V33.9791C169.077 33.7071 169.101 33.4671 169.149 33.2591C169.197 33.0351 169.325 32.8591 169.533 32.7311C169.741 32.6031 170.061 32.5391 170.493 32.5391C170.941 32.5391 171.261 32.6031 171.453 32.7311C171.645 32.8591 171.765 33.0351 171.813 33.2591C171.861 33.4831 171.885 33.7231 171.885 33.9791V48.7631C171.821 49.1151 171.685 49.3631 171.477 49.5071C171.285 49.6671 170.957 49.7471 170.493 49.7471ZM187.803 49.7231C187.067 49.7231 186.387 49.5951 185.763 49.3391C185.155 49.0671 184.619 48.6831 184.155 48.1871C183.691 47.6911 183.331 47.0991 183.075 46.4111C182.819 45.7231 182.691 44.9631 182.691 44.1311V39.3551C182.691 39.0831 182.715 38.8431 182.763 38.6351C182.811 38.4111 182.939 38.2351 183.147 38.1071C183.355 37.9791 183.675 37.9151 184.107 37.9151C184.571 37.9151 184.899 37.9791 185.091 38.1071C185.299 38.2351 185.427 38.4111 185.475 38.6351C185.523 38.8591 185.547 39.1071 185.547 39.3791V44.1311C185.547 44.7071 185.643 45.2031 185.835 45.6191C186.043 46.0351 186.339 46.3631 186.723 46.6031C187.107 46.8271 187.579 46.9391 188.139 46.9391C188.715 46.9391 189.203 46.8271 189.603 46.6031C190.019 46.3631 190.339 46.0351 190.563 45.6191C190.787 45.1871 190.899 44.6911 190.899 44.1311V39.3311C190.899 39.0591 190.923 38.8191 190.971 38.6111C191.019 38.3871 191.147 38.2191 191.355 38.1071C191.563 37.9791 191.891 37.9151 192.339 37.9151C192.787 37.9151 193.107 37.9791 193.299 38.1071C193.491 38.2351 193.611 38.4111 193.659 38.6351C193.723 38.8591 193.755 39.0991 193.755 39.3551V48.3551C193.755 48.5951 193.723 48.8191 193.659 49.0271C193.611 49.2351 193.483 49.4031 193.275 49.5311C193.083 49.6591 192.763 49.7231 192.315 49.7231C191.995 49.7231 191.739 49.6831 191.547 49.6031C191.371 49.5391 191.235 49.4511 191.139 49.3391C191.059 49.2111 191.003 49.0831 190.971 48.9551C190.955 48.8271 190.947 48.6991 190.947 48.5711L191.139 47.9231C191.043 48.0671 190.899 48.2431 190.707 48.4511C190.515 48.6431 190.275 48.8431 189.987 49.0511C189.715 49.2431 189.395 49.4031 189.027 49.5311C188.659 49.6591 188.251 49.7231 187.803 49.7231ZM201.213 49.7231C200.477 49.7231 199.781 49.5711 199.125 49.2671C198.469 48.9631 197.893 48.5471 197.397 48.0191C196.901 47.4751 196.509 46.8431 196.221 46.1231C195.933 45.3871 195.789 44.6031 195.789 43.7711C195.789 42.9711 195.933 42.2191 196.221 41.5151C196.509 40.7951 196.901 40.1711 197.397 39.6431C197.909 39.0991 198.493 38.6751 199.149 38.3711C199.805 38.0671 200.493 37.9151 201.213 37.9151C201.981 37.9151 202.669 38.0671 203.277 38.3711C203.885 38.6751 204.397 39.0991 204.813 39.6431C205.245 40.1711 205.573 40.7951 205.797 41.5151C206.021 42.2191 206.141 42.9791 206.157 43.7951C206.157 44.6111 206.045 45.3791 205.821 46.0991C205.613 46.8031 205.293 47.4271 204.861 47.9711C204.445 48.5151 203.925 48.9471 203.301 49.2671C202.693 49.5711 201.997 49.7231 201.213 49.7231ZM201.597 46.9151C202.157 46.9151 202.653 46.7871 203.085 46.5311C203.533 46.2591 203.885 45.8911 204.141 45.4271C204.413 44.9631 204.549 44.4351 204.549 43.8431C204.549 43.2351 204.413 42.6991 204.141 42.2351C203.885 41.7711 203.533 41.4031 203.085 41.1311C202.653 40.8591 202.157 40.7231 201.597 40.7231C201.037 40.7231 200.533 40.8591 200.085 41.1311C199.637 41.3871 199.277 41.7551 199.005 42.2351C198.749 42.6991 198.621 43.2351 198.621 43.8431C198.621 44.4351 198.749 44.9631 199.005 45.4271C199.277 45.8911 199.637 46.2591 200.085 46.5311C200.549 46.7871 201.053 46.9151 201.597 46.9151ZM206.037 49.7231C205.589 49.7231 205.261 49.6511 205.053 49.5071C204.845 49.3471 204.709 49.0991 204.645 48.7631V33.9791C204.645 33.7071 204.661 33.4671 204.693 33.2591C204.741 33.0351 204.861 32.8591 205.053 32.7311C205.261 32.5871 205.581 32.5151 206.013 32.5151C206.477 32.5151 206.805 32.5791 206.997 32.7071C207.189 32.8351 207.309 33.0111 207.357 33.2351C207.421 33.4431 207.453 33.6831 207.453 33.9551V48.2591C207.453 48.5311 207.429 48.7791 207.381 49.0031C207.333 49.2271 207.205 49.4031 206.997 49.5311C206.805 49.6591 206.485 49.7231 206.037 49.7231ZM219.536 49.6991C219.072 49.6991 218.728 49.6111 218.504 49.4351C218.28 49.2591 218.168 49.0191 218.168 48.7151L218.336 47.9231C218.208 48.1311 217.992 48.3791 217.688 48.6671C217.384 48.9391 216.984 49.1871 216.488 49.4111C215.992 49.6191 215.392 49.7231 214.688 49.7231C213.936 49.7231 213.224 49.5711 212.552 49.2671C211.896 48.9471 211.312 48.5151 210.8 47.9711C210.304 47.4111 209.904 46.7791 209.6 46.0751C209.312 45.3551 209.168 44.5871 209.168 43.7711C209.168 42.9871 209.312 42.2511 209.6 41.5631C209.904 40.8591 210.312 40.2351 210.824 39.6911C211.336 39.1471 211.92 38.7231 212.576 38.4191C213.248 38.0991 213.952 37.9391 214.688 37.9391C215.344 37.9391 215.896 38.0271 216.344 38.2031C216.808 38.3791 217.2 38.6031 217.52 38.8751C217.84 39.1311 218.104 39.4031 218.312 39.6911L218.168 38.9951C218.168 38.6431 218.28 38.3791 218.504 38.2031C218.728 38.0111 219.08 37.9151 219.56 37.9151C220.008 37.9151 220.328 37.9871 220.52 38.1311C220.712 38.2591 220.832 38.4431 220.88 38.6831C220.928 38.9071 220.952 39.1631 220.952 39.4511V48.2351C220.952 48.5071 220.928 48.7551 220.88 48.9791C220.832 49.2031 220.704 49.3791 220.496 49.5071C220.304 49.6351 219.984 49.6991 219.536 49.6991ZM215.12 46.9151C215.664 46.9151 216.152 46.7791 216.584 46.5071C217.016 46.2351 217.36 45.8671 217.616 45.4031C217.888 44.9231 218.024 44.3951 218.024 43.8191C218.024 43.1951 217.888 42.6511 217.616 42.1871C217.344 41.7231 216.984 41.3631 216.536 41.1071C216.104 40.8351 215.616 40.6991 215.072 40.6991C214.48 40.6991 213.952 40.8431 213.488 41.1311C213.024 41.4031 212.656 41.7791 212.384 42.2591C212.128 42.7231 212 43.2511 212 43.8431C212 44.4191 212.136 44.9391 212.408 45.4031C212.68 45.8671 213.048 46.2351 213.512 46.5071C213.992 46.7791 214.528 46.9151 215.12 46.9151ZM225.867 54.4751C225.355 54.2511 225.059 53.9951 224.979 53.7071C224.899 53.4351 224.971 53.0671 225.195 52.6031L231.387 38.7311C231.611 38.2191 231.851 37.9151 232.107 37.8191C232.363 37.7071 232.755 37.7631 233.283 37.9871C233.779 38.2111 234.067 38.4591 234.147 38.7311C234.243 39.0031 234.187 39.3711 233.979 39.8351L227.739 53.7791C227.531 54.2911 227.299 54.5871 227.043 54.6671C226.787 54.7631 226.395 54.6991 225.867 54.4751ZM228.099 48.5951L222.555 40.0751C222.267 39.6431 222.147 39.2831 222.195 38.9951C222.259 38.7071 222.515 38.4271 222.963 38.1551C223.459 37.8511 223.843 37.7311 224.115 37.7951C224.403 37.8591 224.691 38.1151 224.979 38.5631L229.371 45.4031L228.099 48.5951ZM245.762 49.6991C245.298 49.6991 244.954 49.6111 244.73 49.4351C244.506 49.2591 244.394 49.0191 244.394 48.7151L244.562 47.9231C244.434 48.1311 244.218 48.3791 243.914 48.6671C243.61 48.9391 243.21 49.1871 242.714 49.4111C242.218 49.6191 241.618 49.7231 240.914 49.7231C240.162 49.7231 239.45 49.5711 238.778 49.2671C238.122 48.9471 237.538 48.5151 237.026 47.9711C236.53 47.4111 236.13 46.7791 235.826 46.0751C235.538 45.3551 235.394 44.5871 235.394 43.7711C235.394 42.9871 235.538 42.2511 235.826 41.5631C236.13 40.8591 236.538 40.2351 237.05 39.6911C237.562 39.1471 238.146 38.7231 238.802 38.4191C239.474 38.0991 240.178 37.9391 240.914 37.9391C241.57 37.9391 242.122 38.0271 242.57 38.2031C243.034 38.3791 243.426 38.6031 243.746 38.8751C244.066 39.1311 244.33 39.4031 244.538 39.6911L244.394 38.9951C244.394 38.6431 244.506 38.3791 244.73 38.2031C244.954 38.0111 245.306 37.9151 245.786 37.9151C246.234 37.9151 246.554 37.9871 246.746 38.1311C246.938 38.2591 247.058 38.4431 247.106 38.6831C247.154 38.9071 247.178 39.1631 247.178 39.4511V48.2351C247.178 48.5071 247.154 48.7551 247.106 48.9791C247.058 49.2031 246.93 49.3791 246.722 49.5071C246.53 49.6351 246.21 49.6991 245.762 49.6991ZM241.346 46.9151C241.89 46.9151 242.378 46.7791 242.81 46.5071C243.242 46.2351 243.586 45.8671 243.842 45.4031C244.114 44.9231 244.25 44.3951 244.25 43.8191C244.25 43.1951 244.114 42.6511 243.842 42.1871C243.57 41.7231 243.21 41.3631 242.762 41.1071C242.33 40.8351 241.842 40.6991 241.298 40.6991C240.706 40.6991 240.178 40.8431 239.714 41.1311C239.25 41.4031 238.882 41.7791 238.61 42.2591C238.354 42.7231 238.226 43.2511 238.226 43.8431C238.226 44.4191 238.362 44.9391 238.634 45.4031C238.906 45.8671 239.274 46.2351 239.738 46.5071C240.218 46.7791 240.754 46.9151 241.346 46.9151ZM259.643 49.8911C259.227 49.8911 258.787 49.8431 258.323 49.7471C257.859 49.6671 257.411 49.5471 256.979 49.3871C256.547 49.2111 256.171 49.0111 255.851 48.7871C255.547 48.5471 255.355 48.2831 255.275 47.9951C255.211 47.8351 255.187 47.6831 255.203 47.5391C255.219 47.3791 255.267 47.2191 255.347 47.0591C255.427 46.8831 255.547 46.7071 255.707 46.5311C255.851 46.3551 255.995 46.2591 256.139 46.2431C256.299 46.2111 256.499 46.2591 256.739 46.3871C256.947 46.4671 257.171 46.5711 257.411 46.6991C257.667 46.8271 257.923 46.9551 258.179 47.0831C258.451 47.2111 258.723 47.3151 258.995 47.3951C259.283 47.4751 259.563 47.5151 259.835 47.5151C260.427 47.5151 260.899 47.4191 261.251 47.2271C261.603 47.0191 261.779 46.7311 261.779 46.3631C261.779 46.1551 261.723 45.9711 261.611 45.8111C261.499 45.6511 261.347 45.5231 261.155 45.4271C260.979 45.3151 260.763 45.2191 260.507 45.1391C260.267 45.0431 260.003 44.9631 259.715 44.8991C259.443 44.8191 259.155 44.7311 258.851 44.6351C258.451 44.5231 258.051 44.3871 257.651 44.2271C257.251 44.0671 256.891 43.8591 256.571 43.6031C256.267 43.3471 256.019 43.0271 255.827 42.6431C255.635 42.2591 255.539 41.7791 255.539 41.2031C255.539 40.4831 255.707 39.8751 256.043 39.3791C256.395 38.8671 256.899 38.4751 257.555 38.2031C258.211 37.9311 259.003 37.7951 259.931 37.7951C260.251 37.7951 260.555 37.8191 260.843 37.8671C261.147 37.9151 261.435 37.9871 261.707 38.0831C261.995 38.1631 262.267 38.2671 262.523 38.3951C262.795 38.5231 263.051 38.6671 263.291 38.8271C263.691 39.0511 263.899 39.3151 263.915 39.6191C263.931 39.9071 263.819 40.2191 263.579 40.5551C263.403 40.7791 263.227 40.9391 263.051 41.0351C262.875 41.1151 262.691 41.1151 262.499 41.0351C262.243 40.9071 261.963 40.7711 261.659 40.6271C261.371 40.4671 261.067 40.3311 260.747 40.2191C260.443 40.1071 260.123 40.0511 259.787 40.0511C259.467 40.0511 259.179 40.0991 258.923 40.1951C258.667 40.2911 258.475 40.4271 258.347 40.6031C258.219 40.7791 258.155 40.9871 258.155 41.2271C258.155 41.4511 258.219 41.6351 258.347 41.7791C258.475 41.9231 258.643 42.0431 258.851 42.1391C259.059 42.2351 259.307 42.3231 259.595 42.4031C259.883 42.4671 260.187 42.5311 260.507 42.5951C260.955 42.6911 261.411 42.8111 261.875 42.9551C262.339 43.0991 262.763 43.2991 263.147 43.5551C263.547 43.8111 263.867 44.1551 264.107 44.5871C264.347 45.0031 264.467 45.5471 264.467 46.2191C264.467 47.3871 264.035 48.2911 263.171 48.9311C262.323 49.5711 261.147 49.8911 259.643 49.8911ZM272.267 49.8911C271.227 49.8911 270.315 49.7231 269.531 49.3871C268.763 49.0511 268.115 48.5951 267.587 48.0191C267.075 47.4271 266.683 46.7711 266.411 46.0511C266.155 45.3151 266.027 44.5551 266.027 43.7711C266.027 42.6191 266.291 41.5951 266.819 40.6991C267.347 39.8031 268.075 39.0991 269.003 38.5871C269.947 38.0751 271.027 37.8191 272.243 37.8191C273.107 37.8191 273.867 37.9551 274.523 38.2271C275.179 38.4991 275.723 38.8591 276.155 39.3071C276.603 39.7391 276.939 40.2191 277.163 40.7471C277.403 41.2751 277.523 41.7871 277.523 42.2831C277.523 43.1311 277.315 43.7471 276.899 44.1311C276.499 44.5151 275.995 44.7071 275.387 44.7071H269.051C269.067 45.2511 269.235 45.7231 269.555 46.1231C269.891 46.5231 270.307 46.8351 270.803 47.0591C271.315 47.2671 271.835 47.3711 272.363 47.3711C272.763 47.3711 273.115 47.3471 273.419 47.2991C273.739 47.2511 274.011 47.1951 274.235 47.1311C274.459 47.0511 274.651 46.9711 274.811 46.8911C274.987 46.8111 275.147 46.7391 275.291 46.6751C275.435 46.6111 275.571 46.5711 275.699 46.5551C275.875 46.5391 276.051 46.5791 276.227 46.6751C276.403 46.7711 276.547 46.9391 276.659 47.1791C276.755 47.3391 276.819 47.4911 276.851 47.6351C276.899 47.7631 276.923 47.8911 276.923 48.0191C276.923 48.3391 276.731 48.6431 276.347 48.9311C275.963 49.2031 275.419 49.4271 274.715 49.6031C274.027 49.7951 273.211 49.8911 272.267 49.8911ZM269.051 43.0031H273.971C274.243 43.0031 274.451 42.9631 274.595 42.8831C274.739 42.7871 274.811 42.5951 274.811 42.3071C274.811 41.9391 274.699 41.6111 274.475 41.3231C274.251 41.0191 273.947 40.7871 273.563 40.6271C273.179 40.4511 272.731 40.3631 272.219 40.3631C271.627 40.3631 271.091 40.4831 270.611 40.7231C270.131 40.9471 269.747 41.2591 269.459 41.6591C269.187 42.0591 269.051 42.5071 269.051 43.0031ZM288.9 47.1551C289.316 47.5071 289.532 47.8351 289.548 48.1391C289.58 48.4431 289.42 48.7951 289.068 49.1951C288.796 49.4991 288.556 49.6991 288.348 49.7951C288.14 49.8911 287.932 49.8911 287.724 49.7951C287.516 49.7151 287.268 49.5551 286.98 49.3151L282.396 45.4511V48.3071C282.396 48.5631 282.364 48.8031 282.3 49.0271C282.252 49.2511 282.124 49.4271 281.916 49.5551C281.724 49.6831 281.404 49.7471 280.956 49.7471C280.508 49.7471 280.18 49.6751 279.972 49.5311C279.78 49.4031 279.66 49.2271 279.612 49.0031C279.564 48.7791 279.54 48.5391 279.54 48.2831V33.9551C279.54 33.6831 279.564 33.4431 279.612 33.2351C279.676 33.0111 279.804 32.8351 279.996 32.7071C280.204 32.5631 280.532 32.4911 280.98 32.4911C281.428 32.4911 281.748 32.5631 281.94 32.7071C282.132 32.8351 282.252 33.0111 282.3 33.2351C282.364 33.4431 282.396 33.6911 282.396 33.9791V41.8511L285.708 38.6351C285.964 38.3951 286.204 38.2351 286.428 38.1551C286.652 38.0591 286.868 38.0511 287.076 38.1311C287.3 38.1951 287.532 38.3631 287.772 38.6351C288.172 39.0671 288.364 39.4271 288.348 39.7151C288.332 39.9871 288.132 40.3151 287.748 40.6991L284.508 43.6991L288.9 47.1551ZM296.216 49.8911C295.448 49.8911 294.696 49.7471 293.96 49.4591C293.24 49.1551 292.584 48.7311 291.992 48.1871C291.416 47.6431 290.952 47.0031 290.6 46.2671C290.264 45.5311 290.096 44.7231 290.096 43.8431C290.096 42.9951 290.256 42.2031 290.576 41.4671C290.896 40.7311 291.336 40.0831 291.896 39.5231C292.456 38.9631 293.096 38.5311 293.816 38.2271C294.552 37.9071 295.336 37.7471 296.168 37.7471C297.288 37.7471 298.304 38.0191 299.216 38.5631C300.128 39.0911 300.856 39.8111 301.4 40.7231C301.944 41.6351 302.216 42.6671 302.216 43.8191C302.216 44.7311 302.048 45.5631 301.712 46.3151C301.376 47.0511 300.92 47.6911 300.344 48.2351C299.768 48.7631 299.12 49.1711 298.4 49.4591C297.696 49.7471 296.968 49.8911 296.216 49.8911ZM296.168 47.0591C296.696 47.0591 297.2 46.9311 297.68 46.6751C298.176 46.4031 298.576 46.0191 298.88 45.5231C299.2 45.0271 299.36 44.4431 299.36 43.7711C299.36 43.1471 299.216 42.5951 298.928 42.1151C298.656 41.6351 298.28 41.2591 297.8 40.9871C297.32 40.7151 296.768 40.5791 296.144 40.5791C295.552 40.5791 295.016 40.7231 294.536 41.0111C294.056 41.2831 293.672 41.6671 293.384 42.1631C293.112 42.6431 292.976 43.1871 292.976 43.7951C292.976 44.4671 293.128 45.0511 293.432 45.5471C293.736 46.0271 294.128 46.4031 294.608 46.6751C295.104 46.9311 295.624 47.0591 296.168 47.0591ZM308.23 49.7471C307.638 49.7471 307.11 49.7071 306.646 49.6271C306.198 49.5471 305.806 49.4111 305.47 49.2191C305.15 49.0271 304.886 48.7711 304.678 48.4511C304.47 48.1151 304.31 47.7071 304.198 47.2271C304.102 46.7471 304.054 46.1711 304.054 45.4991V33.9311C304.054 33.6591 304.078 33.4191 304.126 33.2111C304.19 32.9871 304.318 32.8111 304.51 32.6831C304.718 32.5391 305.046 32.4671 305.494 32.4671C305.942 32.4671 306.262 32.5311 306.454 32.6591C306.662 32.7871 306.79 32.9631 306.838 33.1871C306.902 33.3951 306.934 33.6351 306.934 33.9071V45.3791C306.934 45.6831 306.95 45.9391 306.982 46.1471C307.03 46.3391 307.102 46.4991 307.198 46.6271C307.31 46.7391 307.446 46.8191 307.606 46.8671C307.782 46.9151 307.99 46.9391 308.23 46.9391C308.438 46.9391 308.622 46.9631 308.782 47.0111C308.958 47.0591 309.094 47.1791 309.19 47.3711C309.302 47.5631 309.358 47.8751 309.358 48.3071C309.358 48.7551 309.302 49.0831 309.19 49.2911C309.094 49.4991 308.958 49.6271 308.782 49.6751C308.606 49.7231 308.422 49.7471 308.23 49.7471ZM320.926 49.6991C320.462 49.6991 320.118 49.6111 319.894 49.4351C319.67 49.2591 319.558 49.0191 319.558 48.7151L319.726 47.9231C319.598 48.1311 319.382 48.3791 319.078 48.6671C318.774 48.9391 318.374 49.1871 317.878 49.4111C317.382 49.6191 316.782 49.7231 316.078 49.7231C315.326 49.7231 314.614 49.5711 313.942 49.2671C313.286 48.9471 312.702 48.5151 312.19 47.9711C311.694 47.4111 311.294 46.7791 310.99 46.0751C310.702 45.3551 310.558 44.5871 310.558 43.7711C310.558 42.9871 310.702 42.2511 310.99 41.5631C311.294 40.8591 311.702 40.2351 312.214 39.6911C312.726 39.1471 313.31 38.7231 313.966 38.4191C314.638 38.0991 315.342 37.9391 316.078 37.9391C316.734 37.9391 317.286 38.0271 317.734 38.2031C318.198 38.3791 318.59 38.6031 318.91 38.8751C319.23 39.1311 319.494 39.4031 319.702 39.6911L319.558 38.9951C319.558 38.6431 319.67 38.3791 319.894 38.2031C320.118 38.0111 320.47 37.9151 320.95 37.9151C321.398 37.9151 321.718 37.9871 321.91 38.1311C322.102 38.2591 322.222 38.4431 322.27 38.6831C322.318 38.9071 322.342 39.1631 322.342 39.4511V48.2351C322.342 48.5071 322.318 48.7551 322.27 48.9791C322.222 49.2031 322.094 49.3791 321.886 49.5071C321.694 49.6351 321.374 49.6991 320.926 49.6991ZM316.51 46.9151C317.054 46.9151 317.542 46.7791 317.974 46.5071C318.406 46.2351 318.75 45.8671 319.006 45.4031C319.278 44.9231 319.414 44.3951 319.414 43.8191C319.414 43.1951 319.278 42.6511 319.006 42.1871C318.734 41.7231 318.374 41.3631 317.926 41.1071C317.494 40.8351 317.006 40.6991 316.462 40.6991C315.87 40.6991 315.342 40.8431 314.878 41.1311C314.414 41.4031 314.046 41.7791 313.774 42.2591C313.518 42.7231 313.39 43.2511 313.39 43.8431C313.39 44.4191 313.526 44.9391 313.798 45.4031C314.07 45.8671 314.438 46.2351 314.902 46.5071C315.382 46.7791 315.918 46.9151 316.51 46.9151ZM326.046 49.7471C325.598 49.7471 325.27 49.6751 325.062 49.5311C324.87 49.4031 324.75 49.2271 324.702 49.0031C324.654 48.7791 324.63 48.5391 324.63 48.2831V33.9551C324.63 33.6831 324.654 33.4431 324.702 33.2351C324.766 33.0111 324.894 32.8351 325.086 32.7071C325.294 32.5791 325.622 32.5151 326.07 32.5151C326.518 32.5151 326.838 32.5871 327.03 32.7311C327.238 32.8591 327.366 33.0351 327.414 33.2591C327.478 33.4671 327.51 33.7071 327.51 33.9791V39.4031C327.83 39.0351 328.238 38.6991 328.734 38.3951C329.246 38.0751 329.862 37.9151 330.582 37.9151C331.558 37.9151 332.43 38.1551 333.198 38.6351C333.966 39.0991 334.574 39.7471 335.022 40.5791C335.47 41.4111 335.694 42.3871 335.694 43.5071V48.3071C335.694 48.5631 335.67 48.8031 335.622 49.0271C335.574 49.2351 335.446 49.4031 335.238 49.5311C335.046 49.6591 334.726 49.7231 334.278 49.7231C333.83 49.7231 333.502 49.6591 333.294 49.5311C333.086 49.4031 332.958 49.2351 332.91 49.0271C332.862 48.8031 332.838 48.5471 332.838 48.2591V43.4831C332.838 42.9231 332.742 42.4351 332.55 42.0191C332.358 41.6031 332.07 41.2831 331.686 41.0591C331.318 40.8191 330.854 40.6991 330.294 40.6991C329.542 40.6991 328.91 40.9231 328.398 41.3711C327.886 41.8031 327.59 42.3631 327.51 43.0511V48.3071C327.51 48.5631 327.478 48.8031 327.414 49.0271C327.366 49.2511 327.238 49.4271 327.03 49.5551C326.838 49.6831 326.51 49.7471 326.046 49.7471ZM82.2325 78.5791C81.4485 78.5791 80.7445 78.4351 80.1205 78.1471C79.5125 77.8431 78.9925 77.4271 78.5605 76.8991C78.1445 76.3551 77.8245 75.7311 77.6005 75.0271C77.3925 74.3231 77.2885 73.5631 77.2885 72.7471C77.3045 71.9311 77.4245 71.1711 77.6485 70.4671C77.8725 69.7471 78.1925 69.1231 78.6085 68.5951C79.0405 68.0671 79.5605 67.6511 80.1685 67.3471C80.7765 67.0431 81.4645 66.8911 82.2325 66.8911C82.9685 66.8911 83.6565 67.0431 84.2965 67.3471C84.9525 67.6511 85.5285 68.0751 86.0245 68.6191C86.5365 69.1631 86.9365 69.7951 87.2245 70.5151C87.5125 71.2191 87.6565 71.9791 87.6565 72.7951C87.6565 73.6271 87.5125 74.3951 87.2245 75.0991C86.9365 75.8031 86.5445 76.4191 86.0485 76.9471C85.5525 77.4591 84.9765 77.8591 84.3205 78.1471C83.6645 78.4351 82.9685 78.5791 82.2325 78.5791ZM77.4325 83.5711C77.0005 83.5711 76.6805 83.5071 76.4725 83.3791C76.2645 83.2511 76.1365 83.0831 76.0885 82.8751C76.0405 82.6671 76.0165 82.4271 76.0165 82.1551V68.3551C76.0165 68.0831 76.0405 67.8431 76.0885 67.6351C76.1365 67.4271 76.2565 67.2591 76.4485 67.1311C76.6565 66.9871 76.9765 66.9151 77.4085 66.9151C77.8245 66.9151 78.1525 66.9791 78.3925 67.1071C78.6325 67.2351 78.7925 67.4511 78.8725 67.7551V82.1311C78.8885 82.4031 78.8645 82.6431 78.8005 82.8511C78.7525 83.0751 78.6245 83.2511 78.4165 83.3791C78.2085 83.5071 77.8805 83.5711 77.4325 83.5711ZM81.8485 75.8911C82.4085 75.8911 82.9125 75.7631 83.3605 75.5071C83.8085 75.2351 84.1605 74.8671 84.4165 74.4031C84.6885 73.9231 84.8245 73.3871 84.8245 72.7951C84.8245 72.1871 84.6885 71.6511 84.4165 71.1871C84.1605 70.7231 83.8085 70.3631 83.3605 70.1071C82.9125 69.8351 82.4085 69.6991 81.8485 69.6991C81.3045 69.6991 80.8085 69.8351 80.3605 70.1071C79.9125 70.3791 79.5525 70.7471 79.2805 71.2111C79.0245 71.6591 78.8965 72.1871 78.8965 72.7951C78.8965 73.3871 79.0245 73.9231 79.2805 74.4031C79.5525 74.8671 79.9125 75.2351 80.3605 75.5071C80.8085 75.7631 81.3045 75.8911 81.8485 75.8911ZM95.3959 78.8911C94.3559 78.8911 93.4439 78.7231 92.6599 78.3871C91.8919 78.0511 91.2439 77.5951 90.7159 77.0191C90.2039 76.4271 89.8119 75.7711 89.5399 75.0511C89.2839 74.3151 89.1559 73.5551 89.1559 72.7711C89.1559 71.6191 89.4199 70.5951 89.9479 69.6991C90.4759 68.8031 91.2039 68.0991 92.1319 67.5871C93.0759 67.0751 94.1559 66.8191 95.3719 66.8191C96.2359 66.8191 96.9959 66.9551 97.6519 67.2271C98.3079 67.4991 98.8519 67.8591 99.2839 68.3071C99.7319 68.7391 100.068 69.2191 100.292 69.7471C100.532 70.2751 100.652 70.7871 100.652 71.2831C100.652 72.1311 100.444 72.7471 100.028 73.1311C99.6279 73.5151 99.1239 73.7071 98.5159 73.7071H92.1799C92.1959 74.2511 92.3639 74.7231 92.6839 75.1231C93.0199 75.5231 93.4359 75.8351 93.9319 76.0591C94.4439 76.2671 94.9639 76.3711 95.4919 76.3711C95.8919 76.3711 96.2439 76.3471 96.5479 76.2991C96.8679 76.2511 97.1399 76.1951 97.3639 76.1311C97.5879 76.0511 97.7799 75.9711 97.9399 75.8911C98.1159 75.8111 98.2759 75.7391 98.4199 75.6751C98.5639 75.6111 98.6999 75.5711 98.8279 75.5551C99.0039 75.5391 99.1799 75.5791 99.3559 75.6751C99.5319 75.7711 99.6759 75.9391 99.7879 76.1791C99.8839 76.3391 99.9479 76.4911 99.9799 76.6351C100.028 76.7631 100.052 76.8911 100.052 77.0191C100.052 77.3391 99.8599 77.6431 99.4759 77.9311C99.0919 78.2031 98.5479 78.4271 97.8439 78.6031C97.1559 78.7951 96.3399 78.8911 95.3959 78.8911ZM92.1799 72.0031H97.0999C97.3719 72.0031 97.5799 71.9631 97.7239 71.8831C97.8679 71.7871 97.9399 71.5951 97.9399 71.3071C97.9399 70.9391 97.8279 70.6111 97.6039 70.3231C97.3799 70.0191 97.0759 69.7871 96.6919 69.6271C96.3079 69.4511 95.8599 69.3631 95.3479 69.3631C94.7559 69.3631 94.2199 69.4831 93.7399 69.7231C93.2599 69.9471 92.8759 70.2591 92.5879 70.6591C92.3159 71.0591 92.1799 71.5071 92.1799 72.0031ZM104.037 78.7471C103.605 78.7471 103.285 78.6751 103.077 78.5311C102.885 78.4031 102.765 78.2271 102.717 78.0031C102.669 77.7791 102.645 77.5311 102.645 77.2591V68.3551C102.645 68.0671 102.669 67.8191 102.717 67.6111C102.765 67.3871 102.885 67.2191 103.077 67.1071C103.285 66.9791 103.613 66.9151 104.061 66.9151C104.493 66.9151 104.805 66.9711 104.997 67.0831C105.205 67.1951 105.333 67.3391 105.381 67.5151C105.445 67.6751 105.477 67.8351 105.477 67.9951L105.285 68.4271C105.365 68.2991 105.477 68.1471 105.621 67.9711C105.765 67.7791 105.957 67.5951 106.197 67.4191C106.437 67.2271 106.725 67.0751 107.061 66.9631C107.397 66.8351 107.797 66.7711 108.261 66.7711C108.453 66.7711 108.653 66.7951 108.861 66.8431C109.085 66.8751 109.301 66.9311 109.509 67.0111C109.733 67.0751 109.933 67.1631 110.109 67.2751C110.285 67.3871 110.421 67.5231 110.517 67.6831C110.613 67.8271 110.661 67.9951 110.661 68.1871C110.661 68.6991 110.533 69.1311 110.277 69.4831C110.021 69.8351 109.717 70.0111 109.365 70.0111C109.125 70.0111 108.949 69.9871 108.837 69.9391C108.725 69.8911 108.629 69.8351 108.549 69.7711C108.485 69.7071 108.381 69.6511 108.237 69.6031C108.109 69.5551 107.901 69.5311 107.613 69.5311C107.373 69.5311 107.125 69.5711 106.869 69.6511C106.629 69.7311 106.405 69.8511 106.197 70.0111C105.989 70.1711 105.821 70.3791 105.693 70.6351C105.565 70.8751 105.501 71.1551 105.501 71.4751V77.3071C105.501 77.5791 105.477 77.8271 105.429 78.0511C105.381 78.2591 105.253 78.4271 105.045 78.5551C104.837 78.6831 104.501 78.7471 104.037 78.7471ZM113.974 78.7231C113.542 78.7231 113.222 78.6591 113.014 78.5311C112.822 78.4031 112.702 78.2271 112.654 78.0031C112.606 77.7791 112.582 77.5391 112.582 77.2831V68.3071C112.582 68.0511 112.606 67.8191 112.654 67.6111C112.702 67.4031 112.83 67.2351 113.038 67.1071C113.246 66.9791 113.574 66.9151 114.022 66.9151C114.486 66.9151 114.822 67.0111 115.03 67.2031C115.254 67.3951 115.366 67.6991 115.366 68.1151L115.15 68.7871C115.23 68.6111 115.366 68.4191 115.558 68.2111C115.75 68.0031 115.982 67.7951 116.254 67.5871C116.542 67.3791 116.862 67.2111 117.214 67.0831C117.566 66.9551 117.934 66.8911 118.318 66.8911C118.846 66.8911 119.326 66.9791 119.758 67.1551C120.206 67.3311 120.598 67.5871 120.934 67.9231C121.286 68.2591 121.59 68.6671 121.846 69.1471C122.118 68.7311 122.422 68.3551 122.758 68.0191C123.094 67.6671 123.486 67.3951 123.934 67.2031C124.382 66.9951 124.886 66.8911 125.446 66.8911C126.374 66.8911 127.15 67.1231 127.774 67.5871C128.414 68.0511 128.894 68.7151 129.214 69.5791C129.55 70.4271 129.718 71.4431 129.718 72.6271V77.2831C129.718 77.5551 129.686 77.8031 129.622 78.0271C129.574 78.2351 129.446 78.4031 129.238 78.5311C129.046 78.6591 128.726 78.7231 128.278 78.7231C127.83 78.7231 127.502 78.6511 127.294 78.5071C127.086 78.3791 126.958 78.2111 126.91 78.0031C126.862 77.7791 126.838 77.5311 126.838 77.2591V72.6031C126.838 72.0111 126.766 71.4991 126.622 71.0671C126.478 70.6351 126.262 70.2991 125.974 70.0591C125.702 69.8191 125.342 69.6991 124.894 69.6991C124.414 69.6991 123.998 69.8191 123.646 70.0591C123.31 70.2831 123.046 70.6111 122.854 71.0431C122.662 71.4751 122.566 72.0031 122.566 72.6271V77.3071C122.566 77.5791 122.526 77.8351 122.446 78.0751C122.366 78.2991 122.206 78.4671 121.966 78.5791C121.742 78.7071 121.414 78.7551 120.982 78.7231C120.582 78.7071 120.286 78.6271 120.094 78.4831C119.918 78.3391 119.806 78.1631 119.758 77.9551C119.726 77.7311 119.71 77.4991 119.71 77.2591V72.6031C119.71 72.0111 119.638 71.4991 119.494 71.0671C119.35 70.6191 119.134 70.2831 118.846 70.0591C118.574 69.8191 118.206 69.6991 117.742 69.6991C117.246 69.6991 116.822 69.8271 116.47 70.0831C116.134 70.3391 115.878 70.6831 115.702 71.1151C115.526 71.5471 115.438 72.0431 115.438 72.6031V77.3071C115.438 77.5631 115.406 77.8031 115.342 78.0271C115.294 78.2511 115.166 78.4191 114.958 78.5311C114.766 78.6591 114.438 78.7231 113.974 78.7231ZM133.665 78.7471C133.233 78.7471 132.913 78.6751 132.705 78.5311C132.497 78.4031 132.369 78.2351 132.321 78.0271C132.273 77.8031 132.249 77.5551 132.249 77.2831V68.3551C132.249 68.0991 132.273 67.8671 132.321 67.6591C132.385 67.4351 132.513 67.2591 132.705 67.1311C132.913 67.0031 133.241 66.9391 133.689 66.9391C134.137 66.9391 134.457 67.0031 134.649 67.1311C134.857 67.2591 134.985 67.4351 135.033 67.6591C135.081 67.8831 135.105 68.1311 135.105 68.4031V77.3071C135.105 77.5791 135.081 77.8271 135.033 78.0511C134.985 78.2591 134.857 78.4271 134.649 78.5551C134.457 78.6831 134.129 78.7471 133.665 78.7471ZM133.665 64.6111C133.201 64.6111 132.857 64.5471 132.633 64.4191C132.425 64.2751 132.289 64.0831 132.225 63.8431C132.177 63.6031 132.153 63.3391 132.153 63.0511C132.153 62.7471 132.177 62.4831 132.225 62.2591C132.289 62.0351 132.433 61.8591 132.657 61.7311C132.881 61.5871 133.225 61.5151 133.689 61.5151C134.169 61.5151 134.513 61.5871 134.721 61.7311C134.929 61.8751 135.065 62.0671 135.129 62.3071C135.193 62.5311 135.225 62.7951 135.225 63.0991C135.225 63.3711 135.193 63.6271 135.129 63.8671C135.065 64.1071 134.929 64.2911 134.721 64.4191C134.513 64.5471 134.161 64.6111 133.665 64.6111ZM141.835 78.8911C141.419 78.8911 140.979 78.8431 140.515 78.7471C140.051 78.6671 139.603 78.5471 139.171 78.3871C138.739 78.2111 138.363 78.0111 138.043 77.7871C137.739 77.5471 137.547 77.2831 137.467 76.9951C137.403 76.8351 137.379 76.6831 137.395 76.5391C137.411 76.3791 137.459 76.2191 137.539 76.0591C137.619 75.8831 137.739 75.7071 137.899 75.5311C138.043 75.3551 138.187 75.2591 138.331 75.2431C138.491 75.2111 138.691 75.2591 138.931 75.3871C139.139 75.4671 139.363 75.5711 139.603 75.6991C139.859 75.8271 140.115 75.9551 140.371 76.0831C140.643 76.2111 140.915 76.3151 141.187 76.3951C141.475 76.4751 141.755 76.5151 142.027 76.5151C142.619 76.5151 143.091 76.4191 143.443 76.2271C143.795 76.0191 143.971 75.7311 143.971 75.3631C143.971 75.1551 143.915 74.9711 143.803 74.8111C143.691 74.6511 143.539 74.5231 143.347 74.4271C143.171 74.3151 142.955 74.2191 142.699 74.1391C142.459 74.0431 142.195 73.9631 141.907 73.8991C141.635 73.8191 141.347 73.7311 141.043 73.6351C140.643 73.5231 140.243 73.3871 139.843 73.2271C139.443 73.0671 139.083 72.8591 138.763 72.6031C138.459 72.3471 138.211 72.0271 138.019 71.6431C137.827 71.2591 137.731 70.7791 137.731 70.2031C137.731 69.4831 137.899 68.8751 138.235 68.3791C138.587 67.8671 139.091 67.4751 139.747 67.2031C140.403 66.9311 141.195 66.7951 142.123 66.7951C142.443 66.7951 142.747 66.8191 143.035 66.8671C143.339 66.9151 143.627 66.9871 143.899 67.0831C144.187 67.1631 144.459 67.2671 144.715 67.3951C144.987 67.5231 145.243 67.6671 145.483 67.8271C145.883 68.0511 146.091 68.3151 146.107 68.6191C146.123 68.9071 146.011 69.2191 145.771 69.5551C145.595 69.7791 145.419 69.9391 145.243 70.0351C145.067 70.1151 144.883 70.1151 144.691 70.0351C144.435 69.9071 144.155 69.7711 143.851 69.6271C143.563 69.4671 143.259 69.3311 142.939 69.2191C142.635 69.1071 142.315 69.0511 141.979 69.0511C141.659 69.0511 141.371 69.0991 141.115 69.1951C140.859 69.2911 140.667 69.4271 140.539 69.6031C140.411 69.7791 140.347 69.9871 140.347 70.2271C140.347 70.4511 140.411 70.6351 140.539 70.7791C140.667 70.9231 140.835 71.0431 141.043 71.1391C141.251 71.2351 141.499 71.3231 141.787 71.4031C142.075 71.4671 142.379 71.5311 142.699 71.5951C143.147 71.6911 143.603 71.8111 144.067 71.9551C144.531 72.0991 144.955 72.2991 145.339 72.5551C145.739 72.8111 146.059 73.1551 146.299 73.5871C146.539 74.0031 146.659 74.5471 146.659 75.2191C146.659 76.3871 146.227 77.2911 145.363 77.9311C144.515 78.5711 143.339 78.8911 141.835 78.8911ZM150.282 78.7471C149.85 78.7471 149.53 78.6751 149.322 78.5311C149.114 78.4031 148.986 78.2351 148.938 78.0271C148.89 77.8031 148.866 77.5551 148.866 77.2831V68.3551C148.866 68.0991 148.89 67.8671 148.938 67.6591C149.002 67.4351 149.13 67.2591 149.322 67.1311C149.53 67.0031 149.858 66.9391 150.306 66.9391C150.754 66.9391 151.074 67.0031 151.266 67.1311C151.474 67.2591 151.602 67.4351 151.65 67.6591C151.698 67.8831 151.722 68.1311 151.722 68.4031V77.3071C151.722 77.5791 151.698 77.8271 151.65 78.0511C151.602 78.2591 151.474 78.4271 151.266 78.5551C151.074 78.6831 150.746 78.7471 150.282 78.7471ZM150.282 64.6111C149.818 64.6111 149.474 64.5471 149.25 64.4191C149.042 64.2751 148.906 64.0831 148.842 63.8431C148.794 63.6031 148.77 63.3391 148.77 63.0511C148.77 62.7471 148.794 62.4831 148.842 62.2591C148.906 62.0351 149.05 61.8591 149.274 61.7311C149.498 61.5871 149.842 61.5151 150.306 61.5151C150.786 61.5151 151.13 61.5871 151.338 61.7311C151.546 61.8751 151.682 62.0671 151.746 62.3071C151.81 62.5311 151.842 62.7951 151.842 63.0991C151.842 63.3711 151.81 63.6271 151.746 63.8671C151.682 64.1071 151.546 64.2911 151.338 64.4191C151.13 64.5471 150.778 64.6111 150.282 64.6111ZM156.827 78.7471C156.395 78.7471 156.075 78.6831 155.867 78.5551C155.675 78.4271 155.555 78.2511 155.507 78.0271C155.459 77.7871 155.435 77.5391 155.435 77.2831V65.6191C155.435 65.0271 155.515 64.4831 155.675 63.9871C155.835 63.4751 156.091 63.0351 156.443 62.6671C156.795 62.2991 157.251 62.0111 157.811 61.8031C158.371 61.5791 159.051 61.4671 159.851 61.4671C160.123 61.4671 160.363 61.4991 160.571 61.5631C160.795 61.6111 160.971 61.7311 161.099 61.9231C161.243 62.1151 161.315 62.4431 161.315 62.9071C161.315 63.3391 161.243 63.6591 161.099 63.8671C160.971 64.0751 160.795 64.2031 160.571 64.2511C160.347 64.2991 160.099 64.3231 159.827 64.3231C159.555 64.3231 159.315 64.3391 159.107 64.3711C158.915 64.3871 158.755 64.4351 158.627 64.5151C158.515 64.5951 158.427 64.7231 158.363 64.8991C158.315 65.0751 158.291 65.2991 158.291 65.5711V77.3311C158.291 77.5871 158.259 77.8271 158.195 78.0511C158.147 78.2591 158.019 78.4271 157.811 78.5551C157.603 78.6831 157.275 78.7471 156.827 78.7471ZM154.451 67.1551L156.923 67.1791L160.235 67.0831C160.507 67.0831 160.747 67.1151 160.955 67.1791C161.179 67.2271 161.355 67.3551 161.483 67.5631C161.611 67.7551 161.675 68.0751 161.675 68.5231C161.675 68.9391 161.611 69.2511 161.483 69.4591C161.355 69.6671 161.187 69.8031 160.979 69.8671C160.771 69.9151 160.531 69.9391 160.259 69.9391L157.043 69.8911L154.379 69.9151C153.979 69.8991 153.699 69.7871 153.539 69.5791C153.395 69.3551 153.323 68.9951 153.323 68.4991C153.323 68.0351 153.411 67.6991 153.587 67.4911C153.779 67.2671 154.067 67.1551 154.451 67.1551ZM163.586 81.2191C163.586 81.2191 163.554 81.2031 163.49 81.1711C163.426 81.1551 163.362 81.0911 163.298 80.9791C163.234 80.8831 163.202 80.7231 163.202 80.4991C163.202 80.1951 163.25 79.9951 163.346 79.8991C163.442 79.8191 163.506 79.7711 163.538 79.7551C163.554 79.7391 163.666 79.6431 163.874 79.4671C164.082 79.3071 164.202 79.0271 164.234 78.6271C164.074 78.5951 163.93 78.5551 163.802 78.5071C163.69 78.4431 163.594 78.3711 163.514 78.2911C163.354 78.1311 163.258 77.9471 163.226 77.7391C163.194 77.5151 163.178 77.2911 163.178 77.0671C163.178 76.6991 163.218 76.3951 163.298 76.1551C163.378 75.9151 163.53 75.7391 163.754 75.6271C163.994 75.4991 164.346 75.4351 164.81 75.4351C165.418 75.4351 165.85 75.5631 166.106 75.8191C166.25 75.9631 166.33 76.1471 166.346 76.3711C166.378 76.5951 166.394 76.8191 166.394 77.0431C166.394 77.2031 166.394 77.3391 166.394 77.4511C166.394 77.5471 166.386 77.6351 166.37 77.7151C166.306 78.3551 166.138 78.9391 165.866 79.4671C165.61 79.9951 165.282 80.4191 164.882 80.7391C164.498 81.0591 164.066 81.2191 163.586 81.2191ZM164.762 70.8031C164.154 70.8031 163.73 70.6831 163.49 70.4431C163.266 70.1871 163.154 69.7791 163.154 69.2191C163.154 68.8031 163.194 68.4751 163.274 68.2351C163.37 67.9951 163.538 67.8271 163.778 67.7311C164.034 67.6191 164.37 67.5631 164.786 67.5631C165.41 67.5631 165.834 67.6831 166.058 67.9231C166.282 68.1631 166.394 68.5871 166.394 69.1951C166.394 69.4831 166.362 69.7551 166.298 70.0111C166.234 70.2511 166.09 70.4431 165.866 70.5871C165.642 70.7311 165.274 70.8031 164.762 70.8031ZM176.039 78.7231C175.623 78.7231 175.311 78.6511 175.103 78.5071C174.895 78.3791 174.759 78.2031 174.695 77.9791C174.631 77.7551 174.599 77.5151 174.599 77.2591V63.3871C174.599 63.1311 174.623 62.8991 174.671 62.6911C174.735 62.4671 174.871 62.2911 175.079 62.1631C175.287 62.0191 175.615 61.9471 176.063 61.9471L180.575 61.9711C181.743 61.9711 182.815 62.1711 183.791 62.5711C184.783 62.9711 185.639 63.5391 186.359 64.2751C187.079 65.0111 187.631 65.8911 188.015 66.9151C188.415 67.9231 188.615 69.0351 188.615 70.2511C188.615 71.4991 188.415 72.6431 188.015 73.6831C187.615 74.7231 187.055 75.6191 186.335 76.3711C185.615 77.1231 184.759 77.7071 183.767 78.1231C182.791 78.5231 181.703 78.7231 180.503 78.7231H176.039ZM177.503 75.8191H180.575C181.599 75.8191 182.495 75.5951 183.263 75.1471C184.031 74.6831 184.623 74.0431 185.039 73.2271C185.471 72.4111 185.687 71.4591 185.687 70.3711C185.687 69.2671 185.471 68.3071 185.039 67.4911C184.623 66.6591 184.023 66.0191 183.239 65.5711C182.471 65.1071 181.575 64.8751 180.551 64.8751H177.503V75.8191ZM200.727 78.6991C200.263 78.6991 199.919 78.6111 199.695 78.4351C199.471 78.2591 199.359 78.0191 199.359 77.7151L199.527 76.9231C199.399 77.1311 199.183 77.3791 198.879 77.6671C198.575 77.9391 198.175 78.1871 197.679 78.4111C197.183 78.6191 196.583 78.7231 195.879 78.7231C195.127 78.7231 194.415 78.5711 193.743 78.2671C193.087 77.9471 192.503 77.5151 191.991 76.9711C191.495 76.4111 191.095 75.7791 190.791 75.0751C190.503 74.3551 190.359 73.5871 190.359 72.7711C190.359 71.9871 190.503 71.2511 190.791 70.5631C191.095 69.8591 191.503 69.2351 192.015 68.6911C192.527 68.1471 193.111 67.7231 193.767 67.4191C194.439 67.0991 195.143 66.9391 195.879 66.9391C196.535 66.9391 197.087 67.0271 197.535 67.2031C197.999 67.3791 198.391 67.6031 198.711 67.8751C199.031 68.1311 199.295 68.4031 199.503 68.6911L199.359 67.9951C199.359 67.6431 199.471 67.3791 199.695 67.2031C199.919 67.0111 200.271 66.9151 200.751 66.9151C201.199 66.9151 201.519 66.9871 201.711 67.1311C201.903 67.2591 202.023 67.4431 202.071 67.6831C202.119 67.9071 202.143 68.1631 202.143 68.4511V77.2351C202.143 77.5071 202.119 77.7551 202.071 77.9791C202.023 78.2031 201.895 78.3791 201.687 78.5071C201.495 78.6351 201.175 78.6991 200.727 78.6991ZM196.311 75.9151C196.855 75.9151 197.343 75.7791 197.775 75.5071C198.207 75.2351 198.551 74.8671 198.807 74.4031C199.079 73.9231 199.215 73.3951 199.215 72.8191C199.215 72.1951 199.079 71.6511 198.807 71.1871C198.535 70.7231 198.175 70.3631 197.727 70.1071C197.295 69.8351 196.807 69.6991 196.263 69.6991C195.671 69.6991 195.143 69.8431 194.679 70.1311C194.215 70.4031 193.847 70.7791 193.575 71.2591C193.319 71.7231 193.191 72.2511 193.191 72.8431C193.191 73.4191 193.327 73.9391 193.599 74.4031C193.871 74.8671 194.239 75.2351 194.703 75.5071C195.183 75.7791 195.719 75.9151 196.311 75.9151ZM205.943 78.7231C205.511 78.7231 205.191 78.6591 204.983 78.5311C204.791 78.4031 204.671 78.2271 204.623 78.0031C204.575 77.7791 204.551 77.5391 204.551 77.2831V68.3071C204.551 68.0511 204.575 67.8191 204.623 67.6111C204.671 67.4031 204.799 67.2351 205.007 67.1071C205.215 66.9791 205.543 66.9151 205.991 66.9151C206.455 66.9151 206.791 67.0111 206.999 67.2031C207.223 67.3951 207.335 67.6991 207.335 68.1151L207.119 68.7871C207.199 68.6111 207.335 68.4191 207.527 68.2111C207.719 68.0031 207.951 67.7951 208.223 67.5871C208.511 67.3791 208.831 67.2111 209.183 67.0831C209.535 66.9551 209.903 66.8911 210.287 66.8911C210.815 66.8911 211.295 66.9791 211.727 67.1551C212.175 67.3311 212.567 67.5871 212.903 67.9231C213.255 68.2591 213.559 68.6671 213.815 69.1471C214.087 68.7311 214.391 68.3551 214.727 68.0191C215.063 67.6671 215.455 67.3951 215.903 67.2031C216.351 66.9951 216.855 66.8911 217.415 66.8911C218.343 66.8911 219.119 67.1231 219.743 67.5871C220.383 68.0511 220.863 68.7151 221.183 69.5791C221.519 70.4271 221.687 71.4431 221.687 72.6271V77.2831C221.687 77.5551 221.655 77.8031 221.591 78.0271C221.543 78.2351 221.415 78.4031 221.207 78.5311C221.015 78.6591 220.695 78.7231 220.247 78.7231C219.799 78.7231 219.471 78.6511 219.263 78.5071C219.055 78.3791 218.927 78.2111 218.879 78.0031C218.831 77.7791 218.807 77.5311 218.807 77.2591V72.6031C218.807 72.0111 218.735 71.4991 218.591 71.0671C218.447 70.6351 218.231 70.2991 217.943 70.0591C217.671 69.8191 217.311 69.6991 216.863 69.6991C216.383 69.6991 215.967 69.8191 215.615 70.0591C215.279 70.2831 215.015 70.6111 214.823 71.0431C214.631 71.4751 214.535 72.0031 214.535 72.6271V77.3071C214.535 77.5791 214.495 77.8351 214.415 78.0751C214.335 78.2991 214.175 78.4671 213.935 78.5791C213.711 78.7071 213.383 78.7551 212.951 78.7231C212.551 78.7071 212.255 78.6271 212.063 78.4831C211.887 78.3391 211.775 78.1631 211.727 77.9551C211.695 77.7311 211.679 77.4991 211.679 77.2591V72.6031C211.679 72.0111 211.607 71.4991 211.463 71.0671C211.319 70.6191 211.103 70.2831 210.815 70.0591C210.543 69.8191 210.175 69.6991 209.711 69.6991C209.215 69.6991 208.791 69.8271 208.439 70.0831C208.103 70.3391 207.847 70.6831 207.671 71.1151C207.495 71.5471 207.407 72.0431 207.407 72.6031V77.3071C207.407 77.5631 207.375 77.8031 207.311 78.0271C207.263 78.2511 207.135 78.4191 206.927 78.5311C206.735 78.6591 206.407 78.7231 205.943 78.7231ZM230.17 78.5791C229.386 78.5791 228.682 78.4351 228.058 78.1471C227.45 77.8431 226.93 77.4271 226.498 76.8991C226.082 76.3551 225.762 75.7311 225.538 75.0271C225.33 74.3231 225.226 73.5631 225.226 72.7471C225.242 71.9311 225.362 71.1711 225.586 70.4671C225.81 69.7471 226.13 69.1231 226.546 68.5951C226.978 68.0671 227.498 67.6511 228.106 67.3471C228.714 67.0431 229.402 66.8911 230.17 66.8911C230.906 66.8911 231.594 67.0431 232.234 67.3471C232.89 67.6511 233.466 68.0751 233.962 68.6191C234.474 69.1631 234.874 69.7951 235.162 70.5151C235.45 71.2191 235.594 71.9791 235.594 72.7951C235.594 73.6271 235.45 74.3951 235.162 75.0991C234.874 75.8031 234.482 76.4191 233.986 76.9471C233.49 77.4591 232.914 77.8591 232.258 78.1471C231.602 78.4351 230.906 78.5791 230.17 78.5791ZM225.37 83.5711C224.938 83.5711 224.618 83.5071 224.41 83.3791C224.202 83.2511 224.074 83.0831 224.026 82.8751C223.978 82.6671 223.954 82.4271 223.954 82.1551V68.3551C223.954 68.0831 223.978 67.8431 224.026 67.6351C224.074 67.4271 224.194 67.2591 224.386 67.1311C224.594 66.9871 224.914 66.9151 225.346 66.9151C225.762 66.9151 226.09 66.9791 226.33 67.1071C226.57 67.2351 226.73 67.4511 226.81 67.7551V82.1311C226.826 82.4031 226.802 82.6431 226.738 82.8511C226.69 83.0751 226.562 83.2511 226.354 83.3791C226.146 83.5071 225.818 83.5711 225.37 83.5711ZM229.786 75.8911C230.346 75.8911 230.85 75.7631 231.298 75.5071C231.746 75.2351 232.098 74.8671 232.354 74.4031C232.626 73.9231 232.762 73.3871 232.762 72.7951C232.762 72.1871 232.626 71.6511 232.354 71.1871C232.098 70.7231 231.746 70.3631 231.298 70.1071C230.85 69.8351 230.346 69.6991 229.786 69.6991C229.242 69.6991 228.746 69.8351 228.298 70.1071C227.85 70.3791 227.49 70.7471 227.218 71.2111C226.962 71.6591 226.834 72.1871 226.834 72.7951C226.834 73.3871 226.962 73.9231 227.218 74.4031C227.49 74.8671 227.85 75.2351 228.298 75.5071C228.746 75.7631 229.242 75.8911 229.786 75.8911ZM247.461 78.6991C246.997 78.6991 246.653 78.6111 246.429 78.4351C246.205 78.2591 246.093 78.0191 246.093 77.7151L246.261 76.9231C246.133 77.1311 245.917 77.3791 245.613 77.6671C245.309 77.9391 244.909 78.1871 244.413 78.4111C243.917 78.6191 243.317 78.7231 242.613 78.7231C241.861 78.7231 241.149 78.5711 240.477 78.2671C239.821 77.9471 239.237 77.5151 238.725 76.9711C238.229 76.4111 237.829 75.7791 237.525 75.0751C237.237 74.3551 237.093 73.5871 237.093 72.7711C237.093 71.9871 237.237 71.2511 237.525 70.5631C237.829 69.8591 238.237 69.2351 238.749 68.6911C239.261 68.1471 239.845 67.7231 240.501 67.4191C241.173 67.0991 241.877 66.9391 242.613 66.9391C243.269 66.9391 243.821 67.0271 244.269 67.2031C244.733 67.3791 245.125 67.6031 245.445 67.8751C245.765 68.1311 246.029 68.4031 246.237 68.6911L246.093 67.9951C246.093 67.6431 246.205 67.3791 246.429 67.2031C246.653 67.0111 247.005 66.9151 247.485 66.9151C247.933 66.9151 248.253 66.9871 248.445 67.1311C248.637 67.2591 248.757 67.4431 248.805 67.6831C248.853 67.9071 248.877 68.1631 248.877 68.4511V77.2351C248.877 77.5071 248.853 77.7551 248.805 77.9791C248.757 78.2031 248.629 78.3791 248.421 78.5071C248.229 78.6351 247.909 78.6991 247.461 78.6991ZM243.045 75.9151C243.589 75.9151 244.077 75.7791 244.509 75.5071C244.941 75.2351 245.285 74.8671 245.541 74.4031C245.813 73.9231 245.949 73.3951 245.949 72.8191C245.949 72.1951 245.813 71.6511 245.541 71.1871C245.269 70.7231 244.909 70.3631 244.461 70.1071C244.029 69.8351 243.541 69.6991 242.997 69.6991C242.405 69.6991 241.877 69.8431 241.413 70.1311C240.949 70.4031 240.581 70.7791 240.309 71.2591C240.053 71.7231 239.925 72.2511 239.925 72.8431C239.925 73.4191 240.061 73.9391 240.333 74.4031C240.605 74.8671 240.973 75.2351 241.437 75.5071C241.917 75.7791 242.453 75.9151 243.045 75.9151ZM260.693 76.1551C261.109 76.5071 261.325 76.8351 261.341 77.1391C261.373 77.4431 261.213 77.7951 260.861 78.1951C260.589 78.4991 260.349 78.6991 260.141 78.7951C259.933 78.8911 259.725 78.8911 259.517 78.7951C259.309 78.7151 259.061 78.5551 258.773 78.3151L254.189 74.4511V77.3071C254.189 77.5631 254.157 77.8031 254.093 78.0271C254.045 78.2511 253.917 78.4271 253.709 78.5551C253.517 78.6831 253.197 78.7471 252.749 78.7471C252.301 78.7471 251.973 78.6751 251.765 78.5311C251.573 78.4031 251.453 78.2271 251.405 78.0031C251.357 77.7791 251.333 77.5391 251.333 77.2831V62.9551C251.333 62.6831 251.357 62.4431 251.405 62.2351C251.469 62.0111 251.597 61.8351 251.789 61.7071C251.997 61.5631 252.325 61.4911 252.773 61.4911C253.221 61.4911 253.541 61.5631 253.733 61.7071C253.925 61.8351 254.045 62.0111 254.093 62.2351C254.157 62.4431 254.189 62.6911 254.189 62.9791V70.8511L257.501 67.6351C257.757 67.3951 257.997 67.2351 258.221 67.1551C258.445 67.0591 258.661 67.0511 258.869 67.1311C259.093 67.1951 259.325 67.3631 259.565 67.6351C259.965 68.0671 260.157 68.4271 260.141 68.7151C260.125 68.9871 259.925 69.3151 259.541 69.6991L256.301 72.6991L260.693 76.1551ZM271.648 78.7471C271.216 78.7471 270.896 78.6831 270.688 78.5551C270.496 78.4271 270.376 78.2511 270.328 78.0271C270.28 77.7871 270.256 77.5391 270.256 77.2831V65.6191C270.256 65.0271 270.336 64.4831 270.496 63.9871C270.656 63.4751 270.912 63.0351 271.264 62.6671C271.616 62.2991 272.072 62.0111 272.632 61.8031C273.192 61.5791 273.872 61.4671 274.672 61.4671C274.944 61.4671 275.184 61.4991 275.392 61.5631C275.616 61.6111 275.792 61.7311 275.92 61.9231C276.064 62.1151 276.136 62.4431 276.136 62.9071C276.136 63.3391 276.064 63.6591 275.92 63.8671C275.792 64.0751 275.616 64.2031 275.392 64.2511C275.168 64.2991 274.92 64.3231 274.648 64.3231C274.376 64.3231 274.136 64.3391 273.928 64.3711C273.736 64.3871 273.576 64.4351 273.448 64.5151C273.336 64.5951 273.248 64.7231 273.184 64.8991C273.136 65.0751 273.112 65.2991 273.112 65.5711V77.3311C273.112 77.5871 273.08 77.8271 273.016 78.0511C272.968 78.2591 272.84 78.4271 272.632 78.5551C272.424 78.6831 272.096 78.7471 271.648 78.7471ZM269.272 67.1551L271.744 67.1791L275.056 67.0831C275.328 67.0831 275.568 67.1151 275.776 67.1791C276 67.2271 276.176 67.3551 276.304 67.5631C276.432 67.7551 276.496 68.0751 276.496 68.5231C276.496 68.9391 276.432 69.2511 276.304 69.4591C276.176 69.6671 276.008 69.8031 275.8 69.8671C275.592 69.9151 275.352 69.9391 275.08 69.9391L271.864 69.8911L269.2 69.9151C268.8 69.8991 268.52 69.7871 268.36 69.5791C268.216 69.3551 268.144 68.9951 268.144 68.4991C268.144 68.0351 268.232 67.6991 268.408 67.4911C268.6 67.2671 268.888 67.1551 269.272 67.1551ZM279.798 78.7471C279.366 78.7471 279.046 78.6751 278.838 78.5311C278.63 78.4031 278.502 78.2351 278.454 78.0271C278.406 77.8031 278.382 77.5551 278.382 77.2831V68.3551C278.382 68.0991 278.406 67.8671 278.454 67.6591C278.518 67.4351 278.646 67.2591 278.838 67.1311C279.046 67.0031 279.374 66.9391 279.822 66.9391C280.27 66.9391 280.59 67.0031 280.782 67.1311C280.99 67.2591 281.118 67.4351 281.166 67.6591C281.214 67.8831 281.238 68.1311 281.238 68.4031V77.3071C281.238 77.5791 281.214 77.8271 281.166 78.0511C281.118 78.2591 280.99 78.4271 280.782 78.5551C280.59 78.6831 280.262 78.7471 279.798 78.7471ZM279.798 64.6111C279.334 64.6111 278.99 64.5471 278.766 64.4191C278.558 64.2751 278.422 64.0831 278.358 63.8431C278.31 63.6031 278.286 63.3391 278.286 63.0511C278.286 62.7471 278.31 62.4831 278.358 62.2591C278.422 62.0351 278.566 61.8591 278.79 61.7311C279.014 61.5871 279.358 61.5151 279.822 61.5151C280.302 61.5151 280.646 61.5871 280.854 61.7311C281.062 61.8751 281.198 62.0671 281.262 62.3071C281.326 62.5311 281.358 62.7951 281.358 63.0991C281.358 63.3711 281.326 63.6271 281.262 63.8671C281.198 64.1071 281.062 64.2911 280.854 64.4191C280.646 64.5471 280.294 64.6111 279.798 64.6111ZM287.968 78.8911C287.552 78.8911 287.112 78.8431 286.648 78.7471C286.184 78.6671 285.736 78.5471 285.304 78.3871C284.872 78.2111 284.496 78.0111 284.176 77.7871C283.872 77.5471 283.68 77.2831 283.6 76.9951C283.536 76.8351 283.512 76.6831 283.528 76.5391C283.544 76.3791 283.592 76.2191 283.672 76.0591C283.752 75.8831 283.872 75.7071 284.032 75.5311C284.176 75.3551 284.32 75.2591 284.464 75.2431C284.624 75.2111 284.824 75.2591 285.064 75.3871C285.272 75.4671 285.496 75.5711 285.736 75.6991C285.992 75.8271 286.248 75.9551 286.504 76.0831C286.776 76.2111 287.048 76.3151 287.32 76.3951C287.608 76.4751 287.888 76.5151 288.16 76.5151C288.752 76.5151 289.224 76.4191 289.576 76.2271C289.928 76.0191 290.104 75.7311 290.104 75.3631C290.104 75.1551 290.048 74.9711 289.936 74.8111C289.824 74.6511 289.672 74.5231 289.48 74.4271C289.304 74.3151 289.088 74.2191 288.832 74.1391C288.592 74.0431 288.328 73.9631 288.04 73.8991C287.768 73.8191 287.48 73.7311 287.176 73.6351C286.776 73.5231 286.376 73.3871 285.976 73.2271C285.576 73.0671 285.216 72.8591 284.896 72.6031C284.592 72.3471 284.344 72.0271 284.152 71.6431C283.96 71.2591 283.864 70.7791 283.864 70.2031C283.864 69.4831 284.032 68.8751 284.368 68.3791C284.72 67.8671 285.224 67.4751 285.88 67.2031C286.536 66.9311 287.328 66.7951 288.256 66.7951C288.576 66.7951 288.88 66.8191 289.168 66.8671C289.472 66.9151 289.76 66.9871 290.032 67.0831C290.32 67.1631 290.592 67.2671 290.848 67.3951C291.12 67.5231 291.376 67.6671 291.616 67.8271C292.016 68.0511 292.224 68.3151 292.24 68.6191C292.256 68.9071 292.144 69.2191 291.904 69.5551C291.728 69.7791 291.552 69.9391 291.376 70.0351C291.2 70.1151 291.016 70.1151 290.824 70.0351C290.568 69.9071 290.288 69.7711 289.984 69.6271C289.696 69.4671 289.392 69.3311 289.072 69.2191C288.768 69.1071 288.448 69.0511 288.112 69.0511C287.792 69.0511 287.504 69.0991 287.248 69.1951C286.992 69.2911 286.8 69.4271 286.672 69.6031C286.544 69.7791 286.48 69.9871 286.48 70.2271C286.48 70.4511 286.544 70.6351 286.672 70.7791C286.8 70.9231 286.968 71.0431 287.176 71.1391C287.384 71.2351 287.632 71.3231 287.92 71.4031C288.208 71.4671 288.512 71.5311 288.832 71.5951C289.28 71.6911 289.736 71.8111 290.2 71.9551C290.664 72.0991 291.088 72.2991 291.472 72.5551C291.872 72.8111 292.192 73.1551 292.432 73.5871C292.672 74.0031 292.792 74.5471 292.792 75.2191C292.792 76.3871 292.36 77.2911 291.496 77.9311C290.648 78.5711 289.472 78.8911 287.968 78.8911ZM296.415 78.7471C295.983 78.7471 295.663 78.6751 295.455 78.5311C295.247 78.4031 295.119 78.2351 295.071 78.0271C295.023 77.8031 294.999 77.5551 294.999 77.2831V68.3551C294.999 68.0991 295.023 67.8671 295.071 67.6591C295.135 67.4351 295.263 67.2591 295.455 67.1311C295.663 67.0031 295.991 66.9391 296.439 66.9391C296.887 66.9391 297.207 67.0031 297.399 67.1311C297.607 67.2591 297.735 67.4351 297.783 67.6591C297.831 67.8831 297.855 68.1311 297.855 68.4031V77.3071C297.855 77.5791 297.831 77.8271 297.783 78.0511C297.735 78.2591 297.607 78.4271 297.399 78.5551C297.207 78.6831 296.879 78.7471 296.415 78.7471ZM296.415 64.6111C295.951 64.6111 295.607 64.5471 295.383 64.4191C295.175 64.2751 295.039 64.0831 294.975 63.8431C294.927 63.6031 294.903 63.3391 294.903 63.0511C294.903 62.7471 294.927 62.4831 294.975 62.2591C295.039 62.0351 295.183 61.8591 295.407 61.7311C295.631 61.5871 295.975 61.5151 296.439 61.5151C296.919 61.5151 297.263 61.5871 297.471 61.7311C297.679 61.8751 297.815 62.0671 297.879 62.3071C297.943 62.5311 297.975 62.7951 297.975 63.0991C297.975 63.3711 297.943 63.6271 297.879 63.8671C297.815 64.1071 297.679 64.2911 297.471 64.4191C297.263 64.5471 296.911 64.6111 296.415 64.6111ZM309.889 76.1551C310.305 76.5071 310.521 76.8351 310.537 77.1391C310.569 77.4431 310.409 77.7951 310.057 78.1951C309.785 78.4991 309.545 78.6991 309.337 78.7951C309.129 78.8911 308.921 78.8911 308.713 78.7951C308.505 78.7151 308.257 78.5551 307.969 78.3151L303.385 74.4511V77.3071C303.385 77.5631 303.353 77.8031 303.289 78.0271C303.241 78.2511 303.113 78.4271 302.905 78.5551C302.713 78.6831 302.393 78.7471 301.945 78.7471C301.497 78.7471 301.169 78.6751 300.961 78.5311C300.769 78.4031 300.649 78.2271 300.601 78.0031C300.553 77.7791 300.529 77.5391 300.529 77.2831V62.9551C300.529 62.6831 300.553 62.4431 300.601 62.2351C300.665 62.0111 300.793 61.8351 300.985 61.7071C301.193 61.5631 301.521 61.4911 301.969 61.4911C302.417 61.4911 302.737 61.5631 302.929 61.7071C303.121 61.8351 303.241 62.0111 303.289 62.2351C303.353 62.4431 303.385 62.6911 303.385 62.9791V70.8511L306.697 67.6351C306.953 67.3951 307.193 67.2351 307.417 67.1551C307.641 67.0591 307.857 67.0511 308.065 67.1311C308.289 67.1951 308.521 67.3631 308.761 67.6351C309.161 68.0671 309.353 68.4271 309.337 68.7151C309.321 68.9871 309.121 69.3151 308.737 69.6991L305.497 72.6991L309.889 76.1551Z" fill="black"/>
</svg>
