<svg width="336" height="167" viewBox="0 0 336 167" fill="none" xmlns="http://www.w3.org/2000/svg">
<mask id="mask0_62_2063" style="mask-type:luminance" maskUnits="userSpaceOnUse" x="0" y="0" width="336" height="167">
<path d="M336 0H0V167H336V0Z" fill="white"/>
</mask>
<g mask="url(#mask0_62_2063)">
<mask id="mask1_62_2063" style="mask-type:luminance" maskUnits="userSpaceOnUse" x="7" y="12" width="327" height="155">
<path d="M7.84424 12.9888H333.385V166.101H7.84424V12.9888Z" fill="white"/>
</mask>
<g mask="url(#mask1_62_2063)">
<path d="M13.2627 100.736L10.413 86.7834L14.9429 72.1926L10.9493 57.6091L8.21191 43.0184L10.1679 26.9345L22.057 25.3761L32.9094 21.7012L43.966 29.8845L54.6959 19.1353L65.8036 30.2107L76.6304 24.9992L87.6667 31.8705L98.5803 31.5589L109.54 33.8783L120.387 29.812L130.719 23.8105L141.096 20.2661L151.474 16.8376L161.938 18.3888L172.468 23.8322L182.984 28.3116L193.412 27.9347L203.616 14.3442L214.254 26.0067L224.703 26.6808L234.983 17.3668L245.351 13.2715L256.121 17.9611L267.28 20.5487L275.895 32.5591L286.748 35.3569L295.946 45.0044L309.367 37.169L319.371 43.4533L332.931 51.738L325.479 70.0544L325.214 86.4137L314.464 97.2209L310.695 111.725L313.989 129.976L308.759 143.711L306.088 161.397L290.517 152.728L280.002 163.427L268.991 153.069L258.537 166.753L247.49 154.431L236.766 156.468L225.964 154.975L215.413 165.514L204.586 162.839L193.892 168.703L183.418 159.375L172.387 166.616L162.188 161.498L151.811 160.498L141.377 161.209L130.959 161.39L120.816 153.837L110.372 154.758L100.25 146.328L89.2703 162.491L79.4342 145.893L68.5103 160.636L58.4955 149.249L48.3019 142.581L37.5006 154.091L22.8997 155.243L24.7535 136.579L19.146 125.569L9.24864 116.313L13.2627 100.736Z" fill="black"/>
<path d="M13.2627 100.736L10.413 86.7834L14.9429 72.1926L10.9493 57.6091L8.21191 43.0184L10.1679 26.9345L22.057 25.3761L32.9094 21.7012L43.966 29.8845L54.6959 19.1353L65.8036 30.2107L76.6304 24.9992L87.6667 31.8705L98.5803 31.5589L109.54 33.8783L120.387 29.812L130.719 23.8105L141.096 20.2661L151.474 16.8376L161.938 18.3888L172.468 23.8322L182.984 28.3116L193.412 27.9347L203.616 14.3442L214.254 26.0067L224.703 26.6808L234.983 17.3668L245.351 13.2715L256.121 17.9611L267.28 20.5487L275.895 32.5591L286.748 35.3569L295.946 45.0044L309.367 37.169L319.371 43.4533L332.931 51.738L325.479 70.0544L325.214 86.4137L314.464 97.2209L310.695 111.725L313.989 129.976L308.759 143.711L306.088 161.397L290.517 152.728L280.002 163.427L268.991 153.069L258.537 166.753L247.49 154.431L236.766 156.468L225.964 154.975L215.413 165.514L204.586 162.839L193.892 168.703L183.418 159.375L172.387 166.616L162.188 161.498L151.811 160.498L141.377 161.209L130.959 161.39L120.816 153.837L110.372 154.758L100.25 146.328L89.2703 162.491L79.4342 145.893L68.5103 160.636L58.4955 149.249L48.3019 142.581L37.5006 154.091L22.8997 155.243L24.7535 136.579L19.146 125.569L9.24864 116.313L13.2627 100.736Z" fill="black"/>
</g>
<mask id="mask2_62_2063" style="mask-type:luminance" maskUnits="userSpaceOnUse" x="6" y="11" width="328" height="156">
<path d="M6.53687 11.1333H333.972V166.101H6.53687V11.1333Z" fill="white"/>
</mask>
<g mask="url(#mask2_62_2063)">
<path d="M193.821 169.762L183.372 160.469L172.423 167.66L162.05 162.455L151.806 161.419L141.408 162.122L130.8 162.31L120.668 154.758L110.214 155.707L100.368 147.509L89.2396 163.89L79.3831 147.256L68.5512 161.89L58.1329 150.09L48.3887 143.704L37.7253 155.033L22.103 156.265L24.0538 136.869L18.6455 126.257L8.44172 116.69L12.5631 100.707L9.70826 86.7182L14.2229 72.1637L10.3007 57.8556L7.52246 43.0619L9.59591 26.0647L21.9804 24.4338L32.9962 20.7372L43.9099 28.8118L54.6959 17.9756L65.9108 29.1597L76.6611 23.9772L87.7995 30.9138L98.6212 30.6021L109.499 32.9215L120.163 28.9133L130.555 22.8827L140.923 19.3383L151.417 15.8881L162.152 17.4972L172.678 22.9407L183.071 27.3476L193.142 26.9925L203.57 13.0903L214.499 25.0644L224.499 25.7023L234.682 16.4897L245.345 12.2712L256.264 16.9899L267.592 19.6137L276.217 31.6314L287.013 34.4074L296.027 43.8519L309.357 36.0745L319.632 42.5182L333.886 51.2814L326.148 70.3153L325.888 86.9139L315.025 97.8298L311.399 111.783L314.729 130.099L309.397 144.045L306.558 162.694L290.599 153.801L280.002 164.579L269.047 154.272L258.573 168.029L247.307 155.453L236.781 157.461L226.118 155.975L215.566 166.514L204.653 163.825L193.821 169.762ZM183.469 158.302L193.969 167.645L204.515 161.861L215.255 164.514L225.786 153.997L236.755 155.526L247.679 153.438L258.501 165.514L268.924 151.873L279.986 162.26L290.425 151.648L305.593 160.085L308.126 143.363L313.279 129.838L310 111.659L313.892 96.6193L324.555 85.8846L324.816 69.837L331.981 52.1802L319.111 44.3448L309.352 38.2128L295.849 46.0989L286.472 36.2485L275.574 33.4217L266.958 21.4258L255.907 18.8527L245.325 14.2355L235.249 18.2438L224.871 27.6883L213.999 26.9925L203.647 15.6562L193.647 28.935L182.851 29.3337L172.234 24.8107L161.785 19.3238L151.514 17.8017L141.275 21.1939L130.928 24.702L120.561 30.7253L109.581 34.8423L98.5344 32.5011L87.5339 32.8273L76.6304 26.014L65.7015 31.2689L54.6959 20.2878L44.0324 30.9935L32.8379 22.7015L22.1183 26.3111L10.7399 27.8115L8.89114 42.9749L11.5876 57.312L15.6681 72.2144L11.128 86.8269L13.9828 100.773L10.076 115.936L19.6312 124.866L25.4634 136.34L23.6861 154.229L37.2759 153.163L48.2355 141.486L58.8989 148.502L68.4694 159.375L79.4802 144.516L89.2907 161.078L100.123 145.132L110.521 153.801L120.949 152.851L131.107 160.404L141.357 160.23L151.806 159.512L162.311 160.527L172.305 165.55L183.469 158.302Z" fill="black"/>
</g>
<mask id="mask3_62_2063" style="mask-type:luminance" maskUnits="userSpaceOnUse" x="2" y="1" width="327" height="157">
<path d="M2.61475 1.50757H328.156V157.722H2.61475V1.50757Z" fill="white"/>
</mask>
<g mask="url(#mask3_62_2063)">
<path d="M8.21729 88.2255L5.37269 74.2653L9.89749 59.6746L5.90382 45.0911L3.15625 30.5003L5.12245 14.4236L17.0064 12.858L27.8639 9.1904L38.9206 17.3664L49.6504 6.61726L60.753 17.6999L71.585 12.4739L82.6212 19.3597L93.5298 19.0408L104.495 21.3747L115.342 17.3012L125.673 11.2851L136.051 7.74799L146.428 4.32681L156.892 5.87794L167.423 11.3141L177.933 15.7936L188.367 15.4167L198.566 1.82616L209.209 13.4959L219.657 14.17L229.938 4.85594L240.305 0.753418L251.076 5.45029L262.235 8.03068L270.85 20.0483L281.702 22.8461L290.9 32.4863L304.316 24.6509L314.326 30.9352L327.885 39.2127L320.434 57.5436L320.168 73.9029L309.418 84.7028L305.649 99.2138L308.948 117.458L303.714 131.193L301.038 148.879L285.471 140.217L274.956 150.916L263.945 140.558L253.491 154.243L242.44 141.913L231.715 143.957L220.919 142.457L210.363 152.996L199.541 150.336L188.847 156.192L178.372 146.857L167.341 154.098L157.138 148.995L146.77 147.98L136.332 148.698L125.913 148.879L115.771 141.319L105.327 142.24L95.2049 133.817L84.2248 149.973L74.3887 133.382L63.4649 148.111L53.4449 136.724L43.2616 130.062L32.4551 141.58L17.8491 142.725L19.708 124.068L14.1006 113.051L4.20319 103.795L8.21729 88.2255Z" fill="white"/>
</g>
<mask id="mask4_62_2063" style="mask-type:luminance" maskUnits="userSpaceOnUse" x="0" y="1" width="333" height="161">
<path d="M0.566895 1.50757H332.078V161.433H0.566895V1.50757Z" fill="white"/>
</mask>
<g mask="url(#mask4_62_2063)">
<path d="M188.596 160.056L178.204 150.807L167.484 157.845L156.652 152.417L146.755 151.474L136.372 152.177L125.336 152.373L115.25 144.82L104.739 145.763L95.6438 138.21L84.1224 155.207L74.2046 138.485L63.6076 152.728L52.1424 139.703L43.5575 134.093L33.3077 144.987L14.9787 146.422L17.1134 124.96L12.3486 115.595L1.21023 105.209L5.61247 88.1317L2.77297 74.0193L7.2416 59.6025L3.52881 45.983L0.653564 30.6602L3.03343 11.2131L16.6078 9.40827L28.1854 5.50871L38.7263 13.3078L49.6451 2.36296L61.146 13.837L71.6971 8.75593L83.1112 15.8665L93.693 15.5621L104.356 17.8308L114.56 13.9964L124.912 7.97312L135.478 4.37798L146.27 0.804585L157.444 2.47169L168.194 8.02386L178.265 12.3076L187.371 11.9742L198.412 -2.73257L210.097 10.0679L218.993 10.6477L228.921 1.64538L240.341 -2.86304L251.637 2.06578L263.394 4.78388L272.055 16.8232L282.718 19.5703L291.232 28.5292L304.342 20.8678L315.306 27.7609L331.373 37.575L322.87 58.508L322.594 75.7226L311.461 86.914L308.213 99.3955L311.548 117.908L306.027 132.411L302.815 153.612L285.808 144.168L274.997 155.164L264.18 144.987L253.603 158.831L241.725 145.61L231.73 147.502L221.552 146.096L210.888 156.715L199.725 153.968L188.596 160.056ZM178.551 142.914L189.107 152.351L199.26 146.748L209.755 149.329L220.224 138.877L231.648 140.464L243.119 138.275L253.338 149.684L263.664 136.151L274.874 146.698L285.098 136.311L299.229 144.161L301.374 129.998L306.333 117.045L303.085 99.1055L307.38 82.5723L317.753 72.1855L317.998 56.6162L324.387 40.9092L313.35 34.1756L304.28 28.5075L290.563 36.4371L280.701 26.1083L269.67 23.2815L261.065 11.3001L250.519 8.84291L240.274 4.37798L230.944 8.0601L220.326 17.6785L208.33 16.9175L198.724 6.38575L189.362 18.8528L177.606 19.2732L166.58 14.5545L156.33 9.25606L146.607 7.84265L136.612 11.1406L126.434 14.6053L116.123 20.5996L104.622 24.9123L93.3712 22.5204L82.1205 22.8466L71.4571 16.2361L60.3698 21.5491L49.6502 10.8652L39.1144 21.4259L27.5368 12.8657L17.4045 16.2941L7.21606 17.6351L5.66353 30.3485L8.23746 44.0115L12.5478 59.762L7.98212 74.5557L10.8063 88.3999L7.1701 102.411L15.8316 110.507L22.2766 123.17L20.6986 139.022L31.5816 138.174L42.9651 126.04L54.7469 133.752L63.3012 143.479L74.5877 128.374L84.3522 144.828L94.7756 129.476L105.955 138.761L116.337 137.811L126.505 145.364L136.26 145.197L146.796 144.48L157.643 145.523L167.213 150.322L178.551 142.914Z" fill="black"/>
<path d="M188.596 160.056L178.204 150.807L167.484 157.845L156.652 152.417L146.755 151.474L136.372 152.177L125.336 152.373L115.25 144.82L104.739 145.763L95.6438 138.21L84.1224 155.207L74.2046 138.485L63.6076 152.728L52.1424 139.703L43.5575 134.093L33.3077 144.987L14.9787 146.422L17.1134 124.96L12.3486 115.595L1.21023 105.209L5.61247 88.1317L2.77297 74.0193L7.2416 59.6025L3.52881 45.983L0.653564 30.6602L3.03343 11.2131L16.6078 9.40827L28.1854 5.50871L38.7263 13.3078L49.6451 2.36296L61.146 13.837L71.6971 8.75593L83.1112 15.8665L93.693 15.5621L104.356 17.8308L114.56 13.9964L124.912 7.97312L135.478 4.37798L146.27 0.804585L157.444 2.47169L168.194 8.02386L178.265 12.3076L187.371 11.9742L198.412 -2.73257L210.097 10.0679L218.993 10.6477L228.921 1.64538L240.341 -2.86304L251.637 2.06578L263.394 4.78388L272.055 16.8232L282.718 19.5703L291.232 28.5292L304.342 20.8678L315.306 27.7609L331.373 37.575L322.87 58.508L322.594 75.7226L311.461 86.914L308.213 99.3955L311.548 117.908L306.027 132.411L302.815 153.612L285.808 144.168L274.997 155.164L264.18 144.987L253.603 158.831L241.725 145.61L231.73 147.502L221.552 146.096L210.888 156.715L199.725 153.968L188.596 160.056ZM178.551 142.914L189.107 152.351L199.26 146.748L209.755 149.329L220.224 138.877L231.648 140.464L243.119 138.275L253.338 149.684L263.664 136.151L274.874 146.698L285.098 136.311L299.229 144.161L301.374 129.998L306.333 117.045L303.085 99.1055L307.38 82.5723L317.753 72.1855L317.998 56.6162L324.387 40.9092L313.35 34.1756L304.28 28.5075L290.563 36.4371L280.701 26.1083L269.67 23.2815L261.065 11.3001L250.519 8.84291L240.274 4.37798L230.944 8.0601L220.326 17.6785L208.33 16.9175L198.724 6.38575L189.362 18.8528L177.606 19.2732L166.58 14.5545L156.33 9.25606L146.607 7.84265L136.612 11.1406L126.434 14.6053L116.123 20.5996L104.622 24.9123L93.3712 22.5204L82.1205 22.8466L71.4571 16.2361L60.3698 21.5491L49.6502 10.8652L39.1144 21.4259L27.5368 12.8657L17.4045 16.2941L7.21606 17.6351L5.66353 30.3485L8.23746 44.0115L12.5478 59.762L7.98212 74.5557L10.8063 88.3999L7.1701 102.411L15.8316 110.507L22.2766 123.17L20.6986 139.022L31.5816 138.174L42.9651 126.04L54.7469 133.752L63.3012 143.479L74.5877 128.374L84.3522 144.828L94.7756 129.476L105.955 138.761L116.337 137.811L126.505 145.364L136.26 145.197L146.796 144.48L157.643 145.523L167.213 150.322L178.551 142.914Z" fill="black"/>
</g>
</g>
<path d="M40.7825 57.3159C40.2598 57.3159 39.8772 57.2319 39.6345 57.0639C39.3918 56.9146 39.2425 56.7092 39.1865 56.4479C39.1305 56.1866 39.1025 55.8972 39.1025 55.5799V39.4239C39.1025 39.1252 39.1305 38.8452 39.1865 38.5839C39.2612 38.3226 39.4105 38.1172 39.6345 37.9679C39.8772 37.8186 40.2692 37.7439 40.8105 37.7439C41.3332 37.7439 41.7065 37.8186 41.9305 37.9679C42.1732 38.1172 42.3225 38.3226 42.3785 38.5839C42.4532 38.8452 42.4905 39.1346 42.4905 39.4519V55.6079C42.4905 55.9252 42.4532 56.2146 42.3785 56.4759C42.3225 56.7186 42.1732 56.9146 41.9305 57.0639C41.6878 57.2319 41.3052 57.3159 40.7825 57.3159ZM47.0162 57.2879C46.5122 57.2879 46.1389 57.2039 45.8962 57.0359C45.6722 56.8866 45.5322 56.6906 45.4762 56.4479C45.4202 56.1866 45.3922 55.8972 45.3922 55.5799V45.1079C45.3922 44.8092 45.4202 44.5386 45.4762 44.2959C45.5322 44.0532 45.6815 43.8666 45.9242 43.7359C46.1669 43.5866 46.5402 43.5119 47.0442 43.5119C47.4922 43.5119 47.8282 43.5679 48.0522 43.6799C48.2762 43.7919 48.4255 43.9319 48.5002 44.0999C48.5749 44.2679 48.6122 44.4359 48.6122 44.6039C48.6309 44.7719 48.6495 44.9026 48.6682 44.9959L48.5562 45.8919C48.6682 45.5932 48.8549 45.3039 49.1162 45.0239C49.3775 44.7439 49.6949 44.4919 50.0682 44.2679C50.4415 44.0252 50.8429 43.8386 51.2722 43.7079C51.7202 43.5586 52.1775 43.4839 52.6442 43.4839C53.5215 43.4839 54.3055 43.6426 54.9962 43.9599C55.6869 44.2772 56.2749 44.7252 56.7602 45.3039C57.2642 45.8826 57.6469 46.5732 57.9082 47.3759C58.1695 48.1599 58.3002 49.0466 58.3002 50.0359V55.6079C58.3002 55.9252 58.2629 56.2146 58.1882 56.4759C58.1322 56.7186 57.9922 56.9146 57.7682 57.0639C57.5442 57.2132 57.1615 57.2879 56.6202 57.2879C56.0975 57.2879 55.7149 57.2039 55.4722 57.0359C55.2295 56.8866 55.0802 56.6906 55.0242 56.4479C54.9682 56.1866 54.9402 55.8972 54.9402 55.5799V50.0079C54.9402 49.3359 54.8189 48.7572 54.5762 48.2719C54.3522 47.7866 54.0162 47.4132 53.5682 47.1519C53.1389 46.8906 52.5882 46.7599 51.9162 46.7599C51.2629 46.7599 50.6935 46.8999 50.2082 47.1799C49.7229 47.4412 49.3495 47.8146 49.0882 48.2999C48.8269 48.7852 48.6962 49.3546 48.6962 50.0079V55.6079C48.6962 55.9252 48.6682 56.2146 48.6122 56.4759C48.5562 56.7186 48.4069 56.9146 48.1642 57.0639C47.9402 57.2132 47.5575 57.2879 47.0162 57.2879ZM67.0522 62.9159C66.3802 62.9159 65.7362 62.8319 65.1202 62.6639C64.5042 62.5146 63.9442 62.3092 63.4402 62.0479C62.9548 61.7866 62.5628 61.5066 62.2642 61.2079C61.9842 60.9092 61.8442 60.6292 61.8442 60.3679C61.8442 60.1066 61.8815 59.8826 61.9562 59.6959C62.0495 59.5092 62.1802 59.3226 62.3482 59.1359C62.5722 58.9119 62.7495 58.7439 62.8802 58.6319C63.0295 58.5199 63.2255 58.4639 63.4682 58.4639C63.6735 58.4639 63.8695 58.5386 64.0562 58.6879C64.2615 58.8372 64.4948 59.0052 64.7562 59.1919C65.0175 59.3786 65.3348 59.5466 65.7082 59.6959C66.0815 59.8452 66.5575 59.9199 67.1362 59.9199C67.6215 59.9199 68.0695 59.8359 68.4802 59.6679C68.8908 59.4999 69.2362 59.2479 69.5162 58.9119C69.8148 58.5946 70.0482 58.2119 70.2162 57.7639C70.3842 57.3159 70.4682 56.8119 70.4682 56.2519L70.4402 44.6599C70.4775 44.2306 70.6268 43.9319 70.8882 43.7639C71.1495 43.5772 71.5508 43.4839 72.0922 43.4839C72.5962 43.4839 72.9602 43.5586 73.1842 43.7079C73.4082 43.8386 73.5482 44.0346 73.6042 44.2959C73.6602 44.5386 73.6882 44.8092 73.6882 45.1079V56.4479C73.6882 57.4746 73.5108 58.3892 73.1562 59.1919C72.8015 59.9946 72.3162 60.6666 71.7002 61.2079C71.0842 61.7679 70.3748 62.1879 69.5722 62.4679C68.7882 62.7666 67.9482 62.9159 67.0522 62.9159ZM66.7442 56.9519C65.8668 56.9519 65.0455 56.7839 64.2802 56.4479C63.5335 56.1119 62.8708 55.6359 62.2922 55.0199C61.7322 54.4039 61.2842 53.6946 60.9482 52.8919C60.6308 52.0706 60.4722 51.1839 60.4722 50.2319C60.4722 49.2986 60.6308 48.4306 60.9482 47.6279C61.2842 46.8252 61.7322 46.1159 62.2922 45.4999C62.8708 44.8839 63.5335 44.4079 64.2802 44.0719C65.0455 43.7172 65.8575 43.5399 66.7162 43.5399C67.5562 43.5399 68.2842 43.7079 68.9002 44.0439C69.5348 44.3612 70.0575 44.8186 70.4682 45.4159C70.8788 46.0132 71.1868 46.7226 71.3922 47.5439C71.6162 48.3652 71.7282 49.2706 71.7282 50.2599C71.7282 51.6226 71.5415 52.8079 71.1682 53.8159C70.7948 54.8239 70.2442 55.5986 69.5162 56.1399C68.7882 56.6812 67.8642 56.9519 66.7442 56.9519ZM67.0522 53.7879C67.6868 53.7879 68.2468 53.6386 68.7322 53.3399C69.2362 53.0226 69.6282 52.5932 69.9082 52.0519C70.2068 51.5106 70.3562 50.9039 70.3562 50.2319C70.3562 49.5412 70.2068 48.9346 69.9082 48.4119C69.6282 47.8706 69.2362 47.4506 68.7322 47.1519C68.2282 46.8532 67.6588 46.7039 67.0242 46.7039C66.3895 46.7039 65.8202 46.8626 65.3162 47.1799C64.8308 47.4786 64.4482 47.8892 64.1682 48.4119C63.8882 48.9346 63.7482 49.5412 63.7482 50.2319C63.7482 50.9226 63.8882 51.5386 64.1682 52.0799C64.4668 52.6026 64.8588 53.0226 65.3442 53.3399C65.8482 53.6386 66.4175 53.7879 67.0522 53.7879ZM78.4648 57.3159C77.9608 57.3159 77.5875 57.2319 77.3448 57.0639C77.1021 56.9146 76.9528 56.7186 76.8968 56.4759C76.8408 56.2146 76.8128 55.9252 76.8128 55.6079V45.1919C76.8128 44.8932 76.8408 44.6226 76.8968 44.3799C76.9715 44.1186 77.1208 43.9132 77.3448 43.7639C77.5875 43.6146 77.9701 43.5399 78.4928 43.5399C79.0155 43.5399 79.3888 43.6146 79.6128 43.7639C79.8555 43.9132 80.0048 44.1186 80.0608 44.3799C80.1168 44.6412 80.1448 44.9306 80.1448 45.2479V55.6359C80.1448 55.9532 80.1168 56.2426 80.0608 56.5039C80.0048 56.7466 79.8555 56.9426 79.6128 57.0919C79.3888 57.2412 79.0061 57.3159 78.4648 57.3159ZM78.4648 40.8239C77.9235 40.8239 77.5221 40.7492 77.2608 40.5999C77.0181 40.4319 76.8595 40.2079 76.7848 39.9279C76.7288 39.6479 76.7008 39.3399 76.7008 39.0039C76.7008 38.6492 76.7288 38.3412 76.7848 38.0799C76.8595 37.8186 77.0275 37.6132 77.2888 37.4639C77.5501 37.2959 77.9515 37.2119 78.4928 37.2119C79.0528 37.2119 79.4541 37.2959 79.6968 37.4639C79.9395 37.6319 80.0981 37.8559 80.1728 38.1359C80.2475 38.3972 80.2848 38.7052 80.2848 39.0599C80.2848 39.3772 80.2475 39.6759 80.1728 39.9559C80.0981 40.2359 79.9395 40.4506 79.6968 40.5999C79.4541 40.7492 79.0435 40.8239 78.4648 40.8239ZM84.86 57.2879C84.356 57.2879 83.9826 57.2039 83.74 57.0359C83.516 56.8866 83.376 56.6906 83.32 56.4479C83.264 56.1866 83.236 55.8972 83.236 55.5799V45.1079C83.236 44.8092 83.264 44.5386 83.32 44.2959C83.376 44.0532 83.5253 43.8666 83.768 43.7359C84.0106 43.5866 84.384 43.5119 84.888 43.5119C85.336 43.5119 85.672 43.5679 85.896 43.6799C86.12 43.7919 86.2693 43.9319 86.344 44.0999C86.4186 44.2679 86.456 44.4359 86.456 44.6039C86.4746 44.7719 86.4933 44.9026 86.512 44.9959L86.4 45.8919C86.512 45.5932 86.6986 45.3039 86.96 45.0239C87.2213 44.7439 87.5386 44.4919 87.912 44.2679C88.2853 44.0252 88.6866 43.8386 89.116 43.7079C89.564 43.5586 90.0213 43.4839 90.488 43.4839C91.3653 43.4839 92.1493 43.6426 92.84 43.9599C93.5306 44.2772 94.1186 44.7252 94.604 45.3039C95.108 45.8826 95.4906 46.5732 95.752 47.3759C96.0133 48.1599 96.144 49.0466 96.144 50.0359V55.6079C96.144 55.9252 96.1066 56.2146 96.032 56.4759C95.976 56.7186 95.836 56.9146 95.612 57.0639C95.388 57.2132 95.0053 57.2879 94.464 57.2879C93.9413 57.2879 93.5586 57.2039 93.316 57.0359C93.0733 56.8866 92.924 56.6906 92.868 56.4479C92.812 56.1866 92.784 55.8972 92.784 55.5799V50.0079C92.784 49.3359 92.6626 48.7572 92.42 48.2719C92.196 47.7866 91.86 47.4132 91.412 47.1519C90.9826 46.8906 90.432 46.7599 89.76 46.7599C89.1066 46.7599 88.5373 46.8999 88.052 47.1799C87.5666 47.4412 87.1933 47.8146 86.932 48.2999C86.6706 48.7852 86.54 49.3546 86.54 50.0079V55.6079C86.54 55.9252 86.512 56.2146 86.456 56.4759C86.4 56.7186 86.2506 56.9146 86.008 57.0639C85.784 57.2132 85.4013 57.2879 84.86 57.2879ZM113.017 57.2879C112.103 57.2879 111.281 57.1106 110.553 56.7559C109.844 56.3826 109.237 55.8786 108.733 55.2439C108.248 54.6092 107.875 53.8812 107.613 53.0599C107.371 52.2199 107.249 51.3239 107.249 50.3719C107.268 49.4199 107.408 48.5332 107.669 47.7119C107.931 46.8719 108.304 46.1439 108.789 45.5279C109.293 44.8932 109.9 44.3986 110.609 44.0439C111.319 43.6892 112.121 43.5119 113.017 43.5119C113.876 43.5119 114.679 43.6892 115.425 44.0439C116.191 44.3986 116.863 44.8932 117.441 45.5279C118.039 46.1439 118.505 46.8719 118.841 47.7119C119.177 48.5332 119.345 49.4106 119.345 50.3439C119.345 51.3146 119.177 52.2292 118.841 53.0879C118.505 53.9279 118.048 54.6652 117.469 55.2999C116.891 55.9159 116.219 56.4012 115.453 56.7559C114.688 57.1106 113.876 57.2879 113.017 57.2879ZM112.569 54.0119C113.223 54.0119 113.811 53.8626 114.333 53.5639C114.856 53.2466 115.267 52.8172 115.565 52.2759C115.883 51.7346 116.041 51.1186 116.041 50.4279C116.041 49.7186 115.883 49.0932 115.565 48.5519C115.267 47.9919 114.856 47.5626 114.333 47.2639C113.811 46.9466 113.223 46.7879 112.569 46.7879C111.935 46.7879 111.356 46.9466 110.833 47.2639C110.311 47.5812 109.891 48.0106 109.573 48.5519C109.275 49.0932 109.125 49.7186 109.125 50.4279C109.125 51.1186 109.275 51.7346 109.573 52.2759C109.891 52.8172 110.311 53.2466 110.833 53.5639C111.356 53.8626 111.935 54.0119 112.569 54.0119ZM107.389 57.3159C106.885 57.3159 106.512 57.2319 106.269 57.0639C106.027 56.9146 105.877 56.7186 105.821 56.4759C105.765 56.2146 105.737 55.9252 105.737 55.6079V38.9199C105.737 38.6026 105.765 38.3226 105.821 38.0799C105.877 37.8186 106.027 37.6132 106.269 37.4639C106.512 37.3146 106.885 37.2399 107.389 37.2399C107.912 37.2399 108.285 37.3146 108.509 37.4639C108.733 37.6132 108.873 37.8186 108.929 38.0799C108.985 38.3412 109.013 38.6212 109.013 38.9199V56.1679C108.939 56.5786 108.78 56.8679 108.537 57.0359C108.313 57.2226 107.931 57.3159 107.389 57.3159ZM128.536 57.4839C127.323 57.4839 126.259 57.2879 125.344 56.8959C124.448 56.5039 123.692 55.9719 123.076 55.2999C122.479 54.6092 122.021 53.8439 121.704 53.0039C121.405 52.1452 121.256 51.2586 121.256 50.3439C121.256 48.9999 121.564 47.8052 122.18 46.7599C122.796 45.7146 123.645 44.8932 124.728 44.2959C125.829 43.6986 127.089 43.3999 128.508 43.3999C129.516 43.3999 130.403 43.5586 131.168 43.8759C131.933 44.1932 132.568 44.6132 133.072 45.1359C133.595 45.6399 133.987 46.1999 134.248 46.8159C134.528 47.4319 134.668 48.0292 134.668 48.6079C134.668 49.5972 134.425 50.3159 133.94 50.7639C133.473 51.2119 132.885 51.4359 132.176 51.4359H124.784C124.803 52.0706 124.999 52.6212 125.372 53.0879C125.764 53.5546 126.249 53.9186 126.828 54.1799C127.425 54.4226 128.032 54.5439 128.648 54.5439C129.115 54.5439 129.525 54.5159 129.88 54.4599C130.253 54.4039 130.571 54.3386 130.832 54.2639C131.093 54.1706 131.317 54.0772 131.504 53.9839C131.709 53.8906 131.896 53.8066 132.064 53.7319C132.232 53.6572 132.391 53.6106 132.54 53.5919C132.745 53.5732 132.951 53.6199 133.156 53.7319C133.361 53.8439 133.529 54.0399 133.66 54.3199C133.772 54.5066 133.847 54.6839 133.884 54.8519C133.94 55.0012 133.968 55.1506 133.968 55.2999C133.968 55.6732 133.744 56.0279 133.296 56.3639C132.848 56.6812 132.213 56.9426 131.392 57.1479C130.589 57.3719 129.637 57.4839 128.536 57.4839ZM124.784 49.4479H130.524C130.841 49.4479 131.084 49.4012 131.252 49.3079C131.42 49.1959 131.504 48.9719 131.504 48.6359C131.504 48.2066 131.373 47.8239 131.112 47.4879C130.851 47.1332 130.496 46.8626 130.048 46.6759C129.6 46.4706 129.077 46.3679 128.48 46.3679C127.789 46.3679 127.164 46.5079 126.604 46.7879C126.044 47.0492 125.596 47.4132 125.26 47.8799C124.943 48.3466 124.784 48.8692 124.784 49.4479ZM138.618 57.3159C138.114 57.3159 137.74 57.2319 137.498 57.0639C137.274 56.9146 137.134 56.7092 137.078 56.4479C137.022 56.1866 136.994 55.8972 136.994 55.5799V45.1919C136.994 44.8559 137.022 44.5666 137.078 44.3239C137.134 44.0626 137.274 43.8666 137.498 43.7359C137.74 43.5866 138.123 43.5119 138.646 43.5119C139.15 43.5119 139.514 43.5772 139.738 43.7079C139.98 43.8386 140.13 44.0066 140.186 44.2119C140.26 44.3986 140.298 44.5852 140.298 44.7719L140.074 45.2759C140.167 45.1266 140.298 44.9492 140.466 44.7439C140.634 44.5199 140.858 44.3052 141.138 44.0999C141.418 43.8759 141.754 43.6986 142.146 43.5679C142.538 43.4186 143.004 43.3439 143.546 43.3439C143.77 43.3439 144.003 43.3719 144.246 43.4279C144.507 43.4652 144.759 43.5306 145.002 43.6239C145.263 43.6986 145.496 43.8012 145.702 43.9319C145.907 44.0626 146.066 44.2212 146.178 44.4079C146.29 44.5759 146.346 44.7719 146.346 44.9959C146.346 45.5932 146.196 46.0972 145.898 46.5079C145.599 46.9186 145.244 47.1239 144.834 47.1239C144.554 47.1239 144.348 47.0959 144.218 47.0399C144.087 46.9839 143.975 46.9186 143.882 46.8439C143.807 46.7692 143.686 46.7039 143.518 46.6479C143.368 46.5919 143.126 46.5639 142.79 46.5639C142.51 46.5639 142.22 46.6106 141.922 46.7039C141.642 46.7972 141.38 46.9372 141.138 47.1239C140.895 47.3106 140.699 47.5532 140.55 47.8519C140.4 48.1319 140.326 48.4586 140.326 48.8319V55.6359C140.326 55.9532 140.298 56.2426 140.242 56.5039C140.186 56.7466 140.036 56.9426 139.794 57.0919C139.551 57.2412 139.159 57.3159 138.618 57.3159ZM159.563 54.2919C160.048 54.7026 160.3 55.0852 160.319 55.4399C160.356 55.7946 160.17 56.2052 159.759 56.6719C159.442 57.0266 159.162 57.2599 158.919 57.3719C158.676 57.4839 158.434 57.4839 158.191 57.3719C157.948 57.2786 157.659 57.0919 157.323 56.8119L151.975 52.3039V55.6359C151.975 55.9346 151.938 56.2146 151.863 56.4759C151.807 56.7372 151.658 56.9426 151.415 57.0919C151.191 57.2412 150.818 57.3159 150.295 57.3159C149.772 57.3159 149.39 57.2319 149.147 57.0639C148.923 56.9146 148.783 56.7092 148.727 56.4479C148.671 56.1866 148.643 55.9066 148.643 55.6079V38.8919C148.643 38.5746 148.671 38.2946 148.727 38.0519C148.802 37.7906 148.951 37.5852 149.175 37.4359C149.418 37.2679 149.8 37.1839 150.323 37.1839C150.846 37.1839 151.219 37.2679 151.443 37.4359C151.667 37.5852 151.807 37.7906 151.863 38.0519C151.938 38.2946 151.975 38.5839 151.975 38.9199V48.1039L155.839 44.3519C156.138 44.0719 156.418 43.8852 156.679 43.7919C156.94 43.6799 157.192 43.6706 157.435 43.7639C157.696 43.8386 157.967 44.0346 158.247 44.3519C158.714 44.8559 158.938 45.2759 158.919 45.6119C158.9 45.9292 158.667 46.3119 158.219 46.7599L154.439 50.2599L159.563 54.2919ZM167.369 57.2879C166.511 57.2879 165.717 57.1386 164.989 56.8399C164.28 56.5226 163.655 56.0746 163.113 55.4959C162.572 54.9172 162.152 54.2266 161.853 53.4239C161.555 52.6212 161.405 51.7346 161.405 50.7639V45.1919C161.405 44.8746 161.433 44.5946 161.489 44.3519C161.545 44.0906 161.695 43.8852 161.937 43.7359C162.18 43.5866 162.553 43.5119 163.057 43.5119C163.599 43.5119 163.981 43.5866 164.205 43.7359C164.448 43.8852 164.597 44.0906 164.653 44.3519C164.709 44.6132 164.737 44.9026 164.737 45.2199V50.7639C164.737 51.4359 164.849 52.0146 165.073 52.4999C165.316 52.9852 165.661 53.3679 166.109 53.6479C166.557 53.9092 167.108 54.0399 167.761 54.0399C168.433 54.0399 169.003 53.9092 169.469 53.6479C169.955 53.3679 170.328 52.9852 170.589 52.4999C170.851 51.9959 170.981 51.4172 170.981 50.7639V45.1639C170.981 44.8466 171.009 44.5666 171.065 44.3239C171.121 44.0626 171.271 43.8666 171.513 43.7359C171.756 43.5866 172.139 43.5119 172.661 43.5119C173.184 43.5119 173.557 43.5866 173.781 43.7359C174.005 43.8852 174.145 44.0906 174.201 44.3519C174.276 44.6132 174.313 44.8932 174.313 45.1919V55.6919C174.313 55.9719 174.276 56.2332 174.201 56.4759C174.145 56.7186 173.996 56.9146 173.753 57.0639C173.529 57.2132 173.156 57.2879 172.633 57.2879C172.26 57.2879 171.961 57.2412 171.737 57.1479C171.532 57.0732 171.373 56.9706 171.261 56.8399C171.168 56.6906 171.103 56.5412 171.065 56.3919C171.047 56.2426 171.037 56.0932 171.037 55.9439L171.261 55.1879C171.149 55.3559 170.981 55.5612 170.757 55.8039C170.533 56.0279 170.253 56.2612 169.917 56.5039C169.6 56.7279 169.227 56.9146 168.797 57.0639C168.368 57.2132 167.892 57.2879 167.369 57.2879ZM188.559 57.2599C188.018 57.2599 187.616 57.1572 187.355 56.9519C187.094 56.7466 186.963 56.4666 186.963 56.1119L187.159 55.1879C187.01 55.4306 186.758 55.7199 186.403 56.0559C186.048 56.3732 185.582 56.6626 185.003 56.9239C184.424 57.1666 183.724 57.2879 182.903 57.2879C182.026 57.2879 181.195 57.1106 180.411 56.7559C179.646 56.3826 178.964 55.8786 178.367 55.2439C177.788 54.5906 177.322 53.8532 176.967 53.0319C176.631 52.1919 176.463 51.2959 176.463 50.3439C176.463 49.4292 176.631 48.5706 176.967 47.7679C177.322 46.9466 177.798 46.2186 178.395 45.5839C178.992 44.9492 179.674 44.4546 180.439 44.0999C181.223 43.7266 182.044 43.5399 182.903 43.5399C183.668 43.5399 184.312 43.6426 184.835 43.8479C185.376 44.0532 185.834 44.3146 186.207 44.6319C186.58 44.9306 186.888 45.2479 187.131 45.5839L186.963 44.7719C186.963 44.3612 187.094 44.0532 187.355 43.8479C187.616 43.6239 188.027 43.5119 188.587 43.5119C189.11 43.5119 189.483 43.5959 189.707 43.7639C189.931 43.9132 190.071 44.1279 190.127 44.4079C190.183 44.6692 190.211 44.9679 190.211 45.3039V55.5519C190.211 55.8692 190.183 56.1586 190.127 56.4199C190.071 56.6812 189.922 56.8866 189.679 57.0359C189.455 57.1852 189.082 57.2599 188.559 57.2599ZM183.407 54.0119C184.042 54.0119 184.611 53.8532 185.115 53.5359C185.619 53.2186 186.02 52.7892 186.319 52.2479C186.636 51.6879 186.795 51.0719 186.795 50.3999C186.795 49.6719 186.636 49.0372 186.319 48.4959C186.002 47.9546 185.582 47.5346 185.059 47.2359C184.555 46.9186 183.986 46.7599 183.351 46.7599C182.66 46.7599 182.044 46.9279 181.503 47.2639C180.962 47.5812 180.532 48.0199 180.215 48.5799C179.916 49.1212 179.767 49.7372 179.767 50.4279C179.767 51.0999 179.926 51.7066 180.243 52.2479C180.56 52.7892 180.99 53.2186 181.531 53.5359C182.091 53.8532 182.716 54.0119 183.407 54.0119ZM197.808 57.4839C197.323 57.4839 196.81 57.4279 196.268 57.3159C195.727 57.2226 195.204 57.0826 194.7 56.8959C194.196 56.6906 193.758 56.4572 193.384 56.1959C193.03 55.9159 192.806 55.6079 192.712 55.2719C192.638 55.0852 192.61 54.9079 192.628 54.7399C192.647 54.5532 192.703 54.3666 192.796 54.1799C192.89 53.9746 193.03 53.7692 193.216 53.5639C193.384 53.3586 193.552 53.2466 193.72 53.2279C193.907 53.1906 194.14 53.2466 194.42 53.3959C194.663 53.4892 194.924 53.6106 195.204 53.7599C195.503 53.9092 195.802 54.0586 196.1 54.2079C196.418 54.3572 196.735 54.4786 197.052 54.5719C197.388 54.6652 197.715 54.7119 198.032 54.7119C198.723 54.7119 199.274 54.5999 199.684 54.3759C200.095 54.1332 200.3 53.7972 200.3 53.3679C200.3 53.1252 200.235 52.9106 200.104 52.7239C199.974 52.5372 199.796 52.3879 199.572 52.2759C199.367 52.1452 199.115 52.0332 198.816 51.9399C198.536 51.8279 198.228 51.7346 197.892 51.6599C197.575 51.5666 197.239 51.4639 196.884 51.3519C196.418 51.2212 195.951 51.0626 195.484 50.8759C195.018 50.6892 194.598 50.4466 194.224 50.1479C193.87 49.8492 193.58 49.4759 193.356 49.0279C193.132 48.5799 193.02 48.0199 193.02 47.3479C193.02 46.5079 193.216 45.7986 193.608 45.2199C194.019 44.6226 194.607 44.1652 195.372 43.8479C196.138 43.5306 197.062 43.3719 198.144 43.3719C198.518 43.3719 198.872 43.3999 199.208 43.4559C199.563 43.5119 199.899 43.5959 200.216 43.7079C200.552 43.8012 200.87 43.9226 201.168 44.0719C201.486 44.2212 201.784 44.3892 202.064 44.5759C202.531 44.8372 202.774 45.1452 202.792 45.4999C202.811 45.8359 202.68 46.1999 202.4 46.5919C202.195 46.8532 201.99 47.0399 201.784 47.1519C201.579 47.2452 201.364 47.2452 201.14 47.1519C200.842 47.0026 200.515 46.8439 200.16 46.6759C199.824 46.4892 199.47 46.3306 199.096 46.1999C198.742 46.0692 198.368 46.0039 197.976 46.0039C197.603 46.0039 197.267 46.0599 196.968 46.1719C196.67 46.2839 196.446 46.4426 196.296 46.6479C196.147 46.8532 196.072 47.0959 196.072 47.3759C196.072 47.6372 196.147 47.8519 196.296 48.0199C196.446 48.1879 196.642 48.3279 196.884 48.4399C197.127 48.5519 197.416 48.6546 197.752 48.7479C198.088 48.8226 198.443 48.8972 198.816 48.9719C199.339 49.0839 199.871 49.2239 200.412 49.3919C200.954 49.5599 201.448 49.7932 201.896 50.0919C202.363 50.3906 202.736 50.7919 203.016 51.2959C203.296 51.7812 203.436 52.4159 203.436 53.1999C203.436 54.5626 202.932 55.6172 201.924 56.3639C200.935 57.1106 199.563 57.4839 197.808 57.4839ZM217.352 57.2599C216.811 57.2599 216.409 57.1572 216.148 56.9519C215.887 56.7466 215.756 56.4666 215.756 56.1119L215.952 55.1879C215.803 55.4306 215.551 55.7199 215.196 56.0559C214.841 56.3732 214.375 56.6626 213.796 56.9239C213.217 57.1666 212.517 57.2879 211.696 57.2879C210.819 57.2879 209.988 57.1106 209.204 56.7559C208.439 56.3826 207.757 55.8786 207.16 55.2439C206.581 54.5906 206.115 53.8532 205.76 53.0319C205.424 52.1919 205.256 51.2959 205.256 50.3439C205.256 49.4292 205.424 48.5706 205.76 47.7679C206.115 46.9466 206.591 46.2186 207.188 45.5839C207.785 44.9492 208.467 44.4546 209.232 44.0999C210.016 43.7266 210.837 43.5399 211.696 43.5399C212.461 43.5399 213.105 43.6426 213.628 43.8479C214.169 44.0532 214.627 44.3146 215 44.6319C215.373 44.9306 215.681 45.2479 215.924 45.5839L215.756 44.7719C215.756 44.3612 215.887 44.0532 216.148 43.8479C216.409 43.6239 216.82 43.5119 217.38 43.5119C217.903 43.5119 218.276 43.5959 218.5 43.7639C218.724 43.9132 218.864 44.1279 218.92 44.4079C218.976 44.6692 219.004 44.9679 219.004 45.3039V55.5519C219.004 55.8692 218.976 56.1586 218.92 56.4199C218.864 56.6812 218.715 56.8866 218.472 57.0359C218.248 57.1852 217.875 57.2599 217.352 57.2599ZM212.2 54.0119C212.835 54.0119 213.404 53.8532 213.908 53.5359C214.412 53.2186 214.813 52.7892 215.112 52.2479C215.429 51.6879 215.588 51.0719 215.588 50.3999C215.588 49.6719 215.429 49.0372 215.112 48.4959C214.795 47.9546 214.375 47.5346 213.852 47.2359C213.348 46.9186 212.779 46.7599 212.144 46.7599C211.453 46.7599 210.837 46.9279 210.296 47.2639C209.755 47.5812 209.325 48.0199 209.008 48.5799C208.709 49.1212 208.56 49.7372 208.56 50.4279C208.56 51.0999 208.719 51.7066 209.036 52.2479C209.353 52.7892 209.783 53.2186 210.324 53.5359C210.884 53.8532 211.509 54.0119 212.2 54.0119ZM239.965 57.2599C239.424 57.2599 239.023 57.1572 238.761 56.9519C238.5 56.7466 238.369 56.4666 238.369 56.1119L238.565 55.1879C238.416 55.4306 238.164 55.7199 237.809 56.0559C237.455 56.3732 236.988 56.6626 236.409 56.9239C235.831 57.1666 235.131 57.2879 234.309 57.2879C233.432 57.2879 232.601 57.1106 231.817 56.7559C231.052 56.3826 230.371 55.8786 229.773 55.2439C229.195 54.5906 228.728 53.8532 228.373 53.0319C228.037 52.1919 227.869 51.2959 227.869 50.3439C227.869 49.4292 228.037 48.5706 228.373 47.7679C228.728 46.9466 229.204 46.2186 229.801 45.5839C230.399 44.9492 231.08 44.4546 231.845 44.0999C232.629 43.7266 233.451 43.5399 234.309 43.5399C235.075 43.5399 235.719 43.6426 236.241 43.8479C236.783 44.0532 237.24 44.3146 237.613 44.6319C237.987 44.9306 238.295 45.2479 238.537 45.5839L238.369 44.7719C238.369 44.3612 238.5 44.0532 238.761 43.8479C239.023 43.6239 239.433 43.5119 239.993 43.5119C240.516 43.5119 240.889 43.5959 241.113 43.7639C241.337 43.9132 241.477 44.1279 241.533 44.4079C241.589 44.6692 241.617 44.9679 241.617 45.3039V55.5519C241.617 55.8692 241.589 56.1586 241.533 56.4199C241.477 56.6812 241.328 56.8866 241.085 57.0359C240.861 57.1852 240.488 57.2599 239.965 57.2599ZM234.813 54.0119C235.448 54.0119 236.017 53.8532 236.521 53.5359C237.025 53.2186 237.427 52.7892 237.725 52.2479C238.043 51.6879 238.201 51.0719 238.201 50.3999C238.201 49.6719 238.043 49.0372 237.725 48.4959C237.408 47.9546 236.988 47.5346 236.465 47.2359C235.961 46.9186 235.392 46.7599 234.757 46.7599C234.067 46.7599 233.451 46.9279 232.909 47.2639C232.368 47.5812 231.939 48.0199 231.621 48.5799C231.323 49.1212 231.173 49.7372 231.173 50.4279C231.173 51.0999 231.332 51.7066 231.649 52.2479C231.967 52.7892 232.396 53.2186 232.937 53.5359C233.497 53.8532 234.123 54.0119 234.813 54.0119ZM251.231 57.3159C250.316 57.3159 249.532 57.2226 248.879 57.0359C248.225 56.8492 247.693 56.5599 247.283 56.1679C246.872 55.7759 246.564 55.2719 246.359 54.6559C246.172 54.0212 246.079 53.2746 246.079 52.4159V40.5439C246.079 40.2079 246.107 39.9186 246.163 39.6759C246.237 39.4332 246.387 39.2466 246.611 39.1159C246.853 38.9666 247.227 38.8919 247.731 38.8919C248.253 38.8919 248.627 38.9666 248.851 39.1159C249.093 39.2652 249.243 39.4706 249.299 39.7319C249.373 39.9746 249.411 40.2452 249.411 40.5439V52.3039C249.411 52.6959 249.439 53.0132 249.495 53.2559C249.569 53.4986 249.672 53.6852 249.803 53.8159C249.952 53.9279 250.139 54.0119 250.363 54.0679C250.605 54.1052 250.895 54.1239 251.231 54.1239C251.585 54.1239 251.884 54.1519 252.127 54.2079C252.388 54.2639 252.584 54.4039 252.715 54.6279C252.845 54.8332 252.911 55.1786 252.911 55.6639C252.911 56.1866 252.827 56.5692 252.659 56.8119C252.509 57.0359 252.304 57.1759 252.043 57.2319C251.8 57.2879 251.529 57.3159 251.231 57.3159ZM244.931 43.7919L247.815 43.8199L251.679 43.7079C251.996 43.7079 252.276 43.7452 252.519 43.8199C252.78 43.8759 252.985 44.0252 253.135 44.2679C253.284 44.4919 253.359 44.8652 253.359 45.3879C253.359 45.8732 253.284 46.2372 253.135 46.4799C252.985 46.7226 252.789 46.8812 252.547 46.9559C252.304 47.0119 252.024 47.0399 251.707 47.0399L247.955 46.9839L244.847 47.0119C244.38 46.9932 244.053 46.8626 243.867 46.6199C243.699 46.3586 243.615 45.9386 243.615 45.3599C243.615 44.8186 243.717 44.4266 243.923 44.1839C244.147 43.9226 244.483 43.7919 244.931 43.7919ZM266.926 57.2599C266.385 57.2599 265.984 57.1572 265.722 56.9519C265.461 56.7466 265.33 56.4666 265.33 56.1119L265.526 55.1879C265.377 55.4306 265.125 55.7199 264.77 56.0559C264.416 56.3732 263.949 56.6626 263.37 56.9239C262.792 57.1666 262.092 57.2879 261.27 57.2879C260.393 57.2879 259.562 57.1106 258.778 56.7559C258.013 56.3826 257.332 55.8786 256.734 55.2439C256.156 54.5906 255.689 53.8532 255.334 53.0319C254.998 52.1919 254.83 51.2959 254.83 50.3439C254.83 49.4292 254.998 48.5706 255.334 47.7679C255.689 46.9466 256.165 46.2186 256.762 45.5839C257.36 44.9492 258.041 44.4546 258.806 44.0999C259.59 43.7266 260.412 43.5399 261.27 43.5399C262.036 43.5399 262.68 43.6426 263.202 43.8479C263.744 44.0532 264.201 44.3146 264.574 44.6319C264.948 44.9306 265.256 45.2479 265.498 45.5839L265.33 44.7719C265.33 44.3612 265.461 44.0532 265.722 43.8479C265.984 43.6239 266.394 43.5119 266.954 43.5119C267.477 43.5119 267.85 43.5959 268.074 43.7639C268.298 43.9132 268.438 44.1279 268.494 44.4079C268.55 44.6692 268.578 44.9679 268.578 45.3039V55.5519C268.578 55.8692 268.55 56.1586 268.494 56.4199C268.438 56.6812 268.289 56.8866 268.046 57.0359C267.822 57.1852 267.449 57.2599 266.926 57.2599ZM261.774 54.0119C262.409 54.0119 262.978 53.8532 263.482 53.5359C263.986 53.2186 264.388 52.7892 264.686 52.2479C265.004 51.6879 265.162 51.0719 265.162 50.3999C265.162 49.6719 265.004 49.0372 264.686 48.4959C264.369 47.9546 263.949 47.5346 263.426 47.2359C262.922 46.9186 262.353 46.7599 261.718 46.7599C261.028 46.7599 260.412 46.9279 259.87 47.2639C259.329 47.5812 258.9 48.0199 258.582 48.5799C258.284 49.1212 258.134 49.7372 258.134 50.4279C258.134 51.0999 258.293 51.7066 258.61 52.2479C258.928 52.7892 259.357 53.2186 259.898 53.5359C260.458 53.8532 261.084 54.0119 261.774 54.0119ZM277.1 57.2879C276.241 57.2879 275.448 57.1386 274.72 56.8399C274.01 56.5226 273.385 56.0746 272.844 55.4959C272.302 54.9172 271.882 54.2266 271.584 53.4239C271.285 52.6212 271.136 51.7346 271.136 50.7639V45.1919C271.136 44.8746 271.164 44.5946 271.22 44.3519C271.276 44.0906 271.425 43.8852 271.668 43.7359C271.91 43.5866 272.284 43.5119 272.788 43.5119C273.329 43.5119 273.712 43.5866 273.936 43.7359C274.178 43.8852 274.328 44.0906 274.384 44.3519C274.44 44.6132 274.468 44.9026 274.468 45.2199V50.7639C274.468 51.4359 274.58 52.0146 274.804 52.4999C275.046 52.9852 275.392 53.3679 275.84 53.6479C276.288 53.9092 276.838 54.0399 277.492 54.0399C278.164 54.0399 278.733 53.9092 279.2 53.6479C279.685 53.3679 280.058 52.9852 280.32 52.4999C280.581 51.9959 280.712 51.4172 280.712 50.7639V45.1639C280.712 44.8466 280.74 44.5666 280.796 44.3239C280.852 44.0626 281.001 43.8666 281.244 43.7359C281.486 43.5866 281.869 43.5119 282.392 43.5119C282.914 43.5119 283.288 43.5866 283.512 43.7359C283.736 43.8852 283.876 44.0906 283.932 44.3519C284.006 44.6132 284.044 44.8932 284.044 45.1919V55.6919C284.044 55.9719 284.006 56.2332 283.932 56.4759C283.876 56.7186 283.726 56.9146 283.484 57.0639C283.26 57.2132 282.886 57.2879 282.364 57.2879C281.99 57.2879 281.692 57.2412 281.468 57.1479C281.262 57.0732 281.104 56.9706 280.992 56.8399C280.898 56.6906 280.833 56.5412 280.796 56.3919C280.777 56.2426 280.768 56.0932 280.768 55.9439L280.992 55.1879C280.88 55.3559 280.712 55.5612 280.488 55.8039C280.264 56.0279 279.984 56.2612 279.648 56.5039C279.33 56.7279 278.957 56.9146 278.528 57.0639C278.098 57.2132 277.622 57.2879 277.1 57.2879ZM81.9062 91.2879C81.4022 91.2879 81.0288 91.2132 80.7862 91.0639C80.5622 90.9146 80.4222 90.7092 80.3662 90.4479C80.3102 90.1866 80.2822 89.9066 80.2822 89.6079V79.1359C80.2822 78.8372 80.3102 78.5666 80.3662 78.3239C80.4222 78.0812 80.5715 77.8852 80.8142 77.7359C81.0568 77.5866 81.4395 77.5119 81.9622 77.5119C82.5035 77.5119 82.8955 77.6239 83.1382 77.8479C83.3995 78.0719 83.5302 78.4266 83.5302 78.9119L83.2782 79.6959C83.3715 79.4906 83.5302 79.2666 83.7542 79.0239C83.9782 78.7812 84.2488 78.5386 84.5662 78.2959C84.9022 78.0532 85.2755 77.8572 85.6862 77.7079C86.0968 77.5586 86.5262 77.4839 86.9742 77.4839C87.5902 77.4839 88.1502 77.5866 88.6542 77.7919C89.1768 77.9972 89.6342 78.2959 90.0262 78.6879C90.4368 79.0799 90.7915 79.5559 91.0902 80.1159C91.4075 79.6306 91.7622 79.1919 92.1542 78.7999C92.5462 78.3892 93.0035 78.0719 93.5262 77.8479C94.0488 77.6052 94.6368 77.4839 95.2902 77.4839C96.3728 77.4839 97.2782 77.7546 98.0062 78.2959C98.7528 78.8372 99.3128 79.6119 99.6862 80.6199C100.078 81.6092 100.274 82.7946 100.274 84.1759V89.6079C100.274 89.9252 100.237 90.2146 100.162 90.4759C100.106 90.7186 99.9568 90.9146 99.7142 91.0639C99.4902 91.2132 99.1168 91.2879 98.5942 91.2879C98.0715 91.2879 97.6888 91.2039 97.4462 91.0359C97.2035 90.8866 97.0542 90.6906 96.9982 90.4479C96.9422 90.1866 96.9142 89.8972 96.9142 89.5799V84.1479C96.9142 83.4572 96.8302 82.8599 96.6622 82.3559C96.4942 81.8519 96.2422 81.4599 95.9062 81.1799C95.5888 80.8999 95.1688 80.7599 94.6462 80.7599C94.0862 80.7599 93.6008 80.8999 93.1902 81.1799C92.7982 81.4412 92.4902 81.8239 92.2662 82.3279C92.0422 82.8319 91.9302 83.4479 91.9302 84.1759V89.6359C91.9302 89.9532 91.8835 90.2519 91.7902 90.5319C91.6968 90.7932 91.5102 90.9892 91.2302 91.1199C90.9688 91.2692 90.5862 91.3252 90.0822 91.2879C89.6155 91.2692 89.2702 91.1759 89.0462 91.0079C88.8408 90.8399 88.7102 90.6346 88.6542 90.3919C88.6168 90.1306 88.5982 89.8599 88.5982 89.5799V84.1479C88.5982 83.4572 88.5142 82.8599 88.3462 82.3559C88.1782 81.8332 87.9262 81.4412 87.5902 81.1799C87.2728 80.8999 86.8435 80.7599 86.3022 80.7599C85.7235 80.7599 85.2288 80.9092 84.8182 81.2079C84.4262 81.5066 84.1275 81.9079 83.9222 82.4119C83.7168 82.9159 83.6142 83.4946 83.6142 84.1479V89.6359C83.6142 89.9346 83.5768 90.2146 83.5022 90.4759C83.4462 90.7372 83.2968 90.9332 83.0542 91.0639C82.8302 91.2132 82.4475 91.2879 81.9062 91.2879ZM109.751 91.4839C108.538 91.4839 107.474 91.2879 106.559 90.8959C105.663 90.5039 104.907 89.9719 104.291 89.2999C103.694 88.6092 103.236 87.8439 102.919 87.0039C102.62 86.1452 102.471 85.2586 102.471 84.3439C102.471 82.9999 102.779 81.8052 103.395 80.7599C104.011 79.7146 104.86 78.8932 105.943 78.2959C107.044 77.6986 108.304 77.3999 109.723 77.3999C110.731 77.3999 111.618 77.5586 112.383 77.8759C113.148 78.1932 113.783 78.6132 114.287 79.1359C114.81 79.6399 115.202 80.1999 115.463 80.8159C115.743 81.4319 115.883 82.0292 115.883 82.6079C115.883 83.5972 115.64 84.3159 115.155 84.7639C114.688 85.2119 114.1 85.4359 113.391 85.4359H105.999C106.018 86.0706 106.214 86.6212 106.587 87.0879C106.979 87.5546 107.464 87.9186 108.043 88.1799C108.64 88.4226 109.247 88.5439 109.863 88.5439C110.33 88.5439 110.74 88.5159 111.095 88.4599C111.468 88.4039 111.786 88.3386 112.047 88.2639C112.308 88.1706 112.532 88.0772 112.719 87.9839C112.924 87.8906 113.111 87.8066 113.279 87.7319C113.447 87.6572 113.606 87.6106 113.755 87.5919C113.96 87.5732 114.166 87.6199 114.371 87.7319C114.576 87.8439 114.744 88.0399 114.875 88.3199C114.987 88.5066 115.062 88.6839 115.099 88.8519C115.155 89.0012 115.183 89.1506 115.183 89.2999C115.183 89.6732 114.959 90.0279 114.511 90.3639C114.063 90.6812 113.428 90.9426 112.607 91.1479C111.804 91.3719 110.852 91.4839 109.751 91.4839ZM105.999 83.4479H111.739C112.056 83.4479 112.299 83.4012 112.467 83.3079C112.635 83.1959 112.719 82.9719 112.719 82.6359C112.719 82.2066 112.588 81.8239 112.327 81.4879C112.066 81.1332 111.711 80.8626 111.263 80.6759C110.815 80.4706 110.292 80.3679 109.695 80.3679C109.004 80.3679 108.379 80.5079 107.819 80.7879C107.259 81.0492 106.811 81.4132 106.475 81.8799C106.158 82.3466 105.999 82.8692 105.999 83.4479ZM119.833 91.2879C119.329 91.2879 118.955 91.2039 118.713 91.0359C118.489 90.8866 118.349 90.6906 118.293 90.4479C118.237 90.1866 118.209 89.8972 118.209 89.5799V79.1079C118.209 78.8092 118.237 78.5386 118.293 78.2959C118.349 78.0532 118.498 77.8666 118.741 77.7359C118.983 77.5866 119.357 77.5119 119.861 77.5119C120.309 77.5119 120.645 77.5679 120.869 77.6799C121.093 77.7919 121.242 77.9319 121.317 78.0999C121.391 78.2679 121.429 78.4359 121.429 78.6039C121.447 78.7719 121.466 78.9026 121.485 78.9959L121.373 79.8919C121.485 79.5932 121.671 79.3039 121.933 79.0239C122.194 78.7439 122.511 78.4919 122.885 78.2679C123.258 78.0252 123.659 77.8386 124.089 77.7079C124.537 77.5586 124.994 77.4839 125.461 77.4839C126.338 77.4839 127.122 77.6426 127.813 77.9599C128.503 78.2772 129.091 78.7252 129.577 79.3039C130.081 79.8826 130.463 80.5732 130.725 81.3759C130.986 82.1599 131.117 83.0466 131.117 84.0359V89.6079C131.117 89.9252 131.079 90.2146 131.005 90.4759C130.949 90.7186 130.809 90.9146 130.585 91.0639C130.361 91.2132 129.978 91.2879 129.437 91.2879C128.914 91.2879 128.531 91.2039 128.289 91.0359C128.046 90.8866 127.897 90.6906 127.841 90.4479C127.785 90.1866 127.757 89.8972 127.757 89.5799V84.0079C127.757 83.3359 127.635 82.7572 127.393 82.2719C127.169 81.7866 126.833 81.4132 126.385 81.1519C125.955 80.8906 125.405 80.7599 124.733 80.7599C124.079 80.7599 123.51 80.8999 123.025 81.1799C122.539 81.4412 122.166 81.8146 121.905 82.2999C121.643 82.7852 121.513 83.3546 121.513 84.0079V89.6079C121.513 89.9252 121.485 90.2146 121.429 90.4759C121.373 90.7186 121.223 90.9146 120.981 91.0639C120.757 91.2132 120.374 91.2879 119.833 91.2879ZM139.561 91.2879C138.702 91.2879 137.909 91.1386 137.181 90.8399C136.471 90.5226 135.846 90.0746 135.305 89.4959C134.763 88.9172 134.343 88.2266 134.045 87.4239C133.746 86.6212 133.597 85.7346 133.597 84.7639V79.1919C133.597 78.8746 133.625 78.5946 133.681 78.3519C133.737 78.0906 133.886 77.8852 134.129 77.7359C134.371 77.5866 134.745 77.5119 135.249 77.5119C135.79 77.5119 136.173 77.5866 136.397 77.7359C136.639 77.8852 136.789 78.0906 136.845 78.3519C136.901 78.6132 136.929 78.9026 136.929 79.2199V84.7639C136.929 85.4359 137.041 86.0146 137.265 86.4999C137.507 86.9852 137.853 87.3679 138.301 87.6479C138.749 87.9092 139.299 88.0399 139.953 88.0399C140.625 88.0399 141.194 87.9092 141.661 87.6479C142.146 87.3679 142.519 86.9852 142.781 86.4999C143.042 85.9959 143.173 85.4172 143.173 84.7639V79.1639C143.173 78.8466 143.201 78.5666 143.257 78.3239C143.313 78.0626 143.462 77.8666 143.705 77.7359C143.947 77.5866 144.33 77.5119 144.853 77.5119C145.375 77.5119 145.749 77.5866 145.973 77.7359C146.197 77.8852 146.337 78.0906 146.393 78.3519C146.467 78.6132 146.505 78.8932 146.505 79.1919V89.6919C146.505 89.9719 146.467 90.2332 146.393 90.4759C146.337 90.7186 146.187 90.9146 145.945 91.0639C145.721 91.2132 145.347 91.2879 144.825 91.2879C144.451 91.2879 144.153 91.2412 143.929 91.1479C143.723 91.0732 143.565 90.9706 143.453 90.8399C143.359 90.6906 143.294 90.5412 143.257 90.3919C143.238 90.2426 143.229 90.0932 143.229 89.9439L143.453 89.1879C143.341 89.3559 143.173 89.5612 142.949 89.8039C142.725 90.0279 142.445 90.2612 142.109 90.5039C141.791 90.7279 141.418 90.9146 140.989 91.0639C140.559 91.2132 140.083 91.2879 139.561 91.2879ZM150.922 91.2879C150.418 91.2879 150.045 91.2039 149.802 91.0359C149.578 90.8866 149.438 90.6906 149.382 90.4479C149.326 90.1866 149.298 89.8972 149.298 89.5799V79.1079C149.298 78.8092 149.326 78.5386 149.382 78.2959C149.438 78.0532 149.588 77.8666 149.83 77.7359C150.073 77.5866 150.446 77.5119 150.95 77.5119C151.398 77.5119 151.734 77.5679 151.958 77.6799C152.182 77.7919 152.332 77.9319 152.406 78.0999C152.481 78.2679 152.518 78.4359 152.518 78.6039C152.537 78.7719 152.556 78.9026 152.574 78.9959L152.462 79.8919C152.574 79.5932 152.761 79.3039 153.022 79.0239C153.284 78.7439 153.601 78.4919 153.974 78.2679C154.348 78.0252 154.749 77.8386 155.178 77.7079C155.626 77.5586 156.084 77.4839 156.55 77.4839C157.428 77.4839 158.212 77.6426 158.902 77.9599C159.593 78.2772 160.181 78.7252 160.666 79.3039C161.17 79.8826 161.553 80.5732 161.814 81.3759C162.076 82.1599 162.206 83.0466 162.206 84.0359V89.6079C162.206 89.9252 162.169 90.2146 162.094 90.4759C162.038 90.7186 161.898 90.9146 161.674 91.0639C161.45 91.2132 161.068 91.2879 160.526 91.2879C160.004 91.2879 159.621 91.2039 159.378 91.0359C159.136 90.8866 158.986 90.6906 158.93 90.4479C158.874 90.1866 158.846 89.8972 158.846 89.5799V84.0079C158.846 83.3359 158.725 82.7572 158.482 82.2719C158.258 81.7866 157.922 81.4132 157.474 81.1519C157.045 80.8906 156.494 80.7599 155.822 80.7599C155.169 80.7599 154.6 80.8999 154.114 81.1799C153.629 81.4412 153.256 81.8146 152.994 82.2999C152.733 82.7852 152.602 83.3546 152.602 84.0079V89.6079C152.602 89.9252 152.574 90.2146 152.518 90.4759C152.462 90.7186 152.313 90.9146 152.07 91.0639C151.846 91.2132 151.464 91.2879 150.922 91.2879ZM162.306 96.8879C162.026 96.8879 161.765 96.8506 161.522 96.7759C161.261 96.7199 161.056 96.5799 160.906 96.3559C160.738 96.1319 160.654 95.7586 160.654 95.2359C160.654 94.7506 160.738 94.3959 160.906 94.1719C161.056 93.9479 161.261 93.7986 161.522 93.7239C161.765 93.6492 162.045 93.6119 162.362 93.6119C162.698 93.6119 163.034 93.5746 163.37 93.4999C163.706 93.4439 164.014 93.3132 164.294 93.1079C164.574 92.9212 164.789 92.6319 164.938 92.2399C165.106 91.8666 165.19 91.3626 165.19 90.7279V79.0239C165.19 78.7439 165.218 78.4919 165.274 78.2679C165.349 78.0252 165.508 77.8386 165.75 77.7079C165.993 77.5586 166.366 77.4839 166.87 77.4839C167.374 77.4839 167.738 77.5586 167.962 77.7079C168.186 77.8572 168.326 78.0626 168.382 78.3239C168.457 78.5852 168.494 78.8652 168.494 79.1639V90.7839C168.494 91.8106 168.317 92.7066 167.962 93.4719C167.626 94.2559 167.169 94.8999 166.59 95.4039C166.012 95.9079 165.349 96.2812 164.602 96.5239C163.874 96.7666 163.109 96.8879 162.306 96.8879ZM166.814 74.7959C166.142 74.7959 165.676 74.6652 165.414 74.4039C165.172 74.1426 165.05 73.6666 165.05 72.9759C165.05 72.3039 165.172 71.8466 165.414 71.6039C165.676 71.3612 166.152 71.2399 166.842 71.2399C167.514 71.2399 167.972 71.3706 168.214 71.6319C168.476 71.8746 168.606 72.3412 168.606 73.0319C168.606 73.7039 168.476 74.1706 168.214 74.4319C167.972 74.6746 167.505 74.7959 166.814 74.7959ZM177.322 91.2879C176.464 91.2879 175.67 91.1386 174.942 90.8399C174.233 90.5226 173.608 90.0746 173.066 89.4959C172.525 88.9172 172.105 88.2266 171.806 87.4239C171.508 86.6212 171.358 85.7346 171.358 84.7639V79.1919C171.358 78.8746 171.386 78.5946 171.442 78.3519C171.498 78.0906 171.648 77.8852 171.89 77.7359C172.133 77.5866 172.506 77.5119 173.01 77.5119C173.552 77.5119 173.934 77.5866 174.158 77.7359C174.401 77.8852 174.55 78.0906 174.606 78.3519C174.662 78.6132 174.69 78.9026 174.69 79.2199V84.7639C174.69 85.4359 174.802 86.0146 175.026 86.4999C175.269 86.9852 175.614 87.3679 176.062 87.6479C176.51 87.9092 177.061 88.0399 177.714 88.0399C178.386 88.0399 178.956 87.9092 179.422 87.6479C179.908 87.3679 180.281 86.9852 180.542 86.4999C180.804 85.9959 180.934 85.4172 180.934 84.7639V79.1639C180.934 78.8466 180.962 78.5666 181.018 78.3239C181.074 78.0626 181.224 77.8666 181.466 77.7359C181.709 77.5866 182.092 77.5119 182.614 77.5119C183.137 77.5119 183.51 77.5866 183.734 77.7359C183.958 77.8852 184.098 78.0906 184.154 78.3519C184.229 78.6132 184.266 78.8932 184.266 79.1919V89.6919C184.266 89.9719 184.229 90.2332 184.154 90.4759C184.098 90.7186 183.949 90.9146 183.706 91.0639C183.482 91.2132 183.109 91.2879 182.586 91.2879C182.213 91.2879 181.914 91.2412 181.69 91.1479C181.485 91.0732 181.326 90.9706 181.214 90.8399C181.121 90.6906 181.056 90.5412 181.018 90.3919C181 90.2426 180.99 90.0932 180.99 89.9439L181.214 89.1879C181.102 89.3559 180.934 89.5612 180.71 89.8039C180.486 90.0279 180.206 90.2612 179.87 90.5039C179.553 90.7279 179.18 90.9146 178.75 91.0639C178.321 91.2132 177.845 91.2879 177.322 91.2879ZM198.008 88.2919C198.494 88.7026 198.746 89.0852 198.764 89.4399C198.802 89.7946 198.615 90.2052 198.204 90.6719C197.887 91.0266 197.607 91.2599 197.364 91.3719C197.122 91.4839 196.879 91.4839 196.636 91.3719C196.394 91.2786 196.104 91.0919 195.768 90.8119L190.42 86.3039V89.6359C190.42 89.9346 190.383 90.2146 190.308 90.4759C190.252 90.7372 190.103 90.9426 189.86 91.0919C189.636 91.2412 189.263 91.3159 188.74 91.3159C188.218 91.3159 187.835 91.2319 187.592 91.0639C187.368 90.9146 187.228 90.7092 187.172 90.4479C187.116 90.1866 187.088 89.9066 187.088 89.6079V72.8919C187.088 72.5746 187.116 72.2946 187.172 72.0519C187.247 71.7906 187.396 71.5852 187.62 71.4359C187.863 71.2679 188.246 71.1839 188.768 71.1839C189.291 71.1839 189.664 71.2679 189.888 71.4359C190.112 71.5852 190.252 71.7906 190.308 72.0519C190.383 72.2946 190.42 72.5839 190.42 72.9199V82.1039L194.284 78.3519C194.583 78.0719 194.863 77.8852 195.124 77.7919C195.386 77.6799 195.638 77.6706 195.88 77.7639C196.142 77.8386 196.412 78.0346 196.692 78.3519C197.159 78.8559 197.383 79.2759 197.364 79.6119C197.346 79.9292 197.112 80.3119 196.664 80.7599L192.884 84.2599L198.008 88.2919ZM211.926 88.2919C212.411 88.7026 212.663 89.0852 212.682 89.4399C212.719 89.7946 212.533 90.2052 212.122 90.6719C211.805 91.0266 211.525 91.2599 211.282 91.3719C211.039 91.4839 210.797 91.4839 210.554 91.3719C210.311 91.2786 210.022 91.0919 209.686 90.8119L204.338 86.3039V89.6359C204.338 89.9346 204.301 90.2146 204.226 90.4759C204.17 90.7372 204.021 90.9426 203.778 91.0919C203.554 91.2412 203.181 91.3159 202.658 91.3159C202.135 91.3159 201.753 91.2319 201.51 91.0639C201.286 90.9146 201.146 90.7092 201.09 90.4479C201.034 90.1866 201.006 89.9066 201.006 89.6079V72.8919C201.006 72.5746 201.034 72.2946 201.09 72.0519C201.165 71.7906 201.314 71.5852 201.538 71.4359C201.781 71.2679 202.163 71.1839 202.686 71.1839C203.209 71.1839 203.582 71.2679 203.806 71.4359C204.03 71.5852 204.17 71.7906 204.226 72.0519C204.301 72.2946 204.338 72.5839 204.338 72.9199V82.1039L208.202 78.3519C208.501 78.0719 208.781 77.8852 209.042 77.7919C209.303 77.6799 209.555 77.6706 209.798 77.7639C210.059 77.8386 210.33 78.0346 210.61 78.3519C211.077 78.8559 211.301 79.2759 211.282 79.6119C211.263 79.9292 211.03 80.3119 210.582 80.7599L206.802 84.2599L211.926 88.2919ZM225.5 91.2599C224.959 91.2599 224.558 91.1572 224.296 90.9519C224.035 90.7466 223.904 90.4666 223.904 90.1119L224.1 89.1879C223.951 89.4306 223.699 89.7199 223.344 90.0559C222.99 90.3732 222.523 90.6626 221.944 90.9239C221.366 91.1666 220.666 91.2879 219.844 91.2879C218.967 91.2879 218.136 91.1106 217.352 90.7559C216.587 90.3826 215.906 89.8786 215.308 89.2439C214.73 88.5906 214.263 87.8532 213.908 87.0319C213.572 86.1919 213.404 85.2959 213.404 84.3439C213.404 83.4292 213.572 82.5706 213.908 81.7679C214.263 80.9466 214.739 80.2186 215.336 79.5839C215.934 78.9492 216.615 78.4546 217.38 78.0999C218.164 77.7266 218.986 77.5399 219.844 77.5399C220.61 77.5399 221.254 77.6426 221.776 77.8479C222.318 78.0532 222.775 78.3146 223.148 78.6319C223.522 78.9306 223.83 79.2479 224.072 79.5839L223.904 78.7719C223.904 78.3612 224.035 78.0532 224.296 77.8479C224.558 77.6239 224.968 77.5119 225.528 77.5119C226.051 77.5119 226.424 77.5959 226.648 77.7639C226.872 77.9132 227.012 78.1279 227.068 78.4079C227.124 78.6692 227.152 78.9679 227.152 79.3039V89.5519C227.152 89.8692 227.124 90.1586 227.068 90.4199C227.012 90.6812 226.863 90.8866 226.62 91.0359C226.396 91.1852 226.023 91.2599 225.5 91.2599ZM220.348 88.0119C220.983 88.0119 221.552 87.8532 222.056 87.5359C222.56 87.2186 222.962 86.7892 223.26 86.2479C223.578 85.6879 223.736 85.0719 223.736 84.3999C223.736 83.6719 223.578 83.0372 223.26 82.4959C222.943 81.9546 222.523 81.5346 222 81.2359C221.496 80.9186 220.927 80.7599 220.292 80.7599C219.602 80.7599 218.986 80.9279 218.444 81.2639C217.903 81.5812 217.474 82.0199 217.156 82.5799C216.858 83.1212 216.708 83.7372 216.708 84.4279C216.708 85.0999 216.867 85.7066 217.184 86.2479C217.502 86.7892 217.931 87.2186 218.472 87.5359C219.032 87.8532 219.658 88.0119 220.348 88.0119ZM231.614 91.2879C231.11 91.2879 230.737 91.2039 230.494 91.0359C230.27 90.8866 230.13 90.6906 230.074 90.4479C230.018 90.1866 229.99 89.8972 229.99 89.5799V79.1079C229.99 78.8092 230.018 78.5386 230.074 78.2959C230.13 78.0532 230.279 77.8666 230.522 77.7359C230.765 77.5866 231.138 77.5119 231.642 77.5119C232.09 77.5119 232.426 77.5679 232.65 77.6799C232.874 77.7919 233.023 77.9319 233.098 78.0999C233.173 78.2679 233.21 78.4359 233.21 78.6039C233.229 78.7719 233.247 78.9026 233.266 78.9959L233.154 79.8919C233.266 79.5932 233.453 79.3039 233.714 79.0239C233.975 78.7439 234.293 78.4919 234.666 78.2679C235.039 78.0252 235.441 77.8386 235.87 77.7079C236.318 77.5586 236.775 77.4839 237.242 77.4839C238.119 77.4839 238.903 77.6426 239.594 77.9599C240.285 78.2772 240.873 78.7252 241.358 79.3039C241.862 79.8826 242.245 80.5732 242.506 81.3759C242.767 82.1599 242.898 83.0466 242.898 84.0359V89.6079C242.898 89.9252 242.861 90.2146 242.786 90.4759C242.73 90.7186 242.59 90.9146 242.366 91.0639C242.142 91.2132 241.759 91.2879 241.218 91.2879C240.695 91.2879 240.313 91.2039 240.07 91.0359C239.827 90.8866 239.678 90.6906 239.622 90.4479C239.566 90.1866 239.538 89.8972 239.538 89.5799V84.0079C239.538 83.3359 239.417 82.7572 239.174 82.2719C238.95 81.7866 238.614 81.4132 238.166 81.1519C237.737 80.8906 237.186 80.7599 236.514 80.7599C235.861 80.7599 235.291 80.8999 234.806 81.1799C234.321 81.4412 233.947 81.8146 233.686 82.2999C233.425 82.7852 233.294 83.3546 233.294 84.0079V89.6079C233.294 89.9252 233.266 90.2146 233.21 90.4759C233.154 90.7186 233.005 90.9146 232.762 91.0639C232.538 91.2132 232.155 91.2879 231.614 91.2879ZM89.9369 125.288C89.0783 125.288 88.2663 125.111 87.5009 124.756C86.7356 124.401 86.0636 123.916 85.4849 123.3C84.9063 122.665 84.4489 121.928 84.1129 121.088C83.7769 120.229 83.6089 119.315 83.6089 118.344C83.6089 117.411 83.7769 116.533 84.1129 115.712C84.4489 114.872 84.9063 114.144 85.4849 113.528C86.0823 112.893 86.7636 112.399 87.5289 112.044C88.2943 111.689 89.0969 111.512 89.9369 111.512C90.8329 111.512 91.6356 111.689 92.3449 112.044C93.0543 112.399 93.6516 112.893 94.1369 113.528C94.6409 114.144 95.0236 114.872 95.2849 115.712C95.5463 116.533 95.6863 117.42 95.7049 118.372C95.7049 119.324 95.5743 120.22 95.3129 121.06C95.0703 121.881 94.6969 122.609 94.1929 123.244C93.7076 123.879 93.1009 124.383 92.3729 124.756C91.6636 125.111 90.8516 125.288 89.9369 125.288ZM90.3849 122.012C91.0383 122.012 91.6169 121.863 92.1209 121.564C92.6436 121.247 93.0543 120.817 93.3529 120.276C93.6703 119.735 93.8289 119.119 93.8289 118.428C93.8289 117.719 93.6703 117.093 93.3529 116.552C93.0543 116.011 92.6436 115.581 92.1209 115.264C91.6169 114.947 91.0383 114.788 90.3849 114.788C89.7316 114.788 89.1436 114.947 88.6209 115.264C88.0983 115.563 87.6783 115.992 87.3609 116.552C87.0623 117.093 86.9129 117.719 86.9129 118.428C86.9129 119.119 87.0623 119.735 87.3609 120.276C87.6783 120.817 88.0983 121.247 88.6209 121.564C89.1623 121.863 89.7503 122.012 90.3849 122.012ZM95.5649 125.288C95.0423 125.288 94.6596 125.204 94.4169 125.036C94.1743 124.849 94.0156 124.56 93.9409 124.168V106.92C93.9409 106.603 93.9596 106.323 93.9969 106.08C94.0529 105.819 94.1929 105.613 94.4169 105.464C94.6596 105.296 95.0329 105.212 95.5369 105.212C96.0783 105.212 96.4609 105.287 96.6849 105.436C96.9089 105.585 97.0489 105.791 97.1049 106.052C97.1796 106.295 97.2169 106.575 97.2169 106.892V123.58C97.2169 123.897 97.1889 124.187 97.1329 124.448C97.0769 124.709 96.9276 124.915 96.6849 125.064C96.4609 125.213 96.0876 125.288 95.5649 125.288ZM106.41 125.484C105.514 125.484 104.636 125.316 103.778 124.98C102.938 124.625 102.172 124.131 101.482 123.496C100.81 122.861 100.268 122.115 99.8577 121.256C99.4657 120.397 99.2697 119.455 99.2697 118.428C99.2697 117.439 99.4563 116.515 99.8297 115.656C100.203 114.797 100.716 114.041 101.37 113.388C102.023 112.735 102.77 112.231 103.61 111.876C104.468 111.503 105.383 111.316 106.354 111.316C107.66 111.316 108.846 111.633 109.91 112.268C110.974 112.884 111.823 113.724 112.458 114.788C113.092 115.852 113.41 117.056 113.41 118.4C113.41 119.464 113.214 120.435 112.822 121.312C112.43 122.171 111.898 122.917 111.226 123.552C110.554 124.168 109.798 124.644 108.958 124.98C108.136 125.316 107.287 125.484 106.41 125.484ZM106.354 122.18C106.97 122.18 107.558 122.031 108.118 121.732C108.696 121.415 109.163 120.967 109.518 120.388C109.891 119.809 110.078 119.128 110.078 118.344C110.078 117.616 109.91 116.972 109.574 116.412C109.256 115.852 108.818 115.413 108.258 115.096C107.698 114.779 107.054 114.62 106.326 114.62C105.635 114.62 105.01 114.788 104.45 115.124C103.89 115.441 103.442 115.889 103.106 116.468C102.788 117.028 102.63 117.663 102.63 118.372C102.63 119.156 102.807 119.837 103.162 120.416C103.516 120.976 103.974 121.415 104.534 121.732C105.112 122.031 105.719 122.18 106.354 122.18ZM117.234 125.288C116.73 125.288 116.357 125.213 116.114 125.064C115.89 124.915 115.75 124.709 115.694 124.448C115.638 124.187 115.61 123.907 115.61 123.608V113.136C115.61 112.837 115.638 112.567 115.694 112.324C115.75 112.081 115.9 111.885 116.142 111.736C116.385 111.587 116.768 111.512 117.29 111.512C117.832 111.512 118.224 111.624 118.466 111.848C118.728 112.072 118.858 112.427 118.858 112.912L118.606 113.696C118.7 113.491 118.858 113.267 119.082 113.024C119.306 112.781 119.577 112.539 119.894 112.296C120.23 112.053 120.604 111.857 121.014 111.708C121.425 111.559 121.854 111.484 122.302 111.484C122.918 111.484 123.478 111.587 123.982 111.792C124.505 111.997 124.962 112.296 125.354 112.688C125.765 113.08 126.12 113.556 126.418 114.116C126.736 113.631 127.09 113.192 127.482 112.8C127.874 112.389 128.332 112.072 128.854 111.848C129.377 111.605 129.965 111.484 130.618 111.484C131.701 111.484 132.606 111.755 133.334 112.296C134.081 112.837 134.641 113.612 135.014 114.62C135.406 115.609 135.602 116.795 135.602 118.176V123.608C135.602 123.925 135.565 124.215 135.49 124.476C135.434 124.719 135.285 124.915 135.042 125.064C134.818 125.213 134.445 125.288 133.922 125.288C133.4 125.288 133.017 125.204 132.774 125.036C132.532 124.887 132.382 124.691 132.326 124.448C132.27 124.187 132.242 123.897 132.242 123.58V118.148C132.242 117.457 132.158 116.86 131.99 116.356C131.822 115.852 131.57 115.46 131.234 115.18C130.917 114.9 130.497 114.76 129.974 114.76C129.414 114.76 128.929 114.9 128.518 115.18C128.126 115.441 127.818 115.824 127.594 116.328C127.37 116.832 127.258 117.448 127.258 118.176V123.636C127.258 123.953 127.212 124.252 127.118 124.532C127.025 124.793 126.838 124.989 126.558 125.12C126.297 125.269 125.914 125.325 125.41 125.288C124.944 125.269 124.598 125.176 124.374 125.008C124.169 124.84 124.038 124.635 123.982 124.392C123.945 124.131 123.926 123.86 123.926 123.58V118.148C123.926 117.457 123.842 116.86 123.674 116.356C123.506 115.833 123.254 115.441 122.918 115.18C122.601 114.9 122.172 114.76 121.63 114.76C121.052 114.76 120.557 114.909 120.146 115.208C119.754 115.507 119.456 115.908 119.25 116.412C119.045 116.916 118.942 117.495 118.942 118.148V123.636C118.942 123.935 118.905 124.215 118.83 124.476C118.774 124.737 118.625 124.933 118.382 125.064C118.158 125.213 117.776 125.288 117.234 125.288ZM140.207 125.316C139.703 125.316 139.33 125.232 139.087 125.064C138.844 124.915 138.695 124.719 138.639 124.476C138.583 124.215 138.555 123.925 138.555 123.608V113.192C138.555 112.893 138.583 112.623 138.639 112.38C138.714 112.119 138.863 111.913 139.087 111.764C139.33 111.615 139.712 111.54 140.235 111.54C140.758 111.54 141.131 111.615 141.355 111.764C141.598 111.913 141.747 112.119 141.803 112.38C141.859 112.641 141.887 112.931 141.887 113.248V123.636C141.887 123.953 141.859 124.243 141.803 124.504C141.747 124.747 141.598 124.943 141.355 125.092C141.131 125.241 140.748 125.316 140.207 125.316ZM140.207 108.824C139.666 108.824 139.264 108.749 139.003 108.6C138.76 108.432 138.602 108.208 138.527 107.928C138.471 107.648 138.443 107.34 138.443 107.004C138.443 106.649 138.471 106.341 138.527 106.08C138.602 105.819 138.77 105.613 139.031 105.464C139.292 105.296 139.694 105.212 140.235 105.212C140.795 105.212 141.196 105.296 141.439 105.464C141.682 105.632 141.84 105.856 141.915 106.136C141.99 106.397 142.027 106.705 142.027 107.06C142.027 107.377 141.99 107.676 141.915 107.956C141.84 108.236 141.682 108.451 141.439 108.6C141.196 108.749 140.786 108.824 140.207 108.824ZM146.602 125.288C146.098 125.288 145.725 125.204 145.482 125.036C145.258 124.887 145.118 124.691 145.062 124.448C145.006 124.187 144.978 123.897 144.978 123.58V113.108C144.978 112.809 145.006 112.539 145.062 112.296C145.118 112.053 145.267 111.867 145.51 111.736C145.753 111.587 146.126 111.512 146.63 111.512C147.078 111.512 147.414 111.568 147.638 111.68C147.862 111.792 148.011 111.932 148.086 112.1C148.161 112.268 148.198 112.436 148.198 112.604C148.217 112.772 148.235 112.903 148.254 112.996L148.142 113.892C148.254 113.593 148.441 113.304 148.702 113.024C148.963 112.744 149.281 112.492 149.654 112.268C150.027 112.025 150.429 111.839 150.858 111.708C151.306 111.559 151.763 111.484 152.23 111.484C153.107 111.484 153.891 111.643 154.582 111.96C155.273 112.277 155.861 112.725 156.346 113.304C156.85 113.883 157.233 114.573 157.494 115.376C157.755 116.16 157.886 117.047 157.886 118.036V123.608C157.886 123.925 157.849 124.215 157.774 124.476C157.718 124.719 157.578 124.915 157.354 125.064C157.13 125.213 156.747 125.288 156.206 125.288C155.683 125.288 155.301 125.204 155.058 125.036C154.815 124.887 154.666 124.691 154.61 124.448C154.554 124.187 154.526 123.897 154.526 123.58V118.008C154.526 117.336 154.405 116.757 154.162 116.272C153.938 115.787 153.602 115.413 153.154 115.152C152.725 114.891 152.174 114.76 151.502 114.76C150.849 114.76 150.279 114.9 149.794 115.18C149.309 115.441 148.935 115.815 148.674 116.3C148.413 116.785 148.282 117.355 148.282 118.008V123.608C148.282 123.925 148.254 124.215 148.198 124.476C148.142 124.719 147.993 124.915 147.75 125.064C147.526 125.213 147.143 125.288 146.602 125.288ZM172.098 125.26C171.557 125.26 171.155 125.157 170.894 124.952C170.633 124.747 170.502 124.467 170.502 124.112L170.698 123.188C170.549 123.431 170.297 123.72 169.942 124.056C169.587 124.373 169.121 124.663 168.542 124.924C167.963 125.167 167.263 125.288 166.442 125.288C165.565 125.288 164.734 125.111 163.95 124.756C163.185 124.383 162.503 123.879 161.906 123.244C161.327 122.591 160.861 121.853 160.506 121.032C160.17 120.192 160.002 119.296 160.002 118.344C160.002 117.429 160.17 116.571 160.506 115.768C160.861 114.947 161.337 114.219 161.934 113.584C162.531 112.949 163.213 112.455 163.978 112.1C164.762 111.727 165.583 111.54 166.442 111.54C167.207 111.54 167.851 111.643 168.374 111.848C168.915 112.053 169.373 112.315 169.746 112.632C170.119 112.931 170.427 113.248 170.67 113.584L170.502 112.772C170.502 112.361 170.633 112.053 170.894 111.848C171.155 111.624 171.566 111.512 172.126 111.512C172.649 111.512 173.022 111.596 173.246 111.764C173.47 111.913 173.61 112.128 173.666 112.408C173.722 112.669 173.75 112.968 173.75 113.304V123.552C173.75 123.869 173.722 124.159 173.666 124.42C173.61 124.681 173.461 124.887 173.218 125.036C172.994 125.185 172.621 125.26 172.098 125.26ZM166.946 122.012C167.581 122.012 168.15 121.853 168.654 121.536C169.158 121.219 169.559 120.789 169.858 120.248C170.175 119.688 170.334 119.072 170.334 118.4C170.334 117.672 170.175 117.037 169.858 116.496C169.541 115.955 169.121 115.535 168.598 115.236C168.094 114.919 167.525 114.76 166.89 114.76C166.199 114.76 165.583 114.928 165.042 115.264C164.501 115.581 164.071 116.02 163.754 116.58C163.455 117.121 163.306 117.737 163.306 118.428C163.306 119.1 163.465 119.707 163.782 120.248C164.099 120.789 164.529 121.219 165.07 121.536C165.63 121.853 166.255 122.012 166.946 122.012ZM181.348 125.484C180.862 125.484 180.349 125.428 179.808 125.316C179.266 125.223 178.744 125.083 178.24 124.896C177.736 124.691 177.297 124.457 176.924 124.196C176.569 123.916 176.345 123.608 176.252 123.272C176.177 123.085 176.149 122.908 176.168 122.74C176.186 122.553 176.242 122.367 176.336 122.18C176.429 121.975 176.569 121.769 176.756 121.564C176.924 121.359 177.092 121.247 177.26 121.228C177.446 121.191 177.68 121.247 177.96 121.396C178.202 121.489 178.464 121.611 178.744 121.76C179.042 121.909 179.341 122.059 179.64 122.208C179.957 122.357 180.274 122.479 180.592 122.572C180.928 122.665 181.254 122.712 181.572 122.712C182.262 122.712 182.813 122.6 183.224 122.376C183.634 122.133 183.84 121.797 183.84 121.368C183.84 121.125 183.774 120.911 183.644 120.724C183.513 120.537 183.336 120.388 183.112 120.276C182.906 120.145 182.654 120.033 182.356 119.94C182.076 119.828 181.768 119.735 181.432 119.66C181.114 119.567 180.778 119.464 180.424 119.352C179.957 119.221 179.49 119.063 179.024 118.876C178.557 118.689 178.137 118.447 177.764 118.148C177.409 117.849 177.12 117.476 176.896 117.028C176.672 116.58 176.56 116.02 176.56 115.348C176.56 114.508 176.756 113.799 177.148 113.22C177.558 112.623 178.146 112.165 178.912 111.848C179.677 111.531 180.601 111.372 181.684 111.372C182.057 111.372 182.412 111.4 182.748 111.456C183.102 111.512 183.438 111.596 183.756 111.708C184.092 111.801 184.409 111.923 184.708 112.072C185.025 112.221 185.324 112.389 185.604 112.576C186.07 112.837 186.313 113.145 186.332 113.5C186.35 113.836 186.22 114.2 185.94 114.592C185.734 114.853 185.529 115.04 185.324 115.152C185.118 115.245 184.904 115.245 184.68 115.152C184.381 115.003 184.054 114.844 183.7 114.676C183.364 114.489 183.009 114.331 182.636 114.2C182.281 114.069 181.908 114.004 181.516 114.004C181.142 114.004 180.806 114.06 180.508 114.172C180.209 114.284 179.985 114.443 179.836 114.648C179.686 114.853 179.612 115.096 179.612 115.376C179.612 115.637 179.686 115.852 179.836 116.02C179.985 116.188 180.181 116.328 180.424 116.44C180.666 116.552 180.956 116.655 181.292 116.748C181.628 116.823 181.982 116.897 182.356 116.972C182.878 117.084 183.41 117.224 183.952 117.392C184.493 117.56 184.988 117.793 185.436 118.092C185.902 118.391 186.276 118.792 186.556 119.296C186.836 119.781 186.976 120.416 186.976 121.2C186.976 122.563 186.472 123.617 185.464 124.364C184.474 125.111 183.102 125.484 181.348 125.484ZM191.203 125.316C190.699 125.316 190.326 125.232 190.083 125.064C189.84 124.915 189.691 124.719 189.635 124.476C189.579 124.215 189.551 123.925 189.551 123.608V113.192C189.551 112.893 189.579 112.623 189.635 112.38C189.71 112.119 189.859 111.913 190.083 111.764C190.326 111.615 190.708 111.54 191.231 111.54C191.754 111.54 192.127 111.615 192.351 111.764C192.594 111.913 192.743 112.119 192.799 112.38C192.855 112.641 192.883 112.931 192.883 113.248V123.636C192.883 123.953 192.855 124.243 192.799 124.504C192.743 124.747 192.594 124.943 192.351 125.092C192.127 125.241 191.744 125.316 191.203 125.316ZM191.203 108.824C190.662 108.824 190.26 108.749 189.999 108.6C189.756 108.432 189.598 108.208 189.523 107.928C189.467 107.648 189.439 107.34 189.439 107.004C189.439 106.649 189.467 106.341 189.523 106.08C189.598 105.819 189.766 105.613 190.027 105.464C190.288 105.296 190.69 105.212 191.231 105.212C191.791 105.212 192.192 105.296 192.435 105.464C192.678 105.632 192.836 105.856 192.911 106.136C192.986 106.397 193.023 106.705 193.023 107.06C193.023 107.377 192.986 107.676 192.911 107.956C192.836 108.236 192.678 108.451 192.435 108.6C192.192 108.749 191.782 108.824 191.203 108.824ZM197.598 125.288C197.094 125.288 196.721 125.204 196.478 125.036C196.254 124.887 196.114 124.691 196.058 124.448C196.002 124.187 195.974 123.897 195.974 123.58V113.108C195.974 112.809 196.002 112.539 196.058 112.296C196.114 112.053 196.264 111.867 196.506 111.736C196.749 111.587 197.122 111.512 197.626 111.512C198.074 111.512 198.41 111.568 198.634 111.68C198.858 111.792 199.008 111.932 199.082 112.1C199.157 112.268 199.194 112.436 199.194 112.604C199.213 112.772 199.232 112.903 199.25 112.996L199.138 113.892C199.25 113.593 199.437 113.304 199.698 113.024C199.96 112.744 200.277 112.492 200.65 112.268C201.024 112.025 201.425 111.839 201.854 111.708C202.302 111.559 202.76 111.484 203.226 111.484C204.104 111.484 204.888 111.643 205.578 111.96C206.269 112.277 206.857 112.725 207.342 113.304C207.846 113.883 208.229 114.573 208.49 115.376C208.752 116.16 208.882 117.047 208.882 118.036V123.608C208.882 123.925 208.845 124.215 208.77 124.476C208.714 124.719 208.574 124.915 208.35 125.064C208.126 125.213 207.744 125.288 207.202 125.288C206.68 125.288 206.297 125.204 206.054 125.036C205.812 124.887 205.662 124.691 205.606 124.448C205.55 124.187 205.522 123.897 205.522 123.58V118.008C205.522 117.336 205.401 116.757 205.158 116.272C204.934 115.787 204.598 115.413 204.15 115.152C203.721 114.891 203.17 114.76 202.498 114.76C201.845 114.76 201.276 114.9 200.79 115.18C200.305 115.441 199.932 115.815 199.67 116.3C199.409 116.785 199.278 117.355 199.278 118.008V123.608C199.278 123.925 199.25 124.215 199.194 124.476C199.138 124.719 198.989 124.915 198.746 125.064C198.522 125.213 198.14 125.288 197.598 125.288ZM214.239 130.832C213.641 130.571 213.296 130.272 213.203 129.936C213.109 129.619 213.193 129.189 213.455 128.648L220.679 112.464C220.94 111.867 221.22 111.512 221.519 111.4C221.817 111.269 222.275 111.335 222.891 111.596C223.469 111.857 223.805 112.147 223.899 112.464C224.011 112.781 223.945 113.211 223.703 113.752L216.423 130.02C216.18 130.617 215.909 130.963 215.611 131.056C215.312 131.168 214.855 131.093 214.239 130.832ZM216.843 123.972L210.375 114.032C210.039 113.528 209.899 113.108 209.955 112.772C210.029 112.436 210.328 112.109 210.851 111.792C211.429 111.437 211.877 111.297 212.195 111.372C212.531 111.447 212.867 111.745 213.203 112.268L218.327 120.248L216.843 123.972ZM237.45 125.26C236.908 125.26 236.507 125.157 236.246 124.952C235.984 124.747 235.854 124.467 235.854 124.112L236.05 123.188C235.9 123.431 235.648 123.72 235.294 124.056C234.939 124.373 234.472 124.663 233.894 124.924C233.315 125.167 232.615 125.288 231.794 125.288C230.916 125.288 230.086 125.111 229.302 124.756C228.536 124.383 227.855 123.879 227.258 123.244C226.679 122.591 226.212 121.853 225.858 121.032C225.522 120.192 225.354 119.296 225.354 118.344C225.354 117.429 225.522 116.571 225.858 115.768C226.212 114.947 226.688 114.219 227.286 113.584C227.883 112.949 228.564 112.455 229.33 112.1C230.114 111.727 230.935 111.54 231.794 111.54C232.559 111.54 233.203 111.643 233.726 111.848C234.267 112.053 234.724 112.315 235.098 112.632C235.471 112.931 235.779 113.248 236.022 113.584L235.854 112.772C235.854 112.361 235.984 112.053 236.246 111.848C236.507 111.624 236.918 111.512 237.478 111.512C238 111.512 238.374 111.596 238.598 111.764C238.822 111.913 238.962 112.128 239.018 112.408C239.074 112.669 239.102 112.968 239.102 113.304V123.552C239.102 123.869 239.074 124.159 239.018 124.42C238.962 124.681 238.812 124.887 238.57 125.036C238.346 125.185 237.972 125.26 237.45 125.26ZM232.298 122.012C232.932 122.012 233.502 121.853 234.006 121.536C234.51 121.219 234.911 120.789 235.21 120.248C235.527 119.688 235.686 119.072 235.686 118.4C235.686 117.672 235.527 117.037 235.21 116.496C234.892 115.955 234.472 115.535 233.95 115.236C233.446 114.919 232.876 114.76 232.242 114.76C231.551 114.76 230.935 114.928 230.394 115.264C229.852 115.581 229.423 116.02 229.106 116.58C228.807 117.121 228.658 117.737 228.658 118.428C228.658 119.1 228.816 119.707 229.134 120.248C229.451 120.789 229.88 121.219 230.422 121.536C230.982 121.853 231.607 122.012 232.298 122.012Z" fill="black"/>
</svg>
