<svg width="400" height="120" viewBox="0 0 400 120" fill="none" xmlns="http://www.w3.org/2000/svg">
<mask id="mask0_62_2486" style="mask-type:luminance" maskUnits="userSpaceOnUse" x="0" y="0" width="400" height="120">
<path d="M400 0H0V120H400V0Z" fill="white"/>
</mask>
<g mask="url(#mask0_62_2486)">
<mask id="mask1_62_2486" style="mask-type:luminance" maskUnits="userSpaceOnUse" x="9" y="9" width="388" height="111">
<path d="M9.33838 9.33325H396.887V119.354H9.33838V9.33325Z" fill="white"/>
</mask>
<g mask="url(#mask1_62_2486)">
<path d="M15.789 72.3853L12.3965 62.3593L17.7893 51.8749L13.0349 41.3958L9.77612 30.9114L12.1047 19.3541L26.2584 18.2343L39.1779 15.5937L52.3406 21.4739L65.1142 13.7499L78.3376 21.7083L91.2267 17.9635L104.365 22.901L117.358 22.677L130.405 24.3437L143.318 21.4218L155.618 17.1093L167.972 14.5624L180.326 12.0989L192.783 13.2135L205.32 17.1249L217.838 20.3437L230.253 20.0728L242.4 10.3072L255.064 18.6874L267.503 19.1718L279.742 12.4791L292.084 9.53638L304.906 12.9062L318.19 14.7655L328.447 23.3958L341.367 25.4062L352.316 32.3385L368.294 26.7083L380.204 31.2239L396.346 37.177L387.475 50.3385L387.159 62.0937L374.361 69.8593L369.875 80.2812L373.796 93.3957L367.57 103.266L364.391 115.974L345.853 109.745L333.335 117.432L320.227 109.989L307.782 119.823L294.631 110.969L281.864 112.432L269.005 111.359L256.444 118.932L243.555 117.01L230.824 121.224L218.355 114.521L205.222 119.724L193.081 116.047L180.727 115.328L168.306 115.838L155.903 115.969L143.829 110.542L131.396 111.203L119.346 105.146L106.274 116.76L94.5645 104.833L81.5599 115.427L69.6375 107.245L57.5023 102.453L44.6436 110.724L27.2615 111.552L29.4685 98.1405L22.7929 90.2291L11.0103 83.578L15.789 72.3853Z" fill="black"/>
<path d="M15.789 72.3853L12.3965 62.3593L17.7893 51.8749L13.0349 41.3958L9.77612 30.9114L12.1047 19.3541L26.2584 18.2343L39.1779 15.5937L52.3406 21.4739L65.1142 13.7499L78.3376 21.7083L91.2267 17.9635L104.365 22.901L117.358 22.677L130.405 24.3437L143.318 21.4218L155.618 17.1093L167.972 14.5624L180.326 12.0989L192.783 13.2135L205.32 17.1249L217.838 20.3437L230.253 20.0728L242.4 10.3072L255.064 18.6874L267.503 19.1718L279.742 12.4791L292.084 9.53638L304.906 12.9062L318.19 14.7655L328.447 23.3958L341.367 25.4062L352.316 32.3385L368.294 26.7083L380.204 31.2239L396.346 37.177L387.475 50.3385L387.159 62.0937L374.361 69.8593L369.875 80.2812L373.796 93.3957L367.57 103.266L364.391 115.974L345.853 109.745L333.335 117.432L320.227 109.989L307.782 119.823L294.631 110.969L281.864 112.432L269.005 111.359L256.444 118.932L243.555 117.01L230.824 121.224L218.355 114.521L205.222 119.724L193.081 116.047L180.727 115.328L168.306 115.838L155.903 115.969L143.829 110.542L131.396 111.203L119.346 105.146L106.274 116.76L94.5645 104.833L81.5599 115.427L69.6375 107.245L57.5023 102.453L44.6436 110.724L27.2615 111.552L29.4685 98.1405L22.7929 90.2291L11.0103 83.578L15.789 72.3853Z" fill="black"/>
</g>
<mask id="mask2_62_2486" style="mask-type:luminance" maskUnits="userSpaceOnUse" x="7" y="8" width="391" height="112">
<path d="M7.78198 8H397.586V119.354H7.78198V8Z" fill="white"/>
</mask>
<g mask="url(#mask2_62_2486)">
<path d="M230.739 121.984L218.3 115.307L205.265 120.474L192.917 116.734L180.721 115.99L168.342 116.495L155.715 116.63L143.653 111.203L131.207 111.885L119.485 105.995L106.238 117.766L94.5037 105.812L81.6085 116.328L69.2058 107.849L57.6056 103.26L44.9111 111.401L26.3131 112.286L28.6355 98.3489L22.1971 90.7239L10.0497 83.8489L14.9561 72.3645L11.5575 62.3124L16.932 51.8541L12.2627 41.5728L8.95532 30.9426L11.4237 18.7291L26.1671 17.5572L39.2812 14.901L52.2737 20.703L65.1141 12.9166L78.4653 20.953L91.2632 17.2291L104.523 22.2135L117.406 21.9895L130.356 23.6562L143.051 20.776L155.423 16.4426L167.765 13.8958L180.259 11.4166L193.038 12.5728L205.569 16.4843L217.941 19.651L229.931 19.3958L242.345 9.40617L255.356 18.0103L267.26 18.4687L279.383 11.8489L292.078 8.81763L305.076 12.2083L318.561 14.0937L328.83 22.7291L341.683 24.7239L352.414 31.5103L368.282 25.9218L380.514 30.552L397.483 36.8489L388.272 50.526L387.962 62.4531L375.03 70.2968L370.714 80.3229L374.678 93.4843L368.33 103.505L364.95 116.906L345.951 110.516L333.335 118.26L320.294 110.854L307.824 120.74L294.413 111.703L281.882 113.146L269.188 112.078L256.627 119.651L243.634 117.719L230.739 121.984ZM218.415 113.75L230.915 120.463L243.47 116.307L256.256 118.213L268.792 110.656L281.852 111.755L294.856 110.255L307.739 118.932L320.148 109.13L333.317 116.594L345.744 108.969L363.801 115.031L366.816 103.016L372.951 93.2968L369.048 80.2343L373.681 69.427L386.375 61.7135L386.685 50.1822L395.215 37.4947L379.894 31.8645L368.276 27.4583L352.201 33.1249L341.038 26.0468L328.064 24.0155L317.807 15.3958L304.651 13.5468L292.054 10.2291L280.058 13.1093L267.704 19.8958L254.76 19.3958L242.437 11.2499L230.532 20.7916L217.68 21.078L205.04 17.828L192.601 13.8853L180.374 12.7916L168.184 15.2291L155.867 17.7499L143.525 22.078L130.453 25.0364L117.303 23.3541L104.207 23.5885L91.2267 18.6926L78.216 22.4687L65.1141 14.578L52.4196 22.2708L39.0927 16.3124L26.3313 18.9062L12.7856 19.9843L10.5847 30.8801L13.7948 41.1822L18.6526 51.8906L13.2476 62.3906L16.6462 72.4114L11.9952 83.3072L23.3705 89.7239L30.3135 97.9687L28.1978 110.823L44.376 110.057L57.4232 101.667L70.1178 106.708L81.5113 114.521L94.6192 103.844L106.298 115.745L119.194 104.286L131.572 110.516L143.987 109.833L156.08 115.26L168.282 115.135L180.721 114.62L193.227 115.349L205.125 118.958L218.415 113.75Z" fill="black"/>
</g>
<mask id="mask3_62_2486" style="mask-type:luminance" maskUnits="userSpaceOnUse" x="3" y="1" width="388" height="113">
<path d="M3.11279 1.08301H390.661V113.333H3.11279V1.08301Z" fill="white"/>
</mask>
<g mask="url(#mask3_62_2486)">
<path d="M9.78237 63.3954L6.39594 53.3642L11.7826 42.8798L7.02824 32.4006L3.75732 21.9163L6.09804 10.3642L20.2457 9.23918L33.1712 6.60376L46.3339 12.4788L59.1075 4.7548L72.3249 12.7183L85.2201 8.96313L98.3585 13.9111L111.345 13.6819L124.398 15.359L137.312 12.4319L149.611 8.10897L161.965 5.5673L174.319 3.10897L186.777 4.22355L199.313 8.1298L211.825 11.3486L224.246 11.0777L236.387 1.31209L249.058 9.69751L261.497 10.1819L273.735 3.48918L286.077 0.54126L298.9 3.91626L312.184 5.77043L322.44 14.4058L335.36 16.4163L346.31 23.3433L362.281 17.7131L374.197 22.2288L390.339 28.1767L381.469 41.3486L381.153 53.1038L368.355 60.8642L363.868 71.2913L367.796 84.4006L361.564 94.2704L358.378 106.979L339.847 100.755L327.329 108.442L314.221 101L301.775 110.833L288.619 101.974L275.851 103.442L262.999 102.364L250.432 109.937L237.549 108.026L224.818 112.234L212.348 105.526L199.216 110.729L187.068 107.062L174.726 106.333L162.299 106.849L149.897 106.979L137.822 101.546L125.389 102.208L113.339 96.1558L100.268 107.765L88.5579 95.8433L75.5533 106.427L63.6248 98.2444L51.5017 93.4579L38.6369 101.734L21.2488 102.557L23.4618 89.1506L16.7863 81.234L5.00368 74.5829L9.78237 63.3954Z" fill="white"/>
</g>
<mask id="mask4_62_2486" style="mask-type:luminance" maskUnits="userSpaceOnUse" x="0" y="1" width="396" height="115">
<path d="M0.674805 1.08325H395.331V116H0.674805V1.08325Z" fill="white"/>
</mask>
<g mask="url(#mask4_62_2486)">
<path d="M224.52 115.01L212.147 108.365L199.386 113.422L186.491 109.521L174.708 108.844L162.348 109.349L149.21 109.49L137.202 104.062L124.69 104.74L113.862 99.3124L100.146 111.526L88.3389 99.5103L75.7234 109.745L62.0743 100.385L51.8542 96.3541L39.6521 104.182L17.8318 105.213L20.3732 89.7916L14.7007 83.0624L1.44077 75.5989L6.68153 63.328L3.30118 53.1874L8.62097 42.828L4.20099 33.0416L0.778076 22.0312L3.61125 8.05721L19.7713 6.76034L33.5541 3.95825L46.1027 9.56242L59.1013 1.69784L72.7929 9.94263L85.3537 6.29159L98.942 11.401L111.539 11.1822L124.234 12.8124L136.381 10.0572L148.705 5.72909L161.284 3.14575L174.13 0.578044L187.433 1.77596L200.231 5.76554L212.22 8.84367L223.06 8.60409L236.205 -1.96362L250.115 7.23429L260.706 7.65096L272.525 1.18221L286.12 -2.05737L299.568 1.48429L313.564 3.43742L323.875 12.0885L336.57 14.0624L346.705 20.4999L362.311 14.9947L375.365 19.9478L394.492 26.9999L384.369 42.0416L384.04 54.4114L370.787 62.453L366.92 71.4218L370.89 84.7239L364.318 95.1458L360.494 110.38L340.248 103.594L327.377 111.495L314.5 104.182L301.909 114.13L287.767 104.63L275.869 105.99L263.752 104.979L251.058 112.609L237.767 110.635L224.52 115.01ZM212.561 102.693L225.128 109.474L237.214 105.448L249.708 107.302L262.172 99.7916L275.772 100.932L289.427 99.3593L301.593 107.557L313.886 97.8333L327.231 105.411L339.403 97.9478L356.226 103.588L358.779 93.4114L364.683 84.1041L360.816 71.2135L365.929 59.3333L378.277 51.8697L378.569 40.6822L386.174 29.3958L373.036 24.5572L362.238 20.4843L345.908 26.1822L334.168 18.7603L321.036 16.7291L310.791 8.11971L298.237 6.35409L286.041 3.14575L274.933 5.79159L262.293 12.703L248.012 12.1562L236.576 4.58846L225.432 13.5468L211.436 13.8489L198.31 10.4583L186.108 6.65096L174.532 5.63534L162.634 8.00513L150.517 10.4947L138.242 14.802L124.55 17.901L111.156 16.1822L97.7625 16.4166L85.068 11.6666L71.8688 15.4843L59.1074 7.80721L46.5648 15.3958L32.782 9.24471L20.7197 11.7083L8.59058 12.6718L6.74233 21.8072L9.80653 31.6249L14.9379 42.9426L9.50254 53.5728L12.8647 63.5208L8.53586 73.5885L18.8471 79.4062L26.5198 88.5051L24.6412 99.8958L37.5971 99.2864L51.1489 90.5676L65.175 96.1093L75.3586 103.099L88.7949 92.2447L100.419 104.068L112.828 93.0364L126.137 99.7083L138.497 99.026L150.602 104.453L162.214 104.333L174.757 103.818L187.67 104.568L199.064 108.016L212.561 102.693Z" fill="black"/>
<path d="M224.52 115.01L212.147 108.365L199.386 113.422L186.491 109.521L174.708 108.844L162.348 109.349L149.21 109.49L137.202 104.062L124.69 104.74L113.862 99.3124L100.146 111.526L88.3389 99.5103L75.7234 109.745L62.0743 100.385L51.8542 96.3541L39.6521 104.182L17.8318 105.213L20.3732 89.7916L14.7007 83.0624L1.44077 75.5989L6.68153 63.328L3.30118 53.1874L8.62097 42.828L4.20099 33.0416L0.778076 22.0312L3.61125 8.05721L19.7713 6.76034L33.5541 3.95825L46.1027 9.56242L59.1013 1.69784L72.7929 9.94263L85.3537 6.29159L98.942 11.401L111.539 11.1822L124.234 12.8124L136.381 10.0572L148.705 5.72909L161.284 3.14575L174.13 0.578044L187.433 1.77596L200.231 5.76554L212.22 8.84367L223.06 8.60409L236.205 -1.96362L250.115 7.23429L260.706 7.65096L272.525 1.18221L286.12 -2.05737L299.568 1.48429L313.564 3.43742L323.875 12.0885L336.57 14.0624L346.705 20.4999L362.311 14.9947L375.365 19.9478L394.492 26.9999L384.369 42.0416L384.04 54.4114L370.787 62.453L366.92 71.4218L370.89 84.7239L364.318 95.1458L360.494 110.38L340.248 103.594L327.377 111.495L314.5 104.182L301.909 114.13L287.767 104.63L275.869 105.99L263.752 104.979L251.058 112.609L237.767 110.635L224.52 115.01ZM212.561 102.693L225.128 109.474L237.214 105.448L249.708 107.302L262.172 99.7916L275.772 100.932L289.427 99.3593L301.593 107.557L313.886 97.8333L327.231 105.411L339.403 97.9478L356.226 103.588L358.779 93.4114L364.683 84.1041L360.816 71.2135L365.929 59.3333L378.277 51.8697L378.569 40.6822L386.174 29.3958L373.036 24.5572L362.238 20.4843L345.908 26.1822L334.168 18.7603L321.036 16.7291L310.791 8.11971L298.237 6.35409L286.041 3.14575L274.933 5.79159L262.293 12.703L248.012 12.1562L236.576 4.58846L225.432 13.5468L211.436 13.8489L198.31 10.4583L186.108 6.65096L174.532 5.63534L162.634 8.00513L150.517 10.4947L138.242 14.802L124.55 17.901L111.156 16.1822L97.7625 16.4166L85.068 11.6666L71.8688 15.4843L59.1074 7.80721L46.5648 15.3958L32.782 9.24471L20.7197 11.7083L8.59058 12.6718L6.74233 21.8072L9.80653 31.6249L14.9379 42.9426L9.50254 53.5728L12.8647 63.5208L8.53586 73.5885L18.8471 79.4062L26.5198 88.5051L24.6412 99.8958L37.5971 99.2864L51.1489 90.5676L65.175 96.1093L75.3586 103.099L88.7949 92.2447L100.419 104.068L112.828 93.0364L126.137 99.7083L138.497 99.026L150.602 104.453L162.214 104.333L174.757 103.818L187.67 104.568L199.064 108.016L212.561 102.693Z" fill="black"/>
</g>
</g>
<path d="M43.7366 49.7231C43.2886 49.7231 42.9606 49.6591 42.7526 49.5311C42.5446 49.4031 42.4166 49.2271 42.3686 49.0031C42.3206 48.7631 42.2966 48.5151 42.2966 48.2591V34.4111C42.2966 34.1551 42.3206 33.9231 42.3686 33.7151C42.4326 33.4911 42.5686 33.3151 42.7766 33.1871C42.9846 33.0431 43.3126 32.9711 43.7606 32.9711H48.8486C49.5526 32.9711 50.2406 33.0911 50.9126 33.3311C51.5846 33.5711 52.1846 33.9311 52.7126 34.4111C53.2566 34.8911 53.6806 35.4831 53.9846 36.1871C54.3046 36.8911 54.4646 37.7151 54.4646 38.6591C54.4646 39.5871 54.3046 40.4031 53.9846 41.1071C53.6806 41.7951 53.2566 42.3791 52.7126 42.8591C52.1686 43.3391 51.5606 43.6991 50.8886 43.9391C50.2326 44.1791 49.5446 44.2991 48.8246 44.2991H45.2006V48.2831C45.2006 48.5391 45.1686 48.7791 45.1046 49.0031C45.0566 49.2271 44.9286 49.4031 44.7206 49.5311C44.5286 49.6591 44.2006 49.7231 43.7366 49.7231ZM45.2006 41.3711H48.8486C49.3446 41.3711 49.7926 41.2751 50.1926 41.0831C50.6086 40.8751 50.9446 40.5711 51.2006 40.1711C51.4566 39.7551 51.5846 39.2351 51.5846 38.6111C51.5846 38.0511 51.4646 37.5711 51.2246 37.1711C51.0006 36.7551 50.6806 36.4351 50.2646 36.2111C49.8646 35.9871 49.3846 35.8751 48.8246 35.8751H45.2006V41.3711ZM62.2318 49.8911C61.1918 49.8911 60.2798 49.7231 59.4958 49.3871C58.7278 49.0511 58.0798 48.5951 57.5518 48.0191C57.0398 47.4271 56.6478 46.7711 56.3758 46.0511C56.1198 45.3151 55.9918 44.5551 55.9918 43.7711C55.9918 42.6191 56.2558 41.5951 56.7838 40.6991C57.3118 39.8031 58.0398 39.0991 58.9678 38.5871C59.9118 38.0751 60.9918 37.8191 62.2078 37.8191C63.0718 37.8191 63.8318 37.9551 64.4878 38.2271C65.1438 38.4991 65.6878 38.8591 66.1198 39.3071C66.5678 39.7391 66.9038 40.2191 67.1278 40.7471C67.3678 41.2751 67.4878 41.7871 67.4878 42.2831C67.4878 43.1311 67.2798 43.7471 66.8638 44.1311C66.4638 44.5151 65.9598 44.7071 65.3518 44.7071H59.0158C59.0318 45.2511 59.1998 45.7231 59.5198 46.1231C59.8558 46.5231 60.2718 46.8351 60.7678 47.0591C61.2798 47.2671 61.7998 47.3711 62.3278 47.3711C62.7278 47.3711 63.0798 47.3471 63.3838 47.2991C63.7038 47.2511 63.9758 47.1951 64.1998 47.1311C64.4238 47.0511 64.6158 46.9711 64.7758 46.8911C64.9518 46.8111 65.1118 46.7391 65.2558 46.6751C65.3998 46.6111 65.5358 46.5711 65.6638 46.5551C65.8398 46.5391 66.0158 46.5791 66.1918 46.6751C66.3678 46.7711 66.5118 46.9391 66.6238 47.1791C66.7198 47.3391 66.7838 47.4911 66.8158 47.6351C66.8638 47.7631 66.8878 47.8911 66.8878 48.0191C66.8878 48.3391 66.6958 48.6431 66.3118 48.9311C65.9278 49.2031 65.3838 49.4271 64.6798 49.6031C63.9918 49.7951 63.1758 49.8911 62.2318 49.8911ZM59.0158 43.0031H63.9358C64.2078 43.0031 64.4158 42.9631 64.5598 42.8831C64.7038 42.7871 64.7758 42.5951 64.7758 42.3071C64.7758 41.9391 64.6638 41.6111 64.4398 41.3231C64.2158 41.0191 63.9118 40.7871 63.5278 40.6271C63.1438 40.4511 62.6958 40.3631 62.1838 40.3631C61.5918 40.3631 61.0558 40.4831 60.5758 40.7231C60.0958 40.9471 59.7118 41.2591 59.4238 41.6591C59.1518 42.0591 59.0158 42.5071 59.0158 43.0031ZM70.8733 49.7231C70.4413 49.7231 70.1213 49.6511 69.9133 49.5071C69.7213 49.3791 69.6013 49.2111 69.5533 49.0031C69.5053 48.7791 69.4813 48.5311 69.4813 48.2591V39.2831C69.4813 39.0271 69.5053 38.7951 69.5533 38.5871C69.6013 38.3791 69.7293 38.2191 69.9373 38.1071C70.1453 37.9791 70.4653 37.9151 70.8973 37.9151C71.2813 37.9151 71.5693 37.9631 71.7613 38.0591C71.9533 38.1551 72.0813 38.2751 72.1453 38.4191C72.2093 38.5631 72.2413 38.7071 72.2413 38.8511C72.2573 38.9951 72.2733 39.1071 72.2893 39.1871L72.1933 39.9551C72.2893 39.6991 72.4493 39.4511 72.6733 39.2111C72.8973 38.9711 73.1693 38.7551 73.4893 38.5631C73.8093 38.3551 74.1533 38.1951 74.5213 38.0831C74.9053 37.9551 75.2973 37.8911 75.6973 37.8911C76.4493 37.8911 77.1213 38.0271 77.7133 38.2991C78.3053 38.5711 78.8093 38.9551 79.2253 39.4511C79.6573 39.9471 79.9853 40.5391 80.2093 41.2271C80.4333 41.8991 80.5453 42.6591 80.5453 43.5071V48.2831C80.5453 48.5551 80.5133 48.8031 80.4493 49.0271C80.4013 49.2351 80.2813 49.4031 80.0893 49.5311C79.8973 49.6591 79.5693 49.7231 79.1053 49.7231C78.6573 49.7231 78.3293 49.6511 78.1213 49.5071C77.9133 49.3791 77.7853 49.2111 77.7373 49.0031C77.6893 48.7791 77.6653 48.5311 77.6653 48.2591V43.4831C77.6653 42.9071 77.5613 42.4111 77.3533 41.9951C77.1613 41.5791 76.8733 41.2591 76.4893 41.0351C76.1213 40.8111 75.6493 40.6991 75.0733 40.6991C74.5133 40.6991 74.0253 40.8191 73.6093 41.0591C73.1933 41.2831 72.8733 41.6031 72.6493 42.0191C72.4253 42.4351 72.3133 42.9231 72.3133 43.4831V48.2831C72.3133 48.5551 72.2893 48.8031 72.2413 49.0271C72.1933 49.2351 72.0653 49.4031 71.8573 49.5311C71.6653 49.6591 71.3373 49.7231 70.8733 49.7231ZM85.1365 54.4751C84.6245 54.2511 84.3285 53.9951 84.2485 53.7071C84.1685 53.4351 84.2405 53.0671 84.4645 52.6031L90.6565 38.7311C90.8805 38.2191 91.1205 37.9151 91.3765 37.8191C91.6325 37.7071 92.0245 37.7631 92.5525 37.9871C93.0485 38.2111 93.3365 38.4591 93.4165 38.7311C93.5125 39.0031 93.4565 39.3711 93.2485 39.8351L87.0085 53.7791C86.8005 54.2911 86.5685 54.5871 86.3125 54.6671C86.0565 54.7631 85.6645 54.6991 85.1365 54.4751ZM87.3685 48.5951L81.8245 40.0751C81.5365 39.6431 81.4165 39.2831 81.4645 38.9951C81.5285 38.7071 81.7845 38.4271 82.2325 38.1551C82.7285 37.8511 83.1125 37.7311 83.3845 37.7951C83.6725 37.8591 83.9605 38.1151 84.2485 38.5631L88.6405 45.4031L87.3685 48.5951ZM100.904 49.8911C99.8637 49.8911 98.9517 49.7231 98.1677 49.3871C97.3997 49.0511 96.7517 48.5951 96.2237 48.0191C95.7117 47.4271 95.3197 46.7711 95.0477 46.0511C94.7917 45.3151 94.6637 44.5551 94.6637 43.7711C94.6637 42.6191 94.9277 41.5951 95.4557 40.6991C95.9837 39.8031 96.7117 39.0991 97.6397 38.5871C98.5837 38.0751 99.6637 37.8191 100.88 37.8191C101.744 37.8191 102.504 37.9551 103.16 38.2271C103.816 38.4991 104.36 38.8591 104.792 39.3071C105.24 39.7391 105.576 40.2191 105.8 40.7471C106.04 41.2751 106.16 41.7871 106.16 42.2831C106.16 43.1311 105.952 43.7471 105.536 44.1311C105.136 44.5151 104.632 44.7071 104.024 44.7071H97.6877C97.7037 45.2511 97.8717 45.7231 98.1917 46.1231C98.5277 46.5231 98.9437 46.8351 99.4397 47.0591C99.9517 47.2671 100.472 47.3711 101 47.3711C101.4 47.3711 101.752 47.3471 102.056 47.2991C102.376 47.2511 102.648 47.1951 102.872 47.1311C103.096 47.0511 103.288 46.9711 103.448 46.8911C103.624 46.8111 103.784 46.7391 103.928 46.6751C104.072 46.6111 104.208 46.5711 104.336 46.5551C104.512 46.5391 104.688 46.5791 104.864 46.6751C105.04 46.7711 105.184 46.9391 105.296 47.1791C105.392 47.3391 105.456 47.4911 105.488 47.6351C105.536 47.7631 105.56 47.8911 105.56 48.0191C105.56 48.3391 105.368 48.6431 104.984 48.9311C104.6 49.2031 104.056 49.4271 103.352 49.6031C102.664 49.7951 101.848 49.8911 100.904 49.8911ZM97.6877 43.0031H102.608C102.88 43.0031 103.088 42.9631 103.232 42.8831C103.376 42.7871 103.448 42.5951 103.448 42.3071C103.448 41.9391 103.336 41.6111 103.112 41.3231C102.888 41.0191 102.584 40.7871 102.2 40.6271C101.816 40.4511 101.368 40.3631 100.856 40.3631C100.264 40.3631 99.7277 40.4831 99.2477 40.7231C98.7677 40.9471 98.3837 41.2591 98.0957 41.6591C97.8237 42.0591 97.6877 42.5071 97.6877 43.0031ZM114.297 49.7231C113.513 49.7231 112.809 49.5711 112.185 49.2671C111.577 48.9471 111.057 48.5151 110.625 47.9711C110.209 47.4271 109.889 46.8031 109.665 46.0991C109.457 45.3791 109.353 44.6111 109.353 43.7951C109.369 42.9791 109.489 42.2191 109.713 41.5151C109.937 40.7951 110.257 40.1711 110.673 39.6431C111.105 39.0991 111.625 38.6751 112.233 38.3711C112.841 38.0671 113.529 37.9151 114.297 37.9151C115.033 37.9151 115.721 38.0671 116.361 38.3711C117.017 38.6751 117.593 39.0991 118.089 39.6431C118.601 40.1711 119.001 40.7951 119.289 41.5151C119.577 42.2191 119.721 42.9711 119.721 43.7711C119.721 44.6031 119.577 45.3871 119.289 46.1231C119.001 46.8431 118.609 47.4751 118.113 48.0191C117.617 48.5471 117.041 48.9631 116.385 49.2671C115.729 49.5711 115.033 49.7231 114.297 49.7231ZM113.913 46.9151C114.473 46.9151 114.977 46.7871 115.425 46.5311C115.873 46.2591 116.225 45.8911 116.481 45.4271C116.753 44.9631 116.889 44.4351 116.889 43.8431C116.889 43.2351 116.753 42.6991 116.481 42.2351C116.225 41.7551 115.873 41.3871 115.425 41.1311C114.977 40.8591 114.473 40.7231 113.913 40.7231C113.369 40.7231 112.873 40.8591 112.425 41.1311C111.977 41.4031 111.617 41.7711 111.345 42.2351C111.089 42.6991 110.961 43.2351 110.961 43.8431C110.961 44.4351 111.089 44.9631 111.345 45.4271C111.617 45.8911 111.977 46.2591 112.425 46.5311C112.873 46.7871 113.369 46.9151 113.913 46.9151ZM109.473 49.7471C109.041 49.7471 108.721 49.6751 108.513 49.5311C108.305 49.4031 108.177 49.2351 108.129 49.0271C108.081 48.8031 108.057 48.5551 108.057 48.2831V33.9791C108.057 33.7071 108.081 33.4671 108.129 33.2591C108.177 33.0351 108.305 32.8591 108.513 32.7311C108.721 32.6031 109.041 32.5391 109.473 32.5391C109.921 32.5391 110.241 32.6031 110.433 32.7311C110.625 32.8591 110.745 33.0351 110.793 33.2591C110.841 33.4831 110.865 33.7231 110.865 33.9791V48.7631C110.801 49.1151 110.665 49.3631 110.457 49.5071C110.265 49.6671 109.937 49.7471 109.473 49.7471ZM131.493 49.6991C131.029 49.6991 130.685 49.6111 130.461 49.4351C130.237 49.2591 130.125 49.0191 130.125 48.7151L130.293 47.9231C130.165 48.1311 129.949 48.3791 129.645 48.6671C129.341 48.9391 128.941 49.1871 128.445 49.4111C127.949 49.6191 127.349 49.7231 126.645 49.7231C125.893 49.7231 125.181 49.5711 124.509 49.2671C123.853 48.9471 123.269 48.5151 122.757 47.9711C122.261 47.4111 121.861 46.7791 121.557 46.0751C121.269 45.3551 121.125 44.5871 121.125 43.7711C121.125 42.9871 121.269 42.2511 121.557 41.5631C121.861 40.8591 122.269 40.2351 122.781 39.6911C123.293 39.1471 123.877 38.7231 124.533 38.4191C125.205 38.0991 125.909 37.9391 126.645 37.9391C127.301 37.9391 127.853 38.0271 128.301 38.2031C128.765 38.3791 129.157 38.6031 129.477 38.8751C129.797 39.1311 130.061 39.4031 130.269 39.6911L130.125 38.9951C130.125 38.6431 130.237 38.3791 130.461 38.2031C130.685 38.0111 131.037 37.9151 131.517 37.9151C131.965 37.9151 132.285 37.9871 132.477 38.1311C132.669 38.2591 132.789 38.4431 132.837 38.6831C132.885 38.9071 132.909 39.1631 132.909 39.4511V48.2351C132.909 48.5071 132.885 48.7551 132.837 48.9791C132.789 49.2031 132.661 49.3791 132.453 49.5071C132.261 49.6351 131.941 49.6991 131.493 49.6991ZM127.077 46.9151C127.621 46.9151 128.109 46.7791 128.541 46.5071C128.973 46.2351 129.317 45.8671 129.573 45.4031C129.845 44.9231 129.981 44.3951 129.981 43.8191C129.981 43.1951 129.845 42.6511 129.573 42.1871C129.301 41.7231 128.941 41.3631 128.493 41.1071C128.061 40.8351 127.573 40.6991 127.029 40.6991C126.437 40.6991 125.909 40.8431 125.445 41.1311C124.981 41.4031 124.613 41.7791 124.341 42.2591C124.085 42.7231 123.957 43.2511 123.957 43.8431C123.957 44.4191 124.093 44.9391 124.365 45.4031C124.637 45.8671 125.005 46.2351 125.469 46.5071C125.949 46.7791 126.485 46.9151 127.077 46.9151ZM141.485 49.7231C140.701 49.7231 139.997 49.5711 139.373 49.2671C138.765 48.9471 138.245 48.5151 137.813 47.9711C137.397 47.4271 137.077 46.8031 136.853 46.0991C136.645 45.3791 136.541 44.6111 136.541 43.7951C136.557 42.9791 136.677 42.2191 136.901 41.5151C137.125 40.7951 137.445 40.1711 137.861 39.6431C138.293 39.0991 138.813 38.6751 139.421 38.3711C140.029 38.0671 140.717 37.9151 141.485 37.9151C142.221 37.9151 142.909 38.0671 143.549 38.3711C144.205 38.6751 144.781 39.0991 145.277 39.6431C145.789 40.1711 146.189 40.7951 146.477 41.5151C146.765 42.2191 146.909 42.9711 146.909 43.7711C146.909 44.6031 146.765 45.3871 146.477 46.1231C146.189 46.8431 145.797 47.4751 145.301 48.0191C144.805 48.5471 144.229 48.9631 143.573 49.2671C142.917 49.5711 142.221 49.7231 141.485 49.7231ZM141.101 46.9151C141.661 46.9151 142.165 46.7871 142.613 46.5311C143.061 46.2591 143.413 45.8911 143.669 45.4271C143.941 44.9631 144.077 44.4351 144.077 43.8431C144.077 43.2351 143.941 42.6991 143.669 42.2351C143.413 41.7551 143.061 41.3871 142.613 41.1311C142.165 40.8591 141.661 40.7231 141.101 40.7231C140.557 40.7231 140.061 40.8591 139.613 41.1311C139.165 41.4031 138.805 41.7711 138.533 42.2351C138.277 42.6991 138.149 43.2351 138.149 43.8431C138.149 44.4351 138.277 44.9631 138.533 45.4271C138.805 45.8911 139.165 46.2591 139.613 46.5311C140.061 46.7871 140.557 46.9151 141.101 46.9151ZM136.661 49.7471C136.229 49.7471 135.909 49.6751 135.701 49.5311C135.493 49.4031 135.365 49.2351 135.317 49.0271C135.269 48.8031 135.245 48.5551 135.245 48.2831V33.9791C135.245 33.7071 135.269 33.4671 135.317 33.2591C135.365 33.0351 135.493 32.8591 135.701 32.7311C135.909 32.6031 136.229 32.5391 136.661 32.5391C137.109 32.5391 137.429 32.6031 137.621 32.7311C137.813 32.8591 137.933 33.0351 137.981 33.2591C138.029 33.4831 138.053 33.7231 138.053 33.9791V48.7631C137.989 49.1151 137.853 49.3631 137.645 49.5071C137.453 49.6671 137.125 49.7471 136.661 49.7471ZM150.491 41.7791C149.883 41.7791 149.459 41.6591 149.219 41.4191C148.979 41.1791 148.859 40.7711 148.859 40.1951C148.859 39.7791 148.907 39.4511 149.003 39.2111C149.115 38.9711 149.291 38.8031 149.531 38.7071C149.771 38.5951 150.091 38.5391 150.491 38.5391C151.099 38.5391 151.515 38.6591 151.739 38.8991C151.979 39.1391 152.099 39.5631 152.099 40.1711C152.099 40.5551 152.051 40.8671 151.955 41.1071C151.859 41.3471 151.691 41.5231 151.451 41.6351C151.211 41.7311 150.891 41.7791 150.491 41.7791ZM150.467 49.7471C149.875 49.7471 149.459 49.6351 149.219 49.4111C148.979 49.1711 148.859 48.7551 148.859 48.1631C148.859 47.7471 148.907 47.4271 149.003 47.2031C149.115 46.9631 149.291 46.7871 149.531 46.6751C149.771 46.5631 150.091 46.5071 150.491 46.5071C151.083 46.5071 151.499 46.6271 151.739 46.8671C151.979 47.1071 152.099 47.5311 152.099 48.1391C152.099 48.5391 152.043 48.8591 151.931 49.0991C151.835 49.3391 151.667 49.5071 151.427 49.6031C151.203 49.6991 150.883 49.7471 150.467 49.7471ZM166.086 49.7471C165.302 49.7471 164.63 49.6671 164.07 49.5071C163.51 49.3471 163.054 49.0991 162.702 48.7631C162.35 48.4271 162.086 47.9951 161.91 47.4671C161.75 46.9231 161.67 46.2831 161.67 45.5471V35.3711C161.67 35.0831 161.694 34.8351 161.742 34.6271C161.806 34.4191 161.934 34.2591 162.126 34.1471C162.334 34.0191 162.654 33.9551 163.086 33.9551C163.534 33.9551 163.854 34.0191 164.046 34.1471C164.254 34.2751 164.382 34.4511 164.43 34.6751C164.494 34.8831 164.526 35.1151 164.526 35.3711V45.4511C164.526 45.7871 164.55 46.0591 164.598 46.2671C164.662 46.4751 164.75 46.6351 164.862 46.7471C164.99 46.8431 165.15 46.9151 165.342 46.9631C165.55 46.9951 165.798 47.0111 166.086 47.0111C166.39 47.0111 166.646 47.0351 166.854 47.0831C167.078 47.1311 167.246 47.2511 167.358 47.4431C167.47 47.6191 167.526 47.9151 167.526 48.3311C167.526 48.7791 167.454 49.1071 167.31 49.3151C167.182 49.5071 167.006 49.6271 166.782 49.6751C166.574 49.7231 166.342 49.7471 166.086 49.7471ZM160.686 38.1551L163.158 38.1791L166.47 38.0831C166.742 38.0831 166.982 38.1151 167.19 38.1791C167.414 38.2271 167.59 38.3551 167.718 38.5631C167.846 38.7551 167.91 39.0751 167.91 39.5231C167.91 39.9391 167.846 40.2511 167.718 40.4591C167.59 40.6671 167.422 40.8031 167.214 40.8671C167.006 40.9151 166.766 40.9391 166.494 40.9391L163.278 40.8911L160.614 40.9151C160.214 40.8991 159.934 40.7871 159.774 40.5791C159.63 40.3551 159.558 39.9951 159.558 39.4991C159.558 39.0351 159.646 38.6991 159.822 38.4911C160.014 38.2671 160.302 38.1551 160.686 38.1551ZM175.412 49.8911C174.372 49.8911 173.46 49.7231 172.676 49.3871C171.908 49.0511 171.26 48.5951 170.732 48.0191C170.22 47.4271 169.828 46.7711 169.556 46.0511C169.3 45.3151 169.172 44.5551 169.172 43.7711C169.172 42.6191 169.436 41.5951 169.964 40.6991C170.492 39.8031 171.22 39.0991 172.148 38.5871C173.092 38.0751 174.172 37.8191 175.388 37.8191C176.252 37.8191 177.012 37.9551 177.668 38.2271C178.324 38.4991 178.868 38.8591 179.3 39.3071C179.748 39.7391 180.084 40.2191 180.308 40.7471C180.548 41.2751 180.668 41.7871 180.668 42.2831C180.668 43.1311 180.46 43.7471 180.044 44.1311C179.644 44.5151 179.14 44.7071 178.532 44.7071H172.196C172.212 45.2511 172.38 45.7231 172.7 46.1231C173.036 46.5231 173.452 46.8351 173.948 47.0591C174.46 47.2671 174.98 47.3711 175.508 47.3711C175.908 47.3711 176.26 47.3471 176.564 47.2991C176.884 47.2511 177.156 47.1951 177.38 47.1311C177.604 47.0511 177.796 46.9711 177.956 46.8911C178.132 46.8111 178.292 46.7391 178.436 46.6751C178.58 46.6111 178.716 46.5711 178.844 46.5551C179.02 46.5391 179.196 46.5791 179.372 46.6751C179.548 46.7711 179.692 46.9391 179.804 47.1791C179.9 47.3391 179.964 47.4911 179.996 47.6351C180.044 47.7631 180.068 47.8911 180.068 48.0191C180.068 48.3391 179.876 48.6431 179.492 48.9311C179.108 49.2031 178.564 49.4271 177.86 49.6031C177.172 49.7951 176.356 49.8911 175.412 49.8911ZM172.196 43.0031H177.116C177.388 43.0031 177.596 42.9631 177.74 42.8831C177.884 42.7871 177.956 42.5951 177.956 42.3071C177.956 41.9391 177.844 41.6111 177.62 41.3231C177.396 41.0191 177.092 40.7871 176.708 40.6271C176.324 40.4511 175.876 40.3631 175.364 40.3631C174.772 40.3631 174.236 40.4831 173.756 40.7231C173.276 40.9471 172.892 41.2591 172.604 41.6591C172.332 42.0591 172.196 42.5071 172.196 43.0031ZM192.045 47.1551C192.461 47.5071 192.677 47.8351 192.693 48.1391C192.725 48.4431 192.565 48.7951 192.213 49.1951C191.941 49.4991 191.701 49.6991 191.493 49.7951C191.285 49.8911 191.077 49.8911 190.869 49.7951C190.661 49.7151 190.413 49.5551 190.125 49.3151L185.541 45.4511V48.3071C185.541 48.5631 185.509 48.8031 185.445 49.0271C185.397 49.2511 185.269 49.4271 185.061 49.5551C184.869 49.6831 184.549 49.7471 184.101 49.7471C183.653 49.7471 183.325 49.6751 183.117 49.5311C182.925 49.4031 182.805 49.2271 182.757 49.0031C182.709 48.7791 182.685 48.5391 182.685 48.2831V33.9551C182.685 33.6831 182.709 33.4431 182.757 33.2351C182.821 33.0111 182.949 32.8351 183.141 32.7071C183.349 32.5631 183.677 32.4911 184.125 32.4911C184.573 32.4911 184.893 32.5631 185.085 32.7071C185.277 32.8351 185.397 33.0111 185.445 33.2351C185.509 33.4431 185.541 33.6911 185.541 33.9791V41.8511L188.853 38.6351C189.109 38.3951 189.349 38.2351 189.573 38.1551C189.797 38.0591 190.013 38.0511 190.221 38.1311C190.445 38.1951 190.677 38.3631 190.917 38.6351C191.317 39.0671 191.509 39.4271 191.493 39.7151C191.477 39.9871 191.277 40.3151 190.893 40.6991L187.653 43.6991L192.045 47.1551ZM199.36 49.8911C198.592 49.8911 197.84 49.7471 197.104 49.4591C196.384 49.1551 195.728 48.7311 195.136 48.1871C194.56 47.6431 194.096 47.0031 193.744 46.2671C193.408 45.5311 193.24 44.7231 193.24 43.8431C193.24 42.9951 193.4 42.2031 193.72 41.4671C194.04 40.7311 194.48 40.0831 195.04 39.5231C195.6 38.9631 196.24 38.5311 196.96 38.2271C197.696 37.9071 198.48 37.7471 199.312 37.7471C200.432 37.7471 201.448 38.0191 202.36 38.5631C203.272 39.0911 204 39.8111 204.544 40.7231C205.088 41.6351 205.36 42.6671 205.36 43.8191C205.36 44.7311 205.192 45.5631 204.856 46.3151C204.52 47.0511 204.064 47.6911 203.488 48.2351C202.912 48.7631 202.264 49.1711 201.544 49.4591C200.84 49.7471 200.112 49.8911 199.36 49.8911ZM199.312 47.0591C199.84 47.0591 200.344 46.9311 200.824 46.6751C201.32 46.4031 201.72 46.0191 202.024 45.5231C202.344 45.0271 202.504 44.4431 202.504 43.7711C202.504 43.1471 202.36 42.5951 202.072 42.1151C201.8 41.6351 201.424 41.2591 200.944 40.9871C200.464 40.7151 199.912 40.5791 199.288 40.5791C198.696 40.5791 198.16 40.7231 197.68 41.0111C197.2 41.2831 196.816 41.6671 196.528 42.1631C196.256 42.6431 196.12 43.1871 196.12 43.7951C196.12 44.4671 196.272 45.0511 196.576 45.5471C196.88 46.0271 197.272 46.4031 197.752 46.6751C198.248 46.9311 198.768 47.0591 199.312 47.0591ZM211.374 49.7471C210.782 49.7471 210.254 49.7071 209.79 49.6271C209.342 49.5471 208.95 49.4111 208.614 49.2191C208.294 49.0271 208.03 48.7711 207.822 48.4511C207.614 48.1151 207.454 47.7071 207.342 47.2271C207.246 46.7471 207.198 46.1711 207.198 45.4991V33.9311C207.198 33.6591 207.222 33.4191 207.27 33.2111C207.334 32.9871 207.462 32.8111 207.654 32.6831C207.862 32.5391 208.19 32.4671 208.638 32.4671C209.086 32.4671 209.406 32.5311 209.598 32.6591C209.806 32.7871 209.934 32.9631 209.982 33.1871C210.046 33.3951 210.078 33.6351 210.078 33.9071V45.3791C210.078 45.6831 210.094 45.9391 210.126 46.1471C210.174 46.3391 210.246 46.4991 210.342 46.6271C210.454 46.7391 210.59 46.8191 210.75 46.8671C210.926 46.9151 211.134 46.9391 211.374 46.9391C211.582 46.9391 211.766 46.9631 211.926 47.0111C212.102 47.0591 212.238 47.1791 212.334 47.3711C212.446 47.5631 212.502 47.8751 212.502 48.3071C212.502 48.7551 212.446 49.0831 212.334 49.2911C212.238 49.4991 212.102 49.6271 211.926 49.6751C211.75 49.7231 211.566 49.7471 211.374 49.7471ZM219.751 49.8911C218.983 49.8911 218.231 49.7471 217.495 49.4591C216.775 49.1551 216.119 48.7311 215.527 48.1871C214.951 47.6431 214.487 47.0031 214.135 46.2671C213.799 45.5311 213.631 44.7231 213.631 43.8431C213.631 42.9951 213.791 42.2031 214.111 41.4671C214.431 40.7311 214.871 40.0831 215.431 39.5231C215.991 38.9631 216.631 38.5311 217.351 38.2271C218.087 37.9071 218.871 37.7471 219.703 37.7471C220.823 37.7471 221.839 38.0191 222.751 38.5631C223.663 39.0911 224.391 39.8111 224.935 40.7231C225.479 41.6351 225.751 42.6671 225.751 43.8191C225.751 44.7311 225.583 45.5631 225.247 46.3151C224.911 47.0511 224.455 47.6911 223.879 48.2351C223.303 48.7631 222.655 49.1711 221.935 49.4591C221.231 49.7471 220.503 49.8911 219.751 49.8911ZM219.703 47.0591C220.231 47.0591 220.735 46.9311 221.215 46.6751C221.711 46.4031 222.111 46.0191 222.415 45.5231C222.735 45.0271 222.895 44.4431 222.895 43.7711C222.895 43.1471 222.751 42.5951 222.463 42.1151C222.191 41.6351 221.815 41.2591 221.335 40.9871C220.855 40.7151 220.303 40.5791 219.679 40.5791C219.087 40.5791 218.551 40.7231 218.071 41.0111C217.591 41.2831 217.207 41.6671 216.919 42.1631C216.647 42.6431 216.511 43.1871 216.511 43.7951C216.511 44.4671 216.663 45.0511 216.967 45.5471C217.271 46.0271 217.663 46.4031 218.143 46.6751C218.639 46.9311 219.159 47.0591 219.703 47.0591ZM232.797 54.5471C232.221 54.5471 231.669 54.4751 231.141 54.3311C230.613 54.2031 230.133 54.0271 229.701 53.8031C229.285 53.5791 228.949 53.3391 228.693 53.0831C228.453 52.8271 228.333 52.5871 228.333 52.3631C228.333 52.1391 228.365 51.9471 228.429 51.7871C228.509 51.6271 228.621 51.4671 228.765 51.3071C228.957 51.1151 229.109 50.9711 229.221 50.8751C229.349 50.7791 229.517 50.7311 229.725 50.7311C229.901 50.7311 230.069 50.7951 230.229 50.9231C230.405 51.0511 230.605 51.1951 230.829 51.3551C231.053 51.5151 231.325 51.6591 231.645 51.7871C231.965 51.9151 232.373 51.9791 232.869 51.9791C233.285 51.9791 233.669 51.9071 234.021 51.7631C234.373 51.6191 234.669 51.4031 234.909 51.1151C235.165 50.8431 235.365 50.5151 235.509 50.1311C235.653 49.7471 235.725 49.3151 235.725 48.8351L235.701 38.8991C235.733 38.5311 235.861 38.2751 236.085 38.1311C236.309 37.9711 236.653 37.8911 237.117 37.8911C237.549 37.8911 237.861 37.9551 238.053 38.0831C238.245 38.1951 238.365 38.3631 238.413 38.5871C238.461 38.7951 238.485 39.0271 238.485 39.2831V49.0031C238.485 49.8831 238.333 50.6671 238.029 51.3551C237.725 52.0431 237.309 52.6191 236.781 53.0831C236.253 53.5631 235.645 53.9231 234.957 54.1631C234.285 54.4191 233.565 54.5471 232.797 54.5471ZM232.533 49.4351C231.781 49.4351 231.077 49.2911 230.421 49.0031C229.781 48.7151 229.213 48.3071 228.717 47.7791C228.237 47.2511 227.853 46.6431 227.565 45.9551C227.293 45.2511 227.157 44.4911 227.157 43.6751C227.157 42.8751 227.293 42.1311 227.565 41.4431C227.853 40.7551 228.237 40.1471 228.717 39.6191C229.213 39.0911 229.781 38.6831 230.421 38.3951C231.077 38.0911 231.773 37.9391 232.509 37.9391C233.229 37.9391 233.853 38.0831 234.381 38.3711C234.925 38.6431 235.373 39.0351 235.725 39.5471C236.077 40.0591 236.341 40.6671 236.517 41.3711C236.709 42.0751 236.805 42.8511 236.805 43.6991C236.805 44.8671 236.645 45.8831 236.325 46.7471C236.005 47.6111 235.533 48.2751 234.909 48.7391C234.285 49.2031 233.493 49.4351 232.533 49.4351ZM232.797 46.7231C233.341 46.7231 233.821 46.5951 234.237 46.3391C234.669 46.0671 235.005 45.6991 235.245 45.2351C235.501 44.7711 235.629 44.2511 235.629 43.6751C235.629 43.0831 235.501 42.5631 235.245 42.1151C235.005 41.6511 234.669 41.2911 234.237 41.0351C233.805 40.7791 233.317 40.6511 232.773 40.6511C232.229 40.6511 231.741 40.7871 231.309 41.0591C230.893 41.3151 230.565 41.6671 230.325 42.1151C230.085 42.5631 229.965 43.0831 229.965 43.6751C229.965 44.2671 230.085 44.7951 230.325 45.2591C230.581 45.7071 230.917 46.0671 231.333 46.3391C231.765 46.5951 232.253 46.7231 232.797 46.7231ZM242.579 49.7471C242.147 49.7471 241.827 49.6751 241.619 49.5311C241.411 49.4031 241.283 49.2351 241.235 49.0271C241.187 48.8031 241.163 48.5551 241.163 48.2831V39.3551C241.163 39.0991 241.187 38.8671 241.235 38.6591C241.299 38.4351 241.427 38.2591 241.619 38.1311C241.827 38.0031 242.155 37.9391 242.603 37.9391C243.051 37.9391 243.371 38.0031 243.563 38.1311C243.771 38.2591 243.899 38.4351 243.947 38.6591C243.995 38.8831 244.019 39.1311 244.019 39.4031V48.3071C244.019 48.5791 243.995 48.8271 243.947 49.0511C243.899 49.2591 243.771 49.4271 243.563 49.5551C243.371 49.6831 243.043 49.7471 242.579 49.7471ZM242.579 35.6111C242.115 35.6111 241.771 35.5471 241.547 35.4191C241.339 35.2751 241.203 35.0831 241.139 34.8431C241.091 34.6031 241.067 34.3391 241.067 34.0511C241.067 33.7471 241.091 33.4831 241.139 33.2591C241.203 33.0351 241.347 32.8591 241.571 32.7311C241.795 32.5871 242.139 32.5151 242.603 32.5151C243.083 32.5151 243.427 32.5871 243.635 32.7311C243.843 32.8751 243.979 33.0671 244.043 33.3071C244.107 33.5311 244.139 33.7951 244.139 34.0991C244.139 34.3711 244.107 34.6271 244.043 34.8671C243.979 35.1071 243.843 35.2911 243.635 35.4191C243.427 35.5471 243.075 35.6111 242.579 35.6111ZM246.789 52.2191C246.789 52.2191 246.757 52.2031 246.693 52.1711C246.629 52.1551 246.565 52.0911 246.501 51.9791C246.437 51.8831 246.405 51.7231 246.405 51.4991C246.405 51.1951 246.453 50.9951 246.549 50.8991C246.645 50.8191 246.709 50.7711 246.741 50.7551C246.757 50.7391 246.869 50.6431 247.077 50.4671C247.285 50.3071 247.405 50.0271 247.437 49.6271C247.277 49.5951 247.133 49.5551 247.005 49.5071C246.893 49.4431 246.797 49.3711 246.717 49.2911C246.557 49.1311 246.461 48.9471 246.429 48.7391C246.397 48.5151 246.381 48.2911 246.381 48.0671C246.381 47.6991 246.421 47.3951 246.501 47.1551C246.581 46.9151 246.733 46.7391 246.957 46.6271C247.197 46.4991 247.549 46.4351 248.013 46.4351C248.621 46.4351 249.053 46.5631 249.309 46.8191C249.453 46.9631 249.533 47.1471 249.549 47.3711C249.581 47.5951 249.597 47.8191 249.597 48.0431C249.597 48.2031 249.597 48.3391 249.597 48.4511C249.597 48.5471 249.589 48.6351 249.573 48.7151C249.509 49.3551 249.341 49.9391 249.069 50.4671C248.813 50.9951 248.485 51.4191 248.085 51.7391C247.701 52.0591 247.269 52.2191 246.789 52.2191ZM247.965 41.8031C247.357 41.8031 246.933 41.6831 246.693 41.4431C246.469 41.1871 246.357 40.7791 246.357 40.2191C246.357 39.8031 246.397 39.4751 246.477 39.2351C246.573 38.9951 246.741 38.8271 246.981 38.7311C247.237 38.6191 247.573 38.5631 247.989 38.5631C248.613 38.5631 249.037 38.6831 249.261 38.9231C249.485 39.1631 249.597 39.5871 249.597 40.1951C249.597 40.4831 249.565 40.7551 249.501 41.0111C249.437 41.2511 249.293 41.4431 249.069 41.5871C248.845 41.7311 248.477 41.8031 247.965 41.8031ZM259.242 49.7231C258.826 49.7231 258.514 49.6511 258.306 49.5071C258.098 49.3791 257.962 49.2031 257.898 48.9791C257.834 48.7551 257.802 48.5151 257.802 48.2591V34.3871C257.802 34.1311 257.826 33.8991 257.874 33.6911C257.938 33.4671 258.074 33.2911 258.282 33.1631C258.49 33.0191 258.818 32.9471 259.266 32.9471L263.778 32.9711C264.946 32.9711 266.018 33.1711 266.994 33.5711C267.986 33.9711 268.842 34.5391 269.562 35.2751C270.282 36.0111 270.834 36.8911 271.218 37.9151C271.618 38.9231 271.818 40.0351 271.818 41.2511C271.818 42.4991 271.618 43.6431 271.218 44.6831C270.818 45.7231 270.258 46.6191 269.538 47.3711C268.818 48.1231 267.962 48.7071 266.97 49.1231C265.994 49.5231 264.906 49.7231 263.706 49.7231H259.242ZM260.706 46.8191H263.778C264.802 46.8191 265.698 46.5951 266.466 46.1471C267.234 45.6831 267.826 45.0431 268.242 44.2271C268.674 43.4111 268.89 42.4591 268.89 41.3711C268.89 40.2671 268.674 39.3071 268.242 38.4911C267.826 37.6591 267.226 37.0191 266.442 36.5711C265.674 36.1071 264.778 35.8751 263.754 35.8751H260.706V46.8191ZM283.93 49.6991C283.466 49.6991 283.122 49.6111 282.898 49.4351C282.674 49.2591 282.562 49.0191 282.562 48.7151L282.73 47.9231C282.602 48.1311 282.386 48.3791 282.082 48.6671C281.778 48.9391 281.378 49.1871 280.882 49.4111C280.386 49.6191 279.786 49.7231 279.082 49.7231C278.33 49.7231 277.618 49.5711 276.946 49.2671C276.29 48.9471 275.706 48.5151 275.194 47.9711C274.698 47.4111 274.298 46.7791 273.994 46.0751C273.706 45.3551 273.562 44.5871 273.562 43.7711C273.562 42.9871 273.706 42.2511 273.994 41.5631C274.298 40.8591 274.706 40.2351 275.218 39.6911C275.73 39.1471 276.314 38.7231 276.97 38.4191C277.642 38.0991 278.346 37.9391 279.082 37.9391C279.738 37.9391 280.29 38.0271 280.738 38.2031C281.202 38.3791 281.594 38.6031 281.914 38.8751C282.234 39.1311 282.498 39.4031 282.706 39.6911L282.562 38.9951C282.562 38.6431 282.674 38.3791 282.898 38.2031C283.122 38.0111 283.474 37.9151 283.954 37.9151C284.402 37.9151 284.722 37.9871 284.914 38.1311C285.106 38.2591 285.226 38.4431 285.274 38.6831C285.322 38.9071 285.346 39.1631 285.346 39.4511V48.2351C285.346 48.5071 285.322 48.7551 285.274 48.9791C285.226 49.2031 285.098 49.3791 284.89 49.5071C284.698 49.6351 284.378 49.6991 283.93 49.6991ZM279.514 46.9151C280.058 46.9151 280.546 46.7791 280.978 46.5071C281.41 46.2351 281.754 45.8671 282.01 45.4031C282.282 44.9231 282.418 44.3951 282.418 43.8191C282.418 43.1951 282.282 42.6511 282.01 42.1871C281.738 41.7231 281.378 41.3631 280.93 41.1071C280.498 40.8351 280.01 40.6991 279.466 40.6991C278.874 40.6991 278.346 40.8431 277.882 41.1311C277.418 41.4031 277.05 41.7791 276.778 42.2591C276.522 42.7231 276.394 43.2511 276.394 43.8431C276.394 44.4191 276.53 44.9391 276.802 45.4031C277.074 45.8671 277.442 46.2351 277.906 46.5071C278.386 46.7791 278.922 46.9151 279.514 46.9151ZM289.146 49.7231C288.714 49.7231 288.394 49.6591 288.186 49.5311C287.994 49.4031 287.874 49.2271 287.826 49.0031C287.778 48.7791 287.754 48.5391 287.754 48.2831V39.3071C287.754 39.0511 287.778 38.8191 287.826 38.6111C287.874 38.4031 288.002 38.2351 288.21 38.1071C288.418 37.9791 288.746 37.9151 289.194 37.9151C289.658 37.9151 289.994 38.0111 290.202 38.2031C290.426 38.3951 290.538 38.6991 290.538 39.1151L290.322 39.7871C290.402 39.6111 290.538 39.4191 290.73 39.2111C290.922 39.0031 291.154 38.7951 291.426 38.5871C291.714 38.3791 292.034 38.2111 292.386 38.0831C292.738 37.9551 293.106 37.8911 293.49 37.8911C294.018 37.8911 294.498 37.9791 294.93 38.1551C295.378 38.3311 295.77 38.5871 296.106 38.9231C296.458 39.2591 296.762 39.6671 297.018 40.1471C297.29 39.7311 297.594 39.3551 297.93 39.0191C298.266 38.6671 298.658 38.3951 299.106 38.2031C299.554 37.9951 300.058 37.8911 300.618 37.8911C301.546 37.8911 302.322 38.1231 302.946 38.5871C303.586 39.0511 304.066 39.7151 304.386 40.5791C304.722 41.4271 304.89 42.4431 304.89 43.6271V48.2831C304.89 48.5551 304.858 48.8031 304.794 49.0271C304.746 49.2351 304.618 49.4031 304.41 49.5311C304.218 49.6591 303.898 49.7231 303.45 49.7231C303.002 49.7231 302.674 49.6511 302.466 49.5071C302.258 49.3791 302.13 49.2111 302.082 49.0031C302.034 48.7791 302.01 48.5311 302.01 48.2591V43.6031C302.01 43.0111 301.938 42.4991 301.794 42.0671C301.65 41.6351 301.434 41.2991 301.146 41.0591C300.874 40.8191 300.514 40.6991 300.066 40.6991C299.586 40.6991 299.17 40.8191 298.818 41.0591C298.482 41.2831 298.218 41.6111 298.026 42.0431C297.834 42.4751 297.738 43.0031 297.738 43.6271V48.3071C297.738 48.5791 297.698 48.8351 297.618 49.0751C297.538 49.2991 297.378 49.4671 297.138 49.5791C296.914 49.7071 296.586 49.7551 296.154 49.7231C295.754 49.7071 295.458 49.6271 295.266 49.4831C295.09 49.3391 294.978 49.1631 294.93 48.9551C294.898 48.7311 294.882 48.4991 294.882 48.2591V43.6031C294.882 43.0111 294.81 42.4991 294.666 42.0671C294.522 41.6191 294.306 41.2831 294.018 41.0591C293.746 40.8191 293.378 40.6991 292.914 40.6991C292.418 40.6991 291.994 40.8271 291.642 41.0831C291.306 41.3391 291.05 41.6831 290.874 42.1151C290.698 42.5471 290.61 43.0431 290.61 43.6031V48.3071C290.61 48.5631 290.578 48.8031 290.514 49.0271C290.466 49.2511 290.338 49.4191 290.13 49.5311C289.938 49.6591 289.61 49.7231 289.146 49.7231ZM313.373 49.5791C312.589 49.5791 311.885 49.4351 311.261 49.1471C310.653 48.8431 310.133 48.4271 309.701 47.8991C309.285 47.3551 308.965 46.7311 308.741 46.0271C308.533 45.3231 308.429 44.5631 308.429 43.7471C308.445 42.9311 308.565 42.1711 308.789 41.4671C309.013 40.7471 309.333 40.1231 309.749 39.5951C310.181 39.0671 310.701 38.6511 311.309 38.3471C311.917 38.0431 312.605 37.8911 313.373 37.8911C314.109 37.8911 314.797 38.0431 315.437 38.3471C316.093 38.6511 316.669 39.0751 317.165 39.6191C317.677 40.1631 318.077 40.7951 318.365 41.5151C318.653 42.2191 318.797 42.9791 318.797 43.7951C318.797 44.6271 318.653 45.3951 318.365 46.0991C318.077 46.8031 317.685 47.4191 317.189 47.9471C316.693 48.4591 316.117 48.8591 315.461 49.1471C314.805 49.4351 314.109 49.5791 313.373 49.5791ZM308.573 54.5711C308.141 54.5711 307.821 54.5071 307.613 54.3791C307.405 54.2511 307.277 54.0831 307.229 53.8751C307.181 53.6671 307.157 53.4271 307.157 53.1551V39.3551C307.157 39.0831 307.181 38.8431 307.229 38.6351C307.277 38.4271 307.397 38.2591 307.589 38.1311C307.797 37.9871 308.117 37.9151 308.549 37.9151C308.965 37.9151 309.293 37.9791 309.533 38.1071C309.773 38.2351 309.933 38.4511 310.013 38.7551V53.1311C310.029 53.4031 310.005 53.6431 309.941 53.8511C309.893 54.0751 309.765 54.2511 309.557 54.3791C309.349 54.5071 309.021 54.5711 308.573 54.5711ZM312.989 46.8911C313.549 46.8911 314.053 46.7631 314.501 46.5071C314.949 46.2351 315.301 45.8671 315.557 45.4031C315.829 44.9231 315.965 44.3871 315.965 43.7951C315.965 43.1871 315.829 42.6511 315.557 42.1871C315.301 41.7231 314.949 41.3631 314.501 41.1071C314.053 40.8351 313.549 40.6991 312.989 40.6991C312.445 40.6991 311.949 40.8351 311.501 41.1071C311.053 41.3791 310.693 41.7471 310.421 42.2111C310.165 42.6591 310.037 43.1871 310.037 43.7951C310.037 44.3871 310.165 44.9231 310.421 45.4031C310.693 45.8671 311.053 46.2351 311.501 46.5071C311.949 46.7631 312.445 46.8911 312.989 46.8911ZM330.665 49.6991C330.201 49.6991 329.857 49.6111 329.633 49.4351C329.409 49.2591 329.297 49.0191 329.297 48.7151L329.465 47.9231C329.337 48.1311 329.121 48.3791 328.817 48.6671C328.513 48.9391 328.113 49.1871 327.617 49.4111C327.121 49.6191 326.521 49.7231 325.817 49.7231C325.065 49.7231 324.353 49.5711 323.681 49.2671C323.025 48.9471 322.441 48.5151 321.929 47.9711C321.433 47.4111 321.033 46.7791 320.729 46.0751C320.441 45.3551 320.297 44.5871 320.297 43.7711C320.297 42.9871 320.441 42.2511 320.729 41.5631C321.033 40.8591 321.441 40.2351 321.953 39.6911C322.465 39.1471 323.049 38.7231 323.705 38.4191C324.377 38.0991 325.081 37.9391 325.817 37.9391C326.473 37.9391 327.025 38.0271 327.473 38.2031C327.937 38.3791 328.329 38.6031 328.649 38.8751C328.969 39.1311 329.233 39.4031 329.441 39.6911L329.297 38.9951C329.297 38.6431 329.409 38.3791 329.633 38.2031C329.857 38.0111 330.209 37.9151 330.689 37.9151C331.137 37.9151 331.457 37.9871 331.649 38.1311C331.841 38.2591 331.961 38.4431 332.009 38.6831C332.057 38.9071 332.081 39.1631 332.081 39.4511V48.2351C332.081 48.5071 332.057 48.7551 332.009 48.9791C331.961 49.2031 331.833 49.3791 331.625 49.5071C331.433 49.6351 331.113 49.6991 330.665 49.6991ZM326.249 46.9151C326.793 46.9151 327.281 46.7791 327.713 46.5071C328.145 46.2351 328.489 45.8671 328.745 45.4031C329.017 44.9231 329.153 44.3951 329.153 43.8191C329.153 43.1951 329.017 42.6511 328.745 42.1871C328.473 41.7231 328.113 41.3631 327.665 41.1071C327.233 40.8351 326.745 40.6991 326.201 40.6991C325.609 40.6991 325.081 40.8431 324.617 41.1311C324.153 41.4031 323.785 41.7791 323.513 42.2591C323.257 42.7231 323.129 43.2511 323.129 43.8431C323.129 44.4191 323.265 44.9391 323.537 45.4031C323.809 45.8671 324.177 46.2351 324.641 46.5071C325.121 46.7791 325.657 46.9151 326.249 46.9151ZM343.897 47.1551C344.313 47.5071 344.529 47.8351 344.545 48.1391C344.577 48.4431 344.417 48.7951 344.065 49.1951C343.793 49.4991 343.553 49.6991 343.345 49.7951C343.137 49.8911 342.929 49.8911 342.721 49.7951C342.513 49.7151 342.265 49.5551 341.977 49.3151L337.393 45.4511V48.3071C337.393 48.5631 337.361 48.8031 337.297 49.0271C337.249 49.2511 337.121 49.4271 336.913 49.5551C336.721 49.6831 336.401 49.7471 335.953 49.7471C335.505 49.7471 335.177 49.6751 334.969 49.5311C334.777 49.4031 334.657 49.2271 334.609 49.0031C334.561 48.7791 334.537 48.5391 334.537 48.2831V33.9551C334.537 33.6831 334.561 33.4431 334.609 33.2351C334.673 33.0111 334.801 32.8351 334.993 32.7071C335.201 32.5631 335.529 32.4911 335.977 32.4911C336.425 32.4911 336.745 32.5631 336.937 32.7071C337.129 32.8351 337.249 33.0111 337.297 33.2351C337.361 33.4431 337.393 33.6911 337.393 33.9791V41.8511L340.705 38.6351C340.961 38.3951 341.201 38.2351 341.425 38.1551C341.649 38.0591 341.865 38.0511 342.073 38.1311C342.297 38.1951 342.529 38.3631 342.769 38.6351C343.169 39.0671 343.361 39.4271 343.345 39.7151C343.329 39.9871 343.129 40.3151 342.745 40.6991L339.505 43.6991L343.897 47.1551ZM167.663 78.8911C167.247 78.8911 166.807 78.8431 166.343 78.7471C165.879 78.6671 165.431 78.5471 164.999 78.3871C164.567 78.2111 164.191 78.0111 163.871 77.7871C163.567 77.5471 163.375 77.2831 163.295 76.9951C163.231 76.8351 163.207 76.6831 163.223 76.5391C163.239 76.3791 163.287 76.2191 163.367 76.0591C163.447 75.8831 163.567 75.7071 163.727 75.5311C163.871 75.3551 164.015 75.2591 164.159 75.2431C164.319 75.2111 164.519 75.2591 164.759 75.3871C164.967 75.4671 165.191 75.5711 165.431 75.6991C165.687 75.8271 165.943 75.9551 166.199 76.0831C166.471 76.2111 166.743 76.3151 167.015 76.3951C167.303 76.4751 167.583 76.5151 167.855 76.5151C168.447 76.5151 168.919 76.4191 169.271 76.2271C169.623 76.0191 169.799 75.7311 169.799 75.3631C169.799 75.1551 169.743 74.9711 169.631 74.8111C169.519 74.6511 169.367 74.5231 169.175 74.4271C168.999 74.3151 168.783 74.2191 168.527 74.1391C168.287 74.0431 168.023 73.9631 167.735 73.8991C167.463 73.8191 167.175 73.7311 166.871 73.6351C166.471 73.5231 166.071 73.3871 165.671 73.2271C165.271 73.0671 164.911 72.8591 164.591 72.6031C164.287 72.3471 164.039 72.0271 163.847 71.6431C163.655 71.2591 163.559 70.7791 163.559 70.2031C163.559 69.4831 163.727 68.8751 164.063 68.3791C164.415 67.8671 164.919 67.4751 165.575 67.2031C166.231 66.9311 167.023 66.7951 167.951 66.7951C168.271 66.7951 168.575 66.8191 168.863 66.8671C169.167 66.9151 169.455 66.9871 169.727 67.0831C170.015 67.1631 170.287 67.2671 170.543 67.3951C170.815 67.5231 171.071 67.6671 171.311 67.8271C171.711 68.0511 171.919 68.3151 171.935 68.6191C171.951 68.9071 171.839 69.2191 171.599 69.5551C171.423 69.7791 171.247 69.9391 171.071 70.0351C170.895 70.1151 170.711 70.1151 170.519 70.0351C170.263 69.9071 169.983 69.7711 169.679 69.6271C169.391 69.4671 169.087 69.3311 168.767 69.2191C168.463 69.1071 168.143 69.0511 167.807 69.0511C167.487 69.0511 167.199 69.0991 166.943 69.1951C166.687 69.2911 166.495 69.4271 166.367 69.6031C166.239 69.7791 166.175 69.9871 166.175 70.2271C166.175 70.4511 166.239 70.6351 166.367 70.7791C166.495 70.9231 166.663 71.0431 166.871 71.1391C167.079 71.2351 167.327 71.3231 167.615 71.4031C167.903 71.4671 168.207 71.5311 168.527 71.5951C168.975 71.6911 169.431 71.8111 169.895 71.9551C170.359 72.0991 170.783 72.2991 171.167 72.5551C171.567 72.8111 171.887 73.1551 172.127 73.5871C172.367 74.0031 172.487 74.5471 172.487 75.2191C172.487 76.3871 172.055 77.2911 171.191 77.9311C170.343 78.5711 169.167 78.8911 167.663 78.8911ZM180.095 78.8911C179.327 78.8911 178.575 78.7471 177.839 78.4591C177.119 78.1551 176.463 77.7311 175.871 77.1871C175.295 76.6431 174.831 76.0031 174.479 75.2671C174.143 74.5311 173.975 73.7231 173.975 72.8431C173.975 71.9951 174.135 71.2031 174.455 70.4671C174.775 69.7311 175.215 69.0831 175.775 68.5231C176.335 67.9631 176.975 67.5311 177.695 67.2271C178.431 66.9071 179.215 66.7471 180.047 66.7471C181.167 66.7471 182.183 67.0191 183.095 67.5631C184.007 68.0911 184.735 68.8111 185.279 69.7231C185.823 70.6351 186.095 71.6671 186.095 72.8191C186.095 73.7311 185.927 74.5631 185.591 75.3151C185.255 76.0511 184.799 76.6911 184.223 77.2351C183.647 77.7631 182.999 78.1711 182.279 78.4591C181.575 78.7471 180.847 78.8911 180.095 78.8911ZM180.047 76.0591C180.575 76.0591 181.079 75.9311 181.559 75.6751C182.055 75.4031 182.455 75.0191 182.759 74.5231C183.079 74.0271 183.239 73.4431 183.239 72.7711C183.239 72.1471 183.095 71.5951 182.807 71.1151C182.535 70.6351 182.159 70.2591 181.679 69.9871C181.199 69.7151 180.647 69.5791 180.023 69.5791C179.431 69.5791 178.895 69.7231 178.415 70.0111C177.935 70.2831 177.551 70.6671 177.263 71.1631C176.991 71.6431 176.855 72.1871 176.855 72.7951C176.855 73.4671 177.007 74.0511 177.311 74.5471C177.615 75.0271 178.007 75.4031 178.487 75.6751C178.983 75.9311 179.503 76.0591 180.047 76.0591ZM192.085 78.8911C191.669 78.8911 191.229 78.8431 190.765 78.7471C190.301 78.6671 189.853 78.5471 189.421 78.3871C188.989 78.2111 188.613 78.0111 188.293 77.7871C187.989 77.5471 187.797 77.2831 187.717 76.9951C187.653 76.8351 187.629 76.6831 187.645 76.5391C187.661 76.3791 187.709 76.2191 187.789 76.0591C187.869 75.8831 187.989 75.7071 188.149 75.5311C188.293 75.3551 188.437 75.2591 188.581 75.2431C188.741 75.2111 188.941 75.2591 189.181 75.3871C189.389 75.4671 189.613 75.5711 189.853 75.6991C190.109 75.8271 190.365 75.9551 190.621 76.0831C190.893 76.2111 191.165 76.3151 191.437 76.3951C191.725 76.4751 192.005 76.5151 192.277 76.5151C192.869 76.5151 193.341 76.4191 193.693 76.2271C194.045 76.0191 194.221 75.7311 194.221 75.3631C194.221 75.1551 194.165 74.9711 194.053 74.8111C193.941 74.6511 193.789 74.5231 193.597 74.4271C193.421 74.3151 193.205 74.2191 192.949 74.1391C192.709 74.0431 192.445 73.9631 192.157 73.8991C191.885 73.8191 191.597 73.7311 191.293 73.6351C190.893 73.5231 190.493 73.3871 190.093 73.2271C189.693 73.0671 189.333 72.8591 189.013 72.6031C188.709 72.3471 188.461 72.0271 188.269 71.6431C188.077 71.2591 187.981 70.7791 187.981 70.2031C187.981 69.4831 188.149 68.8751 188.485 68.3791C188.837 67.8671 189.341 67.4751 189.997 67.2031C190.653 66.9311 191.445 66.7951 192.373 66.7951C192.693 66.7951 192.997 66.8191 193.285 66.8671C193.589 66.9151 193.877 66.9871 194.149 67.0831C194.437 67.1631 194.709 67.2671 194.965 67.3951C195.237 67.5231 195.493 67.6671 195.733 67.8271C196.133 68.0511 196.341 68.3151 196.357 68.6191C196.373 68.9071 196.261 69.2191 196.021 69.5551C195.845 69.7791 195.669 69.9391 195.493 70.0351C195.317 70.1151 195.133 70.1151 194.941 70.0351C194.685 69.9071 194.405 69.7711 194.101 69.6271C193.813 69.4671 193.509 69.3311 193.189 69.2191C192.885 69.1071 192.565 69.0511 192.229 69.0511C191.909 69.0511 191.621 69.0991 191.365 69.1951C191.109 69.2911 190.917 69.4271 190.789 69.6031C190.661 69.7791 190.597 69.9871 190.597 70.2271C190.597 70.4511 190.661 70.6351 190.789 70.7791C190.917 70.9231 191.085 71.0431 191.293 71.1391C191.501 71.2351 191.749 71.3231 192.037 71.4031C192.325 71.4671 192.629 71.5311 192.949 71.5951C193.397 71.6911 193.853 71.8111 194.317 71.9551C194.781 72.0991 195.205 72.2991 195.589 72.5551C195.989 72.8111 196.309 73.1551 196.549 73.5871C196.789 74.0031 196.909 74.5471 196.909 75.2191C196.909 76.3871 196.477 77.2911 195.613 77.9311C194.765 78.5711 193.589 78.8911 192.085 78.8911ZM200.532 78.7471C200.1 78.7471 199.78 78.6751 199.572 78.5311C199.364 78.4031 199.236 78.2351 199.188 78.0271C199.14 77.8031 199.116 77.5551 199.116 77.2831V68.3551C199.116 68.0991 199.14 67.8671 199.188 67.6591C199.252 67.4351 199.38 67.2591 199.572 67.1311C199.78 67.0031 200.108 66.9391 200.556 66.9391C201.004 66.9391 201.324 67.0031 201.516 67.1311C201.724 67.2591 201.852 67.4351 201.9 67.6591C201.948 67.8831 201.972 68.1311 201.972 68.4031V77.3071C201.972 77.5791 201.948 77.8271 201.9 78.0511C201.852 78.2591 201.724 78.4271 201.516 78.5551C201.324 78.6831 200.996 78.7471 200.532 78.7471ZM200.532 64.6111C200.068 64.6111 199.724 64.5471 199.5 64.4191C199.292 64.2751 199.156 64.0831 199.092 63.8431C199.044 63.6031 199.02 63.3391 199.02 63.0511C199.02 62.7471 199.044 62.4831 199.092 62.2591C199.156 62.0351 199.3 61.8591 199.524 61.7311C199.748 61.5871 200.092 61.5151 200.556 61.5151C201.036 61.5151 201.38 61.5871 201.588 61.7311C201.796 61.8751 201.932 62.0671 201.996 62.3071C202.06 62.5311 202.092 62.7951 202.092 63.0991C202.092 63.3711 202.06 63.6271 201.996 63.8671C201.932 64.1071 201.796 64.2911 201.588 64.4191C201.38 64.5471 201.028 64.6111 200.532 64.6111ZM214.204 78.6991C213.74 78.6991 213.396 78.6111 213.172 78.4351C212.948 78.2591 212.836 78.0191 212.836 77.7151L213.004 76.9231C212.876 77.1311 212.66 77.3791 212.356 77.6671C212.052 77.9391 211.652 78.1871 211.156 78.4111C210.66 78.6191 210.06 78.7231 209.356 78.7231C208.604 78.7231 207.892 78.5711 207.22 78.2671C206.564 77.9471 205.98 77.5151 205.468 76.9711C204.972 76.4111 204.572 75.7791 204.268 75.0751C203.98 74.3551 203.836 73.5871 203.836 72.7711C203.836 71.9871 203.98 71.2511 204.268 70.5631C204.572 69.8591 204.98 69.2351 205.492 68.6911C206.004 68.1471 206.588 67.7231 207.244 67.4191C207.916 67.0991 208.62 66.9391 209.356 66.9391C210.012 66.9391 210.564 67.0271 211.012 67.2031C211.476 67.3791 211.868 67.6031 212.188 67.8751C212.508 68.1311 212.772 68.4031 212.98 68.6911L212.836 67.9951C212.836 67.6431 212.948 67.3791 213.172 67.2031C213.396 67.0111 213.748 66.9151 214.228 66.9151C214.676 66.9151 214.996 66.9871 215.188 67.1311C215.38 67.2591 215.5 67.4431 215.548 67.6831C215.596 67.9071 215.62 68.1631 215.62 68.4511V77.2351C215.62 77.5071 215.596 77.7551 215.548 77.9791C215.5 78.2031 215.372 78.3791 215.164 78.5071C214.972 78.6351 214.652 78.6991 214.204 78.6991ZM209.788 75.9151C210.332 75.9151 210.82 75.7791 211.252 75.5071C211.684 75.2351 212.028 74.8671 212.284 74.4031C212.556 73.9231 212.692 73.3951 212.692 72.8191C212.692 72.1951 212.556 71.6511 212.284 71.1871C212.012 70.7231 211.652 70.3631 211.204 70.1071C210.772 69.8351 210.284 69.6991 209.74 69.6991C209.148 69.6991 208.62 69.8431 208.156 70.1311C207.692 70.4031 207.324 70.7791 207.052 71.2591C206.796 71.7231 206.668 72.2511 206.668 72.8431C206.668 73.4191 206.804 73.9391 207.076 74.4031C207.348 74.8671 207.716 75.2351 208.18 75.5071C208.66 75.7791 209.196 75.9151 209.788 75.9151ZM222.156 78.7471C221.564 78.7471 221.036 78.7071 220.572 78.6271C220.124 78.5471 219.732 78.4111 219.396 78.2191C219.076 78.0271 218.812 77.7711 218.604 77.4511C218.396 77.1151 218.236 76.7071 218.124 76.2271C218.028 75.7471 217.98 75.1711 217.98 74.4991V62.9311C217.98 62.6591 218.004 62.4191 218.052 62.2111C218.116 61.9871 218.244 61.8111 218.436 61.6831C218.644 61.5391 218.972 61.4671 219.42 61.4671C219.868 61.4671 220.188 61.5311 220.38 61.6591C220.588 61.7871 220.716 61.9631 220.764 62.1871C220.828 62.3951 220.86 62.6351 220.86 62.9071V74.3791C220.86 74.6831 220.876 74.9391 220.908 75.1471C220.956 75.3391 221.028 75.4991 221.124 75.6271C221.236 75.7391 221.372 75.8191 221.532 75.8671C221.708 75.9151 221.916 75.9391 222.156 75.9391C222.364 75.9391 222.548 75.9631 222.708 76.0111C222.884 76.0591 223.02 76.1791 223.116 76.3711C223.228 76.5631 223.284 76.8751 223.284 77.3071C223.284 77.7551 223.228 78.0831 223.116 78.2911C223.02 78.4991 222.884 78.6271 222.708 78.6751C222.532 78.7231 222.348 78.7471 222.156 78.7471Z" fill="black"/>
</svg>
