<svg width="400" height="120" viewBox="0 0 400 120" fill="none" xmlns="http://www.w3.org/2000/svg">
<mask id="mask0_62_2486" style="mask-type:luminance" maskUnits="userSpaceOnUse" x="0" y="0" width="400" height="120">
<path d="M400 0H0V120H400V0Z" fill="white"/>
</mask>
<g mask="url(#mask0_62_2486)">
<mask id="mask1_62_2486" style="mask-type:luminance" maskUnits="userSpaceOnUse" x="9" y="9" width="388" height="111">
<path d="M9.33838 9.33325H396.887V119.354H9.33838V9.33325Z" fill="white"/>
</mask>
<g mask="url(#mask1_62_2486)">
<path d="M15.789 72.3853L12.3965 62.3593L17.7893 51.8749L13.0349 41.3958L9.77612 30.9114L12.1047 19.3541L26.2584 18.2343L39.1779 15.5937L52.3406 21.4739L65.1142 13.7499L78.3376 21.7083L91.2267 17.9635L104.365 22.901L117.358 22.677L130.405 24.3437L143.318 21.4218L155.618 17.1093L167.972 14.5624L180.326 12.0989L192.783 13.2135L205.32 17.1249L217.838 20.3437L230.253 20.0728L242.4 10.3072L255.064 18.6874L267.503 19.1718L279.742 12.4791L292.084 9.53638L304.906 12.9062L318.19 14.7655L328.447 23.3958L341.367 25.4062L352.316 32.3385L368.294 26.7083L380.204 31.2239L396.346 37.177L387.475 50.3385L387.159 62.0937L374.361 69.8593L369.875 80.2812L373.796 93.3957L367.57 103.266L364.391 115.974L345.853 109.745L333.335 117.432L320.227 109.989L307.782 119.823L294.631 110.969L281.864 112.432L269.005 111.359L256.444 118.932L243.555 117.01L230.824 121.224L218.355 114.521L205.222 119.724L193.081 116.047L180.727 115.328L168.306 115.838L155.903 115.969L143.829 110.542L131.396 111.203L119.346 105.146L106.274 116.76L94.5645 104.833L81.5599 115.427L69.6375 107.245L57.5023 102.453L44.6436 110.724L27.2615 111.552L29.4685 98.1405L22.7929 90.2291L11.0103 83.578L15.789 72.3853Z" fill="black"/>
<path d="M15.789 72.3853L12.3965 62.3593L17.7893 51.8749L13.0349 41.3958L9.77612 30.9114L12.1047 19.3541L26.2584 18.2343L39.1779 15.5937L52.3406 21.4739L65.1142 13.7499L78.3376 21.7083L91.2267 17.9635L104.365 22.901L117.358 22.677L130.405 24.3437L143.318 21.4218L155.618 17.1093L167.972 14.5624L180.326 12.0989L192.783 13.2135L205.32 17.1249L217.838 20.3437L230.253 20.0728L242.4 10.3072L255.064 18.6874L267.503 19.1718L279.742 12.4791L292.084 9.53638L304.906 12.9062L318.19 14.7655L328.447 23.3958L341.367 25.4062L352.316 32.3385L368.294 26.7083L380.204 31.2239L396.346 37.177L387.475 50.3385L387.159 62.0937L374.361 69.8593L369.875 80.2812L373.796 93.3957L367.57 103.266L364.391 115.974L345.853 109.745L333.335 117.432L320.227 109.989L307.782 119.823L294.631 110.969L281.864 112.432L269.005 111.359L256.444 118.932L243.555 117.01L230.824 121.224L218.355 114.521L205.222 119.724L193.081 116.047L180.727 115.328L168.306 115.838L155.903 115.969L143.829 110.542L131.396 111.203L119.346 105.146L106.274 116.76L94.5645 104.833L81.5599 115.427L69.6375 107.245L57.5023 102.453L44.6436 110.724L27.2615 111.552L29.4685 98.1405L22.7929 90.2291L11.0103 83.578L15.789 72.3853Z" fill="black"/>
</g>
<mask id="mask2_62_2486" style="mask-type:luminance" maskUnits="userSpaceOnUse" x="7" y="8" width="391" height="112">
<path d="M7.78198 8H397.586V119.354H7.78198V8Z" fill="white"/>
</mask>
<g mask="url(#mask2_62_2486)">
<path d="M230.739 121.984L218.3 115.307L205.265 120.474L192.917 116.734L180.721 115.99L168.342 116.495L155.715 116.63L143.653 111.203L131.207 111.885L119.485 105.995L106.238 117.766L94.5037 105.812L81.6085 116.328L69.2058 107.849L57.6056 103.26L44.9111 111.401L26.3131 112.286L28.6355 98.3489L22.1971 90.7239L10.0497 83.8489L14.9561 72.3645L11.5575 62.3124L16.932 51.8541L12.2627 41.5728L8.95532 30.9426L11.4237 18.7291L26.1671 17.5572L39.2812 14.901L52.2737 20.703L65.1141 12.9166L78.4653 20.953L91.2632 17.2291L104.523 22.2135L117.406 21.9895L130.356 23.6562L143.051 20.776L155.423 16.4426L167.765 13.8958L180.259 11.4166L193.038 12.5728L205.569 16.4843L217.941 19.651L229.931 19.3958L242.345 9.40617L255.356 18.0103L267.26 18.4687L279.383 11.8489L292.078 8.81763L305.076 12.2083L318.561 14.0937L328.83 22.7291L341.683 24.7239L352.414 31.5103L368.282 25.9218L380.514 30.552L397.483 36.8489L388.272 50.526L387.962 62.4531L375.03 70.2968L370.714 80.3229L374.678 93.4843L368.33 103.505L364.95 116.906L345.951 110.516L333.335 118.26L320.294 110.854L307.824 120.74L294.413 111.703L281.882 113.146L269.188 112.078L256.627 119.651L243.634 117.719L230.739 121.984ZM218.415 113.75L230.915 120.463L243.47 116.307L256.256 118.213L268.792 110.656L281.852 111.755L294.856 110.255L307.739 118.932L320.148 109.13L333.317 116.594L345.744 108.969L363.801 115.031L366.816 103.016L372.951 93.2968L369.048 80.2343L373.681 69.427L386.375 61.7135L386.685 50.1822L395.215 37.4947L379.894 31.8645L368.276 27.4583L352.201 33.1249L341.038 26.0468L328.064 24.0155L317.807 15.3958L304.651 13.5468L292.054 10.2291L280.058 13.1093L267.704 19.8958L254.76 19.3958L242.437 11.2499L230.532 20.7916L217.68 21.078L205.04 17.828L192.601 13.8853L180.374 12.7916L168.184 15.2291L155.867 17.7499L143.525 22.078L130.453 25.0364L117.303 23.3541L104.207 23.5885L91.2267 18.6926L78.216 22.4687L65.1141 14.578L52.4196 22.2708L39.0927 16.3124L26.3313 18.9062L12.7856 19.9843L10.5847 30.8801L13.7948 41.1822L18.6526 51.8906L13.2476 62.3906L16.6462 72.4114L11.9952 83.3072L23.3705 89.7239L30.3135 97.9687L28.1978 110.823L44.376 110.057L57.4232 101.667L70.1178 106.708L81.5113 114.521L94.6192 103.844L106.298 115.745L119.194 104.286L131.572 110.516L143.987 109.833L156.08 115.26L168.282 115.135L180.721 114.62L193.227 115.349L205.125 118.958L218.415 113.75Z" fill="black"/>
</g>
<mask id="mask3_62_2486" style="mask-type:luminance" maskUnits="userSpaceOnUse" x="3" y="1" width="388" height="113">
<path d="M3.11279 1.08301H390.661V113.333H3.11279V1.08301Z" fill="white"/>
</mask>
<g mask="url(#mask3_62_2486)">
<path d="M9.78237 63.3954L6.39594 53.3642L11.7826 42.8798L7.02824 32.4006L3.75732 21.9163L6.09804 10.3642L20.2457 9.23918L33.1712 6.60376L46.3339 12.4788L59.1075 4.7548L72.3249 12.7183L85.2201 8.96313L98.3585 13.9111L111.345 13.6819L124.398 15.359L137.312 12.4319L149.611 8.10897L161.965 5.5673L174.319 3.10897L186.777 4.22355L199.313 8.1298L211.825 11.3486L224.246 11.0777L236.387 1.31209L249.058 9.69751L261.497 10.1819L273.735 3.48918L286.077 0.54126L298.9 3.91626L312.184 5.77043L322.44 14.4058L335.36 16.4163L346.31 23.3433L362.281 17.7131L374.197 22.2288L390.339 28.1767L381.469 41.3486L381.153 53.1038L368.355 60.8642L363.868 71.2913L367.796 84.4006L361.564 94.2704L358.378 106.979L339.847 100.755L327.329 108.442L314.221 101L301.775 110.833L288.619 101.974L275.851 103.442L262.999 102.364L250.432 109.937L237.549 108.026L224.818 112.234L212.348 105.526L199.216 110.729L187.068 107.062L174.726 106.333L162.299 106.849L149.897 106.979L137.822 101.546L125.389 102.208L113.339 96.1558L100.268 107.765L88.5579 95.8433L75.5533 106.427L63.6248 98.2444L51.5017 93.4579L38.6369 101.734L21.2488 102.557L23.4618 89.1506L16.7863 81.234L5.00368 74.5829L9.78237 63.3954Z" fill="white"/>
</g>
<mask id="mask4_62_2486" style="mask-type:luminance" maskUnits="userSpaceOnUse" x="0" y="1" width="396" height="115">
<path d="M0.674805 1.08325H395.331V116H0.674805V1.08325Z" fill="white"/>
</mask>
<g mask="url(#mask4_62_2486)">
<path d="M224.52 115.01L212.147 108.365L199.386 113.422L186.491 109.521L174.708 108.844L162.348 109.349L149.21 109.49L137.202 104.062L124.69 104.74L113.862 99.3124L100.146 111.526L88.3389 99.5103L75.7234 109.745L62.0743 100.385L51.8542 96.3541L39.6521 104.182L17.8318 105.213L20.3732 89.7916L14.7007 83.0624L1.44077 75.5989L6.68153 63.328L3.30118 53.1874L8.62097 42.828L4.20099 33.0416L0.778076 22.0312L3.61125 8.05721L19.7713 6.76034L33.5541 3.95825L46.1027 9.56242L59.1013 1.69784L72.7929 9.94263L85.3537 6.29159L98.942 11.401L111.539 11.1822L124.234 12.8124L136.381 10.0572L148.705 5.72909L161.284 3.14575L174.13 0.578044L187.433 1.77596L200.231 5.76554L212.22 8.84367L223.06 8.60409L236.205 -1.96362L250.115 7.23429L260.706 7.65096L272.525 1.18221L286.12 -2.05737L299.568 1.48429L313.564 3.43742L323.875 12.0885L336.57 14.0624L346.705 20.4999L362.311 14.9947L375.365 19.9478L394.492 26.9999L384.369 42.0416L384.04 54.4114L370.787 62.453L366.92 71.4218L370.89 84.7239L364.318 95.1458L360.494 110.38L340.248 103.594L327.377 111.495L314.5 104.182L301.909 114.13L287.767 104.63L275.869 105.99L263.752 104.979L251.058 112.609L237.767 110.635L224.52 115.01ZM212.561 102.693L225.128 109.474L237.214 105.448L249.708 107.302L262.172 99.7916L275.772 100.932L289.427 99.3593L301.593 107.557L313.886 97.8333L327.231 105.411L339.403 97.9478L356.226 103.588L358.779 93.4114L364.683 84.1041L360.816 71.2135L365.929 59.3333L378.277 51.8697L378.569 40.6822L386.174 29.3958L373.036 24.5572L362.238 20.4843L345.908 26.1822L334.168 18.7603L321.036 16.7291L310.791 8.11971L298.237 6.35409L286.041 3.14575L274.933 5.79159L262.293 12.703L248.012 12.1562L236.576 4.58846L225.432 13.5468L211.436 13.8489L198.31 10.4583L186.108 6.65096L174.532 5.63534L162.634 8.00513L150.517 10.4947L138.242 14.802L124.55 17.901L111.156 16.1822L97.7625 16.4166L85.068 11.6666L71.8688 15.4843L59.1074 7.80721L46.5648 15.3958L32.782 9.24471L20.7197 11.7083L8.59058 12.6718L6.74233 21.8072L9.80653 31.6249L14.9379 42.9426L9.50254 53.5728L12.8647 63.5208L8.53586 73.5885L18.8471 79.4062L26.5198 88.5051L24.6412 99.8958L37.5971 99.2864L51.1489 90.5676L65.175 96.1093L75.3586 103.099L88.7949 92.2447L100.419 104.068L112.828 93.0364L126.137 99.7083L138.497 99.026L150.602 104.453L162.214 104.333L174.757 103.818L187.67 104.568L199.064 108.016L212.561 102.693Z" fill="black"/>
<path d="M224.52 115.01L212.147 108.365L199.386 113.422L186.491 109.521L174.708 108.844L162.348 109.349L149.21 109.49L137.202 104.062L124.69 104.74L113.862 99.3124L100.146 111.526L88.3389 99.5103L75.7234 109.745L62.0743 100.385L51.8542 96.3541L39.6521 104.182L17.8318 105.213L20.3732 89.7916L14.7007 83.0624L1.44077 75.5989L6.68153 63.328L3.30118 53.1874L8.62097 42.828L4.20099 33.0416L0.778076 22.0312L3.61125 8.05721L19.7713 6.76034L33.5541 3.95825L46.1027 9.56242L59.1013 1.69784L72.7929 9.94263L85.3537 6.29159L98.942 11.401L111.539 11.1822L124.234 12.8124L136.381 10.0572L148.705 5.72909L161.284 3.14575L174.13 0.578044L187.433 1.77596L200.231 5.76554L212.22 8.84367L223.06 8.60409L236.205 -1.96362L250.115 7.23429L260.706 7.65096L272.525 1.18221L286.12 -2.05737L299.568 1.48429L313.564 3.43742L323.875 12.0885L336.57 14.0624L346.705 20.4999L362.311 14.9947L375.365 19.9478L394.492 26.9999L384.369 42.0416L384.04 54.4114L370.787 62.453L366.92 71.4218L370.89 84.7239L364.318 95.1458L360.494 110.38L340.248 103.594L327.377 111.495L314.5 104.182L301.909 114.13L287.767 104.63L275.869 105.99L263.752 104.979L251.058 112.609L237.767 110.635L224.52 115.01ZM212.561 102.693L225.128 109.474L237.214 105.448L249.708 107.302L262.172 99.7916L275.772 100.932L289.427 99.3593L301.593 107.557L313.886 97.8333L327.231 105.411L339.403 97.9478L356.226 103.588L358.779 93.4114L364.683 84.1041L360.816 71.2135L365.929 59.3333L378.277 51.8697L378.569 40.6822L386.174 29.3958L373.036 24.5572L362.238 20.4843L345.908 26.1822L334.168 18.7603L321.036 16.7291L310.791 8.11971L298.237 6.35409L286.041 3.14575L274.933 5.79159L262.293 12.703L248.012 12.1562L236.576 4.58846L225.432 13.5468L211.436 13.8489L198.31 10.4583L186.108 6.65096L174.532 5.63534L162.634 8.00513L150.517 10.4947L138.242 14.802L124.55 17.901L111.156 16.1822L97.7625 16.4166L85.068 11.6666L71.8688 15.4843L59.1074 7.80721L46.5648 15.3958L32.782 9.24471L20.7197 11.7083L8.59058 12.6718L6.74233 21.8072L9.80653 31.6249L14.9379 42.9426L9.50254 53.5728L12.8647 63.5208L8.53586 73.5885L18.8471 79.4062L26.5198 88.5051L24.6412 99.8958L37.5971 99.2864L51.1489 90.5676L65.175 96.1093L75.3586 103.099L88.7949 92.2447L100.419 104.068L112.828 93.0364L126.137 99.7083L138.497 99.026L150.602 104.453L162.214 104.333L174.757 103.818L187.67 104.568L199.064 108.016L212.561 102.693Z" fill="black"/>
</g>
</g>
<path d="M46.5023 49.7231C46.0543 49.7231 45.7263 49.6591 45.5183 49.5311C45.3103 49.4031 45.1823 49.2271 45.1343 49.0031C45.0863 48.7631 45.0623 48.5151 45.0623 48.2591V34.4111C45.0623 34.1551 45.0863 33.9231 45.1343 33.7151C45.1983 33.4911 45.3343 33.3151 45.5423 33.1871C45.7503 33.0431 46.0783 32.9711 46.5263 32.9711H51.6143C52.3183 32.9711 53.0063 33.0911 53.6783 33.3311C54.3503 33.5711 54.9503 33.9311 55.4783 34.4111C56.0223 34.8911 56.4463 35.4831 56.7503 36.1871C57.0703 36.8911 57.2303 37.7151 57.2303 38.6591C57.2303 39.5871 57.0703 40.4031 56.7503 41.1071C56.4463 41.7951 56.0223 42.3791 55.4783 42.8591C54.9343 43.3391 54.3263 43.6991 53.6543 43.9391C52.9983 44.1791 52.3103 44.2991 51.5903 44.2991H47.9663V48.2831C47.9663 48.5391 47.9343 48.7791 47.8703 49.0031C47.8223 49.2271 47.6943 49.4031 47.4863 49.5311C47.2943 49.6591 46.9663 49.7231 46.5023 49.7231ZM47.9663 41.3711H51.6143C52.1103 41.3711 52.5583 41.2751 52.9583 41.0831C53.3743 40.8751 53.7103 40.5711 53.9663 40.1711C54.2223 39.7551 54.3503 39.2351 54.3503 38.6111C54.3503 38.0511 54.2303 37.5711 53.9903 37.1711C53.7663 36.7551 53.4463 36.4351 53.0303 36.2111C52.6303 35.9871 52.1503 35.8751 51.5903 35.8751H47.9663V41.3711ZM64.9975 49.8911C63.9575 49.8911 63.0455 49.7231 62.2615 49.3871C61.4935 49.0511 60.8455 48.5951 60.3175 48.0191C59.8055 47.4271 59.4135 46.7711 59.1415 46.0511C58.8855 45.3151 58.7575 44.5551 58.7575 43.7711C58.7575 42.6191 59.0215 41.5951 59.5495 40.6991C60.0775 39.8031 60.8055 39.0991 61.7335 38.5871C62.6775 38.0751 63.7575 37.8191 64.9735 37.8191C65.8375 37.8191 66.5975 37.9551 67.2535 38.2271C67.9095 38.4991 68.4535 38.8591 68.8855 39.3071C69.3335 39.7391 69.6695 40.2191 69.8935 40.7471C70.1335 41.2751 70.2535 41.7871 70.2535 42.2831C70.2535 43.1311 70.0455 43.7471 69.6295 44.1311C69.2295 44.5151 68.7255 44.7071 68.1175 44.7071H61.7815C61.7975 45.2511 61.9655 45.7231 62.2855 46.1231C62.6215 46.5231 63.0375 46.8351 63.5335 47.0591C64.0455 47.2671 64.5655 47.3711 65.0935 47.3711C65.4935 47.3711 65.8455 47.3471 66.1495 47.2991C66.4695 47.2511 66.7415 47.1951 66.9655 47.1311C67.1895 47.0511 67.3815 46.9711 67.5415 46.8911C67.7175 46.8111 67.8775 46.7391 68.0215 46.6751C68.1655 46.6111 68.3015 46.5711 68.4295 46.5551C68.6055 46.5391 68.7815 46.5791 68.9575 46.6751C69.1335 46.7711 69.2775 46.9391 69.3895 47.1791C69.4855 47.3391 69.5495 47.4911 69.5815 47.6351C69.6295 47.7631 69.6535 47.8911 69.6535 48.0191C69.6535 48.3391 69.4615 48.6431 69.0775 48.9311C68.6935 49.2031 68.1495 49.4271 67.4455 49.6031C66.7575 49.7951 65.9415 49.8911 64.9975 49.8911ZM61.7815 43.0031H66.7015C66.9735 43.0031 67.1815 42.9631 67.3255 42.8831C67.4695 42.7871 67.5415 42.5951 67.5415 42.3071C67.5415 41.9391 67.4295 41.6111 67.2055 41.3231C66.9815 41.0191 66.6775 40.7871 66.2935 40.6271C65.9095 40.4511 65.4615 40.3631 64.9495 40.3631C64.3575 40.3631 63.8215 40.4831 63.3415 40.7231C62.8615 40.9471 62.4775 41.2591 62.1895 41.6591C61.9175 42.0591 61.7815 42.5071 61.7815 43.0031ZM73.639 49.7231C73.207 49.7231 72.887 49.6511 72.679 49.5071C72.487 49.3791 72.367 49.2111 72.319 49.0031C72.271 48.7791 72.247 48.5311 72.247 48.2591V39.2831C72.247 39.0271 72.271 38.7951 72.319 38.5871C72.367 38.3791 72.495 38.2191 72.703 38.1071C72.911 37.9791 73.231 37.9151 73.663 37.9151C74.047 37.9151 74.335 37.9631 74.527 38.0591C74.719 38.1551 74.847 38.2751 74.911 38.4191C74.975 38.5631 75.007 38.7071 75.007 38.8511C75.023 38.9951 75.039 39.1071 75.055 39.1871L74.959 39.9551C75.055 39.6991 75.215 39.4511 75.439 39.2111C75.663 38.9711 75.935 38.7551 76.255 38.5631C76.575 38.3551 76.919 38.1951 77.287 38.0831C77.671 37.9551 78.063 37.8911 78.463 37.8911C79.215 37.8911 79.887 38.0271 80.479 38.2991C81.071 38.5711 81.575 38.9551 81.991 39.4511C82.423 39.9471 82.751 40.5391 82.975 41.2271C83.199 41.8991 83.311 42.6591 83.311 43.5071V48.2831C83.311 48.5551 83.279 48.8031 83.215 49.0271C83.167 49.2351 83.047 49.4031 82.855 49.5311C82.663 49.6591 82.335 49.7231 81.871 49.7231C81.423 49.7231 81.095 49.6511 80.887 49.5071C80.679 49.3791 80.551 49.2111 80.503 49.0031C80.455 48.7791 80.431 48.5311 80.431 48.2591V43.4831C80.431 42.9071 80.327 42.4111 80.119 41.9951C79.927 41.5791 79.639 41.2591 79.255 41.0351C78.887 40.8111 78.415 40.6991 77.839 40.6991C77.279 40.6991 76.791 40.8191 76.375 41.0591C75.959 41.2831 75.639 41.6031 75.415 42.0191C75.191 42.4351 75.079 42.9231 75.079 43.4831V48.2831C75.079 48.5551 75.055 48.8031 75.007 49.0271C74.959 49.2351 74.831 49.4031 74.623 49.5311C74.431 49.6591 74.103 49.7231 73.639 49.7231ZM87.9021 54.4751C87.3901 54.2511 87.0941 53.9951 87.0141 53.7071C86.9341 53.4351 87.0061 53.0671 87.2301 52.6031L93.4221 38.7311C93.6461 38.2191 93.8861 37.9151 94.1421 37.8191C94.3981 37.7071 94.7901 37.7631 95.3181 37.9871C95.8141 38.2111 96.1021 38.4591 96.1821 38.7311C96.2781 39.0031 96.2221 39.3711 96.0141 39.8351L89.7741 53.7791C89.5661 54.2911 89.3341 54.5871 89.0781 54.6671C88.8221 54.7631 88.4301 54.6991 87.9021 54.4751ZM90.1341 48.5951L84.5901 40.0751C84.3021 39.6431 84.1821 39.2831 84.2301 38.9951C84.2941 38.7071 84.5501 38.4271 84.9981 38.1551C85.4941 37.8511 85.8781 37.7311 86.1501 37.7951C86.4381 37.8591 86.7261 38.1151 87.0141 38.5631L91.4061 45.4031L90.1341 48.5951ZM103.669 49.8911C102.629 49.8911 101.717 49.7231 100.933 49.3871C100.165 49.0511 99.5173 48.5951 98.9893 48.0191C98.4773 47.4271 98.0853 46.7711 97.8133 46.0511C97.5573 45.3151 97.4293 44.5551 97.4293 43.7711C97.4293 42.6191 97.6933 41.5951 98.2213 40.6991C98.7493 39.8031 99.4773 39.0991 100.405 38.5871C101.349 38.0751 102.429 37.8191 103.645 37.8191C104.509 37.8191 105.269 37.9551 105.925 38.2271C106.581 38.4991 107.125 38.8591 107.557 39.3071C108.005 39.7391 108.341 40.2191 108.565 40.7471C108.805 41.2751 108.925 41.7871 108.925 42.2831C108.925 43.1311 108.717 43.7471 108.301 44.1311C107.901 44.5151 107.397 44.7071 106.789 44.7071H100.453C100.469 45.2511 100.637 45.7231 100.957 46.1231C101.293 46.5231 101.709 46.8351 102.205 47.0591C102.717 47.2671 103.237 47.3711 103.765 47.3711C104.165 47.3711 104.517 47.3471 104.821 47.2991C105.141 47.2511 105.413 47.1951 105.637 47.1311C105.861 47.0511 106.053 46.9711 106.213 46.8911C106.389 46.8111 106.549 46.7391 106.693 46.6751C106.837 46.6111 106.973 46.5711 107.101 46.5551C107.277 46.5391 107.453 46.5791 107.629 46.6751C107.805 46.7711 107.949 46.9391 108.061 47.1791C108.157 47.3391 108.221 47.4911 108.253 47.6351C108.301 47.7631 108.325 47.8911 108.325 48.0191C108.325 48.3391 108.133 48.6431 107.749 48.9311C107.365 49.2031 106.821 49.4271 106.117 49.6031C105.429 49.7951 104.613 49.8911 103.669 49.8911ZM100.453 43.0031H105.373C105.645 43.0031 105.853 42.9631 105.997 42.8831C106.141 42.7871 106.213 42.5951 106.213 42.3071C106.213 41.9391 106.101 41.6111 105.877 41.3231C105.653 41.0191 105.349 40.7871 104.965 40.6271C104.581 40.4511 104.133 40.3631 103.621 40.3631C103.029 40.3631 102.493 40.4831 102.013 40.7231C101.533 40.9471 101.149 41.2591 100.861 41.6591C100.589 42.0591 100.453 42.5071 100.453 43.0031ZM117.063 49.7231C116.279 49.7231 115.575 49.5711 114.951 49.2671C114.343 48.9471 113.823 48.5151 113.391 47.9711C112.975 47.4271 112.655 46.8031 112.431 46.0991C112.223 45.3791 112.119 44.6111 112.119 43.7951C112.135 42.9791 112.255 42.2191 112.479 41.5151C112.703 40.7951 113.023 40.1711 113.439 39.6431C113.871 39.0991 114.391 38.6751 114.999 38.3711C115.607 38.0671 116.295 37.9151 117.063 37.9151C117.799 37.9151 118.487 38.0671 119.127 38.3711C119.783 38.6751 120.359 39.0991 120.855 39.6431C121.367 40.1711 121.767 40.7951 122.055 41.5151C122.343 42.2191 122.487 42.9711 122.487 43.7711C122.487 44.6031 122.343 45.3871 122.055 46.1231C121.767 46.8431 121.375 47.4751 120.879 48.0191C120.383 48.5471 119.807 48.9631 119.151 49.2671C118.495 49.5711 117.799 49.7231 117.063 49.7231ZM116.679 46.9151C117.239 46.9151 117.743 46.7871 118.191 46.5311C118.639 46.2591 118.991 45.8911 119.247 45.4271C119.519 44.9631 119.655 44.4351 119.655 43.8431C119.655 43.2351 119.519 42.6991 119.247 42.2351C118.991 41.7551 118.639 41.3871 118.191 41.1311C117.743 40.8591 117.239 40.7231 116.679 40.7231C116.135 40.7231 115.639 40.8591 115.191 41.1311C114.743 41.4031 114.383 41.7711 114.111 42.2351C113.855 42.6991 113.727 43.2351 113.727 43.8431C113.727 44.4351 113.855 44.9631 114.111 45.4271C114.383 45.8911 114.743 46.2591 115.191 46.5311C115.639 46.7871 116.135 46.9151 116.679 46.9151ZM112.239 49.7471C111.807 49.7471 111.487 49.6751 111.279 49.5311C111.071 49.4031 110.943 49.2351 110.895 49.0271C110.847 48.8031 110.823 48.5551 110.823 48.2831V33.9791C110.823 33.7071 110.847 33.4671 110.895 33.2591C110.943 33.0351 111.071 32.8591 111.279 32.7311C111.487 32.6031 111.807 32.5391 112.239 32.5391C112.687 32.5391 113.007 32.6031 113.199 32.7311C113.391 32.8591 113.511 33.0351 113.559 33.2591C113.607 33.4831 113.631 33.7231 113.631 33.9791V48.7631C113.567 49.1151 113.431 49.3631 113.223 49.5071C113.031 49.6671 112.703 49.7471 112.239 49.7471ZM134.258 49.6991C133.794 49.6991 133.45 49.6111 133.226 49.4351C133.002 49.2591 132.89 49.0191 132.89 48.7151L133.058 47.9231C132.93 48.1311 132.714 48.3791 132.41 48.6671C132.106 48.9391 131.706 49.1871 131.21 49.4111C130.714 49.6191 130.114 49.7231 129.41 49.7231C128.658 49.7231 127.946 49.5711 127.274 49.2671C126.618 48.9471 126.034 48.5151 125.522 47.9711C125.026 47.4111 124.626 46.7791 124.322 46.0751C124.034 45.3551 123.89 44.5871 123.89 43.7711C123.89 42.9871 124.034 42.2511 124.322 41.5631C124.626 40.8591 125.034 40.2351 125.546 39.6911C126.058 39.1471 126.642 38.7231 127.298 38.4191C127.97 38.0991 128.674 37.9391 129.41 37.9391C130.066 37.9391 130.618 38.0271 131.066 38.2031C131.53 38.3791 131.922 38.6031 132.242 38.8751C132.562 39.1311 132.826 39.4031 133.034 39.6911L132.89 38.9951C132.89 38.6431 133.002 38.3791 133.226 38.2031C133.45 38.0111 133.802 37.9151 134.282 37.9151C134.73 37.9151 135.05 37.9871 135.242 38.1311C135.434 38.2591 135.554 38.4431 135.602 38.6831C135.65 38.9071 135.674 39.1631 135.674 39.4511V48.2351C135.674 48.5071 135.65 48.7551 135.602 48.9791C135.554 49.2031 135.426 49.3791 135.218 49.5071C135.026 49.6351 134.706 49.6991 134.258 49.6991ZM129.842 46.9151C130.386 46.9151 130.874 46.7791 131.306 46.5071C131.738 46.2351 132.082 45.8671 132.338 45.4031C132.61 44.9231 132.746 44.3951 132.746 43.8191C132.746 43.1951 132.61 42.6511 132.338 42.1871C132.066 41.7231 131.706 41.3631 131.258 41.1071C130.826 40.8351 130.338 40.6991 129.794 40.6991C129.202 40.6991 128.674 40.8431 128.21 41.1311C127.746 41.4031 127.378 41.7791 127.106 42.2591C126.85 42.7231 126.722 43.2511 126.722 43.8431C126.722 44.4191 126.858 44.9391 127.13 45.4031C127.402 45.8671 127.77 46.2351 128.234 46.5071C128.714 46.7791 129.25 46.9151 129.842 46.9151ZM144.25 49.7231C143.466 49.7231 142.762 49.5711 142.138 49.2671C141.53 48.9471 141.01 48.5151 140.578 47.9711C140.162 47.4271 139.842 46.8031 139.618 46.0991C139.41 45.3791 139.306 44.6111 139.306 43.7951C139.322 42.9791 139.442 42.2191 139.666 41.5151C139.89 40.7951 140.21 40.1711 140.626 39.6431C141.058 39.0991 141.578 38.6751 142.186 38.3711C142.794 38.0671 143.482 37.9151 144.25 37.9151C144.986 37.9151 145.674 38.0671 146.314 38.3711C146.97 38.6751 147.546 39.0991 148.042 39.6431C148.554 40.1711 148.954 40.7951 149.242 41.5151C149.53 42.2191 149.674 42.9711 149.674 43.7711C149.674 44.6031 149.53 45.3871 149.242 46.1231C148.954 46.8431 148.562 47.4751 148.066 48.0191C147.57 48.5471 146.994 48.9631 146.338 49.2671C145.682 49.5711 144.986 49.7231 144.25 49.7231ZM143.866 46.9151C144.426 46.9151 144.93 46.7871 145.378 46.5311C145.826 46.2591 146.178 45.8911 146.434 45.4271C146.706 44.9631 146.842 44.4351 146.842 43.8431C146.842 43.2351 146.706 42.6991 146.434 42.2351C146.178 41.7551 145.826 41.3871 145.378 41.1311C144.93 40.8591 144.426 40.7231 143.866 40.7231C143.322 40.7231 142.826 40.8591 142.378 41.1311C141.93 41.4031 141.57 41.7711 141.298 42.2351C141.042 42.6991 140.914 43.2351 140.914 43.8431C140.914 44.4351 141.042 44.9631 141.298 45.4271C141.57 45.8911 141.93 46.2591 142.378 46.5311C142.826 46.7871 143.322 46.9151 143.866 46.9151ZM139.426 49.7471C138.994 49.7471 138.674 49.6751 138.466 49.5311C138.258 49.4031 138.13 49.2351 138.082 49.0271C138.034 48.8031 138.01 48.5551 138.01 48.2831V33.9791C138.01 33.7071 138.034 33.4671 138.082 33.2591C138.13 33.0351 138.258 32.8591 138.466 32.7311C138.674 32.6031 138.994 32.5391 139.426 32.5391C139.874 32.5391 140.194 32.6031 140.386 32.7311C140.578 32.8591 140.698 33.0351 140.746 33.2591C140.794 33.4831 140.818 33.7231 140.818 33.9791V48.7631C140.754 49.1151 140.618 49.3631 140.41 49.5071C140.218 49.6671 139.89 49.7471 139.426 49.7471ZM163.321 49.7471C162.537 49.7471 161.865 49.6671 161.305 49.5071C160.745 49.3471 160.289 49.0991 159.937 48.7631C159.585 48.4271 159.321 47.9951 159.145 47.4671C158.985 46.9231 158.905 46.2831 158.905 45.5471V35.3711C158.905 35.0831 158.929 34.8351 158.977 34.6271C159.041 34.4191 159.169 34.2591 159.361 34.1471C159.569 34.0191 159.889 33.9551 160.321 33.9551C160.769 33.9551 161.089 34.0191 161.281 34.1471C161.489 34.2751 161.617 34.4511 161.665 34.6751C161.729 34.8831 161.761 35.1151 161.761 35.3711V45.4511C161.761 45.7871 161.785 46.0591 161.833 46.2671C161.897 46.4751 161.985 46.6351 162.097 46.7471C162.225 46.8431 162.385 46.9151 162.577 46.9631C162.785 46.9951 163.033 47.0111 163.321 47.0111C163.625 47.0111 163.881 47.0351 164.089 47.0831C164.313 47.1311 164.481 47.2511 164.593 47.4431C164.705 47.6191 164.761 47.9151 164.761 48.3311C164.761 48.7791 164.689 49.1071 164.545 49.3151C164.417 49.5071 164.241 49.6271 164.017 49.6751C163.809 49.7231 163.577 49.7471 163.321 49.7471ZM157.921 38.1551L160.393 38.1791L163.705 38.0831C163.977 38.0831 164.217 38.1151 164.425 38.1791C164.649 38.2271 164.825 38.3551 164.953 38.5631C165.081 38.7551 165.145 39.0751 165.145 39.5231C165.145 39.9391 165.081 40.2511 164.953 40.4591C164.825 40.6671 164.657 40.8031 164.449 40.8671C164.241 40.9151 164.001 40.9391 163.729 40.9391L160.513 40.8911L157.849 40.9151C157.449 40.8991 157.169 40.7871 157.009 40.5791C156.865 40.3551 156.793 39.9951 156.793 39.4991C156.793 39.0351 156.881 38.6991 157.057 38.4911C157.249 38.2671 157.537 38.1551 157.921 38.1551ZM172.646 49.8911C171.606 49.8911 170.694 49.7231 169.91 49.3871C169.142 49.0511 168.494 48.5951 167.966 48.0191C167.454 47.4271 167.062 46.7711 166.79 46.0511C166.534 45.3151 166.406 44.5551 166.406 43.7711C166.406 42.6191 166.67 41.5951 167.198 40.6991C167.726 39.8031 168.454 39.0991 169.382 38.5871C170.326 38.0751 171.406 37.8191 172.622 37.8191C173.486 37.8191 174.246 37.9551 174.902 38.2271C175.558 38.4991 176.102 38.8591 176.534 39.3071C176.982 39.7391 177.318 40.2191 177.542 40.7471C177.782 41.2751 177.902 41.7871 177.902 42.2831C177.902 43.1311 177.694 43.7471 177.278 44.1311C176.878 44.5151 176.374 44.7071 175.766 44.7071H169.43C169.446 45.2511 169.614 45.7231 169.934 46.1231C170.27 46.5231 170.686 46.8351 171.182 47.0591C171.694 47.2671 172.214 47.3711 172.742 47.3711C173.142 47.3711 173.494 47.3471 173.798 47.2991C174.118 47.2511 174.39 47.1951 174.614 47.1311C174.838 47.0511 175.03 46.9711 175.19 46.8911C175.366 46.8111 175.526 46.7391 175.67 46.6751C175.814 46.6111 175.95 46.5711 176.078 46.5551C176.254 46.5391 176.43 46.5791 176.606 46.6751C176.782 46.7711 176.926 46.9391 177.038 47.1791C177.134 47.3391 177.198 47.4911 177.23 47.6351C177.278 47.7631 177.302 47.8911 177.302 48.0191C177.302 48.3391 177.11 48.6431 176.726 48.9311C176.342 49.2031 175.798 49.4271 175.094 49.6031C174.406 49.7951 173.59 49.8911 172.646 49.8911ZM169.43 43.0031H174.35C174.622 43.0031 174.83 42.9631 174.974 42.8831C175.118 42.7871 175.19 42.5951 175.19 42.3071C175.19 41.9391 175.078 41.6111 174.854 41.3231C174.63 41.0191 174.326 40.7871 173.942 40.6271C173.558 40.4511 173.11 40.3631 172.598 40.3631C172.006 40.3631 171.47 40.4831 170.99 40.7231C170.51 40.9471 170.126 41.2591 169.838 41.6591C169.566 42.0591 169.43 42.5071 169.43 43.0031ZM189.279 47.1551C189.695 47.5071 189.911 47.8351 189.927 48.1391C189.959 48.4431 189.799 48.7951 189.447 49.1951C189.175 49.4991 188.935 49.6991 188.727 49.7951C188.519 49.8911 188.311 49.8911 188.103 49.7951C187.895 49.7151 187.647 49.5551 187.359 49.3151L182.775 45.4511V48.3071C182.775 48.5631 182.743 48.8031 182.679 49.0271C182.631 49.2511 182.503 49.4271 182.295 49.5551C182.103 49.6831 181.783 49.7471 181.335 49.7471C180.887 49.7471 180.559 49.6751 180.351 49.5311C180.159 49.4031 180.039 49.2271 179.991 49.0031C179.943 48.7791 179.919 48.5391 179.919 48.2831V33.9551C179.919 33.6831 179.943 33.4431 179.991 33.2351C180.055 33.0111 180.183 32.8351 180.375 32.7071C180.583 32.5631 180.911 32.4911 181.359 32.4911C181.807 32.4911 182.127 32.5631 182.319 32.7071C182.511 32.8351 182.631 33.0111 182.679 33.2351C182.743 33.4431 182.775 33.6911 182.775 33.9791V41.8511L186.087 38.6351C186.343 38.3951 186.583 38.2351 186.807 38.1551C187.031 38.0591 187.247 38.0511 187.455 38.1311C187.679 38.1951 187.911 38.3631 188.151 38.6351C188.551 39.0671 188.743 39.4271 188.727 39.7151C188.711 39.9871 188.511 40.3151 188.127 40.6991L184.887 43.6991L189.279 47.1551ZM196.595 49.8911C195.827 49.8911 195.075 49.7471 194.339 49.4591C193.619 49.1551 192.963 48.7311 192.371 48.1871C191.795 47.6431 191.331 47.0031 190.979 46.2671C190.643 45.5311 190.475 44.7231 190.475 43.8431C190.475 42.9951 190.635 42.2031 190.955 41.4671C191.275 40.7311 191.715 40.0831 192.275 39.5231C192.835 38.9631 193.475 38.5311 194.195 38.2271C194.931 37.9071 195.715 37.7471 196.547 37.7471C197.667 37.7471 198.683 38.0191 199.595 38.5631C200.507 39.0911 201.235 39.8111 201.779 40.7231C202.323 41.6351 202.595 42.6671 202.595 43.8191C202.595 44.7311 202.427 45.5631 202.091 46.3151C201.755 47.0511 201.299 47.6911 200.723 48.2351C200.147 48.7631 199.499 49.1711 198.779 49.4591C198.075 49.7471 197.347 49.8911 196.595 49.8911ZM196.547 47.0591C197.075 47.0591 197.579 46.9311 198.059 46.6751C198.555 46.4031 198.955 46.0191 199.259 45.5231C199.579 45.0271 199.739 44.4431 199.739 43.7711C199.739 43.1471 199.595 42.5951 199.307 42.1151C199.035 41.6351 198.659 41.2591 198.179 40.9871C197.699 40.7151 197.147 40.5791 196.523 40.5791C195.931 40.5791 195.395 40.7231 194.915 41.0111C194.435 41.2831 194.051 41.6671 193.763 42.1631C193.491 42.6431 193.355 43.1871 193.355 43.7951C193.355 44.4671 193.507 45.0511 193.811 45.5471C194.115 46.0271 194.507 46.4031 194.987 46.6751C195.483 46.9311 196.003 47.0591 196.547 47.0591ZM208.609 49.7471C208.017 49.7471 207.489 49.7071 207.025 49.6271C206.577 49.5471 206.185 49.4111 205.849 49.2191C205.529 49.0271 205.265 48.7711 205.057 48.4511C204.849 48.1151 204.689 47.7071 204.577 47.2271C204.481 46.7471 204.433 46.1711 204.433 45.4991V33.9311C204.433 33.6591 204.457 33.4191 204.505 33.2111C204.569 32.9871 204.697 32.8111 204.889 32.6831C205.097 32.5391 205.425 32.4671 205.873 32.4671C206.321 32.4671 206.641 32.5311 206.833 32.6591C207.041 32.7871 207.169 32.9631 207.217 33.1871C207.281 33.3951 207.313 33.6351 207.313 33.9071V45.3791C207.313 45.6831 207.329 45.9391 207.361 46.1471C207.409 46.3391 207.481 46.4991 207.577 46.6271C207.689 46.7391 207.825 46.8191 207.985 46.8671C208.161 46.9151 208.369 46.9391 208.609 46.9391C208.817 46.9391 209.001 46.9631 209.161 47.0111C209.337 47.0591 209.473 47.1791 209.569 47.3711C209.681 47.5631 209.737 47.8751 209.737 48.3071C209.737 48.7551 209.681 49.0831 209.569 49.2911C209.473 49.4991 209.337 49.6271 209.161 49.6751C208.985 49.7231 208.801 49.7471 208.609 49.7471ZM216.985 49.8911C216.217 49.8911 215.465 49.7471 214.729 49.4591C214.009 49.1551 213.353 48.7311 212.761 48.1871C212.185 47.6431 211.721 47.0031 211.369 46.2671C211.033 45.5311 210.865 44.7231 210.865 43.8431C210.865 42.9951 211.025 42.2031 211.345 41.4671C211.665 40.7311 212.105 40.0831 212.665 39.5231C213.225 38.9631 213.865 38.5311 214.585 38.2271C215.321 37.9071 216.105 37.7471 216.937 37.7471C218.057 37.7471 219.073 38.0191 219.985 38.5631C220.897 39.0911 221.625 39.8111 222.169 40.7231C222.713 41.6351 222.985 42.6671 222.985 43.8191C222.985 44.7311 222.817 45.5631 222.481 46.3151C222.145 47.0511 221.689 47.6911 221.113 48.2351C220.537 48.7631 219.889 49.1711 219.169 49.4591C218.465 49.7471 217.737 49.8911 216.985 49.8911ZM216.937 47.0591C217.465 47.0591 217.969 46.9311 218.449 46.6751C218.945 46.4031 219.345 46.0191 219.649 45.5231C219.969 45.0271 220.129 44.4431 220.129 43.7711C220.129 43.1471 219.985 42.5951 219.697 42.1151C219.425 41.6351 219.049 41.2591 218.569 40.9871C218.089 40.7151 217.537 40.5791 216.913 40.5791C216.321 40.5791 215.785 40.7231 215.305 41.0111C214.825 41.2831 214.441 41.6671 214.153 42.1631C213.881 42.6431 213.745 43.1871 213.745 43.7951C213.745 44.4671 213.897 45.0511 214.201 45.5471C214.505 46.0271 214.897 46.4031 215.377 46.6751C215.873 46.9311 216.393 47.0591 216.937 47.0591ZM230.031 54.5471C229.455 54.5471 228.903 54.4751 228.375 54.3311C227.847 54.2031 227.367 54.0271 226.935 53.8031C226.519 53.5791 226.183 53.3391 225.927 53.0831C225.687 52.8271 225.567 52.5871 225.567 52.3631C225.567 52.1391 225.599 51.9471 225.663 51.7871C225.743 51.6271 225.855 51.4671 225.999 51.3071C226.191 51.1151 226.343 50.9711 226.455 50.8751C226.583 50.7791 226.751 50.7311 226.959 50.7311C227.135 50.7311 227.303 50.7951 227.463 50.9231C227.639 51.0511 227.839 51.1951 228.063 51.3551C228.287 51.5151 228.559 51.6591 228.879 51.7871C229.199 51.9151 229.607 51.9791 230.103 51.9791C230.519 51.9791 230.903 51.9071 231.255 51.7631C231.607 51.6191 231.903 51.4031 232.143 51.1151C232.399 50.8431 232.599 50.5151 232.743 50.1311C232.887 49.7471 232.959 49.3151 232.959 48.8351L232.935 38.8991C232.967 38.5311 233.095 38.2751 233.319 38.1311C233.543 37.9711 233.887 37.8911 234.351 37.8911C234.783 37.8911 235.095 37.9551 235.287 38.0831C235.479 38.1951 235.599 38.3631 235.647 38.5871C235.695 38.7951 235.719 39.0271 235.719 39.2831V49.0031C235.719 49.8831 235.567 50.6671 235.263 51.3551C234.959 52.0431 234.543 52.6191 234.015 53.0831C233.487 53.5631 232.879 53.9231 232.191 54.1631C231.519 54.4191 230.799 54.5471 230.031 54.5471ZM229.767 49.4351C229.015 49.4351 228.311 49.2911 227.655 49.0031C227.015 48.7151 226.447 48.3071 225.951 47.7791C225.471 47.2511 225.087 46.6431 224.799 45.9551C224.527 45.2511 224.391 44.4911 224.391 43.6751C224.391 42.8751 224.527 42.1311 224.799 41.4431C225.087 40.7551 225.471 40.1471 225.951 39.6191C226.447 39.0911 227.015 38.6831 227.655 38.3951C228.311 38.0911 229.007 37.9391 229.743 37.9391C230.463 37.9391 231.087 38.0831 231.615 38.3711C232.159 38.6431 232.607 39.0351 232.959 39.5471C233.311 40.0591 233.575 40.6671 233.751 41.3711C233.943 42.0751 234.039 42.8511 234.039 43.6991C234.039 44.8671 233.879 45.8831 233.559 46.7471C233.239 47.6111 232.767 48.2751 232.143 48.7391C231.519 49.2031 230.727 49.4351 229.767 49.4351ZM230.031 46.7231C230.575 46.7231 231.055 46.5951 231.471 46.3391C231.903 46.0671 232.239 45.6991 232.479 45.2351C232.735 44.7711 232.863 44.2511 232.863 43.6751C232.863 43.0831 232.735 42.5631 232.479 42.1151C232.239 41.6511 231.903 41.2911 231.471 41.0351C231.039 40.7791 230.551 40.6511 230.007 40.6511C229.463 40.6511 228.975 40.7871 228.543 41.0591C228.127 41.3151 227.799 41.6671 227.559 42.1151C227.319 42.5631 227.199 43.0831 227.199 43.6751C227.199 44.2671 227.319 44.7951 227.559 45.2591C227.815 45.7071 228.151 46.0671 228.567 46.3391C228.999 46.5951 229.487 46.7231 230.031 46.7231ZM239.814 49.7471C239.382 49.7471 239.062 49.6751 238.854 49.5311C238.646 49.4031 238.518 49.2351 238.47 49.0271C238.422 48.8031 238.398 48.5551 238.398 48.2831V39.3551C238.398 39.0991 238.422 38.8671 238.47 38.6591C238.534 38.4351 238.662 38.2591 238.854 38.1311C239.062 38.0031 239.39 37.9391 239.838 37.9391C240.286 37.9391 240.606 38.0031 240.798 38.1311C241.006 38.2591 241.134 38.4351 241.182 38.6591C241.23 38.8831 241.254 39.1311 241.254 39.4031V48.3071C241.254 48.5791 241.23 48.8271 241.182 49.0511C241.134 49.2591 241.006 49.4271 240.798 49.5551C240.606 49.6831 240.278 49.7471 239.814 49.7471ZM239.814 35.6111C239.35 35.6111 239.006 35.5471 238.782 35.4191C238.574 35.2751 238.438 35.0831 238.374 34.8431C238.326 34.6031 238.302 34.3391 238.302 34.0511C238.302 33.7471 238.326 33.4831 238.374 33.2591C238.438 33.0351 238.582 32.8591 238.806 32.7311C239.03 32.5871 239.374 32.5151 239.838 32.5151C240.318 32.5151 240.662 32.5871 240.87 32.7311C241.078 32.8751 241.214 33.0671 241.278 33.3071C241.342 33.5311 241.374 33.7951 241.374 34.0991C241.374 34.3711 241.342 34.6271 241.278 34.8671C241.214 35.1071 241.078 35.2911 240.87 35.4191C240.662 35.5471 240.31 35.6111 239.814 35.6111ZM244.023 52.2191C244.023 52.2191 243.991 52.2031 243.927 52.1711C243.863 52.1551 243.799 52.0911 243.735 51.9791C243.671 51.8831 243.639 51.7231 243.639 51.4991C243.639 51.1951 243.687 50.9951 243.783 50.8991C243.879 50.8191 243.943 50.7711 243.975 50.7551C243.991 50.7391 244.103 50.6431 244.311 50.4671C244.519 50.3071 244.639 50.0271 244.671 49.6271C244.511 49.5951 244.367 49.5551 244.239 49.5071C244.127 49.4431 244.031 49.3711 243.951 49.2911C243.791 49.1311 243.695 48.9471 243.663 48.7391C243.631 48.5151 243.615 48.2911 243.615 48.0671C243.615 47.6991 243.655 47.3951 243.735 47.1551C243.815 46.9151 243.967 46.7391 244.191 46.6271C244.431 46.4991 244.783 46.4351 245.247 46.4351C245.855 46.4351 246.287 46.5631 246.543 46.8191C246.687 46.9631 246.767 47.1471 246.783 47.3711C246.815 47.5951 246.831 47.8191 246.831 48.0431C246.831 48.2031 246.831 48.3391 246.831 48.4511C246.831 48.5471 246.823 48.6351 246.807 48.7151C246.743 49.3551 246.575 49.9391 246.303 50.4671C246.047 50.9951 245.719 51.4191 245.319 51.7391C244.935 52.0591 244.503 52.2191 244.023 52.2191ZM245.199 41.8031C244.591 41.8031 244.167 41.6831 243.927 41.4431C243.703 41.1871 243.591 40.7791 243.591 40.2191C243.591 39.8031 243.631 39.4751 243.711 39.2351C243.807 38.9951 243.975 38.8271 244.215 38.7311C244.471 38.6191 244.807 38.5631 245.223 38.5631C245.847 38.5631 246.271 38.6831 246.495 38.9231C246.719 39.1631 246.831 39.5871 246.831 40.1951C246.831 40.4831 246.799 40.7551 246.735 41.0111C246.671 41.2511 246.527 41.4431 246.303 41.5871C246.079 41.7311 245.711 41.8031 245.199 41.8031ZM256.476 49.7231C256.06 49.7231 255.748 49.6511 255.54 49.5071C255.332 49.3791 255.196 49.2031 255.132 48.9791C255.068 48.7551 255.036 48.5151 255.036 48.2591V34.3871C255.036 34.1311 255.06 33.8991 255.108 33.6911C255.172 33.4671 255.308 33.2911 255.516 33.1631C255.724 33.0191 256.052 32.9471 256.5 32.9471L261.012 32.9711C262.18 32.9711 263.252 33.1711 264.228 33.5711C265.22 33.9711 266.076 34.5391 266.796 35.2751C267.516 36.0111 268.068 36.8911 268.452 37.9151C268.852 38.9231 269.052 40.0351 269.052 41.2511C269.052 42.4991 268.852 43.6431 268.452 44.6831C268.052 45.7231 267.492 46.6191 266.772 47.3711C266.052 48.1231 265.196 48.7071 264.204 49.1231C263.228 49.5231 262.14 49.7231 260.94 49.7231H256.476ZM257.94 46.8191H261.012C262.036 46.8191 262.932 46.5951 263.7 46.1471C264.468 45.6831 265.06 45.0431 265.476 44.2271C265.908 43.4111 266.124 42.4591 266.124 41.3711C266.124 40.2671 265.908 39.3071 265.476 38.4911C265.06 37.6591 264.46 37.0191 263.676 36.5711C262.908 36.1071 262.012 35.8751 260.988 35.8751H257.94V46.8191ZM281.165 49.6991C280.701 49.6991 280.357 49.6111 280.133 49.4351C279.909 49.2591 279.797 49.0191 279.797 48.7151L279.965 47.9231C279.837 48.1311 279.621 48.3791 279.317 48.6671C279.013 48.9391 278.613 49.1871 278.117 49.4111C277.621 49.6191 277.021 49.7231 276.317 49.7231C275.565 49.7231 274.853 49.5711 274.181 49.2671C273.525 48.9471 272.941 48.5151 272.429 47.9711C271.933 47.4111 271.533 46.7791 271.229 46.0751C270.941 45.3551 270.797 44.5871 270.797 43.7711C270.797 42.9871 270.941 42.2511 271.229 41.5631C271.533 40.8591 271.941 40.2351 272.453 39.6911C272.965 39.1471 273.549 38.7231 274.205 38.4191C274.877 38.0991 275.581 37.9391 276.317 37.9391C276.973 37.9391 277.525 38.0271 277.973 38.2031C278.437 38.3791 278.829 38.6031 279.149 38.8751C279.469 39.1311 279.733 39.4031 279.941 39.6911L279.797 38.9951C279.797 38.6431 279.909 38.3791 280.133 38.2031C280.357 38.0111 280.709 37.9151 281.189 37.9151C281.637 37.9151 281.957 37.9871 282.149 38.1311C282.341 38.2591 282.461 38.4431 282.509 38.6831C282.557 38.9071 282.581 39.1631 282.581 39.4511V48.2351C282.581 48.5071 282.557 48.7551 282.509 48.9791C282.461 49.2031 282.333 49.3791 282.125 49.5071C281.933 49.6351 281.613 49.6991 281.165 49.6991ZM276.749 46.9151C277.293 46.9151 277.781 46.7791 278.213 46.5071C278.645 46.2351 278.989 45.8671 279.245 45.4031C279.517 44.9231 279.653 44.3951 279.653 43.8191C279.653 43.1951 279.517 42.6511 279.245 42.1871C278.973 41.7231 278.613 41.3631 278.165 41.1071C277.733 40.8351 277.245 40.6991 276.701 40.6991C276.109 40.6991 275.581 40.8431 275.117 41.1311C274.653 41.4031 274.285 41.7791 274.013 42.2591C273.757 42.7231 273.629 43.2511 273.629 43.8431C273.629 44.4191 273.765 44.9391 274.037 45.4031C274.309 45.8671 274.677 46.2351 275.141 46.5071C275.621 46.7791 276.157 46.9151 276.749 46.9151ZM286.381 49.7231C285.949 49.7231 285.629 49.6591 285.421 49.5311C285.229 49.4031 285.109 49.2271 285.061 49.0031C285.013 48.7791 284.989 48.5391 284.989 48.2831V39.3071C284.989 39.0511 285.013 38.8191 285.061 38.6111C285.109 38.4031 285.237 38.2351 285.445 38.1071C285.653 37.9791 285.981 37.9151 286.429 37.9151C286.893 37.9151 287.229 38.0111 287.437 38.2031C287.661 38.3951 287.773 38.6991 287.773 39.1151L287.557 39.7871C287.637 39.6111 287.773 39.4191 287.965 39.2111C288.157 39.0031 288.389 38.7951 288.661 38.5871C288.949 38.3791 289.269 38.2111 289.621 38.0831C289.973 37.9551 290.341 37.8911 290.725 37.8911C291.253 37.8911 291.733 37.9791 292.165 38.1551C292.613 38.3311 293.005 38.5871 293.341 38.9231C293.693 39.2591 293.997 39.6671 294.253 40.1471C294.525 39.7311 294.829 39.3551 295.165 39.0191C295.501 38.6671 295.893 38.3951 296.341 38.2031C296.789 37.9951 297.293 37.8911 297.853 37.8911C298.781 37.8911 299.557 38.1231 300.181 38.5871C300.821 39.0511 301.301 39.7151 301.621 40.5791C301.957 41.4271 302.125 42.4431 302.125 43.6271V48.2831C302.125 48.5551 302.093 48.8031 302.029 49.0271C301.981 49.2351 301.853 49.4031 301.645 49.5311C301.453 49.6591 301.133 49.7231 300.685 49.7231C300.237 49.7231 299.909 49.6511 299.701 49.5071C299.493 49.3791 299.365 49.2111 299.317 49.0031C299.269 48.7791 299.245 48.5311 299.245 48.2591V43.6031C299.245 43.0111 299.173 42.4991 299.029 42.0671C298.885 41.6351 298.669 41.2991 298.381 41.0591C298.109 40.8191 297.749 40.6991 297.301 40.6991C296.821 40.6991 296.405 40.8191 296.053 41.0591C295.717 41.2831 295.453 41.6111 295.261 42.0431C295.069 42.4751 294.973 43.0031 294.973 43.6271V48.3071C294.973 48.5791 294.933 48.8351 294.853 49.0751C294.773 49.2991 294.613 49.4671 294.373 49.5791C294.149 49.7071 293.821 49.7551 293.389 49.7231C292.989 49.7071 292.693 49.6271 292.501 49.4831C292.325 49.3391 292.213 49.1631 292.165 48.9551C292.133 48.7311 292.117 48.4991 292.117 48.2591V43.6031C292.117 43.0111 292.045 42.4991 291.901 42.0671C291.757 41.6191 291.541 41.2831 291.253 41.0591C290.981 40.8191 290.613 40.6991 290.149 40.6991C289.653 40.6991 289.229 40.8271 288.877 41.0831C288.541 41.3391 288.285 41.6831 288.109 42.1151C287.933 42.5471 287.845 43.0431 287.845 43.6031V48.3071C287.845 48.5631 287.813 48.8031 287.749 49.0271C287.701 49.2511 287.573 49.4191 287.365 49.5311C287.173 49.6591 286.845 49.7231 286.381 49.7231ZM310.607 49.5791C309.823 49.5791 309.119 49.4351 308.495 49.1471C307.887 48.8431 307.367 48.4271 306.935 47.8991C306.519 47.3551 306.199 46.7311 305.975 46.0271C305.767 45.3231 305.663 44.5631 305.663 43.7471C305.679 42.9311 305.799 42.1711 306.023 41.4671C306.247 40.7471 306.567 40.1231 306.983 39.5951C307.415 39.0671 307.935 38.6511 308.543 38.3471C309.151 38.0431 309.839 37.8911 310.607 37.8911C311.343 37.8911 312.031 38.0431 312.671 38.3471C313.327 38.6511 313.903 39.0751 314.399 39.6191C314.911 40.1631 315.311 40.7951 315.599 41.5151C315.887 42.2191 316.031 42.9791 316.031 43.7951C316.031 44.6271 315.887 45.3951 315.599 46.0991C315.311 46.8031 314.919 47.4191 314.423 47.9471C313.927 48.4591 313.351 48.8591 312.695 49.1471C312.039 49.4351 311.343 49.5791 310.607 49.5791ZM305.807 54.5711C305.375 54.5711 305.055 54.5071 304.847 54.3791C304.639 54.2511 304.511 54.0831 304.463 53.8751C304.415 53.6671 304.391 53.4271 304.391 53.1551V39.3551C304.391 39.0831 304.415 38.8431 304.463 38.6351C304.511 38.4271 304.631 38.2591 304.823 38.1311C305.031 37.9871 305.351 37.9151 305.783 37.9151C306.199 37.9151 306.527 37.9791 306.767 38.1071C307.007 38.2351 307.167 38.4511 307.247 38.7551V53.1311C307.263 53.4031 307.239 53.6431 307.175 53.8511C307.127 54.0751 306.999 54.2511 306.791 54.3791C306.583 54.5071 306.255 54.5711 305.807 54.5711ZM310.223 46.8911C310.783 46.8911 311.287 46.7631 311.735 46.5071C312.183 46.2351 312.535 45.8671 312.791 45.4031C313.063 44.9231 313.199 44.3871 313.199 43.7951C313.199 43.1871 313.063 42.6511 312.791 42.1871C312.535 41.7231 312.183 41.3631 311.735 41.1071C311.287 40.8351 310.783 40.6991 310.223 40.6991C309.679 40.6991 309.183 40.8351 308.735 41.1071C308.287 41.3791 307.927 41.7471 307.655 42.2111C307.399 42.6591 307.271 43.1871 307.271 43.7951C307.271 44.3871 307.399 44.9231 307.655 45.4031C307.927 45.8671 308.287 46.2351 308.735 46.5071C309.183 46.7631 309.679 46.8911 310.223 46.8911ZM327.899 49.6991C327.435 49.6991 327.091 49.6111 326.867 49.4351C326.643 49.2591 326.531 49.0191 326.531 48.7151L326.699 47.9231C326.571 48.1311 326.355 48.3791 326.051 48.6671C325.747 48.9391 325.347 49.1871 324.851 49.4111C324.355 49.6191 323.755 49.7231 323.051 49.7231C322.299 49.7231 321.587 49.5711 320.915 49.2671C320.259 48.9471 319.675 48.5151 319.163 47.9711C318.667 47.4111 318.267 46.7791 317.963 46.0751C317.675 45.3551 317.531 44.5871 317.531 43.7711C317.531 42.9871 317.675 42.2511 317.963 41.5631C318.267 40.8591 318.675 40.2351 319.187 39.6911C319.699 39.1471 320.283 38.7231 320.939 38.4191C321.611 38.0991 322.315 37.9391 323.051 37.9391C323.707 37.9391 324.259 38.0271 324.707 38.2031C325.171 38.3791 325.563 38.6031 325.883 38.8751C326.203 39.1311 326.467 39.4031 326.675 39.6911L326.531 38.9951C326.531 38.6431 326.643 38.3791 326.867 38.2031C327.091 38.0111 327.443 37.9151 327.923 37.9151C328.371 37.9151 328.691 37.9871 328.883 38.1311C329.075 38.2591 329.195 38.4431 329.243 38.6831C329.291 38.9071 329.315 39.1631 329.315 39.4511V48.2351C329.315 48.5071 329.291 48.7551 329.243 48.9791C329.195 49.2031 329.067 49.3791 328.859 49.5071C328.667 49.6351 328.347 49.6991 327.899 49.6991ZM323.483 46.9151C324.027 46.9151 324.515 46.7791 324.947 46.5071C325.379 46.2351 325.723 45.8671 325.979 45.4031C326.251 44.9231 326.387 44.3951 326.387 43.8191C326.387 43.1951 326.251 42.6511 325.979 42.1871C325.707 41.7231 325.347 41.3631 324.899 41.1071C324.467 40.8351 323.979 40.6991 323.435 40.6991C322.843 40.6991 322.315 40.8431 321.851 41.1311C321.387 41.4031 321.019 41.7791 320.747 42.2591C320.491 42.7231 320.363 43.2511 320.363 43.8431C320.363 44.4191 320.499 44.9391 320.771 45.4031C321.043 45.8671 321.411 46.2351 321.875 46.5071C322.355 46.7791 322.891 46.9151 323.483 46.9151ZM341.131 47.1551C341.547 47.5071 341.763 47.8351 341.779 48.1391C341.811 48.4431 341.651 48.7951 341.299 49.1951C341.027 49.4991 340.787 49.6991 340.579 49.7951C340.371 49.8911 340.163 49.8911 339.955 49.7951C339.747 49.7151 339.499 49.5551 339.211 49.3151L334.627 45.4511V48.3071C334.627 48.5631 334.595 48.8031 334.531 49.0271C334.483 49.2511 334.355 49.4271 334.147 49.5551C333.955 49.6831 333.635 49.7471 333.187 49.7471C332.739 49.7471 332.411 49.6751 332.203 49.5311C332.011 49.4031 331.891 49.2271 331.843 49.0031C331.795 48.7791 331.771 48.5391 331.771 48.2831V33.9551C331.771 33.6831 331.795 33.4431 331.843 33.2351C331.907 33.0111 332.035 32.8351 332.227 32.7071C332.435 32.5631 332.763 32.4911 333.211 32.4911C333.659 32.4911 333.979 32.5631 334.171 32.7071C334.363 32.8351 334.483 33.0111 334.531 33.2351C334.595 33.4431 334.627 33.6911 334.627 33.9791V41.8511L337.939 38.6351C338.195 38.3951 338.435 38.2351 338.659 38.1551C338.883 38.0591 339.099 38.0511 339.307 38.1311C339.531 38.1951 339.763 38.3631 340.003 38.6351C340.403 39.0671 340.595 39.4271 340.579 39.7151C340.563 39.9871 340.363 40.3151 339.979 40.6991L336.739 43.6991L341.131 47.1551ZM167.663 78.8911C167.247 78.8911 166.807 78.8431 166.343 78.7471C165.879 78.6671 165.431 78.5471 164.999 78.3871C164.567 78.2111 164.191 78.0111 163.871 77.7871C163.567 77.5471 163.375 77.2831 163.295 76.9951C163.231 76.8351 163.207 76.6831 163.223 76.5391C163.239 76.3791 163.287 76.2191 163.367 76.0591C163.447 75.8831 163.567 75.7071 163.727 75.5311C163.871 75.3551 164.015 75.2591 164.159 75.2431C164.319 75.2111 164.519 75.2591 164.759 75.3871C164.967 75.4671 165.191 75.5711 165.431 75.6991C165.687 75.8271 165.943 75.9551 166.199 76.0831C166.471 76.2111 166.743 76.3151 167.015 76.3951C167.303 76.4751 167.583 76.5151 167.855 76.5151C168.447 76.5151 168.919 76.4191 169.271 76.2271C169.623 76.0191 169.799 75.7311 169.799 75.3631C169.799 75.1551 169.743 74.9711 169.631 74.8111C169.519 74.6511 169.367 74.5231 169.175 74.4271C168.999 74.3151 168.783 74.2191 168.527 74.1391C168.287 74.0431 168.023 73.9631 167.735 73.8991C167.463 73.8191 167.175 73.7311 166.871 73.6351C166.471 73.5231 166.071 73.3871 165.671 73.2271C165.271 73.0671 164.911 72.8591 164.591 72.6031C164.287 72.3471 164.039 72.0271 163.847 71.6431C163.655 71.2591 163.559 70.7791 163.559 70.2031C163.559 69.4831 163.727 68.8751 164.063 68.3791C164.415 67.8671 164.919 67.4751 165.575 67.2031C166.231 66.9311 167.023 66.7951 167.951 66.7951C168.271 66.7951 168.575 66.8191 168.863 66.8671C169.167 66.9151 169.455 66.9871 169.727 67.0831C170.015 67.1631 170.287 67.2671 170.543 67.3951C170.815 67.5231 171.071 67.6671 171.311 67.8271C171.711 68.0511 171.919 68.3151 171.935 68.6191C171.951 68.9071 171.839 69.2191 171.599 69.5551C171.423 69.7791 171.247 69.9391 171.071 70.0351C170.895 70.1151 170.711 70.1151 170.519 70.0351C170.263 69.9071 169.983 69.7711 169.679 69.6271C169.391 69.4671 169.087 69.3311 168.767 69.2191C168.463 69.1071 168.143 69.0511 167.807 69.0511C167.487 69.0511 167.199 69.0991 166.943 69.1951C166.687 69.2911 166.495 69.4271 166.367 69.6031C166.239 69.7791 166.175 69.9871 166.175 70.2271C166.175 70.4511 166.239 70.6351 166.367 70.7791C166.495 70.9231 166.663 71.0431 166.871 71.1391C167.079 71.2351 167.327 71.3231 167.615 71.4031C167.903 71.4671 168.207 71.5311 168.527 71.5951C168.975 71.6911 169.431 71.8111 169.895 71.9551C170.359 72.0991 170.783 72.2991 171.167 72.5551C171.567 72.8111 171.887 73.1551 172.127 73.5871C172.367 74.0031 172.487 74.5471 172.487 75.2191C172.487 76.3871 172.055 77.2911 171.191 77.9311C170.343 78.5711 169.167 78.8911 167.663 78.8911ZM180.095 78.8911C179.327 78.8911 178.575 78.7471 177.839 78.4591C177.119 78.1551 176.463 77.7311 175.871 77.1871C175.295 76.6431 174.831 76.0031 174.479 75.2671C174.143 74.5311 173.975 73.7231 173.975 72.8431C173.975 71.9951 174.135 71.2031 174.455 70.4671C174.775 69.7311 175.215 69.0831 175.775 68.5231C176.335 67.9631 176.975 67.5311 177.695 67.2271C178.431 66.9071 179.215 66.7471 180.047 66.7471C181.167 66.7471 182.183 67.0191 183.095 67.5631C184.007 68.0911 184.735 68.8111 185.279 69.7231C185.823 70.6351 186.095 71.6671 186.095 72.8191C186.095 73.7311 185.927 74.5631 185.591 75.3151C185.255 76.0511 184.799 76.6911 184.223 77.2351C183.647 77.7631 182.999 78.1711 182.279 78.4591C181.575 78.7471 180.847 78.8911 180.095 78.8911ZM180.047 76.0591C180.575 76.0591 181.079 75.9311 181.559 75.6751C182.055 75.4031 182.455 75.0191 182.759 74.5231C183.079 74.0271 183.239 73.4431 183.239 72.7711C183.239 72.1471 183.095 71.5951 182.807 71.1151C182.535 70.6351 182.159 70.2591 181.679 69.9871C181.199 69.7151 180.647 69.5791 180.023 69.5791C179.431 69.5791 178.895 69.7231 178.415 70.0111C177.935 70.2831 177.551 70.6671 177.263 71.1631C176.991 71.6431 176.855 72.1871 176.855 72.7951C176.855 73.4671 177.007 74.0511 177.311 74.5471C177.615 75.0271 178.007 75.4031 178.487 75.6751C178.983 75.9311 179.503 76.0591 180.047 76.0591ZM192.085 78.8911C191.669 78.8911 191.229 78.8431 190.765 78.7471C190.301 78.6671 189.853 78.5471 189.421 78.3871C188.989 78.2111 188.613 78.0111 188.293 77.7871C187.989 77.5471 187.797 77.2831 187.717 76.9951C187.653 76.8351 187.629 76.6831 187.645 76.5391C187.661 76.3791 187.709 76.2191 187.789 76.0591C187.869 75.8831 187.989 75.7071 188.149 75.5311C188.293 75.3551 188.437 75.2591 188.581 75.2431C188.741 75.2111 188.941 75.2591 189.181 75.3871C189.389 75.4671 189.613 75.5711 189.853 75.6991C190.109 75.8271 190.365 75.9551 190.621 76.0831C190.893 76.2111 191.165 76.3151 191.437 76.3951C191.725 76.4751 192.005 76.5151 192.277 76.5151C192.869 76.5151 193.341 76.4191 193.693 76.2271C194.045 76.0191 194.221 75.7311 194.221 75.3631C194.221 75.1551 194.165 74.9711 194.053 74.8111C193.941 74.6511 193.789 74.5231 193.597 74.4271C193.421 74.3151 193.205 74.2191 192.949 74.1391C192.709 74.0431 192.445 73.9631 192.157 73.8991C191.885 73.8191 191.597 73.7311 191.293 73.6351C190.893 73.5231 190.493 73.3871 190.093 73.2271C189.693 73.0671 189.333 72.8591 189.013 72.6031C188.709 72.3471 188.461 72.0271 188.269 71.6431C188.077 71.2591 187.981 70.7791 187.981 70.2031C187.981 69.4831 188.149 68.8751 188.485 68.3791C188.837 67.8671 189.341 67.4751 189.997 67.2031C190.653 66.9311 191.445 66.7951 192.373 66.7951C192.693 66.7951 192.997 66.8191 193.285 66.8671C193.589 66.9151 193.877 66.9871 194.149 67.0831C194.437 67.1631 194.709 67.2671 194.965 67.3951C195.237 67.5231 195.493 67.6671 195.733 67.8271C196.133 68.0511 196.341 68.3151 196.357 68.6191C196.373 68.9071 196.261 69.2191 196.021 69.5551C195.845 69.7791 195.669 69.9391 195.493 70.0351C195.317 70.1151 195.133 70.1151 194.941 70.0351C194.685 69.9071 194.405 69.7711 194.101 69.6271C193.813 69.4671 193.509 69.3311 193.189 69.2191C192.885 69.1071 192.565 69.0511 192.229 69.0511C191.909 69.0511 191.621 69.0991 191.365 69.1951C191.109 69.2911 190.917 69.4271 190.789 69.6031C190.661 69.7791 190.597 69.9871 190.597 70.2271C190.597 70.4511 190.661 70.6351 190.789 70.7791C190.917 70.9231 191.085 71.0431 191.293 71.1391C191.501 71.2351 191.749 71.3231 192.037 71.4031C192.325 71.4671 192.629 71.5311 192.949 71.5951C193.397 71.6911 193.853 71.8111 194.317 71.9551C194.781 72.0991 195.205 72.2991 195.589 72.5551C195.989 72.8111 196.309 73.1551 196.549 73.5871C196.789 74.0031 196.909 74.5471 196.909 75.2191C196.909 76.3871 196.477 77.2911 195.613 77.9311C194.765 78.5711 193.589 78.8911 192.085 78.8911ZM200.532 78.7471C200.1 78.7471 199.78 78.6751 199.572 78.5311C199.364 78.4031 199.236 78.2351 199.188 78.0271C199.14 77.8031 199.116 77.5551 199.116 77.2831V68.3551C199.116 68.0991 199.14 67.8671 199.188 67.6591C199.252 67.4351 199.38 67.2591 199.572 67.1311C199.78 67.0031 200.108 66.9391 200.556 66.9391C201.004 66.9391 201.324 67.0031 201.516 67.1311C201.724 67.2591 201.852 67.4351 201.9 67.6591C201.948 67.8831 201.972 68.1311 201.972 68.4031V77.3071C201.972 77.5791 201.948 77.8271 201.9 78.0511C201.852 78.2591 201.724 78.4271 201.516 78.5551C201.324 78.6831 200.996 78.7471 200.532 78.7471ZM200.532 64.6111C200.068 64.6111 199.724 64.5471 199.5 64.4191C199.292 64.2751 199.156 64.0831 199.092 63.8431C199.044 63.6031 199.02 63.3391 199.02 63.0511C199.02 62.7471 199.044 62.4831 199.092 62.2591C199.156 62.0351 199.3 61.8591 199.524 61.7311C199.748 61.5871 200.092 61.5151 200.556 61.5151C201.036 61.5151 201.38 61.5871 201.588 61.7311C201.796 61.8751 201.932 62.0671 201.996 62.3071C202.06 62.5311 202.092 62.7951 202.092 63.0991C202.092 63.3711 202.06 63.6271 201.996 63.8671C201.932 64.1071 201.796 64.2911 201.588 64.4191C201.38 64.5471 201.028 64.6111 200.532 64.6111ZM214.204 78.6991C213.74 78.6991 213.396 78.6111 213.172 78.4351C212.948 78.2591 212.836 78.0191 212.836 77.7151L213.004 76.9231C212.876 77.1311 212.66 77.3791 212.356 77.6671C212.052 77.9391 211.652 78.1871 211.156 78.4111C210.66 78.6191 210.06 78.7231 209.356 78.7231C208.604 78.7231 207.892 78.5711 207.22 78.2671C206.564 77.9471 205.98 77.5151 205.468 76.9711C204.972 76.4111 204.572 75.7791 204.268 75.0751C203.98 74.3551 203.836 73.5871 203.836 72.7711C203.836 71.9871 203.98 71.2511 204.268 70.5631C204.572 69.8591 204.98 69.2351 205.492 68.6911C206.004 68.1471 206.588 67.7231 207.244 67.4191C207.916 67.0991 208.62 66.9391 209.356 66.9391C210.012 66.9391 210.564 67.0271 211.012 67.2031C211.476 67.3791 211.868 67.6031 212.188 67.8751C212.508 68.1311 212.772 68.4031 212.98 68.6911L212.836 67.9951C212.836 67.6431 212.948 67.3791 213.172 67.2031C213.396 67.0111 213.748 66.9151 214.228 66.9151C214.676 66.9151 214.996 66.9871 215.188 67.1311C215.38 67.2591 215.5 67.4431 215.548 67.6831C215.596 67.9071 215.62 68.1631 215.62 68.4511V77.2351C215.62 77.5071 215.596 77.7551 215.548 77.9791C215.5 78.2031 215.372 78.3791 215.164 78.5071C214.972 78.6351 214.652 78.6991 214.204 78.6991ZM209.788 75.9151C210.332 75.9151 210.82 75.7791 211.252 75.5071C211.684 75.2351 212.028 74.8671 212.284 74.4031C212.556 73.9231 212.692 73.3951 212.692 72.8191C212.692 72.1951 212.556 71.6511 212.284 71.1871C212.012 70.7231 211.652 70.3631 211.204 70.1071C210.772 69.8351 210.284 69.6991 209.74 69.6991C209.148 69.6991 208.62 69.8431 208.156 70.1311C207.692 70.4031 207.324 70.7791 207.052 71.2591C206.796 71.7231 206.668 72.2511 206.668 72.8431C206.668 73.4191 206.804 73.9391 207.076 74.4031C207.348 74.8671 207.716 75.2351 208.18 75.5071C208.66 75.7791 209.196 75.9151 209.788 75.9151ZM222.156 78.7471C221.564 78.7471 221.036 78.7071 220.572 78.6271C220.124 78.5471 219.732 78.4111 219.396 78.2191C219.076 78.0271 218.812 77.7711 218.604 77.4511C218.396 77.1151 218.236 76.7071 218.124 76.2271C218.028 75.7471 217.98 75.1711 217.98 74.4991V62.9311C217.98 62.6591 218.004 62.4191 218.052 62.2111C218.116 61.9871 218.244 61.8111 218.436 61.6831C218.644 61.5391 218.972 61.4671 219.42 61.4671C219.868 61.4671 220.188 61.5311 220.38 61.6591C220.588 61.7871 220.716 61.9631 220.764 62.1871C220.828 62.3951 220.86 62.6351 220.86 62.9071V74.3791C220.86 74.6831 220.876 74.9391 220.908 75.1471C220.956 75.3391 221.028 75.4991 221.124 75.6271C221.236 75.7391 221.372 75.8191 221.532 75.8671C221.708 75.9151 221.916 75.9391 222.156 75.9391C222.364 75.9391 222.548 75.9631 222.708 76.0111C222.884 76.0591 223.02 76.1791 223.116 76.3711C223.228 76.5631 223.284 76.8751 223.284 77.3071C223.284 77.7551 223.228 78.0831 223.116 78.2911C223.02 78.4991 222.884 78.6271 222.708 78.6751C222.532 78.7231 222.348 78.7471 222.156 78.7471Z" fill="black"/>
</svg>
