<svg width="336" height="108" viewBox="0 0 336 108" fill="none" xmlns="http://www.w3.org/2000/svg">
<mask id="mask0_61_1623" style="mask-type:luminance" maskUnits="userSpaceOnUse" x="0" y="0" width="336" height="108">
<path d="M336 0H0V108H336V0Z" fill="white"/>
</mask>
<g mask="url(#mask0_61_1623)">
<mask id="mask1_61_1623" style="mask-type:luminance" maskUnits="userSpaceOnUse" x="7" y="8" width="327" height="100">
<path d="M7.84424 8.3999H333.385V107.419H7.84424V8.3999Z" fill="white"/>
</mask>
<g mask="url(#mask1_61_1623)">
<path d="M13.2627 65.1468L10.413 56.1234L14.9429 46.6874L10.9493 37.2562L8.21191 27.8203L10.1679 17.4187L22.057 16.4109L32.9094 14.0343L43.966 19.3265L54.6959 12.375L65.8036 19.5375L76.6304 16.1671L87.6667 20.6109L98.5803 20.4093L109.54 21.9093L120.387 19.2796L130.719 15.3984L141.096 13.1062L151.474 10.889L161.938 11.8921L172.468 15.4125L182.984 18.3093L193.412 18.0656L203.616 9.27651L214.254 16.8187L224.703 17.2546L234.983 11.2312L245.351 8.58276L256.121 11.6156L267.28 13.289L275.895 21.0562L286.748 22.8656L295.946 29.1046L309.367 24.0375L319.371 28.1015L332.931 33.4593L325.479 45.3046L325.214 55.8843L314.464 62.8734L310.695 72.2531L313.989 84.0562L308.759 92.939L306.088 104.377L290.517 98.7703L280.002 105.689L268.991 98.9906L258.537 107.841L247.49 99.8718L236.766 101.189L225.964 100.223L215.413 107.039L204.586 105.309L193.892 109.102L183.418 103.069L172.387 107.752L162.188 104.442L151.811 103.795L141.377 104.255L130.959 104.372L120.816 99.4874L110.372 100.083L100.25 94.6312L89.2703 105.084L79.4342 94.3499L68.5103 103.884L58.4955 96.5203L48.3019 92.2078L37.5006 99.6515L22.8997 100.397L24.7535 88.3265L19.146 81.2062L9.24864 75.2203L13.2627 65.1468Z" fill="black"/>
<path d="M13.2627 65.1468L10.413 56.1234L14.9429 46.6874L10.9493 37.2562L8.21191 27.8203L10.1679 17.4187L22.057 16.4109L32.9094 14.0343L43.966 19.3265L54.6959 12.375L65.8036 19.5375L76.6304 16.1671L87.6667 20.6109L98.5803 20.4093L109.54 21.9093L120.387 19.2796L130.719 15.3984L141.096 13.1062L151.474 10.889L161.938 11.8921L172.468 15.4125L182.984 18.3093L193.412 18.0656L203.616 9.27651L214.254 16.8187L224.703 17.2546L234.983 11.2312L245.351 8.58276L256.121 11.6156L267.28 13.289L275.895 21.0562L286.748 22.8656L295.946 29.1046L309.367 24.0375L319.371 28.1015L332.931 33.4593L325.479 45.3046L325.214 55.8843L314.464 62.8734L310.695 72.2531L313.989 84.0562L308.759 92.939L306.088 104.377L290.517 98.7703L280.002 105.689L268.991 98.9906L258.537 107.841L247.49 99.8718L236.766 101.189L225.964 100.223L215.413 107.039L204.586 105.309L193.892 109.102L183.418 103.069L172.387 107.752L162.188 104.442L151.811 103.795L141.377 104.255L130.959 104.372L120.816 99.4874L110.372 100.083L100.25 94.6312L89.2703 105.084L79.4342 94.3499L68.5103 103.884L58.4955 96.5203L48.3019 92.2078L37.5006 99.6515L22.8997 100.397L24.7535 88.3265L19.146 81.2062L9.24864 75.2203L13.2627 65.1468Z" fill="black"/>
</g>
<mask id="mask2_61_1623" style="mask-type:luminance" maskUnits="userSpaceOnUse" x="6" y="7" width="328" height="101">
<path d="M6.53711 7.19995H333.973V107.419H6.53711V7.19995Z" fill="white"/>
</mask>
<g mask="url(#mask2_61_1623)">
<path d="M193.821 109.786L183.372 103.777L172.423 108.427L162.051 105.061L151.806 104.391L141.408 104.845L130.801 104.967L120.669 100.083L110.215 100.697L100.368 95.3954L89.2401 105.989L79.3836 95.2314L68.5516 104.695L58.1334 97.0642L48.3892 92.9345L37.7258 100.261L22.1034 101.058L24.0543 88.5142L18.646 81.6517L8.44221 75.4642L12.5636 65.1282L9.70875 56.0813L14.2233 46.6688L10.3012 37.4157L7.52295 27.8485L9.59639 16.8563L21.9809 15.8017L32.9967 13.411L43.9104 18.6329L54.6963 11.6251L65.9113 18.8579L76.6616 15.5063L87.7999 19.9923L98.6217 19.7907L109.5 21.2907L120.163 18.6985L130.556 14.7985L140.923 12.5063L151.418 10.2751L162.153 11.3157L172.678 14.836L183.071 17.686L193.142 17.4563L203.571 8.46572L214.5 16.2095L224.499 16.622L234.682 10.6642L245.346 7.93604L256.265 10.9876L267.592 12.6845L276.218 20.4563L287.014 22.2517L296.028 28.3595L309.357 23.3298L319.632 27.497L333.886 33.1642L326.149 45.4735L325.888 56.2079L315.026 63.2673L311.4 72.2907L314.73 84.136L309.398 93.1548L306.558 105.216L290.599 99.4642L280.002 106.434L269.048 99.7689L258.573 108.666L247.307 100.533L236.781 101.831L226.118 100.87L215.567 107.686L204.653 105.947L193.821 109.786ZM183.469 102.375L193.969 108.417L204.515 104.677L215.255 106.392L225.786 99.5907L236.756 100.58L247.68 99.2298L258.502 107.039L268.925 98.2173L279.987 104.934L290.425 98.072L305.593 103.528L308.126 92.7142L313.279 83.9673L310.001 72.211L313.892 62.4845L324.556 55.5423L324.816 45.1642L331.981 33.7454L319.111 28.6782L309.352 24.7126L295.849 29.8126L286.473 23.4423L275.574 21.6142L266.959 13.8563L255.907 12.1923L245.325 9.20635L235.249 11.7985L224.872 17.9063L213.999 17.4563L203.647 10.1251L193.648 18.7126L182.852 18.9704L172.234 16.0454L161.785 12.497L151.515 11.5126L141.275 13.7063L130.929 15.9751L120.561 19.8704L109.581 22.5329L98.5349 21.0188L87.5344 21.2298L76.6309 16.8235L65.7019 20.222L54.6963 13.1204L44.0329 20.0438L32.8384 14.6813L22.1188 17.0157L10.7404 17.986L8.89163 27.7923L11.5881 37.0642L15.6686 46.7017L11.1285 56.1517L13.9833 65.1704L10.0765 74.9767L19.6317 80.7517L25.4639 88.172L23.6866 99.7407L37.2764 99.0517L48.236 91.5001L58.8994 96.0376L68.4699 103.069L79.4806 93.4595L89.2912 104.17L100.123 93.8579L110.521 99.4642L120.95 98.8501L131.107 103.734L141.357 103.622L151.806 103.158L162.311 103.814L172.306 107.063L183.469 102.375Z" fill="black"/>
</g>
<mask id="mask3_61_1623" style="mask-type:luminance" maskUnits="userSpaceOnUse" x="2" y="0" width="327" height="102">
<path d="M2.61475 0.975098H328.156V102H2.61475V0.975098Z" fill="white"/>
</mask>
<g mask="url(#mask3_61_1623)">
<path d="M8.21729 57.0561L5.37269 48.0279L9.89749 38.592L5.90382 29.1607L3.15625 19.7248L5.12245 9.32793L17.0064 8.31543L27.8639 5.94355L38.9206 11.2311L49.6504 4.27949L60.753 11.4467L71.585 8.06699L82.6212 12.5201L93.5298 12.3139L104.495 13.8232L115.342 11.1889L125.673 7.29824L136.051 5.01074L146.428 2.79824L156.892 3.80137L167.423 7.31699L177.933 10.2139L188.367 9.97012L198.566 1.18105L209.209 8.72793L219.657 9.16387L229.938 3.14043L240.305 0.487305L251.076 3.5248L262.235 5.19355L270.85 12.9654L281.702 14.7748L290.9 21.0092L304.316 15.942L314.326 20.0061L327.885 25.3592L320.434 37.2139L320.168 47.7936L309.418 54.7779L305.649 64.1623L308.948 75.9607L303.714 84.8436L301.038 96.2811L285.471 90.6795L274.956 97.5982L263.945 90.8998L253.491 99.7498L242.44 91.7764L231.715 93.0982L220.919 92.1279L210.363 98.9436L199.541 97.2232L188.847 101.011L178.372 94.9732L167.341 99.6561L157.138 96.3561L146.77 95.6998L136.332 96.1639L125.913 96.2811L115.771 91.392L105.327 91.9873L95.2049 86.5404L84.2248 96.9889L74.3887 86.2592L63.4649 95.7842L53.4449 88.4201L43.2616 84.1123L32.4551 91.5607L17.8491 92.3014L19.708 80.2357L14.1006 73.1107L4.20319 67.1248L8.21729 57.0561Z" fill="white"/>
</g>
<mask id="mask4_61_1623" style="mask-type:luminance" maskUnits="userSpaceOnUse" x="0" y="0" width="333" height="105">
<path d="M0.566895 0.975098H332.078V104.4H0.566895V0.975098Z" fill="white"/>
</mask>
<g mask="url(#mask4_61_1623)">
<path d="M188.597 103.509L178.204 97.5281L167.484 102.08L156.652 98.5688L146.755 97.9594L136.372 98.4141L125.336 98.5406L115.25 93.6563L104.74 94.2656L95.6441 89.3813L84.1227 100.373L74.2049 89.5594L63.6078 98.7703L52.1426 90.3469L43.5577 86.7188L33.308 93.7641L14.979 94.6922L17.1137 80.8125L12.3488 74.7563L1.21047 68.0391L5.61271 56.9953L2.77322 47.8688L7.24184 38.5453L3.52905 29.7375L0.653809 19.8281L3.03367 7.25156L16.6081 6.08438L28.1857 3.5625L38.7265 8.60625L49.6453 1.52813L61.1463 8.94844L71.6973 5.6625L83.1115 10.2609L93.6932 10.0641L104.357 11.5313L114.56 9.05156L124.912 5.15625L135.479 2.83125L146.27 0.520313L157.444 1.59844L168.194 5.18906L178.265 7.95938L187.371 7.74375L198.412 -1.76719L210.097 6.51094L218.994 6.88594L228.922 1.06406L240.341 -1.85156L251.638 1.33594L263.394 3.09375L272.055 10.8797L282.719 12.6563L291.232 18.45L304.342 13.4953L315.307 17.9531L331.373 24.3L322.87 37.8375L322.594 48.9703L311.461 56.2078L308.213 64.2797L311.548 76.2516L306.027 85.6313L302.815 99.3422L285.808 93.2344L274.997 100.345L264.18 93.7641L253.604 102.717L241.725 94.1672L231.73 95.3906L221.552 94.4813L210.889 101.348L199.725 99.5719L188.597 103.509ZM178.551 92.4234L189.107 98.5266L199.26 94.9031L209.755 96.5719L220.224 89.8125L231.649 90.8391L243.119 89.4234L253.338 96.8016L263.665 88.05L274.874 94.8703L285.099 88.1531L299.23 93.2297L301.375 84.0703L306.334 75.6938L303.085 64.0922L307.38 53.4L317.753 46.6828L317.998 36.6141L324.387 26.4563L313.351 22.1016L304.281 18.4359L290.563 23.5641L280.701 16.8844L269.67 15.0563L261.065 7.30781L250.519 5.71875L240.274 2.83125L230.944 5.2125L220.326 11.4328L208.33 10.9406L198.724 4.12969L189.363 12.1922L177.606 12.4641L166.58 9.4125L156.331 5.98594L146.607 5.07188L136.612 7.20469L126.434 9.44531L116.123 13.3219L104.622 16.1109L93.3715 14.5641L82.1207 14.775L71.4573 10.5L60.37 13.9359L49.6504 7.02656L39.1147 13.8563L27.5371 8.32031L17.4048 10.5375L7.21631 11.4047L5.66378 19.6266L8.23771 28.4625L12.548 38.6484L7.98236 48.2156L10.8065 57.1688L7.17035 66.2297L15.8318 71.4656L22.2769 79.6547L20.6988 89.9063L31.5818 89.3578L42.9653 81.5109L54.7472 86.4984L63.3014 92.7891L74.5879 83.0203L84.3525 93.6609L94.7759 83.7328L105.955 89.7375L116.338 89.1234L126.506 94.0078L136.26 93.9L146.796 93.4359L157.643 94.1109L167.214 97.2141L178.551 92.4234Z" fill="black"/>
<path d="M188.597 103.509L178.204 97.5281L167.484 102.08L156.652 98.5688L146.755 97.9594L136.372 98.4141L125.336 98.5406L115.25 93.6563L104.74 94.2656L95.6441 89.3813L84.1227 100.373L74.2049 89.5594L63.6078 98.7703L52.1426 90.3469L43.5577 86.7188L33.308 93.7641L14.979 94.6922L17.1137 80.8125L12.3488 74.7563L1.21047 68.0391L5.61271 56.9953L2.77322 47.8688L7.24184 38.5453L3.52905 29.7375L0.653809 19.8281L3.03367 7.25156L16.6081 6.08438L28.1857 3.5625L38.7265 8.60625L49.6453 1.52813L61.1463 8.94844L71.6973 5.6625L83.1115 10.2609L93.6932 10.0641L104.357 11.5313L114.56 9.05156L124.912 5.15625L135.479 2.83125L146.27 0.520313L157.444 1.59844L168.194 5.18906L178.265 7.95938L187.371 7.74375L198.412 -1.76719L210.097 6.51094L218.994 6.88594L228.922 1.06406L240.341 -1.85156L251.638 1.33594L263.394 3.09375L272.055 10.8797L282.719 12.6563L291.232 18.45L304.342 13.4953L315.307 17.9531L331.373 24.3L322.87 37.8375L322.594 48.9703L311.461 56.2078L308.213 64.2797L311.548 76.2516L306.027 85.6313L302.815 99.3422L285.808 93.2344L274.997 100.345L264.18 93.7641L253.604 102.717L241.725 94.1672L231.73 95.3906L221.552 94.4813L210.889 101.348L199.725 99.5719L188.597 103.509ZM178.551 92.4234L189.107 98.5266L199.26 94.9031L209.755 96.5719L220.224 89.8125L231.649 90.8391L243.119 89.4234L253.338 96.8016L263.665 88.05L274.874 94.8703L285.099 88.1531L299.23 93.2297L301.375 84.0703L306.334 75.6938L303.085 64.0922L307.38 53.4L317.753 46.6828L317.998 36.6141L324.387 26.4563L313.351 22.1016L304.281 18.4359L290.563 23.5641L280.701 16.8844L269.67 15.0563L261.065 7.30781L250.519 5.71875L240.274 2.83125L230.944 5.2125L220.326 11.4328L208.33 10.9406L198.724 4.12969L189.363 12.1922L177.606 12.4641L166.58 9.4125L156.331 5.98594L146.607 5.07188L136.612 7.20469L126.434 9.44531L116.123 13.3219L104.622 16.1109L93.3715 14.5641L82.1207 14.775L71.4573 10.5L60.37 13.9359L49.6504 7.02656L39.1147 13.8563L27.5371 8.32031L17.4048 10.5375L7.21631 11.4047L5.66378 19.6266L8.23771 28.4625L12.548 38.6484L7.98236 48.2156L10.8065 57.1688L7.17035 66.2297L15.8318 71.4656L22.2769 79.6547L20.6988 89.9063L31.5818 89.3578L42.9653 81.5109L54.7472 86.4984L63.3014 92.7891L74.5879 83.0203L84.3525 93.6609L94.7759 83.7328L105.955 89.7375L116.338 89.1234L126.506 94.0078L136.26 93.9L146.796 93.4359L157.643 94.1109L167.214 97.2141L178.551 92.4234Z" fill="black"/>
</g>
</g>
<path d="M64.7638 61.439C64.2412 61.439 63.8585 61.3643 63.6158 61.215C63.3732 61.0657 63.2238 60.8603 63.1678 60.599C63.1118 60.319 63.0838 60.0297 63.0838 59.731V43.575C63.0838 43.2763 63.1118 43.0057 63.1678 42.763C63.2425 42.5017 63.4012 42.2963 63.6438 42.147C63.8865 41.979 64.2692 41.895 64.7918 41.895H70.7278C71.5492 41.895 72.3518 42.035 73.1358 42.315C73.9198 42.595 74.6198 43.015 75.2358 43.575C75.8705 44.135 76.3652 44.8257 76.7198 45.647C77.0932 46.4683 77.2798 47.4297 77.2798 48.531C77.2798 49.6137 77.0932 50.5657 76.7198 51.387C76.3652 52.1897 75.8705 52.871 75.2358 53.431C74.6012 53.991 73.8918 54.411 73.1078 54.691C72.3425 54.971 71.5398 55.111 70.6998 55.111H66.4718V59.759C66.4718 60.0577 66.4345 60.3377 66.3598 60.599C66.3038 60.8603 66.1545 61.0657 65.9118 61.215C65.6878 61.3643 65.3052 61.439 64.7638 61.439ZM66.4718 51.695H70.7278C71.3065 51.695 71.8292 51.583 72.2958 51.359C72.7812 51.1163 73.1732 50.7617 73.4718 50.295C73.7705 49.8097 73.9198 49.203 73.9198 48.475C73.9198 47.8217 73.7798 47.2617 73.4998 46.795C73.2385 46.3097 72.8652 45.9363 72.3798 45.675C71.9132 45.4137 71.3532 45.283 70.6998 45.283H66.4718V51.695ZM86.3415 61.635C85.1282 61.635 84.0642 61.439 83.1495 61.047C82.2535 60.655 81.4975 60.123 80.8815 59.451C80.2842 58.7603 79.8269 57.995 79.5095 57.155C79.2109 56.2963 79.0615 55.4097 79.0615 54.495C79.0615 53.151 79.3695 51.9563 79.9855 50.911C80.6015 49.8657 81.4509 49.0443 82.5335 48.447C83.6349 47.8497 84.8949 47.551 86.3135 47.551C87.3215 47.551 88.2082 47.7097 88.9735 48.027C89.7389 48.3443 90.3735 48.7643 90.8775 49.287C91.4002 49.791 91.7922 50.351 92.0535 50.967C92.3335 51.583 92.4735 52.1803 92.4735 52.759C92.4735 53.7483 92.2309 54.467 91.7455 54.915C91.2789 55.363 90.6909 55.587 89.9815 55.587H82.5895C82.6082 56.2217 82.8042 56.7723 83.1775 57.239C83.5695 57.7057 84.0549 58.0697 84.6335 58.331C85.2309 58.5737 85.8375 58.695 86.4535 58.695C86.9202 58.695 87.3309 58.667 87.6855 58.611C88.0589 58.555 88.3762 58.4897 88.6375 58.415C88.8989 58.3217 89.1229 58.2283 89.3095 58.135C89.5149 58.0417 89.7015 57.9577 89.8695 57.883C90.0375 57.8083 90.1962 57.7617 90.3455 57.743C90.5509 57.7243 90.7562 57.771 90.9615 57.883C91.1669 57.995 91.3349 58.191 91.4655 58.471C91.5775 58.6577 91.6522 58.835 91.6895 59.003C91.7455 59.1523 91.7735 59.3017 91.7735 59.451C91.7735 59.8243 91.5495 60.179 91.1015 60.515C90.6535 60.8323 90.0189 61.0937 89.1975 61.299C88.3949 61.523 87.4429 61.635 86.3415 61.635ZM82.5895 53.599H88.3295C88.6469 53.599 88.8895 53.5523 89.0575 53.459C89.2255 53.347 89.3095 53.123 89.3095 52.787C89.3095 52.3577 89.1789 51.975 88.9175 51.639C88.6562 51.2843 88.3015 51.0137 87.8535 50.827C87.4055 50.6217 86.8829 50.519 86.2855 50.519C85.5949 50.519 84.9695 50.659 84.4095 50.939C83.8495 51.2003 83.4015 51.5643 83.0655 52.031C82.7482 52.4977 82.5895 53.0203 82.5895 53.599ZM96.4233 61.467C95.9193 61.467 95.546 61.383 95.3033 61.215C95.0793 61.0657 94.9393 60.8603 94.8833 60.599C94.8273 60.3377 94.7993 60.0483 94.7993 59.731V49.343C94.7993 49.007 94.8273 48.7177 94.8833 48.475C94.9393 48.2137 95.0793 48.0177 95.3033 47.887C95.546 47.7377 95.9286 47.663 96.4513 47.663C96.9553 47.663 97.3193 47.7283 97.5433 47.859C97.786 47.9897 97.9353 48.1577 97.9913 48.363C98.066 48.5497 98.1033 48.7363 98.1033 48.923L97.8793 49.427C97.9726 49.2777 98.1033 49.1003 98.2713 48.895C98.4393 48.671 98.6633 48.4563 98.9433 48.251C99.2233 48.027 99.5593 47.8497 99.9513 47.719C100.343 47.5697 100.81 47.495 101.351 47.495C101.575 47.495 101.809 47.523 102.051 47.579C102.313 47.6163 102.565 47.6817 102.807 47.775C103.069 47.8497 103.302 47.9523 103.507 48.083C103.713 48.2137 103.871 48.3723 103.983 48.559C104.095 48.727 104.151 48.923 104.151 49.147C104.151 49.7443 104.002 50.2483 103.703 50.659C103.405 51.0697 103.05 51.275 102.639 51.275C102.359 51.275 102.154 51.247 102.023 51.191C101.893 51.135 101.781 51.0697 101.687 50.995C101.613 50.9203 101.491 50.855 101.323 50.799C101.174 50.743 100.931 50.715 100.595 50.715C100.315 50.715 100.026 50.7617 99.7273 50.855C99.4473 50.9483 99.186 51.0883 98.9433 51.275C98.7006 51.4617 98.5046 51.7043 98.3553 52.003C98.206 52.283 98.1313 52.6097 98.1313 52.983V59.787C98.1313 60.1043 98.1033 60.3937 98.0473 60.655C97.9913 60.8977 97.842 61.0937 97.5993 61.243C97.3566 61.3923 96.9646 61.467 96.4233 61.467ZM108.184 61.467C107.68 61.467 107.307 61.383 107.064 61.215C106.822 61.0657 106.672 60.8697 106.616 60.627C106.56 60.3657 106.532 60.0763 106.532 59.759V49.343C106.532 49.0443 106.56 48.7737 106.616 48.531C106.691 48.2697 106.84 48.0643 107.064 47.915C107.307 47.7657 107.69 47.691 108.212 47.691C108.735 47.691 109.108 47.7657 109.332 47.915C109.575 48.0643 109.724 48.2697 109.78 48.531C109.836 48.7923 109.864 49.0817 109.864 49.399V59.787C109.864 60.1043 109.836 60.3937 109.78 60.655C109.724 60.8977 109.575 61.0937 109.332 61.243C109.108 61.3923 108.726 61.467 108.184 61.467ZM108.184 44.975C107.643 44.975 107.242 44.9003 106.98 44.751C106.738 44.583 106.579 44.359 106.504 44.079C106.448 43.799 106.42 43.491 106.42 43.155C106.42 42.8003 106.448 42.4923 106.504 42.231C106.579 41.9697 106.747 41.7643 107.008 41.615C107.27 41.447 107.671 41.363 108.212 41.363C108.772 41.363 109.174 41.447 109.416 41.615C109.659 41.783 109.818 42.007 109.892 42.287C109.967 42.5483 110.004 42.8563 110.004 43.211C110.004 43.5283 109.967 43.827 109.892 44.107C109.818 44.387 109.659 44.6017 109.416 44.751C109.174 44.9003 108.763 44.975 108.184 44.975ZM117.744 61.467C117.053 61.467 116.437 61.4203 115.896 61.327C115.373 61.2337 114.916 61.075 114.524 60.851C114.15 60.627 113.842 60.3283 113.6 59.955C113.357 59.563 113.17 59.087 113.04 58.527C112.928 57.967 112.872 57.295 112.872 56.511V43.015C112.872 42.6977 112.9 42.4177 112.956 42.175C113.03 41.9137 113.18 41.7083 113.404 41.559C113.646 41.391 114.029 41.307 114.552 41.307C115.074 41.307 115.448 41.3817 115.672 41.531C115.914 41.6803 116.064 41.8857 116.12 42.147C116.194 42.3897 116.232 42.6697 116.232 42.987V56.371C116.232 56.7257 116.25 57.0243 116.288 57.267C116.344 57.491 116.428 57.6777 116.54 57.827C116.67 57.9577 116.829 58.051 117.016 58.107C117.221 58.163 117.464 58.191 117.744 58.191C117.986 58.191 118.201 58.219 118.388 58.275C118.593 58.331 118.752 58.471 118.864 58.695C118.994 58.919 119.06 59.283 119.06 59.787C119.06 60.3097 118.994 60.6923 118.864 60.935C118.752 61.1777 118.593 61.327 118.388 61.383C118.182 61.439 117.968 61.467 117.744 61.467ZM132.556 61.411C132.015 61.411 131.613 61.3083 131.352 61.103C131.091 60.8977 130.96 60.6177 130.96 60.263L131.156 59.339C131.007 59.5817 130.755 59.871 130.4 60.207C130.045 60.5243 129.579 60.8137 129 61.075C128.421 61.3177 127.721 61.439 126.9 61.439C126.023 61.439 125.192 61.2617 124.408 60.907C123.643 60.5337 122.961 60.0297 122.364 59.395C121.785 58.7417 121.319 58.0043 120.964 57.183C120.628 56.343 120.46 55.447 120.46 54.495C120.46 53.5803 120.628 52.7217 120.964 51.919C121.319 51.0977 121.795 50.3697 122.392 49.735C122.989 49.1003 123.671 48.6057 124.436 48.251C125.22 47.8777 126.041 47.691 126.9 47.691C127.665 47.691 128.309 47.7937 128.832 47.999C129.373 48.2043 129.831 48.4657 130.204 48.783C130.577 49.0817 130.885 49.399 131.128 49.735L130.96 48.923C130.96 48.5123 131.091 48.2043 131.352 47.999C131.613 47.775 132.024 47.663 132.584 47.663C133.107 47.663 133.48 47.747 133.704 47.915C133.928 48.0643 134.068 48.279 134.124 48.559C134.18 48.8203 134.208 49.119 134.208 49.455V59.703C134.208 60.0203 134.18 60.3097 134.124 60.571C134.068 60.8323 133.919 61.0377 133.676 61.187C133.452 61.3363 133.079 61.411 132.556 61.411ZM127.404 58.163C128.039 58.163 128.608 58.0043 129.112 57.687C129.616 57.3697 130.017 56.9403 130.316 56.399C130.633 55.839 130.792 55.223 130.792 54.551C130.792 53.823 130.633 53.1883 130.316 52.647C129.999 52.1057 129.579 51.6857 129.056 51.387C128.552 51.0697 127.983 50.911 127.348 50.911C126.657 50.911 126.041 51.079 125.5 51.415C124.959 51.7323 124.529 52.171 124.212 52.731C123.913 53.2723 123.764 53.8883 123.764 54.579C123.764 55.251 123.923 55.8577 124.24 56.399C124.557 56.9403 124.987 57.3697 125.528 57.687C126.088 58.0043 126.713 58.163 127.404 58.163ZM147.993 58.443C148.479 58.8537 148.731 59.2363 148.749 59.591C148.787 59.9457 148.6 60.3563 148.189 60.823C147.872 61.1777 147.592 61.411 147.349 61.523C147.107 61.635 146.864 61.635 146.621 61.523C146.379 61.4297 146.089 61.243 145.753 60.963L140.405 56.455V59.787C140.405 60.0857 140.368 60.3657 140.293 60.627C140.237 60.8883 140.088 61.0937 139.845 61.243C139.621 61.3923 139.248 61.467 138.725 61.467C138.203 61.467 137.82 61.383 137.577 61.215C137.353 61.0657 137.213 60.8603 137.157 60.599C137.101 60.3377 137.073 60.0577 137.073 59.759V43.043C137.073 42.7257 137.101 42.4457 137.157 42.203C137.232 41.9417 137.381 41.7363 137.605 41.587C137.848 41.419 138.231 41.335 138.753 41.335C139.276 41.335 139.649 41.419 139.873 41.587C140.097 41.7363 140.237 41.9417 140.293 42.203C140.368 42.4457 140.405 42.735 140.405 43.071V52.255L144.269 48.503C144.568 48.223 144.848 48.0363 145.109 47.943C145.371 47.831 145.623 47.8217 145.865 47.915C146.127 47.9897 146.397 48.1857 146.677 48.503C147.144 49.007 147.368 49.427 147.349 49.763C147.331 50.0803 147.097 50.463 146.649 50.911L142.869 54.411L147.993 58.443ZM155.8 61.439C154.941 61.439 154.148 61.2897 153.42 60.991C152.71 60.6737 152.085 60.2257 151.544 59.647C151.002 59.0683 150.582 58.3777 150.284 57.575C149.985 56.7723 149.836 55.8857 149.836 54.915V49.343C149.836 49.0257 149.864 48.7457 149.92 48.503C149.976 48.2417 150.125 48.0363 150.368 47.887C150.61 47.7377 150.984 47.663 151.488 47.663C152.029 47.663 152.412 47.7377 152.636 47.887C152.878 48.0363 153.028 48.2417 153.084 48.503C153.14 48.7643 153.168 49.0537 153.168 49.371V54.915C153.168 55.587 153.28 56.1657 153.504 56.651C153.746 57.1363 154.092 57.519 154.54 57.799C154.988 58.0603 155.538 58.191 156.192 58.191C156.864 58.191 157.433 58.0603 157.9 57.799C158.385 57.519 158.758 57.1363 159.02 56.651C159.281 56.147 159.412 55.5683 159.412 54.915V49.315C159.412 48.9977 159.44 48.7177 159.496 48.475C159.552 48.2137 159.701 48.0177 159.944 47.887C160.186 47.7377 160.569 47.663 161.092 47.663C161.614 47.663 161.988 47.7377 162.212 47.887C162.436 48.0363 162.576 48.2417 162.632 48.503C162.706 48.7643 162.744 49.0443 162.744 49.343V59.843C162.744 60.123 162.706 60.3843 162.632 60.627C162.576 60.8697 162.426 61.0657 162.184 61.215C161.96 61.3643 161.586 61.439 161.064 61.439C160.69 61.439 160.392 61.3923 160.168 61.299C159.962 61.2243 159.804 61.1217 159.692 60.991C159.598 60.8417 159.533 60.6923 159.496 60.543C159.477 60.3937 159.468 60.2443 159.468 60.095L159.692 59.339C159.58 59.507 159.412 59.7123 159.188 59.955C158.964 60.179 158.684 60.4123 158.348 60.655C158.03 60.879 157.657 61.0657 157.228 61.215C156.798 61.3643 156.322 61.439 155.8 61.439ZM183.661 61.411C183.12 61.411 182.719 61.3083 182.457 61.103C182.196 60.8977 182.065 60.6177 182.065 60.263L182.261 59.339C182.112 59.5817 181.86 59.871 181.505 60.207C181.151 60.5243 180.684 60.8137 180.105 61.075C179.527 61.3177 178.827 61.439 178.005 61.439C177.128 61.439 176.297 61.2617 175.513 60.907C174.748 60.5337 174.067 60.0297 173.469 59.395C172.891 58.7417 172.424 58.0043 172.069 57.183C171.733 56.343 171.565 55.447 171.565 54.495C171.565 53.5803 171.733 52.7217 172.069 51.919C172.424 51.0977 172.9 50.3697 173.497 49.735C174.095 49.1003 174.776 48.6057 175.541 48.251C176.325 47.8777 177.147 47.691 178.005 47.691C178.771 47.691 179.415 47.7937 179.937 47.999C180.479 48.2043 180.936 48.4657 181.309 48.783C181.683 49.0817 181.991 49.399 182.233 49.735L182.065 48.923C182.065 48.5123 182.196 48.2043 182.457 47.999C182.719 47.775 183.129 47.663 183.689 47.663C184.212 47.663 184.585 47.747 184.809 47.915C185.033 48.0643 185.173 48.279 185.229 48.559C185.285 48.8203 185.313 49.119 185.313 49.455V59.703C185.313 60.0203 185.285 60.3097 185.229 60.571C185.173 60.8323 185.024 61.0377 184.781 61.187C184.557 61.3363 184.184 61.411 183.661 61.411ZM178.509 58.163C179.144 58.163 179.713 58.0043 180.217 57.687C180.721 57.3697 181.123 56.9403 181.421 56.399C181.739 55.839 181.897 55.223 181.897 54.551C181.897 53.823 181.739 53.1883 181.421 52.647C181.104 52.1057 180.684 51.6857 180.161 51.387C179.657 51.0697 179.088 50.911 178.453 50.911C177.763 50.911 177.147 51.079 176.605 51.415C176.064 51.7323 175.635 52.171 175.317 52.731C175.019 53.2723 174.869 53.8883 174.869 54.579C174.869 55.251 175.028 55.8577 175.345 56.399C175.663 56.9403 176.092 57.3697 176.633 57.687C177.193 58.0043 177.819 58.163 178.509 58.163ZM192.911 61.635C192.426 61.635 191.912 61.579 191.371 61.467C190.83 61.3737 190.307 61.2337 189.803 61.047C189.299 60.8417 188.86 60.6083 188.487 60.347C188.132 60.067 187.908 59.759 187.815 59.423C187.74 59.2363 187.712 59.059 187.731 58.891C187.75 58.7043 187.806 58.5177 187.899 58.331C187.992 58.1257 188.132 57.9203 188.319 57.715C188.487 57.5097 188.655 57.3977 188.823 57.379C189.01 57.3417 189.243 57.3977 189.523 57.547C189.766 57.6403 190.027 57.7617 190.307 57.911C190.606 58.0603 190.904 58.2097 191.203 58.359C191.52 58.5083 191.838 58.6297 192.155 58.723C192.491 58.8163 192.818 58.863 193.135 58.863C193.826 58.863 194.376 58.751 194.787 58.527C195.198 58.2843 195.403 57.9483 195.403 57.519C195.403 57.2763 195.338 57.0617 195.207 56.875C195.076 56.6883 194.899 56.539 194.675 56.427C194.47 56.2963 194.218 56.1843 193.919 56.091C193.639 55.979 193.331 55.8857 192.995 55.811C192.678 55.7177 192.342 55.615 191.987 55.503C191.52 55.3723 191.054 55.2137 190.587 55.027C190.12 54.8403 189.7 54.5977 189.327 54.299C188.972 54.0003 188.683 53.627 188.459 53.179C188.235 52.731 188.123 52.171 188.123 51.499C188.123 50.659 188.319 49.9497 188.711 49.371C189.122 48.7737 189.71 48.3163 190.475 47.999C191.24 47.6817 192.164 47.523 193.247 47.523C193.62 47.523 193.975 47.551 194.311 47.607C194.666 47.663 195.002 47.747 195.319 47.859C195.655 47.9523 195.972 48.0737 196.271 48.223C196.588 48.3723 196.887 48.5403 197.167 48.727C197.634 48.9883 197.876 49.2963 197.895 49.651C197.914 49.987 197.783 50.351 197.503 50.743C197.298 51.0043 197.092 51.191 196.887 51.303C196.682 51.3963 196.467 51.3963 196.243 51.303C195.944 51.1537 195.618 50.995 195.263 50.827C194.927 50.6403 194.572 50.4817 194.199 50.351C193.844 50.2203 193.471 50.155 193.079 50.155C192.706 50.155 192.37 50.211 192.071 50.323C191.772 50.435 191.548 50.5937 191.399 50.799C191.25 51.0043 191.175 51.247 191.175 51.527C191.175 51.7883 191.25 52.003 191.399 52.171C191.548 52.339 191.744 52.479 191.987 52.591C192.23 52.703 192.519 52.8057 192.855 52.899C193.191 52.9737 193.546 53.0483 193.919 53.123C194.442 53.235 194.974 53.375 195.515 53.543C196.056 53.711 196.551 53.9443 196.999 54.243C197.466 54.5417 197.839 54.943 198.119 55.447C198.399 55.9323 198.539 56.567 198.539 57.351C198.539 58.7137 198.035 59.7683 197.027 60.515C196.038 61.2617 194.666 61.635 192.911 61.635ZM207.638 61.635C206.425 61.635 205.361 61.439 204.446 61.047C203.55 60.655 202.794 60.123 202.178 59.451C201.581 58.7603 201.124 57.995 200.806 57.155C200.508 56.2963 200.358 55.4097 200.358 54.495C200.358 53.151 200.666 51.9563 201.282 50.911C201.898 49.8657 202.748 49.0443 203.83 48.447C204.932 47.8497 206.192 47.551 207.61 47.551C208.618 47.551 209.505 47.7097 210.27 48.027C211.036 48.3443 211.67 48.7643 212.174 49.287C212.697 49.791 213.089 50.351 213.35 50.967C213.63 51.583 213.77 52.1803 213.77 52.759C213.77 53.7483 213.528 54.467 213.042 54.915C212.576 55.363 211.988 55.587 211.278 55.587H203.886C203.905 56.2217 204.101 56.7723 204.474 57.239C204.866 57.7057 205.352 58.0697 205.93 58.331C206.528 58.5737 207.134 58.695 207.75 58.695C208.217 58.695 208.628 58.667 208.982 58.611C209.356 58.555 209.673 58.4897 209.934 58.415C210.196 58.3217 210.42 58.2283 210.606 58.135C210.812 58.0417 210.998 57.9577 211.166 57.883C211.334 57.8083 211.493 57.7617 211.642 57.743C211.848 57.7243 212.053 57.771 212.258 57.883C212.464 57.995 212.632 58.191 212.762 58.471C212.874 58.6577 212.949 58.835 212.986 59.003C213.042 59.1523 213.07 59.3017 213.07 59.451C213.07 59.8243 212.846 60.179 212.398 60.515C211.95 60.8323 211.316 61.0937 210.494 61.299C209.692 61.523 208.74 61.635 207.638 61.635ZM203.886 53.599H209.626C209.944 53.599 210.186 53.5523 210.354 53.459C210.522 53.347 210.606 53.123 210.606 52.787C210.606 52.3577 210.476 51.975 210.214 51.639C209.953 51.2843 209.598 51.0137 209.15 50.827C208.702 50.6217 208.18 50.519 207.582 50.519C206.892 50.519 206.266 50.659 205.706 50.939C205.146 51.2003 204.698 51.5643 204.362 52.031C204.045 52.4977 203.886 53.0203 203.886 53.599ZM217.72 61.467C217.216 61.467 216.843 61.383 216.6 61.215C216.376 61.0657 216.236 60.8603 216.18 60.599C216.124 60.3377 216.096 60.0483 216.096 59.731V49.343C216.096 49.007 216.124 48.7177 216.18 48.475C216.236 48.2137 216.376 48.0177 216.6 47.887C216.843 47.7377 217.226 47.663 217.748 47.663C218.252 47.663 218.616 47.7283 218.84 47.859C219.083 47.9897 219.232 48.1577 219.288 48.363C219.363 48.5497 219.4 48.7363 219.4 48.923L219.176 49.427C219.27 49.2777 219.4 49.1003 219.568 48.895C219.736 48.671 219.96 48.4563 220.24 48.251C220.52 48.027 220.856 47.8497 221.248 47.719C221.64 47.5697 222.107 47.495 222.648 47.495C222.872 47.495 223.106 47.523 223.348 47.579C223.61 47.6163 223.862 47.6817 224.104 47.775C224.366 47.8497 224.599 47.9523 224.804 48.083C225.01 48.2137 225.168 48.3723 225.28 48.559C225.392 48.727 225.448 48.923 225.448 49.147C225.448 49.7443 225.299 50.2483 225 50.659C224.702 51.0697 224.347 51.275 223.936 51.275C223.656 51.275 223.451 51.247 223.32 51.191C223.19 51.135 223.078 51.0697 222.984 50.995C222.91 50.9203 222.788 50.855 222.62 50.799C222.471 50.743 222.228 50.715 221.892 50.715C221.612 50.715 221.323 50.7617 221.024 50.855C220.744 50.9483 220.483 51.0883 220.24 51.275C219.998 51.4617 219.802 51.7043 219.652 52.003C219.503 52.283 219.428 52.6097 219.428 52.983V59.787C219.428 60.1043 219.4 60.3937 219.344 60.655C219.288 60.8977 219.139 61.0937 218.896 61.243C218.654 61.3923 218.262 61.467 217.72 61.467ZM234.138 61.467C233.223 61.467 232.439 61.3737 231.786 61.187C231.132 61.0003 230.6 60.711 230.19 60.319C229.779 59.927 229.471 59.423 229.266 58.807C229.079 58.1723 228.986 57.4257 228.986 56.567V44.695C228.986 44.359 229.014 44.0697 229.07 43.827C229.144 43.5843 229.294 43.3977 229.518 43.267C229.76 43.1177 230.134 43.043 230.638 43.043C231.16 43.043 231.534 43.1177 231.758 43.267C232 43.4163 232.15 43.6217 232.206 43.883C232.28 44.1257 232.318 44.3963 232.318 44.695V56.455C232.318 56.847 232.346 57.1643 232.402 57.407C232.476 57.6497 232.579 57.8363 232.71 57.967C232.859 58.079 233.046 58.163 233.27 58.219C233.512 58.2563 233.802 58.275 234.138 58.275C234.492 58.275 234.791 58.303 235.034 58.359C235.295 58.415 235.491 58.555 235.622 58.779C235.752 58.9843 235.818 59.3297 235.818 59.815C235.818 60.3377 235.734 60.7203 235.566 60.963C235.416 61.187 235.211 61.327 234.95 61.383C234.707 61.439 234.436 61.467 234.138 61.467ZM227.838 47.943L230.722 47.971L234.586 47.859C234.903 47.859 235.183 47.8963 235.426 47.971C235.687 48.027 235.892 48.1763 236.042 48.419C236.191 48.643 236.266 49.0163 236.266 49.539C236.266 50.0243 236.191 50.3883 236.042 50.631C235.892 50.8737 235.696 51.0323 235.454 51.107C235.211 51.163 234.931 51.191 234.614 51.191L230.862 51.135L227.754 51.163C227.287 51.1443 226.96 51.0137 226.774 50.771C226.606 50.5097 226.522 50.0897 226.522 49.511C226.522 48.9697 226.624 48.5777 226.83 48.335C227.054 48.0737 227.39 47.943 227.838 47.943ZM240.145 61.467C239.641 61.467 239.268 61.383 239.025 61.215C238.783 61.0657 238.633 60.8697 238.577 60.627C238.521 60.3657 238.493 60.0763 238.493 59.759V49.343C238.493 49.0443 238.521 48.7737 238.577 48.531C238.652 48.2697 238.801 48.0643 239.025 47.915C239.268 47.7657 239.651 47.691 240.173 47.691C240.696 47.691 241.069 47.7657 241.293 47.915C241.536 48.0643 241.685 48.2697 241.741 48.531C241.797 48.7923 241.825 49.0817 241.825 49.399V59.787C241.825 60.1043 241.797 60.3937 241.741 60.655C241.685 60.8977 241.536 61.0937 241.293 61.243C241.069 61.3923 240.687 61.467 240.145 61.467ZM240.145 44.975C239.604 44.975 239.203 44.9003 238.941 44.751C238.699 44.583 238.54 44.359 238.465 44.079C238.409 43.799 238.381 43.491 238.381 43.155C238.381 42.8003 238.409 42.4923 238.465 42.231C238.54 41.9697 238.708 41.7643 238.969 41.615C239.231 41.447 239.632 41.363 240.173 41.363C240.733 41.363 241.135 41.447 241.377 41.615C241.62 41.783 241.779 42.007 241.853 42.287C241.928 42.5483 241.965 42.8563 241.965 43.211C241.965 43.5283 241.928 43.827 241.853 44.107C241.779 44.387 241.62 44.6017 241.377 44.751C241.135 44.9003 240.724 44.975 240.145 44.975ZM247.781 61.467C247.277 61.467 246.904 61.3923 246.661 61.243C246.437 61.0937 246.297 60.8883 246.241 60.627C246.185 60.347 246.157 60.0577 246.157 59.759V46.151C246.157 45.4603 246.25 44.8257 246.437 44.247C246.624 43.6497 246.922 43.1363 247.333 42.707C247.744 42.2777 248.276 41.9417 248.929 41.699C249.582 41.4377 250.376 41.307 251.309 41.307C251.626 41.307 251.906 41.3443 252.149 41.419C252.41 41.475 252.616 41.615 252.765 41.839C252.933 42.063 253.017 42.4457 253.017 42.987C253.017 43.491 252.933 43.8643 252.765 44.107C252.616 44.3497 252.41 44.499 252.149 44.555C251.888 44.611 251.598 44.639 251.281 44.639C250.964 44.639 250.684 44.6577 250.441 44.695C250.217 44.7137 250.03 44.7697 249.881 44.863C249.75 44.9563 249.648 45.1057 249.573 45.311C249.517 45.5163 249.489 45.7777 249.489 46.095V59.815C249.489 60.1137 249.452 60.3937 249.377 60.655C249.321 60.8977 249.172 61.0937 248.929 61.243C248.686 61.3923 248.304 61.467 247.781 61.467ZM245.009 47.943L247.893 47.971L251.757 47.859C252.074 47.859 252.354 47.8963 252.597 47.971C252.858 48.027 253.064 48.1763 253.213 48.419C253.362 48.643 253.437 49.0163 253.437 49.539C253.437 50.0243 253.362 50.3883 253.213 50.631C253.064 50.8737 252.868 51.0323 252.625 51.107C252.382 51.163 252.102 51.191 251.785 51.191L248.033 51.135L244.925 51.163C244.458 51.1443 244.132 51.0137 243.945 50.771C243.777 50.5097 243.693 50.0897 243.693 49.511C243.693 48.9697 243.796 48.5777 244.001 48.335C244.225 48.0737 244.561 47.943 245.009 47.943Z" fill="black"/>
</svg>
