<svg width="400" height="120" viewBox="0 0 400 120" fill="none" xmlns="http://www.w3.org/2000/svg">
<mask id="mask0_62_2239" style="mask-type:luminance" maskUnits="userSpaceOnUse" x="0" y="0" width="400" height="120">
<path d="M400 0H0V120H400V0Z" fill="white"/>
</mask>
<g mask="url(#mask0_62_2239)">
<mask id="mask1_62_2239" style="mask-type:luminance" maskUnits="userSpaceOnUse" x="9" y="9" width="388" height="111">
<path d="M9.33838 9.33313H396.887V119.354H9.33838V9.33313Z" fill="white"/>
</mask>
<g mask="url(#mask1_62_2239)">
<path d="M15.7893 72.3852L12.3967 62.3592L17.7895 51.8748L13.0351 41.3956L9.77637 30.9113L12.1049 19.354L26.2586 18.2342L39.1781 15.5935L52.3408 21.4738L65.1144 13.7498L78.3379 21.7081L91.227 17.9633L104.365 22.9008L117.358 22.6769L130.405 24.3435L143.318 21.4217L155.618 17.1092L167.972 14.5623L180.326 12.0988L192.783 13.2133L205.32 17.1248L217.838 20.3435L230.253 20.0727L242.4 10.3071L255.065 18.6873L267.504 19.1717L279.742 12.479L292.084 9.53625L304.906 12.906L318.191 14.7654L328.447 23.3956L341.367 25.406L352.316 32.3383L368.294 26.7081L380.204 31.2238L396.346 37.1769L387.476 50.3383L387.16 62.0935L374.362 69.8592L369.875 80.281L373.796 93.3956L367.571 103.265L364.391 115.974L345.854 109.745L333.335 117.432L320.227 109.989L307.782 119.823L294.632 110.969L281.864 112.432L269.005 111.359L256.445 118.932L243.556 117.01L230.824 121.224L218.355 114.521L205.223 119.724L193.081 116.047L180.727 115.328L168.306 115.838L155.904 115.969L143.829 110.541L131.396 111.203L119.346 105.146L106.274 116.76L94.5648 104.833L81.5602 115.427L69.6377 107.245L57.5025 102.453L44.6438 110.724L27.2618 111.552L29.4687 98.1404L22.7931 90.229L11.0106 83.5779L15.7893 72.3852Z" fill="black"/>
<path d="M15.7893 72.3852L12.3967 62.3592L17.7895 51.8748L13.0351 41.3956L9.77637 30.9113L12.1049 19.354L26.2586 18.2342L39.1781 15.5935L52.3408 21.4738L65.1144 13.7498L78.3379 21.7081L91.227 17.9633L104.365 22.9008L117.358 22.6769L130.405 24.3435L143.318 21.4217L155.618 17.1092L167.972 14.5623L180.326 12.0988L192.783 13.2133L205.32 17.1248L217.838 20.3435L230.253 20.0727L242.4 10.3071L255.065 18.6873L267.504 19.1717L279.742 12.479L292.084 9.53625L304.906 12.906L318.191 14.7654L328.447 23.3956L341.367 25.406L352.316 32.3383L368.294 26.7081L380.204 31.2238L396.346 37.1769L387.476 50.3383L387.16 62.0935L374.362 69.8592L369.875 80.281L373.796 93.3956L367.571 103.265L364.391 115.974L345.854 109.745L333.335 117.432L320.227 109.989L307.782 119.823L294.632 110.969L281.864 112.432L269.005 111.359L256.445 118.932L243.556 117.01L230.824 121.224L218.355 114.521L205.223 119.724L193.081 116.047L180.727 115.328L168.306 115.838L155.904 115.969L143.829 110.541L131.396 111.203L119.346 105.146L106.274 116.76L94.5648 104.833L81.5602 115.427L69.6377 107.245L57.5025 102.453L44.6438 110.724L27.2618 111.552L29.4687 98.1404L22.7931 90.229L11.0106 83.5779L15.7893 72.3852Z" fill="black"/>
</g>
<mask id="mask2_62_2239" style="mask-type:luminance" maskUnits="userSpaceOnUse" x="7" y="7" width="391" height="113">
<path d="M7.78223 7.99976H397.586V119.354H7.78223V7.99976Z" fill="white"/>
</mask>
<g mask="url(#mask2_62_2239)">
<path d="M230.74 121.984L218.301 115.307L205.266 120.474L192.918 116.734L180.722 115.989L168.343 116.495L155.716 116.63L143.653 111.203L131.208 111.885L119.486 105.995L106.238 117.765L94.5045 105.812L81.6093 116.328L69.2065 107.849L57.6063 103.26L44.9118 111.401L26.3138 112.286L28.6363 98.3488L22.1978 90.7238L10.0504 83.8488L14.9568 72.3644L11.5582 62.3123L16.9327 51.854L12.2634 41.5727L8.95605 30.9425L11.4244 18.729L26.1679 17.5571L39.2819 14.9008L52.2744 20.7029L65.1149 12.9165L78.466 20.9529L91.2639 17.229L104.524 22.2133L117.407 21.9894L130.357 23.656L143.051 20.7758L155.424 16.4425L167.766 13.8956L180.26 11.4165L193.039 12.5727L205.57 16.4842L217.942 19.6508L229.931 19.3956L242.346 9.40605L255.357 18.0102L267.261 18.4685L279.384 11.8488L292.079 8.8175L305.077 12.2081L318.562 14.0935L328.831 22.729L341.683 24.7238L352.414 31.5102L368.282 25.9217L380.515 30.5519L397.484 36.8488L388.273 50.5258L387.963 62.4529L375.031 70.2967L370.714 80.3227L374.678 93.4842L368.331 103.505L364.951 116.906L345.951 110.515L333.336 118.26L320.295 110.854L307.825 120.739L294.413 111.703L281.883 113.146L269.188 112.078L256.628 119.651L243.635 117.719L230.74 121.984ZM218.416 113.75L230.916 120.463L243.471 116.307L256.257 118.213L268.793 110.656L281.852 111.755L294.857 110.255L307.74 118.932L320.149 109.13L333.318 116.594L345.745 108.969L363.802 115.031L366.817 103.015L372.952 93.2967L369.048 80.2342L373.681 69.4269L386.376 61.7133L386.686 50.1821L395.216 37.4946L379.895 31.8644L368.276 27.4581L352.201 33.1248L341.039 26.0467L328.065 24.0154L317.808 15.3956L304.652 13.5467L292.054 10.229L280.059 13.1092L267.705 19.8956L254.761 19.3956L242.437 11.2498L230.533 20.7915L217.681 21.0779L205.041 17.8279L192.601 13.8852L180.375 12.7915L168.185 15.229L155.868 17.7498L143.526 22.0779L130.454 25.0363L117.304 23.354L104.208 23.5883L91.2275 18.6925L78.2168 22.4685L65.1149 14.5779L52.4203 22.2706L39.0935 16.3123L26.332 18.906L12.7863 19.9842L10.5854 30.88L13.7955 41.1821L18.6533 51.8904L13.2484 62.3904L16.647 72.4113L11.9959 83.3071L23.3712 89.7238L30.3143 97.9686L28.1985 110.823L44.3768 110.057L57.424 101.666L70.1185 106.708L81.512 114.521L94.62 103.844L106.299 115.745L119.194 104.286L131.573 110.515L143.988 109.833L156.08 115.26L168.282 115.135L180.722 114.62L193.228 115.349L205.126 118.958L218.416 113.75Z" fill="black"/>
</g>
<mask id="mask3_62_2239" style="mask-type:luminance" maskUnits="userSpaceOnUse" x="3" y="1" width="388" height="113">
<path d="M3.11279 1.08313H390.661V113.333H3.11279V1.08313Z" fill="white"/>
</mask>
<g mask="url(#mask3_62_2239)">
<path d="M9.78286 63.3953L6.39643 53.3641L11.7831 42.8797L7.02873 32.4005L3.75781 21.9161L6.09852 10.3641L20.2461 9.23906L33.1717 6.60364L46.3344 12.4786L59.108 4.75468L72.3254 12.7182L85.2206 8.96301L98.359 13.9109L111.345 13.6818L124.399 15.3588L137.312 12.4318L149.611 8.10885L161.965 5.56718L174.32 3.10885L186.777 4.22343L199.314 8.12968L211.826 11.3484L224.247 11.0776L236.388 1.31197L249.058 9.69739L261.497 10.1818L273.736 3.48906L286.078 0.541138L298.9 3.91614L312.184 5.7703L322.441 14.4057L335.36 16.4161L346.31 23.3432L362.282 17.713L374.198 22.2286L390.34 28.1766L381.469 41.3484L381.153 53.1036L368.355 60.8641L363.868 71.2911L367.796 84.4005L361.564 94.2703L358.378 106.979L339.847 100.755L327.329 108.442L314.221 100.999L301.776 110.833L288.619 101.973L275.852 103.442L262.999 102.364L250.432 109.937L237.549 108.026L224.818 112.234L212.349 105.526L199.216 110.729L187.069 107.062L174.727 106.333L162.3 106.848L149.897 106.979L137.823 101.546L125.39 102.208L113.34 96.1557L100.268 107.765L88.5584 95.8432L75.5538 106.427L63.6253 98.2443L51.5022 93.4578L38.6374 101.734L21.2493 102.557L23.4623 89.1505L16.7868 81.2338L5.00417 74.5828L9.78286 63.3953Z" fill="white"/>
</g>
<mask id="mask4_62_2239" style="mask-type:luminance" maskUnits="userSpaceOnUse" x="0" y="1" width="396" height="115">
<path d="M0.674805 1.08325H395.331V116H0.674805V1.08325Z" fill="white"/>
</mask>
<g mask="url(#mask4_62_2239)">
<path d="M224.52 115.01L212.147 108.365L199.386 113.422L186.491 109.521L174.708 108.844L162.348 109.349L149.21 109.49L137.202 104.062L124.69 104.74L113.862 99.3124L100.146 111.526L88.3391 99.5103L75.7236 109.745L62.0745 100.385L51.8544 96.3541L39.6524 104.182L17.8321 105.213L20.3734 89.7916L14.701 83.0624L1.44101 75.5989L6.68177 63.328L3.30142 53.1874L8.62122 42.828L4.20123 33.0416L0.77832 22.0312L3.61149 8.05721L19.7715 6.76034L33.5543 3.95825L46.103 9.56242L59.1015 1.69784L72.7932 9.94263L85.354 6.29159L98.9422 11.401L111.54 11.1822L124.234 12.8124L136.381 10.0572L148.705 5.72909L161.284 3.14575L174.131 0.578045L187.433 1.77596L200.231 5.76555L212.22 8.84367L223.061 8.60409L236.205 -1.96362L250.116 7.23429L260.707 7.65096L272.526 1.18221L286.12 -2.05737L299.568 1.48429L313.564 3.43742L323.875 12.0885L336.57 14.0624L346.705 20.4999L362.312 14.9947L375.365 19.9478L394.492 26.9999L384.369 42.0416L384.041 54.4114L370.787 62.453L366.92 71.4218L370.89 84.7239L364.318 95.1458L360.494 110.38L340.248 103.594L327.377 111.495L314.5 104.182L301.909 114.13L287.768 104.63L275.87 105.99L263.753 104.979L251.058 112.609L237.768 110.635L224.52 115.01ZM212.561 102.693L225.128 109.474L237.214 105.448L249.708 107.302L262.172 99.7916L275.772 100.932L289.427 99.3593L301.593 107.557L313.886 97.8333L327.231 105.411L339.403 97.9478L356.226 103.588L358.779 93.4114L364.683 84.1041L360.816 71.2135L365.929 59.3333L378.277 51.8697L378.569 40.6822L386.175 29.3958L373.036 24.5572L362.239 20.4843L345.908 26.1822L334.168 18.7603L321.036 16.7291L310.792 8.11971L298.237 6.35409L286.041 3.14575L274.933 5.79159L262.293 12.703L248.012 12.1562L236.576 4.58846L225.432 13.5468L211.436 13.8489L198.31 10.4583L186.108 6.65096L174.532 5.63534L162.634 8.00513L150.517 10.4947L138.242 14.802L124.55 17.901L111.156 16.1822L97.7628 16.4166L85.0682 11.6666L71.869 15.4843L59.1076 7.80721L46.565 15.3958L32.7822 9.24471L20.72 11.7083L8.59082 12.6718L6.74257 21.8072L9.80677 31.6249L14.9381 42.9426L9.50279 53.5728L12.8649 63.5208L8.5361 73.5885L18.8474 79.4062L26.5201 88.5051L24.6414 99.8958L37.5974 99.2864L51.1492 90.5676L65.1752 96.1093L75.3588 103.099L88.7951 92.2447L100.42 104.068L112.828 93.0364L126.137 99.7083L138.497 99.026L150.602 104.453L162.214 104.333L174.757 103.818L187.67 104.568L199.064 108.016L212.561 102.693Z" fill="black"/>
<path d="M224.52 115.01L212.147 108.365L199.386 113.422L186.491 109.521L174.708 108.844L162.348 109.349L149.21 109.49L137.202 104.062L124.69 104.74L113.862 99.3124L100.146 111.526L88.3391 99.5103L75.7236 109.745L62.0745 100.385L51.8544 96.3541L39.6524 104.182L17.8321 105.213L20.3734 89.7916L14.701 83.0624L1.44101 75.5989L6.68177 63.328L3.30142 53.1874L8.62122 42.828L4.20123 33.0416L0.77832 22.0312L3.61149 8.05721L19.7715 6.76034L33.5543 3.95825L46.103 9.56242L59.1015 1.69784L72.7932 9.94263L85.354 6.29159L98.9422 11.401L111.54 11.1822L124.234 12.8124L136.381 10.0572L148.705 5.72909L161.284 3.14575L174.131 0.578045L187.433 1.77596L200.231 5.76555L212.22 8.84367L223.061 8.60409L236.205 -1.96362L250.116 7.23429L260.707 7.65096L272.526 1.18221L286.12 -2.05737L299.568 1.48429L313.564 3.43742L323.875 12.0885L336.57 14.0624L346.705 20.4999L362.312 14.9947L375.365 19.9478L394.492 26.9999L384.369 42.0416L384.041 54.4114L370.787 62.453L366.92 71.4218L370.89 84.7239L364.318 95.1458L360.494 110.38L340.248 103.594L327.377 111.495L314.5 104.182L301.909 114.13L287.768 104.63L275.87 105.99L263.753 104.979L251.058 112.609L237.768 110.635L224.52 115.01ZM212.561 102.693L225.128 109.474L237.214 105.448L249.708 107.302L262.172 99.7916L275.772 100.932L289.427 99.3593L301.593 107.557L313.886 97.8333L327.231 105.411L339.403 97.9478L356.226 103.588L358.779 93.4114L364.683 84.1041L360.816 71.2135L365.929 59.3333L378.277 51.8697L378.569 40.6822L386.175 29.3958L373.036 24.5572L362.239 20.4843L345.908 26.1822L334.168 18.7603L321.036 16.7291L310.792 8.11971L298.237 6.35409L286.041 3.14575L274.933 5.79159L262.293 12.703L248.012 12.1562L236.576 4.58846L225.432 13.5468L211.436 13.8489L198.31 10.4583L186.108 6.65096L174.532 5.63534L162.634 8.00513L150.517 10.4947L138.242 14.802L124.55 17.901L111.156 16.1822L97.7628 16.4166L85.0682 11.6666L71.869 15.4843L59.1076 7.80721L46.565 15.3958L32.7822 9.24471L20.72 11.7083L8.59082 12.6718L6.74257 21.8072L9.80677 31.6249L14.9381 42.9426L9.50279 53.5728L12.8649 63.5208L8.5361 73.5885L18.8474 79.4062L26.5201 88.5051L24.6414 99.8958L37.5974 99.2864L51.1492 90.5676L65.1752 96.1093L75.3588 103.099L88.7951 92.2447L100.42 104.068L112.828 93.0364L126.137 99.7083L138.497 99.026L150.602 104.453L162.214 104.333L174.757 103.818L187.67 104.568L199.064 108.016L212.561 102.693Z" fill="black"/>
</g>
</g>
<path d="M36.2089 57.8639C35.7609 57.8639 35.4329 57.7999 35.2249 57.6719C35.0169 57.5439 34.8889 57.3679 34.8409 57.1439C34.7929 56.9039 34.7689 56.6559 34.7689 56.3999V42.5519C34.7689 42.2959 34.7929 42.0639 34.8409 41.8559C34.9049 41.6319 35.0409 41.4559 35.2489 41.3279C35.4569 41.1839 35.7849 41.1119 36.2329 41.1119H41.3209C42.0249 41.1119 42.7129 41.2319 43.3849 41.4719C44.0569 41.7119 44.6569 42.0719 45.1849 42.5519C45.7289 43.0319 46.1529 43.6239 46.4569 44.3279C46.7769 45.0319 46.9369 45.8559 46.9369 46.7999C46.9369 47.7279 46.7769 48.5439 46.4569 49.2479C46.1529 49.9359 45.7289 50.5199 45.1849 50.9999C44.6409 51.4799 44.0329 51.8399 43.3609 52.0799C42.7049 52.3199 42.0169 52.4399 41.2969 52.4399H37.6729V56.4239C37.6729 56.6799 37.6409 56.9199 37.5769 57.1439C37.5289 57.3679 37.4009 57.5439 37.1929 57.6719C37.0009 57.7999 36.6729 57.8639 36.2089 57.8639ZM37.6729 49.5119H41.3209C41.8169 49.5119 42.2649 49.4159 42.6649 49.2239C43.0809 49.0159 43.4169 48.7119 43.6729 48.3119C43.9289 47.8959 44.0569 47.3759 44.0569 46.7519C44.0569 46.1919 43.9369 45.7119 43.6969 45.3119C43.4729 44.8959 43.1529 44.5759 42.7369 44.3519C42.3369 44.1279 41.8569 44.0159 41.2969 44.0159H37.6729V49.5119ZM54.7041 58.0319C53.6641 58.0319 52.7521 57.8639 51.9681 57.5279C51.2001 57.1919 50.5521 56.7359 50.0241 56.1599C49.5121 55.5679 49.1201 54.9119 48.8481 54.1919C48.5921 53.4559 48.4641 52.6959 48.4641 51.9119C48.4641 50.7599 48.7281 49.7359 49.2561 48.8399C49.7841 47.9439 50.5121 47.2399 51.4401 46.7279C52.3841 46.2159 53.4641 45.9599 54.6801 45.9599C55.5441 45.9599 56.3041 46.0959 56.9601 46.3679C57.6161 46.6399 58.1601 46.9999 58.5921 47.4479C59.0401 47.8799 59.3761 48.3599 59.6001 48.8879C59.8401 49.4159 59.9601 49.9279 59.9601 50.4239C59.9601 51.2719 59.7521 51.8879 59.3361 52.2719C58.9361 52.6559 58.4321 52.8479 57.8241 52.8479H51.4881C51.5041 53.3919 51.6721 53.8639 51.9921 54.2639C52.3281 54.6639 52.7441 54.9759 53.2401 55.1999C53.7521 55.4079 54.2721 55.5119 54.8001 55.5119C55.2001 55.5119 55.5521 55.4879 55.8561 55.4399C56.1761 55.3919 56.4481 55.3359 56.6721 55.2719C56.8961 55.1919 57.0881 55.1119 57.2481 55.0319C57.4241 54.9519 57.5841 54.8799 57.7281 54.8159C57.8721 54.7519 58.0081 54.7119 58.1361 54.6959C58.3121 54.6799 58.4881 54.7199 58.6641 54.8159C58.8401 54.9119 58.9841 55.0799 59.0961 55.3199C59.1921 55.4799 59.2561 55.6319 59.2881 55.7759C59.3361 55.9039 59.3601 56.0319 59.3601 56.1599C59.3601 56.4799 59.1681 56.7839 58.7841 57.0719C58.4001 57.3439 57.8561 57.5679 57.1521 57.7439C56.4641 57.9359 55.6481 58.0319 54.7041 58.0319ZM51.4881 51.1439H56.4081C56.6801 51.1439 56.8881 51.1039 57.0321 51.0239C57.1761 50.9279 57.2481 50.7359 57.2481 50.4479C57.2481 50.0799 57.1361 49.7519 56.9121 49.4639C56.6881 49.1599 56.3841 48.9279 56.0001 48.7679C55.6161 48.5919 55.1681 48.5039 54.6561 48.5039C54.0641 48.5039 53.5281 48.6239 53.0481 48.8639C52.5681 49.0879 52.1841 49.3999 51.8961 49.7999C51.6241 50.1999 51.4881 50.6479 51.4881 51.1439ZM63.3456 57.8639C62.9136 57.8639 62.5936 57.7919 62.3856 57.6479C62.1936 57.5199 62.0736 57.3519 62.0256 57.1439C61.9776 56.9199 61.9536 56.6719 61.9536 56.3999V47.4239C61.9536 47.1679 61.9776 46.9359 62.0256 46.7279C62.0736 46.5199 62.2016 46.3599 62.4096 46.2479C62.6176 46.1199 62.9376 46.0559 63.3696 46.0559C63.7536 46.0559 64.0416 46.1039 64.2336 46.1999C64.4256 46.2959 64.5536 46.4159 64.6176 46.5599C64.6816 46.7039 64.7136 46.8479 64.7136 46.9919C64.7296 47.1359 64.7456 47.2479 64.7616 47.3279L64.6656 48.0959C64.7616 47.8399 64.9216 47.5919 65.1456 47.3519C65.3696 47.1119 65.6416 46.8959 65.9616 46.7039C66.2816 46.4959 66.6256 46.3359 66.9936 46.2239C67.3776 46.0959 67.7696 46.0319 68.1696 46.0319C68.9216 46.0319 69.5936 46.1679 70.1856 46.4399C70.7776 46.7119 71.2816 47.0959 71.6976 47.5919C72.1296 48.0879 72.4576 48.6799 72.6816 49.3679C72.9056 50.0399 73.0176 50.7999 73.0176 51.6479V56.4239C73.0176 56.6959 72.9856 56.9439 72.9216 57.1679C72.8736 57.3759 72.7536 57.5439 72.5616 57.6719C72.3696 57.7999 72.0416 57.8639 71.5776 57.8639C71.1296 57.8639 70.8016 57.7919 70.5936 57.6479C70.3856 57.5199 70.2576 57.3519 70.2096 57.1439C70.1616 56.9199 70.1376 56.6719 70.1376 56.3999V51.6239C70.1376 51.0479 70.0336 50.5519 69.8256 50.1359C69.6336 49.7199 69.3456 49.3999 68.9616 49.1759C68.5936 48.9519 68.1216 48.8399 67.5456 48.8399C66.9856 48.8399 66.4976 48.9599 66.0816 49.1999C65.6656 49.4239 65.3456 49.7439 65.1216 50.1599C64.8976 50.5759 64.7856 51.0639 64.7856 51.6239V56.4239C64.7856 56.6959 64.7616 56.9439 64.7136 57.1679C64.6656 57.3759 64.5376 57.5439 64.3296 57.6719C64.1376 57.7999 63.8096 57.8639 63.3456 57.8639ZM77.6088 62.6159C77.0968 62.3919 76.8008 62.1359 76.7208 61.8479C76.6408 61.5759 76.7128 61.2079 76.9368 60.7439L83.1288 46.8719C83.3528 46.3599 83.5928 46.0559 83.8488 45.9599C84.1048 45.8479 84.4968 45.9039 85.0248 46.1279C85.5208 46.3519 85.8088 46.5999 85.8888 46.8719C85.9848 47.1439 85.9288 47.5119 85.7208 47.9759L79.4808 61.9199C79.2728 62.4319 79.0408 62.7279 78.7848 62.8079C78.5288 62.9039 78.1368 62.8399 77.6088 62.6159ZM79.8408 56.7359L74.2968 48.2159C74.0088 47.7839 73.8888 47.4239 73.9368 47.1359C74.0008 46.8479 74.2568 46.5679 74.7048 46.2959C75.2008 45.9919 75.5848 45.8719 75.8568 45.9359C76.1448 45.9999 76.4328 46.2559 76.7208 46.7039L81.1128 53.5439L79.8408 56.7359ZM93.376 58.0319C92.336 58.0319 91.424 57.8639 90.64 57.5279C89.872 57.1919 89.224 56.7359 88.696 56.1599C88.184 55.5679 87.792 54.9119 87.52 54.1919C87.264 53.4559 87.136 52.6959 87.136 51.9119C87.136 50.7599 87.4 49.7359 87.928 48.8399C88.456 47.9439 89.184 47.2399 90.112 46.7279C91.056 46.2159 92.136 45.9599 93.352 45.9599C94.216 45.9599 94.976 46.0959 95.632 46.3679C96.288 46.6399 96.832 46.9999 97.264 47.4479C97.712 47.8799 98.048 48.3599 98.272 48.8879C98.512 49.4159 98.632 49.9279 98.632 50.4239C98.632 51.2719 98.424 51.8879 98.008 52.2719C97.608 52.6559 97.104 52.8479 96.496 52.8479H90.16C90.176 53.3919 90.344 53.8639 90.664 54.2639C91 54.6639 91.416 54.9759 91.912 55.1999C92.424 55.4079 92.944 55.5119 93.472 55.5119C93.872 55.5119 94.224 55.4879 94.528 55.4399C94.848 55.3919 95.12 55.3359 95.344 55.2719C95.568 55.1919 95.76 55.1119 95.92 55.0319C96.096 54.9519 96.256 54.8799 96.4 54.8159C96.544 54.7519 96.68 54.7119 96.808 54.6959C96.984 54.6799 97.16 54.7199 97.336 54.8159C97.512 54.9119 97.656 55.0799 97.768 55.3199C97.864 55.4799 97.928 55.6319 97.96 55.7759C98.008 55.9039 98.032 56.0319 98.032 56.1599C98.032 56.4799 97.84 56.7839 97.456 57.0719C97.072 57.3439 96.528 57.5679 95.824 57.7439C95.136 57.9359 94.32 58.0319 93.376 58.0319ZM90.16 51.1439H95.08C95.352 51.1439 95.56 51.1039 95.704 51.0239C95.848 50.9279 95.92 50.7359 95.92 50.4479C95.92 50.0799 95.808 49.7519 95.584 49.4639C95.36 49.1599 95.056 48.9279 94.672 48.7679C94.288 48.5919 93.84 48.5039 93.328 48.5039C92.736 48.5039 92.2 48.6239 91.72 48.8639C91.24 49.0879 90.856 49.3999 90.568 49.7999C90.296 50.1999 90.16 50.6479 90.16 51.1439ZM106.77 57.8639C105.986 57.8639 105.282 57.7119 104.658 57.4079C104.05 57.0879 103.53 56.6559 103.098 56.1119C102.682 55.5679 102.362 54.9439 102.138 54.2399C101.93 53.5199 101.826 52.7519 101.826 51.9359C101.842 51.1199 101.962 50.3599 102.186 49.6559C102.41 48.9359 102.73 48.3119 103.146 47.7839C103.578 47.2399 104.098 46.8159 104.706 46.5119C105.314 46.2079 106.002 46.0559 106.77 46.0559C107.506 46.0559 108.194 46.2079 108.834 46.5119C109.49 46.8159 110.066 47.2399 110.562 47.7839C111.074 48.3119 111.474 48.9359 111.762 49.6559C112.05 50.3599 112.194 51.1119 112.194 51.9119C112.194 52.7439 112.05 53.5279 111.762 54.2639C111.474 54.9839 111.082 55.6159 110.586 56.1599C110.09 56.6879 109.514 57.1039 108.858 57.4079C108.202 57.7119 107.506 57.8639 106.77 57.8639ZM106.386 55.0559C106.946 55.0559 107.45 54.9279 107.898 54.6719C108.346 54.3999 108.698 54.0319 108.954 53.5679C109.226 53.1039 109.362 52.5759 109.362 51.9839C109.362 51.3759 109.226 50.8399 108.954 50.3759C108.698 49.8959 108.346 49.5279 107.898 49.2719C107.45 48.9999 106.946 48.8639 106.386 48.8639C105.842 48.8639 105.346 48.9999 104.898 49.2719C104.45 49.5439 104.09 49.9119 103.818 50.3759C103.562 50.8399 103.434 51.3759 103.434 51.9839C103.434 52.5759 103.562 53.1039 103.818 53.5679C104.09 54.0319 104.45 54.3999 104.898 54.6719C105.346 54.9279 105.842 55.0559 106.386 55.0559ZM101.946 57.8879C101.514 57.8879 101.194 57.8159 100.986 57.6719C100.778 57.5439 100.65 57.3759 100.602 57.1679C100.554 56.9439 100.53 56.6959 100.53 56.4239V42.1199C100.53 41.8479 100.554 41.6079 100.602 41.3999C100.65 41.1759 100.778 40.9999 100.986 40.8719C101.194 40.7439 101.514 40.6799 101.946 40.6799C102.394 40.6799 102.714 40.7439 102.906 40.8719C103.098 40.9999 103.218 41.1759 103.266 41.3999C103.314 41.6239 103.338 41.8639 103.338 42.1199V56.9039C103.274 57.2559 103.138 57.5039 102.93 57.6479C102.738 57.8079 102.41 57.8879 101.946 57.8879ZM123.965 57.8399C123.501 57.8399 123.157 57.7519 122.933 57.5759C122.709 57.3999 122.597 57.1599 122.597 56.8559L122.765 56.0639C122.637 56.2719 122.421 56.5199 122.117 56.8079C121.813 57.0799 121.413 57.3279 120.917 57.5519C120.421 57.7599 119.821 57.8639 119.117 57.8639C118.365 57.8639 117.653 57.7119 116.981 57.4079C116.325 57.0879 115.741 56.6559 115.229 56.1119C114.733 55.5519 114.333 54.9199 114.029 54.2159C113.741 53.4959 113.597 52.7279 113.597 51.9119C113.597 51.1279 113.741 50.3919 114.029 49.7039C114.333 48.9999 114.741 48.3759 115.253 47.8319C115.765 47.2879 116.349 46.8639 117.005 46.5599C117.677 46.2399 118.381 46.0799 119.117 46.0799C119.773 46.0799 120.325 46.1679 120.773 46.3439C121.237 46.5199 121.629 46.7439 121.949 47.0159C122.269 47.2719 122.533 47.5439 122.741 47.8319L122.597 47.1359C122.597 46.7839 122.709 46.5199 122.933 46.3439C123.157 46.1519 123.509 46.0559 123.989 46.0559C124.437 46.0559 124.757 46.1279 124.949 46.2719C125.141 46.3999 125.261 46.5839 125.309 46.8239C125.357 47.0479 125.381 47.3039 125.381 47.5919V56.3759C125.381 56.6479 125.357 56.8959 125.309 57.1199C125.261 57.3439 125.133 57.5199 124.925 57.6479C124.733 57.7759 124.413 57.8399 123.965 57.8399ZM119.549 55.0559C120.093 55.0559 120.581 54.9199 121.013 54.6479C121.445 54.3759 121.789 54.0079 122.045 53.5439C122.317 53.0639 122.453 52.5359 122.453 51.9599C122.453 51.3359 122.317 50.7919 122.045 50.3279C121.773 49.8639 121.413 49.5039 120.965 49.2479C120.533 48.9759 120.045 48.8399 119.501 48.8399C118.909 48.8399 118.381 48.9839 117.917 49.2719C117.453 49.5439 117.085 49.9199 116.813 50.3999C116.557 50.8639 116.429 51.3919 116.429 51.9839C116.429 52.5599 116.565 53.0799 116.837 53.5439C117.109 54.0079 117.477 54.3759 117.941 54.6479C118.421 54.9199 118.957 55.0559 119.549 55.0559ZM133.957 57.8639C133.173 57.8639 132.469 57.7119 131.845 57.4079C131.237 57.0879 130.717 56.6559 130.285 56.1119C129.869 55.5679 129.549 54.9439 129.325 54.2399C129.117 53.5199 129.013 52.7519 129.013 51.9359C129.029 51.1199 129.149 50.3599 129.373 49.6559C129.597 48.9359 129.917 48.3119 130.333 47.7839C130.765 47.2399 131.285 46.8159 131.893 46.5119C132.501 46.2079 133.189 46.0559 133.957 46.0559C134.693 46.0559 135.381 46.2079 136.021 46.5119C136.677 46.8159 137.253 47.2399 137.749 47.7839C138.261 48.3119 138.661 48.9359 138.949 49.6559C139.237 50.3599 139.381 51.1119 139.381 51.9119C139.381 52.7439 139.237 53.5279 138.949 54.2639C138.661 54.9839 138.269 55.6159 137.773 56.1599C137.277 56.6879 136.701 57.1039 136.045 57.4079C135.389 57.7119 134.693 57.8639 133.957 57.8639ZM133.573 55.0559C134.133 55.0559 134.637 54.9279 135.085 54.6719C135.533 54.3999 135.885 54.0319 136.141 53.5679C136.413 53.1039 136.549 52.5759 136.549 51.9839C136.549 51.3759 136.413 50.8399 136.141 50.3759C135.885 49.8959 135.533 49.5279 135.085 49.2719C134.637 48.9999 134.133 48.8639 133.573 48.8639C133.029 48.8639 132.533 48.9999 132.085 49.2719C131.637 49.5439 131.277 49.9119 131.005 50.3759C130.749 50.8399 130.621 51.3759 130.621 51.9839C130.621 52.5759 130.749 53.1039 131.005 53.5679C131.277 54.0319 131.637 54.3999 132.085 54.6719C132.533 54.9279 133.029 55.0559 133.573 55.0559ZM129.133 57.8879C128.701 57.8879 128.381 57.8159 128.173 57.6719C127.965 57.5439 127.837 57.3759 127.789 57.1679C127.741 56.9439 127.717 56.6959 127.717 56.4239V42.1199C127.717 41.8479 127.741 41.6079 127.789 41.3999C127.837 41.1759 127.965 40.9999 128.173 40.8719C128.381 40.7439 128.701 40.6799 129.133 40.6799C129.581 40.6799 129.901 40.7439 130.093 40.8719C130.285 40.9999 130.405 41.1759 130.453 41.3999C130.501 41.6239 130.525 41.8639 130.525 42.1199V56.9039C130.461 57.2559 130.325 57.5039 130.117 57.6479C129.925 57.8079 129.597 57.8879 129.133 57.8879ZM153.027 57.8879C152.243 57.8879 151.571 57.8079 151.011 57.6479C150.451 57.4879 149.995 57.2399 149.643 56.9039C149.291 56.5679 149.027 56.1359 148.851 55.6079C148.691 55.0639 148.611 54.4239 148.611 53.6879V43.5119C148.611 43.2239 148.635 42.9759 148.683 42.7679C148.747 42.5599 148.875 42.3999 149.067 42.2879C149.275 42.1599 149.595 42.0959 150.027 42.0959C150.475 42.0959 150.795 42.1599 150.987 42.2879C151.195 42.4159 151.323 42.5919 151.371 42.8159C151.435 43.0239 151.467 43.2559 151.467 43.5119V53.5919C151.467 53.9279 151.491 54.1999 151.539 54.4079C151.603 54.6159 151.691 54.7759 151.803 54.8879C151.931 54.9839 152.091 55.0559 152.283 55.1039C152.491 55.1359 152.739 55.1519 153.027 55.1519C153.331 55.1519 153.587 55.1759 153.795 55.2239C154.019 55.2719 154.187 55.3919 154.299 55.5839C154.411 55.7599 154.467 56.0559 154.467 56.4719C154.467 56.9199 154.395 57.2479 154.251 57.4559C154.123 57.6479 153.947 57.7679 153.723 57.8159C153.515 57.8639 153.283 57.8879 153.027 57.8879ZM147.627 46.2959L150.099 46.3199L153.411 46.2239C153.683 46.2239 153.923 46.2559 154.131 46.3199C154.355 46.3679 154.531 46.4959 154.659 46.7039C154.787 46.8959 154.851 47.2159 154.851 47.6639C154.851 48.0799 154.787 48.3919 154.659 48.5999C154.531 48.8079 154.363 48.9439 154.155 49.0079C153.947 49.0559 153.707 49.0799 153.435 49.0799L150.219 49.0319L147.555 49.0559C147.155 49.0399 146.875 48.9279 146.715 48.7199C146.571 48.4959 146.499 48.1359 146.499 47.6399C146.499 47.1759 146.587 46.8399 146.763 46.6319C146.955 46.4079 147.243 46.2959 147.627 46.2959ZM162.353 58.0319C161.313 58.0319 160.401 57.8639 159.617 57.5279C158.849 57.1919 158.201 56.7359 157.673 56.1599C157.161 55.5679 156.769 54.9119 156.497 54.1919C156.241 53.4559 156.113 52.6959 156.113 51.9119C156.113 50.7599 156.377 49.7359 156.905 48.8399C157.433 47.9439 158.161 47.2399 159.089 46.7279C160.033 46.2159 161.113 45.9599 162.329 45.9599C163.193 45.9599 163.953 46.0959 164.609 46.3679C165.265 46.6399 165.809 46.9999 166.241 47.4479C166.689 47.8799 167.025 48.3599 167.249 48.8879C167.489 49.4159 167.609 49.9279 167.609 50.4239C167.609 51.2719 167.401 51.8879 166.985 52.2719C166.585 52.6559 166.081 52.8479 165.473 52.8479H159.137C159.153 53.3919 159.321 53.8639 159.641 54.2639C159.977 54.6639 160.393 54.9759 160.889 55.1999C161.401 55.4079 161.921 55.5119 162.449 55.5119C162.849 55.5119 163.201 55.4879 163.505 55.4399C163.825 55.3919 164.097 55.3359 164.321 55.2719C164.545 55.1919 164.737 55.1119 164.897 55.0319C165.073 54.9519 165.233 54.8799 165.377 54.8159C165.521 54.7519 165.657 54.7119 165.785 54.6959C165.961 54.6799 166.137 54.7199 166.313 54.8159C166.489 54.9119 166.633 55.0799 166.745 55.3199C166.841 55.4799 166.905 55.6319 166.937 55.7759C166.985 55.9039 167.009 56.0319 167.009 56.1599C167.009 56.4799 166.817 56.7839 166.433 57.0719C166.049 57.3439 165.505 57.5679 164.801 57.7439C164.113 57.9359 163.297 58.0319 162.353 58.0319ZM159.137 51.1439H164.057C164.329 51.1439 164.537 51.1039 164.681 51.0239C164.825 50.9279 164.897 50.7359 164.897 50.4479C164.897 50.0799 164.785 49.7519 164.561 49.4639C164.337 49.1599 164.033 48.9279 163.649 48.7679C163.265 48.5919 162.817 48.5039 162.305 48.5039C161.713 48.5039 161.177 48.6239 160.697 48.8639C160.217 49.0879 159.833 49.3999 159.545 49.7999C159.273 50.1999 159.137 50.6479 159.137 51.1439ZM178.986 55.2959C179.402 55.6479 179.618 55.9759 179.634 56.2799C179.666 56.5839 179.506 56.9359 179.154 57.3359C178.882 57.6399 178.642 57.8399 178.434 57.9359C178.226 58.0319 178.018 58.0319 177.81 57.9359C177.602 57.8559 177.354 57.6959 177.066 57.4559L172.482 53.5919V56.4479C172.482 56.7039 172.45 56.9439 172.386 57.1679C172.338 57.3919 172.21 57.5679 172.002 57.6959C171.81 57.8239 171.49 57.8879 171.042 57.8879C170.594 57.8879 170.266 57.8159 170.058 57.6719C169.866 57.5439 169.746 57.3679 169.698 57.1439C169.65 56.9199 169.626 56.6799 169.626 56.4239V42.0959C169.626 41.8239 169.65 41.5839 169.698 41.3759C169.762 41.1519 169.89 40.9759 170.082 40.8479C170.29 40.7039 170.618 40.6319 171.066 40.6319C171.514 40.6319 171.834 40.7039 172.026 40.8479C172.218 40.9759 172.338 41.1519 172.386 41.3759C172.45 41.5839 172.482 41.8319 172.482 42.1199V49.9919L175.794 46.7759C176.05 46.5359 176.29 46.3759 176.514 46.2959C176.738 46.1999 176.954 46.1919 177.162 46.2719C177.386 46.3359 177.618 46.5039 177.858 46.7759C178.258 47.2079 178.45 47.5679 178.434 47.8559C178.418 48.1279 178.218 48.4559 177.834 48.8399L174.594 51.8399L178.986 55.2959ZM182.924 57.8639C182.492 57.8639 182.172 57.7919 181.964 57.6479C181.772 57.5199 181.652 57.3519 181.604 57.1439C181.556 56.9199 181.532 56.6719 181.532 56.3999V47.4239C181.532 47.1679 181.556 46.9359 181.604 46.7279C181.652 46.5199 181.78 46.3599 181.988 46.2479C182.196 46.1199 182.516 46.0559 182.948 46.0559C183.332 46.0559 183.62 46.1039 183.812 46.1999C184.004 46.2959 184.132 46.4159 184.196 46.5599C184.26 46.7039 184.292 46.8479 184.292 46.9919C184.308 47.1359 184.324 47.2479 184.34 47.3279L184.244 48.0959C184.34 47.8399 184.5 47.5919 184.724 47.3519C184.948 47.1119 185.22 46.8959 185.54 46.7039C185.86 46.4959 186.204 46.3359 186.572 46.2239C186.956 46.0959 187.348 46.0319 187.748 46.0319C188.5 46.0319 189.172 46.1679 189.764 46.4399C190.356 46.7119 190.86 47.0959 191.276 47.5919C191.708 48.0879 192.036 48.6799 192.26 49.3679C192.484 50.0399 192.596 50.7999 192.596 51.6479V56.4239C192.596 56.6959 192.564 56.9439 192.5 57.1679C192.452 57.3759 192.332 57.5439 192.14 57.6719C191.948 57.7999 191.62 57.8639 191.156 57.8639C190.708 57.8639 190.38 57.7919 190.172 57.6479C189.964 57.5199 189.836 57.3519 189.788 57.1439C189.74 56.9199 189.716 56.6719 189.716 56.3999V51.6239C189.716 51.0479 189.612 50.5519 189.404 50.1359C189.212 49.7199 188.924 49.3999 188.54 49.1759C188.172 48.9519 187.7 48.8399 187.124 48.8399C186.564 48.8399 186.076 48.9599 185.66 49.1999C185.244 49.4239 184.924 49.7439 184.7 50.1599C184.476 50.5759 184.364 51.0639 184.364 51.6239V56.4239C184.364 56.6959 184.34 56.9439 184.292 57.1679C184.244 57.3759 184.116 57.5439 183.908 57.6719C183.716 57.7999 183.388 57.8639 182.924 57.8639ZM200.457 58.0319C199.689 58.0319 198.937 57.8879 198.201 57.5999C197.481 57.2959 196.825 56.8719 196.233 56.3279C195.657 55.7839 195.193 55.1439 194.841 54.4079C194.505 53.6719 194.337 52.8639 194.337 51.9839C194.337 51.1359 194.497 50.3439 194.817 49.6079C195.137 48.8719 195.577 48.2239 196.137 47.6639C196.697 47.1039 197.337 46.6719 198.057 46.3679C198.793 46.0479 199.577 45.8879 200.409 45.8879C201.529 45.8879 202.545 46.1599 203.457 46.7039C204.369 47.2319 205.097 47.9519 205.641 48.8639C206.185 49.7759 206.457 50.8079 206.457 51.9599C206.457 52.8719 206.289 53.7039 205.953 54.4559C205.617 55.1919 205.161 55.8319 204.585 56.3759C204.009 56.9039 203.361 57.3119 202.641 57.5999C201.937 57.8879 201.209 58.0319 200.457 58.0319ZM200.409 55.1999C200.937 55.1999 201.441 55.0719 201.921 54.8159C202.417 54.5439 202.817 54.1599 203.121 53.6639C203.441 53.1679 203.601 52.5839 203.601 51.9119C203.601 51.2879 203.457 50.7359 203.169 50.2559C202.897 49.7759 202.521 49.3999 202.041 49.1279C201.561 48.8559 201.009 48.7199 200.385 48.7199C199.793 48.7199 199.257 48.8639 198.777 49.1519C198.297 49.4239 197.913 49.8079 197.625 50.3039C197.353 50.7839 197.217 51.3279 197.217 51.9359C197.217 52.6079 197.369 53.1919 197.673 53.6879C197.977 54.1679 198.369 54.5439 198.849 54.8159C199.345 55.0719 199.865 55.1999 200.409 55.1999ZM212.472 57.8879C211.88 57.8879 211.352 57.8479 210.888 57.7679C210.44 57.6879 210.048 57.5519 209.712 57.3599C209.392 57.1679 209.128 56.9119 208.92 56.5919C208.712 56.2559 208.552 55.8479 208.44 55.3679C208.344 54.8879 208.296 54.3119 208.296 53.6399V42.0719C208.296 41.7999 208.32 41.5599 208.368 41.3519C208.432 41.1279 208.56 40.9519 208.752 40.8239C208.96 40.6799 209.288 40.6079 209.736 40.6079C210.184 40.6079 210.504 40.6719 210.696 40.7999C210.904 40.9279 211.032 41.1039 211.08 41.3279C211.144 41.5359 211.176 41.7759 211.176 42.0479V53.5199C211.176 53.8239 211.192 54.0799 211.224 54.2879C211.272 54.4799 211.344 54.6399 211.44 54.7679C211.552 54.8799 211.688 54.9599 211.848 55.0079C212.024 55.0559 212.232 55.0799 212.472 55.0799C212.68 55.0799 212.864 55.1039 213.024 55.1519C213.2 55.1999 213.336 55.3199 213.432 55.5119C213.544 55.7039 213.6 56.0159 213.6 56.4479C213.6 56.8959 213.544 57.2239 213.432 57.4319C213.336 57.6399 213.2 57.7679 213.024 57.8159C212.848 57.8639 212.664 57.8879 212.472 57.8879ZM220.848 58.0319C220.08 58.0319 219.328 57.8879 218.592 57.5999C217.872 57.2959 217.216 56.8719 216.624 56.3279C216.048 55.7839 215.584 55.1439 215.232 54.4079C214.896 53.6719 214.728 52.8639 214.728 51.9839C214.728 51.1359 214.888 50.3439 215.208 49.6079C215.528 48.8719 215.968 48.2239 216.528 47.6639C217.088 47.1039 217.728 46.6719 218.448 46.3679C219.184 46.0479 219.968 45.8879 220.8 45.8879C221.92 45.8879 222.936 46.1599 223.848 46.7039C224.76 47.2319 225.488 47.9519 226.032 48.8639C226.576 49.7759 226.848 50.8079 226.848 51.9599C226.848 52.8719 226.68 53.7039 226.344 54.4559C226.008 55.1919 225.552 55.8319 224.976 56.3759C224.4 56.9039 223.752 57.3119 223.032 57.5999C222.328 57.8879 221.6 58.0319 220.848 58.0319ZM220.8 55.1999C221.328 55.1999 221.832 55.0719 222.312 54.8159C222.808 54.5439 223.208 54.1599 223.512 53.6639C223.832 53.1679 223.992 52.5839 223.992 51.9119C223.992 51.2879 223.848 50.7359 223.56 50.2559C223.288 49.7759 222.912 49.3999 222.432 49.1279C221.952 48.8559 221.4 48.7199 220.776 48.7199C220.184 48.7199 219.648 48.8639 219.168 49.1519C218.688 49.4239 218.304 49.8079 218.016 50.3039C217.744 50.7839 217.608 51.3279 217.608 51.9359C217.608 52.6079 217.76 53.1919 218.064 53.6879C218.368 54.1679 218.76 54.5439 219.24 54.8159C219.736 55.0719 220.256 55.1999 220.8 55.1999ZM233.894 62.6879C233.318 62.6879 232.766 62.6159 232.238 62.4719C231.71 62.3439 231.23 62.1679 230.798 61.9439C230.382 61.7199 230.046 61.4799 229.79 61.2239C229.55 60.9679 229.43 60.7279 229.43 60.5039C229.43 60.2799 229.462 60.0879 229.526 59.9279C229.606 59.7679 229.718 59.6079 229.862 59.4479C230.054 59.2559 230.206 59.1119 230.318 59.0159C230.446 58.9199 230.614 58.8719 230.822 58.8719C230.998 58.8719 231.166 58.9359 231.326 59.0639C231.502 59.1919 231.702 59.3359 231.926 59.4959C232.15 59.6559 232.422 59.7999 232.742 59.9279C233.062 60.0559 233.47 60.1199 233.966 60.1199C234.382 60.1199 234.766 60.0479 235.118 59.9039C235.47 59.7599 235.766 59.5439 236.006 59.2559C236.262 58.9839 236.462 58.6559 236.606 58.2719C236.75 57.8879 236.822 57.4559 236.822 56.9759L236.798 47.0399C236.83 46.6719 236.958 46.4159 237.182 46.2719C237.406 46.1119 237.75 46.0319 238.214 46.0319C238.646 46.0319 238.958 46.0959 239.15 46.2239C239.342 46.3359 239.462 46.5039 239.51 46.7279C239.558 46.9359 239.582 47.1679 239.582 47.4239V57.1439C239.582 58.0239 239.43 58.8079 239.126 59.4959C238.822 60.1839 238.406 60.7599 237.878 61.2239C237.35 61.7039 236.742 62.0639 236.054 62.3039C235.382 62.5599 234.662 62.6879 233.894 62.6879ZM233.63 57.5759C232.878 57.5759 232.174 57.4319 231.518 57.1439C230.878 56.8559 230.31 56.4479 229.814 55.9199C229.334 55.3919 228.95 54.7839 228.662 54.0959C228.39 53.3919 228.254 52.6319 228.254 51.8159C228.254 51.0159 228.39 50.2719 228.662 49.5839C228.95 48.8959 229.334 48.2879 229.814 47.7599C230.31 47.2319 230.878 46.8239 231.518 46.5359C232.174 46.2319 232.87 46.0799 233.606 46.0799C234.326 46.0799 234.95 46.2239 235.478 46.5119C236.022 46.7839 236.47 47.1759 236.822 47.6879C237.174 48.1999 237.438 48.8079 237.614 49.5119C237.806 50.2159 237.902 50.9919 237.902 51.8399C237.902 53.0079 237.742 54.0239 237.422 54.8879C237.102 55.7519 236.63 56.4159 236.006 56.8799C235.382 57.3439 234.59 57.5759 233.63 57.5759ZM233.894 54.8639C234.438 54.8639 234.918 54.7359 235.334 54.4799C235.766 54.2079 236.102 53.8399 236.342 53.3759C236.598 52.9119 236.726 52.3919 236.726 51.8159C236.726 51.2239 236.598 50.7039 236.342 50.2559C236.102 49.7919 235.766 49.4319 235.334 49.1759C234.902 48.9199 234.414 48.7919 233.87 48.7919C233.326 48.7919 232.838 48.9279 232.406 49.1999C231.99 49.4559 231.662 49.8079 231.422 50.2559C231.182 50.7039 231.062 51.2239 231.062 51.8159C231.062 52.4079 231.182 52.9359 231.422 53.3999C231.678 53.8479 232.014 54.2079 232.43 54.4799C232.862 54.7359 233.35 54.8639 233.894 54.8639ZM243.677 57.8879C243.245 57.8879 242.925 57.8159 242.717 57.6719C242.509 57.5439 242.381 57.3759 242.333 57.1679C242.285 56.9439 242.261 56.6959 242.261 56.4239V47.4959C242.261 47.2399 242.285 47.0079 242.333 46.7999C242.397 46.5759 242.525 46.3999 242.717 46.2719C242.925 46.1439 243.253 46.0799 243.701 46.0799C244.149 46.0799 244.469 46.1439 244.661 46.2719C244.869 46.3999 244.997 46.5759 245.045 46.7999C245.093 47.0239 245.117 47.2719 245.117 47.5439V56.4479C245.117 56.7199 245.093 56.9679 245.045 57.1919C244.997 57.3999 244.869 57.5679 244.661 57.6959C244.469 57.8239 244.141 57.8879 243.677 57.8879ZM243.677 43.7519C243.213 43.7519 242.869 43.6879 242.645 43.5599C242.437 43.4159 242.301 43.2239 242.237 42.9839C242.189 42.7439 242.165 42.4799 242.165 42.1919C242.165 41.8879 242.189 41.6239 242.237 41.3999C242.301 41.1759 242.445 40.9999 242.669 40.8719C242.893 40.7279 243.237 40.6559 243.701 40.6559C244.181 40.6559 244.525 40.7279 244.733 40.8719C244.941 41.0159 245.077 41.2079 245.141 41.4479C245.205 41.6719 245.237 41.9359 245.237 42.2399C245.237 42.5119 245.205 42.7679 245.141 43.0079C245.077 43.2479 244.941 43.4319 244.733 43.5599C244.525 43.6879 244.173 43.7519 243.677 43.7519ZM247.886 60.3599C247.886 60.3599 247.854 60.3439 247.79 60.3119C247.726 60.2959 247.662 60.2319 247.598 60.1199C247.534 60.0239 247.502 59.8639 247.502 59.6399C247.502 59.3359 247.55 59.1359 247.646 59.0399C247.742 58.9599 247.806 58.9119 247.838 58.8959C247.854 58.8799 247.966 58.7839 248.174 58.6079C248.382 58.4479 248.502 58.1679 248.534 57.7679C248.374 57.7359 248.23 57.6959 248.102 57.6479C247.99 57.5839 247.894 57.5119 247.814 57.4319C247.654 57.2719 247.558 57.0879 247.526 56.8799C247.494 56.6559 247.478 56.4319 247.478 56.2079C247.478 55.8399 247.518 55.5359 247.598 55.2959C247.678 55.0559 247.83 54.8799 248.054 54.7679C248.294 54.6399 248.646 54.5759 249.11 54.5759C249.718 54.5759 250.15 54.7039 250.406 54.9599C250.55 55.1039 250.63 55.2879 250.646 55.5119C250.678 55.7359 250.694 55.9599 250.694 56.1839C250.694 56.3439 250.694 56.4799 250.694 56.5919C250.694 56.6879 250.686 56.7759 250.67 56.8559C250.606 57.4959 250.438 58.0799 250.166 58.6079C249.91 59.1359 249.582 59.5599 249.182 59.8799C248.798 60.1999 248.366 60.3599 247.886 60.3599ZM249.062 49.9439C248.454 49.9439 248.03 49.8239 247.79 49.5839C247.566 49.3279 247.454 48.9199 247.454 48.3599C247.454 47.9439 247.494 47.6159 247.574 47.3759C247.67 47.1359 247.838 46.9679 248.078 46.8719C248.334 46.7599 248.67 46.7039 249.086 46.7039C249.71 46.7039 250.134 46.8239 250.358 47.0639C250.582 47.3039 250.694 47.7279 250.694 48.3359C250.694 48.6239 250.662 48.8959 250.598 49.1519C250.534 49.3919 250.39 49.5839 250.166 49.7279C249.942 49.8719 249.574 49.9439 249.062 49.9439ZM260.339 57.8639C259.923 57.8639 259.611 57.7919 259.403 57.6479C259.195 57.5199 259.059 57.3439 258.995 57.1199C258.931 56.8959 258.899 56.6559 258.899 56.3999V42.5279C258.899 42.2719 258.923 42.0399 258.971 41.8319C259.035 41.6079 259.171 41.4319 259.379 41.3039C259.587 41.1599 259.915 41.0879 260.363 41.0879L264.875 41.1119C266.043 41.1119 267.115 41.3119 268.091 41.7119C269.083 42.1119 269.939 42.6799 270.659 43.4159C271.379 44.1519 271.931 45.0319 272.315 46.0559C272.715 47.0639 272.915 48.1759 272.915 49.3919C272.915 50.6399 272.715 51.7839 272.315 52.8239C271.915 53.8639 271.355 54.7599 270.635 55.5119C269.915 56.2639 269.059 56.8479 268.067 57.2639C267.091 57.6639 266.003 57.8639 264.803 57.8639H260.339ZM261.803 54.9599H264.875C265.899 54.9599 266.795 54.7359 267.563 54.2879C268.331 53.8239 268.923 53.1839 269.339 52.3679C269.771 51.5519 269.987 50.5999 269.987 49.5119C269.987 48.4079 269.771 47.4479 269.339 46.6319C268.923 45.7999 268.323 45.1599 267.539 44.7119C266.771 44.2479 265.875 44.0159 264.851 44.0159H261.803V54.9599ZM285.027 57.8399C284.563 57.8399 284.219 57.7519 283.995 57.5759C283.771 57.3999 283.659 57.1599 283.659 56.8559L283.827 56.0639C283.699 56.2719 283.483 56.5199 283.179 56.8079C282.875 57.0799 282.475 57.3279 281.979 57.5519C281.483 57.7599 280.883 57.8639 280.179 57.8639C279.427 57.8639 278.715 57.7119 278.043 57.4079C277.387 57.0879 276.803 56.6559 276.291 56.1119C275.795 55.5519 275.395 54.9199 275.091 54.2159C274.803 53.4959 274.659 52.7279 274.659 51.9119C274.659 51.1279 274.803 50.3919 275.091 49.7039C275.395 48.9999 275.803 48.3759 276.315 47.8319C276.827 47.2879 277.411 46.8639 278.067 46.5599C278.739 46.2399 279.443 46.0799 280.179 46.0799C280.835 46.0799 281.387 46.1679 281.835 46.3439C282.299 46.5199 282.691 46.7439 283.011 47.0159C283.331 47.2719 283.595 47.5439 283.803 47.8319L283.659 47.1359C283.659 46.7839 283.771 46.5199 283.995 46.3439C284.219 46.1519 284.571 46.0559 285.051 46.0559C285.499 46.0559 285.819 46.1279 286.011 46.2719C286.203 46.3999 286.323 46.5839 286.371 46.8239C286.419 47.0479 286.443 47.3039 286.443 47.5919V56.3759C286.443 56.6479 286.419 56.8959 286.371 57.1199C286.323 57.3439 286.195 57.5199 285.987 57.6479C285.795 57.7759 285.475 57.8399 285.027 57.8399ZM280.611 55.0559C281.155 55.0559 281.643 54.9199 282.075 54.6479C282.507 54.3759 282.851 54.0079 283.107 53.5439C283.379 53.0639 283.515 52.5359 283.515 51.9599C283.515 51.3359 283.379 50.7919 283.107 50.3279C282.835 49.8639 282.475 49.5039 282.027 49.2479C281.595 48.9759 281.107 48.8399 280.563 48.8399C279.971 48.8399 279.443 48.9839 278.979 49.2719C278.515 49.5439 278.147 49.9199 277.875 50.3999C277.619 50.8639 277.491 51.3919 277.491 51.9839C277.491 52.5599 277.627 53.0799 277.899 53.5439C278.171 54.0079 278.539 54.3759 279.003 54.6479C279.483 54.9199 280.019 55.0559 280.611 55.0559ZM290.244 57.8639C289.812 57.8639 289.492 57.7999 289.284 57.6719C289.092 57.5439 288.972 57.3679 288.924 57.1439C288.876 56.9199 288.852 56.6799 288.852 56.4239V47.4479C288.852 47.1919 288.876 46.9599 288.924 46.7519C288.972 46.5439 289.1 46.3759 289.308 46.2479C289.516 46.1199 289.844 46.0559 290.292 46.0559C290.756 46.0559 291.092 46.1519 291.3 46.3439C291.524 46.5359 291.636 46.8399 291.636 47.2559L291.42 47.9279C291.5 47.7519 291.636 47.5599 291.828 47.3519C292.02 47.1439 292.252 46.9359 292.524 46.7279C292.812 46.5199 293.132 46.3519 293.484 46.2239C293.836 46.0959 294.204 46.0319 294.588 46.0319C295.116 46.0319 295.596 46.1199 296.028 46.2959C296.476 46.4719 296.868 46.7279 297.204 47.0639C297.556 47.3999 297.86 47.8079 298.116 48.2879C298.388 47.8719 298.692 47.4959 299.028 47.1599C299.364 46.8079 299.756 46.5359 300.204 46.3439C300.652 46.1359 301.156 46.0319 301.716 46.0319C302.644 46.0319 303.42 46.2639 304.044 46.7279C304.684 47.1919 305.164 47.8559 305.484 48.7199C305.82 49.5679 305.988 50.5839 305.988 51.7679V56.4239C305.988 56.6959 305.956 56.9439 305.892 57.1679C305.844 57.3759 305.716 57.5439 305.508 57.6719C305.316 57.7999 304.996 57.8639 304.548 57.8639C304.1 57.8639 303.772 57.7919 303.564 57.6479C303.356 57.5199 303.228 57.3519 303.18 57.1439C303.132 56.9199 303.108 56.6719 303.108 56.3999V51.7439C303.108 51.1519 303.036 50.6399 302.892 50.2079C302.748 49.7759 302.532 49.4399 302.244 49.1999C301.972 48.9599 301.612 48.8399 301.164 48.8399C300.684 48.8399 300.268 48.9599 299.916 49.1999C299.58 49.4239 299.316 49.7519 299.124 50.1839C298.932 50.6159 298.836 51.1439 298.836 51.7679V56.4479C298.836 56.7199 298.796 56.9759 298.716 57.2159C298.636 57.4399 298.476 57.6079 298.236 57.7199C298.012 57.8479 297.684 57.8959 297.252 57.8639C296.852 57.8479 296.556 57.7679 296.364 57.6239C296.188 57.4799 296.076 57.3039 296.028 57.0959C295.996 56.8719 295.98 56.6399 295.98 56.3999V51.7439C295.98 51.1519 295.908 50.6399 295.764 50.2079C295.62 49.7599 295.404 49.4239 295.116 49.1999C294.844 48.9599 294.476 48.8399 294.012 48.8399C293.516 48.8399 293.092 48.9679 292.74 49.2239C292.404 49.4799 292.148 49.8239 291.972 50.2559C291.796 50.6879 291.708 51.1839 291.708 51.7439V56.4479C291.708 56.7039 291.676 56.9439 291.612 57.1679C291.564 57.3919 291.436 57.5599 291.228 57.6719C291.036 57.7999 290.708 57.8639 290.244 57.8639ZM314.47 57.7199C313.686 57.7199 312.982 57.5759 312.358 57.2879C311.75 56.9839 311.23 56.5679 310.798 56.0399C310.382 55.4959 310.062 54.8719 309.838 54.1679C309.63 53.4639 309.526 52.7039 309.526 51.8879C309.542 51.0719 309.662 50.3119 309.886 49.6079C310.11 48.8879 310.43 48.2639 310.846 47.7359C311.278 47.2079 311.798 46.7919 312.406 46.4879C313.014 46.1839 313.702 46.0319 314.47 46.0319C315.206 46.0319 315.894 46.1839 316.534 46.4879C317.19 46.7919 317.766 47.2159 318.262 47.7599C318.774 48.3039 319.174 48.9359 319.462 49.6559C319.75 50.3599 319.894 51.1199 319.894 51.9359C319.894 52.7679 319.75 53.5359 319.462 54.2399C319.174 54.9439 318.782 55.5599 318.286 56.0879C317.79 56.5999 317.214 56.9999 316.558 57.2879C315.902 57.5759 315.206 57.7199 314.47 57.7199ZM309.67 62.7119C309.238 62.7119 308.918 62.6479 308.71 62.5199C308.502 62.3919 308.374 62.2239 308.326 62.0159C308.278 61.8079 308.254 61.5679 308.254 61.2959V47.4959C308.254 47.2239 308.278 46.9839 308.326 46.7759C308.374 46.5679 308.494 46.3999 308.686 46.2719C308.894 46.1279 309.214 46.0559 309.646 46.0559C310.062 46.0559 310.39 46.1199 310.63 46.2479C310.87 46.3759 311.03 46.5919 311.11 46.8959V61.2719C311.126 61.5439 311.102 61.7839 311.038 61.9919C310.99 62.2159 310.862 62.3919 310.654 62.5199C310.446 62.6479 310.118 62.7119 309.67 62.7119ZM314.086 55.0319C314.646 55.0319 315.15 54.9039 315.598 54.6479C316.046 54.3759 316.398 54.0079 316.654 53.5439C316.926 53.0639 317.062 52.5279 317.062 51.9359C317.062 51.3279 316.926 50.7919 316.654 50.3279C316.398 49.8639 316.046 49.5039 315.598 49.2479C315.15 48.9759 314.646 48.8399 314.086 48.8399C313.542 48.8399 313.046 48.9759 312.598 49.2479C312.15 49.5199 311.79 49.8879 311.518 50.3519C311.262 50.7999 311.134 51.3279 311.134 51.9359C311.134 52.5279 311.262 53.0639 311.518 53.5439C311.79 54.0079 312.15 54.3759 312.598 54.6479C313.046 54.9039 313.542 55.0319 314.086 55.0319ZM331.762 57.8399C331.298 57.8399 330.954 57.7519 330.73 57.5759C330.506 57.3999 330.394 57.1599 330.394 56.8559L330.562 56.0639C330.434 56.2719 330.218 56.5199 329.914 56.8079C329.61 57.0799 329.21 57.3279 328.714 57.5519C328.218 57.7599 327.618 57.8639 326.914 57.8639C326.162 57.8639 325.45 57.7119 324.778 57.4079C324.122 57.0879 323.538 56.6559 323.026 56.1119C322.53 55.5519 322.13 54.9199 321.826 54.2159C321.538 53.4959 321.394 52.7279 321.394 51.9119C321.394 51.1279 321.538 50.3919 321.826 49.7039C322.13 48.9999 322.538 48.3759 323.05 47.8319C323.562 47.2879 324.146 46.8639 324.802 46.5599C325.474 46.2399 326.178 46.0799 326.914 46.0799C327.57 46.0799 328.122 46.1679 328.57 46.3439C329.034 46.5199 329.426 46.7439 329.746 47.0159C330.066 47.2719 330.33 47.5439 330.538 47.8319L330.394 47.1359C330.394 46.7839 330.506 46.5199 330.73 46.3439C330.954 46.1519 331.306 46.0559 331.786 46.0559C332.234 46.0559 332.554 46.1279 332.746 46.2719C332.938 46.3999 333.058 46.5839 333.106 46.8239C333.154 47.0479 333.178 47.3039 333.178 47.5919V56.3759C333.178 56.6479 333.154 56.8959 333.106 57.1199C333.058 57.3439 332.93 57.5199 332.722 57.6479C332.53 57.7759 332.21 57.8399 331.762 57.8399ZM327.346 55.0559C327.89 55.0559 328.378 54.9199 328.81 54.6479C329.242 54.3759 329.586 54.0079 329.842 53.5439C330.114 53.0639 330.25 52.5359 330.25 51.9599C330.25 51.3359 330.114 50.7919 329.842 50.3279C329.57 49.8639 329.21 49.5039 328.762 49.2479C328.33 48.9759 327.842 48.8399 327.298 48.8399C326.706 48.8399 326.178 48.9839 325.714 49.2719C325.25 49.5439 324.882 49.9199 324.61 50.3999C324.354 50.8639 324.226 51.3919 324.226 51.9839C324.226 52.5599 324.362 53.0799 324.634 53.5439C324.906 54.0079 325.274 54.3759 325.738 54.6479C326.218 54.9199 326.754 55.0559 327.346 55.0559ZM344.994 55.2959C345.41 55.6479 345.626 55.9759 345.642 56.2799C345.674 56.5839 345.514 56.9359 345.162 57.3359C344.89 57.6399 344.65 57.8399 344.442 57.9359C344.234 58.0319 344.026 58.0319 343.818 57.9359C343.61 57.8559 343.362 57.6959 343.074 57.4559L338.49 53.5919V56.4479C338.49 56.7039 338.458 56.9439 338.394 57.1679C338.346 57.3919 338.218 57.5679 338.01 57.6959C337.818 57.8239 337.498 57.8879 337.05 57.8879C336.602 57.8879 336.274 57.8159 336.066 57.6719C335.874 57.5439 335.754 57.3679 335.706 57.1439C335.658 56.9199 335.634 56.6799 335.634 56.4239V42.0959C335.634 41.8239 335.658 41.5839 335.706 41.3759C335.77 41.1519 335.898 40.9759 336.09 40.8479C336.298 40.7039 336.626 40.6319 337.074 40.6319C337.522 40.6319 337.842 40.7039 338.034 40.8479C338.226 40.9759 338.346 41.1519 338.394 41.3759C338.458 41.5839 338.49 41.8319 338.49 42.1199V49.9919L341.802 46.7759C342.058 46.5359 342.298 46.3759 342.522 46.2959C342.746 46.1999 342.962 46.1919 343.17 46.2719C343.394 46.3359 343.626 46.5039 343.866 46.7759C344.266 47.2079 344.458 47.5679 344.442 47.8559C344.426 48.1279 344.226 48.4559 343.842 48.8399L340.602 51.8399L344.994 55.2959ZM172.081 86.8879C171.649 86.8879 171.329 86.8239 171.121 86.6959C170.929 86.5679 170.809 86.3919 170.761 86.1679C170.713 85.9279 170.689 85.6799 170.689 85.4239V73.7599C170.689 73.1679 170.769 72.6239 170.929 72.1279C171.089 71.6159 171.345 71.1759 171.697 70.8079C172.049 70.4399 172.505 70.1519 173.065 69.9439C173.625 69.7199 174.305 69.6079 175.105 69.6079C175.377 69.6079 175.617 69.6399 175.825 69.7039C176.049 69.7519 176.225 69.8719 176.353 70.0639C176.497 70.2559 176.569 70.5839 176.569 71.0479C176.569 71.4799 176.497 71.7999 176.353 72.0079C176.225 72.2159 176.049 72.3439 175.825 72.3919C175.601 72.4399 175.353 72.4639 175.081 72.4639C174.809 72.4639 174.569 72.4799 174.361 72.5119C174.169 72.5279 174.009 72.5759 173.881 72.6559C173.769 72.7359 173.681 72.8639 173.617 73.0399C173.569 73.2159 173.545 73.4399 173.545 73.7119V85.4719C173.545 85.7279 173.513 85.9679 173.449 86.1919C173.401 86.3999 173.273 86.5679 173.065 86.6959C172.857 86.8239 172.529 86.8879 172.081 86.8879ZM169.705 75.2959L172.177 75.3199L175.489 75.2239C175.761 75.2239 176.001 75.2559 176.209 75.3199C176.433 75.3679 176.609 75.4959 176.737 75.7039C176.865 75.8959 176.929 76.2159 176.929 76.6639C176.929 77.0799 176.865 77.3919 176.737 77.5999C176.609 77.8079 176.441 77.9439 176.233 78.0079C176.025 78.0559 175.785 78.0799 175.513 78.0799L172.297 78.0319L169.633 78.0559C169.233 78.0399 168.953 77.9279 168.793 77.7199C168.649 77.4959 168.577 77.1359 168.577 76.6399C168.577 76.1759 168.665 75.8399 168.841 75.6319C169.033 75.4079 169.321 75.2959 169.705 75.2959ZM180.231 86.8879C179.799 86.8879 179.479 86.8159 179.271 86.6719C179.063 86.5439 178.935 86.3759 178.887 86.1679C178.839 85.9439 178.815 85.6959 178.815 85.4239V76.4959C178.815 76.2399 178.839 76.0079 178.887 75.7999C178.951 75.5759 179.079 75.3999 179.271 75.2719C179.479 75.1439 179.807 75.0799 180.255 75.0799C180.703 75.0799 181.023 75.1439 181.215 75.2719C181.423 75.3999 181.551 75.5759 181.599 75.7999C181.647 76.0239 181.671 76.2719 181.671 76.5439V85.4479C181.671 85.7199 181.647 85.9679 181.599 86.1919C181.551 86.3999 181.423 86.5679 181.215 86.6959C181.023 86.8239 180.695 86.8879 180.231 86.8879ZM180.231 72.7519C179.767 72.7519 179.423 72.6879 179.199 72.5599C178.991 72.4159 178.855 72.2239 178.791 71.9839C178.743 71.7439 178.719 71.4799 178.719 71.1919C178.719 70.8879 178.743 70.6239 178.791 70.3999C178.855 70.1759 178.999 69.9999 179.223 69.8719C179.447 69.7279 179.791 69.6559 180.255 69.6559C180.735 69.6559 181.079 69.7279 181.287 69.8719C181.495 70.0159 181.631 70.2079 181.695 70.4479C181.759 70.6719 181.791 70.9359 181.791 71.2399C181.791 71.5119 181.759 71.7679 181.695 72.0079C181.631 72.2479 181.495 72.4319 181.287 72.5599C181.079 72.6879 180.727 72.7519 180.231 72.7519ZM188.401 87.0319C187.985 87.0319 187.545 86.9839 187.081 86.8879C186.617 86.8079 186.169 86.6879 185.737 86.5279C185.305 86.3519 184.929 86.1519 184.609 85.9279C184.305 85.6879 184.113 85.4239 184.033 85.1359C183.969 84.9759 183.945 84.8239 183.961 84.6799C183.977 84.5199 184.025 84.3599 184.105 84.1999C184.185 84.0239 184.305 83.8479 184.465 83.6719C184.609 83.4959 184.753 83.3999 184.897 83.3839C185.057 83.3519 185.257 83.3999 185.497 83.5279C185.705 83.6079 185.929 83.7119 186.169 83.8399C186.425 83.9679 186.681 84.0959 186.937 84.2239C187.209 84.3519 187.481 84.4559 187.753 84.5359C188.041 84.6159 188.321 84.6559 188.593 84.6559C189.185 84.6559 189.657 84.5599 190.009 84.3679C190.361 84.1599 190.537 83.8719 190.537 83.5039C190.537 83.2959 190.481 83.1119 190.369 82.9519C190.257 82.7919 190.105 82.6639 189.913 82.5679C189.737 82.4559 189.521 82.3599 189.265 82.2799C189.025 82.1839 188.761 82.1039 188.473 82.0399C188.201 81.9599 187.913 81.8719 187.609 81.7759C187.209 81.6639 186.809 81.5279 186.409 81.3679C186.009 81.2079 185.649 80.9999 185.329 80.7439C185.025 80.4879 184.777 80.1679 184.585 79.7839C184.393 79.3999 184.297 78.9199 184.297 78.3439C184.297 77.6239 184.465 77.0159 184.801 76.5199C185.153 76.0079 185.657 75.6159 186.313 75.3439C186.969 75.0719 187.761 74.9359 188.689 74.9359C189.009 74.9359 189.313 74.9599 189.601 75.0079C189.905 75.0559 190.193 75.1279 190.465 75.2239C190.753 75.3039 191.025 75.4079 191.281 75.5359C191.553 75.6639 191.809 75.8079 192.049 75.9679C192.449 76.1919 192.657 76.4559 192.673 76.7599C192.689 77.0479 192.577 77.3599 192.337 77.6959C192.161 77.9199 191.985 78.0799 191.809 78.1759C191.633 78.2559 191.449 78.2559 191.257 78.1759C191.001 78.0479 190.721 77.9119 190.417 77.7679C190.129 77.6079 189.825 77.4719 189.505 77.3599C189.201 77.2479 188.881 77.1919 188.545 77.1919C188.225 77.1919 187.937 77.2399 187.681 77.3359C187.425 77.4319 187.233 77.5679 187.105 77.7439C186.977 77.9199 186.913 78.1279 186.913 78.3679C186.913 78.5919 186.977 78.7759 187.105 78.9199C187.233 79.0639 187.401 79.1839 187.609 79.2799C187.817 79.3759 188.065 79.4639 188.353 79.5439C188.641 79.6079 188.945 79.6719 189.265 79.7359C189.713 79.8319 190.169 79.9519 190.633 80.0959C191.097 80.2399 191.521 80.4399 191.905 80.6959C192.305 80.9519 192.625 81.2959 192.865 81.7279C193.105 82.1439 193.225 82.6879 193.225 83.3599C193.225 84.5279 192.793 85.4319 191.929 86.0719C191.081 86.7119 189.905 87.0319 188.401 87.0319ZM196.848 86.8879C196.416 86.8879 196.096 86.8159 195.888 86.6719C195.68 86.5439 195.552 86.3759 195.504 86.1679C195.456 85.9439 195.432 85.6959 195.432 85.4239V76.4959C195.432 76.2399 195.456 76.0079 195.504 75.7999C195.568 75.5759 195.696 75.3999 195.888 75.2719C196.096 75.1439 196.424 75.0799 196.872 75.0799C197.32 75.0799 197.64 75.1439 197.832 75.2719C198.04 75.3999 198.168 75.5759 198.216 75.7999C198.264 76.0239 198.288 76.2719 198.288 76.5439V85.4479C198.288 85.7199 198.264 85.9679 198.216 86.1919C198.168 86.3999 198.04 86.5679 197.832 86.6959C197.64 86.8239 197.312 86.8879 196.848 86.8879ZM196.848 72.7519C196.384 72.7519 196.04 72.6879 195.816 72.5599C195.608 72.4159 195.472 72.2239 195.408 71.9839C195.36 71.7439 195.336 71.4799 195.336 71.1919C195.336 70.8879 195.36 70.6239 195.408 70.3999C195.472 70.1759 195.616 69.9999 195.84 69.8719C196.064 69.7279 196.408 69.6559 196.872 69.6559C197.352 69.6559 197.696 69.7279 197.904 69.8719C198.112 70.0159 198.248 70.2079 198.312 70.4479C198.376 70.6719 198.408 70.9359 198.408 71.2399C198.408 71.5119 198.376 71.7679 198.312 72.0079C198.248 72.2479 198.112 72.4319 197.904 72.5599C197.696 72.6879 197.344 72.7519 196.848 72.7519ZM210.322 84.2959C210.738 84.6479 210.954 84.9759 210.97 85.2799C211.002 85.5839 210.842 85.9359 210.49 86.3359C210.218 86.6399 209.978 86.8399 209.77 86.9359C209.562 87.0319 209.354 87.0319 209.146 86.9359C208.938 86.8559 208.69 86.6959 208.402 86.4559L203.818 82.5919V85.4479C203.818 85.7039 203.786 85.9439 203.722 86.1679C203.674 86.3919 203.546 86.5679 203.338 86.6959C203.146 86.8239 202.826 86.8879 202.378 86.8879C201.93 86.8879 201.602 86.8159 201.394 86.6719C201.202 86.5439 201.082 86.3679 201.034 86.1439C200.986 85.9199 200.962 85.6799 200.962 85.4239V71.0959C200.962 70.8239 200.986 70.5839 201.034 70.3759C201.098 70.1519 201.226 69.9759 201.418 69.8479C201.626 69.7039 201.954 69.6319 202.402 69.6319C202.85 69.6319 203.17 69.7039 203.362 69.8479C203.554 69.9759 203.674 70.1519 203.722 70.3759C203.786 70.5839 203.818 70.8319 203.818 71.1199V78.9919L207.13 75.7759C207.386 75.5359 207.626 75.3759 207.85 75.2959C208.074 75.1999 208.29 75.1919 208.498 75.2719C208.722 75.3359 208.954 75.5039 209.194 75.7759C209.594 76.2079 209.786 76.5679 209.77 76.8559C209.754 77.1279 209.554 77.4559 209.17 77.8399L205.93 80.8399L210.322 84.2959Z" fill="black"/>
</svg>
