<svg width="400" height="120" viewBox="0 0 400 120" fill="none" xmlns="http://www.w3.org/2000/svg">
<mask id="mask0_62_2239" style="mask-type:luminance" maskUnits="userSpaceOnUse" x="0" y="0" width="400" height="120">
<path d="M400 0H0V120H400V0Z" fill="white"/>
</mask>
<g mask="url(#mask0_62_2239)">
<mask id="mask1_62_2239" style="mask-type:luminance" maskUnits="userSpaceOnUse" x="9" y="9" width="388" height="111">
<path d="M9.33838 9.33313H396.887V119.354H9.33838V9.33313Z" fill="white"/>
</mask>
<g mask="url(#mask1_62_2239)">
<path d="M15.7893 72.3852L12.3967 62.3592L17.7895 51.8748L13.0351 41.3956L9.77637 30.9113L12.1049 19.354L26.2586 18.2342L39.1781 15.5935L52.3408 21.4738L65.1144 13.7498L78.3379 21.7081L91.227 17.9633L104.365 22.9008L117.358 22.6769L130.405 24.3435L143.318 21.4217L155.618 17.1092L167.972 14.5623L180.326 12.0988L192.783 13.2133L205.32 17.1248L217.838 20.3435L230.253 20.0727L242.4 10.3071L255.065 18.6873L267.504 19.1717L279.742 12.479L292.084 9.53625L304.906 12.906L318.191 14.7654L328.447 23.3956L341.367 25.406L352.316 32.3383L368.294 26.7081L380.204 31.2238L396.346 37.1769L387.476 50.3383L387.16 62.0935L374.362 69.8592L369.875 80.281L373.796 93.3956L367.571 103.265L364.391 115.974L345.854 109.745L333.335 117.432L320.227 109.989L307.782 119.823L294.632 110.969L281.864 112.432L269.005 111.359L256.445 118.932L243.556 117.01L230.824 121.224L218.355 114.521L205.223 119.724L193.081 116.047L180.727 115.328L168.306 115.838L155.904 115.969L143.829 110.541L131.396 111.203L119.346 105.146L106.274 116.76L94.5648 104.833L81.5602 115.427L69.6377 107.245L57.5025 102.453L44.6438 110.724L27.2618 111.552L29.4687 98.1404L22.7931 90.229L11.0106 83.5779L15.7893 72.3852Z" fill="black"/>
<path d="M15.7893 72.3852L12.3967 62.3592L17.7895 51.8748L13.0351 41.3956L9.77637 30.9113L12.1049 19.354L26.2586 18.2342L39.1781 15.5935L52.3408 21.4738L65.1144 13.7498L78.3379 21.7081L91.227 17.9633L104.365 22.9008L117.358 22.6769L130.405 24.3435L143.318 21.4217L155.618 17.1092L167.972 14.5623L180.326 12.0988L192.783 13.2133L205.32 17.1248L217.838 20.3435L230.253 20.0727L242.4 10.3071L255.065 18.6873L267.504 19.1717L279.742 12.479L292.084 9.53625L304.906 12.906L318.191 14.7654L328.447 23.3956L341.367 25.406L352.316 32.3383L368.294 26.7081L380.204 31.2238L396.346 37.1769L387.476 50.3383L387.16 62.0935L374.362 69.8592L369.875 80.281L373.796 93.3956L367.571 103.265L364.391 115.974L345.854 109.745L333.335 117.432L320.227 109.989L307.782 119.823L294.632 110.969L281.864 112.432L269.005 111.359L256.445 118.932L243.556 117.01L230.824 121.224L218.355 114.521L205.223 119.724L193.081 116.047L180.727 115.328L168.306 115.838L155.904 115.969L143.829 110.541L131.396 111.203L119.346 105.146L106.274 116.76L94.5648 104.833L81.5602 115.427L69.6377 107.245L57.5025 102.453L44.6438 110.724L27.2618 111.552L29.4687 98.1404L22.7931 90.229L11.0106 83.5779L15.7893 72.3852Z" fill="black"/>
</g>
<mask id="mask2_62_2239" style="mask-type:luminance" maskUnits="userSpaceOnUse" x="7" y="7" width="391" height="113">
<path d="M7.78223 7.99976H397.586V119.354H7.78223V7.99976Z" fill="white"/>
</mask>
<g mask="url(#mask2_62_2239)">
<path d="M230.74 121.984L218.301 115.307L205.266 120.474L192.918 116.734L180.722 115.989L168.343 116.495L155.716 116.63L143.653 111.203L131.208 111.885L119.486 105.995L106.238 117.765L94.5045 105.812L81.6093 116.328L69.2065 107.849L57.6063 103.26L44.9118 111.401L26.3138 112.286L28.6363 98.3488L22.1978 90.7238L10.0504 83.8488L14.9568 72.3644L11.5582 62.3123L16.9327 51.854L12.2634 41.5727L8.95605 30.9425L11.4244 18.729L26.1679 17.5571L39.2819 14.9008L52.2744 20.7029L65.1149 12.9165L78.466 20.9529L91.2639 17.229L104.524 22.2133L117.407 21.9894L130.357 23.656L143.051 20.7758L155.424 16.4425L167.766 13.8956L180.26 11.4165L193.039 12.5727L205.57 16.4842L217.942 19.6508L229.931 19.3956L242.346 9.40605L255.357 18.0102L267.261 18.4685L279.384 11.8488L292.079 8.8175L305.077 12.2081L318.562 14.0935L328.831 22.729L341.683 24.7238L352.414 31.5102L368.282 25.9217L380.515 30.5519L397.484 36.8488L388.273 50.5258L387.963 62.4529L375.031 70.2967L370.714 80.3227L374.678 93.4842L368.331 103.505L364.951 116.906L345.951 110.515L333.336 118.26L320.295 110.854L307.825 120.739L294.413 111.703L281.883 113.146L269.188 112.078L256.628 119.651L243.635 117.719L230.74 121.984ZM218.416 113.75L230.916 120.463L243.471 116.307L256.257 118.213L268.793 110.656L281.852 111.755L294.857 110.255L307.74 118.932L320.149 109.13L333.318 116.594L345.745 108.969L363.802 115.031L366.817 103.015L372.952 93.2967L369.048 80.2342L373.681 69.4269L386.376 61.7133L386.686 50.1821L395.216 37.4946L379.895 31.8644L368.276 27.4581L352.201 33.1248L341.039 26.0467L328.065 24.0154L317.808 15.3956L304.652 13.5467L292.054 10.229L280.059 13.1092L267.705 19.8956L254.761 19.3956L242.437 11.2498L230.533 20.7915L217.681 21.0779L205.041 17.8279L192.601 13.8852L180.375 12.7915L168.185 15.229L155.868 17.7498L143.526 22.0779L130.454 25.0363L117.304 23.354L104.208 23.5883L91.2275 18.6925L78.2168 22.4685L65.1149 14.5779L52.4203 22.2706L39.0935 16.3123L26.332 18.906L12.7863 19.9842L10.5854 30.88L13.7955 41.1821L18.6533 51.8904L13.2484 62.3904L16.647 72.4113L11.9959 83.3071L23.3712 89.7238L30.3143 97.9686L28.1985 110.823L44.3768 110.057L57.424 101.666L70.1185 106.708L81.512 114.521L94.62 103.844L106.299 115.745L119.194 104.286L131.573 110.515L143.988 109.833L156.08 115.26L168.282 115.135L180.722 114.62L193.228 115.349L205.126 118.958L218.416 113.75Z" fill="black"/>
</g>
<mask id="mask3_62_2239" style="mask-type:luminance" maskUnits="userSpaceOnUse" x="3" y="1" width="388" height="113">
<path d="M3.11279 1.08313H390.661V113.333H3.11279V1.08313Z" fill="white"/>
</mask>
<g mask="url(#mask3_62_2239)">
<path d="M9.78286 63.3953L6.39643 53.3641L11.7831 42.8797L7.02873 32.4005L3.75781 21.9161L6.09852 10.3641L20.2461 9.23906L33.1717 6.60364L46.3344 12.4786L59.108 4.75468L72.3254 12.7182L85.2206 8.96301L98.359 13.9109L111.345 13.6818L124.399 15.3588L137.312 12.4318L149.611 8.10885L161.965 5.56718L174.32 3.10885L186.777 4.22343L199.314 8.12968L211.826 11.3484L224.247 11.0776L236.388 1.31197L249.058 9.69739L261.497 10.1818L273.736 3.48906L286.078 0.541138L298.9 3.91614L312.184 5.7703L322.441 14.4057L335.36 16.4161L346.31 23.3432L362.282 17.713L374.198 22.2286L390.34 28.1766L381.469 41.3484L381.153 53.1036L368.355 60.8641L363.868 71.2911L367.796 84.4005L361.564 94.2703L358.378 106.979L339.847 100.755L327.329 108.442L314.221 100.999L301.776 110.833L288.619 101.973L275.852 103.442L262.999 102.364L250.432 109.937L237.549 108.026L224.818 112.234L212.349 105.526L199.216 110.729L187.069 107.062L174.727 106.333L162.3 106.848L149.897 106.979L137.823 101.546L125.39 102.208L113.34 96.1557L100.268 107.765L88.5584 95.8432L75.5538 106.427L63.6253 98.2443L51.5022 93.4578L38.6374 101.734L21.2493 102.557L23.4623 89.1505L16.7868 81.2338L5.00417 74.5828L9.78286 63.3953Z" fill="white"/>
</g>
<mask id="mask4_62_2239" style="mask-type:luminance" maskUnits="userSpaceOnUse" x="0" y="1" width="396" height="115">
<path d="M0.674805 1.08325H395.331V116H0.674805V1.08325Z" fill="white"/>
</mask>
<g mask="url(#mask4_62_2239)">
<path d="M224.52 115.01L212.147 108.365L199.386 113.422L186.491 109.521L174.708 108.844L162.348 109.349L149.21 109.49L137.202 104.062L124.69 104.74L113.862 99.3124L100.146 111.526L88.3391 99.5103L75.7236 109.745L62.0745 100.385L51.8544 96.3541L39.6524 104.182L17.8321 105.213L20.3734 89.7916L14.701 83.0624L1.44101 75.5989L6.68177 63.328L3.30142 53.1874L8.62122 42.828L4.20123 33.0416L0.77832 22.0312L3.61149 8.05721L19.7715 6.76034L33.5543 3.95825L46.103 9.56242L59.1015 1.69784L72.7932 9.94263L85.354 6.29159L98.9422 11.401L111.54 11.1822L124.234 12.8124L136.381 10.0572L148.705 5.72909L161.284 3.14575L174.131 0.578045L187.433 1.77596L200.231 5.76555L212.22 8.84367L223.061 8.60409L236.205 -1.96362L250.116 7.23429L260.707 7.65096L272.526 1.18221L286.12 -2.05737L299.568 1.48429L313.564 3.43742L323.875 12.0885L336.57 14.0624L346.705 20.4999L362.312 14.9947L375.365 19.9478L394.492 26.9999L384.369 42.0416L384.041 54.4114L370.787 62.453L366.92 71.4218L370.89 84.7239L364.318 95.1458L360.494 110.38L340.248 103.594L327.377 111.495L314.5 104.182L301.909 114.13L287.768 104.63L275.87 105.99L263.753 104.979L251.058 112.609L237.768 110.635L224.52 115.01ZM212.561 102.693L225.128 109.474L237.214 105.448L249.708 107.302L262.172 99.7916L275.772 100.932L289.427 99.3593L301.593 107.557L313.886 97.8333L327.231 105.411L339.403 97.9478L356.226 103.588L358.779 93.4114L364.683 84.1041L360.816 71.2135L365.929 59.3333L378.277 51.8697L378.569 40.6822L386.175 29.3958L373.036 24.5572L362.239 20.4843L345.908 26.1822L334.168 18.7603L321.036 16.7291L310.792 8.11971L298.237 6.35409L286.041 3.14575L274.933 5.79159L262.293 12.703L248.012 12.1562L236.576 4.58846L225.432 13.5468L211.436 13.8489L198.31 10.4583L186.108 6.65096L174.532 5.63534L162.634 8.00513L150.517 10.4947L138.242 14.802L124.55 17.901L111.156 16.1822L97.7628 16.4166L85.0682 11.6666L71.869 15.4843L59.1076 7.80721L46.565 15.3958L32.7822 9.24471L20.72 11.7083L8.59082 12.6718L6.74257 21.8072L9.80677 31.6249L14.9381 42.9426L9.50279 53.5728L12.8649 63.5208L8.5361 73.5885L18.8474 79.4062L26.5201 88.5051L24.6414 99.8958L37.5974 99.2864L51.1492 90.5676L65.1752 96.1093L75.3588 103.099L88.7951 92.2447L100.42 104.068L112.828 93.0364L126.137 99.7083L138.497 99.026L150.602 104.453L162.214 104.333L174.757 103.818L187.67 104.568L199.064 108.016L212.561 102.693Z" fill="black"/>
<path d="M224.52 115.01L212.147 108.365L199.386 113.422L186.491 109.521L174.708 108.844L162.348 109.349L149.21 109.49L137.202 104.062L124.69 104.74L113.862 99.3124L100.146 111.526L88.3391 99.5103L75.7236 109.745L62.0745 100.385L51.8544 96.3541L39.6524 104.182L17.8321 105.213L20.3734 89.7916L14.701 83.0624L1.44101 75.5989L6.68177 63.328L3.30142 53.1874L8.62122 42.828L4.20123 33.0416L0.77832 22.0312L3.61149 8.05721L19.7715 6.76034L33.5543 3.95825L46.103 9.56242L59.1015 1.69784L72.7932 9.94263L85.354 6.29159L98.9422 11.401L111.54 11.1822L124.234 12.8124L136.381 10.0572L148.705 5.72909L161.284 3.14575L174.131 0.578045L187.433 1.77596L200.231 5.76555L212.22 8.84367L223.061 8.60409L236.205 -1.96362L250.116 7.23429L260.707 7.65096L272.526 1.18221L286.12 -2.05737L299.568 1.48429L313.564 3.43742L323.875 12.0885L336.57 14.0624L346.705 20.4999L362.312 14.9947L375.365 19.9478L394.492 26.9999L384.369 42.0416L384.041 54.4114L370.787 62.453L366.92 71.4218L370.89 84.7239L364.318 95.1458L360.494 110.38L340.248 103.594L327.377 111.495L314.5 104.182L301.909 114.13L287.768 104.63L275.87 105.99L263.753 104.979L251.058 112.609L237.768 110.635L224.52 115.01ZM212.561 102.693L225.128 109.474L237.214 105.448L249.708 107.302L262.172 99.7916L275.772 100.932L289.427 99.3593L301.593 107.557L313.886 97.8333L327.231 105.411L339.403 97.9478L356.226 103.588L358.779 93.4114L364.683 84.1041L360.816 71.2135L365.929 59.3333L378.277 51.8697L378.569 40.6822L386.175 29.3958L373.036 24.5572L362.239 20.4843L345.908 26.1822L334.168 18.7603L321.036 16.7291L310.792 8.11971L298.237 6.35409L286.041 3.14575L274.933 5.79159L262.293 12.703L248.012 12.1562L236.576 4.58846L225.432 13.5468L211.436 13.8489L198.31 10.4583L186.108 6.65096L174.532 5.63534L162.634 8.00513L150.517 10.4947L138.242 14.802L124.55 17.901L111.156 16.1822L97.7628 16.4166L85.0682 11.6666L71.869 15.4843L59.1076 7.80721L46.565 15.3958L32.7822 9.24471L20.72 11.7083L8.59082 12.6718L6.74257 21.8072L9.80677 31.6249L14.9381 42.9426L9.50279 53.5728L12.8649 63.5208L8.5361 73.5885L18.8474 79.4062L26.5201 88.5051L24.6414 99.8958L37.5974 99.2864L51.1492 90.5676L65.1752 96.1093L75.3588 103.099L88.7951 92.2447L100.42 104.068L112.828 93.0364L126.137 99.7083L138.497 99.026L150.602 104.453L162.214 104.333L174.757 103.818L187.67 104.568L199.064 108.016L212.561 102.693Z" fill="black"/>
</g>
</g>
<path d="M33.6543 57.8639C33.2063 57.8639 32.8783 57.7999 32.6703 57.6719C32.4623 57.5439 32.3343 57.3679 32.2863 57.1439C32.2383 56.9039 32.2143 56.6559 32.2143 56.3999V42.5519C32.2143 42.2959 32.2383 42.0639 32.2863 41.8559C32.3503 41.6319 32.4863 41.4559 32.6943 41.3279C32.9023 41.1839 33.2303 41.1119 33.6783 41.1119H38.7663C39.4703 41.1119 40.1583 41.2319 40.8303 41.4719C41.5023 41.7119 42.1023 42.0719 42.6303 42.5519C43.1743 43.0319 43.5983 43.6239 43.9023 44.3279C44.2223 45.0319 44.3823 45.8559 44.3823 46.7999C44.3823 47.7279 44.2223 48.5439 43.9023 49.2479C43.5983 49.9359 43.1743 50.5199 42.6303 50.9999C42.0863 51.4799 41.4783 51.8399 40.8063 52.0799C40.1503 52.3199 39.4623 52.4399 38.7423 52.4399H35.1183V56.4239C35.1183 56.6799 35.0863 56.9199 35.0223 57.1439C34.9743 57.3679 34.8463 57.5439 34.6383 57.6719C34.4463 57.7999 34.1183 57.8639 33.6543 57.8639ZM35.1183 49.5119H38.7663C39.2623 49.5119 39.7103 49.4159 40.1103 49.2239C40.5263 49.0159 40.8623 48.7119 41.1183 48.3119C41.3743 47.8959 41.5023 47.3759 41.5023 46.7519C41.5023 46.1919 41.3823 45.7119 41.1423 45.3119C40.9183 44.8959 40.5983 44.5759 40.1823 44.3519C39.7823 44.1279 39.3023 44.0159 38.7423 44.0159H35.1183V49.5119ZM52.1494 58.0319C51.1094 58.0319 50.1974 57.8639 49.4134 57.5279C48.6454 57.1919 47.9974 56.7359 47.4694 56.1599C46.9574 55.5679 46.5654 54.9119 46.2934 54.1919C46.0374 53.4559 45.9094 52.6959 45.9094 51.9119C45.9094 50.7599 46.1734 49.7359 46.7014 48.8399C47.2294 47.9439 47.9574 47.2399 48.8854 46.7279C49.8294 46.2159 50.9094 45.9599 52.1254 45.9599C52.9894 45.9599 53.7494 46.0959 54.4054 46.3679C55.0614 46.6399 55.6054 46.9999 56.0374 47.4479C56.4854 47.8799 56.8214 48.3599 57.0454 48.8879C57.2854 49.4159 57.4054 49.9279 57.4054 50.4239C57.4054 51.2719 57.1974 51.8879 56.7814 52.2719C56.3814 52.6559 55.8774 52.8479 55.2694 52.8479H48.9334C48.9494 53.3919 49.1174 53.8639 49.4374 54.2639C49.7734 54.6639 50.1894 54.9759 50.6854 55.1999C51.1974 55.4079 51.7174 55.5119 52.2454 55.5119C52.6454 55.5119 52.9974 55.4879 53.3014 55.4399C53.6214 55.3919 53.8934 55.3359 54.1174 55.2719C54.3414 55.1919 54.5334 55.1119 54.6934 55.0319C54.8694 54.9519 55.0294 54.8799 55.1734 54.8159C55.3174 54.7519 55.4534 54.7119 55.5814 54.6959C55.7574 54.6799 55.9334 54.7199 56.1094 54.8159C56.2854 54.9119 56.4294 55.0799 56.5414 55.3199C56.6374 55.4799 56.7014 55.6319 56.7334 55.7759C56.7814 55.9039 56.8054 56.0319 56.8054 56.1599C56.8054 56.4799 56.6134 56.7839 56.2294 57.0719C55.8454 57.3439 55.3014 57.5679 54.5974 57.7439C53.9094 57.9359 53.0934 58.0319 52.1494 58.0319ZM48.9334 51.1439H53.8534C54.1254 51.1439 54.3334 51.1039 54.4774 51.0239C54.6214 50.9279 54.6934 50.7359 54.6934 50.4479C54.6934 50.0799 54.5814 49.7519 54.3574 49.4639C54.1334 49.1599 53.8294 48.9279 53.4454 48.7679C53.0614 48.5919 52.6134 48.5039 52.1014 48.5039C51.5094 48.5039 50.9734 48.6239 50.4934 48.8639C50.0134 49.0879 49.6294 49.3999 49.3414 49.7999C49.0694 50.1999 48.9334 50.6479 48.9334 51.1439ZM60.7909 57.8639C60.3589 57.8639 60.0389 57.7919 59.8309 57.6479C59.6389 57.5199 59.5189 57.3519 59.4709 57.1439C59.4229 56.9199 59.3989 56.6719 59.3989 56.3999V47.4239C59.3989 47.1679 59.4229 46.9359 59.4709 46.7279C59.5189 46.5199 59.6469 46.3599 59.8549 46.2479C60.0629 46.1199 60.3829 46.0559 60.8149 46.0559C61.1989 46.0559 61.4869 46.1039 61.6789 46.1999C61.8709 46.2959 61.9989 46.4159 62.0629 46.5599C62.1269 46.7039 62.1589 46.8479 62.1589 46.9919C62.1749 47.1359 62.1909 47.2479 62.2069 47.3279L62.1109 48.0959C62.2069 47.8399 62.3669 47.5919 62.5909 47.3519C62.8149 47.1119 63.0869 46.8959 63.4069 46.7039C63.7269 46.4959 64.0709 46.3359 64.4389 46.2239C64.8229 46.0959 65.2149 46.0319 65.6149 46.0319C66.3669 46.0319 67.0389 46.1679 67.6309 46.4399C68.2229 46.7119 68.7269 47.0959 69.1429 47.5919C69.5749 48.0879 69.9029 48.6799 70.1269 49.3679C70.3509 50.0399 70.4629 50.7999 70.4629 51.6479V56.4239C70.4629 56.6959 70.4309 56.9439 70.3669 57.1679C70.3189 57.3759 70.1989 57.5439 70.0069 57.6719C69.8149 57.7999 69.4869 57.8639 69.0229 57.8639C68.5749 57.8639 68.2469 57.7919 68.0389 57.6479C67.8309 57.5199 67.7029 57.3519 67.6549 57.1439C67.6069 56.9199 67.5829 56.6719 67.5829 56.3999V51.6239C67.5829 51.0479 67.4789 50.5519 67.2709 50.1359C67.0789 49.7199 66.7909 49.3999 66.4069 49.1759C66.0389 48.9519 65.5669 48.8399 64.9909 48.8399C64.4309 48.8399 63.9429 48.9599 63.5269 49.1999C63.1109 49.4239 62.7909 49.7439 62.5669 50.1599C62.3429 50.5759 62.2309 51.0639 62.2309 51.6239V56.4239C62.2309 56.6959 62.2069 56.9439 62.1589 57.1679C62.1109 57.3759 61.9829 57.5439 61.7749 57.6719C61.5829 57.7999 61.2549 57.8639 60.7909 57.8639ZM75.0541 62.6159C74.5421 62.3919 74.2461 62.1359 74.1661 61.8479C74.0861 61.5759 74.1581 61.2079 74.3821 60.7439L80.5741 46.8719C80.7981 46.3599 81.0381 46.0559 81.2941 45.9599C81.5501 45.8479 81.9421 45.9039 82.4701 46.1279C82.9661 46.3519 83.2541 46.5999 83.3341 46.8719C83.4301 47.1439 83.3741 47.5119 83.1661 47.9759L76.9261 61.9199C76.7181 62.4319 76.4861 62.7279 76.2301 62.8079C75.9741 62.9039 75.5821 62.8399 75.0541 62.6159ZM77.2861 56.7359L71.7421 48.2159C71.4541 47.7839 71.3341 47.4239 71.3821 47.1359C71.4461 46.8479 71.7021 46.5679 72.1501 46.2959C72.6461 45.9919 73.0301 45.8719 73.3021 45.9359C73.5901 45.9999 73.8781 46.2559 74.1661 46.7039L78.5581 53.5439L77.2861 56.7359ZM90.8213 58.0319C89.7813 58.0319 88.8693 57.8639 88.0853 57.5279C87.3173 57.1919 86.6693 56.7359 86.1413 56.1599C85.6293 55.5679 85.2373 54.9119 84.9653 54.1919C84.7093 53.4559 84.5813 52.6959 84.5813 51.9119C84.5813 50.7599 84.8453 49.7359 85.3733 48.8399C85.9013 47.9439 86.6293 47.2399 87.5573 46.7279C88.5013 46.2159 89.5813 45.9599 90.7973 45.9599C91.6613 45.9599 92.4213 46.0959 93.0773 46.3679C93.7333 46.6399 94.2773 46.9999 94.7093 47.4479C95.1573 47.8799 95.4933 48.3599 95.7173 48.8879C95.9573 49.4159 96.0773 49.9279 96.0773 50.4239C96.0773 51.2719 95.8693 51.8879 95.4533 52.2719C95.0533 52.6559 94.5493 52.8479 93.9413 52.8479H87.6053C87.6213 53.3919 87.7893 53.8639 88.1093 54.2639C88.4453 54.6639 88.8613 54.9759 89.3573 55.1999C89.8693 55.4079 90.3893 55.5119 90.9173 55.5119C91.3173 55.5119 91.6693 55.4879 91.9733 55.4399C92.2933 55.3919 92.5653 55.3359 92.7893 55.2719C93.0133 55.1919 93.2053 55.1119 93.3653 55.0319C93.5413 54.9519 93.7013 54.8799 93.8453 54.8159C93.9893 54.7519 94.1253 54.7119 94.2533 54.6959C94.4293 54.6799 94.6053 54.7199 94.7813 54.8159C94.9573 54.9119 95.1013 55.0799 95.2133 55.3199C95.3093 55.4799 95.3733 55.6319 95.4053 55.7759C95.4533 55.9039 95.4773 56.0319 95.4773 56.1599C95.4773 56.4799 95.2853 56.7839 94.9013 57.0719C94.5173 57.3439 93.9733 57.5679 93.2693 57.7439C92.5813 57.9359 91.7653 58.0319 90.8213 58.0319ZM87.6053 51.1439H92.5253C92.7973 51.1439 93.0053 51.1039 93.1493 51.0239C93.2933 50.9279 93.3653 50.7359 93.3653 50.4479C93.3653 50.0799 93.2533 49.7519 93.0293 49.4639C92.8053 49.1599 92.5013 48.9279 92.1173 48.7679C91.7333 48.5919 91.2853 48.5039 90.7733 48.5039C90.1813 48.5039 89.6453 48.6239 89.1653 48.8639C88.6853 49.0879 88.3013 49.3999 88.0133 49.7999C87.7413 50.1999 87.6053 50.6479 87.6053 51.1439ZM104.215 57.8639C103.431 57.8639 102.727 57.7119 102.103 57.4079C101.495 57.0879 100.975 56.6559 100.543 56.1119C100.127 55.5679 99.8068 54.9439 99.5828 54.2399C99.3748 53.5199 99.2708 52.7519 99.2708 51.9359C99.2868 51.1199 99.4068 50.3599 99.6308 49.6559C99.8548 48.9359 100.175 48.3119 100.591 47.7839C101.023 47.2399 101.543 46.8159 102.151 46.5119C102.759 46.2079 103.447 46.0559 104.215 46.0559C104.951 46.0559 105.639 46.2079 106.279 46.5119C106.935 46.8159 107.511 47.2399 108.007 47.7839C108.519 48.3119 108.919 48.9359 109.207 49.6559C109.495 50.3599 109.639 51.1119 109.639 51.9119C109.639 52.7439 109.495 53.5279 109.207 54.2639C108.919 54.9839 108.527 55.6159 108.031 56.1599C107.535 56.6879 106.959 57.1039 106.303 57.4079C105.647 57.7119 104.951 57.8639 104.215 57.8639ZM103.831 55.0559C104.391 55.0559 104.895 54.9279 105.343 54.6719C105.791 54.3999 106.143 54.0319 106.399 53.5679C106.671 53.1039 106.807 52.5759 106.807 51.9839C106.807 51.3759 106.671 50.8399 106.399 50.3759C106.143 49.8959 105.791 49.5279 105.343 49.2719C104.895 48.9999 104.391 48.8639 103.831 48.8639C103.287 48.8639 102.791 48.9999 102.343 49.2719C101.895 49.5439 101.535 49.9119 101.263 50.3759C101.007 50.8399 100.879 51.3759 100.879 51.9839C100.879 52.5759 101.007 53.1039 101.263 53.5679C101.535 54.0319 101.895 54.3999 102.343 54.6719C102.791 54.9279 103.287 55.0559 103.831 55.0559ZM99.3908 57.8879C98.9588 57.8879 98.6388 57.8159 98.4308 57.6719C98.2228 57.5439 98.0948 57.3759 98.0468 57.1679C97.9988 56.9439 97.9748 56.6959 97.9748 56.4239V42.1199C97.9748 41.8479 97.9988 41.6079 98.0468 41.3999C98.0948 41.1759 98.2228 40.9999 98.4308 40.8719C98.6388 40.7439 98.9588 40.6799 99.3908 40.6799C99.8388 40.6799 100.159 40.7439 100.351 40.8719C100.543 40.9999 100.663 41.1759 100.711 41.3999C100.759 41.6239 100.783 41.8639 100.783 42.1199V56.9039C100.719 57.2559 100.583 57.5039 100.375 57.6479C100.183 57.8079 99.8548 57.8879 99.3908 57.8879ZM121.41 57.8399C120.946 57.8399 120.602 57.7519 120.378 57.5759C120.154 57.3999 120.042 57.1599 120.042 56.8559L120.21 56.0639C120.082 56.2719 119.866 56.5199 119.562 56.8079C119.258 57.0799 118.858 57.3279 118.362 57.5519C117.866 57.7599 117.266 57.8639 116.562 57.8639C115.81 57.8639 115.098 57.7119 114.426 57.4079C113.77 57.0879 113.186 56.6559 112.674 56.1119C112.178 55.5519 111.778 54.9199 111.474 54.2159C111.186 53.4959 111.042 52.7279 111.042 51.9119C111.042 51.1279 111.186 50.3919 111.474 49.7039C111.778 48.9999 112.186 48.3759 112.698 47.8319C113.21 47.2879 113.794 46.8639 114.45 46.5599C115.122 46.2399 115.826 46.0799 116.562 46.0799C117.218 46.0799 117.77 46.1679 118.218 46.3439C118.682 46.5199 119.074 46.7439 119.394 47.0159C119.714 47.2719 119.978 47.5439 120.186 47.8319L120.042 47.1359C120.042 46.7839 120.154 46.5199 120.378 46.3439C120.602 46.1519 120.954 46.0559 121.434 46.0559C121.882 46.0559 122.202 46.1279 122.394 46.2719C122.586 46.3999 122.706 46.5839 122.754 46.8239C122.802 47.0479 122.826 47.3039 122.826 47.5919V56.3759C122.826 56.6479 122.802 56.8959 122.754 57.1199C122.706 57.3439 122.578 57.5199 122.37 57.6479C122.178 57.7759 121.858 57.8399 121.41 57.8399ZM116.994 55.0559C117.538 55.0559 118.026 54.9199 118.458 54.6479C118.89 54.3759 119.234 54.0079 119.49 53.5439C119.762 53.0639 119.898 52.5359 119.898 51.9599C119.898 51.3359 119.762 50.7919 119.49 50.3279C119.218 49.8639 118.858 49.5039 118.41 49.2479C117.978 48.9759 117.49 48.8399 116.946 48.8399C116.354 48.8399 115.826 48.9839 115.362 49.2719C114.898 49.5439 114.53 49.9199 114.258 50.3999C114.002 50.8639 113.874 51.3919 113.874 51.9839C113.874 52.5599 114.01 53.0799 114.282 53.5439C114.554 54.0079 114.922 54.3759 115.386 54.6479C115.866 54.9199 116.402 55.0559 116.994 55.0559ZM131.402 57.8639C130.618 57.8639 129.914 57.7119 129.29 57.4079C128.682 57.0879 128.162 56.6559 127.73 56.1119C127.314 55.5679 126.994 54.9439 126.77 54.2399C126.562 53.5199 126.458 52.7519 126.458 51.9359C126.474 51.1199 126.594 50.3599 126.818 49.6559C127.042 48.9359 127.362 48.3119 127.778 47.7839C128.21 47.2399 128.73 46.8159 129.338 46.5119C129.946 46.2079 130.634 46.0559 131.402 46.0559C132.138 46.0559 132.826 46.2079 133.466 46.5119C134.122 46.8159 134.698 47.2399 135.194 47.7839C135.706 48.3119 136.106 48.9359 136.394 49.6559C136.682 50.3599 136.826 51.1119 136.826 51.9119C136.826 52.7439 136.682 53.5279 136.394 54.2639C136.106 54.9839 135.714 55.6159 135.218 56.1599C134.722 56.6879 134.146 57.1039 133.49 57.4079C132.834 57.7119 132.138 57.8639 131.402 57.8639ZM131.018 55.0559C131.578 55.0559 132.082 54.9279 132.53 54.6719C132.978 54.3999 133.33 54.0319 133.586 53.5679C133.858 53.1039 133.994 52.5759 133.994 51.9839C133.994 51.3759 133.858 50.8399 133.586 50.3759C133.33 49.8959 132.978 49.5279 132.53 49.2719C132.082 48.9999 131.578 48.8639 131.018 48.8639C130.474 48.8639 129.978 48.9999 129.53 49.2719C129.082 49.5439 128.722 49.9119 128.45 50.3759C128.194 50.8399 128.066 51.3759 128.066 51.9839C128.066 52.5759 128.194 53.1039 128.45 53.5679C128.722 54.0319 129.082 54.3999 129.53 54.6719C129.978 54.9279 130.474 55.0559 131.018 55.0559ZM126.578 57.8879C126.146 57.8879 125.826 57.8159 125.618 57.6719C125.41 57.5439 125.282 57.3759 125.234 57.1679C125.186 56.9439 125.162 56.6959 125.162 56.4239V42.1199C125.162 41.8479 125.186 41.6079 125.234 41.3999C125.282 41.1759 125.41 40.9999 125.618 40.8719C125.826 40.7439 126.146 40.6799 126.578 40.6799C127.026 40.6799 127.346 40.7439 127.538 40.8719C127.73 40.9999 127.85 41.1759 127.898 41.3999C127.946 41.6239 127.97 41.8639 127.97 42.1199V56.9039C127.906 57.2559 127.77 57.5039 127.562 57.6479C127.37 57.8079 127.042 57.8879 126.578 57.8879ZM140.408 49.9199C139.8 49.9199 139.376 49.7999 139.136 49.5599C138.896 49.3199 138.776 48.9119 138.776 48.3359C138.776 47.9199 138.824 47.5919 138.92 47.3519C139.032 47.1119 139.208 46.9439 139.448 46.8479C139.688 46.7359 140.008 46.6799 140.408 46.6799C141.016 46.6799 141.432 46.7999 141.656 47.0399C141.896 47.2799 142.016 47.7039 142.016 48.3119C142.016 48.6959 141.968 49.0079 141.872 49.2479C141.776 49.4879 141.608 49.6639 141.368 49.7759C141.128 49.8719 140.808 49.9199 140.408 49.9199ZM140.384 57.8879C139.792 57.8879 139.376 57.7759 139.136 57.5519C138.896 57.3119 138.776 56.8959 138.776 56.3039C138.776 55.8879 138.824 55.5679 138.92 55.3439C139.032 55.1039 139.208 54.9279 139.448 54.8159C139.688 54.7039 140.008 54.6479 140.408 54.6479C141 54.6479 141.416 54.7679 141.656 55.0079C141.896 55.2479 142.016 55.6719 142.016 56.2799C142.016 56.6799 141.96 56.9999 141.848 57.2399C141.752 57.4799 141.584 57.6479 141.344 57.7439C141.12 57.8399 140.8 57.8879 140.384 57.8879ZM150.051 57.8879C149.267 57.8879 148.595 57.8079 148.035 57.6479C147.475 57.4879 147.019 57.2399 146.667 56.9039C146.315 56.5679 146.051 56.1359 145.875 55.6079C145.715 55.0639 145.635 54.4239 145.635 53.6879V43.5119C145.635 43.2239 145.659 42.9759 145.707 42.7679C145.771 42.5599 145.899 42.3999 146.091 42.2879C146.299 42.1599 146.619 42.0959 147.051 42.0959C147.499 42.0959 147.819 42.1599 148.011 42.2879C148.219 42.4159 148.347 42.5919 148.395 42.8159C148.459 43.0239 148.491 43.2559 148.491 43.5119V53.5919C148.491 53.9279 148.515 54.1999 148.563 54.4079C148.627 54.6159 148.715 54.7759 148.827 54.8879C148.955 54.9839 149.115 55.0559 149.307 55.1039C149.515 55.1359 149.763 55.1519 150.051 55.1519C150.355 55.1519 150.611 55.1759 150.819 55.2239C151.043 55.2719 151.211 55.3919 151.323 55.5839C151.435 55.7599 151.491 56.0559 151.491 56.4719C151.491 56.9199 151.419 57.2479 151.275 57.4559C151.147 57.6479 150.971 57.7679 150.747 57.8159C150.539 57.8639 150.307 57.8879 150.051 57.8879ZM144.651 46.2959L147.123 46.3199L150.435 46.2239C150.707 46.2239 150.947 46.2559 151.155 46.3199C151.379 46.3679 151.555 46.4959 151.683 46.7039C151.811 46.8959 151.875 47.2159 151.875 47.6639C151.875 48.0799 151.811 48.3919 151.683 48.5999C151.555 48.8079 151.387 48.9439 151.179 49.0079C150.971 49.0559 150.731 49.0799 150.459 49.0799L147.243 49.0319L144.579 49.0559C144.179 49.0399 143.899 48.9279 143.739 48.7199C143.595 48.4959 143.523 48.1359 143.523 47.6399C143.523 47.1759 143.611 46.8399 143.787 46.6319C143.979 46.4079 144.267 46.2959 144.651 46.2959ZM159.376 58.0319C158.336 58.0319 157.424 57.8639 156.64 57.5279C155.872 57.1919 155.224 56.7359 154.696 56.1599C154.184 55.5679 153.792 54.9119 153.52 54.1919C153.264 53.4559 153.136 52.6959 153.136 51.9119C153.136 50.7599 153.4 49.7359 153.928 48.8399C154.456 47.9439 155.184 47.2399 156.112 46.7279C157.056 46.2159 158.136 45.9599 159.352 45.9599C160.216 45.9599 160.976 46.0959 161.632 46.3679C162.288 46.6399 162.832 46.9999 163.264 47.4479C163.712 47.8799 164.048 48.3599 164.272 48.8879C164.512 49.4159 164.632 49.9279 164.632 50.4239C164.632 51.2719 164.424 51.8879 164.008 52.2719C163.608 52.6559 163.104 52.8479 162.496 52.8479H156.16C156.176 53.3919 156.344 53.8639 156.664 54.2639C157 54.6639 157.416 54.9759 157.912 55.1999C158.424 55.4079 158.944 55.5119 159.472 55.5119C159.872 55.5119 160.224 55.4879 160.528 55.4399C160.848 55.3919 161.12 55.3359 161.344 55.2719C161.568 55.1919 161.76 55.1119 161.92 55.0319C162.096 54.9519 162.256 54.8799 162.4 54.8159C162.544 54.7519 162.68 54.7119 162.808 54.6959C162.984 54.6799 163.16 54.7199 163.336 54.8159C163.512 54.9119 163.656 55.0799 163.768 55.3199C163.864 55.4799 163.928 55.6319 163.96 55.7759C164.008 55.9039 164.032 56.0319 164.032 56.1599C164.032 56.4799 163.84 56.7839 163.456 57.0719C163.072 57.3439 162.528 57.5679 161.824 57.7439C161.136 57.9359 160.32 58.0319 159.376 58.0319ZM156.16 51.1439H161.08C161.352 51.1439 161.56 51.1039 161.704 51.0239C161.848 50.9279 161.92 50.7359 161.92 50.4479C161.92 50.0799 161.808 49.7519 161.584 49.4639C161.36 49.1599 161.056 48.9279 160.672 48.7679C160.288 48.5919 159.84 48.5039 159.328 48.5039C158.736 48.5039 158.2 48.6239 157.72 48.8639C157.24 49.0879 156.856 49.3999 156.568 49.7999C156.296 50.1999 156.16 50.6479 156.16 51.1439ZM176.01 55.2959C176.426 55.6479 176.642 55.9759 176.658 56.2799C176.69 56.5839 176.53 56.9359 176.178 57.3359C175.906 57.6399 175.666 57.8399 175.458 57.9359C175.25 58.0319 175.042 58.0319 174.834 57.9359C174.626 57.8559 174.378 57.6959 174.09 57.4559L169.506 53.5919V56.4479C169.506 56.7039 169.474 56.9439 169.41 57.1679C169.362 57.3919 169.234 57.5679 169.026 57.6959C168.834 57.8239 168.514 57.8879 168.066 57.8879C167.618 57.8879 167.29 57.8159 167.082 57.6719C166.89 57.5439 166.77 57.3679 166.722 57.1439C166.674 56.9199 166.65 56.6799 166.65 56.4239V42.0959C166.65 41.8239 166.674 41.5839 166.722 41.3759C166.786 41.1519 166.914 40.9759 167.106 40.8479C167.314 40.7039 167.642 40.6319 168.09 40.6319C168.538 40.6319 168.858 40.7039 169.05 40.8479C169.242 40.9759 169.362 41.1519 169.41 41.3759C169.474 41.5839 169.506 41.8319 169.506 42.1199V49.9919L172.818 46.7759C173.074 46.5359 173.314 46.3759 173.538 46.2959C173.762 46.1999 173.978 46.1919 174.186 46.2719C174.41 46.3359 174.642 46.5039 174.882 46.7759C175.282 47.2079 175.474 47.5679 175.458 47.8559C175.442 48.1279 175.242 48.4559 174.858 48.8399L171.618 51.8399L176.01 55.2959ZM179.947 57.8639C179.515 57.8639 179.195 57.7919 178.987 57.6479C178.795 57.5199 178.675 57.3519 178.627 57.1439C178.579 56.9199 178.555 56.6719 178.555 56.3999V47.4239C178.555 47.1679 178.579 46.9359 178.627 46.7279C178.675 46.5199 178.803 46.3599 179.011 46.2479C179.219 46.1199 179.539 46.0559 179.971 46.0559C180.355 46.0559 180.643 46.1039 180.835 46.1999C181.027 46.2959 181.155 46.4159 181.219 46.5599C181.283 46.7039 181.315 46.8479 181.315 46.9919C181.331 47.1359 181.347 47.2479 181.363 47.3279L181.267 48.0959C181.363 47.8399 181.523 47.5919 181.747 47.3519C181.971 47.1119 182.243 46.8959 182.563 46.7039C182.883 46.4959 183.227 46.3359 183.595 46.2239C183.979 46.0959 184.371 46.0319 184.771 46.0319C185.523 46.0319 186.195 46.1679 186.787 46.4399C187.379 46.7119 187.883 47.0959 188.299 47.5919C188.731 48.0879 189.059 48.6799 189.283 49.3679C189.507 50.0399 189.619 50.7999 189.619 51.6479V56.4239C189.619 56.6959 189.587 56.9439 189.523 57.1679C189.475 57.3759 189.355 57.5439 189.163 57.6719C188.971 57.7999 188.643 57.8639 188.179 57.8639C187.731 57.8639 187.403 57.7919 187.195 57.6479C186.987 57.5199 186.859 57.3519 186.811 57.1439C186.763 56.9199 186.739 56.6719 186.739 56.3999V51.6239C186.739 51.0479 186.635 50.5519 186.427 50.1359C186.235 49.7199 185.947 49.3999 185.563 49.1759C185.195 48.9519 184.723 48.8399 184.147 48.8399C183.587 48.8399 183.099 48.9599 182.683 49.1999C182.267 49.4239 181.947 49.7439 181.723 50.1599C181.499 50.5759 181.387 51.0639 181.387 51.6239V56.4239C181.387 56.6959 181.363 56.9439 181.315 57.1679C181.267 57.3759 181.139 57.5439 180.931 57.6719C180.739 57.7999 180.411 57.8639 179.947 57.8639ZM197.481 58.0319C196.713 58.0319 195.961 57.8879 195.225 57.5999C194.505 57.2959 193.849 56.8719 193.257 56.3279C192.681 55.7839 192.217 55.1439 191.865 54.4079C191.529 53.6719 191.361 52.8639 191.361 51.9839C191.361 51.1359 191.521 50.3439 191.841 49.6079C192.161 48.8719 192.601 48.2239 193.161 47.6639C193.721 47.1039 194.361 46.6719 195.081 46.3679C195.817 46.0479 196.601 45.8879 197.433 45.8879C198.553 45.8879 199.569 46.1599 200.481 46.7039C201.393 47.2319 202.121 47.9519 202.665 48.8639C203.209 49.7759 203.481 50.8079 203.481 51.9599C203.481 52.8719 203.313 53.7039 202.977 54.4559C202.641 55.1919 202.185 55.8319 201.609 56.3759C201.033 56.9039 200.385 57.3119 199.665 57.5999C198.961 57.8879 198.233 58.0319 197.481 58.0319ZM197.433 55.1999C197.961 55.1999 198.465 55.0719 198.945 54.8159C199.441 54.5439 199.841 54.1599 200.145 53.6639C200.465 53.1679 200.625 52.5839 200.625 51.9119C200.625 51.2879 200.481 50.7359 200.193 50.2559C199.921 49.7759 199.545 49.3999 199.065 49.1279C198.585 48.8559 198.033 48.7199 197.409 48.7199C196.817 48.7199 196.281 48.8639 195.801 49.1519C195.321 49.4239 194.937 49.8079 194.649 50.3039C194.377 50.7839 194.241 51.3279 194.241 51.9359C194.241 52.6079 194.393 53.1919 194.697 53.6879C195.001 54.1679 195.393 54.5439 195.873 54.8159C196.369 55.0719 196.889 55.1999 197.433 55.1999ZM209.495 57.8879C208.903 57.8879 208.375 57.8479 207.911 57.7679C207.463 57.6879 207.071 57.5519 206.735 57.3599C206.415 57.1679 206.151 56.9119 205.943 56.5919C205.735 56.2559 205.575 55.8479 205.463 55.3679C205.367 54.8879 205.319 54.3119 205.319 53.6399V42.0719C205.319 41.7999 205.343 41.5599 205.391 41.3519C205.455 41.1279 205.583 40.9519 205.775 40.8239C205.983 40.6799 206.311 40.6079 206.759 40.6079C207.207 40.6079 207.527 40.6719 207.719 40.7999C207.927 40.9279 208.055 41.1039 208.103 41.3279C208.167 41.5359 208.199 41.7759 208.199 42.0479V53.5199C208.199 53.8239 208.215 54.0799 208.247 54.2879C208.295 54.4799 208.367 54.6399 208.463 54.7679C208.575 54.8799 208.711 54.9599 208.871 55.0079C209.047 55.0559 209.255 55.0799 209.495 55.0799C209.703 55.0799 209.887 55.1039 210.047 55.1519C210.223 55.1999 210.359 55.3199 210.455 55.5119C210.567 55.7039 210.623 56.0159 210.623 56.4479C210.623 56.8959 210.567 57.2239 210.455 57.4319C210.359 57.6399 210.223 57.7679 210.047 57.8159C209.871 57.8639 209.687 57.8879 209.495 57.8879ZM217.872 58.0319C217.104 58.0319 216.352 57.8879 215.616 57.5999C214.896 57.2959 214.24 56.8719 213.648 56.3279C213.072 55.7839 212.608 55.1439 212.256 54.4079C211.92 53.6719 211.752 52.8639 211.752 51.9839C211.752 51.1359 211.912 50.3439 212.232 49.6079C212.552 48.8719 212.992 48.2239 213.552 47.6639C214.112 47.1039 214.752 46.6719 215.472 46.3679C216.208 46.0479 216.992 45.8879 217.824 45.8879C218.944 45.8879 219.96 46.1599 220.872 46.7039C221.784 47.2319 222.512 47.9519 223.056 48.8639C223.6 49.7759 223.872 50.8079 223.872 51.9599C223.872 52.8719 223.704 53.7039 223.368 54.4559C223.032 55.1919 222.576 55.8319 222 56.3759C221.424 56.9039 220.776 57.3119 220.056 57.5999C219.352 57.8879 218.624 58.0319 217.872 58.0319ZM217.824 55.1999C218.352 55.1999 218.856 55.0719 219.336 54.8159C219.832 54.5439 220.232 54.1599 220.536 53.6639C220.856 53.1679 221.016 52.5839 221.016 51.9119C221.016 51.2879 220.872 50.7359 220.584 50.2559C220.312 49.7759 219.936 49.3999 219.456 49.1279C218.976 48.8559 218.424 48.7199 217.8 48.7199C217.208 48.7199 216.672 48.8639 216.192 49.1519C215.712 49.4239 215.328 49.8079 215.04 50.3039C214.768 50.7839 214.632 51.3279 214.632 51.9359C214.632 52.6079 214.784 53.1919 215.088 53.6879C215.392 54.1679 215.784 54.5439 216.264 54.8159C216.76 55.0719 217.28 55.1999 217.824 55.1999ZM230.918 62.6879C230.342 62.6879 229.79 62.6159 229.262 62.4719C228.734 62.3439 228.254 62.1679 227.822 61.9439C227.406 61.7199 227.07 61.4799 226.814 61.2239C226.574 60.9679 226.454 60.7279 226.454 60.5039C226.454 60.2799 226.486 60.0879 226.55 59.9279C226.63 59.7679 226.742 59.6079 226.886 59.4479C227.078 59.2559 227.23 59.1119 227.342 59.0159C227.47 58.9199 227.638 58.8719 227.846 58.8719C228.022 58.8719 228.19 58.9359 228.35 59.0639C228.526 59.1919 228.726 59.3359 228.95 59.4959C229.174 59.6559 229.446 59.7999 229.766 59.9279C230.086 60.0559 230.494 60.1199 230.99 60.1199C231.406 60.1199 231.79 60.0479 232.142 59.9039C232.494 59.7599 232.79 59.5439 233.03 59.2559C233.286 58.9839 233.486 58.6559 233.63 58.2719C233.774 57.8879 233.846 57.4559 233.846 56.9759L233.822 47.0399C233.854 46.6719 233.982 46.4159 234.206 46.2719C234.43 46.1119 234.774 46.0319 235.238 46.0319C235.67 46.0319 235.982 46.0959 236.174 46.2239C236.366 46.3359 236.486 46.5039 236.534 46.7279C236.582 46.9359 236.606 47.1679 236.606 47.4239V57.1439C236.606 58.0239 236.454 58.8079 236.15 59.4959C235.846 60.1839 235.43 60.7599 234.902 61.2239C234.374 61.7039 233.766 62.0639 233.078 62.3039C232.406 62.5599 231.686 62.6879 230.918 62.6879ZM230.654 57.5759C229.902 57.5759 229.198 57.4319 228.542 57.1439C227.902 56.8559 227.334 56.4479 226.838 55.9199C226.358 55.3919 225.974 54.7839 225.686 54.0959C225.414 53.3919 225.278 52.6319 225.278 51.8159C225.278 51.0159 225.414 50.2719 225.686 49.5839C225.974 48.8959 226.358 48.2879 226.838 47.7599C227.334 47.2319 227.902 46.8239 228.542 46.5359C229.198 46.2319 229.894 46.0799 230.63 46.0799C231.35 46.0799 231.974 46.2239 232.502 46.5119C233.046 46.7839 233.494 47.1759 233.846 47.6879C234.198 48.1999 234.462 48.8079 234.638 49.5119C234.83 50.2159 234.926 50.9919 234.926 51.8399C234.926 53.0079 234.766 54.0239 234.446 54.8879C234.126 55.7519 233.654 56.4159 233.03 56.8799C232.406 57.3439 231.614 57.5759 230.654 57.5759ZM230.918 54.8639C231.462 54.8639 231.942 54.7359 232.358 54.4799C232.79 54.2079 233.126 53.8399 233.366 53.3759C233.622 52.9119 233.75 52.3919 233.75 51.8159C233.75 51.2239 233.622 50.7039 233.366 50.2559C233.126 49.7919 232.79 49.4319 232.358 49.1759C231.926 48.9199 231.438 48.7919 230.894 48.7919C230.35 48.7919 229.862 48.9279 229.43 49.1999C229.014 49.4559 228.686 49.8079 228.446 50.2559C228.206 50.7039 228.086 51.2239 228.086 51.8159C228.086 52.4079 228.206 52.9359 228.446 53.3999C228.702 53.8479 229.038 54.2079 229.454 54.4799C229.886 54.7359 230.374 54.8639 230.918 54.8639ZM240.7 57.8879C240.268 57.8879 239.948 57.8159 239.74 57.6719C239.532 57.5439 239.404 57.3759 239.356 57.1679C239.308 56.9439 239.284 56.6959 239.284 56.4239V47.4959C239.284 47.2399 239.308 47.0079 239.356 46.7999C239.42 46.5759 239.548 46.3999 239.74 46.2719C239.948 46.1439 240.276 46.0799 240.724 46.0799C241.172 46.0799 241.492 46.1439 241.684 46.2719C241.892 46.3999 242.02 46.5759 242.068 46.7999C242.116 47.0239 242.14 47.2719 242.14 47.5439V56.4479C242.14 56.7199 242.116 56.9679 242.068 57.1919C242.02 57.3999 241.892 57.5679 241.684 57.6959C241.492 57.8239 241.164 57.8879 240.7 57.8879ZM240.7 43.7519C240.236 43.7519 239.892 43.6879 239.668 43.5599C239.46 43.4159 239.324 43.2239 239.26 42.9839C239.212 42.7439 239.188 42.4799 239.188 42.1919C239.188 41.8879 239.212 41.6239 239.26 41.3999C239.324 41.1759 239.468 40.9999 239.692 40.8719C239.916 40.7279 240.26 40.6559 240.724 40.6559C241.204 40.6559 241.548 40.7279 241.756 40.8719C241.964 41.0159 242.1 41.2079 242.164 41.4479C242.228 41.6719 242.26 41.9359 242.26 42.2399C242.26 42.5119 242.228 42.7679 242.164 43.0079C242.1 43.2479 241.964 43.4319 241.756 43.5599C241.548 43.6879 241.196 43.7519 240.7 43.7519ZM244.91 60.3599C244.91 60.3599 244.878 60.3439 244.814 60.3119C244.75 60.2959 244.686 60.2319 244.622 60.1199C244.558 60.0239 244.526 59.8639 244.526 59.6399C244.526 59.3359 244.574 59.1359 244.67 59.0399C244.766 58.9599 244.83 58.9119 244.862 58.8959C244.878 58.8799 244.99 58.7839 245.198 58.6079C245.406 58.4479 245.526 58.1679 245.558 57.7679C245.398 57.7359 245.254 57.6959 245.126 57.6479C245.014 57.5839 244.918 57.5119 244.838 57.4319C244.678 57.2719 244.582 57.0879 244.55 56.8799C244.518 56.6559 244.502 56.4319 244.502 56.2079C244.502 55.8399 244.542 55.5359 244.622 55.2959C244.702 55.0559 244.854 54.8799 245.078 54.7679C245.318 54.6399 245.67 54.5759 246.134 54.5759C246.742 54.5759 247.174 54.7039 247.43 54.9599C247.574 55.1039 247.654 55.2879 247.67 55.5119C247.702 55.7359 247.718 55.9599 247.718 56.1839C247.718 56.3439 247.718 56.4799 247.718 56.5919C247.718 56.6879 247.71 56.7759 247.694 56.8559C247.63 57.4959 247.462 58.0799 247.19 58.6079C246.934 59.1359 246.606 59.5599 246.206 59.8799C245.822 60.1999 245.39 60.3599 244.91 60.3599ZM246.086 49.9439C245.478 49.9439 245.054 49.8239 244.814 49.5839C244.59 49.3279 244.478 48.9199 244.478 48.3599C244.478 47.9439 244.518 47.6159 244.598 47.3759C244.694 47.1359 244.862 46.9679 245.102 46.8719C245.358 46.7599 245.694 46.7039 246.11 46.7039C246.734 46.7039 247.158 46.8239 247.382 47.0639C247.606 47.3039 247.718 47.7279 247.718 48.3359C247.718 48.6239 247.686 48.8959 247.622 49.1519C247.558 49.3919 247.414 49.5839 247.19 49.7279C246.966 49.8719 246.598 49.9439 246.086 49.9439ZM257.362 57.8639C256.946 57.8639 256.634 57.7919 256.426 57.6479C256.218 57.5199 256.082 57.3439 256.018 57.1199C255.954 56.8959 255.922 56.6559 255.922 56.3999V42.5279C255.922 42.2719 255.946 42.0399 255.994 41.8319C256.058 41.6079 256.194 41.4319 256.402 41.3039C256.61 41.1599 256.938 41.0879 257.386 41.0879L261.898 41.1119C263.066 41.1119 264.138 41.3119 265.114 41.7119C266.106 42.1119 266.962 42.6799 267.682 43.4159C268.402 44.1519 268.954 45.0319 269.338 46.0559C269.738 47.0639 269.938 48.1759 269.938 49.3919C269.938 50.6399 269.738 51.7839 269.338 52.8239C268.938 53.8639 268.378 54.7599 267.658 55.5119C266.938 56.2639 266.082 56.8479 265.09 57.2639C264.114 57.6639 263.026 57.8639 261.826 57.8639H257.362ZM258.826 54.9599H261.898C262.922 54.9599 263.818 54.7359 264.586 54.2879C265.354 53.8239 265.946 53.1839 266.362 52.3679C266.794 51.5519 267.01 50.5999 267.01 49.5119C267.01 48.4079 266.794 47.4479 266.362 46.6319C265.946 45.7999 265.346 45.1599 264.562 44.7119C263.794 44.2479 262.898 44.0159 261.874 44.0159H258.826V54.9599ZM282.051 57.8399C281.587 57.8399 281.243 57.7519 281.019 57.5759C280.795 57.3999 280.683 57.1599 280.683 56.8559L280.851 56.0639C280.723 56.2719 280.507 56.5199 280.203 56.8079C279.899 57.0799 279.499 57.3279 279.003 57.5519C278.507 57.7599 277.907 57.8639 277.203 57.8639C276.451 57.8639 275.739 57.7119 275.067 57.4079C274.411 57.0879 273.827 56.6559 273.315 56.1119C272.819 55.5519 272.419 54.9199 272.115 54.2159C271.827 53.4959 271.683 52.7279 271.683 51.9119C271.683 51.1279 271.827 50.3919 272.115 49.7039C272.419 48.9999 272.827 48.3759 273.339 47.8319C273.851 47.2879 274.435 46.8639 275.091 46.5599C275.763 46.2399 276.467 46.0799 277.203 46.0799C277.859 46.0799 278.411 46.1679 278.859 46.3439C279.323 46.5199 279.715 46.7439 280.035 47.0159C280.355 47.2719 280.619 47.5439 280.827 47.8319L280.683 47.1359C280.683 46.7839 280.795 46.5199 281.019 46.3439C281.243 46.1519 281.595 46.0559 282.075 46.0559C282.523 46.0559 282.843 46.1279 283.035 46.2719C283.227 46.3999 283.347 46.5839 283.395 46.8239C283.443 47.0479 283.467 47.3039 283.467 47.5919V56.3759C283.467 56.6479 283.443 56.8959 283.395 57.1199C283.347 57.3439 283.219 57.5199 283.011 57.6479C282.819 57.7759 282.499 57.8399 282.051 57.8399ZM277.635 55.0559C278.179 55.0559 278.667 54.9199 279.099 54.6479C279.531 54.3759 279.875 54.0079 280.131 53.5439C280.403 53.0639 280.539 52.5359 280.539 51.9599C280.539 51.3359 280.403 50.7919 280.131 50.3279C279.859 49.8639 279.499 49.5039 279.051 49.2479C278.619 48.9759 278.131 48.8399 277.587 48.8399C276.995 48.8399 276.467 48.9839 276.003 49.2719C275.539 49.5439 275.171 49.9199 274.899 50.3999C274.643 50.8639 274.515 51.3919 274.515 51.9839C274.515 52.5599 274.651 53.0799 274.923 53.5439C275.195 54.0079 275.563 54.3759 276.027 54.6479C276.507 54.9199 277.043 55.0559 277.635 55.0559ZM287.267 57.8639C286.835 57.8639 286.515 57.7999 286.307 57.6719C286.115 57.5439 285.995 57.3679 285.947 57.1439C285.899 56.9199 285.875 56.6799 285.875 56.4239V47.4479C285.875 47.1919 285.899 46.9599 285.947 46.7519C285.995 46.5439 286.123 46.3759 286.331 46.2479C286.539 46.1199 286.867 46.0559 287.315 46.0559C287.779 46.0559 288.115 46.1519 288.323 46.3439C288.547 46.5359 288.659 46.8399 288.659 47.2559L288.443 47.9279C288.523 47.7519 288.659 47.5599 288.851 47.3519C289.043 47.1439 289.275 46.9359 289.547 46.7279C289.835 46.5199 290.155 46.3519 290.507 46.2239C290.859 46.0959 291.227 46.0319 291.611 46.0319C292.139 46.0319 292.619 46.1199 293.051 46.2959C293.499 46.4719 293.891 46.7279 294.227 47.0639C294.579 47.3999 294.883 47.8079 295.139 48.2879C295.411 47.8719 295.715 47.4959 296.051 47.1599C296.387 46.8079 296.779 46.5359 297.227 46.3439C297.675 46.1359 298.179 46.0319 298.739 46.0319C299.667 46.0319 300.443 46.2639 301.067 46.7279C301.707 47.1919 302.187 47.8559 302.507 48.7199C302.843 49.5679 303.011 50.5839 303.011 51.7679V56.4239C303.011 56.6959 302.979 56.9439 302.915 57.1679C302.867 57.3759 302.739 57.5439 302.531 57.6719C302.339 57.7999 302.019 57.8639 301.571 57.8639C301.123 57.8639 300.795 57.7919 300.587 57.6479C300.379 57.5199 300.251 57.3519 300.203 57.1439C300.155 56.9199 300.131 56.6719 300.131 56.3999V51.7439C300.131 51.1519 300.059 50.6399 299.915 50.2079C299.771 49.7759 299.555 49.4399 299.267 49.1999C298.995 48.9599 298.635 48.8399 298.187 48.8399C297.707 48.8399 297.291 48.9599 296.939 49.1999C296.603 49.4239 296.339 49.7519 296.147 50.1839C295.955 50.6159 295.859 51.1439 295.859 51.7679V56.4479C295.859 56.7199 295.819 56.9759 295.739 57.2159C295.659 57.4399 295.499 57.6079 295.259 57.7199C295.035 57.8479 294.707 57.8959 294.275 57.8639C293.875 57.8479 293.579 57.7679 293.387 57.6239C293.211 57.4799 293.099 57.3039 293.051 57.0959C293.019 56.8719 293.003 56.6399 293.003 56.3999V51.7439C293.003 51.1519 292.931 50.6399 292.787 50.2079C292.643 49.7599 292.427 49.4239 292.139 49.1999C291.867 48.9599 291.499 48.8399 291.035 48.8399C290.539 48.8399 290.115 48.9679 289.763 49.2239C289.427 49.4799 289.171 49.8239 288.995 50.2559C288.819 50.6879 288.731 51.1839 288.731 51.7439V56.4479C288.731 56.7039 288.699 56.9439 288.635 57.1679C288.587 57.3919 288.459 57.5599 288.251 57.6719C288.059 57.7999 287.731 57.8639 287.267 57.8639ZM311.494 57.7199C310.71 57.7199 310.006 57.5759 309.382 57.2879C308.774 56.9839 308.254 56.5679 307.822 56.0399C307.406 55.4959 307.086 54.8719 306.862 54.1679C306.654 53.4639 306.55 52.7039 306.55 51.8879C306.566 51.0719 306.686 50.3119 306.91 49.6079C307.134 48.8879 307.454 48.2639 307.87 47.7359C308.302 47.2079 308.822 46.7919 309.43 46.4879C310.038 46.1839 310.726 46.0319 311.494 46.0319C312.23 46.0319 312.918 46.1839 313.558 46.4879C314.214 46.7919 314.79 47.2159 315.286 47.7599C315.798 48.3039 316.198 48.9359 316.486 49.6559C316.774 50.3599 316.918 51.1199 316.918 51.9359C316.918 52.7679 316.774 53.5359 316.486 54.2399C316.198 54.9439 315.806 55.5599 315.31 56.0879C314.814 56.5999 314.238 56.9999 313.582 57.2879C312.926 57.5759 312.23 57.7199 311.494 57.7199ZM306.694 62.7119C306.262 62.7119 305.942 62.6479 305.734 62.5199C305.526 62.3919 305.398 62.2239 305.35 62.0159C305.302 61.8079 305.278 61.5679 305.278 61.2959V47.4959C305.278 47.2239 305.302 46.9839 305.35 46.7759C305.398 46.5679 305.518 46.3999 305.71 46.2719C305.918 46.1279 306.238 46.0559 306.67 46.0559C307.086 46.0559 307.414 46.1199 307.654 46.2479C307.894 46.3759 308.054 46.5919 308.134 46.8959V61.2719C308.15 61.5439 308.126 61.7839 308.062 61.9919C308.014 62.2159 307.886 62.3919 307.678 62.5199C307.47 62.6479 307.142 62.7119 306.694 62.7119ZM311.11 55.0319C311.67 55.0319 312.174 54.9039 312.622 54.6479C313.07 54.3759 313.422 54.0079 313.678 53.5439C313.95 53.0639 314.086 52.5279 314.086 51.9359C314.086 51.3279 313.95 50.7919 313.678 50.3279C313.422 49.8639 313.07 49.5039 312.622 49.2479C312.174 48.9759 311.67 48.8399 311.11 48.8399C310.566 48.8399 310.07 48.9759 309.622 49.2479C309.174 49.5199 308.814 49.8879 308.542 50.3519C308.286 50.7999 308.158 51.3279 308.158 51.9359C308.158 52.5279 308.286 53.0639 308.542 53.5439C308.814 54.0079 309.174 54.3759 309.622 54.6479C310.07 54.9039 310.566 55.0319 311.11 55.0319ZM328.785 57.8399C328.321 57.8399 327.977 57.7519 327.753 57.5759C327.529 57.3999 327.417 57.1599 327.417 56.8559L327.585 56.0639C327.457 56.2719 327.241 56.5199 326.937 56.8079C326.633 57.0799 326.233 57.3279 325.737 57.5519C325.241 57.7599 324.641 57.8639 323.937 57.8639C323.185 57.8639 322.473 57.7119 321.801 57.4079C321.145 57.0879 320.561 56.6559 320.049 56.1119C319.553 55.5519 319.153 54.9199 318.849 54.2159C318.561 53.4959 318.417 52.7279 318.417 51.9119C318.417 51.1279 318.561 50.3919 318.849 49.7039C319.153 48.9999 319.561 48.3759 320.073 47.8319C320.585 47.2879 321.169 46.8639 321.825 46.5599C322.497 46.2399 323.201 46.0799 323.937 46.0799C324.593 46.0799 325.145 46.1679 325.593 46.3439C326.057 46.5199 326.449 46.7439 326.769 47.0159C327.089 47.2719 327.353 47.5439 327.561 47.8319L327.417 47.1359C327.417 46.7839 327.529 46.5199 327.753 46.3439C327.977 46.1519 328.329 46.0559 328.809 46.0559C329.257 46.0559 329.577 46.1279 329.769 46.2719C329.961 46.3999 330.081 46.5839 330.129 46.8239C330.177 47.0479 330.201 47.3039 330.201 47.5919V56.3759C330.201 56.6479 330.177 56.8959 330.129 57.1199C330.081 57.3439 329.953 57.5199 329.745 57.6479C329.553 57.7759 329.233 57.8399 328.785 57.8399ZM324.369 55.0559C324.913 55.0559 325.401 54.9199 325.833 54.6479C326.265 54.3759 326.609 54.0079 326.865 53.5439C327.137 53.0639 327.273 52.5359 327.273 51.9599C327.273 51.3359 327.137 50.7919 326.865 50.3279C326.593 49.8639 326.233 49.5039 325.785 49.2479C325.353 48.9759 324.865 48.8399 324.321 48.8399C323.729 48.8399 323.201 48.9839 322.737 49.2719C322.273 49.5439 321.905 49.9199 321.633 50.3999C321.377 50.8639 321.249 51.3919 321.249 51.9839C321.249 52.5599 321.385 53.0799 321.657 53.5439C321.929 54.0079 322.297 54.3759 322.761 54.6479C323.241 54.9199 323.777 55.0559 324.369 55.0559ZM342.017 55.2959C342.433 55.6479 342.649 55.9759 342.665 56.2799C342.697 56.5839 342.537 56.9359 342.185 57.3359C341.913 57.6399 341.673 57.8399 341.465 57.9359C341.257 58.0319 341.049 58.0319 340.841 57.9359C340.633 57.8559 340.385 57.6959 340.097 57.4559L335.513 53.5919V56.4479C335.513 56.7039 335.481 56.9439 335.417 57.1679C335.369 57.3919 335.241 57.5679 335.033 57.6959C334.841 57.8239 334.521 57.8879 334.073 57.8879C333.625 57.8879 333.297 57.8159 333.089 57.6719C332.897 57.5439 332.777 57.3679 332.729 57.1439C332.681 56.9199 332.657 56.6799 332.657 56.4239V42.0959C332.657 41.8239 332.681 41.5839 332.729 41.3759C332.793 41.1519 332.921 40.9759 333.113 40.8479C333.321 40.7039 333.649 40.6319 334.097 40.6319C334.545 40.6319 334.865 40.7039 335.057 40.8479C335.249 40.9759 335.369 41.1519 335.417 41.3759C335.481 41.5839 335.513 41.8319 335.513 42.1199V49.9919L338.825 46.7759C339.081 46.5359 339.321 46.3759 339.545 46.2959C339.769 46.1999 339.985 46.1919 340.193 46.2719C340.417 46.3359 340.649 46.5039 340.889 46.7759C341.289 47.2079 341.481 47.5679 341.465 47.8559C341.449 48.1279 341.249 48.4559 340.865 48.8399L337.625 51.8399L342.017 55.2959ZM345.955 49.9199C345.347 49.9199 344.923 49.7999 344.683 49.5599C344.443 49.3199 344.323 48.9119 344.323 48.3359C344.323 47.9199 344.371 47.5919 344.467 47.3519C344.579 47.1119 344.755 46.9439 344.995 46.8479C345.235 46.7359 345.555 46.6799 345.955 46.6799C346.563 46.6799 346.979 46.7999 347.203 47.0399C347.443 47.2799 347.563 47.7039 347.563 48.3119C347.563 48.6959 347.515 49.0079 347.419 49.2479C347.323 49.4879 347.155 49.6639 346.915 49.7759C346.675 49.8719 346.355 49.9199 345.955 49.9199ZM345.931 57.8879C345.339 57.8879 344.923 57.7759 344.683 57.5519C344.443 57.3119 344.323 56.8959 344.323 56.3039C344.323 55.8879 344.371 55.5679 344.467 55.3439C344.579 55.1039 344.755 54.9279 344.995 54.8159C345.235 54.7039 345.555 54.6479 345.955 54.6479C346.547 54.6479 346.963 54.7679 347.203 55.0079C347.443 55.2479 347.563 55.6719 347.563 56.2799C347.563 56.6799 347.507 56.9999 347.395 57.2399C347.299 57.4799 347.131 57.6479 346.891 57.7439C346.667 57.8399 346.347 57.8879 345.931 57.8879ZM172.081 86.8879C171.649 86.8879 171.329 86.8239 171.121 86.6959C170.929 86.5679 170.809 86.3919 170.761 86.1679C170.713 85.9279 170.689 85.6799 170.689 85.4239V73.7599C170.689 73.1679 170.769 72.6239 170.929 72.1279C171.089 71.6159 171.345 71.1759 171.697 70.8079C172.049 70.4399 172.505 70.1519 173.065 69.9439C173.625 69.7199 174.305 69.6079 175.105 69.6079C175.377 69.6079 175.617 69.6399 175.825 69.7039C176.049 69.7519 176.225 69.8719 176.353 70.0639C176.497 70.2559 176.569 70.5839 176.569 71.0479C176.569 71.4799 176.497 71.7999 176.353 72.0079C176.225 72.2159 176.049 72.3439 175.825 72.3919C175.601 72.4399 175.353 72.4639 175.081 72.4639C174.809 72.4639 174.569 72.4799 174.361 72.5119C174.169 72.5279 174.009 72.5759 173.881 72.6559C173.769 72.7359 173.681 72.8639 173.617 73.0399C173.569 73.2159 173.545 73.4399 173.545 73.7119V85.4719C173.545 85.7279 173.513 85.9679 173.449 86.1919C173.401 86.3999 173.273 86.5679 173.065 86.6959C172.857 86.8239 172.529 86.8879 172.081 86.8879ZM169.705 75.2959L172.177 75.3199L175.489 75.2239C175.761 75.2239 176.001 75.2559 176.209 75.3199C176.433 75.3679 176.609 75.4959 176.737 75.7039C176.865 75.8959 176.929 76.2159 176.929 76.6639C176.929 77.0799 176.865 77.3919 176.737 77.5999C176.609 77.8079 176.441 77.9439 176.233 78.0079C176.025 78.0559 175.785 78.0799 175.513 78.0799L172.297 78.0319L169.633 78.0559C169.233 78.0399 168.953 77.9279 168.793 77.7199C168.649 77.4959 168.577 77.1359 168.577 76.6399C168.577 76.1759 168.665 75.8399 168.841 75.6319C169.033 75.4079 169.321 75.2959 169.705 75.2959ZM180.231 86.8879C179.799 86.8879 179.479 86.8159 179.271 86.6719C179.063 86.5439 178.935 86.3759 178.887 86.1679C178.839 85.9439 178.815 85.6959 178.815 85.4239V76.4959C178.815 76.2399 178.839 76.0079 178.887 75.7999C178.951 75.5759 179.079 75.3999 179.271 75.2719C179.479 75.1439 179.807 75.0799 180.255 75.0799C180.703 75.0799 181.023 75.1439 181.215 75.2719C181.423 75.3999 181.551 75.5759 181.599 75.7999C181.647 76.0239 181.671 76.2719 181.671 76.5439V85.4479C181.671 85.7199 181.647 85.9679 181.599 86.1919C181.551 86.3999 181.423 86.5679 181.215 86.6959C181.023 86.8239 180.695 86.8879 180.231 86.8879ZM180.231 72.7519C179.767 72.7519 179.423 72.6879 179.199 72.5599C178.991 72.4159 178.855 72.2239 178.791 71.9839C178.743 71.7439 178.719 71.4799 178.719 71.1919C178.719 70.8879 178.743 70.6239 178.791 70.3999C178.855 70.1759 178.999 69.9999 179.223 69.8719C179.447 69.7279 179.791 69.6559 180.255 69.6559C180.735 69.6559 181.079 69.7279 181.287 69.8719C181.495 70.0159 181.631 70.2079 181.695 70.4479C181.759 70.6719 181.791 70.9359 181.791 71.2399C181.791 71.5119 181.759 71.7679 181.695 72.0079C181.631 72.2479 181.495 72.4319 181.287 72.5599C181.079 72.6879 180.727 72.7519 180.231 72.7519ZM188.401 87.0319C187.985 87.0319 187.545 86.9839 187.081 86.8879C186.617 86.8079 186.169 86.6879 185.737 86.5279C185.305 86.3519 184.929 86.1519 184.609 85.9279C184.305 85.6879 184.113 85.4239 184.033 85.1359C183.969 84.9759 183.945 84.8239 183.961 84.6799C183.977 84.5199 184.025 84.3599 184.105 84.1999C184.185 84.0239 184.305 83.8479 184.465 83.6719C184.609 83.4959 184.753 83.3999 184.897 83.3839C185.057 83.3519 185.257 83.3999 185.497 83.5279C185.705 83.6079 185.929 83.7119 186.169 83.8399C186.425 83.9679 186.681 84.0959 186.937 84.2239C187.209 84.3519 187.481 84.4559 187.753 84.5359C188.041 84.6159 188.321 84.6559 188.593 84.6559C189.185 84.6559 189.657 84.5599 190.009 84.3679C190.361 84.1599 190.537 83.8719 190.537 83.5039C190.537 83.2959 190.481 83.1119 190.369 82.9519C190.257 82.7919 190.105 82.6639 189.913 82.5679C189.737 82.4559 189.521 82.3599 189.265 82.2799C189.025 82.1839 188.761 82.1039 188.473 82.0399C188.201 81.9599 187.913 81.8719 187.609 81.7759C187.209 81.6639 186.809 81.5279 186.409 81.3679C186.009 81.2079 185.649 80.9999 185.329 80.7439C185.025 80.4879 184.777 80.1679 184.585 79.7839C184.393 79.3999 184.297 78.9199 184.297 78.3439C184.297 77.6239 184.465 77.0159 184.801 76.5199C185.153 76.0079 185.657 75.6159 186.313 75.3439C186.969 75.0719 187.761 74.9359 188.689 74.9359C189.009 74.9359 189.313 74.9599 189.601 75.0079C189.905 75.0559 190.193 75.1279 190.465 75.2239C190.753 75.3039 191.025 75.4079 191.281 75.5359C191.553 75.6639 191.809 75.8079 192.049 75.9679C192.449 76.1919 192.657 76.4559 192.673 76.7599C192.689 77.0479 192.577 77.3599 192.337 77.6959C192.161 77.9199 191.985 78.0799 191.809 78.1759C191.633 78.2559 191.449 78.2559 191.257 78.1759C191.001 78.0479 190.721 77.9119 190.417 77.7679C190.129 77.6079 189.825 77.4719 189.505 77.3599C189.201 77.2479 188.881 77.1919 188.545 77.1919C188.225 77.1919 187.937 77.2399 187.681 77.3359C187.425 77.4319 187.233 77.5679 187.105 77.7439C186.977 77.9199 186.913 78.1279 186.913 78.3679C186.913 78.5919 186.977 78.7759 187.105 78.9199C187.233 79.0639 187.401 79.1839 187.609 79.2799C187.817 79.3759 188.065 79.4639 188.353 79.5439C188.641 79.6079 188.945 79.6719 189.265 79.7359C189.713 79.8319 190.169 79.9519 190.633 80.0959C191.097 80.2399 191.521 80.4399 191.905 80.6959C192.305 80.9519 192.625 81.2959 192.865 81.7279C193.105 82.1439 193.225 82.6879 193.225 83.3599C193.225 84.5279 192.793 85.4319 191.929 86.0719C191.081 86.7119 189.905 87.0319 188.401 87.0319ZM196.848 86.8879C196.416 86.8879 196.096 86.8159 195.888 86.6719C195.68 86.5439 195.552 86.3759 195.504 86.1679C195.456 85.9439 195.432 85.6959 195.432 85.4239V76.4959C195.432 76.2399 195.456 76.0079 195.504 75.7999C195.568 75.5759 195.696 75.3999 195.888 75.2719C196.096 75.1439 196.424 75.0799 196.872 75.0799C197.32 75.0799 197.64 75.1439 197.832 75.2719C198.04 75.3999 198.168 75.5759 198.216 75.7999C198.264 76.0239 198.288 76.2719 198.288 76.5439V85.4479C198.288 85.7199 198.264 85.9679 198.216 86.1919C198.168 86.3999 198.04 86.5679 197.832 86.6959C197.64 86.8239 197.312 86.8879 196.848 86.8879ZM196.848 72.7519C196.384 72.7519 196.04 72.6879 195.816 72.5599C195.608 72.4159 195.472 72.2239 195.408 71.9839C195.36 71.7439 195.336 71.4799 195.336 71.1919C195.336 70.8879 195.36 70.6239 195.408 70.3999C195.472 70.1759 195.616 69.9999 195.84 69.8719C196.064 69.7279 196.408 69.6559 196.872 69.6559C197.352 69.6559 197.696 69.7279 197.904 69.8719C198.112 70.0159 198.248 70.2079 198.312 70.4479C198.376 70.6719 198.408 70.9359 198.408 71.2399C198.408 71.5119 198.376 71.7679 198.312 72.0079C198.248 72.2479 198.112 72.4319 197.904 72.5599C197.696 72.6879 197.344 72.7519 196.848 72.7519ZM210.322 84.2959C210.738 84.6479 210.954 84.9759 210.97 85.2799C211.002 85.5839 210.842 85.9359 210.49 86.3359C210.218 86.6399 209.978 86.8399 209.77 86.9359C209.562 87.0319 209.354 87.0319 209.146 86.9359C208.938 86.8559 208.69 86.6959 208.402 86.4559L203.818 82.5919V85.4479C203.818 85.7039 203.786 85.9439 203.722 86.1679C203.674 86.3919 203.546 86.5679 203.338 86.6959C203.146 86.8239 202.826 86.8879 202.378 86.8879C201.93 86.8879 201.602 86.8159 201.394 86.6719C201.202 86.5439 201.082 86.3679 201.034 86.1439C200.986 85.9199 200.962 85.6799 200.962 85.4239V71.0959C200.962 70.8239 200.986 70.5839 201.034 70.3759C201.098 70.1519 201.226 69.9759 201.418 69.8479C201.626 69.7039 201.954 69.6319 202.402 69.6319C202.85 69.6319 203.17 69.7039 203.362 69.8479C203.554 69.9759 203.674 70.1519 203.722 70.3759C203.786 70.5839 203.818 70.8319 203.818 71.1199V78.9919L207.13 75.7759C207.386 75.5359 207.626 75.3759 207.85 75.2959C208.074 75.1999 208.29 75.1919 208.498 75.2719C208.722 75.3359 208.954 75.5039 209.194 75.7759C209.594 76.2079 209.786 76.5679 209.77 76.8559C209.754 77.1279 209.554 77.4559 209.17 77.8399L205.93 80.8399L210.322 84.2959Z" fill="black"/>
</svg>
