<svg width="336" height="108" viewBox="0 0 336 108" fill="none" xmlns="http://www.w3.org/2000/svg">
<mask id="mask0_62_1751" style="mask-type:luminance" maskUnits="userSpaceOnUse" x="0" y="0" width="336" height="108">
<path d="M336 0H0V108H336V0Z" fill="white"/>
</mask>
<g mask="url(#mask0_62_1751)">
<mask id="mask1_62_1751" style="mask-type:luminance" maskUnits="userSpaceOnUse" x="7" y="8" width="327" height="100">
<path d="M7.84424 8.3999H333.385V107.419H7.84424V8.3999Z" fill="white"/>
</mask>
<g mask="url(#mask1_62_1751)">
<path d="M13.2627 65.1468L10.413 56.1234L14.9429 46.6874L10.9493 37.2562L8.21191 27.8203L10.1679 17.4187L22.057 16.4109L32.9094 14.0343L43.966 19.3265L54.6959 12.375L65.8036 19.5375L76.6304 16.1671L87.6667 20.6109L98.5803 20.4093L109.54 21.9093L120.387 19.2796L130.719 15.3984L141.096 13.1062L151.474 10.889L161.938 11.8921L172.468 15.4125L182.984 18.3093L193.412 18.0656L203.616 9.27651L214.254 16.8187L224.703 17.2546L234.983 11.2312L245.351 8.58276L256.121 11.6156L267.28 13.289L275.895 21.0562L286.748 22.8656L295.946 29.1046L309.367 24.0375L319.371 28.1015L332.931 33.4593L325.479 45.3046L325.214 55.8843L314.464 62.8734L310.695 72.2531L313.989 84.0562L308.759 92.939L306.088 104.377L290.517 98.7703L280.002 105.689L268.991 98.9906L258.537 107.841L247.49 99.8718L236.766 101.189L225.964 100.223L215.413 107.039L204.586 105.309L193.892 109.102L183.418 103.069L172.387 107.752L162.188 104.442L151.811 103.795L141.377 104.255L130.959 104.372L120.816 99.4874L110.372 100.083L100.25 94.6312L89.2703 105.084L79.4342 94.3499L68.5103 103.884L58.4955 96.5203L48.3019 92.2078L37.5006 99.6515L22.8997 100.397L24.7535 88.3265L19.146 81.2062L9.24864 75.2203L13.2627 65.1468Z" fill="black"/>
<path d="M13.2627 65.1468L10.413 56.1234L14.9429 46.6874L10.9493 37.2562L8.21191 27.8203L10.1679 17.4187L22.057 16.4109L32.9094 14.0343L43.966 19.3265L54.6959 12.375L65.8036 19.5375L76.6304 16.1671L87.6667 20.6109L98.5803 20.4093L109.54 21.9093L120.387 19.2796L130.719 15.3984L141.096 13.1062L151.474 10.889L161.938 11.8921L172.468 15.4125L182.984 18.3093L193.412 18.0656L203.616 9.27651L214.254 16.8187L224.703 17.2546L234.983 11.2312L245.351 8.58276L256.121 11.6156L267.28 13.289L275.895 21.0562L286.748 22.8656L295.946 29.1046L309.367 24.0375L319.371 28.1015L332.931 33.4593L325.479 45.3046L325.214 55.8843L314.464 62.8734L310.695 72.2531L313.989 84.0562L308.759 92.939L306.088 104.377L290.517 98.7703L280.002 105.689L268.991 98.9906L258.537 107.841L247.49 99.8718L236.766 101.189L225.964 100.223L215.413 107.039L204.586 105.309L193.892 109.102L183.418 103.069L172.387 107.752L162.188 104.442L151.811 103.795L141.377 104.255L130.959 104.372L120.816 99.4874L110.372 100.083L100.25 94.6312L89.2703 105.084L79.4342 94.3499L68.5103 103.884L58.4955 96.5203L48.3019 92.2078L37.5006 99.6515L22.8997 100.397L24.7535 88.3265L19.146 81.2062L9.24864 75.2203L13.2627 65.1468Z" fill="black"/>
</g>
<mask id="mask2_62_1751" style="mask-type:luminance" maskUnits="userSpaceOnUse" x="6" y="7" width="328" height="101">
<path d="M6.53687 7.19995H333.972V107.419H6.53687V7.19995Z" fill="white"/>
</mask>
<g mask="url(#mask2_62_1751)">
<path d="M193.821 109.786L183.372 103.777L172.423 108.427L162.05 105.061L151.806 104.391L141.408 104.845L130.8 104.967L120.668 100.083L110.214 100.697L100.368 95.3954L89.2396 105.989L79.3831 95.2314L68.5512 104.695L58.1329 97.0642L48.3887 92.9345L37.7253 100.261L22.103 101.058L24.0538 88.5142L18.6455 81.6517L8.44172 75.4642L12.5631 65.1282L9.70826 56.0813L14.2229 46.6688L10.3007 37.4157L7.52246 27.8485L9.59591 16.8563L21.9804 15.8017L32.9962 13.411L43.9099 18.6329L54.6959 11.6251L65.9108 18.8579L76.6611 15.5063L87.7995 19.9923L98.6212 19.7907L109.499 21.2907L120.163 18.6985L130.555 14.7985L140.923 12.5063L151.417 10.2751L162.152 11.3157L172.678 14.836L183.071 17.686L193.142 17.4563L203.57 8.46572L214.499 16.2095L224.499 16.622L234.682 10.6642L245.345 7.93604L256.264 10.9876L267.592 12.6845L276.217 20.4563L287.013 22.2517L296.027 28.3595L309.357 23.3298L319.632 27.497L333.886 33.1642L326.148 45.4735L325.888 56.2079L315.025 63.2673L311.399 72.2907L314.729 84.136L309.397 93.1548L306.558 105.216L290.599 99.4642L280.002 106.434L269.047 99.7689L258.573 108.666L247.307 100.533L236.781 101.831L226.118 100.87L215.566 107.686L204.653 105.947L193.821 109.786ZM183.469 102.375L193.969 108.417L204.515 104.677L215.255 106.392L225.786 99.5907L236.755 100.58L247.679 99.2298L258.501 107.039L268.924 98.2173L279.986 104.934L290.425 98.072L305.593 103.528L308.126 92.7142L313.279 83.9673L310 72.211L313.892 62.4845L324.555 55.5423L324.816 45.1642L331.981 33.7454L319.111 28.6782L309.352 24.7126L295.849 29.8126L286.472 23.4423L275.574 21.6142L266.958 13.8563L255.907 12.1923L245.325 9.20635L235.249 11.7985L224.871 17.9063L213.999 17.4563L203.647 10.1251L193.647 18.7126L182.851 18.9704L172.234 16.0454L161.785 12.497L151.514 11.5126L141.275 13.7063L130.928 15.9751L120.561 19.8704L109.581 22.5329L98.5344 21.0188L87.5339 21.2298L76.6304 16.8235L65.7015 20.222L54.6959 13.1204L44.0324 20.0438L32.8379 14.6813L22.1183 17.0157L10.7399 17.986L8.89114 27.7923L11.5876 37.0642L15.6681 46.7017L11.128 56.1517L13.9828 65.1704L10.076 74.9767L19.6312 80.7517L25.4634 88.172L23.6861 99.7407L37.2759 99.0517L48.2355 91.5001L58.8989 96.0376L68.4694 103.069L79.4802 93.4595L89.2907 104.17L100.123 93.8579L110.521 99.4642L120.949 98.8501L131.107 103.734L141.357 103.622L151.806 103.158L162.311 103.814L172.305 107.063L183.469 102.375Z" fill="black"/>
</g>
<mask id="mask3_62_1751" style="mask-type:luminance" maskUnits="userSpaceOnUse" x="2" y="0" width="327" height="102">
<path d="M2.61475 0.975098H328.156V102H2.61475V0.975098Z" fill="white"/>
</mask>
<g mask="url(#mask3_62_1751)">
<path d="M8.21729 57.0561L5.37269 48.0279L9.89749 38.592L5.90382 29.1607L3.15625 19.7248L5.12245 9.32793L17.0064 8.31543L27.8639 5.94355L38.9206 11.2311L49.6504 4.27949L60.753 11.4467L71.585 8.06699L82.6212 12.5201L93.5298 12.3139L104.495 13.8232L115.342 11.1889L125.673 7.29824L136.051 5.01074L146.428 2.79824L156.892 3.80137L167.423 7.31699L177.933 10.2139L188.367 9.97012L198.566 1.18105L209.209 8.72793L219.657 9.16387L229.938 3.14043L240.305 0.487305L251.076 3.5248L262.235 5.19355L270.85 12.9654L281.702 14.7748L290.9 21.0092L304.316 15.942L314.326 20.0061L327.885 25.3592L320.434 37.2139L320.168 47.7936L309.418 54.7779L305.649 64.1623L308.948 75.9607L303.714 84.8436L301.038 96.2811L285.471 90.6795L274.956 97.5982L263.945 90.8998L253.491 99.7498L242.44 91.7764L231.715 93.0982L220.919 92.1279L210.363 98.9436L199.541 97.2232L188.847 101.011L178.372 94.9732L167.341 99.6561L157.138 96.3561L146.77 95.6998L136.332 96.1639L125.913 96.2811L115.771 91.392L105.327 91.9873L95.2049 86.5404L84.2248 96.9889L74.3887 86.2592L63.4649 95.7842L53.4449 88.4201L43.2616 84.1123L32.4551 91.5607L17.8491 92.3014L19.708 80.2357L14.1006 73.1107L4.20319 67.1248L8.21729 57.0561Z" fill="white"/>
</g>
<mask id="mask4_62_1751" style="mask-type:luminance" maskUnits="userSpaceOnUse" x="0" y="0" width="333" height="105">
<path d="M0.566895 0.975098H332.078V104.4H0.566895V0.975098Z" fill="white"/>
</mask>
<g mask="url(#mask4_62_1751)">
<path d="M188.596 103.509L178.204 97.5281L167.484 102.08L156.652 98.5688L146.755 97.9594L136.372 98.4141L125.336 98.5406L115.25 93.6563L104.739 94.2656L95.6438 89.3813L84.1224 100.373L74.2046 89.5594L63.6076 98.7703L52.1424 90.3469L43.5575 86.7188L33.3077 93.7641L14.9787 94.6922L17.1134 80.8125L12.3486 74.7563L1.21023 68.0391L5.61247 56.9953L2.77297 47.8688L7.2416 38.5453L3.52881 29.7375L0.653564 19.8281L3.03343 7.25156L16.6078 6.08438L28.1854 3.5625L38.7263 8.60625L49.6451 1.52813L61.146 8.94844L71.6971 5.6625L83.1112 10.2609L93.693 10.0641L104.356 11.5313L114.56 9.05156L124.912 5.15625L135.478 2.83125L146.27 0.520313L157.444 1.59844L168.194 5.18906L178.265 7.95938L187.371 7.74375L198.412 -1.76719L210.097 6.51094L218.993 6.88594L228.921 1.06406L240.341 -1.85156L251.637 1.33594L263.394 3.09375L272.055 10.8797L282.718 12.6563L291.232 18.45L304.342 13.4953L315.306 17.9531L331.373 24.3L322.87 37.8375L322.594 48.9703L311.461 56.2078L308.213 64.2797L311.548 76.2516L306.027 85.6313L302.815 99.3422L285.808 93.2344L274.997 100.345L264.18 93.7641L253.603 102.717L241.725 94.1672L231.73 95.3906L221.552 94.4813L210.888 101.348L199.725 99.5719L188.596 103.509ZM178.551 92.4234L189.107 98.5266L199.26 94.9031L209.755 96.5719L220.224 89.8125L231.648 90.8391L243.119 89.4234L253.338 96.8016L263.664 88.05L274.874 94.8703L285.098 88.1531L299.229 93.2297L301.374 84.0703L306.333 75.6938L303.085 64.0922L307.38 53.4L317.753 46.6828L317.998 36.6141L324.387 26.4563L313.35 22.1016L304.28 18.4359L290.563 23.5641L280.701 16.8844L269.67 15.0563L261.065 7.30781L250.519 5.71875L240.274 2.83125L230.944 5.2125L220.326 11.4328L208.33 10.9406L198.724 4.12969L189.362 12.1922L177.606 12.4641L166.58 9.4125L156.33 5.98594L146.607 5.07188L136.612 7.20469L126.434 9.44531L116.123 13.3219L104.622 16.1109L93.3712 14.5641L82.1205 14.775L71.4571 10.5L60.3698 13.9359L49.6502 7.02656L39.1144 13.8563L27.5368 8.32031L17.4045 10.5375L7.21606 11.4047L5.66353 19.6266L8.23746 28.4625L12.5478 38.6484L7.98212 48.2156L10.8063 57.1688L7.1701 66.2297L15.8316 71.4656L22.2766 79.6547L20.6986 89.9063L31.5816 89.3578L42.9651 81.5109L54.7469 86.4984L63.3012 92.7891L74.5877 83.0203L84.3522 93.6609L94.7756 83.7328L105.955 89.7375L116.337 89.1234L126.505 94.0078L136.26 93.9L146.796 93.4359L157.643 94.1109L167.213 97.2141L178.551 92.4234Z" fill="black"/>
<path d="M188.596 103.509L178.204 97.5281L167.484 102.08L156.652 98.5688L146.755 97.9594L136.372 98.4141L125.336 98.5406L115.25 93.6563L104.739 94.2656L95.6438 89.3813L84.1224 100.373L74.2046 89.5594L63.6076 98.7703L52.1424 90.3469L43.5575 86.7188L33.3077 93.7641L14.9787 94.6922L17.1134 80.8125L12.3486 74.7563L1.21023 68.0391L5.61247 56.9953L2.77297 47.8688L7.2416 38.5453L3.52881 29.7375L0.653564 19.8281L3.03343 7.25156L16.6078 6.08438L28.1854 3.5625L38.7263 8.60625L49.6451 1.52813L61.146 8.94844L71.6971 5.6625L83.1112 10.2609L93.693 10.0641L104.356 11.5313L114.56 9.05156L124.912 5.15625L135.478 2.83125L146.27 0.520313L157.444 1.59844L168.194 5.18906L178.265 7.95938L187.371 7.74375L198.412 -1.76719L210.097 6.51094L218.993 6.88594L228.921 1.06406L240.341 -1.85156L251.637 1.33594L263.394 3.09375L272.055 10.8797L282.718 12.6563L291.232 18.45L304.342 13.4953L315.306 17.9531L331.373 24.3L322.87 37.8375L322.594 48.9703L311.461 56.2078L308.213 64.2797L311.548 76.2516L306.027 85.6313L302.815 99.3422L285.808 93.2344L274.997 100.345L264.18 93.7641L253.603 102.717L241.725 94.1672L231.73 95.3906L221.552 94.4813L210.888 101.348L199.725 99.5719L188.596 103.509ZM178.551 92.4234L189.107 98.5266L199.26 94.9031L209.755 96.5719L220.224 89.8125L231.648 90.8391L243.119 89.4234L253.338 96.8016L263.664 88.05L274.874 94.8703L285.098 88.1531L299.229 93.2297L301.374 84.0703L306.333 75.6938L303.085 64.0922L307.38 53.4L317.753 46.6828L317.998 36.6141L324.387 26.4563L313.35 22.1016L304.28 18.4359L290.563 23.5641L280.701 16.8844L269.67 15.0563L261.065 7.30781L250.519 5.71875L240.274 2.83125L230.944 5.2125L220.326 11.4328L208.33 10.9406L198.724 4.12969L189.362 12.1922L177.606 12.4641L166.58 9.4125L156.33 5.98594L146.607 5.07188L136.612 7.20469L126.434 9.44531L116.123 13.3219L104.622 16.1109L93.3712 14.5641L82.1205 14.775L71.4571 10.5L60.3698 13.9359L49.6502 7.02656L39.1144 13.8563L27.5368 8.32031L17.4045 10.5375L7.21606 11.4047L5.66353 19.6266L8.23746 28.4625L12.5478 38.6484L7.98212 48.2156L10.8063 57.1688L7.1701 66.2297L15.8316 71.4656L22.2766 79.6547L20.6986 89.9063L31.5816 89.3578L42.9651 81.5109L54.7469 86.4984L63.3012 92.7891L74.5877 83.0203L84.3522 93.6609L94.7756 83.7328L105.955 89.7375L116.337 89.1234L126.505 94.0078L136.26 93.9L146.796 93.4359L157.643 94.1109L167.213 97.2141L178.551 92.4234Z" fill="black"/>
</g>
</g>
<path d="M64.5201 61.439C63.9974 61.439 63.6148 61.3643 63.3721 61.215C63.1481 61.0657 62.9988 60.8603 62.9241 60.599C62.8681 60.319 62.8401 60.0297 62.8401 59.731V43.575C62.8401 43.2763 62.8774 43.0057 62.9521 42.763C63.0268 42.5017 63.1761 42.2963 63.4001 42.147C63.6428 41.979 64.0254 41.895 64.5481 41.895H70.5401C71.3988 41.895 72.2108 42.035 72.9761 42.315C73.7601 42.5763 74.4601 42.987 75.0761 43.547C75.6921 44.0883 76.1774 44.779 76.5321 45.619C76.9054 46.4403 77.0921 47.4017 77.0921 48.503C77.0921 49.231 76.9801 49.959 76.7561 50.687C76.5321 51.3963 76.1961 52.059 75.7481 52.675C75.3188 53.2723 74.7681 53.7857 74.0961 54.215C73.4241 54.6443 72.6308 54.9243 71.7161 55.055H66.2281V59.759C66.2281 60.0577 66.1908 60.3377 66.1161 60.599C66.0601 60.8603 65.9108 61.0657 65.6681 61.215C65.4441 61.3643 65.0614 61.439 64.5201 61.439ZM76.4481 61.019C75.9068 61.3923 75.4588 61.5323 75.1041 61.439C74.7681 61.3457 74.4321 61.047 74.0961 60.543L69.3921 53.431L73.1721 52.927L76.8961 58.583C77.1574 58.9563 77.3161 59.2737 77.3721 59.535C77.4281 59.7963 77.3814 60.039 77.2321 60.263C77.0828 60.487 76.8214 60.739 76.4481 61.019ZM66.2281 51.695H70.9601C71.2961 51.695 71.6228 51.639 71.9401 51.527C72.2761 51.3963 72.5748 51.2003 72.8361 50.939C73.0974 50.659 73.3028 50.323 73.4521 49.931C73.6201 49.5203 73.7041 49.035 73.7041 48.475C73.7041 47.803 73.5734 47.2337 73.3121 46.767C73.0508 46.2817 72.6774 45.9177 72.1921 45.675C71.7254 45.4137 71.1561 45.283 70.4841 45.283H66.2281V51.695ZM90.5284 61.411C89.9871 61.411 89.5857 61.3083 89.3244 61.103C89.0631 60.8977 88.9324 60.6177 88.9324 60.263L89.1284 59.339C88.9791 59.5817 88.7271 59.871 88.3724 60.207C88.0177 60.5243 87.5511 60.8137 86.9724 61.075C86.3937 61.3177 85.6937 61.439 84.8724 61.439C83.9951 61.439 83.1644 61.2617 82.3804 60.907C81.6151 60.5337 80.9337 60.0297 80.3364 59.395C79.7577 58.7417 79.2911 58.0043 78.9364 57.183C78.6004 56.343 78.4324 55.447 78.4324 54.495C78.4324 53.5803 78.6004 52.7217 78.9364 51.919C79.2911 51.0977 79.7671 50.3697 80.3644 49.735C80.9617 49.1003 81.6431 48.6057 82.4084 48.251C83.1924 47.8777 84.0137 47.691 84.8724 47.691C85.6377 47.691 86.2817 47.7937 86.8044 47.999C87.3457 48.2043 87.8031 48.4657 88.1764 48.783C88.5497 49.0817 88.8577 49.399 89.1004 49.735L88.9324 48.923C88.9324 48.5123 89.0631 48.2043 89.3244 47.999C89.5857 47.775 89.9964 47.663 90.5564 47.663C91.0791 47.663 91.4524 47.747 91.6764 47.915C91.9004 48.0643 92.0404 48.279 92.0964 48.559C92.1524 48.8203 92.1804 49.119 92.1804 49.455V59.703C92.1804 60.0203 92.1524 60.3097 92.0964 60.571C92.0404 60.8323 91.8911 61.0377 91.6484 61.187C91.4244 61.3363 91.0511 61.411 90.5284 61.411ZM85.3764 58.163C86.0111 58.163 86.5804 58.0043 87.0844 57.687C87.5884 57.3697 87.9897 56.9403 88.2884 56.399C88.6057 55.839 88.7644 55.223 88.7644 54.551C88.7644 53.823 88.6057 53.1883 88.2884 52.647C87.9711 52.1057 87.5511 51.6857 87.0284 51.387C86.5244 51.0697 85.9551 50.911 85.3204 50.911C84.6297 50.911 84.0137 51.079 83.4724 51.415C82.9311 51.7323 82.5017 52.171 82.1844 52.731C81.8857 53.2723 81.7364 53.8883 81.7364 54.579C81.7364 55.251 81.8951 55.8577 82.2124 56.399C82.5297 56.9403 82.9591 57.3697 83.5004 57.687C84.0604 58.0043 84.6857 58.163 85.3764 58.163ZM101.01 67.067C100.338 67.067 99.6938 66.983 99.0778 66.815C98.4618 66.6657 97.9018 66.4603 97.3978 66.199C96.9125 65.9377 96.5205 65.6577 96.2218 65.359C95.9418 65.0603 95.8018 64.7803 95.8018 64.519C95.8018 64.2577 95.8391 64.0337 95.9138 63.847C96.0071 63.6603 96.1378 63.4737 96.3058 63.287C96.5298 63.063 96.7071 62.895 96.8378 62.783C96.9871 62.671 97.1831 62.615 97.4258 62.615C97.6311 62.615 97.8271 62.6897 98.0138 62.839C98.2191 62.9883 98.4525 63.1563 98.7138 63.343C98.9751 63.5297 99.2925 63.6977 99.6658 63.847C100.039 63.9963 100.515 64.071 101.094 64.071C101.579 64.071 102.027 63.987 102.438 63.819C102.848 63.651 103.194 63.399 103.474 63.063C103.772 62.7457 104.006 62.363 104.174 61.915C104.342 61.467 104.426 60.963 104.426 60.403L104.398 48.811C104.435 48.3817 104.584 48.083 104.846 47.915C105.107 47.7283 105.508 47.635 106.05 47.635C106.554 47.635 106.918 47.7097 107.142 47.859C107.366 47.9897 107.506 48.1857 107.562 48.447C107.618 48.6897 107.646 48.9603 107.646 49.259V60.599C107.646 61.6257 107.468 62.5403 107.114 63.343C106.759 64.1457 106.274 64.8177 105.658 65.359C105.042 65.919 104.332 66.339 103.53 66.619C102.746 66.9177 101.906 67.067 101.01 67.067ZM100.702 61.103C99.8245 61.103 99.0031 60.935 98.2378 60.599C97.4911 60.263 96.8285 59.787 96.2498 59.171C95.6898 58.555 95.2418 57.8457 94.9058 57.043C94.5885 56.2217 94.4298 55.335 94.4298 54.383C94.4298 53.4497 94.5885 52.5817 94.9058 51.779C95.2418 50.9763 95.6898 50.267 96.2498 49.651C96.8285 49.035 97.4911 48.559 98.2378 48.223C99.0031 47.8683 99.8151 47.691 100.674 47.691C101.514 47.691 102.242 47.859 102.858 48.195C103.492 48.5123 104.015 48.9697 104.426 49.567C104.836 50.1643 105.144 50.8737 105.35 51.695C105.574 52.5163 105.686 53.4217 105.686 54.411C105.686 55.7737 105.499 56.959 105.126 57.967C104.752 58.975 104.202 59.7497 103.474 60.291C102.746 60.8323 101.822 61.103 100.702 61.103ZM101.01 57.939C101.644 57.939 102.204 57.7897 102.69 57.491C103.194 57.1737 103.586 56.7443 103.866 56.203C104.164 55.6617 104.314 55.055 104.314 54.383C104.314 53.6923 104.164 53.0857 103.866 52.563C103.586 52.0217 103.194 51.6017 102.69 51.303C102.186 51.0043 101.616 50.855 100.982 50.855C100.347 50.855 99.7778 51.0137 99.2738 51.331C98.7885 51.6297 98.4058 52.0403 98.1258 52.563C97.8458 53.0857 97.7058 53.6923 97.7058 54.383C97.7058 55.0737 97.8458 55.6897 98.1258 56.231C98.4245 56.7537 98.8165 57.1737 99.3018 57.491C99.8058 57.7897 100.375 57.939 101.01 57.939ZM121.837 61.411C121.296 61.411 120.894 61.3083 120.633 61.103C120.372 60.8977 120.241 60.6177 120.241 60.263L120.437 59.339C120.288 59.5817 120.036 59.871 119.681 60.207C119.326 60.5243 118.86 60.8137 118.281 61.075C117.702 61.3177 117.002 61.439 116.181 61.439C115.304 61.439 114.473 61.2617 113.689 60.907C112.924 60.5337 112.242 60.0297 111.645 59.395C111.066 58.7417 110.6 58.0043 110.245 57.183C109.909 56.343 109.741 55.447 109.741 54.495C109.741 53.5803 109.909 52.7217 110.245 51.919C110.6 51.0977 111.076 50.3697 111.673 49.735C112.27 49.1003 112.952 48.6057 113.717 48.251C114.501 47.8777 115.322 47.691 116.181 47.691C116.946 47.691 117.59 47.7937 118.113 47.999C118.654 48.2043 119.112 48.4657 119.485 48.783C119.858 49.0817 120.166 49.399 120.409 49.735L120.241 48.923C120.241 48.5123 120.372 48.2043 120.633 47.999C120.894 47.775 121.305 47.663 121.865 47.663C122.388 47.663 122.761 47.747 122.985 47.915C123.209 48.0643 123.349 48.279 123.405 48.559C123.461 48.8203 123.489 49.119 123.489 49.455V59.703C123.489 60.0203 123.461 60.3097 123.405 60.571C123.349 60.8323 123.2 61.0377 122.957 61.187C122.733 61.3363 122.36 61.411 121.837 61.411ZM116.685 58.163C117.32 58.163 117.889 58.0043 118.393 57.687C118.897 57.3697 119.298 56.9403 119.597 56.399C119.914 55.839 120.073 55.223 120.073 54.551C120.073 53.823 119.914 53.1883 119.597 52.647C119.28 52.1057 118.86 51.6857 118.337 51.387C117.833 51.0697 117.264 50.911 116.629 50.911C115.938 50.911 115.322 51.079 114.781 51.415C114.24 51.7323 113.81 52.171 113.493 52.731C113.194 53.2723 113.045 53.8883 113.045 54.579C113.045 55.251 113.204 55.8577 113.521 56.399C113.838 56.9403 114.268 57.3697 114.809 57.687C115.369 58.0043 115.994 58.163 116.685 58.163ZM127.922 61.439C127.418 61.439 127.045 61.3643 126.802 61.215C126.578 61.0657 126.438 60.8603 126.382 60.599C126.326 60.3377 126.298 60.0577 126.298 59.759V49.287C126.298 48.9883 126.326 48.7177 126.382 48.475C126.438 48.2323 126.588 48.0363 126.83 47.887C127.073 47.7377 127.456 47.663 127.978 47.663C128.52 47.663 128.912 47.775 129.154 47.999C129.416 48.223 129.546 48.5777 129.546 49.063L129.294 49.847C129.388 49.6417 129.546 49.4177 129.77 49.175C129.994 48.9323 130.265 48.6897 130.582 48.447C130.918 48.2043 131.292 48.0083 131.702 47.859C132.113 47.7097 132.542 47.635 132.99 47.635C133.606 47.635 134.166 47.7377 134.67 47.943C135.193 48.1483 135.65 48.447 136.042 48.839C136.453 49.231 136.808 49.707 137.106 50.267C137.424 49.7817 137.778 49.343 138.17 48.951C138.562 48.5403 139.02 48.223 139.542 47.999C140.065 47.7563 140.653 47.635 141.306 47.635C142.389 47.635 143.294 47.9057 144.022 48.447C144.769 48.9883 145.329 49.763 145.702 50.771C146.094 51.7603 146.29 52.9457 146.29 54.327V59.759C146.29 60.0763 146.253 60.3657 146.178 60.627C146.122 60.8697 145.973 61.0657 145.73 61.215C145.506 61.3643 145.133 61.439 144.61 61.439C144.088 61.439 143.705 61.355 143.462 61.187C143.22 61.0377 143.07 60.8417 143.014 60.599C142.958 60.3377 142.93 60.0483 142.93 59.731V54.299C142.93 53.6083 142.846 53.011 142.678 52.507C142.51 52.003 142.258 51.611 141.922 51.331C141.605 51.051 141.185 50.911 140.662 50.911C140.102 50.911 139.617 51.051 139.206 51.331C138.814 51.5923 138.506 51.975 138.282 52.479C138.058 52.983 137.946 53.599 137.946 54.327V59.787C137.946 60.1043 137.9 60.403 137.806 60.683C137.713 60.9443 137.526 61.1403 137.246 61.271C136.985 61.4203 136.602 61.4763 136.098 61.439C135.632 61.4203 135.286 61.327 135.062 61.159C134.857 60.991 134.726 60.7857 134.67 60.543C134.633 60.2817 134.614 60.011 134.614 59.731V54.299C134.614 53.6083 134.53 53.011 134.362 52.507C134.194 51.9843 133.942 51.5923 133.606 51.331C133.289 51.051 132.86 50.911 132.318 50.911C131.74 50.911 131.245 51.0603 130.834 51.359C130.442 51.6577 130.144 52.059 129.938 52.563C129.733 53.067 129.63 53.6457 129.63 54.299V59.787C129.63 60.0857 129.593 60.3657 129.518 60.627C129.462 60.8883 129.313 61.0843 129.07 61.215C128.846 61.3643 128.464 61.439 127.922 61.439ZM163.244 61.439C162.33 61.439 161.508 61.2617 160.78 60.907C160.071 60.5337 159.464 60.0297 158.96 59.395C158.475 58.7603 158.102 58.0323 157.84 57.211C157.598 56.371 157.476 55.475 157.476 54.523C157.495 53.571 157.635 52.6843 157.896 51.863C158.158 51.023 158.531 50.295 159.016 49.679C159.52 49.0443 160.127 48.5497 160.836 48.195C161.546 47.8403 162.348 47.663 163.244 47.663C164.103 47.663 164.906 47.8403 165.652 48.195C166.418 48.5497 167.09 49.0443 167.668 49.679C168.266 50.295 168.732 51.023 169.068 51.863C169.404 52.6843 169.572 53.5617 169.572 54.495C169.572 55.4657 169.404 56.3803 169.068 57.239C168.732 58.079 168.275 58.8163 167.696 59.451C167.118 60.067 166.446 60.5523 165.68 60.907C164.915 61.2617 164.103 61.439 163.244 61.439ZM162.796 58.163C163.45 58.163 164.038 58.0137 164.56 57.715C165.083 57.3977 165.494 56.9683 165.792 56.427C166.11 55.8857 166.268 55.2697 166.268 54.579C166.268 53.8697 166.11 53.2443 165.792 52.703C165.494 52.143 165.083 51.7137 164.56 51.415C164.038 51.0977 163.45 50.939 162.796 50.939C162.162 50.939 161.583 51.0977 161.06 51.415C160.538 51.7323 160.118 52.1617 159.8 52.703C159.502 53.2443 159.352 53.8697 159.352 54.579C159.352 55.2697 159.502 55.8857 159.8 56.427C160.118 56.9683 160.538 57.3977 161.06 57.715C161.583 58.0137 162.162 58.163 162.796 58.163ZM157.616 61.467C157.112 61.467 156.739 61.383 156.496 61.215C156.254 61.0657 156.104 60.8697 156.048 60.627C155.992 60.3657 155.964 60.0763 155.964 59.759V43.071C155.964 42.7537 155.992 42.4737 156.048 42.231C156.104 41.9697 156.254 41.7643 156.496 41.615C156.739 41.4657 157.112 41.391 157.616 41.391C158.139 41.391 158.512 41.4657 158.736 41.615C158.96 41.7643 159.1 41.9697 159.156 42.231C159.212 42.4923 159.24 42.7723 159.24 43.071V60.319C159.166 60.7297 159.007 61.019 158.764 61.187C158.54 61.3737 158.158 61.467 157.616 61.467ZM177.811 61.439C176.953 61.439 176.159 61.2897 175.431 60.991C174.722 60.6737 174.097 60.2257 173.555 59.647C173.014 59.0683 172.594 58.3777 172.295 57.575C171.997 56.7723 171.847 55.8857 171.847 54.915V49.343C171.847 49.0257 171.875 48.7457 171.931 48.503C171.987 48.2417 172.137 48.0363 172.379 47.887C172.622 47.7377 172.995 47.663 173.499 47.663C174.041 47.663 174.423 47.7377 174.647 47.887C174.89 48.0363 175.039 48.2417 175.095 48.503C175.151 48.7643 175.179 49.0537 175.179 49.371V54.915C175.179 55.587 175.291 56.1657 175.515 56.651C175.758 57.1363 176.103 57.519 176.551 57.799C176.999 58.0603 177.55 58.191 178.203 58.191C178.875 58.191 179.445 58.0603 179.911 57.799C180.397 57.519 180.77 57.1363 181.031 56.651C181.293 56.147 181.423 55.5683 181.423 54.915V49.315C181.423 48.9977 181.451 48.7177 181.507 48.475C181.563 48.2137 181.713 48.0177 181.955 47.887C182.198 47.7377 182.581 47.663 183.103 47.663C183.626 47.663 183.999 47.7377 184.223 47.887C184.447 48.0363 184.587 48.2417 184.643 48.503C184.718 48.7643 184.755 49.0443 184.755 49.343V59.843C184.755 60.123 184.718 60.3843 184.643 60.627C184.587 60.8697 184.438 61.0657 184.195 61.215C183.971 61.3643 183.598 61.439 183.075 61.439C182.702 61.439 182.403 61.3923 182.179 61.299C181.974 61.2243 181.815 61.1217 181.703 60.991C181.61 60.8417 181.545 60.6923 181.507 60.543C181.489 60.3937 181.479 60.2443 181.479 60.095L181.703 59.339C181.591 59.507 181.423 59.7123 181.199 59.955C180.975 60.179 180.695 60.4123 180.359 60.655C180.042 60.879 179.669 61.0657 179.239 61.215C178.81 61.3643 178.334 61.439 177.811 61.439ZM198.945 61.439C198.292 61.439 197.704 61.3737 197.181 61.243C196.677 61.1123 196.229 60.9163 195.837 60.655C195.445 60.375 195.118 60.039 194.857 59.647C194.596 59.255 194.4 58.7977 194.269 58.275C194.138 57.7337 194.073 57.1363 194.073 56.483V42.987C194.073 42.6697 194.101 42.3897 194.157 42.147C194.213 41.8857 194.362 41.6803 194.605 41.531C194.848 41.3817 195.23 41.307 195.753 41.307C196.257 41.307 196.63 41.3817 196.873 41.531C197.116 41.6803 197.265 41.8857 197.321 42.147C197.396 42.3897 197.433 42.6603 197.433 42.959V56.567C197.433 56.8283 197.461 57.0523 197.517 57.239C197.573 57.4257 197.657 57.5843 197.769 57.715C197.9 57.8457 198.058 57.939 198.245 57.995C198.45 58.051 198.684 58.079 198.945 58.079C199.374 58.079 199.71 58.135 199.953 58.247C200.196 58.359 200.373 58.5363 200.485 58.779C200.597 59.0217 200.653 59.3483 200.653 59.759C200.653 60.151 200.588 60.4777 200.457 60.739C200.345 60.9817 200.158 61.159 199.897 61.271C199.654 61.383 199.337 61.439 198.945 61.439ZM191.861 61.439C191.245 61.439 190.694 61.3737 190.209 61.243C189.724 61.131 189.304 60.9443 188.949 60.683C188.594 60.4217 188.296 60.095 188.053 59.703C187.829 59.311 187.661 58.8537 187.549 58.331C187.437 57.7897 187.381 57.1737 187.381 56.483V42.987C187.381 42.6697 187.409 42.3897 187.465 42.147C187.521 41.8857 187.67 41.6803 187.913 41.531C188.156 41.3817 188.529 41.307 189.033 41.307C189.556 41.307 189.929 41.3817 190.153 41.531C190.396 41.6803 190.545 41.8857 190.601 42.147C190.676 42.3897 190.713 42.6603 190.713 42.959V56.567C190.713 56.9217 190.76 57.211 190.853 57.435C190.965 57.659 191.105 57.827 191.273 57.939C191.441 58.0323 191.637 58.079 191.861 58.079C192.216 58.079 192.496 58.135 192.701 58.247C192.906 58.359 193.046 58.5363 193.121 58.779C193.214 59.0217 193.261 59.3483 193.261 59.759C193.261 60.151 193.214 60.4777 193.121 60.739C193.028 60.9817 192.878 61.159 192.673 61.271C192.468 61.383 192.197 61.439 191.861 61.439ZM206.278 66.983C205.681 66.7217 205.336 66.423 205.242 66.087C205.149 65.7697 205.233 65.3403 205.494 64.799L212.718 48.615C212.98 48.0177 213.26 47.663 213.558 47.551C213.857 47.4203 214.314 47.4857 214.93 47.747C215.509 48.0083 215.845 48.2977 215.938 48.615C216.05 48.9323 215.985 49.3617 215.742 49.903L208.462 66.171C208.22 66.7683 207.949 67.1137 207.65 67.207C207.352 67.319 206.894 67.2443 206.278 66.983ZM208.882 60.123L202.414 50.183C202.078 49.679 201.938 49.259 201.994 48.923C202.069 48.587 202.368 48.2603 202.89 47.943C203.469 47.5883 203.917 47.4483 204.234 47.523C204.57 47.5977 204.906 47.8963 205.242 48.419L210.366 56.399L208.882 60.123ZM219.801 61.467C219.297 61.467 218.924 61.383 218.681 61.215C218.439 61.0657 218.289 60.8697 218.233 60.627C218.177 60.3657 218.149 60.0763 218.149 59.759V49.343C218.149 49.0443 218.177 48.7737 218.233 48.531C218.308 48.2697 218.457 48.0643 218.681 47.915C218.924 47.7657 219.307 47.691 219.829 47.691C220.352 47.691 220.725 47.7657 220.949 47.915C221.192 48.0643 221.341 48.2697 221.397 48.531C221.453 48.7923 221.481 49.0817 221.481 49.399V59.787C221.481 60.1043 221.453 60.3937 221.397 60.655C221.341 60.8977 221.192 61.0937 220.949 61.243C220.725 61.3923 220.343 61.467 219.801 61.467ZM219.801 44.975C219.26 44.975 218.859 44.9003 218.597 44.751C218.355 44.583 218.196 44.359 218.121 44.079C218.065 43.799 218.037 43.491 218.037 43.155C218.037 42.8003 218.065 42.4923 218.121 42.231C218.196 41.9697 218.364 41.7643 218.625 41.615C218.887 41.447 219.288 41.363 219.829 41.363C220.389 41.363 220.791 41.447 221.033 41.615C221.276 41.783 221.435 42.007 221.509 42.287C221.584 42.5483 221.621 42.8563 221.621 43.211C221.621 43.5283 221.584 43.827 221.509 44.107C221.435 44.387 221.276 44.6017 221.033 44.751C220.791 44.9003 220.38 44.975 219.801 44.975ZM226.196 61.439C225.692 61.439 225.319 61.355 225.076 61.187C224.852 61.0377 224.712 60.8417 224.656 60.599C224.6 60.3377 224.572 60.0483 224.572 59.731V49.259C224.572 48.9603 224.6 48.6897 224.656 48.447C224.712 48.2043 224.862 48.0177 225.104 47.887C225.347 47.7377 225.72 47.663 226.224 47.663C226.672 47.663 227.008 47.719 227.232 47.831C227.456 47.943 227.606 48.083 227.68 48.251C227.755 48.419 227.792 48.587 227.792 48.755C227.811 48.923 227.83 49.0537 227.848 49.147L227.736 50.043C227.848 49.7443 228.035 49.455 228.296 49.175C228.558 48.895 228.875 48.643 229.248 48.419C229.622 48.1763 230.023 47.9897 230.452 47.859C230.9 47.7097 231.358 47.635 231.824 47.635C232.702 47.635 233.486 47.7937 234.176 48.111C234.867 48.4283 235.455 48.8763 235.94 49.455C236.444 50.0337 236.827 50.7243 237.088 51.527C237.35 52.311 237.48 53.1977 237.48 54.187V59.759C237.48 60.0763 237.443 60.3657 237.368 60.627C237.312 60.8697 237.172 61.0657 236.948 61.215C236.724 61.3643 236.342 61.439 235.8 61.439C235.278 61.439 234.895 61.355 234.652 61.187C234.41 61.0377 234.26 60.8417 234.204 60.599C234.148 60.3377 234.12 60.0483 234.12 59.731V54.159C234.12 53.487 233.999 52.9083 233.756 52.423C233.532 51.9377 233.196 51.5643 232.748 51.303C232.319 51.0417 231.768 50.911 231.096 50.911C230.443 50.911 229.874 51.051 229.388 51.331C228.903 51.5923 228.53 51.9657 228.268 52.451C228.007 52.9363 227.876 53.5057 227.876 54.159V59.759C227.876 60.0763 227.848 60.3657 227.792 60.627C227.736 60.8697 227.587 61.0657 227.344 61.215C227.12 61.3643 226.738 61.439 226.196 61.439ZM246.232 67.067C245.56 67.067 244.916 66.983 244.3 66.815C243.684 66.6657 243.124 66.4603 242.62 66.199C242.135 65.9377 241.743 65.6577 241.444 65.359C241.164 65.0603 241.024 64.7803 241.024 64.519C241.024 64.2577 241.062 64.0337 241.136 63.847C241.23 63.6603 241.36 63.4737 241.528 63.287C241.752 63.063 241.93 62.895 242.06 62.783C242.21 62.671 242.406 62.615 242.648 62.615C242.854 62.615 243.05 62.6897 243.236 62.839C243.442 62.9883 243.675 63.1563 243.936 63.343C244.198 63.5297 244.515 63.6977 244.888 63.847C245.262 63.9963 245.738 64.071 246.316 64.071C246.802 64.071 247.25 63.987 247.66 63.819C248.071 63.651 248.416 63.399 248.696 63.063C248.995 62.7457 249.228 62.363 249.396 61.915C249.564 61.467 249.648 60.963 249.648 60.403L249.62 48.811C249.658 48.3817 249.807 48.083 250.068 47.915C250.33 47.7283 250.731 47.635 251.272 47.635C251.776 47.635 252.14 47.7097 252.364 47.859C252.588 47.9897 252.728 48.1857 252.784 48.447C252.84 48.6897 252.868 48.9603 252.868 49.259V60.599C252.868 61.6257 252.691 62.5403 252.336 63.343C251.982 64.1457 251.496 64.8177 250.88 65.359C250.264 65.919 249.555 66.339 248.752 66.619C247.968 66.9177 247.128 67.067 246.232 67.067ZM245.924 61.103C245.047 61.103 244.226 60.935 243.46 60.599C242.714 60.263 242.051 59.787 241.472 59.171C240.912 58.555 240.464 57.8457 240.128 57.043C239.811 56.2217 239.652 55.335 239.652 54.383C239.652 53.4497 239.811 52.5817 240.128 51.779C240.464 50.9763 240.912 50.267 241.472 49.651C242.051 49.035 242.714 48.559 243.46 48.223C244.226 47.8683 245.038 47.691 245.896 47.691C246.736 47.691 247.464 47.859 248.08 48.195C248.715 48.5123 249.238 48.9697 249.648 49.567C250.059 50.1643 250.367 50.8737 250.572 51.695C250.796 52.5163 250.908 53.4217 250.908 54.411C250.908 55.7737 250.722 56.959 250.348 57.967C249.975 58.975 249.424 59.7497 248.696 60.291C247.968 60.8323 247.044 61.103 245.924 61.103ZM246.232 57.939C246.867 57.939 247.427 57.7897 247.912 57.491C248.416 57.1737 248.808 56.7443 249.088 56.203C249.387 55.6617 249.536 55.055 249.536 54.383C249.536 53.6923 249.387 53.0857 249.088 52.563C248.808 52.0217 248.416 51.6017 247.912 51.303C247.408 51.0043 246.839 50.855 246.204 50.855C245.57 50.855 245 51.0137 244.496 51.331C244.011 51.6297 243.628 52.0403 243.348 52.563C243.068 53.0857 242.928 53.6923 242.928 54.383C242.928 55.0737 243.068 55.6897 243.348 56.231C243.647 56.7537 244.039 57.1737 244.524 57.491C245.028 57.7897 245.598 57.939 246.232 57.939Z" fill="black"/>
</svg>
