<svg width="400" height="120" viewBox="0 0 400 120" fill="none" xmlns="http://www.w3.org/2000/svg">
<mask id="mask0_62_2324" style="mask-type:luminance" maskUnits="userSpaceOnUse" x="0" y="0" width="400" height="120">
<path d="M400 0H0V120H400V0Z" fill="white"/>
</mask>
<g mask="url(#mask0_62_2324)">
<mask id="mask1_62_2324" style="mask-type:luminance" maskUnits="userSpaceOnUse" x="9" y="9" width="388" height="111">
<path d="M9.33838 9.33313H396.887V119.354H9.33838V9.33313Z" fill="white"/>
</mask>
<g mask="url(#mask1_62_2324)">
<path d="M15.7893 72.3852L12.3967 62.3592L17.7895 51.8748L13.0351 41.3956L9.77637 30.9113L12.1049 19.354L26.2586 18.2342L39.1781 15.5935L52.3408 21.4738L65.1144 13.7498L78.3379 21.7081L91.227 17.9633L104.365 22.9008L117.358 22.6769L130.405 24.3435L143.318 21.4217L155.618 17.1092L167.972 14.5623L180.326 12.0988L192.783 13.2133L205.32 17.1248L217.838 20.3435L230.253 20.0727L242.4 10.3071L255.065 18.6873L267.504 19.1717L279.742 12.479L292.084 9.53625L304.906 12.906L318.191 14.7654L328.447 23.3956L341.367 25.406L352.316 32.3383L368.294 26.7081L380.204 31.2238L396.346 37.1769L387.476 50.3383L387.16 62.0935L374.362 69.8592L369.875 80.281L373.796 93.3956L367.571 103.265L364.391 115.974L345.854 109.745L333.335 117.432L320.227 109.989L307.782 119.823L294.632 110.969L281.864 112.432L269.005 111.359L256.445 118.932L243.556 117.01L230.824 121.224L218.355 114.521L205.223 119.724L193.081 116.047L180.727 115.328L168.306 115.838L155.904 115.969L143.829 110.541L131.396 111.203L119.346 105.146L106.274 116.76L94.5648 104.833L81.5602 115.427L69.6377 107.245L57.5025 102.453L44.6438 110.724L27.2618 111.552L29.4687 98.1404L22.7931 90.229L11.0106 83.5779L15.7893 72.3852Z" fill="black"/>
<path d="M15.7893 72.3852L12.3967 62.3592L17.7895 51.8748L13.0351 41.3956L9.77637 30.9113L12.1049 19.354L26.2586 18.2342L39.1781 15.5935L52.3408 21.4738L65.1144 13.7498L78.3379 21.7081L91.227 17.9633L104.365 22.9008L117.358 22.6769L130.405 24.3435L143.318 21.4217L155.618 17.1092L167.972 14.5623L180.326 12.0988L192.783 13.2133L205.32 17.1248L217.838 20.3435L230.253 20.0727L242.4 10.3071L255.065 18.6873L267.504 19.1717L279.742 12.479L292.084 9.53625L304.906 12.906L318.191 14.7654L328.447 23.3956L341.367 25.406L352.316 32.3383L368.294 26.7081L380.204 31.2238L396.346 37.1769L387.476 50.3383L387.16 62.0935L374.362 69.8592L369.875 80.281L373.796 93.3956L367.571 103.265L364.391 115.974L345.854 109.745L333.335 117.432L320.227 109.989L307.782 119.823L294.632 110.969L281.864 112.432L269.005 111.359L256.445 118.932L243.556 117.01L230.824 121.224L218.355 114.521L205.223 119.724L193.081 116.047L180.727 115.328L168.306 115.838L155.904 115.969L143.829 110.541L131.396 111.203L119.346 105.146L106.274 116.76L94.5648 104.833L81.5602 115.427L69.6377 107.245L57.5025 102.453L44.6438 110.724L27.2618 111.552L29.4687 98.1404L22.7931 90.229L11.0106 83.5779L15.7893 72.3852Z" fill="black"/>
</g>
<mask id="mask2_62_2324" style="mask-type:luminance" maskUnits="userSpaceOnUse" x="7" y="7" width="391" height="113">
<path d="M7.78223 7.99976H397.586V119.354H7.78223V7.99976Z" fill="white"/>
</mask>
<g mask="url(#mask2_62_2324)">
<path d="M230.739 121.984L218.3 115.307L205.265 120.474L192.917 116.734L180.721 115.989L168.343 116.495L155.715 116.63L143.653 111.203L131.208 111.885L119.486 105.995L106.238 117.765L94.504 105.812L81.6088 116.328L69.2061 107.849L57.6059 103.26L44.9113 111.401L26.3133 112.286L28.6358 98.3488L22.1973 90.7238L10.0499 83.8488L14.9563 72.3644L11.5577 62.3123L16.9322 51.854L12.263 41.5727L8.95557 30.9425L11.424 18.729L26.1674 17.5571L39.2814 14.9008L52.2739 20.7029L65.1144 12.9165L78.4655 20.9529L91.2635 17.229L104.523 22.2133L117.406 21.9894L130.356 23.656L143.051 20.7758L155.423 16.4425L167.765 13.8956L180.259 11.4165L193.039 12.5727L205.569 16.4842L217.941 19.6508L229.931 19.3956L242.346 9.40605L255.356 18.0102L267.261 18.4685L279.384 11.8488L292.078 8.8175L305.077 12.2081L318.562 14.0935L328.83 22.729L341.683 24.7238L352.414 31.5102L368.282 25.9217L380.514 30.5519L397.483 36.8488L388.272 50.5258L387.962 62.4529L375.03 70.2967L370.714 80.3227L374.678 93.4842L368.331 103.505L364.95 116.906L345.951 110.515L333.335 118.26L320.294 110.854L307.825 120.739L294.413 111.703L281.882 113.146L269.188 112.078L256.627 119.651L243.635 117.719L230.739 121.984ZM218.416 113.75L230.916 120.463L243.47 116.307L256.256 118.213L268.793 110.656L281.852 111.755L294.857 110.255L307.74 118.932L320.148 109.13L333.317 116.594L345.744 108.969L363.801 115.031L366.817 103.015L372.951 93.2967L369.048 80.2342L373.681 69.4269L386.375 61.7133L386.685 50.1821L395.215 37.4946L379.894 31.8644L368.276 27.4581L352.201 33.1248L341.039 26.0467L328.064 24.0154L317.808 15.3956L304.651 13.5467L292.054 10.229L280.058 13.1092L267.704 19.8956L254.761 19.3956L242.437 11.2498L230.533 20.7915L217.68 21.0779L205.04 17.8279L192.601 13.8852L180.375 12.7915L168.185 15.229L155.867 17.7498L143.525 22.0779L130.454 25.0363L117.303 23.354L104.207 23.5883L91.227 18.6925L78.2163 22.4685L65.1144 14.5779L52.4198 22.2706L39.093 16.3123L26.3315 18.906L12.7858 19.9842L10.5849 30.88L13.7951 41.1821L18.6528 51.8904L13.2479 62.3904L16.6465 72.4113L11.9954 83.3071L23.3707 89.7238L30.3138 97.9686L28.198 110.823L44.3763 110.057L57.4235 101.666L70.118 106.708L81.5115 114.521L94.6195 103.844L106.299 115.745L119.194 104.286L131.572 110.515L143.987 109.833L156.08 115.26L168.282 115.135L180.721 114.62L193.227 115.349L205.125 118.958L218.416 113.75Z" fill="black"/>
</g>
<mask id="mask3_62_2324" style="mask-type:luminance" maskUnits="userSpaceOnUse" x="3" y="1" width="388" height="113">
<path d="M3.11279 1.08313H390.661V113.333H3.11279V1.08313Z" fill="white"/>
</mask>
<g mask="url(#mask3_62_2324)">
<path d="M9.78237 63.3953L6.39594 53.3641L11.7826 42.8797L7.02824 32.4005L3.75732 21.9161L6.09804 10.3641L20.2457 9.23906L33.1712 6.60364L46.3339 12.4786L59.1075 4.75468L72.3249 12.7182L85.2201 8.96301L98.3585 13.9109L111.345 13.6818L124.398 15.3588L137.312 12.4318L149.611 8.10885L161.965 5.56718L174.319 3.10885L186.777 4.22343L199.313 8.12968L211.825 11.3484L224.246 11.0776L236.387 1.31197L249.058 9.69739L261.497 10.1818L273.735 3.48906L286.077 0.541138L298.9 3.91614L312.184 5.7703L322.44 14.4057L335.36 16.4161L346.31 23.3432L362.281 17.713L374.197 22.2286L390.339 28.1766L381.469 41.3484L381.153 53.1036L368.355 60.8641L363.868 71.2911L367.796 84.4005L361.564 94.2703L358.378 106.979L339.847 100.755L327.329 108.442L314.221 100.999L301.775 110.833L288.619 101.973L275.851 103.442L262.999 102.364L250.432 109.937L237.549 108.026L224.818 112.234L212.348 105.526L199.216 110.729L187.068 107.062L174.726 106.333L162.299 106.848L149.897 106.979L137.822 101.546L125.389 102.208L113.339 96.1557L100.268 107.765L88.5579 95.8432L75.5533 106.427L63.6248 98.2443L51.5017 93.4578L38.6369 101.734L21.2488 102.557L23.4618 89.1505L16.7863 81.2338L5.00368 74.5828L9.78237 63.3953Z" fill="white"/>
</g>
<mask id="mask4_62_2324" style="mask-type:luminance" maskUnits="userSpaceOnUse" x="0" y="1" width="396" height="115">
<path d="M0.674805 1.08325H395.331V116H0.674805V1.08325Z" fill="white"/>
</mask>
<g mask="url(#mask4_62_2324)">
<path d="M224.52 115.01L212.147 108.365L199.386 113.422L186.491 109.521L174.708 108.844L162.348 109.349L149.21 109.49L137.202 104.062L124.69 104.74L113.862 99.3124L100.146 111.526L88.3391 99.5103L75.7236 109.745L62.0745 100.385L51.8544 96.3541L39.6524 104.182L17.8321 105.213L20.3734 89.7916L14.701 83.0624L1.44101 75.5989L6.68177 63.328L3.30142 53.1874L8.62122 42.828L4.20123 33.0416L0.77832 22.0312L3.61149 8.05721L19.7715 6.76034L33.5543 3.95825L46.103 9.56242L59.1015 1.69784L72.7932 9.94263L85.354 6.29159L98.9422 11.401L111.54 11.1822L124.234 12.8124L136.381 10.0572L148.705 5.72909L161.284 3.14575L174.131 0.578045L187.433 1.77596L200.231 5.76555L212.22 8.84367L223.061 8.60409L236.205 -1.96362L250.116 7.23429L260.707 7.65096L272.526 1.18221L286.12 -2.05737L299.568 1.48429L313.564 3.43742L323.875 12.0885L336.57 14.0624L346.705 20.4999L362.312 14.9947L375.365 19.9478L394.492 26.9999L384.369 42.0416L384.041 54.4114L370.787 62.453L366.92 71.4218L370.89 84.7239L364.318 95.1458L360.494 110.38L340.248 103.594L327.377 111.495L314.5 104.182L301.909 114.13L287.768 104.63L275.87 105.99L263.753 104.979L251.058 112.609L237.768 110.635L224.52 115.01ZM212.561 102.693L225.128 109.474L237.214 105.448L249.708 107.302L262.172 99.7916L275.772 100.932L289.427 99.3593L301.593 107.557L313.886 97.8333L327.231 105.411L339.403 97.9478L356.226 103.588L358.779 93.4114L364.683 84.1041L360.816 71.2135L365.929 59.3333L378.277 51.8697L378.569 40.6822L386.175 29.3958L373.036 24.5572L362.239 20.4843L345.908 26.1822L334.168 18.7603L321.036 16.7291L310.792 8.11971L298.237 6.35409L286.041 3.14575L274.933 5.79159L262.293 12.703L248.012 12.1562L236.576 4.58846L225.432 13.5468L211.436 13.8489L198.31 10.4583L186.108 6.65096L174.532 5.63534L162.634 8.00513L150.517 10.4947L138.242 14.802L124.55 17.901L111.156 16.1822L97.7628 16.4166L85.0682 11.6666L71.869 15.4843L59.1076 7.80721L46.565 15.3958L32.7822 9.24471L20.72 11.7083L8.59082 12.6718L6.74257 21.8072L9.80677 31.6249L14.9381 42.9426L9.50279 53.5728L12.8649 63.5208L8.5361 73.5885L18.8474 79.4062L26.5201 88.5051L24.6414 99.8958L37.5974 99.2864L51.1492 90.5676L65.1752 96.1093L75.3588 103.099L88.7951 92.2447L100.42 104.068L112.828 93.0364L126.137 99.7083L138.497 99.026L150.602 104.453L162.214 104.333L174.757 103.818L187.67 104.568L199.064 108.016L212.561 102.693Z" fill="black"/>
<path d="M224.52 115.01L212.147 108.365L199.386 113.422L186.491 109.521L174.708 108.844L162.348 109.349L149.21 109.49L137.202 104.062L124.69 104.74L113.862 99.3124L100.146 111.526L88.3391 99.5103L75.7236 109.745L62.0745 100.385L51.8544 96.3541L39.6524 104.182L17.8321 105.213L20.3734 89.7916L14.701 83.0624L1.44101 75.5989L6.68177 63.328L3.30142 53.1874L8.62122 42.828L4.20123 33.0416L0.77832 22.0312L3.61149 8.05721L19.7715 6.76034L33.5543 3.95825L46.103 9.56242L59.1015 1.69784L72.7932 9.94263L85.354 6.29159L98.9422 11.401L111.54 11.1822L124.234 12.8124L136.381 10.0572L148.705 5.72909L161.284 3.14575L174.131 0.578045L187.433 1.77596L200.231 5.76555L212.22 8.84367L223.061 8.60409L236.205 -1.96362L250.116 7.23429L260.707 7.65096L272.526 1.18221L286.12 -2.05737L299.568 1.48429L313.564 3.43742L323.875 12.0885L336.57 14.0624L346.705 20.4999L362.312 14.9947L375.365 19.9478L394.492 26.9999L384.369 42.0416L384.041 54.4114L370.787 62.453L366.92 71.4218L370.89 84.7239L364.318 95.1458L360.494 110.38L340.248 103.594L327.377 111.495L314.5 104.182L301.909 114.13L287.768 104.63L275.87 105.99L263.753 104.979L251.058 112.609L237.768 110.635L224.52 115.01ZM212.561 102.693L225.128 109.474L237.214 105.448L249.708 107.302L262.172 99.7916L275.772 100.932L289.427 99.3593L301.593 107.557L313.886 97.8333L327.231 105.411L339.403 97.9478L356.226 103.588L358.779 93.4114L364.683 84.1041L360.816 71.2135L365.929 59.3333L378.277 51.8697L378.569 40.6822L386.175 29.3958L373.036 24.5572L362.239 20.4843L345.908 26.1822L334.168 18.7603L321.036 16.7291L310.792 8.11971L298.237 6.35409L286.041 3.14575L274.933 5.79159L262.293 12.703L248.012 12.1562L236.576 4.58846L225.432 13.5468L211.436 13.8489L198.31 10.4583L186.108 6.65096L174.532 5.63534L162.634 8.00513L150.517 10.4947L138.242 14.802L124.55 17.901L111.156 16.1822L97.7628 16.4166L85.0682 11.6666L71.869 15.4843L59.1076 7.80721L46.565 15.3958L32.7822 9.24471L20.72 11.7083L8.59082 12.6718L6.74257 21.8072L9.80677 31.6249L14.9381 42.9426L9.50279 53.5728L12.8649 63.5208L8.5361 73.5885L18.8474 79.4062L26.5201 88.5051L24.6414 99.8958L37.5974 99.2864L51.1492 90.5676L65.1752 96.1093L75.3588 103.099L88.7951 92.2447L100.42 104.068L112.828 93.0364L126.137 99.7083L138.497 99.026L150.602 104.453L162.214 104.333L174.757 103.818L187.67 104.568L199.064 108.016L212.561 102.693Z" fill="black"/>
</g>
</g>
<path d="M29.4394 53.7935C28.9914 53.7935 28.6634 53.7295 28.4554 53.6015C28.2474 53.4735 28.1194 53.2975 28.0714 53.0735C28.0234 52.8335 27.9994 52.5855 27.9994 52.3295V38.4815C27.9994 38.2255 28.0234 37.9935 28.0714 37.7855C28.1354 37.5615 28.2714 37.3855 28.4794 37.2575C28.6874 37.1135 29.0154 37.0415 29.4634 37.0415H34.5514C35.2554 37.0415 35.9434 37.1615 36.6154 37.4015C37.2874 37.6415 37.8874 38.0015 38.4154 38.4815C38.9594 38.9615 39.3834 39.5535 39.6874 40.2575C40.0074 40.9615 40.1674 41.7855 40.1674 42.7295C40.1674 43.6575 40.0074 44.4735 39.6874 45.1775C39.3834 45.8655 38.9594 46.4495 38.4154 46.9295C37.8714 47.4095 37.2634 47.7695 36.5914 48.0095C35.9354 48.2495 35.2474 48.3695 34.5274 48.3695H30.9034V52.3535C30.9034 52.6095 30.8714 52.8495 30.8074 53.0735C30.7594 53.2975 30.6314 53.4735 30.4234 53.6015C30.2314 53.7295 29.9034 53.7935 29.4394 53.7935ZM30.9034 45.4415H34.5514C35.0474 45.4415 35.4954 45.3455 35.8954 45.1535C36.3114 44.9455 36.6474 44.6415 36.9034 44.2415C37.1594 43.8255 37.2874 43.3055 37.2874 42.6815C37.2874 42.1215 37.1674 41.6415 36.9274 41.2415C36.7034 40.8255 36.3834 40.5055 35.9674 40.2815C35.5674 40.0575 35.0874 39.9455 34.5274 39.9455H30.9034V45.4415ZM47.9346 53.9615C46.8946 53.9615 45.9826 53.7935 45.1986 53.4575C44.4306 53.1215 43.7826 52.6655 43.2546 52.0895C42.7426 51.4975 42.3506 50.8415 42.0786 50.1215C41.8226 49.3855 41.6946 48.6255 41.6946 47.8415C41.6946 46.6895 41.9586 45.6655 42.4866 44.7695C43.0146 43.8735 43.7426 43.1695 44.6706 42.6575C45.6146 42.1455 46.6946 41.8895 47.9106 41.8895C48.7746 41.8895 49.5346 42.0255 50.1906 42.2975C50.8466 42.5695 51.3906 42.9295 51.8226 43.3775C52.2706 43.8095 52.6066 44.2895 52.8306 44.8175C53.0706 45.3455 53.1906 45.8575 53.1906 46.3535C53.1906 47.2015 52.9826 47.8175 52.5666 48.2015C52.1666 48.5855 51.6626 48.7775 51.0546 48.7775H44.7186C44.7346 49.3215 44.9026 49.7935 45.2226 50.1935C45.5586 50.5935 45.9746 50.9055 46.4706 51.1295C46.9826 51.3375 47.5026 51.4415 48.0306 51.4415C48.4306 51.4415 48.7826 51.4175 49.0866 51.3695C49.4066 51.3215 49.6786 51.2655 49.9026 51.2015C50.1266 51.1215 50.3186 51.0415 50.4786 50.9615C50.6546 50.8815 50.8146 50.8095 50.9586 50.7455C51.1026 50.6815 51.2386 50.6415 51.3666 50.6255C51.5426 50.6095 51.7186 50.6495 51.8946 50.7455C52.0706 50.8415 52.2146 51.0095 52.3266 51.2495C52.4226 51.4095 52.4866 51.5615 52.5186 51.7055C52.5666 51.8335 52.5906 51.9615 52.5906 52.0895C52.5906 52.4095 52.3986 52.7135 52.0146 53.0015C51.6306 53.2735 51.0866 53.4975 50.3826 53.6735C49.6946 53.8655 48.8786 53.9615 47.9346 53.9615ZM44.7186 47.0735H49.6386C49.9106 47.0735 50.1186 47.0335 50.2626 46.9535C50.4066 46.8575 50.4786 46.6655 50.4786 46.3775C50.4786 46.0095 50.3666 45.6815 50.1426 45.3935C49.9186 45.0895 49.6146 44.8575 49.2306 44.6975C48.8466 44.5215 48.3986 44.4335 47.8866 44.4335C47.2946 44.4335 46.7586 44.5535 46.2786 44.7935C45.7986 45.0175 45.4146 45.3295 45.1266 45.7295C44.8546 46.1295 44.7186 46.5775 44.7186 47.0735ZM56.5761 53.7935C56.1441 53.7935 55.8241 53.7215 55.6161 53.5775C55.4241 53.4495 55.3041 53.2815 55.2561 53.0735C55.2081 52.8495 55.1841 52.6015 55.1841 52.3295V43.3535C55.1841 43.0975 55.2081 42.8655 55.2561 42.6575C55.3041 42.4495 55.4321 42.2895 55.6401 42.1775C55.8481 42.0495 56.1681 41.9855 56.6001 41.9855C56.9841 41.9855 57.2721 42.0335 57.4641 42.1295C57.6561 42.2255 57.7841 42.3455 57.8481 42.4895C57.9121 42.6335 57.9441 42.7775 57.9441 42.9215C57.9601 43.0655 57.9761 43.1775 57.9921 43.2575L57.8961 44.0255C57.9921 43.7695 58.1521 43.5215 58.3761 43.2815C58.6001 43.0415 58.8721 42.8255 59.1921 42.6335C59.5121 42.4255 59.8561 42.2655 60.2241 42.1535C60.6081 42.0255 61.0001 41.9615 61.4001 41.9615C62.1521 41.9615 62.8241 42.0975 63.4161 42.3695C64.0081 42.6415 64.5121 43.0255 64.9281 43.5215C65.3601 44.0175 65.6881 44.6095 65.9121 45.2975C66.1361 45.9695 66.2481 46.7295 66.2481 47.5775V52.3535C66.2481 52.6255 66.2161 52.8735 66.1521 53.0975C66.1041 53.3055 65.9841 53.4735 65.7921 53.6015C65.6001 53.7295 65.2721 53.7935 64.8081 53.7935C64.3601 53.7935 64.0321 53.7215 63.8241 53.5775C63.6161 53.4495 63.4881 53.2815 63.4401 53.0735C63.3921 52.8495 63.3681 52.6015 63.3681 52.3295V47.5535C63.3681 46.9775 63.2641 46.4815 63.0561 46.0655C62.8641 45.6495 62.5761 45.3295 62.1921 45.1055C61.8241 44.8815 61.3521 44.7695 60.7761 44.7695C60.2161 44.7695 59.7281 44.8895 59.3121 45.1295C58.8961 45.3535 58.5761 45.6735 58.3521 46.0895C58.1281 46.5055 58.0161 46.9935 58.0161 47.5535V52.3535C58.0161 52.6255 57.9921 52.8735 57.9441 53.0975C57.8961 53.3055 57.7681 53.4735 57.5601 53.6015C57.3681 53.7295 57.0401 53.7935 56.5761 53.7935ZM70.8392 58.5455C70.3272 58.3215 70.0312 58.0655 69.9512 57.7775C69.8712 57.5055 69.9432 57.1375 70.1672 56.6735L76.3592 42.8015C76.5832 42.2895 76.8232 41.9855 77.0792 41.8895C77.3352 41.7775 77.7272 41.8335 78.2552 42.0575C78.7512 42.2815 79.0392 42.5295 79.1192 42.8015C79.2152 43.0735 79.1592 43.4415 78.9512 43.9055L72.7112 57.8495C72.5032 58.3615 72.2712 58.6575 72.0152 58.7375C71.7592 58.8335 71.3672 58.7695 70.8392 58.5455ZM73.0712 52.6655L67.5272 44.1455C67.2392 43.7135 67.1192 43.3535 67.1672 43.0655C67.2312 42.7775 67.4872 42.4975 67.9352 42.2255C68.4312 41.9215 68.8152 41.8015 69.0872 41.8655C69.3752 41.9295 69.6632 42.1855 69.9512 42.6335L74.3432 49.4735L73.0712 52.6655ZM86.6065 53.9615C85.5665 53.9615 84.6545 53.7935 83.8705 53.4575C83.1025 53.1215 82.4545 52.6655 81.9265 52.0895C81.4145 51.4975 81.0225 50.8415 80.7505 50.1215C80.4945 49.3855 80.3665 48.6255 80.3665 47.8415C80.3665 46.6895 80.6305 45.6655 81.1585 44.7695C81.6865 43.8735 82.4145 43.1695 83.3425 42.6575C84.2865 42.1455 85.3665 41.8895 86.5825 41.8895C87.4465 41.8895 88.2065 42.0255 88.8625 42.2975C89.5185 42.5695 90.0625 42.9295 90.4945 43.3775C90.9425 43.8095 91.2785 44.2895 91.5025 44.8175C91.7425 45.3455 91.8625 45.8575 91.8625 46.3535C91.8625 47.2015 91.6545 47.8175 91.2385 48.2015C90.8385 48.5855 90.3345 48.7775 89.7265 48.7775H83.3905C83.4065 49.3215 83.5745 49.7935 83.8945 50.1935C84.2305 50.5935 84.6465 50.9055 85.1425 51.1295C85.6545 51.3375 86.1745 51.4415 86.7025 51.4415C87.1025 51.4415 87.4545 51.4175 87.7585 51.3695C88.0785 51.3215 88.3505 51.2655 88.5745 51.2015C88.7985 51.1215 88.9905 51.0415 89.1505 50.9615C89.3265 50.8815 89.4865 50.8095 89.6305 50.7455C89.7745 50.6815 89.9105 50.6415 90.0385 50.6255C90.2145 50.6095 90.3905 50.6495 90.5665 50.7455C90.7425 50.8415 90.8865 51.0095 90.9985 51.2495C91.0945 51.4095 91.1585 51.5615 91.1905 51.7055C91.2385 51.8335 91.2625 51.9615 91.2625 52.0895C91.2625 52.4095 91.0705 52.7135 90.6865 53.0015C90.3025 53.2735 89.7585 53.4975 89.0545 53.6735C88.3665 53.8655 87.5505 53.9615 86.6065 53.9615ZM83.3905 47.0735H88.3105C88.5825 47.0735 88.7905 47.0335 88.9345 46.9535C89.0785 46.8575 89.1505 46.6655 89.1505 46.3775C89.1505 46.0095 89.0385 45.6815 88.8145 45.3935C88.5905 45.0895 88.2865 44.8575 87.9025 44.6975C87.5185 44.5215 87.0705 44.4335 86.5585 44.4335C85.9665 44.4335 85.4305 44.5535 84.9505 44.7935C84.4705 45.0175 84.0865 45.3295 83.7985 45.7295C83.5265 46.1295 83.3905 46.5775 83.3905 47.0735ZM100 53.7935C99.216 53.7935 98.512 53.6415 97.888 53.3375C97.28 53.0175 96.76 52.5855 96.328 52.0415C95.912 51.4975 95.592 50.8735 95.368 50.1695C95.16 49.4495 95.056 48.6815 95.056 47.8655C95.072 47.0495 95.192 46.2895 95.416 45.5855C95.64 44.8655 95.96 44.2415 96.376 43.7135C96.808 43.1695 97.328 42.7455 97.936 42.4415C98.544 42.1375 99.232 41.9855 100 41.9855C100.736 41.9855 101.424 42.1375 102.064 42.4415C102.72 42.7455 103.296 43.1695 103.792 43.7135C104.304 44.2415 104.704 44.8655 104.992 45.5855C105.28 46.2895 105.424 47.0415 105.424 47.8415C105.424 48.6735 105.28 49.4575 104.992 50.1935C104.704 50.9135 104.312 51.5455 103.816 52.0895C103.32 52.6175 102.744 53.0335 102.088 53.3375C101.432 53.6415 100.736 53.7935 100 53.7935ZM99.616 50.9855C100.176 50.9855 100.68 50.8575 101.128 50.6015C101.576 50.3295 101.928 49.9615 102.184 49.4975C102.456 49.0335 102.592 48.5055 102.592 47.9135C102.592 47.3055 102.456 46.7695 102.184 46.3055C101.928 45.8255 101.576 45.4575 101.128 45.2015C100.68 44.9295 100.176 44.7935 99.616 44.7935C99.072 44.7935 98.576 44.9295 98.128 45.2015C97.68 45.4735 97.32 45.8415 97.048 46.3055C96.792 46.7695 96.664 47.3055 96.664 47.9135C96.664 48.5055 96.792 49.0335 97.048 49.4975C97.32 49.9615 97.68 50.3295 98.128 50.6015C98.576 50.8575 99.072 50.9855 99.616 50.9855ZM95.176 53.8175C94.744 53.8175 94.424 53.7455 94.216 53.6015C94.008 53.4735 93.88 53.3055 93.832 53.0975C93.784 52.8735 93.76 52.6255 93.76 52.3535V38.0495C93.76 37.7775 93.784 37.5375 93.832 37.3295C93.88 37.1055 94.008 36.9295 94.216 36.8015C94.424 36.6735 94.744 36.6095 95.176 36.6095C95.624 36.6095 95.944 36.6735 96.136 36.8015C96.328 36.9295 96.448 37.1055 96.496 37.3295C96.544 37.5535 96.568 37.7935 96.568 38.0495V52.8335C96.504 53.1855 96.368 53.4335 96.16 53.5775C95.968 53.7375 95.64 53.8175 95.176 53.8175ZM117.195 53.7695C116.731 53.7695 116.387 53.6815 116.163 53.5055C115.939 53.3295 115.827 53.0895 115.827 52.7855L115.995 51.9935C115.867 52.2015 115.651 52.4495 115.347 52.7375C115.043 53.0095 114.643 53.2575 114.147 53.4815C113.651 53.6895 113.051 53.7935 112.347 53.7935C111.595 53.7935 110.883 53.6415 110.211 53.3375C109.555 53.0175 108.971 52.5855 108.459 52.0415C107.963 51.4815 107.563 50.8495 107.259 50.1455C106.971 49.4255 106.827 48.6575 106.827 47.8415C106.827 47.0575 106.971 46.3215 107.259 45.6335C107.563 44.9295 107.971 44.3055 108.483 43.7615C108.995 43.2175 109.579 42.7935 110.235 42.4895C110.907 42.1695 111.611 42.0095 112.347 42.0095C113.003 42.0095 113.555 42.0975 114.003 42.2735C114.467 42.4495 114.859 42.6735 115.179 42.9455C115.499 43.2015 115.763 43.4735 115.971 43.7615L115.827 43.0655C115.827 42.7135 115.939 42.4495 116.163 42.2735C116.387 42.0815 116.739 41.9855 117.219 41.9855C117.667 41.9855 117.987 42.0575 118.179 42.2015C118.371 42.3295 118.491 42.5135 118.539 42.7535C118.587 42.9775 118.611 43.2335 118.611 43.5215V52.3055C118.611 52.5775 118.587 52.8255 118.539 53.0495C118.491 53.2735 118.363 53.4495 118.155 53.5775C117.963 53.7055 117.643 53.7695 117.195 53.7695ZM112.779 50.9855C113.323 50.9855 113.811 50.8495 114.243 50.5775C114.675 50.3055 115.019 49.9375 115.275 49.4735C115.547 48.9935 115.683 48.4655 115.683 47.8895C115.683 47.2655 115.547 46.7215 115.275 46.2575C115.003 45.7935 114.643 45.4335 114.195 45.1775C113.763 44.9055 113.275 44.7695 112.731 44.7695C112.139 44.7695 111.611 44.9135 111.147 45.2015C110.683 45.4735 110.315 45.8495 110.043 46.3295C109.787 46.7935 109.659 47.3215 109.659 47.9135C109.659 48.4895 109.795 49.0095 110.067 49.4735C110.339 49.9375 110.707 50.3055 111.171 50.5775C111.651 50.8495 112.187 50.9855 112.779 50.9855ZM127.187 53.7935C126.403 53.7935 125.699 53.6415 125.075 53.3375C124.467 53.0175 123.947 52.5855 123.515 52.0415C123.099 51.4975 122.779 50.8735 122.555 50.1695C122.347 49.4495 122.243 48.6815 122.243 47.8655C122.259 47.0495 122.379 46.2895 122.603 45.5855C122.827 44.8655 123.147 44.2415 123.563 43.7135C123.995 43.1695 124.515 42.7455 125.123 42.4415C125.731 42.1375 126.419 41.9855 127.187 41.9855C127.923 41.9855 128.611 42.1375 129.251 42.4415C129.907 42.7455 130.483 43.1695 130.979 43.7135C131.491 44.2415 131.891 44.8655 132.179 45.5855C132.467 46.2895 132.611 47.0415 132.611 47.8415C132.611 48.6735 132.467 49.4575 132.179 50.1935C131.891 50.9135 131.499 51.5455 131.003 52.0895C130.507 52.6175 129.931 53.0335 129.275 53.3375C128.619 53.6415 127.923 53.7935 127.187 53.7935ZM126.803 50.9855C127.363 50.9855 127.867 50.8575 128.315 50.6015C128.763 50.3295 129.115 49.9615 129.371 49.4975C129.643 49.0335 129.779 48.5055 129.779 47.9135C129.779 47.3055 129.643 46.7695 129.371 46.3055C129.115 45.8255 128.763 45.4575 128.315 45.2015C127.867 44.9295 127.363 44.7935 126.803 44.7935C126.259 44.7935 125.763 44.9295 125.315 45.2015C124.867 45.4735 124.507 45.8415 124.235 46.3055C123.979 46.7695 123.851 47.3055 123.851 47.9135C123.851 48.5055 123.979 49.0335 124.235 49.4975C124.507 49.9615 124.867 50.3295 125.315 50.6015C125.763 50.8575 126.259 50.9855 126.803 50.9855ZM122.363 53.8175C121.931 53.8175 121.611 53.7455 121.403 53.6015C121.195 53.4735 121.067 53.3055 121.019 53.0975C120.971 52.8735 120.947 52.6255 120.947 52.3535V38.0495C120.947 37.7775 120.971 37.5375 121.019 37.3295C121.067 37.1055 121.195 36.9295 121.403 36.8015C121.611 36.6735 121.931 36.6095 122.363 36.6095C122.811 36.6095 123.131 36.6735 123.323 36.8015C123.515 36.9295 123.635 37.1055 123.683 37.3295C123.731 37.5535 123.755 37.7935 123.755 38.0495V52.8335C123.691 53.1855 123.555 53.4335 123.347 53.5775C123.155 53.7375 122.827 53.8175 122.363 53.8175ZM146.802 53.6495C146.018 53.6495 145.314 53.5055 144.69 53.2175C144.082 52.9135 143.562 52.4975 143.13 51.9695C142.714 51.4255 142.394 50.8015 142.17 50.0975C141.962 49.3935 141.858 48.6335 141.858 47.8175C141.874 47.0015 141.994 46.2415 142.218 45.5375C142.442 44.8175 142.762 44.1935 143.178 43.6655C143.61 43.1375 144.13 42.7215 144.738 42.4175C145.346 42.1135 146.034 41.9615 146.802 41.9615C147.538 41.9615 148.226 42.1135 148.866 42.4175C149.522 42.7215 150.098 43.1455 150.594 43.6895C151.106 44.2335 151.506 44.8655 151.794 45.5855C152.082 46.2895 152.226 47.0495 152.226 47.8655C152.226 48.6975 152.082 49.4655 151.794 50.1695C151.506 50.8735 151.114 51.4895 150.618 52.0175C150.122 52.5295 149.546 52.9295 148.89 53.2175C148.234 53.5055 147.538 53.6495 146.802 53.6495ZM142.002 58.6415C141.57 58.6415 141.25 58.5775 141.042 58.4495C140.834 58.3215 140.706 58.1535 140.658 57.9455C140.61 57.7375 140.586 57.4975 140.586 57.2255V43.4255C140.586 43.1535 140.61 42.9135 140.658 42.7055C140.706 42.4975 140.826 42.3295 141.018 42.2015C141.226 42.0575 141.546 41.9855 141.978 41.9855C142.394 41.9855 142.722 42.0495 142.962 42.1775C143.202 42.3055 143.362 42.5215 143.442 42.8255V57.2015C143.458 57.4735 143.434 57.7135 143.37 57.9215C143.322 58.1455 143.194 58.3215 142.986 58.4495C142.778 58.5775 142.45 58.6415 142.002 58.6415ZM146.418 50.9615C146.978 50.9615 147.482 50.8335 147.93 50.5775C148.378 50.3055 148.73 49.9375 148.986 49.4735C149.258 48.9935 149.394 48.4575 149.394 47.8655C149.394 47.2575 149.258 46.7215 148.986 46.2575C148.73 45.7935 148.378 45.4335 147.93 45.1775C147.482 44.9055 146.978 44.7695 146.418 44.7695C145.874 44.7695 145.378 44.9055 144.93 45.1775C144.482 45.4495 144.122 45.8175 143.85 46.2815C143.594 46.7295 143.466 47.2575 143.466 47.8655C143.466 48.4575 143.594 48.9935 143.85 49.4735C144.122 49.9375 144.482 50.3055 144.93 50.5775C145.378 50.8335 145.874 50.9615 146.418 50.9615ZM159.966 53.9615C158.926 53.9615 158.014 53.7935 157.23 53.4575C156.462 53.1215 155.814 52.6655 155.286 52.0895C154.774 51.4975 154.382 50.8415 154.11 50.1215C153.854 49.3855 153.726 48.6255 153.726 47.8415C153.726 46.6895 153.99 45.6655 154.518 44.7695C155.046 43.8735 155.774 43.1695 156.702 42.6575C157.646 42.1455 158.726 41.8895 159.942 41.8895C160.806 41.8895 161.566 42.0255 162.222 42.2975C162.878 42.5695 163.422 42.9295 163.854 43.3775C164.302 43.8095 164.638 44.2895 164.862 44.8175C165.102 45.3455 165.222 45.8575 165.222 46.3535C165.222 47.2015 165.014 47.8175 164.598 48.2015C164.198 48.5855 163.694 48.7775 163.086 48.7775H156.75C156.766 49.3215 156.934 49.7935 157.254 50.1935C157.59 50.5935 158.006 50.9055 158.502 51.1295C159.014 51.3375 159.534 51.4415 160.062 51.4415C160.462 51.4415 160.814 51.4175 161.118 51.3695C161.438 51.3215 161.71 51.2655 161.934 51.2015C162.158 51.1215 162.35 51.0415 162.51 50.9615C162.686 50.8815 162.846 50.8095 162.99 50.7455C163.134 50.6815 163.27 50.6415 163.398 50.6255C163.574 50.6095 163.75 50.6495 163.926 50.7455C164.102 50.8415 164.246 51.0095 164.358 51.2495C164.454 51.4095 164.518 51.5615 164.55 51.7055C164.598 51.8335 164.622 51.9615 164.622 52.0895C164.622 52.4095 164.43 52.7135 164.046 53.0015C163.662 53.2735 163.118 53.4975 162.414 53.6735C161.726 53.8655 160.91 53.9615 159.966 53.9615ZM156.75 47.0735H161.67C161.942 47.0735 162.15 47.0335 162.294 46.9535C162.438 46.8575 162.51 46.6655 162.51 46.3775C162.51 46.0095 162.398 45.6815 162.174 45.3935C161.95 45.0895 161.646 44.8575 161.262 44.6975C160.878 44.5215 160.43 44.4335 159.918 44.4335C159.326 44.4335 158.79 44.5535 158.31 44.7935C157.83 45.0175 157.446 45.3295 157.158 45.7295C156.886 46.1295 156.75 46.5775 156.75 47.0735ZM168.607 53.8175C168.175 53.8175 167.855 53.7455 167.647 53.6015C167.455 53.4735 167.335 53.2975 167.287 53.0735C167.239 52.8495 167.215 52.6015 167.215 52.3295V43.4255C167.215 43.1375 167.239 42.8895 167.287 42.6815C167.335 42.4575 167.455 42.2895 167.647 42.1775C167.855 42.0495 168.183 41.9855 168.631 41.9855C169.063 41.9855 169.375 42.0415 169.567 42.1535C169.775 42.2655 169.903 42.4095 169.951 42.5855C170.015 42.7455 170.047 42.9055 170.047 43.0655L169.855 43.4975C169.935 43.3695 170.047 43.2175 170.191 43.0415C170.335 42.8495 170.527 42.6655 170.767 42.4895C171.007 42.2975 171.295 42.1455 171.631 42.0335C171.967 41.9055 172.367 41.8415 172.831 41.8415C173.023 41.8415 173.223 41.8655 173.431 41.9135C173.655 41.9455 173.871 42.0015 174.079 42.0815C174.303 42.1455 174.503 42.2335 174.679 42.3455C174.855 42.4575 174.991 42.5935 175.087 42.7535C175.183 42.8975 175.231 43.0655 175.231 43.2575C175.231 43.7695 175.103 44.2015 174.847 44.5535C174.591 44.9055 174.287 45.0815 173.935 45.0815C173.695 45.0815 173.519 45.0575 173.407 45.0095C173.295 44.9615 173.199 44.9055 173.119 44.8415C173.055 44.7775 172.951 44.7215 172.807 44.6735C172.679 44.6255 172.471 44.6015 172.183 44.6015C171.943 44.6015 171.695 44.6415 171.439 44.7215C171.199 44.8015 170.975 44.9215 170.767 45.0815C170.559 45.2415 170.391 45.4495 170.263 45.7055C170.135 45.9455 170.071 46.2255 170.071 46.5455V52.3775C170.071 52.6495 170.047 52.8975 169.999 53.1215C169.951 53.3295 169.823 53.4975 169.615 53.6255C169.407 53.7535 169.071 53.8175 168.607 53.8175ZM181.586 58.6175C181.01 58.6175 180.458 58.5455 179.93 58.4015C179.402 58.2735 178.922 58.0975 178.49 57.8735C178.074 57.6495 177.738 57.4095 177.482 57.1535C177.242 56.8975 177.122 56.6575 177.122 56.4335C177.122 56.2095 177.154 56.0175 177.218 55.8575C177.298 55.6975 177.41 55.5375 177.554 55.3775C177.746 55.1855 177.898 55.0415 178.01 54.9455C178.138 54.8495 178.306 54.8015 178.514 54.8015C178.69 54.8015 178.858 54.8655 179.018 54.9935C179.194 55.1215 179.394 55.2655 179.618 55.4255C179.842 55.5855 180.114 55.7295 180.434 55.8575C180.754 55.9855 181.162 56.0495 181.658 56.0495C182.074 56.0495 182.458 55.9775 182.81 55.8335C183.162 55.6895 183.458 55.4735 183.698 55.1855C183.954 54.9135 184.154 54.5855 184.298 54.2015C184.442 53.8175 184.514 53.3855 184.514 52.9055L184.49 42.9695C184.522 42.6015 184.65 42.3455 184.874 42.2015C185.098 42.0415 185.442 41.9615 185.906 41.9615C186.338 41.9615 186.65 42.0255 186.842 42.1535C187.034 42.2655 187.154 42.4335 187.202 42.6575C187.25 42.8655 187.274 43.0975 187.274 43.3535V53.0735C187.274 53.9535 187.122 54.7375 186.818 55.4255C186.514 56.1135 186.098 56.6895 185.57 57.1535C185.042 57.6335 184.434 57.9935 183.746 58.2335C183.074 58.4895 182.354 58.6175 181.586 58.6175ZM181.322 53.5055C180.57 53.5055 179.866 53.3615 179.21 53.0735C178.57 52.7855 178.002 52.3775 177.506 51.8495C177.026 51.3215 176.642 50.7135 176.354 50.0255C176.082 49.3215 175.946 48.5615 175.946 47.7455C175.946 46.9455 176.082 46.2015 176.354 45.5135C176.642 44.8255 177.026 44.2175 177.506 43.6895C178.002 43.1615 178.57 42.7535 179.21 42.4655C179.866 42.1615 180.562 42.0095 181.298 42.0095C182.018 42.0095 182.642 42.1535 183.17 42.4415C183.714 42.7135 184.162 43.1055 184.514 43.6175C184.866 44.1295 185.13 44.7375 185.306 45.4415C185.498 46.1455 185.594 46.9215 185.594 47.7695C185.594 48.9375 185.434 49.9535 185.114 50.8175C184.794 51.6815 184.322 52.3455 183.698 52.8095C183.074 53.2735 182.282 53.5055 181.322 53.5055ZM181.586 50.7935C182.13 50.7935 182.61 50.6655 183.026 50.4095C183.458 50.1375 183.794 49.7695 184.034 49.3055C184.29 48.8415 184.418 48.3215 184.418 47.7455C184.418 47.1535 184.29 46.6335 184.034 46.1855C183.794 45.7215 183.458 45.3615 183.026 45.1055C182.594 44.8495 182.106 44.7215 181.562 44.7215C181.018 44.7215 180.53 44.8575 180.098 45.1295C179.682 45.3855 179.354 45.7375 179.114 46.1855C178.874 46.6335 178.754 47.1535 178.754 47.7455C178.754 48.3375 178.874 48.8655 179.114 49.3295C179.37 49.7775 179.706 50.1375 180.122 50.4095C180.554 50.6655 181.042 50.7935 181.586 50.7935ZM199.438 53.7695C198.974 53.7695 198.63 53.6815 198.406 53.5055C198.182 53.3295 198.07 53.0895 198.07 52.7855L198.238 51.9935C198.11 52.2015 197.894 52.4495 197.59 52.7375C197.286 53.0095 196.886 53.2575 196.39 53.4815C195.894 53.6895 195.294 53.7935 194.59 53.7935C193.838 53.7935 193.126 53.6415 192.454 53.3375C191.798 53.0175 191.214 52.5855 190.702 52.0415C190.206 51.4815 189.806 50.8495 189.502 50.1455C189.214 49.4255 189.07 48.6575 189.07 47.8415C189.07 47.0575 189.214 46.3215 189.502 45.6335C189.806 44.9295 190.214 44.3055 190.726 43.7615C191.238 43.2175 191.822 42.7935 192.478 42.4895C193.15 42.1695 193.854 42.0095 194.59 42.0095C195.246 42.0095 195.798 42.0975 196.246 42.2735C196.71 42.4495 197.102 42.6735 197.422 42.9455C197.742 43.2015 198.006 43.4735 198.214 43.7615L198.07 43.0655C198.07 42.7135 198.182 42.4495 198.406 42.2735C198.63 42.0815 198.982 41.9855 199.462 41.9855C199.91 41.9855 200.23 42.0575 200.422 42.2015C200.614 42.3295 200.734 42.5135 200.782 42.7535C200.83 42.9775 200.854 43.2335 200.854 43.5215V52.3055C200.854 52.5775 200.83 52.8255 200.782 53.0495C200.734 53.2735 200.606 53.4495 200.398 53.5775C200.206 53.7055 199.886 53.7695 199.438 53.7695ZM195.022 50.9855C195.566 50.9855 196.054 50.8495 196.486 50.5775C196.918 50.3055 197.262 49.9375 197.518 49.4735C197.79 48.9935 197.926 48.4655 197.926 47.8895C197.926 47.2655 197.79 46.7215 197.518 46.2575C197.246 45.7935 196.886 45.4335 196.438 45.1775C196.006 44.9055 195.518 44.7695 194.974 44.7695C194.382 44.7695 193.854 44.9135 193.39 45.2015C192.926 45.4735 192.558 45.8495 192.286 46.3295C192.03 46.7935 191.902 47.3215 191.902 47.9135C191.902 48.4895 192.038 49.0095 192.31 49.4735C192.582 49.9375 192.95 50.3055 193.414 50.5775C193.894 50.8495 194.43 50.9855 195.022 50.9855ZM208.158 53.7935C207.422 53.7935 206.742 53.6655 206.118 53.4095C205.51 53.1375 204.974 52.7535 204.51 52.2575C204.046 51.7615 203.686 51.1695 203.43 50.4815C203.174 49.7935 203.046 49.0335 203.046 48.2015V43.4255C203.046 43.1535 203.07 42.9135 203.118 42.7055C203.166 42.4815 203.294 42.3055 203.502 42.1775C203.71 42.0495 204.03 41.9855 204.462 41.9855C204.926 41.9855 205.254 42.0495 205.446 42.1775C205.654 42.3055 205.782 42.4815 205.83 42.7055C205.878 42.9295 205.902 43.1775 205.902 43.4495V48.2015C205.902 48.7775 205.998 49.2735 206.19 49.6895C206.398 50.1055 206.694 50.4335 207.078 50.6735C207.462 50.8975 207.934 51.0095 208.494 51.0095C209.07 51.0095 209.558 50.8975 209.958 50.6735C210.374 50.4335 210.694 50.1055 210.918 49.6895C211.142 49.2575 211.254 48.7615 211.254 48.2015V43.4015C211.254 43.1295 211.278 42.8895 211.326 42.6815C211.374 42.4575 211.502 42.2895 211.71 42.1775C211.918 42.0495 212.246 41.9855 212.694 41.9855C213.142 41.9855 213.462 42.0495 213.654 42.1775C213.846 42.3055 213.966 42.4815 214.014 42.7055C214.078 42.9295 214.11 43.1695 214.11 43.4255V52.4255C214.11 52.6655 214.078 52.8895 214.014 53.0975C213.966 53.3055 213.838 53.4735 213.63 53.6015C213.438 53.7295 213.118 53.7935 212.67 53.7935C212.35 53.7935 212.094 53.7535 211.902 53.6735C211.726 53.6095 211.59 53.5215 211.494 53.4095C211.414 53.2815 211.358 53.1535 211.326 53.0255C211.31 52.8975 211.302 52.7695 211.302 52.6415L211.494 51.9935C211.398 52.1375 211.254 52.3135 211.062 52.5215C210.87 52.7135 210.63 52.9135 210.342 53.1215C210.07 53.3135 209.75 53.4735 209.382 53.6015C209.014 53.7295 208.606 53.7935 208.158 53.7935ZM220.608 53.8175C220.016 53.8175 219.488 53.7775 219.024 53.6975C218.576 53.6175 218.184 53.4815 217.848 53.2895C217.528 53.0975 217.264 52.8415 217.056 52.5215C216.848 52.1855 216.688 51.7775 216.576 51.2975C216.48 50.8175 216.432 50.2415 216.432 49.5695V38.0015C216.432 37.7295 216.456 37.4895 216.504 37.2815C216.568 37.0575 216.696 36.8815 216.888 36.7535C217.096 36.6095 217.424 36.5375 217.872 36.5375C218.32 36.5375 218.64 36.6015 218.832 36.7295C219.04 36.8575 219.168 37.0335 219.216 37.2575C219.28 37.4655 219.312 37.7055 219.312 37.9775V49.4495C219.312 49.7535 219.328 50.0095 219.36 50.2175C219.408 50.4095 219.48 50.5695 219.576 50.6975C219.688 50.8095 219.824 50.8895 219.984 50.9375C220.16 50.9855 220.368 51.0095 220.608 51.0095C220.816 51.0095 221 51.0335 221.16 51.0815C221.336 51.1295 221.472 51.2495 221.568 51.4415C221.68 51.6335 221.736 51.9455 221.736 52.3775C221.736 52.8255 221.68 53.1535 221.568 53.3615C221.472 53.5695 221.336 53.6975 221.16 53.7455C220.984 53.7935 220.8 53.8175 220.608 53.8175ZM233.305 53.7695C232.841 53.7695 232.497 53.6815 232.273 53.5055C232.049 53.3295 231.937 53.0895 231.937 52.7855L232.105 51.9935C231.977 52.2015 231.761 52.4495 231.457 52.7375C231.153 53.0095 230.753 53.2575 230.257 53.4815C229.761 53.6895 229.161 53.7935 228.457 53.7935C227.705 53.7935 226.993 53.6415 226.321 53.3375C225.665 53.0175 225.081 52.5855 224.569 52.0415C224.073 51.4815 223.673 50.8495 223.369 50.1455C223.081 49.4255 222.937 48.6575 222.937 47.8415C222.937 47.0575 223.081 46.3215 223.369 45.6335C223.673 44.9295 224.081 44.3055 224.593 43.7615C225.105 43.2175 225.689 42.7935 226.345 42.4895C227.017 42.1695 227.721 42.0095 228.457 42.0095C229.113 42.0095 229.665 42.0975 230.113 42.2735C230.577 42.4495 230.969 42.6735 231.289 42.9455C231.609 43.2015 231.873 43.4735 232.081 43.7615L231.937 43.0655C231.937 42.7135 232.049 42.4495 232.273 42.2735C232.497 42.0815 232.849 41.9855 233.329 41.9855C233.777 41.9855 234.097 42.0575 234.289 42.2015C234.481 42.3295 234.601 42.5135 234.649 42.7535C234.697 42.9775 234.721 43.2335 234.721 43.5215V52.3055C234.721 52.5775 234.697 52.8255 234.649 53.0495C234.601 53.2735 234.473 53.4495 234.265 53.5775C234.073 53.7055 233.753 53.7695 233.305 53.7695ZM228.889 50.9855C229.433 50.9855 229.921 50.8495 230.353 50.5775C230.785 50.3055 231.129 49.9375 231.385 49.4735C231.657 48.9935 231.793 48.4655 231.793 47.8895C231.793 47.2655 231.657 46.7215 231.385 46.2575C231.113 45.7935 230.753 45.4335 230.305 45.1775C229.873 44.9055 229.385 44.7695 228.841 44.7695C228.249 44.7695 227.721 44.9135 227.257 45.2015C226.793 45.4735 226.425 45.8495 226.153 46.3295C225.897 46.7935 225.769 47.3215 225.769 47.9135C225.769 48.4895 225.905 49.0095 226.177 49.4735C226.449 49.9375 226.817 50.3055 227.281 50.5775C227.761 50.8495 228.297 50.9855 228.889 50.9855ZM238.545 53.7935C238.113 53.7935 237.793 53.7215 237.585 53.5775C237.393 53.4495 237.273 53.2815 237.225 53.0735C237.177 52.8495 237.153 52.6015 237.153 52.3295V43.3535C237.153 43.0975 237.177 42.8655 237.225 42.6575C237.273 42.4495 237.401 42.2895 237.609 42.1775C237.817 42.0495 238.137 41.9855 238.569 41.9855C238.953 41.9855 239.241 42.0335 239.433 42.1295C239.625 42.2255 239.753 42.3455 239.817 42.4895C239.881 42.6335 239.913 42.7775 239.913 42.9215C239.929 43.0655 239.945 43.1775 239.961 43.2575L239.865 44.0255C239.961 43.7695 240.121 43.5215 240.345 43.2815C240.569 43.0415 240.841 42.8255 241.161 42.6335C241.481 42.4255 241.825 42.2655 242.193 42.1535C242.577 42.0255 242.969 41.9615 243.369 41.9615C244.121 41.9615 244.793 42.0975 245.385 42.3695C245.977 42.6415 246.481 43.0255 246.897 43.5215C247.329 44.0175 247.657 44.6095 247.881 45.2975C248.105 45.9695 248.217 46.7295 248.217 47.5775V52.3535C248.217 52.6255 248.185 52.8735 248.121 53.0975C248.073 53.3055 247.953 53.4735 247.761 53.6015C247.569 53.7295 247.241 53.7935 246.777 53.7935C246.329 53.7935 246.001 53.7215 245.793 53.5775C245.585 53.4495 245.457 53.2815 245.409 53.0735C245.361 52.8495 245.337 52.6015 245.337 52.3295V47.5535C245.337 46.9775 245.233 46.4815 245.025 46.0655C244.833 45.6495 244.545 45.3295 244.161 45.1055C243.793 44.8815 243.321 44.7695 242.745 44.7695C242.185 44.7695 241.697 44.8895 241.281 45.1295C240.865 45.3535 240.545 45.6735 240.321 46.0895C240.097 46.5055 239.985 46.9935 239.985 47.5535V52.3535C239.985 52.6255 239.961 52.8735 239.913 53.0975C239.865 53.3055 239.737 53.4735 239.529 53.6015C239.337 53.7295 239.009 53.7935 238.545 53.7935ZM256.656 56.2895C256.656 56.2895 256.624 56.2735 256.56 56.2415C256.496 56.2255 256.432 56.1615 256.368 56.0495C256.304 55.9535 256.272 55.7935 256.272 55.5695C256.272 55.2655 256.32 55.0655 256.416 54.9695C256.512 54.8895 256.576 54.8415 256.608 54.8255C256.624 54.8095 256.736 54.7135 256.944 54.5375C257.152 54.3775 257.272 54.0975 257.304 53.6975C257.144 53.6655 257 53.6255 256.872 53.5775C256.76 53.5135 256.664 53.4415 256.584 53.3615C256.424 53.2015 256.328 53.0175 256.296 52.8095C256.264 52.5855 256.248 52.3615 256.248 52.1375C256.248 51.7695 256.288 51.4655 256.368 51.2255C256.448 50.9855 256.6 50.8095 256.824 50.6975C257.064 50.5695 257.416 50.5055 257.88 50.5055C258.488 50.5055 258.92 50.6335 259.176 50.8895C259.32 51.0335 259.4 51.2175 259.416 51.4415C259.448 51.6655 259.464 51.8895 259.464 52.1135C259.464 52.2735 259.464 52.4095 259.464 52.5215C259.464 52.6175 259.456 52.7055 259.44 52.7855C259.376 53.4255 259.208 54.0095 258.936 54.5375C258.68 55.0655 258.352 55.4895 257.952 55.8095C257.568 56.1295 257.136 56.2895 256.656 56.2895ZM257.832 45.8735C257.224 45.8735 256.8 45.7535 256.56 45.5135C256.336 45.2575 256.224 44.8495 256.224 44.2895C256.224 43.8735 256.264 43.5455 256.344 43.3055C256.44 43.0655 256.608 42.8975 256.848 42.8015C257.104 42.6895 257.44 42.6335 257.856 42.6335C258.48 42.6335 258.904 42.7535 259.128 42.9935C259.352 43.2335 259.464 43.6575 259.464 44.2655C259.464 44.5535 259.432 44.8255 259.368 45.0815C259.304 45.3215 259.16 45.5135 258.936 45.6575C258.712 45.8015 258.344 45.8735 257.832 45.8735ZM269.108 53.7935C268.692 53.7935 268.38 53.7215 268.172 53.5775C267.964 53.4495 267.828 53.2735 267.764 53.0495C267.7 52.8255 267.668 52.5855 267.668 52.3295V38.4575C267.668 38.2015 267.692 37.9695 267.74 37.7615C267.804 37.5375 267.94 37.3615 268.148 37.2335C268.356 37.0895 268.684 37.0175 269.132 37.0175L273.644 37.0415C274.812 37.0415 275.884 37.2415 276.86 37.6415C277.852 38.0415 278.708 38.6095 279.428 39.3455C280.148 40.0815 280.7 40.9615 281.084 41.9855C281.484 42.9935 281.684 44.1055 281.684 45.3215C281.684 46.5695 281.484 47.7135 281.084 48.7535C280.684 49.7935 280.124 50.6895 279.404 51.4415C278.684 52.1935 277.828 52.7775 276.836 53.1935C275.86 53.5935 274.772 53.7935 273.572 53.7935H269.108ZM270.572 50.8895H273.644C274.668 50.8895 275.564 50.6655 276.332 50.2175C277.1 49.7535 277.692 49.1135 278.108 48.2975C278.54 47.4815 278.756 46.5295 278.756 45.4415C278.756 44.3375 278.54 43.3775 278.108 42.5615C277.692 41.7295 277.092 41.0895 276.308 40.6415C275.54 40.1775 274.644 39.9455 273.62 39.9455H270.572V50.8895ZM293.797 53.7695C293.333 53.7695 292.989 53.6815 292.765 53.5055C292.541 53.3295 292.429 53.0895 292.429 52.7855L292.597 51.9935C292.469 52.2015 292.253 52.4495 291.949 52.7375C291.645 53.0095 291.245 53.2575 290.749 53.4815C290.253 53.6895 289.653 53.7935 288.949 53.7935C288.197 53.7935 287.485 53.6415 286.813 53.3375C286.157 53.0175 285.573 52.5855 285.061 52.0415C284.565 51.4815 284.165 50.8495 283.861 50.1455C283.573 49.4255 283.429 48.6575 283.429 47.8415C283.429 47.0575 283.573 46.3215 283.861 45.6335C284.165 44.9295 284.573 44.3055 285.085 43.7615C285.597 43.2175 286.181 42.7935 286.837 42.4895C287.509 42.1695 288.213 42.0095 288.949 42.0095C289.605 42.0095 290.157 42.0975 290.605 42.2735C291.069 42.4495 291.461 42.6735 291.781 42.9455C292.101 43.2015 292.365 43.4735 292.573 43.7615L292.429 43.0655C292.429 42.7135 292.541 42.4495 292.765 42.2735C292.989 42.0815 293.341 41.9855 293.821 41.9855C294.269 41.9855 294.589 42.0575 294.781 42.2015C294.973 42.3295 295.093 42.5135 295.141 42.7535C295.189 42.9775 295.213 43.2335 295.213 43.5215V52.3055C295.213 52.5775 295.189 52.8255 295.141 53.0495C295.093 53.2735 294.965 53.4495 294.757 53.5775C294.565 53.7055 294.245 53.7695 293.797 53.7695ZM289.381 50.9855C289.925 50.9855 290.413 50.8495 290.845 50.5775C291.277 50.3055 291.621 49.9375 291.877 49.4735C292.149 48.9935 292.285 48.4655 292.285 47.8895C292.285 47.2655 292.149 46.7215 291.877 46.2575C291.605 45.7935 291.245 45.4335 290.797 45.1775C290.365 44.9055 289.877 44.7695 289.333 44.7695C288.741 44.7695 288.213 44.9135 287.749 45.2015C287.285 45.4735 286.917 45.8495 286.645 46.3295C286.389 46.7935 286.261 47.3215 286.261 47.9135C286.261 48.4895 286.397 49.0095 286.669 49.4735C286.941 49.9375 287.309 50.3055 287.773 50.5775C288.253 50.8495 288.789 50.9855 289.381 50.9855ZM299.013 53.7935C298.581 53.7935 298.261 53.7295 298.053 53.6015C297.861 53.4735 297.741 53.2975 297.693 53.0735C297.645 52.8495 297.621 52.6095 297.621 52.3535V43.3775C297.621 43.1215 297.645 42.8895 297.693 42.6815C297.741 42.4735 297.869 42.3055 298.077 42.1775C298.285 42.0495 298.613 41.9855 299.061 41.9855C299.525 41.9855 299.861 42.0815 300.069 42.2735C300.293 42.4655 300.405 42.7695 300.405 43.1855L300.189 43.8575C300.269 43.6815 300.405 43.4895 300.597 43.2815C300.789 43.0735 301.021 42.8655 301.293 42.6575C301.581 42.4495 301.901 42.2815 302.253 42.1535C302.605 42.0255 302.973 41.9615 303.357 41.9615C303.885 41.9615 304.365 42.0495 304.797 42.2255C305.245 42.4015 305.637 42.6575 305.973 42.9935C306.325 43.3295 306.629 43.7375 306.885 44.2175C307.157 43.8015 307.461 43.4255 307.797 43.0895C308.133 42.7375 308.525 42.4655 308.973 42.2735C309.421 42.0655 309.925 41.9615 310.485 41.9615C311.413 41.9615 312.189 42.1935 312.813 42.6575C313.453 43.1215 313.933 43.7855 314.253 44.6495C314.589 45.4975 314.757 46.5135 314.757 47.6975V52.3535C314.757 52.6255 314.725 52.8735 314.661 53.0975C314.613 53.3055 314.485 53.4735 314.277 53.6015C314.085 53.7295 313.765 53.7935 313.317 53.7935C312.869 53.7935 312.541 53.7215 312.333 53.5775C312.125 53.4495 311.997 53.2815 311.949 53.0735C311.901 52.8495 311.877 52.6015 311.877 52.3295V47.6735C311.877 47.0815 311.805 46.5695 311.661 46.1375C311.517 45.7055 311.301 45.3695 311.013 45.1295C310.741 44.8895 310.381 44.7695 309.933 44.7695C309.453 44.7695 309.037 44.8895 308.685 45.1295C308.349 45.3535 308.085 45.6815 307.893 46.1135C307.701 46.5455 307.605 47.0735 307.605 47.6975V52.3775C307.605 52.6495 307.565 52.9055 307.485 53.1455C307.405 53.3695 307.245 53.5375 307.005 53.6495C306.781 53.7775 306.453 53.8255 306.021 53.7935C305.621 53.7775 305.325 53.6975 305.133 53.5535C304.957 53.4095 304.845 53.2335 304.797 53.0255C304.765 52.8015 304.749 52.5695 304.749 52.3295V47.6735C304.749 47.0815 304.677 46.5695 304.533 46.1375C304.389 45.6895 304.173 45.3535 303.885 45.1295C303.613 44.8895 303.245 44.7695 302.781 44.7695C302.285 44.7695 301.861 44.8975 301.509 45.1535C301.173 45.4095 300.917 45.7535 300.741 46.1855C300.565 46.6175 300.477 47.1135 300.477 47.6735V52.3775C300.477 52.6335 300.445 52.8735 300.381 53.0975C300.333 53.3215 300.205 53.4895 299.997 53.6015C299.805 53.7295 299.477 53.7935 299.013 53.7935ZM323.24 53.6495C322.456 53.6495 321.752 53.5055 321.128 53.2175C320.52 52.9135 320 52.4975 319.568 51.9695C319.152 51.4255 318.832 50.8015 318.608 50.0975C318.4 49.3935 318.296 48.6335 318.296 47.8175C318.312 47.0015 318.432 46.2415 318.656 45.5375C318.88 44.8175 319.2 44.1935 319.616 43.6655C320.048 43.1375 320.568 42.7215 321.176 42.4175C321.784 42.1135 322.472 41.9615 323.24 41.9615C323.976 41.9615 324.664 42.1135 325.304 42.4175C325.96 42.7215 326.536 43.1455 327.032 43.6895C327.544 44.2335 327.944 44.8655 328.232 45.5855C328.52 46.2895 328.664 47.0495 328.664 47.8655C328.664 48.6975 328.52 49.4655 328.232 50.1695C327.944 50.8735 327.552 51.4895 327.056 52.0175C326.56 52.5295 325.984 52.9295 325.328 53.2175C324.672 53.5055 323.976 53.6495 323.24 53.6495ZM318.44 58.6415C318.008 58.6415 317.688 58.5775 317.48 58.4495C317.272 58.3215 317.144 58.1535 317.096 57.9455C317.048 57.7375 317.024 57.4975 317.024 57.2255V43.4255C317.024 43.1535 317.048 42.9135 317.096 42.7055C317.144 42.4975 317.264 42.3295 317.456 42.2015C317.664 42.0575 317.984 41.9855 318.416 41.9855C318.832 41.9855 319.16 42.0495 319.4 42.1775C319.64 42.3055 319.8 42.5215 319.88 42.8255V57.2015C319.896 57.4735 319.872 57.7135 319.808 57.9215C319.76 58.1455 319.632 58.3215 319.424 58.4495C319.216 58.5775 318.888 58.6415 318.44 58.6415ZM322.856 50.9615C323.416 50.9615 323.92 50.8335 324.368 50.5775C324.816 50.3055 325.168 49.9375 325.424 49.4735C325.696 48.9935 325.832 48.4575 325.832 47.8655C325.832 47.2575 325.696 46.7215 325.424 46.2575C325.168 45.7935 324.816 45.4335 324.368 45.1775C323.92 44.9055 323.416 44.7695 322.856 44.7695C322.312 44.7695 321.816 44.9055 321.368 45.1775C320.92 45.4495 320.56 45.8175 320.288 46.2815C320.032 46.7295 319.904 47.2575 319.904 47.8655C319.904 48.4575 320.032 48.9935 320.288 49.4735C320.56 49.9375 320.92 50.3055 321.368 50.5775C321.816 50.8335 322.312 50.9615 322.856 50.9615ZM340.531 53.7695C340.067 53.7695 339.723 53.6815 339.499 53.5055C339.275 53.3295 339.163 53.0895 339.163 52.7855L339.331 51.9935C339.203 52.2015 338.987 52.4495 338.683 52.7375C338.379 53.0095 337.979 53.2575 337.483 53.4815C336.987 53.6895 336.387 53.7935 335.683 53.7935C334.931 53.7935 334.219 53.6415 333.547 53.3375C332.891 53.0175 332.307 52.5855 331.795 52.0415C331.299 51.4815 330.899 50.8495 330.595 50.1455C330.307 49.4255 330.163 48.6575 330.163 47.8415C330.163 47.0575 330.307 46.3215 330.595 45.6335C330.899 44.9295 331.307 44.3055 331.819 43.7615C332.331 43.2175 332.915 42.7935 333.571 42.4895C334.243 42.1695 334.947 42.0095 335.683 42.0095C336.339 42.0095 336.891 42.0975 337.339 42.2735C337.803 42.4495 338.195 42.6735 338.515 42.9455C338.835 43.2015 339.099 43.4735 339.307 43.7615L339.163 43.0655C339.163 42.7135 339.275 42.4495 339.499 42.2735C339.723 42.0815 340.075 41.9855 340.555 41.9855C341.003 41.9855 341.323 42.0575 341.515 42.2015C341.707 42.3295 341.827 42.5135 341.875 42.7535C341.923 42.9775 341.947 43.2335 341.947 43.5215V52.3055C341.947 52.5775 341.923 52.8255 341.875 53.0495C341.827 53.2735 341.699 53.4495 341.491 53.5775C341.299 53.7055 340.979 53.7695 340.531 53.7695ZM336.115 50.9855C336.659 50.9855 337.147 50.8495 337.579 50.5775C338.011 50.3055 338.355 49.9375 338.611 49.4735C338.883 48.9935 339.019 48.4655 339.019 47.8895C339.019 47.2655 338.883 46.7215 338.611 46.2575C338.339 45.7935 337.979 45.4335 337.531 45.1775C337.099 44.9055 336.611 44.7695 336.067 44.7695C335.475 44.7695 334.947 44.9135 334.483 45.2015C334.019 45.4735 333.651 45.8495 333.379 46.3295C333.123 46.7935 332.995 47.3215 332.995 47.9135C332.995 48.4895 333.131 49.0095 333.403 49.4735C333.675 49.9375 334.043 50.3055 334.507 50.5775C334.987 50.8495 335.523 50.9855 336.115 50.9855ZM353.763 51.2255C354.179 51.5775 354.395 51.9055 354.411 52.2095C354.443 52.5135 354.283 52.8655 353.931 53.2655C353.659 53.5695 353.419 53.7695 353.211 53.8655C353.003 53.9615 352.795 53.9615 352.587 53.8655C352.379 53.7855 352.131 53.6255 351.843 53.3855L347.259 49.5215V52.3775C347.259 52.6335 347.227 52.8735 347.163 53.0975C347.115 53.3215 346.987 53.4975 346.779 53.6255C346.587 53.7535 346.267 53.8175 345.819 53.8175C345.371 53.8175 345.043 53.7455 344.835 53.6015C344.643 53.4735 344.523 53.2975 344.475 53.0735C344.427 52.8495 344.403 52.6095 344.403 52.3535V38.0255C344.403 37.7535 344.427 37.5135 344.475 37.3055C344.539 37.0815 344.667 36.9055 344.859 36.7775C345.067 36.6335 345.395 36.5615 345.843 36.5615C346.291 36.5615 346.611 36.6335 346.803 36.7775C346.995 36.9055 347.115 37.0815 347.163 37.3055C347.227 37.5135 347.259 37.7615 347.259 38.0495V45.9215L350.571 42.7055C350.827 42.4655 351.067 42.3055 351.291 42.2255C351.515 42.1295 351.731 42.1215 351.939 42.2015C352.163 42.2655 352.395 42.4335 352.635 42.7055C353.035 43.1375 353.227 43.4975 353.211 43.7855C353.195 44.0575 352.995 44.3855 352.611 44.7695L349.371 47.7695L353.763 51.2255ZM145.56 82.6495C144.776 82.6495 144.072 82.5055 143.448 82.2175C142.84 81.9135 142.32 81.4975 141.888 80.9695C141.472 80.4255 141.152 79.8015 140.928 79.0975C140.72 78.3935 140.616 77.6335 140.616 76.8175C140.632 76.0015 140.752 75.2415 140.976 74.5375C141.2 73.8175 141.52 73.1935 141.936 72.6655C142.368 72.1375 142.888 71.7215 143.496 71.4175C144.104 71.1135 144.792 70.9615 145.56 70.9615C146.296 70.9615 146.984 71.1135 147.624 71.4175C148.28 71.7215 148.856 72.1455 149.352 72.6895C149.864 73.2335 150.264 73.8655 150.552 74.5855C150.84 75.2895 150.984 76.0495 150.984 76.8655C150.984 77.6975 150.84 78.4655 150.552 79.1695C150.264 79.8735 149.872 80.4895 149.376 81.0175C148.88 81.5295 148.304 81.9295 147.648 82.2175C146.992 82.5055 146.296 82.6495 145.56 82.6495ZM140.76 87.6415C140.328 87.6415 140.008 87.5775 139.8 87.4495C139.592 87.3215 139.464 87.1535 139.416 86.9455C139.368 86.7375 139.344 86.4975 139.344 86.2255V72.4255C139.344 72.1535 139.368 71.9135 139.416 71.7055C139.464 71.4975 139.584 71.3295 139.776 71.2015C139.984 71.0575 140.304 70.9855 140.736 70.9855C141.152 70.9855 141.48 71.0495 141.72 71.1775C141.96 71.3055 142.12 71.5215 142.2 71.8255V86.2015C142.216 86.4735 142.192 86.7135 142.128 86.9215C142.08 87.1455 141.952 87.3215 141.744 87.4495C141.536 87.5775 141.208 87.6415 140.76 87.6415ZM145.176 79.9615C145.736 79.9615 146.24 79.8335 146.688 79.5775C147.136 79.3055 147.488 78.9375 147.744 78.4735C148.016 77.9935 148.152 77.4575 148.152 76.8655C148.152 76.2575 148.016 75.7215 147.744 75.2575C147.488 74.7935 147.136 74.4335 146.688 74.1775C146.24 73.9055 145.736 73.7695 145.176 73.7695C144.632 73.7695 144.136 73.9055 143.688 74.1775C143.24 74.4495 142.88 74.8175 142.608 75.2815C142.352 75.7295 142.224 76.2575 142.224 76.8655C142.224 77.4575 142.352 77.9935 142.608 78.4735C142.88 78.9375 143.24 79.3055 143.688 79.5775C144.136 79.8335 144.632 79.9615 145.176 79.9615ZM157.116 82.9615C156.7 82.9615 156.26 82.9135 155.796 82.8175C155.332 82.7375 154.884 82.6175 154.452 82.4575C154.02 82.2815 153.644 82.0815 153.324 81.8575C153.02 81.6175 152.828 81.3535 152.748 81.0655C152.684 80.9055 152.66 80.7535 152.676 80.6095C152.692 80.4495 152.74 80.2895 152.82 80.1295C152.9 79.9535 153.02 79.7775 153.18 79.6015C153.324 79.4255 153.468 79.3295 153.612 79.3135C153.772 79.2815 153.972 79.3295 154.212 79.4575C154.42 79.5375 154.644 79.6415 154.884 79.7695C155.14 79.8975 155.396 80.0255 155.652 80.1535C155.924 80.2815 156.196 80.3855 156.468 80.4655C156.756 80.5455 157.036 80.5855 157.308 80.5855C157.9 80.5855 158.372 80.4895 158.724 80.2975C159.076 80.0895 159.252 79.8015 159.252 79.4335C159.252 79.2255 159.196 79.0415 159.084 78.8815C158.972 78.7215 158.82 78.5935 158.628 78.4975C158.452 78.3855 158.236 78.2895 157.98 78.2095C157.74 78.1135 157.476 78.0335 157.188 77.9695C156.916 77.8895 156.628 77.8015 156.324 77.7055C155.924 77.5935 155.524 77.4575 155.124 77.2975C154.724 77.1375 154.364 76.9295 154.044 76.6735C153.74 76.4175 153.492 76.0975 153.3 75.7135C153.108 75.3295 153.012 74.8495 153.012 74.2735C153.012 73.5535 153.18 72.9455 153.516 72.4495C153.868 71.9375 154.372 71.5455 155.028 71.2735C155.684 71.0015 156.476 70.8655 157.404 70.8655C157.724 70.8655 158.028 70.8895 158.316 70.9375C158.62 70.9855 158.908 71.0575 159.18 71.1535C159.468 71.2335 159.74 71.3375 159.996 71.4655C160.268 71.5935 160.524 71.7375 160.764 71.8975C161.164 72.1215 161.372 72.3855 161.388 72.6895C161.404 72.9775 161.292 73.2895 161.052 73.6255C160.876 73.8495 160.7 74.0095 160.524 74.1055C160.348 74.1855 160.164 74.1855 159.972 74.1055C159.716 73.9775 159.436 73.8415 159.132 73.6975C158.844 73.5375 158.54 73.4015 158.22 73.2895C157.916 73.1775 157.596 73.1215 157.26 73.1215C156.94 73.1215 156.652 73.1695 156.396 73.2655C156.14 73.3615 155.948 73.4975 155.82 73.6735C155.692 73.8495 155.628 74.0575 155.628 74.2975C155.628 74.5215 155.692 74.7055 155.82 74.8495C155.948 74.9935 156.116 75.1135 156.324 75.2095C156.532 75.3055 156.78 75.3935 157.068 75.4735C157.356 75.5375 157.66 75.6015 157.98 75.6655C158.428 75.7615 158.884 75.8815 159.348 76.0255C159.812 76.1695 160.236 76.3695 160.62 76.6255C161.02 76.8815 161.34 77.2255 161.58 77.6575C161.82 78.0735 161.94 78.6175 161.94 79.2895C161.94 80.4575 161.508 81.3615 160.644 82.0015C159.796 82.6415 158.62 82.9615 157.116 82.9615ZM165.563 82.8175C165.131 82.8175 164.811 82.7455 164.603 82.6015C164.395 82.4735 164.267 82.3055 164.219 82.0975C164.171 81.8735 164.147 81.6255 164.147 81.3535V72.4255C164.147 72.1695 164.171 71.9375 164.219 71.7295C164.283 71.5055 164.411 71.3295 164.603 71.2015C164.811 71.0735 165.139 71.0095 165.587 71.0095C166.035 71.0095 166.355 71.0735 166.547 71.2015C166.755 71.3295 166.883 71.5055 166.931 71.7295C166.979 71.9535 167.003 72.2015 167.003 72.4735V81.3775C167.003 81.6495 166.979 81.8975 166.931 82.1215C166.883 82.3295 166.755 82.4975 166.547 82.6255C166.355 82.7535 166.027 82.8175 165.563 82.8175ZM165.563 68.6815C165.099 68.6815 164.755 68.6175 164.531 68.4895C164.323 68.3455 164.187 68.1535 164.123 67.9135C164.075 67.6735 164.051 67.4095 164.051 67.1215C164.051 66.8175 164.075 66.5535 164.123 66.3295C164.187 66.1055 164.331 65.9295 164.555 65.8015C164.779 65.6575 165.123 65.5855 165.587 65.5855C166.067 65.5855 166.411 65.6575 166.619 65.8015C166.827 65.9455 166.963 66.1375 167.027 66.3775C167.091 66.6015 167.123 66.8655 167.123 67.1695C167.123 67.4415 167.091 67.6975 167.027 67.9375C166.963 68.1775 166.827 68.3615 166.619 68.4895C166.411 68.6175 166.059 68.6815 165.563 68.6815ZM179.037 80.2255C179.453 80.5775 179.669 80.9055 179.685 81.2095C179.717 81.5135 179.557 81.8655 179.205 82.2655C178.933 82.5695 178.693 82.7695 178.485 82.8655C178.277 82.9615 178.069 82.9615 177.861 82.8655C177.653 82.7855 177.405 82.6255 177.117 82.3855L172.533 78.5215V81.3775C172.533 81.6335 172.501 81.8735 172.437 82.0975C172.389 82.3215 172.261 82.4975 172.053 82.6255C171.861 82.7535 171.541 82.8175 171.093 82.8175C170.645 82.8175 170.317 82.7455 170.109 82.6015C169.917 82.4735 169.797 82.2975 169.749 82.0735C169.701 81.8495 169.677 81.6095 169.677 81.3535V67.0255C169.677 66.7535 169.701 66.5135 169.749 66.3055C169.813 66.0815 169.941 65.9055 170.133 65.7775C170.341 65.6335 170.669 65.5615 171.117 65.5615C171.565 65.5615 171.885 65.6335 172.077 65.7775C172.269 65.9055 172.389 66.0815 172.437 66.3055C172.501 66.5135 172.533 66.7615 172.533 67.0495V74.9215L175.845 71.7055C176.101 71.4655 176.341 71.3055 176.565 71.2255C176.789 71.1295 177.005 71.1215 177.213 71.2015C177.437 71.2655 177.669 71.4335 177.909 71.7055C178.309 72.1375 178.501 72.4975 178.485 72.7855C178.469 73.0575 178.269 73.3855 177.885 73.7695L174.645 76.7695L179.037 80.2255ZM186.352 82.9615C185.584 82.9615 184.832 82.8175 184.096 82.5295C183.376 82.2255 182.72 81.8015 182.128 81.2575C181.552 80.7135 181.088 80.0735 180.736 79.3375C180.4 78.6015 180.232 77.7935 180.232 76.9135C180.232 76.0655 180.392 75.2735 180.712 74.5375C181.032 73.8015 181.472 73.1535 182.032 72.5935C182.592 72.0335 183.232 71.6015 183.952 71.2975C184.688 70.9775 185.472 70.8175 186.304 70.8175C187.424 70.8175 188.44 71.0895 189.352 71.6335C190.264 72.1615 190.992 72.8815 191.536 73.7935C192.08 74.7055 192.352 75.7375 192.352 76.8895C192.352 77.8015 192.184 78.6335 191.848 79.3855C191.512 80.1215 191.056 80.7615 190.48 81.3055C189.904 81.8335 189.256 82.2415 188.536 82.5295C187.832 82.8175 187.104 82.9615 186.352 82.9615ZM186.304 80.1295C186.832 80.1295 187.336 80.0015 187.816 79.7455C188.312 79.4735 188.712 79.0895 189.016 78.5935C189.336 78.0975 189.496 77.5135 189.496 76.8415C189.496 76.2175 189.352 75.6655 189.064 75.1855C188.792 74.7055 188.416 74.3295 187.936 74.0575C187.456 73.7855 186.904 73.6495 186.28 73.6495C185.688 73.6495 185.152 73.7935 184.672 74.0815C184.192 74.3535 183.808 74.7375 183.52 75.2335C183.248 75.7135 183.112 76.2575 183.112 76.8655C183.112 77.5375 183.264 78.1215 183.568 78.6175C183.872 79.0975 184.264 79.4735 184.744 79.7455C185.24 80.0015 185.76 80.1295 186.304 80.1295ZM198.366 82.8175C197.774 82.8175 197.246 82.7775 196.782 82.6975C196.334 82.6175 195.942 82.4815 195.606 82.2895C195.286 82.0975 195.022 81.8415 194.814 81.5215C194.606 81.1855 194.446 80.7775 194.334 80.2975C194.238 79.8175 194.19 79.2415 194.19 78.5695V67.0015C194.19 66.7295 194.214 66.4895 194.262 66.2815C194.326 66.0575 194.454 65.8815 194.646 65.7535C194.854 65.6095 195.182 65.5375 195.63 65.5375C196.078 65.5375 196.398 65.6015 196.59 65.7295C196.798 65.8575 196.926 66.0335 196.974 66.2575C197.038 66.4655 197.07 66.7055 197.07 66.9775V78.4495C197.07 78.7535 197.086 79.0095 197.118 79.2175C197.166 79.4095 197.238 79.5695 197.334 79.6975C197.446 79.8095 197.582 79.8895 197.742 79.9375C197.918 79.9855 198.126 80.0095 198.366 80.0095C198.574 80.0095 198.758 80.0335 198.918 80.0815C199.094 80.1295 199.23 80.2495 199.326 80.4415C199.438 80.6335 199.494 80.9455 199.494 81.3775C199.494 81.8255 199.438 82.1535 199.326 82.3615C199.23 82.5695 199.094 82.6975 198.918 82.7455C198.742 82.7935 198.558 82.8175 198.366 82.8175ZM206.743 82.9615C205.975 82.9615 205.223 82.8175 204.487 82.5295C203.767 82.2255 203.111 81.8015 202.519 81.2575C201.943 80.7135 201.479 80.0735 201.127 79.3375C200.791 78.6015 200.623 77.7935 200.623 76.9135C200.623 76.0655 200.783 75.2735 201.103 74.5375C201.423 73.8015 201.863 73.1535 202.423 72.5935C202.983 72.0335 203.623 71.6015 204.343 71.2975C205.079 70.9775 205.863 70.8175 206.695 70.8175C207.815 70.8175 208.831 71.0895 209.743 71.6335C210.655 72.1615 211.383 72.8815 211.927 73.7935C212.471 74.7055 212.743 75.7375 212.743 76.8895C212.743 77.8015 212.575 78.6335 212.239 79.3855C211.903 80.1215 211.447 80.7615 210.871 81.3055C210.295 81.8335 209.647 82.2415 208.927 82.5295C208.223 82.8175 207.495 82.9615 206.743 82.9615ZM206.695 80.1295C207.223 80.1295 207.727 80.0015 208.207 79.7455C208.703 79.4735 209.103 79.0895 209.407 78.5935C209.727 78.0975 209.887 77.5135 209.887 76.8415C209.887 76.2175 209.743 75.6655 209.455 75.1855C209.183 74.7055 208.807 74.3295 208.327 74.0575C207.847 73.7855 207.295 73.6495 206.671 73.6495C206.079 73.6495 205.543 73.7935 205.063 74.0815C204.583 74.3535 204.199 74.7375 203.911 75.2335C203.639 75.7135 203.503 76.2575 203.503 76.8655C203.503 77.5375 203.655 78.1215 203.959 78.6175C204.263 79.0975 204.655 79.4735 205.135 79.7455C205.631 80.0015 206.151 80.1295 206.695 80.1295ZM219.789 87.6175C219.213 87.6175 218.661 87.5455 218.133 87.4015C217.605 87.2735 217.125 87.0975 216.693 86.8735C216.277 86.6495 215.941 86.4095 215.685 86.1535C215.445 85.8975 215.325 85.6575 215.325 85.4335C215.325 85.2095 215.357 85.0175 215.421 84.8575C215.501 84.6975 215.613 84.5375 215.757 84.3775C215.949 84.1855 216.101 84.0415 216.213 83.9455C216.341 83.8495 216.509 83.8015 216.717 83.8015C216.893 83.8015 217.061 83.8655 217.221 83.9935C217.397 84.1215 217.597 84.2655 217.821 84.4255C218.045 84.5855 218.317 84.7295 218.637 84.8575C218.957 84.9855 219.365 85.0495 219.861 85.0495C220.277 85.0495 220.661 84.9775 221.013 84.8335C221.365 84.6895 221.661 84.4735 221.901 84.1855C222.157 83.9135 222.357 83.5855 222.501 83.2015C222.645 82.8175 222.717 82.3855 222.717 81.9055L222.693 71.9695C222.725 71.6015 222.853 71.3455 223.077 71.2015C223.301 71.0415 223.645 70.9615 224.109 70.9615C224.541 70.9615 224.853 71.0255 225.045 71.1535C225.237 71.2655 225.357 71.4335 225.405 71.6575C225.453 71.8655 225.477 72.0975 225.477 72.3535V82.0735C225.477 82.9535 225.325 83.7375 225.021 84.4255C224.717 85.1135 224.301 85.6895 223.773 86.1535C223.245 86.6335 222.637 86.9935 221.949 87.2335C221.277 87.4895 220.557 87.6175 219.789 87.6175ZM219.525 82.5055C218.773 82.5055 218.069 82.3615 217.413 82.0735C216.773 81.7855 216.205 81.3775 215.709 80.8495C215.229 80.3215 214.845 79.7135 214.557 79.0255C214.285 78.3215 214.149 77.5615 214.149 76.7455C214.149 75.9455 214.285 75.2015 214.557 74.5135C214.845 73.8255 215.229 73.2175 215.709 72.6895C216.205 72.1615 216.773 71.7535 217.413 71.4655C218.069 71.1615 218.765 71.0095 219.501 71.0095C220.221 71.0095 220.845 71.1535 221.373 71.4415C221.917 71.7135 222.365 72.1055 222.717 72.6175C223.069 73.1295 223.333 73.7375 223.509 74.4415C223.701 75.1455 223.797 75.9215 223.797 76.7695C223.797 77.9375 223.637 78.9535 223.317 79.8175C222.997 80.6815 222.525 81.3455 221.901 81.8095C221.277 82.2735 220.485 82.5055 219.525 82.5055ZM219.789 79.7935C220.333 79.7935 220.813 79.6655 221.229 79.4095C221.661 79.1375 221.997 78.7695 222.237 78.3055C222.493 77.8415 222.621 77.3215 222.621 76.7455C222.621 76.1535 222.493 75.6335 222.237 75.1855C221.997 74.7215 221.661 74.3615 221.229 74.1055C220.797 73.8495 220.309 73.7215 219.765 73.7215C219.221 73.7215 218.733 73.8575 218.301 74.1295C217.885 74.3855 217.557 74.7375 217.317 75.1855C217.077 75.6335 216.957 76.1535 216.957 76.7455C216.957 77.3375 217.077 77.8655 217.317 78.3295C217.573 78.7775 217.909 79.1375 218.325 79.4095C218.757 79.6655 219.245 79.7935 219.789 79.7935ZM229.571 82.8175C229.139 82.8175 228.819 82.7455 228.611 82.6015C228.403 82.4735 228.275 82.3055 228.227 82.0975C228.179 81.8735 228.155 81.6255 228.155 81.3535V72.4255C228.155 72.1695 228.179 71.9375 228.227 71.7295C228.291 71.5055 228.419 71.3295 228.611 71.2015C228.819 71.0735 229.147 71.0095 229.595 71.0095C230.043 71.0095 230.363 71.0735 230.555 71.2015C230.763 71.3295 230.891 71.5055 230.939 71.7295C230.987 71.9535 231.011 72.2015 231.011 72.4735V81.3775C231.011 81.6495 230.987 81.8975 230.939 82.1215C230.891 82.3295 230.763 82.4975 230.555 82.6255C230.363 82.7535 230.035 82.8175 229.571 82.8175ZM229.571 68.6815C229.107 68.6815 228.763 68.6175 228.539 68.4895C228.331 68.3455 228.195 68.1535 228.131 67.9135C228.083 67.6735 228.059 67.4095 228.059 67.1215C228.059 66.8175 228.083 66.5535 228.131 66.3295C228.195 66.1055 228.339 65.9295 228.563 65.8015C228.787 65.6575 229.131 65.5855 229.595 65.5855C230.075 65.5855 230.419 65.6575 230.627 65.8015C230.835 65.9455 230.971 66.1375 231.035 66.3775C231.099 66.6015 231.131 66.8655 231.131 67.1695C231.131 67.4415 231.099 67.6975 231.035 67.9375C230.971 68.1775 230.835 68.3615 230.627 68.4895C230.419 68.6175 230.067 68.6815 229.571 68.6815ZM237.741 82.9615C237.325 82.9615 236.885 82.9135 236.421 82.8175C235.957 82.7375 235.509 82.6175 235.077 82.4575C234.645 82.2815 234.269 82.0815 233.949 81.8575C233.645 81.6175 233.453 81.3535 233.373 81.0655C233.309 80.9055 233.285 80.7535 233.301 80.6095C233.317 80.4495 233.365 80.2895 233.445 80.1295C233.525 79.9535 233.645 79.7775 233.805 79.6015C233.949 79.4255 234.093 79.3295 234.237 79.3135C234.397 79.2815 234.597 79.3295 234.837 79.4575C235.045 79.5375 235.269 79.6415 235.509 79.7695C235.765 79.8975 236.021 80.0255 236.277 80.1535C236.549 80.2815 236.821 80.3855 237.093 80.4655C237.381 80.5455 237.661 80.5855 237.933 80.5855C238.525 80.5855 238.997 80.4895 239.349 80.2975C239.701 80.0895 239.877 79.8015 239.877 79.4335C239.877 79.2255 239.821 79.0415 239.709 78.8815C239.597 78.7215 239.445 78.5935 239.253 78.4975C239.077 78.3855 238.861 78.2895 238.605 78.2095C238.365 78.1135 238.101 78.0335 237.813 77.9695C237.541 77.8895 237.253 77.8015 236.949 77.7055C236.549 77.5935 236.149 77.4575 235.749 77.2975C235.349 77.1375 234.989 76.9295 234.669 76.6735C234.365 76.4175 234.117 76.0975 233.925 75.7135C233.733 75.3295 233.637 74.8495 233.637 74.2735C233.637 73.5535 233.805 72.9455 234.141 72.4495C234.493 71.9375 234.997 71.5455 235.653 71.2735C236.309 71.0015 237.101 70.8655 238.029 70.8655C238.349 70.8655 238.653 70.8895 238.941 70.9375C239.245 70.9855 239.533 71.0575 239.805 71.1535C240.093 71.2335 240.365 71.3375 240.621 71.4655C240.893 71.5935 241.149 71.7375 241.389 71.8975C241.789 72.1215 241.997 72.3855 242.013 72.6895C242.029 72.9775 241.917 73.2895 241.677 73.6255C241.501 73.8495 241.325 74.0095 241.149 74.1055C240.973 74.1855 240.789 74.1855 240.597 74.1055C240.341 73.9775 240.061 73.8415 239.757 73.6975C239.469 73.5375 239.165 73.4015 238.845 73.2895C238.541 73.1775 238.221 73.1215 237.885 73.1215C237.565 73.1215 237.277 73.1695 237.021 73.2655C236.765 73.3615 236.573 73.4975 236.445 73.6735C236.317 73.8495 236.253 74.0575 236.253 74.2975C236.253 74.5215 236.317 74.7055 236.445 74.8495C236.573 74.9935 236.741 75.1135 236.949 75.2095C237.157 75.3055 237.405 75.3935 237.693 75.4735C237.981 75.5375 238.285 75.6015 238.605 75.6655C239.053 75.7615 239.509 75.8815 239.973 76.0255C240.437 76.1695 240.861 76.3695 241.245 76.6255C241.645 76.8815 241.965 77.2255 242.205 77.6575C242.445 78.0735 242.565 78.6175 242.565 79.2895C242.565 80.4575 242.133 81.3615 241.269 82.0015C240.421 82.6415 239.245 82.9615 237.741 82.9615Z" fill="black"/>
</svg>
