<svg width="400" height="120" viewBox="0 0 400 120" fill="none" xmlns="http://www.w3.org/2000/svg">
<mask id="mask0_62_2324" style="mask-type:luminance" maskUnits="userSpaceOnUse" x="0" y="0" width="400" height="120">
<path d="M400 0H0V120H400V0Z" fill="white"/>
</mask>
<g mask="url(#mask0_62_2324)">
<mask id="mask1_62_2324" style="mask-type:luminance" maskUnits="userSpaceOnUse" x="9" y="9" width="388" height="111">
<path d="M9.33838 9.33313H396.887V119.354H9.33838V9.33313Z" fill="white"/>
</mask>
<g mask="url(#mask1_62_2324)">
<path d="M15.7893 72.3852L12.3967 62.3592L17.7895 51.8748L13.0351 41.3956L9.77637 30.9113L12.1049 19.354L26.2586 18.2342L39.1781 15.5935L52.3408 21.4738L65.1144 13.7498L78.3379 21.7081L91.227 17.9633L104.365 22.9008L117.358 22.6769L130.405 24.3435L143.318 21.4217L155.618 17.1092L167.972 14.5623L180.326 12.0988L192.783 13.2133L205.32 17.1248L217.838 20.3435L230.253 20.0727L242.4 10.3071L255.065 18.6873L267.504 19.1717L279.742 12.479L292.084 9.53625L304.906 12.906L318.191 14.7654L328.447 23.3956L341.367 25.406L352.316 32.3383L368.294 26.7081L380.204 31.2238L396.346 37.1769L387.476 50.3383L387.16 62.0935L374.362 69.8592L369.875 80.281L373.796 93.3956L367.571 103.265L364.391 115.974L345.854 109.745L333.335 117.432L320.227 109.989L307.782 119.823L294.632 110.969L281.864 112.432L269.005 111.359L256.445 118.932L243.556 117.01L230.824 121.224L218.355 114.521L205.223 119.724L193.081 116.047L180.727 115.328L168.306 115.838L155.904 115.969L143.829 110.541L131.396 111.203L119.346 105.146L106.274 116.76L94.5648 104.833L81.5602 115.427L69.6377 107.245L57.5025 102.453L44.6438 110.724L27.2618 111.552L29.4687 98.1404L22.7931 90.229L11.0106 83.5779L15.7893 72.3852Z" fill="black"/>
<path d="M15.7893 72.3852L12.3967 62.3592L17.7895 51.8748L13.0351 41.3956L9.77637 30.9113L12.1049 19.354L26.2586 18.2342L39.1781 15.5935L52.3408 21.4738L65.1144 13.7498L78.3379 21.7081L91.227 17.9633L104.365 22.9008L117.358 22.6769L130.405 24.3435L143.318 21.4217L155.618 17.1092L167.972 14.5623L180.326 12.0988L192.783 13.2133L205.32 17.1248L217.838 20.3435L230.253 20.0727L242.4 10.3071L255.065 18.6873L267.504 19.1717L279.742 12.479L292.084 9.53625L304.906 12.906L318.191 14.7654L328.447 23.3956L341.367 25.406L352.316 32.3383L368.294 26.7081L380.204 31.2238L396.346 37.1769L387.476 50.3383L387.16 62.0935L374.362 69.8592L369.875 80.281L373.796 93.3956L367.571 103.265L364.391 115.974L345.854 109.745L333.335 117.432L320.227 109.989L307.782 119.823L294.632 110.969L281.864 112.432L269.005 111.359L256.445 118.932L243.556 117.01L230.824 121.224L218.355 114.521L205.223 119.724L193.081 116.047L180.727 115.328L168.306 115.838L155.904 115.969L143.829 110.541L131.396 111.203L119.346 105.146L106.274 116.76L94.5648 104.833L81.5602 115.427L69.6377 107.245L57.5025 102.453L44.6438 110.724L27.2618 111.552L29.4687 98.1404L22.7931 90.229L11.0106 83.5779L15.7893 72.3852Z" fill="black"/>
</g>
<mask id="mask2_62_2324" style="mask-type:luminance" maskUnits="userSpaceOnUse" x="7" y="7" width="391" height="113">
<path d="M7.78223 7.99976H397.586V119.354H7.78223V7.99976Z" fill="white"/>
</mask>
<g mask="url(#mask2_62_2324)">
<path d="M230.739 121.984L218.3 115.307L205.265 120.474L192.917 116.734L180.721 115.989L168.343 116.495L155.715 116.63L143.653 111.203L131.208 111.885L119.486 105.995L106.238 117.765L94.504 105.812L81.6088 116.328L69.2061 107.849L57.6059 103.26L44.9113 111.401L26.3133 112.286L28.6358 98.3488L22.1973 90.7238L10.0499 83.8488L14.9563 72.3644L11.5577 62.3123L16.9322 51.854L12.263 41.5727L8.95557 30.9425L11.424 18.729L26.1674 17.5571L39.2814 14.9008L52.2739 20.7029L65.1144 12.9165L78.4655 20.9529L91.2635 17.229L104.523 22.2133L117.406 21.9894L130.356 23.656L143.051 20.7758L155.423 16.4425L167.765 13.8956L180.259 11.4165L193.039 12.5727L205.569 16.4842L217.941 19.6508L229.931 19.3956L242.346 9.40605L255.356 18.0102L267.261 18.4685L279.384 11.8488L292.078 8.8175L305.077 12.2081L318.562 14.0935L328.83 22.729L341.683 24.7238L352.414 31.5102L368.282 25.9217L380.514 30.5519L397.483 36.8488L388.272 50.5258L387.962 62.4529L375.03 70.2967L370.714 80.3227L374.678 93.4842L368.331 103.505L364.95 116.906L345.951 110.515L333.335 118.26L320.294 110.854L307.825 120.739L294.413 111.703L281.882 113.146L269.188 112.078L256.627 119.651L243.635 117.719L230.739 121.984ZM218.416 113.75L230.916 120.463L243.47 116.307L256.256 118.213L268.793 110.656L281.852 111.755L294.857 110.255L307.74 118.932L320.148 109.13L333.317 116.594L345.744 108.969L363.801 115.031L366.817 103.015L372.951 93.2967L369.048 80.2342L373.681 69.4269L386.375 61.7133L386.685 50.1821L395.215 37.4946L379.894 31.8644L368.276 27.4581L352.201 33.1248L341.039 26.0467L328.064 24.0154L317.808 15.3956L304.651 13.5467L292.054 10.229L280.058 13.1092L267.704 19.8956L254.761 19.3956L242.437 11.2498L230.533 20.7915L217.68 21.0779L205.04 17.8279L192.601 13.8852L180.375 12.7915L168.185 15.229L155.867 17.7498L143.525 22.0779L130.454 25.0363L117.303 23.354L104.207 23.5883L91.227 18.6925L78.2163 22.4685L65.1144 14.5779L52.4198 22.2706L39.093 16.3123L26.3315 18.906L12.7858 19.9842L10.5849 30.88L13.7951 41.1821L18.6528 51.8904L13.2479 62.3904L16.6465 72.4113L11.9954 83.3071L23.3707 89.7238L30.3138 97.9685L28.198 110.823L44.3763 110.057L57.4235 101.666L70.118 106.708L81.5115 114.521L94.6195 103.844L106.299 115.745L119.194 104.286L131.572 110.515L143.987 109.833L156.08 115.26L168.282 115.135L180.721 114.62L193.227 115.349L205.125 118.958L218.416 113.75Z" fill="black"/>
</g>
<mask id="mask3_62_2324" style="mask-type:luminance" maskUnits="userSpaceOnUse" x="3" y="1" width="388" height="113">
<path d="M3.11279 1.08313H390.661V113.333H3.11279V1.08313Z" fill="white"/>
</mask>
<g mask="url(#mask3_62_2324)">
<path d="M9.78237 63.3953L6.39594 53.3641L11.7826 42.8797L7.02824 32.4005L3.75732 21.9161L6.09804 10.3641L20.2457 9.23906L33.1712 6.60364L46.3339 12.4786L59.1075 4.75468L72.3249 12.7182L85.2201 8.96301L98.3585 13.9109L111.345 13.6818L124.398 15.3588L137.312 12.4318L149.611 8.10885L161.965 5.56718L174.319 3.10885L186.777 4.22343L199.313 8.12968L211.825 11.3484L224.246 11.0776L236.387 1.31197L249.058 9.69739L261.497 10.1818L273.735 3.48906L286.077 0.541138L298.9 3.91614L312.184 5.7703L322.44 14.4057L335.36 16.4161L346.31 23.3432L362.281 17.713L374.197 22.2286L390.339 28.1766L381.469 41.3484L381.153 53.1036L368.355 60.8641L363.868 71.2911L367.795 84.4005L361.564 94.2703L358.378 106.979L339.847 100.755L327.329 108.442L314.221 100.999L301.775 110.833L288.619 101.973L275.851 103.442L262.999 102.364L250.432 109.937L237.549 108.026L224.818 112.234L212.348 105.526L199.216 110.729L187.068 107.062L174.726 106.333L162.299 106.848L149.897 106.979L137.822 101.546L125.389 102.208L113.339 96.1557L100.268 107.765L88.5579 95.8432L75.5533 106.427L63.6248 98.2443L51.5017 93.4578L38.6369 101.734L21.2488 102.557L23.4618 89.1505L16.7863 81.2338L5.00368 74.5828L9.78237 63.3953Z" fill="white"/>
</g>
<mask id="mask4_62_2324" style="mask-type:luminance" maskUnits="userSpaceOnUse" x="0" y="1" width="396" height="115">
<path d="M0.674805 1.08325H395.331V116H0.674805V1.08325Z" fill="white"/>
</mask>
<g mask="url(#mask4_62_2324)">
<path d="M224.52 115.01L212.147 108.365L199.386 113.422L186.491 109.521L174.708 108.844L162.348 109.349L149.21 109.49L137.202 104.062L124.69 104.74L113.862 99.3124L100.146 111.526L88.3391 99.5103L75.7236 109.745L62.0745 100.385L51.8544 96.3541L39.6523 104.182L17.8321 105.213L20.3734 89.7916L14.701 83.0624L1.44101 75.5989L6.68177 63.3281L3.30142 53.1874L8.62122 42.828L4.20123 33.0416L0.77832 22.0312L3.61149 8.05721L19.7715 6.76034L33.5543 3.95825L46.103 9.56242L59.1015 1.69784L72.7932 9.94263L85.354 6.29159L98.9422 11.401L111.54 11.1822L124.234 12.8124L136.381 10.0572L148.705 5.72909L161.284 3.14575L174.131 0.578045L187.433 1.77596L200.231 5.76555L212.22 8.84367L223.061 8.60409L236.205 -1.96362L250.116 7.23429L260.707 7.65096L272.526 1.18221L286.12 -2.05737L299.568 1.48429L313.564 3.43742L323.875 12.0885L336.57 14.0624L346.705 20.4999L362.312 14.9947L375.365 19.9478L394.492 26.9999L384.369 42.0416L384.041 54.4114L370.787 62.4531L366.92 71.4218L370.89 84.7239L364.318 95.1458L360.494 110.38L340.248 103.594L327.377 111.495L314.5 104.182L301.909 114.13L287.768 104.63L275.87 105.99L263.753 104.979L251.058 112.609L237.768 110.635L224.52 115.01ZM212.561 102.693L225.128 109.474L237.214 105.448L249.708 107.302L262.172 99.7916L275.772 100.932L289.427 99.3593L301.593 107.557L313.886 97.8333L327.231 105.411L339.403 97.9478L356.226 103.588L358.779 93.4114L364.683 84.1041L360.816 71.2135L365.929 59.3333L378.277 51.8697L378.569 40.6822L386.175 29.3958L373.036 24.5572L362.239 20.4843L345.908 26.1822L334.168 18.7603L321.036 16.7291L310.792 8.11971L298.237 6.35409L286.041 3.14575L274.933 5.79159L262.293 12.703L248.012 12.1562L236.576 4.58846L225.432 13.5468L211.436 13.8489L198.31 10.4583L186.108 6.65096L174.532 5.63534L162.634 8.00513L150.517 10.4947L138.242 14.802L124.55 17.901L111.156 16.1822L97.7628 16.4166L85.0682 11.6666L71.869 15.4843L59.1076 7.80721L46.565 15.3958L32.7822 9.24471L20.72 11.7083L8.59082 12.6718L6.74257 21.8072L9.80677 31.6249L14.9381 42.9426L9.50279 53.5728L12.8649 63.5208L8.5361 73.5885L18.8474 79.4062L26.5201 88.5051L24.6414 99.8958L37.5974 99.2864L51.1492 90.5676L65.1752 96.1093L75.3588 103.099L88.7951 92.2447L100.42 104.068L112.828 93.0364L126.137 99.7083L138.497 99.026L150.602 104.453L162.214 104.333L174.757 103.818L187.67 104.568L199.064 108.016L212.561 102.693Z" fill="black"/>
<path d="M224.52 115.01L212.147 108.365L199.386 113.422L186.491 109.521L174.708 108.844L162.348 109.349L149.21 109.49L137.202 104.062L124.69 104.74L113.862 99.3124L100.146 111.526L88.3391 99.5103L75.7236 109.745L62.0745 100.385L51.8544 96.3541L39.6523 104.182L17.8321 105.213L20.3734 89.7916L14.701 83.0624L1.44101 75.5989L6.68177 63.3281L3.30142 53.1874L8.62122 42.828L4.20123 33.0416L0.77832 22.0312L3.61149 8.05721L19.7715 6.76034L33.5543 3.95825L46.103 9.56242L59.1015 1.69784L72.7932 9.94263L85.354 6.29159L98.9422 11.401L111.54 11.1822L124.234 12.8124L136.381 10.0572L148.705 5.72909L161.284 3.14575L174.131 0.578045L187.433 1.77596L200.231 5.76555L212.22 8.84367L223.061 8.60409L236.205 -1.96362L250.116 7.23429L260.707 7.65096L272.526 1.18221L286.12 -2.05737L299.568 1.48429L313.564 3.43742L323.875 12.0885L336.57 14.0624L346.705 20.4999L362.312 14.9947L375.365 19.9478L394.492 26.9999L384.369 42.0416L384.041 54.4114L370.787 62.4531L366.92 71.4218L370.89 84.7239L364.318 95.1458L360.494 110.38L340.248 103.594L327.377 111.495L314.5 104.182L301.909 114.13L287.768 104.63L275.87 105.99L263.753 104.979L251.058 112.609L237.768 110.635L224.52 115.01ZM212.561 102.693L225.128 109.474L237.214 105.448L249.708 107.302L262.172 99.7916L275.772 100.932L289.427 99.3593L301.593 107.557L313.886 97.8333L327.231 105.411L339.403 97.9478L356.226 103.588L358.779 93.4114L364.683 84.1041L360.816 71.2135L365.929 59.3333L378.277 51.8697L378.569 40.6822L386.175 29.3958L373.036 24.5572L362.239 20.4843L345.908 26.1822L334.168 18.7603L321.036 16.7291L310.792 8.11971L298.237 6.35409L286.041 3.14575L274.933 5.79159L262.293 12.703L248.012 12.1562L236.576 4.58846L225.432 13.5468L211.436 13.8489L198.31 10.4583L186.108 6.65096L174.532 5.63534L162.634 8.00513L150.517 10.4947L138.242 14.802L124.55 17.901L111.156 16.1822L97.7628 16.4166L85.0682 11.6666L71.869 15.4843L59.1076 7.80721L46.565 15.3958L32.7822 9.24471L20.72 11.7083L8.59082 12.6718L6.74257 21.8072L9.80677 31.6249L14.9381 42.9426L9.50279 53.5728L12.8649 63.5208L8.5361 73.5885L18.8474 79.4062L26.5201 88.5051L24.6414 99.8958L37.5974 99.2864L51.1492 90.5676L65.1752 96.1093L75.3588 103.099L88.7951 92.2447L100.42 104.068L112.828 93.0364L126.137 99.7083L138.497 99.026L150.602 104.453L162.214 104.333L174.757 103.818L187.67 104.568L199.064 108.016L212.561 102.693Z" fill="black"/>
</g>
</g>
<path d="M26.6738 53.7935C26.2258 53.7935 25.8978 53.7295 25.6898 53.6015C25.4818 53.4735 25.3538 53.2975 25.3058 53.0735C25.2578 52.8335 25.2338 52.5855 25.2338 52.3295V38.4815C25.2338 38.2255 25.2578 37.9935 25.3058 37.7855C25.3698 37.5615 25.5058 37.3855 25.7138 37.2575C25.9218 37.1135 26.2498 37.0415 26.6978 37.0415H31.7858C32.4898 37.0415 33.1778 37.1615 33.8498 37.4015C34.5218 37.6415 35.1218 38.0015 35.6498 38.4815C36.1938 38.9615 36.6178 39.5535 36.9218 40.2575C37.2418 40.9615 37.4018 41.7855 37.4018 42.7295C37.4018 43.6575 37.2418 44.4735 36.9218 45.1775C36.6178 45.8655 36.1938 46.4495 35.6498 46.9295C35.1058 47.4095 34.4978 47.7695 33.8258 48.0095C33.1698 48.2495 32.4818 48.3695 31.7618 48.3695H28.1378V52.3535C28.1378 52.6095 28.1058 52.8495 28.0418 53.0735C27.9938 53.2975 27.8658 53.4735 27.6578 53.6015C27.4658 53.7295 27.1378 53.7935 26.6738 53.7935ZM28.1378 45.4415H31.7858C32.2818 45.4415 32.7298 45.3455 33.1298 45.1535C33.5458 44.9455 33.8818 44.6415 34.1378 44.2415C34.3938 43.8255 34.5218 43.3055 34.5218 42.6815C34.5218 42.1215 34.4018 41.6415 34.1618 41.2415C33.9378 40.8255 33.6178 40.5055 33.2018 40.2815C32.8018 40.0575 32.3218 39.9455 31.7618 39.9455H28.1378V45.4415ZM45.169 53.9615C44.129 53.9615 43.217 53.7935 42.433 53.4575C41.665 53.1215 41.017 52.6655 40.489 52.0895C39.977 51.4975 39.585 50.8415 39.313 50.1215C39.057 49.3855 38.929 48.6255 38.929 47.8415C38.929 46.6895 39.193 45.6655 39.721 44.7695C40.249 43.8735 40.977 43.1695 41.905 42.6575C42.849 42.1455 43.929 41.8895 45.145 41.8895C46.009 41.8895 46.769 42.0255 47.425 42.2975C48.081 42.5695 48.625 42.9295 49.057 43.3775C49.505 43.8095 49.841 44.2895 50.065 44.8175C50.305 45.3455 50.425 45.8575 50.425 46.3535C50.425 47.2015 50.217 47.8175 49.801 48.2015C49.401 48.5855 48.897 48.7775 48.289 48.7775H41.953C41.969 49.3215 42.137 49.7935 42.457 50.1935C42.793 50.5935 43.209 50.9055 43.705 51.1295C44.217 51.3375 44.737 51.4415 45.265 51.4415C45.665 51.4415 46.017 51.4175 46.321 51.3695C46.641 51.3215 46.913 51.2655 47.137 51.2015C47.361 51.1215 47.553 51.0415 47.713 50.9615C47.889 50.8815 48.049 50.8095 48.193 50.7455C48.337 50.6815 48.473 50.6415 48.601 50.6255C48.777 50.6095 48.953 50.6495 49.129 50.7455C49.305 50.8415 49.449 51.0095 49.561 51.2495C49.657 51.4095 49.721 51.5615 49.753 51.7055C49.801 51.8335 49.825 51.9615 49.825 52.0895C49.825 52.4095 49.633 52.7135 49.249 53.0015C48.865 53.2735 48.321 53.4975 47.617 53.6735C46.929 53.8655 46.113 53.9615 45.169 53.9615ZM41.953 47.0735H46.873C47.145 47.0735 47.353 47.0335 47.497 46.9535C47.641 46.8575 47.713 46.6655 47.713 46.3775C47.713 46.0095 47.601 45.6815 47.377 45.3935C47.153 45.0895 46.849 44.8575 46.465 44.6975C46.081 44.5215 45.633 44.4335 45.121 44.4335C44.529 44.4335 43.993 44.5535 43.513 44.7935C43.033 45.0175 42.649 45.3295 42.361 45.7295C42.089 46.1295 41.953 46.5775 41.953 47.0735ZM53.8105 53.7935C53.3785 53.7935 53.0585 53.7215 52.8505 53.5775C52.6585 53.4495 52.5385 53.2815 52.4905 53.0735C52.4425 52.8495 52.4185 52.6015 52.4185 52.3295V43.3535C52.4185 43.0975 52.4425 42.8655 52.4905 42.6575C52.5385 42.4495 52.6665 42.2895 52.8745 42.1775C53.0825 42.0495 53.4025 41.9855 53.8345 41.9855C54.2185 41.9855 54.5065 42.0335 54.6985 42.1295C54.8905 42.2255 55.0185 42.3455 55.0825 42.4895C55.1465 42.6335 55.1785 42.7775 55.1785 42.9215C55.1945 43.0655 55.2105 43.1775 55.2265 43.2575L55.1305 44.0255C55.2265 43.7695 55.3865 43.5215 55.6105 43.2815C55.8345 43.0415 56.1065 42.8255 56.4265 42.6335C56.7465 42.4255 57.0905 42.2655 57.4585 42.1535C57.8425 42.0255 58.2345 41.9615 58.6345 41.9615C59.3865 41.9615 60.0585 42.0975 60.6505 42.3695C61.2425 42.6415 61.7465 43.0255 62.1625 43.5215C62.5945 44.0175 62.9225 44.6095 63.1465 45.2975C63.3705 45.9695 63.4825 46.7295 63.4825 47.5775V52.3535C63.4825 52.6255 63.4505 52.8735 63.3865 53.0975C63.3385 53.3055 63.2185 53.4735 63.0265 53.6015C62.8345 53.7295 62.5065 53.7935 62.0425 53.7935C61.5945 53.7935 61.2665 53.7215 61.0585 53.5775C60.8505 53.4495 60.7225 53.2815 60.6745 53.0735C60.6265 52.8495 60.6025 52.6015 60.6025 52.3295V47.5535C60.6025 46.9775 60.4985 46.4815 60.2905 46.0655C60.0985 45.6495 59.8105 45.3295 59.4265 45.1055C59.0585 44.8815 58.5865 44.7695 58.0105 44.7695C57.4505 44.7695 56.9625 44.8895 56.5465 45.1295C56.1305 45.3535 55.8105 45.6735 55.5865 46.0895C55.3625 46.5055 55.2505 46.9935 55.2505 47.5535V52.3535C55.2505 52.6255 55.2265 52.8735 55.1785 53.0975C55.1305 53.3055 55.0025 53.4735 54.7945 53.6015C54.6025 53.7295 54.2745 53.7935 53.8105 53.7935ZM68.0736 58.5455C67.5616 58.3215 67.2656 58.0655 67.1856 57.7775C67.1056 57.5055 67.1776 57.1375 67.4016 56.6735L73.5936 42.8015C73.8176 42.2895 74.0576 41.9855 74.3136 41.8895C74.5696 41.7775 74.9616 41.8335 75.4896 42.0575C75.9856 42.2815 76.2736 42.5295 76.3536 42.8015C76.4496 43.0735 76.3936 43.4415 76.1856 43.9055L69.9456 57.8495C69.7376 58.3615 69.5056 58.6575 69.2496 58.7375C68.9936 58.8335 68.6016 58.7695 68.0736 58.5455ZM70.3056 52.6655L64.7616 44.1455C64.4736 43.7135 64.3536 43.3535 64.4016 43.0655C64.4656 42.7775 64.7216 42.4975 65.1696 42.2255C65.6656 41.9215 66.0496 41.8015 66.3216 41.8655C66.6096 41.9295 66.8976 42.1855 67.1856 42.6335L71.5776 49.4735L70.3056 52.6655ZM83.8408 53.9615C82.8008 53.9615 81.8888 53.7935 81.1048 53.4575C80.3368 53.1215 79.6888 52.6655 79.1608 52.0895C78.6488 51.4975 78.2568 50.8415 77.9848 50.1215C77.7288 49.3855 77.6008 48.6255 77.6008 47.8415C77.6008 46.6895 77.8648 45.6655 78.3928 44.7695C78.9208 43.8735 79.6488 43.1695 80.5768 42.6575C81.5208 42.1455 82.6008 41.8895 83.8168 41.8895C84.6808 41.8895 85.4408 42.0255 86.0968 42.2975C86.7528 42.5695 87.2968 42.9295 87.7288 43.3775C88.1768 43.8095 88.5128 44.2895 88.7368 44.8175C88.9768 45.3455 89.0968 45.8575 89.0968 46.3535C89.0968 47.2015 88.8888 47.8175 88.4728 48.2015C88.0728 48.5855 87.5688 48.7775 86.9608 48.7775H80.6248C80.6408 49.3215 80.8088 49.7935 81.1288 50.1935C81.4648 50.5935 81.8808 50.9055 82.3768 51.1295C82.8888 51.3375 83.4088 51.4415 83.9368 51.4415C84.3368 51.4415 84.6888 51.4175 84.9928 51.3695C85.3128 51.3215 85.5848 51.2655 85.8088 51.2015C86.0328 51.1215 86.2248 51.0415 86.3848 50.9615C86.5608 50.8815 86.7208 50.8095 86.8648 50.7455C87.0088 50.6815 87.1448 50.6415 87.2728 50.6255C87.4488 50.6095 87.6248 50.6495 87.8008 50.7455C87.9768 50.8415 88.1208 51.0095 88.2328 51.2495C88.3288 51.4095 88.3928 51.5615 88.4248 51.7055C88.4728 51.8335 88.4968 51.9615 88.4968 52.0895C88.4968 52.4095 88.3048 52.7135 87.9208 53.0015C87.5368 53.2735 86.9928 53.4975 86.2888 53.6735C85.6008 53.8655 84.7848 53.9615 83.8408 53.9615ZM80.6248 47.0735H85.5448C85.8168 47.0735 86.0248 47.0335 86.1688 46.9535C86.3128 46.8575 86.3848 46.6655 86.3848 46.3775C86.3848 46.0095 86.2728 45.6815 86.0488 45.3935C85.8248 45.0895 85.5208 44.8575 85.1368 44.6975C84.7528 44.5215 84.3048 44.4335 83.7928 44.4335C83.2008 44.4335 82.6648 44.5535 82.1848 44.7935C81.7048 45.0175 81.3208 45.3295 81.0328 45.7295C80.7608 46.1295 80.6248 46.5775 80.6248 47.0735ZM97.2343 53.7935C96.4503 53.7935 95.7463 53.6415 95.1223 53.3375C94.5143 53.0175 93.9943 52.5855 93.5623 52.0415C93.1463 51.4975 92.8263 50.8735 92.6023 50.1695C92.3943 49.4495 92.2903 48.6815 92.2903 47.8655C92.3063 47.0495 92.4263 46.2895 92.6503 45.5855C92.8743 44.8655 93.1943 44.2415 93.6103 43.7135C94.0423 43.1695 94.5623 42.7455 95.1703 42.4415C95.7783 42.1375 96.4663 41.9855 97.2343 41.9855C97.9703 41.9855 98.6583 42.1375 99.2983 42.4415C99.9543 42.7455 100.53 43.1695 101.026 43.7135C101.538 44.2415 101.938 44.8655 102.226 45.5855C102.514 46.2895 102.658 47.0415 102.658 47.8415C102.658 48.6735 102.514 49.4575 102.226 50.1935C101.938 50.9135 101.546 51.5455 101.05 52.0895C100.554 52.6175 99.9783 53.0335 99.3223 53.3375C98.6663 53.6415 97.9703 53.7935 97.2343 53.7935ZM96.8503 50.9855C97.4103 50.9855 97.9143 50.8575 98.3623 50.6015C98.8103 50.3295 99.1623 49.9615 99.4183 49.4975C99.6903 49.0335 99.8263 48.5055 99.8263 47.9135C99.8263 47.3055 99.6903 46.7695 99.4183 46.3055C99.1623 45.8255 98.8103 45.4575 98.3623 45.2015C97.9143 44.9295 97.4103 44.7935 96.8503 44.7935C96.3063 44.7935 95.8103 44.9295 95.3623 45.2015C94.9143 45.4735 94.5543 45.8415 94.2823 46.3055C94.0263 46.7695 93.8983 47.3055 93.8983 47.9135C93.8983 48.5055 94.0263 49.0335 94.2823 49.4975C94.5543 49.9615 94.9143 50.3295 95.3623 50.6015C95.8103 50.8575 96.3063 50.9855 96.8503 50.9855ZM92.4103 53.8175C91.9783 53.8175 91.6583 53.7455 91.4503 53.6015C91.2423 53.4735 91.1143 53.3055 91.0663 53.0975C91.0183 52.8735 90.9943 52.6255 90.9943 52.3535V38.0495C90.9943 37.7775 91.0183 37.5375 91.0663 37.3295C91.1143 37.1055 91.2423 36.9295 91.4503 36.8015C91.6583 36.6735 91.9783 36.6095 92.4103 36.6095C92.8583 36.6095 93.1783 36.6735 93.3703 36.8015C93.5623 36.9295 93.6823 37.1055 93.7303 37.3295C93.7783 37.5535 93.8023 37.7935 93.8023 38.0495V52.8335C93.7383 53.1855 93.6023 53.4335 93.3943 53.5775C93.2023 53.7375 92.8743 53.8175 92.4103 53.8175ZM114.43 53.7695C113.966 53.7695 113.622 53.6815 113.398 53.5055C113.174 53.3295 113.062 53.0895 113.062 52.7855L113.23 51.9935C113.102 52.2015 112.886 52.4495 112.582 52.7375C112.278 53.0095 111.878 53.2575 111.382 53.4815C110.886 53.6895 110.286 53.7935 109.582 53.7935C108.83 53.7935 108.118 53.6415 107.446 53.3375C106.79 53.0175 106.206 52.5855 105.694 52.0415C105.198 51.4815 104.798 50.8495 104.494 50.1455C104.206 49.4255 104.062 48.6575 104.062 47.8415C104.062 47.0575 104.206 46.3215 104.494 45.6335C104.798 44.9295 105.206 44.3055 105.718 43.7615C106.23 43.2175 106.814 42.7935 107.47 42.4895C108.142 42.1695 108.846 42.0095 109.582 42.0095C110.238 42.0095 110.79 42.0975 111.238 42.2735C111.702 42.4495 112.094 42.6735 112.414 42.9455C112.734 43.2015 112.998 43.4735 113.206 43.7615L113.062 43.0655C113.062 42.7135 113.174 42.4495 113.398 42.2735C113.622 42.0815 113.974 41.9855 114.454 41.9855C114.902 41.9855 115.222 42.0575 115.414 42.2015C115.606 42.3295 115.726 42.5135 115.774 42.7535C115.822 42.9775 115.846 43.2335 115.846 43.5215V52.3055C115.846 52.5775 115.822 52.8255 115.774 53.0495C115.726 53.2735 115.598 53.4495 115.39 53.5775C115.198 53.7055 114.878 53.7695 114.43 53.7695ZM110.014 50.9855C110.558 50.9855 111.046 50.8495 111.478 50.5775C111.91 50.3055 112.254 49.9375 112.51 49.4735C112.782 48.9935 112.918 48.4655 112.918 47.8895C112.918 47.2655 112.782 46.7215 112.51 46.2575C112.238 45.7935 111.878 45.4335 111.43 45.1775C110.998 44.9055 110.51 44.7695 109.966 44.7695C109.374 44.7695 108.846 44.9135 108.382 45.2015C107.918 45.4735 107.55 45.8495 107.278 46.3295C107.022 46.7935 106.894 47.3215 106.894 47.9135C106.894 48.4895 107.03 49.0095 107.302 49.4735C107.574 49.9375 107.942 50.3055 108.406 50.5775C108.886 50.8495 109.422 50.9855 110.014 50.9855ZM124.422 53.7935C123.638 53.7935 122.934 53.6415 122.31 53.3375C121.702 53.0175 121.182 52.5855 120.75 52.0415C120.334 51.4975 120.014 50.8735 119.79 50.1695C119.582 49.4495 119.478 48.6815 119.478 47.8655C119.494 47.0495 119.614 46.2895 119.838 45.5855C120.062 44.8655 120.382 44.2415 120.798 43.7135C121.23 43.1695 121.75 42.7455 122.358 42.4415C122.966 42.1375 123.654 41.9855 124.422 41.9855C125.158 41.9855 125.846 42.1375 126.486 42.4415C127.142 42.7455 127.718 43.1695 128.214 43.7135C128.726 44.2415 129.126 44.8655 129.414 45.5855C129.702 46.2895 129.846 47.0415 129.846 47.8415C129.846 48.6735 129.702 49.4575 129.414 50.1935C129.126 50.9135 128.734 51.5455 128.238 52.0895C127.742 52.6175 127.166 53.0335 126.51 53.3375C125.854 53.6415 125.158 53.7935 124.422 53.7935ZM124.038 50.9855C124.598 50.9855 125.102 50.8575 125.55 50.6015C125.998 50.3295 126.35 49.9615 126.606 49.4975C126.878 49.0335 127.014 48.5055 127.014 47.9135C127.014 47.3055 126.878 46.7695 126.606 46.3055C126.35 45.8255 125.998 45.4575 125.55 45.2015C125.102 44.9295 124.598 44.7935 124.038 44.7935C123.494 44.7935 122.998 44.9295 122.55 45.2015C122.102 45.4735 121.742 45.8415 121.47 46.3055C121.214 46.7695 121.086 47.3055 121.086 47.9135C121.086 48.5055 121.214 49.0335 121.47 49.4975C121.742 49.9615 122.102 50.3295 122.55 50.6015C122.998 50.8575 123.494 50.9855 124.038 50.9855ZM119.598 53.8175C119.166 53.8175 118.846 53.7455 118.638 53.6015C118.43 53.4735 118.302 53.3055 118.254 53.0975C118.206 52.8735 118.182 52.6255 118.182 52.3535V38.0495C118.182 37.7775 118.206 37.5375 118.254 37.3295C118.302 37.1055 118.43 36.9295 118.638 36.8015C118.846 36.6735 119.166 36.6095 119.598 36.6095C120.046 36.6095 120.366 36.6735 120.558 36.8015C120.75 36.9295 120.87 37.1055 120.918 37.3295C120.966 37.5535 120.99 37.7935 120.99 38.0495V52.8335C120.926 53.1855 120.79 53.4335 120.582 53.5775C120.39 53.7375 120.062 53.8175 119.598 53.8175ZM133.428 45.8495C132.82 45.8495 132.396 45.7295 132.156 45.4895C131.916 45.2495 131.796 44.8415 131.796 44.2655C131.796 43.8495 131.844 43.5215 131.94 43.2815C132.052 43.0415 132.228 42.8735 132.468 42.7775C132.708 42.6655 133.028 42.6095 133.428 42.6095C134.036 42.6095 134.452 42.7295 134.676 42.9695C134.916 43.2095 135.036 43.6335 135.036 44.2415C135.036 44.6255 134.988 44.9375 134.892 45.1775C134.796 45.4175 134.628 45.5935 134.388 45.7055C134.148 45.8015 133.828 45.8495 133.428 45.8495ZM133.404 53.8175C132.812 53.8175 132.396 53.7055 132.156 53.4815C131.916 53.2415 131.796 52.8255 131.796 52.2335C131.796 51.8175 131.844 51.4975 131.94 51.2735C132.052 51.0335 132.228 50.8575 132.468 50.7455C132.708 50.6335 133.028 50.5775 133.428 50.5775C134.02 50.5775 134.436 50.6975 134.676 50.9375C134.916 51.1775 135.036 51.6015 135.036 52.2095C135.036 52.6095 134.98 52.9295 134.868 53.1695C134.772 53.4095 134.604 53.5775 134.364 53.6735C134.14 53.7695 133.82 53.8175 133.404 53.8175ZM149.568 53.6495C148.784 53.6495 148.08 53.5055 147.456 53.2175C146.848 52.9135 146.328 52.4975 145.896 51.9695C145.48 51.4255 145.16 50.8015 144.936 50.0975C144.728 49.3935 144.624 48.6335 144.624 47.8175C144.64 47.0015 144.76 46.2415 144.984 45.5375C145.208 44.8175 145.528 44.1935 145.944 43.6655C146.376 43.1375 146.896 42.7215 147.504 42.4175C148.112 42.1135 148.8 41.9615 149.568 41.9615C150.304 41.9615 150.992 42.1135 151.632 42.4175C152.288 42.7215 152.864 43.1455 153.36 43.6895C153.872 44.2335 154.272 44.8655 154.56 45.5855C154.848 46.2895 154.992 47.0495 154.992 47.8655C154.992 48.6975 154.848 49.4655 154.56 50.1695C154.272 50.8735 153.88 51.4895 153.384 52.0175C152.888 52.5295 152.312 52.9295 151.656 53.2175C151 53.5055 150.304 53.6495 149.568 53.6495ZM144.768 58.6415C144.336 58.6415 144.016 58.5775 143.808 58.4495C143.6 58.3215 143.472 58.1535 143.424 57.9455C143.376 57.7375 143.352 57.4975 143.352 57.2255V43.4255C143.352 43.1535 143.376 42.9135 143.424 42.7055C143.472 42.4975 143.592 42.3295 143.784 42.2015C143.992 42.0575 144.312 41.9855 144.744 41.9855C145.16 41.9855 145.488 42.0495 145.728 42.1775C145.968 42.3055 146.128 42.5215 146.208 42.8255V57.2015C146.224 57.4735 146.2 57.7135 146.136 57.9215C146.088 58.1455 145.96 58.3215 145.752 58.4495C145.544 58.5775 145.216 58.6415 144.768 58.6415ZM149.184 50.9615C149.744 50.9615 150.248 50.8335 150.696 50.5775C151.144 50.3055 151.496 49.9375 151.752 49.4735C152.024 48.9935 152.16 48.4575 152.16 47.8655C152.16 47.2575 152.024 46.7215 151.752 46.2575C151.496 45.7935 151.144 45.4335 150.696 45.1775C150.248 44.9055 149.744 44.7695 149.184 44.7695C148.64 44.7695 148.144 44.9055 147.696 45.1775C147.248 45.4495 146.888 45.8175 146.616 46.2815C146.36 46.7295 146.232 47.2575 146.232 47.8655C146.232 48.4575 146.36 48.9935 146.616 49.4735C146.888 49.9375 147.248 50.3055 147.696 50.5775C148.144 50.8335 148.64 50.9615 149.184 50.9615ZM162.731 53.9615C161.691 53.9615 160.779 53.7935 159.995 53.4575C159.227 53.1215 158.579 52.6655 158.051 52.0895C157.539 51.4975 157.147 50.8415 156.875 50.1215C156.619 49.3855 156.491 48.6255 156.491 47.8415C156.491 46.6895 156.755 45.6655 157.283 44.7695C157.811 43.8735 158.539 43.1695 159.467 42.6575C160.411 42.1455 161.491 41.8895 162.707 41.8895C163.571 41.8895 164.331 42.0255 164.987 42.2975C165.643 42.5695 166.187 42.9295 166.619 43.3775C167.067 43.8095 167.403 44.2895 167.627 44.8175C167.867 45.3455 167.987 45.8575 167.987 46.3535C167.987 47.2015 167.779 47.8175 167.363 48.2015C166.963 48.5855 166.459 48.7775 165.851 48.7775H159.515C159.531 49.3215 159.699 49.7935 160.019 50.1935C160.355 50.5935 160.771 50.9055 161.267 51.1295C161.779 51.3375 162.299 51.4415 162.827 51.4415C163.227 51.4415 163.579 51.4175 163.883 51.3695C164.203 51.3215 164.475 51.2655 164.699 51.2015C164.923 51.1215 165.115 51.0415 165.275 50.9615C165.451 50.8815 165.611 50.8095 165.755 50.7455C165.899 50.6815 166.035 50.6415 166.163 50.6255C166.339 50.6095 166.515 50.6495 166.691 50.7455C166.867 50.8415 167.011 51.0095 167.123 51.2495C167.219 51.4095 167.283 51.5615 167.315 51.7055C167.363 51.8335 167.387 51.9615 167.387 52.0895C167.387 52.4095 167.195 52.7135 166.811 53.0015C166.427 53.2735 165.883 53.4975 165.179 53.6735C164.491 53.8655 163.675 53.9615 162.731 53.9615ZM159.515 47.0735H164.435C164.707 47.0735 164.915 47.0335 165.059 46.9535C165.203 46.8575 165.275 46.6655 165.275 46.3775C165.275 46.0095 165.163 45.6815 164.939 45.3935C164.715 45.0895 164.411 44.8575 164.027 44.6975C163.643 44.5215 163.195 44.4335 162.683 44.4335C162.091 44.4335 161.555 44.5535 161.075 44.7935C160.595 45.0175 160.211 45.3295 159.923 45.7295C159.651 46.1295 159.515 46.5775 159.515 47.0735ZM171.373 53.8175C170.941 53.8175 170.621 53.7455 170.413 53.6015C170.221 53.4735 170.101 53.2975 170.053 53.0735C170.005 52.8495 169.981 52.6015 169.981 52.3295V43.4255C169.981 43.1375 170.005 42.8895 170.053 42.6815C170.101 42.4575 170.221 42.2895 170.413 42.1775C170.621 42.0495 170.949 41.9855 171.397 41.9855C171.829 41.9855 172.141 42.0415 172.333 42.1535C172.541 42.2655 172.669 42.4095 172.717 42.5855C172.781 42.7455 172.813 42.9055 172.813 43.0655L172.621 43.4975C172.701 43.3695 172.813 43.2175 172.957 43.0415C173.101 42.8495 173.293 42.6655 173.533 42.4895C173.773 42.2975 174.061 42.1455 174.397 42.0335C174.733 41.9055 175.133 41.8415 175.597 41.8415C175.789 41.8415 175.989 41.8655 176.197 41.9135C176.421 41.9455 176.637 42.0015 176.845 42.0815C177.069 42.1455 177.269 42.2335 177.445 42.3455C177.621 42.4575 177.757 42.5935 177.853 42.7535C177.949 42.8975 177.997 43.0655 177.997 43.2575C177.997 43.7695 177.869 44.2015 177.613 44.5535C177.357 44.9055 177.053 45.0815 176.701 45.0815C176.461 45.0815 176.285 45.0575 176.173 45.0095C176.061 44.9615 175.965 44.9055 175.885 44.8415C175.821 44.7775 175.717 44.7215 175.573 44.6735C175.445 44.6255 175.237 44.6015 174.949 44.6015C174.709 44.6015 174.461 44.6415 174.205 44.7215C173.965 44.8015 173.741 44.9215 173.533 45.0815C173.325 45.2415 173.157 45.4495 173.029 45.7055C172.901 45.9455 172.837 46.2255 172.837 46.5455V52.3775C172.837 52.6495 172.813 52.8975 172.765 53.1215C172.717 53.3295 172.589 53.4975 172.381 53.6255C172.173 53.7535 171.837 53.8175 171.373 53.8175ZM184.351 58.6175C183.775 58.6175 183.223 58.5455 182.695 58.4015C182.167 58.2735 181.687 58.0975 181.255 57.8735C180.839 57.6495 180.503 57.4095 180.247 57.1535C180.007 56.8975 179.887 56.6575 179.887 56.4335C179.887 56.2095 179.919 56.0175 179.983 55.8575C180.063 55.6975 180.175 55.5375 180.319 55.3775C180.511 55.1855 180.663 55.0415 180.775 54.9455C180.903 54.8495 181.071 54.8015 181.279 54.8015C181.455 54.8015 181.623 54.8655 181.783 54.9935C181.959 55.1215 182.159 55.2655 182.383 55.4255C182.607 55.5855 182.879 55.7295 183.199 55.8575C183.519 55.9855 183.927 56.0495 184.423 56.0495C184.839 56.0495 185.223 55.9775 185.575 55.8335C185.927 55.6895 186.223 55.4735 186.463 55.1855C186.719 54.9135 186.919 54.5855 187.063 54.2015C187.207 53.8175 187.279 53.3855 187.279 52.9055L187.255 42.9695C187.287 42.6015 187.415 42.3455 187.639 42.2015C187.863 42.0415 188.207 41.9615 188.671 41.9615C189.103 41.9615 189.415 42.0255 189.607 42.1535C189.799 42.2655 189.919 42.4335 189.967 42.6575C190.015 42.8655 190.039 43.0975 190.039 43.3535V53.0735C190.039 53.9535 189.887 54.7375 189.583 55.4255C189.279 56.1135 188.863 56.6895 188.335 57.1535C187.807 57.6335 187.199 57.9935 186.511 58.2335C185.839 58.4895 185.119 58.6175 184.351 58.6175ZM184.087 53.5055C183.335 53.5055 182.631 53.3615 181.975 53.0735C181.335 52.7855 180.767 52.3775 180.271 51.8495C179.791 51.3215 179.407 50.7135 179.119 50.0255C178.847 49.3215 178.711 48.5615 178.711 47.7455C178.711 46.9455 178.847 46.2015 179.119 45.5135C179.407 44.8255 179.791 44.2175 180.271 43.6895C180.767 43.1615 181.335 42.7535 181.975 42.4655C182.631 42.1615 183.327 42.0095 184.063 42.0095C184.783 42.0095 185.407 42.1535 185.935 42.4415C186.479 42.7135 186.927 43.1055 187.279 43.6175C187.631 44.1295 187.895 44.7375 188.071 45.4415C188.263 46.1455 188.359 46.9215 188.359 47.7695C188.359 48.9375 188.199 49.9535 187.879 50.8175C187.559 51.6815 187.087 52.3455 186.463 52.8095C185.839 53.2735 185.047 53.5055 184.087 53.5055ZM184.351 50.7935C184.895 50.7935 185.375 50.6655 185.791 50.4095C186.223 50.1375 186.559 49.7695 186.799 49.3055C187.055 48.8415 187.183 48.3215 187.183 47.7455C187.183 47.1535 187.055 46.6335 186.799 46.1855C186.559 45.7215 186.223 45.3615 185.791 45.1055C185.359 44.8495 184.871 44.7215 184.327 44.7215C183.783 44.7215 183.295 44.8575 182.863 45.1295C182.447 45.3855 182.119 45.7375 181.879 46.1855C181.639 46.6335 181.519 47.1535 181.519 47.7455C181.519 48.3375 181.639 48.8655 181.879 49.3295C182.135 49.7775 182.471 50.1375 182.887 50.4095C183.319 50.6655 183.807 50.7935 184.351 50.7935ZM202.203 53.7695C201.739 53.7695 201.395 53.6815 201.171 53.5055C200.947 53.3295 200.835 53.0895 200.835 52.7855L201.003 51.9935C200.875 52.2015 200.659 52.4495 200.355 52.7375C200.051 53.0095 199.651 53.2575 199.155 53.4815C198.659 53.6895 198.059 53.7935 197.355 53.7935C196.603 53.7935 195.891 53.6415 195.219 53.3375C194.563 53.0175 193.979 52.5855 193.467 52.0415C192.971 51.4815 192.571 50.8495 192.267 50.1455C191.979 49.4255 191.835 48.6575 191.835 47.8415C191.835 47.0575 191.979 46.3215 192.267 45.6335C192.571 44.9295 192.979 44.3055 193.491 43.7615C194.003 43.2175 194.587 42.7935 195.243 42.4895C195.915 42.1695 196.619 42.0095 197.355 42.0095C198.011 42.0095 198.563 42.0975 199.011 42.2735C199.475 42.4495 199.867 42.6735 200.187 42.9455C200.507 43.2015 200.771 43.4735 200.979 43.7615L200.835 43.0655C200.835 42.7135 200.947 42.4495 201.171 42.2735C201.395 42.0815 201.747 41.9855 202.227 41.9855C202.675 41.9855 202.995 42.0575 203.187 42.2015C203.379 42.3295 203.499 42.5135 203.547 42.7535C203.595 42.9775 203.619 43.2335 203.619 43.5215V52.3055C203.619 52.5775 203.595 52.8255 203.547 53.0495C203.499 53.2735 203.371 53.4495 203.163 53.5775C202.971 53.7055 202.651 53.7695 202.203 53.7695ZM197.787 50.9855C198.331 50.9855 198.819 50.8495 199.251 50.5775C199.683 50.3055 200.027 49.9375 200.283 49.4735C200.555 48.9935 200.691 48.4655 200.691 47.8895C200.691 47.2655 200.555 46.7215 200.283 46.2575C200.011 45.7935 199.651 45.4335 199.203 45.1775C198.771 44.9055 198.283 44.7695 197.739 44.7695C197.147 44.7695 196.619 44.9135 196.155 45.2015C195.691 45.4735 195.323 45.8495 195.051 46.3295C194.795 46.7935 194.667 47.3215 194.667 47.9135C194.667 48.4895 194.803 49.0095 195.075 49.4735C195.347 49.9375 195.715 50.3055 196.179 50.5775C196.659 50.8495 197.195 50.9855 197.787 50.9855ZM210.923 53.7935C210.187 53.7935 209.507 53.6655 208.883 53.4095C208.275 53.1375 207.739 52.7535 207.275 52.2575C206.811 51.7615 206.451 51.1695 206.195 50.4815C205.939 49.7935 205.811 49.0335 205.811 48.2015V43.4255C205.811 43.1535 205.835 42.9135 205.883 42.7055C205.931 42.4815 206.059 42.3055 206.267 42.1775C206.475 42.0495 206.795 41.9855 207.227 41.9855C207.691 41.9855 208.019 42.0495 208.211 42.1775C208.419 42.3055 208.547 42.4815 208.595 42.7055C208.643 42.9295 208.667 43.1775 208.667 43.4495V48.2015C208.667 48.7775 208.763 49.2735 208.955 49.6895C209.163 50.1055 209.459 50.4335 209.843 50.6735C210.227 50.8975 210.699 51.0095 211.259 51.0095C211.835 51.0095 212.323 50.8975 212.723 50.6735C213.139 50.4335 213.459 50.1055 213.683 49.6895C213.907 49.2575 214.019 48.7615 214.019 48.2015V43.4015C214.019 43.1295 214.043 42.8895 214.091 42.6815C214.139 42.4575 214.267 42.2895 214.475 42.1775C214.683 42.0495 215.011 41.9855 215.459 41.9855C215.907 41.9855 216.227 42.0495 216.419 42.1775C216.611 42.3055 216.731 42.4815 216.779 42.7055C216.843 42.9295 216.875 43.1695 216.875 43.4255V52.4255C216.875 52.6655 216.843 52.8895 216.779 53.0975C216.731 53.3055 216.603 53.4735 216.395 53.6015C216.203 53.7295 215.883 53.7935 215.435 53.7935C215.115 53.7935 214.859 53.7535 214.667 53.6735C214.491 53.6095 214.355 53.5215 214.259 53.4095C214.179 53.2815 214.123 53.1535 214.091 53.0255C214.075 52.8975 214.067 52.7695 214.067 52.6415L214.259 51.9935C214.163 52.1375 214.019 52.3135 213.827 52.5215C213.635 52.7135 213.395 52.9135 213.107 53.1215C212.835 53.3135 212.515 53.4735 212.147 53.6015C211.779 53.7295 211.371 53.7935 210.923 53.7935ZM223.374 53.8175C222.782 53.8175 222.254 53.7775 221.79 53.6975C221.342 53.6175 220.95 53.4815 220.614 53.2895C220.294 53.0975 220.03 52.8415 219.822 52.5215C219.614 52.1855 219.454 51.7775 219.342 51.2975C219.246 50.8175 219.198 50.2415 219.198 49.5695V38.0015C219.198 37.7295 219.222 37.4895 219.27 37.2815C219.334 37.0575 219.462 36.8815 219.654 36.7535C219.862 36.6095 220.19 36.5375 220.638 36.5375C221.086 36.5375 221.406 36.6015 221.598 36.7295C221.806 36.8575 221.934 37.0335 221.982 37.2575C222.046 37.4655 222.078 37.7055 222.078 37.9775V49.4495C222.078 49.7535 222.094 50.0095 222.126 50.2175C222.174 50.4095 222.246 50.5695 222.342 50.6975C222.454 50.8095 222.59 50.8895 222.75 50.9375C222.926 50.9855 223.134 51.0095 223.374 51.0095C223.582 51.0095 223.766 51.0335 223.926 51.0815C224.102 51.1295 224.238 51.2495 224.334 51.4415C224.446 51.6335 224.502 51.9455 224.502 52.3775C224.502 52.8255 224.446 53.1535 224.334 53.3615C224.238 53.5695 224.102 53.6975 223.926 53.7455C223.75 53.7935 223.566 53.8175 223.374 53.8175ZM236.07 53.7695C235.606 53.7695 235.262 53.6815 235.038 53.5055C234.814 53.3295 234.702 53.0895 234.702 52.7855L234.87 51.9935C234.742 52.2015 234.526 52.4495 234.222 52.7375C233.918 53.0095 233.518 53.2575 233.022 53.4815C232.526 53.6895 231.926 53.7935 231.222 53.7935C230.47 53.7935 229.758 53.6415 229.086 53.3375C228.43 53.0175 227.846 52.5855 227.334 52.0415C226.838 51.4815 226.438 50.8495 226.134 50.1455C225.846 49.4255 225.702 48.6575 225.702 47.8415C225.702 47.0575 225.846 46.3215 226.134 45.6335C226.438 44.9295 226.846 44.3055 227.358 43.7615C227.87 43.2175 228.454 42.7935 229.11 42.4895C229.782 42.1695 230.486 42.0095 231.222 42.0095C231.878 42.0095 232.43 42.0975 232.878 42.2735C233.342 42.4495 233.734 42.6735 234.054 42.9455C234.374 43.2015 234.638 43.4735 234.846 43.7615L234.702 43.0655C234.702 42.7135 234.814 42.4495 235.038 42.2735C235.262 42.0815 235.614 41.9855 236.094 41.9855C236.542 41.9855 236.862 42.0575 237.054 42.2015C237.246 42.3295 237.366 42.5135 237.414 42.7535C237.462 42.9775 237.486 43.2335 237.486 43.5215V52.3055C237.486 52.5775 237.462 52.8255 237.414 53.0495C237.366 53.2735 237.238 53.4495 237.03 53.5775C236.838 53.7055 236.518 53.7695 236.07 53.7695ZM231.654 50.9855C232.198 50.9855 232.686 50.8495 233.118 50.5775C233.55 50.3055 233.894 49.9375 234.15 49.4735C234.422 48.9935 234.558 48.4655 234.558 47.8895C234.558 47.2655 234.422 46.7215 234.15 46.2575C233.878 45.7935 233.518 45.4335 233.07 45.1775C232.638 44.9055 232.15 44.7695 231.606 44.7695C231.014 44.7695 230.486 44.9135 230.022 45.2015C229.558 45.4735 229.19 45.8495 228.918 46.3295C228.662 46.7935 228.534 47.3215 228.534 47.9135C228.534 48.4895 228.67 49.0095 228.942 49.4735C229.214 49.9375 229.582 50.3055 230.046 50.5775C230.526 50.8495 231.062 50.9855 231.654 50.9855ZM241.31 53.7935C240.878 53.7935 240.558 53.7215 240.35 53.5775C240.158 53.4495 240.038 53.2815 239.99 53.0735C239.942 52.8495 239.918 52.6015 239.918 52.3295V43.3535C239.918 43.0975 239.942 42.8655 239.99 42.6575C240.038 42.4495 240.166 42.2895 240.374 42.1775C240.582 42.0495 240.902 41.9855 241.334 41.9855C241.718 41.9855 242.006 42.0335 242.198 42.1295C242.39 42.2255 242.518 42.3455 242.582 42.4895C242.646 42.6335 242.678 42.7775 242.678 42.9215C242.694 43.0655 242.71 43.1775 242.726 43.2575L242.63 44.0255C242.726 43.7695 242.886 43.5215 243.11 43.2815C243.334 43.0415 243.606 42.8255 243.926 42.6335C244.246 42.4255 244.59 42.2655 244.958 42.1535C245.342 42.0255 245.734 41.9615 246.134 41.9615C246.886 41.9615 247.558 42.0975 248.15 42.3695C248.742 42.6415 249.246 43.0255 249.662 43.5215C250.094 44.0175 250.422 44.6095 250.646 45.2975C250.87 45.9695 250.982 46.7295 250.982 47.5775V52.3535C250.982 52.6255 250.95 52.8735 250.886 53.0975C250.838 53.3055 250.718 53.4735 250.526 53.6015C250.334 53.7295 250.006 53.7935 249.542 53.7935C249.094 53.7935 248.766 53.7215 248.558 53.5775C248.35 53.4495 248.222 53.2815 248.174 53.0735C248.126 52.8495 248.102 52.6015 248.102 52.3295V47.5535C248.102 46.9775 247.998 46.4815 247.79 46.0655C247.598 45.6495 247.31 45.3295 246.926 45.1055C246.558 44.8815 246.086 44.7695 245.51 44.7695C244.95 44.7695 244.462 44.8895 244.046 45.1295C243.63 45.3535 243.31 45.6735 243.086 46.0895C242.862 46.5055 242.75 46.9935 242.75 47.5535V52.3535C242.75 52.6255 242.726 52.8735 242.678 53.0975C242.63 53.3055 242.502 53.4735 242.294 53.6015C242.102 53.7295 241.774 53.7935 241.31 53.7935ZM259.421 56.2895C259.421 56.2895 259.389 56.2735 259.325 56.2415C259.261 56.2255 259.197 56.1615 259.133 56.0495C259.069 55.9535 259.037 55.7935 259.037 55.5695C259.037 55.2655 259.085 55.0655 259.181 54.9695C259.277 54.8895 259.341 54.8415 259.373 54.8255C259.389 54.8095 259.501 54.7135 259.709 54.5375C259.917 54.3775 260.037 54.0975 260.069 53.6975C259.909 53.6655 259.765 53.6255 259.637 53.5775C259.525 53.5135 259.429 53.4415 259.349 53.3615C259.189 53.2015 259.093 53.0175 259.061 52.8095C259.029 52.5855 259.013 52.3615 259.013 52.1375C259.013 51.7695 259.053 51.4655 259.133 51.2255C259.213 50.9855 259.365 50.8095 259.589 50.6975C259.829 50.5695 260.181 50.5055 260.645 50.5055C261.253 50.5055 261.685 50.6335 261.941 50.8895C262.085 51.0335 262.165 51.2175 262.181 51.4415C262.213 51.6655 262.229 51.8895 262.229 52.1135C262.229 52.2735 262.229 52.4095 262.229 52.5215C262.229 52.6175 262.221 52.7055 262.205 52.7855C262.141 53.4255 261.973 54.0095 261.701 54.5375C261.445 55.0655 261.117 55.4895 260.717 55.8095C260.333 56.1295 259.901 56.2895 259.421 56.2895ZM260.597 45.8735C259.989 45.8735 259.565 45.7535 259.325 45.5135C259.101 45.2575 258.989 44.8495 258.989 44.2895C258.989 43.8735 259.029 43.5455 259.109 43.3055C259.205 43.0655 259.373 42.8975 259.613 42.8015C259.869 42.6895 260.205 42.6335 260.621 42.6335C261.245 42.6335 261.669 42.7535 261.893 42.9935C262.117 43.2335 262.229 43.6575 262.229 44.2655C262.229 44.5535 262.197 44.8255 262.133 45.0815C262.069 45.3215 261.925 45.5135 261.701 45.6575C261.477 45.8015 261.109 45.8735 260.597 45.8735ZM271.874 53.7935C271.458 53.7935 271.146 53.7215 270.938 53.5775C270.73 53.4495 270.594 53.2735 270.53 53.0495C270.466 52.8255 270.434 52.5855 270.434 52.3295V38.4575C270.434 38.2015 270.458 37.9695 270.506 37.7615C270.57 37.5375 270.706 37.3615 270.914 37.2335C271.122 37.0895 271.45 37.0175 271.898 37.0175L276.41 37.0415C277.578 37.0415 278.65 37.2415 279.626 37.6415C280.618 38.0415 281.474 38.6095 282.194 39.3455C282.914 40.0815 283.466 40.9615 283.85 41.9855C284.25 42.9935 284.45 44.1055 284.45 45.3215C284.45 46.5695 284.25 47.7135 283.85 48.7535C283.45 49.7935 282.89 50.6895 282.17 51.4415C281.45 52.1935 280.594 52.7775 279.602 53.1935C278.626 53.5935 277.538 53.7935 276.338 53.7935H271.874ZM273.338 50.8895H276.41C277.434 50.8895 278.33 50.6655 279.098 50.2175C279.866 49.7535 280.458 49.1135 280.874 48.2975C281.306 47.4815 281.522 46.5295 281.522 45.4415C281.522 44.3375 281.306 43.3775 280.874 42.5615C280.458 41.7295 279.858 41.0895 279.074 40.6415C278.306 40.1775 277.41 39.9455 276.386 39.9455H273.338V50.8895ZM296.563 53.7695C296.099 53.7695 295.755 53.6815 295.531 53.5055C295.307 53.3295 295.195 53.0895 295.195 52.7855L295.363 51.9935C295.235 52.2015 295.019 52.4495 294.715 52.7375C294.411 53.0095 294.011 53.2575 293.515 53.4815C293.019 53.6895 292.419 53.7935 291.715 53.7935C290.963 53.7935 290.251 53.6415 289.579 53.3375C288.923 53.0175 288.339 52.5855 287.827 52.0415C287.331 51.4815 286.931 50.8495 286.627 50.1455C286.339 49.4255 286.195 48.6575 286.195 47.8415C286.195 47.0575 286.339 46.3215 286.627 45.6335C286.931 44.9295 287.339 44.3055 287.851 43.7615C288.363 43.2175 288.947 42.7935 289.603 42.4895C290.275 42.1695 290.979 42.0095 291.715 42.0095C292.371 42.0095 292.923 42.0975 293.371 42.2735C293.835 42.4495 294.227 42.6735 294.547 42.9455C294.867 43.2015 295.131 43.4735 295.339 43.7615L295.195 43.0655C295.195 42.7135 295.307 42.4495 295.531 42.2735C295.755 42.0815 296.107 41.9855 296.587 41.9855C297.035 41.9855 297.355 42.0575 297.547 42.2015C297.739 42.3295 297.859 42.5135 297.907 42.7535C297.955 42.9775 297.979 43.2335 297.979 43.5215V52.3055C297.979 52.5775 297.955 52.8255 297.907 53.0495C297.859 53.2735 297.731 53.4495 297.523 53.5775C297.331 53.7055 297.011 53.7695 296.563 53.7695ZM292.147 50.9855C292.691 50.9855 293.179 50.8495 293.611 50.5775C294.043 50.3055 294.387 49.9375 294.643 49.4735C294.915 48.9935 295.051 48.4655 295.051 47.8895C295.051 47.2655 294.915 46.7215 294.643 46.2575C294.371 45.7935 294.011 45.4335 293.563 45.1775C293.131 44.9055 292.643 44.7695 292.099 44.7695C291.507 44.7695 290.979 44.9135 290.515 45.2015C290.051 45.4735 289.683 45.8495 289.411 46.3295C289.155 46.7935 289.027 47.3215 289.027 47.9135C289.027 48.4895 289.163 49.0095 289.435 49.4735C289.707 49.9375 290.075 50.3055 290.539 50.5775C291.019 50.8495 291.555 50.9855 292.147 50.9855ZM301.779 53.7935C301.347 53.7935 301.027 53.7295 300.819 53.6015C300.627 53.4735 300.507 53.2975 300.459 53.0735C300.411 52.8495 300.387 52.6095 300.387 52.3535V43.3775C300.387 43.1215 300.411 42.8895 300.459 42.6815C300.507 42.4735 300.635 42.3055 300.843 42.1775C301.051 42.0495 301.379 41.9855 301.827 41.9855C302.291 41.9855 302.627 42.0815 302.835 42.2735C303.059 42.4655 303.171 42.7695 303.171 43.1855L302.955 43.8575C303.035 43.6815 303.171 43.4895 303.363 43.2815C303.555 43.0735 303.787 42.8655 304.059 42.6575C304.347 42.4495 304.667 42.2815 305.019 42.1535C305.371 42.0255 305.739 41.9615 306.123 41.9615C306.651 41.9615 307.131 42.0495 307.563 42.2255C308.011 42.4015 308.403 42.6575 308.739 42.9935C309.091 43.3295 309.395 43.7375 309.651 44.2175C309.923 43.8015 310.227 43.4255 310.563 43.0895C310.899 42.7375 311.291 42.4655 311.739 42.2735C312.187 42.0655 312.691 41.9615 313.251 41.9615C314.179 41.9615 314.955 42.1935 315.579 42.6575C316.219 43.1215 316.699 43.7855 317.019 44.6495C317.355 45.4975 317.523 46.5135 317.523 47.6975V52.3535C317.523 52.6255 317.491 52.8735 317.427 53.0975C317.379 53.3055 317.251 53.4735 317.043 53.6015C316.851 53.7295 316.531 53.7935 316.083 53.7935C315.635 53.7935 315.307 53.7215 315.099 53.5775C314.891 53.4495 314.763 53.2815 314.715 53.0735C314.667 52.8495 314.643 52.6015 314.643 52.3295V47.6735C314.643 47.0815 314.571 46.5695 314.427 46.1375C314.283 45.7055 314.067 45.3695 313.779 45.1295C313.507 44.8895 313.147 44.7695 312.699 44.7695C312.219 44.7695 311.803 44.8895 311.451 45.1295C311.115 45.3535 310.851 45.6815 310.659 46.1135C310.467 46.5455 310.371 47.0735 310.371 47.6975V52.3775C310.371 52.6495 310.331 52.9055 310.251 53.1455C310.171 53.3695 310.011 53.5375 309.771 53.6495C309.547 53.7775 309.219 53.8255 308.787 53.7935C308.387 53.7775 308.091 53.6975 307.899 53.5535C307.723 53.4095 307.611 53.2335 307.563 53.0255C307.531 52.8015 307.515 52.5695 307.515 52.3295V47.6735C307.515 47.0815 307.443 46.5695 307.299 46.1375C307.155 45.6895 306.939 45.3535 306.651 45.1295C306.379 44.8895 306.011 44.7695 305.547 44.7695C305.051 44.7695 304.627 44.8975 304.275 45.1535C303.939 45.4095 303.683 45.7535 303.507 46.1855C303.331 46.6175 303.243 47.1135 303.243 47.6735V52.3775C303.243 52.6335 303.211 52.8735 303.147 53.0975C303.099 53.3215 302.971 53.4895 302.763 53.6015C302.571 53.7295 302.243 53.7935 301.779 53.7935ZM326.006 53.6495C325.222 53.6495 324.518 53.5055 323.894 53.2175C323.286 52.9135 322.766 52.4975 322.334 51.9695C321.918 51.4255 321.598 50.8015 321.374 50.0975C321.166 49.3935 321.062 48.6335 321.062 47.8175C321.078 47.0015 321.198 46.2415 321.422 45.5375C321.646 44.8175 321.966 44.1935 322.382 43.6655C322.814 43.1375 323.334 42.7215 323.942 42.4175C324.55 42.1135 325.238 41.9615 326.006 41.9615C326.742 41.9615 327.43 42.1135 328.07 42.4175C328.726 42.7215 329.302 43.1455 329.798 43.6895C330.31 44.2335 330.71 44.8655 330.998 45.5855C331.286 46.2895 331.43 47.0495 331.43 47.8655C331.43 48.6975 331.286 49.4655 330.998 50.1695C330.71 50.8735 330.318 51.4895 329.822 52.0175C329.326 52.5295 328.75 52.9295 328.094 53.2175C327.438 53.5055 326.742 53.6495 326.006 53.6495ZM321.206 58.6415C320.774 58.6415 320.454 58.5775 320.246 58.4495C320.038 58.3215 319.91 58.1535 319.862 57.9455C319.814 57.7375 319.79 57.4975 319.79 57.2255V43.4255C319.79 43.1535 319.814 42.9135 319.862 42.7055C319.91 42.4975 320.03 42.3295 320.222 42.2015C320.43 42.0575 320.75 41.9855 321.182 41.9855C321.598 41.9855 321.926 42.0495 322.166 42.1775C322.406 42.3055 322.566 42.5215 322.646 42.8255V57.2015C322.662 57.4735 322.638 57.7135 322.574 57.9215C322.526 58.1455 322.398 58.3215 322.19 58.4495C321.982 58.5775 321.654 58.6415 321.206 58.6415ZM325.622 50.9615C326.182 50.9615 326.686 50.8335 327.134 50.5775C327.582 50.3055 327.934 49.9375 328.19 49.4735C328.462 48.9935 328.598 48.4575 328.598 47.8655C328.598 47.2575 328.462 46.7215 328.19 46.2575C327.934 45.7935 327.582 45.4335 327.134 45.1775C326.686 44.9055 326.182 44.7695 325.622 44.7695C325.078 44.7695 324.582 44.9055 324.134 45.1775C323.686 45.4495 323.326 45.8175 323.054 46.2815C322.798 46.7295 322.67 47.2575 322.67 47.8655C322.67 48.4575 322.798 48.9935 323.054 49.4735C323.326 49.9375 323.686 50.3055 324.134 50.5775C324.582 50.8335 325.078 50.9615 325.622 50.9615ZM343.297 53.7695C342.833 53.7695 342.489 53.6815 342.265 53.5055C342.041 53.3295 341.929 53.0895 341.929 52.7855L342.097 51.9935C341.969 52.2015 341.753 52.4495 341.449 52.7375C341.145 53.0095 340.745 53.2575 340.249 53.4815C339.753 53.6895 339.153 53.7935 338.449 53.7935C337.697 53.7935 336.985 53.6415 336.313 53.3375C335.657 53.0175 335.073 52.5855 334.561 52.0415C334.065 51.4815 333.665 50.8495 333.361 50.1455C333.073 49.4255 332.929 48.6575 332.929 47.8415C332.929 47.0575 333.073 46.3215 333.361 45.6335C333.665 44.9295 334.073 44.3055 334.585 43.7615C335.097 43.2175 335.681 42.7935 336.337 42.4895C337.009 42.1695 337.713 42.0095 338.449 42.0095C339.105 42.0095 339.657 42.0975 340.105 42.2735C340.569 42.4495 340.961 42.6735 341.281 42.9455C341.601 43.2015 341.865 43.4735 342.073 43.7615L341.929 43.0655C341.929 42.7135 342.041 42.4495 342.265 42.2735C342.489 42.0815 342.841 41.9855 343.321 41.9855C343.769 41.9855 344.089 42.0575 344.281 42.2015C344.473 42.3295 344.593 42.5135 344.641 42.7535C344.689 42.9775 344.713 43.2335 344.713 43.5215V52.3055C344.713 52.5775 344.689 52.8255 344.641 53.0495C344.593 53.2735 344.465 53.4495 344.257 53.5775C344.065 53.7055 343.745 53.7695 343.297 53.7695ZM338.881 50.9855C339.425 50.9855 339.913 50.8495 340.345 50.5775C340.777 50.3055 341.121 49.9375 341.377 49.4735C341.649 48.9935 341.785 48.4655 341.785 47.8895C341.785 47.2655 341.649 46.7215 341.377 46.2575C341.105 45.7935 340.745 45.4335 340.297 45.1775C339.865 44.9055 339.377 44.7695 338.833 44.7695C338.241 44.7695 337.713 44.9135 337.249 45.2015C336.785 45.4735 336.417 45.8495 336.145 46.3295C335.889 46.7935 335.761 47.3215 335.761 47.9135C335.761 48.4895 335.897 49.0095 336.169 49.4735C336.441 49.9375 336.809 50.3055 337.273 50.5775C337.753 50.8495 338.289 50.9855 338.881 50.9855ZM356.529 51.2255C356.945 51.5775 357.161 51.9055 357.177 52.2095C357.209 52.5135 357.049 52.8655 356.697 53.2655C356.425 53.5695 356.185 53.7695 355.977 53.8655C355.769 53.9615 355.561 53.9615 355.353 53.8655C355.145 53.7855 354.897 53.6255 354.609 53.3855L350.025 49.5215V52.3775C350.025 52.6335 349.993 52.8735 349.929 53.0975C349.881 53.3215 349.753 53.4975 349.545 53.6255C349.353 53.7535 349.033 53.8175 348.585 53.8175C348.137 53.8175 347.809 53.7455 347.601 53.6015C347.409 53.4735 347.289 53.2975 347.241 53.0735C347.193 52.8495 347.169 52.6095 347.169 52.3535V38.0255C347.169 37.7535 347.193 37.5135 347.241 37.3055C347.305 37.0815 347.433 36.9055 347.625 36.7775C347.833 36.6335 348.161 36.5615 348.609 36.5615C349.057 36.5615 349.377 36.6335 349.569 36.7775C349.761 36.9055 349.881 37.0815 349.929 37.3055C349.993 37.5135 350.025 37.7615 350.025 38.0495V45.9215L353.337 42.7055C353.593 42.4655 353.833 42.3055 354.057 42.2255C354.281 42.1295 354.497 42.1215 354.705 42.2015C354.929 42.2655 355.161 42.4335 355.401 42.7055C355.801 43.1375 355.993 43.4975 355.977 43.7855C355.961 44.0575 355.761 44.3855 355.377 44.7695L352.137 47.7695L356.529 51.2255ZM145.56 82.6495C144.776 82.6495 144.072 82.5055 143.448 82.2175C142.84 81.9135 142.32 81.4975 141.888 80.9695C141.472 80.4255 141.152 79.8015 140.928 79.0975C140.72 78.3935 140.616 77.6335 140.616 76.8175C140.632 76.0015 140.752 75.2415 140.976 74.5375C141.2 73.8175 141.52 73.1935 141.936 72.6655C142.368 72.1375 142.888 71.7215 143.496 71.4175C144.104 71.1135 144.792 70.9615 145.56 70.9615C146.296 70.9615 146.984 71.1135 147.624 71.4175C148.28 71.7215 148.856 72.1455 149.352 72.6895C149.864 73.2335 150.264 73.8655 150.552 74.5855C150.84 75.2895 150.984 76.0495 150.984 76.8655C150.984 77.6975 150.84 78.4655 150.552 79.1695C150.264 79.8735 149.872 80.4895 149.376 81.0175C148.88 81.5295 148.304 81.9295 147.648 82.2175C146.992 82.5055 146.296 82.6495 145.56 82.6495ZM140.76 87.6415C140.328 87.6415 140.008 87.5775 139.8 87.4495C139.592 87.3215 139.464 87.1535 139.416 86.9455C139.368 86.7375 139.344 86.4975 139.344 86.2255V72.4255C139.344 72.1535 139.368 71.9135 139.416 71.7055C139.464 71.4975 139.584 71.3295 139.776 71.2015C139.984 71.0575 140.304 70.9855 140.736 70.9855C141.152 70.9855 141.48 71.0495 141.72 71.1775C141.96 71.3055 142.12 71.5215 142.2 71.8255V86.2015C142.216 86.4735 142.192 86.7135 142.128 86.9215C142.08 87.1455 141.952 87.3215 141.744 87.4495C141.536 87.5775 141.208 87.6415 140.76 87.6415ZM145.176 79.9615C145.736 79.9615 146.24 79.8335 146.688 79.5775C147.136 79.3055 147.488 78.9375 147.744 78.4735C148.016 77.9935 148.152 77.4575 148.152 76.8655C148.152 76.2575 148.016 75.7215 147.744 75.2575C147.488 74.7935 147.136 74.4335 146.688 74.1775C146.24 73.9055 145.736 73.7695 145.176 73.7695C144.632 73.7695 144.136 73.9055 143.688 74.1775C143.24 74.4495 142.88 74.8175 142.608 75.2815C142.352 75.7295 142.224 76.2575 142.224 76.8655C142.224 77.4575 142.352 77.9935 142.608 78.4735C142.88 78.9375 143.24 79.3055 143.688 79.5775C144.136 79.8335 144.632 79.9615 145.176 79.9615ZM157.116 82.9615C156.7 82.9615 156.26 82.9135 155.796 82.8175C155.332 82.7375 154.884 82.6175 154.452 82.4575C154.02 82.2815 153.644 82.0815 153.324 81.8575C153.02 81.6175 152.828 81.3535 152.748 81.0655C152.684 80.9055 152.66 80.7535 152.676 80.6095C152.692 80.4495 152.74 80.2895 152.82 80.1295C152.9 79.9535 153.02 79.7775 153.18 79.6015C153.324 79.4255 153.468 79.3295 153.612 79.3135C153.772 79.2815 153.972 79.3295 154.212 79.4575C154.42 79.5375 154.644 79.6415 154.884 79.7695C155.14 79.8975 155.396 80.0255 155.652 80.1535C155.924 80.2815 156.196 80.3855 156.468 80.4655C156.756 80.5455 157.036 80.5855 157.308 80.5855C157.9 80.5855 158.372 80.4895 158.724 80.2975C159.076 80.0895 159.252 79.8015 159.252 79.4335C159.252 79.2255 159.196 79.0415 159.084 78.8815C158.972 78.7215 158.82 78.5935 158.628 78.4975C158.452 78.3855 158.236 78.2895 157.98 78.2095C157.74 78.1135 157.476 78.0335 157.188 77.9695C156.916 77.8895 156.628 77.8015 156.324 77.7055C155.924 77.5935 155.524 77.4575 155.124 77.2975C154.724 77.1375 154.364 76.9295 154.044 76.6735C153.74 76.4175 153.492 76.0975 153.3 75.7135C153.108 75.3295 153.012 74.8495 153.012 74.2735C153.012 73.5535 153.18 72.9455 153.516 72.4495C153.868 71.9375 154.372 71.5455 155.028 71.2735C155.684 71.0015 156.476 70.8655 157.404 70.8655C157.724 70.8655 158.028 70.8895 158.316 70.9375C158.62 70.9855 158.908 71.0575 159.18 71.1535C159.468 71.2335 159.74 71.3375 159.996 71.4655C160.268 71.5935 160.524 71.7375 160.764 71.8975C161.164 72.1215 161.372 72.3855 161.388 72.6895C161.404 72.9775 161.292 73.2895 161.052 73.6255C160.876 73.8495 160.7 74.0095 160.524 74.1055C160.348 74.1855 160.164 74.1855 159.972 74.1055C159.716 73.9775 159.436 73.8415 159.132 73.6975C158.844 73.5375 158.54 73.4015 158.22 73.2895C157.916 73.1775 157.596 73.1215 157.26 73.1215C156.94 73.1215 156.652 73.1695 156.396 73.2655C156.14 73.3615 155.948 73.4975 155.82 73.6735C155.692 73.8495 155.628 74.0575 155.628 74.2975C155.628 74.5215 155.692 74.7055 155.82 74.8495C155.948 74.9935 156.116 75.1135 156.324 75.2095C156.532 75.3055 156.78 75.3935 157.068 75.4735C157.356 75.5375 157.66 75.6015 157.98 75.6655C158.428 75.7615 158.884 75.8815 159.348 76.0255C159.812 76.1695 160.236 76.3695 160.62 76.6255C161.02 76.8815 161.34 77.2255 161.58 77.6575C161.82 78.0735 161.94 78.6175 161.94 79.2895C161.94 80.4575 161.508 81.3615 160.644 82.0015C159.796 82.6415 158.62 82.9615 157.116 82.9615ZM165.563 82.8175C165.131 82.8175 164.811 82.7455 164.603 82.6015C164.395 82.4735 164.267 82.3055 164.219 82.0975C164.171 81.8735 164.147 81.6255 164.147 81.3535V72.4255C164.147 72.1695 164.171 71.9375 164.219 71.7295C164.283 71.5055 164.411 71.3295 164.603 71.2015C164.811 71.0735 165.139 71.0095 165.587 71.0095C166.035 71.0095 166.355 71.0735 166.547 71.2015C166.755 71.3295 166.883 71.5055 166.931 71.7295C166.979 71.9535 167.003 72.2015 167.003 72.4735V81.3775C167.003 81.6495 166.979 81.8975 166.931 82.1215C166.883 82.3295 166.755 82.4975 166.547 82.6255C166.355 82.7535 166.027 82.8175 165.563 82.8175ZM165.563 68.6815C165.099 68.6815 164.755 68.6175 164.531 68.4895C164.323 68.3455 164.187 68.1535 164.123 67.9135C164.075 67.6735 164.051 67.4095 164.051 67.1215C164.051 66.8175 164.075 66.5535 164.123 66.3295C164.187 66.1055 164.331 65.9295 164.555 65.8015C164.779 65.6575 165.123 65.5855 165.587 65.5855C166.067 65.5855 166.411 65.6575 166.619 65.8015C166.827 65.9455 166.963 66.1375 167.027 66.3775C167.091 66.6015 167.123 66.8655 167.123 67.1695C167.123 67.4415 167.091 67.6975 167.027 67.9375C166.963 68.1775 166.827 68.3615 166.619 68.4895C166.411 68.6175 166.059 68.6815 165.563 68.6815ZM179.037 80.2255C179.453 80.5775 179.669 80.9055 179.685 81.2095C179.717 81.5135 179.557 81.8655 179.205 82.2655C178.933 82.5695 178.693 82.7695 178.485 82.8655C178.277 82.9615 178.069 82.9615 177.861 82.8655C177.653 82.7855 177.405 82.6255 177.117 82.3855L172.533 78.5215V81.3775C172.533 81.6335 172.501 81.8735 172.437 82.0975C172.389 82.3215 172.261 82.4975 172.053 82.6255C171.861 82.7535 171.541 82.8175 171.093 82.8175C170.645 82.8175 170.317 82.7455 170.109 82.6015C169.917 82.4735 169.797 82.2975 169.749 82.0735C169.701 81.8495 169.677 81.6095 169.677 81.3535V67.0255C169.677 66.7535 169.701 66.5135 169.749 66.3055C169.813 66.0815 169.941 65.9055 170.133 65.7775C170.341 65.6335 170.669 65.5615 171.117 65.5615C171.565 65.5615 171.885 65.6335 172.077 65.7775C172.269 65.9055 172.389 66.0815 172.437 66.3055C172.501 66.5135 172.533 66.7615 172.533 67.0495V74.9215L175.845 71.7055C176.101 71.4655 176.341 71.3055 176.565 71.2255C176.789 71.1295 177.005 71.1215 177.213 71.2015C177.437 71.2655 177.669 71.4335 177.909 71.7055C178.309 72.1375 178.501 72.4975 178.485 72.7855C178.469 73.0575 178.269 73.3855 177.885 73.7695L174.645 76.7695L179.037 80.2255ZM186.352 82.9615C185.584 82.9615 184.832 82.8175 184.096 82.5295C183.376 82.2255 182.72 81.8015 182.128 81.2575C181.552 80.7135 181.088 80.0735 180.736 79.3375C180.4 78.6015 180.232 77.7935 180.232 76.9135C180.232 76.0655 180.392 75.2735 180.712 74.5375C181.032 73.8015 181.472 73.1535 182.032 72.5935C182.592 72.0335 183.232 71.6015 183.952 71.2975C184.688 70.9775 185.472 70.8175 186.304 70.8175C187.424 70.8175 188.44 71.0895 189.352 71.6335C190.264 72.1615 190.992 72.8815 191.536 73.7935C192.08 74.7055 192.352 75.7375 192.352 76.8895C192.352 77.8015 192.184 78.6335 191.848 79.3855C191.512 80.1215 191.056 80.7615 190.48 81.3055C189.904 81.8335 189.256 82.2415 188.536 82.5295C187.832 82.8175 187.104 82.9615 186.352 82.9615ZM186.304 80.1295C186.832 80.1295 187.336 80.0015 187.816 79.7455C188.312 79.4735 188.712 79.0895 189.016 78.5935C189.336 78.0975 189.496 77.5135 189.496 76.8415C189.496 76.2175 189.352 75.6655 189.064 75.1855C188.792 74.7055 188.416 74.3295 187.936 74.0575C187.456 73.7855 186.904 73.6495 186.28 73.6495C185.688 73.6495 185.152 73.7935 184.672 74.0815C184.192 74.3535 183.808 74.7375 183.52 75.2335C183.248 75.7135 183.112 76.2575 183.112 76.8655C183.112 77.5375 183.264 78.1215 183.568 78.6175C183.872 79.0975 184.264 79.4735 184.744 79.7455C185.24 80.0015 185.76 80.1295 186.304 80.1295ZM198.366 82.8175C197.774 82.8175 197.246 82.7775 196.782 82.6975C196.334 82.6175 195.942 82.4815 195.606 82.2895C195.286 82.0975 195.022 81.8415 194.814 81.5215C194.606 81.1855 194.446 80.7775 194.334 80.2975C194.238 79.8175 194.19 79.2415 194.19 78.5695V67.0015C194.19 66.7295 194.214 66.4895 194.262 66.2815C194.326 66.0575 194.454 65.8815 194.646 65.7535C194.854 65.6095 195.182 65.5375 195.63 65.5375C196.078 65.5375 196.398 65.6015 196.59 65.7295C196.798 65.8575 196.926 66.0335 196.974 66.2575C197.038 66.4655 197.07 66.7055 197.07 66.9775V78.4495C197.07 78.7535 197.086 79.0095 197.118 79.2175C197.166 79.4095 197.238 79.5695 197.334 79.6975C197.446 79.8095 197.582 79.8895 197.742 79.9375C197.918 79.9855 198.126 80.0095 198.366 80.0095C198.574 80.0095 198.758 80.0335 198.918 80.0815C199.094 80.1295 199.23 80.2495 199.326 80.4415C199.438 80.6335 199.494 80.9455 199.494 81.3775C199.494 81.8255 199.438 82.1535 199.326 82.3615C199.23 82.5695 199.094 82.6975 198.918 82.7455C198.742 82.7935 198.558 82.8175 198.366 82.8175ZM206.743 82.9615C205.975 82.9615 205.223 82.8175 204.487 82.5295C203.767 82.2255 203.111 81.8015 202.519 81.2575C201.943 80.7135 201.479 80.0735 201.127 79.3375C200.791 78.6015 200.623 77.7935 200.623 76.9135C200.623 76.0655 200.783 75.2735 201.103 74.5375C201.423 73.8015 201.863 73.1535 202.423 72.5935C202.983 72.0335 203.623 71.6015 204.343 71.2975C205.079 70.9775 205.863 70.8175 206.695 70.8175C207.815 70.8175 208.831 71.0895 209.743 71.6335C210.655 72.1615 211.383 72.8815 211.927 73.7935C212.471 74.7055 212.743 75.7375 212.743 76.8895C212.743 77.8015 212.575 78.6335 212.239 79.3855C211.903 80.1215 211.447 80.7615 210.871 81.3055C210.295 81.8335 209.647 82.2415 208.927 82.5295C208.223 82.8175 207.495 82.9615 206.743 82.9615ZM206.695 80.1295C207.223 80.1295 207.727 80.0015 208.207 79.7455C208.703 79.4735 209.103 79.0895 209.407 78.5935C209.727 78.0975 209.887 77.5135 209.887 76.8415C209.887 76.2175 209.743 75.6655 209.455 75.1855C209.183 74.7055 208.807 74.3295 208.327 74.0575C207.847 73.7855 207.295 73.6495 206.671 73.6495C206.079 73.6495 205.543 73.7935 205.063 74.0815C204.583 74.3535 204.199 74.7375 203.911 75.2335C203.639 75.7135 203.503 76.2575 203.503 76.8655C203.503 77.5375 203.655 78.1215 203.959 78.6175C204.263 79.0975 204.655 79.4735 205.135 79.7455C205.631 80.0015 206.151 80.1295 206.695 80.1295ZM219.789 87.6175C219.213 87.6175 218.661 87.5455 218.133 87.4015C217.605 87.2735 217.125 87.0975 216.693 86.8735C216.277 86.6495 215.941 86.4095 215.685 86.1535C215.445 85.8975 215.325 85.6575 215.325 85.4335C215.325 85.2095 215.357 85.0175 215.421 84.8575C215.501 84.6975 215.613 84.5375 215.757 84.3775C215.949 84.1855 216.101 84.0415 216.213 83.9455C216.341 83.8495 216.509 83.8015 216.717 83.8015C216.893 83.8015 217.061 83.8655 217.221 83.9935C217.397 84.1215 217.597 84.2655 217.821 84.4255C218.045 84.5855 218.317 84.7295 218.637 84.8575C218.957 84.9855 219.365 85.0495 219.861 85.0495C220.277 85.0495 220.661 84.9775 221.013 84.8335C221.365 84.6895 221.661 84.4735 221.901 84.1855C222.157 83.9135 222.357 83.5855 222.501 83.2015C222.645 82.8175 222.717 82.3855 222.717 81.9055L222.693 71.9695C222.725 71.6015 222.853 71.3455 223.077 71.2015C223.301 71.0415 223.645 70.9615 224.109 70.9615C224.541 70.9615 224.853 71.0255 225.045 71.1535C225.237 71.2655 225.357 71.4335 225.405 71.6575C225.453 71.8655 225.477 72.0975 225.477 72.3535V82.0735C225.477 82.9535 225.325 83.7375 225.021 84.4255C224.717 85.1135 224.301 85.6895 223.773 86.1535C223.245 86.6335 222.637 86.9935 221.949 87.2335C221.277 87.4895 220.557 87.6175 219.789 87.6175ZM219.525 82.5055C218.773 82.5055 218.069 82.3615 217.413 82.0735C216.773 81.7855 216.205 81.3775 215.709 80.8495C215.229 80.3215 214.845 79.7135 214.557 79.0255C214.285 78.3215 214.149 77.5615 214.149 76.7455C214.149 75.9455 214.285 75.2015 214.557 74.5135C214.845 73.8255 215.229 73.2175 215.709 72.6895C216.205 72.1615 216.773 71.7535 217.413 71.4655C218.069 71.1615 218.765 71.0095 219.501 71.0095C220.221 71.0095 220.845 71.1535 221.373 71.4415C221.917 71.7135 222.365 72.1055 222.717 72.6175C223.069 73.1295 223.333 73.7375 223.509 74.4415C223.701 75.1455 223.797 75.9215 223.797 76.7695C223.797 77.9375 223.637 78.9535 223.317 79.8175C222.997 80.6815 222.525 81.3455 221.901 81.8095C221.277 82.2735 220.485 82.5055 219.525 82.5055ZM219.789 79.7935C220.333 79.7935 220.813 79.6655 221.229 79.4095C221.661 79.1375 221.997 78.7695 222.237 78.3055C222.493 77.8415 222.621 77.3215 222.621 76.7455C222.621 76.1535 222.493 75.6335 222.237 75.1855C221.997 74.7215 221.661 74.3615 221.229 74.1055C220.797 73.8495 220.309 73.7215 219.765 73.7215C219.221 73.7215 218.733 73.8575 218.301 74.1295C217.885 74.3855 217.557 74.7375 217.317 75.1855C217.077 75.6335 216.957 76.1535 216.957 76.7455C216.957 77.3375 217.077 77.8655 217.317 78.3295C217.573 78.7775 217.909 79.1375 218.325 79.4095C218.757 79.6655 219.245 79.7935 219.789 79.7935ZM229.571 82.8175C229.139 82.8175 228.819 82.7455 228.611 82.6015C228.403 82.4735 228.275 82.3055 228.227 82.0975C228.179 81.8735 228.155 81.6255 228.155 81.3535V72.4255C228.155 72.1695 228.179 71.9375 228.227 71.7295C228.291 71.5055 228.419 71.3295 228.611 71.2015C228.819 71.0735 229.147 71.0095 229.595 71.0095C230.043 71.0095 230.363 71.0735 230.555 71.2015C230.763 71.3295 230.891 71.5055 230.939 71.7295C230.987 71.9535 231.011 72.2015 231.011 72.4735V81.3775C231.011 81.6495 230.987 81.8975 230.939 82.1215C230.891 82.3295 230.763 82.4975 230.555 82.6255C230.363 82.7535 230.035 82.8175 229.571 82.8175ZM229.571 68.6815C229.107 68.6815 228.763 68.6175 228.539 68.4895C228.331 68.3455 228.195 68.1535 228.131 67.9135C228.083 67.6735 228.059 67.4095 228.059 67.1215C228.059 66.8175 228.083 66.5535 228.131 66.3295C228.195 66.1055 228.339 65.9295 228.563 65.8015C228.787 65.6575 229.131 65.5855 229.595 65.5855C230.075 65.5855 230.419 65.6575 230.627 65.8015C230.835 65.9455 230.971 66.1375 231.035 66.3775C231.099 66.6015 231.131 66.8655 231.131 67.1695C231.131 67.4415 231.099 67.6975 231.035 67.9375C230.971 68.1775 230.835 68.3615 230.627 68.4895C230.419 68.6175 230.067 68.6815 229.571 68.6815ZM237.741 82.9615C237.325 82.9615 236.885 82.9135 236.421 82.8175C235.957 82.7375 235.509 82.6175 235.077 82.4575C234.645 82.2815 234.269 82.0815 233.949 81.8575C233.645 81.6175 233.453 81.3535 233.373 81.0655C233.309 80.9055 233.285 80.7535 233.301 80.6095C233.317 80.4495 233.365 80.2895 233.445 80.1295C233.525 79.9535 233.645 79.7775 233.805 79.6015C233.949 79.4255 234.093 79.3295 234.237 79.3135C234.397 79.2815 234.597 79.3295 234.837 79.4575C235.045 79.5375 235.269 79.6415 235.509 79.7695C235.765 79.8975 236.021 80.0255 236.277 80.1535C236.549 80.2815 236.821 80.3855 237.093 80.4655C237.381 80.5455 237.661 80.5855 237.933 80.5855C238.525 80.5855 238.997 80.4895 239.349 80.2975C239.701 80.0895 239.877 79.8015 239.877 79.4335C239.877 79.2255 239.821 79.0415 239.709 78.8815C239.597 78.7215 239.445 78.5935 239.253 78.4975C239.077 78.3855 238.861 78.2895 238.605 78.2095C238.365 78.1135 238.101 78.0335 237.813 77.9695C237.541 77.8895 237.253 77.8015 236.949 77.7055C236.549 77.5935 236.149 77.4575 235.749 77.2975C235.349 77.1375 234.989 76.9295 234.669 76.6735C234.365 76.4175 234.117 76.0975 233.925 75.7135C233.733 75.3295 233.637 74.8495 233.637 74.2735C233.637 73.5535 233.805 72.9455 234.141 72.4495C234.493 71.9375 234.997 71.5455 235.653 71.2735C236.309 71.0015 237.101 70.8655 238.029 70.8655C238.349 70.8655 238.653 70.8895 238.941 70.9375C239.245 70.9855 239.533 71.0575 239.805 71.1535C240.093 71.2335 240.365 71.3375 240.621 71.4655C240.893 71.5935 241.149 71.7375 241.389 71.8975C241.789 72.1215 241.997 72.3855 242.013 72.6895C242.029 72.9775 241.917 73.2895 241.677 73.6255C241.501 73.8495 241.325 74.0095 241.149 74.1055C240.973 74.1855 240.789 74.1855 240.597 74.1055C240.341 73.9775 240.061 73.8415 239.757 73.6975C239.469 73.5375 239.165 73.4015 238.845 73.2895C238.541 73.1775 238.221 73.1215 237.885 73.1215C237.565 73.1215 237.277 73.1695 237.021 73.2655C236.765 73.3615 236.573 73.4975 236.445 73.6735C236.317 73.8495 236.253 74.0575 236.253 74.2975C236.253 74.5215 236.317 74.7055 236.445 74.8495C236.573 74.9935 236.741 75.1135 236.949 75.2095C237.157 75.3055 237.405 75.3935 237.693 75.4735C237.981 75.5375 238.285 75.6015 238.605 75.6655C239.053 75.7615 239.509 75.8815 239.973 76.0255C240.437 76.1695 240.861 76.3695 241.245 76.6255C241.645 76.8815 241.965 77.2255 242.205 77.6575C242.445 78.0735 242.565 78.6175 242.565 79.2895C242.565 80.4575 242.133 81.3615 241.269 82.0015C240.421 82.6415 239.245 82.9615 237.741 82.9615Z" fill="black"/>
</svg>
