<svg width="400" height="120" viewBox="0 0 400 120" fill="none" xmlns="http://www.w3.org/2000/svg">
<mask id="mask0_62_2409" style="mask-type:luminance" maskUnits="userSpaceOnUse" x="0" y="0" width="400" height="120">
<path d="M400 0H0V120H400V0Z" fill="white"/>
</mask>
<g mask="url(#mask0_62_2409)">
<mask id="mask1_62_2409" style="mask-type:luminance" maskUnits="userSpaceOnUse" x="9" y="9" width="388" height="111">
<path d="M9.33838 9.33325H396.887V119.354H9.33838V9.33325Z" fill="white"/>
</mask>
<g mask="url(#mask1_62_2409)">
<path d="M15.789 72.3853L12.3965 62.3593L17.7893 51.8749L13.0349 41.3958L9.77612 30.9114L12.1047 19.3541L26.2584 18.2343L39.1779 15.5937L52.3406 21.4739L65.1142 13.7499L78.3376 21.7083L91.2267 17.9635L104.365 22.901L117.358 22.677L130.405 24.3437L143.318 21.4218L155.618 17.1093L167.972 14.5624L180.326 12.0989L192.783 13.2135L205.32 17.1249L217.838 20.3437L230.253 20.0728L242.4 10.3072L255.064 18.6874L267.503 19.1718L279.742 12.4791L292.084 9.53638L304.906 12.9062L318.19 14.7655L328.447 23.3958L341.367 25.4062L352.316 32.3385L368.294 26.7083L380.204 31.2239L396.346 37.177L387.475 50.3385L387.159 62.0937L374.361 69.8593L369.875 80.2812L373.796 93.3957L367.57 103.266L364.391 115.974L345.853 109.745L333.335 117.432L320.227 109.989L307.782 119.823L294.631 110.969L281.864 112.432L269.005 111.359L256.444 118.932L243.555 117.01L230.824 121.224L218.355 114.521L205.222 119.724L193.081 116.047L180.727 115.328L168.306 115.838L155.903 115.969L143.829 110.542L131.396 111.203L119.346 105.146L106.274 116.76L94.5645 104.833L81.5599 115.427L69.6375 107.245L57.5023 102.453L44.6436 110.724L27.2615 111.552L29.4685 98.1405L22.7929 90.2291L11.0103 83.578L15.789 72.3853Z" fill="black"/>
<path d="M15.789 72.3853L12.3965 62.3593L17.7893 51.8749L13.0349 41.3958L9.77612 30.9114L12.1047 19.3541L26.2584 18.2343L39.1779 15.5937L52.3406 21.4739L65.1142 13.7499L78.3376 21.7083L91.2267 17.9635L104.365 22.901L117.358 22.677L130.405 24.3437L143.318 21.4218L155.618 17.1093L167.972 14.5624L180.326 12.0989L192.783 13.2135L205.32 17.1249L217.838 20.3437L230.253 20.0728L242.4 10.3072L255.064 18.6874L267.503 19.1718L279.742 12.4791L292.084 9.53638L304.906 12.9062L318.19 14.7655L328.447 23.3958L341.367 25.4062L352.316 32.3385L368.294 26.7083L380.204 31.2239L396.346 37.177L387.475 50.3385L387.159 62.0937L374.361 69.8593L369.875 80.2812L373.796 93.3957L367.57 103.266L364.391 115.974L345.853 109.745L333.335 117.432L320.227 109.989L307.782 119.823L294.631 110.969L281.864 112.432L269.005 111.359L256.444 118.932L243.555 117.01L230.824 121.224L218.355 114.521L205.222 119.724L193.081 116.047L180.727 115.328L168.306 115.838L155.903 115.969L143.829 110.542L131.396 111.203L119.346 105.146L106.274 116.76L94.5645 104.833L81.5599 115.427L69.6375 107.245L57.5023 102.453L44.6436 110.724L27.2615 111.552L29.4685 98.1405L22.7929 90.2291L11.0103 83.578L15.789 72.3853Z" fill="black"/>
</g>
<mask id="mask2_62_2409" style="mask-type:luminance" maskUnits="userSpaceOnUse" x="7" y="7" width="391" height="113">
<path d="M7.78198 7.99988H397.586V119.354H7.78198V7.99988Z" fill="white"/>
</mask>
<g mask="url(#mask2_62_2409)">
<path d="M230.739 121.984L218.3 115.307L205.265 120.474L192.917 116.734L180.721 115.99L168.342 116.495L155.715 116.63L143.653 111.203L131.207 111.885L119.485 105.995L106.238 117.766L94.5037 105.812L81.6085 116.328L69.2058 107.849L57.6056 103.26L44.9111 111.401L26.3131 112.286L28.6355 98.3489L22.1971 90.7239L10.0497 83.8489L14.9561 72.3645L11.5575 62.3124L16.932 51.8541L12.2627 41.5728L8.95532 30.9426L11.4237 18.7291L26.1671 17.5572L39.2812 14.901L52.2737 20.703L65.1141 12.9166L78.4653 20.953L91.2632 17.2291L104.523 22.2135L117.406 21.9895L130.356 23.6562L143.051 20.776L155.423 16.4426L167.765 13.8958L180.259 11.4166L193.038 12.5728L205.569 16.4843L217.941 19.651L229.931 19.3958L242.345 9.40617L255.356 18.0103L267.26 18.4687L279.383 11.8489L292.078 8.81763L305.076 12.2083L318.561 14.0937L328.83 22.7291L341.683 24.7239L352.414 31.5103L368.282 25.9218L380.514 30.552L397.483 36.8489L388.272 50.526L387.962 62.453L375.03 70.2968L370.714 80.3228L374.678 93.4843L368.33 103.505L364.95 116.906L345.951 110.516L333.335 118.26L320.294 110.854L307.824 120.74L294.413 111.703L281.882 113.146L269.188 112.078L256.627 119.651L243.634 117.719L230.739 121.984ZM218.415 113.75L230.915 120.463L243.47 116.307L256.256 118.213L268.792 110.656L281.852 111.755L294.856 110.255L307.739 118.932L320.148 109.13L333.317 116.594L345.744 108.969L363.801 115.031L366.816 103.016L372.951 93.2968L369.048 80.2343L373.681 69.427L386.375 61.7135L386.685 50.1822L395.215 37.4947L379.894 31.8645L368.276 27.4583L352.201 33.1249L341.038 26.0468L328.064 24.0155L317.807 15.3958L304.651 13.5468L292.054 10.2291L280.058 13.1093L267.704 19.8958L254.76 19.3958L242.437 11.2499L230.532 20.7916L217.68 21.078L205.04 17.828L192.601 13.8853L180.374 12.7916L168.184 15.2291L155.867 17.7499L143.525 22.078L130.453 25.0364L117.303 23.3541L104.207 23.5885L91.2267 18.6926L78.216 22.4687L65.1141 14.578L52.4196 22.2708L39.0927 16.3124L26.3313 18.9062L12.7856 19.9843L10.5847 30.8801L13.7948 41.1822L18.6526 51.8905L13.2476 62.3905L16.6462 72.4114L11.9952 83.3072L23.3705 89.7239L30.3135 97.9687L28.1978 110.823L44.376 110.057L57.4232 101.667L70.1178 106.708L81.5113 114.521L94.6192 103.844L106.298 115.745L119.194 104.286L131.572 110.516L143.987 109.833L156.08 115.26L168.282 115.135L180.721 114.62L193.227 115.349L205.125 118.958L218.415 113.75Z" fill="black"/>
</g>
<mask id="mask3_62_2409" style="mask-type:luminance" maskUnits="userSpaceOnUse" x="3" y="1" width="388" height="113">
<path d="M3.11279 1.08325H390.661V113.333H3.11279V1.08325Z" fill="white"/>
</mask>
<g mask="url(#mask3_62_2409)">
<path d="M9.78237 63.3954L6.39594 53.3642L11.7826 42.8798L7.02824 32.4006L3.75732 21.9163L6.09804 10.3642L20.2457 9.23918L33.1712 6.60376L46.3339 12.4788L59.1075 4.7548L72.3249 12.7183L85.2201 8.96313L98.3585 13.9111L111.345 13.6819L124.398 15.359L137.312 12.4319L149.611 8.10897L161.965 5.5673L174.319 3.10897L186.777 4.22355L199.313 8.1298L211.825 11.3486L224.246 11.0777L236.387 1.31209L249.058 9.69751L261.497 10.1819L273.735 3.48918L286.077 0.54126L298.9 3.91626L312.184 5.77043L322.44 14.4058L335.36 16.4163L346.31 23.3433L362.281 17.7131L374.197 22.2288L390.339 28.1767L381.469 41.3486L381.153 53.1038L368.355 60.8642L363.868 71.2913L367.796 84.4006L361.564 94.2704L358.378 106.979L339.847 100.755L327.329 108.442L314.221 101L301.775 110.833L288.619 101.974L275.851 103.442L262.999 102.364L250.432 109.937L237.549 108.026L224.818 112.234L212.348 105.526L199.216 110.729L187.068 107.062L174.726 106.333L162.299 106.849L149.897 106.979L137.822 101.546L125.389 102.208L113.339 96.1558L100.268 107.765L88.5579 95.8433L75.5533 106.427L63.6248 98.2444L51.5017 93.4579L38.6369 101.734L21.2488 102.557L23.4618 89.1506L16.7863 81.234L5.00368 74.5829L9.78237 63.3954Z" fill="white"/>
</g>
<mask id="mask4_62_2409" style="mask-type:luminance" maskUnits="userSpaceOnUse" x="0" y="1" width="396" height="115">
<path d="M0.674805 1.08337H395.331V116H0.674805V1.08337Z" fill="white"/>
</mask>
<g mask="url(#mask4_62_2409)">
<path d="M224.52 115.01L212.147 108.365L199.386 113.422L186.491 109.521L174.708 108.844L162.348 109.349L149.21 109.49L137.202 104.063L124.69 104.74L113.862 99.3126L100.146 111.526L88.3389 99.5105L75.7234 109.745L62.0743 100.385L51.8542 96.3542L39.6521 104.182L17.8318 105.214L20.3732 89.7917L14.7007 83.0626L1.44077 75.599L6.68153 63.3282L3.30118 53.1875L8.62097 42.8282L4.20099 33.0417L0.778076 22.0313L3.61125 8.05733L19.7713 6.76046L33.5541 3.95837L46.1027 9.56254L59.1013 1.69796L72.7929 9.94275L85.3537 6.29171L98.942 11.4011L111.539 11.1823L124.234 12.8125L136.381 10.0573L148.705 5.72921L161.284 3.14587L174.13 0.578167L187.433 1.77608L200.231 5.76567L212.22 8.84379L223.06 8.60421L236.205 -1.9635L250.115 7.23442L260.706 7.65108L272.525 1.18233L286.12 -2.05725L299.568 1.48442L313.564 3.43754L323.875 12.0886L336.57 14.0625L346.705 20.5L362.311 14.9948L375.365 19.948L394.492 27L384.369 42.0417L384.04 54.4115L370.787 62.4532L366.92 71.4219L370.89 84.724L364.318 95.1459L360.494 110.38L340.248 103.594L327.377 111.495L314.5 104.182L301.909 114.13L287.767 104.63L275.869 105.99L263.752 104.979L251.058 112.609L237.767 110.635L224.52 115.01ZM212.561 102.693L225.128 109.474L237.214 105.448L249.708 107.302L262.172 99.7917L275.772 100.932L289.427 99.3594L301.593 107.557L313.886 97.8334L327.231 105.412L339.403 97.948L356.226 103.589L358.779 93.4115L364.683 84.1042L360.816 71.2136L365.929 59.3334L378.277 51.8698L378.569 40.6823L386.174 29.3959L373.036 24.5573L362.238 20.4844L345.908 26.1823L334.168 18.7605L321.036 16.7292L310.791 8.11983L298.237 6.35421L286.041 3.14587L274.933 5.79171L262.293 12.7032L248.012 12.1563L236.576 4.58858L225.432 13.5469L211.436 13.849L198.31 10.4584L186.108 6.65108L174.532 5.63546L162.634 8.00525L150.517 10.4948L138.242 14.8021L124.55 17.9011L111.156 16.1823L97.7625 16.4167L85.068 11.6667L71.8688 15.4844L59.1074 7.80733L46.5648 15.3959L32.782 9.24483L20.7197 11.7084L8.59058 12.6719L6.74233 21.8073L9.80653 31.625L14.9379 42.9428L9.50254 53.573L12.8647 63.5209L8.53586 73.5886L18.8471 79.4063L26.5198 88.5053L24.6412 99.8959L37.5971 99.2865L51.1489 90.5678L65.175 96.1094L75.3586 103.099L88.7949 92.2448L100.419 104.068L112.828 93.0365L126.137 99.7084L138.497 99.0261L150.602 104.453L162.214 104.333L174.757 103.818L187.67 104.568L199.064 108.016L212.561 102.693Z" fill="black"/>
<path d="M224.52 115.01L212.147 108.365L199.386 113.422L186.491 109.521L174.708 108.844L162.348 109.349L149.21 109.49L137.202 104.063L124.69 104.74L113.862 99.3126L100.146 111.526L88.3389 99.5105L75.7234 109.745L62.0743 100.385L51.8542 96.3542L39.6521 104.182L17.8318 105.214L20.3732 89.7917L14.7007 83.0626L1.44077 75.599L6.68153 63.3282L3.30118 53.1875L8.62097 42.8282L4.20099 33.0417L0.778076 22.0313L3.61125 8.05733L19.7713 6.76046L33.5541 3.95837L46.1027 9.56254L59.1013 1.69796L72.7929 9.94275L85.3537 6.29171L98.942 11.4011L111.539 11.1823L124.234 12.8125L136.381 10.0573L148.705 5.72921L161.284 3.14587L174.13 0.578167L187.433 1.77608L200.231 5.76567L212.22 8.84379L223.06 8.60421L236.205 -1.9635L250.115 7.23442L260.706 7.65108L272.525 1.18233L286.12 -2.05725L299.568 1.48442L313.564 3.43754L323.875 12.0886L336.57 14.0625L346.705 20.5L362.311 14.9948L375.365 19.948L394.492 27L384.369 42.0417L384.04 54.4115L370.787 62.4532L366.92 71.4219L370.89 84.724L364.318 95.1459L360.494 110.38L340.248 103.594L327.377 111.495L314.5 104.182L301.909 114.13L287.767 104.63L275.869 105.99L263.752 104.979L251.058 112.609L237.767 110.635L224.52 115.01ZM212.561 102.693L225.128 109.474L237.214 105.448L249.708 107.302L262.172 99.7917L275.772 100.932L289.427 99.3594L301.593 107.557L313.886 97.8334L327.231 105.412L339.403 97.948L356.226 103.589L358.779 93.4115L364.683 84.1042L360.816 71.2136L365.929 59.3334L378.277 51.8698L378.569 40.6823L386.174 29.3959L373.036 24.5573L362.238 20.4844L345.908 26.1823L334.168 18.7605L321.036 16.7292L310.791 8.11983L298.237 6.35421L286.041 3.14587L274.933 5.79171L262.293 12.7032L248.012 12.1563L236.576 4.58858L225.432 13.5469L211.436 13.849L198.31 10.4584L186.108 6.65108L174.532 5.63546L162.634 8.00525L150.517 10.4948L138.242 14.8021L124.55 17.9011L111.156 16.1823L97.7625 16.4167L85.068 11.6667L71.8688 15.4844L59.1074 7.80733L46.5648 15.3959L32.782 9.24483L20.7197 11.7084L8.59058 12.6719L6.74233 21.8073L9.80653 31.625L14.9379 42.9428L9.50254 53.573L12.8647 63.5209L8.53586 73.5886L18.8471 79.4063L26.5198 88.5053L24.6412 99.8959L37.5971 99.2865L51.1489 90.5678L65.175 96.1094L75.3586 103.099L88.7949 92.2448L100.419 104.068L112.828 93.0365L126.137 99.7084L138.497 99.0261L150.602 104.453L162.214 104.333L174.757 103.818L187.67 104.568L199.064 108.016L212.561 102.693Z" fill="black"/>
</g>
</g>
<path d="M25.2684 53.2582C24.8204 53.2582 24.4924 53.1942 24.2844 53.0662C24.0764 52.9382 23.9484 52.7622 23.9004 52.5382C23.8524 52.2982 23.8284 52.0502 23.8284 51.7942V37.9462C23.8284 37.6902 23.8524 37.4582 23.9004 37.2502C23.9644 37.0262 24.1004 36.8502 24.3084 36.7222C24.5164 36.5782 24.8444 36.5062 25.2924 36.5062H30.3804C31.0844 36.5062 31.7724 36.6262 32.4444 36.8662C33.1164 37.1062 33.7164 37.4662 34.2444 37.9462C34.7884 38.4262 35.2124 39.0182 35.5164 39.7222C35.8364 40.4262 35.9964 41.2502 35.9964 42.1942C35.9964 43.1222 35.8364 43.9382 35.5164 44.6422C35.2124 45.3302 34.7884 45.9142 34.2444 46.3942C33.7004 46.8742 33.0924 47.2342 32.4204 47.4742C31.7644 47.7142 31.0764 47.8342 30.3564 47.8342H26.7324V51.8182C26.7324 52.0742 26.7004 52.3142 26.6364 52.5382C26.5884 52.7622 26.4604 52.9382 26.2524 53.0662C26.0604 53.1942 25.7324 53.2582 25.2684 53.2582ZM26.7324 44.9062H30.3804C30.8764 44.9062 31.3244 44.8102 31.7244 44.6182C32.1404 44.4102 32.4764 44.1062 32.7324 43.7062C32.9884 43.2902 33.1164 42.7702 33.1164 42.1462C33.1164 41.5862 32.9964 41.1062 32.7564 40.7062C32.5324 40.2902 32.2124 39.9702 31.7964 39.7462C31.3964 39.5222 30.9164 39.4102 30.3564 39.4102H26.7324V44.9062ZM43.7636 53.4262C42.7236 53.4262 41.8116 53.2582 41.0276 52.9222C40.2596 52.5862 39.6116 52.1302 39.0836 51.5542C38.5716 50.9622 38.1796 50.3062 37.9076 49.5862C37.6516 48.8502 37.5236 48.0902 37.5236 47.3062C37.5236 46.1542 37.7876 45.1302 38.3156 44.2342C38.8436 43.3382 39.5716 42.6342 40.4996 42.1222C41.4436 41.6102 42.5236 41.3542 43.7396 41.3542C44.6036 41.3542 45.3636 41.4902 46.0196 41.7622C46.6756 42.0342 47.2196 42.3942 47.6516 42.8422C48.0996 43.2742 48.4356 43.7542 48.6596 44.2822C48.8996 44.8102 49.0196 45.3222 49.0196 45.8182C49.0196 46.6662 48.8116 47.2822 48.3956 47.6662C47.9956 48.0502 47.4916 48.2422 46.8836 48.2422H40.5476C40.5636 48.7862 40.7316 49.2582 41.0516 49.6582C41.3876 50.0582 41.8036 50.3702 42.2996 50.5942C42.8116 50.8022 43.3316 50.9062 43.8596 50.9062C44.2596 50.9062 44.6116 50.8822 44.9156 50.8342C45.2356 50.7862 45.5076 50.7302 45.7316 50.6662C45.9556 50.5862 46.1476 50.5062 46.3076 50.4262C46.4836 50.3462 46.6436 50.2742 46.7876 50.2102C46.9316 50.1462 47.0676 50.1062 47.1956 50.0902C47.3716 50.0742 47.5476 50.1142 47.7236 50.2102C47.8996 50.3062 48.0436 50.4742 48.1556 50.7142C48.2516 50.8742 48.3156 51.0262 48.3476 51.1702C48.3956 51.2982 48.4196 51.4262 48.4196 51.5542C48.4196 51.8742 48.2276 52.1782 47.8436 52.4662C47.4596 52.7382 46.9156 52.9622 46.2116 53.1382C45.5236 53.3302 44.7076 53.4262 43.7636 53.4262ZM40.5476 46.5382H45.4676C45.7396 46.5382 45.9476 46.4982 46.0916 46.4182C46.2356 46.3222 46.3076 46.1302 46.3076 45.8422C46.3076 45.4742 46.1956 45.1462 45.9716 44.8582C45.7476 44.5542 45.4436 44.3222 45.0596 44.1622C44.6756 43.9862 44.2276 43.8982 43.7156 43.8982C43.1236 43.8982 42.5876 44.0182 42.1076 44.2582C41.6276 44.4822 41.2436 44.7942 40.9556 45.1942C40.6836 45.5942 40.5476 46.0422 40.5476 46.5382ZM52.4051 53.2582C51.9731 53.2582 51.6531 53.1862 51.4451 53.0422C51.2531 52.9142 51.1331 52.7462 51.0851 52.5382C51.0371 52.3142 51.0131 52.0662 51.0131 51.7942V42.8182C51.0131 42.5622 51.0371 42.3302 51.0851 42.1222C51.1331 41.9142 51.2611 41.7542 51.4691 41.6422C51.6771 41.5142 51.9971 41.4502 52.4291 41.4502C52.8131 41.4502 53.1011 41.4982 53.2931 41.5942C53.4851 41.6902 53.6131 41.8102 53.6771 41.9542C53.7411 42.0982 53.7731 42.2422 53.7731 42.3862C53.7891 42.5302 53.8051 42.6422 53.8211 42.7222L53.7251 43.4902C53.8211 43.2342 53.9811 42.9862 54.2051 42.7462C54.4291 42.5062 54.7011 42.2902 55.0211 42.0982C55.3411 41.8902 55.6851 41.7302 56.0531 41.6182C56.4371 41.4902 56.8291 41.4262 57.2291 41.4262C57.9811 41.4262 58.6531 41.5622 59.2451 41.8342C59.8371 42.1062 60.3411 42.4902 60.7571 42.9862C61.1891 43.4822 61.5171 44.0742 61.7411 44.7622C61.9651 45.4342 62.0771 46.1942 62.0771 47.0422V51.8182C62.0771 52.0902 62.0451 52.3382 61.9811 52.5622C61.9331 52.7702 61.8131 52.9382 61.6211 53.0662C61.4291 53.1942 61.1011 53.2582 60.6371 53.2582C60.1891 53.2582 59.8611 53.1862 59.6531 53.0422C59.4451 52.9142 59.3171 52.7462 59.2691 52.5382C59.2211 52.3142 59.1971 52.0662 59.1971 51.7942V47.0182C59.1971 46.4422 59.0931 45.9462 58.8851 45.5302C58.6931 45.1142 58.4051 44.7942 58.0211 44.5702C57.6531 44.3462 57.1811 44.2342 56.6051 44.2342C56.0451 44.2342 55.5571 44.3542 55.1411 44.5942C54.7251 44.8182 54.4051 45.1382 54.1811 45.5542C53.9571 45.9702 53.8451 46.4582 53.8451 47.0182V51.8182C53.8451 52.0902 53.8211 52.3382 53.7731 52.5622C53.7251 52.7702 53.5971 52.9382 53.3891 53.0662C53.1971 53.1942 52.8691 53.2582 52.4051 53.2582ZM66.6682 58.0102C66.1562 57.7862 65.8602 57.5302 65.7802 57.2422C65.7002 56.9702 65.7722 56.6022 65.9962 56.1382L72.1882 42.2662C72.4122 41.7542 72.6522 41.4502 72.9082 41.3542C73.1642 41.2422 73.5562 41.2982 74.0842 41.5222C74.5802 41.7462 74.8682 41.9942 74.9482 42.2662C75.0442 42.5382 74.9882 42.9062 74.7802 43.3702L68.5402 57.3142C68.3322 57.8262 68.1002 58.1222 67.8442 58.2022C67.5882 58.2982 67.1962 58.2342 66.6682 58.0102ZM68.9002 52.1302L63.3562 43.6102C63.0682 43.1782 62.9482 42.8182 62.9962 42.5302C63.0602 42.2422 63.3162 41.9622 63.7642 41.6902C64.2602 41.3862 64.6442 41.2662 64.9162 41.3302C65.2042 41.3942 65.4922 41.6502 65.7802 42.0982L70.1722 48.9382L68.9002 52.1302ZM82.4354 53.4262C81.3954 53.4262 80.4834 53.2582 79.6994 52.9222C78.9314 52.5862 78.2834 52.1302 77.7554 51.5542C77.2434 50.9622 76.8514 50.3062 76.5794 49.5862C76.3234 48.8502 76.1954 48.0902 76.1954 47.3062C76.1954 46.1542 76.4594 45.1302 76.9874 44.2342C77.5154 43.3382 78.2434 42.6342 79.1714 42.1222C80.1154 41.6102 81.1954 41.3542 82.4114 41.3542C83.2754 41.3542 84.0354 41.4902 84.6914 41.7622C85.3474 42.0342 85.8914 42.3942 86.3234 42.8422C86.7714 43.2742 87.1074 43.7542 87.3314 44.2822C87.5714 44.8102 87.6914 45.3222 87.6914 45.8182C87.6914 46.6662 87.4834 47.2822 87.0674 47.6662C86.6674 48.0502 86.1634 48.2422 85.5554 48.2422H79.2194C79.2354 48.7862 79.4034 49.2582 79.7234 49.6582C80.0594 50.0582 80.4754 50.3702 80.9714 50.5942C81.4834 50.8022 82.0034 50.9062 82.5314 50.9062C82.9314 50.9062 83.2834 50.8822 83.5874 50.8342C83.9074 50.7862 84.1794 50.7302 84.4034 50.6662C84.6274 50.5862 84.8194 50.5062 84.9794 50.4262C85.1554 50.3462 85.3154 50.2742 85.4594 50.2102C85.6034 50.1462 85.7394 50.1062 85.8674 50.0902C86.0434 50.0742 86.2194 50.1142 86.3954 50.2102C86.5714 50.3062 86.7154 50.4742 86.8274 50.7142C86.9234 50.8742 86.9874 51.0262 87.0194 51.1702C87.0674 51.2982 87.0914 51.4262 87.0914 51.5542C87.0914 51.8742 86.8994 52.1782 86.5154 52.4662C86.1314 52.7382 85.5874 52.9622 84.8834 53.1382C84.1954 53.3302 83.3794 53.4262 82.4354 53.4262ZM79.2194 46.5382H84.1394C84.4114 46.5382 84.6194 46.4982 84.7634 46.4182C84.9074 46.3222 84.9794 46.1302 84.9794 45.8422C84.9794 45.4742 84.8674 45.1462 84.6434 44.8582C84.4194 44.5542 84.1154 44.3222 83.7314 44.1622C83.3474 43.9862 82.8994 43.8982 82.3874 43.8982C81.7954 43.8982 81.2594 44.0182 80.7794 44.2582C80.2994 44.4822 79.9154 44.7942 79.6274 45.1942C79.3554 45.5942 79.2194 46.0422 79.2194 46.5382ZM95.8289 53.2582C95.0449 53.2582 94.3409 53.1062 93.7169 52.8022C93.1089 52.4822 92.5889 52.0502 92.1569 51.5062C91.7409 50.9622 91.4209 50.3382 91.1969 49.6342C90.9889 48.9142 90.8849 48.1462 90.8849 47.3302C90.9009 46.5142 91.0209 45.7542 91.2449 45.0502C91.4689 44.3302 91.7889 43.7062 92.2049 43.1782C92.6369 42.6342 93.1569 42.2102 93.7649 41.9062C94.3729 41.6022 95.0609 41.4502 95.8289 41.4502C96.5649 41.4502 97.2529 41.6022 97.8929 41.9062C98.5489 42.2102 99.1249 42.6342 99.6209 43.1782C100.133 43.7062 100.533 44.3302 100.821 45.0502C101.109 45.7542 101.253 46.5062 101.253 47.3062C101.253 48.1382 101.109 48.9222 100.821 49.6582C100.533 50.3782 100.141 51.0102 99.6449 51.5542C99.1489 52.0822 98.5729 52.4982 97.9169 52.8022C97.2609 53.1062 96.5649 53.2582 95.8289 53.2582ZM95.4449 50.4502C96.0049 50.4502 96.5089 50.3222 96.9569 50.0662C97.4049 49.7942 97.7569 49.4262 98.0129 48.9622C98.2849 48.4982 98.4209 47.9702 98.4209 47.3782C98.4209 46.7702 98.2849 46.2342 98.0129 45.7702C97.7569 45.2902 97.4049 44.9222 96.9569 44.6662C96.5089 44.3942 96.0049 44.2582 95.4449 44.2582C94.9009 44.2582 94.4049 44.3942 93.9569 44.6662C93.5089 44.9382 93.1489 45.3062 92.8769 45.7702C92.6209 46.2342 92.4929 46.7702 92.4929 47.3782C92.4929 47.9702 92.6209 48.4982 92.8769 48.9622C93.1489 49.4262 93.5089 49.7942 93.9569 50.0662C94.4049 50.3222 94.9009 50.4502 95.4449 50.4502ZM91.0049 53.2822C90.5729 53.2822 90.2529 53.2102 90.0449 53.0662C89.8369 52.9382 89.7089 52.7702 89.6609 52.5622C89.6129 52.3382 89.5889 52.0902 89.5889 51.8182V37.5142C89.5889 37.2422 89.6129 37.0022 89.6609 36.7942C89.7089 36.5702 89.8369 36.3942 90.0449 36.2662C90.2529 36.1382 90.5729 36.0742 91.0049 36.0742C91.4529 36.0742 91.7729 36.1382 91.9649 36.2662C92.1569 36.3942 92.2769 36.5702 92.3249 36.7942C92.3729 37.0182 92.3969 37.2582 92.3969 37.5142V52.2982C92.3329 52.6502 92.1969 52.8982 91.9889 53.0422C91.7969 53.2022 91.4689 53.2822 91.0049 53.2822ZM113.024 53.2342C112.56 53.2342 112.216 53.1462 111.992 52.9702C111.768 52.7942 111.656 52.5542 111.656 52.2502L111.824 51.4582C111.696 51.6662 111.48 51.9142 111.176 52.2022C110.872 52.4742 110.472 52.7222 109.976 52.9462C109.48 53.1542 108.88 53.2582 108.176 53.2582C107.424 53.2582 106.712 53.1062 106.04 52.8022C105.384 52.4822 104.8 52.0502 104.288 51.5062C103.792 50.9462 103.392 50.3142 103.088 49.6102C102.8 48.8902 102.656 48.1222 102.656 47.3062C102.656 46.5222 102.8 45.7862 103.088 45.0982C103.392 44.3942 103.8 43.7702 104.312 43.2262C104.824 42.6822 105.408 42.2582 106.064 41.9542C106.736 41.6342 107.44 41.4742 108.176 41.4742C108.832 41.4742 109.384 41.5622 109.832 41.7382C110.296 41.9142 110.688 42.1382 111.008 42.4102C111.328 42.6662 111.592 42.9382 111.8 43.2262L111.656 42.5302C111.656 42.1782 111.768 41.9142 111.992 41.7382C112.216 41.5462 112.568 41.4502 113.048 41.4502C113.496 41.4502 113.816 41.5222 114.008 41.6662C114.2 41.7942 114.32 41.9782 114.368 42.2182C114.416 42.4422 114.44 42.6982 114.44 42.9862V51.7702C114.44 52.0422 114.416 52.2902 114.368 52.5142C114.32 52.7382 114.192 52.9142 113.984 53.0422C113.792 53.1702 113.472 53.2342 113.024 53.2342ZM108.608 50.4502C109.152 50.4502 109.64 50.3142 110.072 50.0422C110.504 49.7702 110.848 49.4022 111.104 48.9382C111.376 48.4582 111.512 47.9302 111.512 47.3542C111.512 46.7302 111.376 46.1862 111.104 45.7222C110.832 45.2582 110.472 44.8982 110.024 44.6422C109.592 44.3702 109.104 44.2342 108.56 44.2342C107.968 44.2342 107.44 44.3782 106.976 44.6662C106.512 44.9382 106.144 45.3142 105.872 45.7942C105.616 46.2582 105.488 46.7862 105.488 47.3782C105.488 47.9542 105.624 48.4742 105.896 48.9382C106.168 49.4022 106.536 49.7702 107 50.0422C107.48 50.3142 108.016 50.4502 108.608 50.4502ZM123.016 53.2582C122.232 53.2582 121.528 53.1062 120.904 52.8022C120.296 52.4822 119.776 52.0502 119.344 51.5062C118.928 50.9622 118.608 50.3382 118.384 49.6342C118.176 48.9142 118.072 48.1462 118.072 47.3302C118.088 46.5142 118.208 45.7542 118.432 45.0502C118.656 44.3302 118.976 43.7062 119.392 43.1782C119.824 42.6342 120.344 42.2102 120.952 41.9062C121.56 41.6022 122.248 41.4502 123.016 41.4502C123.752 41.4502 124.44 41.6022 125.08 41.9062C125.736 42.2102 126.312 42.6342 126.808 43.1782C127.32 43.7062 127.72 44.3302 128.008 45.0502C128.296 45.7542 128.44 46.5062 128.44 47.3062C128.44 48.1382 128.296 48.9222 128.008 49.6582C127.72 50.3782 127.328 51.0102 126.832 51.5542C126.336 52.0822 125.76 52.4982 125.104 52.8022C124.448 53.1062 123.752 53.2582 123.016 53.2582ZM122.632 50.4502C123.192 50.4502 123.696 50.3222 124.144 50.0662C124.592 49.7942 124.944 49.4262 125.2 48.9622C125.472 48.4982 125.608 47.9702 125.608 47.3782C125.608 46.7702 125.472 46.2342 125.2 45.7702C124.944 45.2902 124.592 44.9222 124.144 44.6662C123.696 44.3942 123.192 44.2582 122.632 44.2582C122.088 44.2582 121.592 44.3942 121.144 44.6662C120.696 44.9382 120.336 45.3062 120.064 45.7702C119.808 46.2342 119.68 46.7702 119.68 47.3782C119.68 47.9702 119.808 48.4982 120.064 48.9622C120.336 49.4262 120.696 49.7942 121.144 50.0662C121.592 50.3222 122.088 50.4502 122.632 50.4502ZM118.192 53.2822C117.76 53.2822 117.44 53.2102 117.232 53.0662C117.024 52.9382 116.896 52.7702 116.848 52.5622C116.8 52.3382 116.776 52.0902 116.776 51.8182V37.5142C116.776 37.2422 116.8 37.0022 116.848 36.7942C116.896 36.5702 117.024 36.3942 117.232 36.2662C117.44 36.1382 117.76 36.0742 118.192 36.0742C118.64 36.0742 118.96 36.1382 119.152 36.2662C119.344 36.3942 119.464 36.5702 119.512 36.7942C119.56 37.0182 119.584 37.2582 119.584 37.5142V52.2982C119.52 52.6502 119.384 52.8982 119.176 53.0422C118.984 53.2022 118.656 53.2822 118.192 53.2822ZM132.022 45.3142C131.414 45.3142 130.99 45.1942 130.75 44.9542C130.51 44.7142 130.39 44.3062 130.39 43.7302C130.39 43.3142 130.438 42.9862 130.534 42.7462C130.646 42.5062 130.822 42.3382 131.062 42.2422C131.302 42.1302 131.622 42.0742 132.022 42.0742C132.63 42.0742 133.046 42.1942 133.27 42.4342C133.51 42.6742 133.63 43.0982 133.63 43.7062C133.63 44.0902 133.582 44.4022 133.486 44.6422C133.39 44.8822 133.222 45.0582 132.982 45.1702C132.742 45.2662 132.422 45.3142 132.022 45.3142ZM131.998 53.2822C131.406 53.2822 130.99 53.1702 130.75 52.9462C130.51 52.7062 130.39 52.2902 130.39 51.6982C130.39 51.2822 130.438 50.9622 130.534 50.7382C130.646 50.4982 130.822 50.3222 131.062 50.2102C131.302 50.0982 131.622 50.0422 132.022 50.0422C132.614 50.0422 133.03 50.1622 133.27 50.4022C133.51 50.6422 133.63 51.0662 133.63 51.6742C133.63 52.0742 133.574 52.3942 133.462 52.6342C133.366 52.8742 133.198 53.0422 132.958 53.1382C132.734 53.2342 132.414 53.2822 131.998 53.2822ZM148.163 53.1142C147.379 53.1142 146.675 52.9702 146.051 52.6822C145.443 52.3782 144.923 51.9622 144.491 51.4342C144.075 50.8902 143.755 50.2662 143.531 49.5622C143.323 48.8582 143.219 48.0982 143.219 47.2822C143.235 46.4662 143.355 45.7062 143.579 45.0022C143.803 44.2822 144.123 43.6582 144.539 43.1302C144.971 42.6022 145.491 42.1862 146.099 41.8822C146.707 41.5782 147.395 41.4262 148.163 41.4262C148.899 41.4262 149.587 41.5782 150.227 41.8822C150.883 42.1862 151.459 42.6102 151.955 43.1542C152.467 43.6982 152.867 44.3302 153.155 45.0502C153.443 45.7542 153.587 46.5142 153.587 47.3302C153.587 48.1622 153.443 48.9302 153.155 49.6342C152.867 50.3382 152.475 50.9542 151.979 51.4822C151.483 51.9942 150.907 52.3942 150.251 52.6822C149.595 52.9702 148.899 53.1142 148.163 53.1142ZM143.363 58.1062C142.931 58.1062 142.611 58.0422 142.403 57.9142C142.195 57.7862 142.067 57.6182 142.019 57.4102C141.971 57.2022 141.947 56.9622 141.947 56.6902V42.8902C141.947 42.6182 141.971 42.3782 142.019 42.1702C142.067 41.9622 142.187 41.7942 142.379 41.6662C142.587 41.5222 142.907 41.4502 143.339 41.4502C143.755 41.4502 144.083 41.5142 144.323 41.6422C144.563 41.7702 144.723 41.9862 144.803 42.2902V56.6662C144.819 56.9382 144.795 57.1782 144.731 57.3862C144.683 57.6102 144.555 57.7862 144.347 57.9142C144.139 58.0422 143.811 58.1062 143.363 58.1062ZM147.779 50.4262C148.339 50.4262 148.843 50.2982 149.291 50.0422C149.739 49.7702 150.091 49.4022 150.347 48.9382C150.619 48.4582 150.755 47.9222 150.755 47.3302C150.755 46.7222 150.619 46.1862 150.347 45.7222C150.091 45.2582 149.739 44.8982 149.291 44.6422C148.843 44.3702 148.339 44.2342 147.779 44.2342C147.235 44.2342 146.739 44.3702 146.291 44.6422C145.843 44.9142 145.483 45.2822 145.211 45.7462C144.955 46.1942 144.827 46.7222 144.827 47.3302C144.827 47.9222 144.955 48.4582 145.211 48.9382C145.483 49.4022 145.843 49.7702 146.291 50.0422C146.739 50.2982 147.235 50.4262 147.779 50.4262ZM161.326 53.4262C160.286 53.4262 159.374 53.2582 158.59 52.9222C157.822 52.5862 157.174 52.1302 156.646 51.5542C156.134 50.9622 155.742 50.3062 155.47 49.5862C155.214 48.8502 155.086 48.0902 155.086 47.3062C155.086 46.1542 155.35 45.1302 155.878 44.2342C156.406 43.3382 157.134 42.6342 158.062 42.1222C159.006 41.6102 160.086 41.3542 161.302 41.3542C162.166 41.3542 162.926 41.4902 163.582 41.7622C164.238 42.0342 164.782 42.3942 165.214 42.8422C165.662 43.2742 165.998 43.7542 166.222 44.2822C166.462 44.8102 166.582 45.3222 166.582 45.8182C166.582 46.6662 166.374 47.2822 165.958 47.6662C165.558 48.0502 165.054 48.2422 164.446 48.2422H158.11C158.126 48.7862 158.294 49.2582 158.614 49.6582C158.95 50.0582 159.366 50.3702 159.862 50.5942C160.374 50.8022 160.894 50.9062 161.422 50.9062C161.822 50.9062 162.174 50.8822 162.478 50.8342C162.798 50.7862 163.07 50.7302 163.294 50.6662C163.518 50.5862 163.71 50.5062 163.87 50.4262C164.046 50.3462 164.206 50.2742 164.35 50.2102C164.494 50.1462 164.63 50.1062 164.758 50.0902C164.934 50.0742 165.11 50.1142 165.286 50.2102C165.462 50.3062 165.606 50.4742 165.718 50.7142C165.814 50.8742 165.878 51.0262 165.91 51.1702C165.958 51.2982 165.982 51.4262 165.982 51.5542C165.982 51.8742 165.79 52.1782 165.406 52.4662C165.022 52.7382 164.478 52.9622 163.774 53.1382C163.086 53.3302 162.27 53.4262 161.326 53.4262ZM158.11 46.5382H163.03C163.302 46.5382 163.51 46.4982 163.654 46.4182C163.798 46.3222 163.87 46.1302 163.87 45.8422C163.87 45.4742 163.758 45.1462 163.534 44.8582C163.31 44.5542 163.006 44.3222 162.622 44.1622C162.238 43.9862 161.79 43.8982 161.278 43.8982C160.686 43.8982 160.15 44.0182 159.67 44.2582C159.19 44.4822 158.806 44.7942 158.518 45.1942C158.246 45.5942 158.11 46.0422 158.11 46.5382ZM169.968 53.2822C169.536 53.2822 169.216 53.2102 169.008 53.0662C168.816 52.9382 168.696 52.7622 168.648 52.5382C168.6 52.3142 168.576 52.0662 168.576 51.7942V42.8902C168.576 42.6022 168.6 42.3542 168.648 42.1462C168.696 41.9222 168.816 41.7542 169.008 41.6422C169.216 41.5142 169.544 41.4502 169.992 41.4502C170.424 41.4502 170.736 41.5062 170.928 41.6182C171.136 41.7302 171.264 41.8742 171.312 42.0502C171.376 42.2102 171.408 42.3702 171.408 42.5302L171.216 42.9622C171.296 42.8342 171.408 42.6822 171.552 42.5062C171.696 42.3142 171.888 42.1302 172.128 41.9542C172.368 41.7622 172.656 41.6102 172.992 41.4982C173.328 41.3702 173.728 41.3062 174.192 41.3062C174.384 41.3062 174.584 41.3302 174.792 41.3782C175.016 41.4102 175.232 41.4662 175.44 41.5462C175.664 41.6102 175.864 41.6982 176.04 41.8102C176.216 41.9222 176.352 42.0582 176.448 42.2182C176.544 42.3622 176.592 42.5302 176.592 42.7222C176.592 43.2342 176.464 43.6662 176.208 44.0182C175.952 44.3702 175.648 44.5462 175.296 44.5462C175.056 44.5462 174.88 44.5222 174.768 44.4742C174.656 44.4262 174.56 44.3702 174.48 44.3062C174.416 44.2422 174.312 44.1862 174.168 44.1382C174.04 44.0902 173.832 44.0662 173.544 44.0662C173.304 44.0662 173.056 44.1062 172.8 44.1862C172.56 44.2662 172.336 44.3862 172.128 44.5462C171.92 44.7062 171.752 44.9142 171.624 45.1702C171.496 45.4102 171.432 45.6902 171.432 46.0102V51.8422C171.432 52.1142 171.408 52.3622 171.36 52.5862C171.312 52.7942 171.184 52.9622 170.976 53.0902C170.768 53.2182 170.432 53.2822 169.968 53.2822ZM182.946 58.0822C182.37 58.0822 181.818 58.0102 181.29 57.8662C180.762 57.7382 180.282 57.5622 179.85 57.3382C179.434 57.1142 179.098 56.8742 178.842 56.6182C178.602 56.3622 178.482 56.1222 178.482 55.8982C178.482 55.6742 178.514 55.4822 178.578 55.3222C178.658 55.1622 178.77 55.0022 178.914 54.8422C179.106 54.6502 179.258 54.5062 179.37 54.4102C179.498 54.3142 179.666 54.2662 179.874 54.2662C180.05 54.2662 180.218 54.3302 180.378 54.4582C180.554 54.5862 180.754 54.7302 180.978 54.8902C181.202 55.0502 181.474 55.1942 181.794 55.3222C182.114 55.4502 182.522 55.5142 183.018 55.5142C183.434 55.5142 183.818 55.4422 184.17 55.2982C184.522 55.1542 184.818 54.9382 185.058 54.6502C185.314 54.3782 185.514 54.0502 185.658 53.6662C185.802 53.2822 185.874 52.8502 185.874 52.3702L185.85 42.4342C185.882 42.0662 186.01 41.8102 186.234 41.6662C186.458 41.5062 186.802 41.4262 187.266 41.4262C187.698 41.4262 188.01 41.4902 188.202 41.6182C188.394 41.7302 188.514 41.8982 188.562 42.1222C188.61 42.3302 188.634 42.5622 188.634 42.8182V52.5382C188.634 53.4182 188.482 54.2022 188.178 54.8902C187.874 55.5782 187.458 56.1542 186.93 56.6182C186.402 57.0982 185.794 57.4582 185.106 57.6982C184.434 57.9542 183.714 58.0822 182.946 58.0822ZM182.682 52.9702C181.93 52.9702 181.226 52.8262 180.57 52.5382C179.93 52.2502 179.362 51.8422 178.866 51.3142C178.386 50.7862 178.002 50.1782 177.714 49.4902C177.442 48.7862 177.306 48.0262 177.306 47.2102C177.306 46.4102 177.442 45.6662 177.714 44.9782C178.002 44.2902 178.386 43.6822 178.866 43.1542C179.362 42.6262 179.93 42.2182 180.57 41.9302C181.226 41.6262 181.922 41.4742 182.658 41.4742C183.378 41.4742 184.002 41.6182 184.53 41.9062C185.074 42.1782 185.522 42.5702 185.874 43.0822C186.226 43.5942 186.49 44.2022 186.666 44.9062C186.858 45.6102 186.954 46.3862 186.954 47.2342C186.954 48.4022 186.794 49.4182 186.474 50.2822C186.154 51.1462 185.682 51.8102 185.058 52.2742C184.434 52.7382 183.642 52.9702 182.682 52.9702ZM182.946 50.2582C183.49 50.2582 183.97 50.1302 184.386 49.8742C184.818 49.6022 185.154 49.2342 185.394 48.7702C185.65 48.3062 185.778 47.7862 185.778 47.2102C185.778 46.6182 185.65 46.0982 185.394 45.6502C185.154 45.1862 184.818 44.8262 184.386 44.5702C183.954 44.3142 183.466 44.1862 182.922 44.1862C182.378 44.1862 181.89 44.3222 181.458 44.5942C181.042 44.8502 180.714 45.2022 180.474 45.6502C180.234 46.0982 180.114 46.6182 180.114 47.2102C180.114 47.8022 180.234 48.3302 180.474 48.7942C180.73 49.2422 181.066 49.6022 181.482 49.8742C181.914 50.1302 182.402 50.2582 182.946 50.2582ZM200.798 53.2342C200.334 53.2342 199.99 53.1462 199.766 52.9702C199.542 52.7942 199.43 52.5542 199.43 52.2502L199.598 51.4582C199.47 51.6662 199.254 51.9142 198.95 52.2022C198.646 52.4742 198.246 52.7222 197.75 52.9462C197.254 53.1542 196.654 53.2582 195.95 53.2582C195.198 53.2582 194.486 53.1062 193.814 52.8022C193.158 52.4822 192.574 52.0502 192.062 51.5062C191.566 50.9462 191.166 50.3142 190.862 49.6102C190.574 48.8902 190.43 48.1222 190.43 47.3062C190.43 46.5222 190.574 45.7862 190.862 45.0982C191.166 44.3942 191.574 43.7702 192.086 43.2262C192.598 42.6822 193.182 42.2582 193.838 41.9542C194.51 41.6342 195.214 41.4742 195.95 41.4742C196.606 41.4742 197.158 41.5622 197.606 41.7382C198.07 41.9142 198.462 42.1382 198.782 42.4102C199.102 42.6662 199.366 42.9382 199.574 43.2262L199.43 42.5302C199.43 42.1782 199.542 41.9142 199.766 41.7382C199.99 41.5462 200.342 41.4502 200.822 41.4502C201.27 41.4502 201.59 41.5222 201.782 41.6662C201.974 41.7942 202.094 41.9782 202.142 42.2182C202.19 42.4422 202.214 42.6982 202.214 42.9862V51.7702C202.214 52.0422 202.19 52.2902 202.142 52.5142C202.094 52.7382 201.966 52.9142 201.758 53.0422C201.566 53.1702 201.246 53.2342 200.798 53.2342ZM196.382 50.4502C196.926 50.4502 197.414 50.3142 197.846 50.0422C198.278 49.7702 198.622 49.4022 198.878 48.9382C199.15 48.4582 199.286 47.9302 199.286 47.3542C199.286 46.7302 199.15 46.1862 198.878 45.7222C198.606 45.2582 198.246 44.8982 197.798 44.6422C197.366 44.3702 196.878 44.2342 196.334 44.2342C195.742 44.2342 195.214 44.3782 194.75 44.6662C194.286 44.9382 193.918 45.3142 193.646 45.7942C193.39 46.2582 193.262 46.7862 193.262 47.3782C193.262 47.9542 193.398 48.4742 193.67 48.9382C193.942 49.4022 194.31 49.7702 194.774 50.0422C195.254 50.3142 195.79 50.4502 196.382 50.4502ZM209.518 53.2582C208.782 53.2582 208.102 53.1302 207.478 52.8742C206.87 52.6022 206.334 52.2182 205.87 51.7222C205.406 51.2262 205.046 50.6342 204.79 49.9462C204.534 49.2582 204.406 48.4982 204.406 47.6662V42.8902C204.406 42.6182 204.43 42.3782 204.478 42.1702C204.526 41.9462 204.654 41.7702 204.862 41.6422C205.07 41.5142 205.39 41.4502 205.822 41.4502C206.286 41.4502 206.614 41.5142 206.806 41.6422C207.014 41.7702 207.142 41.9462 207.19 42.1702C207.238 42.3942 207.262 42.6422 207.262 42.9142V47.6662C207.262 48.2422 207.358 48.7382 207.55 49.1542C207.758 49.5702 208.054 49.8982 208.438 50.1382C208.822 50.3622 209.294 50.4742 209.854 50.4742C210.43 50.4742 210.918 50.3622 211.318 50.1382C211.734 49.8982 212.054 49.5702 212.278 49.1542C212.502 48.7222 212.614 48.2262 212.614 47.6662V42.8662C212.614 42.5942 212.638 42.3542 212.686 42.1462C212.734 41.9222 212.862 41.7542 213.07 41.6422C213.278 41.5142 213.606 41.4502 214.054 41.4502C214.502 41.4502 214.822 41.5142 215.014 41.6422C215.206 41.7702 215.326 41.9462 215.374 42.1702C215.438 42.3942 215.47 42.6342 215.47 42.8902V51.8902C215.47 52.1302 215.438 52.3542 215.374 52.5622C215.326 52.7702 215.198 52.9382 214.99 53.0662C214.798 53.1942 214.478 53.2582 214.03 53.2582C213.71 53.2582 213.454 53.2182 213.262 53.1382C213.086 53.0742 212.95 52.9862 212.854 52.8742C212.774 52.7462 212.718 52.6182 212.686 52.4902C212.67 52.3622 212.662 52.2342 212.662 52.1062L212.854 51.4582C212.758 51.6022 212.614 51.7782 212.422 51.9862C212.23 52.1782 211.99 52.3782 211.702 52.5862C211.43 52.7782 211.11 52.9382 210.742 53.0662C210.374 53.1942 209.966 53.2582 209.518 53.2582ZM221.969 53.2822C221.377 53.2822 220.849 53.2422 220.385 53.1622C219.937 53.0822 219.545 52.9462 219.209 52.7542C218.889 52.5622 218.625 52.3062 218.417 51.9862C218.209 51.6502 218.049 51.2422 217.937 50.7622C217.841 50.2822 217.793 49.7062 217.793 49.0342V37.4662C217.793 37.1942 217.817 36.9542 217.865 36.7462C217.929 36.5222 218.057 36.3462 218.249 36.2182C218.457 36.0742 218.785 36.0022 219.233 36.0022C219.681 36.0022 220.001 36.0662 220.193 36.1942C220.401 36.3222 220.529 36.4982 220.577 36.7222C220.641 36.9302 220.673 37.1702 220.673 37.4422V48.9142C220.673 49.2182 220.689 49.4742 220.721 49.6822C220.769 49.8742 220.841 50.0342 220.937 50.1622C221.049 50.2742 221.185 50.3542 221.345 50.4022C221.521 50.4502 221.729 50.4742 221.969 50.4742C222.177 50.4742 222.361 50.4982 222.521 50.5462C222.697 50.5942 222.833 50.7142 222.929 50.9062C223.041 51.0982 223.097 51.4102 223.097 51.8422C223.097 52.2902 223.041 52.6182 222.929 52.8262C222.833 53.0342 222.697 53.1622 222.521 53.2102C222.345 53.2582 222.161 53.2822 221.969 53.2822ZM234.665 53.2342C234.201 53.2342 233.857 53.1462 233.633 52.9702C233.409 52.7942 233.297 52.5542 233.297 52.2502L233.465 51.4582C233.337 51.6662 233.121 51.9142 232.817 52.2022C232.513 52.4742 232.113 52.7222 231.617 52.9462C231.121 53.1542 230.521 53.2582 229.817 53.2582C229.065 53.2582 228.353 53.1062 227.681 52.8022C227.025 52.4822 226.441 52.0502 225.929 51.5062C225.433 50.9462 225.033 50.3142 224.729 49.6102C224.441 48.8902 224.297 48.1222 224.297 47.3062C224.297 46.5222 224.441 45.7862 224.729 45.0982C225.033 44.3942 225.441 43.7702 225.953 43.2262C226.465 42.6822 227.049 42.2582 227.705 41.9542C228.377 41.6342 229.081 41.4742 229.817 41.4742C230.473 41.4742 231.025 41.5622 231.473 41.7382C231.937 41.9142 232.329 42.1382 232.649 42.4102C232.969 42.6662 233.233 42.9382 233.441 43.2262L233.297 42.5302C233.297 42.1782 233.409 41.9142 233.633 41.7382C233.857 41.5462 234.209 41.4502 234.689 41.4502C235.137 41.4502 235.457 41.5222 235.649 41.6662C235.841 41.7942 235.961 41.9782 236.009 42.2182C236.057 42.4422 236.081 42.6982 236.081 42.9862V51.7702C236.081 52.0422 236.057 52.2902 236.009 52.5142C235.961 52.7382 235.833 52.9142 235.625 53.0422C235.433 53.1702 235.113 53.2342 234.665 53.2342ZM230.249 50.4502C230.793 50.4502 231.281 50.3142 231.713 50.0422C232.145 49.7702 232.489 49.4022 232.745 48.9382C233.017 48.4582 233.153 47.9302 233.153 47.3542C233.153 46.7302 233.017 46.1862 232.745 45.7222C232.473 45.2582 232.113 44.8982 231.665 44.6422C231.233 44.3702 230.745 44.2342 230.201 44.2342C229.609 44.2342 229.081 44.3782 228.617 44.6662C228.153 44.9382 227.785 45.3142 227.513 45.7942C227.257 46.2582 227.129 46.7862 227.129 47.3782C227.129 47.9542 227.265 48.4742 227.537 48.9382C227.809 49.4022 228.177 49.7702 228.641 50.0422C229.121 50.3142 229.657 50.4502 230.249 50.4502ZM239.905 53.2582C239.473 53.2582 239.153 53.1862 238.945 53.0422C238.753 52.9142 238.633 52.7462 238.585 52.5382C238.537 52.3142 238.513 52.0662 238.513 51.7942V42.8182C238.513 42.5622 238.537 42.3302 238.585 42.1222C238.633 41.9142 238.761 41.7542 238.969 41.6422C239.177 41.5142 239.497 41.4502 239.929 41.4502C240.313 41.4502 240.601 41.4982 240.793 41.5942C240.985 41.6902 241.113 41.8102 241.177 41.9542C241.241 42.0982 241.273 42.2422 241.273 42.3862C241.289 42.5302 241.305 42.6422 241.321 42.7222L241.225 43.4902C241.321 43.2342 241.481 42.9862 241.705 42.7462C241.929 42.5062 242.201 42.2902 242.521 42.0982C242.841 41.8902 243.185 41.7302 243.553 41.6182C243.937 41.4902 244.329 41.4262 244.729 41.4262C245.481 41.4262 246.153 41.5622 246.745 41.8342C247.337 42.1062 247.841 42.4902 248.257 42.9862C248.689 43.4822 249.017 44.0742 249.241 44.7622C249.465 45.4342 249.577 46.1942 249.577 47.0422V51.8182C249.577 52.0902 249.545 52.3382 249.481 52.5622C249.433 52.7702 249.313 52.9382 249.121 53.0662C248.929 53.1942 248.601 53.2582 248.137 53.2582C247.689 53.2582 247.361 53.1862 247.153 53.0422C246.945 52.9142 246.817 52.7462 246.769 52.5382C246.721 52.3142 246.697 52.0662 246.697 51.7942V47.0182C246.697 46.4422 246.593 45.9462 246.385 45.5302C246.193 45.1142 245.905 44.7942 245.521 44.5702C245.153 44.3462 244.681 44.2342 244.105 44.2342C243.545 44.2342 243.057 44.3542 242.641 44.5942C242.225 44.8182 241.905 45.1382 241.681 45.5542C241.457 45.9702 241.345 46.4582 241.345 47.0182V51.8182C241.345 52.0902 241.321 52.3382 241.273 52.5622C241.225 52.7702 241.097 52.9382 240.889 53.0662C240.697 53.1942 240.369 53.2582 239.905 53.2582ZM258.016 55.7542C258.016 55.7542 257.984 55.7382 257.92 55.7062C257.856 55.6902 257.792 55.6262 257.728 55.5142C257.664 55.4182 257.632 55.2582 257.632 55.0342C257.632 54.7302 257.68 54.5302 257.776 54.4342C257.872 54.3542 257.936 54.3062 257.968 54.2902C257.984 54.2742 258.096 54.1782 258.304 54.0022C258.512 53.8422 258.632 53.5622 258.664 53.1622C258.504 53.1302 258.36 53.0902 258.232 53.0422C258.12 52.9782 258.024 52.9062 257.944 52.8262C257.784 52.6662 257.688 52.4822 257.656 52.2742C257.624 52.0502 257.608 51.8262 257.608 51.6022C257.608 51.2342 257.648 50.9302 257.728 50.6902C257.808 50.4502 257.96 50.2742 258.184 50.1622C258.424 50.0342 258.776 49.9702 259.24 49.9702C259.848 49.9702 260.28 50.0982 260.536 50.3542C260.68 50.4982 260.76 50.6822 260.776 50.9062C260.808 51.1302 260.824 51.3542 260.824 51.5782C260.824 51.7382 260.824 51.8742 260.824 51.9862C260.824 52.0822 260.816 52.1702 260.8 52.2502C260.736 52.8902 260.568 53.4742 260.296 54.0022C260.04 54.5302 259.712 54.9542 259.312 55.2742C258.928 55.5942 258.496 55.7542 258.016 55.7542ZM259.192 45.3382C258.584 45.3382 258.16 45.2182 257.92 44.9782C257.696 44.7222 257.584 44.3142 257.584 43.7542C257.584 43.3382 257.624 43.0102 257.704 42.7702C257.8 42.5302 257.968 42.3622 258.208 42.2662C258.464 42.1542 258.8 42.0982 259.216 42.0982C259.84 42.0982 260.264 42.2182 260.488 42.4582C260.712 42.6982 260.824 43.1222 260.824 43.7302C260.824 44.0182 260.792 44.2902 260.728 44.5462C260.664 44.7862 260.52 44.9782 260.296 45.1222C260.072 45.2662 259.704 45.3382 259.192 45.3382ZM270.469 53.2582C270.053 53.2582 269.741 53.1862 269.533 53.0422C269.325 52.9142 269.189 52.7382 269.125 52.5142C269.061 52.2902 269.029 52.0502 269.029 51.7942V37.9222C269.029 37.6662 269.053 37.4342 269.101 37.2262C269.165 37.0022 269.301 36.8262 269.509 36.6982C269.717 36.5542 270.045 36.4822 270.493 36.4822L275.005 36.5062C276.173 36.5062 277.245 36.7062 278.221 37.1062C279.213 37.5062 280.069 38.0742 280.789 38.8102C281.509 39.5462 282.061 40.4262 282.445 41.4502C282.845 42.4582 283.045 43.5702 283.045 44.7862C283.045 46.0342 282.845 47.1782 282.445 48.2182C282.045 49.2582 281.485 50.1542 280.765 50.9062C280.045 51.6582 279.189 52.2422 278.197 52.6582C277.221 53.0582 276.133 53.2582 274.933 53.2582H270.469ZM271.933 50.3542H275.005C276.029 50.3542 276.925 50.1302 277.693 49.6822C278.461 49.2182 279.053 48.5782 279.469 47.7622C279.901 46.9462 280.117 45.9942 280.117 44.9062C280.117 43.8022 279.901 42.8422 279.469 42.0262C279.053 41.1942 278.453 40.5542 277.669 40.1062C276.901 39.6422 276.005 39.4102 274.981 39.4102H271.933V50.3542ZM295.157 53.2342C294.693 53.2342 294.349 53.1462 294.125 52.9702C293.901 52.7942 293.789 52.5542 293.789 52.2502L293.957 51.4582C293.829 51.6662 293.613 51.9142 293.309 52.2022C293.005 52.4742 292.605 52.7222 292.109 52.9462C291.613 53.1542 291.013 53.2582 290.309 53.2582C289.557 53.2582 288.845 53.1062 288.173 52.8022C287.517 52.4822 286.933 52.0502 286.421 51.5062C285.925 50.9462 285.525 50.3142 285.221 49.6102C284.933 48.8902 284.789 48.1222 284.789 47.3062C284.789 46.5222 284.933 45.7862 285.221 45.0982C285.525 44.3942 285.933 43.7702 286.445 43.2262C286.957 42.6822 287.541 42.2582 288.197 41.9542C288.869 41.6342 289.573 41.4742 290.309 41.4742C290.965 41.4742 291.517 41.5622 291.965 41.7382C292.429 41.9142 292.821 42.1382 293.141 42.4102C293.461 42.6662 293.725 42.9382 293.933 43.2262L293.789 42.5302C293.789 42.1782 293.901 41.9142 294.125 41.7382C294.349 41.5462 294.701 41.4502 295.181 41.4502C295.629 41.4502 295.949 41.5222 296.141 41.6662C296.333 41.7942 296.453 41.9782 296.501 42.2182C296.549 42.4422 296.573 42.6982 296.573 42.9862V51.7702C296.573 52.0422 296.549 52.2902 296.501 52.5142C296.453 52.7382 296.325 52.9142 296.117 53.0422C295.925 53.1702 295.605 53.2342 295.157 53.2342ZM290.741 50.4502C291.285 50.4502 291.773 50.3142 292.205 50.0422C292.637 49.7702 292.981 49.4022 293.237 48.9382C293.509 48.4582 293.645 47.9302 293.645 47.3542C293.645 46.7302 293.509 46.1862 293.237 45.7222C292.965 45.2582 292.605 44.8982 292.157 44.6422C291.725 44.3702 291.237 44.2342 290.693 44.2342C290.101 44.2342 289.573 44.3782 289.109 44.6662C288.645 44.9382 288.277 45.3142 288.005 45.7942C287.749 46.2582 287.621 46.7862 287.621 47.3782C287.621 47.9542 287.757 48.4742 288.029 48.9382C288.301 49.4022 288.669 49.7702 289.133 50.0422C289.613 50.3142 290.149 50.4502 290.741 50.4502ZM300.373 53.2582C299.941 53.2582 299.621 53.1942 299.413 53.0662C299.221 52.9382 299.101 52.7622 299.053 52.5382C299.005 52.3142 298.981 52.0742 298.981 51.8182V42.8422C298.981 42.5862 299.005 42.3542 299.053 42.1462C299.101 41.9382 299.229 41.7702 299.437 41.6422C299.645 41.5142 299.973 41.4502 300.421 41.4502C300.885 41.4502 301.221 41.5462 301.429 41.7382C301.653 41.9302 301.765 42.2342 301.765 42.6502L301.549 43.3222C301.629 43.1462 301.765 42.9542 301.957 42.7462C302.149 42.5382 302.381 42.3302 302.653 42.1222C302.941 41.9142 303.261 41.7462 303.613 41.6182C303.965 41.4902 304.333 41.4262 304.717 41.4262C305.245 41.4262 305.725 41.5142 306.157 41.6902C306.605 41.8662 306.997 42.1222 307.333 42.4582C307.685 42.7942 307.989 43.2022 308.245 43.6822C308.517 43.2662 308.821 42.8902 309.157 42.5542C309.493 42.2022 309.885 41.9302 310.333 41.7382C310.781 41.5302 311.285 41.4262 311.845 41.4262C312.773 41.4262 313.549 41.6582 314.173 42.1222C314.813 42.5862 315.293 43.2502 315.613 44.1142C315.949 44.9622 316.117 45.9782 316.117 47.1622V51.8182C316.117 52.0902 316.085 52.3382 316.021 52.5622C315.973 52.7702 315.845 52.9382 315.637 53.0662C315.445 53.1942 315.125 53.2582 314.677 53.2582C314.229 53.2582 313.901 53.1862 313.693 53.0422C313.485 52.9142 313.357 52.7462 313.309 52.5382C313.261 52.3142 313.237 52.0662 313.237 51.7942V47.1382C313.237 46.5462 313.165 46.0342 313.021 45.6022C312.877 45.1702 312.661 44.8342 312.373 44.5942C312.101 44.3542 311.741 44.2342 311.293 44.2342C310.813 44.2342 310.397 44.3542 310.045 44.5942C309.709 44.8182 309.445 45.1462 309.253 45.5782C309.061 46.0102 308.965 46.5382 308.965 47.1622V51.8422C308.965 52.1142 308.925 52.3702 308.845 52.6102C308.765 52.8342 308.605 53.0022 308.365 53.1142C308.141 53.2422 307.813 53.2902 307.381 53.2582C306.981 53.2422 306.685 53.1622 306.493 53.0182C306.317 52.8742 306.205 52.6982 306.157 52.4902C306.125 52.2662 306.109 52.0342 306.109 51.7942V47.1382C306.109 46.5462 306.037 46.0342 305.893 45.6022C305.749 45.1542 305.533 44.8182 305.245 44.5942C304.973 44.3542 304.605 44.2342 304.141 44.2342C303.645 44.2342 303.221 44.3622 302.869 44.6182C302.533 44.8742 302.277 45.2182 302.101 45.6502C301.925 46.0822 301.837 46.5782 301.837 47.1382V51.8422C301.837 52.0982 301.805 52.3382 301.741 52.5622C301.693 52.7862 301.565 52.9542 301.357 53.0662C301.165 53.1942 300.837 53.2582 300.373 53.2582ZM324.6 53.1142C323.816 53.1142 323.112 52.9702 322.488 52.6822C321.88 52.3782 321.36 51.9622 320.928 51.4342C320.512 50.8902 320.192 50.2662 319.968 49.5622C319.76 48.8582 319.656 48.0982 319.656 47.2822C319.672 46.4662 319.792 45.7062 320.016 45.0022C320.24 44.2822 320.56 43.6582 320.976 43.1302C321.408 42.6022 321.928 42.1862 322.536 41.8822C323.144 41.5782 323.832 41.4262 324.6 41.4262C325.336 41.4262 326.024 41.5782 326.664 41.8822C327.32 42.1862 327.896 42.6102 328.392 43.1542C328.904 43.6982 329.304 44.3302 329.592 45.0502C329.88 45.7542 330.024 46.5142 330.024 47.3302C330.024 48.1622 329.88 48.9302 329.592 49.6342C329.304 50.3382 328.912 50.9542 328.416 51.4822C327.92 51.9942 327.344 52.3942 326.688 52.6822C326.032 52.9702 325.336 53.1142 324.6 53.1142ZM319.8 58.1062C319.368 58.1062 319.048 58.0422 318.84 57.9142C318.632 57.7862 318.504 57.6182 318.456 57.4102C318.408 57.2022 318.384 56.9622 318.384 56.6902V42.8902C318.384 42.6182 318.408 42.3782 318.456 42.1702C318.504 41.9622 318.624 41.7942 318.816 41.6662C319.024 41.5222 319.344 41.4502 319.776 41.4502C320.192 41.4502 320.52 41.5142 320.76 41.6422C321 41.7702 321.16 41.9862 321.24 42.2902V56.6662C321.256 56.9382 321.232 57.1782 321.168 57.3862C321.12 57.6102 320.992 57.7862 320.784 57.9142C320.576 58.0422 320.248 58.1062 319.8 58.1062ZM324.216 50.4262C324.776 50.4262 325.28 50.2982 325.728 50.0422C326.176 49.7702 326.528 49.4022 326.784 48.9382C327.056 48.4582 327.192 47.9222 327.192 47.3302C327.192 46.7222 327.056 46.1862 326.784 45.7222C326.528 45.2582 326.176 44.8982 325.728 44.6422C325.28 44.3702 324.776 44.2342 324.216 44.2342C323.672 44.2342 323.176 44.3702 322.728 44.6422C322.28 44.9142 321.92 45.2822 321.648 45.7462C321.392 46.1942 321.264 46.7222 321.264 47.3302C321.264 47.9222 321.392 48.4582 321.648 48.9382C321.92 49.4022 322.28 49.7702 322.728 50.0422C323.176 50.2982 323.672 50.4262 324.216 50.4262ZM341.892 53.2342C341.428 53.2342 341.084 53.1462 340.86 52.9702C340.636 52.7942 340.524 52.5542 340.524 52.2502L340.692 51.4582C340.564 51.6662 340.348 51.9142 340.044 52.2022C339.74 52.4742 339.34 52.7222 338.844 52.9462C338.348 53.1542 337.748 53.2582 337.044 53.2582C336.292 53.2582 335.58 53.1062 334.908 52.8022C334.252 52.4822 333.668 52.0502 333.156 51.5062C332.66 50.9462 332.26 50.3142 331.956 49.6102C331.668 48.8902 331.524 48.1222 331.524 47.3062C331.524 46.5222 331.668 45.7862 331.956 45.0982C332.26 44.3942 332.668 43.7702 333.18 43.2262C333.692 42.6822 334.276 42.2582 334.932 41.9542C335.604 41.6342 336.308 41.4742 337.044 41.4742C337.7 41.4742 338.252 41.5622 338.7 41.7382C339.164 41.9142 339.556 42.1382 339.876 42.4102C340.196 42.6662 340.46 42.9382 340.668 43.2262L340.524 42.5302C340.524 42.1782 340.636 41.9142 340.86 41.7382C341.084 41.5462 341.436 41.4502 341.916 41.4502C342.364 41.4502 342.684 41.5222 342.876 41.6662C343.068 41.7942 343.188 41.9782 343.236 42.2182C343.284 42.4422 343.308 42.6982 343.308 42.9862V51.7702C343.308 52.0422 343.284 52.2902 343.236 52.5142C343.188 52.7382 343.06 52.9142 342.852 53.0422C342.66 53.1702 342.34 53.2342 341.892 53.2342ZM337.476 50.4502C338.02 50.4502 338.508 50.3142 338.94 50.0422C339.372 49.7702 339.716 49.4022 339.972 48.9382C340.244 48.4582 340.38 47.9302 340.38 47.3542C340.38 46.7302 340.244 46.1862 339.972 45.7222C339.7 45.2582 339.34 44.8982 338.892 44.6422C338.46 44.3702 337.972 44.2342 337.428 44.2342C336.836 44.2342 336.308 44.3782 335.844 44.6662C335.38 44.9382 335.012 45.3142 334.74 45.7942C334.484 46.2582 334.356 46.7862 334.356 47.3782C334.356 47.9542 334.492 48.4742 334.764 48.9382C335.036 49.4022 335.404 49.7702 335.868 50.0422C336.348 50.3142 336.884 50.4502 337.476 50.4502ZM355.124 50.6902C355.54 51.0422 355.756 51.3702 355.772 51.6742C355.804 51.9782 355.644 52.3302 355.292 52.7302C355.02 53.0342 354.78 53.2342 354.572 53.3302C354.364 53.4262 354.156 53.4262 353.948 53.3302C353.74 53.2502 353.492 53.0902 353.204 52.8502L348.62 48.9862V51.8422C348.62 52.0982 348.588 52.3382 348.524 52.5622C348.476 52.7862 348.348 52.9622 348.14 53.0902C347.948 53.2182 347.628 53.2822 347.18 53.2822C346.732 53.2822 346.404 53.2102 346.196 53.0662C346.004 52.9382 345.884 52.7622 345.836 52.5382C345.788 52.3142 345.764 52.0742 345.764 51.8182V37.4902C345.764 37.2182 345.788 36.9782 345.836 36.7702C345.9 36.5462 346.028 36.3702 346.22 36.2422C346.428 36.0982 346.756 36.0262 347.204 36.0262C347.652 36.0262 347.972 36.0982 348.164 36.2422C348.356 36.3702 348.476 36.5462 348.524 36.7702C348.588 36.9782 348.62 37.2262 348.62 37.5142V45.3862L351.932 42.1702C352.188 41.9302 352.428 41.7702 352.652 41.6902C352.876 41.5942 353.092 41.5862 353.3 41.6662C353.524 41.7302 353.756 41.8982 353.996 42.1702C354.396 42.6022 354.588 42.9622 354.572 43.2502C354.556 43.5222 354.356 43.8502 353.972 44.2342L350.732 47.2342L355.124 50.6902ZM144.155 82.1142C143.371 82.1142 142.667 81.9702 142.043 81.6822C141.435 81.3782 140.915 80.9622 140.483 80.4342C140.067 79.8902 139.747 79.2662 139.523 78.5622C139.315 77.8582 139.211 77.0982 139.211 76.2822C139.227 75.4662 139.347 74.7062 139.571 74.0022C139.795 73.2822 140.115 72.6582 140.531 72.1302C140.963 71.6022 141.483 71.1862 142.091 70.8822C142.699 70.5782 143.387 70.4262 144.155 70.4262C144.891 70.4262 145.579 70.5782 146.219 70.8822C146.875 71.1862 147.451 71.6102 147.947 72.1542C148.459 72.6982 148.859 73.3302 149.147 74.0502C149.435 74.7542 149.579 75.5142 149.579 76.3302C149.579 77.1622 149.435 77.9302 149.147 78.6342C148.859 79.3382 148.467 79.9542 147.971 80.4822C147.475 80.9942 146.899 81.3942 146.243 81.6822C145.587 81.9702 144.891 82.1142 144.155 82.1142ZM139.355 87.1062C138.923 87.1062 138.603 87.0422 138.395 86.9142C138.187 86.7862 138.059 86.6182 138.011 86.4102C137.963 86.2022 137.939 85.9622 137.939 85.6902V71.8902C137.939 71.6182 137.963 71.3782 138.011 71.1702C138.059 70.9622 138.179 70.7942 138.371 70.6662C138.579 70.5222 138.899 70.4502 139.331 70.4502C139.747 70.4502 140.075 70.5142 140.315 70.6422C140.555 70.7702 140.715 70.9862 140.795 71.2902V85.6662C140.811 85.9382 140.787 86.1782 140.723 86.3862C140.675 86.6102 140.547 86.7862 140.339 86.9142C140.131 87.0422 139.803 87.1062 139.355 87.1062ZM143.771 79.4262C144.331 79.4262 144.835 79.2982 145.283 79.0422C145.731 78.7702 146.083 78.4022 146.339 77.9382C146.611 77.4582 146.747 76.9222 146.747 76.3302C146.747 75.7222 146.611 75.1862 146.339 74.7222C146.083 74.2582 145.731 73.8982 145.283 73.6422C144.835 73.3702 144.331 73.2342 143.771 73.2342C143.227 73.2342 142.731 73.3702 142.283 73.6422C141.835 73.9142 141.475 74.2822 141.203 74.7462C140.947 75.1942 140.819 75.7222 140.819 76.3302C140.819 76.9222 140.947 77.4582 141.203 77.9382C141.475 78.4022 141.835 78.7702 142.283 79.0422C142.731 79.2982 143.227 79.4262 143.771 79.4262ZM155.71 82.4262C155.294 82.4262 154.854 82.3782 154.39 82.2822C153.926 82.2022 153.478 82.0822 153.046 81.9222C152.614 81.7462 152.238 81.5462 151.918 81.3222C151.614 81.0822 151.422 80.8182 151.342 80.5302C151.278 80.3702 151.254 80.2182 151.27 80.0742C151.286 79.9142 151.334 79.7542 151.414 79.5942C151.494 79.4182 151.614 79.2422 151.774 79.0662C151.918 78.8902 152.062 78.7942 152.206 78.7782C152.366 78.7462 152.566 78.7942 152.806 78.9222C153.014 79.0022 153.238 79.1062 153.478 79.2342C153.734 79.3622 153.99 79.4902 154.246 79.6182C154.518 79.7462 154.79 79.8502 155.062 79.9302C155.35 80.0102 155.63 80.0502 155.902 80.0502C156.494 80.0502 156.966 79.9542 157.318 79.7622C157.67 79.5542 157.846 79.2662 157.846 78.8982C157.846 78.6902 157.79 78.5062 157.678 78.3462C157.566 78.1862 157.414 78.0582 157.222 77.9622C157.046 77.8502 156.83 77.7542 156.574 77.6742C156.334 77.5782 156.07 77.4982 155.782 77.4342C155.51 77.3542 155.222 77.2662 154.918 77.1702C154.518 77.0582 154.118 76.9222 153.718 76.7622C153.318 76.6022 152.958 76.3942 152.638 76.1382C152.334 75.8822 152.086 75.5622 151.894 75.1782C151.702 74.7942 151.606 74.3142 151.606 73.7382C151.606 73.0182 151.774 72.4102 152.11 71.9142C152.462 71.4022 152.966 71.0102 153.622 70.7382C154.278 70.4662 155.07 70.3302 155.998 70.3302C156.318 70.3302 156.622 70.3542 156.91 70.4022C157.214 70.4502 157.502 70.5222 157.774 70.6182C158.062 70.6982 158.334 70.8022 158.59 70.9302C158.862 71.0582 159.118 71.2022 159.358 71.3622C159.758 71.5862 159.966 71.8502 159.982 72.1542C159.998 72.4422 159.886 72.7542 159.646 73.0902C159.47 73.3142 159.294 73.4742 159.118 73.5702C158.942 73.6502 158.758 73.6502 158.566 73.5702C158.31 73.4422 158.03 73.3062 157.726 73.1622C157.438 73.0022 157.134 72.8662 156.814 72.7542C156.51 72.6422 156.19 72.5862 155.854 72.5862C155.534 72.5862 155.246 72.6342 154.99 72.7302C154.734 72.8262 154.542 72.9622 154.414 73.1382C154.286 73.3142 154.222 73.5222 154.222 73.7622C154.222 73.9862 154.286 74.1702 154.414 74.3142C154.542 74.4582 154.71 74.5782 154.918 74.6742C155.126 74.7702 155.374 74.8582 155.662 74.9382C155.95 75.0022 156.254 75.0662 156.574 75.1302C157.022 75.2262 157.478 75.3462 157.942 75.4902C158.406 75.6342 158.83 75.8342 159.214 76.0902C159.614 76.3462 159.934 76.6902 160.174 77.1222C160.414 77.5382 160.534 78.0822 160.534 78.7542C160.534 79.9222 160.102 80.8262 159.238 81.4662C158.39 82.1062 157.214 82.4262 155.71 82.4262ZM164.158 82.2822C163.726 82.2822 163.406 82.2102 163.198 82.0662C162.99 81.9382 162.862 81.7702 162.814 81.5622C162.766 81.3382 162.742 81.0902 162.742 80.8182V71.8902C162.742 71.6342 162.766 71.4022 162.814 71.1942C162.878 70.9702 163.006 70.7942 163.198 70.6662C163.406 70.5382 163.734 70.4742 164.182 70.4742C164.63 70.4742 164.95 70.5382 165.142 70.6662C165.35 70.7942 165.478 70.9702 165.526 71.1942C165.574 71.4182 165.598 71.6662 165.598 71.9382V80.8422C165.598 81.1142 165.574 81.3622 165.526 81.5862C165.478 81.7942 165.35 81.9622 165.142 82.0902C164.95 82.2182 164.622 82.2822 164.158 82.2822ZM164.158 68.1462C163.694 68.1462 163.35 68.0822 163.126 67.9542C162.918 67.8102 162.782 67.6182 162.718 67.3782C162.67 67.1382 162.646 66.8742 162.646 66.5862C162.646 66.2822 162.67 66.0182 162.718 65.7942C162.782 65.5702 162.926 65.3942 163.15 65.2662C163.374 65.1222 163.718 65.0502 164.182 65.0502C164.662 65.0502 165.006 65.1222 165.214 65.2662C165.422 65.4102 165.558 65.6022 165.622 65.8422C165.686 66.0662 165.718 66.3302 165.718 66.6342C165.718 66.9062 165.686 67.1622 165.622 67.4022C165.558 67.6422 165.422 67.8262 165.214 67.9542C165.006 68.0822 164.654 68.1462 164.158 68.1462ZM177.631 79.6902C178.047 80.0422 178.263 80.3702 178.279 80.6742C178.311 80.9782 178.151 81.3302 177.799 81.7302C177.527 82.0342 177.287 82.2342 177.079 82.3302C176.871 82.4262 176.663 82.4262 176.455 82.3302C176.247 82.2502 175.999 82.0902 175.711 81.8502L171.127 77.9862V80.8422C171.127 81.0982 171.095 81.3382 171.031 81.5622C170.983 81.7862 170.855 81.9622 170.647 82.0902C170.455 82.2182 170.135 82.2822 169.687 82.2822C169.239 82.2822 168.911 82.2102 168.703 82.0662C168.511 81.9382 168.391 81.7622 168.343 81.5382C168.295 81.3142 168.271 81.0742 168.271 80.8182V66.4902C168.271 66.2182 168.295 65.9782 168.343 65.7702C168.407 65.5462 168.535 65.3702 168.727 65.2422C168.935 65.0982 169.263 65.0262 169.711 65.0262C170.159 65.0262 170.479 65.0982 170.671 65.2422C170.863 65.3702 170.983 65.5462 171.031 65.7702C171.095 65.9782 171.127 66.2262 171.127 66.5142V74.3862L174.439 71.1702C174.695 70.9302 174.935 70.7702 175.159 70.6902C175.383 70.5942 175.599 70.5862 175.807 70.6662C176.031 70.7302 176.263 70.8982 176.503 71.1702C176.903 71.6022 177.095 71.9622 177.079 72.2502C177.063 72.5222 176.863 72.8502 176.479 73.2342L173.239 76.2342L177.631 79.6902ZM184.947 82.4262C184.179 82.4262 183.427 82.2822 182.691 81.9942C181.971 81.6902 181.315 81.2662 180.723 80.7222C180.147 80.1782 179.683 79.5382 179.331 78.8022C178.995 78.0662 178.827 77.2582 178.827 76.3782C178.827 75.5302 178.987 74.7382 179.307 74.0022C179.627 73.2662 180.067 72.6182 180.627 72.0582C181.187 71.4982 181.827 71.0662 182.547 70.7622C183.283 70.4422 184.067 70.2822 184.899 70.2822C186.019 70.2822 187.035 70.5542 187.947 71.0982C188.859 71.6262 189.587 72.3462 190.131 73.2582C190.675 74.1702 190.947 75.2022 190.947 76.3542C190.947 77.2662 190.779 78.0982 190.443 78.8502C190.107 79.5862 189.651 80.2262 189.075 80.7702C188.499 81.2982 187.851 81.7062 187.131 81.9942C186.427 82.2822 185.699 82.4262 184.947 82.4262ZM184.899 79.5942C185.427 79.5942 185.931 79.4662 186.411 79.2102C186.907 78.9382 187.307 78.5542 187.611 78.0582C187.931 77.5622 188.091 76.9782 188.091 76.3062C188.091 75.6822 187.947 75.1302 187.659 74.6502C187.387 74.1702 187.011 73.7942 186.531 73.5222C186.051 73.2502 185.499 73.1142 184.875 73.1142C184.283 73.1142 183.747 73.2582 183.267 73.5462C182.787 73.8182 182.403 74.2022 182.115 74.6982C181.843 75.1782 181.707 75.7222 181.707 76.3302C181.707 77.0022 181.859 77.5862 182.163 78.0822C182.467 78.5622 182.859 78.9382 183.339 79.2102C183.835 79.4662 184.355 79.5942 184.899 79.5942ZM196.961 82.2822C196.369 82.2822 195.841 82.2422 195.377 82.1622C194.929 82.0822 194.537 81.9462 194.201 81.7542C193.881 81.5622 193.617 81.3062 193.409 80.9862C193.201 80.6502 193.041 80.2422 192.929 79.7622C192.833 79.2822 192.785 78.7062 192.785 78.0342V66.4662C192.785 66.1942 192.809 65.9542 192.857 65.7462C192.921 65.5222 193.049 65.3462 193.241 65.2182C193.449 65.0742 193.777 65.0022 194.225 65.0022C194.673 65.0022 194.993 65.0662 195.185 65.1942C195.393 65.3222 195.521 65.4982 195.569 65.7222C195.633 65.9302 195.665 66.1702 195.665 66.4422V77.9142C195.665 78.2182 195.681 78.4742 195.713 78.6822C195.761 78.8742 195.833 79.0342 195.929 79.1622C196.041 79.2742 196.177 79.3542 196.337 79.4022C196.513 79.4502 196.721 79.4742 196.961 79.4742C197.169 79.4742 197.353 79.4982 197.513 79.5462C197.689 79.5942 197.825 79.7142 197.921 79.9062C198.033 80.0982 198.089 80.4102 198.089 80.8422C198.089 81.2902 198.033 81.6182 197.921 81.8262C197.825 82.0342 197.689 82.1622 197.513 82.2102C197.337 82.2582 197.153 82.2822 196.961 82.2822ZM205.337 82.4262C204.569 82.4262 203.817 82.2822 203.081 81.9942C202.361 81.6902 201.705 81.2662 201.113 80.7222C200.537 80.1782 200.073 79.5382 199.721 78.8022C199.385 78.0662 199.217 77.2582 199.217 76.3782C199.217 75.5302 199.377 74.7382 199.697 74.0022C200.017 73.2662 200.457 72.6182 201.017 72.0582C201.577 71.4982 202.217 71.0662 202.937 70.7622C203.673 70.4422 204.457 70.2822 205.289 70.2822C206.409 70.2822 207.425 70.5542 208.337 71.0982C209.249 71.6262 209.977 72.3462 210.521 73.2582C211.065 74.1702 211.337 75.2022 211.337 76.3542C211.337 77.2662 211.169 78.0982 210.833 78.8502C210.497 79.5862 210.041 80.2262 209.465 80.7702C208.889 81.2982 208.241 81.7062 207.521 81.9942C206.817 82.2822 206.089 82.4262 205.337 82.4262ZM205.289 79.5942C205.817 79.5942 206.321 79.4662 206.801 79.2102C207.297 78.9382 207.697 78.5542 208.001 78.0582C208.321 77.5622 208.481 76.9782 208.481 76.3062C208.481 75.6822 208.337 75.1302 208.049 74.6502C207.777 74.1702 207.401 73.7942 206.921 73.5222C206.441 73.2502 205.889 73.1142 205.265 73.1142C204.673 73.1142 204.137 73.2582 203.657 73.5462C203.177 73.8182 202.793 74.2022 202.505 74.6982C202.233 75.1782 202.097 75.7222 202.097 76.3302C202.097 77.0022 202.249 77.5862 202.553 78.0822C202.857 78.5622 203.249 78.9382 203.729 79.2102C204.225 79.4662 204.745 79.5942 205.289 79.5942ZM218.383 87.0822C217.807 87.0822 217.255 87.0102 216.727 86.8662C216.199 86.7382 215.719 86.5622 215.287 86.3382C214.871 86.1142 214.535 85.8742 214.279 85.6182C214.039 85.3622 213.919 85.1222 213.919 84.8982C213.919 84.6742 213.951 84.4822 214.015 84.3222C214.095 84.1622 214.207 84.0022 214.351 83.8422C214.543 83.6502 214.695 83.5062 214.807 83.4102C214.935 83.3142 215.103 83.2662 215.311 83.2662C215.487 83.2662 215.655 83.3302 215.815 83.4582C215.991 83.5862 216.191 83.7302 216.415 83.8902C216.639 84.0502 216.911 84.1942 217.231 84.3222C217.551 84.4502 217.959 84.5142 218.455 84.5142C218.871 84.5142 219.255 84.4422 219.607 84.2982C219.959 84.1542 220.255 83.9382 220.495 83.6502C220.751 83.3782 220.951 83.0502 221.095 82.6662C221.239 82.2822 221.311 81.8502 221.311 81.3702L221.287 71.4342C221.319 71.0662 221.447 70.8102 221.671 70.6662C221.895 70.5062 222.239 70.4262 222.703 70.4262C223.135 70.4262 223.447 70.4902 223.639 70.6182C223.831 70.7302 223.951 70.8982 223.999 71.1222C224.047 71.3302 224.071 71.5622 224.071 71.8182V81.5382C224.071 82.4182 223.919 83.2022 223.615 83.8902C223.311 84.5782 222.895 85.1542 222.367 85.6182C221.839 86.0982 221.231 86.4582 220.543 86.6982C219.871 86.9542 219.151 87.0822 218.383 87.0822ZM218.119 81.9702C217.367 81.9702 216.663 81.8262 216.007 81.5382C215.367 81.2502 214.799 80.8422 214.303 80.3142C213.823 79.7862 213.439 79.1782 213.151 78.4902C212.879 77.7862 212.743 77.0262 212.743 76.2102C212.743 75.4102 212.879 74.6662 213.151 73.9782C213.439 73.2902 213.823 72.6822 214.303 72.1542C214.799 71.6262 215.367 71.2182 216.007 70.9302C216.663 70.6262 217.359 70.4742 218.095 70.4742C218.815 70.4742 219.439 70.6182 219.967 70.9062C220.511 71.1782 220.959 71.5702 221.311 72.0822C221.663 72.5942 221.927 73.2022 222.103 73.9062C222.295 74.6102 222.391 75.3862 222.391 76.2342C222.391 77.4022 222.231 78.4182 221.911 79.2822C221.591 80.1462 221.119 80.8102 220.495 81.2742C219.871 81.7382 219.079 81.9702 218.119 81.9702ZM218.383 79.2582C218.927 79.2582 219.407 79.1302 219.823 78.8742C220.255 78.6022 220.591 78.2342 220.831 77.7702C221.087 77.3062 221.215 76.7862 221.215 76.2102C221.215 75.6182 221.087 75.0982 220.831 74.6502C220.591 74.1862 220.255 73.8262 219.823 73.5702C219.391 73.3142 218.903 73.1862 218.359 73.1862C217.815 73.1862 217.327 73.3222 216.895 73.5942C216.479 73.8502 216.151 74.2022 215.911 74.6502C215.671 75.0982 215.551 75.6182 215.551 76.2102C215.551 76.8022 215.671 77.3302 215.911 77.7942C216.167 78.2422 216.503 78.6022 216.919 78.8742C217.351 79.1302 217.839 79.2582 218.383 79.2582ZM228.166 82.2822C227.734 82.2822 227.414 82.2102 227.206 82.0662C226.998 81.9382 226.87 81.7702 226.822 81.5622C226.774 81.3382 226.75 81.0902 226.75 80.8182V71.8902C226.75 71.6342 226.774 71.4022 226.822 71.1942C226.886 70.9702 227.014 70.7942 227.206 70.6662C227.414 70.5382 227.742 70.4742 228.19 70.4742C228.638 70.4742 228.958 70.5382 229.15 70.6662C229.358 70.7942 229.486 70.9702 229.534 71.1942C229.582 71.4182 229.606 71.6662 229.606 71.9382V80.8422C229.606 81.1142 229.582 81.3622 229.534 81.5862C229.486 81.7942 229.358 81.9622 229.15 82.0902C228.958 82.2182 228.63 82.2822 228.166 82.2822ZM228.166 68.1462C227.702 68.1462 227.358 68.0822 227.134 67.9542C226.926 67.8102 226.79 67.6182 226.726 67.3782C226.678 67.1382 226.654 66.8742 226.654 66.5862C226.654 66.2822 226.678 66.0182 226.726 65.7942C226.79 65.5702 226.934 65.3942 227.158 65.2662C227.382 65.1222 227.726 65.0502 228.19 65.0502C228.67 65.0502 229.014 65.1222 229.222 65.2662C229.43 65.4102 229.566 65.6022 229.63 65.8422C229.694 66.0662 229.726 66.3302 229.726 66.6342C229.726 66.9062 229.694 67.1622 229.63 67.4022C229.566 67.6422 229.43 67.8262 229.222 67.9542C229.014 68.0822 228.662 68.1462 228.166 68.1462ZM236.335 82.4262C235.919 82.4262 235.479 82.3782 235.015 82.2822C234.551 82.2022 234.103 82.0822 233.671 81.9222C233.239 81.7462 232.863 81.5462 232.543 81.3222C232.239 81.0822 232.047 80.8182 231.967 80.5302C231.903 80.3702 231.879 80.2182 231.895 80.0742C231.911 79.9142 231.959 79.7542 232.039 79.5942C232.119 79.4182 232.239 79.2422 232.399 79.0662C232.543 78.8902 232.687 78.7942 232.831 78.7782C232.991 78.7462 233.191 78.7942 233.431 78.9222C233.639 79.0022 233.863 79.1062 234.103 79.2342C234.359 79.3622 234.615 79.4902 234.871 79.6182C235.143 79.7462 235.415 79.8502 235.687 79.9302C235.975 80.0102 236.255 80.0502 236.527 80.0502C237.119 80.0502 237.591 79.9542 237.943 79.7622C238.295 79.5542 238.471 79.2662 238.471 78.8982C238.471 78.6902 238.415 78.5062 238.303 78.3462C238.191 78.1862 238.039 78.0582 237.847 77.9622C237.671 77.8502 237.455 77.7542 237.199 77.6742C236.959 77.5782 236.695 77.4982 236.407 77.4342C236.135 77.3542 235.847 77.2662 235.543 77.1702C235.143 77.0582 234.743 76.9222 234.343 76.7622C233.943 76.6022 233.583 76.3942 233.263 76.1382C232.959 75.8822 232.711 75.5622 232.519 75.1782C232.327 74.7942 232.231 74.3142 232.231 73.7382C232.231 73.0182 232.399 72.4102 232.735 71.9142C233.087 71.4022 233.591 71.0102 234.247 70.7382C234.903 70.4662 235.695 70.3302 236.623 70.3302C236.943 70.3302 237.247 70.3542 237.535 70.4022C237.839 70.4502 238.127 70.5222 238.399 70.6182C238.687 70.6982 238.959 70.8022 239.215 70.9302C239.487 71.0582 239.743 71.2022 239.983 71.3622C240.383 71.5862 240.591 71.8502 240.607 72.1542C240.623 72.4422 240.511 72.7542 240.271 73.0902C240.095 73.3142 239.919 73.4742 239.743 73.5702C239.567 73.6502 239.383 73.6502 239.191 73.5702C238.935 73.4422 238.655 73.3062 238.351 73.1622C238.063 73.0022 237.759 72.8662 237.439 72.7542C237.135 72.6422 236.815 72.5862 236.479 72.5862C236.159 72.5862 235.871 72.6342 235.615 72.7302C235.359 72.8262 235.167 72.9622 235.039 73.1382C234.911 73.3142 234.847 73.5222 234.847 73.7622C234.847 73.9862 234.911 74.1702 235.039 74.3142C235.167 74.4582 235.335 74.5782 235.543 74.6742C235.751 74.7702 235.999 74.8582 236.287 74.9382C236.575 75.0022 236.879 75.0662 237.199 75.1302C237.647 75.2262 238.103 75.3462 238.567 75.4902C239.031 75.6342 239.455 75.8342 239.839 76.0902C240.239 76.3462 240.559 76.6902 240.799 77.1222C241.039 77.5382 241.159 78.0822 241.159 78.7542C241.159 79.9222 240.727 80.8262 239.863 81.4662C239.015 82.1062 237.839 82.4262 236.335 82.4262Z" fill="black"/>
</svg>
