<svg width="400" height="120" viewBox="0 0 400 120" fill="none" xmlns="http://www.w3.org/2000/svg">
<mask id="mask0_62_2409" style="mask-type:luminance" maskUnits="userSpaceOnUse" x="0" y="0" width="400" height="120">
<path d="M400 0H0V120H400V0Z" fill="white"/>
</mask>
<g mask="url(#mask0_62_2409)">
<mask id="mask1_62_2409" style="mask-type:luminance" maskUnits="userSpaceOnUse" x="9" y="9" width="388" height="111">
<path d="M9.33838 9.33325H396.887V119.354H9.33838V9.33325Z" fill="white"/>
</mask>
<g mask="url(#mask1_62_2409)">
<path d="M15.789 72.3853L12.3965 62.3593L17.7893 51.8749L13.0349 41.3958L9.77612 30.9114L12.1047 19.3541L26.2584 18.2343L39.1779 15.5937L52.3406 21.4739L65.1142 13.7499L78.3376 21.7083L91.2267 17.9635L104.365 22.901L117.358 22.677L130.405 24.3437L143.318 21.4218L155.618 17.1093L167.972 14.5624L180.326 12.0989L192.783 13.2135L205.32 17.1249L217.838 20.3437L230.253 20.0728L242.4 10.3072L255.064 18.6874L267.503 19.1718L279.742 12.4791L292.084 9.53638L304.906 12.9062L318.19 14.7655L328.447 23.3958L341.367 25.4062L352.316 32.3385L368.294 26.7083L380.204 31.2239L396.346 37.177L387.475 50.3385L387.159 62.0937L374.361 69.8593L369.875 80.2812L373.796 93.3957L367.57 103.266L364.391 115.974L345.853 109.745L333.335 117.432L320.227 109.989L307.782 119.823L294.631 110.969L281.864 112.432L269.005 111.359L256.444 118.932L243.555 117.01L230.824 121.224L218.355 114.521L205.222 119.724L193.081 116.047L180.727 115.328L168.306 115.838L155.903 115.969L143.829 110.542L131.396 111.203L119.346 105.146L106.274 116.76L94.5645 104.833L81.5599 115.427L69.6375 107.245L57.5023 102.453L44.6436 110.724L27.2615 111.552L29.4685 98.1405L22.7929 90.2291L11.0103 83.578L15.789 72.3853Z" fill="black"/>
<path d="M15.789 72.3853L12.3965 62.3593L17.7893 51.8749L13.0349 41.3958L9.77612 30.9114L12.1047 19.3541L26.2584 18.2343L39.1779 15.5937L52.3406 21.4739L65.1142 13.7499L78.3376 21.7083L91.2267 17.9635L104.365 22.901L117.358 22.677L130.405 24.3437L143.318 21.4218L155.618 17.1093L167.972 14.5624L180.326 12.0989L192.783 13.2135L205.32 17.1249L217.838 20.3437L230.253 20.0728L242.4 10.3072L255.064 18.6874L267.503 19.1718L279.742 12.4791L292.084 9.53638L304.906 12.9062L318.19 14.7655L328.447 23.3958L341.367 25.4062L352.316 32.3385L368.294 26.7083L380.204 31.2239L396.346 37.177L387.475 50.3385L387.159 62.0937L374.361 69.8593L369.875 80.2812L373.796 93.3957L367.57 103.266L364.391 115.974L345.853 109.745L333.335 117.432L320.227 109.989L307.782 119.823L294.631 110.969L281.864 112.432L269.005 111.359L256.444 118.932L243.555 117.01L230.824 121.224L218.355 114.521L205.222 119.724L193.081 116.047L180.727 115.328L168.306 115.838L155.903 115.969L143.829 110.542L131.396 111.203L119.346 105.146L106.274 116.76L94.5645 104.833L81.5599 115.427L69.6375 107.245L57.5023 102.453L44.6436 110.724L27.2615 111.552L29.4685 98.1405L22.7929 90.2291L11.0103 83.578L15.789 72.3853Z" fill="black"/>
</g>
<mask id="mask2_62_2409" style="mask-type:luminance" maskUnits="userSpaceOnUse" x="7" y="7" width="391" height="113">
<path d="M7.78198 7.99988H397.586V119.354H7.78198V7.99988Z" fill="white"/>
</mask>
<g mask="url(#mask2_62_2409)">
<path d="M230.739 121.984L218.3 115.307L205.265 120.474L192.917 116.734L180.721 115.99L168.342 116.495L155.715 116.63L143.653 111.203L131.207 111.885L119.485 105.995L106.238 117.766L94.5037 105.812L81.6085 116.328L69.2058 107.849L57.6056 103.26L44.9111 111.401L26.3131 112.286L28.6355 98.3489L22.1971 90.7239L10.0497 83.8489L14.9561 72.3645L11.5575 62.3124L16.932 51.8541L12.2627 41.5728L8.95532 30.9426L11.4237 18.7291L26.1671 17.5572L39.2812 14.901L52.2737 20.703L65.1141 12.9166L78.4653 20.953L91.2632 17.2291L104.523 22.2135L117.406 21.9895L130.356 23.6562L143.051 20.776L155.423 16.4426L167.765 13.8958L180.259 11.4166L193.038 12.5728L205.569 16.4843L217.941 19.651L229.931 19.3958L242.345 9.40617L255.356 18.0103L267.26 18.4687L279.383 11.8489L292.078 8.81763L305.076 12.2083L318.561 14.0937L328.83 22.7291L341.683 24.7239L352.414 31.5103L368.282 25.9218L380.514 30.552L397.483 36.8489L388.272 50.526L387.962 62.453L375.03 70.2968L370.714 80.3228L374.678 93.4843L368.33 103.505L364.95 116.906L345.951 110.516L333.335 118.26L320.294 110.854L307.824 120.74L294.413 111.703L281.882 113.146L269.188 112.078L256.627 119.651L243.634 117.719L230.739 121.984ZM218.415 113.75L230.915 120.463L243.47 116.307L256.256 118.213L268.792 110.656L281.852 111.755L294.856 110.255L307.739 118.932L320.148 109.13L333.317 116.594L345.744 108.969L363.801 115.031L366.816 103.016L372.951 93.2968L369.048 80.2343L373.681 69.427L386.375 61.7135L386.685 50.1822L395.215 37.4947L379.894 31.8645L368.276 27.4583L352.201 33.1249L341.038 26.0468L328.064 24.0155L317.807 15.3958L304.651 13.5468L292.054 10.2291L280.058 13.1093L267.704 19.8958L254.76 19.3958L242.437 11.2499L230.532 20.7916L217.68 21.078L205.04 17.828L192.601 13.8853L180.374 12.7916L168.184 15.2291L155.867 17.7499L143.525 22.078L130.453 25.0364L117.303 23.3541L104.207 23.5885L91.2267 18.6926L78.216 22.4687L65.1141 14.578L52.4196 22.2708L39.0927 16.3124L26.3313 18.9062L12.7856 19.9843L10.5847 30.8801L13.7948 41.1822L18.6526 51.8905L13.2476 62.3905L16.6462 72.4114L11.9952 83.3072L23.3705 89.7239L30.3135 97.9687L28.1978 110.823L44.376 110.057L57.4232 101.667L70.1178 106.708L81.5113 114.521L94.6192 103.844L106.298 115.745L119.194 104.286L131.572 110.516L143.987 109.833L156.08 115.26L168.282 115.135L180.721 114.62L193.227 115.349L205.125 118.958L218.415 113.75Z" fill="black"/>
</g>
<mask id="mask3_62_2409" style="mask-type:luminance" maskUnits="userSpaceOnUse" x="3" y="1" width="388" height="113">
<path d="M3.11279 1.08325H390.661V113.333H3.11279V1.08325Z" fill="white"/>
</mask>
<g mask="url(#mask3_62_2409)">
<path d="M9.78237 63.3954L6.39594 53.3642L11.7826 42.8798L7.02824 32.4006L3.75732 21.9163L6.09804 10.3642L20.2457 9.23918L33.1712 6.60376L46.3339 12.4788L59.1075 4.7548L72.3249 12.7183L85.2201 8.96313L98.3585 13.9111L111.345 13.6819L124.398 15.359L137.312 12.4319L149.611 8.10897L161.965 5.5673L174.319 3.10897L186.777 4.22355L199.313 8.1298L211.825 11.3486L224.246 11.0777L236.387 1.31209L249.058 9.69751L261.497 10.1819L273.735 3.48918L286.077 0.54126L298.9 3.91626L312.184 5.77043L322.44 14.4058L335.36 16.4163L346.31 23.3433L362.281 17.7131L374.197 22.2288L390.339 28.1767L381.469 41.3486L381.153 53.1038L368.355 60.8642L363.868 71.2913L367.796 84.4006L361.564 94.2704L358.378 106.979L339.847 100.755L327.329 108.442L314.221 101L301.775 110.833L288.619 101.974L275.851 103.442L262.999 102.364L250.432 109.937L237.549 108.026L224.818 112.234L212.348 105.526L199.216 110.729L187.068 107.062L174.726 106.333L162.299 106.849L149.897 106.979L137.822 101.546L125.389 102.208L113.339 96.1558L100.268 107.765L88.5579 95.8433L75.5533 106.427L63.6248 98.2444L51.5017 93.4579L38.6369 101.734L21.2488 102.557L23.4618 89.1506L16.7863 81.234L5.00368 74.5829L9.78237 63.3954Z" fill="white"/>
</g>
<mask id="mask4_62_2409" style="mask-type:luminance" maskUnits="userSpaceOnUse" x="0" y="1" width="396" height="115">
<path d="M0.674805 1.08337H395.331V116H0.674805V1.08337Z" fill="white"/>
</mask>
<g mask="url(#mask4_62_2409)">
<path d="M224.52 115.01L212.147 108.365L199.386 113.422L186.491 109.521L174.708 108.844L162.348 109.349L149.21 109.49L137.202 104.063L124.69 104.74L113.862 99.3126L100.146 111.526L88.3389 99.5105L75.7234 109.745L62.0743 100.385L51.8542 96.3542L39.6521 104.182L17.8318 105.214L20.3732 89.7917L14.7007 83.0626L1.44077 75.599L6.68153 63.3282L3.30118 53.1875L8.62097 42.8282L4.20099 33.0417L0.778076 22.0313L3.61125 8.05733L19.7713 6.76046L33.5541 3.95837L46.1027 9.56254L59.1013 1.69796L72.7929 9.94275L85.3537 6.29171L98.942 11.4011L111.539 11.1823L124.234 12.8125L136.381 10.0573L148.705 5.72921L161.284 3.14587L174.13 0.578167L187.433 1.77608L200.231 5.76567L212.22 8.84379L223.06 8.60421L236.205 -1.9635L250.115 7.23442L260.706 7.65108L272.525 1.18233L286.12 -2.05725L299.568 1.48442L313.564 3.43754L323.875 12.0886L336.57 14.0625L346.705 20.5L362.311 14.9948L375.365 19.948L394.492 27L384.369 42.0417L384.04 54.4115L370.787 62.4532L366.92 71.4219L370.89 84.724L364.318 95.1459L360.494 110.38L340.248 103.594L327.377 111.495L314.5 104.182L301.909 114.13L287.767 104.63L275.869 105.99L263.752 104.979L251.058 112.609L237.767 110.635L224.52 115.01ZM212.561 102.693L225.128 109.474L237.214 105.448L249.708 107.302L262.172 99.7917L275.772 100.932L289.427 99.3594L301.593 107.557L313.886 97.8334L327.231 105.412L339.403 97.948L356.226 103.589L358.779 93.4115L364.683 84.1042L360.816 71.2136L365.929 59.3334L378.277 51.8698L378.569 40.6823L386.174 29.3959L373.036 24.5573L362.238 20.4844L345.908 26.1823L334.168 18.7605L321.036 16.7292L310.791 8.11983L298.237 6.35421L286.041 3.14587L274.933 5.79171L262.293 12.7032L248.012 12.1563L236.576 4.58858L225.432 13.5469L211.436 13.849L198.31 10.4584L186.108 6.65108L174.532 5.63546L162.634 8.00525L150.517 10.4948L138.242 14.8021L124.55 17.9011L111.156 16.1823L97.7625 16.4167L85.068 11.6667L71.8688 15.4844L59.1074 7.80733L46.5648 15.3959L32.782 9.24483L20.7197 11.7084L8.59058 12.6719L6.74233 21.8073L9.80653 31.625L14.9379 42.9428L9.50254 53.573L12.8647 63.5209L8.53586 73.5886L18.8471 79.4063L26.5198 88.5053L24.6412 99.8959L37.5971 99.2865L51.1489 90.5678L65.175 96.1094L75.3586 103.099L88.7949 92.2448L100.419 104.068L112.828 93.0365L126.137 99.7084L138.497 99.0261L150.602 104.453L162.214 104.333L174.757 103.818L187.67 104.568L199.064 108.016L212.561 102.693Z" fill="black"/>
<path d="M224.52 115.01L212.147 108.365L199.386 113.422L186.491 109.521L174.708 108.844L162.348 109.349L149.21 109.49L137.202 104.063L124.69 104.74L113.862 99.3126L100.146 111.526L88.3389 99.5105L75.7234 109.745L62.0743 100.385L51.8542 96.3542L39.6521 104.182L17.8318 105.214L20.3732 89.7917L14.7007 83.0626L1.44077 75.599L6.68153 63.3282L3.30118 53.1875L8.62097 42.8282L4.20099 33.0417L0.778076 22.0313L3.61125 8.05733L19.7713 6.76046L33.5541 3.95837L46.1027 9.56254L59.1013 1.69796L72.7929 9.94275L85.3537 6.29171L98.942 11.4011L111.539 11.1823L124.234 12.8125L136.381 10.0573L148.705 5.72921L161.284 3.14587L174.13 0.578167L187.433 1.77608L200.231 5.76567L212.22 8.84379L223.06 8.60421L236.205 -1.9635L250.115 7.23442L260.706 7.65108L272.525 1.18233L286.12 -2.05725L299.568 1.48442L313.564 3.43754L323.875 12.0886L336.57 14.0625L346.705 20.5L362.311 14.9948L375.365 19.948L394.492 27L384.369 42.0417L384.04 54.4115L370.787 62.4532L366.92 71.4219L370.89 84.724L364.318 95.1459L360.494 110.38L340.248 103.594L327.377 111.495L314.5 104.182L301.909 114.13L287.767 104.63L275.869 105.99L263.752 104.979L251.058 112.609L237.767 110.635L224.52 115.01ZM212.561 102.693L225.128 109.474L237.214 105.448L249.708 107.302L262.172 99.7917L275.772 100.932L289.427 99.3594L301.593 107.557L313.886 97.8334L327.231 105.412L339.403 97.948L356.226 103.589L358.779 93.4115L364.683 84.1042L360.816 71.2136L365.929 59.3334L378.277 51.8698L378.569 40.6823L386.174 29.3959L373.036 24.5573L362.238 20.4844L345.908 26.1823L334.168 18.7605L321.036 16.7292L310.791 8.11983L298.237 6.35421L286.041 3.14587L274.933 5.79171L262.293 12.7032L248.012 12.1563L236.576 4.58858L225.432 13.5469L211.436 13.849L198.31 10.4584L186.108 6.65108L174.532 5.63546L162.634 8.00525L150.517 10.4948L138.242 14.8021L124.55 17.9011L111.156 16.1823L97.7625 16.4167L85.068 11.6667L71.8688 15.4844L59.1074 7.80733L46.5648 15.3959L32.782 9.24483L20.7197 11.7084L8.59058 12.6719L6.74233 21.8073L9.80653 31.625L14.9379 42.9428L9.50254 53.573L12.8647 63.5209L8.53586 73.5886L18.8471 79.4063L26.5198 88.5053L24.6412 99.8959L37.5971 99.2865L51.1489 90.5678L65.175 96.1094L75.3586 103.099L88.7949 92.2448L100.419 104.068L112.828 93.0365L126.137 99.7084L138.497 99.0261L150.602 104.453L162.214 104.333L174.757 103.818L187.67 104.568L199.064 108.016L212.561 102.693Z" fill="black"/>
</g>
</g>
<path d="M28.034 53.2582C27.586 53.2582 27.258 53.1942 27.05 53.0662C26.842 52.9382 26.714 52.7622 26.666 52.5382C26.618 52.2982 26.594 52.0502 26.594 51.7942V37.9462C26.594 37.6902 26.618 37.4582 26.666 37.2502C26.73 37.0262 26.866 36.8502 27.074 36.7222C27.282 36.5782 27.61 36.5062 28.058 36.5062H33.146C33.85 36.5062 34.538 36.6262 35.21 36.8662C35.882 37.1062 36.482 37.4662 37.01 37.9462C37.554 38.4262 37.978 39.0182 38.282 39.7222C38.602 40.4262 38.762 41.2502 38.762 42.1942C38.762 43.1222 38.602 43.9382 38.282 44.6422C37.978 45.3302 37.554 45.9142 37.01 46.3942C36.466 46.8742 35.858 47.2342 35.186 47.4742C34.53 47.7142 33.842 47.8342 33.122 47.8342H29.498V51.8182C29.498 52.0742 29.466 52.3142 29.402 52.5382C29.354 52.7622 29.226 52.9382 29.018 53.0662C28.826 53.1942 28.498 53.2582 28.034 53.2582ZM29.498 44.9062H33.146C33.642 44.9062 34.09 44.8102 34.49 44.6182C34.906 44.4102 35.242 44.1062 35.498 43.7062C35.754 43.2902 35.882 42.7702 35.882 42.1462C35.882 41.5862 35.762 41.1062 35.522 40.7062C35.298 40.2902 34.978 39.9702 34.562 39.7462C34.162 39.5222 33.682 39.4102 33.122 39.4102H29.498V44.9062ZM46.5292 53.4262C45.4892 53.4262 44.5772 53.2582 43.7932 52.9222C43.0252 52.5862 42.3772 52.1302 41.8492 51.5542C41.3372 50.9622 40.9452 50.3062 40.6732 49.5862C40.4172 48.8502 40.2892 48.0902 40.2892 47.3062C40.2892 46.1542 40.5532 45.1302 41.0812 44.2342C41.6092 43.3382 42.3372 42.6342 43.2652 42.1222C44.2092 41.6102 45.2892 41.3542 46.5052 41.3542C47.3692 41.3542 48.1292 41.4902 48.7852 41.7622C49.4412 42.0342 49.9852 42.3942 50.4172 42.8422C50.8652 43.2742 51.2012 43.7542 51.4252 44.2822C51.6652 44.8102 51.7852 45.3222 51.7852 45.8182C51.7852 46.6662 51.5772 47.2822 51.1612 47.6662C50.7612 48.0502 50.2572 48.2422 49.6492 48.2422H43.3132C43.3292 48.7862 43.4972 49.2582 43.8172 49.6582C44.1532 50.0582 44.5692 50.3702 45.0652 50.5942C45.5772 50.8022 46.0972 50.9062 46.6252 50.9062C47.0252 50.9062 47.3772 50.8822 47.6812 50.8342C48.0012 50.7862 48.2732 50.7302 48.4972 50.6662C48.7212 50.5862 48.9132 50.5062 49.0732 50.4262C49.2492 50.3462 49.4092 50.2742 49.5532 50.2102C49.6972 50.1462 49.8332 50.1062 49.9612 50.0902C50.1372 50.0742 50.3132 50.1142 50.4892 50.2102C50.6652 50.3062 50.8092 50.4742 50.9212 50.7142C51.0172 50.8742 51.0812 51.0262 51.1132 51.1702C51.1612 51.2982 51.1852 51.4262 51.1852 51.5542C51.1852 51.8742 50.9932 52.1782 50.6092 52.4662C50.2252 52.7382 49.6812 52.9622 48.9772 53.1382C48.2892 53.3302 47.4732 53.4262 46.5292 53.4262ZM43.3132 46.5382H48.2332C48.5052 46.5382 48.7132 46.4982 48.8572 46.4182C49.0012 46.3222 49.0732 46.1302 49.0732 45.8422C49.0732 45.4742 48.9612 45.1462 48.7372 44.8582C48.5132 44.5542 48.2092 44.3222 47.8252 44.1622C47.4412 43.9862 46.9932 43.8982 46.4812 43.8982C45.8892 43.8982 45.3532 44.0182 44.8732 44.2582C44.3932 44.4822 44.0092 44.7942 43.7212 45.1942C43.4492 45.5942 43.3132 46.0422 43.3132 46.5382ZM55.1707 53.2582C54.7387 53.2582 54.4187 53.1862 54.2107 53.0422C54.0187 52.9142 53.8987 52.7462 53.8507 52.5382C53.8027 52.3142 53.7787 52.0662 53.7787 51.7942V42.8182C53.7787 42.5622 53.8027 42.3302 53.8507 42.1222C53.8987 41.9142 54.0267 41.7542 54.2347 41.6422C54.4427 41.5142 54.7627 41.4502 55.1947 41.4502C55.5787 41.4502 55.8667 41.4982 56.0587 41.5942C56.2507 41.6902 56.3787 41.8102 56.4427 41.9542C56.5067 42.0982 56.5387 42.2422 56.5387 42.3862C56.5547 42.5302 56.5707 42.6422 56.5867 42.7222L56.4907 43.4902C56.5867 43.2342 56.7467 42.9862 56.9707 42.7462C57.1947 42.5062 57.4667 42.2902 57.7867 42.0982C58.1067 41.8902 58.4507 41.7302 58.8187 41.6182C59.2027 41.4902 59.5947 41.4262 59.9947 41.4262C60.7467 41.4262 61.4187 41.5622 62.0107 41.8342C62.6027 42.1062 63.1067 42.4902 63.5227 42.9862C63.9547 43.4822 64.2827 44.0742 64.5067 44.7622C64.7307 45.4342 64.8427 46.1942 64.8427 47.0422V51.8182C64.8427 52.0902 64.8107 52.3382 64.7467 52.5622C64.6987 52.7702 64.5787 52.9382 64.3867 53.0662C64.1947 53.1942 63.8667 53.2582 63.4027 53.2582C62.9547 53.2582 62.6267 53.1862 62.4187 53.0422C62.2107 52.9142 62.0827 52.7462 62.0347 52.5382C61.9867 52.3142 61.9627 52.0662 61.9627 51.7942V47.0182C61.9627 46.4422 61.8587 45.9462 61.6507 45.5302C61.4587 45.1142 61.1707 44.7942 60.7867 44.5702C60.4187 44.3462 59.9467 44.2342 59.3707 44.2342C58.8107 44.2342 58.3227 44.3542 57.9067 44.5942C57.4907 44.8182 57.1707 45.1382 56.9467 45.5542C56.7227 45.9702 56.6107 46.4582 56.6107 47.0182V51.8182C56.6107 52.0902 56.5867 52.3382 56.5387 52.5622C56.4907 52.7702 56.3627 52.9382 56.1547 53.0662C55.9627 53.1942 55.6347 53.2582 55.1707 53.2582ZM69.4338 58.0102C68.9218 57.7862 68.6258 57.5302 68.5458 57.2422C68.4658 56.9702 68.5378 56.6022 68.7618 56.1382L74.9538 42.2662C75.1778 41.7542 75.4178 41.4502 75.6738 41.3542C75.9298 41.2422 76.3218 41.2982 76.8498 41.5222C77.3458 41.7462 77.6338 41.9942 77.7138 42.2662C77.8098 42.5382 77.7538 42.9062 77.5458 43.3702L71.3058 57.3142C71.0978 57.8262 70.8658 58.1222 70.6098 58.2022C70.3538 58.2982 69.9618 58.2342 69.4338 58.0102ZM71.6658 52.1302L66.1218 43.6102C65.8338 43.1782 65.7138 42.8182 65.7618 42.5302C65.8258 42.2422 66.0818 41.9622 66.5298 41.6902C67.0258 41.3862 67.4098 41.2662 67.6818 41.3302C67.9698 41.3942 68.2578 41.6502 68.5458 42.0982L72.9378 48.9382L71.6658 52.1302ZM85.2011 53.4262C84.1611 53.4262 83.2491 53.2582 82.4651 52.9222C81.6971 52.5862 81.0491 52.1302 80.5211 51.5542C80.0091 50.9622 79.6171 50.3062 79.3451 49.5862C79.0891 48.8502 78.9611 48.0902 78.9611 47.3062C78.9611 46.1542 79.2251 45.1302 79.7531 44.2342C80.2811 43.3382 81.0091 42.6342 81.9371 42.1222C82.8811 41.6102 83.9611 41.3542 85.1771 41.3542C86.0411 41.3542 86.8011 41.4902 87.4571 41.7622C88.1131 42.0342 88.6571 42.3942 89.0891 42.8422C89.5371 43.2742 89.8731 43.7542 90.0971 44.2822C90.3371 44.8102 90.4571 45.3222 90.4571 45.8182C90.4571 46.6662 90.2491 47.2822 89.8331 47.6662C89.4331 48.0502 88.9291 48.2422 88.3211 48.2422H81.9851C82.0011 48.7862 82.1691 49.2582 82.4891 49.6582C82.8251 50.0582 83.2411 50.3702 83.7371 50.5942C84.2491 50.8022 84.7691 50.9062 85.2971 50.9062C85.6971 50.9062 86.0491 50.8822 86.3531 50.8342C86.6731 50.7862 86.9451 50.7302 87.1691 50.6662C87.3931 50.5862 87.5851 50.5062 87.7451 50.4262C87.9211 50.3462 88.0811 50.2742 88.2251 50.2102C88.3691 50.1462 88.5051 50.1062 88.6331 50.0902C88.8091 50.0742 88.9851 50.1142 89.1611 50.2102C89.3371 50.3062 89.4811 50.4742 89.5931 50.7142C89.6891 50.8742 89.7531 51.0262 89.7851 51.1702C89.8331 51.2982 89.8571 51.4262 89.8571 51.5542C89.8571 51.8742 89.6651 52.1782 89.2811 52.4662C88.8971 52.7382 88.3531 52.9622 87.6491 53.1382C86.9611 53.3302 86.1451 53.4262 85.2011 53.4262ZM81.9851 46.5382H86.9051C87.1771 46.5382 87.3851 46.4982 87.5291 46.4182C87.6731 46.3222 87.7451 46.1302 87.7451 45.8422C87.7451 45.4742 87.6331 45.1462 87.4091 44.8582C87.1851 44.5542 86.8811 44.3222 86.4971 44.1622C86.1131 43.9862 85.6651 43.8982 85.1531 43.8982C84.5611 43.8982 84.0251 44.0182 83.5451 44.2582C83.0651 44.4822 82.6811 44.7942 82.3931 45.1942C82.1211 45.5942 81.9851 46.0422 81.9851 46.5382ZM98.5946 53.2582C97.8106 53.2582 97.1066 53.1062 96.4826 52.8022C95.8746 52.4822 95.3546 52.0502 94.9226 51.5062C94.5066 50.9622 94.1866 50.3382 93.9626 49.6342C93.7546 48.9142 93.6506 48.1462 93.6506 47.3302C93.6666 46.5142 93.7866 45.7542 94.0106 45.0502C94.2346 44.3302 94.5546 43.7062 94.9706 43.1782C95.4026 42.6342 95.9226 42.2102 96.5306 41.9062C97.1386 41.6022 97.8266 41.4502 98.5946 41.4502C99.3306 41.4502 100.019 41.6022 100.659 41.9062C101.315 42.2102 101.891 42.6342 102.387 43.1782C102.899 43.7062 103.299 44.3302 103.587 45.0502C103.875 45.7542 104.019 46.5062 104.019 47.3062C104.019 48.1382 103.875 48.9222 103.587 49.6582C103.299 50.3782 102.907 51.0102 102.411 51.5542C101.915 52.0822 101.339 52.4982 100.683 52.8022C100.027 53.1062 99.3306 53.2582 98.5946 53.2582ZM98.2106 50.4502C98.7706 50.4502 99.2746 50.3222 99.7226 50.0662C100.171 49.7942 100.523 49.4262 100.779 48.9622C101.051 48.4982 101.187 47.9702 101.187 47.3782C101.187 46.7702 101.051 46.2342 100.779 45.7702C100.523 45.2902 100.171 44.9222 99.7226 44.6662C99.2746 44.3942 98.7706 44.2582 98.2106 44.2582C97.6666 44.2582 97.1706 44.3942 96.7226 44.6662C96.2746 44.9382 95.9146 45.3062 95.6426 45.7702C95.3866 46.2342 95.2586 46.7702 95.2586 47.3782C95.2586 47.9702 95.3866 48.4982 95.6426 48.9622C95.9146 49.4262 96.2746 49.7942 96.7226 50.0662C97.1706 50.3222 97.6666 50.4502 98.2106 50.4502ZM93.7706 53.2822C93.3386 53.2822 93.0186 53.2102 92.8106 53.0662C92.6026 52.9382 92.4746 52.7702 92.4266 52.5622C92.3786 52.3382 92.3546 52.0902 92.3546 51.8182V37.5142C92.3546 37.2422 92.3786 37.0022 92.4266 36.7942C92.4746 36.5702 92.6026 36.3942 92.8106 36.2662C93.0186 36.1382 93.3386 36.0742 93.7706 36.0742C94.2186 36.0742 94.5386 36.1382 94.7306 36.2662C94.9226 36.3942 95.0426 36.5702 95.0906 36.7942C95.1386 37.0182 95.1626 37.2582 95.1626 37.5142V52.2982C95.0986 52.6502 94.9626 52.8982 94.7546 53.0422C94.5626 53.2022 94.2346 53.2822 93.7706 53.2822ZM115.79 53.2342C115.326 53.2342 114.982 53.1462 114.758 52.9702C114.534 52.7942 114.422 52.5542 114.422 52.2502L114.59 51.4582C114.462 51.6662 114.246 51.9142 113.942 52.2022C113.638 52.4742 113.238 52.7222 112.742 52.9462C112.246 53.1542 111.646 53.2582 110.942 53.2582C110.19 53.2582 109.478 53.1062 108.806 52.8022C108.15 52.4822 107.566 52.0502 107.054 51.5062C106.558 50.9462 106.158 50.3142 105.854 49.6102C105.566 48.8902 105.422 48.1222 105.422 47.3062C105.422 46.5222 105.566 45.7862 105.854 45.0982C106.158 44.3942 106.566 43.7702 107.078 43.2262C107.59 42.6822 108.174 42.2582 108.83 41.9542C109.502 41.6342 110.206 41.4742 110.942 41.4742C111.598 41.4742 112.15 41.5622 112.598 41.7382C113.062 41.9142 113.454 42.1382 113.774 42.4102C114.094 42.6662 114.358 42.9382 114.566 43.2262L114.422 42.5302C114.422 42.1782 114.534 41.9142 114.758 41.7382C114.982 41.5462 115.334 41.4502 115.814 41.4502C116.262 41.4502 116.582 41.5222 116.774 41.6662C116.966 41.7942 117.086 41.9782 117.134 42.2182C117.182 42.4422 117.206 42.6982 117.206 42.9862V51.7702C117.206 52.0422 117.182 52.2902 117.134 52.5142C117.086 52.7382 116.958 52.9142 116.75 53.0422C116.558 53.1702 116.238 53.2342 115.79 53.2342ZM111.374 50.4502C111.918 50.4502 112.406 50.3142 112.838 50.0422C113.27 49.7702 113.614 49.4022 113.87 48.9382C114.142 48.4582 114.278 47.9302 114.278 47.3542C114.278 46.7302 114.142 46.1862 113.87 45.7222C113.598 45.2582 113.238 44.8982 112.79 44.6422C112.358 44.3702 111.87 44.2342 111.326 44.2342C110.734 44.2342 110.206 44.3782 109.742 44.6662C109.278 44.9382 108.91 45.3142 108.638 45.7942C108.382 46.2582 108.254 46.7862 108.254 47.3782C108.254 47.9542 108.39 48.4742 108.662 48.9382C108.934 49.4022 109.302 49.7702 109.766 50.0422C110.246 50.3142 110.782 50.4502 111.374 50.4502ZM125.782 53.2582C124.998 53.2582 124.294 53.1062 123.67 52.8022C123.062 52.4822 122.542 52.0502 122.11 51.5062C121.694 50.9622 121.374 50.3382 121.15 49.6342C120.942 48.9142 120.838 48.1462 120.838 47.3302C120.854 46.5142 120.974 45.7542 121.198 45.0502C121.422 44.3302 121.742 43.7062 122.158 43.1782C122.59 42.6342 123.11 42.2102 123.718 41.9062C124.326 41.6022 125.014 41.4502 125.782 41.4502C126.518 41.4502 127.206 41.6022 127.846 41.9062C128.502 42.2102 129.078 42.6342 129.574 43.1782C130.086 43.7062 130.486 44.3302 130.774 45.0502C131.062 45.7542 131.206 46.5062 131.206 47.3062C131.206 48.1382 131.062 48.9222 130.774 49.6582C130.486 50.3782 130.094 51.0102 129.598 51.5542C129.102 52.0822 128.526 52.4982 127.87 52.8022C127.214 53.1062 126.518 53.2582 125.782 53.2582ZM125.398 50.4502C125.958 50.4502 126.462 50.3222 126.91 50.0662C127.358 49.7942 127.71 49.4262 127.966 48.9622C128.238 48.4982 128.374 47.9702 128.374 47.3782C128.374 46.7702 128.238 46.2342 127.966 45.7702C127.71 45.2902 127.358 44.9222 126.91 44.6662C126.462 44.3942 125.958 44.2582 125.398 44.2582C124.854 44.2582 124.358 44.3942 123.91 44.6662C123.462 44.9382 123.102 45.3062 122.83 45.7702C122.574 46.2342 122.446 46.7702 122.446 47.3782C122.446 47.9702 122.574 48.4982 122.83 48.9622C123.102 49.4262 123.462 49.7942 123.91 50.0662C124.358 50.3222 124.854 50.4502 125.398 50.4502ZM120.958 53.2822C120.526 53.2822 120.206 53.2102 119.998 53.0662C119.79 52.9382 119.662 52.7702 119.614 52.5622C119.566 52.3382 119.542 52.0902 119.542 51.8182V37.5142C119.542 37.2422 119.566 37.0022 119.614 36.7942C119.662 36.5702 119.79 36.3942 119.998 36.2662C120.206 36.1382 120.526 36.0742 120.958 36.0742C121.406 36.0742 121.726 36.1382 121.918 36.2662C122.11 36.3942 122.23 36.5702 122.278 36.7942C122.326 37.0182 122.35 37.2582 122.35 37.5142V52.2982C122.286 52.6502 122.15 52.8982 121.942 53.0422C121.75 53.2022 121.422 53.2822 120.958 53.2822ZM145.397 53.1142C144.613 53.1142 143.909 52.9702 143.285 52.6822C142.677 52.3782 142.157 51.9622 141.725 51.4342C141.309 50.8902 140.989 50.2662 140.765 49.5622C140.557 48.8582 140.453 48.0982 140.453 47.2822C140.469 46.4662 140.589 45.7062 140.813 45.0022C141.037 44.2822 141.357 43.6582 141.773 43.1302C142.205 42.6022 142.725 42.1862 143.333 41.8822C143.941 41.5782 144.629 41.4262 145.397 41.4262C146.133 41.4262 146.821 41.5782 147.461 41.8822C148.117 42.1862 148.693 42.6102 149.189 43.1542C149.701 43.6982 150.101 44.3302 150.389 45.0502C150.677 45.7542 150.821 46.5142 150.821 47.3302C150.821 48.1622 150.677 48.9302 150.389 49.6342C150.101 50.3382 149.709 50.9542 149.213 51.4822C148.717 51.9942 148.141 52.3942 147.485 52.6822C146.829 52.9702 146.133 53.1142 145.397 53.1142ZM140.597 58.1062C140.165 58.1062 139.845 58.0422 139.637 57.9142C139.429 57.7862 139.301 57.6182 139.253 57.4102C139.205 57.2022 139.181 56.9622 139.181 56.6902V42.8902C139.181 42.6182 139.205 42.3782 139.253 42.1702C139.301 41.9622 139.421 41.7942 139.613 41.6662C139.821 41.5222 140.141 41.4502 140.573 41.4502C140.989 41.4502 141.317 41.5142 141.557 41.6422C141.797 41.7702 141.957 41.9862 142.037 42.2902V56.6662C142.053 56.9382 142.029 57.1782 141.965 57.3862C141.917 57.6102 141.789 57.7862 141.581 57.9142C141.373 58.0422 141.045 58.1062 140.597 58.1062ZM145.013 50.4262C145.573 50.4262 146.077 50.2982 146.525 50.0422C146.973 49.7702 147.325 49.4022 147.581 48.9382C147.853 48.4582 147.989 47.9222 147.989 47.3302C147.989 46.7222 147.853 46.1862 147.581 45.7222C147.325 45.2582 146.973 44.8982 146.525 44.6422C146.077 44.3702 145.573 44.2342 145.013 44.2342C144.469 44.2342 143.973 44.3702 143.525 44.6422C143.077 44.9142 142.717 45.2822 142.445 45.7462C142.189 46.1942 142.061 46.7222 142.061 47.3302C142.061 47.9222 142.189 48.4582 142.445 48.9382C142.717 49.4022 143.077 49.7702 143.525 50.0422C143.973 50.2982 144.469 50.4262 145.013 50.4262ZM158.56 53.4262C157.52 53.4262 156.608 53.2582 155.824 52.9222C155.056 52.5862 154.408 52.1302 153.88 51.5542C153.368 50.9622 152.976 50.3062 152.704 49.5862C152.448 48.8502 152.32 48.0902 152.32 47.3062C152.32 46.1542 152.584 45.1302 153.112 44.2342C153.64 43.3382 154.368 42.6342 155.296 42.1222C156.24 41.6102 157.32 41.3542 158.536 41.3542C159.4 41.3542 160.16 41.4902 160.816 41.7622C161.472 42.0342 162.016 42.3942 162.448 42.8422C162.896 43.2742 163.232 43.7542 163.456 44.2822C163.696 44.8102 163.816 45.3222 163.816 45.8182C163.816 46.6662 163.608 47.2822 163.192 47.6662C162.792 48.0502 162.288 48.2422 161.68 48.2422H155.344C155.36 48.7862 155.528 49.2582 155.848 49.6582C156.184 50.0582 156.6 50.3702 157.096 50.5942C157.608 50.8022 158.128 50.9062 158.656 50.9062C159.056 50.9062 159.408 50.8822 159.712 50.8342C160.032 50.7862 160.304 50.7302 160.528 50.6662C160.752 50.5862 160.944 50.5062 161.104 50.4262C161.28 50.3462 161.44 50.2742 161.584 50.2102C161.728 50.1462 161.864 50.1062 161.992 50.0902C162.168 50.0742 162.344 50.1142 162.52 50.2102C162.696 50.3062 162.84 50.4742 162.952 50.7142C163.048 50.8742 163.112 51.0262 163.144 51.1702C163.192 51.2982 163.216 51.4262 163.216 51.5542C163.216 51.8742 163.024 52.1782 162.64 52.4662C162.256 52.7382 161.712 52.9622 161.008 53.1382C160.32 53.3302 159.504 53.4262 158.56 53.4262ZM155.344 46.5382H160.264C160.536 46.5382 160.744 46.4982 160.888 46.4182C161.032 46.3222 161.104 46.1302 161.104 45.8422C161.104 45.4742 160.992 45.1462 160.768 44.8582C160.544 44.5542 160.24 44.3222 159.856 44.1622C159.472 43.9862 159.024 43.8982 158.512 43.8982C157.92 43.8982 157.384 44.0182 156.904 44.2582C156.424 44.4822 156.04 44.7942 155.752 45.1942C155.48 45.5942 155.344 46.0422 155.344 46.5382ZM167.202 53.2822C166.77 53.2822 166.45 53.2102 166.242 53.0662C166.05 52.9382 165.93 52.7622 165.882 52.5382C165.834 52.3142 165.81 52.0662 165.81 51.7942V42.8902C165.81 42.6022 165.834 42.3542 165.882 42.1462C165.93 41.9222 166.05 41.7542 166.242 41.6422C166.45 41.5142 166.778 41.4502 167.226 41.4502C167.658 41.4502 167.97 41.5062 168.162 41.6182C168.37 41.7302 168.498 41.8742 168.546 42.0502C168.61 42.2102 168.642 42.3702 168.642 42.5302L168.45 42.9622C168.53 42.8342 168.642 42.6822 168.786 42.5062C168.93 42.3142 169.122 42.1302 169.362 41.9542C169.602 41.7622 169.89 41.6102 170.226 41.4982C170.562 41.3702 170.962 41.3062 171.426 41.3062C171.618 41.3062 171.818 41.3302 172.026 41.3782C172.25 41.4102 172.466 41.4662 172.674 41.5462C172.898 41.6102 173.098 41.6982 173.274 41.8102C173.45 41.9222 173.586 42.0582 173.682 42.2182C173.778 42.3622 173.826 42.5302 173.826 42.7222C173.826 43.2342 173.698 43.6662 173.442 44.0182C173.186 44.3702 172.882 44.5462 172.53 44.5462C172.29 44.5462 172.114 44.5222 172.002 44.4742C171.89 44.4262 171.794 44.3702 171.714 44.3062C171.65 44.2422 171.546 44.1862 171.402 44.1382C171.274 44.0902 171.066 44.0662 170.778 44.0662C170.538 44.0662 170.29 44.1062 170.034 44.1862C169.794 44.2662 169.57 44.3862 169.362 44.5462C169.154 44.7062 168.986 44.9142 168.858 45.1702C168.73 45.4102 168.666 45.6902 168.666 46.0102V51.8422C168.666 52.1142 168.642 52.3622 168.594 52.5862C168.546 52.7942 168.418 52.9622 168.21 53.0902C168.002 53.2182 167.666 53.2822 167.202 53.2822ZM180.18 58.0822C179.604 58.0822 179.052 58.0102 178.524 57.8662C177.996 57.7382 177.516 57.5622 177.084 57.3382C176.668 57.1142 176.332 56.8742 176.076 56.6182C175.836 56.3622 175.716 56.1222 175.716 55.8982C175.716 55.6742 175.748 55.4822 175.812 55.3222C175.892 55.1622 176.004 55.0022 176.148 54.8422C176.34 54.6502 176.492 54.5062 176.604 54.4102C176.732 54.3142 176.9 54.2662 177.108 54.2662C177.284 54.2662 177.452 54.3302 177.612 54.4582C177.788 54.5862 177.988 54.7302 178.212 54.8902C178.436 55.0502 178.708 55.1942 179.028 55.3222C179.348 55.4502 179.756 55.5142 180.252 55.5142C180.668 55.5142 181.052 55.4422 181.404 55.2982C181.756 55.1542 182.052 54.9382 182.292 54.6502C182.548 54.3782 182.748 54.0502 182.892 53.6662C183.036 53.2822 183.108 52.8502 183.108 52.3702L183.084 42.4342C183.116 42.0662 183.244 41.8102 183.468 41.6662C183.692 41.5062 184.036 41.4262 184.5 41.4262C184.932 41.4262 185.244 41.4902 185.436 41.6182C185.628 41.7302 185.748 41.8982 185.796 42.1222C185.844 42.3302 185.868 42.5622 185.868 42.8182V52.5382C185.868 53.4182 185.716 54.2022 185.412 54.8902C185.108 55.5782 184.692 56.1542 184.164 56.6182C183.636 57.0982 183.028 57.4582 182.34 57.6982C181.668 57.9542 180.948 58.0822 180.18 58.0822ZM179.916 52.9702C179.164 52.9702 178.46 52.8262 177.804 52.5382C177.164 52.2502 176.596 51.8422 176.1 51.3142C175.62 50.7862 175.236 50.1782 174.948 49.4902C174.676 48.7862 174.54 48.0262 174.54 47.2102C174.54 46.4102 174.676 45.6662 174.948 44.9782C175.236 44.2902 175.62 43.6822 176.1 43.1542C176.596 42.6262 177.164 42.2182 177.804 41.9302C178.46 41.6262 179.156 41.4742 179.892 41.4742C180.612 41.4742 181.236 41.6182 181.764 41.9062C182.308 42.1782 182.756 42.5702 183.108 43.0822C183.46 43.5942 183.724 44.2022 183.9 44.9062C184.092 45.6102 184.188 46.3862 184.188 47.2342C184.188 48.4022 184.028 49.4182 183.708 50.2822C183.388 51.1462 182.916 51.8102 182.292 52.2742C181.668 52.7382 180.876 52.9702 179.916 52.9702ZM180.18 50.2582C180.724 50.2582 181.204 50.1302 181.62 49.8742C182.052 49.6022 182.388 49.2342 182.628 48.7702C182.884 48.3062 183.012 47.7862 183.012 47.2102C183.012 46.6182 182.884 46.0982 182.628 45.6502C182.388 45.1862 182.052 44.8262 181.62 44.5702C181.188 44.3142 180.7 44.1862 180.156 44.1862C179.612 44.1862 179.124 44.3222 178.692 44.5942C178.276 44.8502 177.948 45.2022 177.708 45.6502C177.468 46.0982 177.348 46.6182 177.348 47.2102C177.348 47.8022 177.468 48.3302 177.708 48.7942C177.964 49.2422 178.3 49.6022 178.716 49.8742C179.148 50.1302 179.636 50.2582 180.18 50.2582ZM198.032 53.2342C197.568 53.2342 197.224 53.1462 197 52.9702C196.776 52.7942 196.664 52.5542 196.664 52.2502L196.832 51.4582C196.704 51.6662 196.488 51.9142 196.184 52.2022C195.88 52.4742 195.48 52.7222 194.984 52.9462C194.488 53.1542 193.888 53.2582 193.184 53.2582C192.432 53.2582 191.72 53.1062 191.048 52.8022C190.392 52.4822 189.808 52.0502 189.296 51.5062C188.8 50.9462 188.4 50.3142 188.096 49.6102C187.808 48.8902 187.664 48.1222 187.664 47.3062C187.664 46.5222 187.808 45.7862 188.096 45.0982C188.4 44.3942 188.808 43.7702 189.32 43.2262C189.832 42.6822 190.416 42.2582 191.072 41.9542C191.744 41.6342 192.448 41.4742 193.184 41.4742C193.84 41.4742 194.392 41.5622 194.84 41.7382C195.304 41.9142 195.696 42.1382 196.016 42.4102C196.336 42.6662 196.6 42.9382 196.808 43.2262L196.664 42.5302C196.664 42.1782 196.776 41.9142 197 41.7382C197.224 41.5462 197.576 41.4502 198.056 41.4502C198.504 41.4502 198.824 41.5222 199.016 41.6662C199.208 41.7942 199.328 41.9782 199.376 42.2182C199.424 42.4422 199.448 42.6982 199.448 42.9862V51.7702C199.448 52.0422 199.424 52.2902 199.376 52.5142C199.328 52.7382 199.2 52.9142 198.992 53.0422C198.8 53.1702 198.48 53.2342 198.032 53.2342ZM193.616 50.4502C194.16 50.4502 194.648 50.3142 195.08 50.0422C195.512 49.7702 195.856 49.4022 196.112 48.9382C196.384 48.4582 196.52 47.9302 196.52 47.3542C196.52 46.7302 196.384 46.1862 196.112 45.7222C195.84 45.2582 195.48 44.8982 195.032 44.6422C194.6 44.3702 194.112 44.2342 193.568 44.2342C192.976 44.2342 192.448 44.3782 191.984 44.6662C191.52 44.9382 191.152 45.3142 190.88 45.7942C190.624 46.2582 190.496 46.7862 190.496 47.3782C190.496 47.9542 190.632 48.4742 190.904 48.9382C191.176 49.4022 191.544 49.7702 192.008 50.0422C192.488 50.3142 193.024 50.4502 193.616 50.4502ZM206.752 53.2582C206.016 53.2582 205.336 53.1302 204.712 52.8742C204.104 52.6022 203.568 52.2182 203.104 51.7222C202.64 51.2262 202.28 50.6342 202.024 49.9462C201.768 49.2582 201.64 48.4982 201.64 47.6662V42.8902C201.64 42.6182 201.664 42.3782 201.712 42.1702C201.76 41.9462 201.888 41.7702 202.096 41.6422C202.304 41.5142 202.624 41.4502 203.056 41.4502C203.52 41.4502 203.848 41.5142 204.04 41.6422C204.248 41.7702 204.376 41.9462 204.424 42.1702C204.472 42.3942 204.496 42.6422 204.496 42.9142V47.6662C204.496 48.2422 204.592 48.7382 204.784 49.1542C204.992 49.5702 205.288 49.8982 205.672 50.1382C206.056 50.3622 206.528 50.4742 207.088 50.4742C207.664 50.4742 208.152 50.3622 208.552 50.1382C208.968 49.8982 209.288 49.5702 209.512 49.1542C209.736 48.7222 209.848 48.2262 209.848 47.6662V42.8662C209.848 42.5942 209.872 42.3542 209.92 42.1462C209.968 41.9222 210.096 41.7542 210.304 41.6422C210.512 41.5142 210.84 41.4502 211.288 41.4502C211.736 41.4502 212.056 41.5142 212.248 41.6422C212.44 41.7702 212.56 41.9462 212.608 42.1702C212.672 42.3942 212.704 42.6342 212.704 42.8902V51.8902C212.704 52.1302 212.672 52.3542 212.608 52.5622C212.56 52.7702 212.432 52.9382 212.224 53.0662C212.032 53.1942 211.712 53.2582 211.264 53.2582C210.944 53.2582 210.688 53.2182 210.496 53.1382C210.32 53.0742 210.184 52.9862 210.088 52.8742C210.008 52.7462 209.952 52.6182 209.92 52.4902C209.904 52.3622 209.896 52.2342 209.896 52.1062L210.088 51.4582C209.992 51.6022 209.848 51.7782 209.656 51.9862C209.464 52.1782 209.224 52.3782 208.936 52.5862C208.664 52.7782 208.344 52.9382 207.976 53.0662C207.608 53.1942 207.2 53.2582 206.752 53.2582ZM219.203 53.2822C218.611 53.2822 218.083 53.2422 217.619 53.1622C217.171 53.0822 216.779 52.9462 216.443 52.7542C216.123 52.5622 215.859 52.3062 215.651 51.9862C215.443 51.6502 215.283 51.2422 215.171 50.7622C215.075 50.2822 215.027 49.7062 215.027 49.0342V37.4662C215.027 37.1942 215.051 36.9542 215.099 36.7462C215.163 36.5222 215.291 36.3462 215.483 36.2182C215.691 36.0742 216.019 36.0022 216.467 36.0022C216.915 36.0022 217.235 36.0662 217.427 36.1942C217.635 36.3222 217.763 36.4982 217.811 36.7222C217.875 36.9302 217.907 37.1702 217.907 37.4422V48.9142C217.907 49.2182 217.923 49.4742 217.955 49.6822C218.003 49.8742 218.075 50.0342 218.171 50.1622C218.283 50.2742 218.419 50.3542 218.579 50.4022C218.755 50.4502 218.963 50.4742 219.203 50.4742C219.411 50.4742 219.595 50.4982 219.755 50.5462C219.931 50.5942 220.067 50.7142 220.163 50.9062C220.275 51.0982 220.331 51.4102 220.331 51.8422C220.331 52.2902 220.275 52.6182 220.163 52.8262C220.067 53.0342 219.931 53.1622 219.755 53.2102C219.579 53.2582 219.395 53.2822 219.203 53.2822ZM231.899 53.2342C231.435 53.2342 231.091 53.1462 230.867 52.9702C230.643 52.7942 230.531 52.5542 230.531 52.2502L230.699 51.4582C230.571 51.6662 230.355 51.9142 230.051 52.2022C229.747 52.4742 229.347 52.7222 228.851 52.9462C228.355 53.1542 227.755 53.2582 227.051 53.2582C226.299 53.2582 225.587 53.1062 224.915 52.8022C224.259 52.4822 223.675 52.0502 223.163 51.5062C222.667 50.9462 222.267 50.3142 221.963 49.6102C221.675 48.8902 221.531 48.1222 221.531 47.3062C221.531 46.5222 221.675 45.7862 221.963 45.0982C222.267 44.3942 222.675 43.7702 223.187 43.2262C223.699 42.6822 224.283 42.2582 224.939 41.9542C225.611 41.6342 226.315 41.4742 227.051 41.4742C227.707 41.4742 228.259 41.5622 228.707 41.7382C229.171 41.9142 229.563 42.1382 229.883 42.4102C230.203 42.6662 230.467 42.9382 230.675 43.2262L230.531 42.5302C230.531 42.1782 230.643 41.9142 230.867 41.7382C231.091 41.5462 231.443 41.4502 231.923 41.4502C232.371 41.4502 232.691 41.5222 232.883 41.6662C233.075 41.7942 233.195 41.9782 233.243 42.2182C233.291 42.4422 233.315 42.6982 233.315 42.9862V51.7702C233.315 52.0422 233.291 52.2902 233.243 52.5142C233.195 52.7382 233.067 52.9142 232.859 53.0422C232.667 53.1702 232.347 53.2342 231.899 53.2342ZM227.483 50.4502C228.027 50.4502 228.515 50.3142 228.947 50.0422C229.379 49.7702 229.723 49.4022 229.979 48.9382C230.251 48.4582 230.387 47.9302 230.387 47.3542C230.387 46.7302 230.251 46.1862 229.979 45.7222C229.707 45.2582 229.347 44.8982 228.899 44.6422C228.467 44.3702 227.979 44.2342 227.435 44.2342C226.843 44.2342 226.315 44.3782 225.851 44.6662C225.387 44.9382 225.019 45.3142 224.747 45.7942C224.491 46.2582 224.363 46.7862 224.363 47.3782C224.363 47.9542 224.499 48.4742 224.771 48.9382C225.043 49.4022 225.411 49.7702 225.875 50.0422C226.355 50.3142 226.891 50.4502 227.483 50.4502ZM237.139 53.2582C236.707 53.2582 236.387 53.1862 236.179 53.0422C235.987 52.9142 235.867 52.7462 235.819 52.5382C235.771 52.3142 235.747 52.0662 235.747 51.7942V42.8182C235.747 42.5622 235.771 42.3302 235.819 42.1222C235.867 41.9142 235.995 41.7542 236.203 41.6422C236.411 41.5142 236.731 41.4502 237.163 41.4502C237.547 41.4502 237.835 41.4982 238.027 41.5942C238.219 41.6902 238.347 41.8102 238.411 41.9542C238.475 42.0982 238.507 42.2422 238.507 42.3862C238.523 42.5302 238.539 42.6422 238.555 42.7222L238.459 43.4902C238.555 43.2342 238.715 42.9862 238.939 42.7462C239.163 42.5062 239.435 42.2902 239.755 42.0982C240.075 41.8902 240.419 41.7302 240.787 41.6182C241.171 41.4902 241.563 41.4262 241.963 41.4262C242.715 41.4262 243.387 41.5622 243.979 41.8342C244.571 42.1062 245.075 42.4902 245.491 42.9862C245.923 43.4822 246.251 44.0742 246.475 44.7622C246.699 45.4342 246.811 46.1942 246.811 47.0422V51.8182C246.811 52.0902 246.779 52.3382 246.715 52.5622C246.667 52.7702 246.547 52.9382 246.355 53.0662C246.163 53.1942 245.835 53.2582 245.371 53.2582C244.923 53.2582 244.595 53.1862 244.387 53.0422C244.179 52.9142 244.051 52.7462 244.003 52.5382C243.955 52.3142 243.931 52.0662 243.931 51.7942V47.0182C243.931 46.4422 243.827 45.9462 243.619 45.5302C243.427 45.1142 243.139 44.7942 242.755 44.5702C242.387 44.3462 241.915 44.2342 241.339 44.2342C240.779 44.2342 240.291 44.3542 239.875 44.5942C239.459 44.8182 239.139 45.1382 238.915 45.5542C238.691 45.9702 238.579 46.4582 238.579 47.0182V51.8182C238.579 52.0902 238.555 52.3382 238.507 52.5622C238.459 52.7702 238.331 52.9382 238.123 53.0662C237.931 53.1942 237.603 53.2582 237.139 53.2582ZM255.25 55.7542C255.25 55.7542 255.218 55.7382 255.154 55.7062C255.09 55.6902 255.026 55.6262 254.962 55.5142C254.898 55.4182 254.866 55.2582 254.866 55.0342C254.866 54.7302 254.914 54.5302 255.01 54.4342C255.106 54.3542 255.17 54.3062 255.202 54.2902C255.218 54.2742 255.33 54.1782 255.538 54.0022C255.746 53.8422 255.866 53.5622 255.898 53.1622C255.738 53.1302 255.594 53.0902 255.466 53.0422C255.354 52.9782 255.258 52.9062 255.178 52.8262C255.018 52.6662 254.922 52.4822 254.89 52.2742C254.858 52.0502 254.842 51.8262 254.842 51.6022C254.842 51.2342 254.882 50.9302 254.962 50.6902C255.042 50.4502 255.194 50.2742 255.418 50.1622C255.658 50.0342 256.01 49.9702 256.474 49.9702C257.082 49.9702 257.514 50.0982 257.77 50.3542C257.914 50.4982 257.994 50.6822 258.01 50.9062C258.042 51.1302 258.058 51.3542 258.058 51.5782C258.058 51.7382 258.058 51.8742 258.058 51.9862C258.058 52.0822 258.05 52.1702 258.034 52.2502C257.97 52.8902 257.802 53.4742 257.53 54.0022C257.274 54.5302 256.946 54.9542 256.546 55.2742C256.162 55.5942 255.73 55.7542 255.25 55.7542ZM256.426 45.3382C255.818 45.3382 255.394 45.2182 255.154 44.9782C254.93 44.7222 254.818 44.3142 254.818 43.7542C254.818 43.3382 254.858 43.0102 254.938 42.7702C255.034 42.5302 255.202 42.3622 255.442 42.2662C255.698 42.1542 256.034 42.0982 256.45 42.0982C257.074 42.0982 257.498 42.2182 257.722 42.4582C257.946 42.6982 258.058 43.1222 258.058 43.7302C258.058 44.0182 258.026 44.2902 257.962 44.5462C257.898 44.7862 257.754 44.9782 257.53 45.1222C257.306 45.2662 256.938 45.3382 256.426 45.3382ZM267.703 53.2582C267.287 53.2582 266.975 53.1862 266.767 53.0422C266.559 52.9142 266.423 52.7382 266.359 52.5142C266.295 52.2902 266.263 52.0502 266.263 51.7942V37.9222C266.263 37.6662 266.287 37.4342 266.335 37.2262C266.399 37.0022 266.535 36.8262 266.743 36.6982C266.951 36.5542 267.279 36.4822 267.727 36.4822L272.239 36.5062C273.407 36.5062 274.479 36.7062 275.455 37.1062C276.447 37.5062 277.303 38.0742 278.023 38.8102C278.743 39.5462 279.295 40.4262 279.679 41.4502C280.079 42.4582 280.279 43.5702 280.279 44.7862C280.279 46.0342 280.079 47.1782 279.679 48.2182C279.279 49.2582 278.719 50.1542 277.999 50.9062C277.279 51.6582 276.423 52.2422 275.431 52.6582C274.455 53.0582 273.367 53.2582 272.167 53.2582H267.703ZM269.167 50.3542H272.239C273.263 50.3542 274.159 50.1302 274.927 49.6822C275.695 49.2182 276.287 48.5782 276.703 47.7622C277.135 46.9462 277.351 45.9942 277.351 44.9062C277.351 43.8022 277.135 42.8422 276.703 42.0262C276.287 41.1942 275.687 40.5542 274.903 40.1062C274.135 39.6422 273.239 39.4102 272.215 39.4102H269.167V50.3542ZM292.392 53.2342C291.928 53.2342 291.584 53.1462 291.36 52.9702C291.136 52.7942 291.024 52.5542 291.024 52.2502L291.192 51.4582C291.064 51.6662 290.848 51.9142 290.544 52.2022C290.24 52.4742 289.84 52.7222 289.344 52.9462C288.848 53.1542 288.248 53.2582 287.544 53.2582C286.792 53.2582 286.08 53.1062 285.408 52.8022C284.752 52.4822 284.168 52.0502 283.656 51.5062C283.16 50.9462 282.76 50.3142 282.456 49.6102C282.168 48.8902 282.024 48.1222 282.024 47.3062C282.024 46.5222 282.168 45.7862 282.456 45.0982C282.76 44.3942 283.168 43.7702 283.68 43.2262C284.192 42.6822 284.776 42.2582 285.432 41.9542C286.104 41.6342 286.808 41.4742 287.544 41.4742C288.2 41.4742 288.752 41.5622 289.2 41.7382C289.664 41.9142 290.056 42.1382 290.376 42.4102C290.696 42.6662 290.96 42.9382 291.168 43.2262L291.024 42.5302C291.024 42.1782 291.136 41.9142 291.36 41.7382C291.584 41.5462 291.936 41.4502 292.416 41.4502C292.864 41.4502 293.184 41.5222 293.376 41.6662C293.568 41.7942 293.688 41.9782 293.736 42.2182C293.784 42.4422 293.808 42.6982 293.808 42.9862V51.7702C293.808 52.0422 293.784 52.2902 293.736 52.5142C293.688 52.7382 293.56 52.9142 293.352 53.0422C293.16 53.1702 292.84 53.2342 292.392 53.2342ZM287.976 50.4502C288.52 50.4502 289.008 50.3142 289.44 50.0422C289.872 49.7702 290.216 49.4022 290.472 48.9382C290.744 48.4582 290.88 47.9302 290.88 47.3542C290.88 46.7302 290.744 46.1862 290.472 45.7222C290.2 45.2582 289.84 44.8982 289.392 44.6422C288.96 44.3702 288.472 44.2342 287.928 44.2342C287.336 44.2342 286.808 44.3782 286.344 44.6662C285.88 44.9382 285.512 45.3142 285.24 45.7942C284.984 46.2582 284.856 46.7862 284.856 47.3782C284.856 47.9542 284.992 48.4742 285.264 48.9382C285.536 49.4022 285.904 49.7702 286.368 50.0422C286.848 50.3142 287.384 50.4502 287.976 50.4502ZM297.608 53.2582C297.176 53.2582 296.856 53.1942 296.648 53.0662C296.456 52.9382 296.336 52.7622 296.288 52.5382C296.24 52.3142 296.216 52.0742 296.216 51.8182V42.8422C296.216 42.5862 296.24 42.3542 296.288 42.1462C296.336 41.9382 296.464 41.7702 296.672 41.6422C296.88 41.5142 297.208 41.4502 297.656 41.4502C298.12 41.4502 298.456 41.5462 298.664 41.7382C298.888 41.9302 299 42.2342 299 42.6502L298.784 43.3222C298.864 43.1462 299 42.9542 299.192 42.7462C299.384 42.5382 299.616 42.3302 299.888 42.1222C300.176 41.9142 300.496 41.7462 300.848 41.6182C301.2 41.4902 301.568 41.4262 301.952 41.4262C302.48 41.4262 302.96 41.5142 303.392 41.6902C303.84 41.8662 304.232 42.1222 304.568 42.4582C304.92 42.7942 305.224 43.2022 305.48 43.6822C305.752 43.2662 306.056 42.8902 306.392 42.5542C306.728 42.2022 307.12 41.9302 307.568 41.7382C308.016 41.5302 308.52 41.4262 309.08 41.4262C310.008 41.4262 310.784 41.6582 311.408 42.1222C312.048 42.5862 312.528 43.2502 312.848 44.1142C313.184 44.9622 313.352 45.9782 313.352 47.1622V51.8182C313.352 52.0902 313.32 52.3382 313.256 52.5622C313.208 52.7702 313.08 52.9382 312.872 53.0662C312.68 53.1942 312.36 53.2582 311.912 53.2582C311.464 53.2582 311.136 53.1862 310.928 53.0422C310.72 52.9142 310.592 52.7462 310.544 52.5382C310.496 52.3142 310.472 52.0662 310.472 51.7942V47.1382C310.472 46.5462 310.4 46.0342 310.256 45.6022C310.112 45.1702 309.896 44.8342 309.608 44.5942C309.336 44.3542 308.976 44.2342 308.528 44.2342C308.048 44.2342 307.632 44.3542 307.28 44.5942C306.944 44.8182 306.68 45.1462 306.488 45.5782C306.296 46.0102 306.2 46.5382 306.2 47.1622V51.8422C306.2 52.1142 306.16 52.3702 306.08 52.6102C306 52.8342 305.84 53.0022 305.6 53.1142C305.376 53.2422 305.048 53.2902 304.616 53.2582C304.216 53.2422 303.92 53.1622 303.728 53.0182C303.552 52.8742 303.44 52.6982 303.392 52.4902C303.36 52.2662 303.344 52.0342 303.344 51.7942V47.1382C303.344 46.5462 303.272 46.0342 303.128 45.6022C302.984 45.1542 302.768 44.8182 302.48 44.5942C302.208 44.3542 301.84 44.2342 301.376 44.2342C300.88 44.2342 300.456 44.3622 300.104 44.6182C299.768 44.8742 299.512 45.2182 299.336 45.6502C299.16 46.0822 299.072 46.5782 299.072 47.1382V51.8422C299.072 52.0982 299.04 52.3382 298.976 52.5622C298.928 52.7862 298.8 52.9542 298.592 53.0662C298.4 53.1942 298.072 53.2582 297.608 53.2582ZM321.835 53.1142C321.051 53.1142 320.347 52.9702 319.723 52.6822C319.115 52.3782 318.595 51.9622 318.163 51.4342C317.747 50.8902 317.427 50.2662 317.203 49.5622C316.995 48.8582 316.891 48.0982 316.891 47.2822C316.907 46.4662 317.027 45.7062 317.251 45.0022C317.475 44.2822 317.795 43.6582 318.211 43.1302C318.643 42.6022 319.163 42.1862 319.771 41.8822C320.379 41.5782 321.067 41.4262 321.835 41.4262C322.571 41.4262 323.259 41.5782 323.899 41.8822C324.555 42.1862 325.131 42.6102 325.627 43.1542C326.139 43.6982 326.539 44.3302 326.827 45.0502C327.115 45.7542 327.259 46.5142 327.259 47.3302C327.259 48.1622 327.115 48.9302 326.827 49.6342C326.539 50.3382 326.147 50.9542 325.651 51.4822C325.155 51.9942 324.579 52.3942 323.923 52.6822C323.267 52.9702 322.571 53.1142 321.835 53.1142ZM317.035 58.1062C316.603 58.1062 316.283 58.0422 316.075 57.9142C315.867 57.7862 315.739 57.6182 315.691 57.4102C315.643 57.2022 315.619 56.9622 315.619 56.6902V42.8902C315.619 42.6182 315.643 42.3782 315.691 42.1702C315.739 41.9622 315.859 41.7942 316.051 41.6662C316.259 41.5222 316.579 41.4502 317.011 41.4502C317.427 41.4502 317.755 41.5142 317.995 41.6422C318.235 41.7702 318.395 41.9862 318.475 42.2902V56.6662C318.491 56.9382 318.467 57.1782 318.403 57.3862C318.355 57.6102 318.227 57.7862 318.019 57.9142C317.811 58.0422 317.483 58.1062 317.035 58.1062ZM321.451 50.4262C322.011 50.4262 322.515 50.2982 322.963 50.0422C323.411 49.7702 323.763 49.4022 324.019 48.9382C324.291 48.4582 324.427 47.9222 324.427 47.3302C324.427 46.7222 324.291 46.1862 324.019 45.7222C323.763 45.2582 323.411 44.8982 322.963 44.6422C322.515 44.3702 322.011 44.2342 321.451 44.2342C320.907 44.2342 320.411 44.3702 319.963 44.6422C319.515 44.9142 319.155 45.2822 318.883 45.7462C318.627 46.1942 318.499 46.7222 318.499 47.3302C318.499 47.9222 318.627 48.4582 318.883 48.9382C319.155 49.4022 319.515 49.7702 319.963 50.0422C320.411 50.2982 320.907 50.4262 321.451 50.4262ZM339.126 53.2342C338.662 53.2342 338.318 53.1462 338.094 52.9702C337.87 52.7942 337.758 52.5542 337.758 52.2502L337.926 51.4582C337.798 51.6662 337.582 51.9142 337.278 52.2022C336.974 52.4742 336.574 52.7222 336.078 52.9462C335.582 53.1542 334.982 53.2582 334.278 53.2582C333.526 53.2582 332.814 53.1062 332.142 52.8022C331.486 52.4822 330.902 52.0502 330.39 51.5062C329.894 50.9462 329.494 50.3142 329.19 49.6102C328.902 48.8902 328.758 48.1222 328.758 47.3062C328.758 46.5222 328.902 45.7862 329.19 45.0982C329.494 44.3942 329.902 43.7702 330.414 43.2262C330.926 42.6822 331.51 42.2582 332.166 41.9542C332.838 41.6342 333.542 41.4742 334.278 41.4742C334.934 41.4742 335.486 41.5622 335.934 41.7382C336.398 41.9142 336.79 42.1382 337.11 42.4102C337.43 42.6662 337.694 42.9382 337.902 43.2262L337.758 42.5302C337.758 42.1782 337.87 41.9142 338.094 41.7382C338.318 41.5462 338.67 41.4502 339.15 41.4502C339.598 41.4502 339.918 41.5222 340.11 41.6662C340.302 41.7942 340.422 41.9782 340.47 42.2182C340.518 42.4422 340.542 42.6982 340.542 42.9862V51.7702C340.542 52.0422 340.518 52.2902 340.47 52.5142C340.422 52.7382 340.294 52.9142 340.086 53.0422C339.894 53.1702 339.574 53.2342 339.126 53.2342ZM334.71 50.4502C335.254 50.4502 335.742 50.3142 336.174 50.0422C336.606 49.7702 336.95 49.4022 337.206 48.9382C337.478 48.4582 337.614 47.9302 337.614 47.3542C337.614 46.7302 337.478 46.1862 337.206 45.7222C336.934 45.2582 336.574 44.8982 336.126 44.6422C335.694 44.3702 335.206 44.2342 334.662 44.2342C334.07 44.2342 333.542 44.3782 333.078 44.6662C332.614 44.9382 332.246 45.3142 331.974 45.7942C331.718 46.2582 331.59 46.7862 331.59 47.3782C331.59 47.9542 331.726 48.4742 331.998 48.9382C332.27 49.4022 332.638 49.7702 333.102 50.0422C333.582 50.3142 334.118 50.4502 334.71 50.4502ZM352.358 50.6902C352.774 51.0422 352.99 51.3702 353.006 51.6742C353.038 51.9782 352.878 52.3302 352.526 52.7302C352.254 53.0342 352.014 53.2342 351.806 53.3302C351.598 53.4262 351.39 53.4262 351.182 53.3302C350.974 53.2502 350.726 53.0902 350.438 52.8502L345.854 48.9862V51.8422C345.854 52.0982 345.822 52.3382 345.758 52.5622C345.71 52.7862 345.582 52.9622 345.374 53.0902C345.182 53.2182 344.862 53.2822 344.414 53.2822C343.966 53.2822 343.638 53.2102 343.43 53.0662C343.238 52.9382 343.118 52.7622 343.07 52.5382C343.022 52.3142 342.998 52.0742 342.998 51.8182V37.4902C342.998 37.2182 343.022 36.9782 343.07 36.7702C343.134 36.5462 343.262 36.3702 343.454 36.2422C343.662 36.0982 343.99 36.0262 344.438 36.0262C344.886 36.0262 345.206 36.0982 345.398 36.2422C345.59 36.3702 345.71 36.5462 345.758 36.7702C345.822 36.9782 345.854 37.2262 345.854 37.5142V45.3862L349.166 42.1702C349.422 41.9302 349.662 41.7702 349.886 41.6902C350.11 41.5942 350.326 41.5862 350.534 41.6662C350.758 41.7302 350.99 41.8982 351.23 42.1702C351.63 42.6022 351.822 42.9622 351.806 43.2502C351.79 43.5222 351.59 43.8502 351.206 44.2342L347.966 47.2342L352.358 50.6902ZM144.155 82.1142C143.371 82.1142 142.667 81.9702 142.043 81.6822C141.435 81.3782 140.915 80.9622 140.483 80.4342C140.067 79.8902 139.747 79.2662 139.523 78.5622C139.315 77.8582 139.211 77.0982 139.211 76.2822C139.227 75.4662 139.347 74.7062 139.571 74.0022C139.795 73.2822 140.115 72.6582 140.531 72.1302C140.963 71.6022 141.483 71.1862 142.091 70.8822C142.699 70.5782 143.387 70.4262 144.155 70.4262C144.891 70.4262 145.579 70.5782 146.219 70.8822C146.875 71.1862 147.451 71.6102 147.947 72.1542C148.459 72.6982 148.859 73.3302 149.147 74.0502C149.435 74.7542 149.579 75.5142 149.579 76.3302C149.579 77.1622 149.435 77.9302 149.147 78.6342C148.859 79.3382 148.467 79.9542 147.971 80.4822C147.475 80.9942 146.899 81.3942 146.243 81.6822C145.587 81.9702 144.891 82.1142 144.155 82.1142ZM139.355 87.1062C138.923 87.1062 138.603 87.0422 138.395 86.9142C138.187 86.7862 138.059 86.6182 138.011 86.4102C137.963 86.2022 137.939 85.9622 137.939 85.6902V71.8902C137.939 71.6182 137.963 71.3782 138.011 71.1702C138.059 70.9622 138.179 70.7942 138.371 70.6662C138.579 70.5222 138.899 70.4502 139.331 70.4502C139.747 70.4502 140.075 70.5142 140.315 70.6422C140.555 70.7702 140.715 70.9862 140.795 71.2902V85.6662C140.811 85.9382 140.787 86.1782 140.723 86.3862C140.675 86.6102 140.547 86.7862 140.339 86.9142C140.131 87.0422 139.803 87.1062 139.355 87.1062ZM143.771 79.4262C144.331 79.4262 144.835 79.2982 145.283 79.0422C145.731 78.7702 146.083 78.4022 146.339 77.9382C146.611 77.4582 146.747 76.9222 146.747 76.3302C146.747 75.7222 146.611 75.1862 146.339 74.7222C146.083 74.2582 145.731 73.8982 145.283 73.6422C144.835 73.3702 144.331 73.2342 143.771 73.2342C143.227 73.2342 142.731 73.3702 142.283 73.6422C141.835 73.9142 141.475 74.2822 141.203 74.7462C140.947 75.1942 140.819 75.7222 140.819 76.3302C140.819 76.9222 140.947 77.4582 141.203 77.9382C141.475 78.4022 141.835 78.7702 142.283 79.0422C142.731 79.2982 143.227 79.4262 143.771 79.4262ZM155.71 82.4262C155.294 82.4262 154.854 82.3782 154.39 82.2822C153.926 82.2022 153.478 82.0822 153.046 81.9222C152.614 81.7462 152.238 81.5462 151.918 81.3222C151.614 81.0822 151.422 80.8182 151.342 80.5302C151.278 80.3702 151.254 80.2182 151.27 80.0742C151.286 79.9142 151.334 79.7542 151.414 79.5942C151.494 79.4182 151.614 79.2422 151.774 79.0662C151.918 78.8902 152.062 78.7942 152.206 78.7782C152.366 78.7462 152.566 78.7942 152.806 78.9222C153.014 79.0022 153.238 79.1062 153.478 79.2342C153.734 79.3622 153.99 79.4902 154.246 79.6182C154.518 79.7462 154.79 79.8502 155.062 79.9302C155.35 80.0102 155.63 80.0502 155.902 80.0502C156.494 80.0502 156.966 79.9542 157.318 79.7622C157.67 79.5542 157.846 79.2662 157.846 78.8982C157.846 78.6902 157.79 78.5062 157.678 78.3462C157.566 78.1862 157.414 78.0582 157.222 77.9622C157.046 77.8502 156.83 77.7542 156.574 77.6742C156.334 77.5782 156.07 77.4982 155.782 77.4342C155.51 77.3542 155.222 77.2662 154.918 77.1702C154.518 77.0582 154.118 76.9222 153.718 76.7622C153.318 76.6022 152.958 76.3942 152.638 76.1382C152.334 75.8822 152.086 75.5622 151.894 75.1782C151.702 74.7942 151.606 74.3142 151.606 73.7382C151.606 73.0182 151.774 72.4102 152.11 71.9142C152.462 71.4022 152.966 71.0102 153.622 70.7382C154.278 70.4662 155.07 70.3302 155.998 70.3302C156.318 70.3302 156.622 70.3542 156.91 70.4022C157.214 70.4502 157.502 70.5222 157.774 70.6182C158.062 70.6982 158.334 70.8022 158.59 70.9302C158.862 71.0582 159.118 71.2022 159.358 71.3622C159.758 71.5862 159.966 71.8502 159.982 72.1542C159.998 72.4422 159.886 72.7542 159.646 73.0902C159.47 73.3142 159.294 73.4742 159.118 73.5702C158.942 73.6502 158.758 73.6502 158.566 73.5702C158.31 73.4422 158.03 73.3062 157.726 73.1622C157.438 73.0022 157.134 72.8662 156.814 72.7542C156.51 72.6422 156.19 72.5862 155.854 72.5862C155.534 72.5862 155.246 72.6342 154.99 72.7302C154.734 72.8262 154.542 72.9622 154.414 73.1382C154.286 73.3142 154.222 73.5222 154.222 73.7622C154.222 73.9862 154.286 74.1702 154.414 74.3142C154.542 74.4582 154.71 74.5782 154.918 74.6742C155.126 74.7702 155.374 74.8582 155.662 74.9382C155.95 75.0022 156.254 75.0662 156.574 75.1302C157.022 75.2262 157.478 75.3462 157.942 75.4902C158.406 75.6342 158.83 75.8342 159.214 76.0902C159.614 76.3462 159.934 76.6902 160.174 77.1222C160.414 77.5382 160.534 78.0822 160.534 78.7542C160.534 79.9222 160.102 80.8262 159.238 81.4662C158.39 82.1062 157.214 82.4262 155.71 82.4262ZM164.158 82.2822C163.726 82.2822 163.406 82.2102 163.198 82.0662C162.99 81.9382 162.862 81.7702 162.814 81.5622C162.766 81.3382 162.742 81.0902 162.742 80.8182V71.8902C162.742 71.6342 162.766 71.4022 162.814 71.1942C162.878 70.9702 163.006 70.7942 163.198 70.6662C163.406 70.5382 163.734 70.4742 164.182 70.4742C164.63 70.4742 164.95 70.5382 165.142 70.6662C165.35 70.7942 165.478 70.9702 165.526 71.1942C165.574 71.4182 165.598 71.6662 165.598 71.9382V80.8422C165.598 81.1142 165.574 81.3622 165.526 81.5862C165.478 81.7942 165.35 81.9622 165.142 82.0902C164.95 82.2182 164.622 82.2822 164.158 82.2822ZM164.158 68.1462C163.694 68.1462 163.35 68.0822 163.126 67.9542C162.918 67.8102 162.782 67.6182 162.718 67.3782C162.67 67.1382 162.646 66.8742 162.646 66.5862C162.646 66.2822 162.67 66.0182 162.718 65.7942C162.782 65.5702 162.926 65.3942 163.15 65.2662C163.374 65.1222 163.718 65.0502 164.182 65.0502C164.662 65.0502 165.006 65.1222 165.214 65.2662C165.422 65.4102 165.558 65.6022 165.622 65.8422C165.686 66.0662 165.718 66.3302 165.718 66.6342C165.718 66.9062 165.686 67.1622 165.622 67.4022C165.558 67.6422 165.422 67.8262 165.214 67.9542C165.006 68.0822 164.654 68.1462 164.158 68.1462ZM177.631 79.6902C178.047 80.0422 178.263 80.3702 178.279 80.6742C178.311 80.9782 178.151 81.3302 177.799 81.7302C177.527 82.0342 177.287 82.2342 177.079 82.3302C176.871 82.4262 176.663 82.4262 176.455 82.3302C176.247 82.2502 175.999 82.0902 175.711 81.8502L171.127 77.9862V80.8422C171.127 81.0982 171.095 81.3382 171.031 81.5622C170.983 81.7862 170.855 81.9622 170.647 82.0902C170.455 82.2182 170.135 82.2822 169.687 82.2822C169.239 82.2822 168.911 82.2102 168.703 82.0662C168.511 81.9382 168.391 81.7622 168.343 81.5382C168.295 81.3142 168.271 81.0742 168.271 80.8182V66.4902C168.271 66.2182 168.295 65.9782 168.343 65.7702C168.407 65.5462 168.535 65.3702 168.727 65.2422C168.935 65.0982 169.263 65.0262 169.711 65.0262C170.159 65.0262 170.479 65.0982 170.671 65.2422C170.863 65.3702 170.983 65.5462 171.031 65.7702C171.095 65.9782 171.127 66.2262 171.127 66.5142V74.3862L174.439 71.1702C174.695 70.9302 174.935 70.7702 175.159 70.6902C175.383 70.5942 175.599 70.5862 175.807 70.6662C176.031 70.7302 176.263 70.8982 176.503 71.1702C176.903 71.6022 177.095 71.9622 177.079 72.2502C177.063 72.5222 176.863 72.8502 176.479 73.2342L173.239 76.2342L177.631 79.6902ZM184.947 82.4262C184.179 82.4262 183.427 82.2822 182.691 81.9942C181.971 81.6902 181.315 81.2662 180.723 80.7222C180.147 80.1782 179.683 79.5382 179.331 78.8022C178.995 78.0662 178.827 77.2582 178.827 76.3782C178.827 75.5302 178.987 74.7382 179.307 74.0022C179.627 73.2662 180.067 72.6182 180.627 72.0582C181.187 71.4982 181.827 71.0662 182.547 70.7622C183.283 70.4422 184.067 70.2822 184.899 70.2822C186.019 70.2822 187.035 70.5542 187.947 71.0982C188.859 71.6262 189.587 72.3462 190.131 73.2582C190.675 74.1702 190.947 75.2022 190.947 76.3542C190.947 77.2662 190.779 78.0982 190.443 78.8502C190.107 79.5862 189.651 80.2262 189.075 80.7702C188.499 81.2982 187.851 81.7062 187.131 81.9942C186.427 82.2822 185.699 82.4262 184.947 82.4262ZM184.899 79.5942C185.427 79.5942 185.931 79.4662 186.411 79.2102C186.907 78.9382 187.307 78.5542 187.611 78.0582C187.931 77.5622 188.091 76.9782 188.091 76.3062C188.091 75.6822 187.947 75.1302 187.659 74.6502C187.387 74.1702 187.011 73.7942 186.531 73.5222C186.051 73.2502 185.499 73.1142 184.875 73.1142C184.283 73.1142 183.747 73.2582 183.267 73.5462C182.787 73.8182 182.403 74.2022 182.115 74.6982C181.843 75.1782 181.707 75.7222 181.707 76.3302C181.707 77.0022 181.859 77.5862 182.163 78.0822C182.467 78.5622 182.859 78.9382 183.339 79.2102C183.835 79.4662 184.355 79.5942 184.899 79.5942ZM196.961 82.2822C196.369 82.2822 195.841 82.2422 195.377 82.1622C194.929 82.0822 194.537 81.9462 194.201 81.7542C193.881 81.5622 193.617 81.3062 193.409 80.9862C193.201 80.6502 193.041 80.2422 192.929 79.7622C192.833 79.2822 192.785 78.7062 192.785 78.0342V66.4662C192.785 66.1942 192.809 65.9542 192.857 65.7462C192.921 65.5222 193.049 65.3462 193.241 65.2182C193.449 65.0742 193.777 65.0022 194.225 65.0022C194.673 65.0022 194.993 65.0662 195.185 65.1942C195.393 65.3222 195.521 65.4982 195.569 65.7222C195.633 65.9302 195.665 66.1702 195.665 66.4422V77.9142C195.665 78.2182 195.681 78.4742 195.713 78.6822C195.761 78.8742 195.833 79.0342 195.929 79.1622C196.041 79.2742 196.177 79.3542 196.337 79.4022C196.513 79.4502 196.721 79.4742 196.961 79.4742C197.169 79.4742 197.353 79.4982 197.513 79.5462C197.689 79.5942 197.825 79.7142 197.921 79.9062C198.033 80.0982 198.089 80.4102 198.089 80.8422C198.089 81.2902 198.033 81.6182 197.921 81.8262C197.825 82.0342 197.689 82.1622 197.513 82.2102C197.337 82.2582 197.153 82.2822 196.961 82.2822ZM205.337 82.4262C204.569 82.4262 203.817 82.2822 203.081 81.9942C202.361 81.6902 201.705 81.2662 201.113 80.7222C200.537 80.1782 200.073 79.5382 199.721 78.8022C199.385 78.0662 199.217 77.2582 199.217 76.3782C199.217 75.5302 199.377 74.7382 199.697 74.0022C200.017 73.2662 200.457 72.6182 201.017 72.0582C201.577 71.4982 202.217 71.0662 202.937 70.7622C203.673 70.4422 204.457 70.2822 205.289 70.2822C206.409 70.2822 207.425 70.5542 208.337 71.0982C209.249 71.6262 209.977 72.3462 210.521 73.2582C211.065 74.1702 211.337 75.2022 211.337 76.3542C211.337 77.2662 211.169 78.0982 210.833 78.8502C210.497 79.5862 210.041 80.2262 209.465 80.7702C208.889 81.2982 208.241 81.7062 207.521 81.9942C206.817 82.2822 206.089 82.4262 205.337 82.4262ZM205.289 79.5942C205.817 79.5942 206.321 79.4662 206.801 79.2102C207.297 78.9382 207.697 78.5542 208.001 78.0582C208.321 77.5622 208.481 76.9782 208.481 76.3062C208.481 75.6822 208.337 75.1302 208.049 74.6502C207.777 74.1702 207.401 73.7942 206.921 73.5222C206.441 73.2502 205.889 73.1142 205.265 73.1142C204.673 73.1142 204.137 73.2582 203.657 73.5462C203.177 73.8182 202.793 74.2022 202.505 74.6982C202.233 75.1782 202.097 75.7222 202.097 76.3302C202.097 77.0022 202.249 77.5862 202.553 78.0822C202.857 78.5622 203.249 78.9382 203.729 79.2102C204.225 79.4662 204.745 79.5942 205.289 79.5942ZM218.383 87.0822C217.807 87.0822 217.255 87.0102 216.727 86.8662C216.199 86.7382 215.719 86.5622 215.287 86.3382C214.871 86.1142 214.535 85.8742 214.279 85.6182C214.039 85.3622 213.919 85.1222 213.919 84.8982C213.919 84.6742 213.951 84.4822 214.015 84.3222C214.095 84.1622 214.207 84.0022 214.351 83.8422C214.543 83.6502 214.695 83.5062 214.807 83.4102C214.935 83.3142 215.103 83.2662 215.311 83.2662C215.487 83.2662 215.655 83.3302 215.815 83.4582C215.991 83.5862 216.191 83.7302 216.415 83.8902C216.639 84.0502 216.911 84.1942 217.231 84.3222C217.551 84.4502 217.959 84.5142 218.455 84.5142C218.871 84.5142 219.255 84.4422 219.607 84.2982C219.959 84.1542 220.255 83.9382 220.495 83.6502C220.751 83.3782 220.951 83.0502 221.095 82.6662C221.239 82.2822 221.311 81.8502 221.311 81.3702L221.287 71.4342C221.319 71.0662 221.447 70.8102 221.671 70.6662C221.895 70.5062 222.239 70.4262 222.703 70.4262C223.135 70.4262 223.447 70.4902 223.639 70.6182C223.831 70.7302 223.951 70.8982 223.999 71.1222C224.047 71.3302 224.071 71.5622 224.071 71.8182V81.5382C224.071 82.4182 223.919 83.2022 223.615 83.8902C223.311 84.5782 222.895 85.1542 222.367 85.6182C221.839 86.0982 221.231 86.4582 220.543 86.6982C219.871 86.9542 219.151 87.0822 218.383 87.0822ZM218.119 81.9702C217.367 81.9702 216.663 81.8262 216.007 81.5382C215.367 81.2502 214.799 80.8422 214.303 80.3142C213.823 79.7862 213.439 79.1782 213.151 78.4902C212.879 77.7862 212.743 77.0262 212.743 76.2102C212.743 75.4102 212.879 74.6662 213.151 73.9782C213.439 73.2902 213.823 72.6822 214.303 72.1542C214.799 71.6262 215.367 71.2182 216.007 70.9302C216.663 70.6262 217.359 70.4742 218.095 70.4742C218.815 70.4742 219.439 70.6182 219.967 70.9062C220.511 71.1782 220.959 71.5702 221.311 72.0822C221.663 72.5942 221.927 73.2022 222.103 73.9062C222.295 74.6102 222.391 75.3862 222.391 76.2342C222.391 77.4022 222.231 78.4182 221.911 79.2822C221.591 80.1462 221.119 80.8102 220.495 81.2742C219.871 81.7382 219.079 81.9702 218.119 81.9702ZM218.383 79.2582C218.927 79.2582 219.407 79.1302 219.823 78.8742C220.255 78.6022 220.591 78.2342 220.831 77.7702C221.087 77.3062 221.215 76.7862 221.215 76.2102C221.215 75.6182 221.087 75.0982 220.831 74.6502C220.591 74.1862 220.255 73.8262 219.823 73.5702C219.391 73.3142 218.903 73.1862 218.359 73.1862C217.815 73.1862 217.327 73.3222 216.895 73.5942C216.479 73.8502 216.151 74.2022 215.911 74.6502C215.671 75.0982 215.551 75.6182 215.551 76.2102C215.551 76.8022 215.671 77.3302 215.911 77.7942C216.167 78.2422 216.503 78.6022 216.919 78.8742C217.351 79.1302 217.839 79.2582 218.383 79.2582ZM228.166 82.2822C227.734 82.2822 227.414 82.2102 227.206 82.0662C226.998 81.9382 226.87 81.7702 226.822 81.5622C226.774 81.3382 226.75 81.0902 226.75 80.8182V71.8902C226.75 71.6342 226.774 71.4022 226.822 71.1942C226.886 70.9702 227.014 70.7942 227.206 70.6662C227.414 70.5382 227.742 70.4742 228.19 70.4742C228.638 70.4742 228.958 70.5382 229.15 70.6662C229.358 70.7942 229.486 70.9702 229.534 71.1942C229.582 71.4182 229.606 71.6662 229.606 71.9382V80.8422C229.606 81.1142 229.582 81.3622 229.534 81.5862C229.486 81.7942 229.358 81.9622 229.15 82.0902C228.958 82.2182 228.63 82.2822 228.166 82.2822ZM228.166 68.1462C227.702 68.1462 227.358 68.0822 227.134 67.9542C226.926 67.8102 226.79 67.6182 226.726 67.3782C226.678 67.1382 226.654 66.8742 226.654 66.5862C226.654 66.2822 226.678 66.0182 226.726 65.7942C226.79 65.5702 226.934 65.3942 227.158 65.2662C227.382 65.1222 227.726 65.0502 228.19 65.0502C228.67 65.0502 229.014 65.1222 229.222 65.2662C229.43 65.4102 229.566 65.6022 229.63 65.8422C229.694 66.0662 229.726 66.3302 229.726 66.6342C229.726 66.9062 229.694 67.1622 229.63 67.4022C229.566 67.6422 229.43 67.8262 229.222 67.9542C229.014 68.0822 228.662 68.1462 228.166 68.1462ZM236.335 82.4262C235.919 82.4262 235.479 82.3782 235.015 82.2822C234.551 82.2022 234.103 82.0822 233.671 81.9222C233.239 81.7462 232.863 81.5462 232.543 81.3222C232.239 81.0822 232.047 80.8182 231.967 80.5302C231.903 80.3702 231.879 80.2182 231.895 80.0742C231.911 79.9142 231.959 79.7542 232.039 79.5942C232.119 79.4182 232.239 79.2422 232.399 79.0662C232.543 78.8902 232.687 78.7942 232.831 78.7782C232.991 78.7462 233.191 78.7942 233.431 78.9222C233.639 79.0022 233.863 79.1062 234.103 79.2342C234.359 79.3622 234.615 79.4902 234.871 79.6182C235.143 79.7462 235.415 79.8502 235.687 79.9302C235.975 80.0102 236.255 80.0502 236.527 80.0502C237.119 80.0502 237.591 79.9542 237.943 79.7622C238.295 79.5542 238.471 79.2662 238.471 78.8982C238.471 78.6902 238.415 78.5062 238.303 78.3462C238.191 78.1862 238.039 78.0582 237.847 77.9622C237.671 77.8502 237.455 77.7542 237.199 77.6742C236.959 77.5782 236.695 77.4982 236.407 77.4342C236.135 77.3542 235.847 77.2662 235.543 77.1702C235.143 77.0582 234.743 76.9222 234.343 76.7622C233.943 76.6022 233.583 76.3942 233.263 76.1382C232.959 75.8822 232.711 75.5622 232.519 75.1782C232.327 74.7942 232.231 74.3142 232.231 73.7382C232.231 73.0182 232.399 72.4102 232.735 71.9142C233.087 71.4022 233.591 71.0102 234.247 70.7382C234.903 70.4662 235.695 70.3302 236.623 70.3302C236.943 70.3302 237.247 70.3542 237.535 70.4022C237.839 70.4502 238.127 70.5222 238.399 70.6182C238.687 70.6982 238.959 70.8022 239.215 70.9302C239.487 71.0582 239.743 71.2022 239.983 71.3622C240.383 71.5862 240.591 71.8502 240.607 72.1542C240.623 72.4422 240.511 72.7542 240.271 73.0902C240.095 73.3142 239.919 73.4742 239.743 73.5702C239.567 73.6502 239.383 73.6502 239.191 73.5702C238.935 73.4422 238.655 73.3062 238.351 73.1622C238.063 73.0022 237.759 72.8662 237.439 72.7542C237.135 72.6422 236.815 72.5862 236.479 72.5862C236.159 72.5862 235.871 72.6342 235.615 72.7302C235.359 72.8262 235.167 72.9622 235.039 73.1382C234.911 73.3142 234.847 73.5222 234.847 73.7622C234.847 73.9862 234.911 74.1702 235.039 74.3142C235.167 74.4582 235.335 74.5782 235.543 74.6742C235.751 74.7702 235.999 74.8582 236.287 74.9382C236.575 75.0022 236.879 75.0662 237.199 75.1302C237.647 75.2262 238.103 75.3462 238.567 75.4902C239.031 75.6342 239.455 75.8342 239.839 76.0902C240.239 76.3462 240.559 76.6902 240.799 77.1222C241.039 77.5382 241.159 78.0822 241.159 78.7542C241.159 79.9222 240.727 80.8262 239.863 81.4662C239.015 82.1062 237.839 82.4262 236.335 82.4262Z" fill="black"/>
</svg>
