<svg width="336" height="149" viewBox="0 0 336 149" fill="none" xmlns="http://www.w3.org/2000/svg">
<mask id="mask0_62_2091" style="mask-type:luminance" maskUnits="userSpaceOnUse" x="0" y="0" width="336" height="149">
<path d="M336 0H0V149H336V0Z" fill="white"/>
</mask>
<g mask="url(#mask0_62_2091)">
<mask id="mask1_62_2091" style="mask-type:luminance" maskUnits="userSpaceOnUse" x="7" y="11" width="327" height="138">
<path d="M7.84424 11.5889H333.385V148.198H7.84424V11.5889Z" fill="white"/>
</mask>
<g mask="url(#mask1_62_2091)">
<path d="M13.2627 89.8785L10.413 77.4295L14.9429 64.4114L10.9493 51.3998L8.21191 38.3817L10.1679 24.0314L22.057 22.641L32.9094 19.3622L43.966 26.6635L54.6959 17.0729L65.8036 26.9545L76.6304 22.3047L87.6667 28.4354L98.5803 28.1573L109.54 30.2268L120.387 26.5988L130.719 21.2441L141.096 18.0817L151.474 15.0228L161.938 16.4068L172.468 21.2635L182.984 25.2601L193.412 24.9238L203.616 12.7982L214.254 23.2036L224.703 23.805L234.983 15.4949L245.351 11.8411L256.121 16.0252L267.28 18.3339L275.895 29.0498L286.748 31.5461L295.946 40.1536L309.367 33.1628L319.371 38.7697L332.931 46.1615L325.479 62.5036L325.214 77.0997L314.464 86.742L310.695 99.6825L313.989 115.966L308.759 128.221L306.088 144.001L290.517 136.266L280.002 145.812L268.991 136.57L258.537 148.78L247.49 137.786L236.766 139.603L225.964 138.271L215.413 147.674L204.586 145.288L193.892 150.52L183.418 142.197L172.387 148.657L162.188 144.091L151.811 143.199L141.377 143.833L130.959 143.994L120.816 137.256L110.372 138.077L100.25 130.556L89.2703 144.977L79.4342 130.168L68.5103 143.322L58.4955 133.162L48.3019 127.213L37.5006 137.482L22.8997 138.51L24.7535 121.858L19.146 112.035L9.24864 103.776L13.2627 89.8785Z" fill="black"/>
<path d="M13.2627 89.8785L10.413 77.4295L14.9429 64.4114L10.9493 51.3998L8.21191 38.3817L10.1679 24.0314L22.057 22.641L32.9094 19.3622L43.966 26.6635L54.6959 17.0729L65.8036 26.9545L76.6304 22.3047L87.6667 28.4354L98.5803 28.1573L109.54 30.2268L120.387 26.5988L130.719 21.2441L141.096 18.0817L151.474 15.0228L161.938 16.4068L172.468 21.2635L182.984 25.2601L193.412 24.9238L203.616 12.7982L214.254 23.2036L224.703 23.805L234.983 15.4949L245.351 11.8411L256.121 16.0252L267.28 18.3339L275.895 29.0498L286.748 31.5461L295.946 40.1536L309.367 33.1628L319.371 38.7697L332.931 46.1615L325.479 62.5036L325.214 77.0997L314.464 86.742L310.695 99.6825L313.989 115.966L308.759 128.221L306.088 144.001L290.517 136.266L280.002 145.812L268.991 136.57L258.537 148.78L247.49 137.786L236.766 139.603L225.964 138.271L215.413 147.674L204.586 145.288L193.892 150.52L183.418 142.197L172.387 148.657L162.188 144.091L151.811 143.199L141.377 143.833L130.959 143.994L120.816 137.256L110.372 138.077L100.25 130.556L89.2703 144.977L79.4342 130.168L68.5103 143.322L58.4955 133.162L48.3019 127.213L37.5006 137.482L22.8997 138.51L24.7535 121.858L19.146 112.035L9.24864 103.776L13.2627 89.8785Z" fill="black"/>
</g>
<mask id="mask2_62_2091" style="mask-type:luminance" maskUnits="userSpaceOnUse" x="6" y="9" width="328" height="140">
<path d="M6.53687 9.93335H333.972V148.198H6.53687V9.93335Z" fill="white"/>
</mask>
<g mask="url(#mask2_62_2091)">
<path d="M193.821 151.464L183.372 143.173L172.423 149.589L162.05 144.945L151.806 144.02L141.408 144.648L130.8 144.816L120.668 138.077L110.214 138.924L100.368 131.61L89.2396 146.226L79.3831 131.384L68.5512 144.441L58.1329 133.913L48.3887 128.215L37.7253 138.323L22.103 139.422L24.0538 122.117L18.6455 112.649L8.44172 104.113L12.5631 89.8528L9.70826 77.3714L14.2229 64.3857L10.3007 51.6198L7.52246 38.4206L9.59591 23.2555L21.9804 21.8004L32.9962 18.5022L43.9099 25.7065L54.6959 16.0383L65.9108 26.0169L76.6611 21.393L87.7995 27.5819L98.6212 27.3038L109.499 29.3733L120.163 25.797L130.555 20.4164L140.923 17.2541L151.417 14.1758L162.152 15.6115L172.678 20.4682L183.071 24.4001L193.142 24.0832L203.57 11.6795L214.499 22.363L224.499 22.9321L234.682 14.7125L245.345 10.9487L256.264 15.1588L267.592 17.4998L276.217 28.2221L287.013 30.699L296.027 39.1255L309.357 32.1864L319.632 37.9356L333.886 45.7542L326.148 62.7366L325.888 77.546L315.025 87.2854L311.399 99.7344L314.729 116.077L309.397 128.519L306.558 145.159L290.599 137.224L280.002 146.84L269.047 137.644L258.573 149.918L247.307 138.698L236.781 140.49L226.118 139.164L215.566 148.567L204.653 146.168L193.821 151.464ZM183.469 141.24L193.969 149.576L204.515 144.415L215.255 146.782L225.786 137.398L236.755 138.763L247.679 136.9L258.501 147.674L268.924 135.503L279.986 144.771L290.425 135.303L305.593 142.831L308.126 127.911L313.279 115.844L310 99.6244L313.892 86.2054L324.555 76.6277L324.816 62.3098L331.981 46.5561L319.111 39.5653L309.352 34.0942L295.849 41.1303L286.472 32.3416L275.574 29.8195L266.958 19.1166L255.907 16.8208L245.325 12.7013L235.249 16.2776L224.871 24.7041L213.999 24.0832L203.647 13.9688L193.647 25.8164L182.851 26.1721L172.234 22.1367L161.785 17.2411L151.514 15.8831L141.275 18.9096L130.928 22.0397L120.561 27.4137L109.581 31.087L98.5344 28.9982L87.5339 29.2892L76.6304 23.2102L65.7015 27.8988L54.6959 18.1012L44.0324 27.653L32.8379 20.2548L22.1183 23.4753L10.7399 24.814L8.89114 38.343L11.5876 51.1348L15.6681 64.4309L11.128 77.4684L13.9828 89.911L10.076 103.44L19.6312 111.407L25.4634 121.645L23.6861 137.605L37.2759 136.655L48.2355 126.236L58.8989 132.496L68.4694 142.197L79.4801 128.939L89.2907 143.717L100.123 129.489L110.521 137.224L120.949 136.376L131.107 143.115L141.357 142.96L151.806 142.32L162.311 143.225L172.305 147.707L183.469 141.24Z" fill="black"/>
</g>
<mask id="mask3_62_2091" style="mask-type:luminance" maskUnits="userSpaceOnUse" x="2" y="1" width="327" height="140">
<path d="M2.61475 1.34521H328.156V140.722H2.61475V1.34521Z" fill="white"/>
</mask>
<g mask="url(#mask3_62_2091)">
<path d="M8.21729 78.7163L5.37269 66.2608L9.89749 53.2427L5.90382 40.2311L3.15625 27.213L5.12245 12.8692L17.0064 11.4723L27.8639 8.19997L38.9206 15.4948L49.6504 5.90418L60.753 15.7922L71.585 11.1295L82.6212 17.2732L93.5298 16.9886L104.495 19.071L115.342 15.4366L125.673 10.0689L136.051 6.91303L146.428 3.8606L156.892 5.24454L167.423 10.0948L177.933 14.0914L188.367 13.7551L198.566 1.62948L209.209 12.0414L219.657 12.6428L229.938 4.33269L240.305 0.672363L251.076 4.86299L262.235 7.16525L270.85 17.8876L281.702 20.3838L290.9 28.985L304.316 21.9941L314.326 27.601L327.885 34.9863L320.434 51.3414L320.168 65.9375L309.418 75.5733L305.649 88.5203L308.948 104.798L303.714 117.053L301.038 132.832L285.471 125.104L274.956 134.649L263.945 125.408L253.491 137.618L242.44 126.617L231.715 128.441L220.919 127.102L210.363 136.506L199.541 134.132L188.847 139.357L178.372 131.028L167.341 137.489L157.138 132.936L146.77 132.03L136.332 132.671L125.913 132.832L115.771 126.087L105.327 126.908L95.2049 119.394L84.2248 133.809L74.3887 119.006L63.4649 132.147L53.4449 121.987L43.2616 116.044L32.4551 126.32L17.8491 127.342L19.708 110.696L14.1006 100.866L4.20319 92.6074L8.21729 78.7163Z" fill="white"/>
</g>
<mask id="mask4_62_2091" style="mask-type:luminance" maskUnits="userSpaceOnUse" x="0" y="1" width="333" height="144">
<path d="M0.566895 1.34521H332.078V144.033H0.566895V1.34521Z" fill="white"/>
</mask>
<g mask="url(#mask4_62_2091)">
<path d="M188.596 142.805L178.204 134.553L167.484 140.832L156.652 135.988L146.755 135.148L136.372 135.775L125.336 135.95L115.25 129.211L104.739 130.052L95.6438 123.313L84.1224 138.478L74.2046 123.559L63.6076 136.266L52.1424 124.645L43.5575 119.64L33.3077 129.36L14.9787 130.64L17.1134 111.491L12.3486 103.136L1.21023 93.8687L5.61247 78.6325L2.77297 66.0412L7.2416 53.1783L3.52881 41.0268L0.653564 27.3555L3.03343 10.0045L16.6078 8.39421L28.1854 4.91496L38.7263 11.8735L49.6451 2.10828L61.146 12.3456L71.6971 7.81218L83.1112 14.1563L93.693 13.8847L104.356 15.9089L114.56 12.4878L124.912 7.11374L135.478 3.9061L146.27 0.717867L157.444 2.20528L168.194 7.15901L178.265 10.981L187.371 10.6835L198.412 -2.43804L210.097 8.98271L218.993 9.50007L228.921 1.46804L240.341 -2.55444L251.637 1.84313L263.394 4.26826L272.055 15.01L282.718 17.461L291.232 25.4542L304.342 18.6186L315.306 24.7687L331.373 33.525L322.87 52.2018L322.594 67.5609L311.461 77.546L308.213 88.6822L311.548 105.199L306.027 118.139L302.815 137.055L285.808 128.629L274.997 138.439L264.18 129.36L253.603 141.712L241.725 129.916L231.73 131.604L221.552 130.349L210.888 139.823L199.725 137.372L188.596 142.805ZM178.551 127.51L189.107 135.93L199.26 130.931L209.755 133.233L220.224 123.908L231.648 125.324L243.119 123.371L253.338 133.55L263.664 121.476L274.874 130.886L285.098 121.619L299.229 128.622L301.374 115.986L306.333 104.429L303.085 88.4235L307.38 73.6723L317.753 64.405L317.998 50.5139L324.387 36.4999L313.35 30.492L304.28 25.4348L290.563 32.5097L280.701 23.2942L269.67 20.7721L261.065 10.0821L250.519 7.88978L240.274 3.9061L230.944 7.19135L220.326 15.7731L208.33 15.094L198.724 5.69747L189.362 16.8207L177.606 17.1958L166.58 12.9858L156.33 8.2584L146.607 6.99734L136.612 9.93983L126.434 13.0311L116.123 18.3793L104.622 22.2272L93.3712 20.093L82.1205 20.3841L71.4571 14.4861L60.3698 19.2265L49.6502 9.69408L39.1144 19.1165L27.5368 11.479L17.4045 14.5379L7.21606 15.7343L5.66353 27.0774L8.23746 39.2677L12.5478 53.3206L7.98212 66.5197L10.8063 78.8717L7.1701 91.3725L15.8316 98.5961L22.2766 109.894L20.6986 124.037L31.5816 123.281L42.9651 112.455L54.7469 119.336L63.3012 128.015L74.5877 114.537L84.3522 129.217L94.7756 115.52L105.955 123.805L116.337 122.957L126.505 129.696L136.26 129.547L146.796 128.907L157.643 129.838L167.213 134.119L178.551 127.51Z" fill="black"/>
<path d="M188.596 142.805L178.204 134.553L167.484 140.832L156.652 135.988L146.755 135.148L136.372 135.775L125.336 135.95L115.25 129.211L104.739 130.052L95.6438 123.313L84.1224 138.478L74.2046 123.559L63.6076 136.266L52.1424 124.645L43.5575 119.64L33.3077 129.36L14.9787 130.64L17.1134 111.491L12.3486 103.136L1.21023 93.8687L5.61247 78.6325L2.77297 66.0412L7.2416 53.1783L3.52881 41.0268L0.653564 27.3555L3.03343 10.0045L16.6078 8.39421L28.1854 4.91496L38.7263 11.8735L49.6451 2.10828L61.146 12.3456L71.6971 7.81218L83.1112 14.1563L93.693 13.8847L104.356 15.9089L114.56 12.4878L124.912 7.11374L135.478 3.9061L146.27 0.717867L157.444 2.20528L168.194 7.15901L178.265 10.981L187.371 10.6835L198.412 -2.43804L210.097 8.98271L218.993 9.50007L228.921 1.46804L240.341 -2.55444L251.637 1.84313L263.394 4.26826L272.055 15.01L282.718 17.461L291.232 25.4542L304.342 18.6186L315.306 24.7687L331.373 33.525L322.87 52.2018L322.594 67.5609L311.461 77.546L308.213 88.6822L311.548 105.199L306.027 118.139L302.815 137.055L285.808 128.629L274.997 138.439L264.18 129.36L253.603 141.712L241.725 129.916L231.73 131.604L221.552 130.349L210.888 139.823L199.725 137.372L188.596 142.805ZM178.551 127.51L189.107 135.93L199.26 130.931L209.755 133.233L220.224 123.908L231.648 125.324L243.119 123.371L253.338 133.55L263.664 121.476L274.874 130.886L285.098 121.619L299.229 128.622L301.374 115.986L306.333 104.429L303.085 88.4235L307.38 73.6723L317.753 64.405L317.998 50.5139L324.387 36.4999L313.35 30.492L304.28 25.4348L290.563 32.5097L280.701 23.2942L269.67 20.7721L261.065 10.0821L250.519 7.88978L240.274 3.9061L230.944 7.19135L220.326 15.7731L208.33 15.094L198.724 5.69747L189.362 16.8207L177.606 17.1958L166.58 12.9858L156.33 8.2584L146.607 6.99734L136.612 9.93983L126.434 13.0311L116.123 18.3793L104.622 22.2272L93.3712 20.093L82.1205 20.3841L71.4571 14.4861L60.3698 19.2265L49.6502 9.69408L39.1144 19.1165L27.5368 11.479L17.4045 14.5379L7.21606 15.7343L5.66353 27.0774L8.23746 39.2677L12.5478 53.3206L7.98212 66.5197L10.8063 78.8717L7.1701 91.3725L15.8316 98.5961L22.2766 109.894L20.6986 124.037L31.5816 123.281L42.9651 112.455L54.7469 119.336L63.3012 128.015L74.5877 114.537L84.3522 129.217L94.7756 115.52L105.955 123.805L116.337 122.957L126.505 129.696L136.26 129.547L146.796 128.907L157.643 129.838L167.213 134.119L178.551 127.51Z" fill="black"/>
</g>
</g>
<path d="M65.7083 51.28C65.1856 51.28 64.8029 51.196 64.5603 51.028C64.3176 50.8787 64.1683 50.6733 64.1123 50.412C64.0563 50.1507 64.0283 49.8613 64.0283 49.544V33.388C64.0283 33.0893 64.0563 32.8093 64.1123 32.548C64.1869 32.2867 64.3363 32.0813 64.5603 31.932C64.8029 31.7827 65.1949 31.708 65.7363 31.708C66.2589 31.708 66.6323 31.7827 66.8563 31.932C67.0989 32.0813 67.2483 32.2867 67.3043 32.548C67.3789 32.8093 67.4163 33.0987 67.4163 33.416V49.572C67.4163 49.8893 67.3789 50.1787 67.3043 50.44C67.2483 50.6827 67.0989 50.8787 66.8563 51.028C66.6136 51.196 66.2309 51.28 65.7083 51.28ZM71.942 51.252C71.438 51.252 71.0647 51.168 70.822 51C70.598 50.8507 70.458 50.6547 70.402 50.412C70.346 50.1507 70.318 49.8613 70.318 49.544V39.072C70.318 38.7733 70.346 38.5027 70.402 38.26C70.458 38.0173 70.6073 37.8307 70.85 37.7C71.0927 37.5507 71.466 37.476 71.97 37.476C72.418 37.476 72.754 37.532 72.978 37.644C73.202 37.756 73.3513 37.896 73.426 38.064C73.5007 38.232 73.538 38.4 73.538 38.568C73.5567 38.736 73.5753 38.8667 73.594 38.96L73.482 39.856C73.594 39.5573 73.7807 39.268 74.042 38.988C74.3033 38.708 74.6207 38.456 74.994 38.232C75.3673 37.9893 75.7687 37.8027 76.198 37.672C76.646 37.5227 77.1033 37.448 77.57 37.448C78.4473 37.448 79.2313 37.6067 79.922 37.924C80.6127 38.2413 81.2007 38.6893 81.686 39.268C82.19 39.8467 82.5727 40.5373 82.834 41.34C83.0953 42.124 83.226 43.0107 83.226 44V49.572C83.226 49.8893 83.1887 50.1787 83.114 50.44C83.058 50.6827 82.918 50.8787 82.694 51.028C82.47 51.1773 82.0873 51.252 81.546 51.252C81.0233 51.252 80.6407 51.168 80.398 51C80.1553 50.8507 80.006 50.6547 79.95 50.412C79.894 50.1507 79.866 49.8613 79.866 49.544V43.972C79.866 43.3 79.7447 42.7213 79.502 42.236C79.278 41.7507 78.942 41.3773 78.494 41.116C78.0647 40.8547 77.514 40.724 76.842 40.724C76.1887 40.724 75.6193 40.864 75.134 41.144C74.6487 41.4053 74.2753 41.7787 74.014 42.264C73.7527 42.7493 73.622 43.3187 73.622 43.972V49.572C73.622 49.8893 73.594 50.1787 73.538 50.44C73.482 50.6827 73.3327 50.8787 73.09 51.028C72.866 51.1773 72.4833 51.252 71.942 51.252ZM91.978 56.88C91.306 56.88 90.662 56.796 90.046 56.628C89.43 56.4787 88.87 56.2733 88.366 56.012C87.8806 55.7507 87.4886 55.4707 87.19 55.172C86.91 54.8733 86.77 54.5933 86.77 54.332C86.77 54.0707 86.8073 53.8467 86.882 53.66C86.9753 53.4733 87.106 53.2867 87.274 53.1C87.498 52.876 87.6753 52.708 87.806 52.596C87.9553 52.484 88.1513 52.428 88.394 52.428C88.5993 52.428 88.7953 52.5027 88.982 52.652C89.1873 52.8013 89.4206 52.9693 89.682 53.156C89.9433 53.3427 90.2606 53.5107 90.634 53.66C91.0073 53.8093 91.4833 53.884 92.062 53.884C92.5473 53.884 92.9953 53.8 93.406 53.632C93.8166 53.464 94.162 53.212 94.442 52.876C94.7406 52.5587 94.974 52.176 95.142 51.728C95.31 51.28 95.394 50.776 95.394 50.216L95.366 38.624C95.4033 38.1947 95.5526 37.896 95.814 37.728C96.0753 37.5413 96.4766 37.448 97.018 37.448C97.522 37.448 97.886 37.5227 98.11 37.672C98.334 37.8027 98.474 37.9987 98.53 38.26C98.586 38.5027 98.614 38.7733 98.614 39.072V50.412C98.614 51.4387 98.4366 52.3533 98.082 53.156C97.7273 53.9587 97.242 54.6307 96.626 55.172C96.01 55.732 95.3006 56.152 94.498 56.432C93.714 56.7307 92.874 56.88 91.978 56.88ZM91.67 50.916C90.7926 50.916 89.9713 50.748 89.206 50.412C88.4593 50.076 87.7966 49.6 87.218 48.984C86.658 48.368 86.21 47.6587 85.874 46.856C85.5566 46.0347 85.398 45.148 85.398 44.196C85.398 43.2627 85.5566 42.3947 85.874 41.592C86.21 40.7893 86.658 40.08 87.218 39.464C87.7966 38.848 88.4593 38.372 89.206 38.036C89.9713 37.6813 90.7833 37.504 91.642 37.504C92.482 37.504 93.21 37.672 93.826 38.008C94.4606 38.3253 94.9833 38.7827 95.394 39.38C95.8046 39.9773 96.1126 40.6867 96.318 41.508C96.542 42.3293 96.654 43.2347 96.654 44.224C96.654 45.5867 96.4673 46.772 96.094 47.78C95.7206 48.788 95.17 49.5627 94.442 50.104C93.714 50.6453 92.79 50.916 91.67 50.916ZM91.978 47.752C92.6126 47.752 93.1726 47.6027 93.658 47.304C94.162 46.9867 94.554 46.5573 94.834 46.016C95.1326 45.4747 95.282 44.868 95.282 44.196C95.282 43.5053 95.1326 42.8987 94.834 42.376C94.554 41.8347 94.162 41.4147 93.658 41.116C93.154 40.8173 92.5846 40.668 91.95 40.668C91.3153 40.668 90.746 40.8267 90.242 41.144C89.7566 41.4427 89.374 41.8533 89.094 42.376C88.814 42.8987 88.674 43.5053 88.674 44.196C88.674 44.8867 88.814 45.5027 89.094 46.044C89.3926 46.5667 89.7846 46.9867 90.27 47.304C90.774 47.6027 91.3433 47.752 91.978 47.752ZM103.391 51.28C102.887 51.28 102.513 51.196 102.271 51.028C102.028 50.8787 101.879 50.6827 101.823 50.44C101.767 50.1787 101.739 49.8893 101.739 49.572V39.156C101.739 38.8573 101.767 38.5867 101.823 38.344C101.897 38.0827 102.047 37.8773 102.271 37.728C102.513 37.5787 102.896 37.504 103.419 37.504C103.941 37.504 104.315 37.5787 104.539 37.728C104.781 37.8773 104.931 38.0827 104.987 38.344C105.043 38.6053 105.071 38.8947 105.071 39.212V49.6C105.071 49.9173 105.043 50.2067 104.987 50.468C104.931 50.7107 104.781 50.9067 104.539 51.056C104.315 51.2053 103.932 51.28 103.391 51.28ZM103.391 34.788C102.849 34.788 102.448 34.7133 102.187 34.564C101.944 34.396 101.785 34.172 101.711 33.892C101.655 33.612 101.627 33.304 101.627 32.968C101.627 32.6133 101.655 32.3053 101.711 32.044C101.785 31.7827 101.953 31.5773 102.215 31.428C102.476 31.26 102.877 31.176 103.419 31.176C103.979 31.176 104.38 31.26 104.623 31.428C104.865 31.596 105.024 31.82 105.099 32.1C105.173 32.3613 105.211 32.6693 105.211 33.024C105.211 33.3413 105.173 33.64 105.099 33.92C105.024 34.2 104.865 34.4147 104.623 34.564C104.38 34.7133 103.969 34.788 103.391 34.788ZM109.786 51.252C109.282 51.252 108.908 51.168 108.666 51C108.442 50.8507 108.302 50.6547 108.246 50.412C108.19 50.1507 108.162 49.8613 108.162 49.544V39.072C108.162 38.7733 108.19 38.5027 108.246 38.26C108.302 38.0173 108.451 37.8307 108.694 37.7C108.936 37.5507 109.31 37.476 109.814 37.476C110.262 37.476 110.598 37.532 110.822 37.644C111.046 37.756 111.195 37.896 111.27 38.064C111.344 38.232 111.382 38.4 111.382 38.568C111.4 38.736 111.419 38.8667 111.438 38.96L111.326 39.856C111.438 39.5573 111.624 39.268 111.886 38.988C112.147 38.708 112.464 38.456 112.838 38.232C113.211 37.9893 113.612 37.8027 114.042 37.672C114.49 37.5227 114.947 37.448 115.414 37.448C116.291 37.448 117.075 37.6067 117.766 37.924C118.456 38.2413 119.044 38.6893 119.53 39.268C120.034 39.8467 120.416 40.5373 120.678 41.34C120.939 42.124 121.07 43.0107 121.07 44V49.572C121.07 49.8893 121.032 50.1787 120.958 50.44C120.902 50.6827 120.762 50.8787 120.538 51.028C120.314 51.1773 119.931 51.252 119.39 51.252C118.867 51.252 118.484 51.168 118.242 51C117.999 50.8507 117.85 50.6547 117.794 50.412C117.738 50.1507 117.71 49.8613 117.71 49.544V43.972C117.71 43.3 117.588 42.7213 117.346 42.236C117.122 41.7507 116.786 41.3773 116.338 41.116C115.908 40.8547 115.358 40.724 114.686 40.724C114.032 40.724 113.463 40.864 112.978 41.144C112.492 41.4053 112.119 41.7787 111.858 42.264C111.596 42.7493 111.466 43.3187 111.466 43.972V49.572C111.466 49.8893 111.438 50.1787 111.382 50.44C111.326 50.6827 111.176 50.8787 110.934 51.028C110.71 51.1773 110.327 51.252 109.786 51.252ZM132.371 51.252C131.867 51.252 131.494 51.1773 131.251 51.028C131.027 50.8787 130.887 50.6733 130.831 50.412C130.775 50.1507 130.747 49.8707 130.747 49.572V39.1C130.747 38.8013 130.775 38.5307 130.831 38.288C130.887 38.0453 131.036 37.8493 131.279 37.7C131.522 37.5507 131.904 37.476 132.427 37.476C132.968 37.476 133.36 37.588 133.603 37.812C133.864 38.036 133.995 38.3907 133.995 38.876L133.743 39.66C133.836 39.4547 133.995 39.2307 134.219 38.988C134.443 38.7453 134.714 38.5027 135.031 38.26C135.367 38.0173 135.74 37.8213 136.151 37.672C136.562 37.5227 136.991 37.448 137.439 37.448C138.055 37.448 138.615 37.5507 139.119 37.756C139.642 37.9613 140.099 38.26 140.491 38.652C140.902 39.044 141.256 39.52 141.555 40.08C141.872 39.5947 142.227 39.156 142.619 38.764C143.011 38.3533 143.468 38.036 143.991 37.812C144.514 37.5693 145.102 37.448 145.755 37.448C146.838 37.448 147.743 37.7187 148.471 38.26C149.218 38.8013 149.778 39.576 150.151 40.584C150.543 41.5733 150.739 42.7587 150.739 44.14V49.572C150.739 49.8893 150.702 50.1787 150.627 50.44C150.571 50.6827 150.422 50.8787 150.179 51.028C149.955 51.1773 149.582 51.252 149.059 51.252C148.536 51.252 148.154 51.168 147.911 51C147.668 50.8507 147.519 50.6547 147.463 50.412C147.407 50.1507 147.379 49.8613 147.379 49.544V44.112C147.379 43.4213 147.295 42.824 147.127 42.32C146.959 41.816 146.707 41.424 146.371 41.144C146.054 40.864 145.634 40.724 145.111 40.724C144.551 40.724 144.066 40.864 143.655 41.144C143.263 41.4053 142.955 41.788 142.731 42.292C142.507 42.796 142.395 43.412 142.395 44.14V49.6C142.395 49.9173 142.348 50.216 142.255 50.496C142.162 50.7573 141.975 50.9533 141.695 51.084C141.434 51.2333 141.051 51.2893 140.547 51.252C140.08 51.2333 139.735 51.14 139.511 50.972C139.306 50.804 139.175 50.5987 139.119 50.356C139.082 50.0947 139.063 49.824 139.063 49.544V44.112C139.063 43.4213 138.979 42.824 138.811 42.32C138.643 41.7973 138.391 41.4053 138.055 41.144C137.738 40.864 137.308 40.724 136.767 40.724C136.188 40.724 135.694 40.8733 135.283 41.172C134.891 41.4707 134.592 41.872 134.387 42.376C134.182 42.88 134.079 43.4587 134.079 44.112V49.6C134.079 49.8987 134.042 50.1787 133.967 50.44C133.911 50.7013 133.762 50.8973 133.519 51.028C133.295 51.1773 132.912 51.252 132.371 51.252ZM160.216 51.448C159.002 51.448 157.938 51.252 157.024 50.86C156.128 50.468 155.372 49.936 154.756 49.264C154.158 48.5733 153.701 47.808 153.384 46.968C153.085 46.1093 152.936 45.2227 152.936 44.308C152.936 42.964 153.244 41.7693 153.86 40.724C154.476 39.6787 155.325 38.8573 156.408 38.26C157.509 37.6627 158.769 37.364 160.188 37.364C161.196 37.364 162.082 37.5227 162.848 37.84C163.613 38.1573 164.248 38.5773 164.752 39.1C165.274 39.604 165.666 40.164 165.928 40.78C166.208 41.396 166.348 41.9933 166.348 42.572C166.348 43.5613 166.105 44.28 165.62 44.728C165.153 45.176 164.565 45.4 163.856 45.4H156.464C156.482 46.0347 156.678 46.5853 157.052 47.052C157.444 47.5187 157.929 47.8827 158.508 48.144C159.105 48.3867 159.712 48.508 160.328 48.508C160.794 48.508 161.205 48.48 161.56 48.424C161.933 48.368 162.25 48.3027 162.512 48.228C162.773 48.1347 162.997 48.0413 163.184 47.948C163.389 47.8547 163.576 47.7707 163.744 47.696C163.912 47.6213 164.07 47.5747 164.22 47.556C164.425 47.5373 164.63 47.584 164.836 47.696C165.041 47.808 165.209 48.004 165.34 48.284C165.452 48.4707 165.526 48.648 165.564 48.816C165.62 48.9653 165.648 49.1147 165.648 49.264C165.648 49.6373 165.424 49.992 164.976 50.328C164.528 50.6453 163.893 50.9067 163.072 51.112C162.269 51.336 161.317 51.448 160.216 51.448ZM156.464 43.412H162.204C162.521 43.412 162.764 43.3653 162.932 43.272C163.1 43.16 163.184 42.936 163.184 42.6C163.184 42.1707 163.053 41.788 162.792 41.452C162.53 41.0973 162.176 40.8267 161.728 40.64C161.28 40.4347 160.757 40.332 160.16 40.332C159.469 40.332 158.844 40.472 158.284 40.752C157.724 41.0133 157.276 41.3773 156.94 41.844C156.622 42.3107 156.464 42.8333 156.464 43.412ZM170.269 51.252C169.765 51.252 169.392 51.1773 169.149 51.028C168.925 50.8787 168.785 50.6733 168.729 50.412C168.673 50.1507 168.645 49.8707 168.645 49.572V39.1C168.645 38.8013 168.673 38.5307 168.729 38.288C168.785 38.0453 168.935 37.8493 169.177 37.7C169.42 37.5507 169.803 37.476 170.325 37.476C170.867 37.476 171.259 37.588 171.501 37.812C171.763 38.036 171.893 38.3907 171.893 38.876L171.641 39.66C171.735 39.4547 171.893 39.2307 172.117 38.988C172.341 38.7453 172.612 38.5027 172.929 38.26C173.265 38.0173 173.639 37.8213 174.049 37.672C174.46 37.5227 174.889 37.448 175.337 37.448C175.953 37.448 176.513 37.5507 177.017 37.756C177.54 37.9613 177.997 38.26 178.389 38.652C178.8 39.044 179.155 39.52 179.453 40.08C179.771 39.5947 180.125 39.156 180.517 38.764C180.909 38.3533 181.367 38.036 181.889 37.812C182.412 37.5693 183 37.448 183.653 37.448C184.736 37.448 185.641 37.7187 186.369 38.26C187.116 38.8013 187.676 39.576 188.049 40.584C188.441 41.5733 188.637 42.7587 188.637 44.14V49.572C188.637 49.8893 188.6 50.1787 188.525 50.44C188.469 50.6827 188.32 50.8787 188.077 51.028C187.853 51.1773 187.48 51.252 186.957 51.252C186.435 51.252 186.052 51.168 185.809 51C185.567 50.8507 185.417 50.6547 185.361 50.412C185.305 50.1507 185.277 49.8613 185.277 49.544V44.112C185.277 43.4213 185.193 42.824 185.025 42.32C184.857 41.816 184.605 41.424 184.269 41.144C183.952 40.864 183.532 40.724 183.009 40.724C182.449 40.724 181.964 40.864 181.553 41.144C181.161 41.4053 180.853 41.788 180.629 42.292C180.405 42.796 180.293 43.412 180.293 44.14V49.6C180.293 49.9173 180.247 50.216 180.153 50.496C180.06 50.7573 179.873 50.9533 179.593 51.084C179.332 51.2333 178.949 51.2893 178.445 51.252C177.979 51.2333 177.633 51.14 177.409 50.972C177.204 50.804 177.073 50.5987 177.017 50.356C176.98 50.0947 176.961 49.824 176.961 49.544V44.112C176.961 43.4213 176.877 42.824 176.709 42.32C176.541 41.7973 176.289 41.4053 175.953 41.144C175.636 40.864 175.207 40.724 174.665 40.724C174.087 40.724 173.592 40.8733 173.181 41.172C172.789 41.4707 172.491 41.872 172.285 42.376C172.08 42.88 171.977 43.4587 171.977 44.112V49.6C171.977 49.8987 171.94 50.1787 171.865 50.44C171.809 50.7013 171.66 50.8973 171.417 51.028C171.193 51.1773 170.811 51.252 170.269 51.252ZM198.646 51.252C197.731 51.252 196.91 51.0747 196.182 50.72C195.473 50.3467 194.866 49.8427 194.362 49.208C193.877 48.5733 193.503 47.8453 193.242 47.024C192.999 46.184 192.878 45.288 192.878 44.336C192.897 43.384 193.037 42.4973 193.298 41.676C193.559 40.836 193.933 40.108 194.418 39.492C194.922 38.8573 195.529 38.3627 196.238 38.008C196.947 37.6533 197.75 37.476 198.646 37.476C199.505 37.476 200.307 37.6533 201.054 38.008C201.819 38.3627 202.491 38.8573 203.07 39.492C203.667 40.108 204.134 40.836 204.47 41.676C204.806 42.4973 204.974 43.3747 204.974 44.308C204.974 45.2787 204.806 46.1933 204.47 47.052C204.134 47.892 203.677 48.6293 203.098 49.264C202.519 49.88 201.847 50.3653 201.082 50.72C200.317 51.0747 199.505 51.252 198.646 51.252ZM198.198 47.976C198.851 47.976 199.439 47.8267 199.962 47.528C200.485 47.2107 200.895 46.7813 201.194 46.24C201.511 45.6987 201.67 45.0827 201.67 44.392C201.67 43.6827 201.511 43.0573 201.194 42.516C200.895 41.956 200.485 41.5267 199.962 41.228C199.439 40.9107 198.851 40.752 198.198 40.752C197.563 40.752 196.985 40.9107 196.462 41.228C195.939 41.5453 195.519 41.9747 195.202 42.516C194.903 43.0573 194.754 43.6827 194.754 44.392C194.754 45.0827 194.903 45.6987 195.202 46.24C195.519 46.7813 195.939 47.2107 196.462 47.528C196.985 47.8267 197.563 47.976 198.198 47.976ZM193.018 51.28C192.514 51.28 192.141 51.196 191.898 51.028C191.655 50.8787 191.506 50.6827 191.45 50.44C191.394 50.1787 191.366 49.8893 191.366 49.572V32.884C191.366 32.5667 191.394 32.2867 191.45 32.044C191.506 31.7827 191.655 31.5773 191.898 31.428C192.141 31.2787 192.514 31.204 193.018 31.204C193.541 31.204 193.914 31.2787 194.138 31.428C194.362 31.5773 194.502 31.7827 194.558 32.044C194.614 32.3053 194.642 32.5853 194.642 32.884V50.132C194.567 50.5427 194.409 50.832 194.166 51C193.942 51.1867 193.559 51.28 193.018 51.28ZM213.213 51.252C212.354 51.252 211.561 51.1027 210.833 50.804C210.124 50.4867 209.498 50.0387 208.957 49.46C208.416 48.8813 207.996 48.1907 207.697 47.388C207.398 46.5853 207.249 45.6987 207.249 44.728V39.156C207.249 38.8387 207.277 38.5587 207.333 38.316C207.389 38.0547 207.538 37.8493 207.781 37.7C208.024 37.5507 208.397 37.476 208.901 37.476C209.442 37.476 209.825 37.5507 210.049 37.7C210.292 37.8493 210.441 38.0547 210.497 38.316C210.553 38.5773 210.581 38.8667 210.581 39.184V44.728C210.581 45.4 210.693 45.9787 210.917 46.464C211.16 46.9493 211.505 47.332 211.953 47.612C212.401 47.8733 212.952 48.004 213.605 48.004C214.277 48.004 214.846 47.8733 215.313 47.612C215.798 47.332 216.172 46.9493 216.433 46.464C216.694 45.96 216.825 45.3813 216.825 44.728V39.128C216.825 38.8107 216.853 38.5307 216.909 38.288C216.965 38.0267 217.114 37.8307 217.357 37.7C217.6 37.5507 217.982 37.476 218.505 37.476C219.028 37.476 219.401 37.5507 219.625 37.7C219.849 37.8493 219.989 38.0547 220.045 38.316C220.12 38.5773 220.157 38.8573 220.157 39.156V49.656C220.157 49.936 220.12 50.1973 220.045 50.44C219.989 50.6827 219.84 50.8787 219.597 51.028C219.373 51.1773 219 51.252 218.477 51.252C218.104 51.252 217.805 51.2053 217.581 51.112C217.376 51.0373 217.217 50.9347 217.105 50.804C217.012 50.6547 216.946 50.5053 216.909 50.356C216.89 50.2067 216.881 50.0573 216.881 49.908L217.105 49.152C216.993 49.32 216.825 49.5253 216.601 49.768C216.377 49.992 216.097 50.2253 215.761 50.468C215.444 50.692 215.07 50.8787 214.641 51.028C214.212 51.1773 213.736 51.252 213.213 51.252ZM234.403 51.224C233.861 51.224 233.46 51.1213 233.199 50.916C232.937 50.7107 232.807 50.4307 232.807 50.076L233.003 49.152C232.853 49.3947 232.601 49.684 232.247 50.02C231.892 50.3373 231.425 50.6267 230.847 50.888C230.268 51.1307 229.568 51.252 228.747 51.252C227.869 51.252 227.039 51.0747 226.255 50.72C225.489 50.3467 224.808 49.8427 224.211 49.208C223.632 48.5547 223.165 47.8173 222.811 46.996C222.475 46.156 222.307 45.26 222.307 44.308C222.307 43.3933 222.475 42.5347 222.811 41.732C223.165 40.9107 223.641 40.1827 224.239 39.548C224.836 38.9133 225.517 38.4187 226.283 38.064C227.067 37.6907 227.888 37.504 228.747 37.504C229.512 37.504 230.156 37.6067 230.679 37.812C231.22 38.0173 231.677 38.2787 232.051 38.596C232.424 38.8947 232.732 39.212 232.975 39.548L232.807 38.736C232.807 38.3253 232.937 38.0173 233.199 37.812C233.46 37.588 233.871 37.476 234.431 37.476C234.953 37.476 235.327 37.56 235.551 37.728C235.775 37.8773 235.915 38.092 235.971 38.372C236.027 38.6333 236.055 38.932 236.055 39.268V49.516C236.055 49.8333 236.027 50.1227 235.971 50.384C235.915 50.6453 235.765 50.8507 235.523 51C235.299 51.1493 234.925 51.224 234.403 51.224ZM229.251 47.976C229.885 47.976 230.455 47.8173 230.959 47.5C231.463 47.1827 231.864 46.7533 232.163 46.212C232.48 45.652 232.639 45.036 232.639 44.364C232.639 43.636 232.48 43.0013 232.163 42.46C231.845 41.9187 231.425 41.4987 230.903 41.2C230.399 40.8827 229.829 40.724 229.195 40.724C228.504 40.724 227.888 40.892 227.347 41.228C226.805 41.5453 226.376 41.984 226.059 42.544C225.76 43.0853 225.611 43.7013 225.611 44.392C225.611 45.064 225.769 45.6707 226.087 46.212C226.404 46.7533 226.833 47.1827 227.375 47.5C227.935 47.8173 228.56 47.976 229.251 47.976ZM245.668 51.28C244.754 51.28 243.97 51.1867 243.316 51C242.663 50.8133 242.131 50.524 241.72 50.132C241.31 49.74 241.002 49.236 240.796 48.62C240.61 47.9853 240.516 47.2387 240.516 46.38V34.508C240.516 34.172 240.544 33.8827 240.6 33.64C240.675 33.3973 240.824 33.2107 241.048 33.08C241.291 32.9307 241.664 32.856 242.168 32.856C242.691 32.856 243.064 32.9307 243.288 33.08C243.531 33.2293 243.68 33.4347 243.736 33.696C243.811 33.9387 243.848 34.2093 243.848 34.508V46.268C243.848 46.66 243.876 46.9773 243.932 47.22C244.007 47.4627 244.11 47.6493 244.24 47.78C244.39 47.892 244.576 47.976 244.8 48.032C245.043 48.0693 245.332 48.088 245.668 48.088C246.023 48.088 246.322 48.116 246.564 48.172C246.826 48.228 247.022 48.368 247.152 48.592C247.283 48.7973 247.348 49.1427 247.348 49.628C247.348 50.1507 247.264 50.5333 247.096 50.776C246.947 51 246.742 51.14 246.48 51.196C246.238 51.252 245.967 51.28 245.668 51.28ZM239.368 37.756L242.252 37.784L246.116 37.672C246.434 37.672 246.714 37.7093 246.956 37.784C247.218 37.84 247.423 37.9893 247.572 38.232C247.722 38.456 247.796 38.8293 247.796 39.352C247.796 39.8373 247.722 40.2013 247.572 40.444C247.423 40.6867 247.227 40.8453 246.984 40.92C246.742 40.976 246.462 41.004 246.144 41.004L242.392 40.948L239.284 40.976C238.818 40.9573 238.491 40.8267 238.304 40.584C238.136 40.3227 238.052 39.9027 238.052 39.324C238.052 38.7827 238.155 38.3907 238.36 38.148C238.584 37.8867 238.92 37.756 239.368 37.756ZM20.5272 85.448C20.0419 85.448 19.5285 85.392 18.9872 85.28C18.4459 85.1867 17.9232 85.0467 17.4192 84.86C16.9152 84.6547 16.4765 84.4213 16.1032 84.16C15.7485 83.88 15.5245 83.572 15.4312 83.236C15.3565 83.0493 15.3285 82.872 15.3472 82.704C15.3659 82.5173 15.4219 82.3307 15.5152 82.144C15.6085 81.9387 15.7485 81.7333 15.9352 81.528C16.1032 81.3227 16.2712 81.2107 16.4392 81.192C16.6259 81.1547 16.8592 81.2107 17.1392 81.36C17.3819 81.4533 17.6432 81.5747 17.9232 81.724C18.2219 81.8733 18.5205 82.0227 18.8192 82.172C19.1365 82.3213 19.4539 82.4427 19.7712 82.536C20.1072 82.6293 20.4339 82.676 20.7512 82.676C21.4419 82.676 21.9925 82.564 22.4032 82.34C22.8139 82.0973 23.0192 81.7613 23.0192 81.332C23.0192 81.0893 22.9539 80.8747 22.8232 80.688C22.6925 80.5013 22.5152 80.352 22.2912 80.24C22.0859 80.1093 21.8339 79.9973 21.5352 79.904C21.2552 79.792 20.9472 79.6987 20.6112 79.624C20.2939 79.5307 19.9579 79.428 19.6032 79.316C19.1365 79.1853 18.6699 79.0267 18.2032 78.84C17.7365 78.6533 17.3165 78.4107 16.9432 78.112C16.5885 77.8133 16.2992 77.44 16.0752 76.992C15.8512 76.544 15.7392 75.984 15.7392 75.312C15.7392 74.472 15.9352 73.7627 16.3272 73.184C16.7379 72.5867 17.3259 72.1293 18.0912 71.812C18.8565 71.4947 19.7805 71.336 20.8632 71.336C21.2365 71.336 21.5912 71.364 21.9272 71.42C22.2819 71.476 22.6179 71.56 22.9352 71.672C23.2712 71.7653 23.5885 71.8867 23.8872 72.036C24.2045 72.1853 24.5032 72.3533 24.7832 72.54C25.2499 72.8013 25.4925 73.1093 25.5112 73.464C25.5299 73.8 25.3992 74.164 25.1192 74.556C24.9139 74.8173 24.7085 75.004 24.5032 75.116C24.2979 75.2093 24.0832 75.2093 23.8592 75.116C23.5605 74.9667 23.2339 74.808 22.8792 74.64C22.5432 74.4533 22.1885 74.2947 21.8152 74.164C21.4605 74.0333 21.0872 73.968 20.6952 73.968C20.3219 73.968 19.9859 74.024 19.6872 74.136C19.3885 74.248 19.1645 74.4067 19.0152 74.612C18.8659 74.8173 18.7912 75.06 18.7912 75.34C18.7912 75.6013 18.8659 75.816 19.0152 75.984C19.1645 76.152 19.3605 76.292 19.6032 76.404C19.8459 76.516 20.1352 76.6187 20.4712 76.712C20.8072 76.7867 21.1619 76.8613 21.5352 76.936C22.0579 77.048 22.5899 77.188 23.1312 77.356C23.6725 77.524 24.1672 77.7573 24.6152 78.056C25.0819 78.3547 25.4552 78.756 25.7352 79.26C26.0152 79.7453 26.1552 80.38 26.1552 81.164C26.1552 82.5267 25.6512 83.5813 24.6432 84.328C23.6539 85.0747 22.2819 85.448 20.5272 85.448ZM34.3028 85.252C33.4441 85.252 32.6508 85.1027 31.9228 84.804C31.2134 84.4867 30.5881 84.0387 30.0468 83.46C29.5054 82.8813 29.0854 82.1907 28.7868 81.388C28.4881 80.5853 28.3388 79.6987 28.3388 78.728V73.156C28.3388 72.8387 28.3668 72.5587 28.4228 72.316C28.4788 72.0547 28.6281 71.8493 28.8708 71.7C29.1134 71.5507 29.4868 71.476 29.9908 71.476C30.5321 71.476 30.9148 71.5507 31.1388 71.7C31.3814 71.8493 31.5308 72.0547 31.5868 72.316C31.6428 72.5773 31.6708 72.8667 31.6708 73.184V78.728C31.6708 79.4 31.7828 79.9787 32.0068 80.464C32.2494 80.9493 32.5948 81.332 33.0428 81.612C33.4908 81.8733 34.0414 82.004 34.6948 82.004C35.3668 82.004 35.9361 81.8733 36.4028 81.612C36.8881 81.332 37.2614 80.9493 37.5228 80.464C37.7841 79.96 37.9148 79.3813 37.9148 78.728V73.128C37.9148 72.8107 37.9428 72.5307 37.9988 72.288C38.0548 72.0267 38.2041 71.8307 38.4468 71.7C38.6894 71.5507 39.0721 71.476 39.5948 71.476C40.1174 71.476 40.4908 71.5507 40.7148 71.7C40.9388 71.8493 41.0788 72.0547 41.1348 72.316C41.2094 72.5773 41.2468 72.8573 41.2468 73.156V83.656C41.2468 83.936 41.2094 84.1973 41.1348 84.44C41.0788 84.6827 40.9294 84.8787 40.6868 85.028C40.4628 85.1773 40.0894 85.252 39.5668 85.252C39.1934 85.252 38.8948 85.2053 38.6708 85.112C38.4654 85.0373 38.3068 84.9347 38.1948 84.804C38.1014 84.6547 38.0361 84.5053 37.9988 84.356C37.9801 84.2067 37.9708 84.0573 37.9708 83.908L38.1948 83.152C38.0828 83.32 37.9148 83.5253 37.6908 83.768C37.4668 83.992 37.1868 84.2253 36.8508 84.468C36.5334 84.692 36.1601 84.8787 35.7308 85.028C35.3014 85.1773 34.8254 85.252 34.3028 85.252ZM55.4926 85.224C54.9513 85.224 54.55 85.1213 54.2886 84.916C54.0273 84.7107 53.8966 84.4307 53.8966 84.076L54.0926 83.152C53.9433 83.3947 53.6913 83.684 53.3366 84.02C52.982 84.3373 52.5153 84.6267 51.9366 84.888C51.358 85.1307 50.658 85.252 49.8366 85.252C48.9593 85.252 48.1286 85.0747 47.3446 84.72C46.5793 84.3467 45.898 83.8427 45.3006 83.208C44.722 82.5547 44.2553 81.8173 43.9006 80.996C43.5646 80.156 43.3966 79.26 43.3966 78.308C43.3966 77.3933 43.5646 76.5347 43.9006 75.732C44.2553 74.9107 44.7313 74.1827 45.3286 73.548C45.926 72.9133 46.6073 72.4187 47.3726 72.064C48.1566 71.6907 48.978 71.504 49.8366 71.504C50.602 71.504 51.246 71.6067 51.7686 71.812C52.31 72.0173 52.7673 72.2787 53.1406 72.596C53.514 72.8947 53.822 73.212 54.0646 73.548L53.8966 72.736C53.8966 72.3253 54.0273 72.0173 54.2886 71.812C54.55 71.588 54.9606 71.476 55.5206 71.476C56.0433 71.476 56.4166 71.56 56.6406 71.728C56.8646 71.8773 57.0046 72.092 57.0606 72.372C57.1166 72.6333 57.1446 72.932 57.1446 73.268V83.516C57.1446 83.8333 57.1166 84.1227 57.0606 84.384C57.0046 84.6453 56.8553 84.8507 56.6126 85C56.3886 85.1493 56.0153 85.224 55.4926 85.224ZM50.3406 81.976C50.9753 81.976 51.5446 81.8173 52.0486 81.5C52.5526 81.1827 52.954 80.7533 53.2526 80.212C53.57 79.652 53.7286 79.036 53.7286 78.364C53.7286 77.636 53.57 77.0013 53.2526 76.46C52.9353 75.9187 52.5153 75.4987 51.9926 75.2C51.4886 74.8827 50.9193 74.724 50.2846 74.724C49.594 74.724 48.978 74.892 48.4366 75.228C47.8953 75.5453 47.466 75.984 47.1486 76.544C46.85 77.0853 46.7006 77.7013 46.7006 78.392C46.7006 79.064 46.8593 79.6707 47.1766 80.212C47.494 80.7533 47.9233 81.1827 48.4646 81.5C49.0246 81.8173 49.65 81.976 50.3406 81.976ZM64.742 85.448C64.2567 85.448 63.7434 85.392 63.202 85.28C62.6607 85.1867 62.138 85.0467 61.634 84.86C61.13 84.6547 60.6914 84.4213 60.318 84.16C59.9634 83.88 59.7394 83.572 59.646 83.236C59.5714 83.0493 59.5434 82.872 59.562 82.704C59.5807 82.5173 59.6367 82.3307 59.73 82.144C59.8234 81.9387 59.9634 81.7333 60.15 81.528C60.318 81.3227 60.486 81.2107 60.654 81.192C60.8407 81.1547 61.074 81.2107 61.354 81.36C61.5967 81.4533 61.858 81.5747 62.138 81.724C62.4367 81.8733 62.7354 82.0227 63.034 82.172C63.3514 82.3213 63.6687 82.4427 63.986 82.536C64.322 82.6293 64.6487 82.676 64.966 82.676C65.6567 82.676 66.2074 82.564 66.618 82.34C67.0287 82.0973 67.234 81.7613 67.234 81.332C67.234 81.0893 67.1687 80.8747 67.038 80.688C66.9074 80.5013 66.73 80.352 66.506 80.24C66.3007 80.1093 66.0487 79.9973 65.75 79.904C65.47 79.792 65.162 79.6987 64.826 79.624C64.5087 79.5307 64.1727 79.428 63.818 79.316C63.3514 79.1853 62.8847 79.0267 62.418 78.84C61.9514 78.6533 61.5314 78.4107 61.158 78.112C60.8034 77.8133 60.514 77.44 60.29 76.992C60.066 76.544 59.954 75.984 59.954 75.312C59.954 74.472 60.15 73.7627 60.542 73.184C60.9527 72.5867 61.5407 72.1293 62.306 71.812C63.0714 71.4947 63.9954 71.336 65.078 71.336C65.4514 71.336 65.806 71.364 66.142 71.42C66.4967 71.476 66.8327 71.56 67.15 71.672C67.486 71.7653 67.8034 71.8867 68.102 72.036C68.4194 72.1853 68.718 72.3533 68.998 72.54C69.4647 72.8013 69.7074 73.1093 69.726 73.464C69.7447 73.8 69.614 74.164 69.334 74.556C69.1287 74.8173 68.9234 75.004 68.718 75.116C68.5127 75.2093 68.298 75.2093 68.074 75.116C67.7754 74.9667 67.4487 74.808 67.094 74.64C66.758 74.4533 66.4034 74.2947 66.03 74.164C65.6754 74.0333 65.302 73.968 64.91 73.968C64.5367 73.968 64.2007 74.024 63.902 74.136C63.6034 74.248 63.3794 74.4067 63.23 74.612C63.0807 74.8173 63.006 75.06 63.006 75.34C63.006 75.6013 63.0807 75.816 63.23 75.984C63.3794 76.152 63.5754 76.292 63.818 76.404C64.0607 76.516 64.35 76.6187 64.686 76.712C65.022 76.7867 65.3767 76.8613 65.75 76.936C66.2727 77.048 66.8047 77.188 67.346 77.356C67.8874 77.524 68.382 77.7573 68.83 78.056C69.2967 78.3547 69.67 78.756 69.95 79.26C70.23 79.7453 70.37 80.38 70.37 81.164C70.37 82.5267 69.866 83.5813 68.858 84.328C67.8687 85.0747 66.4967 85.448 64.742 85.448ZM84.2856 85.224C83.7443 85.224 83.3429 85.1213 83.0816 84.916C82.8203 84.7107 82.6896 84.4307 82.6896 84.076L82.8856 83.152C82.7363 83.3947 82.4843 83.684 82.1296 84.02C81.7749 84.3373 81.3083 84.6267 80.7296 84.888C80.1509 85.1307 79.4509 85.252 78.6296 85.252C77.7523 85.252 76.9216 85.0747 76.1376 84.72C75.3723 84.3467 74.6909 83.8427 74.0936 83.208C73.5149 82.5547 73.0483 81.8173 72.6936 80.996C72.3576 80.156 72.1896 79.26 72.1896 78.308C72.1896 77.3933 72.3576 76.5347 72.6936 75.732C73.0483 74.9107 73.5243 74.1827 74.1216 73.548C74.7189 72.9133 75.4003 72.4187 76.1656 72.064C76.9496 71.6907 77.7709 71.504 78.6296 71.504C79.3949 71.504 80.0389 71.6067 80.5616 71.812C81.1029 72.0173 81.5603 72.2787 81.9336 72.596C82.3069 72.8947 82.6149 73.212 82.8576 73.548L82.6896 72.736C82.6896 72.3253 82.8203 72.0173 83.0816 71.812C83.3429 71.588 83.7536 71.476 84.3136 71.476C84.8363 71.476 85.2096 71.56 85.4336 71.728C85.6576 71.8773 85.7976 72.092 85.8536 72.372C85.9096 72.6333 85.9376 72.932 85.9376 73.268V83.516C85.9376 83.8333 85.9096 84.1227 85.8536 84.384C85.7976 84.6453 85.6483 84.8507 85.4056 85C85.1816 85.1493 84.8083 85.224 84.2856 85.224ZM79.1336 81.976C79.7683 81.976 80.3376 81.8173 80.8416 81.5C81.3456 81.1827 81.7469 80.7533 82.0456 80.212C82.3629 79.652 82.5216 79.036 82.5216 78.364C82.5216 77.636 82.3629 77.0013 82.0456 76.46C81.7283 75.9187 81.3083 75.4987 80.7856 75.2C80.2816 74.8827 79.7123 74.724 79.0776 74.724C78.3869 74.724 77.7709 74.892 77.2296 75.228C76.6883 75.5453 76.2589 75.984 75.9416 76.544C75.6429 77.0853 75.4936 77.7013 75.4936 78.392C75.4936 79.064 75.6523 79.6707 75.9696 80.212C76.2869 80.7533 76.7163 81.1827 77.2576 81.5C77.8176 81.8173 78.4429 81.976 79.1336 81.976ZM90.399 85.252C89.895 85.252 89.5217 85.168 89.279 85C89.055 84.8507 88.915 84.6547 88.859 84.412C88.803 84.1507 88.775 83.8613 88.775 83.544V73.072C88.775 72.7733 88.803 72.5027 88.859 72.26C88.915 72.0173 89.0643 71.8307 89.307 71.7C89.5497 71.5507 89.923 71.476 90.427 71.476C90.875 71.476 91.211 71.532 91.435 71.644C91.659 71.756 91.8083 71.896 91.883 72.064C91.9577 72.232 91.995 72.4 91.995 72.568C92.0137 72.736 92.0323 72.8667 92.051 72.96L91.939 73.856C92.051 73.5573 92.2377 73.268 92.499 72.988C92.7603 72.708 93.0777 72.456 93.451 72.232C93.8243 71.9893 94.2257 71.8027 94.655 71.672C95.103 71.5227 95.5603 71.448 96.027 71.448C96.9043 71.448 97.6883 71.6067 98.379 71.924C99.0697 72.2413 99.6577 72.6893 100.143 73.268C100.647 73.8467 101.03 74.5373 101.291 75.34C101.552 76.124 101.683 77.0107 101.683 78V83.572C101.683 83.8893 101.646 84.1787 101.571 84.44C101.515 84.6827 101.375 84.8787 101.151 85.028C100.927 85.1773 100.544 85.252 100.003 85.252C99.4803 85.252 99.0977 85.168 98.855 85C98.6123 84.8507 98.463 84.6547 98.407 84.412C98.351 84.1507 98.323 83.8613 98.323 83.544V77.972C98.323 77.3 98.2017 76.7213 97.959 76.236C97.735 75.7507 97.399 75.3773 96.951 75.116C96.5217 74.8547 95.971 74.724 95.299 74.724C94.6457 74.724 94.0763 74.864 93.591 75.144C93.1057 75.4053 92.7323 75.7787 92.471 76.264C92.2097 76.7493 92.079 77.3187 92.079 77.972V83.572C92.079 83.8893 92.051 84.1787 91.995 84.44C91.939 84.6827 91.7897 84.8787 91.547 85.028C91.323 85.1773 90.9403 85.252 90.399 85.252ZM115.895 85.224C115.354 85.224 114.952 85.1213 114.691 84.916C114.43 84.7107 114.299 84.4307 114.299 84.076L114.495 83.152C114.346 83.3947 114.094 83.684 113.739 84.02C113.384 84.3373 112.918 84.6267 112.339 84.888C111.76 85.1307 111.06 85.252 110.239 85.252C109.362 85.252 108.531 85.0747 107.747 84.72C106.982 84.3467 106.3 83.8427 105.703 83.208C105.124 82.5547 104.658 81.8173 104.303 80.996C103.967 80.156 103.799 79.26 103.799 78.308C103.799 77.3933 103.967 76.5347 104.303 75.732C104.658 74.9107 105.134 74.1827 105.731 73.548C106.328 72.9133 107.01 72.4187 107.775 72.064C108.559 71.6907 109.38 71.504 110.239 71.504C111.004 71.504 111.648 71.6067 112.171 71.812C112.712 72.0173 113.17 72.2787 113.543 72.596C113.916 72.8947 114.224 73.212 114.467 73.548L114.299 72.736C114.299 72.3253 114.43 72.0173 114.691 71.812C114.952 71.588 115.363 71.476 115.923 71.476C116.446 71.476 116.819 71.56 117.043 71.728C117.267 71.8773 117.407 72.092 117.463 72.372C117.519 72.6333 117.547 72.932 117.547 73.268V83.516C117.547 83.8333 117.519 84.1227 117.463 84.384C117.407 84.6453 117.258 84.8507 117.015 85C116.791 85.1493 116.418 85.224 115.895 85.224ZM110.743 81.976C111.378 81.976 111.947 81.8173 112.451 81.5C112.955 81.1827 113.356 80.7533 113.655 80.212C113.972 79.652 114.131 79.036 114.131 78.364C114.131 77.636 113.972 77.0013 113.655 76.46C113.338 75.9187 112.918 75.4987 112.395 75.2C111.891 74.8827 111.322 74.724 110.687 74.724C109.996 74.724 109.38 74.892 108.839 75.228C108.298 75.5453 107.868 75.984 107.551 76.544C107.252 77.0853 107.103 77.7013 107.103 78.392C107.103 79.064 107.262 79.6707 107.579 80.212C107.896 80.7533 108.326 81.1827 108.867 81.5C109.427 81.8173 110.052 81.976 110.743 81.976ZM138.278 82.256C138.763 82.6667 139.015 83.0493 139.034 83.404C139.071 83.7587 138.884 84.1693 138.474 84.636C138.156 84.9907 137.876 85.224 137.634 85.336C137.391 85.448 137.148 85.448 136.906 85.336C136.663 85.2427 136.374 85.056 136.038 84.776L130.69 80.268V83.6C130.69 83.8987 130.652 84.1787 130.578 84.44C130.522 84.7013 130.372 84.9067 130.13 85.056C129.906 85.2053 129.532 85.28 129.01 85.28C128.487 85.28 128.104 85.196 127.862 85.028C127.638 84.8787 127.498 84.6733 127.442 84.412C127.386 84.1507 127.358 83.8707 127.358 83.572V66.856C127.358 66.5387 127.386 66.2587 127.442 66.016C127.516 65.7547 127.666 65.5493 127.89 65.4C128.132 65.232 128.515 65.148 129.038 65.148C129.56 65.148 129.934 65.232 130.158 65.4C130.382 65.5493 130.522 65.7547 130.578 66.016C130.652 66.2587 130.69 66.548 130.69 66.884V76.068L134.554 72.316C134.852 72.036 135.132 71.8493 135.394 71.756C135.655 71.644 135.907 71.6347 136.15 71.728C136.411 71.8027 136.682 71.9987 136.962 72.316C137.428 72.82 137.652 73.24 137.634 73.576C137.615 73.8933 137.382 74.276 136.934 74.724L133.154 78.224L138.278 82.256ZM147.036 85.448C145.823 85.448 144.759 85.252 143.844 84.86C142.948 84.468 142.192 83.936 141.576 83.264C140.979 82.5733 140.521 81.808 140.204 80.968C139.905 80.1093 139.756 79.2227 139.756 78.308C139.756 76.964 140.064 75.7693 140.68 74.724C141.296 73.6787 142.145 72.8573 143.228 72.26C144.329 71.6627 145.589 71.364 147.008 71.364C148.016 71.364 148.903 71.5227 149.668 71.84C150.433 72.1573 151.068 72.5773 151.572 73.1C152.095 73.604 152.487 74.164 152.748 74.78C153.028 75.396 153.168 75.9933 153.168 76.572C153.168 77.5613 152.925 78.28 152.44 78.728C151.973 79.176 151.385 79.4 150.676 79.4H143.284C143.303 80.0347 143.499 80.5853 143.872 81.052C144.264 81.5187 144.749 81.8827 145.328 82.144C145.925 82.3867 146.532 82.508 147.148 82.508C147.615 82.508 148.025 82.48 148.38 82.424C148.753 82.368 149.071 82.3027 149.332 82.228C149.593 82.1347 149.817 82.0413 150.004 81.948C150.209 81.8547 150.396 81.7707 150.564 81.696C150.732 81.6213 150.891 81.5747 151.04 81.556C151.245 81.5373 151.451 81.584 151.656 81.696C151.861 81.808 152.029 82.004 152.16 82.284C152.272 82.4707 152.347 82.648 152.384 82.816C152.44 82.9653 152.468 83.1147 152.468 83.264C152.468 83.6373 152.244 83.992 151.796 84.328C151.348 84.6453 150.713 84.9067 149.892 85.112C149.089 85.336 148.137 85.448 147.036 85.448ZM143.284 77.412H149.024C149.341 77.412 149.584 77.3653 149.752 77.272C149.92 77.16 150.004 76.936 150.004 76.6C150.004 76.1707 149.873 75.788 149.612 75.452C149.351 75.0973 148.996 74.8267 148.548 74.64C148.1 74.4347 147.577 74.332 146.98 74.332C146.289 74.332 145.664 74.472 145.104 74.752C144.544 75.0133 144.096 75.3773 143.76 75.844C143.443 76.3107 143.284 76.8333 143.284 77.412ZM160.282 85.28C159.591 85.28 158.975 85.2333 158.434 85.14C157.911 85.0467 157.454 84.888 157.062 84.664C156.688 84.44 156.38 84.1413 156.138 83.768C155.895 83.376 155.708 82.9 155.578 82.34C155.466 81.78 155.41 81.108 155.41 80.324V66.828C155.41 66.5107 155.438 66.2307 155.494 65.988C155.568 65.7267 155.718 65.5213 155.942 65.372C156.184 65.204 156.567 65.12 157.09 65.12C157.612 65.12 157.986 65.1947 158.21 65.344C158.452 65.4933 158.602 65.6987 158.658 65.96C158.732 66.2027 158.77 66.4827 158.77 66.8V80.184C158.77 80.5387 158.788 80.8373 158.826 81.08C158.882 81.304 158.966 81.4907 159.078 81.64C159.208 81.7707 159.367 81.864 159.554 81.92C159.759 81.976 160.002 82.004 160.282 82.004C160.524 82.004 160.739 82.032 160.926 82.088C161.131 82.144 161.29 82.284 161.402 82.508C161.532 82.732 161.598 83.096 161.598 83.6C161.598 84.1227 161.532 84.5053 161.402 84.748C161.29 84.9907 161.131 85.14 160.926 85.196C160.72 85.252 160.506 85.28 160.282 85.28ZM175.094 85.224C174.553 85.224 174.152 85.1213 173.89 84.916C173.629 84.7107 173.498 84.4307 173.498 84.076L173.694 83.152C173.545 83.3947 173.293 83.684 172.938 84.02C172.584 84.3373 172.117 84.6267 171.538 84.888C170.96 85.1307 170.26 85.252 169.438 85.252C168.561 85.252 167.73 85.0747 166.946 84.72C166.181 84.3467 165.5 83.8427 164.902 83.208C164.324 82.5547 163.857 81.8173 163.502 80.996C163.166 80.156 162.998 79.26 162.998 78.308C162.998 77.3933 163.166 76.5347 163.502 75.732C163.857 74.9107 164.333 74.1827 164.93 73.548C165.528 72.9133 166.209 72.4187 166.974 72.064C167.758 71.6907 168.58 71.504 169.438 71.504C170.204 71.504 170.848 71.6067 171.37 71.812C171.912 72.0173 172.369 72.2787 172.742 72.596C173.116 72.8947 173.424 73.212 173.666 73.548L173.498 72.736C173.498 72.3253 173.629 72.0173 173.89 71.812C174.152 71.588 174.562 71.476 175.122 71.476C175.645 71.476 176.018 71.56 176.242 71.728C176.466 71.8773 176.606 72.092 176.662 72.372C176.718 72.6333 176.746 72.932 176.746 73.268V83.516C176.746 83.8333 176.718 84.1227 176.662 84.384C176.606 84.6453 176.457 84.8507 176.214 85C175.99 85.1493 175.617 85.224 175.094 85.224ZM169.942 81.976C170.577 81.976 171.146 81.8173 171.65 81.5C172.154 81.1827 172.556 80.7533 172.854 80.212C173.172 79.652 173.33 79.036 173.33 78.364C173.33 77.636 173.172 77.0013 172.854 76.46C172.537 75.9187 172.117 75.4987 171.594 75.2C171.09 74.8827 170.521 74.724 169.886 74.724C169.196 74.724 168.58 74.892 168.038 75.228C167.497 75.5453 167.068 75.984 166.75 76.544C166.452 77.0853 166.302 77.7013 166.302 78.392C166.302 79.064 166.461 79.6707 166.778 80.212C167.096 80.7533 167.525 81.1827 168.066 81.5C168.626 81.8173 169.252 81.976 169.942 81.976ZM184.344 85.448C183.858 85.448 183.345 85.392 182.804 85.28C182.262 85.1867 181.74 85.0467 181.236 84.86C180.732 84.6547 180.293 84.4213 179.92 84.16C179.565 83.88 179.341 83.572 179.248 83.236C179.173 83.0493 179.145 82.872 179.164 82.704C179.182 82.5173 179.238 82.3307 179.332 82.144C179.425 81.9387 179.565 81.7333 179.752 81.528C179.92 81.3227 180.088 81.2107 180.256 81.192C180.442 81.1547 180.676 81.2107 180.956 81.36C181.198 81.4533 181.46 81.5747 181.74 81.724C182.038 81.8733 182.337 82.0227 182.636 82.172C182.953 82.3213 183.27 82.4427 183.588 82.536C183.924 82.6293 184.25 82.676 184.568 82.676C185.258 82.676 185.809 82.564 186.22 82.34C186.63 82.0973 186.836 81.7613 186.836 81.332C186.836 81.0893 186.77 80.8747 186.64 80.688C186.509 80.5013 186.332 80.352 186.108 80.24C185.902 80.1093 185.65 79.9973 185.352 79.904C185.072 79.792 184.764 79.6987 184.428 79.624C184.11 79.5307 183.774 79.428 183.42 79.316C182.953 79.1853 182.486 79.0267 182.02 78.84C181.553 78.6533 181.133 78.4107 180.76 78.112C180.405 77.8133 180.116 77.44 179.892 76.992C179.668 76.544 179.556 75.984 179.556 75.312C179.556 74.472 179.752 73.7627 180.144 73.184C180.554 72.5867 181.142 72.1293 181.908 71.812C182.673 71.4947 183.597 71.336 184.68 71.336C185.053 71.336 185.408 71.364 185.744 71.42C186.098 71.476 186.434 71.56 186.752 71.672C187.088 71.7653 187.405 71.8867 187.704 72.036C188.021 72.1853 188.32 72.3533 188.6 72.54C189.066 72.8013 189.309 73.1093 189.328 73.464C189.346 73.8 189.216 74.164 188.936 74.556C188.73 74.8173 188.525 75.004 188.32 75.116C188.114 75.2093 187.9 75.2093 187.676 75.116C187.377 74.9667 187.05 74.808 186.696 74.64C186.36 74.4533 186.005 74.2947 185.632 74.164C185.277 74.0333 184.904 73.968 184.512 73.968C184.138 73.968 183.802 74.024 183.504 74.136C183.205 74.248 182.981 74.4067 182.832 74.612C182.682 74.8173 182.608 75.06 182.608 75.34C182.608 75.6013 182.682 75.816 182.832 75.984C182.981 76.152 183.177 76.292 183.42 76.404C183.662 76.516 183.952 76.6187 184.288 76.712C184.624 76.7867 184.978 76.8613 185.352 76.936C185.874 77.048 186.406 77.188 186.948 77.356C187.489 77.524 187.984 77.7573 188.432 78.056C188.898 78.3547 189.272 78.756 189.552 79.26C189.832 79.7453 189.972 80.38 189.972 81.164C189.972 82.5267 189.468 83.5813 188.46 84.328C187.47 85.0747 186.098 85.448 184.344 85.448ZM200.976 85.252C200.472 85.252 200.099 85.1773 199.856 85.028C199.632 84.8787 199.492 84.6733 199.436 84.412C199.38 84.1507 199.352 83.8707 199.352 83.572V73.1C199.352 72.8013 199.38 72.5307 199.436 72.288C199.492 72.0453 199.642 71.8493 199.884 71.7C200.127 71.5507 200.51 71.476 201.032 71.476C201.574 71.476 201.966 71.588 202.208 71.812C202.47 72.036 202.6 72.3907 202.6 72.876L202.348 73.66C202.442 73.4547 202.6 73.2307 202.824 72.988C203.048 72.7453 203.319 72.5027 203.636 72.26C203.972 72.0173 204.346 71.8213 204.756 71.672C205.167 71.5227 205.596 71.448 206.044 71.448C206.66 71.448 207.22 71.5507 207.724 71.756C208.247 71.9613 208.704 72.26 209.096 72.652C209.507 73.044 209.862 73.52 210.16 74.08C210.478 73.5947 210.832 73.156 211.224 72.764C211.616 72.3533 212.074 72.036 212.596 71.812C213.119 71.5693 213.707 71.448 214.36 71.448C215.443 71.448 216.348 71.7187 217.076 72.26C217.823 72.8013 218.383 73.576 218.756 74.584C219.148 75.5733 219.344 76.7587 219.344 78.14V83.572C219.344 83.8893 219.307 84.1787 219.232 84.44C219.176 84.6827 219.027 84.8787 218.784 85.028C218.56 85.1773 218.187 85.252 217.664 85.252C217.142 85.252 216.759 85.168 216.516 85C216.274 84.8507 216.124 84.6547 216.068 84.412C216.012 84.1507 215.984 83.8613 215.984 83.544V78.112C215.984 77.4213 215.9 76.824 215.732 76.32C215.564 75.816 215.312 75.424 214.976 75.144C214.659 74.864 214.239 74.724 213.716 74.724C213.156 74.724 212.671 74.864 212.26 75.144C211.868 75.4053 211.56 75.788 211.336 76.292C211.112 76.796 211 77.412 211 78.14V83.6C211 83.9173 210.954 84.216 210.86 84.496C210.767 84.7573 210.58 84.9533 210.3 85.084C210.039 85.2333 209.656 85.2893 209.152 85.252C208.686 85.2333 208.34 85.14 208.116 84.972C207.911 84.804 207.78 84.5987 207.724 84.356C207.687 84.0947 207.668 83.824 207.668 83.544V78.112C207.668 77.4213 207.584 76.824 207.416 76.32C207.248 75.7973 206.996 75.4053 206.66 75.144C206.343 74.864 205.914 74.724 205.372 74.724C204.794 74.724 204.299 74.8733 203.888 75.172C203.496 75.4707 203.198 75.872 202.992 76.376C202.787 76.88 202.684 77.4587 202.684 78.112V83.6C202.684 83.8987 202.647 84.1787 202.572 84.44C202.516 84.7013 202.367 84.8973 202.124 85.028C201.9 85.1773 201.518 85.252 200.976 85.252ZM228.821 85.448C227.608 85.448 226.544 85.252 225.629 84.86C224.733 84.468 223.977 83.936 223.361 83.264C222.764 82.5733 222.307 81.808 221.989 80.968C221.691 80.1093 221.541 79.2227 221.541 78.308C221.541 76.964 221.849 75.7693 222.465 74.724C223.081 73.6787 223.931 72.8573 225.013 72.26C226.115 71.6627 227.375 71.364 228.793 71.364C229.801 71.364 230.688 71.5227 231.453 71.84C232.219 72.1573 232.853 72.5773 233.357 73.1C233.88 73.604 234.272 74.164 234.533 74.78C234.813 75.396 234.953 75.9933 234.953 76.572C234.953 77.5613 234.711 78.28 234.225 78.728C233.759 79.176 233.171 79.4 232.461 79.4H225.069C225.088 80.0347 225.284 80.5853 225.657 81.052C226.049 81.5187 226.535 81.8827 227.113 82.144C227.711 82.3867 228.317 82.508 228.933 82.508C229.4 82.508 229.811 82.48 230.165 82.424C230.539 82.368 230.856 82.3027 231.117 82.228C231.379 82.1347 231.603 82.0413 231.789 81.948C231.995 81.8547 232.181 81.7707 232.349 81.696C232.517 81.6213 232.676 81.5747 232.825 81.556C233.031 81.5373 233.236 81.584 233.441 81.696C233.647 81.808 233.815 82.004 233.945 82.284C234.057 82.4707 234.132 82.648 234.169 82.816C234.225 82.9653 234.253 83.1147 234.253 83.264C234.253 83.6373 234.029 83.992 233.581 84.328C233.133 84.6453 232.499 84.9067 231.677 85.112C230.875 85.336 229.923 85.448 228.821 85.448ZM225.069 77.412H230.809C231.127 77.412 231.369 77.3653 231.537 77.272C231.705 77.16 231.789 76.936 231.789 76.6C231.789 76.1707 231.659 75.788 231.397 75.452C231.136 75.0973 230.781 74.8267 230.333 74.64C229.885 74.4347 229.363 74.332 228.765 74.332C228.075 74.332 227.449 74.472 226.889 74.752C226.329 75.0133 225.881 75.3773 225.545 75.844C225.228 76.3107 225.069 76.8333 225.069 77.412ZM238.903 85.252C238.399 85.252 238.026 85.168 237.783 85C237.559 84.8507 237.419 84.6547 237.363 84.412C237.307 84.1507 237.279 83.8613 237.279 83.544V73.072C237.279 72.7733 237.307 72.5027 237.363 72.26C237.419 72.0173 237.568 71.8307 237.811 71.7C238.054 71.5507 238.427 71.476 238.931 71.476C239.379 71.476 239.715 71.532 239.939 71.644C240.163 71.756 240.312 71.896 240.387 72.064C240.462 72.232 240.499 72.4 240.499 72.568C240.518 72.736 240.536 72.8667 240.555 72.96L240.443 73.856C240.555 73.5573 240.742 73.268 241.003 72.988C241.264 72.708 241.582 72.456 241.955 72.232C242.328 71.9893 242.73 71.8027 243.159 71.672C243.607 71.5227 244.064 71.448 244.531 71.448C245.408 71.448 246.192 71.6067 246.883 71.924C247.574 72.2413 248.162 72.6893 248.647 73.268C249.151 73.8467 249.534 74.5373 249.795 75.34C250.056 76.124 250.187 77.0107 250.187 78V83.572C250.187 83.8893 250.15 84.1787 250.075 84.44C250.019 84.6827 249.879 84.8787 249.655 85.028C249.431 85.1773 249.048 85.252 248.507 85.252C247.984 85.252 247.602 85.168 247.359 85C247.116 84.8507 246.967 84.6547 246.911 84.412C246.855 84.1507 246.827 83.8613 246.827 83.544V77.972C246.827 77.3 246.706 76.7213 246.463 76.236C246.239 75.7507 245.903 75.3773 245.455 75.116C245.026 74.8547 244.475 74.724 243.803 74.724C243.15 74.724 242.58 74.864 242.095 75.144C241.61 75.4053 241.236 75.7787 240.975 76.264C240.714 76.7493 240.583 77.3187 240.583 77.972V83.572C240.583 83.8893 240.555 84.1787 240.499 84.44C240.443 84.6827 240.294 84.8787 240.051 85.028C239.827 85.1773 239.444 85.252 238.903 85.252ZM250.287 90.852C250.007 90.852 249.746 90.8147 249.503 90.74C249.242 90.684 249.036 90.544 248.887 90.32C248.719 90.096 248.635 89.7227 248.635 89.2C248.635 88.7147 248.719 88.36 248.887 88.136C249.036 87.912 249.242 87.7627 249.503 87.688C249.746 87.6133 250.026 87.576 250.343 87.576C250.679 87.576 251.015 87.5387 251.351 87.464C251.687 87.408 251.995 87.2773 252.275 87.072C252.555 86.8853 252.77 86.596 252.919 86.204C253.087 85.8307 253.171 85.3267 253.171 84.692V72.988C253.171 72.708 253.199 72.456 253.255 72.232C253.33 71.9893 253.488 71.8027 253.731 71.672C253.974 71.5227 254.347 71.448 254.851 71.448C255.355 71.448 255.719 71.5227 255.943 71.672C256.167 71.8213 256.307 72.0267 256.363 72.288C256.438 72.5493 256.475 72.8293 256.475 73.128V84.748C256.475 85.7747 256.298 86.6707 255.943 87.436C255.607 88.22 255.15 88.864 254.571 89.368C253.992 89.872 253.33 90.2453 252.583 90.488C251.855 90.7307 251.09 90.852 250.287 90.852ZM254.795 68.76C254.123 68.76 253.656 68.6293 253.395 68.368C253.152 68.1067 253.031 67.6307 253.031 66.94C253.031 66.268 253.152 65.8107 253.395 65.568C253.656 65.3253 254.132 65.204 254.823 65.204C255.495 65.204 255.952 65.3347 256.195 65.596C256.456 65.8387 256.587 66.3053 256.587 66.996C256.587 67.668 256.456 68.1347 256.195 68.396C255.952 68.6387 255.486 68.76 254.795 68.76ZM271.071 85.224C270.529 85.224 270.128 85.1213 269.867 84.916C269.605 84.7107 269.475 84.4307 269.475 84.076L269.671 83.152C269.521 83.3947 269.269 83.684 268.915 84.02C268.56 84.3373 268.093 84.6267 267.515 84.888C266.936 85.1307 266.236 85.252 265.415 85.252C264.537 85.252 263.707 85.0747 262.923 84.72C262.157 84.3467 261.476 83.8427 260.879 83.208C260.3 82.5547 259.833 81.8173 259.479 80.996C259.143 80.156 258.975 79.26 258.975 78.308C258.975 77.3933 259.143 76.5347 259.479 75.732C259.833 74.9107 260.309 74.1827 260.907 73.548C261.504 72.9133 262.185 72.4187 262.951 72.064C263.735 71.6907 264.556 71.504 265.415 71.504C266.18 71.504 266.824 71.6067 267.347 71.812C267.888 72.0173 268.345 72.2787 268.719 72.596C269.092 72.8947 269.4 73.212 269.643 73.548L269.475 72.736C269.475 72.3253 269.605 72.0173 269.867 71.812C270.128 71.588 270.539 71.476 271.099 71.476C271.621 71.476 271.995 71.56 272.219 71.728C272.443 71.8773 272.583 72.092 272.639 72.372C272.695 72.6333 272.723 72.932 272.723 73.268V83.516C272.723 83.8333 272.695 84.1227 272.639 84.384C272.583 84.6453 272.433 84.8507 272.191 85C271.967 85.1493 271.593 85.224 271.071 85.224ZM265.919 81.976C266.553 81.976 267.123 81.8173 267.627 81.5C268.131 81.1827 268.532 80.7533 268.831 80.212C269.148 79.652 269.307 79.036 269.307 78.364C269.307 77.636 269.148 77.0013 268.831 76.46C268.513 75.9187 268.093 75.4987 267.571 75.2C267.067 74.8827 266.497 74.724 265.863 74.724C265.172 74.724 264.556 74.892 264.015 75.228C263.473 75.5453 263.044 75.984 262.727 76.544C262.428 77.0853 262.279 77.7013 262.279 78.392C262.279 79.064 262.437 79.6707 262.755 80.212C263.072 80.7533 263.501 81.1827 264.043 81.5C264.603 81.8173 265.228 81.976 265.919 81.976ZM281.468 85.252C280.61 85.252 279.798 85.0747 279.032 84.72C278.267 84.3653 277.595 83.88 277.016 83.264C276.438 82.6293 275.98 81.892 275.644 81.052C275.308 80.1933 275.14 79.2787 275.14 78.308C275.14 77.3747 275.308 76.4973 275.644 75.676C275.98 74.836 276.438 74.108 277.016 73.492C277.614 72.8573 278.295 72.3627 279.06 72.008C279.826 71.6533 280.628 71.476 281.468 71.476C282.364 71.476 283.167 71.6533 283.876 72.008C284.586 72.3627 285.183 72.8573 285.668 73.492C286.172 74.108 286.555 74.836 286.816 75.676C287.078 76.4973 287.218 77.384 287.236 78.336C287.236 79.288 287.106 80.184 286.844 81.024C286.602 81.8453 286.228 82.5733 285.724 83.208C285.239 83.8427 284.632 84.3467 283.904 84.72C283.195 85.0747 282.383 85.252 281.468 85.252ZM281.916 81.976C282.57 81.976 283.148 81.8267 283.652 81.528C284.175 81.2107 284.586 80.7813 284.884 80.24C285.202 79.6987 285.36 79.0827 285.36 78.392C285.36 77.6827 285.202 77.0573 284.884 76.516C284.586 75.9747 284.175 75.5453 283.652 75.228C283.148 74.9107 282.57 74.752 281.916 74.752C281.263 74.752 280.675 74.9107 280.152 75.228C279.63 75.5267 279.21 75.956 278.892 76.516C278.594 77.0573 278.444 77.6827 278.444 78.392C278.444 79.0827 278.594 79.6987 278.892 80.24C279.21 80.7813 279.63 81.2107 280.152 81.528C280.694 81.8267 281.282 81.976 281.916 81.976ZM287.096 85.252C286.574 85.252 286.191 85.168 285.948 85C285.706 84.8133 285.547 84.524 285.472 84.132V66.884C285.472 66.5667 285.491 66.2867 285.528 66.044C285.584 65.7827 285.724 65.5773 285.948 65.428C286.191 65.26 286.564 65.176 287.068 65.176C287.61 65.176 287.992 65.2507 288.216 65.4C288.44 65.5493 288.58 65.7547 288.636 66.016C288.711 66.2587 288.748 66.5387 288.748 66.856V83.544C288.748 83.8613 288.72 84.1507 288.664 84.412C288.608 84.6733 288.459 84.8787 288.216 85.028C287.992 85.1773 287.619 85.252 287.096 85.252ZM293.43 85.28C292.926 85.28 292.552 85.196 292.31 85.028C292.067 84.8787 291.918 84.6827 291.862 84.44C291.806 84.1787 291.778 83.8893 291.778 83.572V73.156C291.778 72.8573 291.806 72.5867 291.862 72.344C291.936 72.0827 292.086 71.8773 292.31 71.728C292.552 71.5787 292.935 71.504 293.458 71.504C293.98 71.504 294.354 71.5787 294.578 71.728C294.82 71.8773 294.97 72.0827 295.026 72.344C295.082 72.6053 295.11 72.8947 295.11 73.212V83.6C295.11 83.9173 295.082 84.2067 295.026 84.468C294.97 84.7107 294.82 84.9067 294.578 85.056C294.354 85.2053 293.971 85.28 293.43 85.28ZM293.43 68.788C292.888 68.788 292.487 68.7133 292.226 68.564C291.983 68.396 291.824 68.172 291.75 67.892C291.694 67.612 291.666 67.304 291.666 66.968C291.666 66.6133 291.694 66.3053 291.75 66.044C291.824 65.7827 291.992 65.5773 292.254 65.428C292.515 65.26 292.916 65.176 293.458 65.176C294.018 65.176 294.419 65.26 294.662 65.428C294.904 65.596 295.063 65.82 295.138 66.1C295.212 66.3613 295.25 66.6693 295.25 67.024C295.25 67.3413 295.212 67.64 295.138 67.92C295.063 68.2 294.904 68.4147 294.662 68.564C294.419 68.7133 294.008 68.788 293.43 68.788ZM108.419 119.252C107.915 119.252 107.541 119.168 107.299 119C107.075 118.851 106.935 118.655 106.879 118.412C106.823 118.151 106.795 117.861 106.795 117.544V107.072C106.795 106.773 106.823 106.503 106.879 106.26C106.935 106.017 107.084 105.831 107.327 105.7C107.569 105.551 107.943 105.476 108.447 105.476C108.895 105.476 109.231 105.532 109.455 105.644C109.679 105.756 109.828 105.896 109.903 106.064C109.977 106.232 110.015 106.4 110.015 106.568C110.033 106.736 110.052 106.867 110.071 106.96L109.959 107.856C110.071 107.557 110.257 107.268 110.519 106.988C110.78 106.708 111.097 106.456 111.471 106.232C111.844 105.989 112.245 105.803 112.675 105.672C113.123 105.523 113.58 105.448 114.047 105.448C114.924 105.448 115.708 105.607 116.399 105.924C117.089 106.241 117.677 106.689 118.163 107.268C118.667 107.847 119.049 108.537 119.311 109.34C119.572 110.124 119.703 111.011 119.703 112V117.572C119.703 117.889 119.665 118.179 119.591 118.44C119.535 118.683 119.395 118.879 119.171 119.028C118.947 119.177 118.564 119.252 118.023 119.252C117.5 119.252 117.117 119.168 116.875 119C116.632 118.851 116.483 118.655 116.427 118.412C116.371 118.151 116.343 117.861 116.343 117.544V111.972C116.343 111.3 116.221 110.721 115.979 110.236C115.755 109.751 115.419 109.377 114.971 109.116C114.541 108.855 113.991 108.724 113.319 108.724C112.665 108.724 112.096 108.864 111.611 109.144C111.125 109.405 110.752 109.779 110.491 110.264C110.229 110.749 110.099 111.319 110.099 111.972V117.572C110.099 117.889 110.071 118.179 110.015 118.44C109.959 118.683 109.809 118.879 109.567 119.028C109.343 119.177 108.96 119.252 108.419 119.252ZM125.059 124.796C124.462 124.535 124.116 124.236 124.023 123.9C123.93 123.583 124.014 123.153 124.275 122.612L131.499 106.428C131.76 105.831 132.04 105.476 132.339 105.364C132.638 105.233 133.095 105.299 133.711 105.56C134.29 105.821 134.626 106.111 134.719 106.428C134.831 106.745 134.766 107.175 134.523 107.716L127.243 123.984C127 124.581 126.73 124.927 126.431 125.02C126.132 125.132 125.675 125.057 125.059 124.796ZM127.663 117.936L121.195 107.996C120.859 107.492 120.719 107.072 120.775 106.736C120.85 106.4 121.148 106.073 121.671 105.756C122.25 105.401 122.698 105.261 123.015 105.336C123.351 105.411 123.687 105.709 124.023 106.232L129.147 114.212L127.663 117.936ZM148.27 119.224C147.729 119.224 147.327 119.121 147.066 118.916C146.805 118.711 146.674 118.431 146.674 118.076L146.87 117.152C146.721 117.395 146.469 117.684 146.114 118.02C145.759 118.337 145.293 118.627 144.714 118.888C144.135 119.131 143.435 119.252 142.614 119.252C141.737 119.252 140.906 119.075 140.122 118.72C139.357 118.347 138.675 117.843 138.078 117.208C137.499 116.555 137.033 115.817 136.678 114.996C136.342 114.156 136.174 113.26 136.174 112.308C136.174 111.393 136.342 110.535 136.678 109.732C137.033 108.911 137.509 108.183 138.106 107.548C138.703 106.913 139.385 106.419 140.15 106.064C140.934 105.691 141.755 105.504 142.614 105.504C143.379 105.504 144.023 105.607 144.546 105.812C145.087 106.017 145.545 106.279 145.918 106.596C146.291 106.895 146.599 107.212 146.842 107.548L146.674 106.736C146.674 106.325 146.805 106.017 147.066 105.812C147.327 105.588 147.738 105.476 148.298 105.476C148.821 105.476 149.194 105.56 149.418 105.728C149.642 105.877 149.782 106.092 149.838 106.372C149.894 106.633 149.922 106.932 149.922 107.268V117.516C149.922 117.833 149.894 118.123 149.838 118.384C149.782 118.645 149.633 118.851 149.39 119C149.166 119.149 148.793 119.224 148.27 119.224ZM143.118 115.976C143.753 115.976 144.322 115.817 144.826 115.5C145.33 115.183 145.731 114.753 146.03 114.212C146.347 113.652 146.506 113.036 146.506 112.364C146.506 111.636 146.347 111.001 146.03 110.46C145.713 109.919 145.293 109.499 144.77 109.2C144.266 108.883 143.697 108.724 143.062 108.724C142.371 108.724 141.755 108.892 141.214 109.228C140.673 109.545 140.243 109.984 139.926 110.544C139.627 111.085 139.478 111.701 139.478 112.392C139.478 113.064 139.637 113.671 139.954 114.212C140.271 114.753 140.701 115.183 141.242 115.5C141.802 115.817 142.427 115.976 143.118 115.976ZM154.355 119.252C153.851 119.252 153.478 119.177 153.235 119.028C153.011 118.879 152.871 118.673 152.815 118.412C152.759 118.151 152.731 117.871 152.731 117.572V107.1C152.731 106.801 152.759 106.531 152.815 106.288C152.871 106.045 153.021 105.849 153.263 105.7C153.506 105.551 153.889 105.476 154.411 105.476C154.953 105.476 155.345 105.588 155.587 105.812C155.849 106.036 155.979 106.391 155.979 106.876L155.727 107.66C155.821 107.455 155.979 107.231 156.203 106.988C156.427 106.745 156.698 106.503 157.015 106.26C157.351 106.017 157.725 105.821 158.135 105.672C158.546 105.523 158.975 105.448 159.423 105.448C160.039 105.448 160.599 105.551 161.103 105.756C161.626 105.961 162.083 106.26 162.475 106.652C162.886 107.044 163.241 107.52 163.539 108.08C163.857 107.595 164.211 107.156 164.603 106.764C164.995 106.353 165.453 106.036 165.975 105.812C166.498 105.569 167.086 105.448 167.739 105.448C168.822 105.448 169.727 105.719 170.455 106.26C171.202 106.801 171.762 107.576 172.135 108.584C172.527 109.573 172.723 110.759 172.723 112.14V117.572C172.723 117.889 172.686 118.179 172.611 118.44C172.555 118.683 172.406 118.879 172.163 119.028C171.939 119.177 171.566 119.252 171.043 119.252C170.521 119.252 170.138 119.168 169.895 119C169.653 118.851 169.503 118.655 169.447 118.412C169.391 118.151 169.363 117.861 169.363 117.544V112.112C169.363 111.421 169.279 110.824 169.111 110.32C168.943 109.816 168.691 109.424 168.355 109.144C168.038 108.864 167.618 108.724 167.095 108.724C166.535 108.724 166.05 108.864 165.639 109.144C165.247 109.405 164.939 109.788 164.715 110.292C164.491 110.796 164.379 111.412 164.379 112.14V117.6C164.379 117.917 164.333 118.216 164.239 118.496C164.146 118.757 163.959 118.953 163.679 119.084C163.418 119.233 163.035 119.289 162.531 119.252C162.065 119.233 161.719 119.14 161.495 118.972C161.29 118.804 161.159 118.599 161.103 118.356C161.066 118.095 161.047 117.824 161.047 117.544V112.112C161.047 111.421 160.963 110.824 160.795 110.32C160.627 109.797 160.375 109.405 160.039 109.144C159.722 108.864 159.293 108.724 158.751 108.724C158.173 108.724 157.678 108.873 157.267 109.172C156.875 109.471 156.577 109.872 156.371 110.376C156.166 110.88 156.063 111.459 156.063 112.112V117.6C156.063 117.899 156.026 118.179 155.951 118.44C155.895 118.701 155.746 118.897 155.503 119.028C155.279 119.177 154.897 119.252 154.355 119.252ZM187.016 119.224C186.475 119.224 186.073 119.121 185.812 118.916C185.551 118.711 185.42 118.431 185.42 118.076L185.616 117.152C185.467 117.395 185.215 117.684 184.86 118.02C184.505 118.337 184.039 118.627 183.46 118.888C182.881 119.131 182.181 119.252 181.36 119.252C180.483 119.252 179.652 119.075 178.868 118.72C178.103 118.347 177.421 117.843 176.824 117.208C176.245 116.555 175.779 115.817 175.424 114.996C175.088 114.156 174.92 113.26 174.92 112.308C174.92 111.393 175.088 110.535 175.424 109.732C175.779 108.911 176.255 108.183 176.852 107.548C177.449 106.913 178.131 106.419 178.896 106.064C179.68 105.691 180.501 105.504 181.36 105.504C182.125 105.504 182.769 105.607 183.292 105.812C183.833 106.017 184.291 106.279 184.664 106.596C185.037 106.895 185.345 107.212 185.588 107.548L185.42 106.736C185.42 106.325 185.551 106.017 185.812 105.812C186.073 105.588 186.484 105.476 187.044 105.476C187.567 105.476 187.94 105.56 188.164 105.728C188.388 105.877 188.528 106.092 188.584 106.372C188.64 106.633 188.668 106.932 188.668 107.268V117.516C188.668 117.833 188.64 118.123 188.584 118.384C188.528 118.645 188.379 118.851 188.136 119C187.912 119.149 187.539 119.224 187.016 119.224ZM181.864 115.976C182.499 115.976 183.068 115.817 183.572 115.5C184.076 115.183 184.477 114.753 184.776 114.212C185.093 113.652 185.252 113.036 185.252 112.364C185.252 111.636 185.093 111.001 184.776 110.46C184.459 109.919 184.039 109.499 183.516 109.2C183.012 108.883 182.443 108.724 181.808 108.724C181.117 108.724 180.501 108.892 179.96 109.228C179.419 109.545 178.989 109.984 178.672 110.544C178.373 111.085 178.224 111.701 178.224 112.392C178.224 113.064 178.383 113.671 178.7 114.212C179.017 114.753 179.447 115.183 179.988 115.5C180.548 115.817 181.173 115.976 181.864 115.976ZM193.129 119.252C192.625 119.252 192.252 119.168 192.009 119C191.785 118.851 191.645 118.655 191.589 118.412C191.533 118.151 191.505 117.861 191.505 117.544V107.072C191.505 106.773 191.533 106.503 191.589 106.26C191.645 106.017 191.795 105.831 192.037 105.7C192.28 105.551 192.653 105.476 193.157 105.476C193.605 105.476 193.941 105.532 194.165 105.644C194.389 105.756 194.539 105.896 194.613 106.064C194.688 106.232 194.725 106.4 194.725 106.568C194.744 106.736 194.763 106.867 194.781 106.96L194.669 107.856C194.781 107.557 194.968 107.268 195.229 106.988C195.491 106.708 195.808 106.456 196.181 106.232C196.555 105.989 196.956 105.803 197.385 105.672C197.833 105.523 198.291 105.448 198.757 105.448C199.635 105.448 200.419 105.607 201.109 105.924C201.8 106.241 202.388 106.689 202.873 107.268C203.377 107.847 203.76 108.537 204.021 109.34C204.283 110.124 204.413 111.011 204.413 112V117.572C204.413 117.889 204.376 118.179 204.301 118.44C204.245 118.683 204.105 118.879 203.881 119.028C203.657 119.177 203.275 119.252 202.733 119.252C202.211 119.252 201.828 119.168 201.585 119C201.343 118.851 201.193 118.655 201.137 118.412C201.081 118.151 201.053 117.861 201.053 117.544V111.972C201.053 111.3 200.932 110.721 200.689 110.236C200.465 109.751 200.129 109.377 199.681 109.116C199.252 108.855 198.701 108.724 198.029 108.724C197.376 108.724 196.807 108.864 196.321 109.144C195.836 109.405 195.463 109.779 195.201 110.264C194.94 110.749 194.809 111.319 194.809 111.972V117.572C194.809 117.889 194.781 118.179 194.725 118.44C194.669 118.683 194.52 118.879 194.277 119.028C194.053 119.177 193.671 119.252 193.129 119.252Z" fill="black"/>
</svg>
