<svg width="400" height="120" viewBox="0 0 400 120" fill="none" xmlns="http://www.w3.org/2000/svg">
<mask id="mask0_62_2514" style="mask-type:luminance" maskUnits="userSpaceOnUse" x="0" y="0" width="400" height="120">
<path d="M400 0H0V120H400V0Z" fill="white"/>
</mask>
<g mask="url(#mask0_62_2514)">
<mask id="mask1_62_2514" style="mask-type:luminance" maskUnits="userSpaceOnUse" x="9" y="9" width="388" height="111">
<path d="M9.33838 9.33325H396.887V119.354H9.33838V9.33325Z" fill="white"/>
</mask>
<g mask="url(#mask1_62_2514)">
<path d="M15.789 72.3853L12.3965 62.3593L17.7893 51.8749L13.0349 41.3958L9.77612 30.9114L12.1047 19.3541L26.2584 18.2343L39.1779 15.5937L52.3406 21.4739L65.1142 13.7499L78.3376 21.7083L91.2267 17.9635L104.365 22.901L117.358 22.677L130.405 24.3437L143.318 21.4218L155.618 17.1093L167.972 14.5624L180.326 12.0989L192.783 13.2135L205.32 17.1249L217.838 20.3437L230.253 20.0728L242.4 10.3072L255.064 18.6874L267.503 19.1718L279.742 12.4791L292.084 9.53638L304.906 12.9062L318.19 14.7655L328.447 23.3958L341.367 25.4062L352.316 32.3385L368.294 26.7083L380.204 31.2239L396.346 37.177L387.475 50.3385L387.159 62.0937L374.361 69.8593L369.875 80.2812L373.796 93.3957L367.57 103.266L364.391 115.974L345.853 109.745L333.335 117.432L320.227 109.989L307.782 119.823L294.631 110.969L281.864 112.432L269.005 111.359L256.444 118.932L243.555 117.01L230.824 121.224L218.355 114.521L205.222 119.724L193.081 116.047L180.727 115.328L168.306 115.838L155.903 115.969L143.829 110.542L131.396 111.203L119.346 105.146L106.274 116.76L94.5645 104.833L81.5599 115.427L69.6375 107.245L57.5023 102.453L44.6436 110.724L27.2615 111.552L29.4685 98.1405L22.7929 90.2291L11.0103 83.578L15.789 72.3853Z" fill="black"/>
<path d="M15.789 72.3853L12.3965 62.3593L17.7893 51.8749L13.0349 41.3958L9.77612 30.9114L12.1047 19.3541L26.2584 18.2343L39.1779 15.5937L52.3406 21.4739L65.1142 13.7499L78.3376 21.7083L91.2267 17.9635L104.365 22.901L117.358 22.677L130.405 24.3437L143.318 21.4218L155.618 17.1093L167.972 14.5624L180.326 12.0989L192.783 13.2135L205.32 17.1249L217.838 20.3437L230.253 20.0728L242.4 10.3072L255.064 18.6874L267.503 19.1718L279.742 12.4791L292.084 9.53638L304.906 12.9062L318.19 14.7655L328.447 23.3958L341.367 25.4062L352.316 32.3385L368.294 26.7083L380.204 31.2239L396.346 37.177L387.475 50.3385L387.159 62.0937L374.361 69.8593L369.875 80.2812L373.796 93.3957L367.57 103.266L364.391 115.974L345.853 109.745L333.335 117.432L320.227 109.989L307.782 119.823L294.631 110.969L281.864 112.432L269.005 111.359L256.444 118.932L243.555 117.01L230.824 121.224L218.355 114.521L205.222 119.724L193.081 116.047L180.727 115.328L168.306 115.838L155.903 115.969L143.829 110.542L131.396 111.203L119.346 105.146L106.274 116.76L94.5645 104.833L81.5599 115.427L69.6375 107.245L57.5023 102.453L44.6436 110.724L27.2615 111.552L29.4685 98.1405L22.7929 90.2291L11.0103 83.578L15.789 72.3853Z" fill="black"/>
</g>
<mask id="mask2_62_2514" style="mask-type:luminance" maskUnits="userSpaceOnUse" x="7" y="7" width="391" height="113">
<path d="M7.78198 7.99988H397.586V119.354H7.78198V7.99988Z" fill="white"/>
</mask>
<g mask="url(#mask2_62_2514)">
<path d="M230.739 121.984L218.3 115.307L205.265 120.474L192.917 116.734L180.721 115.99L168.342 116.495L155.715 116.63L143.653 111.203L131.207 111.885L119.485 105.995L106.238 117.766L94.5037 105.812L81.6085 116.328L69.2058 107.849L57.6056 103.26L44.9111 111.401L26.3131 112.286L28.6355 98.3489L22.1971 90.7239L10.0497 83.8489L14.9561 72.3645L11.5575 62.3124L16.932 51.8541L12.2627 41.5728L8.95532 30.9426L11.4237 18.7291L26.1671 17.5572L39.2812 14.901L52.2737 20.703L65.1141 12.9166L78.4653 20.953L91.2632 17.2291L104.523 22.2135L117.406 21.9895L130.356 23.6562L143.051 20.776L155.423 16.4426L167.765 13.8958L180.259 11.4166L193.038 12.5728L205.569 16.4843L217.941 19.651L229.931 19.3958L242.345 9.40617L255.356 18.0103L267.26 18.4687L279.383 11.8489L292.078 8.81763L305.076 12.2083L318.561 14.0937L328.83 22.7291L341.683 24.7239L352.414 31.5103L368.282 25.9218L380.514 30.552L397.483 36.8489L388.272 50.526L387.962 62.453L375.03 70.2968L370.714 80.3228L374.678 93.4843L368.33 103.505L364.95 116.906L345.951 110.516L333.335 118.26L320.294 110.854L307.824 120.74L294.413 111.703L281.882 113.146L269.188 112.078L256.627 119.651L243.634 117.719L230.739 121.984ZM218.415 113.75L230.915 120.463L243.47 116.307L256.256 118.213L268.792 110.656L281.852 111.755L294.856 110.255L307.739 118.932L320.148 109.13L333.317 116.594L345.744 108.969L363.801 115.031L366.816 103.016L372.951 93.2968L369.048 80.2343L373.681 69.427L386.375 61.7135L386.685 50.1822L395.215 37.4947L379.894 31.8645L368.276 27.4583L352.201 33.1249L341.038 26.0468L328.064 24.0155L317.807 15.3958L304.651 13.5468L292.054 10.2291L280.058 13.1093L267.704 19.8958L254.76 19.3958L242.437 11.2499L230.532 20.7916L217.68 21.078L205.04 17.828L192.601 13.8853L180.374 12.7916L168.184 15.2291L155.867 17.7499L143.525 22.078L130.453 25.0364L117.303 23.3541L104.207 23.5885L91.2267 18.6926L78.216 22.4687L65.1141 14.578L52.4196 22.2708L39.0927 16.3124L26.3313 18.9062L12.7856 19.9843L10.5847 30.8801L13.7948 41.1822L18.6526 51.8905L13.2476 62.3905L16.6462 72.4114L11.9952 83.3072L23.3705 89.7239L30.3135 97.9687L28.1978 110.823L44.376 110.057L57.4232 101.667L70.1178 106.708L81.5113 114.521L94.6192 103.844L106.298 115.745L119.194 104.286L131.572 110.516L143.987 109.833L156.08 115.26L168.282 115.135L180.721 114.62L193.227 115.349L205.125 118.958L218.415 113.75Z" fill="black"/>
</g>
<mask id="mask3_62_2514" style="mask-type:luminance" maskUnits="userSpaceOnUse" x="3" y="1" width="388" height="113">
<path d="M3.11279 1.08325H390.661V113.333H3.11279V1.08325Z" fill="white"/>
</mask>
<g mask="url(#mask3_62_2514)">
<path d="M9.78237 63.3954L6.39594 53.3642L11.7826 42.8798L7.02824 32.4006L3.75732 21.9163L6.09804 10.3642L20.2457 9.23918L33.1712 6.60376L46.3339 12.4788L59.1075 4.7548L72.3249 12.7183L85.2201 8.96313L98.3585 13.9111L111.345 13.6819L124.398 15.359L137.312 12.4319L149.611 8.10897L161.965 5.5673L174.319 3.10897L186.777 4.22355L199.313 8.1298L211.825 11.3486L224.246 11.0777L236.387 1.31209L249.058 9.69751L261.497 10.1819L273.735 3.48918L286.077 0.54126L298.9 3.91626L312.184 5.77043L322.44 14.4058L335.36 16.4163L346.31 23.3433L362.281 17.7131L374.197 22.2288L390.339 28.1767L381.469 41.3486L381.153 53.1038L368.355 60.8642L363.868 71.2913L367.796 84.4006L361.564 94.2704L358.378 106.979L339.847 100.755L327.329 108.442L314.221 101L301.775 110.833L288.619 101.974L275.851 103.442L262.999 102.364L250.432 109.937L237.549 108.026L224.818 112.234L212.348 105.526L199.216 110.729L187.068 107.062L174.726 106.333L162.299 106.849L149.897 106.979L137.822 101.546L125.389 102.208L113.339 96.1558L100.268 107.765L88.5579 95.8433L75.5533 106.427L63.6248 98.2444L51.5017 93.4579L38.6369 101.734L21.2488 102.557L23.4618 89.1506L16.7863 81.234L5.00368 74.5829L9.78237 63.3954Z" fill="white"/>
</g>
<mask id="mask4_62_2514" style="mask-type:luminance" maskUnits="userSpaceOnUse" x="0" y="1" width="396" height="115">
<path d="M0.674805 1.08337H395.331V116H0.674805V1.08337Z" fill="white"/>
</mask>
<g mask="url(#mask4_62_2514)">
<path d="M224.52 115.01L212.147 108.365L199.386 113.422L186.491 109.521L174.708 108.844L162.348 109.349L149.21 109.49L137.202 104.063L124.69 104.74L113.862 99.3126L100.146 111.526L88.3389 99.5105L75.7234 109.745L62.0743 100.385L51.8542 96.3542L39.6521 104.182L17.8318 105.214L20.3732 89.7917L14.7007 83.0626L1.44077 75.599L6.68153 63.3282L3.30118 53.1875L8.62097 42.8282L4.20099 33.0417L0.778076 22.0313L3.61125 8.05733L19.7713 6.76046L33.5541 3.95837L46.1027 9.56254L59.1013 1.69796L72.7929 9.94275L85.3537 6.29171L98.942 11.4011L111.539 11.1823L124.234 12.8125L136.381 10.0573L148.705 5.72921L161.284 3.14587L174.13 0.578167L187.433 1.77608L200.231 5.76567L212.22 8.84379L223.06 8.60421L236.205 -1.9635L250.115 7.23442L260.706 7.65108L272.525 1.18233L286.12 -2.05725L299.568 1.48442L313.564 3.43754L323.875 12.0886L336.57 14.0625L346.705 20.5L362.311 14.9948L375.365 19.948L394.492 27L384.369 42.0417L384.04 54.4115L370.787 62.4532L366.92 71.4219L370.89 84.724L364.318 95.1459L360.494 110.38L340.248 103.594L327.377 111.495L314.5 104.182L301.909 114.13L287.767 104.63L275.869 105.99L263.752 104.979L251.058 112.609L237.767 110.635L224.52 115.01ZM212.561 102.693L225.128 109.474L237.214 105.448L249.708 107.302L262.172 99.7917L275.772 100.932L289.427 99.3594L301.593 107.557L313.886 97.8334L327.231 105.412L339.403 97.948L356.226 103.589L358.779 93.4115L364.683 84.1042L360.816 71.2136L365.929 59.3334L378.277 51.8698L378.569 40.6823L386.174 29.3959L373.036 24.5573L362.238 20.4844L345.908 26.1823L334.168 18.7605L321.036 16.7292L310.791 8.11983L298.237 6.35421L286.041 3.14587L274.933 5.79171L262.293 12.7032L248.012 12.1563L236.576 4.58858L225.432 13.5469L211.436 13.849L198.31 10.4584L186.108 6.65108L174.532 5.63546L162.634 8.00525L150.517 10.4948L138.242 14.8021L124.55 17.9011L111.156 16.1823L97.7625 16.4167L85.068 11.6667L71.8688 15.4844L59.1074 7.80733L46.5648 15.3959L32.782 9.24483L20.7197 11.7084L8.59058 12.6719L6.74233 21.8073L9.80653 31.625L14.9379 42.9428L9.50254 53.573L12.8647 63.5209L8.53586 73.5886L18.8471 79.4063L26.5198 88.5053L24.6412 99.8959L37.5971 99.2865L51.1489 90.5678L65.175 96.1094L75.3586 103.099L88.7949 92.2448L100.419 104.068L112.828 93.0365L126.137 99.7084L138.497 99.0261L150.602 104.453L162.214 104.333L174.757 103.818L187.67 104.568L199.064 108.016L212.561 102.693Z" fill="black"/>
<path d="M224.52 115.01L212.147 108.365L199.386 113.422L186.491 109.521L174.708 108.844L162.348 109.349L149.21 109.49L137.202 104.063L124.69 104.74L113.862 99.3126L100.146 111.526L88.3389 99.5105L75.7234 109.745L62.0743 100.385L51.8542 96.3542L39.6521 104.182L17.8318 105.214L20.3732 89.7917L14.7007 83.0626L1.44077 75.599L6.68153 63.3282L3.30118 53.1875L8.62097 42.8282L4.20099 33.0417L0.778076 22.0313L3.61125 8.05733L19.7713 6.76046L33.5541 3.95837L46.1027 9.56254L59.1013 1.69796L72.7929 9.94275L85.3537 6.29171L98.942 11.4011L111.539 11.1823L124.234 12.8125L136.381 10.0573L148.705 5.72921L161.284 3.14587L174.13 0.578167L187.433 1.77608L200.231 5.76567L212.22 8.84379L223.06 8.60421L236.205 -1.9635L250.115 7.23442L260.706 7.65108L272.525 1.18233L286.12 -2.05725L299.568 1.48442L313.564 3.43754L323.875 12.0886L336.57 14.0625L346.705 20.5L362.311 14.9948L375.365 19.948L394.492 27L384.369 42.0417L384.04 54.4115L370.787 62.4532L366.92 71.4219L370.89 84.724L364.318 95.1459L360.494 110.38L340.248 103.594L327.377 111.495L314.5 104.182L301.909 114.13L287.767 104.63L275.869 105.99L263.752 104.979L251.058 112.609L237.767 110.635L224.52 115.01ZM212.561 102.693L225.128 109.474L237.214 105.448L249.708 107.302L262.172 99.7917L275.772 100.932L289.427 99.3594L301.593 107.557L313.886 97.8334L327.231 105.412L339.403 97.948L356.226 103.589L358.779 93.4115L364.683 84.1042L360.816 71.2136L365.929 59.3334L378.277 51.8698L378.569 40.6823L386.174 29.3959L373.036 24.5573L362.238 20.4844L345.908 26.1823L334.168 18.7605L321.036 16.7292L310.791 8.11983L298.237 6.35421L286.041 3.14587L274.933 5.79171L262.293 12.7032L248.012 12.1563L236.576 4.58858L225.432 13.5469L211.436 13.849L198.31 10.4584L186.108 6.65108L174.532 5.63546L162.634 8.00525L150.517 10.4948L138.242 14.8021L124.55 17.9011L111.156 16.1823L97.7625 16.4167L85.068 11.6667L71.8688 15.4844L59.1074 7.80733L46.5648 15.3959L32.782 9.24483L20.7197 11.7084L8.59058 12.6719L6.74233 21.8073L9.80653 31.625L14.9379 42.9428L9.50254 53.573L12.8647 63.5209L8.53586 73.5886L18.8471 79.4063L26.5198 88.5053L24.6412 99.8959L37.5971 99.2865L51.1489 90.5678L65.175 96.1094L75.3586 103.099L88.7949 92.2448L100.419 104.068L112.828 93.0365L126.137 99.7084L138.497 99.0261L150.602 104.453L162.214 104.333L174.757 103.818L187.67 104.568L199.064 108.016L212.561 102.693Z" fill="black"/>
</g>
</g>
<path d="M51.4715 53.2582C51.0235 53.2582 50.6955 53.1942 50.4875 53.0662C50.2795 52.9382 50.1515 52.7622 50.1035 52.5382C50.0555 52.2982 50.0315 52.0502 50.0315 51.7942V37.9462C50.0315 37.6902 50.0555 37.4582 50.1035 37.2502C50.1675 37.0262 50.3035 36.8502 50.5115 36.7222C50.7195 36.5782 51.0475 36.5062 51.4955 36.5062H56.5835C57.2875 36.5062 57.9755 36.6262 58.6475 36.8662C59.3195 37.1062 59.9195 37.4662 60.4475 37.9462C60.9915 38.4262 61.4155 39.0182 61.7195 39.7222C62.0395 40.4262 62.1995 41.2502 62.1995 42.1942C62.1995 43.1222 62.0395 43.9382 61.7195 44.6422C61.4155 45.3302 60.9915 45.9142 60.4475 46.3942C59.9035 46.8742 59.2955 47.2342 58.6235 47.4742C57.9675 47.7142 57.2795 47.8342 56.5595 47.8342H52.9355V51.8182C52.9355 52.0742 52.9035 52.3142 52.8395 52.5382C52.7915 52.7622 52.6635 52.9382 52.4555 53.0662C52.2635 53.1942 51.9355 53.2582 51.4715 53.2582ZM52.9355 44.9062H56.5835C57.0795 44.9062 57.5275 44.8102 57.9275 44.6182C58.3435 44.4102 58.6795 44.1062 58.9355 43.7062C59.1915 43.2902 59.3195 42.7702 59.3195 42.1462C59.3195 41.5862 59.1995 41.1062 58.9595 40.7062C58.7355 40.2902 58.4155 39.9702 57.9995 39.7462C57.5995 39.5222 57.1195 39.4102 56.5595 39.4102H52.9355V44.9062ZM69.9667 53.4262C68.9267 53.4262 68.0147 53.2582 67.2307 52.9222C66.4627 52.5862 65.8147 52.1302 65.2867 51.5542C64.7747 50.9622 64.3827 50.3062 64.1107 49.5862C63.8547 48.8502 63.7267 48.0902 63.7267 47.3062C63.7267 46.1542 63.9907 45.1302 64.5187 44.2342C65.0467 43.3382 65.7747 42.6342 66.7027 42.1222C67.6467 41.6102 68.7267 41.3542 69.9427 41.3542C70.8067 41.3542 71.5667 41.4902 72.2227 41.7622C72.8787 42.0342 73.4227 42.3942 73.8547 42.8422C74.3027 43.2742 74.6387 43.7542 74.8627 44.2822C75.1027 44.8102 75.2227 45.3222 75.2227 45.8182C75.2227 46.6662 75.0147 47.2822 74.5987 47.6662C74.1987 48.0502 73.6947 48.2422 73.0867 48.2422H66.7507C66.7667 48.7862 66.9347 49.2582 67.2547 49.6582C67.5907 50.0582 68.0067 50.3702 68.5027 50.5942C69.0147 50.8022 69.5347 50.9062 70.0627 50.9062C70.4627 50.9062 70.8147 50.8822 71.1187 50.8342C71.4387 50.7862 71.7107 50.7302 71.9347 50.6662C72.1587 50.5862 72.3507 50.5062 72.5107 50.4262C72.6867 50.3462 72.8467 50.2742 72.9907 50.2102C73.1347 50.1462 73.2707 50.1062 73.3987 50.0902C73.5747 50.0742 73.7507 50.1142 73.9267 50.2102C74.1027 50.3062 74.2467 50.4742 74.3587 50.7142C74.4547 50.8742 74.5187 51.0262 74.5507 51.1702C74.5987 51.2982 74.6227 51.4262 74.6227 51.5542C74.6227 51.8742 74.4307 52.1782 74.0467 52.4662C73.6627 52.7382 73.1187 52.9622 72.4147 53.1382C71.7267 53.3302 70.9107 53.4262 69.9667 53.4262ZM66.7507 46.5382H71.6707C71.9427 46.5382 72.1507 46.4982 72.2947 46.4182C72.4387 46.3222 72.5107 46.1302 72.5107 45.8422C72.5107 45.4742 72.3987 45.1462 72.1747 44.8582C71.9507 44.5542 71.6467 44.3222 71.2627 44.1622C70.8787 43.9862 70.4307 43.8982 69.9187 43.8982C69.3267 43.8982 68.7907 44.0182 68.3107 44.2582C67.8307 44.4822 67.4467 44.7942 67.1587 45.1942C66.8867 45.5942 66.7507 46.0422 66.7507 46.5382ZM78.6082 53.2582C78.1762 53.2582 77.8562 53.1862 77.6482 53.0422C77.4562 52.9142 77.3362 52.7462 77.2882 52.5382C77.2402 52.3142 77.2162 52.0662 77.2162 51.7942V42.8182C77.2162 42.5622 77.2402 42.3302 77.2882 42.1222C77.3362 41.9142 77.4642 41.7542 77.6722 41.6422C77.8802 41.5142 78.2002 41.4502 78.6322 41.4502C79.0162 41.4502 79.3042 41.4982 79.4962 41.5942C79.6882 41.6902 79.8162 41.8102 79.8802 41.9542C79.9442 42.0982 79.9762 42.2422 79.9762 42.3862C79.9922 42.5302 80.0082 42.6422 80.0242 42.7222L79.9282 43.4902C80.0242 43.2342 80.1842 42.9862 80.4082 42.7462C80.6322 42.5062 80.9042 42.2902 81.2242 42.0982C81.5442 41.8902 81.8882 41.7302 82.2562 41.6182C82.6402 41.4902 83.0322 41.4262 83.4322 41.4262C84.1842 41.4262 84.8562 41.5622 85.4482 41.8342C86.0402 42.1062 86.5442 42.4902 86.9602 42.9862C87.3922 43.4822 87.7202 44.0742 87.9442 44.7622C88.1682 45.4342 88.2802 46.1942 88.2802 47.0422V51.8182C88.2802 52.0902 88.2482 52.3382 88.1842 52.5622C88.1362 52.7702 88.0162 52.9382 87.8242 53.0662C87.6322 53.1942 87.3042 53.2582 86.8402 53.2582C86.3922 53.2582 86.0642 53.1862 85.8562 53.0422C85.6482 52.9142 85.5202 52.7462 85.4722 52.5382C85.4242 52.3142 85.4002 52.0662 85.4002 51.7942V47.0182C85.4002 46.4422 85.2962 45.9462 85.0882 45.5302C84.8962 45.1142 84.6082 44.7942 84.2242 44.5702C83.8562 44.3462 83.3842 44.2342 82.8082 44.2342C82.2482 44.2342 81.7602 44.3542 81.3442 44.5942C80.9282 44.8182 80.6082 45.1382 80.3842 45.5542C80.1602 45.9702 80.0482 46.4582 80.0482 47.0182V51.8182C80.0482 52.0902 80.0242 52.3382 79.9762 52.5622C79.9282 52.7702 79.8002 52.9382 79.5922 53.0662C79.4002 53.1942 79.0722 53.2582 78.6082 53.2582ZM92.8713 58.0102C92.3593 57.7862 92.0633 57.5302 91.9833 57.2422C91.9033 56.9702 91.9753 56.6022 92.1993 56.1382L98.3913 42.2662C98.6153 41.7542 98.8553 41.4502 99.1113 41.3542C99.3673 41.2422 99.7593 41.2982 100.287 41.5222C100.783 41.7462 101.071 41.9942 101.151 42.2662C101.247 42.5382 101.191 42.9062 100.983 43.3702L94.7433 57.3142C94.5353 57.8262 94.3033 58.1222 94.0473 58.2022C93.7913 58.2982 93.3993 58.2342 92.8713 58.0102ZM95.1033 52.1302L89.5593 43.6102C89.2713 43.1782 89.1513 42.8182 89.1993 42.5302C89.2633 42.2422 89.5193 41.9622 89.9673 41.6902C90.4633 41.3862 90.8473 41.2662 91.1193 41.3302C91.4073 41.3942 91.6953 41.6502 91.9833 42.0982L96.3753 48.9382L95.1033 52.1302ZM108.639 53.4262C107.599 53.4262 106.687 53.2582 105.903 52.9222C105.135 52.5862 104.487 52.1302 103.959 51.5542C103.447 50.9622 103.055 50.3062 102.783 49.5862C102.527 48.8502 102.399 48.0902 102.399 47.3062C102.399 46.1542 102.663 45.1302 103.191 44.2342C103.719 43.3382 104.447 42.6342 105.375 42.1222C106.319 41.6102 107.399 41.3542 108.615 41.3542C109.479 41.3542 110.239 41.4902 110.895 41.7622C111.551 42.0342 112.095 42.3942 112.527 42.8422C112.975 43.2742 113.311 43.7542 113.535 44.2822C113.775 44.8102 113.895 45.3222 113.895 45.8182C113.895 46.6662 113.687 47.2822 113.271 47.6662C112.871 48.0502 112.367 48.2422 111.759 48.2422H105.423C105.439 48.7862 105.607 49.2582 105.927 49.6582C106.263 50.0582 106.679 50.3702 107.175 50.5942C107.687 50.8022 108.207 50.9062 108.735 50.9062C109.135 50.9062 109.487 50.8822 109.791 50.8342C110.111 50.7862 110.383 50.7302 110.607 50.6662C110.831 50.5862 111.023 50.5062 111.183 50.4262C111.359 50.3462 111.519 50.2742 111.663 50.2102C111.807 50.1462 111.943 50.1062 112.071 50.0902C112.247 50.0742 112.423 50.1142 112.599 50.2102C112.775 50.3062 112.919 50.4742 113.031 50.7142C113.127 50.8742 113.191 51.0262 113.223 51.1702C113.271 51.2982 113.295 51.4262 113.295 51.5542C113.295 51.8742 113.103 52.1782 112.719 52.4662C112.335 52.7382 111.791 52.9622 111.087 53.1382C110.399 53.3302 109.583 53.4262 108.639 53.4262ZM105.423 46.5382H110.343C110.615 46.5382 110.823 46.4982 110.967 46.4182C111.111 46.3222 111.183 46.1302 111.183 45.8422C111.183 45.4742 111.071 45.1462 110.847 44.8582C110.623 44.5542 110.319 44.3222 109.935 44.1622C109.551 43.9862 109.103 43.8982 108.591 43.8982C107.999 43.8982 107.463 44.0182 106.983 44.2582C106.503 44.4822 106.119 44.7942 105.831 45.1942C105.559 45.5942 105.423 46.0422 105.423 46.5382ZM122.032 53.2582C121.248 53.2582 120.544 53.1062 119.92 52.8022C119.312 52.4822 118.792 52.0502 118.36 51.5062C117.944 50.9622 117.624 50.3382 117.4 49.6342C117.192 48.9142 117.088 48.1462 117.088 47.3302C117.104 46.5142 117.224 45.7542 117.448 45.0502C117.672 44.3302 117.992 43.7062 118.408 43.1782C118.84 42.6342 119.36 42.2102 119.968 41.9062C120.576 41.6022 121.264 41.4502 122.032 41.4502C122.768 41.4502 123.456 41.6022 124.096 41.9062C124.752 42.2102 125.328 42.6342 125.824 43.1782C126.336 43.7062 126.736 44.3302 127.024 45.0502C127.312 45.7542 127.456 46.5062 127.456 47.3062C127.456 48.1382 127.312 48.9222 127.024 49.6582C126.736 50.3782 126.344 51.0102 125.848 51.5542C125.352 52.0822 124.776 52.4982 124.12 52.8022C123.464 53.1062 122.768 53.2582 122.032 53.2582ZM121.648 50.4502C122.208 50.4502 122.712 50.3222 123.16 50.0662C123.608 49.7942 123.96 49.4262 124.216 48.9622C124.488 48.4982 124.624 47.9702 124.624 47.3782C124.624 46.7702 124.488 46.2342 124.216 45.7702C123.96 45.2902 123.608 44.9222 123.16 44.6662C122.712 44.3942 122.208 44.2582 121.648 44.2582C121.104 44.2582 120.608 44.3942 120.16 44.6662C119.712 44.9382 119.352 45.3062 119.08 45.7702C118.824 46.2342 118.696 46.7702 118.696 47.3782C118.696 47.9702 118.824 48.4982 119.08 48.9622C119.352 49.4262 119.712 49.7942 120.16 50.0662C120.608 50.3222 121.104 50.4502 121.648 50.4502ZM117.208 53.2822C116.776 53.2822 116.456 53.2102 116.248 53.0662C116.04 52.9382 115.912 52.7702 115.864 52.5622C115.816 52.3382 115.792 52.0902 115.792 51.8182V37.5142C115.792 37.2422 115.816 37.0022 115.864 36.7942C115.912 36.5702 116.04 36.3942 116.248 36.2662C116.456 36.1382 116.776 36.0742 117.208 36.0742C117.656 36.0742 117.976 36.1382 118.168 36.2662C118.36 36.3942 118.48 36.5702 118.528 36.7942C118.576 37.0182 118.6 37.2582 118.6 37.5142V52.2982C118.536 52.6502 118.4 52.8982 118.192 53.0422C118 53.2022 117.672 53.2822 117.208 53.2822ZM139.228 53.2342C138.764 53.2342 138.42 53.1462 138.196 52.9702C137.972 52.7942 137.86 52.5542 137.86 52.2502L138.028 51.4582C137.9 51.6662 137.684 51.9142 137.38 52.2022C137.076 52.4742 136.676 52.7222 136.18 52.9462C135.684 53.1542 135.084 53.2582 134.38 53.2582C133.628 53.2582 132.916 53.1062 132.244 52.8022C131.588 52.4822 131.004 52.0502 130.492 51.5062C129.996 50.9462 129.596 50.3142 129.292 49.6102C129.004 48.8902 128.86 48.1222 128.86 47.3062C128.86 46.5222 129.004 45.7862 129.292 45.0982C129.596 44.3942 130.004 43.7702 130.516 43.2262C131.028 42.6822 131.612 42.2582 132.268 41.9542C132.94 41.6342 133.644 41.4742 134.38 41.4742C135.036 41.4742 135.588 41.5622 136.036 41.7382C136.5 41.9142 136.892 42.1382 137.212 42.4102C137.532 42.6662 137.796 42.9382 138.004 43.2262L137.86 42.5302C137.86 42.1782 137.972 41.9142 138.196 41.7382C138.42 41.5462 138.772 41.4502 139.252 41.4502C139.7 41.4502 140.02 41.5222 140.212 41.6662C140.404 41.7942 140.524 41.9782 140.572 42.2182C140.62 42.4422 140.644 42.6982 140.644 42.9862V51.7702C140.644 52.0422 140.62 52.2902 140.572 52.5142C140.524 52.7382 140.396 52.9142 140.188 53.0422C139.996 53.1702 139.676 53.2342 139.228 53.2342ZM134.812 50.4502C135.356 50.4502 135.844 50.3142 136.276 50.0422C136.708 49.7702 137.052 49.4022 137.308 48.9382C137.58 48.4582 137.716 47.9302 137.716 47.3542C137.716 46.7302 137.58 46.1862 137.308 45.7222C137.036 45.2582 136.676 44.8982 136.228 44.6422C135.796 44.3702 135.308 44.2342 134.764 44.2342C134.172 44.2342 133.644 44.3782 133.18 44.6662C132.716 44.9382 132.348 45.3142 132.076 45.7942C131.82 46.2582 131.692 46.7862 131.692 47.3782C131.692 47.9542 131.828 48.4742 132.1 48.9382C132.372 49.4022 132.74 49.7702 133.204 50.0422C133.684 50.3142 134.22 50.4502 134.812 50.4502ZM149.22 53.2582C148.436 53.2582 147.732 53.1062 147.108 52.8022C146.5 52.4822 145.98 52.0502 145.548 51.5062C145.132 50.9622 144.812 50.3382 144.588 49.6342C144.38 48.9142 144.276 48.1462 144.276 47.3302C144.292 46.5142 144.412 45.7542 144.636 45.0502C144.86 44.3302 145.18 43.7062 145.596 43.1782C146.028 42.6342 146.548 42.2102 147.156 41.9062C147.764 41.6022 148.452 41.4502 149.22 41.4502C149.956 41.4502 150.644 41.6022 151.284 41.9062C151.94 42.2102 152.516 42.6342 153.012 43.1782C153.524 43.7062 153.924 44.3302 154.212 45.0502C154.5 45.7542 154.644 46.5062 154.644 47.3062C154.644 48.1382 154.5 48.9222 154.212 49.6582C153.924 50.3782 153.532 51.0102 153.036 51.5542C152.54 52.0822 151.964 52.4982 151.308 52.8022C150.652 53.1062 149.956 53.2582 149.22 53.2582ZM148.836 50.4502C149.396 50.4502 149.9 50.3222 150.348 50.0662C150.796 49.7942 151.148 49.4262 151.404 48.9622C151.676 48.4982 151.812 47.9702 151.812 47.3782C151.812 46.7702 151.676 46.2342 151.404 45.7702C151.148 45.2902 150.796 44.9222 150.348 44.6662C149.9 44.3942 149.396 44.2582 148.836 44.2582C148.292 44.2582 147.796 44.3942 147.348 44.6662C146.9 44.9382 146.54 45.3062 146.268 45.7702C146.012 46.2342 145.884 46.7702 145.884 47.3782C145.884 47.9702 146.012 48.4982 146.268 48.9622C146.54 49.4262 146.9 49.7942 147.348 50.0662C147.796 50.3222 148.292 50.4502 148.836 50.4502ZM144.396 53.2822C143.964 53.2822 143.644 53.2102 143.436 53.0662C143.228 52.9382 143.1 52.7702 143.052 52.5622C143.004 52.3382 142.98 52.0902 142.98 51.8182V37.5142C142.98 37.2422 143.004 37.0022 143.052 36.7942C143.1 36.5702 143.228 36.3942 143.436 36.2662C143.644 36.1382 143.964 36.0742 144.396 36.0742C144.844 36.0742 145.164 36.1382 145.356 36.2662C145.548 36.3942 145.668 36.5702 145.716 36.7942C145.764 37.0182 145.788 37.2582 145.788 37.5142V52.2982C145.724 52.6502 145.588 52.8982 145.38 53.0422C145.188 53.2022 144.86 53.2822 144.396 53.2822ZM168.931 53.2582C168.147 53.2582 167.443 53.1062 166.819 52.8022C166.211 52.4822 165.691 52.0502 165.259 51.5062C164.843 50.9622 164.523 50.3382 164.299 49.6342C164.091 48.9142 163.987 48.1462 163.987 47.3302C164.003 46.5142 164.123 45.7542 164.347 45.0502C164.571 44.3302 164.891 43.7062 165.307 43.1782C165.739 42.6342 166.259 42.2102 166.867 41.9062C167.475 41.6022 168.163 41.4502 168.931 41.4502C169.667 41.4502 170.355 41.6022 170.995 41.9062C171.651 42.2102 172.227 42.6342 172.723 43.1782C173.235 43.7062 173.635 44.3302 173.923 45.0502C174.211 45.7542 174.355 46.5062 174.355 47.3062C174.355 48.1382 174.211 48.9222 173.923 49.6582C173.635 50.3782 173.243 51.0102 172.747 51.5542C172.251 52.0822 171.675 52.4982 171.019 52.8022C170.363 53.1062 169.667 53.2582 168.931 53.2582ZM168.547 50.4502C169.107 50.4502 169.611 50.3222 170.059 50.0662C170.507 49.7942 170.859 49.4262 171.115 48.9622C171.387 48.4982 171.523 47.9702 171.523 47.3782C171.523 46.7702 171.387 46.2342 171.115 45.7702C170.859 45.2902 170.507 44.9222 170.059 44.6662C169.611 44.3942 169.107 44.2582 168.547 44.2582C168.003 44.2582 167.507 44.3942 167.059 44.6662C166.611 44.9382 166.251 45.3062 165.979 45.7702C165.723 46.2342 165.595 46.7702 165.595 47.3782C165.595 47.9702 165.723 48.4982 165.979 48.9622C166.251 49.4262 166.611 49.7942 167.059 50.0662C167.507 50.3222 168.003 50.4502 168.547 50.4502ZM164.107 53.2822C163.675 53.2822 163.355 53.2102 163.147 53.0662C162.939 52.9382 162.811 52.7702 162.763 52.5622C162.715 52.3382 162.691 52.0902 162.691 51.8182V37.5142C162.691 37.2422 162.715 37.0022 162.763 36.7942C162.811 36.5702 162.939 36.3942 163.147 36.2662C163.355 36.1382 163.675 36.0742 164.107 36.0742C164.555 36.0742 164.875 36.1382 165.067 36.2662C165.259 36.3942 165.379 36.5702 165.427 36.7942C165.475 37.0182 165.499 37.2582 165.499 37.5142V52.2982C165.435 52.6502 165.299 52.8982 165.091 53.0422C164.899 53.2022 164.571 53.2822 164.107 53.2822ZM181.416 53.2582C180.68 53.2582 180 53.1302 179.376 52.8742C178.768 52.6022 178.232 52.2182 177.768 51.7222C177.304 51.2262 176.944 50.6342 176.688 49.9462C176.432 49.2582 176.304 48.4982 176.304 47.6662V42.8902C176.304 42.6182 176.328 42.3782 176.376 42.1702C176.424 41.9462 176.552 41.7702 176.76 41.6422C176.968 41.5142 177.288 41.4502 177.72 41.4502C178.184 41.4502 178.512 41.5142 178.704 41.6422C178.912 41.7702 179.04 41.9462 179.088 42.1702C179.136 42.3942 179.16 42.6422 179.16 42.9142V47.6662C179.16 48.2422 179.256 48.7382 179.448 49.1542C179.656 49.5702 179.952 49.8982 180.336 50.1382C180.72 50.3622 181.192 50.4742 181.752 50.4742C182.328 50.4742 182.816 50.3622 183.216 50.1382C183.632 49.8982 183.952 49.5702 184.176 49.1542C184.4 48.7222 184.512 48.2262 184.512 47.6662V42.8662C184.512 42.5942 184.536 42.3542 184.584 42.1462C184.632 41.9222 184.76 41.7542 184.968 41.6422C185.176 41.5142 185.504 41.4502 185.952 41.4502C186.4 41.4502 186.72 41.5142 186.912 41.6422C187.104 41.7702 187.224 41.9462 187.272 42.1702C187.336 42.3942 187.368 42.6342 187.368 42.8902V51.8902C187.368 52.1302 187.336 52.3542 187.272 52.5622C187.224 52.7702 187.096 52.9382 186.888 53.0662C186.696 53.1942 186.376 53.2582 185.928 53.2582C185.608 53.2582 185.352 53.2182 185.16 53.1382C184.984 53.0742 184.848 52.9862 184.752 52.8742C184.672 52.7462 184.616 52.6182 184.584 52.4902C184.568 52.3622 184.56 52.2342 184.56 52.1062L184.752 51.4582C184.656 51.6022 184.512 51.7782 184.32 51.9862C184.128 52.1782 183.888 52.3782 183.6 52.5862C183.328 52.7782 183.008 52.9382 182.64 53.0662C182.272 53.1942 181.864 53.2582 181.416 53.2582ZM194.827 53.2582C194.091 53.2582 193.395 53.1062 192.739 52.8022C192.083 52.4982 191.507 52.0822 191.011 51.5542C190.515 51.0102 190.123 50.3782 189.835 49.6582C189.547 48.9222 189.403 48.1382 189.403 47.3062C189.403 46.5062 189.547 45.7542 189.835 45.0502C190.123 44.3302 190.515 43.7062 191.011 43.1782C191.523 42.6342 192.107 42.2102 192.763 41.9062C193.419 41.6022 194.107 41.4502 194.827 41.4502C195.595 41.4502 196.283 41.6022 196.891 41.9062C197.499 42.2102 198.011 42.6342 198.427 43.1782C198.859 43.7062 199.187 44.3302 199.411 45.0502C199.635 45.7542 199.755 46.5142 199.771 47.3302C199.771 48.1462 199.659 48.9142 199.435 49.6342C199.227 50.3382 198.907 50.9622 198.475 51.5062C198.059 52.0502 197.539 52.4822 196.915 52.8022C196.307 53.1062 195.611 53.2582 194.827 53.2582ZM195.211 50.4502C195.771 50.4502 196.267 50.3222 196.699 50.0662C197.147 49.7942 197.499 49.4262 197.755 48.9622C198.027 48.4982 198.163 47.9702 198.163 47.3782C198.163 46.7702 198.027 46.2342 197.755 45.7702C197.499 45.3062 197.147 44.9382 196.699 44.6662C196.267 44.3942 195.771 44.2582 195.211 44.2582C194.651 44.2582 194.147 44.3942 193.699 44.6662C193.251 44.9222 192.891 45.2902 192.619 45.7702C192.363 46.2342 192.235 46.7702 192.235 47.3782C192.235 47.9702 192.363 48.4982 192.619 48.9622C192.891 49.4262 193.251 49.7942 193.699 50.0662C194.163 50.3222 194.667 50.4502 195.211 50.4502ZM199.651 53.2582C199.203 53.2582 198.875 53.1862 198.667 53.0422C198.459 52.8822 198.323 52.6342 198.259 52.2982V37.5142C198.259 37.2422 198.275 37.0022 198.307 36.7942C198.355 36.5702 198.475 36.3942 198.667 36.2662C198.875 36.1222 199.195 36.0502 199.627 36.0502C200.091 36.0502 200.419 36.1142 200.611 36.2422C200.803 36.3702 200.923 36.5462 200.971 36.7702C201.035 36.9782 201.067 37.2182 201.067 37.4902V51.7942C201.067 52.0662 201.043 52.3142 200.995 52.5382C200.947 52.7622 200.819 52.9382 200.611 53.0662C200.419 53.1942 200.099 53.2582 199.651 53.2582ZM213.149 53.2342C212.685 53.2342 212.341 53.1462 212.117 52.9702C211.893 52.7942 211.781 52.5542 211.781 52.2502L211.949 51.4582C211.821 51.6662 211.605 51.9142 211.301 52.2022C210.997 52.4742 210.597 52.7222 210.101 52.9462C209.605 53.1542 209.005 53.2582 208.301 53.2582C207.549 53.2582 206.837 53.1062 206.165 52.8022C205.509 52.4822 204.925 52.0502 204.413 51.5062C203.917 50.9462 203.517 50.3142 203.213 49.6102C202.925 48.8902 202.781 48.1222 202.781 47.3062C202.781 46.5222 202.925 45.7862 203.213 45.0982C203.517 44.3942 203.925 43.7702 204.437 43.2262C204.949 42.6822 205.533 42.2582 206.189 41.9542C206.861 41.6342 207.565 41.4742 208.301 41.4742C208.957 41.4742 209.509 41.5622 209.957 41.7382C210.421 41.9142 210.813 42.1382 211.133 42.4102C211.453 42.6662 211.717 42.9382 211.925 43.2262L211.781 42.5302C211.781 42.1782 211.893 41.9142 212.117 41.7382C212.341 41.5462 212.693 41.4502 213.173 41.4502C213.621 41.4502 213.941 41.5222 214.133 41.6662C214.325 41.7942 214.445 41.9782 214.493 42.2182C214.541 42.4422 214.565 42.6982 214.565 42.9862V51.7702C214.565 52.0422 214.541 52.2902 214.493 52.5142C214.445 52.7382 214.317 52.9142 214.109 53.0422C213.917 53.1702 213.597 53.2342 213.149 53.2342ZM208.733 50.4502C209.277 50.4502 209.765 50.3142 210.197 50.0422C210.629 49.7702 210.973 49.4022 211.229 48.9382C211.501 48.4582 211.637 47.9302 211.637 47.3542C211.637 46.7302 211.501 46.1862 211.229 45.7222C210.957 45.2582 210.597 44.8982 210.149 44.6422C209.717 44.3702 209.229 44.2342 208.685 44.2342C208.093 44.2342 207.565 44.3782 207.101 44.6662C206.637 44.9382 206.269 45.3142 205.997 45.7942C205.741 46.2582 205.613 46.7862 205.613 47.3782C205.613 47.9542 205.749 48.4742 206.021 48.9382C206.293 49.4022 206.661 49.7702 207.125 50.0422C207.605 50.3142 208.141 50.4502 208.733 50.4502ZM219.481 58.0102C218.969 57.7862 218.673 57.5302 218.593 57.2422C218.513 56.9702 218.585 56.6022 218.809 56.1382L225.001 42.2662C225.225 41.7542 225.465 41.4502 225.721 41.3542C225.977 41.2422 226.369 41.2982 226.897 41.5222C227.393 41.7462 227.681 41.9942 227.761 42.2662C227.857 42.5382 227.801 42.9062 227.593 43.3702L221.353 57.3142C221.145 57.8262 220.913 58.1222 220.657 58.2022C220.401 58.2982 220.009 58.2342 219.481 58.0102ZM221.713 52.1302L216.169 43.6102C215.881 43.1782 215.761 42.8182 215.809 42.5302C215.873 42.2422 216.129 41.9622 216.577 41.6902C217.073 41.3862 217.457 41.2662 217.729 41.3302C218.017 41.3942 218.305 41.6502 218.593 42.0982L222.985 48.9382L221.713 52.1302ZM239.376 53.2342C238.912 53.2342 238.568 53.1462 238.344 52.9702C238.12 52.7942 238.008 52.5542 238.008 52.2502L238.176 51.4582C238.048 51.6662 237.832 51.9142 237.528 52.2022C237.224 52.4742 236.824 52.7222 236.328 52.9462C235.832 53.1542 235.232 53.2582 234.528 53.2582C233.776 53.2582 233.064 53.1062 232.392 52.8022C231.736 52.4822 231.152 52.0502 230.64 51.5062C230.144 50.9462 229.744 50.3142 229.44 49.6102C229.152 48.8902 229.008 48.1222 229.008 47.3062C229.008 46.5222 229.152 45.7862 229.44 45.0982C229.744 44.3942 230.152 43.7702 230.664 43.2262C231.176 42.6822 231.76 42.2582 232.416 41.9542C233.088 41.6342 233.792 41.4742 234.528 41.4742C235.184 41.4742 235.736 41.5622 236.184 41.7382C236.648 41.9142 237.04 42.1382 237.36 42.4102C237.68 42.6662 237.944 42.9382 238.152 43.2262L238.008 42.5302C238.008 42.1782 238.12 41.9142 238.344 41.7382C238.568 41.5462 238.92 41.4502 239.4 41.4502C239.848 41.4502 240.168 41.5222 240.36 41.6662C240.552 41.7942 240.672 41.9782 240.72 42.2182C240.768 42.4422 240.792 42.6982 240.792 42.9862V51.7702C240.792 52.0422 240.768 52.2902 240.72 52.5142C240.672 52.7382 240.544 52.9142 240.336 53.0422C240.144 53.1702 239.824 53.2342 239.376 53.2342ZM234.96 50.4502C235.504 50.4502 235.992 50.3142 236.424 50.0422C236.856 49.7702 237.2 49.4022 237.456 48.9382C237.728 48.4582 237.864 47.9302 237.864 47.3542C237.864 46.7302 237.728 46.1862 237.456 45.7222C237.184 45.2582 236.824 44.8982 236.376 44.6422C235.944 44.3702 235.456 44.2342 234.912 44.2342C234.32 44.2342 233.792 44.3782 233.328 44.6662C232.864 44.9382 232.496 45.3142 232.224 45.7942C231.968 46.2582 231.84 46.7862 231.84 47.3782C231.84 47.9542 231.976 48.4742 232.248 48.9382C232.52 49.4022 232.888 49.7702 233.352 50.0422C233.832 50.3142 234.368 50.4502 234.96 50.4502ZM253.257 53.4262C252.841 53.4262 252.401 53.3782 251.937 53.2822C251.473 53.2022 251.025 53.0822 250.593 52.9222C250.161 52.7462 249.785 52.5462 249.465 52.3222C249.161 52.0822 248.969 51.8182 248.889 51.5302C248.825 51.3702 248.801 51.2182 248.817 51.0742C248.833 50.9142 248.881 50.7542 248.961 50.5942C249.041 50.4182 249.161 50.2422 249.321 50.0662C249.465 49.8902 249.609 49.7942 249.753 49.7782C249.913 49.7462 250.113 49.7942 250.353 49.9222C250.561 50.0022 250.785 50.1062 251.025 50.2342C251.281 50.3622 251.537 50.4902 251.793 50.6182C252.065 50.7462 252.337 50.8502 252.609 50.9302C252.897 51.0102 253.177 51.0502 253.449 51.0502C254.041 51.0502 254.513 50.9542 254.865 50.7622C255.217 50.5542 255.393 50.2662 255.393 49.8982C255.393 49.6902 255.337 49.5062 255.225 49.3462C255.113 49.1862 254.961 49.0582 254.769 48.9622C254.593 48.8502 254.377 48.7542 254.121 48.6742C253.881 48.5782 253.617 48.4982 253.329 48.4342C253.057 48.3542 252.769 48.2662 252.465 48.1702C252.065 48.0582 251.665 47.9222 251.265 47.7622C250.865 47.6022 250.505 47.3942 250.185 47.1382C249.881 46.8822 249.633 46.5622 249.441 46.1782C249.249 45.7942 249.153 45.3142 249.153 44.7382C249.153 44.0182 249.321 43.4102 249.657 42.9142C250.009 42.4022 250.513 42.0102 251.169 41.7382C251.825 41.4662 252.617 41.3302 253.545 41.3302C253.865 41.3302 254.169 41.3542 254.457 41.4022C254.761 41.4502 255.049 41.5222 255.321 41.6182C255.609 41.6982 255.881 41.8022 256.137 41.9302C256.409 42.0582 256.665 42.2022 256.905 42.3622C257.305 42.5862 257.513 42.8502 257.529 43.1542C257.545 43.4422 257.433 43.7542 257.193 44.0902C257.017 44.3142 256.841 44.4742 256.665 44.5702C256.489 44.6502 256.305 44.6502 256.113 44.5702C255.857 44.4422 255.577 44.3062 255.273 44.1622C254.985 44.0022 254.681 43.8662 254.361 43.7542C254.057 43.6422 253.737 43.5862 253.401 43.5862C253.081 43.5862 252.793 43.6342 252.537 43.7302C252.281 43.8262 252.089 43.9622 251.961 44.1382C251.833 44.3142 251.769 44.5222 251.769 44.7622C251.769 44.9862 251.833 45.1702 251.961 45.3142C252.089 45.4582 252.257 45.5782 252.465 45.6742C252.673 45.7702 252.921 45.8582 253.209 45.9382C253.497 46.0022 253.801 46.0662 254.121 46.1302C254.569 46.2262 255.025 46.3462 255.489 46.4902C255.953 46.6342 256.377 46.8342 256.761 47.0902C257.161 47.3462 257.481 47.6902 257.721 48.1222C257.961 48.5382 258.081 49.0822 258.081 49.7542C258.081 50.9222 257.649 51.8262 256.785 52.4662C255.937 53.1062 254.761 53.4262 253.257 53.4262ZM265.881 53.4262C264.841 53.4262 263.929 53.2582 263.145 52.9222C262.377 52.5862 261.729 52.1302 261.201 51.5542C260.689 50.9622 260.297 50.3062 260.025 49.5862C259.769 48.8502 259.641 48.0902 259.641 47.3062C259.641 46.1542 259.905 45.1302 260.433 44.2342C260.961 43.3382 261.689 42.6342 262.617 42.1222C263.561 41.6102 264.641 41.3542 265.857 41.3542C266.721 41.3542 267.481 41.4902 268.137 41.7622C268.793 42.0342 269.337 42.3942 269.769 42.8422C270.217 43.2742 270.553 43.7542 270.777 44.2822C271.017 44.8102 271.137 45.3222 271.137 45.8182C271.137 46.6662 270.929 47.2822 270.513 47.6662C270.113 48.0502 269.609 48.2422 269.001 48.2422H262.665C262.681 48.7862 262.849 49.2582 263.169 49.6582C263.505 50.0582 263.921 50.3702 264.417 50.5942C264.929 50.8022 265.449 50.9062 265.977 50.9062C266.377 50.9062 266.729 50.8822 267.033 50.8342C267.353 50.7862 267.625 50.7302 267.849 50.6662C268.073 50.5862 268.265 50.5062 268.425 50.4262C268.601 50.3462 268.761 50.2742 268.905 50.2102C269.049 50.1462 269.185 50.1062 269.313 50.0902C269.489 50.0742 269.665 50.1142 269.841 50.2102C270.017 50.3062 270.161 50.4742 270.273 50.7142C270.369 50.8742 270.433 51.0262 270.465 51.1702C270.513 51.2982 270.537 51.4262 270.537 51.5542C270.537 51.8742 270.345 52.1782 269.961 52.4662C269.577 52.7382 269.033 52.9622 268.329 53.1382C267.641 53.3302 266.825 53.4262 265.881 53.4262ZM262.665 46.5382H267.585C267.857 46.5382 268.065 46.4982 268.209 46.4182C268.353 46.3222 268.425 46.1302 268.425 45.8422C268.425 45.4742 268.313 45.1462 268.089 44.8582C267.865 44.5542 267.561 44.3222 267.177 44.1622C266.793 43.9862 266.345 43.8982 265.833 43.8982C265.241 43.8982 264.705 44.0182 264.225 44.2582C263.745 44.4822 263.361 44.7942 263.073 45.1942C262.801 45.5942 262.665 46.0422 262.665 46.5382ZM282.514 50.6902C282.93 51.0422 283.146 51.3702 283.162 51.6742C283.194 51.9782 283.034 52.3302 282.682 52.7302C282.41 53.0342 282.17 53.2342 281.962 53.3302C281.754 53.4262 281.546 53.4262 281.338 53.3302C281.13 53.2502 280.882 53.0902 280.594 52.8502L276.01 48.9862V51.8422C276.01 52.0982 275.978 52.3382 275.914 52.5622C275.866 52.7862 275.738 52.9622 275.53 53.0902C275.338 53.2182 275.018 53.2822 274.57 53.2822C274.122 53.2822 273.794 53.2102 273.586 53.0662C273.394 52.9382 273.274 52.7622 273.226 52.5382C273.178 52.3142 273.154 52.0742 273.154 51.8182V37.4902C273.154 37.2182 273.178 36.9782 273.226 36.7702C273.29 36.5462 273.418 36.3702 273.61 36.2422C273.818 36.0982 274.146 36.0262 274.594 36.0262C275.042 36.0262 275.362 36.0982 275.554 36.2422C275.746 36.3702 275.866 36.5462 275.914 36.7702C275.978 36.9782 276.01 37.2262 276.01 37.5142V45.3862L279.322 42.1702C279.578 41.9302 279.818 41.7702 280.042 41.6902C280.266 41.5942 280.482 41.5862 280.69 41.6662C280.914 41.7302 281.146 41.8982 281.386 42.1702C281.786 42.6022 281.978 42.9622 281.962 43.2502C281.946 43.5222 281.746 43.8502 281.362 44.2342L278.122 47.2342L282.514 50.6902ZM289.829 53.4262C289.061 53.4262 288.309 53.2822 287.573 52.9942C286.853 52.6902 286.197 52.2662 285.605 51.7222C285.029 51.1782 284.565 50.5382 284.213 49.8022C283.877 49.0662 283.709 48.2582 283.709 47.3782C283.709 46.5302 283.869 45.7382 284.189 45.0022C284.509 44.2662 284.949 43.6182 285.509 43.0582C286.069 42.4982 286.709 42.0662 287.429 41.7622C288.165 41.4422 288.949 41.2822 289.781 41.2822C290.901 41.2822 291.917 41.5542 292.829 42.0982C293.741 42.6262 294.469 43.3462 295.013 44.2582C295.557 45.1702 295.829 46.2022 295.829 47.3542C295.829 48.2662 295.661 49.0982 295.325 49.8502C294.989 50.5862 294.533 51.2262 293.957 51.7702C293.381 52.2982 292.733 52.7062 292.013 52.9942C291.309 53.2822 290.581 53.4262 289.829 53.4262ZM289.781 50.5942C290.309 50.5942 290.813 50.4662 291.293 50.2102C291.789 49.9382 292.189 49.5542 292.493 49.0582C292.813 48.5622 292.973 47.9782 292.973 47.3062C292.973 46.6822 292.829 46.1302 292.541 45.6502C292.269 45.1702 291.893 44.7942 291.413 44.5222C290.933 44.2502 290.381 44.1142 289.757 44.1142C289.165 44.1142 288.629 44.2582 288.149 44.5462C287.669 44.8182 287.285 45.2022 286.997 45.6982C286.725 46.1782 286.589 46.7222 286.589 47.3302C286.589 48.0022 286.741 48.5862 287.045 49.0822C287.349 49.5622 287.741 49.9382 288.221 50.2102C288.717 50.4662 289.237 50.5942 289.781 50.5942ZM301.844 53.2822C301.252 53.2822 300.724 53.2422 300.26 53.1622C299.812 53.0822 299.42 52.9462 299.084 52.7542C298.764 52.5622 298.5 52.3062 298.292 51.9862C298.084 51.6502 297.924 51.2422 297.812 50.7622C297.716 50.2822 297.668 49.7062 297.668 49.0342V37.4662C297.668 37.1942 297.692 36.9542 297.74 36.7462C297.804 36.5222 297.932 36.3462 298.124 36.2182C298.332 36.0742 298.66 36.0022 299.108 36.0022C299.556 36.0022 299.876 36.0662 300.068 36.1942C300.276 36.3222 300.404 36.4982 300.452 36.7222C300.516 36.9302 300.548 37.1702 300.548 37.4422V48.9142C300.548 49.2182 300.564 49.4742 300.596 49.6822C300.644 49.8742 300.716 50.0342 300.812 50.1622C300.924 50.2742 301.06 50.3542 301.22 50.4022C301.396 50.4502 301.604 50.4742 301.844 50.4742C302.052 50.4742 302.236 50.4982 302.396 50.5462C302.572 50.5942 302.708 50.7142 302.804 50.9062C302.916 51.0982 302.972 51.4102 302.972 51.8422C302.972 52.2902 302.916 52.6182 302.804 52.8262C302.708 53.0342 302.572 53.1622 302.396 53.2102C302.22 53.2582 302.036 53.2822 301.844 53.2822ZM314.54 53.2342C314.076 53.2342 313.732 53.1462 313.508 52.9702C313.284 52.7942 313.172 52.5542 313.172 52.2502L313.34 51.4582C313.212 51.6662 312.996 51.9142 312.692 52.2022C312.388 52.4742 311.988 52.7222 311.492 52.9462C310.996 53.1542 310.396 53.2582 309.692 53.2582C308.94 53.2582 308.228 53.1062 307.556 52.8022C306.9 52.4822 306.316 52.0502 305.804 51.5062C305.308 50.9462 304.908 50.3142 304.604 49.6102C304.316 48.8902 304.172 48.1222 304.172 47.3062C304.172 46.5222 304.316 45.7862 304.604 45.0982C304.908 44.3942 305.316 43.7702 305.828 43.2262C306.34 42.6822 306.924 42.2582 307.58 41.9542C308.252 41.6342 308.956 41.4742 309.692 41.4742C310.348 41.4742 310.9 41.5622 311.348 41.7382C311.812 41.9142 312.204 42.1382 312.524 42.4102C312.844 42.6662 313.108 42.9382 313.316 43.2262L313.172 42.5302C313.172 42.1782 313.284 41.9142 313.508 41.7382C313.732 41.5462 314.084 41.4502 314.564 41.4502C315.012 41.4502 315.332 41.5222 315.524 41.6662C315.716 41.7942 315.836 41.9782 315.884 42.2182C315.932 42.4422 315.956 42.6982 315.956 42.9862V51.7702C315.956 52.0422 315.932 52.2902 315.884 52.5142C315.836 52.7382 315.708 52.9142 315.5 53.0422C315.308 53.1702 314.988 53.2342 314.54 53.2342ZM310.124 50.4502C310.668 50.4502 311.156 50.3142 311.588 50.0422C312.02 49.7702 312.364 49.4022 312.62 48.9382C312.892 48.4582 313.028 47.9302 313.028 47.3542C313.028 46.7302 312.892 46.1862 312.62 45.7222C312.348 45.2582 311.988 44.8982 311.54 44.6422C311.108 44.3702 310.62 44.2342 310.076 44.2342C309.484 44.2342 308.956 44.3782 308.492 44.6662C308.028 44.9382 307.66 45.3142 307.388 45.7942C307.132 46.2582 307.004 46.7862 307.004 47.3782C307.004 47.9542 307.14 48.4742 307.412 48.9382C307.684 49.4022 308.052 49.7702 308.516 50.0422C308.996 50.3142 309.532 50.4502 310.124 50.4502ZM319.66 53.2822C319.212 53.2822 318.884 53.2102 318.676 53.0662C318.484 52.9382 318.364 52.7622 318.316 52.5382C318.268 52.3142 318.244 52.0742 318.244 51.8182V37.4902C318.244 37.2182 318.268 36.9782 318.316 36.7702C318.38 36.5462 318.508 36.3702 318.7 36.2422C318.908 36.1142 319.236 36.0502 319.684 36.0502C320.132 36.0502 320.452 36.1222 320.644 36.2662C320.852 36.3942 320.98 36.5702 321.028 36.7942C321.092 37.0022 321.124 37.2422 321.124 37.5142V42.9382C321.444 42.5702 321.852 42.2342 322.348 41.9302C322.86 41.6102 323.476 41.4502 324.196 41.4502C325.172 41.4502 326.044 41.6902 326.812 42.1702C327.58 42.6342 328.188 43.2822 328.636 44.1142C329.084 44.9462 329.308 45.9222 329.308 47.0422V51.8422C329.308 52.0982 329.284 52.3382 329.236 52.5622C329.188 52.7702 329.06 52.9382 328.852 53.0662C328.66 53.1942 328.34 53.2582 327.892 53.2582C327.444 53.2582 327.116 53.1942 326.908 53.0662C326.7 52.9382 326.572 52.7702 326.524 52.5622C326.476 52.3382 326.452 52.0822 326.452 51.7942V47.0182C326.452 46.4582 326.356 45.9702 326.164 45.5542C325.972 45.1382 325.684 44.8182 325.3 44.5942C324.932 44.3542 324.468 44.2342 323.908 44.2342C323.156 44.2342 322.524 44.4582 322.012 44.9062C321.5 45.3382 321.204 45.8982 321.124 46.5862V51.8422C321.124 52.0982 321.092 52.3382 321.028 52.5622C320.98 52.7862 320.852 52.9622 320.644 53.0902C320.452 53.2182 320.124 53.2822 319.66 53.2822ZM78.6119 82.1142C77.8279 82.1142 77.1239 81.9702 76.4999 81.6822C75.8919 81.3782 75.3719 80.9622 74.9399 80.4342C74.5239 79.8902 74.2039 79.2662 73.9799 78.5622C73.7719 77.8582 73.6679 77.0982 73.6679 76.2822C73.6839 75.4662 73.8039 74.7062 74.0279 74.0022C74.2519 73.2822 74.5719 72.6582 74.9879 72.1302C75.4199 71.6022 75.9399 71.1862 76.5479 70.8822C77.1559 70.5782 77.8439 70.4262 78.6119 70.4262C79.3479 70.4262 80.0359 70.5782 80.6759 70.8822C81.3319 71.1862 81.9079 71.6102 82.4039 72.1542C82.9159 72.6982 83.3159 73.3302 83.6039 74.0502C83.8919 74.7542 84.0359 75.5142 84.0359 76.3302C84.0359 77.1622 83.8919 77.9302 83.6039 78.6342C83.3159 79.3382 82.9239 79.9542 82.4279 80.4822C81.9319 80.9942 81.3559 81.3942 80.6999 81.6822C80.0439 81.9702 79.3479 82.1142 78.6119 82.1142ZM73.8119 87.1062C73.3799 87.1062 73.0599 87.0422 72.8519 86.9142C72.6439 86.7862 72.5159 86.6182 72.4679 86.4102C72.4199 86.2022 72.3959 85.9622 72.3959 85.6902V71.8902C72.3959 71.6182 72.4199 71.3782 72.4679 71.1702C72.5159 70.9622 72.6359 70.7942 72.8279 70.6662C73.0359 70.5222 73.3559 70.4502 73.7879 70.4502C74.2039 70.4502 74.5319 70.5142 74.7719 70.6422C75.0119 70.7702 75.1719 70.9862 75.2519 71.2902V85.6662C75.2679 85.9382 75.2439 86.1782 75.1799 86.3862C75.1319 86.6102 75.0039 86.7862 74.7959 86.9142C74.5879 87.0422 74.2599 87.1062 73.8119 87.1062ZM78.2279 79.4262C78.7879 79.4262 79.2919 79.2982 79.7399 79.0422C80.1879 78.7702 80.5399 78.4022 80.7959 77.9382C81.0679 77.4582 81.2039 76.9222 81.2039 76.3302C81.2039 75.7222 81.0679 75.1862 80.7959 74.7222C80.5399 74.2582 80.1879 73.8982 79.7399 73.6422C79.2919 73.3702 78.7879 73.2342 78.2279 73.2342C77.6839 73.2342 77.1879 73.3702 76.7399 73.6422C76.2919 73.9142 75.9319 74.2822 75.6599 74.7462C75.4039 75.1942 75.2759 75.7222 75.2759 76.3302C75.2759 76.9222 75.4039 77.4582 75.6599 77.9382C75.9319 78.4022 76.2919 78.7702 76.7399 79.0422C77.1879 79.2982 77.6839 79.4262 78.2279 79.4262ZM91.7753 82.4262C90.7353 82.4262 89.8233 82.2582 89.0393 81.9222C88.2713 81.5862 87.6233 81.1302 87.0953 80.5542C86.5833 79.9622 86.1913 79.3062 85.9193 78.5862C85.6633 77.8502 85.5353 77.0902 85.5353 76.3062C85.5353 75.1542 85.7993 74.1302 86.3273 73.2342C86.8553 72.3382 87.5833 71.6342 88.5113 71.1222C89.4553 70.6102 90.5353 70.3542 91.7513 70.3542C92.6153 70.3542 93.3753 70.4902 94.0313 70.7622C94.6873 71.0342 95.2313 71.3942 95.6633 71.8422C96.1113 72.2742 96.4473 72.7542 96.6713 73.2822C96.9113 73.8102 97.0313 74.3222 97.0313 74.8182C97.0313 75.6662 96.8233 76.2822 96.4073 76.6662C96.0073 77.0502 95.5033 77.2422 94.8953 77.2422H88.5593C88.5753 77.7862 88.7433 78.2582 89.0633 78.6582C89.3993 79.0582 89.8153 79.3702 90.3113 79.5942C90.8233 79.8022 91.3433 79.9062 91.8713 79.9062C92.2713 79.9062 92.6233 79.8822 92.9273 79.8342C93.2473 79.7862 93.5193 79.7302 93.7433 79.6662C93.9673 79.5862 94.1593 79.5062 94.3193 79.4262C94.4953 79.3462 94.6553 79.2742 94.7993 79.2102C94.9433 79.1462 95.0793 79.1062 95.2073 79.0902C95.3833 79.0742 95.5593 79.1142 95.7353 79.2102C95.9113 79.3062 96.0553 79.4742 96.1673 79.7142C96.2633 79.8742 96.3273 80.0262 96.3593 80.1702C96.4073 80.2982 96.4313 80.4262 96.4313 80.5542C96.4313 80.8742 96.2393 81.1782 95.8553 81.4662C95.4713 81.7382 94.9273 81.9622 94.2233 82.1382C93.5353 82.3302 92.7193 82.4262 91.7753 82.4262ZM88.5593 75.5382H93.4793C93.7513 75.5382 93.9593 75.4982 94.1033 75.4182C94.2473 75.3222 94.3193 75.1302 94.3193 74.8422C94.3193 74.4742 94.2073 74.1462 93.9833 73.8582C93.7593 73.5542 93.4553 73.3222 93.0713 73.1622C92.6873 72.9862 92.2393 72.8982 91.7273 72.8982C91.1353 72.8982 90.5993 73.0182 90.1193 73.2582C89.6393 73.4822 89.2553 73.7942 88.9673 74.1942C88.6953 74.5942 88.5593 75.0422 88.5593 75.5382ZM100.417 82.2822C99.9848 82.2822 99.6648 82.2102 99.4568 82.0662C99.2648 81.9382 99.1448 81.7622 99.0968 81.5382C99.0488 81.3142 99.0248 81.0662 99.0248 80.7942V71.8902C99.0248 71.6022 99.0488 71.3542 99.0968 71.1462C99.1448 70.9222 99.2648 70.7542 99.4568 70.6422C99.6648 70.5142 99.9928 70.4502 100.441 70.4502C100.873 70.4502 101.185 70.5062 101.377 70.6182C101.585 70.7302 101.713 70.8742 101.761 71.0502C101.825 71.2102 101.857 71.3702 101.857 71.5302L101.665 71.9622C101.745 71.8342 101.857 71.6822 102.001 71.5062C102.145 71.3142 102.337 71.1302 102.577 70.9542C102.817 70.7622 103.105 70.6102 103.441 70.4982C103.777 70.3702 104.177 70.3062 104.641 70.3062C104.833 70.3062 105.033 70.3302 105.241 70.3782C105.465 70.4102 105.681 70.4662 105.889 70.5462C106.113 70.6102 106.313 70.6982 106.489 70.8102C106.665 70.9222 106.801 71.0582 106.897 71.2182C106.993 71.3622 107.041 71.5302 107.041 71.7222C107.041 72.2342 106.913 72.6662 106.657 73.0182C106.401 73.3702 106.097 73.5462 105.745 73.5462C105.505 73.5462 105.329 73.5222 105.217 73.4742C105.105 73.4262 105.009 73.3702 104.929 73.3062C104.865 73.2422 104.761 73.1862 104.617 73.1382C104.489 73.0902 104.281 73.0662 103.993 73.0662C103.753 73.0662 103.505 73.1062 103.249 73.1862C103.009 73.2662 102.785 73.3862 102.577 73.5462C102.369 73.7062 102.201 73.9142 102.073 74.1702C101.945 74.4102 101.881 74.6902 101.881 75.0102V80.8422C101.881 81.1142 101.857 81.3622 101.809 81.5862C101.761 81.7942 101.633 81.9622 101.425 82.0902C101.217 82.2182 100.881 82.2822 100.417 82.2822ZM110.354 82.2582C109.922 82.2582 109.602 82.1942 109.394 82.0662C109.202 81.9382 109.082 81.7622 109.034 81.5382C108.986 81.3142 108.962 81.0742 108.962 80.8182V71.8422C108.962 71.5862 108.986 71.3542 109.034 71.1462C109.082 70.9382 109.21 70.7702 109.418 70.6422C109.626 70.5142 109.954 70.4502 110.402 70.4502C110.866 70.4502 111.202 70.5462 111.41 70.7382C111.634 70.9302 111.746 71.2342 111.746 71.6502L111.53 72.3222C111.61 72.1462 111.746 71.9542 111.938 71.7462C112.13 71.5382 112.362 71.3302 112.634 71.1222C112.922 70.9142 113.242 70.7462 113.594 70.6182C113.946 70.4902 114.314 70.4262 114.698 70.4262C115.226 70.4262 115.706 70.5142 116.138 70.6902C116.586 70.8662 116.978 71.1222 117.314 71.4582C117.666 71.7942 117.97 72.2022 118.226 72.6822C118.498 72.2662 118.802 71.8902 119.138 71.5542C119.474 71.2022 119.866 70.9302 120.314 70.7382C120.762 70.5302 121.266 70.4262 121.826 70.4262C122.754 70.4262 123.53 70.6582 124.154 71.1222C124.794 71.5862 125.274 72.2502 125.594 73.1142C125.93 73.9622 126.098 74.9782 126.098 76.1622V80.8182C126.098 81.0902 126.066 81.3382 126.002 81.5622C125.954 81.7702 125.826 81.9382 125.618 82.0662C125.426 82.1942 125.106 82.2582 124.658 82.2582C124.21 82.2582 123.882 82.1862 123.674 82.0422C123.466 81.9142 123.338 81.7462 123.29 81.5382C123.242 81.3142 123.218 81.0662 123.218 80.7942V76.1382C123.218 75.5462 123.146 75.0342 123.002 74.6022C122.858 74.1702 122.642 73.8342 122.354 73.5942C122.082 73.3542 121.722 73.2342 121.274 73.2342C120.794 73.2342 120.378 73.3542 120.026 73.5942C119.69 73.8182 119.426 74.1462 119.234 74.5782C119.042 75.0102 118.946 75.5382 118.946 76.1622V80.8422C118.946 81.1142 118.906 81.3702 118.826 81.6102C118.746 81.8342 118.586 82.0022 118.346 82.1142C118.122 82.2422 117.794 82.2902 117.362 82.2582C116.962 82.2422 116.666 82.1622 116.474 82.0182C116.298 81.8742 116.186 81.6982 116.138 81.4902C116.106 81.2662 116.09 81.0342 116.09 80.7942V76.1382C116.09 75.5462 116.018 75.0342 115.874 74.6022C115.73 74.1542 115.514 73.8182 115.226 73.5942C114.954 73.3542 114.586 73.2342 114.122 73.2342C113.626 73.2342 113.202 73.3622 112.85 73.6182C112.514 73.8742 112.258 74.2182 112.082 74.6502C111.906 75.0822 111.818 75.5782 111.818 76.1382V80.8422C111.818 81.0982 111.786 81.3382 111.722 81.5622C111.674 81.7862 111.546 81.9542 111.338 82.0662C111.146 82.1942 110.818 82.2582 110.354 82.2582ZM130.045 82.2822C129.613 82.2822 129.293 82.2102 129.085 82.0662C128.877 81.9382 128.749 81.7702 128.701 81.5622C128.653 81.3382 128.629 81.0902 128.629 80.8182V71.8902C128.629 71.6342 128.653 71.4022 128.701 71.1942C128.765 70.9702 128.893 70.7942 129.085 70.6662C129.293 70.5382 129.621 70.4742 130.069 70.4742C130.517 70.4742 130.837 70.5382 131.029 70.6662C131.237 70.7942 131.365 70.9702 131.413 71.1942C131.461 71.4182 131.485 71.6662 131.485 71.9382V80.8422C131.485 81.1142 131.461 81.3622 131.413 81.5862C131.365 81.7942 131.237 81.9622 131.029 82.0902C130.837 82.2182 130.509 82.2822 130.045 82.2822ZM130.045 68.1462C129.581 68.1462 129.237 68.0822 129.013 67.9542C128.805 67.8102 128.669 67.6182 128.605 67.3782C128.557 67.1382 128.533 66.8742 128.533 66.5862C128.533 66.2822 128.557 66.0182 128.605 65.7942C128.669 65.5702 128.813 65.3942 129.037 65.2662C129.261 65.1222 129.605 65.0502 130.069 65.0502C130.549 65.0502 130.893 65.1222 131.101 65.2662C131.309 65.4102 131.445 65.6022 131.509 65.8422C131.573 66.0662 131.605 66.3302 131.605 66.6342C131.605 66.9062 131.573 67.1622 131.509 67.4022C131.445 67.6422 131.309 67.8262 131.101 67.9542C130.893 68.0822 130.541 68.1462 130.045 68.1462ZM138.214 82.4262C137.798 82.4262 137.358 82.3782 136.894 82.2822C136.43 82.2022 135.982 82.0822 135.55 81.9222C135.118 81.7462 134.742 81.5462 134.422 81.3222C134.118 81.0822 133.926 80.8182 133.846 80.5302C133.782 80.3702 133.758 80.2182 133.774 80.0742C133.79 79.9142 133.838 79.7542 133.918 79.5942C133.998 79.4182 134.118 79.2422 134.278 79.0662C134.422 78.8902 134.566 78.7942 134.71 78.7782C134.87 78.7462 135.07 78.7942 135.31 78.9222C135.518 79.0022 135.742 79.1062 135.982 79.2342C136.238 79.3622 136.494 79.4902 136.75 79.6182C137.022 79.7462 137.294 79.8502 137.566 79.9302C137.854 80.0102 138.134 80.0502 138.406 80.0502C138.998 80.0502 139.47 79.9542 139.822 79.7622C140.174 79.5542 140.35 79.2662 140.35 78.8982C140.35 78.6902 140.294 78.5062 140.182 78.3462C140.07 78.1862 139.918 78.0582 139.726 77.9622C139.55 77.8502 139.334 77.7542 139.078 77.6742C138.838 77.5782 138.574 77.4982 138.286 77.4342C138.014 77.3542 137.726 77.2662 137.422 77.1702C137.022 77.0582 136.622 76.9222 136.222 76.7622C135.822 76.6022 135.462 76.3942 135.142 76.1382C134.838 75.8822 134.59 75.5622 134.398 75.1782C134.206 74.7942 134.11 74.3142 134.11 73.7382C134.11 73.0182 134.278 72.4102 134.614 71.9142C134.966 71.4022 135.47 71.0102 136.126 70.7382C136.782 70.4662 137.574 70.3302 138.502 70.3302C138.822 70.3302 139.126 70.3542 139.414 70.4022C139.718 70.4502 140.006 70.5222 140.278 70.6182C140.566 70.6982 140.838 70.8022 141.094 70.9302C141.366 71.0582 141.622 71.2022 141.862 71.3622C142.262 71.5862 142.47 71.8502 142.486 72.1542C142.502 72.4422 142.39 72.7542 142.15 73.0902C141.974 73.3142 141.798 73.4742 141.622 73.5702C141.446 73.6502 141.262 73.6502 141.07 73.5702C140.814 73.4422 140.534 73.3062 140.23 73.1622C139.942 73.0022 139.638 72.8662 139.318 72.7542C139.014 72.6422 138.694 72.5862 138.358 72.5862C138.038 72.5862 137.75 72.6342 137.494 72.7302C137.238 72.8262 137.046 72.9622 136.918 73.1382C136.79 73.3142 136.726 73.5222 136.726 73.7622C136.726 73.9862 136.79 74.1702 136.918 74.3142C137.046 74.4582 137.214 74.5782 137.422 74.6742C137.63 74.7702 137.878 74.8582 138.166 74.9382C138.454 75.0022 138.758 75.0662 139.078 75.1302C139.526 75.2262 139.982 75.3462 140.446 75.4902C140.91 75.6342 141.334 75.8342 141.718 76.0902C142.118 76.3462 142.438 76.6902 142.678 77.1222C142.918 77.5382 143.038 78.0822 143.038 78.7542C143.038 79.9222 142.606 80.8262 141.742 81.4662C140.894 82.1062 139.718 82.4262 138.214 82.4262ZM146.662 82.2822C146.23 82.2822 145.91 82.2102 145.702 82.0662C145.494 81.9382 145.366 81.7702 145.318 81.5622C145.27 81.3382 145.246 81.0902 145.246 80.8182V71.8902C145.246 71.6342 145.27 71.4022 145.318 71.1942C145.382 70.9702 145.51 70.7942 145.702 70.6662C145.91 70.5382 146.238 70.4742 146.686 70.4742C147.134 70.4742 147.454 70.5382 147.646 70.6662C147.854 70.7942 147.982 70.9702 148.03 71.1942C148.078 71.4182 148.102 71.6662 148.102 71.9382V80.8422C148.102 81.1142 148.078 81.3622 148.03 81.5862C147.982 81.7942 147.854 81.9622 147.646 82.0902C147.454 82.2182 147.126 82.2822 146.662 82.2822ZM146.662 68.1462C146.198 68.1462 145.854 68.0822 145.63 67.9542C145.422 67.8102 145.286 67.6182 145.222 67.3782C145.174 67.1382 145.15 66.8742 145.15 66.5862C145.15 66.2822 145.174 66.0182 145.222 65.7942C145.286 65.5702 145.43 65.3942 145.654 65.2662C145.878 65.1222 146.222 65.0502 146.686 65.0502C147.166 65.0502 147.51 65.1222 147.718 65.2662C147.926 65.4102 148.062 65.6022 148.126 65.8422C148.19 66.0662 148.222 66.3302 148.222 66.6342C148.222 66.9062 148.19 67.1622 148.126 67.4022C148.062 67.6422 147.926 67.8262 147.718 67.9542C147.51 68.0822 147.158 68.1462 146.662 68.1462ZM153.207 82.2822C152.775 82.2822 152.455 82.2182 152.247 82.0902C152.055 81.9622 151.935 81.7862 151.887 81.5622C151.839 81.3222 151.815 81.0742 151.815 80.8182V69.1542C151.815 68.5622 151.895 68.0182 152.055 67.5222C152.215 67.0102 152.471 66.5702 152.823 66.2022C153.175 65.8342 153.631 65.5462 154.191 65.3382C154.751 65.1142 155.431 65.0022 156.231 65.0022C156.503 65.0022 156.743 65.0342 156.951 65.0982C157.175 65.1462 157.351 65.2662 157.479 65.4582C157.623 65.6502 157.695 65.9782 157.695 66.4422C157.695 66.8742 157.623 67.1942 157.479 67.4022C157.351 67.6102 157.175 67.7382 156.951 67.7862C156.727 67.8342 156.479 67.8582 156.207 67.8582C155.935 67.8582 155.695 67.8742 155.487 67.9062C155.295 67.9222 155.135 67.9702 155.007 68.0502C154.895 68.1302 154.807 68.2582 154.743 68.4342C154.695 68.6102 154.671 68.8342 154.671 69.1062V80.8662C154.671 81.1222 154.639 81.3622 154.575 81.5862C154.527 81.7942 154.399 81.9622 154.191 82.0902C153.983 82.2182 153.655 82.2822 153.207 82.2822ZM150.831 70.6902L153.303 70.7142L156.615 70.6182C156.887 70.6182 157.127 70.6502 157.335 70.7142C157.559 70.7622 157.735 70.8902 157.863 71.0982C157.991 71.2902 158.055 71.6102 158.055 72.0582C158.055 72.4742 157.991 72.7862 157.863 72.9942C157.735 73.2022 157.567 73.3382 157.359 73.4022C157.151 73.4502 156.911 73.4742 156.639 73.4742L153.423 73.4262L150.759 73.4502C150.359 73.4342 150.079 73.3222 149.919 73.1142C149.775 72.8902 149.703 72.5302 149.703 72.0342C149.703 71.5702 149.791 71.2342 149.967 71.0262C150.159 70.8022 150.447 70.6902 150.831 70.6902ZM159.965 84.7542C159.965 84.7542 159.933 84.7382 159.869 84.7062C159.805 84.6902 159.741 84.6262 159.677 84.5142C159.613 84.4182 159.581 84.2582 159.581 84.0342C159.581 83.7302 159.629 83.5302 159.725 83.4342C159.821 83.3542 159.885 83.3062 159.917 83.2902C159.933 83.2742 160.045 83.1782 160.253 83.0022C160.461 82.8422 160.581 82.5622 160.613 82.1622C160.453 82.1302 160.309 82.0902 160.181 82.0422C160.069 81.9782 159.973 81.9062 159.893 81.8262C159.733 81.6662 159.637 81.4822 159.605 81.2742C159.573 81.0502 159.557 80.8262 159.557 80.6022C159.557 80.2342 159.597 79.9302 159.677 79.6902C159.757 79.4502 159.909 79.2742 160.133 79.1622C160.373 79.0342 160.725 78.9702 161.189 78.9702C161.797 78.9702 162.229 79.0982 162.485 79.3542C162.629 79.4982 162.709 79.6822 162.725 79.9062C162.757 80.1302 162.773 80.3542 162.773 80.5782C162.773 80.7382 162.773 80.8742 162.773 80.9862C162.773 81.0822 162.765 81.1702 162.749 81.2502C162.685 81.8902 162.517 82.4742 162.245 83.0022C161.989 83.5302 161.661 83.9542 161.261 84.2742C160.877 84.5942 160.445 84.7542 159.965 84.7542ZM161.141 74.3382C160.533 74.3382 160.109 74.2182 159.869 73.9782C159.645 73.7222 159.533 73.3142 159.533 72.7542C159.533 72.3382 159.573 72.0102 159.653 71.7702C159.749 71.5302 159.917 71.3622 160.157 71.2662C160.413 71.1542 160.749 71.0982 161.165 71.0982C161.789 71.0982 162.213 71.2182 162.437 71.4582C162.661 71.6982 162.773 72.1222 162.773 72.7302C162.773 73.0182 162.741 73.2902 162.677 73.5462C162.613 73.7862 162.469 73.9782 162.245 74.1222C162.021 74.2662 161.653 74.3382 161.141 74.3382ZM172.418 82.2582C172.002 82.2582 171.69 82.1862 171.482 82.0422C171.274 81.9142 171.138 81.7382 171.074 81.5142C171.01 81.2902 170.978 81.0502 170.978 80.7942V66.9222C170.978 66.6662 171.002 66.4342 171.05 66.2262C171.114 66.0022 171.25 65.8262 171.458 65.6982C171.666 65.5542 171.994 65.4822 172.442 65.4822L176.954 65.5062C178.122 65.5062 179.194 65.7062 180.17 66.1062C181.162 66.5062 182.018 67.0742 182.738 67.8102C183.458 68.5462 184.01 69.4262 184.394 70.4502C184.794 71.4582 184.994 72.5702 184.994 73.7862C184.994 75.0342 184.794 76.1782 184.394 77.2182C183.994 78.2582 183.434 79.1542 182.714 79.9062C181.994 80.6582 181.138 81.2422 180.146 81.6582C179.17 82.0582 178.082 82.2582 176.882 82.2582H172.418ZM173.882 79.3542H176.954C177.978 79.3542 178.874 79.1302 179.642 78.6822C180.41 78.2182 181.002 77.5782 181.418 76.7622C181.85 75.9462 182.066 74.9942 182.066 73.9062C182.066 72.8022 181.85 71.8422 181.418 71.0262C181.002 70.1942 180.402 69.5542 179.618 69.1062C178.85 68.6422 177.954 68.4102 176.93 68.4102H173.882V79.3542ZM197.106 82.2342C196.642 82.2342 196.298 82.1462 196.074 81.9702C195.85 81.7942 195.738 81.5542 195.738 81.2502L195.906 80.4582C195.778 80.6662 195.562 80.9142 195.258 81.2022C194.954 81.4742 194.554 81.7222 194.058 81.9462C193.562 82.1542 192.962 82.2582 192.258 82.2582C191.506 82.2582 190.794 82.1062 190.122 81.8022C189.466 81.4822 188.882 81.0502 188.37 80.5062C187.874 79.9462 187.474 79.3142 187.17 78.6102C186.882 77.8902 186.738 77.1222 186.738 76.3062C186.738 75.5222 186.882 74.7862 187.17 74.0982C187.474 73.3942 187.882 72.7702 188.394 72.2262C188.906 71.6822 189.49 71.2582 190.146 70.9542C190.818 70.6342 191.522 70.4742 192.258 70.4742C192.914 70.4742 193.466 70.5622 193.914 70.7382C194.378 70.9142 194.77 71.1382 195.09 71.4102C195.41 71.6662 195.674 71.9382 195.882 72.2262L195.738 71.5302C195.738 71.1782 195.85 70.9142 196.074 70.7382C196.298 70.5462 196.65 70.4502 197.13 70.4502C197.578 70.4502 197.898 70.5222 198.09 70.6662C198.282 70.7942 198.402 70.9782 198.45 71.2182C198.498 71.4422 198.522 71.6982 198.522 71.9862V80.7702C198.522 81.0422 198.498 81.2902 198.45 81.5142C198.402 81.7382 198.274 81.9142 198.066 82.0422C197.874 82.1702 197.554 82.2342 197.106 82.2342ZM192.69 79.4502C193.234 79.4502 193.722 79.3142 194.154 79.0422C194.586 78.7702 194.93 78.4022 195.186 77.9382C195.458 77.4582 195.594 76.9302 195.594 76.3542C195.594 75.7302 195.458 75.1862 195.186 74.7222C194.914 74.2582 194.554 73.8982 194.106 73.6422C193.674 73.3702 193.186 73.2342 192.642 73.2342C192.05 73.2342 191.522 73.3782 191.058 73.6662C190.594 73.9382 190.226 74.3142 189.954 74.7942C189.698 75.2582 189.57 75.7862 189.57 76.3782C189.57 76.9542 189.706 77.4742 189.978 77.9382C190.25 78.4022 190.618 78.7702 191.082 79.0422C191.562 79.3142 192.098 79.4502 192.69 79.4502ZM202.322 82.2582C201.89 82.2582 201.57 82.1942 201.362 82.0662C201.17 81.9382 201.05 81.7622 201.002 81.5382C200.954 81.3142 200.93 81.0742 200.93 80.8182V71.8422C200.93 71.5862 200.954 71.3542 201.002 71.1462C201.05 70.9382 201.178 70.7702 201.386 70.6422C201.594 70.5142 201.922 70.4502 202.37 70.4502C202.834 70.4502 203.17 70.5462 203.378 70.7382C203.602 70.9302 203.714 71.2342 203.714 71.6502L203.498 72.3222C203.578 72.1462 203.714 71.9542 203.906 71.7462C204.098 71.5382 204.33 71.3302 204.602 71.1222C204.89 70.9142 205.21 70.7462 205.562 70.6182C205.914 70.4902 206.282 70.4262 206.666 70.4262C207.194 70.4262 207.674 70.5142 208.106 70.6902C208.554 70.8662 208.946 71.1222 209.282 71.4582C209.634 71.7942 209.938 72.2022 210.194 72.6822C210.466 72.2662 210.77 71.8902 211.106 71.5542C211.442 71.2022 211.834 70.9302 212.282 70.7382C212.73 70.5302 213.234 70.4262 213.794 70.4262C214.722 70.4262 215.498 70.6582 216.122 71.1222C216.762 71.5862 217.242 72.2502 217.562 73.1142C217.898 73.9622 218.066 74.9782 218.066 76.1622V80.8182C218.066 81.0902 218.034 81.3382 217.97 81.5622C217.922 81.7702 217.794 81.9382 217.586 82.0662C217.394 82.1942 217.074 82.2582 216.626 82.2582C216.178 82.2582 215.85 82.1862 215.642 82.0422C215.434 81.9142 215.306 81.7462 215.258 81.5382C215.21 81.3142 215.186 81.0662 215.186 80.7942V76.1382C215.186 75.5462 215.114 75.0342 214.97 74.6022C214.826 74.1702 214.61 73.8342 214.322 73.5942C214.05 73.3542 213.69 73.2342 213.242 73.2342C212.762 73.2342 212.346 73.3542 211.994 73.5942C211.658 73.8182 211.394 74.1462 211.202 74.5782C211.01 75.0102 210.914 75.5382 210.914 76.1622V80.8422C210.914 81.1142 210.874 81.3702 210.794 81.6102C210.714 81.8342 210.554 82.0022 210.314 82.1142C210.09 82.2422 209.762 82.2902 209.33 82.2582C208.93 82.2422 208.634 82.1622 208.442 82.0182C208.266 81.8742 208.154 81.6982 208.106 81.4902C208.074 81.2662 208.058 81.0342 208.058 80.7942V76.1382C208.058 75.5462 207.986 75.0342 207.842 74.6022C207.698 74.1542 207.482 73.8182 207.194 73.5942C206.922 73.3542 206.554 73.2342 206.09 73.2342C205.594 73.2342 205.17 73.3622 204.818 73.6182C204.482 73.8742 204.226 74.2182 204.05 74.6502C203.874 75.0822 203.786 75.5782 203.786 76.1382V80.8422C203.786 81.0982 203.754 81.3382 203.69 81.5622C203.642 81.7862 203.514 81.9542 203.306 82.0662C203.114 82.1942 202.786 82.2582 202.322 82.2582ZM226.549 82.1142C225.765 82.1142 225.061 81.9702 224.437 81.6822C223.829 81.3782 223.309 80.9622 222.877 80.4342C222.461 79.8902 222.141 79.2662 221.917 78.5622C221.709 77.8582 221.605 77.0982 221.605 76.2822C221.621 75.4662 221.741 74.7062 221.965 74.0022C222.189 73.2822 222.509 72.6582 222.925 72.1302C223.357 71.6022 223.877 71.1862 224.485 70.8822C225.093 70.5782 225.781 70.4262 226.549 70.4262C227.285 70.4262 227.973 70.5782 228.613 70.8822C229.269 71.1862 229.845 71.6102 230.341 72.1542C230.853 72.6982 231.253 73.3302 231.541 74.0502C231.829 74.7542 231.973 75.5142 231.973 76.3302C231.973 77.1622 231.829 77.9302 231.541 78.6342C231.253 79.3382 230.861 79.9542 230.365 80.4822C229.869 80.9942 229.293 81.3942 228.637 81.6822C227.981 81.9702 227.285 82.1142 226.549 82.1142ZM221.749 87.1062C221.317 87.1062 220.997 87.0422 220.789 86.9142C220.581 86.7862 220.453 86.6182 220.405 86.4102C220.357 86.2022 220.333 85.9622 220.333 85.6902V71.8902C220.333 71.6182 220.357 71.3782 220.405 71.1702C220.453 70.9622 220.573 70.7942 220.765 70.6662C220.973 70.5222 221.293 70.4502 221.725 70.4502C222.141 70.4502 222.469 70.5142 222.709 70.6422C222.949 70.7702 223.109 70.9862 223.189 71.2902V85.6662C223.205 85.9382 223.181 86.1782 223.117 86.3862C223.069 86.6102 222.941 86.7862 222.733 86.9142C222.525 87.0422 222.197 87.1062 221.749 87.1062ZM226.165 79.4262C226.725 79.4262 227.229 79.2982 227.677 79.0422C228.125 78.7702 228.477 78.4022 228.733 77.9382C229.005 77.4582 229.141 76.9222 229.141 76.3302C229.141 75.7222 229.005 75.1862 228.733 74.7222C228.477 74.2582 228.125 73.8982 227.677 73.6422C227.229 73.3702 226.725 73.2342 226.165 73.2342C225.621 73.2342 225.125 73.3702 224.677 73.6422C224.229 73.9142 223.869 74.2822 223.597 74.7462C223.341 75.1942 223.213 75.7222 223.213 76.3302C223.213 76.9222 223.341 77.4582 223.597 77.9382C223.869 78.4022 224.229 78.7702 224.677 79.0422C225.125 79.2982 225.621 79.4262 226.165 79.4262ZM243.841 82.2342C243.377 82.2342 243.033 82.1462 242.809 81.9702C242.585 81.7942 242.473 81.5542 242.473 81.2502L242.641 80.4582C242.513 80.6662 242.297 80.9142 241.993 81.2022C241.689 81.4742 241.289 81.7222 240.793 81.9462C240.297 82.1542 239.697 82.2582 238.993 82.2582C238.241 82.2582 237.529 82.1062 236.857 81.8022C236.201 81.4822 235.617 81.0502 235.105 80.5062C234.609 79.9462 234.209 79.3142 233.905 78.6102C233.617 77.8902 233.473 77.1222 233.473 76.3062C233.473 75.5222 233.617 74.7862 233.905 74.0982C234.209 73.3942 234.617 72.7702 235.129 72.2262C235.641 71.6822 236.225 71.2582 236.881 70.9542C237.553 70.6342 238.257 70.4742 238.993 70.4742C239.649 70.4742 240.201 70.5622 240.649 70.7382C241.113 70.9142 241.505 71.1382 241.825 71.4102C242.145 71.6662 242.409 71.9382 242.617 72.2262L242.473 71.5302C242.473 71.1782 242.585 70.9142 242.809 70.7382C243.033 70.5462 243.385 70.4502 243.865 70.4502C244.313 70.4502 244.633 70.5222 244.825 70.6662C245.017 70.7942 245.137 70.9782 245.185 71.2182C245.233 71.4422 245.257 71.6982 245.257 71.9862V80.7702C245.257 81.0422 245.233 81.2902 245.185 81.5142C245.137 81.7382 245.009 81.9142 244.801 82.0422C244.609 82.1702 244.289 82.2342 243.841 82.2342ZM239.425 79.4502C239.969 79.4502 240.457 79.3142 240.889 79.0422C241.321 78.7702 241.665 78.4022 241.921 77.9382C242.193 77.4582 242.329 76.9302 242.329 76.3542C242.329 75.7302 242.193 75.1862 241.921 74.7222C241.649 74.2582 241.289 73.8982 240.841 73.6422C240.409 73.3702 239.921 73.2342 239.377 73.2342C238.785 73.2342 238.257 73.3782 237.793 73.6662C237.329 73.9382 236.961 74.3142 236.689 74.7942C236.433 75.2582 236.305 75.7862 236.305 76.3782C236.305 76.9542 236.441 77.4742 236.713 77.9382C236.985 78.4022 237.353 78.7702 237.817 79.0422C238.297 79.3142 238.833 79.4502 239.425 79.4502ZM257.073 79.6902C257.489 80.0422 257.705 80.3702 257.721 80.6742C257.753 80.9782 257.593 81.3302 257.241 81.7302C256.969 82.0342 256.729 82.2342 256.521 82.3302C256.313 82.4262 256.105 82.4262 255.897 82.3302C255.689 82.2502 255.441 82.0902 255.153 81.8502L250.569 77.9862V80.8422C250.569 81.0982 250.537 81.3382 250.473 81.5622C250.425 81.7862 250.297 81.9622 250.089 82.0902C249.897 82.2182 249.577 82.2822 249.129 82.2822C248.681 82.2822 248.353 82.2102 248.145 82.0662C247.953 81.9382 247.833 81.7622 247.785 81.5382C247.737 81.3142 247.713 81.0742 247.713 80.8182V66.4902C247.713 66.2182 247.737 65.9782 247.785 65.7702C247.849 65.5462 247.977 65.3702 248.169 65.2422C248.377 65.0982 248.705 65.0262 249.153 65.0262C249.601 65.0262 249.921 65.0982 250.113 65.2422C250.305 65.3702 250.425 65.5462 250.473 65.7702C250.537 65.9782 250.569 66.2262 250.569 66.5142V74.3862L253.881 71.1702C254.137 70.9302 254.377 70.7702 254.601 70.6902C254.825 70.5942 255.041 70.5862 255.249 70.6662C255.473 70.7302 255.705 70.8982 255.945 71.1702C256.345 71.6022 256.537 71.9622 256.521 72.2502C256.505 72.5222 256.305 72.8502 255.921 73.2342L252.681 76.2342L257.073 79.6902ZM268.027 82.2822C267.595 82.2822 267.275 82.2182 267.067 82.0902C266.875 81.9622 266.755 81.7862 266.707 81.5622C266.659 81.3222 266.635 81.0742 266.635 80.8182V69.1542C266.635 68.5622 266.715 68.0182 266.875 67.5222C267.035 67.0102 267.291 66.5702 267.643 66.2022C267.995 65.8342 268.451 65.5462 269.011 65.3382C269.571 65.1142 270.251 65.0022 271.051 65.0022C271.323 65.0022 271.563 65.0342 271.771 65.0982C271.995 65.1462 272.171 65.2662 272.299 65.4582C272.443 65.6502 272.515 65.9782 272.515 66.4422C272.515 66.8742 272.443 67.1942 272.299 67.4022C272.171 67.6102 271.995 67.7382 271.771 67.7862C271.547 67.8342 271.299 67.8582 271.027 67.8582C270.755 67.8582 270.515 67.8742 270.307 67.9062C270.115 67.9222 269.955 67.9702 269.827 68.0502C269.715 68.1302 269.627 68.2582 269.563 68.4342C269.515 68.6102 269.491 68.8342 269.491 69.1062V80.8662C269.491 81.1222 269.459 81.3622 269.395 81.5862C269.347 81.7942 269.219 81.9622 269.011 82.0902C268.803 82.2182 268.475 82.2822 268.027 82.2822ZM265.651 70.6902L268.123 70.7142L271.435 70.6182C271.707 70.6182 271.947 70.6502 272.155 70.7142C272.379 70.7622 272.555 70.8902 272.683 71.0982C272.811 71.2902 272.875 71.6102 272.875 72.0582C272.875 72.4742 272.811 72.7862 272.683 72.9942C272.555 73.2022 272.387 73.3382 272.179 73.4022C271.971 73.4502 271.731 73.4742 271.459 73.4742L268.243 73.4262L265.579 73.4502C265.179 73.4342 264.899 73.3222 264.739 73.1142C264.595 72.8902 264.523 72.5302 264.523 72.0342C264.523 71.5702 264.611 71.2342 264.787 71.0262C264.979 70.8022 265.267 70.6902 265.651 70.6902ZM276.177 82.2822C275.745 82.2822 275.425 82.2102 275.217 82.0662C275.009 81.9382 274.881 81.7702 274.833 81.5622C274.785 81.3382 274.761 81.0902 274.761 80.8182V71.8902C274.761 71.6342 274.785 71.4022 274.833 71.1942C274.897 70.9702 275.025 70.7942 275.217 70.6662C275.425 70.5382 275.753 70.4742 276.201 70.4742C276.649 70.4742 276.969 70.5382 277.161 70.6662C277.369 70.7942 277.497 70.9702 277.545 71.1942C277.593 71.4182 277.617 71.6662 277.617 71.9382V80.8422C277.617 81.1142 277.593 81.3622 277.545 81.5862C277.497 81.7942 277.369 81.9622 277.161 82.0902C276.969 82.2182 276.641 82.2822 276.177 82.2822ZM276.177 68.1462C275.713 68.1462 275.369 68.0822 275.145 67.9542C274.937 67.8102 274.801 67.6182 274.737 67.3782C274.689 67.1382 274.665 66.8742 274.665 66.5862C274.665 66.2822 274.689 66.0182 274.737 65.7942C274.801 65.5702 274.945 65.3942 275.169 65.2662C275.393 65.1222 275.737 65.0502 276.201 65.0502C276.681 65.0502 277.025 65.1222 277.233 65.2662C277.441 65.4102 277.577 65.6022 277.641 65.8422C277.705 66.0662 277.737 66.3302 277.737 66.6342C277.737 66.9062 277.705 67.1622 277.641 67.4022C277.577 67.6422 277.441 67.8262 277.233 67.9542C277.025 68.0822 276.673 68.1462 276.177 68.1462ZM284.347 82.4262C283.931 82.4262 283.491 82.3782 283.027 82.2822C282.563 82.2022 282.115 82.0822 281.683 81.9222C281.251 81.7462 280.875 81.5462 280.555 81.3222C280.251 81.0822 280.059 80.8182 279.979 80.5302C279.915 80.3702 279.891 80.2182 279.907 80.0742C279.923 79.9142 279.971 79.7542 280.051 79.5942C280.131 79.4182 280.251 79.2422 280.411 79.0662C280.555 78.8902 280.699 78.7942 280.843 78.7782C281.003 78.7462 281.203 78.7942 281.443 78.9222C281.651 79.0022 281.875 79.1062 282.115 79.2342C282.371 79.3622 282.627 79.4902 282.883 79.6182C283.155 79.7462 283.427 79.8502 283.699 79.9302C283.987 80.0102 284.267 80.0502 284.539 80.0502C285.131 80.0502 285.603 79.9542 285.955 79.7622C286.307 79.5542 286.483 79.2662 286.483 78.8982C286.483 78.6902 286.427 78.5062 286.315 78.3462C286.203 78.1862 286.051 78.0582 285.859 77.9622C285.683 77.8502 285.467 77.7542 285.211 77.6742C284.971 77.5782 284.707 77.4982 284.419 77.4342C284.147 77.3542 283.859 77.2662 283.555 77.1702C283.155 77.0582 282.755 76.9222 282.355 76.7622C281.955 76.6022 281.595 76.3942 281.275 76.1382C280.971 75.8822 280.723 75.5622 280.531 75.1782C280.339 74.7942 280.243 74.3142 280.243 73.7382C280.243 73.0182 280.411 72.4102 280.747 71.9142C281.099 71.4022 281.603 71.0102 282.259 70.7382C282.915 70.4662 283.707 70.3302 284.635 70.3302C284.955 70.3302 285.259 70.3542 285.547 70.4022C285.851 70.4502 286.139 70.5222 286.411 70.6182C286.699 70.6982 286.971 70.8022 287.227 70.9302C287.499 71.0582 287.755 71.2022 287.995 71.3622C288.395 71.5862 288.603 71.8502 288.619 72.1542C288.635 72.4422 288.523 72.7542 288.283 73.0902C288.107 73.3142 287.931 73.4742 287.755 73.5702C287.579 73.6502 287.395 73.6502 287.203 73.5702C286.947 73.4422 286.667 73.3062 286.363 73.1622C286.075 73.0022 285.771 72.8662 285.451 72.7542C285.147 72.6422 284.827 72.5862 284.491 72.5862C284.171 72.5862 283.883 72.6342 283.627 72.7302C283.371 72.8262 283.179 72.9622 283.051 73.1382C282.923 73.3142 282.859 73.5222 282.859 73.7622C282.859 73.9862 282.923 74.1702 283.051 74.3142C283.179 74.4582 283.347 74.5782 283.555 74.6742C283.763 74.7702 284.011 74.8582 284.299 74.9382C284.587 75.0022 284.891 75.0662 285.211 75.1302C285.659 75.2262 286.115 75.3462 286.579 75.4902C287.043 75.6342 287.467 75.8342 287.851 76.0902C288.251 76.3462 288.571 76.6902 288.811 77.1222C289.051 77.5382 289.171 78.0822 289.171 78.7542C289.171 79.9222 288.739 80.8262 287.875 81.4662C287.027 82.1062 285.851 82.4262 284.347 82.4262ZM292.795 82.2822C292.363 82.2822 292.043 82.2102 291.835 82.0662C291.627 81.9382 291.499 81.7702 291.451 81.5622C291.403 81.3382 291.379 81.0902 291.379 80.8182V71.8902C291.379 71.6342 291.403 71.4022 291.451 71.1942C291.515 70.9702 291.643 70.7942 291.835 70.6662C292.043 70.5382 292.371 70.4742 292.819 70.4742C293.267 70.4742 293.587 70.5382 293.779 70.6662C293.987 70.7942 294.115 70.9702 294.163 71.1942C294.211 71.4182 294.235 71.6662 294.235 71.9382V80.8422C294.235 81.1142 294.211 81.3622 294.163 81.5862C294.115 81.7942 293.987 81.9622 293.779 82.0902C293.587 82.2182 293.259 82.2822 292.795 82.2822ZM292.795 68.1462C292.331 68.1462 291.987 68.0822 291.763 67.9542C291.555 67.8102 291.419 67.6182 291.355 67.3782C291.307 67.1382 291.283 66.8742 291.283 66.5862C291.283 66.2822 291.307 66.0182 291.355 65.7942C291.419 65.5702 291.563 65.3942 291.787 65.2662C292.011 65.1222 292.355 65.0502 292.819 65.0502C293.299 65.0502 293.643 65.1222 293.851 65.2662C294.059 65.4102 294.195 65.6022 294.259 65.8422C294.323 66.0662 294.355 66.3302 294.355 66.6342C294.355 66.9062 294.323 67.1622 294.259 67.4022C294.195 67.6422 294.059 67.8262 293.851 67.9542C293.643 68.0822 293.291 68.1462 292.795 68.1462ZM306.268 79.6902C306.684 80.0422 306.9 80.3702 306.916 80.6742C306.948 80.9782 306.788 81.3302 306.436 81.7302C306.164 82.0342 305.924 82.2342 305.716 82.3302C305.508 82.4262 305.3 82.4262 305.092 82.3302C304.884 82.2502 304.636 82.0902 304.348 81.8502L299.764 77.9862V80.8422C299.764 81.0982 299.732 81.3382 299.668 81.5622C299.62 81.7862 299.492 81.9622 299.284 82.0902C299.092 82.2182 298.772 82.2822 298.324 82.2822C297.876 82.2822 297.548 82.2102 297.34 82.0662C297.148 81.9382 297.028 81.7622 296.98 81.5382C296.932 81.3142 296.908 81.0742 296.908 80.8182V66.4902C296.908 66.2182 296.932 65.9782 296.98 65.7702C297.044 65.5462 297.172 65.3702 297.364 65.2422C297.572 65.0982 297.9 65.0262 298.348 65.0262C298.796 65.0262 299.116 65.0982 299.308 65.2422C299.5 65.3702 299.62 65.5462 299.668 65.7702C299.732 65.9782 299.764 66.2262 299.764 66.5142V74.3862L303.076 71.1702C303.332 70.9302 303.572 70.7702 303.796 70.6902C304.02 70.5942 304.236 70.5862 304.444 70.6662C304.668 70.7302 304.9 70.8982 305.14 71.1702C305.54 71.6022 305.732 71.9622 305.716 72.2502C305.7 72.5222 305.5 72.8502 305.116 73.2342L301.876 76.2342L306.268 79.6902Z" fill="black"/>
</svg>
