<svg width="400" height="120" viewBox="0 0 400 120" fill="none" xmlns="http://www.w3.org/2000/svg">
<mask id="mask0_62_2514" style="mask-type:luminance" maskUnits="userSpaceOnUse" x="0" y="0" width="400" height="120">
<path d="M400 0H0V120H400V0Z" fill="white"/>
</mask>
<g mask="url(#mask0_62_2514)">
<mask id="mask1_62_2514" style="mask-type:luminance" maskUnits="userSpaceOnUse" x="9" y="9" width="388" height="111">
<path d="M9.33838 9.33325H396.887V119.354H9.33838V9.33325Z" fill="white"/>
</mask>
<g mask="url(#mask1_62_2514)">
<path d="M15.789 72.3853L12.3965 62.3593L17.7893 51.8749L13.0349 41.3958L9.77612 30.9114L12.1047 19.3541L26.2584 18.2343L39.1779 15.5937L52.3406 21.4739L65.1142 13.7499L78.3376 21.7083L91.2267 17.9635L104.365 22.901L117.358 22.677L130.405 24.3437L143.318 21.4218L155.618 17.1093L167.972 14.5624L180.326 12.0989L192.783 13.2135L205.32 17.1249L217.838 20.3437L230.253 20.0728L242.4 10.3072L255.064 18.6874L267.503 19.1718L279.742 12.4791L292.084 9.53638L304.906 12.9062L318.19 14.7655L328.447 23.3958L341.367 25.4062L352.316 32.3385L368.294 26.7083L380.204 31.2239L396.346 37.177L387.475 50.3385L387.159 62.0937L374.361 69.8593L369.875 80.2812L373.796 93.3957L367.57 103.266L364.391 115.974L345.853 109.745L333.335 117.432L320.227 109.989L307.782 119.823L294.631 110.969L281.864 112.432L269.005 111.359L256.444 118.932L243.555 117.01L230.824 121.224L218.355 114.521L205.222 119.724L193.081 116.047L180.727 115.328L168.306 115.838L155.903 115.969L143.829 110.542L131.396 111.203L119.346 105.146L106.274 116.76L94.5645 104.833L81.5599 115.427L69.6375 107.245L57.5023 102.453L44.6436 110.724L27.2615 111.552L29.4685 98.1405L22.7929 90.2291L11.0103 83.578L15.789 72.3853Z" fill="black"/>
<path d="M15.789 72.3853L12.3965 62.3593L17.7893 51.8749L13.0349 41.3958L9.77612 30.9114L12.1047 19.3541L26.2584 18.2343L39.1779 15.5937L52.3406 21.4739L65.1142 13.7499L78.3376 21.7083L91.2267 17.9635L104.365 22.901L117.358 22.677L130.405 24.3437L143.318 21.4218L155.618 17.1093L167.972 14.5624L180.326 12.0989L192.783 13.2135L205.32 17.1249L217.838 20.3437L230.253 20.0728L242.4 10.3072L255.064 18.6874L267.503 19.1718L279.742 12.4791L292.084 9.53638L304.906 12.9062L318.19 14.7655L328.447 23.3958L341.367 25.4062L352.316 32.3385L368.294 26.7083L380.204 31.2239L396.346 37.177L387.475 50.3385L387.159 62.0937L374.361 69.8593L369.875 80.2812L373.796 93.3957L367.57 103.266L364.391 115.974L345.853 109.745L333.335 117.432L320.227 109.989L307.782 119.823L294.631 110.969L281.864 112.432L269.005 111.359L256.444 118.932L243.555 117.01L230.824 121.224L218.355 114.521L205.222 119.724L193.081 116.047L180.727 115.328L168.306 115.838L155.903 115.969L143.829 110.542L131.396 111.203L119.346 105.146L106.274 116.76L94.5645 104.833L81.5599 115.427L69.6375 107.245L57.5023 102.453L44.6436 110.724L27.2615 111.552L29.4685 98.1405L22.7929 90.2291L11.0103 83.578L15.789 72.3853Z" fill="black"/>
</g>
<mask id="mask2_62_2514" style="mask-type:luminance" maskUnits="userSpaceOnUse" x="7" y="7" width="391" height="113">
<path d="M7.78198 7.99988H397.586V119.354H7.78198V7.99988Z" fill="white"/>
</mask>
<g mask="url(#mask2_62_2514)">
<path d="M230.739 121.984L218.3 115.307L205.265 120.474L192.917 116.734L180.721 115.99L168.342 116.495L155.715 116.63L143.653 111.203L131.207 111.885L119.485 105.995L106.238 117.766L94.5037 105.812L81.6085 116.328L69.2058 107.849L57.6056 103.26L44.9111 111.401L26.3131 112.286L28.6355 98.3489L22.1971 90.7239L10.0497 83.8489L14.9561 72.3645L11.5575 62.3124L16.932 51.8541L12.2627 41.5728L8.95532 30.9426L11.4237 18.7291L26.1671 17.5572L39.2812 14.901L52.2737 20.703L65.1141 12.9166L78.4653 20.953L91.2632 17.2291L104.523 22.2135L117.406 21.9895L130.356 23.6562L143.051 20.776L155.423 16.4426L167.765 13.8958L180.259 11.4166L193.038 12.5728L205.569 16.4843L217.941 19.651L229.931 19.3958L242.345 9.40617L255.356 18.0103L267.26 18.4687L279.383 11.8489L292.078 8.81763L305.076 12.2083L318.561 14.0937L328.83 22.7291L341.683 24.7239L352.414 31.5103L368.282 25.9218L380.514 30.552L397.483 36.8489L388.272 50.526L387.962 62.453L375.03 70.2968L370.714 80.3228L374.678 93.4843L368.33 103.505L364.95 116.906L345.951 110.516L333.335 118.26L320.294 110.854L307.824 120.74L294.413 111.703L281.882 113.146L269.188 112.078L256.627 119.651L243.634 117.719L230.739 121.984ZM218.415 113.75L230.915 120.463L243.47 116.307L256.256 118.213L268.792 110.656L281.852 111.755L294.856 110.255L307.739 118.932L320.148 109.13L333.317 116.594L345.744 108.969L363.801 115.031L366.816 103.016L372.951 93.2968L369.048 80.2343L373.681 69.427L386.375 61.7135L386.685 50.1822L395.215 37.4947L379.894 31.8645L368.276 27.4583L352.201 33.1249L341.038 26.0468L328.064 24.0155L317.807 15.3958L304.651 13.5468L292.054 10.2291L280.058 13.1093L267.704 19.8958L254.76 19.3958L242.437 11.2499L230.532 20.7916L217.68 21.078L205.04 17.828L192.601 13.8853L180.374 12.7916L168.184 15.2291L155.867 17.7499L143.525 22.078L130.453 25.0364L117.303 23.3541L104.207 23.5885L91.2267 18.6926L78.216 22.4687L65.1141 14.578L52.4196 22.2708L39.0927 16.3124L26.3313 18.9062L12.7856 19.9843L10.5847 30.8801L13.7948 41.1822L18.6526 51.8905L13.2476 62.3905L16.6462 72.4114L11.9952 83.3072L23.3705 89.7239L30.3135 97.9687L28.1978 110.823L44.376 110.057L57.4232 101.667L70.1178 106.708L81.5113 114.521L94.6192 103.844L106.298 115.745L119.194 104.286L131.572 110.516L143.987 109.833L156.08 115.26L168.282 115.135L180.721 114.62L193.227 115.349L205.125 118.958L218.415 113.75Z" fill="black"/>
</g>
<mask id="mask3_62_2514" style="mask-type:luminance" maskUnits="userSpaceOnUse" x="3" y="1" width="388" height="113">
<path d="M3.11279 1.08325H390.661V113.333H3.11279V1.08325Z" fill="white"/>
</mask>
<g mask="url(#mask3_62_2514)">
<path d="M9.78237 63.3954L6.39594 53.3642L11.7826 42.8798L7.02824 32.4006L3.75732 21.9163L6.09804 10.3642L20.2457 9.23918L33.1712 6.60376L46.3339 12.4788L59.1075 4.7548L72.3249 12.7183L85.2201 8.96313L98.3585 13.9111L111.345 13.6819L124.398 15.359L137.312 12.4319L149.611 8.10897L161.965 5.5673L174.319 3.10897L186.777 4.22355L199.313 8.1298L211.825 11.3486L224.246 11.0777L236.387 1.31209L249.058 9.69751L261.497 10.1819L273.735 3.48918L286.077 0.54126L298.9 3.91626L312.184 5.77043L322.44 14.4058L335.36 16.4163L346.31 23.3433L362.281 17.7131L374.197 22.2288L390.339 28.1767L381.469 41.3486L381.153 53.1038L368.355 60.8642L363.868 71.2913L367.796 84.4006L361.564 94.2704L358.378 106.979L339.847 100.755L327.329 108.442L314.221 101L301.775 110.833L288.619 101.974L275.851 103.442L262.999 102.364L250.432 109.937L237.549 108.026L224.818 112.234L212.348 105.526L199.216 110.729L187.068 107.062L174.726 106.333L162.299 106.849L149.897 106.979L137.822 101.546L125.389 102.208L113.339 96.1558L100.268 107.765L88.5579 95.8433L75.5533 106.427L63.6248 98.2444L51.5017 93.4579L38.6369 101.734L21.2488 102.557L23.4618 89.1506L16.7863 81.234L5.00368 74.5829L9.78237 63.3954Z" fill="white"/>
</g>
<mask id="mask4_62_2514" style="mask-type:luminance" maskUnits="userSpaceOnUse" x="0" y="1" width="396" height="115">
<path d="M0.674805 1.08337H395.331V116H0.674805V1.08337Z" fill="white"/>
</mask>
<g mask="url(#mask4_62_2514)">
<path d="M224.52 115.01L212.147 108.365L199.386 113.422L186.491 109.521L174.708 108.844L162.348 109.349L149.21 109.49L137.202 104.063L124.69 104.74L113.862 99.3126L100.146 111.526L88.3389 99.5105L75.7234 109.745L62.0743 100.385L51.8542 96.3542L39.6521 104.182L17.8318 105.214L20.3732 89.7917L14.7007 83.0626L1.44077 75.599L6.68153 63.3282L3.30118 53.1875L8.62097 42.8282L4.20099 33.0417L0.778076 22.0313L3.61125 8.05733L19.7713 6.76046L33.5541 3.95837L46.1027 9.56254L59.1013 1.69796L72.7929 9.94275L85.3537 6.29171L98.942 11.4011L111.539 11.1823L124.234 12.8125L136.381 10.0573L148.705 5.72921L161.284 3.14587L174.13 0.578167L187.433 1.77608L200.231 5.76567L212.22 8.84379L223.06 8.60421L236.205 -1.9635L250.115 7.23442L260.706 7.65108L272.525 1.18233L286.12 -2.05725L299.568 1.48442L313.564 3.43754L323.875 12.0886L336.57 14.0625L346.705 20.5L362.311 14.9948L375.365 19.948L394.492 27L384.369 42.0417L384.04 54.4115L370.787 62.4532L366.92 71.4219L370.89 84.724L364.318 95.1459L360.494 110.38L340.248 103.594L327.377 111.495L314.5 104.182L301.909 114.13L287.767 104.63L275.869 105.99L263.752 104.979L251.058 112.609L237.767 110.635L224.52 115.01ZM212.561 102.693L225.128 109.474L237.214 105.448L249.708 107.302L262.172 99.7917L275.772 100.932L289.427 99.3594L301.593 107.557L313.886 97.8334L327.231 105.412L339.403 97.948L356.226 103.589L358.779 93.4115L364.683 84.1042L360.816 71.2136L365.929 59.3334L378.277 51.8698L378.569 40.6823L386.174 29.3959L373.036 24.5573L362.238 20.4844L345.908 26.1823L334.168 18.7605L321.036 16.7292L310.791 8.11983L298.237 6.35421L286.041 3.14587L274.933 5.79171L262.293 12.7032L248.012 12.1563L236.576 4.58858L225.432 13.5469L211.436 13.849L198.31 10.4584L186.108 6.65108L174.532 5.63546L162.634 8.00525L150.517 10.4948L138.242 14.8021L124.55 17.9011L111.156 16.1823L97.7625 16.4167L85.068 11.6667L71.8688 15.4844L59.1074 7.80733L46.5648 15.3959L32.782 9.24483L20.7197 11.7084L8.59058 12.6719L6.74233 21.8073L9.80653 31.625L14.9379 42.9428L9.50254 53.573L12.8647 63.5209L8.53586 73.5886L18.8471 79.4063L26.5198 88.5053L24.6412 99.8959L37.5971 99.2865L51.1489 90.5678L65.175 96.1094L75.3586 103.099L88.7949 92.2448L100.419 104.068L112.828 93.0365L126.137 99.7084L138.497 99.0261L150.602 104.453L162.214 104.333L174.757 103.818L187.67 104.568L199.064 108.016L212.561 102.693Z" fill="black"/>
<path d="M224.52 115.01L212.147 108.365L199.386 113.422L186.491 109.521L174.708 108.844L162.348 109.349L149.21 109.49L137.202 104.063L124.69 104.74L113.862 99.3126L100.146 111.526L88.3389 99.5105L75.7234 109.745L62.0743 100.385L51.8542 96.3542L39.6521 104.182L17.8318 105.214L20.3732 89.7917L14.7007 83.0626L1.44077 75.599L6.68153 63.3282L3.30118 53.1875L8.62097 42.8282L4.20099 33.0417L0.778076 22.0313L3.61125 8.05733L19.7713 6.76046L33.5541 3.95837L46.1027 9.56254L59.1013 1.69796L72.7929 9.94275L85.3537 6.29171L98.942 11.4011L111.539 11.1823L124.234 12.8125L136.381 10.0573L148.705 5.72921L161.284 3.14587L174.13 0.578167L187.433 1.77608L200.231 5.76567L212.22 8.84379L223.06 8.60421L236.205 -1.9635L250.115 7.23442L260.706 7.65108L272.525 1.18233L286.12 -2.05725L299.568 1.48442L313.564 3.43754L323.875 12.0886L336.57 14.0625L346.705 20.5L362.311 14.9948L375.365 19.948L394.492 27L384.369 42.0417L384.04 54.4115L370.787 62.4532L366.92 71.4219L370.89 84.724L364.318 95.1459L360.494 110.38L340.248 103.594L327.377 111.495L314.5 104.182L301.909 114.13L287.767 104.63L275.869 105.99L263.752 104.979L251.058 112.609L237.767 110.635L224.52 115.01ZM212.561 102.693L225.128 109.474L237.214 105.448L249.708 107.302L262.172 99.7917L275.772 100.932L289.427 99.3594L301.593 107.557L313.886 97.8334L327.231 105.412L339.403 97.948L356.226 103.589L358.779 93.4115L364.683 84.1042L360.816 71.2136L365.929 59.3334L378.277 51.8698L378.569 40.6823L386.174 29.3959L373.036 24.5573L362.238 20.4844L345.908 26.1823L334.168 18.7605L321.036 16.7292L310.791 8.11983L298.237 6.35421L286.041 3.14587L274.933 5.79171L262.293 12.7032L248.012 12.1563L236.576 4.58858L225.432 13.5469L211.436 13.849L198.31 10.4584L186.108 6.65108L174.532 5.63546L162.634 8.00525L150.517 10.4948L138.242 14.8021L124.55 17.9011L111.156 16.1823L97.7625 16.4167L85.068 11.6667L71.8688 15.4844L59.1074 7.80733L46.5648 15.3959L32.782 9.24483L20.7197 11.7084L8.59058 12.6719L6.74233 21.8073L9.80653 31.625L14.9379 42.9428L9.50254 53.573L12.8647 63.5209L8.53586 73.5886L18.8471 79.4063L26.5198 88.5053L24.6412 99.8959L37.5971 99.2865L51.1489 90.5678L65.175 96.1094L75.3586 103.099L88.7949 92.2448L100.419 104.068L112.828 93.0365L126.137 99.7084L138.497 99.0261L150.602 104.453L162.214 104.333L174.757 103.818L187.67 104.568L199.064 108.016L212.561 102.693Z" fill="black"/>
</g>
</g>
<path d="M48.7059 53.2582C48.2579 53.2582 47.9299 53.1942 47.7219 53.0662C47.5139 52.9382 47.3859 52.7622 47.3379 52.5382C47.2899 52.2982 47.2659 52.0502 47.2659 51.7942V37.9462C47.2659 37.6902 47.2899 37.4582 47.3379 37.2502C47.4019 37.0262 47.5379 36.8502 47.7459 36.7222C47.9539 36.5782 48.2819 36.5062 48.7299 36.5062H53.8179C54.5219 36.5062 55.2099 36.6262 55.8819 36.8662C56.5539 37.1062 57.1539 37.4662 57.6819 37.9462C58.2259 38.4262 58.6499 39.0182 58.9539 39.7222C59.2739 40.4262 59.4339 41.2502 59.4339 42.1942C59.4339 43.1222 59.2739 43.9382 58.9539 44.6422C58.6499 45.3302 58.2259 45.9142 57.6819 46.3942C57.1379 46.8742 56.5299 47.2342 55.8579 47.4742C55.2019 47.7142 54.5139 47.8342 53.7939 47.8342H50.1699V51.8182C50.1699 52.0742 50.1379 52.3142 50.0739 52.5382C50.0259 52.7622 49.8979 52.9382 49.6899 53.0662C49.4979 53.1942 49.1699 53.2582 48.7059 53.2582ZM50.1699 44.9062H53.8179C54.3139 44.9062 54.7619 44.8102 55.1619 44.6182C55.5779 44.4102 55.9139 44.1062 56.1699 43.7062C56.4259 43.2902 56.5539 42.7702 56.5539 42.1462C56.5539 41.5862 56.4339 41.1062 56.1939 40.7062C55.9699 40.2902 55.6499 39.9702 55.2339 39.7462C54.8339 39.5222 54.3539 39.4102 53.7939 39.4102H50.1699V44.9062ZM67.2011 53.4262C66.1611 53.4262 65.2491 53.2582 64.4651 52.9222C63.6971 52.5862 63.0491 52.1302 62.5211 51.5542C62.0091 50.9622 61.6171 50.3062 61.3451 49.5862C61.0891 48.8502 60.9611 48.0902 60.9611 47.3062C60.9611 46.1542 61.2251 45.1302 61.7531 44.2342C62.2811 43.3382 63.0091 42.6342 63.9371 42.1222C64.8811 41.6102 65.9611 41.3542 67.1771 41.3542C68.0411 41.3542 68.8011 41.4902 69.4571 41.7622C70.1131 42.0342 70.6571 42.3942 71.0891 42.8422C71.5371 43.2742 71.8731 43.7542 72.0971 44.2822C72.3371 44.8102 72.4571 45.3222 72.4571 45.8182C72.4571 46.6662 72.2491 47.2822 71.8331 47.6662C71.4331 48.0502 70.9291 48.2422 70.3211 48.2422H63.9851C64.0011 48.7862 64.1691 49.2582 64.4891 49.6582C64.8251 50.0582 65.2411 50.3702 65.7371 50.5942C66.2491 50.8022 66.7691 50.9062 67.2971 50.9062C67.6971 50.9062 68.0491 50.8822 68.3531 50.8342C68.6731 50.7862 68.9451 50.7302 69.1691 50.6662C69.3931 50.5862 69.5851 50.5062 69.7451 50.4262C69.9211 50.3462 70.0811 50.2742 70.2251 50.2102C70.3691 50.1462 70.5051 50.1062 70.6331 50.0902C70.8091 50.0742 70.9851 50.1142 71.1611 50.2102C71.3371 50.3062 71.4811 50.4742 71.5931 50.7142C71.6891 50.8742 71.7531 51.0262 71.7851 51.1702C71.8331 51.2982 71.8571 51.4262 71.8571 51.5542C71.8571 51.8742 71.6651 52.1782 71.2811 52.4662C70.8971 52.7382 70.3531 52.9622 69.6491 53.1382C68.9611 53.3302 68.1451 53.4262 67.2011 53.4262ZM63.9851 46.5382H68.9051C69.1771 46.5382 69.3851 46.4982 69.5291 46.4182C69.6731 46.3222 69.7451 46.1302 69.7451 45.8422C69.7451 45.4742 69.6331 45.1462 69.4091 44.8582C69.1851 44.5542 68.8811 44.3222 68.4971 44.1622C68.1131 43.9862 67.6651 43.8982 67.1531 43.8982C66.5611 43.8982 66.0251 44.0182 65.5451 44.2582C65.0651 44.4822 64.6811 44.7942 64.3931 45.1942C64.1211 45.5942 63.9851 46.0422 63.9851 46.5382ZM75.8426 53.2582C75.4106 53.2582 75.0906 53.1862 74.8826 53.0422C74.6906 52.9142 74.5706 52.7462 74.5226 52.5382C74.4746 52.3142 74.4506 52.0662 74.4506 51.7942V42.8182C74.4506 42.5622 74.4746 42.3302 74.5226 42.1222C74.5706 41.9142 74.6986 41.7542 74.9066 41.6422C75.1146 41.5142 75.4346 41.4502 75.8666 41.4502C76.2506 41.4502 76.5386 41.4982 76.7306 41.5942C76.9226 41.6902 77.0506 41.8102 77.1146 41.9542C77.1786 42.0982 77.2106 42.2422 77.2106 42.3862C77.2266 42.5302 77.2426 42.6422 77.2586 42.7222L77.1626 43.4902C77.2586 43.2342 77.4186 42.9862 77.6426 42.7462C77.8666 42.5062 78.1386 42.2902 78.4586 42.0982C78.7786 41.8902 79.1226 41.7302 79.4906 41.6182C79.8746 41.4902 80.2666 41.4262 80.6666 41.4262C81.4186 41.4262 82.0906 41.5622 82.6826 41.8342C83.2746 42.1062 83.7786 42.4902 84.1946 42.9862C84.6266 43.4822 84.9546 44.0742 85.1786 44.7622C85.4026 45.4342 85.5146 46.1942 85.5146 47.0422V51.8182C85.5146 52.0902 85.4826 52.3382 85.4186 52.5622C85.3706 52.7702 85.2506 52.9382 85.0586 53.0662C84.8666 53.1942 84.5386 53.2582 84.0746 53.2582C83.6266 53.2582 83.2986 53.1862 83.0906 53.0422C82.8826 52.9142 82.7546 52.7462 82.7066 52.5382C82.6586 52.3142 82.6346 52.0662 82.6346 51.7942V47.0182C82.6346 46.4422 82.5306 45.9462 82.3226 45.5302C82.1306 45.1142 81.8426 44.7942 81.4586 44.5702C81.0906 44.3462 80.6186 44.2342 80.0426 44.2342C79.4826 44.2342 78.9946 44.3542 78.5786 44.5942C78.1626 44.8182 77.8426 45.1382 77.6186 45.5542C77.3946 45.9702 77.2826 46.4582 77.2826 47.0182V51.8182C77.2826 52.0902 77.2586 52.3382 77.2106 52.5622C77.1626 52.7702 77.0346 52.9382 76.8266 53.0662C76.6346 53.1942 76.3066 53.2582 75.8426 53.2582ZM90.1057 58.0102C89.5937 57.7862 89.2977 57.5302 89.2177 57.2422C89.1377 56.9702 89.2097 56.6022 89.4337 56.1382L95.6257 42.2662C95.8497 41.7542 96.0897 41.4502 96.3457 41.3542C96.6017 41.2422 96.9937 41.2982 97.5217 41.5222C98.0177 41.7462 98.3057 41.9942 98.3857 42.2662C98.4817 42.5382 98.4257 42.9062 98.2177 43.3702L91.9777 57.3142C91.7697 57.8262 91.5377 58.1222 91.2817 58.2022C91.0257 58.2982 90.6337 58.2342 90.1057 58.0102ZM92.3377 52.1302L86.7937 43.6102C86.5057 43.1782 86.3857 42.8182 86.4337 42.5302C86.4977 42.2422 86.7537 41.9622 87.2017 41.6902C87.6977 41.3862 88.0817 41.2662 88.3537 41.3302C88.6417 41.3942 88.9297 41.6502 89.2177 42.0982L93.6097 48.9382L92.3377 52.1302ZM105.873 53.4262C104.833 53.4262 103.921 53.2582 103.137 52.9222C102.369 52.5862 101.721 52.1302 101.193 51.5542C100.681 50.9622 100.289 50.3062 100.017 49.5862C99.7609 48.8502 99.6329 48.0902 99.6329 47.3062C99.6329 46.1542 99.8969 45.1302 100.425 44.2342C100.953 43.3382 101.681 42.6342 102.609 42.1222C103.553 41.6102 104.633 41.3542 105.849 41.3542C106.713 41.3542 107.473 41.4902 108.129 41.7622C108.785 42.0342 109.329 42.3942 109.761 42.8422C110.209 43.2742 110.545 43.7542 110.769 44.2822C111.009 44.8102 111.129 45.3222 111.129 45.8182C111.129 46.6662 110.921 47.2822 110.505 47.6662C110.105 48.0502 109.601 48.2422 108.993 48.2422H102.657C102.673 48.7862 102.841 49.2582 103.161 49.6582C103.497 50.0582 103.913 50.3702 104.409 50.5942C104.921 50.8022 105.441 50.9062 105.969 50.9062C106.369 50.9062 106.721 50.8822 107.025 50.8342C107.345 50.7862 107.617 50.7302 107.841 50.6662C108.065 50.5862 108.257 50.5062 108.417 50.4262C108.593 50.3462 108.753 50.2742 108.897 50.2102C109.041 50.1462 109.177 50.1062 109.305 50.0902C109.481 50.0742 109.657 50.1142 109.833 50.2102C110.009 50.3062 110.153 50.4742 110.265 50.7142C110.361 50.8742 110.425 51.0262 110.457 51.1702C110.505 51.2982 110.529 51.4262 110.529 51.5542C110.529 51.8742 110.337 52.1782 109.953 52.4662C109.569 52.7382 109.025 52.9622 108.321 53.1382C107.633 53.3302 106.817 53.4262 105.873 53.4262ZM102.657 46.5382H107.577C107.849 46.5382 108.057 46.4982 108.201 46.4182C108.345 46.3222 108.417 46.1302 108.417 45.8422C108.417 45.4742 108.305 45.1462 108.081 44.8582C107.857 44.5542 107.553 44.3222 107.169 44.1622C106.785 43.9862 106.337 43.8982 105.825 43.8982C105.233 43.8982 104.697 44.0182 104.217 44.2582C103.737 44.4822 103.353 44.7942 103.065 45.1942C102.793 45.5942 102.657 46.0422 102.657 46.5382ZM119.266 53.2582C118.482 53.2582 117.778 53.1062 117.154 52.8022C116.546 52.4822 116.026 52.0502 115.594 51.5062C115.178 50.9622 114.858 50.3382 114.634 49.6342C114.426 48.9142 114.322 48.1462 114.322 47.3302C114.338 46.5142 114.458 45.7542 114.682 45.0502C114.906 44.3302 115.226 43.7062 115.642 43.1782C116.074 42.6342 116.594 42.2102 117.202 41.9062C117.81 41.6022 118.498 41.4502 119.266 41.4502C120.002 41.4502 120.69 41.6022 121.33 41.9062C121.986 42.2102 122.562 42.6342 123.058 43.1782C123.57 43.7062 123.97 44.3302 124.258 45.0502C124.546 45.7542 124.69 46.5062 124.69 47.3062C124.69 48.1382 124.546 48.9222 124.258 49.6582C123.97 50.3782 123.578 51.0102 123.082 51.5542C122.586 52.0822 122.01 52.4982 121.354 52.8022C120.698 53.1062 120.002 53.2582 119.266 53.2582ZM118.882 50.4502C119.442 50.4502 119.946 50.3222 120.394 50.0662C120.842 49.7942 121.194 49.4262 121.45 48.9622C121.722 48.4982 121.858 47.9702 121.858 47.3782C121.858 46.7702 121.722 46.2342 121.45 45.7702C121.194 45.2902 120.842 44.9222 120.394 44.6662C119.946 44.3942 119.442 44.2582 118.882 44.2582C118.338 44.2582 117.842 44.3942 117.394 44.6662C116.946 44.9382 116.586 45.3062 116.314 45.7702C116.058 46.2342 115.93 46.7702 115.93 47.3782C115.93 47.9702 116.058 48.4982 116.314 48.9622C116.586 49.4262 116.946 49.7942 117.394 50.0662C117.842 50.3222 118.338 50.4502 118.882 50.4502ZM114.442 53.2822C114.01 53.2822 113.69 53.2102 113.482 53.0662C113.274 52.9382 113.146 52.7702 113.098 52.5622C113.05 52.3382 113.026 52.0902 113.026 51.8182V37.5142C113.026 37.2422 113.05 37.0022 113.098 36.7942C113.146 36.5702 113.274 36.3942 113.482 36.2662C113.69 36.1382 114.01 36.0742 114.442 36.0742C114.89 36.0742 115.21 36.1382 115.402 36.2662C115.594 36.3942 115.714 36.5702 115.762 36.7942C115.81 37.0182 115.834 37.2582 115.834 37.5142V52.2982C115.77 52.6502 115.634 52.8982 115.426 53.0422C115.234 53.2022 114.906 53.2822 114.442 53.2822ZM136.462 53.2342C135.998 53.2342 135.654 53.1462 135.43 52.9702C135.206 52.7942 135.094 52.5542 135.094 52.2502L135.262 51.4582C135.134 51.6662 134.918 51.9142 134.614 52.2022C134.31 52.4742 133.91 52.7222 133.414 52.9462C132.918 53.1542 132.318 53.2582 131.614 53.2582C130.862 53.2582 130.15 53.1062 129.478 52.8022C128.822 52.4822 128.238 52.0502 127.726 51.5062C127.23 50.9462 126.83 50.3142 126.526 49.6102C126.238 48.8902 126.094 48.1222 126.094 47.3062C126.094 46.5222 126.238 45.7862 126.526 45.0982C126.83 44.3942 127.238 43.7702 127.75 43.2262C128.262 42.6822 128.846 42.2582 129.502 41.9542C130.174 41.6342 130.878 41.4742 131.614 41.4742C132.27 41.4742 132.822 41.5622 133.27 41.7382C133.734 41.9142 134.126 42.1382 134.446 42.4102C134.766 42.6662 135.03 42.9382 135.238 43.2262L135.094 42.5302C135.094 42.1782 135.206 41.9142 135.43 41.7382C135.654 41.5462 136.006 41.4502 136.486 41.4502C136.934 41.4502 137.254 41.5222 137.446 41.6662C137.638 41.7942 137.758 41.9782 137.806 42.2182C137.854 42.4422 137.878 42.6982 137.878 42.9862V51.7702C137.878 52.0422 137.854 52.2902 137.806 52.5142C137.758 52.7382 137.63 52.9142 137.422 53.0422C137.23 53.1702 136.91 53.2342 136.462 53.2342ZM132.046 50.4502C132.59 50.4502 133.078 50.3142 133.51 50.0422C133.942 49.7702 134.286 49.4022 134.542 48.9382C134.814 48.4582 134.95 47.9302 134.95 47.3542C134.95 46.7302 134.814 46.1862 134.542 45.7222C134.27 45.2582 133.91 44.8982 133.462 44.6422C133.03 44.3702 132.542 44.2342 131.998 44.2342C131.406 44.2342 130.878 44.3782 130.414 44.6662C129.95 44.9382 129.582 45.3142 129.31 45.7942C129.054 46.2582 128.926 46.7862 128.926 47.3782C128.926 47.9542 129.062 48.4742 129.334 48.9382C129.606 49.4022 129.974 49.7702 130.438 50.0422C130.918 50.3142 131.454 50.4502 132.046 50.4502ZM146.454 53.2582C145.67 53.2582 144.966 53.1062 144.342 52.8022C143.734 52.4822 143.214 52.0502 142.782 51.5062C142.366 50.9622 142.046 50.3382 141.822 49.6342C141.614 48.9142 141.51 48.1462 141.51 47.3302C141.526 46.5142 141.646 45.7542 141.87 45.0502C142.094 44.3302 142.414 43.7062 142.83 43.1782C143.262 42.6342 143.782 42.2102 144.39 41.9062C144.998 41.6022 145.686 41.4502 146.454 41.4502C147.19 41.4502 147.878 41.6022 148.518 41.9062C149.174 42.2102 149.75 42.6342 150.246 43.1782C150.758 43.7062 151.158 44.3302 151.446 45.0502C151.734 45.7542 151.878 46.5062 151.878 47.3062C151.878 48.1382 151.734 48.9222 151.446 49.6582C151.158 50.3782 150.766 51.0102 150.27 51.5542C149.774 52.0822 149.198 52.4982 148.542 52.8022C147.886 53.1062 147.19 53.2582 146.454 53.2582ZM146.07 50.4502C146.63 50.4502 147.134 50.3222 147.582 50.0662C148.03 49.7942 148.382 49.4262 148.638 48.9622C148.91 48.4982 149.046 47.9702 149.046 47.3782C149.046 46.7702 148.91 46.2342 148.638 45.7702C148.382 45.2902 148.03 44.9222 147.582 44.6662C147.134 44.3942 146.63 44.2582 146.07 44.2582C145.526 44.2582 145.03 44.3942 144.582 44.6662C144.134 44.9382 143.774 45.3062 143.502 45.7702C143.246 46.2342 143.118 46.7702 143.118 47.3782C143.118 47.9702 143.246 48.4982 143.502 48.9622C143.774 49.4262 144.134 49.7942 144.582 50.0662C145.03 50.3222 145.526 50.4502 146.07 50.4502ZM141.63 53.2822C141.198 53.2822 140.878 53.2102 140.67 53.0662C140.462 52.9382 140.334 52.7702 140.286 52.5622C140.238 52.3382 140.214 52.0902 140.214 51.8182V37.5142C140.214 37.2422 140.238 37.0022 140.286 36.7942C140.334 36.5702 140.462 36.3942 140.67 36.2662C140.878 36.1382 141.198 36.0742 141.63 36.0742C142.078 36.0742 142.398 36.1382 142.59 36.2662C142.782 36.3942 142.902 36.5702 142.95 36.7942C142.998 37.0182 143.022 37.2582 143.022 37.5142V52.2982C142.958 52.6502 142.822 52.8982 142.614 53.0422C142.422 53.2022 142.094 53.2822 141.63 53.2822ZM155.46 45.3142C154.852 45.3142 154.428 45.1942 154.188 44.9542C153.948 44.7142 153.828 44.3062 153.828 43.7302C153.828 43.3142 153.876 42.9862 153.972 42.7462C154.084 42.5062 154.26 42.3382 154.5 42.2422C154.74 42.1302 155.06 42.0742 155.46 42.0742C156.068 42.0742 156.484 42.1942 156.708 42.4342C156.948 42.6742 157.068 43.0982 157.068 43.7062C157.068 44.0902 157.02 44.4022 156.924 44.6422C156.828 44.8822 156.66 45.0582 156.42 45.1702C156.18 45.2662 155.86 45.3142 155.46 45.3142ZM155.436 53.2822C154.844 53.2822 154.428 53.1702 154.188 52.9462C153.948 52.7062 153.828 52.2902 153.828 51.6982C153.828 51.2822 153.876 50.9622 153.972 50.7382C154.084 50.4982 154.26 50.3222 154.5 50.2102C154.74 50.0982 155.06 50.0422 155.46 50.0422C156.052 50.0422 156.468 50.1622 156.708 50.4022C156.948 50.6422 157.068 51.0662 157.068 51.6742C157.068 52.0742 157.012 52.3942 156.9 52.6342C156.804 52.8742 156.636 53.0422 156.396 53.1382C156.172 53.2342 155.852 53.2822 155.436 53.2822ZM171.696 53.2582C170.912 53.2582 170.208 53.1062 169.584 52.8022C168.976 52.4822 168.456 52.0502 168.024 51.5062C167.608 50.9622 167.288 50.3382 167.064 49.6342C166.856 48.9142 166.752 48.1462 166.752 47.3302C166.768 46.5142 166.888 45.7542 167.112 45.0502C167.336 44.3302 167.656 43.7062 168.072 43.1782C168.504 42.6342 169.024 42.2102 169.632 41.9062C170.24 41.6022 170.928 41.4502 171.696 41.4502C172.432 41.4502 173.12 41.6022 173.76 41.9062C174.416 42.2102 174.992 42.6342 175.488 43.1782C176 43.7062 176.4 44.3302 176.688 45.0502C176.976 45.7542 177.12 46.5062 177.12 47.3062C177.12 48.1382 176.976 48.9222 176.688 49.6582C176.4 50.3782 176.008 51.0102 175.512 51.5542C175.016 52.0822 174.44 52.4982 173.784 52.8022C173.128 53.1062 172.432 53.2582 171.696 53.2582ZM171.312 50.4502C171.872 50.4502 172.376 50.3222 172.824 50.0662C173.272 49.7942 173.624 49.4262 173.88 48.9622C174.152 48.4982 174.288 47.9702 174.288 47.3782C174.288 46.7702 174.152 46.2342 173.88 45.7702C173.624 45.2902 173.272 44.9222 172.824 44.6662C172.376 44.3942 171.872 44.2582 171.312 44.2582C170.768 44.2582 170.272 44.3942 169.824 44.6662C169.376 44.9382 169.016 45.3062 168.744 45.7702C168.488 46.2342 168.36 46.7702 168.36 47.3782C168.36 47.9702 168.488 48.4982 168.744 48.9622C169.016 49.4262 169.376 49.7942 169.824 50.0662C170.272 50.3222 170.768 50.4502 171.312 50.4502ZM166.872 53.2822C166.44 53.2822 166.12 53.2102 165.912 53.0662C165.704 52.9382 165.576 52.7702 165.528 52.5622C165.48 52.3382 165.456 52.0902 165.456 51.8182V37.5142C165.456 37.2422 165.48 37.0022 165.528 36.7942C165.576 36.5702 165.704 36.3942 165.912 36.2662C166.12 36.1382 166.44 36.0742 166.872 36.0742C167.32 36.0742 167.64 36.1382 167.832 36.2662C168.024 36.3942 168.144 36.5702 168.192 36.7942C168.24 37.0182 168.264 37.2582 168.264 37.5142V52.2982C168.2 52.6502 168.064 52.8982 167.856 53.0422C167.664 53.2022 167.336 53.2822 166.872 53.2822ZM184.182 53.2582C183.446 53.2582 182.766 53.1302 182.142 52.8742C181.534 52.6022 180.998 52.2182 180.534 51.7222C180.07 51.2262 179.71 50.6342 179.454 49.9462C179.198 49.2582 179.07 48.4982 179.07 47.6662V42.8902C179.07 42.6182 179.094 42.3782 179.142 42.1702C179.19 41.9462 179.318 41.7702 179.526 41.6422C179.734 41.5142 180.054 41.4502 180.486 41.4502C180.95 41.4502 181.278 41.5142 181.47 41.6422C181.678 41.7702 181.806 41.9462 181.854 42.1702C181.902 42.3942 181.926 42.6422 181.926 42.9142V47.6662C181.926 48.2422 182.022 48.7382 182.214 49.1542C182.422 49.5702 182.718 49.8982 183.102 50.1382C183.486 50.3622 183.958 50.4742 184.518 50.4742C185.094 50.4742 185.582 50.3622 185.982 50.1382C186.398 49.8982 186.718 49.5702 186.942 49.1542C187.166 48.7222 187.278 48.2262 187.278 47.6662V42.8662C187.278 42.5942 187.302 42.3542 187.35 42.1462C187.398 41.9222 187.526 41.7542 187.734 41.6422C187.942 41.5142 188.27 41.4502 188.718 41.4502C189.166 41.4502 189.486 41.5142 189.678 41.6422C189.87 41.7702 189.99 41.9462 190.038 42.1702C190.102 42.3942 190.134 42.6342 190.134 42.8902V51.8902C190.134 52.1302 190.102 52.3542 190.038 52.5622C189.99 52.7702 189.862 52.9382 189.654 53.0662C189.462 53.1942 189.142 53.2582 188.694 53.2582C188.374 53.2582 188.118 53.2182 187.926 53.1382C187.75 53.0742 187.614 52.9862 187.518 52.8742C187.438 52.7462 187.382 52.6182 187.35 52.4902C187.334 52.3622 187.326 52.2342 187.326 52.1062L187.518 51.4582C187.422 51.6022 187.278 51.7782 187.086 51.9862C186.894 52.1782 186.654 52.3782 186.366 52.5862C186.094 52.7782 185.774 52.9382 185.406 53.0662C185.038 53.1942 184.63 53.2582 184.182 53.2582ZM197.593 53.2582C196.857 53.2582 196.161 53.1062 195.505 52.8022C194.849 52.4982 194.273 52.0822 193.777 51.5542C193.281 51.0102 192.889 50.3782 192.601 49.6582C192.313 48.9222 192.169 48.1382 192.169 47.3062C192.169 46.5062 192.313 45.7542 192.601 45.0502C192.889 44.3302 193.281 43.7062 193.777 43.1782C194.289 42.6342 194.873 42.2102 195.529 41.9062C196.185 41.6022 196.873 41.4502 197.593 41.4502C198.361 41.4502 199.049 41.6022 199.657 41.9062C200.265 42.2102 200.777 42.6342 201.193 43.1782C201.625 43.7062 201.953 44.3302 202.177 45.0502C202.401 45.7542 202.521 46.5142 202.537 47.3302C202.537 48.1462 202.425 48.9142 202.201 49.6342C201.993 50.3382 201.673 50.9622 201.241 51.5062C200.825 52.0502 200.305 52.4822 199.681 52.8022C199.073 53.1062 198.377 53.2582 197.593 53.2582ZM197.977 50.4502C198.537 50.4502 199.033 50.3222 199.465 50.0662C199.913 49.7942 200.265 49.4262 200.521 48.9622C200.793 48.4982 200.929 47.9702 200.929 47.3782C200.929 46.7702 200.793 46.2342 200.521 45.7702C200.265 45.3062 199.913 44.9382 199.465 44.6662C199.033 44.3942 198.537 44.2582 197.977 44.2582C197.417 44.2582 196.913 44.3942 196.465 44.6662C196.017 44.9222 195.657 45.2902 195.385 45.7702C195.129 46.2342 195.001 46.7702 195.001 47.3782C195.001 47.9702 195.129 48.4982 195.385 48.9622C195.657 49.4262 196.017 49.7942 196.465 50.0662C196.929 50.3222 197.433 50.4502 197.977 50.4502ZM202.417 53.2582C201.969 53.2582 201.641 53.1862 201.433 53.0422C201.225 52.8822 201.089 52.6342 201.025 52.2982V37.5142C201.025 37.2422 201.041 37.0022 201.073 36.7942C201.121 36.5702 201.241 36.3942 201.433 36.2662C201.641 36.1222 201.961 36.0502 202.393 36.0502C202.857 36.0502 203.185 36.1142 203.377 36.2422C203.569 36.3702 203.689 36.5462 203.737 36.7702C203.801 36.9782 203.833 37.2182 203.833 37.4902V51.7942C203.833 52.0662 203.809 52.3142 203.761 52.5382C203.713 52.7622 203.585 52.9382 203.377 53.0662C203.185 53.1942 202.865 53.2582 202.417 53.2582ZM215.915 53.2342C215.451 53.2342 215.107 53.1462 214.883 52.9702C214.659 52.7942 214.547 52.5542 214.547 52.2502L214.715 51.4582C214.587 51.6662 214.371 51.9142 214.067 52.2022C213.763 52.4742 213.363 52.7222 212.867 52.9462C212.371 53.1542 211.771 53.2582 211.067 53.2582C210.315 53.2582 209.603 53.1062 208.931 52.8022C208.275 52.4822 207.691 52.0502 207.179 51.5062C206.683 50.9462 206.283 50.3142 205.979 49.6102C205.691 48.8902 205.547 48.1222 205.547 47.3062C205.547 46.5222 205.691 45.7862 205.979 45.0982C206.283 44.3942 206.691 43.7702 207.203 43.2262C207.715 42.6822 208.299 42.2582 208.955 41.9542C209.627 41.6342 210.331 41.4742 211.067 41.4742C211.723 41.4742 212.275 41.5622 212.723 41.7382C213.187 41.9142 213.579 42.1382 213.899 42.4102C214.219 42.6662 214.483 42.9382 214.691 43.2262L214.547 42.5302C214.547 42.1782 214.659 41.9142 214.883 41.7382C215.107 41.5462 215.459 41.4502 215.939 41.4502C216.387 41.4502 216.707 41.5222 216.899 41.6662C217.091 41.7942 217.211 41.9782 217.259 42.2182C217.307 42.4422 217.331 42.6982 217.331 42.9862V51.7702C217.331 52.0422 217.307 52.2902 217.259 52.5142C217.211 52.7382 217.083 52.9142 216.875 53.0422C216.683 53.1702 216.363 53.2342 215.915 53.2342ZM211.499 50.4502C212.043 50.4502 212.531 50.3142 212.963 50.0422C213.395 49.7702 213.739 49.4022 213.995 48.9382C214.267 48.4582 214.403 47.9302 214.403 47.3542C214.403 46.7302 214.267 46.1862 213.995 45.7222C213.723 45.2582 213.363 44.8982 212.915 44.6422C212.483 44.3702 211.995 44.2342 211.451 44.2342C210.859 44.2342 210.331 44.3782 209.867 44.6662C209.403 44.9382 209.035 45.3142 208.763 45.7942C208.507 46.2582 208.379 46.7862 208.379 47.3782C208.379 47.9542 208.515 48.4742 208.787 48.9382C209.059 49.4022 209.427 49.7702 209.891 50.0422C210.371 50.3142 210.907 50.4502 211.499 50.4502ZM222.246 58.0102C221.734 57.7862 221.438 57.5302 221.358 57.2422C221.278 56.9702 221.35 56.6022 221.574 56.1382L227.766 42.2662C227.99 41.7542 228.23 41.4502 228.486 41.3542C228.742 41.2422 229.134 41.2982 229.662 41.5222C230.158 41.7462 230.446 41.9942 230.526 42.2662C230.622 42.5382 230.566 42.9062 230.358 43.3702L224.118 57.3142C223.91 57.8262 223.678 58.1222 223.422 58.2022C223.166 58.2982 222.774 58.2342 222.246 58.0102ZM224.478 52.1302L218.934 43.6102C218.646 43.1782 218.526 42.8182 218.574 42.5302C218.638 42.2422 218.894 41.9622 219.342 41.6902C219.838 41.3862 220.222 41.2662 220.494 41.3302C220.782 41.3942 221.07 41.6502 221.358 42.0982L225.75 48.9382L224.478 52.1302ZM242.142 53.2342C241.678 53.2342 241.334 53.1462 241.11 52.9702C240.886 52.7942 240.774 52.5542 240.774 52.2502L240.942 51.4582C240.814 51.6662 240.598 51.9142 240.294 52.2022C239.99 52.4742 239.59 52.7222 239.094 52.9462C238.598 53.1542 237.998 53.2582 237.294 53.2582C236.542 53.2582 235.83 53.1062 235.158 52.8022C234.502 52.4822 233.918 52.0502 233.406 51.5062C232.91 50.9462 232.51 50.3142 232.206 49.6102C231.918 48.8902 231.774 48.1222 231.774 47.3062C231.774 46.5222 231.918 45.7862 232.206 45.0982C232.51 44.3942 232.918 43.7702 233.43 43.2262C233.942 42.6822 234.526 42.2582 235.182 41.9542C235.854 41.6342 236.558 41.4742 237.294 41.4742C237.95 41.4742 238.502 41.5622 238.95 41.7382C239.414 41.9142 239.806 42.1382 240.126 42.4102C240.446 42.6662 240.71 42.9382 240.918 43.2262L240.774 42.5302C240.774 42.1782 240.886 41.9142 241.11 41.7382C241.334 41.5462 241.686 41.4502 242.166 41.4502C242.614 41.4502 242.934 41.5222 243.126 41.6662C243.318 41.7942 243.438 41.9782 243.486 42.2182C243.534 42.4422 243.558 42.6982 243.558 42.9862V51.7702C243.558 52.0422 243.534 52.2902 243.486 52.5142C243.438 52.7382 243.31 52.9142 243.102 53.0422C242.91 53.1702 242.59 53.2342 242.142 53.2342ZM237.726 50.4502C238.27 50.4502 238.758 50.3142 239.19 50.0422C239.622 49.7702 239.966 49.4022 240.222 48.9382C240.494 48.4582 240.63 47.9302 240.63 47.3542C240.63 46.7302 240.494 46.1862 240.222 45.7222C239.95 45.2582 239.59 44.8982 239.142 44.6422C238.71 44.3702 238.222 44.2342 237.678 44.2342C237.086 44.2342 236.558 44.3782 236.094 44.6662C235.63 44.9382 235.262 45.3142 234.99 45.7942C234.734 46.2582 234.606 46.7862 234.606 47.3782C234.606 47.9542 234.742 48.4742 235.014 48.9382C235.286 49.4022 235.654 49.7702 236.118 50.0422C236.598 50.3142 237.134 50.4502 237.726 50.4502ZM256.023 53.4262C255.607 53.4262 255.167 53.3782 254.703 53.2822C254.239 53.2022 253.791 53.0822 253.359 52.9222C252.927 52.7462 252.551 52.5462 252.231 52.3222C251.927 52.0822 251.735 51.8182 251.655 51.5302C251.591 51.3702 251.567 51.2182 251.583 51.0742C251.599 50.9142 251.647 50.7542 251.727 50.5942C251.807 50.4182 251.927 50.2422 252.087 50.0662C252.231 49.8902 252.375 49.7942 252.519 49.7782C252.679 49.7462 252.879 49.7942 253.119 49.9222C253.327 50.0022 253.551 50.1062 253.791 50.2342C254.047 50.3622 254.303 50.4902 254.559 50.6182C254.831 50.7462 255.103 50.8502 255.375 50.9302C255.663 51.0102 255.943 51.0502 256.215 51.0502C256.807 51.0502 257.279 50.9542 257.631 50.7622C257.983 50.5542 258.159 50.2662 258.159 49.8982C258.159 49.6902 258.103 49.5062 257.991 49.3462C257.879 49.1862 257.727 49.0582 257.535 48.9622C257.359 48.8502 257.143 48.7542 256.887 48.6742C256.647 48.5782 256.383 48.4982 256.095 48.4342C255.823 48.3542 255.535 48.2662 255.231 48.1702C254.831 48.0582 254.431 47.9222 254.031 47.7622C253.631 47.6022 253.271 47.3942 252.951 47.1382C252.647 46.8822 252.399 46.5622 252.207 46.1782C252.015 45.7942 251.919 45.3142 251.919 44.7382C251.919 44.0182 252.087 43.4102 252.423 42.9142C252.775 42.4022 253.279 42.0102 253.935 41.7382C254.591 41.4662 255.383 41.3302 256.311 41.3302C256.631 41.3302 256.935 41.3542 257.223 41.4022C257.527 41.4502 257.815 41.5222 258.087 41.6182C258.375 41.6982 258.647 41.8022 258.903 41.9302C259.175 42.0582 259.431 42.2022 259.671 42.3622C260.071 42.5862 260.279 42.8502 260.295 43.1542C260.311 43.4422 260.199 43.7542 259.959 44.0902C259.783 44.3142 259.607 44.4742 259.431 44.5702C259.255 44.6502 259.071 44.6502 258.879 44.5702C258.623 44.4422 258.343 44.3062 258.039 44.1622C257.751 44.0022 257.447 43.8662 257.127 43.7542C256.823 43.6422 256.503 43.5862 256.167 43.5862C255.847 43.5862 255.559 43.6342 255.303 43.7302C255.047 43.8262 254.855 43.9622 254.727 44.1382C254.599 44.3142 254.535 44.5222 254.535 44.7622C254.535 44.9862 254.599 45.1702 254.727 45.3142C254.855 45.4582 255.023 45.5782 255.231 45.6742C255.439 45.7702 255.687 45.8582 255.975 45.9382C256.263 46.0022 256.567 46.0662 256.887 46.1302C257.335 46.2262 257.791 46.3462 258.255 46.4902C258.719 46.6342 259.143 46.8342 259.527 47.0902C259.927 47.3462 260.247 47.6902 260.487 48.1222C260.727 48.5382 260.847 49.0822 260.847 49.7542C260.847 50.9222 260.415 51.8262 259.551 52.4662C258.703 53.1062 257.527 53.4262 256.023 53.4262ZM268.646 53.4262C267.606 53.4262 266.694 53.2582 265.91 52.9222C265.142 52.5862 264.494 52.1302 263.966 51.5542C263.454 50.9622 263.062 50.3062 262.79 49.5862C262.534 48.8502 262.406 48.0902 262.406 47.3062C262.406 46.1542 262.67 45.1302 263.198 44.2342C263.726 43.3382 264.454 42.6342 265.382 42.1222C266.326 41.6102 267.406 41.3542 268.622 41.3542C269.486 41.3542 270.246 41.4902 270.902 41.7622C271.558 42.0342 272.102 42.3942 272.534 42.8422C272.982 43.2742 273.318 43.7542 273.542 44.2822C273.782 44.8102 273.902 45.3222 273.902 45.8182C273.902 46.6662 273.694 47.2822 273.278 47.6662C272.878 48.0502 272.374 48.2422 271.766 48.2422H265.43C265.446 48.7862 265.614 49.2582 265.934 49.6582C266.27 50.0582 266.686 50.3702 267.182 50.5942C267.694 50.8022 268.214 50.9062 268.742 50.9062C269.142 50.9062 269.494 50.8822 269.798 50.8342C270.118 50.7862 270.39 50.7302 270.614 50.6662C270.838 50.5862 271.03 50.5062 271.19 50.4262C271.366 50.3462 271.526 50.2742 271.67 50.2102C271.814 50.1462 271.95 50.1062 272.078 50.0902C272.254 50.0742 272.43 50.1142 272.606 50.2102C272.782 50.3062 272.926 50.4742 273.038 50.7142C273.134 50.8742 273.198 51.0262 273.23 51.1702C273.278 51.2982 273.302 51.4262 273.302 51.5542C273.302 51.8742 273.11 52.1782 272.726 52.4662C272.342 52.7382 271.798 52.9622 271.094 53.1382C270.406 53.3302 269.59 53.4262 268.646 53.4262ZM265.43 46.5382H270.35C270.622 46.5382 270.83 46.4982 270.974 46.4182C271.118 46.3222 271.19 46.1302 271.19 45.8422C271.19 45.4742 271.078 45.1462 270.854 44.8582C270.63 44.5542 270.326 44.3222 269.942 44.1622C269.558 43.9862 269.11 43.8982 268.598 43.8982C268.006 43.8982 267.47 44.0182 266.99 44.2582C266.51 44.4822 266.126 44.7942 265.838 45.1942C265.566 45.5942 265.43 46.0422 265.43 46.5382ZM285.28 50.6902C285.696 51.0422 285.912 51.3702 285.928 51.6742C285.96 51.9782 285.8 52.3302 285.448 52.7302C285.176 53.0342 284.936 53.2342 284.728 53.3302C284.52 53.4262 284.312 53.4262 284.104 53.3302C283.896 53.2502 283.648 53.0902 283.36 52.8502L278.776 48.9862V51.8422C278.776 52.0982 278.744 52.3382 278.68 52.5622C278.632 52.7862 278.504 52.9622 278.296 53.0902C278.104 53.2182 277.784 53.2822 277.336 53.2822C276.888 53.2822 276.56 53.2102 276.352 53.0662C276.16 52.9382 276.04 52.7622 275.992 52.5382C275.944 52.3142 275.92 52.0742 275.92 51.8182V37.4902C275.92 37.2182 275.944 36.9782 275.992 36.7702C276.056 36.5462 276.184 36.3702 276.376 36.2422C276.584 36.0982 276.912 36.0262 277.36 36.0262C277.808 36.0262 278.128 36.0982 278.32 36.2422C278.512 36.3702 278.632 36.5462 278.68 36.7702C278.744 36.9782 278.776 37.2262 278.776 37.5142V45.3862L282.088 42.1702C282.344 41.9302 282.584 41.7702 282.808 41.6902C283.032 41.5942 283.248 41.5862 283.456 41.6662C283.68 41.7302 283.912 41.8982 284.152 42.1702C284.552 42.6022 284.744 42.9622 284.728 43.2502C284.712 43.5222 284.512 43.8502 284.128 44.2342L280.888 47.2342L285.28 50.6902ZM292.595 53.4262C291.827 53.4262 291.075 53.2822 290.339 52.9942C289.619 52.6902 288.963 52.2662 288.371 51.7222C287.795 51.1782 287.331 50.5382 286.979 49.8022C286.643 49.0662 286.475 48.2582 286.475 47.3782C286.475 46.5302 286.635 45.7382 286.955 45.0022C287.275 44.2662 287.715 43.6182 288.275 43.0582C288.835 42.4982 289.475 42.0662 290.195 41.7622C290.931 41.4422 291.715 41.2822 292.547 41.2822C293.667 41.2822 294.683 41.5542 295.595 42.0982C296.507 42.6262 297.235 43.3462 297.779 44.2582C298.323 45.1702 298.595 46.2022 298.595 47.3542C298.595 48.2662 298.427 49.0982 298.091 49.8502C297.755 50.5862 297.299 51.2262 296.723 51.7702C296.147 52.2982 295.499 52.7062 294.779 52.9942C294.075 53.2822 293.347 53.4262 292.595 53.4262ZM292.547 50.5942C293.075 50.5942 293.579 50.4662 294.059 50.2102C294.555 49.9382 294.955 49.5542 295.259 49.0582C295.579 48.5622 295.739 47.9782 295.739 47.3062C295.739 46.6822 295.595 46.1302 295.307 45.6502C295.035 45.1702 294.659 44.7942 294.179 44.5222C293.699 44.2502 293.147 44.1142 292.523 44.1142C291.931 44.1142 291.395 44.2582 290.915 44.5462C290.435 44.8182 290.051 45.2022 289.763 45.6982C289.491 46.1782 289.355 46.7222 289.355 47.3302C289.355 48.0022 289.507 48.5862 289.811 49.0822C290.115 49.5622 290.507 49.9382 290.987 50.2102C291.483 50.4662 292.003 50.5942 292.547 50.5942ZM304.609 53.2822C304.017 53.2822 303.489 53.2422 303.025 53.1622C302.577 53.0822 302.185 52.9462 301.849 52.7542C301.529 52.5622 301.265 52.3062 301.057 51.9862C300.849 51.6502 300.689 51.2422 300.577 50.7622C300.481 50.2822 300.433 49.7062 300.433 49.0342V37.4662C300.433 37.1942 300.457 36.9542 300.505 36.7462C300.569 36.5222 300.697 36.3462 300.889 36.2182C301.097 36.0742 301.425 36.0022 301.873 36.0022C302.321 36.0022 302.641 36.0662 302.833 36.1942C303.041 36.3222 303.169 36.4982 303.217 36.7222C303.281 36.9302 303.313 37.1702 303.313 37.4422V48.9142C303.313 49.2182 303.329 49.4742 303.361 49.6822C303.409 49.8742 303.481 50.0342 303.577 50.1622C303.689 50.2742 303.825 50.3542 303.985 50.4022C304.161 50.4502 304.369 50.4742 304.609 50.4742C304.817 50.4742 305.001 50.4982 305.161 50.5462C305.337 50.5942 305.473 50.7142 305.569 50.9062C305.681 51.0982 305.737 51.4102 305.737 51.8422C305.737 52.2902 305.681 52.6182 305.569 52.8262C305.473 53.0342 305.337 53.1622 305.161 53.2102C304.985 53.2582 304.801 53.2822 304.609 53.2822ZM317.306 53.2342C316.842 53.2342 316.498 53.1462 316.274 52.9702C316.05 52.7942 315.938 52.5542 315.938 52.2502L316.106 51.4582C315.978 51.6662 315.762 51.9142 315.458 52.2022C315.154 52.4742 314.754 52.7222 314.258 52.9462C313.762 53.1542 313.162 53.2582 312.458 53.2582C311.706 53.2582 310.994 53.1062 310.322 52.8022C309.666 52.4822 309.082 52.0502 308.57 51.5062C308.074 50.9462 307.674 50.3142 307.37 49.6102C307.082 48.8902 306.938 48.1222 306.938 47.3062C306.938 46.5222 307.082 45.7862 307.37 45.0982C307.674 44.3942 308.082 43.7702 308.594 43.2262C309.106 42.6822 309.69 42.2582 310.346 41.9542C311.018 41.6342 311.722 41.4742 312.458 41.4742C313.114 41.4742 313.666 41.5622 314.114 41.7382C314.578 41.9142 314.97 42.1382 315.29 42.4102C315.61 42.6662 315.874 42.9382 316.082 43.2262L315.938 42.5302C315.938 42.1782 316.05 41.9142 316.274 41.7382C316.498 41.5462 316.85 41.4502 317.33 41.4502C317.778 41.4502 318.098 41.5222 318.29 41.6662C318.482 41.7942 318.602 41.9782 318.65 42.2182C318.698 42.4422 318.722 42.6982 318.722 42.9862V51.7702C318.722 52.0422 318.698 52.2902 318.65 52.5142C318.602 52.7382 318.474 52.9142 318.266 53.0422C318.074 53.1702 317.754 53.2342 317.306 53.2342ZM312.89 50.4502C313.434 50.4502 313.922 50.3142 314.354 50.0422C314.786 49.7702 315.13 49.4022 315.386 48.9382C315.658 48.4582 315.794 47.9302 315.794 47.3542C315.794 46.7302 315.658 46.1862 315.386 45.7222C315.114 45.2582 314.754 44.8982 314.306 44.6422C313.874 44.3702 313.386 44.2342 312.842 44.2342C312.25 44.2342 311.722 44.3782 311.258 44.6662C310.794 44.9382 310.426 45.3142 310.154 45.7942C309.898 46.2582 309.77 46.7862 309.77 47.3782C309.77 47.9542 309.906 48.4742 310.178 48.9382C310.45 49.4022 310.818 49.7702 311.282 50.0422C311.762 50.3142 312.298 50.4502 312.89 50.4502ZM322.426 53.2822C321.978 53.2822 321.65 53.2102 321.442 53.0662C321.25 52.9382 321.13 52.7622 321.082 52.5382C321.034 52.3142 321.01 52.0742 321.01 51.8182V37.4902C321.01 37.2182 321.034 36.9782 321.082 36.7702C321.146 36.5462 321.274 36.3702 321.466 36.2422C321.674 36.1142 322.002 36.0502 322.45 36.0502C322.898 36.0502 323.218 36.1222 323.41 36.2662C323.618 36.3942 323.746 36.5702 323.794 36.7942C323.858 37.0022 323.89 37.2422 323.89 37.5142V42.9382C324.21 42.5702 324.618 42.2342 325.114 41.9302C325.626 41.6102 326.242 41.4502 326.962 41.4502C327.938 41.4502 328.81 41.6902 329.578 42.1702C330.346 42.6342 330.954 43.2822 331.402 44.1142C331.85 44.9462 332.074 45.9222 332.074 47.0422V51.8422C332.074 52.0982 332.05 52.3382 332.002 52.5622C331.954 52.7702 331.826 52.9382 331.618 53.0662C331.426 53.1942 331.106 53.2582 330.658 53.2582C330.21 53.2582 329.882 53.1942 329.674 53.0662C329.466 52.9382 329.338 52.7702 329.29 52.5622C329.242 52.3382 329.218 52.0822 329.218 51.7942V47.0182C329.218 46.4582 329.122 45.9702 328.93 45.5542C328.738 45.1382 328.45 44.8182 328.066 44.5942C327.698 44.3542 327.234 44.2342 326.674 44.2342C325.922 44.2342 325.29 44.4582 324.778 44.9062C324.266 45.3382 323.97 45.8982 323.89 46.5862V51.8422C323.89 52.0982 323.858 52.3382 323.794 52.5622C323.746 52.7862 323.618 52.9622 323.41 53.0902C323.218 53.2182 322.89 53.2822 322.426 53.2822ZM78.6119 82.1142C77.8279 82.1142 77.1239 81.9702 76.4999 81.6822C75.8919 81.3782 75.3719 80.9622 74.9399 80.4342C74.5239 79.8902 74.2039 79.2662 73.9799 78.5622C73.7719 77.8582 73.6679 77.0982 73.6679 76.2822C73.6839 75.4662 73.8039 74.7062 74.0279 74.0022C74.2519 73.2822 74.5719 72.6582 74.9879 72.1302C75.4199 71.6022 75.9399 71.1862 76.5479 70.8822C77.1559 70.5782 77.8439 70.4262 78.6119 70.4262C79.3479 70.4262 80.0359 70.5782 80.6759 70.8822C81.3319 71.1862 81.9079 71.6102 82.4039 72.1542C82.9159 72.6982 83.3159 73.3302 83.6039 74.0502C83.8919 74.7542 84.0359 75.5142 84.0359 76.3302C84.0359 77.1622 83.8919 77.9302 83.6039 78.6342C83.3159 79.3382 82.9239 79.9542 82.4279 80.4822C81.9319 80.9942 81.3559 81.3942 80.6999 81.6822C80.0439 81.9702 79.3479 82.1142 78.6119 82.1142ZM73.8119 87.1062C73.3799 87.1062 73.0599 87.0422 72.8519 86.9142C72.6439 86.7862 72.5159 86.6182 72.4679 86.4102C72.4199 86.2022 72.3959 85.9622 72.3959 85.6902V71.8902C72.3959 71.6182 72.4199 71.3782 72.4679 71.1702C72.5159 70.9622 72.6359 70.7942 72.8279 70.6662C73.0359 70.5222 73.3559 70.4502 73.7879 70.4502C74.2039 70.4502 74.5319 70.5142 74.7719 70.6422C75.0119 70.7702 75.1719 70.9862 75.2519 71.2902V85.6662C75.2679 85.9382 75.2439 86.1782 75.1799 86.3862C75.1319 86.6102 75.0039 86.7862 74.7959 86.9142C74.5879 87.0422 74.2599 87.1062 73.8119 87.1062ZM78.2279 79.4262C78.7879 79.4262 79.2919 79.2982 79.7399 79.0422C80.1879 78.7702 80.5399 78.4022 80.7959 77.9382C81.0679 77.4582 81.2039 76.9222 81.2039 76.3302C81.2039 75.7222 81.0679 75.1862 80.7959 74.7222C80.5399 74.2582 80.1879 73.8982 79.7399 73.6422C79.2919 73.3702 78.7879 73.2342 78.2279 73.2342C77.6839 73.2342 77.1879 73.3702 76.7399 73.6422C76.2919 73.9142 75.9319 74.2822 75.6599 74.7462C75.4039 75.1942 75.2759 75.7222 75.2759 76.3302C75.2759 76.9222 75.4039 77.4582 75.6599 77.9382C75.9319 78.4022 76.2919 78.7702 76.7399 79.0422C77.1879 79.2982 77.6839 79.4262 78.2279 79.4262ZM91.7753 82.4262C90.7353 82.4262 89.8233 82.2582 89.0393 81.9222C88.2713 81.5862 87.6233 81.1302 87.0953 80.5542C86.5833 79.9622 86.1913 79.3062 85.9193 78.5862C85.6633 77.8502 85.5353 77.0902 85.5353 76.3062C85.5353 75.1542 85.7993 74.1302 86.3273 73.2342C86.8553 72.3382 87.5833 71.6342 88.5113 71.1222C89.4553 70.6102 90.5353 70.3542 91.7513 70.3542C92.6153 70.3542 93.3753 70.4902 94.0313 70.7622C94.6873 71.0342 95.2313 71.3942 95.6633 71.8422C96.1113 72.2742 96.4473 72.7542 96.6713 73.2822C96.9113 73.8102 97.0313 74.3222 97.0313 74.8182C97.0313 75.6662 96.8233 76.2822 96.4073 76.6662C96.0073 77.0502 95.5033 77.2422 94.8953 77.2422H88.5593C88.5753 77.7862 88.7433 78.2582 89.0633 78.6582C89.3993 79.0582 89.8153 79.3702 90.3113 79.5942C90.8233 79.8022 91.3433 79.9062 91.8713 79.9062C92.2713 79.9062 92.6233 79.8822 92.9273 79.8342C93.2473 79.7862 93.5193 79.7302 93.7433 79.6662C93.9673 79.5862 94.1593 79.5062 94.3193 79.4262C94.4953 79.3462 94.6553 79.2742 94.7993 79.2102C94.9433 79.1462 95.0793 79.1062 95.2073 79.0902C95.3833 79.0742 95.5593 79.1142 95.7353 79.2102C95.9113 79.3062 96.0553 79.4742 96.1673 79.7142C96.2633 79.8742 96.3273 80.0262 96.3593 80.1702C96.4073 80.2982 96.4313 80.4262 96.4313 80.5542C96.4313 80.8742 96.2393 81.1782 95.8553 81.4662C95.4713 81.7382 94.9273 81.9622 94.2233 82.1382C93.5353 82.3302 92.7193 82.4262 91.7753 82.4262ZM88.5593 75.5382H93.4793C93.7513 75.5382 93.9593 75.4982 94.1033 75.4182C94.2473 75.3222 94.3193 75.1302 94.3193 74.8422C94.3193 74.4742 94.2073 74.1462 93.9833 73.8582C93.7593 73.5542 93.4553 73.3222 93.0713 73.1622C92.6873 72.9862 92.2393 72.8982 91.7273 72.8982C91.1353 72.8982 90.5993 73.0182 90.1193 73.2582C89.6393 73.4822 89.2553 73.7942 88.9673 74.1942C88.6953 74.5942 88.5593 75.0422 88.5593 75.5382ZM100.417 82.2822C99.9848 82.2822 99.6648 82.2102 99.4568 82.0662C99.2648 81.9382 99.1448 81.7622 99.0968 81.5382C99.0488 81.3142 99.0248 81.0662 99.0248 80.7942V71.8902C99.0248 71.6022 99.0488 71.3542 99.0968 71.1462C99.1448 70.9222 99.2648 70.7542 99.4568 70.6422C99.6648 70.5142 99.9928 70.4502 100.441 70.4502C100.873 70.4502 101.185 70.5062 101.377 70.6182C101.585 70.7302 101.713 70.8742 101.761 71.0502C101.825 71.2102 101.857 71.3702 101.857 71.5302L101.665 71.9622C101.745 71.8342 101.857 71.6822 102.001 71.5062C102.145 71.3142 102.337 71.1302 102.577 70.9542C102.817 70.7622 103.105 70.6102 103.441 70.4982C103.777 70.3702 104.177 70.3062 104.641 70.3062C104.833 70.3062 105.033 70.3302 105.241 70.3782C105.465 70.4102 105.681 70.4662 105.889 70.5462C106.113 70.6102 106.313 70.6982 106.489 70.8102C106.665 70.9222 106.801 71.0582 106.897 71.2182C106.993 71.3622 107.041 71.5302 107.041 71.7222C107.041 72.2342 106.913 72.6662 106.657 73.0182C106.401 73.3702 106.097 73.5462 105.745 73.5462C105.505 73.5462 105.329 73.5222 105.217 73.4742C105.105 73.4262 105.009 73.3702 104.929 73.3062C104.865 73.2422 104.761 73.1862 104.617 73.1382C104.489 73.0902 104.281 73.0662 103.993 73.0662C103.753 73.0662 103.505 73.1062 103.249 73.1862C103.009 73.2662 102.785 73.3862 102.577 73.5462C102.369 73.7062 102.201 73.9142 102.073 74.1702C101.945 74.4102 101.881 74.6902 101.881 75.0102V80.8422C101.881 81.1142 101.857 81.3622 101.809 81.5862C101.761 81.7942 101.633 81.9622 101.425 82.0902C101.217 82.2182 100.881 82.2822 100.417 82.2822ZM110.354 82.2582C109.922 82.2582 109.602 82.1942 109.394 82.0662C109.202 81.9382 109.082 81.7622 109.034 81.5382C108.986 81.3142 108.962 81.0742 108.962 80.8182V71.8422C108.962 71.5862 108.986 71.3542 109.034 71.1462C109.082 70.9382 109.21 70.7702 109.418 70.6422C109.626 70.5142 109.954 70.4502 110.402 70.4502C110.866 70.4502 111.202 70.5462 111.41 70.7382C111.634 70.9302 111.746 71.2342 111.746 71.6502L111.53 72.3222C111.61 72.1462 111.746 71.9542 111.938 71.7462C112.13 71.5382 112.362 71.3302 112.634 71.1222C112.922 70.9142 113.242 70.7462 113.594 70.6182C113.946 70.4902 114.314 70.4262 114.698 70.4262C115.226 70.4262 115.706 70.5142 116.138 70.6902C116.586 70.8662 116.978 71.1222 117.314 71.4582C117.666 71.7942 117.97 72.2022 118.226 72.6822C118.498 72.2662 118.802 71.8902 119.138 71.5542C119.474 71.2022 119.866 70.9302 120.314 70.7382C120.762 70.5302 121.266 70.4262 121.826 70.4262C122.754 70.4262 123.53 70.6582 124.154 71.1222C124.794 71.5862 125.274 72.2502 125.594 73.1142C125.93 73.9622 126.098 74.9782 126.098 76.1622V80.8182C126.098 81.0902 126.066 81.3382 126.002 81.5622C125.954 81.7702 125.826 81.9382 125.618 82.0662C125.426 82.1942 125.106 82.2582 124.658 82.2582C124.21 82.2582 123.882 82.1862 123.674 82.0422C123.466 81.9142 123.338 81.7462 123.29 81.5382C123.242 81.3142 123.218 81.0662 123.218 80.7942V76.1382C123.218 75.5462 123.146 75.0342 123.002 74.6022C122.858 74.1702 122.642 73.8342 122.354 73.5942C122.082 73.3542 121.722 73.2342 121.274 73.2342C120.794 73.2342 120.378 73.3542 120.026 73.5942C119.69 73.8182 119.426 74.1462 119.234 74.5782C119.042 75.0102 118.946 75.5382 118.946 76.1622V80.8422C118.946 81.1142 118.906 81.3702 118.826 81.6102C118.746 81.8342 118.586 82.0022 118.346 82.1142C118.122 82.2422 117.794 82.2902 117.362 82.2582C116.962 82.2422 116.666 82.1622 116.474 82.0182C116.298 81.8742 116.186 81.6982 116.138 81.4902C116.106 81.2662 116.09 81.0342 116.09 80.7942V76.1382C116.09 75.5462 116.018 75.0342 115.874 74.6022C115.73 74.1542 115.514 73.8182 115.226 73.5942C114.954 73.3542 114.586 73.2342 114.122 73.2342C113.626 73.2342 113.202 73.3622 112.85 73.6182C112.514 73.8742 112.258 74.2182 112.082 74.6502C111.906 75.0822 111.818 75.5782 111.818 76.1382V80.8422C111.818 81.0982 111.786 81.3382 111.722 81.5622C111.674 81.7862 111.546 81.9542 111.338 82.0662C111.146 82.1942 110.818 82.2582 110.354 82.2582ZM130.045 82.2822C129.613 82.2822 129.293 82.2102 129.085 82.0662C128.877 81.9382 128.749 81.7702 128.701 81.5622C128.653 81.3382 128.629 81.0902 128.629 80.8182V71.8902C128.629 71.6342 128.653 71.4022 128.701 71.1942C128.765 70.9702 128.893 70.7942 129.085 70.6662C129.293 70.5382 129.621 70.4742 130.069 70.4742C130.517 70.4742 130.837 70.5382 131.029 70.6662C131.237 70.7942 131.365 70.9702 131.413 71.1942C131.461 71.4182 131.485 71.6662 131.485 71.9382V80.8422C131.485 81.1142 131.461 81.3622 131.413 81.5862C131.365 81.7942 131.237 81.9622 131.029 82.0902C130.837 82.2182 130.509 82.2822 130.045 82.2822ZM130.045 68.1462C129.581 68.1462 129.237 68.0822 129.013 67.9542C128.805 67.8102 128.669 67.6182 128.605 67.3782C128.557 67.1382 128.533 66.8742 128.533 66.5862C128.533 66.2822 128.557 66.0182 128.605 65.7942C128.669 65.5702 128.813 65.3942 129.037 65.2662C129.261 65.1222 129.605 65.0502 130.069 65.0502C130.549 65.0502 130.893 65.1222 131.101 65.2662C131.309 65.4102 131.445 65.6022 131.509 65.8422C131.573 66.0662 131.605 66.3302 131.605 66.6342C131.605 66.9062 131.573 67.1622 131.509 67.4022C131.445 67.6422 131.309 67.8262 131.101 67.9542C130.893 68.0822 130.541 68.1462 130.045 68.1462ZM138.214 82.4262C137.798 82.4262 137.358 82.3782 136.894 82.2822C136.43 82.2022 135.982 82.0822 135.55 81.9222C135.118 81.7462 134.742 81.5462 134.422 81.3222C134.118 81.0822 133.926 80.8182 133.846 80.5302C133.782 80.3702 133.758 80.2182 133.774 80.0742C133.79 79.9142 133.838 79.7542 133.918 79.5942C133.998 79.4182 134.118 79.2422 134.278 79.0662C134.422 78.8902 134.566 78.7942 134.71 78.7782C134.87 78.7462 135.07 78.7942 135.31 78.9222C135.518 79.0022 135.742 79.1062 135.982 79.2342C136.238 79.3622 136.494 79.4902 136.75 79.6182C137.022 79.7462 137.294 79.8502 137.566 79.9302C137.854 80.0102 138.134 80.0502 138.406 80.0502C138.998 80.0502 139.47 79.9542 139.822 79.7622C140.174 79.5542 140.35 79.2662 140.35 78.8982C140.35 78.6902 140.294 78.5062 140.182 78.3462C140.07 78.1862 139.918 78.0582 139.726 77.9622C139.55 77.8502 139.334 77.7542 139.078 77.6742C138.838 77.5782 138.574 77.4982 138.286 77.4342C138.014 77.3542 137.726 77.2662 137.422 77.1702C137.022 77.0582 136.622 76.9222 136.222 76.7622C135.822 76.6022 135.462 76.3942 135.142 76.1382C134.838 75.8822 134.59 75.5622 134.398 75.1782C134.206 74.7942 134.11 74.3142 134.11 73.7382C134.11 73.0182 134.278 72.4102 134.614 71.9142C134.966 71.4022 135.47 71.0102 136.126 70.7382C136.782 70.4662 137.574 70.3302 138.502 70.3302C138.822 70.3302 139.126 70.3542 139.414 70.4022C139.718 70.4502 140.006 70.5222 140.278 70.6182C140.566 70.6982 140.838 70.8022 141.094 70.9302C141.366 71.0582 141.622 71.2022 141.862 71.3622C142.262 71.5862 142.47 71.8502 142.486 72.1542C142.502 72.4422 142.39 72.7542 142.15 73.0902C141.974 73.3142 141.798 73.4742 141.622 73.5702C141.446 73.6502 141.262 73.6502 141.07 73.5702C140.814 73.4422 140.534 73.3062 140.23 73.1622C139.942 73.0022 139.638 72.8662 139.318 72.7542C139.014 72.6422 138.694 72.5862 138.358 72.5862C138.038 72.5862 137.75 72.6342 137.494 72.7302C137.238 72.8262 137.046 72.9622 136.918 73.1382C136.79 73.3142 136.726 73.5222 136.726 73.7622C136.726 73.9862 136.79 74.1702 136.918 74.3142C137.046 74.4582 137.214 74.5782 137.422 74.6742C137.63 74.7702 137.878 74.8582 138.166 74.9382C138.454 75.0022 138.758 75.0662 139.078 75.1302C139.526 75.2262 139.982 75.3462 140.446 75.4902C140.91 75.6342 141.334 75.8342 141.718 76.0902C142.118 76.3462 142.438 76.6902 142.678 77.1222C142.918 77.5382 143.038 78.0822 143.038 78.7542C143.038 79.9222 142.606 80.8262 141.742 81.4662C140.894 82.1062 139.718 82.4262 138.214 82.4262ZM146.662 82.2822C146.23 82.2822 145.91 82.2102 145.702 82.0662C145.494 81.9382 145.366 81.7702 145.318 81.5622C145.27 81.3382 145.246 81.0902 145.246 80.8182V71.8902C145.246 71.6342 145.27 71.4022 145.318 71.1942C145.382 70.9702 145.51 70.7942 145.702 70.6662C145.91 70.5382 146.238 70.4742 146.686 70.4742C147.134 70.4742 147.454 70.5382 147.646 70.6662C147.854 70.7942 147.982 70.9702 148.03 71.1942C148.078 71.4182 148.102 71.6662 148.102 71.9382V80.8422C148.102 81.1142 148.078 81.3622 148.03 81.5862C147.982 81.7942 147.854 81.9622 147.646 82.0902C147.454 82.2182 147.126 82.2822 146.662 82.2822ZM146.662 68.1462C146.198 68.1462 145.854 68.0822 145.63 67.9542C145.422 67.8102 145.286 67.6182 145.222 67.3782C145.174 67.1382 145.15 66.8742 145.15 66.5862C145.15 66.2822 145.174 66.0182 145.222 65.7942C145.286 65.5702 145.43 65.3942 145.654 65.2662C145.878 65.1222 146.222 65.0502 146.686 65.0502C147.166 65.0502 147.51 65.1222 147.718 65.2662C147.926 65.4102 148.062 65.6022 148.126 65.8422C148.19 66.0662 148.222 66.3302 148.222 66.6342C148.222 66.9062 148.19 67.1622 148.126 67.4022C148.062 67.6422 147.926 67.8262 147.718 67.9542C147.51 68.0822 147.158 68.1462 146.662 68.1462ZM153.207 82.2822C152.775 82.2822 152.455 82.2182 152.247 82.0902C152.055 81.9622 151.935 81.7862 151.887 81.5622C151.839 81.3222 151.815 81.0742 151.815 80.8182V69.1542C151.815 68.5622 151.895 68.0182 152.055 67.5222C152.215 67.0102 152.471 66.5702 152.823 66.2022C153.175 65.8342 153.631 65.5462 154.191 65.3382C154.751 65.1142 155.431 65.0022 156.231 65.0022C156.503 65.0022 156.743 65.0342 156.951 65.0982C157.175 65.1462 157.351 65.2662 157.479 65.4582C157.623 65.6502 157.695 65.9782 157.695 66.4422C157.695 66.8742 157.623 67.1942 157.479 67.4022C157.351 67.6102 157.175 67.7382 156.951 67.7862C156.727 67.8342 156.479 67.8582 156.207 67.8582C155.935 67.8582 155.695 67.8742 155.487 67.9062C155.295 67.9222 155.135 67.9702 155.007 68.0502C154.895 68.1302 154.807 68.2582 154.743 68.4342C154.695 68.6102 154.671 68.8342 154.671 69.1062V80.8662C154.671 81.1222 154.639 81.3622 154.575 81.5862C154.527 81.7942 154.399 81.9622 154.191 82.0902C153.983 82.2182 153.655 82.2822 153.207 82.2822ZM150.831 70.6902L153.303 70.7142L156.615 70.6182C156.887 70.6182 157.127 70.6502 157.335 70.7142C157.559 70.7622 157.735 70.8902 157.863 71.0982C157.991 71.2902 158.055 71.6102 158.055 72.0582C158.055 72.4742 157.991 72.7862 157.863 72.9942C157.735 73.2022 157.567 73.3382 157.359 73.4022C157.151 73.4502 156.911 73.4742 156.639 73.4742L153.423 73.4262L150.759 73.4502C150.359 73.4342 150.079 73.3222 149.919 73.1142C149.775 72.8902 149.703 72.5302 149.703 72.0342C149.703 71.5702 149.791 71.2342 149.967 71.0262C150.159 70.8022 150.447 70.6902 150.831 70.6902ZM159.965 84.7542C159.965 84.7542 159.933 84.7382 159.869 84.7062C159.805 84.6902 159.741 84.6262 159.677 84.5142C159.613 84.4182 159.581 84.2582 159.581 84.0342C159.581 83.7302 159.629 83.5302 159.725 83.4342C159.821 83.3542 159.885 83.3062 159.917 83.2902C159.933 83.2742 160.045 83.1782 160.253 83.0022C160.461 82.8422 160.581 82.5622 160.613 82.1622C160.453 82.1302 160.309 82.0902 160.181 82.0422C160.069 81.9782 159.973 81.9062 159.893 81.8262C159.733 81.6662 159.637 81.4822 159.605 81.2742C159.573 81.0502 159.557 80.8262 159.557 80.6022C159.557 80.2342 159.597 79.9302 159.677 79.6902C159.757 79.4502 159.909 79.2742 160.133 79.1622C160.373 79.0342 160.725 78.9702 161.189 78.9702C161.797 78.9702 162.229 79.0982 162.485 79.3542C162.629 79.4982 162.709 79.6822 162.725 79.9062C162.757 80.1302 162.773 80.3542 162.773 80.5782C162.773 80.7382 162.773 80.8742 162.773 80.9862C162.773 81.0822 162.765 81.1702 162.749 81.2502C162.685 81.8902 162.517 82.4742 162.245 83.0022C161.989 83.5302 161.661 83.9542 161.261 84.2742C160.877 84.5942 160.445 84.7542 159.965 84.7542ZM161.141 74.3382C160.533 74.3382 160.109 74.2182 159.869 73.9782C159.645 73.7222 159.533 73.3142 159.533 72.7542C159.533 72.3382 159.573 72.0102 159.653 71.7702C159.749 71.5302 159.917 71.3622 160.157 71.2662C160.413 71.1542 160.749 71.0982 161.165 71.0982C161.789 71.0982 162.213 71.2182 162.437 71.4582C162.661 71.6982 162.773 72.1222 162.773 72.7302C162.773 73.0182 162.741 73.2902 162.677 73.5462C162.613 73.7862 162.469 73.9782 162.245 74.1222C162.021 74.2662 161.653 74.3382 161.141 74.3382ZM172.418 82.2582C172.002 82.2582 171.69 82.1862 171.482 82.0422C171.274 81.9142 171.138 81.7382 171.074 81.5142C171.01 81.2902 170.978 81.0502 170.978 80.7942V66.9222C170.978 66.6662 171.002 66.4342 171.05 66.2262C171.114 66.0022 171.25 65.8262 171.458 65.6982C171.666 65.5542 171.994 65.4822 172.442 65.4822L176.954 65.5062C178.122 65.5062 179.194 65.7062 180.17 66.1062C181.162 66.5062 182.018 67.0742 182.738 67.8102C183.458 68.5462 184.01 69.4262 184.394 70.4502C184.794 71.4582 184.994 72.5702 184.994 73.7862C184.994 75.0342 184.794 76.1782 184.394 77.2182C183.994 78.2582 183.434 79.1542 182.714 79.9062C181.994 80.6582 181.138 81.2422 180.146 81.6582C179.17 82.0582 178.082 82.2582 176.882 82.2582H172.418ZM173.882 79.3542H176.954C177.978 79.3542 178.874 79.1302 179.642 78.6822C180.41 78.2182 181.002 77.5782 181.418 76.7622C181.85 75.9462 182.066 74.9942 182.066 73.9062C182.066 72.8022 181.85 71.8422 181.418 71.0262C181.002 70.1942 180.402 69.5542 179.618 69.1062C178.85 68.6422 177.954 68.4102 176.93 68.4102H173.882V79.3542ZM197.106 82.2342C196.642 82.2342 196.298 82.1462 196.074 81.9702C195.85 81.7942 195.738 81.5542 195.738 81.2502L195.906 80.4582C195.778 80.6662 195.562 80.9142 195.258 81.2022C194.954 81.4742 194.554 81.7222 194.058 81.9462C193.562 82.1542 192.962 82.2582 192.258 82.2582C191.506 82.2582 190.794 82.1062 190.122 81.8022C189.466 81.4822 188.882 81.0502 188.37 80.5062C187.874 79.9462 187.474 79.3142 187.17 78.6102C186.882 77.8902 186.738 77.1222 186.738 76.3062C186.738 75.5222 186.882 74.7862 187.17 74.0982C187.474 73.3942 187.882 72.7702 188.394 72.2262C188.906 71.6822 189.49 71.2582 190.146 70.9542C190.818 70.6342 191.522 70.4742 192.258 70.4742C192.914 70.4742 193.466 70.5622 193.914 70.7382C194.378 70.9142 194.77 71.1382 195.09 71.4102C195.41 71.6662 195.674 71.9382 195.882 72.2262L195.738 71.5302C195.738 71.1782 195.85 70.9142 196.074 70.7382C196.298 70.5462 196.65 70.4502 197.13 70.4502C197.578 70.4502 197.898 70.5222 198.09 70.6662C198.282 70.7942 198.402 70.9782 198.45 71.2182C198.498 71.4422 198.522 71.6982 198.522 71.9862V80.7702C198.522 81.0422 198.498 81.2902 198.45 81.5142C198.402 81.7382 198.274 81.9142 198.066 82.0422C197.874 82.1702 197.554 82.2342 197.106 82.2342ZM192.69 79.4502C193.234 79.4502 193.722 79.3142 194.154 79.0422C194.586 78.7702 194.93 78.4022 195.186 77.9382C195.458 77.4582 195.594 76.9302 195.594 76.3542C195.594 75.7302 195.458 75.1862 195.186 74.7222C194.914 74.2582 194.554 73.8982 194.106 73.6422C193.674 73.3702 193.186 73.2342 192.642 73.2342C192.05 73.2342 191.522 73.3782 191.058 73.6662C190.594 73.9382 190.226 74.3142 189.954 74.7942C189.698 75.2582 189.57 75.7862 189.57 76.3782C189.57 76.9542 189.706 77.4742 189.978 77.9382C190.25 78.4022 190.618 78.7702 191.082 79.0422C191.562 79.3142 192.098 79.4502 192.69 79.4502ZM202.322 82.2582C201.89 82.2582 201.57 82.1942 201.362 82.0662C201.17 81.9382 201.05 81.7622 201.002 81.5382C200.954 81.3142 200.93 81.0742 200.93 80.8182V71.8422C200.93 71.5862 200.954 71.3542 201.002 71.1462C201.05 70.9382 201.178 70.7702 201.386 70.6422C201.594 70.5142 201.922 70.4502 202.37 70.4502C202.834 70.4502 203.17 70.5462 203.378 70.7382C203.602 70.9302 203.714 71.2342 203.714 71.6502L203.498 72.3222C203.578 72.1462 203.714 71.9542 203.906 71.7462C204.098 71.5382 204.33 71.3302 204.602 71.1222C204.89 70.9142 205.21 70.7462 205.562 70.6182C205.914 70.4902 206.282 70.4262 206.666 70.4262C207.194 70.4262 207.674 70.5142 208.106 70.6902C208.554 70.8662 208.946 71.1222 209.282 71.4582C209.634 71.7942 209.938 72.2022 210.194 72.6822C210.466 72.2662 210.77 71.8902 211.106 71.5542C211.442 71.2022 211.834 70.9302 212.282 70.7382C212.73 70.5302 213.234 70.4262 213.794 70.4262C214.722 70.4262 215.498 70.6582 216.122 71.1222C216.762 71.5862 217.242 72.2502 217.562 73.1142C217.898 73.9622 218.066 74.9782 218.066 76.1622V80.8182C218.066 81.0902 218.034 81.3382 217.97 81.5622C217.922 81.7702 217.794 81.9382 217.586 82.0662C217.394 82.1942 217.074 82.2582 216.626 82.2582C216.178 82.2582 215.85 82.1862 215.642 82.0422C215.434 81.9142 215.306 81.7462 215.258 81.5382C215.21 81.3142 215.186 81.0662 215.186 80.7942V76.1382C215.186 75.5462 215.114 75.0342 214.97 74.6022C214.826 74.1702 214.61 73.8342 214.322 73.5942C214.05 73.3542 213.69 73.2342 213.242 73.2342C212.762 73.2342 212.346 73.3542 211.994 73.5942C211.658 73.8182 211.394 74.1462 211.202 74.5782C211.01 75.0102 210.914 75.5382 210.914 76.1622V80.8422C210.914 81.1142 210.874 81.3702 210.794 81.6102C210.714 81.8342 210.554 82.0022 210.314 82.1142C210.09 82.2422 209.762 82.2902 209.33 82.2582C208.93 82.2422 208.634 82.1622 208.442 82.0182C208.266 81.8742 208.154 81.6982 208.106 81.4902C208.074 81.2662 208.058 81.0342 208.058 80.7942V76.1382C208.058 75.5462 207.986 75.0342 207.842 74.6022C207.698 74.1542 207.482 73.8182 207.194 73.5942C206.922 73.3542 206.554 73.2342 206.09 73.2342C205.594 73.2342 205.17 73.3622 204.818 73.6182C204.482 73.8742 204.226 74.2182 204.05 74.6502C203.874 75.0822 203.786 75.5782 203.786 76.1382V80.8422C203.786 81.0982 203.754 81.3382 203.69 81.5622C203.642 81.7862 203.514 81.9542 203.306 82.0662C203.114 82.1942 202.786 82.2582 202.322 82.2582ZM226.549 82.1142C225.765 82.1142 225.061 81.9702 224.437 81.6822C223.829 81.3782 223.309 80.9622 222.877 80.4342C222.461 79.8902 222.141 79.2662 221.917 78.5622C221.709 77.8582 221.605 77.0982 221.605 76.2822C221.621 75.4662 221.741 74.7062 221.965 74.0022C222.189 73.2822 222.509 72.6582 222.925 72.1302C223.357 71.6022 223.877 71.1862 224.485 70.8822C225.093 70.5782 225.781 70.4262 226.549 70.4262C227.285 70.4262 227.973 70.5782 228.613 70.8822C229.269 71.1862 229.845 71.6102 230.341 72.1542C230.853 72.6982 231.253 73.3302 231.541 74.0502C231.829 74.7542 231.973 75.5142 231.973 76.3302C231.973 77.1622 231.829 77.9302 231.541 78.6342C231.253 79.3382 230.861 79.9542 230.365 80.4822C229.869 80.9942 229.293 81.3942 228.637 81.6822C227.981 81.9702 227.285 82.1142 226.549 82.1142ZM221.749 87.1062C221.317 87.1062 220.997 87.0422 220.789 86.9142C220.581 86.7862 220.453 86.6182 220.405 86.4102C220.357 86.2022 220.333 85.9622 220.333 85.6902V71.8902C220.333 71.6182 220.357 71.3782 220.405 71.1702C220.453 70.9622 220.573 70.7942 220.765 70.6662C220.973 70.5222 221.293 70.4502 221.725 70.4502C222.141 70.4502 222.469 70.5142 222.709 70.6422C222.949 70.7702 223.109 70.9862 223.189 71.2902V85.6662C223.205 85.9382 223.181 86.1782 223.117 86.3862C223.069 86.6102 222.941 86.7862 222.733 86.9142C222.525 87.0422 222.197 87.1062 221.749 87.1062ZM226.165 79.4262C226.725 79.4262 227.229 79.2982 227.677 79.0422C228.125 78.7702 228.477 78.4022 228.733 77.9382C229.005 77.4582 229.141 76.9222 229.141 76.3302C229.141 75.7222 229.005 75.1862 228.733 74.7222C228.477 74.2582 228.125 73.8982 227.677 73.6422C227.229 73.3702 226.725 73.2342 226.165 73.2342C225.621 73.2342 225.125 73.3702 224.677 73.6422C224.229 73.9142 223.869 74.2822 223.597 74.7462C223.341 75.1942 223.213 75.7222 223.213 76.3302C223.213 76.9222 223.341 77.4582 223.597 77.9382C223.869 78.4022 224.229 78.7702 224.677 79.0422C225.125 79.2982 225.621 79.4262 226.165 79.4262ZM243.841 82.2342C243.377 82.2342 243.033 82.1462 242.809 81.9702C242.585 81.7942 242.473 81.5542 242.473 81.2502L242.641 80.4582C242.513 80.6662 242.297 80.9142 241.993 81.2022C241.689 81.4742 241.289 81.7222 240.793 81.9462C240.297 82.1542 239.697 82.2582 238.993 82.2582C238.241 82.2582 237.529 82.1062 236.857 81.8022C236.201 81.4822 235.617 81.0502 235.105 80.5062C234.609 79.9462 234.209 79.3142 233.905 78.6102C233.617 77.8902 233.473 77.1222 233.473 76.3062C233.473 75.5222 233.617 74.7862 233.905 74.0982C234.209 73.3942 234.617 72.7702 235.129 72.2262C235.641 71.6822 236.225 71.2582 236.881 70.9542C237.553 70.6342 238.257 70.4742 238.993 70.4742C239.649 70.4742 240.201 70.5622 240.649 70.7382C241.113 70.9142 241.505 71.1382 241.825 71.4102C242.145 71.6662 242.409 71.9382 242.617 72.2262L242.473 71.5302C242.473 71.1782 242.585 70.9142 242.809 70.7382C243.033 70.5462 243.385 70.4502 243.865 70.4502C244.313 70.4502 244.633 70.5222 244.825 70.6662C245.017 70.7942 245.137 70.9782 245.185 71.2182C245.233 71.4422 245.257 71.6982 245.257 71.9862V80.7702C245.257 81.0422 245.233 81.2902 245.185 81.5142C245.137 81.7382 245.009 81.9142 244.801 82.0422C244.609 82.1702 244.289 82.2342 243.841 82.2342ZM239.425 79.4502C239.969 79.4502 240.457 79.3142 240.889 79.0422C241.321 78.7702 241.665 78.4022 241.921 77.9382C242.193 77.4582 242.329 76.9302 242.329 76.3542C242.329 75.7302 242.193 75.1862 241.921 74.7222C241.649 74.2582 241.289 73.8982 240.841 73.6422C240.409 73.3702 239.921 73.2342 239.377 73.2342C238.785 73.2342 238.257 73.3782 237.793 73.6662C237.329 73.9382 236.961 74.3142 236.689 74.7942C236.433 75.2582 236.305 75.7862 236.305 76.3782C236.305 76.9542 236.441 77.4742 236.713 77.9382C236.985 78.4022 237.353 78.7702 237.817 79.0422C238.297 79.3142 238.833 79.4502 239.425 79.4502ZM257.073 79.6902C257.489 80.0422 257.705 80.3702 257.721 80.6742C257.753 80.9782 257.593 81.3302 257.241 81.7302C256.969 82.0342 256.729 82.2342 256.521 82.3302C256.313 82.4262 256.105 82.4262 255.897 82.3302C255.689 82.2502 255.441 82.0902 255.153 81.8502L250.569 77.9862V80.8422C250.569 81.0982 250.537 81.3382 250.473 81.5622C250.425 81.7862 250.297 81.9622 250.089 82.0902C249.897 82.2182 249.577 82.2822 249.129 82.2822C248.681 82.2822 248.353 82.2102 248.145 82.0662C247.953 81.9382 247.833 81.7622 247.785 81.5382C247.737 81.3142 247.713 81.0742 247.713 80.8182V66.4902C247.713 66.2182 247.737 65.9782 247.785 65.7702C247.849 65.5462 247.977 65.3702 248.169 65.2422C248.377 65.0982 248.705 65.0262 249.153 65.0262C249.601 65.0262 249.921 65.0982 250.113 65.2422C250.305 65.3702 250.425 65.5462 250.473 65.7702C250.537 65.9782 250.569 66.2262 250.569 66.5142V74.3862L253.881 71.1702C254.137 70.9302 254.377 70.7702 254.601 70.6902C254.825 70.5942 255.041 70.5862 255.249 70.6662C255.473 70.7302 255.705 70.8982 255.945 71.1702C256.345 71.6022 256.537 71.9622 256.521 72.2502C256.505 72.5222 256.305 72.8502 255.921 73.2342L252.681 76.2342L257.073 79.6902ZM268.027 82.2822C267.595 82.2822 267.275 82.2182 267.067 82.0902C266.875 81.9622 266.755 81.7862 266.707 81.5622C266.659 81.3222 266.635 81.0742 266.635 80.8182V69.1542C266.635 68.5622 266.715 68.0182 266.875 67.5222C267.035 67.0102 267.291 66.5702 267.643 66.2022C267.995 65.8342 268.451 65.5462 269.011 65.3382C269.571 65.1142 270.251 65.0022 271.051 65.0022C271.323 65.0022 271.563 65.0342 271.771 65.0982C271.995 65.1462 272.171 65.2662 272.299 65.4582C272.443 65.6502 272.515 65.9782 272.515 66.4422C272.515 66.8742 272.443 67.1942 272.299 67.4022C272.171 67.6102 271.995 67.7382 271.771 67.7862C271.547 67.8342 271.299 67.8582 271.027 67.8582C270.755 67.8582 270.515 67.8742 270.307 67.9062C270.115 67.9222 269.955 67.9702 269.827 68.0502C269.715 68.1302 269.627 68.2582 269.563 68.4342C269.515 68.6102 269.491 68.8342 269.491 69.1062V80.8662C269.491 81.1222 269.459 81.3622 269.395 81.5862C269.347 81.7942 269.219 81.9622 269.011 82.0902C268.803 82.2182 268.475 82.2822 268.027 82.2822ZM265.651 70.6902L268.123 70.7142L271.435 70.6182C271.707 70.6182 271.947 70.6502 272.155 70.7142C272.379 70.7622 272.555 70.8902 272.683 71.0982C272.811 71.2902 272.875 71.6102 272.875 72.0582C272.875 72.4742 272.811 72.7862 272.683 72.9942C272.555 73.2022 272.387 73.3382 272.179 73.4022C271.971 73.4502 271.731 73.4742 271.459 73.4742L268.243 73.4262L265.579 73.4502C265.179 73.4342 264.899 73.3222 264.739 73.1142C264.595 72.8902 264.523 72.5302 264.523 72.0342C264.523 71.5702 264.611 71.2342 264.787 71.0262C264.979 70.8022 265.267 70.6902 265.651 70.6902ZM276.177 82.2822C275.745 82.2822 275.425 82.2102 275.217 82.0662C275.009 81.9382 274.881 81.7702 274.833 81.5622C274.785 81.3382 274.761 81.0902 274.761 80.8182V71.8902C274.761 71.6342 274.785 71.4022 274.833 71.1942C274.897 70.9702 275.025 70.7942 275.217 70.6662C275.425 70.5382 275.753 70.4742 276.201 70.4742C276.649 70.4742 276.969 70.5382 277.161 70.6662C277.369 70.7942 277.497 70.9702 277.545 71.1942C277.593 71.4182 277.617 71.6662 277.617 71.9382V80.8422C277.617 81.1142 277.593 81.3622 277.545 81.5862C277.497 81.7942 277.369 81.9622 277.161 82.0902C276.969 82.2182 276.641 82.2822 276.177 82.2822ZM276.177 68.1462C275.713 68.1462 275.369 68.0822 275.145 67.9542C274.937 67.8102 274.801 67.6182 274.737 67.3782C274.689 67.1382 274.665 66.8742 274.665 66.5862C274.665 66.2822 274.689 66.0182 274.737 65.7942C274.801 65.5702 274.945 65.3942 275.169 65.2662C275.393 65.1222 275.737 65.0502 276.201 65.0502C276.681 65.0502 277.025 65.1222 277.233 65.2662C277.441 65.4102 277.577 65.6022 277.641 65.8422C277.705 66.0662 277.737 66.3302 277.737 66.6342C277.737 66.9062 277.705 67.1622 277.641 67.4022C277.577 67.6422 277.441 67.8262 277.233 67.9542C277.025 68.0822 276.673 68.1462 276.177 68.1462ZM284.347 82.4262C283.931 82.4262 283.491 82.3782 283.027 82.2822C282.563 82.2022 282.115 82.0822 281.683 81.9222C281.251 81.7462 280.875 81.5462 280.555 81.3222C280.251 81.0822 280.059 80.8182 279.979 80.5302C279.915 80.3702 279.891 80.2182 279.907 80.0742C279.923 79.9142 279.971 79.7542 280.051 79.5942C280.131 79.4182 280.251 79.2422 280.411 79.0662C280.555 78.8902 280.699 78.7942 280.843 78.7782C281.003 78.7462 281.203 78.7942 281.443 78.9222C281.651 79.0022 281.875 79.1062 282.115 79.2342C282.371 79.3622 282.627 79.4902 282.883 79.6182C283.155 79.7462 283.427 79.8502 283.699 79.9302C283.987 80.0102 284.267 80.0502 284.539 80.0502C285.131 80.0502 285.603 79.9542 285.955 79.7622C286.307 79.5542 286.483 79.2662 286.483 78.8982C286.483 78.6902 286.427 78.5062 286.315 78.3462C286.203 78.1862 286.051 78.0582 285.859 77.9622C285.683 77.8502 285.467 77.7542 285.211 77.6742C284.971 77.5782 284.707 77.4982 284.419 77.4342C284.147 77.3542 283.859 77.2662 283.555 77.1702C283.155 77.0582 282.755 76.9222 282.355 76.7622C281.955 76.6022 281.595 76.3942 281.275 76.1382C280.971 75.8822 280.723 75.5622 280.531 75.1782C280.339 74.7942 280.243 74.3142 280.243 73.7382C280.243 73.0182 280.411 72.4102 280.747 71.9142C281.099 71.4022 281.603 71.0102 282.259 70.7382C282.915 70.4662 283.707 70.3302 284.635 70.3302C284.955 70.3302 285.259 70.3542 285.547 70.4022C285.851 70.4502 286.139 70.5222 286.411 70.6182C286.699 70.6982 286.971 70.8022 287.227 70.9302C287.499 71.0582 287.755 71.2022 287.995 71.3622C288.395 71.5862 288.603 71.8502 288.619 72.1542C288.635 72.4422 288.523 72.7542 288.283 73.0902C288.107 73.3142 287.931 73.4742 287.755 73.5702C287.579 73.6502 287.395 73.6502 287.203 73.5702C286.947 73.4422 286.667 73.3062 286.363 73.1622C286.075 73.0022 285.771 72.8662 285.451 72.7542C285.147 72.6422 284.827 72.5862 284.491 72.5862C284.171 72.5862 283.883 72.6342 283.627 72.7302C283.371 72.8262 283.179 72.9622 283.051 73.1382C282.923 73.3142 282.859 73.5222 282.859 73.7622C282.859 73.9862 282.923 74.1702 283.051 74.3142C283.179 74.4582 283.347 74.5782 283.555 74.6742C283.763 74.7702 284.011 74.8582 284.299 74.9382C284.587 75.0022 284.891 75.0662 285.211 75.1302C285.659 75.2262 286.115 75.3462 286.579 75.4902C287.043 75.6342 287.467 75.8342 287.851 76.0902C288.251 76.3462 288.571 76.6902 288.811 77.1222C289.051 77.5382 289.171 78.0822 289.171 78.7542C289.171 79.9222 288.739 80.8262 287.875 81.4662C287.027 82.1062 285.851 82.4262 284.347 82.4262ZM292.795 82.2822C292.363 82.2822 292.043 82.2102 291.835 82.0662C291.627 81.9382 291.499 81.7702 291.451 81.5622C291.403 81.3382 291.379 81.0902 291.379 80.8182V71.8902C291.379 71.6342 291.403 71.4022 291.451 71.1942C291.515 70.9702 291.643 70.7942 291.835 70.6662C292.043 70.5382 292.371 70.4742 292.819 70.4742C293.267 70.4742 293.587 70.5382 293.779 70.6662C293.987 70.7942 294.115 70.9702 294.163 71.1942C294.211 71.4182 294.235 71.6662 294.235 71.9382V80.8422C294.235 81.1142 294.211 81.3622 294.163 81.5862C294.115 81.7942 293.987 81.9622 293.779 82.0902C293.587 82.2182 293.259 82.2822 292.795 82.2822ZM292.795 68.1462C292.331 68.1462 291.987 68.0822 291.763 67.9542C291.555 67.8102 291.419 67.6182 291.355 67.3782C291.307 67.1382 291.283 66.8742 291.283 66.5862C291.283 66.2822 291.307 66.0182 291.355 65.7942C291.419 65.5702 291.563 65.3942 291.787 65.2662C292.011 65.1222 292.355 65.0502 292.819 65.0502C293.299 65.0502 293.643 65.1222 293.851 65.2662C294.059 65.4102 294.195 65.6022 294.259 65.8422C294.323 66.0662 294.355 66.3302 294.355 66.6342C294.355 66.9062 294.323 67.1622 294.259 67.4022C294.195 67.6422 294.059 67.8262 293.851 67.9542C293.643 68.0822 293.291 68.1462 292.795 68.1462ZM306.268 79.6902C306.684 80.0422 306.9 80.3702 306.916 80.6742C306.948 80.9782 306.788 81.3302 306.436 81.7302C306.164 82.0342 305.924 82.2342 305.716 82.3302C305.508 82.4262 305.3 82.4262 305.092 82.3302C304.884 82.2502 304.636 82.0902 304.348 81.8502L299.764 77.9862V80.8422C299.764 81.0982 299.732 81.3382 299.668 81.5622C299.62 81.7862 299.492 81.9622 299.284 82.0902C299.092 82.2182 298.772 82.2822 298.324 82.2822C297.876 82.2822 297.548 82.2102 297.34 82.0662C297.148 81.9382 297.028 81.7622 296.98 81.5382C296.932 81.3142 296.908 81.0742 296.908 80.8182V66.4902C296.908 66.2182 296.932 65.9782 296.98 65.7702C297.044 65.5462 297.172 65.3702 297.364 65.2422C297.572 65.0982 297.9 65.0262 298.348 65.0262C298.796 65.0262 299.116 65.0982 299.308 65.2422C299.5 65.3702 299.62 65.5462 299.668 65.7702C299.732 65.9782 299.764 66.2262 299.764 66.5142V74.3862L303.076 71.1702C303.332 70.9302 303.572 70.7702 303.796 70.6902C304.02 70.5942 304.236 70.5862 304.444 70.6662C304.668 70.7302 304.9 70.8982 305.14 71.1702C305.54 71.6022 305.732 71.9622 305.716 72.2502C305.7 72.5222 305.5 72.8502 305.116 73.2342L301.876 76.2342L306.268 79.6902Z" fill="black"/>
</svg>
