<svg width="973" height="830" viewBox="0 0 973 830" fill="none" xmlns="http://www.w3.org/2000/svg">
<path d="M957.876 40.2218C958.21 209.369 960.913 727.301 957.179 815.139C906.397 826.439 904.762 817.06 853.225 814.911L26.1786 780.381C20.814 780.16 14.9598 779.705 10.9129 775.16C7.21502 770.956 5.9546 764.308 4.98064 758.082C-3.38394 704.4 39.9859 78.6544 41.3504 27.2481C98.1786 15.7939 173.913 16.6241 231.559 16.5973C291.85 16.5973 337.147 12.42 397.403 13.5179C516.376 15.6868 635.304 20.0851 754.189 26.7192C822.106 30.5752 890.001 35.0738 957.876 40.2218Z" fill="#116D4F"/>
<path d="M578.429 239.099C587.825 267.222 609.002 285.525 629.892 300.252C654.319 317.457 680.033 332.185 702.262 353.761C724.491 375.337 743.476 405.314 747.752 440.721C753.997 492.576 728.189 541.257 701.424 580.881C674.663 620.512 644.226 661.094 638.236 713.002C636.892 724.55 637.148 737.45 642.981 746.4C648.293 754.554 656.924 757.453 664.997 759.829C745.976 783.675 827.903 799.166 910.793 806.309C915.674 806.737 920.752 807.085 925.262 804.635C934.986 799.36 938.023 783.882 939.71 770.507C963.054 586.511 965.773 399.336 968.439 212.944C969.2 160.44 969.856 107.28 959.007 56.777C957.955 51.7763 956.611 46.6216 953.465 43.4752C950.747 41.2058 947.778 39.8803 944.554 39.4987C867.694 22.7159 790.288 14.9638 712.335 16.2491C686.819 16.644 652.47 11.7237 630.96 33.7482C615.288 49.8282 609.142 78.025 600.991 100.478C585.512 143.088 562.325 190.839 578.429 239.099Z" fill="#15664C"/>
<path d="M867.345 62.5009C900.621 69.4296 927.637 72.5024 961.377 70.4539C961.903 46.9766 961.262 40.0479 961.767 16.5975C824.71 14.7431 25.5015 -13.4068 25.1109 17.1196C24.663 51.9238 34.8348 42.1232 51.9703 38.7492C83.9598 32.2222 174.496 35.6966 206.762 33.6213C334.173 25.4742 833.986 55.5789 867.345 62.5009Z" fill="#CD924C"/>
<path d="M959.882 783.407C959.882 799.434 959.491 805.01 955.074 822.59C795.147 845.09 646.793 804.736 485.892 805.814C452.09 806.034 9.56917 793.308 5.50668 775.307C-2.46728 739.653 10.4077 733.253 25.5588 733.226C94.5015 733.226 199.876 751.181 268.824 752.854C344.772 754.702 877.574 786.259 959.882 783.407Z" fill="#CD924C"/>
<path d="M942.085 270.148C942.085 482.199 941.189 629.737 915.538 790.63C913.788 801.562 909.705 798.757 915.012 807.688C920.325 816.611 950.116 810.339 957.179 812.688C976.783 616.241 972.054 431.616 968.653 233.643C967.7 178.213 968.788 71.1299 961.71 16.4701C935.085 17.1195 935.085 17.1195 933.819 48.6969C931.934 96.1334 942.085 223.119 942.085 270.148Z" fill="#CD924C"/>
<path d="M41.7776 779.009C25.9859 771.88 21.8817 770.855 5.52755 775.307C-9.08182 777.804 22.6578 114.784 12.8192 41.7482C9.90255 20.1186 14.413 14.2477 42.9859 10.3448C59.3609 8.12228 51.6005 47.2778 50.6057 65.3527C47.3973 123.48 36.9911 470.873 37.8869 586.411C38.0432 605.838 32.7932 775.079 41.7776 779.009Z" fill="#CD924C"/>
<path d="M24.038 154.388C22.0953 159.161 19.663 163.687 18.6161 168.915C17.9651 172.844 17.7203 176.821 17.8921 180.838C18.2046 211.625 18.5015 242.413 18.788 273.2C19.0015 295.379 19.2151 317.557 20.7359 339.655C22.564 367.538 26.314 395.815 22.1369 423.269C18.9234 444.296 11.163 463.843 8.03277 484.897C4.63173 507.698 6.80881 531.202 7.2359 554.432C7.64735 576.456 6.47548 598.461 5.75673 620.492C4.06402 671.892 -9.4516 786.955 11.9807 779.009C11.9807 755.056 7.91819 726.826 7.91819 702.873C7.91819 668.042 7.91819 633.017 12.5849 598.689C15.5432 576.811 20.3661 554.579 17.2151 532.729C15.4807 521.328 11.5953 510.403 11.3974 498.801C10.9338 474.648 25.8296 454.772 30.8453 431.543C36.4703 406.017 29.8921 379.039 26.6838 352.857C22.5796 319.358 24.0796 285.176 25.5953 251.323L28.0849 195.666C28.4859 180.456 29.7255 165.367 31.7984 150.385C34.1734 135.383 38.2984 120.38 37.9078 105.03C37.6369 94.3526 35.2046 84.0031 33.4911 73.5531C31.4234 60.7601 30.439 47.8333 30.538 34.7725C30.6317 24.4229 38.9182 14.2475 47.2046 9.76891C24.2567 13.9931 20.7359 37.6712 23.7671 60.8539C27.7567 91.2531 35.8869 125.16 24.038 154.388Z" fill="#AA762A"/>
<path d="M29.5639 729.002C30.1472 721.497 31.2566 713.049 27.6212 706.997C24.3139 701.374 21.1212 665.847 23.9441 660.719C34.0587 642.316 34.366 618.216 34.2879 595.71C34.2879 570.586 34.116 545.234 30.0691 520.706C29.4962 517.854 29.1525 514.962 29.0379 512.03C29.1525 508.408 29.6316 504.88 30.4754 501.426C33.3972 486.912 35.6889 472.238 37.3452 457.397C34.2722 470.049 32.3243 484.201 28.0639 496.251C25.965 502.202 19.5066 506.949 20.5587 513.402C37.3816 615.512 13.9441 668.417 13.9441 668.417C13.1108 671.611 12.5222 674.884 12.1837 678.225C11.84 681.565 11.7566 684.919 11.9233 688.28C12.09 691.64 12.5066 694.954 13.1733 698.214C13.84 701.474 14.7462 704.614 15.892 707.647C18.2462 713.899 20.2097 720.152 20.2097 724.249C20.1785 737.892 21.1941 751.401 23.2618 764.783C23.9233 769.081 20.7931 778.005 23.0118 781.359C25.2254 784.706 53.2514 786.707 58.7566 786.005C53.1368 770.259 28.2045 746.28 29.5639 729.002Z" fill="#AA762A"/>
<path d="M53.7567 767.582C63.9286 773.633 76.5536 770.534 85.3609 761.657C89.6994 757.306 93.689 751.455 99.1317 750.652C104.58 749.855 109.809 754.554 115.293 754.253C118.257 753.831 121.059 752.72 123.694 750.926C129.746 747.405 149.371 746.802 155.418 743.301C145.418 739.351 125.017 736.279 116.517 738.026C111.6 739.03 106.658 740.027 101.814 741.601C94.5432 743.977 87.4807 747.679 80.0119 748.703C72.5484 749.728 64.6682 741.855 59.9234 734.377C58.7775 732.577 40.2411 726.404 37.7723 732.075C33.8244 741.005 46.8921 763.478 53.7567 767.582Z" fill="#AA762A"/>
<path d="M184.689 784.833C196.861 782.704 208.981 779.504 221.272 779.21C247.663 778.554 273.163 791.307 299.455 794.212C323.845 797.01 348.351 791.333 372.095 783.608C384.798 779.484 398.392 774.785 410.72 780.509C416.851 783.36 422.101 788.582 427.856 792.485C458.158 813.037 499.272 796.836 532.996 804.588C397.788 812.233 313.694 804.434 286.33 801.757C212.246 794.56 127.918 793.282 65.8557 786.761C79.4703 768.405 99.9495 778.058 115.429 783.233C137.642 790.811 162.205 788.756 184.689 784.833Z" fill="#AA762A"/>
<path d="M893.58 785.081C879.325 783.005 794.72 778.433 794.72 778.433C789.705 777.784 738.085 777.134 733.319 776.579C552.981 755.579 372.121 744.687 190.757 743.904C158.434 743.904 138.767 778.032 183.465 769.409C213.861 763.531 246.168 748.503 276.215 764.757C284.595 769.282 292.241 776.104 300.991 779.283C334.793 791.534 370.288 746.079 403.33 761.383C415.002 766.832 424.356 779.357 436.397 783.434C457.788 790.63 478.481 769.208 500.46 765.928C521.272 762.808 541.184 776.083 561.705 781.58C587.71 788.555 614.606 782.932 641.153 781.231C677.851 778.882 859.799 795.009 901.455 796.234C906.726 796.381 914.059 799.962 912.408 806.382C911.95 807.627 911.314 808.705 910.512 809.609C909.705 810.519 908.793 811.189 907.778 811.611C896.731 817.937 884.127 817.508 872.09 816.31C860.049 815.112 847.799 813.184 835.778 810.633C829.163 809.234 822.262 807.661 815.84 810.111C812.653 811.336 809.757 813.512 806.663 815.112C797.481 819.838 787.215 819.236 777.491 818.586C760.746 817.462 743.882 816.337 727.564 811.336C720.038 809.033 712.668 805.907 705.064 804.059C692.517 801.007 679.642 801.562 666.866 801.984C626.507 803.611 585.549 805.512 546.283 793.362C529.71 788.361 512.205 780.636 496.121 787.859C498.496 793.683 503.903 796.334 509.054 796.709C514.21 797.084 519.267 795.732 524.361 795.859C528.929 796.106 533.429 796.937 537.861 798.362C562.231 805.184 586.83 811.811 611.767 811.986C629.835 812.113 647.845 808.832 665.892 809.234C714.512 810.312 762.632 838.04 810.668 827.691C819.575 825.763 828.424 822.563 837.429 823.165C843.127 823.895 848.746 825.16 854.293 826.961C873.877 832.162 891.246 828.815 911.22 827.316C972.871 822.589 907.814 787.036 893.58 785.081Z" fill="#AA762A"/>
<path d="M954.319 203.291C952.064 191.388 951.382 177.317 949.809 165.24C948.309 153.913 953.074 136.882 954.434 125.535C957.392 100.733 952.918 84.405 955.876 59.629C956.538 54.1262 957.158 48.3222 955.678 43.1006C954.199 37.8722 949.845 33.5744 945.663 35.1476C945.059 41.7751 919.522 13.344 933.642 71.1032L933.876 93.1546C936.21 117.208 946.481 138.683 944.496 162.79C943.814 171.064 942.882 179.465 944.012 187.793C945.043 195.291 947.746 202.34 949.397 209.717C956.632 242.045 942.824 275.979 943.678 309.732C943.991 321.909 946.246 333.885 947.085 346.035C947.632 356.077 947.705 366.132 947.298 376.187L945.606 443.292C944.923 470.498 940.043 503.3 939.168 530.379C937.767 573.886 922.772 729.799 926.527 710.224C929.033 696.748 935.22 680.073 939.303 667.567C947.803 641.714 949.126 613.042 950.33 585.059C953.908 501.774 957.491 418.214 952.548 335.03C951.46 316.808 949.96 298.525 951.012 280.303C952.548 254.523 959.085 228.422 954.319 203.291Z" fill="#AA762A"/>
<path d="M971.996 424.668C970.538 376.388 971.762 329.654 969.121 291.429C963.033 319.459 959.762 388.565 959.762 388.565C962.7 420.243 961.944 452.296 961.147 484.201L960.038 530.406C959.356 558.281 958.658 586.183 955.991 613.865C952.668 648.066 946.377 681.344 937.127 713.698C932.575 729.678 927.246 745.55 925.71 762.454C924.174 779.357 926.991 797.961 936.621 809.636C938.392 811.811 940.882 813.813 943.137 812.635C947.028 810.633 945.47 803.182 943.621 798.336C942.064 794.219 940.799 789.954 939.83 785.549C938.856 781.144 938.189 776.666 937.83 772.114C937.47 767.555 937.418 762.996 937.684 758.43C937.95 753.865 938.522 749.366 939.403 744.928C942.903 727.549 951.069 712.226 954.96 694.921C957.205 684.056 958.606 673.017 959.163 661.797C962.325 620.124 965.491 578.451 968.653 536.779C971.752 499.504 972.866 462.136 971.996 424.668Z" fill="#AA762A"/>
<path d="M952.762 769.483C952.715 770.842 952.897 772.147 953.309 773.406C953.829 774.785 952.079 818.412 955.074 822.59C957.428 825.937 968.809 716.45 967.001 682.094C955.465 694.345 952.449 752.131 952.762 769.483Z" fill="#AA762A"/>
<path d="M956.048 147.513C957.429 151.409 959.726 154.709 960.97 158.713C962.132 163.191 962.58 167.783 962.314 172.49C962.137 198.879 960.606 225.141 957.72 251.269C957.257 255.5 956.788 260.026 958.226 263.774C959.668 267.523 966.241 282.827 968.83 280.129C970.147 279.326 966.397 99.3533 965.95 85.4022C962.293 93.2548 961.71 103.403 959.533 112.059C956.809 123.306 951.887 135.711 956.048 147.513Z" fill="#AA762A"/>
<path d="M357.278 30.4479C393.455 27.248 429.59 21.7987 465.84 22.1C498.455 22.3745 530.934 27.2948 563.397 31.3449C613.965 37.6243 664.804 41.7748 715.663 41.9221C749.366 41.9221 783.054 40.3221 816.793 38.6485C842.778 37.3498 869.21 35.9507 893.793 25.0455L747.054 26.0229C706.793 26.2974 666.512 26.5451 626.293 24.7978C603.658 23.8204 580.981 22.1736 558.746 16.7244C543.366 12.922 528.215 7.31875 512.637 5.19663C495.366 2.69292 477.939 4.76818 460.647 6.69617L385.012 15.1713C372.913 16.5235 360.663 17.9227 349.304 23.3987C343.897 25.8957 338.569 29.5241 332.809 29.5709C326.741 29.5709 321.142 25.7953 315.309 23.3719C294.981 14.8232 273.085 23.72 251.825 26.7994C185.293 36.4461 116.246 -13.0791 51.0954 9.2936C47.8246 10.4183 47.0121 15.4725 47.2048 19.7971C47.3975 24.1217 50.4704 26.1233 53.2725 27.2948C71.6527 35.375 103.392 35.221 122.705 32.4696C114.674 28.9751 99.6006 27.1944 88.1423 24.5501C87.8037 24.4698 87.4808 24.3225 87.1787 24.1016C86.8766 23.8807 86.611 23.6062 86.3819 23.2715C86.1527 22.9368 85.9756 22.5619 85.8454 22.1468C85.7152 21.7385 85.6423 21.3033 85.6266 20.8615C85.611 20.4197 85.6527 19.9779 85.7516 19.5561C85.8558 19.1277 86.0069 18.7327 86.21 18.3712C86.4131 18.0097 86.6579 17.7085 86.9444 17.4541C87.2256 17.1997 87.5381 17.0122 87.8714 16.8984C91.7569 16.1955 95.6423 16.1286 99.5433 16.6976C107.163 17.1729 114.741 18.1771 122.278 19.6967C141.038 23.0305 159.84 25.8154 178.679 28.0446C216.465 32.4094 254.325 34.3173 292.262 33.775C313.976 33.4738 335.653 32.3625 357.278 30.4479Z" fill="#AA762A"/>
<path d="M961.71 16.5972H943.699C936.205 17.8022 928.986 20.3193 922.043 24.1418C915.1 27.971 908.705 32.9516 902.856 39.0971C898.965 43.2476 895.194 48.0006 890.47 50.3503C886.439 52.0173 882.309 52.7804 878.08 52.6264C861.08 53.249 815.475 55.4515 798.455 56.0741C819.85 65.0245 871.173 69.4495 893.366 64.9241C901.689 63.2036 910.288 59.6489 915.772 51.4281C917.408 48.5362 919.163 45.7781 921.043 43.1472C923.809 40.2619 926.903 38.1665 930.319 36.8477C941.444 31.5257 953.288 40.1749 964.47 45.2024L961.71 16.5972Z" fill="#AA762A"/>
<path d="M283.876 7.72038C288.684 6.743 293.507 6.56894 298.345 7.19822C306.632 8.69776 342.595 8.59735 349.731 3.02091C338.548 -0.754726 301.809 -0.00495254 290.741 0.195879C271.778 0.543987 185.486 2.09709 179.376 4.99576C186.397 16.1687 218.725 13.1696 229.632 13.0223C247.788 12.4466 265.866 10.6793 283.876 7.72038Z" fill="#AA762A"/>
<path d="M83.9225 98.8369C83.5385 98.8369 83.2185 98.7089 82.9625 98.4529C82.7065 98.1969 82.5785 97.8875 82.5785 97.5249V79.3169L82.9625 79.7649L79.3465 82.2609C79.1332 82.4102 78.8878 82.4849 78.6105 82.4849C78.2478 82.4849 77.9385 82.3569 77.6825 82.1009C77.4265 81.8235 77.2985 81.5142 77.2985 81.1729C77.2985 80.7035 77.5225 80.3302 77.9705 80.0529L83.0585 76.6929C83.2292 76.5862 83.3998 76.5115 83.5705 76.4689C83.7412 76.4262 83.9118 76.4155 84.0825 76.4369C84.4665 76.4369 84.7652 76.5649 84.9785 76.8209C85.2132 77.0555 85.3305 77.3542 85.3305 77.7169V97.5249C85.3305 97.8875 85.1918 98.1969 84.9145 98.4529C84.6585 98.7089 84.3278 98.8369 83.9225 98.8369ZM91.7298 98.8049C91.2818 98.8049 90.9298 98.6769 90.6738 98.4209C90.4391 98.1649 90.3218 97.8129 90.3218 97.3649V96.7249C90.3218 96.2555 90.4391 95.8929 90.6738 95.6369C90.9298 95.3809 91.2818 95.2529 91.7298 95.2529H91.9858C92.4551 95.2529 92.8071 95.3809 93.0418 95.6369C93.2764 95.8929 93.3938 96.2555 93.3938 96.7249V97.3649C93.3938 97.8129 93.2764 98.1649 93.0418 98.4209C92.8071 98.6769 92.4551 98.8049 91.9858 98.8049H91.7298ZM127.918 96.3089C128.281 96.3089 128.59 96.4369 128.846 96.6929C129.102 96.9275 129.23 97.2262 129.23 97.5889C129.23 97.9515 129.102 98.2502 128.846 98.4849C128.59 98.7195 128.281 98.8369 127.918 98.8369H116.846C116.483 98.8369 116.174 98.7089 115.918 98.4529C115.683 98.1969 115.566 97.8875 115.566 97.5249V77.7169C115.566 77.3542 115.694 77.0555 115.95 76.8209C116.206 76.5649 116.526 76.4369 116.91 76.4369C117.273 76.4369 117.582 76.5649 117.838 76.8209C118.094 77.0555 118.222 77.3542 118.222 77.7169V96.8849L117.582 96.3089H127.918ZM146.094 82.1329C146.456 82.1329 146.755 82.2609 146.99 82.5169C147.246 82.7515 147.374 83.0502 147.374 83.4129V97.5249C147.374 97.8875 147.246 98.1969 146.99 98.4529C146.755 98.7089 146.456 98.8369 146.094 98.8369C145.71 98.8369 145.4 98.7089 145.166 98.4529C144.931 98.1969 144.814 97.8875 144.814 97.5249V94.4849L145.422 94.4209C145.422 94.8902 145.262 95.4022 144.942 95.9569C144.622 96.5115 144.184 97.0342 143.63 97.5249C143.075 97.9942 142.414 98.3889 141.646 98.7089C140.899 99.0075 140.088 99.1569 139.214 99.1569C137.763 99.1569 136.462 98.7835 135.31 98.0369C134.158 97.2689 133.24 96.2342 132.558 94.9329C131.896 93.6315 131.566 92.1489 131.566 90.4849C131.566 88.7995 131.896 87.3169 132.558 86.0369C133.24 84.7355 134.158 83.7222 135.31 82.9969C136.462 82.2502 137.742 81.8769 139.15 81.8769C140.067 81.8769 140.92 82.0262 141.71 82.3249C142.499 82.6235 143.182 83.0289 143.758 83.5409C144.355 84.0529 144.814 84.6182 145.134 85.2369C145.475 85.8555 145.646 86.4742 145.646 87.0929L144.814 86.9009V83.4129C144.814 83.0502 144.931 82.7515 145.166 82.5169C145.4 82.2609 145.71 82.1329 146.094 82.1329ZM139.502 96.7889C140.568 96.7889 141.507 96.5115 142.318 95.9569C143.15 95.4022 143.79 94.6555 144.238 93.7169C144.707 92.7569 144.942 91.6795 144.942 90.4849C144.942 89.3115 144.707 88.2555 144.238 87.3169C143.79 86.3569 143.15 85.6102 142.318 85.0769C141.507 84.5222 140.568 84.2449 139.502 84.2449C138.456 84.2449 137.518 84.5115 136.686 85.0449C135.875 85.5782 135.235 86.3142 134.766 87.2529C134.296 88.1915 134.062 89.2689 134.062 90.4849C134.062 91.6795 134.286 92.7569 134.734 93.7169C135.203 94.6555 135.843 95.4022 136.654 95.9569C137.486 96.5115 138.435 96.7889 139.502 96.7889ZM164.502 82.0369C164.865 82.0369 165.163 82.1649 165.398 82.4209C165.654 82.6555 165.782 82.9542 165.782 83.3169V97.2689C165.782 99.0609 165.43 100.544 164.726 101.717C164.022 102.912 163.073 103.797 161.878 104.373C160.705 104.949 159.371 105.237 157.878 105.237C157.046 105.237 156.246 105.152 155.478 104.981C154.71 104.81 154.081 104.586 153.59 104.309C153.185 104.117 152.897 103.872 152.726 103.573C152.577 103.296 152.555 102.997 152.662 102.677C152.811 102.293 153.025 102.026 153.302 101.877C153.601 101.728 153.91 101.728 154.23 101.877C154.571 102.026 155.062 102.229 155.702 102.485C156.363 102.762 157.099 102.901 157.91 102.901C159.019 102.901 159.969 102.688 160.758 102.261C161.547 101.834 162.155 101.205 162.582 100.373C163.009 99.5622 163.222 98.5489 163.222 97.3329V95.0609L163.606 95.8609C163.265 96.5222 162.806 97.0982 162.23 97.5889C161.654 98.0795 160.993 98.4635 160.246 98.7409C159.499 99.0182 158.678 99.1569 157.782 99.1569C156.566 99.1569 155.531 98.9009 154.678 98.3889C153.846 97.8555 153.206 97.1302 152.758 96.2129C152.331 95.2742 152.118 94.1969 152.118 92.9809V83.3169C152.118 82.9542 152.235 82.6555 152.47 82.4209C152.726 82.1649 153.035 82.0369 153.398 82.0369C153.782 82.0369 154.091 82.1649 154.326 82.4209C154.561 82.6555 154.678 82.9542 154.678 83.3169V92.4049C154.678 93.8555 154.998 94.9542 155.638 95.7009C156.278 96.4262 157.27 96.7889 158.614 96.7889C159.467 96.7889 160.235 96.5969 160.918 96.2129C161.622 95.8289 162.177 95.3062 162.582 94.6449C163.009 93.9622 163.222 93.2155 163.222 92.4049V83.3169C163.222 82.9542 163.339 82.6555 163.574 82.4209C163.809 82.1649 164.118 82.0369 164.502 82.0369ZM184.156 82.1329C184.519 82.1329 184.818 82.2609 185.052 82.5169C185.308 82.7515 185.436 83.0502 185.436 83.4129V97.5249C185.436 97.8875 185.308 98.1969 185.052 98.4529C184.818 98.7089 184.519 98.8369 184.156 98.8369C183.772 98.8369 183.463 98.7089 183.228 98.4529C182.994 98.1969 182.876 97.8875 182.876 97.5249V94.4849L183.484 94.4209C183.484 94.8902 183.324 95.4022 183.004 95.9569C182.684 96.5115 182.247 97.0342 181.692 97.5249C181.138 97.9942 180.476 98.3889 179.708 98.7089C178.962 99.0075 178.151 99.1569 177.276 99.1569C175.826 99.1569 174.524 98.7835 173.372 98.0369C172.22 97.2689 171.303 96.2342 170.62 94.9329C169.959 93.6315 169.628 92.1489 169.628 90.4849C169.628 88.7995 169.959 87.3169 170.62 86.0369C171.303 84.7355 172.22 83.7222 173.372 82.9969C174.524 82.2502 175.804 81.8769 177.212 81.8769C178.13 81.8769 178.983 82.0262 179.772 82.3249C180.562 82.6235 181.244 83.0289 181.82 83.5409C182.418 84.0529 182.876 84.6182 183.196 85.2369C183.538 85.8555 183.708 86.4742 183.708 87.0929L182.876 86.9009V83.4129C182.876 83.0502 182.994 82.7515 183.228 82.5169C183.463 82.2609 183.772 82.1329 184.156 82.1329ZM177.564 96.7889C178.631 96.7889 179.57 96.5115 180.38 95.9569C181.212 95.4022 181.852 94.6555 182.3 93.7169C182.77 92.7569 183.004 91.6795 183.004 90.4849C183.004 89.3115 182.77 88.2555 182.3 87.3169C181.852 86.3569 181.212 85.6102 180.38 85.0769C179.57 84.5222 178.631 84.2449 177.564 84.2449C176.519 84.2449 175.58 84.5115 174.748 85.0449C173.938 85.5782 173.298 86.3142 172.828 87.2529C172.359 88.1915 172.124 89.2689 172.124 90.4849C172.124 91.6795 172.348 92.7569 172.796 93.7169C173.266 94.6555 173.906 95.4022 174.716 95.9569C175.548 96.5115 176.498 96.7889 177.564 96.7889ZM198.405 81.8769C199.855 81.8769 200.997 82.1755 201.829 82.7729C202.661 83.3702 203.247 84.1702 203.589 85.1729C203.951 86.1755 204.133 87.2955 204.133 88.5329V97.5249C204.133 97.8875 204.005 98.1969 203.749 98.4529C203.514 98.7089 203.215 98.8369 202.853 98.8369C202.49 98.8369 202.181 98.7089 201.925 98.4529C201.69 98.1969 201.573 97.8875 201.573 97.5249V88.5969C201.573 87.7862 201.445 87.0609 201.189 86.4209C200.954 85.7595 200.549 85.2369 199.973 84.8529C199.418 84.4475 198.65 84.2449 197.669 84.2449C196.773 84.2449 195.951 84.4475 195.205 84.8529C194.458 85.2369 193.861 85.7595 193.413 86.4209C192.965 87.0609 192.741 87.7862 192.741 88.5969V97.5249C192.741 97.8875 192.613 98.1969 192.357 98.4529C192.122 98.7089 191.823 98.8369 191.461 98.8369C191.098 98.8369 190.789 98.7089 190.533 98.4529C190.298 98.1969 190.181 97.8875 190.181 97.5249V83.5729C190.181 83.2102 190.298 82.9115 190.533 82.6769C190.789 82.4209 191.098 82.2929 191.461 82.2929C191.845 82.2929 192.154 82.4209 192.389 82.6769C192.623 82.9115 192.741 83.2102 192.741 83.5729V85.8449L192.101 86.5489C192.207 85.9942 192.453 85.4395 192.837 84.8849C193.221 84.3089 193.701 83.7969 194.277 83.3489C194.853 82.9009 195.493 82.5489 196.197 82.2929C196.901 82.0155 197.637 81.8769 198.405 81.8769ZM222.5 82.1329C222.863 82.1329 223.161 82.2609 223.396 82.5169C223.652 82.7515 223.78 83.0502 223.78 83.4129V97.5249C223.78 97.8875 223.652 98.1969 223.396 98.4529C223.161 98.7089 222.863 98.8369 222.5 98.8369C222.116 98.8369 221.807 98.7089 221.572 98.4529C221.337 98.1969 221.22 97.8875 221.22 97.5249V94.4849L221.828 94.4209C221.828 94.8902 221.668 95.4022 221.348 95.9569C221.028 96.5115 220.591 97.0342 220.036 97.5249C219.481 97.9942 218.82 98.3889 218.052 98.7089C217.305 99.0075 216.495 99.1569 215.62 99.1569C214.169 99.1569 212.868 98.7835 211.716 98.0369C210.564 97.2689 209.647 96.2342 208.964 94.9329C208.303 93.6315 207.972 92.1489 207.972 90.4849C207.972 88.7995 208.303 87.3169 208.964 86.0369C209.647 84.7355 210.564 83.7222 211.716 82.9969C212.868 82.2502 214.148 81.8769 215.556 81.8769C216.473 81.8769 217.327 82.0262 218.116 82.3249C218.905 82.6235 219.588 83.0289 220.164 83.5409C220.761 84.0529 221.22 84.6182 221.54 85.2369C221.881 85.8555 222.052 86.4742 222.052 87.0929L221.22 86.9009V83.4129C221.22 83.0502 221.337 82.7515 221.572 82.5169C221.807 82.2609 222.116 82.1329 222.5 82.1329ZM215.908 96.7889C216.975 96.7889 217.913 96.5115 218.724 95.9569C219.556 95.4022 220.196 94.6555 220.644 93.7169C221.113 92.7569 221.348 91.6795 221.348 90.4849C221.348 89.3115 221.113 88.2555 220.644 87.3169C220.196 86.3569 219.556 85.6102 218.724 85.0769C217.913 84.5222 216.975 84.2449 215.908 84.2449C214.863 84.2449 213.924 84.5115 213.092 85.0449C212.281 85.5782 211.641 86.3142 211.172 87.2529C210.703 88.1915 210.468 89.2689 210.468 90.4849C210.468 91.6795 210.692 92.7569 211.14 93.7169C211.609 94.6555 212.249 95.4022 213.06 95.9569C213.892 96.5115 214.841 96.7889 215.908 96.7889ZM236.748 81.8769C238.199 81.8769 239.34 82.1755 240.172 82.7729C241.004 83.3702 241.591 84.1702 241.932 85.1729C242.295 86.1755 242.476 87.2955 242.476 88.5329V97.5249C242.476 97.8875 242.348 98.1969 242.092 98.4529C241.858 98.7089 241.559 98.8369 241.196 98.8369C240.834 98.8369 240.524 98.7089 240.268 98.4529C240.034 98.1969 239.916 97.8875 239.916 97.5249V88.5969C239.916 87.7862 239.788 87.0609 239.532 86.4209C239.298 85.7595 238.892 85.2369 238.316 84.8529C237.762 84.4475 236.994 84.2449 236.012 84.2449C235.116 84.2449 234.295 84.4475 233.548 84.8529C232.802 85.2369 232.204 85.7595 231.756 86.4209C231.308 87.0609 231.084 87.7862 231.084 88.5969V97.5249C231.084 97.8875 230.956 98.1969 230.7 98.4529C230.466 98.7089 230.167 98.8369 229.804 98.8369C229.442 98.8369 229.132 98.7089 228.876 98.4529C228.642 98.1969 228.524 97.8875 228.524 97.5249V83.5729C228.524 83.2102 228.642 82.9115 228.876 82.6769C229.132 82.4209 229.442 82.2929 229.804 82.2929C230.188 82.2929 230.498 82.4209 230.732 82.6769C230.967 82.9115 231.084 83.2102 231.084 83.5729V85.8449L230.444 86.5489C230.551 85.9942 230.796 85.4395 231.18 84.8849C231.564 84.3089 232.044 83.7969 232.62 83.3489C233.196 82.9009 233.836 82.5489 234.54 82.2929C235.244 82.0155 235.98 81.8769 236.748 81.8769ZM269.656 75.1569C270.019 75.1569 270.318 75.2849 270.552 75.5409C270.808 75.7755 270.936 76.0742 270.936 76.4369V97.5249C270.936 97.8875 270.808 98.1969 270.552 98.4529C270.318 98.7089 270.019 98.8369 269.656 98.8369C269.272 98.8369 268.963 98.7089 268.728 98.4529C268.494 98.1969 268.376 97.8875 268.376 97.5249V94.4849L268.984 94.2609C268.984 94.7729 268.824 95.3169 268.504 95.8929C268.184 96.4475 267.747 96.9702 267.192 97.4609C266.638 97.9515 265.976 98.3569 265.208 98.6769C264.462 98.9969 263.651 99.1569 262.776 99.1569C261.347 99.1569 260.046 98.7835 258.872 98.0369C257.72 97.2902 256.803 96.2662 256.12 94.9649C255.459 93.6635 255.128 92.1809 255.128 90.5169C255.128 88.8315 255.459 87.3382 256.12 86.0369C256.803 84.7355 257.72 83.7222 258.872 82.9969C260.024 82.2502 261.304 81.8769 262.712 81.8769C263.608 81.8769 264.451 82.0262 265.24 82.3249C266.03 82.6235 266.712 83.0289 267.288 83.5409C267.886 84.0529 268.355 84.6182 268.696 85.2369C269.038 85.8555 269.208 86.4742 269.208 87.0929L268.376 86.9009V76.4369C268.376 76.0742 268.494 75.7755 268.728 75.5409C268.963 75.2849 269.272 75.1569 269.656 75.1569ZM263.064 96.7889C264.131 96.7889 265.07 96.5222 265.88 95.9889C266.712 95.4342 267.352 94.6875 267.8 93.7489C268.27 92.7889 268.504 91.7115 268.504 90.5169C268.504 89.3009 268.27 88.2235 267.8 87.2849C267.352 86.3462 266.712 85.6102 265.88 85.0769C265.07 84.5222 264.131 84.2449 263.064 84.2449C262.019 84.2449 261.08 84.5222 260.248 85.0769C259.438 85.6102 258.798 86.3462 258.328 87.2849C257.859 88.2235 257.624 89.3009 257.624 90.5169C257.624 91.6902 257.859 92.7569 258.328 93.7169C258.798 94.6555 259.438 95.4022 260.248 95.9569C261.08 96.5115 262.019 96.7889 263.064 96.7889ZM289.312 82.1329C289.675 82.1329 289.974 82.2609 290.208 82.5169C290.465 82.7515 290.593 83.0502 290.593 83.4129V97.5249C290.593 97.8875 290.465 98.1969 290.208 98.4529C289.974 98.7089 289.675 98.8369 289.312 98.8369C288.929 98.8369 288.619 98.7089 288.385 98.4529C288.15 98.1969 288.033 97.8875 288.033 97.5249V94.4849L288.641 94.4209C288.641 94.8902 288.481 95.4022 288.161 95.9569C287.841 96.5115 287.403 97.0342 286.849 97.5249C286.294 97.9942 285.633 98.3889 284.865 98.7089C284.118 99.0075 283.307 99.1569 282.433 99.1569C280.982 99.1569 279.681 98.7835 278.529 98.0369C277.377 97.2689 276.459 96.2342 275.777 94.9329C275.115 93.6315 274.785 92.1489 274.785 90.4849C274.785 88.7995 275.115 87.3169 275.777 86.0369C276.459 84.7355 277.377 83.7222 278.529 82.9969C279.681 82.2502 280.961 81.8769 282.369 81.8769C283.286 81.8769 284.139 82.0262 284.929 82.3249C285.718 82.6235 286.401 83.0289 286.977 83.5409C287.574 84.0529 288.033 84.6182 288.353 85.2369C288.694 85.8555 288.865 86.4742 288.865 87.0929L288.033 86.9009V83.4129C288.033 83.0502 288.15 82.7515 288.385 82.5169C288.619 82.2609 288.929 82.1329 289.312 82.1329ZM282.72 96.7889C283.787 96.7889 284.726 96.5115 285.537 95.9569C286.369 95.4022 287.009 94.6555 287.457 93.7169C287.926 92.7569 288.161 91.6795 288.161 90.4849C288.161 89.3115 287.926 88.2555 287.457 87.3169C287.009 86.3569 286.369 85.6102 285.537 85.0769C284.726 84.5222 283.787 84.2449 282.72 84.2449C281.675 84.2449 280.737 84.5115 279.905 85.0449C279.094 85.5782 278.454 86.3142 277.985 87.2529C277.515 88.1915 277.281 89.2689 277.281 90.4849C277.281 91.6795 277.505 92.7569 277.953 93.7169C278.422 94.6555 279.062 95.4022 279.873 95.9569C280.705 96.5115 281.654 96.7889 282.72 96.7889ZM296.617 98.8369C296.254 98.8369 295.945 98.7089 295.689 98.4529C295.454 98.1969 295.337 97.8875 295.337 97.5249V83.5729C295.337 83.2102 295.454 82.9115 295.689 82.6769C295.945 82.4209 296.254 82.2929 296.617 82.2929C297.001 82.2929 297.31 82.4209 297.545 82.6769C297.779 82.9115 297.897 83.2102 297.897 83.5729V87.7969L297.513 87.1249C297.641 86.4635 297.865 85.8235 298.185 85.2049C298.526 84.5649 298.953 83.9995 299.465 83.5089C299.977 82.9969 300.563 82.6022 301.225 82.3249C301.886 82.0262 302.611 81.8769 303.401 81.8769C303.87 81.8769 304.297 81.9942 304.681 82.2289C305.086 82.4422 305.289 82.7515 305.289 83.1569C305.289 83.6049 305.171 83.9355 304.937 84.1489C304.702 84.3622 304.435 84.4689 304.137 84.4689C303.859 84.4689 303.593 84.4155 303.337 84.3089C303.081 84.1809 302.761 84.1169 302.377 84.1169C301.843 84.1169 301.31 84.2662 300.777 84.5649C300.265 84.8422 299.785 85.2475 299.337 85.7809C298.91 86.3142 298.558 86.9222 298.281 87.6049C298.025 88.2662 297.897 88.9809 297.897 89.7489V97.5249C297.897 97.8875 297.769 98.1969 297.513 98.4529C297.278 98.7089 296.979 98.8369 296.617 98.8369ZM310.645 97.5249C310.645 97.8875 310.517 98.1969 310.261 98.4529C310.026 98.7089 309.727 98.8369 309.365 98.8369C308.981 98.8369 308.671 98.7089 308.437 98.4529C308.202 98.1969 308.085 97.8875 308.085 97.5249V83.3169C308.085 82.9542 308.202 82.6555 308.437 82.4209C308.693 82.1649 309.002 82.0369 309.365 82.0369C309.727 82.0369 310.026 82.1649 310.261 82.4209C310.517 82.6555 310.645 82.9542 310.645 83.3169V97.5249ZM309.365 79.8929C308.831 79.8929 308.437 79.7862 308.181 79.5729C307.925 79.3595 307.797 79.0289 307.797 78.5809V78.1329C307.797 77.6849 307.935 77.3542 308.213 77.1409C308.49 76.9275 308.885 76.8209 309.397 76.8209C309.909 76.8209 310.293 76.9275 310.549 77.1409C310.805 77.3542 310.933 77.6849 310.933 78.1329V78.5809C310.933 79.0289 310.794 79.3595 310.516 79.5729C310.261 79.7862 309.877 79.8929 309.365 79.8929ZM331 81.8769C331.917 81.8769 332.77 82.0369 333.56 82.3569C334.349 82.6555 335.032 83.0502 335.608 83.5409C336.205 84.0315 336.664 84.5435 336.984 85.0769C337.325 85.6102 337.496 86.1115 337.496 86.5809L336.888 86.1969V83.4129C336.888 83.0502 337.005 82.7515 337.24 82.5169C337.474 82.2609 337.784 82.1329 338.168 82.1329C338.53 82.1329 338.829 82.2609 339.064 82.5169C339.32 82.7515 339.448 83.0502 339.448 83.4129V97.4289C339.448 99.1782 339.074 100.629 338.328 101.781C337.602 102.933 336.621 103.797 335.384 104.373C334.146 104.949 332.76 105.237 331.224 105.237C330.584 105.237 329.88 105.152 329.112 104.981C328.344 104.81 327.661 104.597 327.064 104.341C326.466 104.106 326.082 103.861 325.911 103.605C325.592 103.392 325.389 103.146 325.304 102.869C325.24 102.613 325.293 102.368 325.464 102.133C325.656 101.834 325.901 101.685 326.2 101.685C326.52 101.685 326.914 101.781 327.384 101.973C327.576 102.037 327.874 102.144 328.28 102.293C328.706 102.442 329.176 102.57 329.688 102.677C330.221 102.805 330.744 102.869 331.256 102.869C333.069 102.869 334.456 102.389 335.416 101.429C336.397 100.49 336.888 99.2422 336.888 97.6849V94.7089L337.24 94.8689C337.112 95.4662 336.845 96.0209 336.44 96.5329C336.056 97.0449 335.576 97.5035 335 97.9089C334.445 98.2929 333.826 98.6022 333.144 98.8369C332.461 99.0502 331.768 99.1569 331.064 99.1569C329.57 99.1569 328.226 98.7835 327.032 98.0369C325.837 97.2902 324.888 96.2662 324.184 94.9649C323.501 93.6635 323.16 92.1809 323.16 90.5169C323.16 88.8315 323.501 87.3382 324.184 86.0369C324.888 84.7355 325.826 83.7222 327 82.9969C328.194 82.2502 329.528 81.8769 331 81.8769ZM331.32 84.2449C330.232 84.2449 329.25 84.5222 328.376 85.0769C327.522 85.6102 326.85 86.3462 326.36 87.2849C325.89 88.2235 325.656 89.3009 325.656 90.5169C325.656 91.6902 325.89 92.7569 326.36 93.7169C326.85 94.6555 327.522 95.4022 328.376 95.9569C329.25 96.5115 330.232 96.7889 331.32 96.7889C332.429 96.7889 333.41 96.5222 334.264 95.9889C335.117 95.4342 335.789 94.6875 336.28 93.7489C336.77 92.8102 337.016 91.7329 337.016 90.5169C337.016 89.2795 336.77 88.1915 336.28 87.2529C335.789 86.3142 335.117 85.5782 334.264 85.0449C333.41 84.5115 332.429 84.2449 331.32 84.2449ZM356.315 82.2929C356.699 82.2929 357.008 82.4209 357.243 82.6769C357.477 82.9115 357.595 83.2102 357.595 83.5729V92.3089C357.595 94.4635 356.987 96.1382 355.771 97.3329C354.576 98.5062 352.901 99.0929 350.747 99.0929C348.613 99.0929 346.939 98.5062 345.723 97.3329C344.528 96.1382 343.931 94.4635 343.931 92.3089V83.5729C343.931 83.2102 344.048 82.9115 344.283 82.6769C344.539 82.4209 344.848 82.2929 345.211 82.2929C345.595 82.2929 345.904 82.4209 346.139 82.6769C346.373 82.9115 346.491 83.2102 346.491 83.5729V92.3089C346.491 93.7595 346.864 94.8582 347.611 95.6049C348.357 96.3515 349.403 96.7249 350.747 96.7249C352.133 96.7249 353.189 96.3515 353.915 95.6049C354.661 94.8582 355.035 93.7595 355.035 92.3089V83.5729C355.035 83.2102 355.152 82.9115 355.387 82.6769C355.643 82.4209 355.952 82.2929 356.315 82.2929ZM363.617 98.8369C363.254 98.8369 362.945 98.7089 362.689 98.4529C362.454 98.1969 362.337 97.8875 362.337 97.5249V83.5729C362.337 83.2102 362.454 82.9115 362.689 82.6769C362.945 82.4209 363.254 82.2929 363.617 82.2929C364.001 82.2929 364.31 82.4209 364.545 82.6769C364.779 82.9115 364.897 83.2102 364.897 83.5729V87.7969L364.513 87.1249C364.641 86.4635 364.865 85.8235 365.185 85.2049C365.526 84.5649 365.953 83.9995 366.465 83.5089C366.977 82.9969 367.563 82.6022 368.225 82.3249C368.886 82.0262 369.611 81.8769 370.401 81.8769C370.87 81.8769 371.297 81.9942 371.681 82.2289C372.086 82.4422 372.289 82.7515 372.289 83.1569C372.289 83.6049 372.171 83.9355 371.937 84.1489C371.702 84.3622 371.435 84.4689 371.137 84.4689C370.859 84.4689 370.593 84.4155 370.337 84.3089C370.081 84.1809 369.761 84.1169 369.377 84.1169C368.843 84.1169 368.31 84.2662 367.777 84.5649C367.265 84.8422 366.785 85.2475 366.337 85.7809C365.91 86.3142 365.558 86.9222 365.281 87.6049C365.025 88.2662 364.897 88.9809 364.897 89.7489V97.5249C364.897 97.8875 364.769 98.1969 364.513 98.4529C364.278 98.7089 363.979 98.8369 363.617 98.8369ZM387.565 82.2929C387.949 82.2929 388.258 82.4209 388.493 82.6769C388.727 82.9115 388.845 83.2102 388.845 83.5729V92.3089C388.845 94.4635 388.237 96.1382 387.021 97.3329C385.826 98.5062 384.151 99.0929 381.997 99.0929C379.863 99.0929 378.189 98.5062 376.973 97.3329C375.778 96.1382 375.181 94.4635 375.181 92.3089V83.5729C375.181 83.2102 375.298 82.9115 375.533 82.6769C375.789 82.4209 376.098 82.2929 376.461 82.2929C376.845 82.2929 377.154 82.4209 377.389 82.6769C377.623 82.9115 377.741 83.2102 377.741 83.5729V92.3089C377.741 93.7595 378.114 94.8582 378.861 95.6049C379.607 96.3515 380.653 96.7249 381.997 96.7249C383.383 96.7249 384.439 96.3515 385.165 95.6049C385.911 94.8582 386.285 93.7595 386.285 92.3089V83.5729C386.285 83.2102 386.402 82.9115 386.637 82.6769C386.893 82.4209 387.202 82.2929 387.565 82.2929ZM412.479 76.4369C414.357 76.4369 415.797 76.9275 416.799 77.9089C417.823 78.8689 418.335 80.2342 418.335 82.0049C418.335 82.9435 418.122 83.8075 417.695 84.5969C417.269 85.3862 416.639 86.0155 415.807 86.4849C414.997 86.9542 413.994 87.2102 412.799 87.2529L412.735 86.3569C413.482 86.3569 414.25 86.4635 415.039 86.6769C415.829 86.8902 416.554 87.2315 417.215 87.7009C417.898 88.1702 418.442 88.7889 418.847 89.5569C419.274 90.3249 419.487 91.2742 419.487 92.4049C419.487 93.6209 419.285 94.6449 418.879 95.4769C418.474 96.2875 417.93 96.9489 417.247 97.4609C416.586 97.9515 415.839 98.3035 415.007 98.5169C414.197 98.7302 413.375 98.8369 412.543 98.8369H404.127C403.765 98.8369 403.455 98.7089 403.199 98.4529C402.965 98.1969 402.847 97.8875 402.847 97.5249V77.7169C402.847 77.3542 402.965 77.0555 403.199 76.8209C403.455 76.5649 403.765 76.4369 404.127 76.4369H412.479ZM412.095 78.9649H405.215L405.599 78.3889V86.3569L405.247 85.9409H412.159C413.098 85.9409 413.898 85.6422 414.559 85.0449C415.242 84.4262 415.583 83.5195 415.583 82.3249C415.583 81.2582 415.274 80.4369 414.655 79.8609C414.037 79.2635 413.183 78.9649 412.095 78.9649ZM412.351 88.5009H405.375L405.599 88.2769V96.6289L405.343 96.3409H412.447C413.706 96.3409 414.73 96.0209 415.519 95.3809C416.33 94.7409 416.735 93.7489 416.735 92.4049C416.735 91.3595 416.522 90.5595 416.095 90.0049C415.669 89.4289 415.114 89.0342 414.431 88.8209C413.77 88.6075 413.077 88.5009 412.351 88.5009ZM439.562 98.9009C439.178 98.9009 438.858 98.7409 438.602 98.4209L430.09 87.5729L432.042 85.5889L440.714 96.6929C440.906 96.9702 441.002 97.2582 441.002 97.5569C441.002 97.9835 440.842 98.3142 440.522 98.5489C440.223 98.7835 439.903 98.9009 439.562 98.9009ZM439.466 76.4049C439.807 76.4049 440.084 76.5435 440.298 76.8209C440.532 77.0982 440.65 77.3862 440.65 77.6849C440.65 77.9835 440.522 78.2609 440.266 78.5169L426.122 91.8929L425.898 88.9169L438.442 76.8849C438.762 76.5649 439.103 76.4049 439.466 76.4049ZM425.066 98.8369C424.66 98.8369 424.34 98.7089 424.106 98.4529C423.871 98.1969 423.754 97.8875 423.754 97.5249V77.7489C423.754 77.3649 423.882 77.0555 424.138 76.8209C424.394 76.5649 424.714 76.4369 425.098 76.4369C425.503 76.4369 425.823 76.5649 426.058 76.8209C426.292 77.0555 426.41 77.3649 426.41 77.7489V97.5249C426.41 97.8875 426.282 98.1969 426.026 98.4529C425.791 98.7089 425.471 98.8369 425.066 98.8369ZM465.908 82.2929C466.292 82.2929 466.602 82.4209 466.836 82.6769C467.071 82.9115 467.188 83.2102 467.188 83.5729V92.3089C467.188 94.4635 466.58 96.1382 465.364 97.3329C464.17 98.5062 462.495 99.0929 460.34 99.0929C458.207 99.0929 456.532 98.5062 455.316 97.3329C454.122 96.1382 453.524 94.4635 453.524 92.3089V83.5729C453.524 83.2102 453.642 82.9115 453.876 82.6769C454.132 82.4209 454.442 82.2929 454.804 82.2929C455.188 82.2929 455.498 82.4209 455.732 82.6769C455.967 82.9115 456.084 83.2102 456.084 83.5729V92.3089C456.084 93.7595 456.458 94.8582 457.204 95.6049C457.951 96.3515 458.996 96.7249 460.34 96.7249C461.727 96.7249 462.783 96.3515 463.508 95.6049C464.255 94.8582 464.628 93.7595 464.628 92.3089V83.5729C464.628 83.2102 464.746 82.9115 464.98 82.6769C465.236 82.4209 465.546 82.2929 465.908 82.2929ZM480.155 81.8769C481.605 81.8769 482.747 82.1755 483.579 82.7729C484.411 83.3702 484.997 84.1702 485.339 85.1729C485.701 86.1755 485.883 87.2955 485.883 88.5329V97.5249C485.883 97.8875 485.755 98.1969 485.499 98.4529C485.264 98.7089 484.965 98.8369 484.603 98.8369C484.24 98.8369 483.931 98.7089 483.675 98.4529C483.44 98.1969 483.323 97.8875 483.323 97.5249V88.5969C483.323 87.7862 483.195 87.0609 482.939 86.4209C482.704 85.7595 482.299 85.2369 481.723 84.8529C481.168 84.4475 480.4 84.2449 479.419 84.2449C478.523 84.2449 477.701 84.4475 476.955 84.8529C476.208 85.2369 475.611 85.7595 475.163 86.4209C474.715 87.0609 474.491 87.7862 474.491 88.5969V97.5249C474.491 97.8875 474.363 98.1969 474.107 98.4529C473.872 98.7089 473.573 98.8369 473.211 98.8369C472.848 98.8369 472.539 98.7089 472.283 98.4529C472.048 98.1969 471.931 97.8875 471.931 97.5249V83.5729C471.931 83.2102 472.048 82.9115 472.283 82.6769C472.539 82.4209 472.848 82.2929 473.211 82.2929C473.595 82.2929 473.904 82.4209 474.139 82.6769C474.373 82.9115 474.491 83.2102 474.491 83.5729V85.8449L473.851 86.5489C473.957 85.9942 474.203 85.4395 474.587 84.8849C474.971 84.3089 475.451 83.7969 476.027 83.3489C476.603 82.9009 477.243 82.5489 477.947 82.2929C478.651 82.0155 479.387 81.8769 480.155 81.8769ZM489.978 82.3889H497.498C497.839 82.3889 498.117 82.5062 498.33 82.7409C498.565 82.9755 498.682 83.2529 498.682 83.5729C498.682 83.9142 498.565 84.2022 498.33 84.4369C498.117 84.6502 497.839 84.7569 497.498 84.7569H489.978C489.658 84.7569 489.381 84.6395 489.146 84.4049C488.911 84.1702 488.794 83.8822 488.794 83.5409C488.794 83.2209 488.911 82.9542 489.146 82.7409C489.381 82.5062 489.658 82.3889 489.978 82.3889ZM493.338 78.0369C493.701 78.0369 493.999 78.1649 494.234 78.4209C494.469 78.6555 494.586 78.9542 494.586 79.3169V94.7729C494.586 95.2849 494.661 95.6689 494.81 95.9249C494.959 96.1809 495.151 96.3622 495.386 96.4689C495.642 96.5542 495.887 96.5969 496.122 96.5969C496.335 96.5969 496.517 96.5649 496.666 96.5009C496.837 96.4155 497.029 96.3729 497.242 96.3729C497.455 96.3729 497.647 96.4795 497.818 96.6929C498.01 96.8849 498.106 97.1409 498.106 97.4609C498.106 97.8449 497.882 98.1755 497.434 98.4529C496.986 98.7089 496.485 98.8369 495.93 98.8369C495.631 98.8369 495.258 98.8155 494.81 98.7729C494.383 98.7302 493.957 98.5915 493.53 98.3569C493.103 98.1222 492.741 97.7382 492.442 97.2049C492.165 96.6502 492.026 95.8822 492.026 94.9009V79.3169C492.026 78.9542 492.154 78.6555 492.41 78.4209C492.666 78.1649 492.975 78.0369 493.338 78.0369ZM514.627 82.2929C515.011 82.2929 515.32 82.4209 515.555 82.6769C515.79 82.9115 515.907 83.2102 515.907 83.5729V92.3089C515.907 94.4635 515.299 96.1382 514.083 97.3329C512.888 98.5062 511.214 99.0929 509.059 99.0929C506.926 99.0929 505.251 98.5062 504.035 97.3329C502.84 96.1382 502.243 94.4635 502.243 92.3089V83.5729C502.243 83.2102 502.36 82.9115 502.595 82.6769C502.851 82.4209 503.16 82.2929 503.523 82.2929C503.907 82.2929 504.216 82.4209 504.451 82.6769C504.686 82.9115 504.803 83.2102 504.803 83.5729V92.3089C504.803 93.7595 505.176 94.8582 505.923 95.6049C506.67 96.3515 507.715 96.7249 509.059 96.7249C510.446 96.7249 511.502 96.3515 512.227 95.6049C512.974 94.8582 513.347 93.7595 513.347 92.3089V83.5729C513.347 83.2102 513.464 82.9115 513.699 82.6769C513.955 82.4209 514.264 82.2929 514.627 82.2929ZM522.185 98.8369C521.801 98.8369 521.492 98.7089 521.257 98.4529C521.023 98.1969 520.905 97.8875 520.905 97.5249V76.4369C520.905 76.0742 521.023 75.7755 521.257 75.5409C521.492 75.2849 521.801 75.1569 522.185 75.1569C522.548 75.1569 522.847 75.2849 523.081 75.5409C523.337 75.7755 523.465 76.0742 523.465 76.4369V97.5249C523.465 97.8875 523.337 98.1969 523.081 98.4529C522.847 98.7089 522.548 98.8369 522.185 98.8369ZM532.809 82.1969C533.151 82.1969 533.439 82.3355 533.673 82.6129C533.929 82.8689 534.057 83.1355 534.057 83.4129C534.057 83.7755 533.887 84.0955 533.545 84.3729L523.177 93.4289L523.081 90.4529L531.913 82.5809C532.169 82.3249 532.468 82.1969 532.809 82.1969ZM533.161 98.8049C532.799 98.8049 532.479 98.6662 532.201 98.3889L525.385 91.1249L527.305 89.3649L534.057 96.5969C534.313 96.8742 534.441 97.1942 534.441 97.5569C534.441 97.9409 534.292 98.2502 533.993 98.4849C533.695 98.6982 533.417 98.8049 533.161 98.8049ZM548.498 98.8369C548.114 98.8369 547.804 98.7089 547.57 98.4529C547.335 98.1969 547.218 97.8875 547.218 97.5249V76.4369C547.218 76.0742 547.335 75.7755 547.57 75.5409C547.804 75.2849 548.114 75.1569 548.498 75.1569C548.86 75.1569 549.159 75.2849 549.394 75.5409C549.65 75.7755 549.778 76.0742 549.778 76.4369V97.5249C549.778 97.8875 549.65 98.1969 549.394 98.4529C549.159 98.7089 548.86 98.8369 548.498 98.8369ZM559.122 82.1969C559.463 82.1969 559.751 82.3355 559.986 82.6129C560.242 82.8689 560.37 83.1355 560.37 83.4129C560.37 83.7755 560.199 84.0955 559.858 84.3729L549.49 93.4289L549.394 90.4529L558.226 82.5809C558.482 82.3249 558.78 82.1969 559.122 82.1969ZM559.474 98.8049C559.111 98.8049 558.791 98.6662 558.514 98.3889L551.698 91.1249L553.618 89.3649L560.37 96.5969C560.626 96.8742 560.754 97.1942 560.754 97.5569C560.754 97.9409 560.604 98.2502 560.306 98.4849C560.007 98.6982 559.73 98.8049 559.474 98.8049ZM579.455 90.5169C579.455 92.1809 579.082 93.6635 578.335 94.9649C577.61 96.2662 576.618 97.2902 575.359 98.0369C574.122 98.7835 572.724 99.1569 571.167 99.1569C569.61 99.1569 568.202 98.7835 566.943 98.0369C565.684 97.2902 564.682 96.2662 563.935 94.9649C563.21 93.6635 562.847 92.1809 562.847 90.5169C562.847 88.8529 563.21 87.3702 563.935 86.0689C564.682 84.7675 565.684 83.7435 566.943 82.9969C568.202 82.2502 569.61 81.8769 571.167 81.8769C572.724 81.8769 574.122 82.2502 575.359 82.9969C576.618 83.7435 577.61 84.7675 578.335 86.0689C579.082 87.3702 579.455 88.8529 579.455 90.5169ZM576.895 90.5169C576.895 89.2795 576.639 88.1915 576.127 87.2529C575.636 86.3142 574.954 85.5782 574.079 85.0449C573.226 84.5115 572.255 84.2449 571.167 84.2449C570.079 84.2449 569.098 84.5115 568.223 85.0449C567.37 85.5782 566.687 86.3142 566.175 87.2529C565.663 88.1915 565.407 89.2795 565.407 90.5169C565.407 91.7329 565.663 92.8102 566.175 93.7489C566.687 94.6875 567.37 95.4342 568.223 95.9889C569.098 96.5222 570.079 96.7889 571.167 96.7889C572.255 96.7889 573.226 96.5222 574.079 95.9889C574.954 95.4342 575.636 94.6875 576.127 93.7489C576.639 92.8102 576.895 91.7329 576.895 90.5169ZM584.586 98.8369C584.223 98.8369 583.914 98.7089 583.658 98.4529C583.423 98.1969 583.306 97.8875 583.306 97.5249V83.5729C583.306 83.2102 583.423 82.9115 583.658 82.6769C583.914 82.4209 584.223 82.2929 584.586 82.2929C584.97 82.2929 585.279 82.4209 585.514 82.6769C585.748 82.9115 585.866 83.2102 585.866 83.5729V87.7969L585.482 87.1249C585.61 86.4635 585.834 85.8235 586.154 85.2049C586.495 84.5649 586.922 83.9995 587.434 83.5089C587.946 82.9969 588.532 82.6022 589.194 82.3249C589.855 82.0262 590.58 81.8769 591.37 81.8769C591.839 81.8769 592.266 81.9942 592.65 82.2289C593.055 82.4422 593.258 82.7515 593.258 83.1569C593.258 83.6049 593.14 83.9355 592.906 84.1489C592.671 84.3622 592.404 84.4689 592.106 84.4689C591.828 84.4689 591.562 84.4155 591.306 84.3089C591.05 84.1809 590.73 84.1169 590.345 84.1169C589.812 84.1169 589.279 84.2662 588.746 84.5649C588.234 84.8422 587.754 85.2475 587.306 85.7809C586.879 86.3142 586.527 86.9222 586.25 87.6049C585.994 88.2662 585.866 88.9809 585.866 89.7489V97.5249C585.866 97.8875 585.738 98.1969 585.482 98.4529C585.247 98.7089 584.948 98.8369 584.586 98.8369ZM604.309 81.8769C605.76 81.8769 607.061 82.2502 608.213 82.9969C609.365 83.7222 610.272 84.7249 610.933 86.0049C611.616 87.2849 611.957 88.7675 611.957 90.4529C611.957 92.1382 611.616 93.6315 610.933 94.9329C610.272 96.2342 609.365 97.2689 608.213 98.0369C607.083 98.7835 605.803 99.1569 604.373 99.1569C603.584 99.1569 602.837 99.0395 602.133 98.8049C601.451 98.5489 600.821 98.2182 600.245 97.8129C599.691 97.3862 599.221 96.9275 598.837 96.4369C598.453 95.9249 598.176 95.4235 598.005 94.9329L598.709 94.4849V97.6849C598.709 98.0475 598.592 98.3569 598.357 98.6129C598.123 98.8689 597.813 98.9969 597.429 98.9969C597.067 98.9969 596.757 98.8795 596.501 98.6449C596.267 98.3889 596.149 98.0689 596.149 97.6849V76.4689C596.149 76.1062 596.267 75.7969 596.501 75.5409C596.757 75.2849 597.067 75.1569 597.429 75.1569C597.813 75.1569 598.123 75.2849 598.357 75.5409C598.592 75.7969 598.709 76.1062 598.709 76.4689V86.3249L598.229 86.0689C598.379 85.5355 598.635 85.0235 598.997 84.5329C599.381 84.0209 599.84 83.5729 600.373 83.1889C600.928 82.7835 601.536 82.4635 602.197 82.2289C602.88 81.9942 603.584 81.8769 604.309 81.8769ZM604.021 84.2449C602.955 84.2449 602.005 84.5115 601.173 85.0449C600.363 85.5782 599.723 86.3142 599.253 87.2529C598.805 88.1915 598.581 89.2582 598.581 90.4529C598.581 91.6475 598.805 92.7249 599.253 93.6849C599.723 94.6449 600.363 95.4022 601.173 95.9569C602.005 96.5115 602.955 96.7889 604.021 96.7889C605.088 96.7889 606.027 96.5115 606.837 95.9569C607.648 95.4022 608.288 94.6449 608.757 93.6849C609.227 92.7249 609.461 91.6475 609.461 90.4529C609.461 89.2582 609.227 88.1915 608.757 87.2529C608.288 86.3142 607.648 85.5782 606.837 85.0449C606.027 84.5115 605.088 84.2449 604.021 84.2449ZM629.438 82.1329C629.8 82.1329 630.099 82.2609 630.333 82.5169C630.59 82.7515 630.718 83.0502 630.718 83.4129V97.5249C630.718 97.8875 630.59 98.1969 630.333 98.4529C630.099 98.7089 629.8 98.8369 629.438 98.8369C629.054 98.8369 628.744 98.7089 628.51 98.4529C628.275 98.1969 628.158 97.8875 628.158 97.5249V94.4849L628.766 94.4209C628.766 94.8902 628.606 95.4022 628.286 95.9569C627.966 96.5115 627.528 97.0342 626.974 97.5249C626.419 97.9942 625.758 98.3889 624.99 98.7089C624.243 99.0075 623.432 99.1569 622.558 99.1569C621.107 99.1569 619.806 98.7835 618.654 98.0369C617.502 97.2689 616.584 96.2342 615.902 94.9329C615.24 93.6315 614.91 92.1489 614.91 90.4849C614.91 88.7995 615.24 87.3169 615.902 86.0369C616.584 84.7355 617.502 83.7222 618.654 82.9969C619.806 82.2502 621.086 81.8769 622.494 81.8769C623.411 81.8769 624.264 82.0262 625.054 82.3249C625.843 82.6235 626.526 83.0289 627.102 83.5409C627.699 84.0529 628.158 84.6182 628.478 85.2369C628.819 85.8555 628.99 86.4742 628.99 87.0929L628.158 86.9009V83.4129C628.158 83.0502 628.275 82.7515 628.51 82.5169C628.744 82.2609 629.054 82.1329 629.438 82.1329ZM622.845 96.7889C623.912 96.7889 624.851 96.5115 625.662 95.9569C626.494 95.4022 627.134 94.6555 627.582 93.7169C628.051 92.7569 628.286 91.6795 628.286 90.4849C628.286 89.3115 628.051 88.2555 627.582 87.3169C627.134 86.3569 626.494 85.6102 625.662 85.0769C624.851 84.5222 623.912 84.2449 622.845 84.2449C621.8 84.2449 620.862 84.5115 620.03 85.0449C619.219 85.5782 618.579 86.3142 618.11 87.2529C617.64 88.1915 617.406 89.2689 617.406 90.4849C617.406 91.6795 617.63 92.7569 618.078 93.7169C618.547 94.6555 619.187 95.4022 619.998 95.9569C620.83 96.5115 621.779 96.7889 622.845 96.7889ZM643.686 81.8769C645.136 81.8769 646.278 82.1755 647.11 82.7729C647.942 83.3702 648.528 84.1702 648.87 85.1729C649.232 86.1755 649.414 87.2955 649.414 88.5329V97.5249C649.414 97.8875 649.286 98.1969 649.03 98.4529C648.795 98.7089 648.496 98.8369 648.134 98.8369C647.771 98.8369 647.462 98.7089 647.206 98.4529C646.971 98.1969 646.854 97.8875 646.854 97.5249V88.5969C646.854 87.7862 646.726 87.0609 646.47 86.4209C646.235 85.7595 645.83 85.2369 645.254 84.8529C644.699 84.4475 643.931 84.2449 642.95 84.2449C642.054 84.2449 641.232 84.4475 640.486 84.8529C639.739 85.2369 639.142 85.7595 638.694 86.4209C638.246 87.0609 638.022 87.7862 638.022 88.5969V97.5249C638.022 97.8875 637.894 98.1969 637.638 98.4529C637.403 98.7089 637.104 98.8369 636.742 98.8369C636.379 98.8369 636.07 98.7089 635.814 98.4529C635.579 98.1969 635.462 97.8875 635.462 97.5249V83.5729C635.462 83.2102 635.579 82.9115 635.814 82.6769C636.07 82.4209 636.379 82.2929 636.742 82.2929C637.126 82.2929 637.435 82.4209 637.67 82.6769C637.904 82.9115 638.022 83.2102 638.022 83.5729V85.8449L637.382 86.5489C637.488 85.9942 637.734 85.4395 638.118 84.8849C638.502 84.3089 638.982 83.7969 639.558 83.3489C640.134 82.9009 640.774 82.5489 641.478 82.2929C642.182 82.0155 642.918 81.8769 643.686 81.8769ZM653.445 103.029C653.168 103.029 652.901 102.912 652.645 102.677C652.411 102.464 652.293 102.197 652.293 101.877C652.293 101.685 652.336 101.493 652.421 101.301L666.053 74.0689C666.203 73.7702 666.373 73.5569 666.565 73.4289C666.757 73.3009 666.971 73.2369 667.205 73.2369C667.461 73.2369 667.707 73.3435 667.941 73.5569C668.197 73.7489 668.325 74.0155 668.325 74.3569C668.325 74.5702 668.272 74.7835 668.165 74.9969L654.565 102.229C654.437 102.506 654.277 102.709 654.085 102.837C653.893 102.965 653.68 103.029 653.445 103.029ZM679.528 82.0369C680.979 82.0369 682.28 82.3995 683.432 83.1249C684.584 83.8502 685.491 84.8529 686.152 86.1329C686.835 87.4129 687.176 88.8849 687.176 90.5489C687.176 92.1915 686.835 93.6635 686.152 94.9649C685.491 96.2449 684.584 97.2582 683.432 98.0049C682.301 98.7302 681.021 99.0929 679.592 99.0929C678.803 99.0929 678.056 98.9755 677.352 98.7409C676.669 98.4849 676.04 98.1649 675.464 97.7809C674.909 97.3755 674.44 96.9275 674.056 96.4369C673.672 95.9249 673.395 95.4235 673.224 94.9329L673.928 94.4849V103.925C673.928 104.288 673.811 104.597 673.576 104.853C673.341 105.109 673.032 105.237 672.648 105.237C672.285 105.237 671.976 105.109 671.72 104.853C671.485 104.618 671.368 104.309 671.368 103.925V83.4769C671.368 83.1142 671.485 82.8155 671.72 82.5809C671.976 82.3249 672.285 82.1969 672.648 82.1969C673.032 82.1969 673.341 82.3249 673.576 82.5809C673.811 82.8155 673.928 83.1142 673.928 83.4769V86.3249L673.448 86.0689C673.597 85.5355 673.853 85.0235 674.216 84.5329C674.6 84.0422 675.059 83.6155 675.592 83.2529C676.147 82.8689 676.755 82.5702 677.416 82.3569C678.099 82.1435 678.803 82.0369 679.528 82.0369ZM679.24 84.4049C678.173 84.4049 677.224 84.6715 676.392 85.2049C675.581 85.7382 674.941 86.4635 674.472 87.3809C674.024 88.2982 673.8 89.3542 673.8 90.5489C673.8 91.7222 674.024 92.7782 674.472 93.7169C674.941 94.6555 675.581 95.3915 676.392 95.9249C677.224 96.4582 678.173 96.7249 679.24 96.7249C680.307 96.7249 681.245 96.4582 682.056 95.9249C682.867 95.3915 683.507 94.6555 683.976 93.7169C684.445 92.7782 684.68 91.7222 684.68 90.5489C684.68 89.3542 684.445 88.2982 683.976 87.3809C683.507 86.4635 682.867 85.7382 682.056 85.2049C681.245 84.6715 680.307 84.4049 679.24 84.4049ZM698.672 99.1569C696.966 99.1569 695.472 98.7942 694.192 98.0689C692.912 97.3435 691.91 96.3515 691.184 95.0929C690.48 93.8129 690.128 92.3409 690.128 90.6769C690.128 88.8209 690.491 87.2422 691.216 85.9409C691.963 84.6182 692.923 83.6155 694.096 82.9329C695.291 82.2289 696.55 81.8769 697.872 81.8769C698.854 81.8769 699.803 82.0582 700.72 82.4209C701.638 82.7835 702.448 83.3169 703.152 84.0209C703.856 84.7035 704.422 85.5355 704.848 86.5169C705.275 87.4769 705.499 88.5542 705.52 89.7489C705.52 90.0902 705.392 90.3782 705.136 90.6129C704.88 90.8475 704.582 90.9649 704.24 90.9649H691.6L691.024 88.7569H703.344L702.832 89.2049V88.5009C702.747 87.6262 702.448 86.8795 701.936 86.2609C701.446 85.6209 700.838 85.1302 700.112 84.7889C699.408 84.4475 698.662 84.2769 697.872 84.2769C697.232 84.2769 696.592 84.3942 695.952 84.6289C695.334 84.8422 694.768 85.2049 694.256 85.7169C693.766 86.2075 693.36 86.8475 693.04 87.6369C692.742 88.4262 692.592 89.3755 692.592 90.4849C692.592 91.7222 692.838 92.8102 693.328 93.7489C693.84 94.6875 694.544 95.4342 695.44 95.9889C696.336 96.5222 697.382 96.7889 698.576 96.7889C699.323 96.7889 699.974 96.6929 700.528 96.5009C701.083 96.3089 701.563 96.0742 701.968 95.7969C702.374 95.4982 702.715 95.1995 702.992 94.9009C703.27 94.7089 703.536 94.6129 703.792 94.6129C704.112 94.6129 704.368 94.7195 704.56 94.9329C704.774 95.1462 704.88 95.4022 704.88 95.7009C704.88 96.0635 704.71 96.3835 704.368 96.6609C703.771 97.3222 702.96 97.9089 701.936 98.4209C700.912 98.9115 699.824 99.1569 698.672 99.1569ZM712.184 97.5249C712.184 97.8875 712.056 98.1969 711.8 98.4529C711.544 98.7089 711.235 98.8369 710.872 98.8369C710.509 98.8369 710.211 98.7089 709.976 98.4529C709.741 98.1969 709.624 97.8875 709.624 97.5249V76.4369C709.624 76.0742 709.741 75.7755 709.976 75.5409C710.232 75.2849 710.541 75.1569 710.904 75.1569C711.288 75.1569 711.597 75.2849 711.832 75.5409C712.067 75.7755 712.184 76.0742 712.184 76.4369V97.5249ZM730.781 82.1329C731.144 82.1329 731.443 82.2609 731.677 82.5169C731.933 82.7515 732.061 83.0502 732.061 83.4129V97.5249C732.061 97.8875 731.933 98.1969 731.677 98.4529C731.443 98.7089 731.144 98.8369 730.781 98.8369C730.397 98.8369 730.088 98.7089 729.853 98.4529C729.619 98.1969 729.501 97.8875 729.501 97.5249V94.4849L730.109 94.4209C730.109 94.8902 729.949 95.4022 729.629 95.9569C729.309 96.5115 728.872 97.0342 728.317 97.5249C727.763 97.9942 727.101 98.3889 726.333 98.7089C725.587 99.0075 724.776 99.1569 723.901 99.1569C722.451 99.1569 721.149 98.7835 719.997 98.0369C718.845 97.2689 717.928 96.2342 717.245 94.9329C716.584 93.6315 716.253 92.1489 716.253 90.4849C716.253 88.7995 716.584 87.3169 717.245 86.0369C717.928 84.7355 718.845 83.7222 719.997 82.9969C721.149 82.2502 722.429 81.8769 723.837 81.8769C724.755 81.8769 725.608 82.0262 726.397 82.3249C727.187 82.6235 727.869 83.0289 728.445 83.5409C729.043 84.0529 729.501 84.6182 729.821 85.2369C730.163 85.8555 730.333 86.4742 730.333 87.0929L729.501 86.9009V83.4129C729.501 83.0502 729.619 82.7515 729.853 82.5169C730.088 82.2609 730.397 82.1329 730.781 82.1329ZM724.189 96.7889C725.256 96.7889 726.195 96.5115 727.005 95.9569C727.837 95.4022 728.477 94.6555 728.925 93.7169C729.395 92.7569 729.629 91.6795 729.629 90.4849C729.629 89.3115 729.395 88.2555 728.925 87.3169C728.477 86.3569 727.837 85.6102 727.005 85.0769C726.195 84.5222 725.256 84.2449 724.189 84.2449C723.144 84.2449 722.205 84.5115 721.373 85.0449C720.563 85.5782 719.923 86.3142 719.453 87.2529C718.984 88.1915 718.749 89.2689 718.749 90.4849C718.749 91.6795 718.973 92.7569 719.421 93.7169C719.891 94.6555 720.531 95.4022 721.341 95.9569C722.173 96.5115 723.123 96.7889 724.189 96.7889ZM738.342 98.8369C737.958 98.8369 737.648 98.7089 737.414 98.4529C737.179 98.1969 737.062 97.8875 737.062 97.5249V76.4369C737.062 76.0742 737.179 75.7755 737.414 75.5409C737.648 75.2849 737.958 75.1569 738.342 75.1569C738.704 75.1569 739.003 75.2849 739.238 75.5409C739.494 75.7755 739.622 76.0742 739.622 76.4369V97.5249C739.622 97.8875 739.494 98.1969 739.238 98.4529C739.003 98.7089 738.704 98.8369 738.342 98.8369ZM748.966 82.1969C749.307 82.1969 749.595 82.3355 749.83 82.6129C750.086 82.8689 750.214 83.1355 750.214 83.4129C750.214 83.7755 750.043 84.0955 749.702 84.3729L739.334 93.4289L739.238 90.4529L748.07 82.5809C748.326 82.3249 748.624 82.1969 748.966 82.1969ZM749.318 98.8049C748.955 98.8049 748.635 98.6662 748.358 98.3889L741.542 91.1249L743.462 89.3649L750.214 96.5969C750.47 96.8742 750.597 97.1942 750.597 97.5569C750.597 97.9409 750.448 98.2502 750.15 98.4849C749.851 98.6982 749.574 98.8049 749.318 98.8049ZM766.533 82.2929C766.917 82.2929 767.227 82.4209 767.461 82.6769C767.696 82.9115 767.813 83.2102 767.813 83.5729V92.3089C767.813 94.4635 767.205 96.1382 765.989 97.3329C764.795 98.5062 763.12 99.0929 760.965 99.0929C758.832 99.0929 757.157 98.5062 755.941 97.3329C754.747 96.1382 754.149 94.4635 754.149 92.3089V83.5729C754.149 83.2102 754.267 82.9115 754.501 82.6769C754.757 82.4209 755.067 82.2929 755.429 82.2929C755.813 82.2929 756.123 82.4209 756.357 82.6769C756.592 82.9115 756.709 83.2102 756.709 83.5729V92.3089C756.709 93.7595 757.083 94.8582 757.829 95.6049C758.576 96.3515 759.621 96.7249 760.965 96.7249C762.352 96.7249 763.408 96.3515 764.133 95.6049C764.88 94.8582 765.253 93.7595 765.253 92.3089V83.5729C765.253 83.2102 765.371 82.9115 765.605 82.6769C765.861 82.4209 766.171 82.2929 766.533 82.2929ZM789.528 81.8769C790.979 81.8769 792.28 82.2502 793.432 82.9969C794.584 83.7222 795.491 84.7249 796.152 86.0049C796.835 87.2849 797.176 88.7675 797.176 90.4529C797.176 92.1382 796.835 93.6315 796.152 94.9329C795.491 96.2342 794.584 97.2689 793.432 98.0369C792.301 98.7835 791.021 99.1569 789.592 99.1569C788.803 99.1569 788.056 99.0395 787.352 98.8049C786.669 98.5489 786.04 98.2182 785.464 97.8129C784.909 97.3862 784.44 96.9275 784.056 96.4369C783.672 95.9249 783.395 95.4235 783.224 94.9329L783.928 94.4849V97.6849C783.928 98.0475 783.811 98.3569 783.576 98.6129C783.341 98.8689 783.032 98.9969 782.648 98.9969C782.285 98.9969 781.976 98.8795 781.72 98.6449C781.485 98.3889 781.368 98.0689 781.368 97.6849V76.4689C781.368 76.1062 781.485 75.7969 781.72 75.5409C781.976 75.2849 782.285 75.1569 782.648 75.1569C783.032 75.1569 783.341 75.2849 783.576 75.5409C783.811 75.7969 783.928 76.1062 783.928 76.4689V86.3249L783.448 86.0689C783.597 85.5355 783.853 85.0235 784.216 84.5329C784.6 84.0209 785.059 83.5729 785.592 83.1889C786.147 82.7835 786.755 82.4635 787.416 82.2289C788.099 81.9942 788.803 81.8769 789.528 81.8769ZM789.24 84.2449C788.173 84.2449 787.224 84.5115 786.392 85.0449C785.581 85.5782 784.941 86.3142 784.472 87.2529C784.024 88.1915 783.8 89.2582 783.8 90.4529C783.8 91.6475 784.024 92.7249 784.472 93.6849C784.941 94.6449 785.581 95.4022 786.392 95.9569C787.224 96.5115 788.173 96.7889 789.24 96.7889C790.307 96.7889 791.245 96.5115 792.056 95.9569C792.867 95.4022 793.507 94.6449 793.976 93.6849C794.445 92.7249 794.68 91.6475 794.68 90.4529C794.68 89.2582 794.445 88.1915 793.976 87.2529C793.507 86.3142 792.867 85.5782 792.056 85.0449C791.245 84.5115 790.307 84.2449 789.24 84.2449ZM813.408 82.2929C813.792 82.2929 814.102 82.4209 814.336 82.6769C814.571 82.9115 814.688 83.2102 814.688 83.5729V92.3089C814.688 94.4635 814.08 96.1382 812.864 97.3329C811.67 98.5062 809.995 99.0929 807.84 99.0929C805.707 99.0929 804.032 98.5062 802.816 97.3329C801.622 96.1382 801.024 94.4635 801.024 92.3089V83.5729C801.024 83.2102 801.142 82.9115 801.376 82.6769C801.632 82.4209 801.942 82.2929 802.304 82.2929C802.688 82.2929 802.998 82.4209 803.232 82.6769C803.467 82.9115 803.584 83.2102 803.584 83.5729V92.3089C803.584 93.7595 803.958 94.8582 804.704 95.6049C805.451 96.3515 806.496 96.7249 807.84 96.7249C809.227 96.7249 810.283 96.3515 811.008 95.6049C811.755 94.8582 812.128 93.7595 812.128 92.3089V83.5729C812.128 83.2102 812.246 82.9115 812.48 82.6769C812.736 82.4209 813.046 82.2929 813.408 82.2929ZM822.247 97.5249C822.247 97.8875 822.119 98.1969 821.863 98.4529C821.607 98.7089 821.297 98.8369 820.935 98.8369C820.572 98.8369 820.273 98.7089 820.039 98.4529C819.804 98.1969 819.687 97.8875 819.687 97.5249V76.4369C819.687 76.0742 819.804 75.7755 820.039 75.5409C820.295 75.2849 820.604 75.1569 820.967 75.1569C821.351 75.1569 821.66 75.2849 821.895 75.5409C822.129 75.7755 822.247 76.0742 822.247 76.4369V97.5249ZM830.028 97.5249C830.028 97.8875 829.9 98.1969 829.644 98.4529C829.388 98.7089 829.078 98.8369 828.716 98.8369C828.353 98.8369 828.054 98.7089 827.82 98.4529C827.585 98.1969 827.468 97.8875 827.468 97.5249V76.4369C827.468 76.0742 827.585 75.7755 827.82 75.5409C828.076 75.2849 828.385 75.1569 828.748 75.1569C829.132 75.1569 829.441 75.2849 829.676 75.5409C829.91 75.7755 830.028 76.0742 830.028 76.4369V97.5249ZM846.908 82.0369C847.271 82.0369 847.57 82.1649 847.804 82.4209C848.06 82.6555 848.188 82.9542 848.188 83.3169V97.2689C848.188 99.0609 847.836 100.544 847.132 101.717C846.428 102.912 845.479 103.797 844.284 104.373C843.111 104.949 841.778 105.237 840.284 105.237C839.452 105.237 838.652 105.152 837.884 104.981C837.116 104.81 836.487 104.586 835.996 104.309C835.591 104.117 835.303 103.872 835.132 103.573C834.983 103.296 834.962 102.997 835.068 102.677C835.218 102.293 835.431 102.026 835.708 101.877C836.007 101.728 836.316 101.728 836.636 101.877C836.978 102.026 837.468 102.229 838.108 102.485C838.77 102.762 839.506 102.901 840.316 102.901C841.426 102.901 842.375 102.688 843.164 102.261C843.954 101.834 844.562 101.205 844.988 100.373C845.415 99.5622 845.628 98.5489 845.628 97.3329V95.0609L846.012 95.8609C845.671 96.5222 845.212 97.0982 844.636 97.5889C844.06 98.0795 843.399 98.4635 842.652 98.7409C841.906 99.0182 841.084 99.1569 840.188 99.1569C838.972 99.1569 837.938 98.9009 837.084 98.3889C836.252 97.8555 835.612 97.1302 835.164 96.2129C834.738 95.2742 834.524 94.1969 834.524 92.9809V83.3169C834.524 82.9542 834.642 82.6555 834.876 82.4209C835.132 82.1649 835.442 82.0369 835.804 82.0369C836.188 82.0369 836.498 82.1649 836.732 82.4209C836.967 82.6555 837.084 82.9542 837.084 83.3169V92.4049C837.084 93.8555 837.404 94.9542 838.044 95.7009C838.684 96.4262 839.676 96.7889 841.02 96.7889C841.874 96.7889 842.642 96.5969 843.324 96.2129C844.028 95.8289 844.583 95.3062 844.988 94.6449C845.415 93.9622 845.628 93.2155 845.628 92.4049V83.3169C845.628 82.9542 845.746 82.6555 845.98 82.4209C846.215 82.1649 846.524 82.0369 846.908 82.0369ZM855.395 97.5249C855.395 97.8875 855.267 98.1969 855.011 98.4529C854.776 98.7089 854.477 98.8369 854.115 98.8369C853.731 98.8369 853.421 98.7089 853.187 98.4529C852.952 98.1969 852.835 97.8875 852.835 97.5249V83.3169C852.835 82.9542 852.952 82.6555 853.187 82.4209C853.443 82.1649 853.752 82.0369 854.115 82.0369C854.477 82.0369 854.776 82.1649 855.011 82.4209C855.267 82.6555 855.395 82.9542 855.395 83.3169V97.5249ZM854.115 79.8929C853.581 79.8929 853.187 79.7862 852.931 79.5729C852.675 79.3595 852.547 79.0289 852.547 78.5809V78.1329C852.547 77.6849 852.685 77.3542 852.963 77.1409C853.24 76.9275 853.635 76.8209 854.147 76.8209C854.659 76.8209 855.043 76.9275 855.299 77.1409C855.555 77.3542 855.683 77.6849 855.683 78.1329V78.5809C855.683 79.0289 855.544 79.3595 855.266 79.5729C855.011 79.7862 854.627 79.8929 854.115 79.8929ZM868.217 81.8769C869.668 81.8769 870.809 82.1755 871.641 82.7729C872.473 83.3702 873.06 84.1702 873.401 85.1729C873.764 86.1755 873.945 87.2955 873.945 88.5329V97.5249C873.945 97.8875 873.817 98.1969 873.561 98.4529C873.326 98.7089 873.028 98.8369 872.665 98.8369C872.302 98.8369 871.993 98.7089 871.737 98.4529C871.502 98.1969 871.385 97.8875 871.385 97.5249V88.5969C871.385 87.7862 871.257 87.0609 871.001 86.4209C870.766 85.7595 870.361 85.2369 869.785 84.8529C869.23 84.4475 868.462 84.2449 867.481 84.2449C866.585 84.2449 865.764 84.4475 865.017 84.8529C864.27 85.2369 863.673 85.7595 863.225 86.4209C862.777 87.0609 862.553 87.7862 862.553 88.5969V97.5249C862.553 97.8875 862.425 98.1969 862.169 98.4529C861.934 98.7089 861.636 98.8369 861.273 98.8369C860.91 98.8369 860.601 98.7089 860.345 98.4529C860.11 98.1969 859.993 97.8875 859.993 97.5249V83.5729C859.993 83.2102 860.11 82.9115 860.345 82.6769C860.601 82.4209 860.91 82.2929 861.273 82.2929C861.657 82.2929 861.966 82.4209 862.201 82.6769C862.436 82.9115 862.553 83.2102 862.553 83.5729V85.8449L861.913 86.5489C862.02 85.9942 862.265 85.4395 862.649 84.8849C863.033 84.3089 863.513 83.7969 864.089 83.3489C864.665 82.9009 865.305 82.5489 866.009 82.2929C866.713 82.0155 867.449 81.8769 868.217 81.8769ZM885.625 81.8769C886.542 81.8769 887.395 82.0369 888.185 82.3569C888.974 82.6555 889.657 83.0502 890.233 83.5409C890.83 84.0315 891.289 84.5435 891.609 85.0769C891.95 85.6102 892.121 86.1115 892.121 86.5809L891.513 86.1969V83.4129C891.513 83.0502 891.63 82.7515 891.865 82.5169C892.099 82.2609 892.409 82.1329 892.793 82.1329C893.155 82.1329 893.454 82.2609 893.689 82.5169C893.945 82.7515 894.073 83.0502 894.073 83.4129V97.4289C894.073 99.1782 893.699 100.629 892.953 101.781C892.227 102.933 891.246 103.797 890.009 104.373C888.771 104.949 887.385 105.237 885.849 105.237C885.209 105.237 884.505 105.152 883.737 104.981C882.969 104.81 882.286 104.597 881.689 104.341C881.091 104.106 880.707 103.861 880.536 103.605C880.217 103.392 880.014 103.146 879.929 102.869C879.865 102.613 879.918 102.368 880.089 102.133C880.281 101.834 880.526 101.685 880.825 101.685C881.145 101.685 881.539 101.781 882.009 101.973C882.201 102.037 882.499 102.144 882.905 102.293C883.331 102.442 883.801 102.57 884.312 102.677C884.846 102.805 885.369 102.869 885.881 102.869C887.694 102.869 889.081 102.389 890.041 101.429C891.022 100.49 891.513 99.2422 891.513 97.6849V94.7089L891.865 94.8689C891.737 95.4662 891.47 96.0209 891.065 96.5329C890.681 97.0449 890.201 97.5035 889.625 97.9089C889.07 98.2929 888.451 98.6022 887.769 98.8369C887.086 99.0502 886.393 99.1569 885.689 99.1569C884.195 99.1569 882.851 98.7835 881.657 98.0369C880.462 97.2902 879.513 96.2662 878.809 94.9649C878.126 93.6635 877.785 92.1809 877.785 90.5169C877.785 88.8315 878.126 87.3382 878.809 86.0369C879.513 84.7355 880.451 83.7222 881.625 82.9969C882.819 82.2502 884.153 81.8769 885.625 81.8769ZM885.945 84.2449C884.857 84.2449 883.875 84.5222 883.001 85.0769C882.147 85.6102 881.475 86.3462 880.985 87.2849C880.515 88.2235 880.281 89.3009 880.281 90.5169C880.281 91.6902 880.515 92.7569 880.985 93.7169C881.475 94.6555 882.147 95.4022 883.001 95.9569C883.875 96.5115 884.857 96.7889 885.945 96.7889C887.054 96.7889 888.035 96.5222 888.889 95.9889C889.742 95.4342 890.414 94.6875 890.905 93.7489C891.395 92.8102 891.641 91.7329 891.641 90.5169C891.641 89.2795 891.395 88.1915 890.905 87.2529C890.414 86.3142 889.742 85.5782 888.889 85.0449C888.035 84.5115 887.054 84.2449 885.945 84.2449ZM306.266 115.157C306.628 115.157 306.927 115.285 307.162 115.541C307.418 115.776 307.546 116.074 307.546 116.437V137.525C307.546 137.888 307.418 138.197 307.162 138.453C306.927 138.709 306.628 138.837 306.266 138.837C305.882 138.837 305.572 138.709 305.338 138.453C305.103 138.197 304.986 137.888 304.986 137.525V134.485L305.594 134.261C305.594 134.773 305.434 135.317 305.114 135.893C304.794 136.448 304.356 136.97 303.802 137.461C303.247 137.952 302.586 138.357 301.818 138.677C301.071 138.997 300.26 139.157 299.386 139.157C297.956 139.157 296.655 138.784 295.482 138.037C294.33 137.29 293.412 136.266 292.73 134.965C292.068 133.664 291.738 132.181 291.738 130.517C291.738 128.832 292.068 127.338 292.73 126.037C293.412 124.736 294.33 123.722 295.482 122.997C296.634 122.25 297.914 121.877 299.322 121.877C300.218 121.877 301.06 122.026 301.85 122.325C302.639 122.624 303.322 123.029 303.898 123.541C304.495 124.053 304.964 124.618 305.306 125.237C305.647 125.856 305.818 126.474 305.818 127.093L304.986 126.901V116.437C304.986 116.074 305.103 115.776 305.338 115.541C305.572 115.285 305.882 115.157 306.266 115.157ZM299.674 136.789C300.74 136.789 301.679 136.522 302.49 135.989C303.322 135.434 303.962 134.688 304.41 133.749C304.879 132.789 305.114 131.712 305.114 130.517C305.114 129.301 304.879 128.224 304.41 127.285C303.962 126.346 303.322 125.61 302.49 125.077C301.679 124.522 300.74 124.245 299.674 124.245C298.628 124.245 297.69 124.522 296.858 125.077C296.047 125.61 295.407 126.346 294.938 127.285C294.468 128.224 294.234 129.301 294.234 130.517C294.234 131.69 294.468 132.757 294.938 133.717C295.407 134.656 296.047 135.402 296.858 135.957C297.69 136.512 298.628 136.789 299.674 136.789ZM325.922 122.133C326.285 122.133 326.583 122.261 326.818 122.517C327.074 122.752 327.202 123.05 327.202 123.413V137.525C327.202 137.888 327.074 138.197 326.818 138.453C326.583 138.709 326.285 138.837 325.922 138.837C325.538 138.837 325.229 138.709 324.994 138.453C324.759 138.197 324.642 137.888 324.642 137.525V134.485L325.25 134.421C325.25 134.89 325.09 135.402 324.77 135.957C324.45 136.512 324.013 137.034 323.458 137.525C322.903 137.994 322.242 138.389 321.474 138.709C320.727 139.008 319.917 139.157 319.042 139.157C317.591 139.157 316.29 138.784 315.138 138.037C313.986 137.269 313.069 136.234 312.386 134.933C311.725 133.632 311.394 132.149 311.394 130.485C311.394 128.8 311.725 127.317 312.386 126.037C313.069 124.736 313.986 123.722 315.138 122.997C316.29 122.25 317.57 121.877 318.978 121.877C319.895 121.877 320.749 122.026 321.538 122.325C322.327 122.624 323.01 123.029 323.586 123.541C324.183 124.053 324.642 124.618 324.962 125.237C325.303 125.856 325.474 126.474 325.474 127.093L324.642 126.901V123.413C324.642 123.05 324.759 122.752 324.994 122.517C325.229 122.261 325.538 122.133 325.922 122.133ZM319.33 136.789C320.397 136.789 321.335 136.512 322.146 135.957C322.978 135.402 323.618 134.656 324.066 133.717C324.535 132.757 324.77 131.68 324.77 130.485C324.77 129.312 324.535 128.256 324.066 127.317C323.618 126.357 322.978 125.61 322.146 125.077C321.335 124.522 320.397 124.245 319.33 124.245C318.285 124.245 317.346 124.512 316.514 125.045C315.703 125.578 315.063 126.314 314.594 127.253C314.125 128.192 313.89 129.269 313.89 130.485C313.89 131.68 314.114 132.757 314.562 133.717C315.031 134.656 315.671 135.402 316.482 135.957C317.314 136.512 318.263 136.789 319.33 136.789ZM334.762 137.525C334.762 137.888 334.634 138.197 334.378 138.453C334.122 138.709 333.813 138.837 333.45 138.837C333.087 138.837 332.789 138.709 332.554 138.453C332.319 138.197 332.202 137.888 332.202 137.525V116.437C332.202 116.074 332.319 115.776 332.554 115.541C332.81 115.285 333.119 115.157 333.482 115.157C333.866 115.157 334.175 115.285 334.41 115.541C334.645 115.776 334.762 116.074 334.762 116.437V137.525ZM353.359 122.133C353.722 122.133 354.021 122.261 354.255 122.517C354.511 122.752 354.639 123.05 354.639 123.413V137.525C354.639 137.888 354.511 138.197 354.255 138.453C354.021 138.709 353.722 138.837 353.359 138.837C352.975 138.837 352.666 138.709 352.431 138.453C352.197 138.197 352.079 137.888 352.079 137.525V134.485L352.687 134.421C352.687 134.89 352.527 135.402 352.207 135.957C351.887 136.512 351.45 137.034 350.895 137.525C350.341 137.994 349.679 138.389 348.911 138.709C348.165 139.008 347.354 139.157 346.479 139.157C345.029 139.157 343.727 138.784 342.575 138.037C341.423 137.269 340.506 136.234 339.823 134.933C339.162 133.632 338.831 132.149 338.831 130.485C338.831 128.8 339.162 127.317 339.823 126.037C340.506 124.736 341.423 123.722 342.575 122.997C343.727 122.25 345.007 121.877 346.415 121.877C347.333 121.877 348.186 122.026 348.975 122.325C349.765 122.624 350.447 123.029 351.023 123.541C351.621 124.053 352.079 124.618 352.399 125.237C352.741 125.856 352.911 126.474 352.911 127.093L352.079 126.901V123.413C352.079 123.05 352.197 122.752 352.431 122.517C352.666 122.261 352.975 122.133 353.359 122.133ZM346.767 136.789C347.834 136.789 348.773 136.512 349.583 135.957C350.415 135.402 351.055 134.656 351.503 133.717C351.973 132.757 352.207 131.68 352.207 130.485C352.207 129.312 351.973 128.256 351.503 127.317C351.055 126.357 350.415 125.61 349.583 125.077C348.773 124.522 347.834 124.245 346.767 124.245C345.722 124.245 344.783 124.512 343.951 125.045C343.141 125.578 342.501 126.314 342.031 127.253C341.562 128.192 341.327 129.269 341.327 130.485C341.327 131.68 341.551 132.757 341.999 133.717C342.469 134.656 343.109 135.402 343.919 135.957C344.751 136.512 345.701 136.789 346.767 136.789ZM367.288 122.037C368.738 122.037 369.912 122.41 370.808 123.157C371.725 123.882 372.333 124.917 372.632 126.261H372.152L372.376 125.685C372.632 125.088 373.069 124.512 373.688 123.957C374.306 123.402 375.021 122.944 375.832 122.581C376.642 122.218 377.485 122.037 378.36 122.037C379.768 122.037 380.877 122.346 381.688 122.965C382.498 123.562 383.074 124.373 383.416 125.397C383.778 126.4 383.96 127.53 383.96 128.789V137.525C383.96 137.888 383.832 138.197 383.576 138.453C383.341 138.709 383.042 138.837 382.68 138.837C382.296 138.837 381.986 138.709 381.752 138.453C381.517 138.197 381.4 137.888 381.4 137.525V128.853C381.4 128.021 381.272 127.274 381.016 126.613C380.781 125.93 380.386 125.397 379.832 125.013C379.298 124.608 378.562 124.405 377.624 124.405C376.749 124.405 375.949 124.608 375.224 125.013C374.498 125.397 373.922 125.93 373.496 126.613C373.069 127.274 372.856 128.021 372.856 128.853V137.525C372.856 137.888 372.738 138.197 372.504 138.453C372.269 138.709 371.96 138.837 371.576 138.837C371.213 138.837 370.904 138.709 370.648 138.453C370.413 138.197 370.296 137.888 370.296 137.525V128.757C370.296 127.946 370.178 127.221 369.944 126.581C369.73 125.92 369.357 125.397 368.824 125.013C368.29 124.608 367.554 124.405 366.616 124.405C365.762 124.405 364.984 124.608 364.28 125.013C363.576 125.397 363.01 125.92 362.584 126.581C362.157 127.221 361.944 127.946 361.944 128.757V137.525C361.944 137.888 361.816 138.197 361.56 138.453C361.325 138.709 361.026 138.837 360.664 138.837C360.301 138.837 359.992 138.709 359.736 138.453C359.501 138.197 359.384 137.888 359.384 137.525V123.573C359.384 123.21 359.501 122.912 359.736 122.677C359.992 122.421 360.301 122.293 360.664 122.293C361.048 122.293 361.357 122.421 361.592 122.677C361.826 122.912 361.944 123.21 361.944 123.573V126.005L361.24 126.773C361.325 126.218 361.538 125.664 361.88 125.109C362.242 124.554 362.701 124.042 363.256 123.573C363.81 123.104 364.429 122.73 365.112 122.453C365.794 122.176 366.52 122.037 367.288 122.037ZM405.509 122.037C406.917 122.037 408.026 122.346 408.837 122.965C409.669 123.562 410.255 124.373 410.597 125.397C410.959 126.4 411.141 127.52 411.141 128.757V137.525C411.141 137.888 411.013 138.197 410.757 138.453C410.522 138.709 410.223 138.837 409.861 138.837C409.498 138.837 409.189 138.709 408.933 138.453C408.698 138.197 408.581 137.888 408.581 137.525V128.757C408.581 127.946 408.463 127.221 408.229 126.581C407.994 125.92 407.599 125.397 407.045 125.013C406.511 124.608 405.775 124.405 404.837 124.405C403.962 124.405 403.162 124.608 402.437 125.013C401.711 125.397 401.135 125.92 400.709 126.581C400.282 127.221 400.069 127.946 400.069 128.757V137.525C400.069 137.888 399.941 138.197 399.685 138.453C399.45 138.709 399.151 138.837 398.789 138.837C398.426 138.837 398.117 138.709 397.861 138.453C397.626 138.197 397.509 137.888 397.509 137.525V116.437C397.509 116.074 397.626 115.776 397.861 115.541C398.117 115.285 398.426 115.157 398.789 115.157C399.173 115.157 399.482 115.285 399.717 115.541C399.951 115.776 400.069 116.074 400.069 116.437V126.005L399.429 126.709C399.535 126.154 399.77 125.6 400.133 125.045C400.495 124.469 400.954 123.957 401.509 123.509C402.063 123.061 402.682 122.709 403.365 122.453C404.047 122.176 404.762 122.037 405.509 122.037ZM429.516 122.133C429.878 122.133 430.177 122.261 430.412 122.517C430.668 122.752 430.796 123.05 430.796 123.413V137.525C430.796 137.888 430.668 138.197 430.412 138.453C430.177 138.709 429.878 138.837 429.516 138.837C429.132 138.837 428.822 138.709 428.588 138.453C428.353 138.197 428.236 137.888 428.236 137.525V134.485L428.844 134.421C428.844 134.89 428.684 135.402 428.364 135.957C428.044 136.512 427.606 137.034 427.052 137.525C426.497 137.994 425.836 138.389 425.068 138.709C424.321 139.008 423.51 139.157 422.636 139.157C421.185 139.157 419.884 138.784 418.732 138.037C417.58 137.269 416.662 136.234 415.98 134.933C415.318 133.632 414.988 132.149 414.988 130.485C414.988 128.8 415.318 127.317 415.98 126.037C416.662 124.736 417.58 123.722 418.732 122.997C419.884 122.25 421.164 121.877 422.572 121.877C423.489 121.877 424.342 122.026 425.132 122.325C425.921 122.624 426.604 123.029 427.18 123.541C427.777 124.053 428.236 124.618 428.556 125.237C428.897 125.856 429.068 126.474 429.068 127.093L428.236 126.901V123.413C428.236 123.05 428.353 122.752 428.588 122.517C428.822 122.261 429.132 122.133 429.516 122.133ZM422.924 136.789C423.99 136.789 424.929 136.512 425.74 135.957C426.572 135.402 427.212 134.656 427.66 133.717C428.129 132.757 428.364 131.68 428.364 130.485C428.364 129.312 428.129 128.256 427.66 127.317C427.212 126.357 426.572 125.61 425.74 125.077C424.929 124.522 423.99 124.245 422.924 124.245C421.878 124.245 420.94 124.512 420.108 125.045C419.297 125.578 418.657 126.314 418.188 127.253C417.718 128.192 417.484 129.269 417.484 130.485C417.484 131.68 417.708 132.757 418.156 133.717C418.625 134.656 419.265 135.402 420.076 135.957C420.908 136.512 421.857 136.789 422.924 136.789ZM438.356 137.525C438.356 137.888 438.228 138.197 437.972 138.453C437.716 138.709 437.407 138.837 437.044 138.837C436.681 138.837 436.383 138.709 436.148 138.453C435.913 138.197 435.796 137.888 435.796 137.525V116.437C435.796 116.074 435.913 115.776 436.148 115.541C436.404 115.285 436.713 115.157 437.076 115.157C437.46 115.157 437.769 115.285 438.004 115.541C438.239 115.776 438.356 116.074 438.356 116.437V137.525ZM460.038 122.037C461.488 122.037 462.662 122.41 463.558 123.157C464.475 123.882 465.083 124.917 465.382 126.261H464.902L465.126 125.685C465.382 125.088 465.819 124.512 466.438 123.957C467.056 123.402 467.771 122.944 468.582 122.581C469.392 122.218 470.235 122.037 471.11 122.037C472.518 122.037 473.627 122.346 474.438 122.965C475.248 123.562 475.824 124.373 476.166 125.397C476.528 126.4 476.71 127.53 476.71 128.789V137.525C476.71 137.888 476.582 138.197 476.326 138.453C476.091 138.709 475.792 138.837 475.43 138.837C475.046 138.837 474.736 138.709 474.502 138.453C474.267 138.197 474.15 137.888 474.15 137.525V128.853C474.15 128.021 474.022 127.274 473.766 126.613C473.531 125.93 473.136 125.397 472.582 125.013C472.048 124.608 471.312 124.405 470.374 124.405C469.499 124.405 468.699 124.608 467.974 125.013C467.248 125.397 466.672 125.93 466.246 126.613C465.819 127.274 465.606 128.021 465.606 128.853V137.525C465.606 137.888 465.488 138.197 465.254 138.453C465.019 138.709 464.71 138.837 464.326 138.837C463.963 138.837 463.654 138.709 463.398 138.453C463.163 138.197 463.046 137.888 463.046 137.525V128.757C463.046 127.946 462.928 127.221 462.694 126.581C462.48 125.92 462.107 125.397 461.574 125.013C461.04 124.608 460.304 124.405 459.366 124.405C458.512 124.405 457.734 124.608 457.03 125.013C456.326 125.397 455.76 125.92 455.334 126.581C454.907 127.221 454.694 127.946 454.694 128.757V137.525C454.694 137.888 454.566 138.197 454.31 138.453C454.075 138.709 453.776 138.837 453.414 138.837C453.051 138.837 452.742 138.709 452.486 138.453C452.251 138.197 452.134 137.888 452.134 137.525V123.573C452.134 123.21 452.251 122.912 452.486 122.677C452.742 122.421 453.051 122.293 453.414 122.293C453.798 122.293 454.107 122.421 454.342 122.677C454.576 122.912 454.694 123.21 454.694 123.573V126.005L453.99 126.773C454.075 126.218 454.288 125.664 454.63 125.109C454.992 124.554 455.451 124.042 456.006 123.573C456.56 123.104 457.179 122.73 457.862 122.453C458.544 122.176 459.27 122.037 460.038 122.037ZM489.094 139.157C487.387 139.157 485.894 138.794 484.614 138.069C483.334 137.344 482.331 136.352 481.606 135.093C480.902 133.813 480.55 132.341 480.55 130.677C480.55 128.821 480.913 127.242 481.638 125.941C482.385 124.618 483.345 123.616 484.518 122.933C485.713 122.229 486.971 121.877 488.294 121.877C489.275 121.877 490.225 122.058 491.142 122.421C492.059 122.784 492.87 123.317 493.574 124.021C494.278 124.704 494.843 125.536 495.27 126.517C495.697 127.477 495.921 128.554 495.942 129.749C495.942 130.09 495.814 130.378 495.558 130.613C495.302 130.848 495.003 130.965 494.662 130.965H482.022L481.446 128.757H493.766L493.254 129.205V128.501C493.169 127.626 492.87 126.88 492.358 126.261C491.867 125.621 491.259 125.13 490.534 124.789C489.83 124.448 489.083 124.277 488.294 124.277C487.654 124.277 487.014 124.394 486.374 124.629C485.755 124.842 485.19 125.205 484.678 125.717C484.187 126.208 483.782 126.848 483.462 127.637C483.163 128.426 483.014 129.376 483.014 130.485C483.014 131.722 483.259 132.81 483.75 133.749C484.262 134.688 484.966 135.434 485.862 135.989C486.758 136.522 487.803 136.789 488.998 136.789C489.745 136.789 490.395 136.693 490.95 136.501C491.505 136.309 491.985 136.074 492.39 135.797C492.795 135.498 493.137 135.2 493.414 134.901C493.691 134.709 493.958 134.613 494.214 134.613C494.534 134.613 494.79 134.72 494.982 134.933C495.195 135.146 495.302 135.402 495.302 135.701C495.302 136.064 495.131 136.384 494.79 136.661C494.193 137.322 493.382 137.909 492.358 138.421C491.334 138.912 490.246 139.157 489.094 139.157ZM508.014 121.877C509.465 121.877 510.606 122.176 511.438 122.773C512.27 123.37 512.857 124.17 513.198 125.173C513.561 126.176 513.742 127.296 513.742 128.533V137.525C513.742 137.888 513.614 138.197 513.358 138.453C513.123 138.709 512.825 138.837 512.462 138.837C512.099 138.837 511.79 138.709 511.534 138.453C511.299 138.197 511.182 137.888 511.182 137.525V128.597C511.182 127.786 511.054 127.061 510.798 126.421C510.563 125.76 510.158 125.237 509.582 124.853C509.027 124.448 508.259 124.245 507.278 124.245C506.382 124.245 505.561 124.448 504.814 124.853C504.067 125.237 503.47 125.76 503.022 126.421C502.574 127.061 502.35 127.786 502.35 128.597V137.525C502.35 137.888 502.222 138.197 501.966 138.453C501.731 138.709 501.433 138.837 501.07 138.837C500.707 138.837 500.398 138.709 500.142 138.453C499.907 138.197 499.79 137.888 499.79 137.525V123.573C499.79 123.21 499.907 122.912 500.142 122.677C500.398 122.421 500.707 122.293 501.07 122.293C501.454 122.293 501.763 122.421 501.998 122.677C502.233 122.912 502.35 123.21 502.35 123.573V125.845L501.71 126.549C501.817 125.994 502.062 125.44 502.446 124.885C502.83 124.309 503.31 123.797 503.886 123.349C504.462 122.901 505.102 122.549 505.806 122.293C506.51 122.016 507.246 121.877 508.014 121.877ZM530.705 122.037C531.068 122.037 531.366 122.165 531.601 122.421C531.857 122.656 531.985 122.954 531.985 123.317V137.269C531.985 139.061 531.633 140.544 530.929 141.717C530.225 142.912 529.276 143.797 528.081 144.373C526.908 144.949 525.574 145.237 524.081 145.237C523.249 145.237 522.449 145.152 521.681 144.981C520.913 144.81 520.284 144.586 519.793 144.309C519.388 144.117 519.1 143.872 518.929 143.573C518.78 143.296 518.758 142.997 518.865 142.677C519.014 142.293 519.228 142.026 519.505 141.877C519.804 141.728 520.113 141.728 520.433 141.877C520.774 142.026 521.265 142.229 521.905 142.485C522.566 142.762 523.302 142.901 524.113 142.901C525.222 142.901 526.172 142.688 526.961 142.261C527.75 141.834 528.358 141.205 528.785 140.373C529.212 139.562 529.425 138.549 529.425 137.333V135.061L529.809 135.861C529.468 136.522 529.009 137.098 528.433 137.589C527.857 138.08 527.196 138.464 526.449 138.741C525.702 139.018 524.881 139.157 523.985 139.157C522.769 139.157 521.734 138.901 520.881 138.389C520.049 137.856 519.409 137.13 518.961 136.213C518.534 135.274 518.321 134.197 518.321 132.981V123.317C518.321 122.954 518.438 122.656 518.673 122.421C518.929 122.165 519.238 122.037 519.601 122.037C519.985 122.037 520.294 122.165 520.529 122.421C520.764 122.656 520.881 122.954 520.881 123.317V132.405C520.881 133.856 521.201 134.954 521.841 135.701C522.481 136.426 523.473 136.789 524.817 136.789C525.67 136.789 526.438 136.597 527.121 136.213C527.825 135.829 528.38 135.306 528.785 134.645C529.212 133.962 529.425 133.216 529.425 132.405V123.317C529.425 122.954 529.542 122.656 529.777 122.421C530.012 122.165 530.321 122.037 530.705 122.037ZM544.219 139.157C542.512 139.157 541.019 138.794 539.739 138.069C538.459 137.344 537.456 136.352 536.731 135.093C536.027 133.813 535.675 132.341 535.675 130.677C535.675 128.821 536.038 127.242 536.763 125.941C537.51 124.618 538.47 123.616 539.643 122.933C540.838 122.229 542.096 121.877 543.419 121.877C544.4 121.877 545.35 122.058 546.267 122.421C547.184 122.784 547.995 123.317 548.699 124.021C549.403 124.704 549.968 125.536 550.395 126.517C550.822 127.477 551.046 128.554 551.067 129.749C551.067 130.09 550.939 130.378 550.683 130.613C550.427 130.848 550.128 130.965 549.787 130.965H537.147L536.571 128.757H548.891L548.379 129.205V128.501C548.294 127.626 547.995 126.88 547.483 126.261C546.992 125.621 546.384 125.13 545.659 124.789C544.955 124.448 544.208 124.277 543.419 124.277C542.779 124.277 542.139 124.394 541.499 124.629C540.88 124.842 540.315 125.205 539.803 125.717C539.312 126.208 538.907 126.848 538.587 127.637C538.288 128.426 538.139 129.376 538.139 130.485C538.139 131.722 538.384 132.81 538.875 133.749C539.387 134.688 540.091 135.434 540.987 135.989C541.883 136.522 542.928 136.789 544.123 136.789C544.87 136.789 545.52 136.693 546.075 136.501C546.63 136.309 547.11 136.074 547.515 135.797C547.92 135.498 548.262 135.2 548.539 134.901C548.816 134.709 549.083 134.613 549.339 134.613C549.659 134.613 549.915 134.72 550.107 134.933C550.32 135.146 550.427 135.402 550.427 135.701C550.427 136.064 550.256 136.384 549.915 136.661C549.318 137.322 548.507 137.909 547.483 138.421C546.459 138.912 545.371 139.157 544.219 139.157ZM557.731 137.525C557.731 137.888 557.603 138.197 557.347 138.453C557.091 138.709 556.782 138.837 556.419 138.837C556.056 138.837 555.758 138.709 555.523 138.453C555.288 138.197 555.171 137.888 555.171 137.525V116.437C555.171 116.074 555.288 115.776 555.523 115.541C555.779 115.285 556.088 115.157 556.451 115.157C556.835 115.157 557.144 115.285 557.379 115.541C557.614 115.776 557.731 116.074 557.731 116.437V137.525ZM570.032 139.157C568.325 139.157 566.832 138.794 565.552 138.069C564.272 137.344 563.269 136.352 562.544 135.093C561.84 133.813 561.488 132.341 561.488 130.677C561.488 128.821 561.85 127.242 562.576 125.941C563.322 124.618 564.282 123.616 565.456 122.933C566.65 122.229 567.909 121.877 569.232 121.877C570.213 121.877 571.162 122.058 572.08 122.421C572.997 122.784 573.808 123.317 574.512 124.021C575.216 124.704 575.781 125.536 576.208 126.517C576.634 127.477 576.858 128.554 576.88 129.749C576.88 130.09 576.752 130.378 576.496 130.613C576.24 130.848 575.941 130.965 575.6 130.965H562.96L562.384 128.757H574.704L574.192 129.205V128.501C574.106 127.626 573.808 126.88 573.296 126.261C572.805 125.621 572.197 125.13 571.472 124.789C570.768 124.448 570.021 124.277 569.232 124.277C568.592 124.277 567.952 124.394 567.312 124.629C566.693 124.842 566.128 125.205 565.616 125.717C565.125 126.208 564.72 126.848 564.4 127.637C564.101 128.426 563.952 129.376 563.952 130.485C563.952 131.722 564.197 132.81 564.688 133.749C565.2 134.688 565.904 135.434 566.8 135.989C567.696 136.522 568.741 136.789 569.936 136.789C570.682 136.789 571.333 136.693 571.888 136.501C572.442 136.309 572.922 136.074 573.328 135.797C573.733 135.498 574.074 135.2 574.352 134.901C574.629 134.709 574.896 134.613 575.152 134.613C575.472 134.613 575.728 134.72 575.92 134.933C576.133 135.146 576.24 135.402 576.24 135.701C576.24 136.064 576.069 136.384 575.728 136.661C575.13 137.322 574.32 137.909 573.296 138.421C572.272 138.912 571.184 139.157 570.032 139.157ZM579.799 136.213C579.607 135.936 579.522 135.648 579.543 135.349C579.565 135.029 579.746 134.752 580.087 134.517C580.301 134.368 580.546 134.304 580.823 134.325C581.122 134.346 581.389 134.485 581.623 134.741C582.221 135.445 582.903 136.01 583.671 136.437C584.439 136.842 585.378 137.045 586.487 137.045C586.999 137.024 587.511 136.938 588.023 136.789C588.535 136.64 588.962 136.384 589.303 136.021C589.666 135.637 589.847 135.136 589.847 134.517C589.847 133.92 589.666 133.45 589.303 133.109C588.941 132.746 588.471 132.458 587.895 132.245C587.319 132.01 586.69 131.808 586.007 131.637C585.303 131.445 584.61 131.232 583.927 130.997C583.245 130.741 582.626 130.432 582.071 130.069C581.538 129.685 581.101 129.216 580.759 128.661C580.439 128.085 580.279 127.392 580.279 126.581C580.279 125.621 580.535 124.789 581.047 124.085C581.581 123.381 582.285 122.837 583.159 122.453C584.055 122.069 585.026 121.877 586.071 121.877C586.669 121.877 587.287 121.952 587.927 122.101C588.589 122.229 589.229 122.464 589.847 122.805C590.466 123.125 591.01 123.573 591.479 124.149C591.671 124.362 591.778 124.629 591.799 124.949C591.821 125.269 591.682 125.557 591.383 125.813C591.149 125.984 590.882 126.058 590.583 126.037C590.306 126.016 590.071 125.909 589.879 125.717C589.431 125.184 588.866 124.778 588.183 124.501C587.522 124.202 586.786 124.053 585.975 124.053C585.463 124.053 584.962 124.128 584.471 124.277C583.981 124.426 583.565 124.682 583.223 125.045C582.903 125.386 582.743 125.866 582.743 126.485C582.765 127.061 582.957 127.53 583.319 127.893C583.682 128.256 584.173 128.554 584.791 128.789C585.41 129.002 586.093 129.216 586.839 129.429C587.522 129.6 588.173 129.802 588.791 130.037C589.431 130.25 590.007 130.538 590.519 130.901C591.031 131.264 591.437 131.733 591.735 132.309C592.034 132.864 592.183 133.568 592.183 134.421C592.183 135.402 591.906 136.256 591.351 136.981C590.797 137.685 590.061 138.229 589.143 138.613C588.247 138.976 587.277 139.157 586.231 139.157C585.058 139.157 583.895 138.933 582.743 138.485C581.613 138.037 580.631 137.28 579.799 136.213ZM609.766 122.133C610.128 122.133 610.427 122.261 610.662 122.517C610.918 122.752 611.046 123.05 611.046 123.413V137.525C611.046 137.888 610.918 138.197 610.662 138.453C610.427 138.709 610.128 138.837 609.766 138.837C609.382 138.837 609.072 138.709 608.838 138.453C608.603 138.197 608.486 137.888 608.486 137.525V134.485L609.094 134.421C609.094 134.89 608.934 135.402 608.614 135.957C608.294 136.512 607.856 137.034 607.302 137.525C606.747 137.994 606.086 138.389 605.318 138.709C604.571 139.008 603.76 139.157 602.886 139.157C601.435 139.157 600.134 138.784 598.982 138.037C597.83 137.269 596.912 136.234 596.23 134.933C595.568 133.632 595.238 132.149 595.238 130.485C595.238 128.8 595.568 127.317 596.23 126.037C596.912 124.736 597.83 123.722 598.982 122.997C600.134 122.25 601.414 121.877 602.822 121.877C603.739 121.877 604.592 122.026 605.382 122.325C606.171 122.624 606.854 123.029 607.43 123.541C608.027 124.053 608.486 124.618 608.806 125.237C609.147 125.856 609.318 126.474 609.318 127.093L608.486 126.901V123.413C608.486 123.05 608.603 122.752 608.838 122.517C609.072 122.261 609.382 122.133 609.766 122.133ZM603.174 136.789C604.24 136.789 605.179 136.512 605.99 135.957C606.822 135.402 607.462 134.656 607.91 133.717C608.379 132.757 608.614 131.68 608.614 130.485C608.614 129.312 608.379 128.256 607.91 127.317C607.462 126.357 606.822 125.61 605.99 125.077C605.179 124.522 604.24 124.245 603.174 124.245C602.128 124.245 601.19 124.512 600.358 125.045C599.547 125.578 598.907 126.314 598.438 127.253C597.968 128.192 597.734 129.269 597.734 130.485C597.734 131.68 597.958 132.757 598.406 133.717C598.875 134.656 599.515 135.402 600.326 135.957C601.158 136.512 602.107 136.789 603.174 136.789ZM618.254 137.525C618.254 137.888 618.126 138.197 617.87 138.453C617.635 138.709 617.337 138.837 616.974 138.837C616.59 138.837 616.281 138.709 616.046 138.453C615.811 138.197 615.694 137.888 615.694 137.525V123.317C615.694 122.954 615.811 122.656 616.046 122.421C616.302 122.165 616.611 122.037 616.974 122.037C617.337 122.037 617.635 122.165 617.87 122.421C618.126 122.656 618.254 122.954 618.254 123.317V137.525ZM616.974 119.893C616.441 119.893 616.046 119.786 615.79 119.573C615.534 119.36 615.406 119.029 615.406 118.581V118.133C615.406 117.685 615.545 117.354 615.822 117.141C616.099 116.928 616.494 116.821 617.006 116.821C617.518 116.821 617.902 116.928 618.158 117.141C618.414 117.354 618.542 117.685 618.542 118.133V118.581C618.542 119.029 618.403 119.36 618.126 119.573C617.87 119.786 617.486 119.893 616.974 119.893ZM624.388 138.837C624.004 138.837 623.695 138.709 623.46 138.453C623.226 138.197 623.108 137.888 623.108 137.525V116.437C623.108 116.074 623.226 115.776 623.46 115.541C623.695 115.285 624.004 115.157 624.388 115.157C624.751 115.157 625.05 115.285 625.284 115.541C625.54 115.776 625.668 116.074 625.668 116.437V137.525C625.668 137.888 625.54 138.197 625.284 138.453C625.05 138.709 624.751 138.837 624.388 138.837ZM635.012 122.197C635.354 122.197 635.642 122.336 635.876 122.613C636.132 122.869 636.26 123.136 636.26 123.413C636.26 123.776 636.09 124.096 635.748 124.373L625.38 133.429L625.284 130.453L634.116 122.581C634.372 122.325 634.671 122.197 635.012 122.197ZM635.364 138.805C635.002 138.805 634.682 138.666 634.404 138.389L627.588 131.125L629.508 129.365L636.26 136.597C636.516 136.874 636.644 137.194 636.644 137.557C636.644 137.941 636.495 138.25 636.196 138.485C635.898 138.698 635.62 138.805 635.364 138.805ZM653.859 122.133C654.222 122.133 654.521 122.261 654.755 122.517C655.011 122.752 655.139 123.05 655.139 123.413V137.525C655.139 137.888 655.011 138.197 654.755 138.453C654.521 138.709 654.222 138.837 653.859 138.837C653.475 138.837 653.166 138.709 652.931 138.453C652.697 138.197 652.579 137.888 652.579 137.525V134.485L653.187 134.421C653.187 134.89 653.027 135.402 652.707 135.957C652.387 136.512 651.95 137.034 651.395 137.525C650.841 137.994 650.179 138.389 649.411 138.709C648.665 139.008 647.854 139.157 646.979 139.157C645.529 139.157 644.227 138.784 643.075 138.037C641.923 137.269 641.006 136.234 640.323 134.933C639.662 133.632 639.331 132.149 639.331 130.485C639.331 128.8 639.662 127.317 640.323 126.037C641.006 124.736 641.923 123.722 643.075 122.997C644.227 122.25 645.507 121.877 646.915 121.877C647.833 121.877 648.686 122.026 649.475 122.325C650.265 122.624 650.947 123.029 651.523 123.541C652.121 124.053 652.579 124.618 652.899 125.237C653.241 125.856 653.411 126.474 653.411 127.093L652.579 126.901V123.413C652.579 123.05 652.697 122.752 652.931 122.517C653.166 122.261 653.475 122.133 653.859 122.133ZM647.267 136.789C648.334 136.789 649.273 136.512 650.083 135.957C650.915 135.402 651.555 134.656 652.003 133.717C652.473 132.757 652.707 131.68 652.707 130.485C652.707 129.312 652.473 128.256 652.003 127.317C651.555 126.357 650.915 125.61 650.083 125.077C649.273 124.522 648.334 124.245 647.267 124.245C646.222 124.245 645.283 124.512 644.451 125.045C643.641 125.578 643.001 126.314 642.531 127.253C642.062 128.192 641.827 129.269 641.827 130.485C641.827 131.68 642.051 132.757 642.499 133.717C642.969 134.656 643.609 135.402 644.419 135.957C645.251 136.512 646.201 136.789 647.267 136.789ZM668.108 121.877C669.558 121.877 670.7 122.176 671.532 122.773C672.364 123.37 672.95 124.17 673.292 125.173C673.654 126.176 673.836 127.296 673.836 128.533V137.525C673.836 137.888 673.708 138.197 673.452 138.453C673.217 138.709 672.918 138.837 672.556 138.837C672.193 138.837 671.884 138.709 671.628 138.453C671.393 138.197 671.276 137.888 671.276 137.525V128.597C671.276 127.786 671.148 127.061 670.892 126.421C670.657 125.76 670.252 125.237 669.676 124.853C669.121 124.448 668.353 124.245 667.372 124.245C666.476 124.245 665.654 124.448 664.908 124.853C664.161 125.237 663.564 125.76 663.116 126.421C662.668 127.061 662.444 127.786 662.444 128.597V137.525C662.444 137.888 662.316 138.197 662.06 138.453C661.825 138.709 661.526 138.837 661.164 138.837C660.801 138.837 660.492 138.709 660.236 138.453C660.001 138.197 659.884 137.888 659.884 137.525V123.573C659.884 123.21 660.001 122.912 660.236 122.677C660.492 122.421 660.801 122.293 661.164 122.293C661.548 122.293 661.857 122.421 662.092 122.677C662.326 122.912 662.444 123.21 662.444 123.573V125.845L661.804 126.549C661.91 125.994 662.156 125.44 662.54 124.885C662.924 124.309 663.404 123.797 663.98 123.349C664.556 122.901 665.196 122.549 665.9 122.293C666.604 122.016 667.34 121.877 668.108 121.877ZM679.339 138.805C678.891 138.805 678.539 138.677 678.283 138.421C678.048 138.165 677.931 137.813 677.931 137.365V136.725C677.931 136.256 678.048 135.893 678.283 135.637C678.539 135.381 678.891 135.253 679.339 135.253H679.595C680.064 135.253 680.416 135.381 680.651 135.637C680.886 135.893 681.003 136.256 681.003 136.725V137.365C681.003 137.813 680.886 138.165 680.651 138.421C680.416 138.677 680.064 138.805 679.595 138.805H679.339Z" fill="white"/>
</svg>
