<svg width="973" height="646" viewBox="0 0 973 646" fill="none" xmlns="http://www.w3.org/2000/svg">
<path d="M957.876 31.2931C958.21 162.892 960.913 565.85 957.179 634.189C906.397 642.981 904.762 635.684 853.225 634.012L26.1786 607.147C20.814 606.975 14.9598 606.621 10.9129 603.085C7.21502 599.814 5.9546 594.642 4.98064 589.798C-3.38394 548.033 39.9859 61.1942 41.3504 21.1994C98.1786 12.2879 173.913 12.9337 231.559 12.9129C291.85 12.9129 337.147 9.66291 397.403 10.5171C516.376 12.2046 635.304 15.6265 754.189 20.7879C822.106 23.7879 890.001 27.2879 957.876 31.2931Z" fill="#116D4F"/>
<path d="M578.429 186.022C587.825 207.902 609.002 222.142 629.892 233.6C654.319 246.986 680.033 258.444 702.262 275.231C724.491 292.017 743.476 315.34 747.752 342.887C753.997 383.231 728.189 421.106 701.424 451.934C674.663 482.767 644.226 514.34 638.236 554.725C636.892 563.71 637.148 573.746 642.981 580.71C648.293 587.053 656.924 589.309 664.997 591.158C745.976 609.71 827.903 621.762 910.793 627.319C915.674 627.652 920.752 627.923 925.262 626.017C934.986 621.913 938.023 609.871 939.71 599.465C963.054 456.314 965.773 310.689 968.439 165.673C969.2 124.824 969.856 83.4649 959.007 44.1733C957.955 40.2826 956.611 36.2722 953.465 33.8243C950.747 32.0587 947.778 31.0274 944.554 30.7305C867.694 17.6733 790.288 11.642 712.335 12.642C686.819 12.9493 652.47 9.12117 630.96 26.2566C615.288 38.767 609.142 60.7045 600.991 78.1733C585.512 111.324 562.325 148.475 578.429 186.022Z" fill="#15664C"/>
<path d="M867.345 48.6266C900.621 54.0172 927.637 56.4078 961.377 54.8141C961.903 36.5485 961.262 31.1578 961.767 12.913C824.71 11.4703 25.5015 -10.4307 25.1109 13.3193C24.663 40.3974 34.8348 32.7724 51.9703 30.1474C83.9598 25.0693 174.496 27.7724 206.762 26.1578C334.173 19.8193 833.986 43.2412 867.345 48.6266Z" fill="#CD924C"/>
<path d="M959.882 609.502C959.882 621.97 959.491 626.309 955.074 639.986C795.147 657.491 646.793 626.095 485.892 626.934C452.09 627.106 9.56917 617.205 5.50668 603.2C-2.46728 575.46 10.4077 570.481 25.5588 570.46C94.5015 570.46 199.876 584.429 268.824 585.731C344.772 587.168 877.574 611.72 959.882 609.502Z" fill="#CD924C"/>
<path d="M942.085 210.179C942.085 375.158 941.189 489.944 915.538 615.121C913.788 623.626 909.705 621.444 915.012 628.392C920.325 635.335 950.116 630.455 957.179 632.283C976.783 479.444 972.054 335.804 968.653 181.778C967.7 138.653 968.788 55.34 961.71 12.814C935.085 13.3192 935.085 13.3192 933.819 37.8869C931.934 74.7931 942.085 173.59 942.085 210.179Z" fill="#CD924C"/>
<path d="M41.7776 606.08C25.9859 600.533 21.8817 599.736 5.52755 603.199C-9.08182 605.142 22.6578 89.3036 12.8192 32.4807C9.90255 15.6526 14.413 11.0849 42.9859 8.04841C59.3609 6.31925 51.6005 36.7828 50.6057 50.8453C47.3973 96.0692 36.9911 366.345 37.8869 456.236C38.0432 471.351 32.7932 603.022 41.7776 606.08Z" fill="#CD924C"/>
<path d="M24.038 120.116C22.0953 123.83 19.663 127.35 18.6161 131.418C17.9651 134.475 17.7203 137.569 17.8921 140.694C18.2046 164.647 18.5015 188.6 18.788 212.553C19.0015 229.809 19.2151 247.064 20.7359 264.257C22.564 285.949 26.314 307.949 22.1369 329.309C18.9234 345.668 11.163 360.876 8.03277 377.257C4.63173 394.996 6.80881 413.283 7.2359 431.356C7.64735 448.491 6.47548 465.611 5.75673 482.751C4.06402 522.741 -9.4516 612.262 11.9807 606.08C11.9807 587.444 7.91819 565.481 7.91819 546.845C7.91819 519.746 7.91819 492.496 12.5849 465.788C15.5432 448.767 20.3661 431.47 17.2151 414.47C15.4807 405.6 11.5953 397.1 11.3974 388.074C10.9338 369.283 25.8296 353.819 30.8453 335.746C36.4703 315.887 29.8921 294.897 26.6838 274.527C22.5796 248.465 24.0796 221.871 25.5953 195.533L28.0849 152.231C28.4859 140.397 29.7255 128.658 31.7984 117.001C34.1734 105.33 38.2984 93.6576 37.9078 81.7149C37.6369 73.4076 35.2046 65.3556 33.4911 57.2253C31.4234 47.2722 30.439 37.2149 30.538 27.0535C30.6317 19.0014 38.9182 11.0847 47.2046 7.60034C24.2567 10.8868 20.7359 29.3087 23.7671 47.3451C27.7567 70.9962 35.8869 97.3764 24.038 120.116Z" fill="#AA762A"/>
<path d="M29.5639 567.173C30.1472 561.335 31.2566 554.762 27.6212 550.054C24.3139 545.679 21.1212 518.038 23.9441 514.048C34.0587 499.731 34.366 480.981 34.2879 463.47C34.2879 443.923 34.116 424.199 30.0691 405.116C29.4962 402.897 29.1525 400.647 29.0379 398.366C29.1525 395.548 29.6316 392.804 30.4754 390.116C33.3972 378.824 35.6889 367.408 37.3452 355.861C34.2722 365.705 32.3243 376.715 28.0639 386.09C25.965 390.72 19.5066 394.413 20.5587 399.434C37.3816 478.876 13.9441 520.038 13.9441 520.038C13.1108 522.522 12.5222 525.069 12.1837 527.668C11.84 530.267 11.7566 532.876 11.9233 535.491C12.09 538.106 12.5066 540.684 13.1733 543.22C13.84 545.757 14.7462 548.199 15.892 550.559C18.2462 555.423 20.2097 560.288 20.2097 563.475C20.1785 574.09 21.1941 584.6 23.2618 595.012C23.9233 598.356 20.7931 605.298 23.0118 607.908C25.2254 610.512 53.2514 612.069 58.7566 611.522C53.1368 599.272 28.2045 580.616 29.5639 567.173Z" fill="#AA762A"/>
<path d="M53.7567 597.189C63.9286 601.897 76.5536 599.486 85.3609 592.58C89.6994 589.194 93.689 584.642 99.1317 584.017C104.58 583.397 109.809 587.054 115.293 586.819C118.257 586.491 121.059 585.627 123.694 584.231C129.746 581.491 149.371 581.022 155.418 578.298C145.418 575.225 125.017 572.835 116.517 574.194C111.6 574.975 106.658 575.752 101.814 576.975C94.5432 578.824 87.4807 581.705 80.0119 582.502C72.5484 583.298 64.6682 577.173 59.9234 571.356C58.7775 569.955 40.2411 565.153 37.7723 569.564C33.8244 576.512 46.8921 593.996 53.7567 597.189Z" fill="#AA762A"/>
<path d="M184.689 610.611C196.861 608.955 208.981 606.465 221.272 606.236C247.663 605.726 273.163 615.647 299.455 617.908C323.845 620.085 348.351 615.668 372.095 609.658C384.798 606.449 398.392 602.793 410.72 607.246C416.851 609.465 422.101 613.528 427.856 616.564C458.158 632.554 499.272 619.949 532.996 625.981C397.788 631.929 313.694 625.861 286.33 623.778C212.246 618.179 127.918 617.184 65.8557 612.111C79.4703 597.83 99.9495 605.34 115.429 609.366C137.642 615.262 162.205 613.663 184.689 610.611Z" fill="#AA762A"/>
<path d="M893.58 610.804C879.325 609.189 794.72 605.632 794.72 605.632C789.705 605.126 738.085 604.621 733.319 604.189C552.981 587.85 372.121 579.376 190.757 578.767C158.434 578.767 138.767 605.319 183.465 598.611C213.861 594.038 246.168 582.345 276.215 594.991C284.595 598.512 292.241 603.819 300.991 606.293C334.793 615.824 370.288 580.46 403.33 592.366C415.002 596.606 424.356 606.35 436.397 609.522C457.788 615.121 478.481 598.455 500.46 595.903C521.272 593.475 541.184 603.804 561.705 608.08C587.71 613.507 614.606 609.132 641.153 607.809C677.851 605.981 859.799 618.528 901.455 619.481C906.726 619.595 914.059 622.382 912.408 627.376C911.95 628.345 911.314 629.184 910.512 629.887C909.705 630.595 908.793 631.116 907.778 631.444C896.731 636.366 884.127 636.033 872.09 635.1C860.049 634.168 847.799 632.668 835.778 630.684C829.163 629.595 822.262 628.371 815.84 630.278C812.653 631.231 809.757 632.923 806.663 634.168C797.481 637.845 787.215 637.376 777.491 636.871C760.746 635.996 743.882 635.121 727.564 631.231C720.038 629.439 712.668 627.007 705.064 625.569C692.517 623.194 679.642 623.626 666.866 623.955C626.507 625.22 585.549 626.699 546.283 617.246C529.71 613.356 512.205 607.345 496.121 612.965C498.496 617.496 503.903 619.559 509.054 619.85C514.21 620.142 519.267 619.09 524.361 619.189C528.929 619.382 533.429 620.028 537.861 621.137C562.231 626.444 586.83 631.6 611.767 631.736C629.835 631.835 647.845 629.283 665.892 629.595C714.512 630.434 762.632 652.007 810.668 643.955C819.575 642.455 828.424 639.965 837.429 640.434C843.127 641.001 848.746 641.986 854.293 643.387C873.877 647.434 891.246 644.83 911.22 643.663C972.871 639.986 907.814 612.324 893.58 610.804Z" fill="#AA762A"/>
<path d="M954.319 158.163C952.064 148.903 951.382 137.955 949.809 128.559C948.309 119.746 953.074 106.496 954.434 97.6682C957.392 78.3714 952.918 65.6682 955.876 46.3922C956.538 42.111 957.158 37.5953 955.678 33.5328C954.199 29.4651 949.845 26.1214 945.663 27.3453C945.059 32.5016 919.522 10.3818 933.642 55.3193L933.876 72.4755C936.21 91.1891 946.481 107.897 944.496 126.653C943.814 133.09 942.882 139.627 944.012 146.106C945.043 151.939 947.746 157.423 949.397 163.163C956.632 188.314 942.824 214.715 943.678 240.976C943.991 250.45 946.246 259.767 947.085 269.22C947.632 277.033 947.705 284.856 947.298 292.679L945.606 344.887C944.923 366.054 940.043 391.575 939.168 412.642C937.767 446.491 922.772 567.793 926.527 552.564C929.033 542.08 935.22 529.106 939.303 519.377C947.803 499.262 949.126 476.955 950.33 455.184C953.908 390.387 957.491 325.377 952.548 260.658C951.46 246.481 949.96 232.257 951.012 218.08C952.548 198.022 959.085 177.715 954.319 158.163Z" fill="#AA762A"/>
<path d="M971.996 330.397C970.538 292.835 971.762 256.475 969.121 226.736C963.033 248.543 959.762 302.309 959.762 302.309C962.7 326.955 961.944 351.892 961.147 376.715L960.038 412.663C959.356 434.35 958.658 456.059 955.991 477.595C952.668 504.205 946.377 530.095 937.127 555.267C932.575 567.699 927.246 580.048 925.71 593.199C924.174 606.35 926.991 620.824 936.621 629.908C938.392 631.6 940.882 633.158 943.137 632.241C947.028 630.684 945.47 624.887 943.621 621.116C942.064 617.913 940.799 614.595 939.83 611.168C938.856 607.741 938.189 604.257 937.83 600.715C937.47 597.168 937.418 593.621 937.684 590.069C937.95 586.517 938.522 583.017 939.403 579.564C942.903 566.043 951.069 554.121 954.96 540.658C957.205 532.205 958.606 523.616 959.163 514.887C962.325 482.465 965.491 450.043 968.653 417.621C971.752 388.621 972.866 359.548 971.996 330.397Z" fill="#AA762A"/>
<path d="M952.762 598.668C952.715 599.726 952.897 600.741 953.309 601.72C953.829 602.793 952.079 636.736 955.074 639.986C957.428 642.59 968.809 557.408 967.001 530.679C955.465 540.21 952.449 585.168 952.762 598.668Z" fill="#AA762A"/>
<path d="M956.048 114.767C957.429 117.798 959.726 120.366 960.97 123.481C962.132 126.965 962.58 130.538 962.314 134.199C962.137 154.731 960.606 175.163 957.72 195.491C957.257 198.783 956.788 202.303 958.226 205.22C959.668 208.137 966.241 220.043 968.83 217.944C970.147 217.319 966.397 77.2983 965.95 66.4441C962.293 72.5535 961.71 80.4493 959.533 87.1837C956.809 95.9337 951.887 105.585 956.048 114.767Z" fill="#AA762A"/>
<path d="M357.278 23.6889C393.455 21.1993 429.59 16.9597 465.84 17.1941C498.455 17.4076 530.934 21.2358 563.397 24.3868C613.965 29.2722 664.804 32.5014 715.663 32.616C749.366 32.616 783.054 31.3712 816.793 30.0691C842.778 29.0587 869.21 27.9701 893.793 19.4858L747.054 20.2462C706.793 20.4597 666.512 20.6524 626.293 19.293C603.658 18.5326 580.981 17.2514 558.746 13.0118C543.366 10.0535 528.215 5.69409 512.637 4.04305C495.366 2.09513 477.939 3.70971 460.647 5.20971L385.012 11.8035C372.913 12.8555 360.663 13.9441 349.304 18.2045C343.897 20.1472 338.569 22.9701 332.809 23.0066C326.741 23.0066 321.142 20.0691 315.309 18.1837C294.981 11.5326 273.085 18.4545 251.825 20.8503C185.293 28.3555 116.246 -10.1757 51.0954 7.23055C47.8246 8.10555 47.0121 12.0378 47.2048 15.4024C47.3975 18.767 50.4704 20.3243 53.2725 21.2358C71.6527 27.5222 103.392 27.4024 122.705 25.2618C114.674 22.543 99.6006 21.1576 88.1423 19.1003C87.8037 19.0378 87.4808 18.9233 87.1787 18.7514C86.8766 18.5795 86.611 18.366 86.3819 18.1055C86.1527 17.8451 85.9756 17.5535 85.8454 17.2305C85.7152 16.9128 85.6423 16.5743 85.6266 16.2305C85.611 15.8868 85.6527 15.543 85.7516 15.2149C85.8558 14.8816 86.0069 14.5743 86.21 14.293C86.4131 14.0118 86.6579 13.7774 86.9444 13.5795C87.2256 13.3816 87.5381 13.2358 87.8714 13.1472C91.7569 12.6003 95.6423 12.5483 99.5433 12.991C107.163 13.3608 114.741 14.142 122.278 15.3243C141.038 17.918 159.84 20.0847 178.679 21.8191C216.465 25.2149 254.325 26.6993 292.262 26.2774C313.976 26.043 335.653 25.1785 357.278 23.6889Z" fill="#AA762A"/>
<path d="M961.71 12.9128H943.699C936.205 13.8503 928.986 15.8087 922.043 18.7826C915.1 21.7618 908.705 25.6368 902.856 30.4181C898.965 33.6472 895.194 37.3451 890.47 39.1733C886.439 40.4701 882.309 41.0639 878.08 40.9441C861.08 41.4285 815.475 43.142 798.455 43.6264C819.85 50.5899 871.173 54.0326 893.366 50.5118C901.689 49.1733 910.288 46.4076 915.772 40.0118C917.408 37.7618 919.163 35.616 921.043 33.5691C923.809 31.3243 926.903 29.6941 930.319 28.6681C941.444 24.5274 953.288 31.2566 964.47 35.1681L961.71 12.9128Z" fill="#AA762A"/>
<path d="M283.876 6.00656C288.684 5.24615 293.507 5.11073 298.345 5.60031C306.632 6.76698 342.595 6.68885 349.731 2.35031C338.548 -0.587187 301.809 -0.00385314 290.741 0.152396C271.778 0.42323 185.486 1.63156 179.376 3.88677C186.397 12.5795 218.725 10.2461 229.632 10.1316C247.788 9.68365 265.866 8.30865 283.876 6.00656Z" fill="#AA762A"/>
<path d="M92.9225 98C92.5385 98 92.2185 97.872 91.9625 97.616C91.7065 97.36 91.5785 97.0507 91.5785 96.688V78.48L91.9625 78.928L88.3465 81.424C88.1332 81.5733 87.8878 81.648 87.6105 81.648C87.2478 81.648 86.9385 81.52 86.6825 81.264C86.4265 80.9867 86.2985 80.6773 86.2985 80.336C86.2985 79.8667 86.5225 79.4933 86.9705 79.216L92.0585 75.856C92.2292 75.7493 92.3998 75.6747 92.5705 75.632C92.7412 75.5893 92.9118 75.5787 93.0825 75.6C93.4665 75.6 93.7652 75.728 93.9785 75.984C94.2132 76.2187 94.3305 76.5173 94.3305 76.88V96.688C94.3305 97.0507 94.1918 97.36 93.9145 97.616C93.6585 97.872 93.3278 98 92.9225 98ZM100.73 97.968C100.282 97.968 99.9298 97.84 99.6738 97.584C99.4391 97.328 99.3218 96.976 99.3218 96.528V95.888C99.3218 95.4187 99.4391 95.056 99.6738 94.8C99.9298 94.544 100.282 94.416 100.73 94.416H100.986C101.455 94.416 101.807 94.544 102.042 94.8C102.276 95.056 102.394 95.4187 102.394 95.888V96.528C102.394 96.976 102.276 97.328 102.042 97.584C101.807 97.84 101.455 97.968 100.986 97.968H100.73ZM136.918 95.472C137.281 95.472 137.59 95.6 137.846 95.856C138.102 96.0907 138.23 96.3893 138.23 96.752C138.23 97.1147 138.102 97.4133 137.846 97.648C137.59 97.8827 137.281 98 136.918 98H125.846C125.483 98 125.174 97.872 124.918 97.616C124.683 97.36 124.566 97.0507 124.566 96.688V76.88C124.566 76.5173 124.694 76.2187 124.95 75.984C125.206 75.728 125.526 75.6 125.91 75.6C126.273 75.6 126.582 75.728 126.838 75.984C127.094 76.2187 127.222 76.5173 127.222 76.88V96.048L126.582 95.472H136.918ZM155.094 81.296C155.456 81.296 155.755 81.424 155.99 81.68C156.246 81.9147 156.374 82.2133 156.374 82.576V96.688C156.374 97.0507 156.246 97.36 155.99 97.616C155.755 97.872 155.456 98 155.094 98C154.71 98 154.4 97.872 154.166 97.616C153.931 97.36 153.814 97.0507 153.814 96.688V93.648L154.422 93.584C154.422 94.0533 154.262 94.5653 153.942 95.12C153.622 95.6747 153.184 96.1973 152.63 96.688C152.075 97.1573 151.414 97.552 150.646 97.872C149.899 98.1707 149.088 98.32 148.214 98.32C146.763 98.32 145.462 97.9467 144.31 97.2C143.158 96.432 142.24 95.3973 141.558 94.096C140.896 92.7947 140.566 91.312 140.566 89.648C140.566 87.9627 140.896 86.48 141.558 85.2C142.24 83.8987 143.158 82.8853 144.31 82.16C145.462 81.4133 146.742 81.04 148.15 81.04C149.067 81.04 149.92 81.1893 150.71 81.488C151.499 81.7867 152.182 82.192 152.758 82.704C153.355 83.216 153.814 83.7813 154.134 84.4C154.475 85.0187 154.646 85.6373 154.646 86.256L153.814 86.064V82.576C153.814 82.2133 153.931 81.9147 154.166 81.68C154.4 81.424 154.71 81.296 155.094 81.296ZM148.502 95.952C149.568 95.952 150.507 95.6747 151.318 95.12C152.15 94.5653 152.79 93.8187 153.238 92.88C153.707 91.92 153.942 90.8427 153.942 89.648C153.942 88.4747 153.707 87.4187 153.238 86.48C152.79 85.52 152.15 84.7733 151.318 84.24C150.507 83.6853 149.568 83.408 148.502 83.408C147.456 83.408 146.518 83.6747 145.686 84.208C144.875 84.7413 144.235 85.4773 143.766 86.416C143.296 87.3547 143.062 88.432 143.062 89.648C143.062 90.8427 143.286 91.92 143.734 92.88C144.203 93.8187 144.843 94.5653 145.654 95.12C146.486 95.6747 147.435 95.952 148.502 95.952ZM173.502 81.2C173.865 81.2 174.163 81.328 174.398 81.584C174.654 81.8187 174.782 82.1173 174.782 82.48V96.432C174.782 98.224 174.43 99.7067 173.726 100.88C173.022 102.075 172.073 102.96 170.878 103.536C169.705 104.112 168.371 104.4 166.878 104.4C166.046 104.4 165.246 104.315 164.478 104.144C163.71 103.973 163.081 103.749 162.59 103.472C162.185 103.28 161.897 103.035 161.726 102.736C161.577 102.459 161.555 102.16 161.662 101.84C161.811 101.456 162.025 101.189 162.302 101.04C162.601 100.891 162.91 100.891 163.23 101.04C163.571 101.189 164.062 101.392 164.702 101.648C165.363 101.925 166.099 102.064 166.91 102.064C168.019 102.064 168.969 101.851 169.758 101.424C170.547 100.997 171.155 100.368 171.582 99.536C172.009 98.7253 172.222 97.712 172.222 96.496V94.224L172.606 95.024C172.265 95.6853 171.806 96.2613 171.23 96.752C170.654 97.2427 169.993 97.6267 169.246 97.904C168.499 98.1813 167.678 98.32 166.782 98.32C165.566 98.32 164.531 98.064 163.678 97.552C162.846 97.0187 162.206 96.2933 161.758 95.376C161.331 94.4373 161.118 93.36 161.118 92.144V82.48C161.118 82.1173 161.235 81.8187 161.47 81.584C161.726 81.328 162.035 81.2 162.398 81.2C162.782 81.2 163.091 81.328 163.326 81.584C163.561 81.8187 163.678 82.1173 163.678 82.48V91.568C163.678 93.0187 163.998 94.1173 164.638 94.864C165.278 95.5893 166.27 95.952 167.614 95.952C168.467 95.952 169.235 95.76 169.918 95.376C170.622 94.992 171.177 94.4693 171.582 93.808C172.009 93.1253 172.222 92.3787 172.222 91.568V82.48C172.222 82.1173 172.339 81.8187 172.574 81.584C172.809 81.328 173.118 81.2 173.502 81.2ZM193.156 81.296C193.519 81.296 193.818 81.424 194.052 81.68C194.308 81.9147 194.436 82.2133 194.436 82.576V96.688C194.436 97.0507 194.308 97.36 194.052 97.616C193.818 97.872 193.519 98 193.156 98C192.772 98 192.463 97.872 192.228 97.616C191.994 97.36 191.876 97.0507 191.876 96.688V93.648L192.484 93.584C192.484 94.0533 192.324 94.5653 192.004 95.12C191.684 95.6747 191.247 96.1973 190.692 96.688C190.138 97.1573 189.476 97.552 188.708 97.872C187.962 98.1707 187.151 98.32 186.276 98.32C184.826 98.32 183.524 97.9467 182.372 97.2C181.22 96.432 180.303 95.3973 179.62 94.096C178.959 92.7947 178.628 91.312 178.628 89.648C178.628 87.9627 178.959 86.48 179.62 85.2C180.303 83.8987 181.22 82.8853 182.372 82.16C183.524 81.4133 184.804 81.04 186.212 81.04C187.13 81.04 187.983 81.1893 188.772 81.488C189.562 81.7867 190.244 82.192 190.82 82.704C191.418 83.216 191.876 83.7813 192.196 84.4C192.538 85.0187 192.708 85.6373 192.708 86.256L191.876 86.064V82.576C191.876 82.2133 191.994 81.9147 192.228 81.68C192.463 81.424 192.772 81.296 193.156 81.296ZM186.564 95.952C187.631 95.952 188.57 95.6747 189.38 95.12C190.212 94.5653 190.852 93.8187 191.3 92.88C191.77 91.92 192.004 90.8427 192.004 89.648C192.004 88.4747 191.77 87.4187 191.3 86.48C190.852 85.52 190.212 84.7733 189.38 84.24C188.57 83.6853 187.631 83.408 186.564 83.408C185.519 83.408 184.58 83.6747 183.748 84.208C182.938 84.7413 182.298 85.4773 181.828 86.416C181.359 87.3547 181.124 88.432 181.124 89.648C181.124 90.8427 181.348 91.92 181.796 92.88C182.266 93.8187 182.906 94.5653 183.716 95.12C184.548 95.6747 185.498 95.952 186.564 95.952ZM207.405 81.04C208.855 81.04 209.997 81.3387 210.829 81.936C211.661 82.5333 212.247 83.3333 212.589 84.336C212.951 85.3387 213.133 86.4587 213.133 87.696V96.688C213.133 97.0507 213.005 97.36 212.749 97.616C212.514 97.872 212.215 98 211.853 98C211.49 98 211.181 97.872 210.925 97.616C210.69 97.36 210.573 97.0507 210.573 96.688V87.76C210.573 86.9493 210.445 86.224 210.189 85.584C209.954 84.9227 209.549 84.4 208.973 84.016C208.418 83.6107 207.65 83.408 206.669 83.408C205.773 83.408 204.951 83.6107 204.205 84.016C203.458 84.4 202.861 84.9227 202.413 85.584C201.965 86.224 201.741 86.9493 201.741 87.76V96.688C201.741 97.0507 201.613 97.36 201.357 97.616C201.122 97.872 200.823 98 200.461 98C200.098 98 199.789 97.872 199.533 97.616C199.298 97.36 199.181 97.0507 199.181 96.688V82.736C199.181 82.3733 199.298 82.0747 199.533 81.84C199.789 81.584 200.098 81.456 200.461 81.456C200.845 81.456 201.154 81.584 201.389 81.84C201.623 82.0747 201.741 82.3733 201.741 82.736V85.008L201.101 85.712C201.207 85.1573 201.453 84.6027 201.837 84.048C202.221 83.472 202.701 82.96 203.277 82.512C203.853 82.064 204.493 81.712 205.197 81.456C205.901 81.1787 206.637 81.04 207.405 81.04ZM231.5 81.296C231.863 81.296 232.161 81.424 232.396 81.68C232.652 81.9147 232.78 82.2133 232.78 82.576V96.688C232.78 97.0507 232.652 97.36 232.396 97.616C232.161 97.872 231.863 98 231.5 98C231.116 98 230.807 97.872 230.572 97.616C230.337 97.36 230.22 97.0507 230.22 96.688V93.648L230.828 93.584C230.828 94.0533 230.668 94.5653 230.348 95.12C230.028 95.6747 229.591 96.1973 229.036 96.688C228.481 97.1573 227.82 97.552 227.052 97.872C226.305 98.1707 225.495 98.32 224.62 98.32C223.169 98.32 221.868 97.9467 220.716 97.2C219.564 96.432 218.647 95.3973 217.964 94.096C217.303 92.7947 216.972 91.312 216.972 89.648C216.972 87.9627 217.303 86.48 217.964 85.2C218.647 83.8987 219.564 82.8853 220.716 82.16C221.868 81.4133 223.148 81.04 224.556 81.04C225.473 81.04 226.327 81.1893 227.116 81.488C227.905 81.7867 228.588 82.192 229.164 82.704C229.761 83.216 230.22 83.7813 230.54 84.4C230.881 85.0187 231.052 85.6373 231.052 86.256L230.22 86.064V82.576C230.22 82.2133 230.337 81.9147 230.572 81.68C230.807 81.424 231.116 81.296 231.5 81.296ZM224.908 95.952C225.975 95.952 226.913 95.6747 227.724 95.12C228.556 94.5653 229.196 93.8187 229.644 92.88C230.113 91.92 230.348 90.8427 230.348 89.648C230.348 88.4747 230.113 87.4187 229.644 86.48C229.196 85.52 228.556 84.7733 227.724 84.24C226.913 83.6853 225.975 83.408 224.908 83.408C223.863 83.408 222.924 83.6747 222.092 84.208C221.281 84.7413 220.641 85.4773 220.172 86.416C219.703 87.3547 219.468 88.432 219.468 89.648C219.468 90.8427 219.692 91.92 220.14 92.88C220.609 93.8187 221.249 94.5653 222.06 95.12C222.892 95.6747 223.841 95.952 224.908 95.952ZM245.748 81.04C247.199 81.04 248.34 81.3387 249.172 81.936C250.004 82.5333 250.591 83.3333 250.932 84.336C251.295 85.3387 251.476 86.4587 251.476 87.696V96.688C251.476 97.0507 251.348 97.36 251.092 97.616C250.858 97.872 250.559 98 250.196 98C249.834 98 249.524 97.872 249.268 97.616C249.034 97.36 248.916 97.0507 248.916 96.688V87.76C248.916 86.9493 248.788 86.224 248.532 85.584C248.298 84.9227 247.892 84.4 247.316 84.016C246.762 83.6107 245.994 83.408 245.012 83.408C244.116 83.408 243.295 83.6107 242.548 84.016C241.802 84.4 241.204 84.9227 240.756 85.584C240.308 86.224 240.084 86.9493 240.084 87.76V96.688C240.084 97.0507 239.956 97.36 239.7 97.616C239.466 97.872 239.167 98 238.804 98C238.442 98 238.132 97.872 237.876 97.616C237.642 97.36 237.524 97.0507 237.524 96.688V82.736C237.524 82.3733 237.642 82.0747 237.876 81.84C238.132 81.584 238.442 81.456 238.804 81.456C239.188 81.456 239.498 81.584 239.732 81.84C239.967 82.0747 240.084 82.3733 240.084 82.736V85.008L239.444 85.712C239.551 85.1573 239.796 84.6027 240.18 84.048C240.564 83.472 241.044 82.96 241.62 82.512C242.196 82.064 242.836 81.712 243.54 81.456C244.244 81.1787 244.98 81.04 245.748 81.04ZM278.656 74.32C279.019 74.32 279.318 74.448 279.552 74.704C279.808 74.9387 279.936 75.2373 279.936 75.6V96.688C279.936 97.0507 279.808 97.36 279.552 97.616C279.318 97.872 279.019 98 278.656 98C278.272 98 277.963 97.872 277.728 97.616C277.494 97.36 277.376 97.0507 277.376 96.688V93.648L277.984 93.424C277.984 93.936 277.824 94.48 277.504 95.056C277.184 95.6107 276.747 96.1333 276.192 96.624C275.638 97.1147 274.976 97.52 274.208 97.84C273.462 98.16 272.651 98.32 271.776 98.32C270.347 98.32 269.046 97.9467 267.872 97.2C266.72 96.4533 265.803 95.4293 265.12 94.128C264.459 92.8267 264.128 91.344 264.128 89.68C264.128 87.9947 264.459 86.5013 265.12 85.2C265.803 83.8987 266.72 82.8853 267.872 82.16C269.024 81.4133 270.304 81.04 271.712 81.04C272.608 81.04 273.451 81.1893 274.24 81.488C275.03 81.7867 275.712 82.192 276.288 82.704C276.886 83.216 277.355 83.7813 277.696 84.4C278.038 85.0187 278.208 85.6373 278.208 86.256L277.376 86.064V75.6C277.376 75.2373 277.494 74.9387 277.728 74.704C277.963 74.448 278.272 74.32 278.656 74.32ZM272.064 95.952C273.131 95.952 274.07 95.6853 274.88 95.152C275.712 94.5973 276.352 93.8507 276.8 92.912C277.27 91.952 277.504 90.8747 277.504 89.68C277.504 88.464 277.27 87.3867 276.8 86.448C276.352 85.5093 275.712 84.7733 274.88 84.24C274.07 83.6853 273.131 83.408 272.064 83.408C271.019 83.408 270.08 83.6853 269.248 84.24C268.438 84.7733 267.798 85.5093 267.328 86.448C266.859 87.3867 266.624 88.464 266.624 89.68C266.624 90.8533 266.859 91.92 267.328 92.88C267.798 93.8187 268.438 94.5653 269.248 95.12C270.08 95.6747 271.019 95.952 272.064 95.952ZM298.312 81.296C298.675 81.296 298.974 81.424 299.208 81.68C299.465 81.9147 299.593 82.2133 299.593 82.576V96.688C299.593 97.0507 299.465 97.36 299.208 97.616C298.974 97.872 298.675 98 298.312 98C297.929 98 297.619 97.872 297.385 97.616C297.15 97.36 297.033 97.0507 297.033 96.688V93.648L297.641 93.584C297.641 94.0533 297.481 94.5653 297.161 95.12C296.841 95.6747 296.403 96.1973 295.849 96.688C295.294 97.1573 294.633 97.552 293.865 97.872C293.118 98.1707 292.307 98.32 291.433 98.32C289.982 98.32 288.681 97.9467 287.529 97.2C286.377 96.432 285.459 95.3973 284.777 94.096C284.115 92.7947 283.785 91.312 283.785 89.648C283.785 87.9627 284.115 86.48 284.777 85.2C285.459 83.8987 286.377 82.8853 287.529 82.16C288.681 81.4133 289.961 81.04 291.369 81.04C292.286 81.04 293.139 81.1893 293.929 81.488C294.718 81.7867 295.401 82.192 295.977 82.704C296.574 83.216 297.033 83.7813 297.353 84.4C297.694 85.0187 297.865 85.6373 297.865 86.256L297.033 86.064V82.576C297.033 82.2133 297.15 81.9147 297.385 81.68C297.619 81.424 297.929 81.296 298.312 81.296ZM291.72 95.952C292.787 95.952 293.726 95.6747 294.537 95.12C295.369 94.5653 296.009 93.8187 296.457 92.88C296.926 91.92 297.161 90.8427 297.161 89.648C297.161 88.4747 296.926 87.4187 296.457 86.48C296.009 85.52 295.369 84.7733 294.537 84.24C293.726 83.6853 292.787 83.408 291.72 83.408C290.675 83.408 289.737 83.6747 288.905 84.208C288.094 84.7413 287.454 85.4773 286.985 86.416C286.515 87.3547 286.281 88.432 286.281 89.648C286.281 90.8427 286.505 91.92 286.953 92.88C287.422 93.8187 288.062 94.5653 288.873 95.12C289.705 95.6747 290.654 95.952 291.72 95.952ZM305.617 98C305.254 98 304.945 97.872 304.689 97.616C304.454 97.36 304.337 97.0507 304.337 96.688V82.736C304.337 82.3733 304.454 82.0747 304.689 81.84C304.945 81.584 305.254 81.456 305.617 81.456C306.001 81.456 306.31 81.584 306.545 81.84C306.779 82.0747 306.897 82.3733 306.897 82.736V86.96L306.513 86.288C306.641 85.6267 306.865 84.9867 307.185 84.368C307.526 83.728 307.953 83.1627 308.465 82.672C308.977 82.16 309.563 81.7653 310.225 81.488C310.886 81.1893 311.611 81.04 312.401 81.04C312.87 81.04 313.297 81.1573 313.681 81.392C314.086 81.6053 314.289 81.9147 314.289 82.32C314.289 82.768 314.171 83.0987 313.937 83.312C313.702 83.5253 313.435 83.632 313.137 83.632C312.859 83.632 312.593 83.5787 312.337 83.472C312.081 83.344 311.761 83.28 311.377 83.28C310.843 83.28 310.31 83.4293 309.777 83.728C309.265 84.0053 308.785 84.4107 308.337 84.944C307.91 85.4773 307.558 86.0853 307.281 86.768C307.025 87.4293 306.897 88.144 306.897 88.912V96.688C306.897 97.0507 306.769 97.36 306.513 97.616C306.278 97.872 305.979 98 305.617 98ZM319.645 96.688C319.645 97.0507 319.517 97.36 319.261 97.616C319.026 97.872 318.727 98 318.365 98C317.981 98 317.671 97.872 317.437 97.616C317.202 97.36 317.085 97.0507 317.085 96.688V82.48C317.085 82.1173 317.202 81.8187 317.437 81.584C317.693 81.328 318.002 81.2 318.365 81.2C318.727 81.2 319.026 81.328 319.261 81.584C319.517 81.8187 319.645 82.1173 319.645 82.48V96.688ZM318.365 79.056C317.831 79.056 317.437 78.9493 317.181 78.736C316.925 78.5227 316.797 78.192 316.797 77.744V77.296C316.797 76.848 316.935 76.5173 317.213 76.304C317.49 76.0907 317.885 75.984 318.397 75.984C318.909 75.984 319.293 76.0907 319.549 76.304C319.805 76.5173 319.933 76.848 319.933 77.296V77.744C319.933 78.192 319.794 78.5227 319.516 78.736C319.261 78.9493 318.877 79.056 318.365 79.056ZM340 81.04C340.917 81.04 341.77 81.2 342.56 81.52C343.349 81.8187 344.032 82.2133 344.608 82.704C345.205 83.1947 345.664 83.7067 345.984 84.24C346.325 84.7733 346.496 85.2747 346.496 85.744L345.888 85.36V82.576C345.888 82.2133 346.005 81.9147 346.24 81.68C346.474 81.424 346.784 81.296 347.168 81.296C347.53 81.296 347.829 81.424 348.064 81.68C348.32 81.9147 348.448 82.2133 348.448 82.576V96.592C348.448 98.3413 348.074 99.792 347.328 100.944C346.602 102.096 345.621 102.96 344.384 103.536C343.146 104.112 341.76 104.4 340.224 104.4C339.584 104.4 338.88 104.315 338.112 104.144C337.344 103.973 336.661 103.76 336.064 103.504C335.466 103.269 335.082 103.024 334.911 102.768C334.592 102.555 334.389 102.309 334.304 102.032C334.24 101.776 334.293 101.531 334.464 101.296C334.656 100.997 334.901 100.848 335.2 100.848C335.52 100.848 335.914 100.944 336.384 101.136C336.576 101.2 336.874 101.307 337.28 101.456C337.706 101.605 338.176 101.733 338.688 101.84C339.221 101.968 339.744 102.032 340.256 102.032C342.069 102.032 343.456 101.552 344.416 100.592C345.397 99.6533 345.888 98.4053 345.888 96.848V93.872L346.24 94.032C346.112 94.6293 345.845 95.184 345.44 95.696C345.056 96.208 344.576 96.6667 344 97.072C343.445 97.456 342.826 97.7653 342.144 98C341.461 98.2133 340.768 98.32 340.064 98.32C338.57 98.32 337.226 97.9467 336.032 97.2C334.837 96.4533 333.888 95.4293 333.184 94.128C332.501 92.8267 332.16 91.344 332.16 89.68C332.16 87.9947 332.501 86.5013 333.184 85.2C333.888 83.8987 334.826 82.8853 336 82.16C337.194 81.4133 338.528 81.04 340 81.04ZM340.32 83.408C339.232 83.408 338.25 83.6853 337.376 84.24C336.522 84.7733 335.85 85.5093 335.36 86.448C334.89 87.3867 334.656 88.464 334.656 89.68C334.656 90.8533 334.89 91.92 335.36 92.88C335.85 93.8187 336.522 94.5653 337.376 95.12C338.25 95.6747 339.232 95.952 340.32 95.952C341.429 95.952 342.41 95.6853 343.264 95.152C344.117 94.5973 344.789 93.8507 345.28 92.912C345.77 91.9733 346.016 90.896 346.016 89.68C346.016 88.4427 345.77 87.3547 345.28 86.416C344.789 85.4773 344.117 84.7413 343.264 84.208C342.41 83.6747 341.429 83.408 340.32 83.408ZM365.315 81.456C365.699 81.456 366.008 81.584 366.243 81.84C366.477 82.0747 366.595 82.3733 366.595 82.736V91.472C366.595 93.6267 365.987 95.3013 364.771 96.496C363.576 97.6693 361.901 98.256 359.747 98.256C357.613 98.256 355.939 97.6693 354.723 96.496C353.528 95.3013 352.931 93.6267 352.931 91.472V82.736C352.931 82.3733 353.048 82.0747 353.283 81.84C353.539 81.584 353.848 81.456 354.211 81.456C354.595 81.456 354.904 81.584 355.139 81.84C355.373 82.0747 355.491 82.3733 355.491 82.736V91.472C355.491 92.9227 355.864 94.0213 356.611 94.768C357.357 95.5147 358.403 95.888 359.747 95.888C361.133 95.888 362.189 95.5147 362.915 94.768C363.661 94.0213 364.035 92.9227 364.035 91.472V82.736C364.035 82.3733 364.152 82.0747 364.387 81.84C364.643 81.584 364.952 81.456 365.315 81.456ZM372.617 98C372.254 98 371.945 97.872 371.689 97.616C371.454 97.36 371.337 97.0507 371.337 96.688V82.736C371.337 82.3733 371.454 82.0747 371.689 81.84C371.945 81.584 372.254 81.456 372.617 81.456C373.001 81.456 373.31 81.584 373.545 81.84C373.779 82.0747 373.897 82.3733 373.897 82.736V86.96L373.513 86.288C373.641 85.6267 373.865 84.9867 374.185 84.368C374.526 83.728 374.953 83.1627 375.465 82.672C375.977 82.16 376.563 81.7653 377.225 81.488C377.886 81.1893 378.611 81.04 379.401 81.04C379.87 81.04 380.297 81.1573 380.681 81.392C381.086 81.6053 381.289 81.9147 381.289 82.32C381.289 82.768 381.171 83.0987 380.937 83.312C380.702 83.5253 380.435 83.632 380.137 83.632C379.859 83.632 379.593 83.5787 379.337 83.472C379.081 83.344 378.761 83.28 378.377 83.28C377.843 83.28 377.31 83.4293 376.777 83.728C376.265 84.0053 375.785 84.4107 375.337 84.944C374.91 85.4773 374.558 86.0853 374.281 86.768C374.025 87.4293 373.897 88.144 373.897 88.912V96.688C373.897 97.0507 373.769 97.36 373.513 97.616C373.278 97.872 372.979 98 372.617 98ZM396.565 81.456C396.949 81.456 397.258 81.584 397.493 81.84C397.727 82.0747 397.845 82.3733 397.845 82.736V91.472C397.845 93.6267 397.237 95.3013 396.021 96.496C394.826 97.6693 393.151 98.256 390.997 98.256C388.863 98.256 387.189 97.6693 385.973 96.496C384.778 95.3013 384.181 93.6267 384.181 91.472V82.736C384.181 82.3733 384.298 82.0747 384.533 81.84C384.789 81.584 385.098 81.456 385.461 81.456C385.845 81.456 386.154 81.584 386.389 81.84C386.623 82.0747 386.741 82.3733 386.741 82.736V91.472C386.741 92.9227 387.114 94.0213 387.861 94.768C388.607 95.5147 389.653 95.888 390.997 95.888C392.383 95.888 393.439 95.5147 394.165 94.768C394.911 94.0213 395.285 92.9227 395.285 91.472V82.736C395.285 82.3733 395.402 82.0747 395.637 81.84C395.893 81.584 396.202 81.456 396.565 81.456ZM421.479 75.6C423.357 75.6 424.797 76.0907 425.799 77.072C426.823 78.032 427.335 79.3973 427.335 81.168C427.335 82.1067 427.122 82.9707 426.695 83.76C426.269 84.5493 425.639 85.1787 424.807 85.648C423.997 86.1173 422.994 86.3733 421.799 86.416L421.735 85.52C422.482 85.52 423.25 85.6267 424.039 85.84C424.829 86.0533 425.554 86.3947 426.215 86.864C426.898 87.3333 427.442 87.952 427.847 88.72C428.274 89.488 428.487 90.4373 428.487 91.568C428.487 92.784 428.285 93.808 427.879 94.64C427.474 95.4507 426.93 96.112 426.247 96.624C425.586 97.1147 424.839 97.4667 424.007 97.68C423.197 97.8933 422.375 98 421.543 98H413.127C412.765 98 412.455 97.872 412.199 97.616C411.965 97.36 411.847 97.0507 411.847 96.688V76.88C411.847 76.5173 411.965 76.2187 412.199 75.984C412.455 75.728 412.765 75.6 413.127 75.6H421.479ZM421.095 78.128H414.215L414.599 77.552V85.52L414.247 85.104H421.159C422.098 85.104 422.898 84.8053 423.559 84.208C424.242 83.5893 424.583 82.6827 424.583 81.488C424.583 80.4213 424.274 79.6 423.655 79.024C423.037 78.4267 422.183 78.128 421.095 78.128ZM421.351 87.664H414.375L414.599 87.44V95.792L414.343 95.504H421.447C422.706 95.504 423.73 95.184 424.519 94.544C425.33 93.904 425.735 92.912 425.735 91.568C425.735 90.5227 425.522 89.7227 425.095 89.168C424.669 88.592 424.114 88.1973 423.431 87.984C422.77 87.7707 422.077 87.664 421.351 87.664ZM448.562 98.064C448.178 98.064 447.858 97.904 447.602 97.584L439.09 86.736L441.042 84.752L449.714 95.856C449.906 96.1333 450.002 96.4213 450.002 96.72C450.002 97.1467 449.842 97.4773 449.522 97.712C449.223 97.9467 448.903 98.064 448.562 98.064ZM448.466 75.568C448.807 75.568 449.084 75.7067 449.298 75.984C449.532 76.2613 449.65 76.5493 449.65 76.848C449.65 77.1467 449.522 77.424 449.266 77.68L435.122 91.056L434.898 88.08L447.442 76.048C447.762 75.728 448.103 75.568 448.466 75.568ZM434.066 98C433.66 98 433.34 97.872 433.106 97.616C432.871 97.36 432.754 97.0507 432.754 96.688V76.912C432.754 76.528 432.882 76.2187 433.138 75.984C433.394 75.728 433.714 75.6 434.098 75.6C434.503 75.6 434.823 75.728 435.058 75.984C435.292 76.2187 435.41 76.528 435.41 76.912V96.688C435.41 97.0507 435.282 97.36 435.026 97.616C434.791 97.872 434.471 98 434.066 98ZM474.908 81.456C475.292 81.456 475.602 81.584 475.836 81.84C476.071 82.0747 476.188 82.3733 476.188 82.736V91.472C476.188 93.6267 475.58 95.3013 474.364 96.496C473.17 97.6693 471.495 98.256 469.34 98.256C467.207 98.256 465.532 97.6693 464.316 96.496C463.122 95.3013 462.524 93.6267 462.524 91.472V82.736C462.524 82.3733 462.642 82.0747 462.876 81.84C463.132 81.584 463.442 81.456 463.804 81.456C464.188 81.456 464.498 81.584 464.732 81.84C464.967 82.0747 465.084 82.3733 465.084 82.736V91.472C465.084 92.9227 465.458 94.0213 466.204 94.768C466.951 95.5147 467.996 95.888 469.34 95.888C470.727 95.888 471.783 95.5147 472.508 94.768C473.255 94.0213 473.628 92.9227 473.628 91.472V82.736C473.628 82.3733 473.746 82.0747 473.98 81.84C474.236 81.584 474.546 81.456 474.908 81.456ZM489.155 81.04C490.605 81.04 491.747 81.3387 492.579 81.936C493.411 82.5333 493.997 83.3333 494.339 84.336C494.701 85.3387 494.883 86.4587 494.883 87.696V96.688C494.883 97.0507 494.755 97.36 494.499 97.616C494.264 97.872 493.965 98 493.603 98C493.24 98 492.931 97.872 492.675 97.616C492.44 97.36 492.323 97.0507 492.323 96.688V87.76C492.323 86.9493 492.195 86.224 491.939 85.584C491.704 84.9227 491.299 84.4 490.723 84.016C490.168 83.6107 489.4 83.408 488.419 83.408C487.523 83.408 486.701 83.6107 485.955 84.016C485.208 84.4 484.611 84.9227 484.163 85.584C483.715 86.224 483.491 86.9493 483.491 87.76V96.688C483.491 97.0507 483.363 97.36 483.107 97.616C482.872 97.872 482.573 98 482.211 98C481.848 98 481.539 97.872 481.283 97.616C481.048 97.36 480.931 97.0507 480.931 96.688V82.736C480.931 82.3733 481.048 82.0747 481.283 81.84C481.539 81.584 481.848 81.456 482.211 81.456C482.595 81.456 482.904 81.584 483.139 81.84C483.373 82.0747 483.491 82.3733 483.491 82.736V85.008L482.851 85.712C482.957 85.1573 483.203 84.6027 483.587 84.048C483.971 83.472 484.451 82.96 485.027 82.512C485.603 82.064 486.243 81.712 486.947 81.456C487.651 81.1787 488.387 81.04 489.155 81.04ZM498.978 81.552H506.498C506.839 81.552 507.117 81.6693 507.33 81.904C507.565 82.1387 507.682 82.416 507.682 82.736C507.682 83.0773 507.565 83.3653 507.33 83.6C507.117 83.8133 506.839 83.92 506.498 83.92H498.978C498.658 83.92 498.381 83.8027 498.146 83.568C497.911 83.3333 497.794 83.0453 497.794 82.704C497.794 82.384 497.911 82.1173 498.146 81.904C498.381 81.6693 498.658 81.552 498.978 81.552ZM502.338 77.2C502.701 77.2 502.999 77.328 503.234 77.584C503.469 77.8187 503.586 78.1173 503.586 78.48V93.936C503.586 94.448 503.661 94.832 503.81 95.088C503.959 95.344 504.151 95.5253 504.386 95.632C504.642 95.7173 504.887 95.76 505.122 95.76C505.335 95.76 505.517 95.728 505.666 95.664C505.837 95.5787 506.029 95.536 506.242 95.536C506.455 95.536 506.647 95.6427 506.818 95.856C507.01 96.048 507.106 96.304 507.106 96.624C507.106 97.008 506.882 97.3387 506.434 97.616C505.986 97.872 505.485 98 504.93 98C504.631 98 504.258 97.9787 503.81 97.936C503.383 97.8933 502.957 97.7547 502.53 97.52C502.103 97.2853 501.741 96.9013 501.442 96.368C501.165 95.8133 501.026 95.0453 501.026 94.064V78.48C501.026 78.1173 501.154 77.8187 501.41 77.584C501.666 77.328 501.975 77.2 502.338 77.2ZM523.627 81.456C524.011 81.456 524.32 81.584 524.555 81.84C524.79 82.0747 524.907 82.3733 524.907 82.736V91.472C524.907 93.6267 524.299 95.3013 523.083 96.496C521.888 97.6693 520.214 98.256 518.059 98.256C515.926 98.256 514.251 97.6693 513.035 96.496C511.84 95.3013 511.243 93.6267 511.243 91.472V82.736C511.243 82.3733 511.36 82.0747 511.595 81.84C511.851 81.584 512.16 81.456 512.523 81.456C512.907 81.456 513.216 81.584 513.451 81.84C513.686 82.0747 513.803 82.3733 513.803 82.736V91.472C513.803 92.9227 514.176 94.0213 514.923 94.768C515.67 95.5147 516.715 95.888 518.059 95.888C519.446 95.888 520.502 95.5147 521.227 94.768C521.974 94.0213 522.347 92.9227 522.347 91.472V82.736C522.347 82.3733 522.464 82.0747 522.699 81.84C522.955 81.584 523.264 81.456 523.627 81.456ZM531.185 98C530.801 98 530.492 97.872 530.257 97.616C530.023 97.36 529.905 97.0507 529.905 96.688V75.6C529.905 75.2373 530.023 74.9387 530.257 74.704C530.492 74.448 530.801 74.32 531.185 74.32C531.548 74.32 531.847 74.448 532.081 74.704C532.337 74.9387 532.465 75.2373 532.465 75.6V96.688C532.465 97.0507 532.337 97.36 532.081 97.616C531.847 97.872 531.548 98 531.185 98ZM541.809 81.36C542.151 81.36 542.439 81.4987 542.673 81.776C542.929 82.032 543.057 82.2987 543.057 82.576C543.057 82.9387 542.887 83.2587 542.545 83.536L532.177 92.592L532.081 89.616L540.913 81.744C541.169 81.488 541.468 81.36 541.809 81.36ZM542.161 97.968C541.799 97.968 541.479 97.8293 541.201 97.552L534.385 90.288L536.305 88.528L543.057 95.76C543.313 96.0373 543.441 96.3573 543.441 96.72C543.441 97.104 543.292 97.4133 542.993 97.648C542.695 97.8613 542.417 97.968 542.161 97.968ZM557.498 98C557.114 98 556.804 97.872 556.57 97.616C556.335 97.36 556.218 97.0507 556.218 96.688V75.6C556.218 75.2373 556.335 74.9387 556.57 74.704C556.804 74.448 557.114 74.32 557.498 74.32C557.86 74.32 558.159 74.448 558.394 74.704C558.65 74.9387 558.778 75.2373 558.778 75.6V96.688C558.778 97.0507 558.65 97.36 558.394 97.616C558.159 97.872 557.86 98 557.498 98ZM568.122 81.36C568.463 81.36 568.751 81.4987 568.986 81.776C569.242 82.032 569.37 82.2987 569.37 82.576C569.37 82.9387 569.199 83.2587 568.858 83.536L558.49 92.592L558.394 89.616L567.226 81.744C567.482 81.488 567.78 81.36 568.122 81.36ZM568.474 97.968C568.111 97.968 567.791 97.8293 567.514 97.552L560.698 90.288L562.618 88.528L569.37 95.76C569.626 96.0373 569.754 96.3573 569.754 96.72C569.754 97.104 569.604 97.4133 569.306 97.648C569.007 97.8613 568.73 97.968 568.474 97.968ZM588.455 89.68C588.455 91.344 588.082 92.8267 587.335 94.128C586.61 95.4293 585.618 96.4533 584.359 97.2C583.122 97.9467 581.724 98.32 580.167 98.32C578.61 98.32 577.202 97.9467 575.943 97.2C574.684 96.4533 573.682 95.4293 572.935 94.128C572.21 92.8267 571.847 91.344 571.847 89.68C571.847 88.016 572.21 86.5333 572.935 85.232C573.682 83.9307 574.684 82.9067 575.943 82.16C577.202 81.4133 578.61 81.04 580.167 81.04C581.724 81.04 583.122 81.4133 584.359 82.16C585.618 82.9067 586.61 83.9307 587.335 85.232C588.082 86.5333 588.455 88.016 588.455 89.68ZM585.895 89.68C585.895 88.4427 585.639 87.3547 585.127 86.416C584.636 85.4773 583.954 84.7413 583.079 84.208C582.226 83.6747 581.255 83.408 580.167 83.408C579.079 83.408 578.098 83.6747 577.223 84.208C576.37 84.7413 575.687 85.4773 575.175 86.416C574.663 87.3547 574.407 88.4427 574.407 89.68C574.407 90.896 574.663 91.9733 575.175 92.912C575.687 93.8507 576.37 94.5973 577.223 95.152C578.098 95.6853 579.079 95.952 580.167 95.952C581.255 95.952 582.226 95.6853 583.079 95.152C583.954 94.5973 584.636 93.8507 585.127 92.912C585.639 91.9733 585.895 90.896 585.895 89.68ZM593.586 98C593.223 98 592.914 97.872 592.658 97.616C592.423 97.36 592.306 97.0507 592.306 96.688V82.736C592.306 82.3733 592.423 82.0747 592.658 81.84C592.914 81.584 593.223 81.456 593.586 81.456C593.97 81.456 594.279 81.584 594.514 81.84C594.748 82.0747 594.866 82.3733 594.866 82.736V86.96L594.482 86.288C594.61 85.6267 594.834 84.9867 595.154 84.368C595.495 83.728 595.922 83.1627 596.434 82.672C596.946 82.16 597.532 81.7653 598.194 81.488C598.855 81.1893 599.58 81.04 600.37 81.04C600.839 81.04 601.266 81.1573 601.65 81.392C602.055 81.6053 602.258 81.9147 602.258 82.32C602.258 82.768 602.14 83.0987 601.906 83.312C601.671 83.5253 601.404 83.632 601.106 83.632C600.828 83.632 600.562 83.5787 600.306 83.472C600.05 83.344 599.73 83.28 599.345 83.28C598.812 83.28 598.279 83.4293 597.746 83.728C597.234 84.0053 596.754 84.4107 596.306 84.944C595.879 85.4773 595.527 86.0853 595.25 86.768C594.994 87.4293 594.866 88.144 594.866 88.912V96.688C594.866 97.0507 594.738 97.36 594.482 97.616C594.247 97.872 593.948 98 593.586 98ZM613.309 81.04C614.76 81.04 616.061 81.4133 617.213 82.16C618.365 82.8853 619.272 83.888 619.933 85.168C620.616 86.448 620.957 87.9307 620.957 89.616C620.957 91.3013 620.616 92.7947 619.933 94.096C619.272 95.3973 618.365 96.432 617.213 97.2C616.083 97.9467 614.803 98.32 613.373 98.32C612.584 98.32 611.837 98.2027 611.133 97.968C610.451 97.712 609.821 97.3813 609.245 96.976C608.691 96.5493 608.221 96.0907 607.837 95.6C607.453 95.088 607.176 94.5867 607.005 94.096L607.709 93.648V96.848C607.709 97.2107 607.592 97.52 607.357 97.776C607.123 98.032 606.813 98.16 606.429 98.16C606.067 98.16 605.757 98.0427 605.501 97.808C605.267 97.552 605.149 97.232 605.149 96.848V75.632C605.149 75.2693 605.267 74.96 605.501 74.704C605.757 74.448 606.067 74.32 606.429 74.32C606.813 74.32 607.123 74.448 607.357 74.704C607.592 74.96 607.709 75.2693 607.709 75.632V85.488L607.229 85.232C607.379 84.6987 607.635 84.1867 607.997 83.696C608.381 83.184 608.84 82.736 609.373 82.352C609.928 81.9467 610.536 81.6267 611.197 81.392C611.88 81.1573 612.584 81.04 613.309 81.04ZM613.021 83.408C611.955 83.408 611.005 83.6747 610.173 84.208C609.363 84.7413 608.723 85.4773 608.253 86.416C607.805 87.3547 607.581 88.4213 607.581 89.616C607.581 90.8107 607.805 91.888 608.253 92.848C608.723 93.808 609.363 94.5653 610.173 95.12C611.005 95.6747 611.955 95.952 613.021 95.952C614.088 95.952 615.027 95.6747 615.837 95.12C616.648 94.5653 617.288 93.808 617.757 92.848C618.227 91.888 618.461 90.8107 618.461 89.616C618.461 88.4213 618.227 87.3547 617.757 86.416C617.288 85.4773 616.648 84.7413 615.837 84.208C615.027 83.6747 614.088 83.408 613.021 83.408ZM638.438 81.296C638.8 81.296 639.099 81.424 639.333 81.68C639.59 81.9147 639.718 82.2133 639.718 82.576V96.688C639.718 97.0507 639.59 97.36 639.333 97.616C639.099 97.872 638.8 98 638.438 98C638.054 98 637.744 97.872 637.51 97.616C637.275 97.36 637.158 97.0507 637.158 96.688V93.648L637.766 93.584C637.766 94.0533 637.606 94.5653 637.286 95.12C636.966 95.6747 636.528 96.1973 635.974 96.688C635.419 97.1573 634.758 97.552 633.99 97.872C633.243 98.1707 632.432 98.32 631.558 98.32C630.107 98.32 628.806 97.9467 627.654 97.2C626.502 96.432 625.584 95.3973 624.902 94.096C624.24 92.7947 623.91 91.312 623.91 89.648C623.91 87.9627 624.24 86.48 624.902 85.2C625.584 83.8987 626.502 82.8853 627.654 82.16C628.806 81.4133 630.086 81.04 631.494 81.04C632.411 81.04 633.264 81.1893 634.054 81.488C634.843 81.7867 635.526 82.192 636.102 82.704C636.699 83.216 637.158 83.7813 637.478 84.4C637.819 85.0187 637.99 85.6373 637.99 86.256L637.158 86.064V82.576C637.158 82.2133 637.275 81.9147 637.51 81.68C637.744 81.424 638.054 81.296 638.438 81.296ZM631.845 95.952C632.912 95.952 633.851 95.6747 634.662 95.12C635.494 94.5653 636.134 93.8187 636.582 92.88C637.051 91.92 637.286 90.8427 637.286 89.648C637.286 88.4747 637.051 87.4187 636.582 86.48C636.134 85.52 635.494 84.7733 634.662 84.24C633.851 83.6853 632.912 83.408 631.845 83.408C630.8 83.408 629.862 83.6747 629.03 84.208C628.219 84.7413 627.579 85.4773 627.11 86.416C626.64 87.3547 626.406 88.432 626.406 89.648C626.406 90.8427 626.63 91.92 627.078 92.88C627.547 93.8187 628.187 94.5653 628.998 95.12C629.83 95.6747 630.779 95.952 631.845 95.952ZM652.686 81.04C654.136 81.04 655.278 81.3387 656.11 81.936C656.942 82.5333 657.528 83.3333 657.87 84.336C658.232 85.3387 658.414 86.4587 658.414 87.696V96.688C658.414 97.0507 658.286 97.36 658.03 97.616C657.795 97.872 657.496 98 657.134 98C656.771 98 656.462 97.872 656.206 97.616C655.971 97.36 655.854 97.0507 655.854 96.688V87.76C655.854 86.9493 655.726 86.224 655.47 85.584C655.235 84.9227 654.83 84.4 654.254 84.016C653.699 83.6107 652.931 83.408 651.95 83.408C651.054 83.408 650.232 83.6107 649.486 84.016C648.739 84.4 648.142 84.9227 647.694 85.584C647.246 86.224 647.022 86.9493 647.022 87.76V96.688C647.022 97.0507 646.894 97.36 646.638 97.616C646.403 97.872 646.104 98 645.742 98C645.379 98 645.07 97.872 644.814 97.616C644.579 97.36 644.462 97.0507 644.462 96.688V82.736C644.462 82.3733 644.579 82.0747 644.814 81.84C645.07 81.584 645.379 81.456 645.742 81.456C646.126 81.456 646.435 81.584 646.67 81.84C646.904 82.0747 647.022 82.3733 647.022 82.736V85.008L646.382 85.712C646.488 85.1573 646.734 84.6027 647.118 84.048C647.502 83.472 647.982 82.96 648.558 82.512C649.134 82.064 649.774 81.712 650.478 81.456C651.182 81.1787 651.918 81.04 652.686 81.04ZM662.445 102.192C662.168 102.192 661.901 102.075 661.645 101.84C661.411 101.627 661.293 101.36 661.293 101.04C661.293 100.848 661.336 100.656 661.421 100.464L675.053 73.232C675.203 72.9333 675.373 72.72 675.565 72.592C675.757 72.464 675.971 72.4 676.205 72.4C676.461 72.4 676.707 72.5067 676.941 72.72C677.197 72.912 677.325 73.1787 677.325 73.52C677.325 73.7333 677.272 73.9467 677.165 74.16L663.565 101.392C663.437 101.669 663.277 101.872 663.085 102C662.893 102.128 662.68 102.192 662.445 102.192ZM688.528 81.2C689.979 81.2 691.28 81.5627 692.432 82.288C693.584 83.0133 694.491 84.016 695.152 85.296C695.835 86.576 696.176 88.048 696.176 89.712C696.176 91.3547 695.835 92.8267 695.152 94.128C694.491 95.408 693.584 96.4213 692.432 97.168C691.301 97.8933 690.021 98.256 688.592 98.256C687.803 98.256 687.056 98.1387 686.352 97.904C685.669 97.648 685.04 97.328 684.464 96.944C683.909 96.5387 683.44 96.0907 683.056 95.6C682.672 95.088 682.395 94.5867 682.224 94.096L682.928 93.648V103.088C682.928 103.451 682.811 103.76 682.576 104.016C682.341 104.272 682.032 104.4 681.648 104.4C681.285 104.4 680.976 104.272 680.72 104.016C680.485 103.781 680.368 103.472 680.368 103.088V82.64C680.368 82.2773 680.485 81.9787 680.72 81.744C680.976 81.488 681.285 81.36 681.648 81.36C682.032 81.36 682.341 81.488 682.576 81.744C682.811 81.9787 682.928 82.2773 682.928 82.64V85.488L682.448 85.232C682.597 84.6987 682.853 84.1867 683.216 83.696C683.6 83.2053 684.059 82.7787 684.592 82.416C685.147 82.032 685.755 81.7333 686.416 81.52C687.099 81.3067 687.803 81.2 688.528 81.2ZM688.24 83.568C687.173 83.568 686.224 83.8347 685.392 84.368C684.581 84.9013 683.941 85.6267 683.472 86.544C683.024 87.4613 682.8 88.5173 682.8 89.712C682.8 90.8853 683.024 91.9413 683.472 92.88C683.941 93.8187 684.581 94.5547 685.392 95.088C686.224 95.6213 687.173 95.888 688.24 95.888C689.307 95.888 690.245 95.6213 691.056 95.088C691.867 94.5547 692.507 93.8187 692.976 92.88C693.445 91.9413 693.68 90.8853 693.68 89.712C693.68 88.5173 693.445 87.4613 692.976 86.544C692.507 85.6267 691.867 84.9013 691.056 84.368C690.245 83.8347 689.307 83.568 688.24 83.568ZM707.672 98.32C705.966 98.32 704.472 97.9573 703.192 97.232C701.912 96.5067 700.91 95.5147 700.184 94.256C699.48 92.976 699.128 91.504 699.128 89.84C699.128 87.984 699.491 86.4053 700.216 85.104C700.963 83.7813 701.923 82.7787 703.096 82.096C704.291 81.392 705.55 81.04 706.872 81.04C707.854 81.04 708.803 81.2213 709.72 81.584C710.638 81.9467 711.448 82.48 712.152 83.184C712.856 83.8667 713.422 84.6987 713.848 85.68C714.275 86.64 714.499 87.7173 714.52 88.912C714.52 89.2533 714.392 89.5413 714.136 89.776C713.88 90.0107 713.582 90.128 713.24 90.128H700.6L700.024 87.92H712.344L711.832 88.368V87.664C711.747 86.7893 711.448 86.0427 710.936 85.424C710.446 84.784 709.838 84.2933 709.112 83.952C708.408 83.6107 707.662 83.44 706.872 83.44C706.232 83.44 705.592 83.5573 704.952 83.792C704.334 84.0053 703.768 84.368 703.256 84.88C702.766 85.3707 702.36 86.0107 702.04 86.8C701.742 87.5893 701.592 88.5387 701.592 89.648C701.592 90.8853 701.838 91.9733 702.328 92.912C702.84 93.8507 703.544 94.5973 704.44 95.152C705.336 95.6853 706.382 95.952 707.576 95.952C708.323 95.952 708.974 95.856 709.528 95.664C710.083 95.472 710.563 95.2373 710.968 94.96C711.374 94.6613 711.715 94.3627 711.992 94.064C712.27 93.872 712.536 93.776 712.792 93.776C713.112 93.776 713.368 93.8827 713.56 94.096C713.774 94.3093 713.88 94.5653 713.88 94.864C713.88 95.2267 713.71 95.5467 713.368 95.824C712.771 96.4853 711.96 97.072 710.936 97.584C709.912 98.0747 708.824 98.32 707.672 98.32ZM721.184 96.688C721.184 97.0507 721.056 97.36 720.8 97.616C720.544 97.872 720.235 98 719.872 98C719.509 98 719.211 97.872 718.976 97.616C718.741 97.36 718.624 97.0507 718.624 96.688V75.6C718.624 75.2373 718.741 74.9387 718.976 74.704C719.232 74.448 719.541 74.32 719.904 74.32C720.288 74.32 720.597 74.448 720.832 74.704C721.067 74.9387 721.184 75.2373 721.184 75.6V96.688ZM739.781 81.296C740.144 81.296 740.443 81.424 740.677 81.68C740.933 81.9147 741.061 82.2133 741.061 82.576V96.688C741.061 97.0507 740.933 97.36 740.677 97.616C740.443 97.872 740.144 98 739.781 98C739.397 98 739.088 97.872 738.853 97.616C738.619 97.36 738.501 97.0507 738.501 96.688V93.648L739.109 93.584C739.109 94.0533 738.949 94.5653 738.629 95.12C738.309 95.6747 737.872 96.1973 737.317 96.688C736.763 97.1573 736.101 97.552 735.333 97.872C734.587 98.1707 733.776 98.32 732.901 98.32C731.451 98.32 730.149 97.9467 728.997 97.2C727.845 96.432 726.928 95.3973 726.245 94.096C725.584 92.7947 725.253 91.312 725.253 89.648C725.253 87.9627 725.584 86.48 726.245 85.2C726.928 83.8987 727.845 82.8853 728.997 82.16C730.149 81.4133 731.429 81.04 732.837 81.04C733.755 81.04 734.608 81.1893 735.397 81.488C736.187 81.7867 736.869 82.192 737.445 82.704C738.043 83.216 738.501 83.7813 738.821 84.4C739.163 85.0187 739.333 85.6373 739.333 86.256L738.501 86.064V82.576C738.501 82.2133 738.619 81.9147 738.853 81.68C739.088 81.424 739.397 81.296 739.781 81.296ZM733.189 95.952C734.256 95.952 735.195 95.6747 736.005 95.12C736.837 94.5653 737.477 93.8187 737.925 92.88C738.395 91.92 738.629 90.8427 738.629 89.648C738.629 88.4747 738.395 87.4187 737.925 86.48C737.477 85.52 736.837 84.7733 736.005 84.24C735.195 83.6853 734.256 83.408 733.189 83.408C732.144 83.408 731.205 83.6747 730.373 84.208C729.563 84.7413 728.923 85.4773 728.453 86.416C727.984 87.3547 727.749 88.432 727.749 89.648C727.749 90.8427 727.973 91.92 728.421 92.88C728.891 93.8187 729.531 94.5653 730.341 95.12C731.173 95.6747 732.123 95.952 733.189 95.952ZM747.342 98C746.958 98 746.648 97.872 746.414 97.616C746.179 97.36 746.062 97.0507 746.062 96.688V75.6C746.062 75.2373 746.179 74.9387 746.414 74.704C746.648 74.448 746.958 74.32 747.342 74.32C747.704 74.32 748.003 74.448 748.238 74.704C748.494 74.9387 748.622 75.2373 748.622 75.6V96.688C748.622 97.0507 748.494 97.36 748.238 97.616C748.003 97.872 747.704 98 747.342 98ZM757.966 81.36C758.307 81.36 758.595 81.4987 758.83 81.776C759.086 82.032 759.214 82.2987 759.214 82.576C759.214 82.9387 759.043 83.2587 758.702 83.536L748.334 92.592L748.238 89.616L757.07 81.744C757.326 81.488 757.624 81.36 757.966 81.36ZM758.318 97.968C757.955 97.968 757.635 97.8293 757.358 97.552L750.542 90.288L752.462 88.528L759.214 95.76C759.47 96.0373 759.597 96.3573 759.597 96.72C759.597 97.104 759.448 97.4133 759.15 97.648C758.851 97.8613 758.574 97.968 758.318 97.968ZM775.533 81.456C775.917 81.456 776.227 81.584 776.461 81.84C776.696 82.0747 776.813 82.3733 776.813 82.736V91.472C776.813 93.6267 776.205 95.3013 774.989 96.496C773.795 97.6693 772.12 98.256 769.965 98.256C767.832 98.256 766.157 97.6693 764.941 96.496C763.747 95.3013 763.149 93.6267 763.149 91.472V82.736C763.149 82.3733 763.267 82.0747 763.501 81.84C763.757 81.584 764.067 81.456 764.429 81.456C764.813 81.456 765.123 81.584 765.357 81.84C765.592 82.0747 765.709 82.3733 765.709 82.736V91.472C765.709 92.9227 766.083 94.0213 766.829 94.768C767.576 95.5147 768.621 95.888 769.965 95.888C771.352 95.888 772.408 95.5147 773.133 94.768C773.88 94.0213 774.253 92.9227 774.253 91.472V82.736C774.253 82.3733 774.371 82.0747 774.605 81.84C774.861 81.584 775.171 81.456 775.533 81.456ZM798.528 81.04C799.979 81.04 801.28 81.4133 802.432 82.16C803.584 82.8853 804.491 83.888 805.152 85.168C805.835 86.448 806.176 87.9307 806.176 89.616C806.176 91.3013 805.835 92.7947 805.152 94.096C804.491 95.3973 803.584 96.432 802.432 97.2C801.301 97.9467 800.021 98.32 798.592 98.32C797.803 98.32 797.056 98.2027 796.352 97.968C795.669 97.712 795.04 97.3813 794.464 96.976C793.909 96.5493 793.44 96.0907 793.056 95.6C792.672 95.088 792.395 94.5867 792.224 94.096L792.928 93.648V96.848C792.928 97.2107 792.811 97.52 792.576 97.776C792.341 98.032 792.032 98.16 791.648 98.16C791.285 98.16 790.976 98.0427 790.72 97.808C790.485 97.552 790.368 97.232 790.368 96.848V75.632C790.368 75.2693 790.485 74.96 790.72 74.704C790.976 74.448 791.285 74.32 791.648 74.32C792.032 74.32 792.341 74.448 792.576 74.704C792.811 74.96 792.928 75.2693 792.928 75.632V85.488L792.448 85.232C792.597 84.6987 792.853 84.1867 793.216 83.696C793.6 83.184 794.059 82.736 794.592 82.352C795.147 81.9467 795.755 81.6267 796.416 81.392C797.099 81.1573 797.803 81.04 798.528 81.04ZM798.24 83.408C797.173 83.408 796.224 83.6747 795.392 84.208C794.581 84.7413 793.941 85.4773 793.472 86.416C793.024 87.3547 792.8 88.4213 792.8 89.616C792.8 90.8107 793.024 91.888 793.472 92.848C793.941 93.808 794.581 94.5653 795.392 95.12C796.224 95.6747 797.173 95.952 798.24 95.952C799.307 95.952 800.245 95.6747 801.056 95.12C801.867 94.5653 802.507 93.808 802.976 92.848C803.445 91.888 803.68 90.8107 803.68 89.616C803.68 88.4213 803.445 87.3547 802.976 86.416C802.507 85.4773 801.867 84.7413 801.056 84.208C800.245 83.6747 799.307 83.408 798.24 83.408ZM822.408 81.456C822.792 81.456 823.102 81.584 823.336 81.84C823.571 82.0747 823.688 82.3733 823.688 82.736V91.472C823.688 93.6267 823.08 95.3013 821.864 96.496C820.67 97.6693 818.995 98.256 816.84 98.256C814.707 98.256 813.032 97.6693 811.816 96.496C810.622 95.3013 810.024 93.6267 810.024 91.472V82.736C810.024 82.3733 810.142 82.0747 810.376 81.84C810.632 81.584 810.942 81.456 811.304 81.456C811.688 81.456 811.998 81.584 812.232 81.84C812.467 82.0747 812.584 82.3733 812.584 82.736V91.472C812.584 92.9227 812.958 94.0213 813.704 94.768C814.451 95.5147 815.496 95.888 816.84 95.888C818.227 95.888 819.283 95.5147 820.008 94.768C820.755 94.0213 821.128 92.9227 821.128 91.472V82.736C821.128 82.3733 821.246 82.0747 821.48 81.84C821.736 81.584 822.046 81.456 822.408 81.456ZM831.247 96.688C831.247 97.0507 831.119 97.36 830.863 97.616C830.607 97.872 830.297 98 829.935 98C829.572 98 829.273 97.872 829.039 97.616C828.804 97.36 828.687 97.0507 828.687 96.688V75.6C828.687 75.2373 828.804 74.9387 829.039 74.704C829.295 74.448 829.604 74.32 829.967 74.32C830.351 74.32 830.66 74.448 830.895 74.704C831.129 74.9387 831.247 75.2373 831.247 75.6V96.688ZM839.028 96.688C839.028 97.0507 838.9 97.36 838.644 97.616C838.388 97.872 838.078 98 837.716 98C837.353 98 837.054 97.872 836.82 97.616C836.585 97.36 836.468 97.0507 836.468 96.688V75.6C836.468 75.2373 836.585 74.9387 836.82 74.704C837.076 74.448 837.385 74.32 837.748 74.32C838.132 74.32 838.441 74.448 838.676 74.704C838.91 74.9387 839.028 75.2373 839.028 75.6V96.688ZM855.908 81.2C856.271 81.2 856.57 81.328 856.804 81.584C857.06 81.8187 857.188 82.1173 857.188 82.48V96.432C857.188 98.224 856.836 99.7067 856.132 100.88C855.428 102.075 854.479 102.96 853.284 103.536C852.111 104.112 850.778 104.4 849.284 104.4C848.452 104.4 847.652 104.315 846.884 104.144C846.116 103.973 845.487 103.749 844.996 103.472C844.591 103.28 844.303 103.035 844.132 102.736C843.983 102.459 843.962 102.16 844.068 101.84C844.218 101.456 844.431 101.189 844.708 101.04C845.007 100.891 845.316 100.891 845.636 101.04C845.978 101.189 846.468 101.392 847.108 101.648C847.77 101.925 848.506 102.064 849.316 102.064C850.426 102.064 851.375 101.851 852.164 101.424C852.954 100.997 853.562 100.368 853.988 99.536C854.415 98.7253 854.628 97.712 854.628 96.496V94.224L855.012 95.024C854.671 95.6853 854.212 96.2613 853.636 96.752C853.06 97.2427 852.399 97.6267 851.652 97.904C850.906 98.1813 850.084 98.32 849.188 98.32C847.972 98.32 846.938 98.064 846.084 97.552C845.252 97.0187 844.612 96.2933 844.164 95.376C843.738 94.4373 843.524 93.36 843.524 92.144V82.48C843.524 82.1173 843.642 81.8187 843.876 81.584C844.132 81.328 844.442 81.2 844.804 81.2C845.188 81.2 845.498 81.328 845.732 81.584C845.967 81.8187 846.084 82.1173 846.084 82.48V91.568C846.084 93.0187 846.404 94.1173 847.044 94.864C847.684 95.5893 848.676 95.952 850.02 95.952C850.874 95.952 851.642 95.76 852.324 95.376C853.028 94.992 853.583 94.4693 853.988 93.808C854.415 93.1253 854.628 92.3787 854.628 91.568V82.48C854.628 82.1173 854.746 81.8187 854.98 81.584C855.215 81.328 855.524 81.2 855.908 81.2ZM864.395 96.688C864.395 97.0507 864.267 97.36 864.011 97.616C863.776 97.872 863.477 98 863.115 98C862.731 98 862.421 97.872 862.187 97.616C861.952 97.36 861.835 97.0507 861.835 96.688V82.48C861.835 82.1173 861.952 81.8187 862.187 81.584C862.443 81.328 862.752 81.2 863.115 81.2C863.477 81.2 863.776 81.328 864.011 81.584C864.267 81.8187 864.395 82.1173 864.395 82.48V96.688ZM863.115 79.056C862.581 79.056 862.187 78.9493 861.931 78.736C861.675 78.5227 861.547 78.192 861.547 77.744V77.296C861.547 76.848 861.685 76.5173 861.963 76.304C862.24 76.0907 862.635 75.984 863.147 75.984C863.659 75.984 864.043 76.0907 864.299 76.304C864.555 76.5173 864.683 76.848 864.683 77.296V77.744C864.683 78.192 864.544 78.5227 864.266 78.736C864.011 78.9493 863.627 79.056 863.115 79.056ZM877.217 81.04C878.668 81.04 879.809 81.3387 880.641 81.936C881.473 82.5333 882.06 83.3333 882.401 84.336C882.764 85.3387 882.945 86.4587 882.945 87.696V96.688C882.945 97.0507 882.817 97.36 882.561 97.616C882.326 97.872 882.028 98 881.665 98C881.302 98 880.993 97.872 880.737 97.616C880.502 97.36 880.385 97.0507 880.385 96.688V87.76C880.385 86.9493 880.257 86.224 880.001 85.584C879.766 84.9227 879.361 84.4 878.785 84.016C878.23 83.6107 877.462 83.408 876.481 83.408C875.585 83.408 874.764 83.6107 874.017 84.016C873.27 84.4 872.673 84.9227 872.225 85.584C871.777 86.224 871.553 86.9493 871.553 87.76V96.688C871.553 97.0507 871.425 97.36 871.169 97.616C870.934 97.872 870.636 98 870.273 98C869.91 98 869.601 97.872 869.345 97.616C869.11 97.36 868.993 97.0507 868.993 96.688V82.736C868.993 82.3733 869.11 82.0747 869.345 81.84C869.601 81.584 869.91 81.456 870.273 81.456C870.657 81.456 870.966 81.584 871.201 81.84C871.436 82.0747 871.553 82.3733 871.553 82.736V85.008L870.913 85.712C871.02 85.1573 871.265 84.6027 871.649 84.048C872.033 83.472 872.513 82.96 873.089 82.512C873.665 82.064 874.305 81.712 875.009 81.456C875.713 81.1787 876.449 81.04 877.217 81.04ZM894.625 81.04C895.542 81.04 896.395 81.2 897.185 81.52C897.974 81.8187 898.657 82.2133 899.233 82.704C899.83 83.1947 900.289 83.7067 900.609 84.24C900.95 84.7733 901.121 85.2747 901.121 85.744L900.513 85.36V82.576C900.513 82.2133 900.63 81.9147 900.865 81.68C901.099 81.424 901.409 81.296 901.793 81.296C902.155 81.296 902.454 81.424 902.689 81.68C902.945 81.9147 903.073 82.2133 903.073 82.576V96.592C903.073 98.3413 902.699 99.792 901.953 100.944C901.227 102.096 900.246 102.96 899.009 103.536C897.771 104.112 896.385 104.4 894.849 104.4C894.209 104.4 893.505 104.315 892.737 104.144C891.969 103.973 891.286 103.76 890.689 103.504C890.091 103.269 889.707 103.024 889.536 102.768C889.217 102.555 889.014 102.309 888.929 102.032C888.865 101.776 888.918 101.531 889.089 101.296C889.281 100.997 889.526 100.848 889.825 100.848C890.145 100.848 890.539 100.944 891.009 101.136C891.201 101.2 891.499 101.307 891.905 101.456C892.331 101.605 892.801 101.733 893.312 101.84C893.846 101.968 894.369 102.032 894.881 102.032C896.694 102.032 898.081 101.552 899.041 100.592C900.022 99.6533 900.513 98.4053 900.513 96.848V93.872L900.865 94.032C900.737 94.6293 900.47 95.184 900.065 95.696C899.681 96.208 899.201 96.6667 898.625 97.072C898.07 97.456 897.451 97.7653 896.769 98C896.086 98.2133 895.393 98.32 894.689 98.32C893.195 98.32 891.851 97.9467 890.657 97.2C889.462 96.4533 888.513 95.4293 887.809 94.128C887.126 92.8267 886.785 91.344 886.785 89.68C886.785 87.9947 887.126 86.5013 887.809 85.2C888.513 83.8987 889.451 82.8853 890.625 82.16C891.819 81.4133 893.153 81.04 894.625 81.04ZM894.945 83.408C893.857 83.408 892.875 83.6853 892.001 84.24C891.147 84.7733 890.475 85.5093 889.985 86.448C889.515 87.3867 889.281 88.464 889.281 89.68C889.281 90.8533 889.515 91.92 889.985 92.88C890.475 93.8187 891.147 94.5653 892.001 95.12C892.875 95.6747 893.857 95.952 894.945 95.952C896.054 95.952 897.035 95.6853 897.889 95.152C898.742 94.5973 899.414 93.8507 899.905 92.912C900.395 91.9733 900.641 90.896 900.641 89.68C900.641 88.4427 900.395 87.3547 899.905 86.416C899.414 85.4773 898.742 84.7413 897.889 84.208C897.035 83.6747 896.054 83.408 894.945 83.408ZM315.266 114.32C315.628 114.32 315.927 114.448 316.162 114.704C316.418 114.939 316.546 115.237 316.546 115.6V136.688C316.546 137.051 316.418 137.36 316.162 137.616C315.927 137.872 315.628 138 315.266 138C314.882 138 314.572 137.872 314.338 137.616C314.103 137.36 313.986 137.051 313.986 136.688V133.648L314.594 133.424C314.594 133.936 314.434 134.48 314.114 135.056C313.794 135.611 313.356 136.133 312.802 136.624C312.247 137.115 311.586 137.52 310.818 137.84C310.071 138.16 309.26 138.32 308.386 138.32C306.956 138.32 305.655 137.947 304.482 137.2C303.33 136.453 302.412 135.429 301.73 134.128C301.068 132.827 300.738 131.344 300.738 129.68C300.738 127.995 301.068 126.501 301.73 125.2C302.412 123.899 303.33 122.885 304.482 122.16C305.634 121.413 306.914 121.04 308.322 121.04C309.218 121.04 310.06 121.189 310.85 121.488C311.639 121.787 312.322 122.192 312.898 122.704C313.495 123.216 313.964 123.781 314.306 124.4C314.647 125.019 314.818 125.637 314.818 126.256L313.986 126.064V115.6C313.986 115.237 314.103 114.939 314.338 114.704C314.572 114.448 314.882 114.32 315.266 114.32ZM308.674 135.952C309.74 135.952 310.679 135.685 311.49 135.152C312.322 134.597 312.962 133.851 313.41 132.912C313.879 131.952 314.114 130.875 314.114 129.68C314.114 128.464 313.879 127.387 313.41 126.448C312.962 125.509 312.322 124.773 311.49 124.24C310.679 123.685 309.74 123.408 308.674 123.408C307.628 123.408 306.69 123.685 305.858 124.24C305.047 124.773 304.407 125.509 303.938 126.448C303.468 127.387 303.234 128.464 303.234 129.68C303.234 130.853 303.468 131.92 303.938 132.88C304.407 133.819 305.047 134.565 305.858 135.12C306.69 135.675 307.628 135.952 308.674 135.952ZM334.922 121.296C335.285 121.296 335.583 121.424 335.818 121.68C336.074 121.915 336.202 122.213 336.202 122.576V136.688C336.202 137.051 336.074 137.36 335.818 137.616C335.583 137.872 335.285 138 334.922 138C334.538 138 334.229 137.872 333.994 137.616C333.759 137.36 333.642 137.051 333.642 136.688V133.648L334.25 133.584C334.25 134.053 334.09 134.565 333.77 135.12C333.45 135.675 333.013 136.197 332.458 136.688C331.903 137.157 331.242 137.552 330.474 137.872C329.727 138.171 328.917 138.32 328.042 138.32C326.591 138.32 325.29 137.947 324.138 137.2C322.986 136.432 322.069 135.397 321.386 134.096C320.725 132.795 320.394 131.312 320.394 129.648C320.394 127.963 320.725 126.48 321.386 125.2C322.069 123.899 322.986 122.885 324.138 122.16C325.29 121.413 326.57 121.04 327.978 121.04C328.895 121.04 329.749 121.189 330.538 121.488C331.327 121.787 332.01 122.192 332.586 122.704C333.183 123.216 333.642 123.781 333.962 124.4C334.303 125.019 334.474 125.637 334.474 126.256L333.642 126.064V122.576C333.642 122.213 333.759 121.915 333.994 121.68C334.229 121.424 334.538 121.296 334.922 121.296ZM328.33 135.952C329.397 135.952 330.335 135.675 331.146 135.12C331.978 134.565 332.618 133.819 333.066 132.88C333.535 131.92 333.77 130.843 333.77 129.648C333.77 128.475 333.535 127.419 333.066 126.48C332.618 125.52 331.978 124.773 331.146 124.24C330.335 123.685 329.397 123.408 328.33 123.408C327.285 123.408 326.346 123.675 325.514 124.208C324.703 124.741 324.063 125.477 323.594 126.416C323.125 127.355 322.89 128.432 322.89 129.648C322.89 130.843 323.114 131.92 323.562 132.88C324.031 133.819 324.671 134.565 325.482 135.12C326.314 135.675 327.263 135.952 328.33 135.952ZM343.762 136.688C343.762 137.051 343.634 137.36 343.378 137.616C343.122 137.872 342.813 138 342.45 138C342.087 138 341.789 137.872 341.554 137.616C341.319 137.36 341.202 137.051 341.202 136.688V115.6C341.202 115.237 341.319 114.939 341.554 114.704C341.81 114.448 342.119 114.32 342.482 114.32C342.866 114.32 343.175 114.448 343.41 114.704C343.645 114.939 343.762 115.237 343.762 115.6V136.688ZM362.359 121.296C362.722 121.296 363.021 121.424 363.255 121.68C363.511 121.915 363.639 122.213 363.639 122.576V136.688C363.639 137.051 363.511 137.36 363.255 137.616C363.021 137.872 362.722 138 362.359 138C361.975 138 361.666 137.872 361.431 137.616C361.197 137.36 361.079 137.051 361.079 136.688V133.648L361.687 133.584C361.687 134.053 361.527 134.565 361.207 135.12C360.887 135.675 360.45 136.197 359.895 136.688C359.341 137.157 358.679 137.552 357.911 137.872C357.165 138.171 356.354 138.32 355.479 138.32C354.029 138.32 352.727 137.947 351.575 137.2C350.423 136.432 349.506 135.397 348.823 134.096C348.162 132.795 347.831 131.312 347.831 129.648C347.831 127.963 348.162 126.48 348.823 125.2C349.506 123.899 350.423 122.885 351.575 122.16C352.727 121.413 354.007 121.04 355.415 121.04C356.333 121.04 357.186 121.189 357.975 121.488C358.765 121.787 359.447 122.192 360.023 122.704C360.621 123.216 361.079 123.781 361.399 124.4C361.741 125.019 361.911 125.637 361.911 126.256L361.079 126.064V122.576C361.079 122.213 361.197 121.915 361.431 121.68C361.666 121.424 361.975 121.296 362.359 121.296ZM355.767 135.952C356.834 135.952 357.773 135.675 358.583 135.12C359.415 134.565 360.055 133.819 360.503 132.88C360.973 131.92 361.207 130.843 361.207 129.648C361.207 128.475 360.973 127.419 360.503 126.48C360.055 125.52 359.415 124.773 358.583 124.24C357.773 123.685 356.834 123.408 355.767 123.408C354.722 123.408 353.783 123.675 352.951 124.208C352.141 124.741 351.501 125.477 351.031 126.416C350.562 127.355 350.327 128.432 350.327 129.648C350.327 130.843 350.551 131.92 350.999 132.88C351.469 133.819 352.109 134.565 352.919 135.12C353.751 135.675 354.701 135.952 355.767 135.952ZM376.288 121.2C377.738 121.2 378.912 121.573 379.808 122.32C380.725 123.045 381.333 124.08 381.632 125.424H381.152L381.376 124.848C381.632 124.251 382.069 123.675 382.688 123.12C383.306 122.565 384.021 122.107 384.832 121.744C385.642 121.381 386.485 121.2 387.36 121.2C388.768 121.2 389.877 121.509 390.688 122.128C391.498 122.725 392.074 123.536 392.416 124.56C392.778 125.563 392.96 126.693 392.96 127.952V136.688C392.96 137.051 392.832 137.36 392.576 137.616C392.341 137.872 392.042 138 391.68 138C391.296 138 390.986 137.872 390.752 137.616C390.517 137.36 390.4 137.051 390.4 136.688V128.016C390.4 127.184 390.272 126.437 390.016 125.776C389.781 125.093 389.386 124.56 388.832 124.176C388.298 123.771 387.562 123.568 386.624 123.568C385.749 123.568 384.949 123.771 384.224 124.176C383.498 124.56 382.922 125.093 382.496 125.776C382.069 126.437 381.856 127.184 381.856 128.016V136.688C381.856 137.051 381.738 137.36 381.504 137.616C381.269 137.872 380.96 138 380.576 138C380.213 138 379.904 137.872 379.648 137.616C379.413 137.36 379.296 137.051 379.296 136.688V127.92C379.296 127.109 379.178 126.384 378.944 125.744C378.73 125.083 378.357 124.56 377.824 124.176C377.29 123.771 376.554 123.568 375.616 123.568C374.762 123.568 373.984 123.771 373.28 124.176C372.576 124.56 372.01 125.083 371.584 125.744C371.157 126.384 370.944 127.109 370.944 127.92V136.688C370.944 137.051 370.816 137.36 370.56 137.616C370.325 137.872 370.026 138 369.664 138C369.301 138 368.992 137.872 368.736 137.616C368.501 137.36 368.384 137.051 368.384 136.688V122.736C368.384 122.373 368.501 122.075 368.736 121.84C368.992 121.584 369.301 121.456 369.664 121.456C370.048 121.456 370.357 121.584 370.592 121.84C370.826 122.075 370.944 122.373 370.944 122.736V125.168L370.24 125.936C370.325 125.381 370.538 124.827 370.88 124.272C371.242 123.717 371.701 123.205 372.256 122.736C372.81 122.267 373.429 121.893 374.112 121.616C374.794 121.339 375.52 121.2 376.288 121.2ZM414.509 121.2C415.917 121.2 417.026 121.509 417.837 122.128C418.669 122.725 419.255 123.536 419.597 124.56C419.959 125.563 420.141 126.683 420.141 127.92V136.688C420.141 137.051 420.013 137.36 419.757 137.616C419.522 137.872 419.223 138 418.861 138C418.498 138 418.189 137.872 417.933 137.616C417.698 137.36 417.581 137.051 417.581 136.688V127.92C417.581 127.109 417.463 126.384 417.229 125.744C416.994 125.083 416.599 124.56 416.045 124.176C415.511 123.771 414.775 123.568 413.837 123.568C412.962 123.568 412.162 123.771 411.437 124.176C410.711 124.56 410.135 125.083 409.709 125.744C409.282 126.384 409.069 127.109 409.069 127.92V136.688C409.069 137.051 408.941 137.36 408.685 137.616C408.45 137.872 408.151 138 407.789 138C407.426 138 407.117 137.872 406.861 137.616C406.626 137.36 406.509 137.051 406.509 136.688V115.6C406.509 115.237 406.626 114.939 406.861 114.704C407.117 114.448 407.426 114.32 407.789 114.32C408.173 114.32 408.482 114.448 408.717 114.704C408.951 114.939 409.069 115.237 409.069 115.6V125.168L408.429 125.872C408.535 125.317 408.77 124.763 409.133 124.208C409.495 123.632 409.954 123.12 410.509 122.672C411.063 122.224 411.682 121.872 412.365 121.616C413.047 121.339 413.762 121.2 414.509 121.2ZM438.516 121.296C438.878 121.296 439.177 121.424 439.412 121.68C439.668 121.915 439.796 122.213 439.796 122.576V136.688C439.796 137.051 439.668 137.36 439.412 137.616C439.177 137.872 438.878 138 438.516 138C438.132 138 437.822 137.872 437.588 137.616C437.353 137.36 437.236 137.051 437.236 136.688V133.648L437.844 133.584C437.844 134.053 437.684 134.565 437.364 135.12C437.044 135.675 436.606 136.197 436.052 136.688C435.497 137.157 434.836 137.552 434.068 137.872C433.321 138.171 432.51 138.32 431.636 138.32C430.185 138.32 428.884 137.947 427.732 137.2C426.58 136.432 425.662 135.397 424.98 134.096C424.318 132.795 423.988 131.312 423.988 129.648C423.988 127.963 424.318 126.48 424.98 125.2C425.662 123.899 426.58 122.885 427.732 122.16C428.884 121.413 430.164 121.04 431.572 121.04C432.489 121.04 433.342 121.189 434.132 121.488C434.921 121.787 435.604 122.192 436.18 122.704C436.777 123.216 437.236 123.781 437.556 124.4C437.897 125.019 438.068 125.637 438.068 126.256L437.236 126.064V122.576C437.236 122.213 437.353 121.915 437.588 121.68C437.822 121.424 438.132 121.296 438.516 121.296ZM431.924 135.952C432.99 135.952 433.929 135.675 434.74 135.12C435.572 134.565 436.212 133.819 436.66 132.88C437.129 131.92 437.364 130.843 437.364 129.648C437.364 128.475 437.129 127.419 436.66 126.48C436.212 125.52 435.572 124.773 434.74 124.24C433.929 123.685 432.99 123.408 431.924 123.408C430.878 123.408 429.94 123.675 429.108 124.208C428.297 124.741 427.657 125.477 427.188 126.416C426.718 127.355 426.484 128.432 426.484 129.648C426.484 130.843 426.708 131.92 427.156 132.88C427.625 133.819 428.265 134.565 429.076 135.12C429.908 135.675 430.857 135.952 431.924 135.952ZM447.356 136.688C447.356 137.051 447.228 137.36 446.972 137.616C446.716 137.872 446.407 138 446.044 138C445.681 138 445.383 137.872 445.148 137.616C444.913 137.36 444.796 137.051 444.796 136.688V115.6C444.796 115.237 444.913 114.939 445.148 114.704C445.404 114.448 445.713 114.32 446.076 114.32C446.46 114.32 446.769 114.448 447.004 114.704C447.239 114.939 447.356 115.237 447.356 115.6V136.688ZM469.038 121.2C470.488 121.2 471.662 121.573 472.558 122.32C473.475 123.045 474.083 124.08 474.382 125.424H473.902L474.126 124.848C474.382 124.251 474.819 123.675 475.438 123.12C476.056 122.565 476.771 122.107 477.582 121.744C478.392 121.381 479.235 121.2 480.11 121.2C481.518 121.2 482.627 121.509 483.438 122.128C484.248 122.725 484.824 123.536 485.166 124.56C485.528 125.563 485.71 126.693 485.71 127.952V136.688C485.71 137.051 485.582 137.36 485.326 137.616C485.091 137.872 484.792 138 484.43 138C484.046 138 483.736 137.872 483.502 137.616C483.267 137.36 483.15 137.051 483.15 136.688V128.016C483.15 127.184 483.022 126.437 482.766 125.776C482.531 125.093 482.136 124.56 481.582 124.176C481.048 123.771 480.312 123.568 479.374 123.568C478.499 123.568 477.699 123.771 476.974 124.176C476.248 124.56 475.672 125.093 475.246 125.776C474.819 126.437 474.606 127.184 474.606 128.016V136.688C474.606 137.051 474.488 137.36 474.254 137.616C474.019 137.872 473.71 138 473.326 138C472.963 138 472.654 137.872 472.398 137.616C472.163 137.36 472.046 137.051 472.046 136.688V127.92C472.046 127.109 471.928 126.384 471.694 125.744C471.48 125.083 471.107 124.56 470.574 124.176C470.04 123.771 469.304 123.568 468.366 123.568C467.512 123.568 466.734 123.771 466.03 124.176C465.326 124.56 464.76 125.083 464.334 125.744C463.907 126.384 463.694 127.109 463.694 127.92V136.688C463.694 137.051 463.566 137.36 463.31 137.616C463.075 137.872 462.776 138 462.414 138C462.051 138 461.742 137.872 461.486 137.616C461.251 137.36 461.134 137.051 461.134 136.688V122.736C461.134 122.373 461.251 122.075 461.486 121.84C461.742 121.584 462.051 121.456 462.414 121.456C462.798 121.456 463.107 121.584 463.342 121.84C463.576 122.075 463.694 122.373 463.694 122.736V125.168L462.99 125.936C463.075 125.381 463.288 124.827 463.63 124.272C463.992 123.717 464.451 123.205 465.006 122.736C465.56 122.267 466.179 121.893 466.862 121.616C467.544 121.339 468.27 121.2 469.038 121.2ZM498.094 138.32C496.387 138.32 494.894 137.957 493.614 137.232C492.334 136.507 491.331 135.515 490.606 134.256C489.902 132.976 489.55 131.504 489.55 129.84C489.55 127.984 489.913 126.405 490.638 125.104C491.385 123.781 492.345 122.779 493.518 122.096C494.713 121.392 495.971 121.04 497.294 121.04C498.275 121.04 499.225 121.221 500.142 121.584C501.059 121.947 501.87 122.48 502.574 123.184C503.278 123.867 503.843 124.699 504.27 125.68C504.697 126.64 504.921 127.717 504.942 128.912C504.942 129.253 504.814 129.541 504.558 129.776C504.302 130.011 504.003 130.128 503.662 130.128H491.022L490.446 127.92H502.766L502.254 128.368V127.664C502.169 126.789 501.87 126.043 501.358 125.424C500.867 124.784 500.259 124.293 499.534 123.952C498.83 123.611 498.083 123.44 497.294 123.44C496.654 123.44 496.014 123.557 495.374 123.792C494.755 124.005 494.19 124.368 493.678 124.88C493.187 125.371 492.782 126.011 492.462 126.8C492.163 127.589 492.014 128.539 492.014 129.648C492.014 130.885 492.259 131.973 492.75 132.912C493.262 133.851 493.966 134.597 494.862 135.152C495.758 135.685 496.803 135.952 497.998 135.952C498.745 135.952 499.395 135.856 499.95 135.664C500.505 135.472 500.985 135.237 501.39 134.96C501.795 134.661 502.137 134.363 502.414 134.064C502.691 133.872 502.958 133.776 503.214 133.776C503.534 133.776 503.79 133.883 503.982 134.096C504.195 134.309 504.302 134.565 504.302 134.864C504.302 135.227 504.131 135.547 503.79 135.824C503.193 136.485 502.382 137.072 501.358 137.584C500.334 138.075 499.246 138.32 498.094 138.32ZM517.014 121.04C518.465 121.04 519.606 121.339 520.438 121.936C521.27 122.533 521.857 123.333 522.198 124.336C522.561 125.339 522.742 126.459 522.742 127.696V136.688C522.742 137.051 522.614 137.36 522.358 137.616C522.123 137.872 521.825 138 521.462 138C521.099 138 520.79 137.872 520.534 137.616C520.299 137.36 520.182 137.051 520.182 136.688V127.76C520.182 126.949 520.054 126.224 519.798 125.584C519.563 124.923 519.158 124.4 518.582 124.016C518.027 123.611 517.259 123.408 516.278 123.408C515.382 123.408 514.561 123.611 513.814 124.016C513.067 124.4 512.47 124.923 512.022 125.584C511.574 126.224 511.35 126.949 511.35 127.76V136.688C511.35 137.051 511.222 137.36 510.966 137.616C510.731 137.872 510.433 138 510.07 138C509.707 138 509.398 137.872 509.142 137.616C508.907 137.36 508.79 137.051 508.79 136.688V122.736C508.79 122.373 508.907 122.075 509.142 121.84C509.398 121.584 509.707 121.456 510.07 121.456C510.454 121.456 510.763 121.584 510.998 121.84C511.233 122.075 511.35 122.373 511.35 122.736V125.008L510.71 125.712C510.817 125.157 511.062 124.603 511.446 124.048C511.83 123.472 512.31 122.96 512.886 122.512C513.462 122.064 514.102 121.712 514.806 121.456C515.51 121.179 516.246 121.04 517.014 121.04ZM539.705 121.2C540.068 121.2 540.366 121.328 540.601 121.584C540.857 121.819 540.985 122.117 540.985 122.48V136.432C540.985 138.224 540.633 139.707 539.929 140.88C539.225 142.075 538.276 142.96 537.081 143.536C535.908 144.112 534.574 144.4 533.081 144.4C532.249 144.4 531.449 144.315 530.681 144.144C529.913 143.973 529.284 143.749 528.793 143.472C528.388 143.28 528.1 143.035 527.929 142.736C527.78 142.459 527.758 142.16 527.865 141.84C528.014 141.456 528.228 141.189 528.505 141.04C528.804 140.891 529.113 140.891 529.433 141.04C529.774 141.189 530.265 141.392 530.905 141.648C531.566 141.925 532.302 142.064 533.113 142.064C534.222 142.064 535.172 141.851 535.961 141.424C536.75 140.997 537.358 140.368 537.785 139.536C538.212 138.725 538.425 137.712 538.425 136.496V134.224L538.809 135.024C538.468 135.685 538.009 136.261 537.433 136.752C536.857 137.243 536.196 137.627 535.449 137.904C534.702 138.181 533.881 138.32 532.985 138.32C531.769 138.32 530.734 138.064 529.881 137.552C529.049 137.019 528.409 136.293 527.961 135.376C527.534 134.437 527.321 133.36 527.321 132.144V122.48C527.321 122.117 527.438 121.819 527.673 121.584C527.929 121.328 528.238 121.2 528.601 121.2C528.985 121.2 529.294 121.328 529.529 121.584C529.764 121.819 529.881 122.117 529.881 122.48V131.568C529.881 133.019 530.201 134.117 530.841 134.864C531.481 135.589 532.473 135.952 533.817 135.952C534.67 135.952 535.438 135.76 536.121 135.376C536.825 134.992 537.38 134.469 537.785 133.808C538.212 133.125 538.425 132.379 538.425 131.568V122.48C538.425 122.117 538.542 121.819 538.777 121.584C539.012 121.328 539.321 121.2 539.705 121.2ZM553.219 138.32C551.512 138.32 550.019 137.957 548.739 137.232C547.459 136.507 546.456 135.515 545.731 134.256C545.027 132.976 544.675 131.504 544.675 129.84C544.675 127.984 545.038 126.405 545.763 125.104C546.51 123.781 547.47 122.779 548.643 122.096C549.838 121.392 551.096 121.04 552.419 121.04C553.4 121.04 554.35 121.221 555.267 121.584C556.184 121.947 556.995 122.48 557.699 123.184C558.403 123.867 558.968 124.699 559.395 125.68C559.822 126.64 560.046 127.717 560.067 128.912C560.067 129.253 559.939 129.541 559.683 129.776C559.427 130.011 559.128 130.128 558.787 130.128H546.147L545.571 127.92H557.891L557.379 128.368V127.664C557.294 126.789 556.995 126.043 556.483 125.424C555.992 124.784 555.384 124.293 554.659 123.952C553.955 123.611 553.208 123.44 552.419 123.44C551.779 123.44 551.139 123.557 550.499 123.792C549.88 124.005 549.315 124.368 548.803 124.88C548.312 125.371 547.907 126.011 547.587 126.8C547.288 127.589 547.139 128.539 547.139 129.648C547.139 130.885 547.384 131.973 547.875 132.912C548.387 133.851 549.091 134.597 549.987 135.152C550.883 135.685 551.928 135.952 553.123 135.952C553.87 135.952 554.52 135.856 555.075 135.664C555.63 135.472 556.11 135.237 556.515 134.96C556.92 134.661 557.262 134.363 557.539 134.064C557.816 133.872 558.083 133.776 558.339 133.776C558.659 133.776 558.915 133.883 559.107 134.096C559.32 134.309 559.427 134.565 559.427 134.864C559.427 135.227 559.256 135.547 558.915 135.824C558.318 136.485 557.507 137.072 556.483 137.584C555.459 138.075 554.371 138.32 553.219 138.32ZM566.731 136.688C566.731 137.051 566.603 137.36 566.347 137.616C566.091 137.872 565.782 138 565.419 138C565.056 138 564.758 137.872 564.523 137.616C564.288 137.36 564.171 137.051 564.171 136.688V115.6C564.171 115.237 564.288 114.939 564.523 114.704C564.779 114.448 565.088 114.32 565.451 114.32C565.835 114.32 566.144 114.448 566.379 114.704C566.614 114.939 566.731 115.237 566.731 115.6V136.688ZM579.032 138.32C577.325 138.32 575.832 137.957 574.552 137.232C573.272 136.507 572.269 135.515 571.544 134.256C570.84 132.976 570.488 131.504 570.488 129.84C570.488 127.984 570.85 126.405 571.576 125.104C572.322 123.781 573.282 122.779 574.456 122.096C575.65 121.392 576.909 121.04 578.232 121.04C579.213 121.04 580.162 121.221 581.08 121.584C581.997 121.947 582.808 122.48 583.512 123.184C584.216 123.867 584.781 124.699 585.208 125.68C585.634 126.64 585.858 127.717 585.88 128.912C585.88 129.253 585.752 129.541 585.496 129.776C585.24 130.011 584.941 130.128 584.6 130.128H571.96L571.384 127.92H583.704L583.192 128.368V127.664C583.106 126.789 582.808 126.043 582.296 125.424C581.805 124.784 581.197 124.293 580.472 123.952C579.768 123.611 579.021 123.44 578.232 123.44C577.592 123.44 576.952 123.557 576.312 123.792C575.693 124.005 575.128 124.368 574.616 124.88C574.125 125.371 573.72 126.011 573.4 126.8C573.101 127.589 572.952 128.539 572.952 129.648C572.952 130.885 573.197 131.973 573.688 132.912C574.2 133.851 574.904 134.597 575.8 135.152C576.696 135.685 577.741 135.952 578.936 135.952C579.682 135.952 580.333 135.856 580.888 135.664C581.442 135.472 581.922 135.237 582.328 134.96C582.733 134.661 583.074 134.363 583.352 134.064C583.629 133.872 583.896 133.776 584.152 133.776C584.472 133.776 584.728 133.883 584.92 134.096C585.133 134.309 585.24 134.565 585.24 134.864C585.24 135.227 585.069 135.547 584.728 135.824C584.13 136.485 583.32 137.072 582.296 137.584C581.272 138.075 580.184 138.32 579.032 138.32ZM588.799 135.376C588.607 135.099 588.522 134.811 588.543 134.512C588.565 134.192 588.746 133.915 589.087 133.68C589.301 133.531 589.546 133.467 589.823 133.488C590.122 133.509 590.389 133.648 590.623 133.904C591.221 134.608 591.903 135.173 592.671 135.6C593.439 136.005 594.378 136.208 595.487 136.208C595.999 136.187 596.511 136.101 597.023 135.952C597.535 135.803 597.962 135.547 598.303 135.184C598.666 134.8 598.847 134.299 598.847 133.68C598.847 133.083 598.666 132.613 598.303 132.272C597.941 131.909 597.471 131.621 596.895 131.408C596.319 131.173 595.69 130.971 595.007 130.8C594.303 130.608 593.61 130.395 592.927 130.16C592.245 129.904 591.626 129.595 591.071 129.232C590.538 128.848 590.101 128.379 589.759 127.824C589.439 127.248 589.279 126.555 589.279 125.744C589.279 124.784 589.535 123.952 590.047 123.248C590.581 122.544 591.285 122 592.159 121.616C593.055 121.232 594.026 121.04 595.071 121.04C595.669 121.04 596.287 121.115 596.927 121.264C597.589 121.392 598.229 121.627 598.847 121.968C599.466 122.288 600.01 122.736 600.479 123.312C600.671 123.525 600.778 123.792 600.799 124.112C600.821 124.432 600.682 124.72 600.383 124.976C600.149 125.147 599.882 125.221 599.583 125.2C599.306 125.179 599.071 125.072 598.879 124.88C598.431 124.347 597.866 123.941 597.183 123.664C596.522 123.365 595.786 123.216 594.975 123.216C594.463 123.216 593.962 123.291 593.471 123.44C592.981 123.589 592.565 123.845 592.223 124.208C591.903 124.549 591.743 125.029 591.743 125.648C591.765 126.224 591.957 126.693 592.319 127.056C592.682 127.419 593.173 127.717 593.791 127.952C594.41 128.165 595.093 128.379 595.839 128.592C596.522 128.763 597.173 128.965 597.791 129.2C598.431 129.413 599.007 129.701 599.519 130.064C600.031 130.427 600.437 130.896 600.735 131.472C601.034 132.027 601.183 132.731 601.183 133.584C601.183 134.565 600.906 135.419 600.351 136.144C599.797 136.848 599.061 137.392 598.143 137.776C597.247 138.139 596.277 138.32 595.231 138.32C594.058 138.32 592.895 138.096 591.743 137.648C590.613 137.2 589.631 136.443 588.799 135.376ZM618.766 121.296C619.128 121.296 619.427 121.424 619.662 121.68C619.918 121.915 620.046 122.213 620.046 122.576V136.688C620.046 137.051 619.918 137.36 619.662 137.616C619.427 137.872 619.128 138 618.766 138C618.382 138 618.072 137.872 617.838 137.616C617.603 137.36 617.486 137.051 617.486 136.688V133.648L618.094 133.584C618.094 134.053 617.934 134.565 617.614 135.12C617.294 135.675 616.856 136.197 616.302 136.688C615.747 137.157 615.086 137.552 614.318 137.872C613.571 138.171 612.76 138.32 611.886 138.32C610.435 138.32 609.134 137.947 607.982 137.2C606.83 136.432 605.912 135.397 605.23 134.096C604.568 132.795 604.238 131.312 604.238 129.648C604.238 127.963 604.568 126.48 605.23 125.2C605.912 123.899 606.83 122.885 607.982 122.16C609.134 121.413 610.414 121.04 611.822 121.04C612.739 121.04 613.592 121.189 614.382 121.488C615.171 121.787 615.854 122.192 616.43 122.704C617.027 123.216 617.486 123.781 617.806 124.4C618.147 125.019 618.318 125.637 618.318 126.256L617.486 126.064V122.576C617.486 122.213 617.603 121.915 617.838 121.68C618.072 121.424 618.382 121.296 618.766 121.296ZM612.174 135.952C613.24 135.952 614.179 135.675 614.99 135.12C615.822 134.565 616.462 133.819 616.91 132.88C617.379 131.92 617.614 130.843 617.614 129.648C617.614 128.475 617.379 127.419 616.91 126.48C616.462 125.52 615.822 124.773 614.99 124.24C614.179 123.685 613.24 123.408 612.174 123.408C611.128 123.408 610.19 123.675 609.358 124.208C608.547 124.741 607.907 125.477 607.438 126.416C606.968 127.355 606.734 128.432 606.734 129.648C606.734 130.843 606.958 131.92 607.406 132.88C607.875 133.819 608.515 134.565 609.326 135.12C610.158 135.675 611.107 135.952 612.174 135.952ZM627.254 136.688C627.254 137.051 627.126 137.36 626.87 137.616C626.635 137.872 626.337 138 625.974 138C625.59 138 625.281 137.872 625.046 137.616C624.811 137.36 624.694 137.051 624.694 136.688V122.48C624.694 122.117 624.811 121.819 625.046 121.584C625.302 121.328 625.611 121.2 625.974 121.2C626.337 121.2 626.635 121.328 626.87 121.584C627.126 121.819 627.254 122.117 627.254 122.48V136.688ZM625.974 119.056C625.441 119.056 625.046 118.949 624.79 118.736C624.534 118.523 624.406 118.192 624.406 117.744V117.296C624.406 116.848 624.545 116.517 624.822 116.304C625.099 116.091 625.494 115.984 626.006 115.984C626.518 115.984 626.902 116.091 627.158 116.304C627.414 116.517 627.542 116.848 627.542 117.296V117.744C627.542 118.192 627.403 118.523 627.126 118.736C626.87 118.949 626.486 119.056 625.974 119.056ZM633.388 138C633.004 138 632.695 137.872 632.46 137.616C632.226 137.36 632.108 137.051 632.108 136.688V115.6C632.108 115.237 632.226 114.939 632.46 114.704C632.695 114.448 633.004 114.32 633.388 114.32C633.751 114.32 634.05 114.448 634.284 114.704C634.54 114.939 634.668 115.237 634.668 115.6V136.688C634.668 137.051 634.54 137.36 634.284 137.616C634.05 137.872 633.751 138 633.388 138ZM644.012 121.36C644.354 121.36 644.642 121.499 644.876 121.776C645.132 122.032 645.26 122.299 645.26 122.576C645.26 122.939 645.09 123.259 644.748 123.536L634.38 132.592L634.284 129.616L643.116 121.744C643.372 121.488 643.671 121.36 644.012 121.36ZM644.364 137.968C644.002 137.968 643.682 137.829 643.404 137.552L636.588 130.288L638.508 128.528L645.26 135.76C645.516 136.037 645.644 136.357 645.644 136.72C645.644 137.104 645.495 137.413 645.196 137.648C644.898 137.861 644.62 137.968 644.364 137.968ZM662.859 121.296C663.222 121.296 663.521 121.424 663.755 121.68C664.011 121.915 664.139 122.213 664.139 122.576V136.688C664.139 137.051 664.011 137.36 663.755 137.616C663.521 137.872 663.222 138 662.859 138C662.475 138 662.166 137.872 661.931 137.616C661.697 137.36 661.579 137.051 661.579 136.688V133.648L662.187 133.584C662.187 134.053 662.027 134.565 661.707 135.12C661.387 135.675 660.95 136.197 660.395 136.688C659.841 137.157 659.179 137.552 658.411 137.872C657.665 138.171 656.854 138.32 655.979 138.32C654.529 138.32 653.227 137.947 652.075 137.2C650.923 136.432 650.006 135.397 649.323 134.096C648.662 132.795 648.331 131.312 648.331 129.648C648.331 127.963 648.662 126.48 649.323 125.2C650.006 123.899 650.923 122.885 652.075 122.16C653.227 121.413 654.507 121.04 655.915 121.04C656.833 121.04 657.686 121.189 658.475 121.488C659.265 121.787 659.947 122.192 660.523 122.704C661.121 123.216 661.579 123.781 661.899 124.4C662.241 125.019 662.411 125.637 662.411 126.256L661.579 126.064V122.576C661.579 122.213 661.697 121.915 661.931 121.68C662.166 121.424 662.475 121.296 662.859 121.296ZM656.267 135.952C657.334 135.952 658.273 135.675 659.083 135.12C659.915 134.565 660.555 133.819 661.003 132.88C661.473 131.92 661.707 130.843 661.707 129.648C661.707 128.475 661.473 127.419 661.003 126.48C660.555 125.52 659.915 124.773 659.083 124.24C658.273 123.685 657.334 123.408 656.267 123.408C655.222 123.408 654.283 123.675 653.451 124.208C652.641 124.741 652.001 125.477 651.531 126.416C651.062 127.355 650.827 128.432 650.827 129.648C650.827 130.843 651.051 131.92 651.499 132.88C651.969 133.819 652.609 134.565 653.419 135.12C654.251 135.675 655.201 135.952 656.267 135.952ZM677.108 121.04C678.558 121.04 679.7 121.339 680.532 121.936C681.364 122.533 681.95 123.333 682.292 124.336C682.654 125.339 682.836 126.459 682.836 127.696V136.688C682.836 137.051 682.708 137.36 682.452 137.616C682.217 137.872 681.918 138 681.556 138C681.193 138 680.884 137.872 680.628 137.616C680.393 137.36 680.276 137.051 680.276 136.688V127.76C680.276 126.949 680.148 126.224 679.892 125.584C679.657 124.923 679.252 124.4 678.676 124.016C678.121 123.611 677.353 123.408 676.372 123.408C675.476 123.408 674.654 123.611 673.908 124.016C673.161 124.4 672.564 124.923 672.116 125.584C671.668 126.224 671.444 126.949 671.444 127.76V136.688C671.444 137.051 671.316 137.36 671.06 137.616C670.825 137.872 670.526 138 670.164 138C669.801 138 669.492 137.872 669.236 137.616C669.001 137.36 668.884 137.051 668.884 136.688V122.736C668.884 122.373 669.001 122.075 669.236 121.84C669.492 121.584 669.801 121.456 670.164 121.456C670.548 121.456 670.857 121.584 671.092 121.84C671.326 122.075 671.444 122.373 671.444 122.736V125.008L670.804 125.712C670.91 125.157 671.156 124.603 671.54 124.048C671.924 123.472 672.404 122.96 672.98 122.512C673.556 122.064 674.196 121.712 674.9 121.456C675.604 121.179 676.34 121.04 677.108 121.04ZM688.339 137.968C687.891 137.968 687.539 137.84 687.283 137.584C687.048 137.328 686.931 136.976 686.931 136.528V135.888C686.931 135.419 687.048 135.056 687.283 134.8C687.539 134.544 687.891 134.416 688.339 134.416H688.595C689.064 134.416 689.416 134.544 689.651 134.8C689.886 135.056 690.003 135.419 690.003 135.888V136.528C690.003 136.976 689.886 137.328 689.651 137.584C689.416 137.84 689.064 137.968 688.595 137.968H688.339Z" fill="white"/>
</svg>
