<svg width="973" height="646" viewBox="0 0 973 646" fill="none" xmlns="http://www.w3.org/2000/svg">
<path d="M957.876 31.2931C958.21 162.892 960.913 565.85 957.178 634.189C906.397 642.981 904.762 635.684 853.225 634.012L26.1783 607.147C20.8137 606.975 14.9596 606.621 10.9127 603.085C7.21477 599.814 5.95436 594.642 4.9804 589.798C-3.38419 548.033 39.9856 61.1942 41.3502 21.1994C98.1783 12.2879 173.913 12.9337 231.559 12.9129C291.85 12.9129 337.147 9.66291 397.402 10.5171C516.376 12.2046 635.303 15.6265 754.189 20.7879C822.105 23.7879 890.001 27.2879 957.876 31.2931Z" fill="#116D4F"/>
<path d="M578.429 186.022C587.825 207.902 609.002 222.142 629.892 233.6C654.319 246.986 680.033 258.444 702.262 275.231C724.491 292.017 743.476 315.34 747.752 342.887C753.997 383.231 728.189 421.106 701.424 451.934C674.663 482.767 644.226 514.34 638.236 554.725C636.892 563.71 637.148 573.746 642.981 580.71C648.293 587.053 656.924 589.309 664.997 591.158C745.976 609.71 827.903 621.762 910.793 627.319C915.674 627.652 920.752 627.923 925.262 626.017C934.986 621.913 938.023 609.871 939.71 599.465C963.054 456.314 965.773 310.689 968.439 165.673C969.2 124.824 969.856 83.4649 959.007 44.1733C957.955 40.2826 956.611 36.2722 953.465 33.8243C950.747 32.0587 947.778 31.0274 944.554 30.7305C867.694 17.6733 790.288 11.642 712.335 12.642C686.819 12.9493 652.47 9.12117 630.96 26.2566C615.288 38.767 609.142 60.7045 600.991 78.1733C585.512 111.324 562.325 148.475 578.429 186.022Z" fill="#15664C"/>
<path d="M867.345 48.6266C900.621 54.0172 927.637 56.4078 961.377 54.8141C961.903 36.5485 961.262 31.1578 961.767 12.913C824.71 11.4703 25.5015 -10.4307 25.1109 13.3193C24.663 40.3974 34.8348 32.7724 51.9703 30.1474C83.9598 25.0693 174.496 27.7724 206.762 26.1578C334.173 19.8193 833.986 43.2412 867.345 48.6266Z" fill="#CD924C"/>
<path d="M959.882 609.502C959.882 621.97 959.491 626.309 955.074 639.986C795.147 657.491 646.793 626.095 485.892 626.934C452.09 627.106 9.56917 617.205 5.50668 603.2C-2.46728 575.46 10.4077 570.481 25.5588 570.46C94.5015 570.46 199.876 584.429 268.824 585.731C344.772 587.168 877.574 611.72 959.882 609.502Z" fill="#CD924C"/>
<path d="M942.085 210.179C942.085 375.158 941.189 489.944 915.538 615.121C913.788 623.626 909.705 621.444 915.012 628.392C920.325 635.335 950.116 630.455 957.179 632.283C976.783 479.444 972.054 335.804 968.653 181.778C967.7 138.653 968.788 55.34 961.71 12.814C935.085 13.3192 935.085 13.3192 933.819 37.8869C931.934 74.7931 942.085 173.59 942.085 210.179Z" fill="#CD924C"/>
<path d="M41.7778 606.08C25.9861 600.533 21.882 599.736 5.5278 603.199C-9.08158 605.142 22.658 89.3036 12.8195 32.4807C9.9028 15.6526 14.4132 11.0849 42.9861 8.04841C59.3611 6.31925 51.6007 36.7828 50.6059 50.8453C47.3976 96.0692 36.9913 366.345 37.8872 456.236C38.0434 471.351 32.7934 603.022 41.7778 606.08Z" fill="#CD924C"/>
<path d="M24.038 120.116C22.0953 123.83 19.663 127.35 18.6161 131.418C17.9651 134.475 17.7203 137.569 17.8921 140.694C18.2046 164.647 18.5015 188.6 18.788 212.553C19.0015 229.809 19.2151 247.064 20.7359 264.257C22.564 285.949 26.314 307.949 22.1369 329.309C18.9234 345.668 11.163 360.876 8.03277 377.257C4.63173 394.996 6.80881 413.283 7.2359 431.356C7.64735 448.491 6.47548 465.611 5.75673 482.751C4.06402 522.741 -9.4516 612.262 11.9807 606.08C11.9807 587.444 7.91819 565.481 7.91819 546.845C7.91819 519.746 7.91819 492.496 12.5849 465.788C15.5432 448.767 20.3661 431.47 17.2151 414.47C15.4807 405.6 11.5953 397.1 11.3974 388.074C10.9338 369.283 25.8296 353.819 30.8453 335.746C36.4703 315.887 29.8921 294.897 26.6838 274.527C22.5796 248.465 24.0796 221.871 25.5953 195.533L28.0849 152.231C28.4859 140.397 29.7255 128.658 31.7984 117.001C34.1734 105.33 38.2984 93.6576 37.9078 81.7149C37.6369 73.4076 35.2046 65.3556 33.4911 57.2253C31.4234 47.2722 30.439 37.2149 30.538 27.0535C30.6317 19.0014 38.9182 11.0847 47.2046 7.60034C24.2567 10.8868 20.7359 29.3087 23.7671 47.3451C27.7567 70.9962 35.8869 97.3764 24.038 120.116Z" fill="#AA762A"/>
<path d="M29.5639 567.173C30.1472 561.335 31.2566 554.762 27.6212 550.054C24.3139 545.679 21.1212 518.038 23.9441 514.048C34.0587 499.731 34.366 480.981 34.2879 463.47C34.2879 443.923 34.116 424.199 30.0691 405.116C29.4962 402.897 29.1525 400.647 29.0379 398.366C29.1525 395.548 29.6316 392.804 30.4754 390.116C33.3972 378.824 35.6889 367.408 37.3452 355.861C34.2722 365.705 32.3243 376.715 28.0639 386.09C25.965 390.72 19.5066 394.413 20.5587 399.434C37.3816 478.876 13.9441 520.038 13.9441 520.038C13.1108 522.522 12.5222 525.069 12.1837 527.668C11.84 530.267 11.7566 532.876 11.9233 535.491C12.09 538.106 12.5066 540.684 13.1733 543.22C13.84 545.757 14.7462 548.199 15.892 550.559C18.2462 555.423 20.2097 560.288 20.2097 563.475C20.1785 574.09 21.1941 584.6 23.2618 595.012C23.9233 598.356 20.7931 605.298 23.0118 607.908C25.2254 610.512 53.2514 612.069 58.7566 611.522C53.1368 599.272 28.2045 580.616 29.5639 567.173Z" fill="#AA762A"/>
<path d="M53.7567 597.189C63.9286 601.897 76.5536 599.486 85.3609 592.58C89.6994 589.194 93.689 584.642 99.1317 584.017C104.58 583.397 109.809 587.054 115.293 586.819C118.257 586.491 121.059 585.627 123.694 584.231C129.746 581.491 149.371 581.022 155.418 578.298C145.418 575.225 125.017 572.835 116.517 574.194C111.6 574.975 106.658 575.752 101.814 576.975C94.5432 578.824 87.4807 581.705 80.0119 582.502C72.5484 583.298 64.6682 577.173 59.9234 571.356C58.7775 569.955 40.2411 565.153 37.7723 569.564C33.8244 576.512 46.8921 593.996 53.7567 597.189Z" fill="#AA762A"/>
<path d="M184.689 610.611C196.861 608.955 208.98 606.465 221.272 606.236C247.663 605.726 273.163 615.647 299.454 617.908C323.845 620.085 348.35 615.668 372.095 609.658C384.798 606.449 398.392 602.793 410.72 607.246C416.85 609.465 422.1 613.528 427.855 616.564C458.158 632.554 499.272 619.949 532.996 625.981C397.788 631.929 313.694 625.861 286.329 623.778C212.246 618.179 127.918 617.184 65.8555 612.111C79.4701 597.83 99.9492 605.34 115.428 609.366C137.642 615.262 162.204 613.663 184.689 610.611Z" fill="#AA762A"/>
<path d="M893.58 610.804C879.325 609.189 794.72 605.632 794.72 605.632C789.705 605.126 738.085 604.621 733.319 604.189C552.981 587.85 372.121 579.376 190.757 578.767C158.434 578.767 138.767 605.319 183.465 598.611C213.861 594.038 246.168 582.345 276.215 594.991C284.595 598.512 292.241 603.819 300.991 606.293C334.793 615.824 370.288 580.46 403.33 592.366C415.002 596.606 424.356 606.35 436.397 609.522C457.788 615.121 478.481 598.455 500.46 595.903C521.272 593.475 541.184 603.804 561.705 608.08C587.71 613.507 614.606 609.132 641.153 607.809C677.851 605.981 859.799 618.528 901.455 619.481C906.726 619.595 914.059 622.382 912.408 627.376C911.95 628.345 911.314 629.184 910.512 629.887C909.705 630.595 908.793 631.116 907.778 631.444C896.731 636.366 884.127 636.033 872.09 635.1C860.049 634.168 847.799 632.668 835.778 630.684C829.163 629.595 822.262 628.371 815.84 630.278C812.653 631.231 809.757 632.923 806.663 634.168C797.481 637.845 787.215 637.376 777.491 636.871C760.746 635.996 743.882 635.121 727.564 631.231C720.038 629.439 712.668 627.007 705.064 625.569C692.517 623.194 679.642 623.626 666.866 623.955C626.507 625.22 585.549 626.699 546.283 617.246C529.71 613.356 512.205 607.345 496.121 612.965C498.496 617.496 503.903 619.559 509.054 619.85C514.21 620.142 519.267 619.09 524.361 619.189C528.929 619.382 533.429 620.028 537.861 621.137C562.231 626.444 586.83 631.6 611.767 631.736C629.835 631.835 647.845 629.283 665.892 629.595C714.512 630.434 762.632 652.007 810.668 643.955C819.575 642.455 828.424 639.965 837.429 640.434C843.127 641.001 848.746 641.986 854.293 643.387C873.877 647.434 891.246 644.83 911.22 643.663C972.871 639.986 907.814 612.324 893.58 610.804Z" fill="#AA762A"/>
<path d="M954.319 158.163C952.064 148.903 951.382 137.955 949.809 128.559C948.309 119.746 953.074 106.496 954.434 97.6682C957.392 78.3714 952.918 65.6682 955.876 46.3922C956.538 42.111 957.158 37.5953 955.678 33.5328C954.199 29.4651 949.845 26.1214 945.663 27.3453C945.059 32.5016 919.522 10.3818 933.642 55.3193L933.876 72.4755C936.21 91.1891 946.481 107.897 944.496 126.653C943.814 133.09 942.882 139.627 944.012 146.106C945.043 151.939 947.746 157.423 949.397 163.163C956.632 188.314 942.824 214.715 943.678 240.976C943.991 250.45 946.246 259.767 947.085 269.22C947.632 277.033 947.705 284.856 947.298 292.679L945.606 344.887C944.923 366.054 940.043 391.575 939.168 412.642C937.767 446.491 922.772 567.793 926.527 552.564C929.033 542.08 935.22 529.106 939.303 519.377C947.803 499.262 949.126 476.955 950.33 455.184C953.908 390.387 957.491 325.377 952.548 260.658C951.46 246.481 949.96 232.257 951.012 218.08C952.548 198.022 959.085 177.715 954.319 158.163Z" fill="#AA762A"/>
<path d="M971.996 330.397C970.538 292.835 971.762 256.475 969.121 226.736C963.033 248.543 959.762 302.309 959.762 302.309C962.7 326.955 961.944 351.892 961.147 376.715L960.038 412.663C959.356 434.35 958.658 456.059 955.991 477.595C952.668 504.205 946.377 530.095 937.127 555.267C932.575 567.699 927.246 580.048 925.71 593.199C924.174 606.35 926.991 620.824 936.621 629.908C938.392 631.6 940.882 633.158 943.137 632.241C947.028 630.684 945.47 624.887 943.621 621.116C942.064 617.913 940.799 614.595 939.83 611.168C938.856 607.741 938.189 604.257 937.83 600.715C937.47 597.168 937.418 593.621 937.684 590.069C937.95 586.517 938.522 583.017 939.403 579.564C942.903 566.043 951.069 554.121 954.96 540.658C957.205 532.205 958.606 523.616 959.163 514.887C962.325 482.465 965.491 450.043 968.653 417.621C971.752 388.621 972.866 359.548 971.996 330.397Z" fill="#AA762A"/>
<path d="M952.762 598.668C952.715 599.726 952.897 600.741 953.309 601.72C953.829 602.793 952.079 636.736 955.074 639.986C957.428 642.59 968.809 557.408 967.001 530.679C955.465 540.21 952.449 585.168 952.762 598.668Z" fill="#AA762A"/>
<path d="M956.048 114.767C957.429 117.798 959.726 120.366 960.97 123.481C962.132 126.965 962.58 130.538 962.314 134.199C962.137 154.731 960.606 175.163 957.72 195.491C957.257 198.783 956.788 202.303 958.226 205.22C959.668 208.137 966.241 220.043 968.83 217.944C970.147 217.319 966.397 77.2983 965.95 66.4441C962.293 72.5535 961.71 80.4493 959.533 87.1837C956.809 95.9337 951.887 105.585 956.048 114.767Z" fill="#AA762A"/>
<path d="M357.278 23.6889C393.455 21.1993 429.59 16.9597 465.84 17.1941C498.455 17.4076 530.934 21.2358 563.397 24.3868C613.965 29.2722 664.804 32.5014 715.663 32.616C749.366 32.616 783.054 31.3712 816.793 30.0691C842.778 29.0587 869.21 27.9701 893.793 19.4858L747.054 20.2462C706.793 20.4597 666.512 20.6524 626.293 19.293C603.658 18.5326 580.981 17.2514 558.746 13.0118C543.366 10.0535 528.215 5.69409 512.637 4.04305C495.366 2.09513 477.939 3.70971 460.647 5.20971L385.012 11.8035C372.913 12.8555 360.663 13.9441 349.304 18.2045C343.897 20.1472 338.569 22.9701 332.809 23.0066C326.741 23.0066 321.142 20.0691 315.309 18.1837C294.981 11.5326 273.085 18.4545 251.825 20.8503C185.293 28.3555 116.246 -10.1757 51.0954 7.23055C47.8246 8.10555 47.0121 12.0378 47.2048 15.4024C47.3975 18.767 50.4704 20.3243 53.2725 21.2358C71.6527 27.5222 103.392 27.4024 122.705 25.2618C114.674 22.543 99.6006 21.1576 88.1423 19.1003C87.8037 19.0378 87.4808 18.9233 87.1787 18.7514C86.8766 18.5795 86.611 18.366 86.3819 18.1055C86.1527 17.8451 85.9756 17.5535 85.8454 17.2305C85.7152 16.9128 85.6423 16.5743 85.6266 16.2305C85.611 15.8868 85.6527 15.543 85.7516 15.2149C85.8558 14.8816 86.0069 14.5743 86.21 14.293C86.4131 14.0118 86.6579 13.7774 86.9444 13.5795C87.2256 13.3816 87.5381 13.2358 87.8714 13.1472C91.7569 12.6003 95.6423 12.5483 99.5433 12.991C107.163 13.3608 114.741 14.142 122.278 15.3243C141.038 17.918 159.84 20.0847 178.679 21.8191C216.465 25.2149 254.325 26.6993 292.262 26.2774C313.976 26.043 335.653 25.1785 357.278 23.6889Z" fill="#AA762A"/>
<path d="M961.71 12.9128H943.699C936.205 13.8503 928.986 15.8087 922.043 18.7826C915.1 21.7618 908.705 25.6368 902.856 30.4181C898.965 33.6472 895.194 37.3451 890.47 39.1733C886.439 40.4701 882.309 41.0639 878.08 40.9441C861.08 41.4285 815.475 43.142 798.455 43.6264C819.85 50.5899 871.173 54.0326 893.366 50.5118C901.689 49.1733 910.288 46.4076 915.772 40.0118C917.408 37.7618 919.163 35.616 921.043 33.5691C923.809 31.3243 926.903 29.6941 930.319 28.6681C941.444 24.5274 953.288 31.2566 964.47 35.1681L961.71 12.9128Z" fill="#AA762A"/>
<path d="M283.876 6.00656C288.684 5.24615 293.507 5.11073 298.345 5.60031C306.632 6.76698 342.595 6.68885 349.731 2.35031C338.548 -0.587187 301.809 -0.00385314 290.741 0.152396C271.778 0.42323 185.486 1.63156 179.376 3.88677C186.397 12.5795 218.725 10.2461 229.632 10.1316C247.788 9.68365 265.866 8.30865 283.876 6.00656Z" fill="#AA762A"/>
<path d="M106.617 95.6C106.959 95.6 107.247 95.7173 107.481 95.952C107.716 96.1867 107.833 96.4747 107.833 96.816C107.833 97.1573 107.716 97.4453 107.481 97.68C107.247 97.8933 106.959 98 106.617 98H95.0014C94.6174 98 94.2974 97.8933 94.0414 97.68C93.8067 97.4453 93.6894 97.136 93.6894 96.752C93.6894 96.4107 93.8174 96.1013 94.0734 95.824L101.305 87.92C102.372 86.768 103.172 85.6907 103.705 84.688C104.26 83.664 104.537 82.7573 104.537 81.968C104.537 80.6667 104.143 79.632 103.353 78.864C102.585 78.0747 101.551 77.68 100.249 77.68C99.6734 77.68 99.0974 77.808 98.5214 78.064C97.9454 78.2987 97.4227 78.6293 96.9534 79.056C96.484 79.4613 96.1 79.92 95.8014 80.432C95.6307 80.7093 95.4494 80.8907 95.2574 80.976C95.0867 81.04 94.9054 81.072 94.7134 81.072C94.3934 81.072 94.1054 80.9653 93.8494 80.752C93.5934 80.5173 93.4654 80.2507 93.4654 79.952C93.4654 79.7173 93.5294 79.504 93.6574 79.312C93.7854 79.0987 93.956 78.864 94.1694 78.608C94.6174 77.9893 95.172 77.4347 95.8334 76.944C96.516 76.432 97.252 76.0267 98.0414 75.728C98.852 75.4293 99.6414 75.28 100.409 75.28C101.775 75.28 102.959 75.5467 103.961 76.08C104.985 76.6133 105.775 77.3707 106.329 78.352C106.884 79.3333 107.161 80.4853 107.161 81.808C107.161 82.9387 106.82 84.1867 106.137 85.552C105.455 86.9173 104.452 88.304 103.129 89.712L97.5294 95.92L97.2094 95.6H106.617ZM112.62 97.968C112.172 97.968 111.82 97.84 111.564 97.584C111.33 97.328 111.212 96.976 111.212 96.528V95.888C111.212 95.4187 111.33 95.056 111.564 94.8C111.82 94.544 112.172 94.416 112.62 94.416H112.876C113.346 94.416 113.698 94.544 113.932 94.8C114.167 95.056 114.284 95.4187 114.284 95.888V96.528C114.284 96.976 114.167 97.328 113.932 97.584C113.698 97.84 113.346 97.968 112.876 97.968H112.62ZM137.801 75.6C138.163 75.6 138.473 75.728 138.729 75.984C138.985 76.2187 139.113 76.528 139.113 76.912V96.688C139.113 97.0507 138.974 97.36 138.697 97.616C138.441 97.872 138.131 98 137.769 98C137.363 98 137.043 97.872 136.809 97.616C136.574 97.36 136.457 97.0507 136.457 96.688V76.912C136.457 76.528 136.585 76.2187 136.841 75.984C137.097 75.728 137.417 75.6 137.801 75.6ZM152.553 75.6C152.937 75.6 153.246 75.728 153.481 75.984C153.737 76.2187 153.865 76.528 153.865 76.912V96.688C153.865 97.0507 153.737 97.36 153.481 97.616C153.225 97.872 152.905 98 152.521 98C152.158 98 151.849 97.872 151.593 97.616C151.337 97.36 151.209 97.0507 151.209 96.688V76.912C151.209 76.528 151.337 76.2187 151.593 75.984C151.87 75.728 152.19 75.6 152.553 75.6ZM137.673 85.36H152.585L152.553 87.856H137.577L137.673 85.36ZM172.672 81.296C173.035 81.296 173.333 81.424 173.568 81.68C173.824 81.9147 173.952 82.2133 173.952 82.576V96.688C173.952 97.0507 173.824 97.36 173.568 97.616C173.333 97.872 173.035 98 172.672 98C172.288 98 171.979 97.872 171.744 97.616C171.509 97.36 171.392 97.0507 171.392 96.688V93.648L172 93.584C172 94.0533 171.84 94.5653 171.52 95.12C171.2 95.6747 170.763 96.1973 170.208 96.688C169.653 97.1573 168.992 97.552 168.224 97.872C167.477 98.1707 166.667 98.32 165.792 98.32C164.341 98.32 163.04 97.9467 161.888 97.2C160.736 96.432 159.819 95.3973 159.136 94.096C158.475 92.7947 158.144 91.312 158.144 89.648C158.144 87.9627 158.475 86.48 159.136 85.2C159.819 83.8987 160.736 82.8853 161.888 82.16C163.04 81.4133 164.32 81.04 165.728 81.04C166.645 81.04 167.499 81.1893 168.288 81.488C169.077 81.7867 169.76 82.192 170.336 82.704C170.933 83.216 171.392 83.7813 171.712 84.4C172.053 85.0187 172.224 85.6373 172.224 86.256L171.392 86.064V82.576C171.392 82.2133 171.509 81.9147 171.744 81.68C171.979 81.424 172.288 81.296 172.672 81.296ZM166.08 95.952C167.147 95.952 168.085 95.6747 168.896 95.12C169.728 94.5653 170.368 93.8187 170.816 92.88C171.285 91.92 171.52 90.8427 171.52 89.648C171.52 88.4747 171.285 87.4187 170.816 86.48C170.368 85.52 169.728 84.7733 168.896 84.24C168.085 83.6853 167.147 83.408 166.08 83.408C165.035 83.408 164.096 83.6747 163.264 84.208C162.453 84.7413 161.813 85.4773 161.344 86.416C160.875 87.3547 160.64 88.432 160.64 89.648C160.64 90.8427 160.864 91.92 161.312 92.88C161.781 93.8187 162.421 94.5653 163.232 95.12C164.064 95.6747 165.013 95.952 166.08 95.952ZM181.512 96.688C181.512 97.0507 181.384 97.36 181.128 97.616C180.872 97.872 180.563 98 180.2 98C179.837 98 179.539 97.872 179.304 97.616C179.069 97.36 178.952 97.0507 178.952 96.688V75.6C178.952 75.2373 179.069 74.9387 179.304 74.704C179.56 74.448 179.869 74.32 180.232 74.32C180.616 74.32 180.925 74.448 181.16 74.704C181.395 74.9387 181.512 75.2373 181.512 75.6V96.688ZM207.674 81.2C208.037 81.2 208.335 81.328 208.57 81.584C208.826 81.8187 208.954 82.1173 208.954 82.48V96.432C208.954 98.224 208.602 99.7067 207.898 100.88C207.194 102.075 206.245 102.96 205.05 103.536C203.877 104.112 202.543 104.4 201.05 104.4C200.218 104.4 199.418 104.315 198.65 104.144C197.882 103.973 197.253 103.749 196.762 103.472C196.357 103.28 196.069 103.035 195.898 102.736C195.749 102.459 195.727 102.16 195.834 101.84C195.983 101.456 196.197 101.189 196.474 101.04C196.773 100.891 197.082 100.891 197.402 101.04C197.743 101.189 198.234 101.392 198.874 101.648C199.535 101.925 200.271 102.064 201.082 102.064C202.191 102.064 203.141 101.851 203.93 101.424C204.719 100.997 205.327 100.368 205.754 99.536C206.181 98.7253 206.394 97.712 206.394 96.496V94.224L206.778 95.024C206.437 95.6853 205.978 96.2613 205.402 96.752C204.826 97.2427 204.165 97.6267 203.418 97.904C202.671 98.1813 201.85 98.32 200.954 98.32C199.738 98.32 198.703 98.064 197.85 97.552C197.018 97.0187 196.378 96.2933 195.93 95.376C195.503 94.4373 195.29 93.36 195.29 92.144V82.48C195.29 82.1173 195.407 81.8187 195.642 81.584C195.898 81.328 196.207 81.2 196.57 81.2C196.954 81.2 197.263 81.328 197.498 81.584C197.733 81.8187 197.85 82.1173 197.85 82.48V91.568C197.85 93.0187 198.17 94.1173 198.81 94.864C199.45 95.5893 200.442 95.952 201.786 95.952C202.639 95.952 203.407 95.76 204.09 95.376C204.794 94.992 205.349 94.4693 205.754 93.808C206.181 93.1253 206.394 92.3787 206.394 91.568V82.48C206.394 82.1173 206.511 81.8187 206.746 81.584C206.981 81.328 207.29 81.2 207.674 81.2ZM227.328 81.296C227.691 81.296 227.989 81.424 228.224 81.68C228.48 81.9147 228.608 82.2133 228.608 82.576V96.688C228.608 97.0507 228.48 97.36 228.224 97.616C227.989 97.872 227.691 98 227.328 98C226.944 98 226.635 97.872 226.4 97.616C226.165 97.36 226.048 97.0507 226.048 96.688V93.648L226.656 93.584C226.656 94.0533 226.496 94.5653 226.176 95.12C225.856 95.6747 225.419 96.1973 224.864 96.688C224.309 97.1573 223.648 97.552 222.88 97.872C222.133 98.1707 221.323 98.32 220.448 98.32C218.997 98.32 217.696 97.9467 216.544 97.2C215.392 96.432 214.475 95.3973 213.792 94.096C213.131 92.7947 212.8 91.312 212.8 89.648C212.8 87.9627 213.131 86.48 213.792 85.2C214.475 83.8987 215.392 82.8853 216.544 82.16C217.696 81.4133 218.976 81.04 220.384 81.04C221.301 81.04 222.155 81.1893 222.944 81.488C223.733 81.7867 224.416 82.192 224.992 82.704C225.589 83.216 226.048 83.7813 226.368 84.4C226.709 85.0187 226.88 85.6373 226.88 86.256L226.048 86.064V82.576C226.048 82.2133 226.165 81.9147 226.4 81.68C226.635 81.424 226.944 81.296 227.328 81.296ZM220.736 95.952C221.803 95.952 222.741 95.6747 223.552 95.12C224.384 94.5653 225.024 93.8187 225.472 92.88C225.941 91.92 226.176 90.8427 226.176 89.648C226.176 88.4747 225.941 87.4187 225.472 86.48C225.024 85.52 224.384 84.7733 223.552 84.24C222.741 83.6853 221.803 83.408 220.736 83.408C219.691 83.408 218.752 83.6747 217.92 84.208C217.109 84.7413 216.469 85.4773 216 86.416C215.531 87.3547 215.296 88.432 215.296 89.648C215.296 90.8427 215.52 91.92 215.968 92.88C216.437 93.8187 217.077 94.5653 217.888 95.12C218.72 95.6747 219.669 95.952 220.736 95.952ZM241.576 81.04C243.027 81.04 244.168 81.3387 245 81.936C245.832 82.5333 246.419 83.3333 246.76 84.336C247.123 85.3387 247.304 86.4587 247.304 87.696V96.688C247.304 97.0507 247.176 97.36 246.92 97.616C246.686 97.872 246.387 98 246.024 98C245.662 98 245.352 97.872 245.096 97.616C244.862 97.36 244.744 97.0507 244.744 96.688V87.76C244.744 86.9493 244.616 86.224 244.36 85.584C244.126 84.9227 243.72 84.4 243.144 84.016C242.59 83.6107 241.822 83.408 240.84 83.408C239.944 83.408 239.123 83.6107 238.376 84.016C237.63 84.4 237.032 84.9227 236.584 85.584C236.136 86.224 235.912 86.9493 235.912 87.76V96.688C235.912 97.0507 235.784 97.36 235.528 97.616C235.294 97.872 234.995 98 234.632 98C234.27 98 233.96 97.872 233.704 97.616C233.47 97.36 233.352 97.0507 233.352 96.688V82.736C233.352 82.3733 233.47 82.0747 233.704 81.84C233.96 81.584 234.27 81.456 234.632 81.456C235.016 81.456 235.326 81.584 235.56 81.84C235.795 82.0747 235.912 82.3733 235.912 82.736V85.008L235.272 85.712C235.379 85.1573 235.624 84.6027 236.008 84.048C236.392 83.472 236.872 82.96 237.448 82.512C238.024 82.064 238.664 81.712 239.368 81.456C240.072 81.1787 240.808 81.04 241.576 81.04ZM258.984 81.04C259.901 81.04 260.755 81.2 261.544 81.52C262.333 81.8187 263.016 82.2133 263.592 82.704C264.189 83.1947 264.648 83.7067 264.968 84.24C265.309 84.7733 265.48 85.2747 265.48 85.744L264.872 85.36V82.576C264.872 82.2133 264.989 81.9147 265.224 81.68C265.459 81.424 265.768 81.296 266.152 81.296C266.515 81.296 266.813 81.424 267.048 81.68C267.304 81.9147 267.432 82.2133 267.432 82.576V96.592C267.432 98.3413 267.059 99.792 266.312 100.944C265.587 102.096 264.605 102.96 263.368 103.536C262.131 104.112 260.744 104.4 259.208 104.4C258.568 104.4 257.864 104.315 257.096 104.144C256.328 103.973 255.645 103.76 255.048 103.504C254.451 103.269 254.067 103.024 253.896 102.768C253.576 102.555 253.373 102.309 253.288 102.032C253.224 101.776 253.277 101.531 253.448 101.296C253.64 100.997 253.885 100.848 254.184 100.848C254.504 100.848 254.899 100.944 255.368 101.136C255.56 101.2 255.859 101.307 256.264 101.456C256.691 101.605 257.16 101.733 257.672 101.84C258.205 101.968 258.728 102.032 259.24 102.032C261.053 102.032 262.44 101.552 263.4 100.592C264.381 99.6533 264.872 98.4053 264.872 96.848V93.872L265.224 94.032C265.096 94.6293 264.829 95.184 264.424 95.696C264.04 96.208 263.56 96.6667 262.984 97.072C262.429 97.456 261.811 97.7653 261.128 98C260.445 98.2133 259.752 98.32 259.048 98.32C257.555 98.32 256.211 97.9467 255.016 97.2C253.821 96.4533 252.872 95.4293 252.168 94.128C251.485 92.8267 251.144 91.344 251.144 89.68C251.144 87.9947 251.485 86.5013 252.168 85.2C252.872 83.8987 253.811 82.8853 254.984 82.16C256.179 81.4133 257.512 81.04 258.984 81.04ZM259.304 83.408C258.216 83.408 257.235 83.6853 256.36 84.24C255.507 84.7733 254.835 85.5093 254.344 86.448C253.875 87.3867 253.64 88.464 253.64 89.68C253.64 90.8533 253.875 91.92 254.344 92.88C254.835 93.8187 255.507 94.5653 256.36 95.12C257.235 95.6747 258.216 95.952 259.304 95.952C260.413 95.952 261.395 95.6853 262.248 95.152C263.101 94.5973 263.773 93.8507 264.264 92.912C264.755 91.9733 265 90.896 265 89.68C265 88.4427 264.755 87.3547 264.264 86.416C263.773 85.4773 263.101 84.7413 262.248 84.208C261.395 83.6747 260.413 83.408 259.304 83.408ZM294.609 74.32C294.972 74.32 295.271 74.448 295.505 74.704C295.761 74.9387 295.889 75.2373 295.889 75.6V96.688C295.889 97.0507 295.761 97.36 295.505 97.616C295.271 97.872 294.972 98 294.609 98C294.225 98 293.916 97.872 293.681 97.616C293.447 97.36 293.329 97.0507 293.329 96.688V93.648L293.937 93.424C293.937 93.936 293.777 94.48 293.457 95.056C293.137 95.6107 292.7 96.1333 292.145 96.624C291.591 97.1147 290.929 97.52 290.161 97.84C289.415 98.16 288.604 98.32 287.729 98.32C286.3 98.32 284.999 97.9467 283.825 97.2C282.673 96.4533 281.756 95.4293 281.073 94.128C280.412 92.8267 280.081 91.344 280.081 89.68C280.081 87.9947 280.412 86.5013 281.073 85.2C281.756 83.8987 282.673 82.8853 283.825 82.16C284.977 81.4133 286.257 81.04 287.665 81.04C288.561 81.04 289.404 81.1893 290.193 81.488C290.983 81.7867 291.665 82.192 292.241 82.704C292.839 83.216 293.308 83.7813 293.649 84.4C293.991 85.0187 294.161 85.6373 294.161 86.256L293.329 86.064V75.6C293.329 75.2373 293.447 74.9387 293.681 74.704C293.916 74.448 294.225 74.32 294.609 74.32ZM288.017 95.952C289.084 95.952 290.023 95.6853 290.833 95.152C291.665 94.5973 292.305 93.8507 292.753 92.912C293.223 91.952 293.457 90.8747 293.457 89.68C293.457 88.464 293.223 87.3867 292.753 86.448C292.305 85.5093 291.665 84.7733 290.833 84.24C290.023 83.6853 289.084 83.408 288.017 83.408C286.972 83.408 286.033 83.6853 285.201 84.24C284.391 84.7733 283.751 85.5093 283.281 86.448C282.812 87.3867 282.577 88.464 282.577 89.68C282.577 90.8533 282.812 91.92 283.281 92.88C283.751 93.8187 284.391 94.5653 285.201 95.12C286.033 95.6747 286.972 95.952 288.017 95.952ZM314.266 81.296C314.628 81.296 314.927 81.424 315.162 81.68C315.418 81.9147 315.546 82.2133 315.546 82.576V96.688C315.546 97.0507 315.418 97.36 315.162 97.616C314.927 97.872 314.628 98 314.266 98C313.882 98 313.572 97.872 313.338 97.616C313.103 97.36 312.986 97.0507 312.986 96.688V93.648L313.594 93.584C313.594 94.0533 313.434 94.5653 313.114 95.12C312.794 95.6747 312.356 96.1973 311.802 96.688C311.247 97.1573 310.586 97.552 309.818 97.872C309.071 98.1707 308.26 98.32 307.386 98.32C305.935 98.32 304.634 97.9467 303.482 97.2C302.33 96.432 301.412 95.3973 300.73 94.096C300.068 92.7947 299.738 91.312 299.738 89.648C299.738 87.9627 300.068 86.48 300.73 85.2C301.412 83.8987 302.33 82.8853 303.482 82.16C304.634 81.4133 305.914 81.04 307.322 81.04C308.239 81.04 309.092 81.1893 309.882 81.488C310.671 81.7867 311.354 82.192 311.93 82.704C312.527 83.216 312.986 83.7813 313.306 84.4C313.647 85.0187 313.818 85.6373 313.818 86.256L312.986 86.064V82.576C312.986 82.2133 313.103 81.9147 313.338 81.68C313.572 81.424 313.882 81.296 314.266 81.296ZM307.674 95.952C308.74 95.952 309.679 95.6747 310.49 95.12C311.322 94.5653 311.962 93.8187 312.41 92.88C312.879 91.92 313.114 90.8427 313.114 89.648C313.114 88.4747 312.879 87.4187 312.41 86.48C311.962 85.52 311.322 84.7733 310.49 84.24C309.679 83.6853 308.74 83.408 307.674 83.408C306.628 83.408 305.69 83.6747 304.858 84.208C304.047 84.7413 303.407 85.4773 302.938 86.416C302.468 87.3547 302.234 88.432 302.234 89.648C302.234 90.8427 302.458 91.92 302.906 92.88C303.375 93.8187 304.015 94.5653 304.826 95.12C305.658 95.6747 306.607 95.952 307.674 95.952ZM328.45 81.2C329.901 81.2 331.202 81.5627 332.354 82.288C333.506 83.0133 334.413 84.016 335.074 85.296C335.757 86.576 336.098 88.048 336.098 89.712C336.098 91.3547 335.757 92.8267 335.074 94.128C334.413 95.408 333.506 96.4213 332.354 97.168C331.223 97.8933 329.943 98.256 328.514 98.256C327.725 98.256 326.978 98.1387 326.274 97.904C325.591 97.648 324.962 97.328 324.386 96.944C323.831 96.5387 323.362 96.0907 322.978 95.6C322.594 95.088 322.317 94.5867 322.146 94.096L322.85 93.648V103.088C322.85 103.451 322.733 103.76 322.498 104.016C322.263 104.272 321.954 104.4 321.57 104.4C321.207 104.4 320.898 104.272 320.642 104.016C320.407 103.781 320.29 103.472 320.29 103.088V82.64C320.29 82.2773 320.407 81.9787 320.642 81.744C320.898 81.488 321.207 81.36 321.57 81.36C321.954 81.36 322.263 81.488 322.498 81.744C322.733 81.9787 322.85 82.2773 322.85 82.64V85.488L322.37 85.232C322.519 84.6987 322.775 84.1867 323.138 83.696C323.522 83.2053 323.981 82.7787 324.514 82.416C325.069 82.032 325.677 81.7333 326.338 81.52C327.021 81.3067 327.725 81.2 328.45 81.2ZM328.162 83.568C327.095 83.568 326.146 83.8347 325.314 84.368C324.503 84.9013 323.863 85.6267 323.394 86.544C322.946 87.4613 322.722 88.5173 322.722 89.712C322.722 90.8853 322.946 91.9413 323.394 92.88C323.863 93.8187 324.503 94.5547 325.314 95.088C326.146 95.6213 327.095 95.888 328.162 95.888C329.229 95.888 330.167 95.6213 330.978 95.088C331.789 94.5547 332.429 93.8187 332.898 92.88C333.367 91.9413 333.602 90.8853 333.602 89.712C333.602 88.5173 333.367 87.4613 332.898 86.544C332.429 85.6267 331.789 84.9013 330.978 84.368C330.167 83.8347 329.229 83.568 328.162 83.568ZM353.578 81.296C353.941 81.296 354.239 81.424 354.474 81.68C354.73 81.9147 354.858 82.2133 354.858 82.576V96.688C354.858 97.0507 354.73 97.36 354.474 97.616C354.239 97.872 353.941 98 353.578 98C353.194 98 352.885 97.872 352.65 97.616C352.415 97.36 352.298 97.0507 352.298 96.688V93.648L352.906 93.584C352.906 94.0533 352.746 94.5653 352.426 95.12C352.106 95.6747 351.669 96.1973 351.114 96.688C350.559 97.1573 349.898 97.552 349.13 97.872C348.383 98.1707 347.573 98.32 346.698 98.32C345.247 98.32 343.946 97.9467 342.794 97.2C341.642 96.432 340.725 95.3973 340.042 94.096C339.381 92.7947 339.05 91.312 339.05 89.648C339.05 87.9627 339.381 86.48 340.042 85.2C340.725 83.8987 341.642 82.8853 342.794 82.16C343.946 81.4133 345.226 81.04 346.634 81.04C347.551 81.04 348.405 81.1893 349.194 81.488C349.983 81.7867 350.666 82.192 351.242 82.704C351.839 83.216 352.298 83.7813 352.618 84.4C352.959 85.0187 353.13 85.6373 353.13 86.256L352.298 86.064V82.576C352.298 82.2133 352.415 81.9147 352.65 81.68C352.885 81.424 353.194 81.296 353.578 81.296ZM346.986 95.952C348.053 95.952 348.991 95.6747 349.802 95.12C350.634 94.5653 351.274 93.8187 351.722 92.88C352.191 91.92 352.426 90.8427 352.426 89.648C352.426 88.4747 352.191 87.4187 351.722 86.48C351.274 85.52 350.634 84.7733 349.802 84.24C348.991 83.6853 348.053 83.408 346.986 83.408C345.941 83.408 345.002 83.6747 344.17 84.208C343.359 84.7413 342.719 85.4773 342.25 86.416C341.781 87.3547 341.546 88.432 341.546 89.648C341.546 90.8427 341.77 91.92 342.218 92.88C342.687 93.8187 343.327 94.5653 344.138 95.12C344.97 95.6747 345.919 95.952 346.986 95.952ZM358.962 81.552H366.482C366.824 81.552 367.101 81.6693 367.314 81.904C367.549 82.1387 367.666 82.416 367.666 82.736C367.666 83.0773 367.549 83.3653 367.314 83.6C367.101 83.8133 366.824 83.92 366.482 83.92H358.962C358.642 83.92 358.365 83.8027 358.13 83.568C357.896 83.3333 357.778 83.0453 357.778 82.704C357.778 82.384 357.896 82.1173 358.13 81.904C358.365 81.6693 358.642 81.552 358.962 81.552ZM362.322 77.2C362.685 77.2 362.984 77.328 363.218 77.584C363.453 77.8187 363.57 78.1173 363.57 78.48V93.936C363.57 94.448 363.645 94.832 363.794 95.088C363.944 95.344 364.136 95.5253 364.37 95.632C364.626 95.7173 364.872 95.76 365.106 95.76C365.32 95.76 365.501 95.728 365.65 95.664C365.821 95.5787 366.013 95.536 366.226 95.536C366.44 95.536 366.632 95.6427 366.802 95.856C366.994 96.048 367.09 96.304 367.09 96.624C367.09 97.008 366.866 97.3387 366.418 97.616C365.97 97.872 365.469 98 364.914 98C364.616 98 364.242 97.9787 363.794 97.936C363.368 97.8933 362.941 97.7547 362.514 97.52C362.088 97.2853 361.725 96.9013 361.426 96.368C361.149 95.8133 361.01 95.0453 361.01 94.064V78.48C361.01 78.1173 361.138 77.8187 361.394 77.584C361.65 77.328 361.96 77.2 362.322 77.2ZM381.576 98C381.192 98 380.883 97.872 380.648 97.616C380.413 97.36 380.296 97.0507 380.296 96.688V75.6C380.296 75.2373 380.413 74.9387 380.648 74.704C380.883 74.448 381.192 74.32 381.576 74.32C381.939 74.32 382.237 74.448 382.472 74.704C382.728 74.9387 382.856 75.2373 382.856 75.6V96.688C382.856 97.0507 382.728 97.36 382.472 97.616C382.237 97.872 381.939 98 381.576 98ZM392.2 81.36C392.541 81.36 392.829 81.4987 393.064 81.776C393.32 82.032 393.448 82.2987 393.448 82.576C393.448 82.9387 393.277 83.2587 392.936 83.536L382.568 92.592L382.472 89.616L391.304 81.744C391.56 81.488 391.859 81.36 392.2 81.36ZM392.552 97.968C392.189 97.968 391.869 97.8293 391.592 97.552L384.776 90.288L386.696 88.528L393.448 95.76C393.704 96.0373 393.832 96.3573 393.832 96.72C393.832 97.104 393.683 97.4133 393.384 97.648C393.085 97.8613 392.808 97.968 392.552 97.968ZM411.047 81.296C411.41 81.296 411.708 81.424 411.943 81.68C412.199 81.9147 412.327 82.2133 412.327 82.576V96.688C412.327 97.0507 412.199 97.36 411.943 97.616C411.708 97.872 411.41 98 411.047 98C410.663 98 410.354 97.872 410.119 97.616C409.884 97.36 409.767 97.0507 409.767 96.688V93.648L410.375 93.584C410.375 94.0533 410.215 94.5653 409.895 95.12C409.575 95.6747 409.138 96.1973 408.583 96.688C408.028 97.1573 407.367 97.552 406.599 97.872C405.852 98.1707 405.042 98.32 404.167 98.32C402.716 98.32 401.415 97.9467 400.263 97.2C399.111 96.432 398.194 95.3973 397.511 94.096C396.85 92.7947 396.519 91.312 396.519 89.648C396.519 87.9627 396.85 86.48 397.511 85.2C398.194 83.8987 399.111 82.8853 400.263 82.16C401.415 81.4133 402.695 81.04 404.103 81.04C405.02 81.04 405.874 81.1893 406.663 81.488C407.452 81.7867 408.135 82.192 408.711 82.704C409.308 83.216 409.767 83.7813 410.087 84.4C410.428 85.0187 410.599 85.6373 410.599 86.256L409.767 86.064V82.576C409.767 82.2133 409.884 81.9147 410.119 81.68C410.354 81.424 410.663 81.296 411.047 81.296ZM404.455 95.952C405.522 95.952 406.46 95.6747 407.271 95.12C408.103 94.5653 408.743 93.8187 409.191 92.88C409.66 91.92 409.895 90.8427 409.895 89.648C409.895 88.4747 409.66 87.4187 409.191 86.48C408.743 85.52 408.103 84.7733 407.271 84.24C406.46 83.6853 405.522 83.408 404.455 83.408C403.41 83.408 402.471 83.6747 401.639 84.208C400.828 84.7413 400.188 85.4773 399.719 86.416C399.25 87.3547 399.015 88.432 399.015 89.648C399.015 90.8427 399.239 91.92 399.687 92.88C400.156 93.8187 400.796 94.5653 401.607 95.12C402.439 95.6747 403.388 95.952 404.455 95.952ZM424.975 81.2C426.426 81.2 427.599 81.5733 428.495 82.32C429.412 83.0453 430.02 84.08 430.319 85.424H429.839L430.063 84.848C430.319 84.2507 430.756 83.6747 431.375 83.12C431.994 82.5653 432.708 82.1067 433.519 81.744C434.33 81.3813 435.172 81.2 436.047 81.2C437.455 81.2 438.564 81.5093 439.375 82.128C440.186 82.7253 440.762 83.536 441.103 84.56C441.466 85.5627 441.647 86.6933 441.647 87.952V96.688C441.647 97.0507 441.519 97.36 441.263 97.616C441.028 97.872 440.73 98 440.367 98C439.983 98 439.674 97.872 439.439 97.616C439.204 97.36 439.087 97.0507 439.087 96.688V88.016C439.087 87.184 438.959 86.4373 438.703 85.776C438.468 85.0933 438.074 84.56 437.519 84.176C436.986 83.7707 436.25 83.568 435.311 83.568C434.436 83.568 433.636 83.7707 432.911 84.176C432.186 84.56 431.61 85.0933 431.183 85.776C430.756 86.4373 430.543 87.184 430.543 88.016V96.688C430.543 97.0507 430.426 97.36 430.191 97.616C429.956 97.872 429.647 98 429.263 98C428.9 98 428.591 97.872 428.335 97.616C428.1 97.36 427.983 97.0507 427.983 96.688V87.92C427.983 87.1093 427.866 86.384 427.631 85.744C427.418 85.0827 427.044 84.56 426.511 84.176C425.978 83.7707 425.242 83.568 424.303 83.568C423.45 83.568 422.671 83.7707 421.967 84.176C421.263 84.56 420.698 85.0827 420.271 85.744C419.844 86.384 419.631 87.1093 419.631 87.92V96.688C419.631 97.0507 419.503 97.36 419.247 97.616C419.012 97.872 418.714 98 418.351 98C417.988 98 417.679 97.872 417.423 97.616C417.188 97.36 417.071 97.0507 417.071 96.688V82.736C417.071 82.3733 417.188 82.0747 417.423 81.84C417.679 81.584 417.988 81.456 418.351 81.456C418.735 81.456 419.044 81.584 419.279 81.84C419.514 82.0747 419.631 82.3733 419.631 82.736V85.168L418.927 85.936C419.012 85.3813 419.226 84.8267 419.567 84.272C419.93 83.7173 420.388 83.2053 420.943 82.736C421.498 82.2667 422.116 81.8933 422.799 81.616C423.482 81.3387 424.207 81.2 424.975 81.2ZM458.768 81.456C459.152 81.456 459.461 81.584 459.696 81.84C459.93 82.0747 460.048 82.3733 460.048 82.736V91.472C460.048 93.6267 459.44 95.3013 458.224 96.496C457.029 97.6693 455.354 98.256 453.2 98.256C451.066 98.256 449.392 97.6693 448.176 96.496C446.981 95.3013 446.384 93.6267 446.384 91.472V82.736C446.384 82.3733 446.501 82.0747 446.736 81.84C446.992 81.584 447.301 81.456 447.664 81.456C448.048 81.456 448.357 81.584 448.592 81.84C448.826 82.0747 448.944 82.3733 448.944 82.736V91.472C448.944 92.9227 449.317 94.0213 450.064 94.768C450.81 95.5147 451.856 95.888 453.2 95.888C454.586 95.888 455.642 95.5147 456.368 94.768C457.114 94.0213 457.488 92.9227 457.488 91.472V82.736C457.488 82.3733 457.605 82.0747 457.84 81.84C458.096 81.584 458.405 81.456 458.768 81.456ZM481.762 81.04C483.213 81.04 484.514 81.4133 485.666 82.16C486.818 82.8853 487.725 83.888 488.386 85.168C489.069 86.448 489.41 87.9307 489.41 89.616C489.41 91.3013 489.069 92.7947 488.386 94.096C487.725 95.3973 486.818 96.432 485.666 97.2C484.536 97.9467 483.256 98.32 481.826 98.32C481.037 98.32 480.29 98.2027 479.586 97.968C478.904 97.712 478.274 97.3813 477.698 96.976C477.144 96.5493 476.674 96.0907 476.29 95.6C475.906 95.088 475.629 94.5867 475.458 94.096L476.162 93.648V96.848C476.162 97.2107 476.045 97.52 475.81 97.776C475.576 98.032 475.266 98.16 474.882 98.16C474.52 98.16 474.21 98.0427 473.954 97.808C473.72 97.552 473.602 97.232 473.602 96.848V75.632C473.602 75.2693 473.72 74.96 473.954 74.704C474.21 74.448 474.52 74.32 474.882 74.32C475.266 74.32 475.576 74.448 475.81 74.704C476.045 74.96 476.162 75.2693 476.162 75.632V85.488L475.682 85.232C475.832 84.6987 476.088 84.1867 476.45 83.696C476.834 83.184 477.293 82.736 477.826 82.352C478.381 81.9467 478.989 81.6267 479.65 81.392C480.333 81.1573 481.037 81.04 481.762 81.04ZM481.474 83.408C480.408 83.408 479.458 83.6747 478.626 84.208C477.816 84.7413 477.176 85.4773 476.706 86.416C476.258 87.3547 476.034 88.4213 476.034 89.616C476.034 90.8107 476.258 91.888 476.706 92.848C477.176 93.808 477.816 94.5653 478.626 95.12C479.458 95.6747 480.408 95.952 481.474 95.952C482.541 95.952 483.48 95.6747 484.29 95.12C485.101 94.5653 485.741 93.808 486.21 92.848C486.68 91.888 486.914 90.8107 486.914 89.616C486.914 88.4213 486.68 87.3547 486.21 86.416C485.741 85.4773 485.101 84.7413 484.29 84.208C483.48 83.6747 482.541 83.408 481.474 83.408ZM500.907 98.32C499.2 98.32 497.707 97.9573 496.427 97.232C495.147 96.5067 494.144 95.5147 493.419 94.256C492.715 92.976 492.363 91.504 492.363 89.84C492.363 87.984 492.725 86.4053 493.451 85.104C494.197 83.7813 495.157 82.7787 496.331 82.096C497.525 81.392 498.784 81.04 500.107 81.04C501.088 81.04 502.037 81.2213 502.955 81.584C503.872 81.9467 504.683 82.48 505.387 83.184C506.091 83.8667 506.656 84.6987 507.083 85.68C507.509 86.64 507.733 87.7173 507.755 88.912C507.755 89.2533 507.627 89.5413 507.371 89.776C507.115 90.0107 506.816 90.128 506.475 90.128H493.835L493.259 87.92H505.579L505.067 88.368V87.664C504.981 86.7893 504.683 86.0427 504.171 85.424C503.68 84.784 503.072 84.2933 502.347 83.952C501.643 83.6107 500.896 83.44 500.107 83.44C499.467 83.44 498.827 83.5573 498.187 83.792C497.568 84.0053 497.003 84.368 496.491 84.88C496 85.3707 495.595 86.0107 495.275 86.8C494.976 87.5893 494.827 88.5387 494.827 89.648C494.827 90.8853 495.072 91.9733 495.563 92.912C496.075 93.8507 496.779 94.5973 497.675 95.152C498.571 95.6853 499.616 95.952 500.811 95.952C501.557 95.952 502.208 95.856 502.763 95.664C503.317 95.472 503.797 95.2373 504.203 94.96C504.608 94.6613 504.949 94.3627 505.227 94.064C505.504 93.872 505.771 93.776 506.027 93.776C506.347 93.776 506.603 93.8827 506.795 94.096C507.008 94.3093 507.115 94.5653 507.115 94.864C507.115 95.2267 506.944 95.5467 506.603 95.824C506.005 96.4853 505.195 97.072 504.171 97.584C503.147 98.0747 502.059 98.32 500.907 98.32ZM512.882 98C512.52 98 512.21 97.872 511.954 97.616C511.72 97.36 511.602 97.0507 511.602 96.688V82.736C511.602 82.3733 511.72 82.0747 511.954 81.84C512.21 81.584 512.52 81.456 512.882 81.456C513.266 81.456 513.576 81.584 513.81 81.84C514.045 82.0747 514.162 82.3733 514.162 82.736V86.96L513.778 86.288C513.906 85.6267 514.13 84.9867 514.45 84.368C514.792 83.728 515.218 83.1627 515.73 82.672C516.242 82.16 516.829 81.7653 517.49 81.488C518.152 81.1893 518.877 81.04 519.666 81.04C520.136 81.04 520.562 81.1573 520.946 81.392C521.352 81.6053 521.554 81.9147 521.554 82.32C521.554 82.768 521.437 83.0987 521.202 83.312C520.968 83.5253 520.701 83.632 520.402 83.632C520.125 83.632 519.858 83.5787 519.602 83.472C519.346 83.344 519.026 83.28 518.642 83.28C518.109 83.28 517.576 83.4293 517.042 83.728C516.53 84.0053 516.05 84.4107 515.602 84.944C515.176 85.4773 514.824 86.0853 514.546 86.768C514.29 87.4293 514.162 88.144 514.162 88.912V96.688C514.162 97.0507 514.034 97.36 513.778 97.616C513.544 97.872 513.245 98 512.882 98ZM526.91 96.688C526.91 97.0507 526.782 97.36 526.526 97.616C526.291 97.872 525.993 98 525.63 98C525.246 98 524.937 97.872 524.702 97.616C524.467 97.36 524.35 97.0507 524.35 96.688V82.48C524.35 82.1173 524.467 81.8187 524.702 81.584C524.958 81.328 525.267 81.2 525.63 81.2C525.993 81.2 526.291 81.328 526.526 81.584C526.782 81.8187 526.91 82.1173 526.91 82.48V96.688ZM525.63 79.056C525.097 79.056 524.702 78.9493 524.446 78.736C524.19 78.5227 524.062 78.192 524.062 77.744V77.296C524.062 76.848 524.201 76.5173 524.478 76.304C524.755 76.0907 525.15 75.984 525.662 75.984C526.174 75.984 526.558 76.0907 526.814 76.304C527.07 76.5173 527.198 76.848 527.198 77.296V77.744C527.198 78.192 527.059 78.5227 526.782 78.736C526.526 78.9493 526.142 79.056 525.63 79.056ZM533.045 98C532.661 98 532.351 97.872 532.117 97.616C531.882 97.36 531.765 97.0507 531.765 96.688V75.6C531.765 75.2373 531.882 74.9387 532.117 74.704C532.351 74.448 532.661 74.32 533.045 74.32C533.407 74.32 533.706 74.448 533.941 74.704C534.197 74.9387 534.325 75.2373 534.325 75.6V96.688C534.325 97.0507 534.197 97.36 533.941 97.616C533.706 97.872 533.407 98 533.045 98ZM543.669 81.36C544.01 81.36 544.298 81.4987 544.533 81.776C544.789 82.032 544.917 82.2987 544.917 82.576C544.917 82.9387 544.746 83.2587 544.405 83.536L534.037 92.592L533.941 89.616L542.773 81.744C543.029 81.488 543.327 81.36 543.669 81.36ZM544.021 97.968C543.658 97.968 543.338 97.8293 543.061 97.552L536.245 90.288L538.165 88.528L544.917 95.76C545.173 96.0373 545.301 96.3573 545.301 96.72C545.301 97.104 545.151 97.4133 544.853 97.648C544.554 97.8613 544.277 97.968 544.021 97.968ZM562.516 81.296C562.878 81.296 563.177 81.424 563.412 81.68C563.668 81.9147 563.796 82.2133 563.796 82.576V96.688C563.796 97.0507 563.668 97.36 563.412 97.616C563.177 97.872 562.878 98 562.516 98C562.132 98 561.822 97.872 561.588 97.616C561.353 97.36 561.236 97.0507 561.236 96.688V93.648L561.844 93.584C561.844 94.0533 561.684 94.5653 561.364 95.12C561.044 95.6747 560.606 96.1973 560.052 96.688C559.497 97.1573 558.836 97.552 558.068 97.872C557.321 98.1707 556.51 98.32 555.636 98.32C554.185 98.32 552.884 97.9467 551.732 97.2C550.58 96.432 549.662 95.3973 548.98 94.096C548.318 92.7947 547.988 91.312 547.988 89.648C547.988 87.9627 548.318 86.48 548.98 85.2C549.662 83.8987 550.58 82.8853 551.732 82.16C552.884 81.4133 554.164 81.04 555.572 81.04C556.489 81.04 557.342 81.1893 558.132 81.488C558.921 81.7867 559.604 82.192 560.18 82.704C560.777 83.216 561.236 83.7813 561.556 84.4C561.897 85.0187 562.068 85.6373 562.068 86.256L561.236 86.064V82.576C561.236 82.2133 561.353 81.9147 561.588 81.68C561.822 81.424 562.132 81.296 562.516 81.296ZM555.924 95.952C556.99 95.952 557.929 95.6747 558.74 95.12C559.572 94.5653 560.212 93.8187 560.66 92.88C561.129 91.92 561.364 90.8427 561.364 89.648C561.364 88.4747 561.129 87.4187 560.66 86.48C560.212 85.52 559.572 84.7733 558.74 84.24C557.929 83.6853 556.99 83.408 555.924 83.408C554.878 83.408 553.94 83.6747 553.108 84.208C552.297 84.7413 551.657 85.4773 551.188 86.416C550.718 87.3547 550.484 88.432 550.484 89.648C550.484 90.8427 550.708 91.92 551.156 92.88C551.625 93.8187 552.265 94.5653 553.076 95.12C553.908 95.6747 554.857 95.952 555.924 95.952ZM576.764 81.04C578.215 81.04 579.356 81.3387 580.188 81.936C581.02 82.5333 581.607 83.3333 581.948 84.336C582.311 85.3387 582.492 86.4587 582.492 87.696V96.688C582.492 97.0507 582.364 97.36 582.108 97.616C581.873 97.872 581.575 98 581.212 98C580.849 98 580.54 97.872 580.284 97.616C580.049 97.36 579.932 97.0507 579.932 96.688V87.76C579.932 86.9493 579.804 86.224 579.548 85.584C579.313 84.9227 578.908 84.4 578.332 84.016C577.777 83.6107 577.009 83.408 576.028 83.408C575.132 83.408 574.311 83.6107 573.564 84.016C572.817 84.4 572.22 84.9227 571.772 85.584C571.324 86.224 571.1 86.9493 571.1 87.76V96.688C571.1 97.0507 570.972 97.36 570.716 97.616C570.481 97.872 570.183 98 569.82 98C569.457 98 569.148 97.872 568.892 97.616C568.657 97.36 568.54 97.0507 568.54 96.688V82.736C568.54 82.3733 568.657 82.0747 568.892 81.84C569.148 81.584 569.457 81.456 569.82 81.456C570.204 81.456 570.513 81.584 570.748 81.84C570.983 82.0747 571.1 82.3733 571.1 82.736V85.008L570.46 85.712C570.567 85.1573 570.812 84.6027 571.196 84.048C571.58 83.472 572.06 82.96 572.636 82.512C573.212 82.064 573.852 81.712 574.556 81.456C575.26 81.1787 575.996 81.04 576.764 81.04ZM597.576 98C597.192 98 596.883 97.872 596.648 97.616C596.413 97.36 596.296 97.0507 596.296 96.688V75.6C596.296 75.2373 596.413 74.9387 596.648 74.704C596.883 74.448 597.192 74.32 597.576 74.32C597.939 74.32 598.237 74.448 598.472 74.704C598.728 74.9387 598.856 75.2373 598.856 75.6V96.688C598.856 97.0507 598.728 97.36 598.472 97.616C598.237 97.872 597.939 98 597.576 98ZM608.2 81.36C608.541 81.36 608.829 81.4987 609.064 81.776C609.32 82.032 609.448 82.2987 609.448 82.576C609.448 82.9387 609.277 83.2587 608.936 83.536L598.568 92.592L598.472 89.616L607.304 81.744C607.56 81.488 607.859 81.36 608.2 81.36ZM608.552 97.968C608.189 97.968 607.869 97.8293 607.592 97.552L600.776 90.288L602.696 88.528L609.448 95.76C609.704 96.0373 609.832 96.3573 609.832 96.72C609.832 97.104 609.683 97.4133 609.384 97.648C609.085 97.8613 608.808 97.968 608.552 97.968ZM620.469 98.32C618.762 98.32 617.269 97.9573 615.989 97.232C614.709 96.5067 613.706 95.5147 612.981 94.256C612.277 92.976 611.925 91.504 611.925 89.84C611.925 87.984 612.288 86.4053 613.013 85.104C613.76 83.7813 614.72 82.7787 615.893 82.096C617.088 81.392 618.346 81.04 619.669 81.04C620.65 81.04 621.6 81.2213 622.517 81.584C623.434 81.9467 624.245 82.48 624.949 83.184C625.653 83.8667 626.218 84.6987 626.645 85.68C627.072 86.64 627.296 87.7173 627.317 88.912C627.317 89.2533 627.189 89.5413 626.933 89.776C626.677 90.0107 626.378 90.128 626.037 90.128H613.397L612.821 87.92H625.141L624.629 88.368V87.664C624.544 86.7893 624.245 86.0427 623.733 85.424C623.242 84.784 622.634 84.2933 621.909 83.952C621.205 83.6107 620.458 83.44 619.669 83.44C619.029 83.44 618.389 83.5573 617.749 83.792C617.13 84.0053 616.565 84.368 616.053 84.88C615.562 85.3707 615.157 86.0107 614.837 86.8C614.538 87.5893 614.389 88.5387 614.389 89.648C614.389 90.8853 614.634 91.9733 615.125 92.912C615.637 93.8507 616.341 94.5973 617.237 95.152C618.133 95.6853 619.178 95.952 620.373 95.952C621.12 95.952 621.77 95.856 622.325 95.664C622.88 95.472 623.36 95.2373 623.765 94.96C624.17 94.6613 624.512 94.3627 624.789 94.064C625.066 93.872 625.333 93.776 625.589 93.776C625.909 93.776 626.165 93.8827 626.357 94.096C626.57 94.3093 626.677 94.5653 626.677 94.864C626.677 95.2267 626.506 95.5467 626.165 95.824C625.568 96.4853 624.757 97.072 623.733 97.584C622.709 98.0747 621.621 98.32 620.469 98.32ZM639.325 81.2C640.776 81.2 642.077 81.5627 643.229 82.288C644.381 83.0133 645.288 84.016 645.949 85.296C646.632 86.576 646.973 88.048 646.973 89.712C646.973 91.3547 646.632 92.8267 645.949 94.128C645.288 95.408 644.381 96.4213 643.229 97.168C642.098 97.8933 640.818 98.256 639.389 98.256C638.6 98.256 637.853 98.1387 637.149 97.904C636.466 97.648 635.837 97.328 635.261 96.944C634.706 96.5387 634.237 96.0907 633.853 95.6C633.469 95.088 633.192 94.5867 633.021 94.096L633.725 93.648V103.088C633.725 103.451 633.608 103.76 633.373 104.016C633.138 104.272 632.829 104.4 632.445 104.4C632.082 104.4 631.773 104.272 631.517 104.016C631.282 103.781 631.165 103.472 631.165 103.088V82.64C631.165 82.2773 631.282 81.9787 631.517 81.744C631.773 81.488 632.082 81.36 632.445 81.36C632.829 81.36 633.138 81.488 633.373 81.744C633.608 81.9787 633.725 82.2773 633.725 82.64V85.488L633.245 85.232C633.394 84.6987 633.65 84.1867 634.013 83.696C634.397 83.2053 634.856 82.7787 635.389 82.416C635.944 82.032 636.552 81.7333 637.213 81.52C637.896 81.3067 638.6 81.2 639.325 81.2ZM639.037 83.568C637.97 83.568 637.021 83.8347 636.189 84.368C635.378 84.9013 634.738 85.6267 634.269 86.544C633.821 87.4613 633.597 88.5173 633.597 89.712C633.597 90.8853 633.821 91.9413 634.269 92.88C634.738 93.8187 635.378 94.5547 636.189 95.088C637.021 95.6213 637.97 95.888 639.037 95.888C640.104 95.888 641.042 95.6213 641.853 95.088C642.664 94.5547 643.304 93.8187 643.773 92.88C644.242 91.9413 644.477 90.8853 644.477 89.712C644.477 88.5173 644.242 87.4613 643.773 86.544C643.304 85.6267 642.664 84.9013 641.853 84.368C641.042 83.8347 640.104 83.568 639.037 83.568ZM664.453 81.296C664.816 81.296 665.114 81.424 665.349 81.68C665.605 81.9147 665.733 82.2133 665.733 82.576V96.688C665.733 97.0507 665.605 97.36 665.349 97.616C665.114 97.872 664.816 98 664.453 98C664.069 98 663.76 97.872 663.525 97.616C663.29 97.36 663.173 97.0507 663.173 96.688V93.648L663.781 93.584C663.781 94.0533 663.621 94.5653 663.301 95.12C662.981 95.6747 662.544 96.1973 661.989 96.688C661.434 97.1573 660.773 97.552 660.005 97.872C659.258 98.1707 658.448 98.32 657.573 98.32C656.122 98.32 654.821 97.9467 653.669 97.2C652.517 96.432 651.6 95.3973 650.917 94.096C650.256 92.7947 649.925 91.312 649.925 89.648C649.925 87.9627 650.256 86.48 650.917 85.2C651.6 83.8987 652.517 82.8853 653.669 82.16C654.821 81.4133 656.101 81.04 657.509 81.04C658.426 81.04 659.28 81.1893 660.069 81.488C660.858 81.7867 661.541 82.192 662.117 82.704C662.714 83.216 663.173 83.7813 663.493 84.4C663.834 85.0187 664.005 85.6373 664.005 86.256L663.173 86.064V82.576C663.173 82.2133 663.29 81.9147 663.525 81.68C663.76 81.424 664.069 81.296 664.453 81.296ZM657.861 95.952C658.928 95.952 659.866 95.6747 660.677 95.12C661.509 94.5653 662.149 93.8187 662.597 92.88C663.066 91.92 663.301 90.8427 663.301 89.648C663.301 88.4747 663.066 87.4187 662.597 86.48C662.149 85.52 661.509 84.7733 660.677 84.24C659.866 83.6853 658.928 83.408 657.861 83.408C656.816 83.408 655.877 83.6747 655.045 84.208C654.234 84.7413 653.594 85.4773 653.125 86.416C652.656 87.3547 652.421 88.432 652.421 89.648C652.421 90.8427 652.645 91.92 653.093 92.88C653.562 93.8187 654.202 94.5653 655.013 95.12C655.845 95.6747 656.794 95.952 657.861 95.952ZM684.109 74.32C684.472 74.32 684.771 74.448 685.005 74.704C685.261 74.9387 685.389 75.2373 685.389 75.6V96.688C685.389 97.0507 685.261 97.36 685.005 97.616C684.771 97.872 684.472 98 684.109 98C683.725 98 683.416 97.872 683.181 97.616C682.947 97.36 682.829 97.0507 682.829 96.688V93.648L683.437 93.424C683.437 93.936 683.277 94.48 682.957 95.056C682.637 95.6107 682.2 96.1333 681.645 96.624C681.091 97.1147 680.429 97.52 679.661 97.84C678.915 98.16 678.104 98.32 677.229 98.32C675.8 98.32 674.499 97.9467 673.325 97.2C672.173 96.4533 671.256 95.4293 670.573 94.128C669.912 92.8267 669.581 91.344 669.581 89.68C669.581 87.9947 669.912 86.5013 670.573 85.2C671.256 83.8987 672.173 82.8853 673.325 82.16C674.477 81.4133 675.757 81.04 677.165 81.04C678.061 81.04 678.904 81.1893 679.693 81.488C680.483 81.7867 681.165 82.192 681.741 82.704C682.339 83.216 682.808 83.7813 683.149 84.4C683.491 85.0187 683.661 85.6373 683.661 86.256L682.829 86.064V75.6C682.829 75.2373 682.947 74.9387 683.181 74.704C683.416 74.448 683.725 74.32 684.109 74.32ZM677.517 95.952C678.584 95.952 679.523 95.6853 680.333 95.152C681.165 94.5973 681.805 93.8507 682.253 92.912C682.723 91.952 682.957 90.8747 682.957 89.68C682.957 88.464 682.723 87.3867 682.253 86.448C681.805 85.5093 681.165 84.7733 680.333 84.24C679.523 83.6853 678.584 83.408 677.517 83.408C676.472 83.408 675.533 83.6853 674.701 84.24C673.891 84.7733 673.251 85.5093 672.781 86.448C672.312 87.3867 672.077 88.464 672.077 89.68C672.077 90.8533 672.312 91.92 672.781 92.88C673.251 93.8187 673.891 94.5653 674.701 95.12C675.533 95.6747 676.472 95.952 677.517 95.952ZM703.766 81.296C704.128 81.296 704.427 81.424 704.662 81.68C704.918 81.9147 705.046 82.2133 705.046 82.576V96.688C705.046 97.0507 704.918 97.36 704.662 97.616C704.427 97.872 704.128 98 703.766 98C703.382 98 703.072 97.872 702.838 97.616C702.603 97.36 702.486 97.0507 702.486 96.688V93.648L703.094 93.584C703.094 94.0533 702.934 94.5653 702.614 95.12C702.294 95.6747 701.856 96.1973 701.302 96.688C700.747 97.1573 700.086 97.552 699.318 97.872C698.571 98.1707 697.76 98.32 696.886 98.32C695.435 98.32 694.134 97.9467 692.982 97.2C691.83 96.432 690.912 95.3973 690.23 94.096C689.568 92.7947 689.238 91.312 689.238 89.648C689.238 87.9627 689.568 86.48 690.23 85.2C690.912 83.8987 691.83 82.8853 692.982 82.16C694.134 81.4133 695.414 81.04 696.822 81.04C697.739 81.04 698.592 81.1893 699.382 81.488C700.171 81.7867 700.854 82.192 701.43 82.704C702.027 83.216 702.486 83.7813 702.806 84.4C703.147 85.0187 703.318 85.6373 703.318 86.256L702.486 86.064V82.576C702.486 82.2133 702.603 81.9147 702.838 81.68C703.072 81.424 703.382 81.296 703.766 81.296ZM697.174 95.952C698.24 95.952 699.179 95.6747 699.99 95.12C700.822 94.5653 701.462 93.8187 701.91 92.88C702.379 91.92 702.614 90.8427 702.614 89.648C702.614 88.4747 702.379 87.4187 701.91 86.48C701.462 85.52 700.822 84.7733 699.99 84.24C699.179 83.6853 698.24 83.408 697.174 83.408C696.128 83.408 695.19 83.6747 694.358 84.208C693.547 84.7413 692.907 85.4773 692.438 86.416C691.968 87.3547 691.734 88.432 691.734 89.648C691.734 90.8427 691.958 91.92 692.406 92.88C692.875 93.8187 693.515 94.5653 694.326 95.12C695.158 95.6747 696.107 95.952 697.174 95.952ZM717.962 81.552H725.482C725.824 81.552 726.101 81.6693 726.314 81.904C726.549 82.1387 726.666 82.416 726.666 82.736C726.666 83.0773 726.549 83.3653 726.314 83.6C726.101 83.8133 725.824 83.92 725.482 83.92H717.962C717.642 83.92 717.365 83.8027 717.13 83.568C716.896 83.3333 716.778 83.0453 716.778 82.704C716.778 82.384 716.896 82.1173 717.13 81.904C717.365 81.6693 717.642 81.552 717.962 81.552ZM721.322 77.2C721.685 77.2 721.984 77.328 722.218 77.584C722.453 77.8187 722.57 78.1173 722.57 78.48V93.936C722.57 94.448 722.645 94.832 722.794 95.088C722.944 95.344 723.136 95.5253 723.37 95.632C723.626 95.7173 723.872 95.76 724.106 95.76C724.32 95.76 724.501 95.728 724.65 95.664C724.821 95.5787 725.013 95.536 725.226 95.536C725.44 95.536 725.632 95.6427 725.802 95.856C725.994 96.048 726.09 96.304 726.09 96.624C726.09 97.008 725.866 97.3387 725.418 97.616C724.97 97.872 724.469 98 723.914 98C723.616 98 723.242 97.9787 722.794 97.936C722.368 97.8933 721.941 97.7547 721.514 97.52C721.088 97.2853 720.725 96.9013 720.426 96.368C720.149 95.8133 720.01 95.0453 720.01 94.064V78.48C720.01 78.1173 720.138 77.8187 720.394 77.584C720.65 77.328 720.96 77.2 721.322 77.2ZM737.719 98.32C736.012 98.32 734.519 97.9573 733.239 97.232C731.959 96.5067 730.956 95.5147 730.231 94.256C729.527 92.976 729.175 91.504 729.175 89.84C729.175 87.984 729.538 86.4053 730.263 85.104C731.01 83.7813 731.97 82.7787 733.143 82.096C734.338 81.392 735.596 81.04 736.919 81.04C737.9 81.04 738.85 81.2213 739.767 81.584C740.684 81.9467 741.495 82.48 742.199 83.184C742.903 83.8667 743.468 84.6987 743.895 85.68C744.322 86.64 744.546 87.7173 744.567 88.912C744.567 89.2533 744.439 89.5413 744.183 89.776C743.927 90.0107 743.628 90.128 743.287 90.128H730.647L730.071 87.92H742.391L741.879 88.368V87.664C741.794 86.7893 741.495 86.0427 740.983 85.424C740.492 84.784 739.884 84.2933 739.159 83.952C738.455 83.6107 737.708 83.44 736.919 83.44C736.279 83.44 735.639 83.5573 734.999 83.792C734.38 84.0053 733.815 84.368 733.303 84.88C732.812 85.3707 732.407 86.0107 732.087 86.8C731.788 87.5893 731.639 88.5387 731.639 89.648C731.639 90.8853 731.884 91.9733 732.375 92.912C732.887 93.8507 733.591 94.5973 734.487 95.152C735.383 95.6853 736.428 95.952 737.623 95.952C738.37 95.952 739.02 95.856 739.575 95.664C740.13 95.472 740.61 95.2373 741.015 94.96C741.42 94.6613 741.762 94.3627 742.039 94.064C742.316 93.872 742.583 93.776 742.839 93.776C743.159 93.776 743.415 93.8827 743.607 94.096C743.82 94.3093 743.927 94.5653 743.927 94.864C743.927 95.2267 743.756 95.5467 743.415 95.824C742.818 96.4853 742.007 97.072 740.983 97.584C739.959 98.0747 738.871 98.32 737.719 98.32ZM756.319 81.2C757.77 81.2 758.943 81.5733 759.839 82.32C760.756 83.0453 761.364 84.08 761.663 85.424H761.183L761.407 84.848C761.663 84.2507 762.1 83.6747 762.719 83.12C763.338 82.5653 764.052 82.1067 764.863 81.744C765.674 81.3813 766.516 81.2 767.391 81.2C768.799 81.2 769.908 81.5093 770.719 82.128C771.53 82.7253 772.106 83.536 772.447 84.56C772.81 85.5627 772.991 86.6933 772.991 87.952V96.688C772.991 97.0507 772.863 97.36 772.607 97.616C772.372 97.872 772.074 98 771.711 98C771.327 98 771.018 97.872 770.783 97.616C770.548 97.36 770.431 97.0507 770.431 96.688V88.016C770.431 87.184 770.303 86.4373 770.047 85.776C769.812 85.0933 769.418 84.56 768.863 84.176C768.33 83.7707 767.594 83.568 766.655 83.568C765.78 83.568 764.98 83.7707 764.255 84.176C763.53 84.56 762.954 85.0933 762.527 85.776C762.1 86.4373 761.887 87.184 761.887 88.016V96.688C761.887 97.0507 761.77 97.36 761.535 97.616C761.3 97.872 760.991 98 760.607 98C760.244 98 759.935 97.872 759.679 97.616C759.444 97.36 759.327 97.0507 759.327 96.688V87.92C759.327 87.1093 759.21 86.384 758.975 85.744C758.762 85.0827 758.388 84.56 757.855 84.176C757.322 83.7707 756.586 83.568 755.647 83.568C754.794 83.568 754.015 83.7707 753.311 84.176C752.607 84.56 752.042 85.0827 751.615 85.744C751.188 86.384 750.975 87.1093 750.975 87.92V96.688C750.975 97.0507 750.847 97.36 750.591 97.616C750.356 97.872 750.058 98 749.695 98C749.332 98 749.023 97.872 748.767 97.616C748.532 97.36 748.415 97.0507 748.415 96.688V82.736C748.415 82.3733 748.532 82.0747 748.767 81.84C749.023 81.584 749.332 81.456 749.695 81.456C750.079 81.456 750.388 81.584 750.623 81.84C750.858 82.0747 750.975 82.3733 750.975 82.736V85.168L750.271 85.936C750.356 85.3813 750.57 84.8267 750.911 84.272C751.274 83.7173 751.732 83.2053 752.287 82.736C752.842 82.2667 753.46 81.8933 754.143 81.616C754.826 81.3387 755.551 81.2 756.319 81.2ZM791.359 81.296C791.722 81.296 792.021 81.424 792.255 81.68C792.511 81.9147 792.639 82.2133 792.639 82.576V96.688C792.639 97.0507 792.511 97.36 792.255 97.616C792.021 97.872 791.722 98 791.359 98C790.975 98 790.666 97.872 790.431 97.616C790.197 97.36 790.079 97.0507 790.079 96.688V93.648L790.687 93.584C790.687 94.0533 790.527 94.5653 790.207 95.12C789.887 95.6747 789.45 96.1973 788.895 96.688C788.341 97.1573 787.679 97.552 786.911 97.872C786.165 98.1707 785.354 98.32 784.479 98.32C783.029 98.32 781.727 97.9467 780.575 97.2C779.423 96.432 778.506 95.3973 777.823 94.096C777.162 92.7947 776.831 91.312 776.831 89.648C776.831 87.9627 777.162 86.48 777.823 85.2C778.506 83.8987 779.423 82.8853 780.575 82.16C781.727 81.4133 783.007 81.04 784.415 81.04C785.333 81.04 786.186 81.1893 786.975 81.488C787.765 81.7867 788.447 82.192 789.023 82.704C789.621 83.216 790.079 83.7813 790.399 84.4C790.741 85.0187 790.911 85.6373 790.911 86.256L790.079 86.064V82.576C790.079 82.2133 790.197 81.9147 790.431 81.68C790.666 81.424 790.975 81.296 791.359 81.296ZM784.767 95.952C785.834 95.952 786.773 95.6747 787.583 95.12C788.415 94.5653 789.055 93.8187 789.503 92.88C789.973 91.92 790.207 90.8427 790.207 89.648C790.207 88.4747 789.973 87.4187 789.503 86.48C789.055 85.52 788.415 84.7733 787.583 84.24C786.773 83.6853 785.834 83.408 784.767 83.408C783.722 83.408 782.783 83.6747 781.951 84.208C781.141 84.7413 780.501 85.4773 780.031 86.416C779.562 87.3547 779.327 88.432 779.327 89.648C779.327 90.8427 779.551 91.92 779.999 92.88C780.469 93.8187 781.109 94.5653 781.919 95.12C782.751 95.6747 783.701 95.952 784.767 95.952ZM805.608 81.04C807.058 81.04 808.2 81.3387 809.032 81.936C809.864 82.5333 810.45 83.3333 810.792 84.336C811.154 85.3387 811.336 86.4587 811.336 87.696V96.688C811.336 97.0507 811.208 97.36 810.952 97.616C810.717 97.872 810.418 98 810.056 98C809.693 98 809.384 97.872 809.128 97.616C808.893 97.36 808.776 97.0507 808.776 96.688V87.76C808.776 86.9493 808.648 86.224 808.392 85.584C808.157 84.9227 807.752 84.4 807.176 84.016C806.621 83.6107 805.853 83.408 804.872 83.408C803.976 83.408 803.154 83.6107 802.408 84.016C801.661 84.4 801.064 84.9227 800.616 85.584C800.168 86.224 799.944 86.9493 799.944 87.76V96.688C799.944 97.0507 799.816 97.36 799.56 97.616C799.325 97.872 799.026 98 798.664 98C798.301 98 797.992 97.872 797.736 97.616C797.501 97.36 797.384 97.0507 797.384 96.688V82.736C797.384 82.3733 797.501 82.0747 797.736 81.84C797.992 81.584 798.301 81.456 798.664 81.456C799.048 81.456 799.357 81.584 799.592 81.84C799.826 82.0747 799.944 82.3733 799.944 82.736V85.008L799.304 85.712C799.41 85.1573 799.656 84.6027 800.04 84.048C800.424 83.472 800.904 82.96 801.48 82.512C802.056 82.064 802.696 81.712 803.4 81.456C804.104 81.1787 804.84 81.04 805.608 81.04ZM837.268 81.2C837.63 81.2 837.929 81.328 838.164 81.584C838.42 81.8187 838.548 82.1173 838.548 82.48V96.432C838.548 98.224 838.196 99.7067 837.492 100.88C836.788 102.075 835.838 102.96 834.644 103.536C833.47 104.112 832.137 104.4 830.644 104.4C829.812 104.4 829.012 104.315 828.244 104.144C827.476 103.973 826.846 103.749 826.356 103.472C825.95 103.28 825.662 103.035 825.492 102.736C825.342 102.459 825.321 102.16 825.428 101.84C825.577 101.456 825.79 101.189 826.068 101.04C826.366 100.891 826.676 100.891 826.996 101.04C827.337 101.189 827.828 101.392 828.468 101.648C829.129 101.925 829.865 102.064 830.676 102.064C831.785 102.064 832.734 101.851 833.524 101.424C834.313 100.997 834.921 100.368 835.348 99.536C835.774 98.7253 835.988 97.712 835.988 96.496V94.224L836.372 95.024C836.03 95.6853 835.572 96.2613 834.996 96.752C834.42 97.2427 833.758 97.6267 833.012 97.904C832.265 98.1813 831.444 98.32 830.548 98.32C829.332 98.32 828.297 98.064 827.444 97.552C826.612 97.0187 825.972 96.2933 825.524 95.376C825.097 94.4373 824.884 93.36 824.884 92.144V82.48C824.884 82.1173 825.001 81.8187 825.236 81.584C825.492 81.328 825.801 81.2 826.164 81.2C826.548 81.2 826.857 81.328 827.092 81.584C827.326 81.8187 827.444 82.1173 827.444 82.48V91.568C827.444 93.0187 827.764 94.1173 828.404 94.864C829.044 95.5893 830.036 95.952 831.38 95.952C832.233 95.952 833.001 95.76 833.684 95.376C834.388 94.992 834.942 94.4693 835.348 93.808C835.774 93.1253 835.988 92.3787 835.988 91.568V82.48C835.988 82.1173 836.105 81.8187 836.34 81.584C836.574 81.328 836.884 81.2 837.268 81.2ZM856.922 81.296C857.285 81.296 857.583 81.424 857.818 81.68C858.074 81.9147 858.202 82.2133 858.202 82.576V96.688C858.202 97.0507 858.074 97.36 857.818 97.616C857.583 97.872 857.285 98 856.922 98C856.538 98 856.229 97.872 855.994 97.616C855.759 97.36 855.642 97.0507 855.642 96.688V93.648L856.25 93.584C856.25 94.0533 856.09 94.5653 855.77 95.12C855.45 95.6747 855.013 96.1973 854.458 96.688C853.903 97.1573 853.242 97.552 852.474 97.872C851.727 98.1707 850.917 98.32 850.042 98.32C848.591 98.32 847.29 97.9467 846.138 97.2C844.986 96.432 844.069 95.3973 843.386 94.096C842.725 92.7947 842.394 91.312 842.394 89.648C842.394 87.9627 842.725 86.48 843.386 85.2C844.069 83.8987 844.986 82.8853 846.138 82.16C847.29 81.4133 848.57 81.04 849.978 81.04C850.895 81.04 851.749 81.1893 852.538 81.488C853.327 81.7867 854.01 82.192 854.586 82.704C855.183 83.216 855.642 83.7813 855.962 84.4C856.303 85.0187 856.474 85.6373 856.474 86.256L855.642 86.064V82.576C855.642 82.2133 855.759 81.9147 855.994 81.68C856.229 81.424 856.538 81.296 856.922 81.296ZM850.33 95.952C851.397 95.952 852.335 95.6747 853.146 95.12C853.978 94.5653 854.618 93.8187 855.066 92.88C855.535 91.92 855.77 90.8427 855.77 89.648C855.77 88.4747 855.535 87.4187 855.066 86.48C854.618 85.52 853.978 84.7733 853.146 84.24C852.335 83.6853 851.397 83.408 850.33 83.408C849.285 83.408 848.346 83.6747 847.514 84.208C846.703 84.7413 846.063 85.4773 845.594 86.416C845.125 87.3547 844.89 88.432 844.89 89.648C844.89 90.8427 845.114 91.92 845.562 92.88C846.031 93.8187 846.671 94.5653 847.482 95.12C848.314 95.6747 849.263 95.952 850.33 95.952ZM871.17 81.04C872.621 81.04 873.762 81.3387 874.594 81.936C875.426 82.5333 876.013 83.3333 876.354 84.336C876.717 85.3387 876.898 86.4587 876.898 87.696V96.688C876.898 97.0507 876.77 97.36 876.514 97.616C876.279 97.872 875.981 98 875.618 98C875.255 98 874.946 97.872 874.69 97.616C874.455 97.36 874.338 97.0507 874.338 96.688V87.76C874.338 86.9493 874.21 86.224 873.954 85.584C873.719 84.9227 873.314 84.4 872.738 84.016C872.183 83.6107 871.415 83.408 870.434 83.408C869.538 83.408 868.717 83.6107 867.97 84.016C867.223 84.4 866.626 84.9227 866.178 85.584C865.73 86.224 865.506 86.9493 865.506 87.76V96.688C865.506 97.0507 865.378 97.36 865.122 97.616C864.887 97.872 864.589 98 864.226 98C863.863 98 863.554 97.872 863.298 97.616C863.063 97.36 862.946 97.0507 862.946 96.688V82.736C862.946 82.3733 863.063 82.0747 863.298 81.84C863.554 81.584 863.863 81.456 864.226 81.456C864.61 81.456 864.919 81.584 865.154 81.84C865.389 82.0747 865.506 82.3733 865.506 82.736V85.008L864.866 85.712C864.973 85.1573 865.218 84.6027 865.602 84.048C865.986 83.472 866.466 82.96 867.042 82.512C867.618 82.064 868.258 81.712 868.962 81.456C869.666 81.1787 870.402 81.04 871.17 81.04ZM888.578 81.04C889.495 81.04 890.348 81.2 891.138 81.52C891.927 81.8187 892.61 82.2133 893.186 82.704C893.783 83.1947 894.242 83.7067 894.562 84.24C894.903 84.7733 895.074 85.2747 895.074 85.744L894.466 85.36V82.576C894.466 82.2133 894.583 81.9147 894.818 81.68C895.052 81.424 895.362 81.296 895.746 81.296C896.108 81.296 896.407 81.424 896.642 81.68C896.898 81.9147 897.026 82.2133 897.026 82.576V96.592C897.026 98.3413 896.652 99.792 895.906 100.944C895.18 102.096 894.199 102.96 892.962 103.536C891.724 104.112 890.338 104.4 888.802 104.4C888.162 104.4 887.458 104.315 886.69 104.144C885.922 103.973 885.239 103.76 884.642 103.504C884.044 103.269 883.66 103.024 883.49 102.768C883.17 102.555 882.967 102.309 882.882 102.032C882.818 101.776 882.871 101.531 883.042 101.296C883.234 100.997 883.479 100.848 883.778 100.848C884.098 100.848 884.492 100.944 884.962 101.136C885.154 101.2 885.452 101.307 885.858 101.456C886.284 101.605 886.754 101.733 887.266 101.84C887.799 101.968 888.322 102.032 888.834 102.032C890.647 102.032 892.034 101.552 892.994 100.592C893.975 99.6533 894.466 98.4053 894.466 96.848V93.872L894.818 94.032C894.69 94.6293 894.423 95.184 894.018 95.696C893.634 96.208 893.154 96.6667 892.578 97.072C892.023 97.456 891.404 97.7653 890.722 98C890.039 98.2133 889.346 98.32 888.642 98.32C887.148 98.32 885.804 97.9467 884.61 97.2C883.415 96.4533 882.466 95.4293 881.762 94.128C881.079 92.8267 880.738 91.344 880.738 89.68C880.738 87.9947 881.079 86.5013 881.762 85.2C882.466 83.8987 883.404 82.8853 884.578 82.16C885.772 81.4133 887.106 81.04 888.578 81.04ZM888.898 83.408C887.81 83.408 886.828 83.6853 885.954 84.24C885.1 84.7733 884.428 85.5093 883.938 86.448C883.468 87.3867 883.234 88.464 883.234 89.68C883.234 90.8533 883.468 91.92 883.938 92.88C884.428 93.8187 885.1 94.5653 885.954 95.12C886.828 95.6747 887.81 95.952 888.898 95.952C890.007 95.952 890.988 95.6853 891.842 95.152C892.695 94.5973 893.367 93.8507 893.858 92.912C894.348 91.9733 894.594 90.896 894.594 89.68C894.594 88.4427 894.348 87.3547 893.858 86.416C893.367 85.4773 892.695 84.7413 891.842 84.208C890.988 83.6747 890.007 83.408 888.898 83.408ZM323.928 121.2C325.379 121.2 326.552 121.573 327.448 122.32C328.366 123.045 328.974 124.08 329.272 125.424H328.792L329.016 124.848C329.272 124.251 329.71 123.675 330.328 123.12C330.947 122.565 331.662 122.107 332.472 121.744C333.283 121.381 334.126 121.2 335 121.2C336.408 121.2 337.518 121.509 338.328 122.128C339.139 122.725 339.715 123.536 340.056 124.56C340.419 125.563 340.6 126.693 340.6 127.952V136.688C340.6 137.051 340.472 137.36 340.216 137.616C339.982 137.872 339.683 138 339.32 138C338.936 138 338.627 137.872 338.392 137.616C338.158 137.36 338.04 137.051 338.04 136.688V128.016C338.04 127.184 337.912 126.437 337.656 125.776C337.422 125.093 337.027 124.56 336.472 124.176C335.939 123.771 335.203 123.568 334.264 123.568C333.39 123.568 332.59 123.771 331.864 124.176C331.139 124.56 330.563 125.093 330.136 125.776C329.71 126.437 329.496 127.184 329.496 128.016V136.688C329.496 137.051 329.379 137.36 329.144 137.616C328.91 137.872 328.6 138 328.216 138C327.854 138 327.544 137.872 327.288 137.616C327.054 137.36 326.936 137.051 326.936 136.688V127.92C326.936 127.109 326.819 126.384 326.584 125.744C326.371 125.083 325.998 124.56 325.464 124.176C324.931 123.771 324.195 123.568 323.256 123.568C322.403 123.568 321.624 123.771 320.92 124.176C320.216 124.56 319.651 125.083 319.224 125.744C318.798 126.384 318.584 127.109 318.584 127.92V136.688C318.584 137.051 318.456 137.36 318.2 137.616C317.966 137.872 317.667 138 317.304 138C316.942 138 316.632 137.872 316.376 137.616C316.142 137.36 316.024 137.051 316.024 136.688V122.736C316.024 122.373 316.142 122.075 316.376 121.84C316.632 121.584 316.942 121.456 317.304 121.456C317.688 121.456 317.998 121.584 318.232 121.84C318.467 122.075 318.584 122.373 318.584 122.736V125.168L317.88 125.936C317.966 125.381 318.179 124.827 318.52 124.272C318.883 123.717 319.342 123.205 319.896 122.736C320.451 122.267 321.07 121.893 321.752 121.616C322.435 121.339 323.16 121.2 323.928 121.2ZM352.985 138.32C351.278 138.32 349.785 137.957 348.505 137.232C347.225 136.507 346.222 135.515 345.497 134.256C344.793 132.976 344.441 131.504 344.441 129.84C344.441 127.984 344.803 126.405 345.529 125.104C346.275 123.781 347.235 122.779 348.409 122.096C349.603 121.392 350.862 121.04 352.185 121.04C353.166 121.04 354.115 121.221 355.033 121.584C355.95 121.947 356.761 122.48 357.465 123.184C358.169 123.867 358.734 124.699 359.161 125.68C359.587 126.64 359.811 127.717 359.833 128.912C359.833 129.253 359.705 129.541 359.449 129.776C359.193 130.011 358.894 130.128 358.553 130.128H345.913L345.337 127.92H357.657L357.145 128.368V127.664C357.059 126.789 356.761 126.043 356.249 125.424C355.758 124.784 355.15 124.293 354.425 123.952C353.721 123.611 352.974 123.44 352.185 123.44C351.545 123.44 350.905 123.557 350.265 123.792C349.646 124.005 349.081 124.368 348.569 124.88C348.078 125.371 347.673 126.011 347.353 126.8C347.054 127.589 346.905 128.539 346.905 129.648C346.905 130.885 347.15 131.973 347.641 132.912C348.153 133.851 348.857 134.597 349.753 135.152C350.649 135.685 351.694 135.952 352.889 135.952C353.635 135.952 354.286 135.856 354.841 135.664C355.395 135.472 355.875 135.237 356.281 134.96C356.686 134.661 357.027 134.363 357.305 134.064C357.582 133.872 357.849 133.776 358.105 133.776C358.425 133.776 358.681 133.883 358.873 134.096C359.086 134.309 359.193 134.565 359.193 134.864C359.193 135.227 359.022 135.547 358.681 135.824C358.083 136.485 357.273 137.072 356.249 137.584C355.225 138.075 354.137 138.32 352.985 138.32ZM371.905 121.04C373.355 121.04 374.497 121.339 375.329 121.936C376.161 122.533 376.747 123.333 377.089 124.336C377.451 125.339 377.633 126.459 377.633 127.696V136.688C377.633 137.051 377.505 137.36 377.249 137.616C377.014 137.872 376.715 138 376.353 138C375.99 138 375.681 137.872 375.425 137.616C375.19 137.36 375.073 137.051 375.073 136.688V127.76C375.073 126.949 374.945 126.224 374.689 125.584C374.454 124.923 374.049 124.4 373.473 124.016C372.918 123.611 372.15 123.408 371.169 123.408C370.273 123.408 369.451 123.611 368.705 124.016C367.958 124.4 367.361 124.923 366.913 125.584C366.465 126.224 366.241 126.949 366.241 127.76V136.688C366.241 137.051 366.113 137.36 365.857 137.616C365.622 137.872 365.323 138 364.961 138C364.598 138 364.289 137.872 364.033 137.616C363.798 137.36 363.681 137.051 363.681 136.688V122.736C363.681 122.373 363.798 122.075 364.033 121.84C364.289 121.584 364.598 121.456 364.961 121.456C365.345 121.456 365.654 121.584 365.889 121.84C366.123 122.075 366.241 122.373 366.241 122.736V125.008L365.601 125.712C365.707 125.157 365.953 124.603 366.337 124.048C366.721 123.472 367.201 122.96 367.777 122.512C368.353 122.064 368.993 121.712 369.697 121.456C370.401 121.179 371.137 121.04 371.905 121.04ZM385.376 139.088C385.376 140.176 385.131 141.104 384.64 141.872C384.171 142.64 383.573 143.237 382.848 143.664C382.123 144.091 381.365 144.304 380.576 144.304C380.213 144.304 379.925 144.187 379.712 143.952C379.477 143.717 379.36 143.44 379.36 143.12V142.896C379.36 142.576 379.467 142.32 379.68 142.128C379.893 141.936 380.16 141.797 380.48 141.712C380.971 141.584 381.387 141.381 381.728 141.104C382.069 140.848 382.336 140.496 382.528 140.048C382.72 139.621 382.816 139.109 382.816 138.512V122.736C382.816 122.373 382.933 122.064 383.168 121.808C383.424 121.552 383.733 121.424 384.096 121.424C384.48 121.424 384.789 121.552 385.024 121.808C385.259 122.064 385.376 122.373 385.376 122.736V139.088ZM384.096 119.056C383.563 119.056 383.168 118.949 382.912 118.736C382.656 118.523 382.528 118.192 382.528 117.744V117.296C382.528 116.848 382.667 116.517 382.944 116.304C383.221 116.091 383.616 115.984 384.128 115.984C384.64 115.984 385.024 116.091 385.28 116.304C385.536 116.517 385.664 116.848 385.664 117.296V117.744C385.664 118.192 385.525 118.523 385.248 118.736C384.992 118.949 384.608 119.056 384.096 119.056ZM404.719 121.296C405.081 121.296 405.38 121.424 405.615 121.68C405.871 121.915 405.999 122.213 405.999 122.576V136.688C405.999 137.051 405.871 137.36 405.615 137.616C405.38 137.872 405.081 138 404.719 138C404.335 138 404.025 137.872 403.791 137.616C403.556 137.36 403.439 137.051 403.439 136.688V133.648L404.047 133.584C404.047 134.053 403.887 134.565 403.567 135.12C403.247 135.675 402.809 136.197 402.255 136.688C401.7 137.157 401.039 137.552 400.271 137.872C399.524 138.171 398.713 138.32 397.839 138.32C396.388 138.32 395.087 137.947 393.935 137.2C392.783 136.432 391.865 135.397 391.183 134.096C390.521 132.795 390.191 131.312 390.191 129.648C390.191 127.963 390.521 126.48 391.183 125.2C391.865 123.899 392.783 122.885 393.935 122.16C395.087 121.413 396.367 121.04 397.775 121.04C398.692 121.04 399.545 121.189 400.335 121.488C401.124 121.787 401.807 122.192 402.383 122.704C402.98 123.216 403.439 123.781 403.759 124.4C404.1 125.019 404.271 125.637 404.271 126.256L403.439 126.064V122.576C403.439 122.213 403.556 121.915 403.791 121.68C404.025 121.424 404.335 121.296 404.719 121.296ZM398.127 135.952C399.193 135.952 400.132 135.675 400.943 135.12C401.775 134.565 402.415 133.819 402.863 132.88C403.332 131.92 403.567 130.843 403.567 129.648C403.567 128.475 403.332 127.419 402.863 126.48C402.415 125.52 401.775 124.773 400.943 124.24C400.132 123.685 399.193 123.408 398.127 123.408C397.081 123.408 396.143 123.675 395.311 124.208C394.5 124.741 393.86 125.477 393.391 126.416C392.921 127.355 392.687 128.432 392.687 129.648C392.687 130.843 392.911 131.92 393.359 132.88C393.828 133.819 394.468 134.565 395.279 135.12C396.111 135.675 397.06 135.952 398.127 135.952ZM424.375 114.32C424.738 114.32 425.036 114.448 425.271 114.704C425.527 114.939 425.655 115.237 425.655 115.6V136.688C425.655 137.051 425.527 137.36 425.271 137.616C425.036 137.872 424.738 138 424.375 138C423.991 138 423.682 137.872 423.447 137.616C423.212 137.36 423.095 137.051 423.095 136.688V133.648L423.703 133.424C423.703 133.936 423.543 134.48 423.223 135.056C422.903 135.611 422.466 136.133 421.911 136.624C421.356 137.115 420.695 137.52 419.927 137.84C419.18 138.16 418.37 138.32 417.495 138.32C416.066 138.32 414.764 137.947 413.591 137.2C412.439 136.453 411.522 135.429 410.839 134.128C410.178 132.827 409.847 131.344 409.847 129.68C409.847 127.995 410.178 126.501 410.839 125.2C411.522 123.899 412.439 122.885 413.591 122.16C414.743 121.413 416.023 121.04 417.431 121.04C418.327 121.04 419.17 121.189 419.959 121.488C420.748 121.787 421.431 122.192 422.007 122.704C422.604 123.216 423.074 123.781 423.415 124.4C423.756 125.019 423.927 125.637 423.927 126.256L423.095 126.064V115.6C423.095 115.237 423.212 114.939 423.447 114.704C423.682 114.448 423.991 114.32 424.375 114.32ZM417.783 135.952C418.85 135.952 419.788 135.685 420.599 135.152C421.431 134.597 422.071 133.851 422.519 132.912C422.988 131.952 423.223 130.875 423.223 129.68C423.223 128.464 422.988 127.387 422.519 126.448C422.071 125.509 421.431 124.773 420.599 124.24C419.788 123.685 418.85 123.408 417.783 123.408C416.738 123.408 415.799 123.685 414.967 124.24C414.156 124.773 413.516 125.509 413.047 126.448C412.578 127.387 412.343 128.464 412.343 129.68C412.343 130.853 412.578 131.92 413.047 132.88C413.516 133.819 414.156 134.565 414.967 135.12C415.799 135.675 416.738 135.952 417.783 135.952ZM432.863 136.688C432.863 137.051 432.735 137.36 432.479 137.616C432.245 137.872 431.946 138 431.583 138C431.199 138 430.89 137.872 430.655 137.616C430.421 137.36 430.303 137.051 430.303 136.688V122.48C430.303 122.117 430.421 121.819 430.655 121.584C430.911 121.328 431.221 121.2 431.583 121.2C431.946 121.2 432.245 121.328 432.479 121.584C432.735 121.819 432.863 122.117 432.863 122.48V136.688ZM431.583 119.056C431.05 119.056 430.655 118.949 430.399 118.736C430.143 118.523 430.015 118.192 430.015 117.744V117.296C430.015 116.848 430.154 116.517 430.431 116.304C430.709 116.091 431.103 115.984 431.615 115.984C432.127 115.984 432.511 116.091 432.767 116.304C433.023 116.517 433.151 116.848 433.151 117.296V117.744C433.151 118.192 433.013 118.523 432.735 118.736C432.479 118.949 432.095 119.056 431.583 119.056ZM447.81 138C447.426 138 447.117 137.872 446.882 137.616C446.648 137.36 446.53 137.051 446.53 136.688V115.6C446.53 115.237 446.648 114.939 446.882 114.704C447.117 114.448 447.426 114.32 447.81 114.32C448.173 114.32 448.472 114.448 448.706 114.704C448.962 114.939 449.09 115.237 449.09 115.6V136.688C449.09 137.051 448.962 137.36 448.706 137.616C448.472 137.872 448.173 138 447.81 138ZM458.434 121.36C458.776 121.36 459.064 121.499 459.298 121.776C459.554 122.032 459.682 122.299 459.682 122.576C459.682 122.939 459.512 123.259 459.17 123.536L448.802 132.592L448.706 129.616L457.538 121.744C457.794 121.488 458.093 121.36 458.434 121.36ZM458.786 137.968C458.424 137.968 458.104 137.829 457.826 137.552L451.01 130.288L452.93 128.528L459.682 135.76C459.938 136.037 460.066 136.357 460.066 136.72C460.066 137.104 459.917 137.413 459.618 137.648C459.32 137.861 459.042 137.968 458.786 137.968ZM478.767 129.68C478.767 131.344 478.394 132.827 477.648 134.128C476.922 135.429 475.93 136.453 474.672 137.2C473.434 137.947 472.037 138.32 470.48 138.32C468.922 138.32 467.514 137.947 466.256 137.2C464.997 136.453 463.994 135.429 463.248 134.128C462.522 132.827 462.16 131.344 462.16 129.68C462.16 128.016 462.522 126.533 463.248 125.232C463.994 123.931 464.997 122.907 466.256 122.16C467.514 121.413 468.922 121.04 470.48 121.04C472.037 121.04 473.434 121.413 474.672 122.16C475.93 122.907 476.922 123.931 477.648 125.232C478.394 126.533 478.767 128.016 478.767 129.68ZM476.208 129.68C476.208 128.443 475.952 127.355 475.44 126.416C474.949 125.477 474.266 124.741 473.392 124.208C472.538 123.675 471.568 123.408 470.48 123.408C469.392 123.408 468.41 123.675 467.536 124.208C466.682 124.741 466 125.477 465.488 126.416C464.976 127.355 464.72 128.443 464.72 129.68C464.72 130.896 464.976 131.973 465.488 132.912C466 133.851 466.682 134.597 467.536 135.152C468.41 135.685 469.392 135.952 470.48 135.952C471.568 135.952 472.538 135.685 473.392 135.152C474.266 134.597 474.949 133.851 475.44 132.912C475.952 131.973 476.208 130.896 476.208 129.68ZM483.898 138C483.535 138 483.226 137.872 482.97 137.616C482.735 137.36 482.618 137.051 482.618 136.688V122.736C482.618 122.373 482.735 122.075 482.97 121.84C483.226 121.584 483.535 121.456 483.898 121.456C484.282 121.456 484.591 121.584 484.826 121.84C485.061 122.075 485.178 122.373 485.178 122.736V126.96L484.794 126.288C484.922 125.627 485.146 124.987 485.466 124.368C485.807 123.728 486.234 123.163 486.746 122.672C487.258 122.16 487.845 121.765 488.506 121.488C489.167 121.189 489.893 121.04 490.682 121.04C491.151 121.04 491.578 121.157 491.962 121.392C492.367 121.605 492.57 121.915 492.57 122.32C492.57 122.768 492.453 123.099 492.218 123.312C491.983 123.525 491.717 123.632 491.418 123.632C491.141 123.632 490.874 123.579 490.618 123.472C490.362 123.344 490.042 123.28 489.658 123.28C489.125 123.28 488.591 123.429 488.058 123.728C487.546 124.005 487.066 124.411 486.618 124.944C486.191 125.477 485.839 126.085 485.562 126.768C485.306 127.429 485.178 128.144 485.178 128.912V136.688C485.178 137.051 485.05 137.36 484.794 137.616C484.559 137.872 484.261 138 483.898 138ZM503.622 121.04C505.072 121.04 506.374 121.413 507.526 122.16C508.678 122.885 509.584 123.888 510.246 125.168C510.928 126.448 511.27 127.931 511.27 129.616C511.27 131.301 510.928 132.795 510.246 134.096C509.584 135.397 508.678 136.432 507.526 137.2C506.395 137.947 505.115 138.32 503.686 138.32C502.896 138.32 502.15 138.203 501.446 137.968C500.763 137.712 500.134 137.381 499.558 136.976C499.003 136.549 498.534 136.091 498.15 135.6C497.766 135.088 497.488 134.587 497.318 134.096L498.022 133.648V136.848C498.022 137.211 497.904 137.52 497.67 137.776C497.435 138.032 497.126 138.16 496.742 138.16C496.379 138.16 496.07 138.043 495.814 137.808C495.579 137.552 495.462 137.232 495.462 136.848V115.632C495.462 115.269 495.579 114.96 495.814 114.704C496.07 114.448 496.379 114.32 496.742 114.32C497.126 114.32 497.435 114.448 497.67 114.704C497.904 114.96 498.022 115.269 498.022 115.632V125.488L497.542 125.232C497.691 124.699 497.947 124.187 498.31 123.696C498.694 123.184 499.152 122.736 499.686 122.352C500.24 121.947 500.848 121.627 501.51 121.392C502.192 121.157 502.896 121.04 503.622 121.04ZM503.334 123.408C502.267 123.408 501.318 123.675 500.486 124.208C499.675 124.741 499.035 125.477 498.566 126.416C498.118 127.355 497.894 128.421 497.894 129.616C497.894 130.811 498.118 131.888 498.566 132.848C499.035 133.808 499.675 134.565 500.486 135.12C501.318 135.675 502.267 135.952 503.334 135.952C504.4 135.952 505.339 135.675 506.15 135.12C506.96 134.565 507.6 133.808 508.07 132.848C508.539 131.888 508.774 130.811 508.774 129.616C508.774 128.421 508.539 127.355 508.07 126.416C507.6 125.477 506.96 124.741 506.15 124.208C505.339 123.675 504.4 123.408 503.334 123.408ZM528.75 121.296C529.113 121.296 529.411 121.424 529.646 121.68C529.902 121.915 530.03 122.213 530.03 122.576V136.688C530.03 137.051 529.902 137.36 529.646 137.616C529.411 137.872 529.113 138 528.75 138C528.366 138 528.057 137.872 527.822 137.616C527.587 137.36 527.47 137.051 527.47 136.688V133.648L528.078 133.584C528.078 134.053 527.918 134.565 527.598 135.12C527.278 135.675 526.841 136.197 526.286 136.688C525.731 137.157 525.07 137.552 524.302 137.872C523.555 138.171 522.745 138.32 521.87 138.32C520.419 138.32 519.118 137.947 517.966 137.2C516.814 136.432 515.897 135.397 515.214 134.096C514.553 132.795 514.222 131.312 514.222 129.648C514.222 127.963 514.553 126.48 515.214 125.2C515.897 123.899 516.814 122.885 517.966 122.16C519.118 121.413 520.398 121.04 521.806 121.04C522.723 121.04 523.577 121.189 524.366 121.488C525.155 121.787 525.838 122.192 526.414 122.704C527.011 123.216 527.47 123.781 527.79 124.4C528.131 125.019 528.302 125.637 528.302 126.256L527.47 126.064V122.576C527.47 122.213 527.587 121.915 527.822 121.68C528.057 121.424 528.366 121.296 528.75 121.296ZM522.158 135.952C523.225 135.952 524.163 135.675 524.974 135.12C525.806 134.565 526.446 133.819 526.894 132.88C527.363 131.92 527.598 130.843 527.598 129.648C527.598 128.475 527.363 127.419 526.894 126.48C526.446 125.52 525.806 124.773 524.974 124.24C524.163 123.685 523.225 123.408 522.158 123.408C521.113 123.408 520.174 123.675 519.342 124.208C518.531 124.741 517.891 125.477 517.422 126.416C516.953 127.355 516.718 128.432 516.718 129.648C516.718 130.843 516.942 131.92 517.39 132.88C517.859 133.819 518.499 134.565 519.31 135.12C520.142 135.675 521.091 135.952 522.158 135.952ZM542.998 121.04C544.449 121.04 545.59 121.339 546.422 121.936C547.254 122.533 547.841 123.333 548.182 124.336C548.545 125.339 548.726 126.459 548.726 127.696V136.688C548.726 137.051 548.598 137.36 548.342 137.616C548.108 137.872 547.809 138 547.446 138C547.084 138 546.774 137.872 546.518 137.616C546.284 137.36 546.166 137.051 546.166 136.688V127.76C546.166 126.949 546.038 126.224 545.782 125.584C545.548 124.923 545.142 124.4 544.566 124.016C544.012 123.611 543.244 123.408 542.262 123.408C541.366 123.408 540.545 123.611 539.798 124.016C539.052 124.4 538.454 124.923 538.006 125.584C537.558 126.224 537.334 126.949 537.334 127.76V136.688C537.334 137.051 537.206 137.36 536.95 137.616C536.716 137.872 536.417 138 536.054 138C535.692 138 535.382 137.872 535.126 137.616C534.892 137.36 534.774 137.051 534.774 136.688V122.736C534.774 122.373 534.892 122.075 535.126 121.84C535.382 121.584 535.692 121.456 536.054 121.456C536.438 121.456 536.748 121.584 536.982 121.84C537.217 122.075 537.334 122.373 537.334 122.736V125.008L536.694 125.712C536.801 125.157 537.046 124.603 537.43 124.048C537.814 123.472 538.294 122.96 538.87 122.512C539.446 122.064 540.086 121.712 540.79 121.456C541.494 121.179 542.23 121.04 542.998 121.04ZM570.434 121.04C571.885 121.04 573.186 121.413 574.338 122.16C575.49 122.885 576.397 123.888 577.058 125.168C577.741 126.448 578.082 127.931 578.082 129.616C578.082 131.301 577.741 132.795 577.058 134.096C576.397 135.397 575.49 136.432 574.338 137.2C573.208 137.947 571.928 138.32 570.498 138.32C569.709 138.32 568.962 138.203 568.258 137.968C567.576 137.712 566.946 137.381 566.37 136.976C565.816 136.549 565.346 136.091 564.962 135.6C564.578 135.088 564.301 134.587 564.13 134.096L564.834 133.648V136.848C564.834 137.211 564.717 137.52 564.482 137.776C564.248 138.032 563.938 138.16 563.554 138.16C563.192 138.16 562.882 138.043 562.626 137.808C562.392 137.552 562.274 137.232 562.274 136.848V115.632C562.274 115.269 562.392 114.96 562.626 114.704C562.882 114.448 563.192 114.32 563.554 114.32C563.938 114.32 564.248 114.448 564.482 114.704C564.717 114.96 564.834 115.269 564.834 115.632V125.488L564.354 125.232C564.504 124.699 564.76 124.187 565.122 123.696C565.506 123.184 565.965 122.736 566.498 122.352C567.053 121.947 567.661 121.627 568.322 121.392C569.005 121.157 569.709 121.04 570.434 121.04ZM570.146 123.408C569.08 123.408 568.13 123.675 567.298 124.208C566.488 124.741 565.848 125.477 565.378 126.416C564.93 127.355 564.706 128.421 564.706 129.616C564.706 130.811 564.93 131.888 565.378 132.848C565.848 133.808 566.488 134.565 567.298 135.12C568.13 135.675 569.08 135.952 570.146 135.952C571.213 135.952 572.152 135.675 572.962 135.12C573.773 134.565 574.413 133.808 574.882 132.848C575.352 131.888 575.586 130.811 575.586 129.616C575.586 128.421 575.352 127.355 574.882 126.416C574.413 125.477 573.773 124.741 572.962 124.208C572.152 123.675 571.213 123.408 570.146 123.408ZM594.315 121.456C594.699 121.456 595.008 121.584 595.243 121.84C595.477 122.075 595.595 122.373 595.595 122.736V131.472C595.595 133.627 594.987 135.301 593.771 136.496C592.576 137.669 590.901 138.256 588.747 138.256C586.613 138.256 584.939 137.669 583.723 136.496C582.528 135.301 581.931 133.627 581.931 131.472V122.736C581.931 122.373 582.048 122.075 582.283 121.84C582.539 121.584 582.848 121.456 583.211 121.456C583.595 121.456 583.904 121.584 584.139 121.84C584.373 122.075 584.491 122.373 584.491 122.736V131.472C584.491 132.923 584.864 134.021 585.611 134.768C586.357 135.515 587.403 135.888 588.747 135.888C590.133 135.888 591.189 135.515 591.915 134.768C592.661 134.021 593.035 132.923 593.035 131.472V122.736C593.035 122.373 593.152 122.075 593.387 121.84C593.643 121.584 593.952 121.456 594.315 121.456ZM603.153 136.688C603.153 137.051 603.025 137.36 602.769 137.616C602.513 137.872 602.203 138 601.841 138C601.478 138 601.179 137.872 600.945 137.616C600.71 137.36 600.593 137.051 600.593 136.688V115.6C600.593 115.237 600.71 114.939 600.945 114.704C601.201 114.448 601.51 114.32 601.873 114.32C602.257 114.32 602.566 114.448 602.801 114.704C603.035 114.939 603.153 115.237 603.153 115.6V136.688ZM610.934 136.688C610.934 137.051 610.806 137.36 610.55 137.616C610.294 137.872 609.985 138 609.622 138C609.259 138 608.961 137.872 608.726 137.616C608.491 137.36 608.374 137.051 608.374 136.688V115.6C608.374 115.237 608.491 114.939 608.726 114.704C608.982 114.448 609.291 114.32 609.654 114.32C610.038 114.32 610.347 114.448 610.582 114.704C610.817 114.939 610.934 115.237 610.934 115.6V136.688ZM627.815 121.2C628.177 121.2 628.476 121.328 628.711 121.584C628.967 121.819 629.095 122.117 629.095 122.48V136.432C629.095 138.224 628.743 139.707 628.039 140.88C627.335 142.075 626.385 142.96 625.191 143.536C624.017 144.112 622.684 144.4 621.191 144.4C620.359 144.4 619.559 144.315 618.791 144.144C618.023 143.973 617.393 143.749 616.903 143.472C616.497 143.28 616.209 143.035 616.039 142.736C615.889 142.459 615.868 142.16 615.975 141.84C616.124 141.456 616.337 141.189 616.615 141.04C616.913 140.891 617.223 140.891 617.543 141.04C617.884 141.189 618.375 141.392 619.015 141.648C619.676 141.925 620.412 142.064 621.223 142.064C622.332 142.064 623.281 141.851 624.071 141.424C624.86 140.997 625.468 140.368 625.895 139.536C626.321 138.725 626.535 137.712 626.535 136.496V134.224L626.919 135.024C626.577 135.685 626.119 136.261 625.543 136.752C624.967 137.243 624.305 137.627 623.559 137.904C622.812 138.181 621.991 138.32 621.095 138.32C619.879 138.32 618.844 138.064 617.991 137.552C617.159 137.019 616.519 136.293 616.071 135.376C615.644 134.437 615.431 133.36 615.431 132.144V122.48C615.431 122.117 615.548 121.819 615.783 121.584C616.039 121.328 616.348 121.2 616.711 121.2C617.095 121.2 617.404 121.328 617.639 121.584C617.873 121.819 617.991 122.117 617.991 122.48V131.568C617.991 133.019 618.311 134.117 618.951 134.864C619.591 135.589 620.583 135.952 621.927 135.952C622.78 135.952 623.548 135.76 624.231 135.376C624.935 134.992 625.489 134.469 625.895 133.808C626.321 133.125 626.535 132.379 626.535 131.568V122.48C626.535 122.117 626.652 121.819 626.887 121.584C627.121 121.328 627.431 121.2 627.815 121.2ZM636.301 136.688C636.301 137.051 636.173 137.36 635.917 137.616C635.682 137.872 635.383 138 635.021 138C634.637 138 634.327 137.872 634.093 137.616C633.858 137.36 633.741 137.051 633.741 136.688V122.48C633.741 122.117 633.858 121.819 634.093 121.584C634.349 121.328 634.658 121.2 635.021 121.2C635.383 121.2 635.682 121.328 635.917 121.584C636.173 121.819 636.301 122.117 636.301 122.48V136.688ZM635.021 119.056C634.487 119.056 634.093 118.949 633.837 118.736C633.581 118.523 633.453 118.192 633.453 117.744V117.296C633.453 116.848 633.591 116.517 633.869 116.304C634.146 116.091 634.541 115.984 635.053 115.984C635.565 115.984 635.949 116.091 636.205 116.304C636.461 116.517 636.589 116.848 636.589 117.296V117.744C636.589 118.192 636.45 118.523 636.173 118.736C635.917 118.949 635.533 119.056 635.021 119.056ZM649.123 121.04C650.574 121.04 651.715 121.339 652.547 121.936C653.379 122.533 653.966 123.333 654.307 124.336C654.67 125.339 654.851 126.459 654.851 127.696V136.688C654.851 137.051 654.723 137.36 654.467 137.616C654.233 137.872 653.934 138 653.571 138C653.209 138 652.899 137.872 652.643 137.616C652.409 137.36 652.291 137.051 652.291 136.688V127.76C652.291 126.949 652.163 126.224 651.907 125.584C651.673 124.923 651.267 124.4 650.691 124.016C650.137 123.611 649.369 123.408 648.387 123.408C647.491 123.408 646.67 123.611 645.923 124.016C645.177 124.4 644.579 124.923 644.131 125.584C643.683 126.224 643.459 126.949 643.459 127.76V136.688C643.459 137.051 643.331 137.36 643.075 137.616C642.841 137.872 642.542 138 642.179 138C641.817 138 641.507 137.872 641.251 137.616C641.017 137.36 640.899 137.051 640.899 136.688V122.736C640.899 122.373 641.017 122.075 641.251 121.84C641.507 121.584 641.817 121.456 642.179 121.456C642.563 121.456 642.873 121.584 643.107 121.84C643.342 122.075 643.459 122.373 643.459 122.736V125.008L642.819 125.712C642.926 125.157 643.171 124.603 643.555 124.048C643.939 123.472 644.419 122.96 644.995 122.512C645.571 122.064 646.211 121.712 646.915 121.456C647.619 121.179 648.355 121.04 649.123 121.04ZM666.531 121.04C667.448 121.04 668.301 121.2 669.091 121.52C669.88 121.819 670.563 122.213 671.139 122.704C671.736 123.195 672.195 123.707 672.515 124.24C672.856 124.773 673.027 125.275 673.027 125.744L672.419 125.36V122.576C672.419 122.213 672.536 121.915 672.771 121.68C673.005 121.424 673.315 121.296 673.699 121.296C674.061 121.296 674.36 121.424 674.595 121.68C674.851 121.915 674.979 122.213 674.979 122.576V136.592C674.979 138.341 674.605 139.792 673.859 140.944C673.133 142.096 672.152 142.96 670.915 143.536C669.677 144.112 668.291 144.4 666.755 144.4C666.115 144.4 665.411 144.315 664.643 144.144C663.875 143.973 663.192 143.76 662.595 143.504C661.997 143.269 661.613 143.024 661.443 142.768C661.123 142.555 660.92 142.309 660.835 142.032C660.771 141.776 660.824 141.531 660.995 141.296C661.187 140.997 661.432 140.848 661.731 140.848C662.051 140.848 662.445 140.944 662.915 141.136C663.107 141.2 663.405 141.307 663.811 141.456C664.237 141.605 664.707 141.733 665.219 141.84C665.752 141.968 666.275 142.032 666.787 142.032C668.6 142.032 669.987 141.552 670.947 140.592C671.928 139.653 672.419 138.405 672.419 136.848V133.872L672.771 134.032C672.643 134.629 672.376 135.184 671.971 135.696C671.587 136.208 671.107 136.667 670.531 137.072C669.976 137.456 669.357 137.765 668.675 138C667.992 138.213 667.299 138.32 666.595 138.32C665.101 138.32 663.757 137.947 662.563 137.2C661.368 136.453 660.419 135.429 659.715 134.128C659.032 132.827 658.691 131.344 658.691 129.68C658.691 127.995 659.032 126.501 659.715 125.2C660.419 123.899 661.357 122.885 662.531 122.16C663.725 121.413 665.059 121.04 666.531 121.04ZM666.851 123.408C665.763 123.408 664.781 123.685 663.907 124.24C663.053 124.773 662.381 125.509 661.891 126.448C661.421 127.387 661.187 128.464 661.187 129.68C661.187 130.853 661.421 131.92 661.891 132.88C662.381 133.819 663.053 134.565 663.907 135.12C664.781 135.675 665.763 135.952 666.851 135.952C667.96 135.952 668.941 135.685 669.795 135.152C670.648 134.597 671.32 133.851 671.811 132.912C672.301 131.973 672.547 130.896 672.547 129.68C672.547 128.443 672.301 127.355 671.811 126.416C671.32 125.477 670.648 124.741 669.795 124.208C668.941 123.675 667.96 123.408 666.851 123.408Z" fill="white"/>
</svg>
