<svg width="973" height="830" viewBox="0 0 973 830" fill="none" xmlns="http://www.w3.org/2000/svg">
<path d="M957.876 40.2218C958.21 209.369 960.913 727.301 957.178 815.139C906.397 826.439 904.762 817.06 853.225 814.911L26.1783 780.381C20.8137 780.16 14.9596 779.705 10.9127 775.16C7.21477 770.956 5.95436 764.308 4.9804 758.082C-3.38419 704.4 39.9856 78.6544 41.3502 27.2481C98.1783 15.7939 173.913 16.6241 231.559 16.5973C291.85 16.5973 337.147 12.42 397.402 13.5179C516.376 15.6868 635.303 20.0851 754.189 26.7192C822.105 30.5752 890.001 35.0738 957.876 40.2218Z" fill="#116D4F"/>
<path d="M578.429 239.099C587.825 267.222 609.002 285.525 629.892 300.252C654.319 317.457 680.033 332.185 702.262 353.761C724.491 375.337 743.476 405.314 747.752 440.721C753.997 492.576 728.189 541.257 701.424 580.881C674.663 620.512 644.226 661.094 638.236 713.002C636.892 724.55 637.148 737.45 642.981 746.4C648.293 754.554 656.924 757.453 664.997 759.829C745.976 783.675 827.903 799.166 910.793 806.309C915.674 806.737 920.752 807.085 925.262 804.635C934.986 799.36 938.023 783.882 939.71 770.507C963.054 586.511 965.773 399.336 968.439 212.944C969.2 160.44 969.856 107.28 959.007 56.777C957.955 51.7763 956.611 46.6216 953.465 43.4752C950.747 41.2058 947.778 39.8803 944.554 39.4987C867.694 22.7159 790.288 14.9638 712.335 16.2491C686.819 16.644 652.47 11.7237 630.96 33.7482C615.288 49.8282 609.142 78.025 600.991 100.478C585.512 143.088 562.325 190.839 578.429 239.099Z" fill="#15664C"/>
<path d="M867.345 62.5009C900.621 69.4296 927.637 72.5024 961.377 70.4539C961.903 46.9766 961.262 40.0479 961.767 16.5975C824.71 14.7431 25.5015 -13.4068 25.1109 17.1196C24.663 51.9238 34.8348 42.1232 51.9703 38.7492C83.9598 32.2222 174.496 35.6966 206.762 33.6213C334.173 25.4742 833.986 55.5789 867.345 62.5009Z" fill="#CD924C"/>
<path d="M959.882 783.407C959.882 799.434 959.491 805.01 955.074 822.59C795.147 845.09 646.793 804.736 485.892 805.814C452.09 806.034 9.56917 793.308 5.50668 775.307C-2.46728 739.653 10.4077 733.253 25.5588 733.226C94.5015 733.226 199.876 751.181 268.824 752.854C344.772 754.702 877.574 786.259 959.882 783.407Z" fill="#CD924C"/>
<path d="M942.085 270.148C942.085 482.199 941.189 629.737 915.538 790.63C913.788 801.562 909.705 798.757 915.012 807.688C920.325 816.611 950.116 810.339 957.179 812.688C976.783 616.241 972.054 431.616 968.653 233.643C967.7 178.213 968.788 71.1299 961.71 16.4701C935.085 17.1195 935.085 17.1195 933.819 48.6969C931.934 96.1334 942.085 223.119 942.085 270.148Z" fill="#CD924C"/>
<path d="M41.7778 779.009C25.9861 771.88 21.882 770.855 5.5278 775.307C-9.08158 777.804 22.658 114.784 12.8195 41.7482C9.9028 20.1186 14.4132 14.2477 42.9861 10.3448C59.3611 8.12228 51.6007 47.2778 50.6059 65.3527C47.3976 123.48 36.9913 470.873 37.8872 586.411C38.0434 605.838 32.7934 775.079 41.7778 779.009Z" fill="#CD924C"/>
<path d="M24.038 154.388C22.0953 159.161 19.663 163.687 18.6161 168.915C17.9651 172.844 17.7203 176.821 17.8921 180.838C18.2046 211.625 18.5015 242.413 18.788 273.2C19.0015 295.379 19.2151 317.557 20.7359 339.655C22.564 367.538 26.314 395.815 22.1369 423.269C18.9234 444.296 11.163 463.843 8.03277 484.897C4.63173 507.698 6.80881 531.202 7.2359 554.432C7.64735 576.456 6.47548 598.461 5.75673 620.492C4.06402 671.892 -9.4516 786.955 11.9807 779.009C11.9807 755.056 7.91819 726.826 7.91819 702.873C7.91819 668.042 7.91819 633.017 12.5849 598.689C15.5432 576.811 20.3661 554.579 17.2151 532.729C15.4807 521.328 11.5953 510.403 11.3974 498.801C10.9338 474.648 25.8296 454.772 30.8453 431.543C36.4703 406.017 29.8921 379.039 26.6838 352.857C22.5796 319.358 24.0796 285.176 25.5953 251.323L28.0849 195.666C28.4859 180.456 29.7255 165.367 31.7984 150.385C34.1734 135.383 38.2984 120.38 37.9078 105.03C37.6369 94.3526 35.2046 84.0031 33.4911 73.5531C31.4234 60.7601 30.439 47.8333 30.538 34.7725C30.6317 24.4229 38.9182 14.2475 47.2046 9.76891C24.2567 13.9931 20.7359 37.6712 23.7671 60.8539C27.7567 91.2531 35.8869 125.16 24.038 154.388Z" fill="#AA762A"/>
<path d="M29.5639 729.002C30.1472 721.497 31.2566 713.049 27.6212 706.997C24.3139 701.374 21.1212 665.847 23.9441 660.719C34.0587 642.316 34.366 618.216 34.2879 595.71C34.2879 570.586 34.116 545.234 30.0691 520.706C29.4962 517.854 29.1525 514.962 29.0379 512.03C29.1525 508.408 29.6316 504.88 30.4754 501.426C33.3972 486.912 35.6889 472.238 37.3452 457.397C34.2722 470.049 32.3243 484.201 28.0639 496.251C25.965 502.202 19.5066 506.949 20.5587 513.402C37.3816 615.512 13.9441 668.417 13.9441 668.417C13.1108 671.611 12.5222 674.884 12.1837 678.225C11.84 681.565 11.7566 684.919 11.9233 688.28C12.09 691.64 12.5066 694.954 13.1733 698.214C13.84 701.474 14.7462 704.614 15.892 707.647C18.2462 713.899 20.2097 720.152 20.2097 724.249C20.1785 737.892 21.1941 751.401 23.2618 764.783C23.9233 769.081 20.7931 778.005 23.0118 781.359C25.2254 784.706 53.2514 786.707 58.7566 786.005C53.1368 770.259 28.2045 746.28 29.5639 729.002Z" fill="#AA762A"/>
<path d="M53.7567 767.582C63.9286 773.633 76.5536 770.534 85.3609 761.657C89.6994 757.306 93.689 751.455 99.1317 750.652C104.58 749.855 109.809 754.554 115.293 754.253C118.257 753.831 121.059 752.72 123.694 750.926C129.746 747.405 149.371 746.802 155.418 743.301C145.418 739.351 125.017 736.279 116.517 738.026C111.6 739.03 106.658 740.027 101.814 741.601C94.5432 743.977 87.4807 747.679 80.0119 748.703C72.5484 749.728 64.6682 741.855 59.9234 734.377C58.7775 732.577 40.2411 726.404 37.7723 732.075C33.8244 741.005 46.8921 763.478 53.7567 767.582Z" fill="#AA762A"/>
<path d="M184.689 784.833C196.861 782.704 208.98 779.504 221.272 779.21C247.663 778.554 273.163 791.307 299.454 794.212C323.845 797.01 348.35 791.333 372.095 783.608C384.798 779.484 398.392 774.785 410.72 780.509C416.85 783.36 422.1 788.582 427.855 792.485C458.158 813.037 499.272 796.836 532.996 804.588C397.788 812.233 313.694 804.434 286.329 801.757C212.246 794.56 127.918 793.282 65.8555 786.761C79.4701 768.405 99.9492 778.058 115.428 783.233C137.642 790.811 162.204 788.756 184.689 784.833Z" fill="#AA762A"/>
<path d="M893.58 785.081C879.325 783.005 794.72 778.433 794.72 778.433C789.705 777.784 738.085 777.134 733.319 776.579C552.981 755.579 372.121 744.687 190.757 743.904C158.434 743.904 138.767 778.032 183.465 769.409C213.861 763.531 246.168 748.503 276.215 764.757C284.595 769.282 292.241 776.104 300.991 779.283C334.793 791.534 370.288 746.079 403.33 761.383C415.002 766.832 424.356 779.357 436.397 783.434C457.788 790.63 478.481 769.208 500.46 765.928C521.272 762.808 541.184 776.083 561.705 781.58C587.71 788.555 614.606 782.932 641.153 781.231C677.851 778.882 859.799 795.009 901.455 796.234C906.726 796.381 914.059 799.962 912.408 806.382C911.95 807.627 911.314 808.705 910.512 809.609C909.705 810.519 908.793 811.189 907.778 811.611C896.731 817.937 884.127 817.508 872.09 816.31C860.049 815.112 847.799 813.184 835.778 810.633C829.163 809.234 822.262 807.661 815.84 810.111C812.653 811.336 809.757 813.512 806.663 815.112C797.481 819.838 787.215 819.236 777.491 818.586C760.746 817.462 743.882 816.337 727.564 811.336C720.038 809.033 712.668 805.907 705.064 804.059C692.517 801.007 679.642 801.562 666.866 801.984C626.507 803.611 585.549 805.512 546.283 793.362C529.71 788.361 512.205 780.636 496.121 787.859C498.496 793.683 503.903 796.334 509.054 796.709C514.21 797.084 519.267 795.732 524.361 795.859C528.929 796.106 533.429 796.937 537.861 798.362C562.231 805.184 586.83 811.811 611.767 811.986C629.835 812.113 647.845 808.832 665.892 809.234C714.512 810.312 762.632 838.04 810.668 827.691C819.575 825.763 828.424 822.563 837.429 823.165C843.127 823.895 848.746 825.16 854.293 826.961C873.877 832.162 891.246 828.815 911.22 827.316C972.871 822.589 907.814 787.036 893.58 785.081Z" fill="#AA762A"/>
<path d="M954.319 203.291C952.064 191.388 951.382 177.317 949.809 165.24C948.309 153.913 953.074 136.882 954.434 125.535C957.392 100.733 952.918 84.405 955.876 59.629C956.538 54.1262 957.158 48.3222 955.678 43.1006C954.199 37.8722 949.845 33.5744 945.663 35.1476C945.059 41.7751 919.522 13.344 933.642 71.1032L933.876 93.1546C936.21 117.208 946.481 138.683 944.496 162.79C943.814 171.064 942.882 179.465 944.012 187.793C945.043 195.291 947.746 202.34 949.397 209.717C956.632 242.045 942.824 275.979 943.678 309.732C943.991 321.909 946.246 333.885 947.085 346.035C947.632 356.077 947.705 366.132 947.298 376.187L945.606 443.292C944.923 470.498 940.043 503.3 939.168 530.379C937.767 573.886 922.772 729.799 926.527 710.224C929.033 696.748 935.22 680.073 939.303 667.567C947.803 641.714 949.126 613.042 950.33 585.059C953.908 501.774 957.491 418.214 952.548 335.03C951.46 316.808 949.96 298.525 951.012 280.303C952.548 254.523 959.085 228.422 954.319 203.291Z" fill="#AA762A"/>
<path d="M971.996 424.668C970.538 376.388 971.762 329.654 969.121 291.429C963.033 319.459 959.762 388.565 959.762 388.565C962.7 420.243 961.944 452.296 961.147 484.201L960.038 530.406C959.356 558.281 958.658 586.183 955.991 613.865C952.668 648.066 946.377 681.344 937.127 713.698C932.575 729.678 927.246 745.55 925.71 762.454C924.174 779.357 926.991 797.961 936.621 809.636C938.392 811.811 940.882 813.813 943.137 812.635C947.028 810.633 945.47 803.182 943.621 798.336C942.064 794.219 940.799 789.954 939.83 785.549C938.856 781.144 938.189 776.666 937.83 772.114C937.47 767.555 937.418 762.996 937.684 758.43C937.95 753.865 938.522 749.366 939.403 744.928C942.903 727.549 951.069 712.226 954.96 694.921C957.205 684.056 958.606 673.017 959.163 661.797C962.325 620.124 965.491 578.451 968.653 536.779C971.752 499.504 972.866 462.136 971.996 424.668Z" fill="#AA762A"/>
<path d="M952.762 769.483C952.715 770.842 952.897 772.147 953.309 773.406C953.829 774.785 952.079 818.412 955.074 822.59C957.428 825.937 968.809 716.45 967.001 682.094C955.465 694.345 952.449 752.131 952.762 769.483Z" fill="#AA762A"/>
<path d="M956.048 147.513C957.429 151.409 959.726 154.709 960.97 158.713C962.132 163.191 962.58 167.783 962.314 172.49C962.137 198.879 960.606 225.141 957.72 251.269C957.257 255.5 956.788 260.026 958.226 263.774C959.668 267.523 966.241 282.827 968.83 280.129C970.147 279.326 966.397 99.3533 965.95 85.4022C962.293 93.2548 961.71 103.403 959.533 112.059C956.809 123.306 951.887 135.711 956.048 147.513Z" fill="#AA762A"/>
<path d="M357.278 30.4479C393.455 27.248 429.59 21.7987 465.84 22.1C498.455 22.3745 530.934 27.2948 563.397 31.3449C613.965 37.6243 664.804 41.7748 715.663 41.9221C749.366 41.9221 783.054 40.3221 816.793 38.6485C842.778 37.3498 869.21 35.9507 893.793 25.0455L747.054 26.0229C706.793 26.2974 666.512 26.5451 626.293 24.7978C603.658 23.8204 580.981 22.1736 558.746 16.7244C543.366 12.922 528.215 7.31875 512.637 5.19663C495.366 2.69292 477.939 4.76818 460.647 6.69617L385.012 15.1713C372.913 16.5235 360.663 17.9227 349.304 23.3987C343.897 25.8957 338.569 29.5241 332.809 29.5709C326.741 29.5709 321.142 25.7953 315.309 23.3719C294.981 14.8232 273.085 23.72 251.825 26.7994C185.293 36.4461 116.246 -13.0791 51.0954 9.2936C47.8246 10.4183 47.0121 15.4725 47.2048 19.7971C47.3975 24.1217 50.4704 26.1233 53.2725 27.2948C71.6527 35.375 103.392 35.221 122.705 32.4696C114.674 28.9751 99.6006 27.1944 88.1423 24.5501C87.8037 24.4698 87.4808 24.3225 87.1787 24.1016C86.8766 23.8807 86.611 23.6062 86.3819 23.2715C86.1527 22.9368 85.9756 22.5619 85.8454 22.1468C85.7152 21.7385 85.6423 21.3033 85.6266 20.8615C85.611 20.4197 85.6527 19.9779 85.7516 19.5561C85.8558 19.1277 86.0069 18.7327 86.21 18.3712C86.4131 18.0097 86.6579 17.7085 86.9444 17.4541C87.2256 17.1997 87.5381 17.0122 87.8714 16.8984C91.7569 16.1955 95.6423 16.1286 99.5433 16.6976C107.163 17.1729 114.741 18.1771 122.278 19.6967C141.038 23.0305 159.84 25.8154 178.679 28.0446C216.465 32.4094 254.325 34.3173 292.262 33.775C313.976 33.4738 335.653 32.3625 357.278 30.4479Z" fill="#AA762A"/>
<path d="M961.71 16.5972H943.699C936.205 17.8022 928.986 20.3193 922.043 24.1418C915.1 27.971 908.705 32.9516 902.856 39.0971C898.965 43.2476 895.194 48.0006 890.47 50.3503C886.439 52.0173 882.309 52.7804 878.08 52.6264C861.08 53.249 815.475 55.4515 798.455 56.0741C819.85 65.0245 871.173 69.4495 893.366 64.9241C901.689 63.2036 910.288 59.6489 915.772 51.4281C917.408 48.5362 919.163 45.7781 921.043 43.1472C923.809 40.2619 926.903 38.1665 930.319 36.8477C941.444 31.5257 953.288 40.1749 964.47 45.2024L961.71 16.5972Z" fill="#AA762A"/>
<path d="M283.876 7.72038C288.684 6.743 293.507 6.56894 298.345 7.19822C306.632 8.69776 342.595 8.59735 349.731 3.02091C338.548 -0.754726 301.809 -0.00495254 290.741 0.195879C271.778 0.543987 185.486 2.09709 179.376 4.99576C186.397 16.1687 218.725 13.1696 229.632 13.0223C247.788 12.4466 265.866 10.6793 283.876 7.72038Z" fill="#AA762A"/>
<path d="M106.617 96.4369C106.959 96.4369 107.247 96.5542 107.481 96.7889C107.716 97.0235 107.833 97.3115 107.833 97.6529C107.833 97.9942 107.716 98.2822 107.481 98.5169C107.247 98.7302 106.959 98.8369 106.617 98.8369H95.0014C94.6174 98.8369 94.2974 98.7302 94.0414 98.5169C93.8067 98.2822 93.6894 97.9729 93.6894 97.5889C93.6894 97.2475 93.8174 96.9382 94.0734 96.6609L101.305 88.7569C102.372 87.6049 103.172 86.5275 103.705 85.5249C104.26 84.5009 104.537 83.5942 104.537 82.8049C104.537 81.5035 104.143 80.4689 103.353 79.7009C102.585 78.9115 101.551 78.5169 100.249 78.5169C99.6734 78.5169 99.0974 78.6449 98.5214 78.9009C97.9454 79.1355 97.4227 79.4662 96.9534 79.8929C96.484 80.2982 96.1 80.7569 95.8014 81.2689C95.6307 81.5462 95.4494 81.7275 95.2574 81.8129C95.0867 81.8769 94.9054 81.9089 94.7134 81.9089C94.3934 81.9089 94.1054 81.8022 93.8494 81.5889C93.5934 81.3542 93.4654 81.0875 93.4654 80.7889C93.4654 80.5542 93.5294 80.3409 93.6574 80.1489C93.7854 79.9355 93.956 79.7009 94.1694 79.4449C94.6174 78.8262 95.172 78.2715 95.8334 77.7809C96.516 77.2689 97.252 76.8635 98.0414 76.5649C98.852 76.2662 99.6414 76.1169 100.409 76.1169C101.775 76.1169 102.959 76.3835 103.961 76.9169C104.985 77.4502 105.775 78.2075 106.329 79.1889C106.884 80.1702 107.161 81.3222 107.161 82.6449C107.161 83.7755 106.82 85.0235 106.137 86.3889C105.455 87.7542 104.452 89.1409 103.129 90.5489L97.5294 96.7569L97.2094 96.4369H106.617ZM112.62 98.8049C112.172 98.8049 111.82 98.6769 111.564 98.4209C111.33 98.1649 111.212 97.8129 111.212 97.3649V96.7249C111.212 96.2555 111.33 95.8929 111.564 95.6369C111.82 95.3809 112.172 95.2529 112.62 95.2529H112.876C113.346 95.2529 113.698 95.3809 113.932 95.6369C114.167 95.8929 114.284 96.2555 114.284 96.7249V97.3649C114.284 97.8129 114.167 98.1649 113.932 98.4209C113.698 98.6769 113.346 98.8049 112.876 98.8049H112.62ZM137.801 76.4369C138.163 76.4369 138.473 76.5649 138.729 76.8209C138.985 77.0555 139.113 77.3649 139.113 77.7489V97.5249C139.113 97.8875 138.974 98.1969 138.697 98.4529C138.441 98.7089 138.131 98.8369 137.769 98.8369C137.363 98.8369 137.043 98.7089 136.809 98.4529C136.574 98.1969 136.457 97.8875 136.457 97.5249V77.7489C136.457 77.3649 136.585 77.0555 136.841 76.8209C137.097 76.5649 137.417 76.4369 137.801 76.4369ZM152.553 76.4369C152.937 76.4369 153.246 76.5649 153.481 76.8209C153.737 77.0555 153.865 77.3649 153.865 77.7489V97.5249C153.865 97.8875 153.737 98.1969 153.481 98.4529C153.225 98.7089 152.905 98.8369 152.521 98.8369C152.158 98.8369 151.849 98.7089 151.593 98.4529C151.337 98.1969 151.209 97.8875 151.209 97.5249V77.7489C151.209 77.3649 151.337 77.0555 151.593 76.8209C151.87 76.5649 152.19 76.4369 152.553 76.4369ZM137.673 86.1969H152.585L152.553 88.6929H137.577L137.673 86.1969ZM172.672 82.1329C173.035 82.1329 173.333 82.2609 173.568 82.5169C173.824 82.7515 173.952 83.0502 173.952 83.4129V97.5249C173.952 97.8875 173.824 98.1969 173.568 98.4529C173.333 98.7089 173.035 98.8369 172.672 98.8369C172.288 98.8369 171.979 98.7089 171.744 98.4529C171.509 98.1969 171.392 97.8875 171.392 97.5249V94.4849L172 94.4209C172 94.8902 171.84 95.4022 171.52 95.9569C171.2 96.5115 170.763 97.0342 170.208 97.5249C169.653 97.9942 168.992 98.3889 168.224 98.7089C167.477 99.0075 166.667 99.1569 165.792 99.1569C164.341 99.1569 163.04 98.7835 161.888 98.0369C160.736 97.2689 159.819 96.2342 159.136 94.9329C158.475 93.6315 158.144 92.1489 158.144 90.4849C158.144 88.7995 158.475 87.3169 159.136 86.0369C159.819 84.7355 160.736 83.7222 161.888 82.9969C163.04 82.2502 164.32 81.8769 165.728 81.8769C166.645 81.8769 167.499 82.0262 168.288 82.3249C169.077 82.6235 169.76 83.0289 170.336 83.5409C170.933 84.0529 171.392 84.6182 171.712 85.2369C172.053 85.8555 172.224 86.4742 172.224 87.0929L171.392 86.9009V83.4129C171.392 83.0502 171.509 82.7515 171.744 82.5169C171.979 82.2609 172.288 82.1329 172.672 82.1329ZM166.08 96.7889C167.147 96.7889 168.085 96.5115 168.896 95.9569C169.728 95.4022 170.368 94.6555 170.816 93.7169C171.285 92.7569 171.52 91.6795 171.52 90.4849C171.52 89.3115 171.285 88.2555 170.816 87.3169C170.368 86.3569 169.728 85.6102 168.896 85.0769C168.085 84.5222 167.147 84.2449 166.08 84.2449C165.035 84.2449 164.096 84.5115 163.264 85.0449C162.453 85.5782 161.813 86.3142 161.344 87.2529C160.875 88.1915 160.64 89.2689 160.64 90.4849C160.64 91.6795 160.864 92.7569 161.312 93.7169C161.781 94.6555 162.421 95.4022 163.232 95.9569C164.064 96.5115 165.013 96.7889 166.08 96.7889ZM181.512 97.5249C181.512 97.8875 181.384 98.1969 181.128 98.4529C180.872 98.7089 180.563 98.8369 180.2 98.8369C179.837 98.8369 179.539 98.7089 179.304 98.4529C179.069 98.1969 178.952 97.8875 178.952 97.5249V76.4369C178.952 76.0742 179.069 75.7755 179.304 75.5409C179.56 75.2849 179.869 75.1569 180.232 75.1569C180.616 75.1569 180.925 75.2849 181.16 75.5409C181.395 75.7755 181.512 76.0742 181.512 76.4369V97.5249ZM207.674 82.0369C208.037 82.0369 208.335 82.1649 208.57 82.4209C208.826 82.6555 208.954 82.9542 208.954 83.3169V97.2689C208.954 99.0609 208.602 100.544 207.898 101.717C207.194 102.912 206.245 103.797 205.05 104.373C203.877 104.949 202.543 105.237 201.05 105.237C200.218 105.237 199.418 105.152 198.65 104.981C197.882 104.81 197.253 104.586 196.762 104.309C196.357 104.117 196.069 103.872 195.898 103.573C195.749 103.296 195.727 102.997 195.834 102.677C195.983 102.293 196.197 102.026 196.474 101.877C196.773 101.728 197.082 101.728 197.402 101.877C197.743 102.026 198.234 102.229 198.874 102.485C199.535 102.762 200.271 102.901 201.082 102.901C202.191 102.901 203.141 102.688 203.93 102.261C204.719 101.834 205.327 101.205 205.754 100.373C206.181 99.5622 206.394 98.5489 206.394 97.3329V95.0609L206.778 95.8609C206.437 96.5222 205.978 97.0982 205.402 97.5889C204.826 98.0795 204.165 98.4635 203.418 98.7409C202.671 99.0182 201.85 99.1569 200.954 99.1569C199.738 99.1569 198.703 98.9009 197.85 98.3889C197.018 97.8555 196.378 97.1302 195.93 96.2129C195.503 95.2742 195.29 94.1969 195.29 92.9809V83.3169C195.29 82.9542 195.407 82.6555 195.642 82.4209C195.898 82.1649 196.207 82.0369 196.57 82.0369C196.954 82.0369 197.263 82.1649 197.498 82.4209C197.733 82.6555 197.85 82.9542 197.85 83.3169V92.4049C197.85 93.8555 198.17 94.9542 198.81 95.7009C199.45 96.4262 200.442 96.7889 201.786 96.7889C202.639 96.7889 203.407 96.5969 204.09 96.2129C204.794 95.8289 205.349 95.3062 205.754 94.6449C206.181 93.9622 206.394 93.2155 206.394 92.4049V83.3169C206.394 82.9542 206.511 82.6555 206.746 82.4209C206.981 82.1649 207.29 82.0369 207.674 82.0369ZM227.328 82.1329C227.691 82.1329 227.989 82.2609 228.224 82.5169C228.48 82.7515 228.608 83.0502 228.608 83.4129V97.5249C228.608 97.8875 228.48 98.1969 228.224 98.4529C227.989 98.7089 227.691 98.8369 227.328 98.8369C226.944 98.8369 226.635 98.7089 226.4 98.4529C226.165 98.1969 226.048 97.8875 226.048 97.5249V94.4849L226.656 94.4209C226.656 94.8902 226.496 95.4022 226.176 95.9569C225.856 96.5115 225.419 97.0342 224.864 97.5249C224.309 97.9942 223.648 98.3889 222.88 98.7089C222.133 99.0075 221.323 99.1569 220.448 99.1569C218.997 99.1569 217.696 98.7835 216.544 98.0369C215.392 97.2689 214.475 96.2342 213.792 94.9329C213.131 93.6315 212.8 92.1489 212.8 90.4849C212.8 88.7995 213.131 87.3169 213.792 86.0369C214.475 84.7355 215.392 83.7222 216.544 82.9969C217.696 82.2502 218.976 81.8769 220.384 81.8769C221.301 81.8769 222.155 82.0262 222.944 82.3249C223.733 82.6235 224.416 83.0289 224.992 83.5409C225.589 84.0529 226.048 84.6182 226.368 85.2369C226.709 85.8555 226.88 86.4742 226.88 87.0929L226.048 86.9009V83.4129C226.048 83.0502 226.165 82.7515 226.4 82.5169C226.635 82.2609 226.944 82.1329 227.328 82.1329ZM220.736 96.7889C221.803 96.7889 222.741 96.5115 223.552 95.9569C224.384 95.4022 225.024 94.6555 225.472 93.7169C225.941 92.7569 226.176 91.6795 226.176 90.4849C226.176 89.3115 225.941 88.2555 225.472 87.3169C225.024 86.3569 224.384 85.6102 223.552 85.0769C222.741 84.5222 221.803 84.2449 220.736 84.2449C219.691 84.2449 218.752 84.5115 217.92 85.0449C217.109 85.5782 216.469 86.3142 216 87.2529C215.531 88.1915 215.296 89.2689 215.296 90.4849C215.296 91.6795 215.52 92.7569 215.968 93.7169C216.437 94.6555 217.077 95.4022 217.888 95.9569C218.72 96.5115 219.669 96.7889 220.736 96.7889ZM241.576 81.8769C243.027 81.8769 244.168 82.1755 245 82.7729C245.832 83.3702 246.419 84.1702 246.76 85.1729C247.123 86.1755 247.304 87.2955 247.304 88.5329V97.5249C247.304 97.8875 247.176 98.1969 246.92 98.4529C246.686 98.7089 246.387 98.8369 246.024 98.8369C245.662 98.8369 245.352 98.7089 245.096 98.4529C244.862 98.1969 244.744 97.8875 244.744 97.5249V88.5969C244.744 87.7862 244.616 87.0609 244.36 86.4209C244.126 85.7595 243.72 85.2369 243.144 84.8529C242.59 84.4475 241.822 84.2449 240.84 84.2449C239.944 84.2449 239.123 84.4475 238.376 84.8529C237.63 85.2369 237.032 85.7595 236.584 86.4209C236.136 87.0609 235.912 87.7862 235.912 88.5969V97.5249C235.912 97.8875 235.784 98.1969 235.528 98.4529C235.294 98.7089 234.995 98.8369 234.632 98.8369C234.27 98.8369 233.96 98.7089 233.704 98.4529C233.47 98.1969 233.352 97.8875 233.352 97.5249V83.5729C233.352 83.2102 233.47 82.9115 233.704 82.6769C233.96 82.4209 234.27 82.2929 234.632 82.2929C235.016 82.2929 235.326 82.4209 235.56 82.6769C235.795 82.9115 235.912 83.2102 235.912 83.5729V85.8449L235.272 86.5489C235.379 85.9942 235.624 85.4395 236.008 84.8849C236.392 84.3089 236.872 83.7969 237.448 83.3489C238.024 82.9009 238.664 82.5489 239.368 82.2929C240.072 82.0155 240.808 81.8769 241.576 81.8769ZM258.984 81.8769C259.901 81.8769 260.755 82.0369 261.544 82.3569C262.333 82.6555 263.016 83.0502 263.592 83.5409C264.189 84.0315 264.648 84.5435 264.968 85.0769C265.309 85.6102 265.48 86.1115 265.48 86.5809L264.872 86.1969V83.4129C264.872 83.0502 264.989 82.7515 265.224 82.5169C265.459 82.2609 265.768 82.1329 266.152 82.1329C266.515 82.1329 266.813 82.2609 267.048 82.5169C267.304 82.7515 267.432 83.0502 267.432 83.4129V97.4289C267.432 99.1782 267.059 100.629 266.312 101.781C265.587 102.933 264.605 103.797 263.368 104.373C262.131 104.949 260.744 105.237 259.208 105.237C258.568 105.237 257.864 105.152 257.096 104.981C256.328 104.81 255.645 104.597 255.048 104.341C254.451 104.106 254.067 103.861 253.896 103.605C253.576 103.392 253.373 103.146 253.288 102.869C253.224 102.613 253.277 102.368 253.448 102.133C253.64 101.834 253.885 101.685 254.184 101.685C254.504 101.685 254.899 101.781 255.368 101.973C255.56 102.037 255.859 102.144 256.264 102.293C256.691 102.442 257.16 102.57 257.672 102.677C258.205 102.805 258.728 102.869 259.24 102.869C261.053 102.869 262.44 102.389 263.4 101.429C264.381 100.49 264.872 99.2422 264.872 97.6849V94.7089L265.224 94.8689C265.096 95.4662 264.829 96.0209 264.424 96.5329C264.04 97.0449 263.56 97.5035 262.984 97.9089C262.429 98.2929 261.811 98.6022 261.128 98.8369C260.445 99.0502 259.752 99.1569 259.048 99.1569C257.555 99.1569 256.211 98.7835 255.016 98.0369C253.821 97.2902 252.872 96.2662 252.168 94.9649C251.485 93.6635 251.144 92.1809 251.144 90.5169C251.144 88.8315 251.485 87.3382 252.168 86.0369C252.872 84.7355 253.811 83.7222 254.984 82.9969C256.179 82.2502 257.512 81.8769 258.984 81.8769ZM259.304 84.2449C258.216 84.2449 257.235 84.5222 256.36 85.0769C255.507 85.6102 254.835 86.3462 254.344 87.2849C253.875 88.2235 253.64 89.3009 253.64 90.5169C253.64 91.6902 253.875 92.7569 254.344 93.7169C254.835 94.6555 255.507 95.4022 256.36 95.9569C257.235 96.5115 258.216 96.7889 259.304 96.7889C260.413 96.7889 261.395 96.5222 262.248 95.9889C263.101 95.4342 263.773 94.6875 264.264 93.7489C264.755 92.8102 265 91.7329 265 90.5169C265 89.2795 264.755 88.1915 264.264 87.2529C263.773 86.3142 263.101 85.5782 262.248 85.0449C261.395 84.5115 260.413 84.2449 259.304 84.2449ZM294.609 75.1569C294.972 75.1569 295.271 75.2849 295.505 75.5409C295.761 75.7755 295.889 76.0742 295.889 76.4369V97.5249C295.889 97.8875 295.761 98.1969 295.505 98.4529C295.271 98.7089 294.972 98.8369 294.609 98.8369C294.225 98.8369 293.916 98.7089 293.681 98.4529C293.447 98.1969 293.329 97.8875 293.329 97.5249V94.4849L293.937 94.2609C293.937 94.7729 293.777 95.3169 293.457 95.8929C293.137 96.4475 292.7 96.9702 292.145 97.4609C291.591 97.9515 290.929 98.3569 290.161 98.6769C289.415 98.9969 288.604 99.1569 287.729 99.1569C286.3 99.1569 284.999 98.7835 283.825 98.0369C282.673 97.2902 281.756 96.2662 281.073 94.9649C280.412 93.6635 280.081 92.1809 280.081 90.5169C280.081 88.8315 280.412 87.3382 281.073 86.0369C281.756 84.7355 282.673 83.7222 283.825 82.9969C284.977 82.2502 286.257 81.8769 287.665 81.8769C288.561 81.8769 289.404 82.0262 290.193 82.3249C290.983 82.6235 291.665 83.0289 292.241 83.5409C292.839 84.0529 293.308 84.6182 293.649 85.2369C293.991 85.8555 294.161 86.4742 294.161 87.0929L293.329 86.9009V76.4369C293.329 76.0742 293.447 75.7755 293.681 75.5409C293.916 75.2849 294.225 75.1569 294.609 75.1569ZM288.017 96.7889C289.084 96.7889 290.023 96.5222 290.833 95.9889C291.665 95.4342 292.305 94.6875 292.753 93.7489C293.223 92.7889 293.457 91.7115 293.457 90.5169C293.457 89.3009 293.223 88.2235 292.753 87.2849C292.305 86.3462 291.665 85.6102 290.833 85.0769C290.023 84.5222 289.084 84.2449 288.017 84.2449C286.972 84.2449 286.033 84.5222 285.201 85.0769C284.391 85.6102 283.751 86.3462 283.281 87.2849C282.812 88.2235 282.577 89.3009 282.577 90.5169C282.577 91.6902 282.812 92.7569 283.281 93.7169C283.751 94.6555 284.391 95.4022 285.201 95.9569C286.033 96.5115 286.972 96.7889 288.017 96.7889ZM314.266 82.1329C314.628 82.1329 314.927 82.2609 315.162 82.5169C315.418 82.7515 315.546 83.0502 315.546 83.4129V97.5249C315.546 97.8875 315.418 98.1969 315.162 98.4529C314.927 98.7089 314.628 98.8369 314.266 98.8369C313.882 98.8369 313.572 98.7089 313.338 98.4529C313.103 98.1969 312.986 97.8875 312.986 97.5249V94.4849L313.594 94.4209C313.594 94.8902 313.434 95.4022 313.114 95.9569C312.794 96.5115 312.356 97.0342 311.802 97.5249C311.247 97.9942 310.586 98.3889 309.818 98.7089C309.071 99.0075 308.26 99.1569 307.386 99.1569C305.935 99.1569 304.634 98.7835 303.482 98.0369C302.33 97.2689 301.412 96.2342 300.73 94.9329C300.068 93.6315 299.738 92.1489 299.738 90.4849C299.738 88.7995 300.068 87.3169 300.73 86.0369C301.412 84.7355 302.33 83.7222 303.482 82.9969C304.634 82.2502 305.914 81.8769 307.322 81.8769C308.239 81.8769 309.092 82.0262 309.882 82.3249C310.671 82.6235 311.354 83.0289 311.93 83.5409C312.527 84.0529 312.986 84.6182 313.306 85.2369C313.647 85.8555 313.818 86.4742 313.818 87.0929L312.986 86.9009V83.4129C312.986 83.0502 313.103 82.7515 313.338 82.5169C313.572 82.2609 313.882 82.1329 314.266 82.1329ZM307.674 96.7889C308.74 96.7889 309.679 96.5115 310.49 95.9569C311.322 95.4022 311.962 94.6555 312.41 93.7169C312.879 92.7569 313.114 91.6795 313.114 90.4849C313.114 89.3115 312.879 88.2555 312.41 87.3169C311.962 86.3569 311.322 85.6102 310.49 85.0769C309.679 84.5222 308.74 84.2449 307.674 84.2449C306.628 84.2449 305.69 84.5115 304.858 85.0449C304.047 85.5782 303.407 86.3142 302.938 87.2529C302.468 88.1915 302.234 89.2689 302.234 90.4849C302.234 91.6795 302.458 92.7569 302.906 93.7169C303.375 94.6555 304.015 95.4022 304.826 95.9569C305.658 96.5115 306.607 96.7889 307.674 96.7889ZM328.45 82.0369C329.901 82.0369 331.202 82.3995 332.354 83.1249C333.506 83.8502 334.413 84.8529 335.074 86.1329C335.757 87.4129 336.098 88.8849 336.098 90.5489C336.098 92.1915 335.757 93.6635 335.074 94.9649C334.413 96.2449 333.506 97.2582 332.354 98.0049C331.223 98.7302 329.943 99.0929 328.514 99.0929C327.725 99.0929 326.978 98.9755 326.274 98.7409C325.591 98.4849 324.962 98.1649 324.386 97.7809C323.831 97.3755 323.362 96.9275 322.978 96.4369C322.594 95.9249 322.317 95.4235 322.146 94.9329L322.85 94.4849V103.925C322.85 104.288 322.733 104.597 322.498 104.853C322.263 105.109 321.954 105.237 321.57 105.237C321.207 105.237 320.898 105.109 320.642 104.853C320.407 104.618 320.29 104.309 320.29 103.925V83.4769C320.29 83.1142 320.407 82.8155 320.642 82.5809C320.898 82.3249 321.207 82.1969 321.57 82.1969C321.954 82.1969 322.263 82.3249 322.498 82.5809C322.733 82.8155 322.85 83.1142 322.85 83.4769V86.3249L322.37 86.0689C322.519 85.5355 322.775 85.0235 323.138 84.5329C323.522 84.0422 323.981 83.6155 324.514 83.2529C325.069 82.8689 325.677 82.5702 326.338 82.3569C327.021 82.1435 327.725 82.0369 328.45 82.0369ZM328.162 84.4049C327.095 84.4049 326.146 84.6715 325.314 85.2049C324.503 85.7382 323.863 86.4635 323.394 87.3809C322.946 88.2982 322.722 89.3542 322.722 90.5489C322.722 91.7222 322.946 92.7782 323.394 93.7169C323.863 94.6555 324.503 95.3915 325.314 95.9249C326.146 96.4582 327.095 96.7249 328.162 96.7249C329.229 96.7249 330.167 96.4582 330.978 95.9249C331.789 95.3915 332.429 94.6555 332.898 93.7169C333.367 92.7782 333.602 91.7222 333.602 90.5489C333.602 89.3542 333.367 88.2982 332.898 87.3809C332.429 86.4635 331.789 85.7382 330.978 85.2049C330.167 84.6715 329.229 84.4049 328.162 84.4049ZM353.578 82.1329C353.941 82.1329 354.239 82.2609 354.474 82.5169C354.73 82.7515 354.858 83.0502 354.858 83.4129V97.5249C354.858 97.8875 354.73 98.1969 354.474 98.4529C354.239 98.7089 353.941 98.8369 353.578 98.8369C353.194 98.8369 352.885 98.7089 352.65 98.4529C352.415 98.1969 352.298 97.8875 352.298 97.5249V94.4849L352.906 94.4209C352.906 94.8902 352.746 95.4022 352.426 95.9569C352.106 96.5115 351.669 97.0342 351.114 97.5249C350.559 97.9942 349.898 98.3889 349.13 98.7089C348.383 99.0075 347.573 99.1569 346.698 99.1569C345.247 99.1569 343.946 98.7835 342.794 98.0369C341.642 97.2689 340.725 96.2342 340.042 94.9329C339.381 93.6315 339.05 92.1489 339.05 90.4849C339.05 88.7995 339.381 87.3169 340.042 86.0369C340.725 84.7355 341.642 83.7222 342.794 82.9969C343.946 82.2502 345.226 81.8769 346.634 81.8769C347.551 81.8769 348.405 82.0262 349.194 82.3249C349.983 82.6235 350.666 83.0289 351.242 83.5409C351.839 84.0529 352.298 84.6182 352.618 85.2369C352.959 85.8555 353.13 86.4742 353.13 87.0929L352.298 86.9009V83.4129C352.298 83.0502 352.415 82.7515 352.65 82.5169C352.885 82.2609 353.194 82.1329 353.578 82.1329ZM346.986 96.7889C348.053 96.7889 348.991 96.5115 349.802 95.9569C350.634 95.4022 351.274 94.6555 351.722 93.7169C352.191 92.7569 352.426 91.6795 352.426 90.4849C352.426 89.3115 352.191 88.2555 351.722 87.3169C351.274 86.3569 350.634 85.6102 349.802 85.0769C348.991 84.5222 348.053 84.2449 346.986 84.2449C345.941 84.2449 345.002 84.5115 344.17 85.0449C343.359 85.5782 342.719 86.3142 342.25 87.2529C341.781 88.1915 341.546 89.2689 341.546 90.4849C341.546 91.6795 341.77 92.7569 342.218 93.7169C342.687 94.6555 343.327 95.4022 344.138 95.9569C344.97 96.5115 345.919 96.7889 346.986 96.7889ZM358.962 82.3889H366.482C366.824 82.3889 367.101 82.5062 367.314 82.7409C367.549 82.9755 367.666 83.2529 367.666 83.5729C367.666 83.9142 367.549 84.2022 367.314 84.4369C367.101 84.6502 366.824 84.7569 366.482 84.7569H358.962C358.642 84.7569 358.365 84.6395 358.13 84.4049C357.896 84.1702 357.778 83.8822 357.778 83.5409C357.778 83.2209 357.896 82.9542 358.13 82.7409C358.365 82.5062 358.642 82.3889 358.962 82.3889ZM362.322 78.0369C362.685 78.0369 362.984 78.1649 363.218 78.4209C363.453 78.6555 363.57 78.9542 363.57 79.3169V94.7729C363.57 95.2849 363.645 95.6689 363.794 95.9249C363.944 96.1809 364.136 96.3622 364.37 96.4689C364.626 96.5542 364.872 96.5969 365.106 96.5969C365.32 96.5969 365.501 96.5649 365.65 96.5009C365.821 96.4155 366.013 96.3729 366.226 96.3729C366.44 96.3729 366.632 96.4795 366.802 96.6929C366.994 96.8849 367.09 97.1409 367.09 97.4609C367.09 97.8449 366.866 98.1755 366.418 98.4529C365.97 98.7089 365.469 98.8369 364.914 98.8369C364.616 98.8369 364.242 98.8155 363.794 98.7729C363.368 98.7302 362.941 98.5915 362.514 98.3569C362.088 98.1222 361.725 97.7382 361.426 97.2049C361.149 96.6502 361.01 95.8822 361.01 94.9009V79.3169C361.01 78.9542 361.138 78.6555 361.394 78.4209C361.65 78.1649 361.96 78.0369 362.322 78.0369ZM381.576 98.8369C381.192 98.8369 380.883 98.7089 380.648 98.4529C380.413 98.1969 380.296 97.8875 380.296 97.5249V76.4369C380.296 76.0742 380.413 75.7755 380.648 75.5409C380.883 75.2849 381.192 75.1569 381.576 75.1569C381.939 75.1569 382.237 75.2849 382.472 75.5409C382.728 75.7755 382.856 76.0742 382.856 76.4369V97.5249C382.856 97.8875 382.728 98.1969 382.472 98.4529C382.237 98.7089 381.939 98.8369 381.576 98.8369ZM392.2 82.1969C392.541 82.1969 392.829 82.3355 393.064 82.6129C393.32 82.8689 393.448 83.1355 393.448 83.4129C393.448 83.7755 393.277 84.0955 392.936 84.3729L382.568 93.4289L382.472 90.4529L391.304 82.5809C391.56 82.3249 391.859 82.1969 392.2 82.1969ZM392.552 98.8049C392.189 98.8049 391.869 98.6662 391.592 98.3889L384.776 91.1249L386.696 89.3649L393.448 96.5969C393.704 96.8742 393.832 97.1942 393.832 97.5569C393.832 97.9409 393.683 98.2502 393.384 98.4849C393.085 98.6982 392.808 98.8049 392.552 98.8049ZM411.047 82.1329C411.41 82.1329 411.708 82.2609 411.943 82.5169C412.199 82.7515 412.327 83.0502 412.327 83.4129V97.5249C412.327 97.8875 412.199 98.1969 411.943 98.4529C411.708 98.7089 411.41 98.8369 411.047 98.8369C410.663 98.8369 410.354 98.7089 410.119 98.4529C409.884 98.1969 409.767 97.8875 409.767 97.5249V94.4849L410.375 94.4209C410.375 94.8902 410.215 95.4022 409.895 95.9569C409.575 96.5115 409.138 97.0342 408.583 97.5249C408.028 97.9942 407.367 98.3889 406.599 98.7089C405.852 99.0075 405.042 99.1569 404.167 99.1569C402.716 99.1569 401.415 98.7835 400.263 98.0369C399.111 97.2689 398.194 96.2342 397.511 94.9329C396.85 93.6315 396.519 92.1489 396.519 90.4849C396.519 88.7995 396.85 87.3169 397.511 86.0369C398.194 84.7355 399.111 83.7222 400.263 82.9969C401.415 82.2502 402.695 81.8769 404.103 81.8769C405.02 81.8769 405.874 82.0262 406.663 82.3249C407.452 82.6235 408.135 83.0289 408.711 83.5409C409.308 84.0529 409.767 84.6182 410.087 85.2369C410.428 85.8555 410.599 86.4742 410.599 87.0929L409.767 86.9009V83.4129C409.767 83.0502 409.884 82.7515 410.119 82.5169C410.354 82.2609 410.663 82.1329 411.047 82.1329ZM404.455 96.7889C405.522 96.7889 406.46 96.5115 407.271 95.9569C408.103 95.4022 408.743 94.6555 409.191 93.7169C409.66 92.7569 409.895 91.6795 409.895 90.4849C409.895 89.3115 409.66 88.2555 409.191 87.3169C408.743 86.3569 408.103 85.6102 407.271 85.0769C406.46 84.5222 405.522 84.2449 404.455 84.2449C403.41 84.2449 402.471 84.5115 401.639 85.0449C400.828 85.5782 400.188 86.3142 399.719 87.2529C399.25 88.1915 399.015 89.2689 399.015 90.4849C399.015 91.6795 399.239 92.7569 399.687 93.7169C400.156 94.6555 400.796 95.4022 401.607 95.9569C402.439 96.5115 403.388 96.7889 404.455 96.7889ZM424.975 82.0369C426.426 82.0369 427.599 82.4102 428.495 83.1569C429.412 83.8822 430.02 84.9169 430.319 86.2609H429.839L430.063 85.6849C430.319 85.0875 430.756 84.5115 431.375 83.9569C431.994 83.4022 432.708 82.9435 433.519 82.5809C434.33 82.2182 435.172 82.0369 436.047 82.0369C437.455 82.0369 438.564 82.3462 439.375 82.9649C440.186 83.5622 440.762 84.3729 441.103 85.3969C441.466 86.3995 441.647 87.5302 441.647 88.7889V97.5249C441.647 97.8875 441.519 98.1969 441.263 98.4529C441.028 98.7089 440.73 98.8369 440.367 98.8369C439.983 98.8369 439.674 98.7089 439.439 98.4529C439.204 98.1969 439.087 97.8875 439.087 97.5249V88.8529C439.087 88.0209 438.959 87.2742 438.703 86.6129C438.468 85.9302 438.074 85.3969 437.519 85.0129C436.986 84.6075 436.25 84.4049 435.311 84.4049C434.436 84.4049 433.636 84.6075 432.911 85.0129C432.186 85.3969 431.61 85.9302 431.183 86.6129C430.756 87.2742 430.543 88.0209 430.543 88.8529V97.5249C430.543 97.8875 430.426 98.1969 430.191 98.4529C429.956 98.7089 429.647 98.8369 429.263 98.8369C428.9 98.8369 428.591 98.7089 428.335 98.4529C428.1 98.1969 427.983 97.8875 427.983 97.5249V88.7569C427.983 87.9462 427.866 87.2209 427.631 86.5809C427.418 85.9195 427.044 85.3969 426.511 85.0129C425.978 84.6075 425.242 84.4049 424.303 84.4049C423.45 84.4049 422.671 84.6075 421.967 85.0129C421.263 85.3969 420.698 85.9195 420.271 86.5809C419.844 87.2209 419.631 87.9462 419.631 88.7569V97.5249C419.631 97.8875 419.503 98.1969 419.247 98.4529C419.012 98.7089 418.714 98.8369 418.351 98.8369C417.988 98.8369 417.679 98.7089 417.423 98.4529C417.188 98.1969 417.071 97.8875 417.071 97.5249V83.5729C417.071 83.2102 417.188 82.9115 417.423 82.6769C417.679 82.4209 417.988 82.2929 418.351 82.2929C418.735 82.2929 419.044 82.4209 419.279 82.6769C419.514 82.9115 419.631 83.2102 419.631 83.5729V86.0049L418.927 86.7729C419.012 86.2182 419.226 85.6635 419.567 85.1089C419.93 84.5542 420.388 84.0422 420.943 83.5729C421.498 83.1035 422.116 82.7302 422.799 82.4529C423.482 82.1755 424.207 82.0369 424.975 82.0369ZM458.768 82.2929C459.152 82.2929 459.461 82.4209 459.696 82.6769C459.93 82.9115 460.048 83.2102 460.048 83.5729V92.3089C460.048 94.4635 459.44 96.1382 458.224 97.3329C457.029 98.5062 455.354 99.0929 453.2 99.0929C451.066 99.0929 449.392 98.5062 448.176 97.3329C446.981 96.1382 446.384 94.4635 446.384 92.3089V83.5729C446.384 83.2102 446.501 82.9115 446.736 82.6769C446.992 82.4209 447.301 82.2929 447.664 82.2929C448.048 82.2929 448.357 82.4209 448.592 82.6769C448.826 82.9115 448.944 83.2102 448.944 83.5729V92.3089C448.944 93.7595 449.317 94.8582 450.064 95.6049C450.81 96.3515 451.856 96.7249 453.2 96.7249C454.586 96.7249 455.642 96.3515 456.368 95.6049C457.114 94.8582 457.488 93.7595 457.488 92.3089V83.5729C457.488 83.2102 457.605 82.9115 457.84 82.6769C458.096 82.4209 458.405 82.2929 458.768 82.2929ZM481.762 81.8769C483.213 81.8769 484.514 82.2502 485.666 82.9969C486.818 83.7222 487.725 84.7249 488.386 86.0049C489.069 87.2849 489.41 88.7675 489.41 90.4529C489.41 92.1382 489.069 93.6315 488.386 94.9329C487.725 96.2342 486.818 97.2689 485.666 98.0369C484.536 98.7835 483.256 99.1569 481.826 99.1569C481.037 99.1569 480.29 99.0395 479.586 98.8049C478.904 98.5489 478.274 98.2182 477.698 97.8129C477.144 97.3862 476.674 96.9275 476.29 96.4369C475.906 95.9249 475.629 95.4235 475.458 94.9329L476.162 94.4849V97.6849C476.162 98.0475 476.045 98.3569 475.81 98.6129C475.576 98.8689 475.266 98.9969 474.882 98.9969C474.52 98.9969 474.21 98.8795 473.954 98.6449C473.72 98.3889 473.602 98.0689 473.602 97.6849V76.4689C473.602 76.1062 473.72 75.7969 473.954 75.5409C474.21 75.2849 474.52 75.1569 474.882 75.1569C475.266 75.1569 475.576 75.2849 475.81 75.5409C476.045 75.7969 476.162 76.1062 476.162 76.4689V86.3249L475.682 86.0689C475.832 85.5355 476.088 85.0235 476.45 84.5329C476.834 84.0209 477.293 83.5729 477.826 83.1889C478.381 82.7835 478.989 82.4635 479.65 82.2289C480.333 81.9942 481.037 81.8769 481.762 81.8769ZM481.474 84.2449C480.408 84.2449 479.458 84.5115 478.626 85.0449C477.816 85.5782 477.176 86.3142 476.706 87.2529C476.258 88.1915 476.034 89.2582 476.034 90.4529C476.034 91.6475 476.258 92.7249 476.706 93.6849C477.176 94.6449 477.816 95.4022 478.626 95.9569C479.458 96.5115 480.408 96.7889 481.474 96.7889C482.541 96.7889 483.48 96.5115 484.29 95.9569C485.101 95.4022 485.741 94.6449 486.21 93.6849C486.68 92.7249 486.914 91.6475 486.914 90.4529C486.914 89.2582 486.68 88.1915 486.21 87.2529C485.741 86.3142 485.101 85.5782 484.29 85.0449C483.48 84.5115 482.541 84.2449 481.474 84.2449ZM500.907 99.1569C499.2 99.1569 497.707 98.7942 496.427 98.0689C495.147 97.3435 494.144 96.3515 493.419 95.0929C492.715 93.8129 492.363 92.3409 492.363 90.6769C492.363 88.8209 492.725 87.2422 493.451 85.9409C494.197 84.6182 495.157 83.6155 496.331 82.9329C497.525 82.2289 498.784 81.8769 500.107 81.8769C501.088 81.8769 502.037 82.0582 502.955 82.4209C503.872 82.7835 504.683 83.3169 505.387 84.0209C506.091 84.7035 506.656 85.5355 507.083 86.5169C507.509 87.4769 507.733 88.5542 507.755 89.7489C507.755 90.0902 507.627 90.3782 507.371 90.6129C507.115 90.8475 506.816 90.9649 506.475 90.9649H493.835L493.259 88.7569H505.579L505.067 89.2049V88.5009C504.981 87.6262 504.683 86.8795 504.171 86.2609C503.68 85.6209 503.072 85.1302 502.347 84.7889C501.643 84.4475 500.896 84.2769 500.107 84.2769C499.467 84.2769 498.827 84.3942 498.187 84.6289C497.568 84.8422 497.003 85.2049 496.491 85.7169C496 86.2075 495.595 86.8475 495.275 87.6369C494.976 88.4262 494.827 89.3755 494.827 90.4849C494.827 91.7222 495.072 92.8102 495.563 93.7489C496.075 94.6875 496.779 95.4342 497.675 95.9889C498.571 96.5222 499.616 96.7889 500.811 96.7889C501.557 96.7889 502.208 96.6929 502.763 96.5009C503.317 96.3089 503.797 96.0742 504.203 95.7969C504.608 95.4982 504.949 95.1995 505.227 94.9009C505.504 94.7089 505.771 94.6129 506.027 94.6129C506.347 94.6129 506.603 94.7195 506.795 94.9329C507.008 95.1462 507.115 95.4022 507.115 95.7009C507.115 96.0635 506.944 96.3835 506.603 96.6609C506.005 97.3222 505.195 97.9089 504.171 98.4209C503.147 98.9115 502.059 99.1569 500.907 99.1569ZM512.882 98.8369C512.52 98.8369 512.21 98.7089 511.954 98.4529C511.72 98.1969 511.602 97.8875 511.602 97.5249V83.5729C511.602 83.2102 511.72 82.9115 511.954 82.6769C512.21 82.4209 512.52 82.2929 512.882 82.2929C513.266 82.2929 513.576 82.4209 513.81 82.6769C514.045 82.9115 514.162 83.2102 514.162 83.5729V87.7969L513.778 87.1249C513.906 86.4635 514.13 85.8235 514.45 85.2049C514.792 84.5649 515.218 83.9995 515.73 83.5089C516.242 82.9969 516.829 82.6022 517.49 82.3249C518.152 82.0262 518.877 81.8769 519.666 81.8769C520.136 81.8769 520.562 81.9942 520.946 82.2289C521.352 82.4422 521.554 82.7515 521.554 83.1569C521.554 83.6049 521.437 83.9355 521.202 84.1489C520.968 84.3622 520.701 84.4689 520.402 84.4689C520.125 84.4689 519.858 84.4155 519.602 84.3089C519.346 84.1809 519.026 84.1169 518.642 84.1169C518.109 84.1169 517.576 84.2662 517.042 84.5649C516.53 84.8422 516.05 85.2475 515.602 85.7809C515.176 86.3142 514.824 86.9222 514.546 87.6049C514.29 88.2662 514.162 88.9809 514.162 89.7489V97.5249C514.162 97.8875 514.034 98.1969 513.778 98.4529C513.544 98.7089 513.245 98.8369 512.882 98.8369ZM526.91 97.5249C526.91 97.8875 526.782 98.1969 526.526 98.4529C526.291 98.7089 525.993 98.8369 525.63 98.8369C525.246 98.8369 524.937 98.7089 524.702 98.4529C524.467 98.1969 524.35 97.8875 524.35 97.5249V83.3169C524.35 82.9542 524.467 82.6555 524.702 82.4209C524.958 82.1649 525.267 82.0369 525.63 82.0369C525.993 82.0369 526.291 82.1649 526.526 82.4209C526.782 82.6555 526.91 82.9542 526.91 83.3169V97.5249ZM525.63 79.8929C525.097 79.8929 524.702 79.7862 524.446 79.5729C524.19 79.3595 524.062 79.0289 524.062 78.5809V78.1329C524.062 77.6849 524.201 77.3542 524.478 77.1409C524.755 76.9275 525.15 76.8209 525.662 76.8209C526.174 76.8209 526.558 76.9275 526.814 77.1409C527.07 77.3542 527.198 77.6849 527.198 78.1329V78.5809C527.198 79.0289 527.059 79.3595 526.782 79.5729C526.526 79.7862 526.142 79.8929 525.63 79.8929ZM533.045 98.8369C532.661 98.8369 532.351 98.7089 532.117 98.4529C531.882 98.1969 531.765 97.8875 531.765 97.5249V76.4369C531.765 76.0742 531.882 75.7755 532.117 75.5409C532.351 75.2849 532.661 75.1569 533.045 75.1569C533.407 75.1569 533.706 75.2849 533.941 75.5409C534.197 75.7755 534.325 76.0742 534.325 76.4369V97.5249C534.325 97.8875 534.197 98.1969 533.941 98.4529C533.706 98.7089 533.407 98.8369 533.045 98.8369ZM543.669 82.1969C544.01 82.1969 544.298 82.3355 544.533 82.6129C544.789 82.8689 544.917 83.1355 544.917 83.4129C544.917 83.7755 544.746 84.0955 544.405 84.3729L534.037 93.4289L533.941 90.4529L542.773 82.5809C543.029 82.3249 543.327 82.1969 543.669 82.1969ZM544.021 98.8049C543.658 98.8049 543.338 98.6662 543.061 98.3889L536.245 91.1249L538.165 89.3649L544.917 96.5969C545.173 96.8742 545.301 97.1942 545.301 97.5569C545.301 97.9409 545.151 98.2502 544.853 98.4849C544.554 98.6982 544.277 98.8049 544.021 98.8049ZM562.516 82.1329C562.878 82.1329 563.177 82.2609 563.412 82.5169C563.668 82.7515 563.796 83.0502 563.796 83.4129V97.5249C563.796 97.8875 563.668 98.1969 563.412 98.4529C563.177 98.7089 562.878 98.8369 562.516 98.8369C562.132 98.8369 561.822 98.7089 561.588 98.4529C561.353 98.1969 561.236 97.8875 561.236 97.5249V94.4849L561.844 94.4209C561.844 94.8902 561.684 95.4022 561.364 95.9569C561.044 96.5115 560.606 97.0342 560.052 97.5249C559.497 97.9942 558.836 98.3889 558.068 98.7089C557.321 99.0075 556.51 99.1569 555.636 99.1569C554.185 99.1569 552.884 98.7835 551.732 98.0369C550.58 97.2689 549.662 96.2342 548.98 94.9329C548.318 93.6315 547.988 92.1489 547.988 90.4849C547.988 88.7995 548.318 87.3169 548.98 86.0369C549.662 84.7355 550.58 83.7222 551.732 82.9969C552.884 82.2502 554.164 81.8769 555.572 81.8769C556.489 81.8769 557.342 82.0262 558.132 82.3249C558.921 82.6235 559.604 83.0289 560.18 83.5409C560.777 84.0529 561.236 84.6182 561.556 85.2369C561.897 85.8555 562.068 86.4742 562.068 87.0929L561.236 86.9009V83.4129C561.236 83.0502 561.353 82.7515 561.588 82.5169C561.822 82.2609 562.132 82.1329 562.516 82.1329ZM555.924 96.7889C556.99 96.7889 557.929 96.5115 558.74 95.9569C559.572 95.4022 560.212 94.6555 560.66 93.7169C561.129 92.7569 561.364 91.6795 561.364 90.4849C561.364 89.3115 561.129 88.2555 560.66 87.3169C560.212 86.3569 559.572 85.6102 558.74 85.0769C557.929 84.5222 556.99 84.2449 555.924 84.2449C554.878 84.2449 553.94 84.5115 553.108 85.0449C552.297 85.5782 551.657 86.3142 551.188 87.2529C550.718 88.1915 550.484 89.2689 550.484 90.4849C550.484 91.6795 550.708 92.7569 551.156 93.7169C551.625 94.6555 552.265 95.4022 553.076 95.9569C553.908 96.5115 554.857 96.7889 555.924 96.7889ZM576.764 81.8769C578.215 81.8769 579.356 82.1755 580.188 82.7729C581.02 83.3702 581.607 84.1702 581.948 85.1729C582.311 86.1755 582.492 87.2955 582.492 88.5329V97.5249C582.492 97.8875 582.364 98.1969 582.108 98.4529C581.873 98.7089 581.575 98.8369 581.212 98.8369C580.849 98.8369 580.54 98.7089 580.284 98.4529C580.049 98.1969 579.932 97.8875 579.932 97.5249V88.5969C579.932 87.7862 579.804 87.0609 579.548 86.4209C579.313 85.7595 578.908 85.2369 578.332 84.8529C577.777 84.4475 577.009 84.2449 576.028 84.2449C575.132 84.2449 574.311 84.4475 573.564 84.8529C572.817 85.2369 572.22 85.7595 571.772 86.4209C571.324 87.0609 571.1 87.7862 571.1 88.5969V97.5249C571.1 97.8875 570.972 98.1969 570.716 98.4529C570.481 98.7089 570.183 98.8369 569.82 98.8369C569.457 98.8369 569.148 98.7089 568.892 98.4529C568.657 98.1969 568.54 97.8875 568.54 97.5249V83.5729C568.54 83.2102 568.657 82.9115 568.892 82.6769C569.148 82.4209 569.457 82.2929 569.82 82.2929C570.204 82.2929 570.513 82.4209 570.748 82.6769C570.983 82.9115 571.1 83.2102 571.1 83.5729V85.8449L570.46 86.5489C570.567 85.9942 570.812 85.4395 571.196 84.8849C571.58 84.3089 572.06 83.7969 572.636 83.3489C573.212 82.9009 573.852 82.5489 574.556 82.2929C575.26 82.0155 575.996 81.8769 576.764 81.8769ZM597.576 98.8369C597.192 98.8369 596.883 98.7089 596.648 98.4529C596.413 98.1969 596.296 97.8875 596.296 97.5249V76.4369C596.296 76.0742 596.413 75.7755 596.648 75.5409C596.883 75.2849 597.192 75.1569 597.576 75.1569C597.939 75.1569 598.237 75.2849 598.472 75.5409C598.728 75.7755 598.856 76.0742 598.856 76.4369V97.5249C598.856 97.8875 598.728 98.1969 598.472 98.4529C598.237 98.7089 597.939 98.8369 597.576 98.8369ZM608.2 82.1969C608.541 82.1969 608.829 82.3355 609.064 82.6129C609.32 82.8689 609.448 83.1355 609.448 83.4129C609.448 83.7755 609.277 84.0955 608.936 84.3729L598.568 93.4289L598.472 90.4529L607.304 82.5809C607.56 82.3249 607.859 82.1969 608.2 82.1969ZM608.552 98.8049C608.189 98.8049 607.869 98.6662 607.592 98.3889L600.776 91.1249L602.696 89.3649L609.448 96.5969C609.704 96.8742 609.832 97.1942 609.832 97.5569C609.832 97.9409 609.683 98.2502 609.384 98.4849C609.085 98.6982 608.808 98.8049 608.552 98.8049ZM620.469 99.1569C618.762 99.1569 617.269 98.7942 615.989 98.0689C614.709 97.3435 613.706 96.3515 612.981 95.0929C612.277 93.8129 611.925 92.3409 611.925 90.6769C611.925 88.8209 612.288 87.2422 613.013 85.9409C613.76 84.6182 614.72 83.6155 615.893 82.9329C617.088 82.2289 618.346 81.8769 619.669 81.8769C620.65 81.8769 621.6 82.0582 622.517 82.4209C623.434 82.7835 624.245 83.3169 624.949 84.0209C625.653 84.7035 626.218 85.5355 626.645 86.5169C627.072 87.4769 627.296 88.5542 627.317 89.7489C627.317 90.0902 627.189 90.3782 626.933 90.6129C626.677 90.8475 626.378 90.9649 626.037 90.9649H613.397L612.821 88.7569H625.141L624.629 89.2049V88.5009C624.544 87.6262 624.245 86.8795 623.733 86.2609C623.242 85.6209 622.634 85.1302 621.909 84.7889C621.205 84.4475 620.458 84.2769 619.669 84.2769C619.029 84.2769 618.389 84.3942 617.749 84.6289C617.13 84.8422 616.565 85.2049 616.053 85.7169C615.562 86.2075 615.157 86.8475 614.837 87.6369C614.538 88.4262 614.389 89.3755 614.389 90.4849C614.389 91.7222 614.634 92.8102 615.125 93.7489C615.637 94.6875 616.341 95.4342 617.237 95.9889C618.133 96.5222 619.178 96.7889 620.373 96.7889C621.12 96.7889 621.77 96.6929 622.325 96.5009C622.88 96.3089 623.36 96.0742 623.765 95.7969C624.17 95.4982 624.512 95.1995 624.789 94.9009C625.066 94.7089 625.333 94.6129 625.589 94.6129C625.909 94.6129 626.165 94.7195 626.357 94.9329C626.57 95.1462 626.677 95.4022 626.677 95.7009C626.677 96.0635 626.506 96.3835 626.165 96.6609C625.568 97.3222 624.757 97.9089 623.733 98.4209C622.709 98.9115 621.621 99.1569 620.469 99.1569ZM639.325 82.0369C640.776 82.0369 642.077 82.3995 643.229 83.1249C644.381 83.8502 645.288 84.8529 645.949 86.1329C646.632 87.4129 646.973 88.8849 646.973 90.5489C646.973 92.1915 646.632 93.6635 645.949 94.9649C645.288 96.2449 644.381 97.2582 643.229 98.0049C642.098 98.7302 640.818 99.0929 639.389 99.0929C638.6 99.0929 637.853 98.9755 637.149 98.7409C636.466 98.4849 635.837 98.1649 635.261 97.7809C634.706 97.3755 634.237 96.9275 633.853 96.4369C633.469 95.9249 633.192 95.4235 633.021 94.9329L633.725 94.4849V103.925C633.725 104.288 633.608 104.597 633.373 104.853C633.138 105.109 632.829 105.237 632.445 105.237C632.082 105.237 631.773 105.109 631.517 104.853C631.282 104.618 631.165 104.309 631.165 103.925V83.4769C631.165 83.1142 631.282 82.8155 631.517 82.5809C631.773 82.3249 632.082 82.1969 632.445 82.1969C632.829 82.1969 633.138 82.3249 633.373 82.5809C633.608 82.8155 633.725 83.1142 633.725 83.4769V86.3249L633.245 86.0689C633.394 85.5355 633.65 85.0235 634.013 84.5329C634.397 84.0422 634.856 83.6155 635.389 83.2529C635.944 82.8689 636.552 82.5702 637.213 82.3569C637.896 82.1435 638.6 82.0369 639.325 82.0369ZM639.037 84.4049C637.97 84.4049 637.021 84.6715 636.189 85.2049C635.378 85.7382 634.738 86.4635 634.269 87.3809C633.821 88.2982 633.597 89.3542 633.597 90.5489C633.597 91.7222 633.821 92.7782 634.269 93.7169C634.738 94.6555 635.378 95.3915 636.189 95.9249C637.021 96.4582 637.97 96.7249 639.037 96.7249C640.104 96.7249 641.042 96.4582 641.853 95.9249C642.664 95.3915 643.304 94.6555 643.773 93.7169C644.242 92.7782 644.477 91.7222 644.477 90.5489C644.477 89.3542 644.242 88.2982 643.773 87.3809C643.304 86.4635 642.664 85.7382 641.853 85.2049C641.042 84.6715 640.104 84.4049 639.037 84.4049ZM664.453 82.1329C664.816 82.1329 665.114 82.2609 665.349 82.5169C665.605 82.7515 665.733 83.0502 665.733 83.4129V97.5249C665.733 97.8875 665.605 98.1969 665.349 98.4529C665.114 98.7089 664.816 98.8369 664.453 98.8369C664.069 98.8369 663.76 98.7089 663.525 98.4529C663.29 98.1969 663.173 97.8875 663.173 97.5249V94.4849L663.781 94.4209C663.781 94.8902 663.621 95.4022 663.301 95.9569C662.981 96.5115 662.544 97.0342 661.989 97.5249C661.434 97.9942 660.773 98.3889 660.005 98.7089C659.258 99.0075 658.448 99.1569 657.573 99.1569C656.122 99.1569 654.821 98.7835 653.669 98.0369C652.517 97.2689 651.6 96.2342 650.917 94.9329C650.256 93.6315 649.925 92.1489 649.925 90.4849C649.925 88.7995 650.256 87.3169 650.917 86.0369C651.6 84.7355 652.517 83.7222 653.669 82.9969C654.821 82.2502 656.101 81.8769 657.509 81.8769C658.426 81.8769 659.28 82.0262 660.069 82.3249C660.858 82.6235 661.541 83.0289 662.117 83.5409C662.714 84.0529 663.173 84.6182 663.493 85.2369C663.834 85.8555 664.005 86.4742 664.005 87.0929L663.173 86.9009V83.4129C663.173 83.0502 663.29 82.7515 663.525 82.5169C663.76 82.2609 664.069 82.1329 664.453 82.1329ZM657.861 96.7889C658.928 96.7889 659.866 96.5115 660.677 95.9569C661.509 95.4022 662.149 94.6555 662.597 93.7169C663.066 92.7569 663.301 91.6795 663.301 90.4849C663.301 89.3115 663.066 88.2555 662.597 87.3169C662.149 86.3569 661.509 85.6102 660.677 85.0769C659.866 84.5222 658.928 84.2449 657.861 84.2449C656.816 84.2449 655.877 84.5115 655.045 85.0449C654.234 85.5782 653.594 86.3142 653.125 87.2529C652.656 88.1915 652.421 89.2689 652.421 90.4849C652.421 91.6795 652.645 92.7569 653.093 93.7169C653.562 94.6555 654.202 95.4022 655.013 95.9569C655.845 96.5115 656.794 96.7889 657.861 96.7889ZM684.109 75.1569C684.472 75.1569 684.771 75.2849 685.005 75.5409C685.261 75.7755 685.389 76.0742 685.389 76.4369V97.5249C685.389 97.8875 685.261 98.1969 685.005 98.4529C684.771 98.7089 684.472 98.8369 684.109 98.8369C683.725 98.8369 683.416 98.7089 683.181 98.4529C682.947 98.1969 682.829 97.8875 682.829 97.5249V94.4849L683.437 94.2609C683.437 94.7729 683.277 95.3169 682.957 95.8929C682.637 96.4475 682.2 96.9702 681.645 97.4609C681.091 97.9515 680.429 98.3569 679.661 98.6769C678.915 98.9969 678.104 99.1569 677.229 99.1569C675.8 99.1569 674.499 98.7835 673.325 98.0369C672.173 97.2902 671.256 96.2662 670.573 94.9649C669.912 93.6635 669.581 92.1809 669.581 90.5169C669.581 88.8315 669.912 87.3382 670.573 86.0369C671.256 84.7355 672.173 83.7222 673.325 82.9969C674.477 82.2502 675.757 81.8769 677.165 81.8769C678.061 81.8769 678.904 82.0262 679.693 82.3249C680.483 82.6235 681.165 83.0289 681.741 83.5409C682.339 84.0529 682.808 84.6182 683.149 85.2369C683.491 85.8555 683.661 86.4742 683.661 87.0929L682.829 86.9009V76.4369C682.829 76.0742 682.947 75.7755 683.181 75.5409C683.416 75.2849 683.725 75.1569 684.109 75.1569ZM677.517 96.7889C678.584 96.7889 679.523 96.5222 680.333 95.9889C681.165 95.4342 681.805 94.6875 682.253 93.7489C682.723 92.7889 682.957 91.7115 682.957 90.5169C682.957 89.3009 682.723 88.2235 682.253 87.2849C681.805 86.3462 681.165 85.6102 680.333 85.0769C679.523 84.5222 678.584 84.2449 677.517 84.2449C676.472 84.2449 675.533 84.5222 674.701 85.0769C673.891 85.6102 673.251 86.3462 672.781 87.2849C672.312 88.2235 672.077 89.3009 672.077 90.5169C672.077 91.6902 672.312 92.7569 672.781 93.7169C673.251 94.6555 673.891 95.4022 674.701 95.9569C675.533 96.5115 676.472 96.7889 677.517 96.7889ZM703.766 82.1329C704.128 82.1329 704.427 82.2609 704.662 82.5169C704.918 82.7515 705.046 83.0502 705.046 83.4129V97.5249C705.046 97.8875 704.918 98.1969 704.662 98.4529C704.427 98.7089 704.128 98.8369 703.766 98.8369C703.382 98.8369 703.072 98.7089 702.838 98.4529C702.603 98.1969 702.486 97.8875 702.486 97.5249V94.4849L703.094 94.4209C703.094 94.8902 702.934 95.4022 702.614 95.9569C702.294 96.5115 701.856 97.0342 701.302 97.5249C700.747 97.9942 700.086 98.3889 699.318 98.7089C698.571 99.0075 697.76 99.1569 696.886 99.1569C695.435 99.1569 694.134 98.7835 692.982 98.0369C691.83 97.2689 690.912 96.2342 690.23 94.9329C689.568 93.6315 689.238 92.1489 689.238 90.4849C689.238 88.7995 689.568 87.3169 690.23 86.0369C690.912 84.7355 691.83 83.7222 692.982 82.9969C694.134 82.2502 695.414 81.8769 696.822 81.8769C697.739 81.8769 698.592 82.0262 699.382 82.3249C700.171 82.6235 700.854 83.0289 701.43 83.5409C702.027 84.0529 702.486 84.6182 702.806 85.2369C703.147 85.8555 703.318 86.4742 703.318 87.0929L702.486 86.9009V83.4129C702.486 83.0502 702.603 82.7515 702.838 82.5169C703.072 82.2609 703.382 82.1329 703.766 82.1329ZM697.174 96.7889C698.24 96.7889 699.179 96.5115 699.99 95.9569C700.822 95.4022 701.462 94.6555 701.91 93.7169C702.379 92.7569 702.614 91.6795 702.614 90.4849C702.614 89.3115 702.379 88.2555 701.91 87.3169C701.462 86.3569 700.822 85.6102 699.99 85.0769C699.179 84.5222 698.24 84.2449 697.174 84.2449C696.128 84.2449 695.19 84.5115 694.358 85.0449C693.547 85.5782 692.907 86.3142 692.438 87.2529C691.968 88.1915 691.734 89.2689 691.734 90.4849C691.734 91.6795 691.958 92.7569 692.406 93.7169C692.875 94.6555 693.515 95.4022 694.326 95.9569C695.158 96.5115 696.107 96.7889 697.174 96.7889ZM717.962 82.3889H725.482C725.824 82.3889 726.101 82.5062 726.314 82.7409C726.549 82.9755 726.666 83.2529 726.666 83.5729C726.666 83.9142 726.549 84.2022 726.314 84.4369C726.101 84.6502 725.824 84.7569 725.482 84.7569H717.962C717.642 84.7569 717.365 84.6395 717.13 84.4049C716.896 84.1702 716.778 83.8822 716.778 83.5409C716.778 83.2209 716.896 82.9542 717.13 82.7409C717.365 82.5062 717.642 82.3889 717.962 82.3889ZM721.322 78.0369C721.685 78.0369 721.984 78.1649 722.218 78.4209C722.453 78.6555 722.57 78.9542 722.57 79.3169V94.7729C722.57 95.2849 722.645 95.6689 722.794 95.9249C722.944 96.1809 723.136 96.3622 723.37 96.4689C723.626 96.5542 723.872 96.5969 724.106 96.5969C724.32 96.5969 724.501 96.5649 724.65 96.5009C724.821 96.4155 725.013 96.3729 725.226 96.3729C725.44 96.3729 725.632 96.4795 725.802 96.6929C725.994 96.8849 726.09 97.1409 726.09 97.4609C726.09 97.8449 725.866 98.1755 725.418 98.4529C724.97 98.7089 724.469 98.8369 723.914 98.8369C723.616 98.8369 723.242 98.8155 722.794 98.7729C722.368 98.7302 721.941 98.5915 721.514 98.3569C721.088 98.1222 720.725 97.7382 720.426 97.2049C720.149 96.6502 720.01 95.8822 720.01 94.9009V79.3169C720.01 78.9542 720.138 78.6555 720.394 78.4209C720.65 78.1649 720.96 78.0369 721.322 78.0369ZM737.719 99.1569C736.012 99.1569 734.519 98.7942 733.239 98.0689C731.959 97.3435 730.956 96.3515 730.231 95.0929C729.527 93.8129 729.175 92.3409 729.175 90.6769C729.175 88.8209 729.538 87.2422 730.263 85.9409C731.01 84.6182 731.97 83.6155 733.143 82.9329C734.338 82.2289 735.596 81.8769 736.919 81.8769C737.9 81.8769 738.85 82.0582 739.767 82.4209C740.684 82.7835 741.495 83.3169 742.199 84.0209C742.903 84.7035 743.468 85.5355 743.895 86.5169C744.322 87.4769 744.546 88.5542 744.567 89.7489C744.567 90.0902 744.439 90.3782 744.183 90.6129C743.927 90.8475 743.628 90.9649 743.287 90.9649H730.647L730.071 88.7569H742.391L741.879 89.2049V88.5009C741.794 87.6262 741.495 86.8795 740.983 86.2609C740.492 85.6209 739.884 85.1302 739.159 84.7889C738.455 84.4475 737.708 84.2769 736.919 84.2769C736.279 84.2769 735.639 84.3942 734.999 84.6289C734.38 84.8422 733.815 85.2049 733.303 85.7169C732.812 86.2075 732.407 86.8475 732.087 87.6369C731.788 88.4262 731.639 89.3755 731.639 90.4849C731.639 91.7222 731.884 92.8102 732.375 93.7489C732.887 94.6875 733.591 95.4342 734.487 95.9889C735.383 96.5222 736.428 96.7889 737.623 96.7889C738.37 96.7889 739.02 96.6929 739.575 96.5009C740.13 96.3089 740.61 96.0742 741.015 95.7969C741.42 95.4982 741.762 95.1995 742.039 94.9009C742.316 94.7089 742.583 94.6129 742.839 94.6129C743.159 94.6129 743.415 94.7195 743.607 94.9329C743.82 95.1462 743.927 95.4022 743.927 95.7009C743.927 96.0635 743.756 96.3835 743.415 96.6609C742.818 97.3222 742.007 97.9089 740.983 98.4209C739.959 98.9115 738.871 99.1569 737.719 99.1569ZM756.319 82.0369C757.77 82.0369 758.943 82.4102 759.839 83.1569C760.756 83.8822 761.364 84.9169 761.663 86.2609H761.183L761.407 85.6849C761.663 85.0875 762.1 84.5115 762.719 83.9569C763.338 83.4022 764.052 82.9435 764.863 82.5809C765.674 82.2182 766.516 82.0369 767.391 82.0369C768.799 82.0369 769.908 82.3462 770.719 82.9649C771.53 83.5622 772.106 84.3729 772.447 85.3969C772.81 86.3995 772.991 87.5302 772.991 88.7889V97.5249C772.991 97.8875 772.863 98.1969 772.607 98.4529C772.372 98.7089 772.074 98.8369 771.711 98.8369C771.327 98.8369 771.018 98.7089 770.783 98.4529C770.548 98.1969 770.431 97.8875 770.431 97.5249V88.8529C770.431 88.0209 770.303 87.2742 770.047 86.6129C769.812 85.9302 769.418 85.3969 768.863 85.0129C768.33 84.6075 767.594 84.4049 766.655 84.4049C765.78 84.4049 764.98 84.6075 764.255 85.0129C763.53 85.3969 762.954 85.9302 762.527 86.6129C762.1 87.2742 761.887 88.0209 761.887 88.8529V97.5249C761.887 97.8875 761.77 98.1969 761.535 98.4529C761.3 98.7089 760.991 98.8369 760.607 98.8369C760.244 98.8369 759.935 98.7089 759.679 98.4529C759.444 98.1969 759.327 97.8875 759.327 97.5249V88.7569C759.327 87.9462 759.21 87.2209 758.975 86.5809C758.762 85.9195 758.388 85.3969 757.855 85.0129C757.322 84.6075 756.586 84.4049 755.647 84.4049C754.794 84.4049 754.015 84.6075 753.311 85.0129C752.607 85.3969 752.042 85.9195 751.615 86.5809C751.188 87.2209 750.975 87.9462 750.975 88.7569V97.5249C750.975 97.8875 750.847 98.1969 750.591 98.4529C750.356 98.7089 750.058 98.8369 749.695 98.8369C749.332 98.8369 749.023 98.7089 748.767 98.4529C748.532 98.1969 748.415 97.8875 748.415 97.5249V83.5729C748.415 83.2102 748.532 82.9115 748.767 82.6769C749.023 82.4209 749.332 82.2929 749.695 82.2929C750.079 82.2929 750.388 82.4209 750.623 82.6769C750.858 82.9115 750.975 83.2102 750.975 83.5729V86.0049L750.271 86.7729C750.356 86.2182 750.57 85.6635 750.911 85.1089C751.274 84.5542 751.732 84.0422 752.287 83.5729C752.842 83.1035 753.46 82.7302 754.143 82.4529C754.826 82.1755 755.551 82.0369 756.319 82.0369ZM791.359 82.1329C791.722 82.1329 792.021 82.2609 792.255 82.5169C792.511 82.7515 792.639 83.0502 792.639 83.4129V97.5249C792.639 97.8875 792.511 98.1969 792.255 98.4529C792.021 98.7089 791.722 98.8369 791.359 98.8369C790.975 98.8369 790.666 98.7089 790.431 98.4529C790.197 98.1969 790.079 97.8875 790.079 97.5249V94.4849L790.687 94.4209C790.687 94.8902 790.527 95.4022 790.207 95.9569C789.887 96.5115 789.45 97.0342 788.895 97.5249C788.341 97.9942 787.679 98.3889 786.911 98.7089C786.165 99.0075 785.354 99.1569 784.479 99.1569C783.029 99.1569 781.727 98.7835 780.575 98.0369C779.423 97.2689 778.506 96.2342 777.823 94.9329C777.162 93.6315 776.831 92.1489 776.831 90.4849C776.831 88.7995 777.162 87.3169 777.823 86.0369C778.506 84.7355 779.423 83.7222 780.575 82.9969C781.727 82.2502 783.007 81.8769 784.415 81.8769C785.333 81.8769 786.186 82.0262 786.975 82.3249C787.765 82.6235 788.447 83.0289 789.023 83.5409C789.621 84.0529 790.079 84.6182 790.399 85.2369C790.741 85.8555 790.911 86.4742 790.911 87.0929L790.079 86.9009V83.4129C790.079 83.0502 790.197 82.7515 790.431 82.5169C790.666 82.2609 790.975 82.1329 791.359 82.1329ZM784.767 96.7889C785.834 96.7889 786.773 96.5115 787.583 95.9569C788.415 95.4022 789.055 94.6555 789.503 93.7169C789.973 92.7569 790.207 91.6795 790.207 90.4849C790.207 89.3115 789.973 88.2555 789.503 87.3169C789.055 86.3569 788.415 85.6102 787.583 85.0769C786.773 84.5222 785.834 84.2449 784.767 84.2449C783.722 84.2449 782.783 84.5115 781.951 85.0449C781.141 85.5782 780.501 86.3142 780.031 87.2529C779.562 88.1915 779.327 89.2689 779.327 90.4849C779.327 91.6795 779.551 92.7569 779.999 93.7169C780.469 94.6555 781.109 95.4022 781.919 95.9569C782.751 96.5115 783.701 96.7889 784.767 96.7889ZM805.608 81.8769C807.058 81.8769 808.2 82.1755 809.032 82.7729C809.864 83.3702 810.45 84.1702 810.792 85.1729C811.154 86.1755 811.336 87.2955 811.336 88.5329V97.5249C811.336 97.8875 811.208 98.1969 810.952 98.4529C810.717 98.7089 810.418 98.8369 810.056 98.8369C809.693 98.8369 809.384 98.7089 809.128 98.4529C808.893 98.1969 808.776 97.8875 808.776 97.5249V88.5969C808.776 87.7862 808.648 87.0609 808.392 86.4209C808.157 85.7595 807.752 85.2369 807.176 84.8529C806.621 84.4475 805.853 84.2449 804.872 84.2449C803.976 84.2449 803.154 84.4475 802.408 84.8529C801.661 85.2369 801.064 85.7595 800.616 86.4209C800.168 87.0609 799.944 87.7862 799.944 88.5969V97.5249C799.944 97.8875 799.816 98.1969 799.56 98.4529C799.325 98.7089 799.026 98.8369 798.664 98.8369C798.301 98.8369 797.992 98.7089 797.736 98.4529C797.501 98.1969 797.384 97.8875 797.384 97.5249V83.5729C797.384 83.2102 797.501 82.9115 797.736 82.6769C797.992 82.4209 798.301 82.2929 798.664 82.2929C799.048 82.2929 799.357 82.4209 799.592 82.6769C799.826 82.9115 799.944 83.2102 799.944 83.5729V85.8449L799.304 86.5489C799.41 85.9942 799.656 85.4395 800.04 84.8849C800.424 84.3089 800.904 83.7969 801.48 83.3489C802.056 82.9009 802.696 82.5489 803.4 82.2929C804.104 82.0155 804.84 81.8769 805.608 81.8769ZM837.268 82.0369C837.63 82.0369 837.929 82.1649 838.164 82.4209C838.42 82.6555 838.548 82.9542 838.548 83.3169V97.2689C838.548 99.0609 838.196 100.544 837.492 101.717C836.788 102.912 835.838 103.797 834.644 104.373C833.47 104.949 832.137 105.237 830.644 105.237C829.812 105.237 829.012 105.152 828.244 104.981C827.476 104.81 826.846 104.586 826.356 104.309C825.95 104.117 825.662 103.872 825.492 103.573C825.342 103.296 825.321 102.997 825.428 102.677C825.577 102.293 825.79 102.026 826.068 101.877C826.366 101.728 826.676 101.728 826.996 101.877C827.337 102.026 827.828 102.229 828.468 102.485C829.129 102.762 829.865 102.901 830.676 102.901C831.785 102.901 832.734 102.688 833.524 102.261C834.313 101.834 834.921 101.205 835.348 100.373C835.774 99.5622 835.988 98.5489 835.988 97.3329V95.0609L836.372 95.8609C836.03 96.5222 835.572 97.0982 834.996 97.5889C834.42 98.0795 833.758 98.4635 833.012 98.7409C832.265 99.0182 831.444 99.1569 830.548 99.1569C829.332 99.1569 828.297 98.9009 827.444 98.3889C826.612 97.8555 825.972 97.1302 825.524 96.2129C825.097 95.2742 824.884 94.1969 824.884 92.9809V83.3169C824.884 82.9542 825.001 82.6555 825.236 82.4209C825.492 82.1649 825.801 82.0369 826.164 82.0369C826.548 82.0369 826.857 82.1649 827.092 82.4209C827.326 82.6555 827.444 82.9542 827.444 83.3169V92.4049C827.444 93.8555 827.764 94.9542 828.404 95.7009C829.044 96.4262 830.036 96.7889 831.38 96.7889C832.233 96.7889 833.001 96.5969 833.684 96.2129C834.388 95.8289 834.942 95.3062 835.348 94.6449C835.774 93.9622 835.988 93.2155 835.988 92.4049V83.3169C835.988 82.9542 836.105 82.6555 836.34 82.4209C836.574 82.1649 836.884 82.0369 837.268 82.0369ZM856.922 82.1329C857.285 82.1329 857.583 82.2609 857.818 82.5169C858.074 82.7515 858.202 83.0502 858.202 83.4129V97.5249C858.202 97.8875 858.074 98.1969 857.818 98.4529C857.583 98.7089 857.285 98.8369 856.922 98.8369C856.538 98.8369 856.229 98.7089 855.994 98.4529C855.759 98.1969 855.642 97.8875 855.642 97.5249V94.4849L856.25 94.4209C856.25 94.8902 856.09 95.4022 855.77 95.9569C855.45 96.5115 855.013 97.0342 854.458 97.5249C853.903 97.9942 853.242 98.3889 852.474 98.7089C851.727 99.0075 850.917 99.1569 850.042 99.1569C848.591 99.1569 847.29 98.7835 846.138 98.0369C844.986 97.2689 844.069 96.2342 843.386 94.9329C842.725 93.6315 842.394 92.1489 842.394 90.4849C842.394 88.7995 842.725 87.3169 843.386 86.0369C844.069 84.7355 844.986 83.7222 846.138 82.9969C847.29 82.2502 848.57 81.8769 849.978 81.8769C850.895 81.8769 851.749 82.0262 852.538 82.3249C853.327 82.6235 854.01 83.0289 854.586 83.5409C855.183 84.0529 855.642 84.6182 855.962 85.2369C856.303 85.8555 856.474 86.4742 856.474 87.0929L855.642 86.9009V83.4129C855.642 83.0502 855.759 82.7515 855.994 82.5169C856.229 82.2609 856.538 82.1329 856.922 82.1329ZM850.33 96.7889C851.397 96.7889 852.335 96.5115 853.146 95.9569C853.978 95.4022 854.618 94.6555 855.066 93.7169C855.535 92.7569 855.77 91.6795 855.77 90.4849C855.77 89.3115 855.535 88.2555 855.066 87.3169C854.618 86.3569 853.978 85.6102 853.146 85.0769C852.335 84.5222 851.397 84.2449 850.33 84.2449C849.285 84.2449 848.346 84.5115 847.514 85.0449C846.703 85.5782 846.063 86.3142 845.594 87.2529C845.125 88.1915 844.89 89.2689 844.89 90.4849C844.89 91.6795 845.114 92.7569 845.562 93.7169C846.031 94.6555 846.671 95.4022 847.482 95.9569C848.314 96.5115 849.263 96.7889 850.33 96.7889ZM871.17 81.8769C872.621 81.8769 873.762 82.1755 874.594 82.7729C875.426 83.3702 876.013 84.1702 876.354 85.1729C876.717 86.1755 876.898 87.2955 876.898 88.5329V97.5249C876.898 97.8875 876.77 98.1969 876.514 98.4529C876.279 98.7089 875.981 98.8369 875.618 98.8369C875.255 98.8369 874.946 98.7089 874.69 98.4529C874.455 98.1969 874.338 97.8875 874.338 97.5249V88.5969C874.338 87.7862 874.21 87.0609 873.954 86.4209C873.719 85.7595 873.314 85.2369 872.738 84.8529C872.183 84.4475 871.415 84.2449 870.434 84.2449C869.538 84.2449 868.717 84.4475 867.97 84.8529C867.223 85.2369 866.626 85.7595 866.178 86.4209C865.73 87.0609 865.506 87.7862 865.506 88.5969V97.5249C865.506 97.8875 865.378 98.1969 865.122 98.4529C864.887 98.7089 864.589 98.8369 864.226 98.8369C863.863 98.8369 863.554 98.7089 863.298 98.4529C863.063 98.1969 862.946 97.8875 862.946 97.5249V83.5729C862.946 83.2102 863.063 82.9115 863.298 82.6769C863.554 82.4209 863.863 82.2929 864.226 82.2929C864.61 82.2929 864.919 82.4209 865.154 82.6769C865.389 82.9115 865.506 83.2102 865.506 83.5729V85.8449L864.866 86.5489C864.973 85.9942 865.218 85.4395 865.602 84.8849C865.986 84.3089 866.466 83.7969 867.042 83.3489C867.618 82.9009 868.258 82.5489 868.962 82.2929C869.666 82.0155 870.402 81.8769 871.17 81.8769ZM888.578 81.8769C889.495 81.8769 890.348 82.0369 891.138 82.3569C891.927 82.6555 892.61 83.0502 893.186 83.5409C893.783 84.0315 894.242 84.5435 894.562 85.0769C894.903 85.6102 895.074 86.1115 895.074 86.5809L894.466 86.1969V83.4129C894.466 83.0502 894.583 82.7515 894.818 82.5169C895.052 82.2609 895.362 82.1329 895.746 82.1329C896.108 82.1329 896.407 82.2609 896.642 82.5169C896.898 82.7515 897.026 83.0502 897.026 83.4129V97.4289C897.026 99.1782 896.652 100.629 895.906 101.781C895.18 102.933 894.199 103.797 892.962 104.373C891.724 104.949 890.338 105.237 888.802 105.237C888.162 105.237 887.458 105.152 886.69 104.981C885.922 104.81 885.239 104.597 884.642 104.341C884.044 104.106 883.66 103.861 883.49 103.605C883.17 103.392 882.967 103.146 882.882 102.869C882.818 102.613 882.871 102.368 883.042 102.133C883.234 101.834 883.479 101.685 883.778 101.685C884.098 101.685 884.492 101.781 884.962 101.973C885.154 102.037 885.452 102.144 885.858 102.293C886.284 102.442 886.754 102.57 887.266 102.677C887.799 102.805 888.322 102.869 888.834 102.869C890.647 102.869 892.034 102.389 892.994 101.429C893.975 100.49 894.466 99.2422 894.466 97.6849V94.7089L894.818 94.8689C894.69 95.4662 894.423 96.0209 894.018 96.5329C893.634 97.0449 893.154 97.5035 892.578 97.9089C892.023 98.2929 891.404 98.6022 890.722 98.8369C890.039 99.0502 889.346 99.1569 888.642 99.1569C887.148 99.1569 885.804 98.7835 884.61 98.0369C883.415 97.2902 882.466 96.2662 881.762 94.9649C881.079 93.6635 880.738 92.1809 880.738 90.5169C880.738 88.8315 881.079 87.3382 881.762 86.0369C882.466 84.7355 883.404 83.7222 884.578 82.9969C885.772 82.2502 887.106 81.8769 888.578 81.8769ZM888.898 84.2449C887.81 84.2449 886.828 84.5222 885.954 85.0769C885.1 85.6102 884.428 86.3462 883.938 87.2849C883.468 88.2235 883.234 89.3009 883.234 90.5169C883.234 91.6902 883.468 92.7569 883.938 93.7169C884.428 94.6555 885.1 95.4022 885.954 95.9569C886.828 96.5115 887.81 96.7889 888.898 96.7889C890.007 96.7889 890.988 96.5222 891.842 95.9889C892.695 95.4342 893.367 94.6875 893.858 93.7489C894.348 92.8102 894.594 91.7329 894.594 90.5169C894.594 89.2795 894.348 88.1915 893.858 87.2529C893.367 86.3142 892.695 85.5782 891.842 85.0449C890.988 84.5115 890.007 84.2449 888.898 84.2449ZM323.928 122.037C325.379 122.037 326.552 122.41 327.448 123.157C328.366 123.882 328.974 124.917 329.272 126.261H328.792L329.016 125.685C329.272 125.088 329.71 124.512 330.328 123.957C330.947 123.402 331.662 122.944 332.472 122.581C333.283 122.218 334.126 122.037 335 122.037C336.408 122.037 337.518 122.346 338.328 122.965C339.139 123.562 339.715 124.373 340.056 125.397C340.419 126.4 340.6 127.53 340.6 128.789V137.525C340.6 137.888 340.472 138.197 340.216 138.453C339.982 138.709 339.683 138.837 339.32 138.837C338.936 138.837 338.627 138.709 338.392 138.453C338.158 138.197 338.04 137.888 338.04 137.525V128.853C338.04 128.021 337.912 127.274 337.656 126.613C337.422 125.93 337.027 125.397 336.472 125.013C335.939 124.608 335.203 124.405 334.264 124.405C333.39 124.405 332.59 124.608 331.864 125.013C331.139 125.397 330.563 125.93 330.136 126.613C329.71 127.274 329.496 128.021 329.496 128.853V137.525C329.496 137.888 329.379 138.197 329.144 138.453C328.91 138.709 328.6 138.837 328.216 138.837C327.854 138.837 327.544 138.709 327.288 138.453C327.054 138.197 326.936 137.888 326.936 137.525V128.757C326.936 127.946 326.819 127.221 326.584 126.581C326.371 125.92 325.998 125.397 325.464 125.013C324.931 124.608 324.195 124.405 323.256 124.405C322.403 124.405 321.624 124.608 320.92 125.013C320.216 125.397 319.651 125.92 319.224 126.581C318.798 127.221 318.584 127.946 318.584 128.757V137.525C318.584 137.888 318.456 138.197 318.2 138.453C317.966 138.709 317.667 138.837 317.304 138.837C316.942 138.837 316.632 138.709 316.376 138.453C316.142 138.197 316.024 137.888 316.024 137.525V123.573C316.024 123.21 316.142 122.912 316.376 122.677C316.632 122.421 316.942 122.293 317.304 122.293C317.688 122.293 317.998 122.421 318.232 122.677C318.467 122.912 318.584 123.21 318.584 123.573V126.005L317.88 126.773C317.966 126.218 318.179 125.664 318.52 125.109C318.883 124.554 319.342 124.042 319.896 123.573C320.451 123.104 321.07 122.73 321.752 122.453C322.435 122.176 323.16 122.037 323.928 122.037ZM352.985 139.157C351.278 139.157 349.785 138.794 348.505 138.069C347.225 137.344 346.222 136.352 345.497 135.093C344.793 133.813 344.441 132.341 344.441 130.677C344.441 128.821 344.803 127.242 345.529 125.941C346.275 124.618 347.235 123.616 348.409 122.933C349.603 122.229 350.862 121.877 352.185 121.877C353.166 121.877 354.115 122.058 355.033 122.421C355.95 122.784 356.761 123.317 357.465 124.021C358.169 124.704 358.734 125.536 359.161 126.517C359.587 127.477 359.811 128.554 359.833 129.749C359.833 130.09 359.705 130.378 359.449 130.613C359.193 130.848 358.894 130.965 358.553 130.965H345.913L345.337 128.757H357.657L357.145 129.205V128.501C357.059 127.626 356.761 126.88 356.249 126.261C355.758 125.621 355.15 125.13 354.425 124.789C353.721 124.448 352.974 124.277 352.185 124.277C351.545 124.277 350.905 124.394 350.265 124.629C349.646 124.842 349.081 125.205 348.569 125.717C348.078 126.208 347.673 126.848 347.353 127.637C347.054 128.426 346.905 129.376 346.905 130.485C346.905 131.722 347.15 132.81 347.641 133.749C348.153 134.688 348.857 135.434 349.753 135.989C350.649 136.522 351.694 136.789 352.889 136.789C353.635 136.789 354.286 136.693 354.841 136.501C355.395 136.309 355.875 136.074 356.281 135.797C356.686 135.498 357.027 135.2 357.305 134.901C357.582 134.709 357.849 134.613 358.105 134.613C358.425 134.613 358.681 134.72 358.873 134.933C359.086 135.146 359.193 135.402 359.193 135.701C359.193 136.064 359.022 136.384 358.681 136.661C358.083 137.322 357.273 137.909 356.249 138.421C355.225 138.912 354.137 139.157 352.985 139.157ZM371.905 121.877C373.355 121.877 374.497 122.176 375.329 122.773C376.161 123.37 376.747 124.17 377.089 125.173C377.451 126.176 377.633 127.296 377.633 128.533V137.525C377.633 137.888 377.505 138.197 377.249 138.453C377.014 138.709 376.715 138.837 376.353 138.837C375.99 138.837 375.681 138.709 375.425 138.453C375.19 138.197 375.073 137.888 375.073 137.525V128.597C375.073 127.786 374.945 127.061 374.689 126.421C374.454 125.76 374.049 125.237 373.473 124.853C372.918 124.448 372.15 124.245 371.169 124.245C370.273 124.245 369.451 124.448 368.705 124.853C367.958 125.237 367.361 125.76 366.913 126.421C366.465 127.061 366.241 127.786 366.241 128.597V137.525C366.241 137.888 366.113 138.197 365.857 138.453C365.622 138.709 365.323 138.837 364.961 138.837C364.598 138.837 364.289 138.709 364.033 138.453C363.798 138.197 363.681 137.888 363.681 137.525V123.573C363.681 123.21 363.798 122.912 364.033 122.677C364.289 122.421 364.598 122.293 364.961 122.293C365.345 122.293 365.654 122.421 365.889 122.677C366.123 122.912 366.241 123.21 366.241 123.573V125.845L365.601 126.549C365.707 125.994 365.953 125.44 366.337 124.885C366.721 124.309 367.201 123.797 367.777 123.349C368.353 122.901 368.993 122.549 369.697 122.293C370.401 122.016 371.137 121.877 371.905 121.877ZM385.376 139.925C385.376 141.013 385.131 141.941 384.64 142.709C384.171 143.477 383.573 144.074 382.848 144.501C382.123 144.928 381.365 145.141 380.576 145.141C380.213 145.141 379.925 145.024 379.712 144.789C379.477 144.554 379.36 144.277 379.36 143.957V143.733C379.36 143.413 379.467 143.157 379.68 142.965C379.893 142.773 380.16 142.634 380.48 142.549C380.971 142.421 381.387 142.218 381.728 141.941C382.069 141.685 382.336 141.333 382.528 140.885C382.72 140.458 382.816 139.946 382.816 139.349V123.573C382.816 123.21 382.933 122.901 383.168 122.645C383.424 122.389 383.733 122.261 384.096 122.261C384.48 122.261 384.789 122.389 385.024 122.645C385.259 122.901 385.376 123.21 385.376 123.573V139.925ZM384.096 119.893C383.563 119.893 383.168 119.786 382.912 119.573C382.656 119.36 382.528 119.029 382.528 118.581V118.133C382.528 117.685 382.667 117.354 382.944 117.141C383.221 116.928 383.616 116.821 384.128 116.821C384.64 116.821 385.024 116.928 385.28 117.141C385.536 117.354 385.664 117.685 385.664 118.133V118.581C385.664 119.029 385.525 119.36 385.248 119.573C384.992 119.786 384.608 119.893 384.096 119.893ZM404.719 122.133C405.081 122.133 405.38 122.261 405.615 122.517C405.871 122.752 405.999 123.05 405.999 123.413V137.525C405.999 137.888 405.871 138.197 405.615 138.453C405.38 138.709 405.081 138.837 404.719 138.837C404.335 138.837 404.025 138.709 403.791 138.453C403.556 138.197 403.439 137.888 403.439 137.525V134.485L404.047 134.421C404.047 134.89 403.887 135.402 403.567 135.957C403.247 136.512 402.809 137.034 402.255 137.525C401.7 137.994 401.039 138.389 400.271 138.709C399.524 139.008 398.713 139.157 397.839 139.157C396.388 139.157 395.087 138.784 393.935 138.037C392.783 137.269 391.865 136.234 391.183 134.933C390.521 133.632 390.191 132.149 390.191 130.485C390.191 128.8 390.521 127.317 391.183 126.037C391.865 124.736 392.783 123.722 393.935 122.997C395.087 122.25 396.367 121.877 397.775 121.877C398.692 121.877 399.545 122.026 400.335 122.325C401.124 122.624 401.807 123.029 402.383 123.541C402.98 124.053 403.439 124.618 403.759 125.237C404.1 125.856 404.271 126.474 404.271 127.093L403.439 126.901V123.413C403.439 123.05 403.556 122.752 403.791 122.517C404.025 122.261 404.335 122.133 404.719 122.133ZM398.127 136.789C399.193 136.789 400.132 136.512 400.943 135.957C401.775 135.402 402.415 134.656 402.863 133.717C403.332 132.757 403.567 131.68 403.567 130.485C403.567 129.312 403.332 128.256 402.863 127.317C402.415 126.357 401.775 125.61 400.943 125.077C400.132 124.522 399.193 124.245 398.127 124.245C397.081 124.245 396.143 124.512 395.311 125.045C394.5 125.578 393.86 126.314 393.391 127.253C392.921 128.192 392.687 129.269 392.687 130.485C392.687 131.68 392.911 132.757 393.359 133.717C393.828 134.656 394.468 135.402 395.279 135.957C396.111 136.512 397.06 136.789 398.127 136.789ZM424.375 115.157C424.738 115.157 425.036 115.285 425.271 115.541C425.527 115.776 425.655 116.074 425.655 116.437V137.525C425.655 137.888 425.527 138.197 425.271 138.453C425.036 138.709 424.738 138.837 424.375 138.837C423.991 138.837 423.682 138.709 423.447 138.453C423.212 138.197 423.095 137.888 423.095 137.525V134.485L423.703 134.261C423.703 134.773 423.543 135.317 423.223 135.893C422.903 136.448 422.466 136.97 421.911 137.461C421.356 137.952 420.695 138.357 419.927 138.677C419.18 138.997 418.37 139.157 417.495 139.157C416.066 139.157 414.764 138.784 413.591 138.037C412.439 137.29 411.522 136.266 410.839 134.965C410.178 133.664 409.847 132.181 409.847 130.517C409.847 128.832 410.178 127.338 410.839 126.037C411.522 124.736 412.439 123.722 413.591 122.997C414.743 122.25 416.023 121.877 417.431 121.877C418.327 121.877 419.17 122.026 419.959 122.325C420.748 122.624 421.431 123.029 422.007 123.541C422.604 124.053 423.074 124.618 423.415 125.237C423.756 125.856 423.927 126.474 423.927 127.093L423.095 126.901V116.437C423.095 116.074 423.212 115.776 423.447 115.541C423.682 115.285 423.991 115.157 424.375 115.157ZM417.783 136.789C418.85 136.789 419.788 136.522 420.599 135.989C421.431 135.434 422.071 134.688 422.519 133.749C422.988 132.789 423.223 131.712 423.223 130.517C423.223 129.301 422.988 128.224 422.519 127.285C422.071 126.346 421.431 125.61 420.599 125.077C419.788 124.522 418.85 124.245 417.783 124.245C416.738 124.245 415.799 124.522 414.967 125.077C414.156 125.61 413.516 126.346 413.047 127.285C412.578 128.224 412.343 129.301 412.343 130.517C412.343 131.69 412.578 132.757 413.047 133.717C413.516 134.656 414.156 135.402 414.967 135.957C415.799 136.512 416.738 136.789 417.783 136.789ZM432.863 137.525C432.863 137.888 432.735 138.197 432.479 138.453C432.245 138.709 431.946 138.837 431.583 138.837C431.199 138.837 430.89 138.709 430.655 138.453C430.421 138.197 430.303 137.888 430.303 137.525V123.317C430.303 122.954 430.421 122.656 430.655 122.421C430.911 122.165 431.221 122.037 431.583 122.037C431.946 122.037 432.245 122.165 432.479 122.421C432.735 122.656 432.863 122.954 432.863 123.317V137.525ZM431.583 119.893C431.05 119.893 430.655 119.786 430.399 119.573C430.143 119.36 430.015 119.029 430.015 118.581V118.133C430.015 117.685 430.154 117.354 430.431 117.141C430.709 116.928 431.103 116.821 431.615 116.821C432.127 116.821 432.511 116.928 432.767 117.141C433.023 117.354 433.151 117.685 433.151 118.133V118.581C433.151 119.029 433.013 119.36 432.735 119.573C432.479 119.786 432.095 119.893 431.583 119.893ZM447.81 138.837C447.426 138.837 447.117 138.709 446.882 138.453C446.648 138.197 446.53 137.888 446.53 137.525V116.437C446.53 116.074 446.648 115.776 446.882 115.541C447.117 115.285 447.426 115.157 447.81 115.157C448.173 115.157 448.472 115.285 448.706 115.541C448.962 115.776 449.09 116.074 449.09 116.437V137.525C449.09 137.888 448.962 138.197 448.706 138.453C448.472 138.709 448.173 138.837 447.81 138.837ZM458.434 122.197C458.776 122.197 459.064 122.336 459.298 122.613C459.554 122.869 459.682 123.136 459.682 123.413C459.682 123.776 459.512 124.096 459.17 124.373L448.802 133.429L448.706 130.453L457.538 122.581C457.794 122.325 458.093 122.197 458.434 122.197ZM458.786 138.805C458.424 138.805 458.104 138.666 457.826 138.389L451.01 131.125L452.93 129.365L459.682 136.597C459.938 136.874 460.066 137.194 460.066 137.557C460.066 137.941 459.917 138.25 459.618 138.485C459.32 138.698 459.042 138.805 458.786 138.805ZM478.767 130.517C478.767 132.181 478.394 133.664 477.648 134.965C476.922 136.266 475.93 137.29 474.672 138.037C473.434 138.784 472.037 139.157 470.48 139.157C468.922 139.157 467.514 138.784 466.256 138.037C464.997 137.29 463.994 136.266 463.248 134.965C462.522 133.664 462.16 132.181 462.16 130.517C462.16 128.853 462.522 127.37 463.248 126.069C463.994 124.768 464.997 123.744 466.256 122.997C467.514 122.25 468.922 121.877 470.48 121.877C472.037 121.877 473.434 122.25 474.672 122.997C475.93 123.744 476.922 124.768 477.648 126.069C478.394 127.37 478.767 128.853 478.767 130.517ZM476.208 130.517C476.208 129.28 475.952 128.192 475.44 127.253C474.949 126.314 474.266 125.578 473.392 125.045C472.538 124.512 471.568 124.245 470.48 124.245C469.392 124.245 468.41 124.512 467.536 125.045C466.682 125.578 466 126.314 465.488 127.253C464.976 128.192 464.72 129.28 464.72 130.517C464.72 131.733 464.976 132.81 465.488 133.749C466 134.688 466.682 135.434 467.536 135.989C468.41 136.522 469.392 136.789 470.48 136.789C471.568 136.789 472.538 136.522 473.392 135.989C474.266 135.434 474.949 134.688 475.44 133.749C475.952 132.81 476.208 131.733 476.208 130.517ZM483.898 138.837C483.535 138.837 483.226 138.709 482.97 138.453C482.735 138.197 482.618 137.888 482.618 137.525V123.573C482.618 123.21 482.735 122.912 482.97 122.677C483.226 122.421 483.535 122.293 483.898 122.293C484.282 122.293 484.591 122.421 484.826 122.677C485.061 122.912 485.178 123.21 485.178 123.573V127.797L484.794 127.125C484.922 126.464 485.146 125.824 485.466 125.205C485.807 124.565 486.234 124 486.746 123.509C487.258 122.997 487.845 122.602 488.506 122.325C489.167 122.026 489.893 121.877 490.682 121.877C491.151 121.877 491.578 121.994 491.962 122.229C492.367 122.442 492.57 122.752 492.57 123.157C492.57 123.605 492.453 123.936 492.218 124.149C491.983 124.362 491.717 124.469 491.418 124.469C491.141 124.469 490.874 124.416 490.618 124.309C490.362 124.181 490.042 124.117 489.658 124.117C489.125 124.117 488.591 124.266 488.058 124.565C487.546 124.842 487.066 125.248 486.618 125.781C486.191 126.314 485.839 126.922 485.562 127.605C485.306 128.266 485.178 128.981 485.178 129.749V137.525C485.178 137.888 485.05 138.197 484.794 138.453C484.559 138.709 484.261 138.837 483.898 138.837ZM503.622 121.877C505.072 121.877 506.374 122.25 507.526 122.997C508.678 123.722 509.584 124.725 510.246 126.005C510.928 127.285 511.27 128.768 511.27 130.453C511.27 132.138 510.928 133.632 510.246 134.933C509.584 136.234 508.678 137.269 507.526 138.037C506.395 138.784 505.115 139.157 503.686 139.157C502.896 139.157 502.15 139.04 501.446 138.805C500.763 138.549 500.134 138.218 499.558 137.813C499.003 137.386 498.534 136.928 498.15 136.437C497.766 135.925 497.488 135.424 497.318 134.933L498.022 134.485V137.685C498.022 138.048 497.904 138.357 497.67 138.613C497.435 138.869 497.126 138.997 496.742 138.997C496.379 138.997 496.07 138.88 495.814 138.645C495.579 138.389 495.462 138.069 495.462 137.685V116.469C495.462 116.106 495.579 115.797 495.814 115.541C496.07 115.285 496.379 115.157 496.742 115.157C497.126 115.157 497.435 115.285 497.67 115.541C497.904 115.797 498.022 116.106 498.022 116.469V126.325L497.542 126.069C497.691 125.536 497.947 125.024 498.31 124.533C498.694 124.021 499.152 123.573 499.686 123.189C500.24 122.784 500.848 122.464 501.51 122.229C502.192 121.994 502.896 121.877 503.622 121.877ZM503.334 124.245C502.267 124.245 501.318 124.512 500.486 125.045C499.675 125.578 499.035 126.314 498.566 127.253C498.118 128.192 497.894 129.258 497.894 130.453C497.894 131.648 498.118 132.725 498.566 133.685C499.035 134.645 499.675 135.402 500.486 135.957C501.318 136.512 502.267 136.789 503.334 136.789C504.4 136.789 505.339 136.512 506.15 135.957C506.96 135.402 507.6 134.645 508.07 133.685C508.539 132.725 508.774 131.648 508.774 130.453C508.774 129.258 508.539 128.192 508.07 127.253C507.6 126.314 506.96 125.578 506.15 125.045C505.339 124.512 504.4 124.245 503.334 124.245ZM528.75 122.133C529.113 122.133 529.411 122.261 529.646 122.517C529.902 122.752 530.03 123.05 530.03 123.413V137.525C530.03 137.888 529.902 138.197 529.646 138.453C529.411 138.709 529.113 138.837 528.75 138.837C528.366 138.837 528.057 138.709 527.822 138.453C527.587 138.197 527.47 137.888 527.47 137.525V134.485L528.078 134.421C528.078 134.89 527.918 135.402 527.598 135.957C527.278 136.512 526.841 137.034 526.286 137.525C525.731 137.994 525.07 138.389 524.302 138.709C523.555 139.008 522.745 139.157 521.87 139.157C520.419 139.157 519.118 138.784 517.966 138.037C516.814 137.269 515.897 136.234 515.214 134.933C514.553 133.632 514.222 132.149 514.222 130.485C514.222 128.8 514.553 127.317 515.214 126.037C515.897 124.736 516.814 123.722 517.966 122.997C519.118 122.25 520.398 121.877 521.806 121.877C522.723 121.877 523.577 122.026 524.366 122.325C525.155 122.624 525.838 123.029 526.414 123.541C527.011 124.053 527.47 124.618 527.79 125.237C528.131 125.856 528.302 126.474 528.302 127.093L527.47 126.901V123.413C527.47 123.05 527.587 122.752 527.822 122.517C528.057 122.261 528.366 122.133 528.75 122.133ZM522.158 136.789C523.225 136.789 524.163 136.512 524.974 135.957C525.806 135.402 526.446 134.656 526.894 133.717C527.363 132.757 527.598 131.68 527.598 130.485C527.598 129.312 527.363 128.256 526.894 127.317C526.446 126.357 525.806 125.61 524.974 125.077C524.163 124.522 523.225 124.245 522.158 124.245C521.113 124.245 520.174 124.512 519.342 125.045C518.531 125.578 517.891 126.314 517.422 127.253C516.953 128.192 516.718 129.269 516.718 130.485C516.718 131.68 516.942 132.757 517.39 133.717C517.859 134.656 518.499 135.402 519.31 135.957C520.142 136.512 521.091 136.789 522.158 136.789ZM542.998 121.877C544.449 121.877 545.59 122.176 546.422 122.773C547.254 123.37 547.841 124.17 548.182 125.173C548.545 126.176 548.726 127.296 548.726 128.533V137.525C548.726 137.888 548.598 138.197 548.342 138.453C548.108 138.709 547.809 138.837 547.446 138.837C547.084 138.837 546.774 138.709 546.518 138.453C546.284 138.197 546.166 137.888 546.166 137.525V128.597C546.166 127.786 546.038 127.061 545.782 126.421C545.548 125.76 545.142 125.237 544.566 124.853C544.012 124.448 543.244 124.245 542.262 124.245C541.366 124.245 540.545 124.448 539.798 124.853C539.052 125.237 538.454 125.76 538.006 126.421C537.558 127.061 537.334 127.786 537.334 128.597V137.525C537.334 137.888 537.206 138.197 536.95 138.453C536.716 138.709 536.417 138.837 536.054 138.837C535.692 138.837 535.382 138.709 535.126 138.453C534.892 138.197 534.774 137.888 534.774 137.525V123.573C534.774 123.21 534.892 122.912 535.126 122.677C535.382 122.421 535.692 122.293 536.054 122.293C536.438 122.293 536.748 122.421 536.982 122.677C537.217 122.912 537.334 123.21 537.334 123.573V125.845L536.694 126.549C536.801 125.994 537.046 125.44 537.43 124.885C537.814 124.309 538.294 123.797 538.87 123.349C539.446 122.901 540.086 122.549 540.79 122.293C541.494 122.016 542.23 121.877 542.998 121.877ZM570.434 121.877C571.885 121.877 573.186 122.25 574.338 122.997C575.49 123.722 576.397 124.725 577.058 126.005C577.741 127.285 578.082 128.768 578.082 130.453C578.082 132.138 577.741 133.632 577.058 134.933C576.397 136.234 575.49 137.269 574.338 138.037C573.208 138.784 571.928 139.157 570.498 139.157C569.709 139.157 568.962 139.04 568.258 138.805C567.576 138.549 566.946 138.218 566.37 137.813C565.816 137.386 565.346 136.928 564.962 136.437C564.578 135.925 564.301 135.424 564.13 134.933L564.834 134.485V137.685C564.834 138.048 564.717 138.357 564.482 138.613C564.248 138.869 563.938 138.997 563.554 138.997C563.192 138.997 562.882 138.88 562.626 138.645C562.392 138.389 562.274 138.069 562.274 137.685V116.469C562.274 116.106 562.392 115.797 562.626 115.541C562.882 115.285 563.192 115.157 563.554 115.157C563.938 115.157 564.248 115.285 564.482 115.541C564.717 115.797 564.834 116.106 564.834 116.469V126.325L564.354 126.069C564.504 125.536 564.76 125.024 565.122 124.533C565.506 124.021 565.965 123.573 566.498 123.189C567.053 122.784 567.661 122.464 568.322 122.229C569.005 121.994 569.709 121.877 570.434 121.877ZM570.146 124.245C569.08 124.245 568.13 124.512 567.298 125.045C566.488 125.578 565.848 126.314 565.378 127.253C564.93 128.192 564.706 129.258 564.706 130.453C564.706 131.648 564.93 132.725 565.378 133.685C565.848 134.645 566.488 135.402 567.298 135.957C568.13 136.512 569.08 136.789 570.146 136.789C571.213 136.789 572.152 136.512 572.962 135.957C573.773 135.402 574.413 134.645 574.882 133.685C575.352 132.725 575.586 131.648 575.586 130.453C575.586 129.258 575.352 128.192 574.882 127.253C574.413 126.314 573.773 125.578 572.962 125.045C572.152 124.512 571.213 124.245 570.146 124.245ZM594.315 122.293C594.699 122.293 595.008 122.421 595.243 122.677C595.477 122.912 595.595 123.21 595.595 123.573V132.309C595.595 134.464 594.987 136.138 593.771 137.333C592.576 138.506 590.901 139.093 588.747 139.093C586.613 139.093 584.939 138.506 583.723 137.333C582.528 136.138 581.931 134.464 581.931 132.309V123.573C581.931 123.21 582.048 122.912 582.283 122.677C582.539 122.421 582.848 122.293 583.211 122.293C583.595 122.293 583.904 122.421 584.139 122.677C584.373 122.912 584.491 123.21 584.491 123.573V132.309C584.491 133.76 584.864 134.858 585.611 135.605C586.357 136.352 587.403 136.725 588.747 136.725C590.133 136.725 591.189 136.352 591.915 135.605C592.661 134.858 593.035 133.76 593.035 132.309V123.573C593.035 123.21 593.152 122.912 593.387 122.677C593.643 122.421 593.952 122.293 594.315 122.293ZM603.153 137.525C603.153 137.888 603.025 138.197 602.769 138.453C602.513 138.709 602.203 138.837 601.841 138.837C601.478 138.837 601.179 138.709 600.945 138.453C600.71 138.197 600.593 137.888 600.593 137.525V116.437C600.593 116.074 600.71 115.776 600.945 115.541C601.201 115.285 601.51 115.157 601.873 115.157C602.257 115.157 602.566 115.285 602.801 115.541C603.035 115.776 603.153 116.074 603.153 116.437V137.525ZM610.934 137.525C610.934 137.888 610.806 138.197 610.55 138.453C610.294 138.709 609.985 138.837 609.622 138.837C609.259 138.837 608.961 138.709 608.726 138.453C608.491 138.197 608.374 137.888 608.374 137.525V116.437C608.374 116.074 608.491 115.776 608.726 115.541C608.982 115.285 609.291 115.157 609.654 115.157C610.038 115.157 610.347 115.285 610.582 115.541C610.817 115.776 610.934 116.074 610.934 116.437V137.525ZM627.815 122.037C628.177 122.037 628.476 122.165 628.711 122.421C628.967 122.656 629.095 122.954 629.095 123.317V137.269C629.095 139.061 628.743 140.544 628.039 141.717C627.335 142.912 626.385 143.797 625.191 144.373C624.017 144.949 622.684 145.237 621.191 145.237C620.359 145.237 619.559 145.152 618.791 144.981C618.023 144.81 617.393 144.586 616.903 144.309C616.497 144.117 616.209 143.872 616.039 143.573C615.889 143.296 615.868 142.997 615.975 142.677C616.124 142.293 616.337 142.026 616.615 141.877C616.913 141.728 617.223 141.728 617.543 141.877C617.884 142.026 618.375 142.229 619.015 142.485C619.676 142.762 620.412 142.901 621.223 142.901C622.332 142.901 623.281 142.688 624.071 142.261C624.86 141.834 625.468 141.205 625.895 140.373C626.321 139.562 626.535 138.549 626.535 137.333V135.061L626.919 135.861C626.577 136.522 626.119 137.098 625.543 137.589C624.967 138.08 624.305 138.464 623.559 138.741C622.812 139.018 621.991 139.157 621.095 139.157C619.879 139.157 618.844 138.901 617.991 138.389C617.159 137.856 616.519 137.13 616.071 136.213C615.644 135.274 615.431 134.197 615.431 132.981V123.317C615.431 122.954 615.548 122.656 615.783 122.421C616.039 122.165 616.348 122.037 616.711 122.037C617.095 122.037 617.404 122.165 617.639 122.421C617.873 122.656 617.991 122.954 617.991 123.317V132.405C617.991 133.856 618.311 134.954 618.951 135.701C619.591 136.426 620.583 136.789 621.927 136.789C622.78 136.789 623.548 136.597 624.231 136.213C624.935 135.829 625.489 135.306 625.895 134.645C626.321 133.962 626.535 133.216 626.535 132.405V123.317C626.535 122.954 626.652 122.656 626.887 122.421C627.121 122.165 627.431 122.037 627.815 122.037ZM636.301 137.525C636.301 137.888 636.173 138.197 635.917 138.453C635.682 138.709 635.383 138.837 635.021 138.837C634.637 138.837 634.327 138.709 634.093 138.453C633.858 138.197 633.741 137.888 633.741 137.525V123.317C633.741 122.954 633.858 122.656 634.093 122.421C634.349 122.165 634.658 122.037 635.021 122.037C635.383 122.037 635.682 122.165 635.917 122.421C636.173 122.656 636.301 122.954 636.301 123.317V137.525ZM635.021 119.893C634.487 119.893 634.093 119.786 633.837 119.573C633.581 119.36 633.453 119.029 633.453 118.581V118.133C633.453 117.685 633.591 117.354 633.869 117.141C634.146 116.928 634.541 116.821 635.053 116.821C635.565 116.821 635.949 116.928 636.205 117.141C636.461 117.354 636.589 117.685 636.589 118.133V118.581C636.589 119.029 636.45 119.36 636.173 119.573C635.917 119.786 635.533 119.893 635.021 119.893ZM649.123 121.877C650.574 121.877 651.715 122.176 652.547 122.773C653.379 123.37 653.966 124.17 654.307 125.173C654.67 126.176 654.851 127.296 654.851 128.533V137.525C654.851 137.888 654.723 138.197 654.467 138.453C654.233 138.709 653.934 138.837 653.571 138.837C653.209 138.837 652.899 138.709 652.643 138.453C652.409 138.197 652.291 137.888 652.291 137.525V128.597C652.291 127.786 652.163 127.061 651.907 126.421C651.673 125.76 651.267 125.237 650.691 124.853C650.137 124.448 649.369 124.245 648.387 124.245C647.491 124.245 646.67 124.448 645.923 124.853C645.177 125.237 644.579 125.76 644.131 126.421C643.683 127.061 643.459 127.786 643.459 128.597V137.525C643.459 137.888 643.331 138.197 643.075 138.453C642.841 138.709 642.542 138.837 642.179 138.837C641.817 138.837 641.507 138.709 641.251 138.453C641.017 138.197 640.899 137.888 640.899 137.525V123.573C640.899 123.21 641.017 122.912 641.251 122.677C641.507 122.421 641.817 122.293 642.179 122.293C642.563 122.293 642.873 122.421 643.107 122.677C643.342 122.912 643.459 123.21 643.459 123.573V125.845L642.819 126.549C642.926 125.994 643.171 125.44 643.555 124.885C643.939 124.309 644.419 123.797 644.995 123.349C645.571 122.901 646.211 122.549 646.915 122.293C647.619 122.016 648.355 121.877 649.123 121.877ZM666.531 121.877C667.448 121.877 668.301 122.037 669.091 122.357C669.88 122.656 670.563 123.05 671.139 123.541C671.736 124.032 672.195 124.544 672.515 125.077C672.856 125.61 673.027 126.112 673.027 126.581L672.419 126.197V123.413C672.419 123.05 672.536 122.752 672.771 122.517C673.005 122.261 673.315 122.133 673.699 122.133C674.061 122.133 674.36 122.261 674.595 122.517C674.851 122.752 674.979 123.05 674.979 123.413V137.429C674.979 139.178 674.605 140.629 673.859 141.781C673.133 142.933 672.152 143.797 670.915 144.373C669.677 144.949 668.291 145.237 666.755 145.237C666.115 145.237 665.411 145.152 664.643 144.981C663.875 144.81 663.192 144.597 662.595 144.341C661.997 144.106 661.613 143.861 661.443 143.605C661.123 143.392 660.92 143.146 660.835 142.869C660.771 142.613 660.824 142.368 660.995 142.133C661.187 141.834 661.432 141.685 661.731 141.685C662.051 141.685 662.445 141.781 662.915 141.973C663.107 142.037 663.405 142.144 663.811 142.293C664.237 142.442 664.707 142.57 665.219 142.677C665.752 142.805 666.275 142.869 666.787 142.869C668.6 142.869 669.987 142.389 670.947 141.429C671.928 140.49 672.419 139.242 672.419 137.685V134.709L672.771 134.869C672.643 135.466 672.376 136.021 671.971 136.533C671.587 137.045 671.107 137.504 670.531 137.909C669.976 138.293 669.357 138.602 668.675 138.837C667.992 139.05 667.299 139.157 666.595 139.157C665.101 139.157 663.757 138.784 662.563 138.037C661.368 137.29 660.419 136.266 659.715 134.965C659.032 133.664 658.691 132.181 658.691 130.517C658.691 128.832 659.032 127.338 659.715 126.037C660.419 124.736 661.357 123.722 662.531 122.997C663.725 122.25 665.059 121.877 666.531 121.877ZM666.851 124.245C665.763 124.245 664.781 124.522 663.907 125.077C663.053 125.61 662.381 126.346 661.891 127.285C661.421 128.224 661.187 129.301 661.187 130.517C661.187 131.69 661.421 132.757 661.891 133.717C662.381 134.656 663.053 135.402 663.907 135.957C664.781 136.512 665.763 136.789 666.851 136.789C667.96 136.789 668.941 136.522 669.795 135.989C670.648 135.434 671.32 134.688 671.811 133.749C672.301 132.81 672.547 131.733 672.547 130.517C672.547 129.28 672.301 128.192 671.811 127.253C671.32 126.314 670.648 125.578 669.795 125.045C668.941 124.512 667.96 124.245 666.851 124.245Z" fill="white"/>
</svg>
