<svg width="973" height="646" viewBox="0 0 973 646" fill="none" xmlns="http://www.w3.org/2000/svg">
<path d="M957.876 31.2931C958.21 162.892 960.913 565.85 957.179 634.189C906.397 642.981 904.762 635.684 853.225 634.012L26.1786 607.147C20.814 606.975 14.9598 606.621 10.9129 603.085C7.21502 599.814 5.9546 594.642 4.98064 589.798C-3.38394 548.033 39.9859 61.1942 41.3504 21.1994C98.1786 12.2879 173.913 12.9337 231.559 12.9129C291.85 12.9129 337.147 9.66291 397.403 10.5171C516.376 12.2046 635.304 15.6265 754.189 20.7879C822.106 23.7879 890.001 27.2879 957.876 31.2931Z" fill="#116D4F"/>
<path d="M578.429 186.022C587.824 207.902 609.001 222.142 629.892 233.6C654.319 246.986 680.033 258.444 702.262 275.231C724.491 292.017 743.475 315.34 747.752 342.887C753.996 383.231 728.189 421.106 701.423 451.934C674.663 482.767 644.225 514.34 638.236 554.725C636.892 563.71 637.147 573.746 642.981 580.71C648.293 587.053 656.923 589.309 664.996 591.158C745.975 609.71 827.903 621.762 910.793 627.319C915.673 627.652 920.752 627.923 925.262 626.017C934.986 621.913 938.022 609.871 939.71 599.465C963.054 456.314 965.772 310.689 968.439 165.673C969.199 124.824 969.856 83.4649 959.007 44.1733C957.955 40.2826 956.611 36.2722 953.465 33.8243C950.746 32.0587 947.778 31.0274 944.554 30.7305C867.694 17.6733 790.288 11.642 712.335 12.642C686.819 12.9493 652.47 9.12117 630.96 26.2566C615.288 38.767 609.142 60.7045 600.991 78.1733C585.512 111.324 562.324 148.475 578.429 186.022Z" fill="#15664C"/>
<path d="M867.345 48.6266C900.621 54.0172 927.637 56.4078 961.377 54.8141C961.903 36.5485 961.262 31.1578 961.767 12.913C824.71 11.4703 25.5015 -10.4307 25.1109 13.3193C24.663 40.3974 34.8348 32.7724 51.9703 30.1474C83.9598 25.0693 174.496 27.7724 206.762 26.1578C334.173 19.8193 833.986 43.2412 867.345 48.6266Z" fill="#CD924C"/>
<path d="M959.882 609.502C959.882 621.97 959.491 626.309 955.074 639.986C795.147 657.491 646.793 626.095 485.892 626.934C452.09 627.106 9.56917 617.205 5.50668 603.2C-2.46728 575.46 10.4077 570.481 25.5588 570.46C94.5015 570.46 199.876 584.429 268.824 585.731C344.772 587.168 877.574 611.72 959.882 609.502Z" fill="#CD924C"/>
<path d="M942.085 210.179C942.085 375.158 941.189 489.944 915.538 615.121C913.788 623.626 909.705 621.444 915.012 628.392C920.324 635.335 950.116 630.455 957.179 632.283C976.783 479.444 972.054 335.804 968.653 181.778C967.699 138.653 968.788 55.34 961.71 12.814C935.085 13.3192 935.085 13.3192 933.819 37.8869C931.934 74.7931 942.085 173.59 942.085 210.179Z" fill="#CD924C"/>
<path d="M41.7776 606.079C25.9859 600.533 21.8817 599.736 5.52755 603.199C-9.08182 605.142 22.6578 89.3034 12.8192 32.4805C9.90255 15.6523 14.413 11.0846 42.9859 8.04817C59.3609 6.319 51.6005 36.7825 50.6057 50.845C47.3973 96.069 36.9911 366.345 37.8869 456.236C38.0432 471.35 32.7932 603.022 41.7776 606.079Z" fill="#CD924C"/>
<path d="M24.038 120.116C22.0953 123.83 19.663 127.351 18.6161 131.418C17.9651 134.476 17.7203 137.569 17.8921 140.694C18.2046 164.647 18.5015 188.601 18.788 212.554C19.0015 229.809 19.2151 247.064 20.7359 264.257C22.564 285.95 26.314 307.95 22.1369 329.309C18.9234 345.668 11.163 360.877 8.03277 377.257C4.63173 394.996 6.80881 413.283 7.2359 431.356C7.64735 448.491 6.47548 465.611 5.75673 482.752C4.06402 522.741 -9.4516 612.262 11.9807 606.08C11.9807 587.444 7.91819 565.481 7.91819 546.845C7.91819 519.746 7.91819 492.496 12.5849 465.788C15.5432 448.767 20.3661 431.47 17.2151 414.47C15.4807 405.601 11.5953 397.101 11.3974 388.075C10.9338 369.283 25.8296 353.819 30.8453 335.746C36.4703 315.887 29.8921 294.897 26.6838 274.528C22.5796 248.465 24.0796 221.871 25.5953 195.533L28.0849 152.231C28.4859 140.397 29.7255 128.658 31.7984 117.002C34.1734 105.33 38.2984 93.6579 37.9078 81.7152C37.6369 73.4079 35.2046 65.3558 33.4911 57.2256C31.4234 47.2725 30.439 37.2152 30.538 27.0537C30.6317 19.0016 38.9182 11.085 47.2046 7.60059C24.2567 10.887 20.7359 29.3089 23.7671 47.3454C27.7567 70.9964 35.8869 97.3766 24.038 120.116Z" fill="#AA762A"/>
<path d="M29.5639 567.173C30.1472 561.335 31.2566 554.762 27.6212 550.054C24.3139 545.679 21.1212 518.038 23.9441 514.048C34.0587 499.731 34.366 480.981 34.2879 463.47C34.2879 443.923 34.116 424.199 30.0691 405.116C29.4962 402.897 29.1525 400.647 29.0379 398.366C29.1525 395.548 29.6316 392.804 30.4754 390.116C33.3972 378.824 35.6889 367.408 37.3452 355.861C34.2722 365.705 32.3243 376.715 28.0639 386.09C25.965 390.72 19.5066 394.413 20.5587 399.434C37.3816 478.876 13.9441 520.038 13.9441 520.038C13.1108 522.522 12.5222 525.069 12.1837 527.668C11.84 530.267 11.7566 532.876 11.9233 535.491C12.09 538.106 12.5066 540.684 13.1733 543.22C13.84 545.757 14.7462 548.199 15.892 550.559C18.2462 555.423 20.2097 560.288 20.2097 563.475C20.1785 574.09 21.1941 584.6 23.2618 595.012C23.9233 598.356 20.7931 605.298 23.0118 607.908C25.2254 610.512 53.2514 612.069 58.7566 611.522C53.1368 599.272 28.2045 580.616 29.5639 567.173Z" fill="#AA762A"/>
<path d="M53.7567 597.189C63.9286 601.897 76.5536 599.486 85.3609 592.58C89.6994 589.194 93.689 584.642 99.1317 584.017C104.58 583.397 109.809 587.054 115.293 586.819C118.257 586.491 121.059 585.627 123.694 584.231C129.746 581.491 149.371 581.022 155.418 578.298C145.418 575.225 125.017 572.835 116.517 574.194C111.6 574.975 106.658 575.752 101.814 576.975C94.5432 578.824 87.4807 581.705 80.0119 582.502C72.5484 583.298 64.6682 577.173 59.9234 571.356C58.7775 569.955 40.2411 565.153 37.7723 569.564C33.8244 576.512 46.8921 593.996 53.7567 597.189Z" fill="#AA762A"/>
<path d="M184.689 610.611C196.861 608.955 208.981 606.465 221.272 606.236C247.663 605.726 273.163 615.647 299.455 617.908C323.845 620.085 348.351 615.668 372.095 609.658C384.798 606.449 398.392 602.793 410.72 607.246C416.851 609.465 422.101 613.528 427.856 616.564C458.158 632.554 499.272 619.949 532.996 625.981C397.788 631.929 313.694 625.861 286.33 623.778C212.246 618.179 127.918 617.184 65.8557 612.111C79.4703 597.83 99.9495 605.34 115.429 609.366C137.642 615.262 162.205 613.663 184.689 610.611Z" fill="#AA762A"/>
<path d="M893.58 610.804C879.325 609.189 794.72 605.632 794.72 605.632C789.705 605.126 738.085 604.621 733.319 604.189C552.981 587.85 372.121 579.376 190.757 578.767C158.434 578.767 138.767 605.319 183.465 598.611C213.861 594.038 246.168 582.345 276.215 594.991C284.595 598.512 292.241 603.819 300.991 606.293C334.793 615.824 370.288 580.46 403.33 592.366C415.002 596.606 424.356 606.35 436.397 609.522C457.788 615.121 478.481 598.455 500.46 595.903C521.272 593.475 541.184 603.804 561.705 608.08C587.71 613.507 614.606 609.132 641.153 607.809C677.851 605.981 859.799 618.528 901.455 619.481C906.726 619.595 914.059 622.382 912.408 627.376C911.95 628.345 911.314 629.184 910.512 629.887C909.705 630.595 908.793 631.116 907.778 631.444C896.731 636.366 884.127 636.033 872.09 635.1C860.049 634.168 847.799 632.668 835.778 630.684C829.163 629.595 822.262 628.371 815.84 630.278C812.653 631.231 809.757 632.923 806.663 634.168C797.481 637.845 787.215 637.376 777.491 636.871C760.746 635.996 743.882 635.121 727.564 631.231C720.038 629.439 712.668 627.007 705.064 625.569C692.517 623.194 679.642 623.626 666.866 623.955C626.507 625.22 585.549 626.699 546.283 617.246C529.71 613.356 512.205 607.345 496.121 612.965C498.496 617.496 503.903 619.559 509.054 619.85C514.21 620.142 519.267 619.09 524.361 619.189C528.929 619.382 533.429 620.028 537.861 621.137C562.231 626.444 586.83 631.6 611.767 631.736C629.835 631.835 647.845 629.283 665.892 629.595C714.512 630.434 762.632 652.007 810.668 643.955C819.575 642.455 828.424 639.965 837.429 640.434C843.127 641.001 848.746 641.986 854.293 643.387C873.877 647.434 891.246 644.83 911.22 643.663C972.871 639.986 907.814 612.324 893.58 610.804Z" fill="#AA762A"/>
<path d="M954.319 158.163C952.064 148.903 951.382 137.955 949.809 128.559C948.309 119.746 953.074 106.496 954.434 97.6682C957.392 78.3714 952.918 65.6682 955.877 46.3922C956.538 42.111 957.158 37.5953 955.679 33.5328C954.199 29.4651 949.845 26.1214 945.663 27.3453C945.059 32.5016 919.522 10.3818 933.642 55.3193L933.877 72.4755C936.21 91.1891 946.481 107.897 944.496 126.653C943.814 133.09 942.882 139.627 944.012 146.106C945.043 151.939 947.746 157.423 949.397 163.163C956.632 188.314 942.824 214.715 943.679 240.976C943.991 250.45 946.246 259.767 947.085 269.22C947.632 277.033 947.705 284.856 947.298 292.679L945.606 344.887C944.923 366.054 940.043 391.575 939.168 412.642C937.767 446.491 922.772 567.793 926.528 552.564C929.033 542.08 935.22 529.106 939.304 519.377C947.804 499.262 949.127 476.955 950.33 455.184C953.908 390.387 957.491 325.377 952.548 260.658C951.46 246.481 949.96 232.257 951.012 218.08C952.548 198.022 959.085 177.715 954.319 158.163Z" fill="#AA762A"/>
<path d="M971.996 330.397C970.538 292.835 971.762 256.475 969.121 226.736C963.033 248.543 959.762 302.309 959.762 302.309C962.699 326.955 961.944 351.892 961.147 376.715L960.038 412.663C959.356 434.35 958.658 456.059 955.991 477.595C952.668 504.205 946.377 530.095 937.127 555.267C932.574 567.699 927.246 580.048 925.71 593.199C924.173 606.35 926.991 620.824 936.621 629.908C938.392 631.6 940.882 633.158 943.137 632.241C947.028 630.684 945.47 624.887 943.621 621.116C942.064 617.913 940.798 614.595 939.83 611.168C938.856 607.741 938.189 604.257 937.83 600.715C937.47 597.168 937.418 593.621 937.684 590.069C937.949 586.517 938.522 583.017 939.403 579.564C942.903 566.043 951.069 554.121 954.96 540.658C957.205 532.205 958.606 523.616 959.163 514.887C962.324 482.465 965.491 450.043 968.653 417.621C971.752 388.621 972.866 359.548 971.996 330.397Z" fill="#AA762A"/>
<path d="M952.762 598.668C952.715 599.726 952.897 600.741 953.309 601.72C953.83 602.793 952.08 636.736 955.074 639.986C957.429 642.59 968.809 557.408 967.002 530.679C955.465 540.21 952.449 585.168 952.762 598.668Z" fill="#AA762A"/>
<path d="M956.048 114.767C957.429 117.799 959.725 120.366 960.97 123.481C962.132 126.965 962.58 130.538 962.314 134.2C962.137 154.731 960.606 175.163 957.72 195.491C957.257 198.783 956.788 202.304 958.225 205.22C959.668 208.137 966.241 220.043 968.83 217.944C970.147 217.319 966.397 77.2985 965.949 66.4443C962.293 72.5537 961.71 80.4495 959.533 87.1839C956.809 95.9339 951.887 105.585 956.048 114.767Z" fill="#AA762A"/>
<path d="M357.278 23.6889C393.455 21.1993 429.59 16.9597 465.84 17.1941C498.455 17.4076 530.934 21.2358 563.397 24.3868C613.965 29.2722 664.804 32.5014 715.663 32.616C749.366 32.616 783.054 31.3712 816.793 30.0691C842.778 29.0587 869.21 27.9701 893.793 19.4858L747.054 20.2462C706.793 20.4597 666.512 20.6524 626.293 19.293C603.658 18.5326 580.981 17.2514 558.746 13.0118C543.366 10.0535 528.215 5.69409 512.637 4.04305C495.366 2.09513 477.939 3.70971 460.647 5.20971L385.012 11.8035C372.913 12.8555 360.663 13.9441 349.304 18.2045C343.897 20.1472 338.569 22.9701 332.809 23.0066C326.741 23.0066 321.142 20.0691 315.309 18.1837C294.981 11.5326 273.085 18.4545 251.825 20.8503C185.293 28.3555 116.246 -10.1757 51.0954 7.23055C47.8246 8.10555 47.0121 12.0378 47.2048 15.4024C47.3975 18.767 50.4704 20.3243 53.2725 21.2358C71.6527 27.5222 103.392 27.4024 122.705 25.2618C114.674 22.543 99.6006 21.1576 88.1423 19.1003C87.8037 19.0378 87.4808 18.9233 87.1787 18.7514C86.8766 18.5795 86.611 18.366 86.3819 18.1055C86.1527 17.8451 85.9756 17.5535 85.8454 17.2305C85.7152 16.9128 85.6423 16.5743 85.6266 16.2305C85.611 15.8868 85.6527 15.543 85.7516 15.2149C85.8558 14.8816 86.0069 14.5743 86.21 14.293C86.4131 14.0118 86.6579 13.7774 86.9444 13.5795C87.2256 13.3816 87.5381 13.2358 87.8714 13.1472C91.7569 12.6003 95.6423 12.5483 99.5433 12.991C107.163 13.3608 114.741 14.142 122.278 15.3243C141.038 17.918 159.84 20.0847 178.679 21.8191C216.465 25.2149 254.325 26.6993 292.262 26.2774C313.976 26.043 335.653 25.1785 357.278 23.6889Z" fill="#AA762A"/>
<path d="M961.71 12.9131H943.7C936.205 13.8506 928.986 15.8089 922.043 18.7829C915.101 21.762 908.705 25.637 902.856 30.4183C898.965 33.6475 895.194 37.3454 890.47 39.1735C886.439 40.4704 882.309 41.0641 878.08 40.9443C861.08 41.4287 815.476 43.1423 798.455 43.6266C819.851 50.5902 871.173 54.0329 893.366 50.512C901.689 49.1735 910.288 46.4079 915.772 40.012C917.408 37.762 919.163 35.6162 921.043 33.5693C923.809 31.3245 926.903 29.6943 930.319 28.6683C941.444 24.5277 953.288 31.2568 964.47 35.1683L961.71 12.9131Z" fill="#AA762A"/>
<path d="M283.876 6.00656C288.684 5.24615 293.507 5.11073 298.345 5.60031C306.632 6.76698 342.595 6.68885 349.731 2.35031C338.548 -0.587187 301.809 -0.00385314 290.741 0.152396C271.778 0.42323 185.486 1.63156 179.376 3.88677C186.397 12.5795 218.725 10.2461 229.632 10.1316C247.788 9.68365 265.866 8.30865 283.876 6.00656Z" fill="#AA762A"/>
<path d="M128.062 77.96C128.302 77.96 128.556 78.0267 128.822 78.16C129.116 78.2933 129.342 78.4667 129.502 78.68L140.102 94.72L138.702 94.68L149.422 78.68C149.769 78.1733 150.222 77.9333 150.782 77.96C151.209 77.9867 151.582 78.1467 151.902 78.44C152.222 78.7333 152.382 79.12 152.382 79.6V104.36C152.382 104.813 152.222 105.2 151.902 105.52C151.582 105.84 151.182 106 150.702 106C150.222 106 149.822 105.84 149.502 105.52C149.182 105.2 149.022 104.813 149.022 104.36V82.64L150.022 82.84L140.582 97.2C140.422 97.3867 140.222 97.5467 139.982 97.68C139.769 97.8133 139.542 97.88 139.302 97.88C139.062 97.88 138.822 97.8133 138.582 97.68C138.342 97.5467 138.142 97.3867 137.982 97.2L128.662 82.84L129.502 81.8V104.36C129.502 104.813 129.356 105.2 129.062 105.52C128.769 105.84 128.396 106 127.942 106C127.489 106 127.116 105.84 126.822 105.52C126.556 105.2 126.422 104.813 126.422 104.36V79.6C126.422 79.1733 126.569 78.8 126.862 78.48C127.182 78.1333 127.582 77.96 128.062 77.96ZM168.391 106.4C166.258 106.4 164.391 105.947 162.791 105.04C161.191 104.133 159.938 102.893 159.031 101.32C158.151 99.72 157.711 97.88 157.711 95.8C157.711 93.48 158.164 91.5067 159.071 89.88C160.004 88.2267 161.204 86.9733 162.671 86.12C164.164 85.24 165.738 84.8 167.391 84.8C168.618 84.8 169.804 85.0267 170.951 85.48C172.098 85.9333 173.111 86.6 173.991 87.48C174.871 88.3333 175.578 89.3733 176.111 90.6C176.644 91.8 176.924 93.1467 176.951 94.64C176.951 95.0667 176.791 95.4267 176.471 95.72C176.151 96.0133 175.778 96.16 175.351 96.16H159.551L158.831 93.4H174.231L173.591 93.96V93.08C173.484 91.9867 173.111 91.0533 172.471 90.28C171.858 89.48 171.098 88.8667 170.191 88.44C169.311 88.0133 168.378 87.8 167.391 87.8C166.591 87.8 165.791 87.9467 164.991 88.24C164.218 88.5067 163.511 88.96 162.871 89.6C162.258 90.2133 161.751 91.0133 161.351 92C160.978 92.9867 160.791 94.1733 160.791 95.56C160.791 97.1067 161.098 98.4667 161.711 99.64C162.351 100.813 163.231 101.747 164.351 102.44C165.471 103.107 166.778 103.44 168.271 103.44C169.204 103.44 170.018 103.32 170.711 103.08C171.404 102.84 172.004 102.547 172.511 102.2C173.018 101.827 173.444 101.453 173.791 101.08C174.138 100.84 174.471 100.72 174.791 100.72C175.191 100.72 175.511 100.853 175.751 101.12C176.018 101.387 176.151 101.707 176.151 102.08C176.151 102.533 175.938 102.933 175.511 103.28C174.764 104.107 173.751 104.84 172.471 105.48C171.191 106.093 169.831 106.4 168.391 106.4ZM192.041 84.8C193.854 84.8 195.281 85.1733 196.321 85.92C197.361 86.6667 198.094 87.6667 198.521 88.92C198.974 90.1733 199.201 91.5733 199.201 93.12V104.36C199.201 104.813 199.041 105.2 198.721 105.52C198.427 105.84 198.054 106 197.601 106C197.147 106 196.761 105.84 196.441 105.52C196.147 105.2 196.001 104.813 196.001 104.36V93.2C196.001 92.1867 195.841 91.28 195.521 90.48C195.227 89.6533 194.721 89 194.001 88.52C193.307 88.0133 192.347 87.76 191.121 87.76C190.001 87.76 188.974 88.0133 188.041 88.52C187.107 89 186.361 89.6533 185.801 90.48C185.241 91.28 184.961 92.1867 184.961 93.2V104.36C184.961 104.813 184.801 105.2 184.481 105.52C184.187 105.84 183.814 106 183.361 106C182.907 106 182.521 105.84 182.201 105.52C181.907 105.2 181.761 104.813 181.761 104.36V86.92C181.761 86.4667 181.907 86.0933 182.201 85.8C182.521 85.48 182.907 85.32 183.361 85.32C183.841 85.32 184.227 85.48 184.521 85.8C184.814 86.0933 184.961 86.4667 184.961 86.92V89.76L184.161 90.64C184.294 89.9467 184.601 89.2533 185.081 88.56C185.561 87.84 186.161 87.2 186.881 86.64C187.601 86.08 188.401 85.64 189.281 85.32C190.161 84.9733 191.081 84.8 192.041 84.8ZM220.6 85.32C221.08 85.32 221.467 85.48 221.76 85.8C222.053 86.0933 222.2 86.4667 222.2 86.92V97.84C222.2 100.533 221.44 102.627 219.92 104.12C218.427 105.587 216.333 106.32 213.64 106.32C210.973 106.32 208.88 105.587 207.36 104.12C205.867 102.627 205.12 100.533 205.12 97.84V86.92C205.12 86.4667 205.267 86.0933 205.56 85.8C205.88 85.48 206.267 85.32 206.72 85.32C207.2 85.32 207.587 85.48 207.88 85.8C208.173 86.0933 208.32 86.4667 208.32 86.92V97.84C208.32 99.6533 208.787 101.027 209.72 101.96C210.653 102.893 211.96 103.36 213.64 103.36C215.373 103.36 216.693 102.893 217.6 101.96C218.533 101.027 219 99.6533 219 97.84V86.92C219 86.4667 219.147 86.0933 219.44 85.8C219.76 85.48 220.147 85.32 220.6 85.32ZM229.728 106C229.275 106 228.888 105.84 228.568 105.52C228.275 105.2 228.128 104.813 228.128 104.36V86.92C228.128 86.4667 228.275 86.0933 228.568 85.8C228.888 85.48 229.275 85.32 229.728 85.32C230.208 85.32 230.595 85.48 230.888 85.8C231.181 86.0933 231.328 86.4667 231.328 86.92V92.2L230.848 91.36C231.008 90.5333 231.288 89.7333 231.688 88.96C232.115 88.16 232.648 87.4533 233.288 86.84C233.928 86.2 234.661 85.7067 235.488 85.36C236.315 84.9867 237.221 84.8 238.208 84.8C238.795 84.8 239.328 84.9467 239.808 85.24C240.315 85.5067 240.568 85.8933 240.568 86.4C240.568 86.96 240.421 87.3733 240.128 87.64C239.835 87.9067 239.501 88.04 239.128 88.04C238.781 88.04 238.448 87.9733 238.128 87.84C237.808 87.68 237.408 87.6 236.928 87.6C236.261 87.6 235.595 87.7867 234.928 88.16C234.288 88.5067 233.688 89.0133 233.128 89.68C232.595 90.3467 232.155 91.1067 231.808 91.96C231.488 92.7867 231.328 93.68 231.328 94.64V104.36C231.328 104.813 231.168 105.2 230.848 105.52C230.555 105.84 230.181 106 229.728 106ZM259.663 85.32C260.143 85.32 260.529 85.48 260.823 85.8C261.116 86.0933 261.263 86.4667 261.263 86.92V97.84C261.263 100.533 260.503 102.627 258.983 104.12C257.489 105.587 255.396 106.32 252.703 106.32C250.036 106.32 247.943 105.587 246.423 104.12C244.929 102.627 244.183 100.533 244.183 97.84V86.92C244.183 86.4667 244.329 86.0933 244.623 85.8C244.943 85.48 245.329 85.32 245.783 85.32C246.263 85.32 246.649 85.48 246.943 85.8C247.236 86.0933 247.383 86.4667 247.383 86.92V97.84C247.383 99.6533 247.849 101.027 248.783 101.96C249.716 102.893 251.023 103.36 252.703 103.36C254.436 103.36 255.756 102.893 256.663 101.96C257.596 101.027 258.063 99.6533 258.063 97.84V86.92C258.063 86.4667 258.209 86.0933 258.503 85.8C258.823 85.48 259.209 85.32 259.663 85.32ZM266.39 85.44H275.79C276.217 85.44 276.564 85.5867 276.83 85.88C277.124 86.1733 277.27 86.52 277.27 86.92C277.27 87.3467 277.124 87.7067 276.83 88C276.564 88.2667 276.217 88.4 275.79 88.4H266.39C265.99 88.4 265.644 88.2533 265.35 87.96C265.057 87.6667 264.91 87.3067 264.91 86.88C264.91 86.48 265.057 86.1467 265.35 85.88C265.644 85.5867 265.99 85.44 266.39 85.44ZM270.59 80C271.044 80 271.417 80.16 271.71 80.48C272.004 80.7733 272.15 81.1467 272.15 81.6V100.92C272.15 101.56 272.244 102.04 272.43 102.36C272.617 102.68 272.857 102.907 273.15 103.04C273.47 103.147 273.777 103.2 274.07 103.2C274.337 103.2 274.564 103.16 274.75 103.08C274.964 102.973 275.204 102.92 275.47 102.92C275.737 102.92 275.977 103.053 276.19 103.32C276.43 103.56 276.55 103.88 276.55 104.28C276.55 104.76 276.27 105.173 275.71 105.52C275.15 105.84 274.524 106 273.83 106C273.457 106 272.99 105.973 272.43 105.92C271.897 105.867 271.364 105.693 270.83 105.4C270.297 105.107 269.844 104.627 269.47 103.96C269.124 103.267 268.95 102.307 268.95 101.08V81.6C268.95 81.1467 269.11 80.7733 269.43 80.48C269.75 80.16 270.137 80 270.59 80ZM294.657 106C294.177 106 293.791 105.84 293.497 105.52C293.204 105.2 293.057 104.813 293.057 104.36V78C293.057 77.5467 293.204 77.1733 293.497 76.88C293.791 76.56 294.177 76.4 294.657 76.4C295.111 76.4 295.484 76.56 295.777 76.88C296.097 77.1733 296.257 77.5467 296.257 78V104.36C296.257 104.813 296.097 105.2 295.777 105.52C295.484 105.84 295.111 106 294.657 106ZM307.937 85.2C308.364 85.2 308.724 85.3733 309.017 85.72C309.337 86.04 309.497 86.3733 309.497 86.72C309.497 87.1733 309.284 87.5733 308.857 87.92L295.897 99.24L295.777 95.52L306.817 85.68C307.137 85.36 307.511 85.2 307.937 85.2ZM308.377 105.96C307.924 105.96 307.524 105.787 307.177 105.44L298.657 96.36L301.057 94.16L309.497 103.2C309.817 103.547 309.977 103.947 309.977 104.4C309.977 104.88 309.791 105.267 309.417 105.56C309.044 105.827 308.697 105.96 308.377 105.96ZM331.496 85.12C331.949 85.12 332.323 85.28 332.616 85.6C332.936 85.8933 333.096 86.2667 333.096 86.72V104.36C333.096 104.813 332.936 105.2 332.616 105.52C332.323 105.84 331.949 106 331.496 106C331.016 106 330.629 105.84 330.336 105.52C330.043 105.2 329.896 104.813 329.896 104.36V100.56L330.656 100.48C330.656 101.067 330.456 101.707 330.056 102.4C329.656 103.093 329.109 103.747 328.416 104.36C327.723 104.947 326.896 105.44 325.936 105.84C325.003 106.213 323.989 106.4 322.896 106.4C321.083 106.4 319.456 105.933 318.016 105C316.576 104.04 315.429 102.747 314.576 101.12C313.749 99.4933 313.336 97.64 313.336 95.56C313.336 93.4533 313.749 91.6 314.576 90C315.429 88.3733 316.576 87.1067 318.016 86.2C319.456 85.2667 321.056 84.8 322.816 84.8C323.963 84.8 325.029 84.9867 326.016 85.36C327.003 85.7333 327.856 86.24 328.576 86.88C329.323 87.52 329.896 88.2267 330.296 89C330.723 89.7733 330.936 90.5467 330.936 91.32L329.896 91.08V86.72C329.896 86.2667 330.043 85.8933 330.336 85.6C330.629 85.28 331.016 85.12 331.496 85.12ZM323.256 103.44C324.589 103.44 325.763 103.093 326.776 102.4C327.816 101.707 328.616 100.773 329.176 99.6C329.763 98.4 330.056 97.0533 330.056 95.56C330.056 94.0933 329.763 92.7733 329.176 91.6C328.616 90.4 327.816 89.4667 326.776 88.8C325.763 88.1067 324.589 87.76 323.256 87.76C321.949 87.76 320.776 88.0933 319.736 88.76C318.723 89.4267 317.923 90.3467 317.336 91.52C316.749 92.6933 316.456 94.04 316.456 95.56C316.456 97.0533 316.736 98.4 317.296 99.6C317.883 100.773 318.683 101.707 319.696 102.4C320.736 103.093 321.923 103.44 323.256 103.44ZM348.906 85C350.72 85 352.186 85.4667 353.306 86.4C354.453 87.3067 355.213 88.6 355.586 90.28H354.986L355.266 89.56C355.586 88.8133 356.133 88.0933 356.906 87.4C357.68 86.7067 358.573 86.1333 359.586 85.68C360.6 85.2267 361.653 85 362.746 85C364.506 85 365.893 85.3867 366.906 86.16C367.92 86.9067 368.64 87.92 369.066 89.2C369.52 90.4533 369.746 91.8667 369.746 93.44V104.36C369.746 104.813 369.586 105.2 369.266 105.52C368.973 105.84 368.6 106 368.146 106C367.666 106 367.28 105.84 366.986 105.52C366.693 105.2 366.546 104.813 366.546 104.36V93.52C366.546 92.48 366.386 91.5467 366.066 90.72C365.773 89.8667 365.28 89.2 364.586 88.72C363.92 88.2133 363 87.96 361.826 87.96C360.733 87.96 359.733 88.2133 358.826 88.72C357.92 89.2 357.2 89.8667 356.666 90.72C356.133 91.5467 355.866 92.48 355.866 93.52V104.36C355.866 104.813 355.72 105.2 355.426 105.52C355.133 105.84 354.746 106 354.266 106C353.813 106 353.426 105.84 353.106 105.52C352.813 105.2 352.666 104.813 352.666 104.36V93.4C352.666 92.3867 352.52 91.48 352.226 90.68C351.96 89.8533 351.493 89.2 350.826 88.72C350.16 88.2133 349.24 87.96 348.066 87.96C347 87.96 346.026 88.2133 345.146 88.72C344.266 89.2 343.56 89.8533 343.026 90.68C342.493 91.48 342.226 92.3867 342.226 93.4V104.36C342.226 104.813 342.066 105.2 341.746 105.52C341.453 105.84 341.08 106 340.626 106C340.173 106 339.786 105.84 339.466 105.52C339.173 105.2 339.026 104.813 339.026 104.36V86.92C339.026 86.4667 339.173 86.0933 339.466 85.8C339.786 85.48 340.173 85.32 340.626 85.32C341.106 85.32 341.493 85.48 341.786 85.8C342.08 86.0933 342.226 86.4667 342.226 86.92V89.96L341.346 90.92C341.453 90.2267 341.72 89.5333 342.146 88.84C342.6 88.1467 343.173 87.5067 343.866 86.92C344.56 86.3333 345.333 85.8667 346.186 85.52C347.04 85.1733 347.946 85 348.906 85ZM391.147 85.32C391.627 85.32 392.014 85.48 392.307 85.8C392.6 86.0933 392.747 86.4667 392.747 86.92V97.84C392.747 100.533 391.987 102.627 390.467 104.12C388.974 105.587 386.88 106.32 384.187 106.32C381.52 106.32 379.427 105.587 377.907 104.12C376.414 102.627 375.667 100.533 375.667 97.84V86.92C375.667 86.4667 375.814 86.0933 376.107 85.8C376.427 85.48 376.814 85.32 377.267 85.32C377.747 85.32 378.134 85.48 378.427 85.8C378.72 86.0933 378.867 86.4667 378.867 86.92V97.84C378.867 99.6533 379.334 101.027 380.267 101.96C381.2 102.893 382.507 103.36 384.187 103.36C385.92 103.36 387.24 102.893 388.147 101.96C389.08 101.027 389.547 99.6533 389.547 97.84V86.92C389.547 86.4667 389.694 86.0933 389.987 85.8C390.307 85.48 390.694 85.32 391.147 85.32ZM408.53 102.72C408.29 102.373 408.184 102.013 408.21 101.64C408.237 101.24 408.464 100.893 408.89 100.6C409.157 100.413 409.464 100.333 409.81 100.36C410.184 100.387 410.517 100.56 410.81 100.88C411.557 101.76 412.41 102.467 413.37 103C414.33 103.507 415.504 103.76 416.89 103.76C417.53 103.733 418.17 103.627 418.81 103.44C419.45 103.253 419.984 102.933 420.41 102.48C420.864 102 421.09 101.373 421.09 100.6C421.09 99.8533 420.864 99.2667 420.41 98.84C419.957 98.3867 419.37 98.0267 418.65 97.76C417.93 97.4667 417.144 97.2133 416.29 97C415.41 96.76 414.544 96.4933 413.69 96.2C412.837 95.88 412.064 95.4933 411.37 95.04C410.704 94.56 410.157 93.9733 409.73 93.28C409.33 92.56 409.13 91.6933 409.13 90.68C409.13 89.48 409.45 88.44 410.09 87.56C410.757 86.68 411.637 86 412.73 85.52C413.85 85.04 415.064 84.8 416.37 84.8C417.117 84.8 417.89 84.8933 418.69 85.08C419.517 85.24 420.317 85.5333 421.09 85.96C421.864 86.36 422.544 86.92 423.13 87.64C423.37 87.9067 423.504 88.24 423.53 88.64C423.557 89.04 423.384 89.4 423.01 89.72C422.717 89.9333 422.384 90.0267 422.01 90C421.664 89.9733 421.37 89.84 421.13 89.6C420.57 88.9333 419.864 88.4267 419.01 88.08C418.184 87.7067 417.264 87.52 416.25 87.52C415.61 87.52 414.984 87.6133 414.37 87.8C413.757 87.9867 413.237 88.3067 412.81 88.76C412.41 89.1867 412.21 89.7867 412.21 90.56C412.237 91.28 412.477 91.8667 412.93 92.32C413.384 92.7733 413.997 93.1467 414.77 93.44C415.544 93.7067 416.397 93.9733 417.33 94.24C418.184 94.4533 418.997 94.7067 419.77 95C420.57 95.2667 421.29 95.6267 421.93 96.08C422.57 96.5333 423.077 97.12 423.45 97.84C423.824 98.5333 424.01 99.4133 424.01 100.48C424.01 101.707 423.664 102.773 422.97 103.68C422.277 104.56 421.357 105.24 420.21 105.72C419.09 106.173 417.877 106.4 416.57 106.4C415.104 106.4 413.65 106.12 412.21 105.56C410.797 105 409.57 104.053 408.53 102.72ZM445.988 85.12C446.442 85.12 446.815 85.28 447.108 85.6C447.428 85.8933 447.588 86.2667 447.588 86.72V104.36C447.588 104.813 447.428 105.2 447.108 105.52C446.815 105.84 446.442 106 445.988 106C445.508 106 445.122 105.84 444.828 105.52C444.535 105.2 444.388 104.813 444.388 104.36V100.56L445.148 100.48C445.148 101.067 444.948 101.707 444.548 102.4C444.148 103.093 443.602 103.747 442.908 104.36C442.215 104.947 441.388 105.44 440.428 105.84C439.495 106.213 438.482 106.4 437.388 106.4C435.575 106.4 433.948 105.933 432.508 105C431.068 104.04 429.922 102.747 429.068 101.12C428.242 99.4933 427.828 97.64 427.828 95.56C427.828 93.4533 428.242 91.6 429.068 90C429.922 88.3733 431.068 87.1067 432.508 86.2C433.948 85.2667 435.548 84.8 437.308 84.8C438.455 84.8 439.522 84.9867 440.508 85.36C441.495 85.7333 442.348 86.24 443.068 86.88C443.815 87.52 444.388 88.2267 444.788 89C445.215 89.7733 445.428 90.5467 445.428 91.32L444.388 91.08V86.72C444.388 86.2667 444.535 85.8933 444.828 85.6C445.122 85.28 445.508 85.12 445.988 85.12ZM437.748 103.44C439.082 103.44 440.255 103.093 441.268 102.4C442.308 101.707 443.108 100.773 443.668 99.6C444.255 98.4 444.548 97.0533 444.548 95.56C444.548 94.0933 444.255 92.7733 443.668 91.6C443.108 90.4 442.308 89.4667 441.268 88.8C440.255 88.1067 439.082 87.76 437.748 87.76C436.442 87.76 435.268 88.0933 434.228 88.76C433.215 89.4267 432.415 90.3467 431.828 91.52C431.242 92.6933 430.948 94.04 430.948 95.56C430.948 97.0533 431.228 98.4 431.788 99.6C432.375 100.773 433.175 101.707 434.188 102.4C435.228 103.093 436.415 103.44 437.748 103.44ZM457.039 104.36C457.039 104.813 456.879 105.2 456.559 105.52C456.239 105.84 455.852 106 455.399 106C454.945 106 454.572 105.84 454.279 105.52C453.985 105.2 453.839 104.813 453.839 104.36V78C453.839 77.5467 453.985 77.1733 454.279 76.88C454.599 76.56 454.985 76.4 455.439 76.4C455.919 76.4 456.305 76.56 456.599 76.88C456.892 77.1733 457.039 77.5467 457.039 78V104.36ZM480.285 85.12C480.738 85.12 481.112 85.28 481.405 85.6C481.725 85.8933 481.885 86.2667 481.885 86.72V104.36C481.885 104.813 481.725 105.2 481.405 105.52C481.112 105.84 480.738 106 480.285 106C479.805 106 479.418 105.84 479.125 105.52C478.832 105.2 478.685 104.813 478.685 104.36V100.56L479.445 100.48C479.445 101.067 479.245 101.707 478.845 102.4C478.445 103.093 477.898 103.747 477.205 104.36C476.512 104.947 475.685 105.44 474.725 105.84C473.792 106.213 472.778 106.4 471.685 106.4C469.872 106.4 468.245 105.933 466.805 105C465.365 104.04 464.218 102.747 463.365 101.12C462.538 99.4933 462.125 97.64 462.125 95.56C462.125 93.4533 462.538 91.6 463.365 90C464.218 88.3733 465.365 87.1067 466.805 86.2C468.245 85.2667 469.845 84.8 471.605 84.8C472.752 84.8 473.818 84.9867 474.805 85.36C475.792 85.7333 476.645 86.24 477.365 86.88C478.112 87.52 478.685 88.2267 479.085 89C479.512 89.7733 479.725 90.5467 479.725 91.32L478.685 91.08V86.72C478.685 86.2667 478.832 85.8933 479.125 85.6C479.418 85.28 479.805 85.12 480.285 85.12ZM472.045 103.44C473.378 103.44 474.552 103.093 475.565 102.4C476.605 101.707 477.405 100.773 477.965 99.6C478.552 98.4 478.845 97.0533 478.845 95.56C478.845 94.0933 478.552 92.7733 477.965 91.6C477.405 90.4 476.605 89.4667 475.565 88.8C474.552 88.1067 473.378 87.76 472.045 87.76C470.738 87.76 469.565 88.0933 468.525 88.76C467.512 89.4267 466.712 90.3467 466.125 91.52C465.538 92.6933 465.245 94.04 465.245 95.56C465.245 97.0533 465.525 98.4 466.085 99.6C466.672 100.773 467.472 101.707 468.485 102.4C469.525 103.093 470.712 103.44 472.045 103.44ZM497.815 85C499.575 85 500.962 85.3867 501.975 86.16C503.015 86.9067 503.749 87.92 504.175 89.2C504.629 90.4533 504.855 91.8533 504.855 93.4V104.36C504.855 104.813 504.695 105.2 504.375 105.52C504.082 105.84 503.709 106 503.255 106C502.802 106 502.415 105.84 502.095 105.52C501.802 105.2 501.655 104.813 501.655 104.36V93.4C501.655 92.3867 501.509 91.48 501.215 90.68C500.922 89.8533 500.429 89.2 499.735 88.72C499.069 88.2133 498.149 87.96 496.975 87.96C495.882 87.96 494.882 88.2133 493.975 88.72C493.069 89.2 492.349 89.8533 491.815 90.68C491.282 91.48 491.015 92.3867 491.015 93.4V104.36C491.015 104.813 490.855 105.2 490.535 105.52C490.242 105.84 489.869 106 489.415 106C488.962 106 488.575 105.84 488.255 105.52C487.962 105.2 487.815 104.813 487.815 104.36V78C487.815 77.5467 487.962 77.1733 488.255 76.88C488.575 76.56 488.962 76.4 489.415 76.4C489.895 76.4 490.282 76.56 490.575 76.88C490.869 77.1733 491.015 77.5467 491.015 78V89.96L490.215 90.84C490.349 90.1467 490.642 89.4533 491.095 88.76C491.549 88.04 492.122 87.4 492.815 86.84C493.509 86.28 494.282 85.84 495.135 85.52C495.989 85.1733 496.882 85 497.815 85ZM520.64 102.72C520.4 102.373 520.293 102.013 520.32 101.64C520.347 101.24 520.573 100.893 521 100.6C521.267 100.413 521.573 100.333 521.92 100.36C522.293 100.387 522.627 100.56 522.92 100.88C523.667 101.76 524.52 102.467 525.48 103C526.44 103.507 527.613 103.76 529 103.76C529.64 103.733 530.28 103.627 530.92 103.44C531.56 103.253 532.093 102.933 532.52 102.48C532.973 102 533.2 101.373 533.2 100.6C533.2 99.8533 532.973 99.2667 532.52 98.84C532.067 98.3867 531.48 98.0267 530.76 97.76C530.04 97.4667 529.253 97.2133 528.4 97C527.52 96.76 526.653 96.4933 525.8 96.2C524.947 95.88 524.173 95.4933 523.48 95.04C522.813 94.56 522.267 93.9733 521.84 93.28C521.44 92.56 521.24 91.6933 521.24 90.68C521.24 89.48 521.56 88.44 522.2 87.56C522.867 86.68 523.747 86 524.84 85.52C525.96 85.04 527.173 84.8 528.48 84.8C529.227 84.8 530 84.8933 530.8 85.08C531.627 85.24 532.427 85.5333 533.2 85.96C533.973 86.36 534.653 86.92 535.24 87.64C535.48 87.9067 535.613 88.24 535.64 88.64C535.667 89.04 535.493 89.4 535.12 89.72C534.827 89.9333 534.493 90.0267 534.12 90C533.773 89.9733 533.48 89.84 533.24 89.6C532.68 88.9333 531.973 88.4267 531.12 88.08C530.293 87.7067 529.373 87.52 528.36 87.52C527.72 87.52 527.093 87.6133 526.48 87.8C525.867 87.9867 525.347 88.3067 524.92 88.76C524.52 89.1867 524.32 89.7867 524.32 90.56C524.347 91.28 524.587 91.8667 525.04 92.32C525.493 92.7733 526.107 93.1467 526.88 93.44C527.653 93.7067 528.507 93.9733 529.44 94.24C530.293 94.4533 531.107 94.7067 531.88 95C532.68 95.2667 533.4 95.6267 534.04 96.08C534.68 96.5333 535.187 97.12 535.56 97.84C535.933 98.5333 536.12 99.4133 536.12 100.48C536.12 101.707 535.773 102.773 535.08 103.68C534.387 104.56 533.467 105.24 532.32 105.72C531.2 106.173 529.987 106.4 528.68 106.4C527.213 106.4 525.76 106.12 524.32 105.56C522.907 105 521.68 104.053 520.64 102.72ZM558.098 85.12C558.551 85.12 558.924 85.28 559.218 85.6C559.538 85.8933 559.698 86.2667 559.698 86.72V104.36C559.698 104.813 559.538 105.2 559.218 105.52C558.924 105.84 558.551 106 558.098 106C557.618 106 557.231 105.84 556.938 105.52C556.644 105.2 556.498 104.813 556.498 104.36V100.56L557.258 100.48C557.258 101.067 557.058 101.707 556.658 102.4C556.258 103.093 555.711 103.747 555.018 104.36C554.324 104.947 553.498 105.44 552.538 105.84C551.604 106.213 550.591 106.4 549.498 106.4C547.684 106.4 546.058 105.933 544.618 105C543.178 104.04 542.031 102.747 541.178 101.12C540.351 99.4933 539.938 97.64 539.938 95.56C539.938 93.4533 540.351 91.6 541.178 90C542.031 88.3733 543.178 87.1067 544.618 86.2C546.058 85.2667 547.658 84.8 549.418 84.8C550.564 84.8 551.631 84.9867 552.618 85.36C553.604 85.7333 554.458 86.24 555.178 86.88C555.924 87.52 556.498 88.2267 556.898 89C557.324 89.7733 557.538 90.5467 557.538 91.32L556.498 91.08V86.72C556.498 86.2667 556.644 85.8933 556.938 85.6C557.231 85.28 557.618 85.12 558.098 85.12ZM549.858 103.44C551.191 103.44 552.364 103.093 553.378 102.4C554.418 101.707 555.218 100.773 555.778 99.6C556.364 98.4 556.658 97.0533 556.658 95.56C556.658 94.0933 556.364 92.7733 555.778 91.6C555.218 90.4 554.418 89.4667 553.378 88.8C552.364 88.1067 551.191 87.76 549.858 87.76C548.551 87.76 547.378 88.0933 546.338 88.76C545.324 89.4267 544.524 90.3467 543.938 91.52C543.351 92.6933 543.058 94.04 543.058 95.56C543.058 97.0533 543.338 98.4 543.898 99.6C544.484 100.773 545.284 101.707 546.298 102.4C547.338 103.093 548.524 103.44 549.858 103.44ZM564.828 85.44H574.228C574.655 85.44 575.001 85.5867 575.268 85.88C575.561 86.1733 575.708 86.52 575.708 86.92C575.708 87.3467 575.561 87.7067 575.268 88C575.001 88.2667 574.655 88.4 574.228 88.4H564.828C564.428 88.4 564.081 88.2533 563.788 87.96C563.495 87.6667 563.348 87.3067 563.348 86.88C563.348 86.48 563.495 86.1467 563.788 85.88C564.081 85.5867 564.428 85.44 564.828 85.44ZM569.028 80C569.481 80 569.855 80.16 570.148 80.48C570.441 80.7733 570.588 81.1467 570.588 81.6V100.92C570.588 101.56 570.681 102.04 570.868 102.36C571.055 102.68 571.295 102.907 571.588 103.04C571.908 103.147 572.215 103.2 572.508 103.2C572.775 103.2 573.001 103.16 573.188 103.08C573.401 102.973 573.641 102.92 573.908 102.92C574.175 102.92 574.415 103.053 574.628 103.32C574.868 103.56 574.988 103.88 574.988 104.28C574.988 104.76 574.708 105.173 574.148 105.52C573.588 105.84 572.961 106 572.268 106C571.895 106 571.428 105.973 570.868 105.92C570.335 105.867 569.801 105.693 569.268 105.4C568.735 105.107 568.281 104.627 567.908 103.96C567.561 103.267 567.388 102.307 567.388 101.08V81.6C567.388 81.1467 567.548 80.7733 567.868 80.48C568.188 80.16 568.575 80 569.028 80ZM595.639 85.32C596.119 85.32 596.506 85.48 596.799 85.8C597.093 86.0933 597.239 86.4667 597.239 86.92V97.84C597.239 100.533 596.479 102.627 594.959 104.12C593.466 105.587 591.373 106.32 588.679 106.32C586.013 106.32 583.919 105.587 582.399 104.12C580.906 102.627 580.159 100.533 580.159 97.84V86.92C580.159 86.4667 580.306 86.0933 580.599 85.8C580.919 85.48 581.306 85.32 581.759 85.32C582.239 85.32 582.626 85.48 582.919 85.8C583.213 86.0933 583.359 86.4667 583.359 86.92V97.84C583.359 99.6533 583.826 101.027 584.759 101.96C585.693 102.893 586.999 103.36 588.679 103.36C590.413 103.36 591.733 102.893 592.639 101.96C593.573 101.027 594.039 99.6533 594.039 97.84V86.92C594.039 86.4667 594.186 86.0933 594.479 85.8C594.799 85.48 595.186 85.32 595.639 85.32ZM613.383 85.44H622.783C623.209 85.44 623.556 85.5867 623.823 85.88C624.116 86.1733 624.263 86.52 624.263 86.92C624.263 87.3467 624.116 87.7067 623.823 88C623.556 88.2667 623.209 88.4 622.783 88.4H613.383C612.983 88.4 612.636 88.2533 612.343 87.96C612.049 87.6667 611.903 87.3067 611.903 86.88C611.903 86.48 612.049 86.1467 612.343 85.88C612.636 85.5867 612.983 85.44 613.383 85.44ZM617.583 80C618.036 80 618.409 80.16 618.703 80.48C618.996 80.7733 619.143 81.1467 619.143 81.6V100.92C619.143 101.56 619.236 102.04 619.423 102.36C619.609 102.68 619.849 102.907 620.143 103.04C620.463 103.147 620.769 103.2 621.063 103.2C621.329 103.2 621.556 103.16 621.743 103.08C621.956 102.973 622.196 102.92 622.463 102.92C622.729 102.92 622.969 103.053 623.183 103.32C623.423 103.56 623.543 103.88 623.543 104.28C623.543 104.76 623.263 105.173 622.703 105.52C622.143 105.84 621.516 106 620.823 106C620.449 106 619.983 105.973 619.423 105.92C618.889 105.867 618.356 105.693 617.823 105.4C617.289 105.107 616.836 104.627 616.463 103.96C616.116 103.267 615.943 102.307 615.943 101.08V81.6C615.943 81.1467 616.103 80.7733 616.423 80.48C616.743 80.16 617.129 80 617.583 80ZM644.194 85.32C644.674 85.32 645.061 85.48 645.354 85.8C645.647 86.0933 645.794 86.4667 645.794 86.92V97.84C645.794 100.533 645.034 102.627 643.514 104.12C642.021 105.587 639.927 106.32 637.234 106.32C634.567 106.32 632.474 105.587 630.954 104.12C629.461 102.627 628.714 100.533 628.714 97.84V86.92C628.714 86.4667 628.861 86.0933 629.154 85.8C629.474 85.48 629.861 85.32 630.314 85.32C630.794 85.32 631.181 85.48 631.474 85.8C631.767 86.0933 631.914 86.4667 631.914 86.92V97.84C631.914 99.6533 632.381 101.027 633.314 101.96C634.247 102.893 635.554 103.36 637.234 103.36C638.967 103.36 640.287 102.893 641.194 101.96C642.127 101.027 642.594 99.6533 642.594 97.84V86.92C642.594 86.4667 642.741 86.0933 643.034 85.8C643.354 85.48 643.741 85.32 644.194 85.32ZM655.482 107.36C655.482 108.72 655.175 109.88 654.562 110.84C653.975 111.8 653.228 112.547 652.322 113.08C651.415 113.613 650.468 113.88 649.482 113.88C649.028 113.88 648.668 113.733 648.402 113.44C648.108 113.147 647.962 112.8 647.962 112.4V112.12C647.962 111.72 648.095 111.4 648.362 111.16C648.628 110.92 648.962 110.747 649.362 110.64C649.975 110.48 650.495 110.227 650.922 109.88C651.348 109.56 651.682 109.12 651.922 108.56C652.162 108.027 652.282 107.387 652.282 106.64V86.92C652.282 86.4667 652.428 86.08 652.722 85.76C653.042 85.44 653.428 85.28 653.882 85.28C654.362 85.28 654.748 85.44 655.042 85.76C655.335 86.08 655.482 86.4667 655.482 86.92V107.36ZM653.882 82.32C653.215 82.32 652.722 82.1867 652.402 81.92C652.082 81.6533 651.922 81.24 651.922 80.68V80.12C651.922 79.56 652.095 79.1467 652.442 78.88C652.788 78.6133 653.282 78.48 653.922 78.48C654.562 78.48 655.042 78.6133 655.362 78.88C655.682 79.1467 655.842 79.56 655.842 80.12V80.68C655.842 81.24 655.668 81.6533 655.322 81.92C655.002 82.1867 654.522 82.32 653.882 82.32ZM678.1 85.32C678.58 85.32 678.967 85.48 679.26 85.8C679.553 86.0933 679.7 86.4667 679.7 86.92V97.84C679.7 100.533 678.94 102.627 677.42 104.12C675.927 105.587 673.833 106.32 671.14 106.32C668.473 106.32 666.38 105.587 664.86 104.12C663.367 102.627 662.62 100.533 662.62 97.84V86.92C662.62 86.4667 662.767 86.0933 663.06 85.8C663.38 85.48 663.767 85.32 664.22 85.32C664.7 85.32 665.087 85.48 665.38 85.8C665.673 86.0933 665.82 86.4667 665.82 86.92V97.84C665.82 99.6533 666.287 101.027 667.22 101.96C668.153 102.893 669.46 103.36 671.14 103.36C672.873 103.36 674.193 102.893 675.1 101.96C676.033 101.027 676.5 99.6533 676.5 97.84V86.92C676.5 86.4667 676.647 86.0933 676.94 85.8C677.26 85.48 677.647 85.32 678.1 85.32ZM702.668 85.12C703.121 85.12 703.495 85.28 703.788 85.6C704.108 85.8933 704.268 86.2667 704.268 86.72V104.36C704.268 104.813 704.108 105.2 703.788 105.52C703.495 105.84 703.121 106 702.668 106C702.188 106 701.801 105.84 701.508 105.52C701.215 105.2 701.068 104.813 701.068 104.36V100.56L701.828 100.48C701.828 101.067 701.628 101.707 701.228 102.4C700.828 103.093 700.281 103.747 699.588 104.36C698.895 104.947 698.068 105.44 697.108 105.84C696.175 106.213 695.161 106.4 694.068 106.4C692.255 106.4 690.628 105.933 689.188 105C687.748 104.04 686.601 102.747 685.748 101.12C684.921 99.4933 684.508 97.64 684.508 95.56C684.508 93.4533 684.921 91.6 685.748 90C686.601 88.3733 687.748 87.1067 689.188 86.2C690.628 85.2667 692.228 84.8 693.988 84.8C695.135 84.8 696.201 84.9867 697.188 85.36C698.175 85.7333 699.028 86.24 699.748 86.88C700.495 87.52 701.068 88.2267 701.468 89C701.895 89.7733 702.108 90.5467 702.108 91.32L701.068 91.08V86.72C701.068 86.2667 701.215 85.8933 701.508 85.6C701.801 85.28 702.188 85.12 702.668 85.12ZM694.428 103.44C695.761 103.44 696.935 103.093 697.948 102.4C698.988 101.707 699.788 100.773 700.348 99.6C700.935 98.4 701.228 97.0533 701.228 95.56C701.228 94.0933 700.935 92.7733 700.348 91.6C699.788 90.4 698.988 89.4667 697.948 88.8C696.935 88.1067 695.761 87.76 694.428 87.76C693.121 87.76 691.948 88.0933 690.908 88.76C689.895 89.4267 689.095 90.3467 688.508 91.52C687.921 92.6933 687.628 94.04 687.628 95.56C687.628 97.0533 687.908 98.4 688.468 99.6C689.055 100.773 689.855 101.707 690.868 102.4C691.908 103.093 693.095 103.44 694.428 103.44ZM720.478 84.8C722.292 84.8 723.718 85.1733 724.758 85.92C725.798 86.6667 726.532 87.6667 726.958 88.92C727.412 90.1733 727.638 91.5733 727.638 93.12V104.36C727.638 104.813 727.478 105.2 727.158 105.52C726.865 105.84 726.492 106 726.038 106C725.585 106 725.198 105.84 724.878 105.52C724.585 105.2 724.438 104.813 724.438 104.36V93.2C724.438 92.1867 724.278 91.28 723.958 90.48C723.665 89.6533 723.158 89 722.438 88.52C721.745 88.0133 720.785 87.76 719.558 87.76C718.438 87.76 717.412 88.0133 716.478 88.52C715.545 89 714.798 89.6533 714.238 90.48C713.678 91.28 713.398 92.1867 713.398 93.2V104.36C713.398 104.813 713.238 105.2 712.918 105.52C712.625 105.84 712.252 106 711.798 106C711.345 106 710.958 105.84 710.638 105.52C710.345 105.2 710.198 104.813 710.198 104.36V86.92C710.198 86.4667 710.345 86.0933 710.638 85.8C710.958 85.48 711.345 85.32 711.798 85.32C712.278 85.32 712.665 85.48 712.958 85.8C713.252 86.0933 713.398 86.4667 713.398 86.92V89.76L712.598 90.64C712.732 89.9467 713.038 89.2533 713.518 88.56C713.998 87.84 714.598 87.2 715.318 86.64C716.038 86.08 716.838 85.64 717.718 85.32C718.598 84.9733 719.518 84.8 720.478 84.8ZM754.773 85C756.587 85 758.213 85.4533 759.653 86.36C761.093 87.2667 762.227 88.52 763.053 90.12C763.907 91.72 764.333 93.56 764.333 95.64C764.333 97.6933 763.907 99.5333 763.053 101.16C762.227 102.76 761.093 104.027 759.653 104.96C758.24 105.867 756.64 106.32 754.853 106.32C753.867 106.32 752.933 106.173 752.053 105.88C751.2 105.56 750.413 105.16 749.693 104.68C749 104.173 748.413 103.613 747.933 103C747.453 102.36 747.107 101.733 746.893 101.12L747.773 100.56V112.36C747.773 112.813 747.627 113.2 747.333 113.52C747.04 113.84 746.653 114 746.173 114C745.72 114 745.333 113.84 745.013 113.52C744.72 113.227 744.573 112.84 744.573 112.36V86.8C744.573 86.3467 744.72 85.9733 745.013 85.68C745.333 85.36 745.72 85.2 746.173 85.2C746.653 85.2 747.04 85.36 747.333 85.68C747.627 85.9733 747.773 86.3467 747.773 86.8V90.36L747.173 90.04C747.36 89.3733 747.68 88.7333 748.133 88.12C748.613 87.5067 749.187 86.9733 749.853 86.52C750.547 86.04 751.307 85.6667 752.133 85.4C752.987 85.1333 753.867 85 754.773 85ZM754.413 87.96C753.08 87.96 751.893 88.2933 750.853 88.96C749.84 89.6267 749.04 90.5333 748.453 91.68C747.893 92.8267 747.613 94.1467 747.613 95.64C747.613 97.1067 747.893 98.4267 748.453 99.6C749.04 100.773 749.84 101.693 750.853 102.36C751.893 103.027 753.08 103.36 754.413 103.36C755.747 103.36 756.92 103.027 757.933 102.36C758.947 101.693 759.747 100.773 760.333 99.6C760.92 98.4267 761.213 97.1067 761.213 95.64C761.213 94.1467 760.92 92.8267 760.333 91.68C759.747 90.5333 758.947 89.6267 757.933 88.96C756.92 88.2933 755.747 87.96 754.413 87.96ZM778.704 106.4C776.57 106.4 774.704 105.947 773.104 105.04C771.504 104.133 770.25 102.893 769.344 101.32C768.464 99.72 768.024 97.88 768.024 95.8C768.024 93.48 768.477 91.5067 769.384 89.88C770.317 88.2267 771.517 86.9733 772.984 86.12C774.477 85.24 776.05 84.8 777.704 84.8C778.93 84.8 780.117 85.0267 781.264 85.48C782.41 85.9333 783.424 86.6 784.304 87.48C785.184 88.3333 785.89 89.3733 786.424 90.6C786.957 91.8 787.237 93.1467 787.264 94.64C787.264 95.0667 787.104 95.4267 786.784 95.72C786.464 96.0133 786.09 96.16 785.664 96.16H769.864L769.144 93.4H784.544L783.904 93.96V93.08C783.797 91.9867 783.424 91.0533 782.784 90.28C782.17 89.48 781.41 88.8667 780.504 88.44C779.624 88.0133 778.69 87.8 777.704 87.8C776.904 87.8 776.104 87.9467 775.304 88.24C774.53 88.5067 773.824 88.96 773.184 89.6C772.57 90.2133 772.064 91.0133 771.664 92C771.29 92.9867 771.104 94.1733 771.104 95.56C771.104 97.1067 771.41 98.4667 772.024 99.64C772.664 100.813 773.544 101.747 774.664 102.44C775.784 103.107 777.09 103.44 778.584 103.44C779.517 103.44 780.33 103.32 781.024 103.08C781.717 102.84 782.317 102.547 782.824 102.2C783.33 101.827 783.757 101.453 784.104 101.08C784.45 100.84 784.784 100.72 785.104 100.72C785.504 100.72 785.824 100.853 786.064 101.12C786.33 101.387 786.464 101.707 786.464 102.08C786.464 102.533 786.25 102.933 785.824 103.28C785.077 104.107 784.064 104.84 782.784 105.48C781.504 106.093 780.144 106.4 778.704 106.4ZM795.593 104.36C795.593 104.813 795.433 105.2 795.113 105.52C794.793 105.84 794.407 106 793.953 106C793.5 106 793.127 105.84 792.833 105.52C792.54 105.2 792.393 104.813 792.393 104.36V78C792.393 77.5467 792.54 77.1733 792.833 76.88C793.153 76.56 793.54 76.4 793.993 76.4C794.473 76.4 794.86 76.56 795.153 76.88C795.447 77.1733 795.593 77.5467 795.593 78V104.36ZM818.84 85.12C819.293 85.12 819.667 85.28 819.96 85.6C820.28 85.8933 820.44 86.2667 820.44 86.72V104.36C820.44 104.813 820.28 105.2 819.96 105.52C819.667 105.84 819.293 106 818.84 106C818.36 106 817.973 105.84 817.68 105.52C817.387 105.2 817.24 104.813 817.24 104.36V100.56L818 100.48C818 101.067 817.8 101.707 817.4 102.4C817 103.093 816.453 103.747 815.76 104.36C815.067 104.947 814.24 105.44 813.28 105.84C812.347 106.213 811.333 106.4 810.24 106.4C808.427 106.4 806.8 105.933 805.36 105C803.92 104.04 802.773 102.747 801.92 101.12C801.093 99.4933 800.68 97.64 800.68 95.56C800.68 93.4533 801.093 91.6 801.92 90C802.773 88.3733 803.92 87.1067 805.36 86.2C806.8 85.2667 808.4 84.8 810.16 84.8C811.307 84.8 812.373 84.9867 813.36 85.36C814.347 85.7333 815.2 86.24 815.92 86.88C816.667 87.52 817.24 88.2267 817.64 89C818.067 89.7733 818.28 90.5467 818.28 91.32L817.24 91.08V86.72C817.24 86.2667 817.387 85.8933 817.68 85.6C817.973 85.28 818.36 85.12 818.84 85.12ZM810.6 103.44C811.933 103.44 813.107 103.093 814.12 102.4C815.16 101.707 815.96 100.773 816.52 99.6C817.107 98.4 817.4 97.0533 817.4 95.56C817.4 94.0933 817.107 92.7733 816.52 91.6C815.96 90.4 815.16 89.4667 814.12 88.8C813.107 88.1067 811.933 87.76 810.6 87.76C809.293 87.76 808.12 88.0933 807.08 88.76C806.067 89.4267 805.267 90.3467 804.68 91.52C804.093 92.6933 803.8 94.04 803.8 95.56C803.8 97.0533 804.08 98.4 804.64 99.6C805.227 100.773 806.027 101.707 807.04 102.4C808.08 103.093 809.267 103.44 810.6 103.44ZM828.29 106C827.81 106 827.423 105.84 827.13 105.52C826.837 105.2 826.69 104.813 826.69 104.36V78C826.69 77.5467 826.837 77.1733 827.13 76.88C827.423 76.56 827.81 76.4 828.29 76.4C828.743 76.4 829.117 76.56 829.41 76.88C829.73 77.1733 829.89 77.5467 829.89 78V104.36C829.89 104.813 829.73 105.2 829.41 105.52C829.117 105.84 828.743 106 828.29 106ZM841.57 85.2C841.997 85.2 842.357 85.3733 842.65 85.72C842.97 86.04 843.13 86.3733 843.13 86.72C843.13 87.1733 842.917 87.5733 842.49 87.92L829.53 99.24L829.41 95.52L840.45 85.68C840.77 85.36 841.143 85.2 841.57 85.2ZM842.01 105.96C841.557 105.96 841.157 105.787 840.81 105.44L832.29 96.36L834.69 94.16L843.13 103.2C843.45 103.547 843.61 103.947 843.61 104.4C843.61 104.88 843.423 105.267 843.05 105.56C842.677 105.827 842.33 105.96 842.01 105.96ZM863.53 85.32C864.01 85.32 864.397 85.48 864.69 85.8C864.983 86.0933 865.13 86.4667 865.13 86.92V97.84C865.13 100.533 864.37 102.627 862.85 104.12C861.357 105.587 859.263 106.32 856.57 106.32C853.903 106.32 851.81 105.587 850.29 104.12C848.797 102.627 848.05 100.533 848.05 97.84V86.92C848.05 86.4667 848.197 86.0933 848.49 85.8C848.81 85.48 849.197 85.32 849.65 85.32C850.13 85.32 850.517 85.48 850.81 85.8C851.103 86.0933 851.25 86.4667 851.25 86.92V97.84C851.25 99.6533 851.717 101.027 852.65 101.96C853.583 102.893 854.89 103.36 856.57 103.36C858.303 103.36 859.623 102.893 860.53 101.96C861.463 101.027 861.93 99.6533 861.93 97.84V86.92C861.93 86.4667 862.077 86.0933 862.37 85.8C862.69 85.48 863.077 85.32 863.53 85.32ZM354.226 134.8C356.04 134.8 357.666 135.267 359.106 136.2C360.546 137.107 361.68 138.36 362.506 139.96C363.36 141.56 363.786 143.413 363.786 145.52C363.786 147.627 363.36 149.493 362.506 151.12C361.68 152.747 360.546 154.04 359.106 155C357.693 155.933 356.093 156.4 354.306 156.4C353.32 156.4 352.386 156.253 351.506 155.96C350.653 155.64 349.866 155.227 349.146 154.72C348.453 154.187 347.866 153.613 347.386 153C346.906 152.36 346.56 151.733 346.346 151.12L347.226 150.56V154.56C347.226 155.013 347.08 155.4 346.786 155.72C346.493 156.04 346.106 156.2 345.626 156.2C345.173 156.2 344.786 156.053 344.466 155.76C344.173 155.44 344.026 155.04 344.026 154.56V128.04C344.026 127.587 344.173 127.2 344.466 126.88C344.786 126.56 345.173 126.4 345.626 126.4C346.106 126.4 346.493 126.56 346.786 126.88C347.08 127.2 347.226 127.587 347.226 128.04V140.36L346.626 140.04C346.813 139.373 347.133 138.733 347.586 138.12C348.066 137.48 348.64 136.92 349.306 136.44C350 135.933 350.76 135.533 351.586 135.24C352.44 134.947 353.32 134.8 354.226 134.8ZM353.866 137.76C352.533 137.76 351.346 138.093 350.306 138.76C349.293 139.427 348.493 140.347 347.906 141.52C347.346 142.693 347.066 144.027 347.066 145.52C347.066 147.013 347.346 148.36 347.906 149.56C348.493 150.76 349.293 151.707 350.306 152.4C351.346 153.093 352.533 153.44 353.866 153.44C355.2 153.44 356.373 153.093 357.386 152.4C358.4 151.707 359.2 150.76 359.786 149.56C360.373 148.36 360.666 147.013 360.666 145.52C360.666 144.027 360.373 142.693 359.786 141.52C359.2 140.347 358.4 139.427 357.386 138.76C356.373 138.093 355.2 137.76 353.866 137.76ZM384.077 135.32C384.557 135.32 384.943 135.48 385.237 135.8C385.53 136.093 385.677 136.467 385.677 136.92V147.84C385.677 150.533 384.917 152.627 383.397 154.12C381.903 155.587 379.81 156.32 377.117 156.32C374.45 156.32 372.357 155.587 370.837 154.12C369.343 152.627 368.597 150.533 368.597 147.84V136.92C368.597 136.467 368.743 136.093 369.037 135.8C369.357 135.48 369.743 135.32 370.197 135.32C370.677 135.32 371.063 135.48 371.357 135.8C371.65 136.093 371.797 136.467 371.797 136.92V147.84C371.797 149.653 372.263 151.027 373.197 151.96C374.13 152.893 375.437 153.36 377.117 153.36C378.85 153.36 380.17 152.893 381.077 151.96C382.01 151.027 382.477 149.653 382.477 147.84V136.92C382.477 136.467 382.623 136.093 382.917 135.8C383.237 135.48 383.623 135.32 384.077 135.32ZM395.125 154.36C395.125 154.813 394.965 155.2 394.645 155.52C394.325 155.84 393.938 156 393.485 156C393.031 156 392.658 155.84 392.365 155.52C392.071 155.2 391.925 154.813 391.925 154.36V128C391.925 127.547 392.071 127.173 392.365 126.88C392.685 126.56 393.071 126.4 393.525 126.4C394.005 126.4 394.391 126.56 394.685 126.88C394.978 127.173 395.125 127.547 395.125 128V154.36ZM404.851 154.36C404.851 154.813 404.691 155.2 404.371 155.52C404.051 155.84 403.664 156 403.211 156C402.758 156 402.384 155.84 402.091 155.52C401.798 155.2 401.651 154.813 401.651 154.36V128C401.651 127.547 401.798 127.173 402.091 126.88C402.411 126.56 402.798 126.4 403.251 126.4C403.731 126.4 404.118 126.56 404.411 126.88C404.704 127.173 404.851 127.547 404.851 128V154.36ZM425.952 135C426.405 135 426.778 135.16 427.072 135.48C427.392 135.773 427.552 136.147 427.552 136.6V154.04C427.552 156.28 427.112 158.133 426.232 159.6C425.352 161.093 424.165 162.2 422.672 162.92C421.205 163.64 419.538 164 417.672 164C416.632 164 415.632 163.893 414.672 163.68C413.712 163.467 412.925 163.187 412.312 162.84C411.805 162.6 411.445 162.293 411.232 161.92C411.045 161.573 411.018 161.2 411.152 160.8C411.338 160.32 411.605 159.987 411.952 159.8C412.325 159.613 412.712 159.613 413.112 159.8C413.538 159.987 414.152 160.24 414.952 160.56C415.778 160.907 416.698 161.08 417.712 161.08C419.098 161.08 420.285 160.813 421.272 160.28C422.258 159.747 423.018 158.96 423.552 157.92C424.085 156.907 424.352 155.64 424.352 154.12V151.28L424.832 152.28C424.405 153.107 423.832 153.827 423.112 154.44C422.392 155.053 421.565 155.533 420.632 155.88C419.698 156.227 418.672 156.4 417.552 156.4C416.032 156.4 414.738 156.08 413.672 155.44C412.632 154.773 411.832 153.867 411.272 152.72C410.738 151.547 410.472 150.2 410.472 148.68V136.6C410.472 136.147 410.618 135.773 410.912 135.48C411.232 135.16 411.618 135 412.072 135C412.552 135 412.938 135.16 413.232 135.48C413.525 135.773 413.672 136.147 413.672 136.6V147.96C413.672 149.773 414.072 151.147 414.872 152.08C415.672 152.987 416.912 153.44 418.592 153.44C419.658 153.44 420.618 153.2 421.472 152.72C422.352 152.24 423.045 151.587 423.552 150.76C424.085 149.907 424.352 148.973 424.352 147.96V136.6C424.352 136.147 424.498 135.773 424.792 135.48C425.085 135.16 425.472 135 425.952 135ZM436.56 154.36C436.56 154.813 436.4 155.2 436.08 155.52C435.786 155.84 435.413 156 434.96 156C434.48 156 434.093 155.84 433.8 155.52C433.506 155.2 433.36 154.813 433.36 154.36V136.6C433.36 136.147 433.506 135.773 433.8 135.48C434.12 135.16 434.506 135 434.96 135C435.413 135 435.786 135.16 436.08 135.48C436.4 135.773 436.56 136.147 436.56 136.6V154.36ZM434.96 132.32C434.293 132.32 433.8 132.187 433.48 131.92C433.16 131.653 433 131.24 433 130.68V130.12C433 129.56 433.173 129.147 433.52 128.88C433.866 128.613 434.36 128.48 435 128.48C435.64 128.48 436.12 128.613 436.44 128.88C436.76 129.147 436.92 129.56 436.92 130.12V130.68C436.92 131.24 436.746 131.653 436.4 131.92C436.08 132.187 435.6 132.32 434.96 132.32ZM452.588 134.8C454.401 134.8 455.828 135.173 456.868 135.92C457.908 136.667 458.641 137.667 459.068 138.92C459.521 140.173 459.748 141.573 459.748 143.12V154.36C459.748 154.813 459.588 155.2 459.268 155.52C458.974 155.84 458.601 156 458.148 156C457.694 156 457.308 155.84 456.988 155.52C456.694 155.2 456.548 154.813 456.548 154.36V143.2C456.548 142.187 456.388 141.28 456.068 140.48C455.774 139.653 455.268 139 454.548 138.52C453.854 138.013 452.894 137.76 451.668 137.76C450.548 137.76 449.521 138.013 448.588 138.52C447.654 139 446.908 139.653 446.348 140.48C445.788 141.28 445.508 142.187 445.508 143.2V154.36C445.508 154.813 445.348 155.2 445.028 155.52C444.734 155.84 444.361 156 443.908 156C443.454 156 443.068 155.84 442.748 155.52C442.454 155.2 442.308 154.813 442.308 154.36V136.92C442.308 136.467 442.454 136.093 442.748 135.8C443.068 135.48 443.454 135.32 443.908 135.32C444.388 135.32 444.774 135.48 445.068 135.8C445.361 136.093 445.508 136.467 445.508 136.92V139.76L444.708 140.64C444.841 139.947 445.148 139.253 445.628 138.56C446.108 137.84 446.708 137.2 447.428 136.64C448.148 136.08 448.948 135.64 449.828 135.32C450.708 134.973 451.628 134.8 452.588 134.8ZM474.347 134.8C475.494 134.8 476.56 135 477.547 135.4C478.534 135.773 479.387 136.267 480.107 136.88C480.854 137.493 481.427 138.133 481.827 138.8C482.254 139.467 482.467 140.093 482.467 140.68L481.707 140.2V136.72C481.707 136.267 481.854 135.893 482.147 135.6C482.44 135.28 482.827 135.12 483.307 135.12C483.76 135.12 484.134 135.28 484.427 135.6C484.747 135.893 484.907 136.267 484.907 136.72V154.24C484.907 156.427 484.44 158.24 483.507 159.68C482.6 161.12 481.374 162.2 479.827 162.92C478.28 163.64 476.547 164 474.627 164C473.827 164 472.947 163.893 471.987 163.68C471.027 163.467 470.174 163.2 469.427 162.88C468.68 162.587 468.2 162.28 467.987 161.96C467.587 161.693 467.334 161.387 467.227 161.04C467.147 160.72 467.214 160.413 467.427 160.12C467.667 159.747 467.974 159.56 468.347 159.56C468.747 159.56 469.24 159.68 469.827 159.92C470.067 160 470.44 160.133 470.947 160.32C471.48 160.507 472.067 160.667 472.707 160.8C473.374 160.96 474.027 161.04 474.667 161.04C476.934 161.04 478.667 160.44 479.867 159.24C481.094 158.067 481.707 156.507 481.707 154.56V150.84L482.147 151.04C481.987 151.787 481.654 152.48 481.147 153.12C480.667 153.76 480.067 154.333 479.347 154.84C478.654 155.32 477.88 155.707 477.027 156C476.174 156.267 475.307 156.4 474.427 156.4C472.56 156.4 470.88 155.933 469.387 155C467.894 154.067 466.707 152.787 465.827 151.16C464.974 149.533 464.547 147.68 464.547 145.6C464.547 143.493 464.974 141.627 465.827 140C466.707 138.373 467.88 137.107 469.347 136.2C470.84 135.267 472.507 134.8 474.347 134.8ZM474.747 137.76C473.387 137.76 472.16 138.107 471.067 138.8C470 139.467 469.16 140.387 468.547 141.56C467.96 142.733 467.667 144.08 467.667 145.6C467.667 147.067 467.96 148.4 468.547 149.6C469.16 150.773 470 151.707 471.067 152.4C472.16 153.093 473.387 153.44 474.747 153.44C476.134 153.44 477.36 153.107 478.427 152.44C479.494 151.747 480.334 150.813 480.947 149.64C481.56 148.467 481.867 147.12 481.867 145.6C481.867 144.053 481.56 142.693 480.947 141.52C480.334 140.347 479.494 139.427 478.427 138.76C477.36 138.093 476.134 137.76 474.747 137.76ZM504.919 154.36C504.919 154.813 504.759 155.2 504.439 155.52C504.146 155.84 503.772 156 503.319 156C502.839 156 502.452 155.84 502.159 155.52C501.866 155.2 501.719 154.813 501.719 154.36V136.6C501.719 136.147 501.866 135.773 502.159 135.48C502.479 135.16 502.866 135 503.319 135C503.772 135 504.146 135.16 504.439 135.48C504.759 135.773 504.919 136.147 504.919 136.6V154.36ZM503.319 132.32C502.652 132.32 502.159 132.187 501.839 131.92C501.519 131.653 501.359 131.24 501.359 130.68V130.12C501.359 129.56 501.532 129.147 501.879 128.88C502.226 128.613 502.719 128.48 503.359 128.48C503.999 128.48 504.479 128.613 504.799 128.88C505.119 129.147 505.279 129.56 505.279 130.12V130.68C505.279 131.24 505.106 131.653 504.759 131.92C504.439 132.187 503.959 132.32 503.319 132.32ZM509.867 135.44H519.267C519.694 135.44 520.04 135.587 520.307 135.88C520.6 136.173 520.747 136.52 520.747 136.92C520.747 137.347 520.6 137.707 520.307 138C520.04 138.267 519.694 138.4 519.267 138.4H509.867C509.467 138.4 509.12 138.253 508.827 137.96C508.534 137.667 508.387 137.307 508.387 136.88C508.387 136.48 508.534 136.147 508.827 135.88C509.12 135.587 509.467 135.44 509.867 135.44ZM514.067 130C514.52 130 514.894 130.16 515.187 130.48C515.48 130.773 515.627 131.147 515.627 131.6V150.92C515.627 151.56 515.72 152.04 515.907 152.36C516.094 152.68 516.334 152.907 516.627 153.04C516.947 153.147 517.254 153.2 517.547 153.2C517.814 153.2 518.04 153.16 518.227 153.08C518.44 152.973 518.68 152.92 518.947 152.92C519.214 152.92 519.454 153.053 519.667 153.32C519.907 153.56 520.027 153.88 520.027 154.28C520.027 154.76 519.747 155.173 519.187 155.52C518.627 155.84 518 156 517.307 156C516.934 156 516.467 155.973 515.907 155.92C515.374 155.867 514.84 155.693 514.307 155.4C513.774 155.107 513.32 154.627 512.947 153.96C512.6 153.267 512.427 152.307 512.427 151.08V131.6C512.427 131.147 512.587 130.773 512.907 130.48C513.227 130.16 513.614 130 514.067 130ZM540.678 135.32C541.158 135.32 541.545 135.48 541.838 135.8C542.132 136.093 542.278 136.467 542.278 136.92V147.84C542.278 150.533 541.518 152.627 539.998 154.12C538.505 155.587 536.412 156.32 533.718 156.32C531.052 156.32 528.958 155.587 527.438 154.12C525.945 152.627 525.198 150.533 525.198 147.84V136.92C525.198 136.467 525.345 136.093 525.638 135.8C525.958 135.48 526.345 135.32 526.798 135.32C527.278 135.32 527.665 135.48 527.958 135.8C528.252 136.093 528.398 136.467 528.398 136.92V147.84C528.398 149.653 528.865 151.027 529.798 151.96C530.732 152.893 532.038 153.36 533.718 153.36C535.452 153.36 536.772 152.893 537.678 151.96C538.612 151.027 539.078 149.653 539.078 147.84V136.92C539.078 136.467 539.225 136.093 539.518 135.8C539.838 135.48 540.225 135.32 540.678 135.32ZM576.262 135.12C576.715 135.12 577.088 135.28 577.382 135.6C577.702 135.893 577.862 136.267 577.862 136.72V154.36C577.862 154.813 577.702 155.2 577.382 155.52C577.088 155.84 576.715 156 576.262 156C575.782 156 575.395 155.84 575.102 155.52C574.808 155.2 574.662 154.813 574.662 154.36V150.56L575.422 150.48C575.422 151.067 575.222 151.707 574.822 152.4C574.422 153.093 573.875 153.747 573.182 154.36C572.488 154.947 571.662 155.44 570.702 155.84C569.768 156.213 568.755 156.4 567.662 156.4C565.848 156.4 564.222 155.933 562.782 155C561.342 154.04 560.195 152.747 559.342 151.12C558.515 149.493 558.102 147.64 558.102 145.56C558.102 143.453 558.515 141.6 559.342 140C560.195 138.373 561.342 137.107 562.782 136.2C564.222 135.267 565.822 134.8 567.582 134.8C568.728 134.8 569.795 134.987 570.782 135.36C571.768 135.733 572.622 136.24 573.342 136.88C574.088 137.52 574.662 138.227 575.062 139C575.488 139.773 575.702 140.547 575.702 141.32L574.662 141.08V136.72C574.662 136.267 574.808 135.893 575.102 135.6C575.395 135.28 575.782 135.12 576.262 135.12ZM568.022 153.44C569.355 153.44 570.528 153.093 571.542 152.4C572.582 151.707 573.382 150.773 573.942 149.6C574.528 148.4 574.822 147.053 574.822 145.56C574.822 144.093 574.528 142.773 573.942 141.6C573.382 140.4 572.582 139.467 571.542 138.8C570.528 138.107 569.355 137.76 568.022 137.76C566.715 137.76 565.542 138.093 564.502 138.76C563.488 139.427 562.688 140.347 562.102 141.52C561.515 142.693 561.222 144.04 561.222 145.56C561.222 147.053 561.502 148.4 562.062 149.6C562.648 150.773 563.448 151.707 564.462 152.4C565.502 153.093 566.688 153.44 568.022 153.44ZM593.992 135C595.805 135 597.432 135.453 598.872 136.36C600.312 137.267 601.445 138.52 602.272 140.12C603.125 141.72 603.552 143.56 603.552 145.64C603.552 147.693 603.125 149.533 602.272 151.16C601.445 152.76 600.312 154.027 598.872 154.96C597.459 155.867 595.859 156.32 594.072 156.32C593.085 156.32 592.152 156.173 591.272 155.88C590.419 155.56 589.632 155.16 588.912 154.68C588.219 154.173 587.632 153.613 587.152 153C586.672 152.36 586.325 151.733 586.112 151.12L586.992 150.56V162.36C586.992 162.813 586.845 163.2 586.552 163.52C586.259 163.84 585.872 164 585.392 164C584.939 164 584.552 163.84 584.232 163.52C583.939 163.227 583.792 162.84 583.792 162.36V136.8C583.792 136.347 583.939 135.973 584.232 135.68C584.552 135.36 584.939 135.2 585.392 135.2C585.872 135.2 586.259 135.36 586.552 135.68C586.845 135.973 586.992 136.347 586.992 136.8V140.36L586.392 140.04C586.579 139.373 586.899 138.733 587.352 138.12C587.832 137.507 588.405 136.973 589.072 136.52C589.765 136.04 590.525 135.667 591.352 135.4C592.205 135.133 593.085 135 593.992 135ZM593.632 137.96C592.299 137.96 591.112 138.293 590.072 138.96C589.059 139.627 588.259 140.533 587.672 141.68C587.112 142.827 586.832 144.147 586.832 145.64C586.832 147.107 587.112 148.427 587.672 149.6C588.259 150.773 589.059 151.693 590.072 152.36C591.112 153.027 592.299 153.36 593.632 153.36C594.965 153.36 596.139 153.027 597.152 152.36C598.165 151.693 598.965 150.773 599.552 149.6C600.139 148.427 600.432 147.107 600.432 145.64C600.432 144.147 600.139 142.827 599.552 141.68C598.965 140.533 598.165 139.627 597.152 138.96C596.139 138.293 594.965 137.96 593.632 137.96ZM625.402 135.12C625.856 135.12 626.229 135.28 626.522 135.6C626.842 135.893 627.002 136.267 627.002 136.72V154.36C627.002 154.813 626.842 155.2 626.522 155.52C626.229 155.84 625.856 156 625.402 156C624.922 156 624.536 155.84 624.242 155.52C623.949 155.2 623.802 154.813 623.802 154.36V150.56L624.562 150.48C624.562 151.067 624.362 151.707 623.962 152.4C623.562 153.093 623.016 153.747 622.322 154.36C621.629 154.947 620.802 155.44 619.842 155.84C618.909 156.213 617.896 156.4 616.802 156.4C614.989 156.4 613.362 155.933 611.922 155C610.482 154.04 609.336 152.747 608.482 151.12C607.656 149.493 607.242 147.64 607.242 145.56C607.242 143.453 607.656 141.6 608.482 140C609.336 138.373 610.482 137.107 611.922 136.2C613.362 135.267 614.962 134.8 616.722 134.8C617.869 134.8 618.936 134.987 619.922 135.36C620.909 135.733 621.762 136.24 622.482 136.88C623.229 137.52 623.802 138.227 624.202 139C624.629 139.773 624.842 140.547 624.842 141.32L623.802 141.08V136.72C623.802 136.267 623.949 135.893 624.242 135.6C624.536 135.28 624.922 135.12 625.402 135.12ZM617.162 153.44C618.496 153.44 619.669 153.093 620.682 152.4C621.722 151.707 622.522 150.773 623.082 149.6C623.669 148.4 623.962 147.053 623.962 145.56C623.962 144.093 623.669 142.773 623.082 141.6C622.522 140.4 621.722 139.467 620.682 138.8C619.669 138.107 618.496 137.76 617.162 137.76C615.856 137.76 614.682 138.093 613.642 138.76C612.629 139.427 611.829 140.347 611.242 141.52C610.656 142.693 610.362 144.04 610.362 145.56C610.362 147.053 610.642 148.4 611.202 149.6C611.789 150.773 612.589 151.707 613.602 152.4C614.642 153.093 615.829 153.44 617.162 153.44ZM637.413 142.8C637.413 142.347 637.559 141.973 637.853 141.68C638.173 141.36 638.559 141.2 639.013 141.2C640.186 141.147 641.239 140.893 642.173 140.44C643.106 139.96 643.839 139.293 644.373 138.44C644.933 137.56 645.213 136.52 645.213 135.32C645.213 134.2 644.959 133.213 644.453 132.36C643.973 131.507 643.306 130.84 642.453 130.36C641.626 129.88 640.693 129.64 639.653 129.64C638.666 129.64 637.746 129.853 636.893 130.28C636.039 130.707 635.306 131.267 634.693 131.96C634.399 132.253 634.053 132.453 633.653 132.56C633.279 132.667 632.893 132.587 632.493 132.32C632.039 132 631.786 131.627 631.733 131.2C631.706 130.747 631.866 130.333 632.213 129.96C633.093 128.893 634.186 128.053 635.493 127.44C636.799 126.8 638.186 126.48 639.653 126.48C641.279 126.48 642.759 126.853 644.093 127.6C645.426 128.347 646.493 129.387 647.293 130.72C648.093 132.027 648.493 133.56 648.493 135.32C648.493 136.493 648.279 137.573 647.853 138.56C647.453 139.547 646.879 140.427 646.133 141.2C645.386 141.947 644.519 142.547 643.533 143C642.546 143.453 641.479 143.733 640.333 143.84C640.253 143.84 640.253 143.84 640.333 143.84C640.413 143.813 640.493 143.773 640.573 143.72V147C640.573 147.453 640.426 147.84 640.133 148.16C639.839 148.48 639.466 148.64 639.013 148.64C638.533 148.64 638.146 148.48 637.853 148.16C637.559 147.84 637.413 147.453 637.413 147V142.8ZM638.933 156C638.373 156 637.946 155.84 637.653 155.52C637.359 155.173 637.213 154.72 637.213 154.16V153.36C637.213 152.8 637.359 152.36 637.653 152.04C637.946 151.72 638.373 151.56 638.933 151.56H639.293C639.853 151.56 640.279 151.72 640.573 152.04C640.866 152.36 641.013 152.8 641.013 153.36V154.16C641.013 154.72 640.866 155.173 640.573 155.52C640.279 155.84 639.853 156 639.293 156H638.933Z" fill="white"/>
</svg>
