<svg width="973" height="830" viewBox="0 0 973 830" fill="none" xmlns="http://www.w3.org/2000/svg">
<path d="M957.876 40.2218C958.21 209.369 960.913 727.301 957.179 815.139C906.397 826.439 904.762 817.06 853.225 814.911L26.1786 780.381C20.814 780.16 14.9598 779.705 10.9129 775.16C7.21502 770.956 5.9546 764.308 4.98064 758.082C-3.38394 704.4 39.9859 78.6544 41.3504 27.2481C98.1786 15.7939 173.913 16.6241 231.559 16.5973C291.85 16.5973 337.147 12.42 397.403 13.5179C516.376 15.6868 635.304 20.0851 754.189 26.7192C822.106 30.5752 890.001 35.0738 957.876 40.2218Z" fill="#116D4F"/>
<path d="M578.429 239.099C587.825 267.222 609.002 285.525 629.892 300.252C654.319 317.457 680.033 332.185 702.262 353.761C724.491 375.337 743.476 405.314 747.752 440.721C753.997 492.576 728.189 541.257 701.424 580.881C674.663 620.512 644.226 661.094 638.236 713.002C636.892 724.55 637.148 737.45 642.981 746.4C648.293 754.554 656.924 757.453 664.997 759.829C745.976 783.675 827.903 799.166 910.793 806.309C915.674 806.737 920.752 807.085 925.262 804.635C934.986 799.36 938.023 783.882 939.71 770.507C963.054 586.511 965.773 399.336 968.439 212.944C969.2 160.44 969.856 107.28 959.007 56.777C957.955 51.7763 956.611 46.6216 953.465 43.4752C950.747 41.2058 947.778 39.8803 944.554 39.4987C867.694 22.7159 790.288 14.9638 712.335 16.2491C686.819 16.6441 652.47 11.7237 630.96 33.7482C615.288 49.8282 609.142 78.025 600.991 100.478C585.512 143.088 562.325 190.839 578.429 239.099Z" fill="#15664C"/>
<path d="M867.345 62.5009C900.621 69.4296 927.637 72.5023 961.377 70.4538C961.903 46.9766 961.262 40.0479 961.767 16.5974C824.71 14.743 25.5015 -13.4069 25.1109 17.1196C24.663 51.9237 34.8348 42.1231 51.9703 38.7492C83.9598 32.2221 174.496 35.6965 206.762 33.6213C334.173 25.4742 833.986 55.5789 867.345 62.5009Z" fill="#CD924C"/>
<path d="M959.882 783.407C959.882 799.434 959.491 805.01 955.074 822.59C795.147 845.089 646.793 804.736 485.892 805.813C452.09 806.034 9.56917 793.308 5.50668 775.307C-2.46728 739.653 10.4077 733.253 25.5588 733.226C94.5015 733.226 199.876 751.18 268.824 752.854C344.772 754.702 877.574 786.259 959.882 783.407Z" fill="#CD924C"/>
<path d="M942.085 270.148C942.085 482.199 941.189 629.737 915.538 790.63C913.788 801.562 909.705 798.757 915.012 807.688C920.325 816.611 950.116 810.339 957.179 812.688C976.783 616.241 972.054 431.616 968.653 233.643C967.7 178.213 968.788 71.1299 961.71 16.4701C935.085 17.1194 935.085 17.1194 933.819 48.6969C931.934 96.1334 942.085 223.119 942.085 270.148Z" fill="#CD924C"/>
<path d="M41.7776 779.009C25.9859 771.88 21.8817 770.855 5.52755 775.307C-9.08182 777.804 22.6578 114.784 12.8192 41.7482C9.90255 20.1186 14.413 14.2476 42.9859 10.3448C59.3609 8.12227 51.6005 47.2778 50.6057 65.3527C47.3973 123.48 36.9911 470.873 37.8869 586.411C38.0432 605.838 32.7932 775.079 41.7776 779.009Z" fill="#CD924C"/>
<path d="M24.038 154.388C22.0953 159.161 19.663 163.687 18.6161 168.915C17.9651 172.844 17.7203 176.821 17.8921 180.838C18.2046 211.625 18.5015 242.413 18.788 273.2C19.0015 295.379 19.2151 317.557 20.7359 339.655C22.564 367.538 26.314 395.815 22.1369 423.269C18.9234 444.296 11.163 463.843 8.03277 484.897C4.63173 507.698 6.80881 531.202 7.2359 554.432C7.64735 576.456 6.47548 598.461 5.75673 620.492C4.06402 671.892 -9.4516 786.955 11.9807 779.009C11.9807 755.056 7.91819 726.826 7.91819 702.873C7.91819 668.042 7.91819 633.017 12.5849 598.689C15.5432 576.811 20.3661 554.579 17.2151 532.729C15.4807 521.328 11.5953 510.403 11.3974 498.801C10.9338 474.648 25.8296 454.772 30.8453 431.543C36.4703 406.017 29.8921 379.039 26.6838 352.857C22.5796 319.358 24.0796 285.176 25.5953 251.323L28.0849 195.666C28.4859 180.456 29.7255 165.367 31.7984 150.385C34.1734 135.383 38.2984 120.38 37.9078 105.03C37.6369 94.3526 35.2046 84.0031 33.4911 73.5531C31.4234 60.7602 30.439 47.8333 30.538 34.7725C30.6317 24.423 38.9182 14.2475 47.2046 9.76892C24.2567 13.9931 20.7359 37.6712 23.7671 60.8539C27.7567 91.2531 35.8869 125.16 24.038 154.388Z" fill="#AA762A"/>
<path d="M29.5639 729.002C30.1472 721.497 31.2566 713.049 27.6212 706.997C24.3139 701.374 21.1212 665.847 23.9441 660.719C34.0587 642.316 34.366 618.216 34.2879 595.71C34.2879 570.585 34.116 545.234 30.0691 520.706C29.4962 517.854 29.1525 514.962 29.0379 512.03C29.1525 508.408 29.6316 504.88 30.4754 501.426C33.3972 486.912 35.6889 472.238 37.3452 457.397C34.2722 470.049 32.3243 484.201 28.0639 496.251C25.965 502.202 19.5066 506.949 20.5587 513.402C37.3816 615.512 13.9441 668.417 13.9441 668.417C13.1108 671.611 12.5222 674.884 12.1837 678.225C11.84 681.565 11.7566 684.919 11.9233 688.28C12.09 691.64 12.5066 694.954 13.1733 698.214C13.84 701.474 14.7462 704.614 15.892 707.647C18.2462 713.899 20.2097 720.152 20.2097 724.249C20.1785 737.892 21.1941 751.401 23.2618 764.783C23.9233 769.081 20.7931 778.005 23.0118 781.359C25.2254 784.706 53.2514 786.707 58.7566 786.005C53.1368 770.259 28.2045 746.28 29.5639 729.002Z" fill="#AA762A"/>
<path d="M53.7567 767.582C63.9286 773.633 76.5536 770.534 85.3609 761.657C89.6994 757.306 93.689 751.455 99.1317 750.651C104.58 749.855 109.809 754.554 115.293 754.253C118.257 753.831 121.059 752.72 123.694 750.926C129.746 747.405 149.371 746.802 155.418 743.301C145.418 739.351 125.017 736.279 116.517 738.026C111.6 739.03 106.658 740.027 101.814 741.601C94.5432 743.977 87.4807 747.679 80.0119 748.703C72.5484 749.728 64.6682 741.855 59.9234 734.377C58.7775 732.577 40.2411 726.404 37.7723 732.074C33.8244 741.005 46.8921 763.478 53.7567 767.582Z" fill="#AA762A"/>
<path d="M184.689 784.833C196.861 782.704 208.981 779.504 221.272 779.21C247.663 778.554 273.163 791.307 299.455 794.212C323.845 797.01 348.351 791.333 372.095 783.608C384.798 779.484 398.392 774.785 410.72 780.509C416.851 783.36 422.101 788.582 427.856 792.485C458.158 813.037 499.272 796.836 532.996 804.588C397.788 812.233 313.694 804.434 286.33 801.757C212.246 794.56 127.918 793.282 65.8557 786.761C79.4703 768.405 99.9495 778.058 115.429 783.233C137.642 790.811 162.205 788.756 184.689 784.833Z" fill="#AA762A"/>
<path d="M893.58 785.081C879.325 783.006 794.72 778.433 794.72 778.433C789.705 777.784 738.085 777.135 733.319 776.579C552.981 755.579 372.121 744.687 190.757 743.904C158.434 743.904 138.767 778.032 183.465 769.409C213.861 763.532 246.168 748.503 276.215 764.757C284.595 769.282 292.241 776.104 300.991 779.283C334.793 791.534 370.288 746.079 403.33 761.383C415.002 766.832 424.356 779.357 436.397 783.434C457.788 790.63 478.481 769.208 500.46 765.928C521.272 762.809 541.184 776.084 561.705 781.58C587.71 788.555 614.606 782.932 641.153 781.232C677.851 778.882 859.799 795.009 901.455 796.234C906.726 796.381 914.059 799.962 912.408 806.382C911.95 807.628 911.314 808.705 910.512 809.609C909.705 810.52 908.793 811.189 907.778 811.611C896.731 817.937 884.127 817.508 872.09 816.31C860.049 815.112 847.799 813.184 835.778 810.633C829.163 809.234 822.262 807.661 815.84 810.111C812.653 811.336 809.757 813.512 806.663 815.112C797.481 819.838 787.215 819.236 777.491 818.586C760.746 817.462 743.882 816.337 727.564 811.336C720.038 809.033 712.668 805.907 705.064 804.059C692.517 801.007 679.642 801.562 666.866 801.984C626.507 803.611 585.549 805.512 546.283 793.362C529.71 788.361 512.205 780.636 496.121 787.859C498.496 793.683 503.903 796.334 509.054 796.709C514.21 797.084 519.267 795.732 524.361 795.859C528.929 796.106 533.429 796.937 537.861 798.362C562.231 805.184 586.83 811.812 611.767 811.986C629.835 812.113 647.845 808.833 665.892 809.234C714.512 810.312 762.632 838.04 810.668 827.691C819.575 825.763 828.424 822.563 837.429 823.165C843.127 823.895 848.746 825.16 854.293 826.961C873.877 832.163 891.246 828.815 911.22 827.316C972.871 822.59 907.814 787.036 893.58 785.081Z" fill="#AA762A"/>
<path d="M954.319 203.291C952.064 191.388 951.382 177.317 949.809 165.24C948.309 153.913 953.074 136.882 954.434 125.535C957.392 100.733 952.918 84.405 955.876 59.6291C956.538 54.1263 957.158 48.3222 955.678 43.1006C954.199 37.8723 949.845 33.5745 945.663 35.1476C945.059 41.7751 919.522 13.344 933.642 71.1033L933.876 93.1546C936.21 117.208 946.481 138.683 944.496 162.79C943.814 171.064 942.882 179.465 944.012 187.793C945.043 195.291 947.746 202.34 949.397 209.717C956.632 242.045 942.824 275.979 943.678 309.732C943.991 321.909 946.246 333.885 947.085 346.036C947.632 356.077 947.705 366.132 947.298 376.187L945.606 443.292C944.923 470.498 940.043 503.3 939.168 530.379C937.767 573.886 922.772 729.799 926.527 710.224C929.033 696.748 935.22 680.073 939.303 667.567C947.803 641.714 949.126 613.042 950.33 585.059C953.908 501.774 957.491 418.215 952.548 335.03C951.46 316.808 949.96 298.525 951.012 280.303C952.548 254.523 959.085 228.422 954.319 203.291Z" fill="#AA762A"/>
<path d="M971.996 424.668C970.538 376.388 971.762 329.654 969.121 291.429C963.033 319.459 959.762 388.565 959.762 388.565C962.7 420.243 961.944 452.295 961.147 484.201L960.038 530.406C959.356 558.281 958.658 586.183 955.991 613.865C952.668 648.066 946.377 681.344 937.127 713.698C932.575 729.678 927.246 745.55 925.71 762.454C924.174 779.357 926.991 797.961 936.621 809.636C938.392 811.811 940.882 813.813 943.137 812.635C947.028 810.633 945.47 803.182 943.621 798.336C942.064 794.219 940.799 789.954 939.83 785.549C938.856 781.144 938.189 776.666 937.83 772.114C937.47 767.555 937.418 762.996 937.684 758.43C937.95 753.865 938.522 749.366 939.403 744.928C942.903 727.549 951.069 712.226 954.96 694.921C957.205 684.056 958.606 673.016 959.163 661.797C962.325 620.124 965.491 578.451 968.653 536.779C971.752 499.504 972.866 462.136 971.996 424.668Z" fill="#AA762A"/>
<path d="M952.762 769.483C952.715 770.842 952.897 772.147 953.309 773.406C953.829 774.785 952.079 818.412 955.074 822.59C957.428 825.937 968.809 716.45 967.001 682.094C955.465 694.345 952.449 752.131 952.762 769.483Z" fill="#AA762A"/>
<path d="M956.048 147.513C957.429 151.409 959.726 154.709 960.97 158.713C962.132 163.191 962.58 167.783 962.314 172.49C962.137 198.879 960.606 225.141 957.72 251.269C957.257 255.5 956.788 260.026 958.226 263.774C959.668 267.523 966.241 282.827 968.83 280.129C970.147 279.326 966.397 99.3533 965.95 85.4022C962.293 93.2548 961.71 103.403 959.533 112.059C956.809 123.306 951.887 135.711 956.048 147.513Z" fill="#AA762A"/>
<path d="M357.278 30.4479C393.455 27.248 429.59 21.7988 465.84 22.1C498.455 22.3745 530.934 27.2949 563.397 31.345C613.965 37.6243 664.804 41.7748 715.663 41.9221C749.366 41.9221 783.054 40.3222 816.793 38.6486C842.778 37.3498 869.21 35.9507 893.793 25.0455L747.054 26.0229C706.793 26.2974 666.512 26.5451 626.293 24.7979C603.658 23.8205 580.981 22.1736 558.746 16.7244C543.366 12.922 528.215 7.31878 512.637 5.19665C495.366 2.69295 477.939 4.76821 460.647 6.6962L385.012 15.1713C372.913 16.5236 360.663 17.9227 349.304 23.3987C343.897 25.8957 338.569 29.5241 332.809 29.571C326.741 29.571 321.142 25.7953 315.309 23.3719C294.981 14.8232 273.085 23.7201 251.825 26.7995C185.293 36.4461 116.246 -13.0791 51.0954 9.29363C47.8246 10.4183 47.0121 15.4726 47.2048 19.7971C47.3975 24.1217 50.4704 26.1233 53.2725 27.2949C71.6527 35.375 103.392 35.221 122.705 32.4696C114.674 28.9752 99.6006 27.1944 88.1423 24.5502C87.8037 24.4698 87.4808 24.3225 87.1787 24.1016C86.8766 23.8807 86.611 23.6062 86.3819 23.2715C86.1527 22.9368 85.9756 22.5619 85.8454 22.1469C85.7152 21.7385 85.6423 21.3034 85.6266 20.8615C85.611 20.4197 85.6527 19.9779 85.7516 19.5561C85.8558 19.1277 86.0069 18.7327 86.21 18.3712C86.4131 18.0097 86.6579 17.7085 86.9444 17.4541C87.2256 17.1997 87.5381 17.0123 87.8714 16.8985C91.7569 16.1955 95.6423 16.1286 99.5433 16.6976C107.163 17.1729 114.741 18.1771 122.278 19.6967C141.038 23.0305 159.84 25.8154 178.679 28.0446C216.465 32.4094 254.325 34.3173 292.262 33.775C313.976 33.4738 335.653 32.3625 357.278 30.4479Z" fill="#AA762A"/>
<path d="M961.71 16.5972H943.699C936.205 17.8022 928.986 20.3193 922.043 24.1418C915.1 27.9709 908.705 32.9516 902.856 39.097C898.965 43.2476 895.194 48.0006 890.47 50.3503C886.439 52.0172 882.309 52.7804 878.08 52.6264C861.08 53.249 815.475 55.4515 798.455 56.074C819.85 65.0244 871.173 69.4494 893.366 64.924C901.689 63.2036 910.288 59.6488 915.772 51.4281C917.408 48.5361 919.163 45.7781 921.043 43.1472C923.809 40.2619 926.903 38.1665 930.319 36.8477C941.444 31.5257 953.288 40.1748 964.47 45.2023L961.71 16.5972Z" fill="#AA762A"/>
<path d="M283.876 7.72038C288.684 6.743 293.507 6.56894 298.345 7.19822C306.632 8.69776 342.595 8.59735 349.731 3.02091C338.548 -0.754726 301.809 -0.00495254 290.741 0.195879C271.778 0.543987 185.486 2.09709 179.376 4.99576C186.397 16.1687 218.725 13.1696 229.632 13.0223C247.788 12.4466 265.866 10.6793 283.876 7.72038Z" fill="#AA762A"/>
<path d="M96.25 98.8369C95.8873 98.8369 95.578 98.7089 95.322 98.4529C95.0873 98.1969 94.97 97.8876 94.97 97.5249V80.0209L95.482 80.2129L87.834 90.1969L87.706 89.8129H99.674C100.015 89.8129 100.303 89.9302 100.538 90.1649C100.773 90.3996 100.89 90.6876 100.89 91.0289C100.89 91.3489 100.773 91.6262 100.538 91.8609C100.303 92.0742 100.015 92.1809 99.674 92.1809H85.946C85.626 92.1809 85.3273 92.0529 85.05 91.7969C84.794 91.5409 84.666 91.2422 84.666 90.9009C84.666 90.5809 84.7727 90.3036 84.986 90.0689L95.194 76.9489C95.3433 76.7569 95.514 76.6289 95.706 76.5649C95.898 76.4796 96.09 76.4369 96.282 76.4369C96.6447 76.4369 96.9433 76.5649 97.178 76.8209C97.4127 77.0556 97.53 77.3542 97.53 77.7169V97.5249C97.53 97.8876 97.402 98.1969 97.146 98.4529C96.9113 98.7089 96.6127 98.8369 96.25 98.8369ZM104.886 98.8049C104.438 98.8049 104.086 98.6769 103.83 98.4209C103.595 98.1649 103.478 97.8129 103.478 97.3649V96.7249C103.478 96.2556 103.595 95.8929 103.83 95.6369C104.086 95.3809 104.438 95.2529 104.886 95.2529H105.142C105.611 95.2529 105.963 95.3809 106.198 95.6369C106.433 95.8929 106.55 96.2556 106.55 96.7249V97.3649C106.55 97.8129 106.433 98.1649 106.198 98.4209C105.963 98.6769 105.611 98.8049 105.142 98.8049H104.886ZM136.466 79.7649L128.946 98.0689C128.861 98.3249 128.712 98.5276 128.498 98.6769C128.285 98.8262 128.061 98.9009 127.826 98.9009C127.421 98.9009 127.122 98.7942 126.93 98.5809C126.738 98.3676 126.642 98.1116 126.642 97.8129C126.621 97.6636 126.642 97.5036 126.706 97.3329L134.994 77.1729C135.101 76.8742 135.261 76.6609 135.474 76.5329C135.709 76.3836 135.965 76.3196 136.242 76.3409C136.52 76.3409 136.765 76.4156 136.978 76.5649C137.213 76.7142 137.373 76.9169 137.458 77.1729L145.714 97.1409C145.778 97.3116 145.81 97.4822 145.81 97.6529C145.81 98.0369 145.682 98.3462 145.426 98.5809C145.17 98.7942 144.882 98.9009 144.562 98.9009C144.306 98.9009 144.072 98.8262 143.858 98.6769C143.645 98.5276 143.485 98.3142 143.378 98.0369L135.762 79.7329L136.466 79.7649ZM130.546 92.8529L131.634 90.3569H141.138L141.618 92.8529H130.546ZM157.028 82.0369C158.479 82.0369 159.78 82.3996 160.932 83.1249C162.084 83.8502 162.991 84.8529 163.652 86.1329C164.335 87.4129 164.676 88.8849 164.676 90.5489C164.676 92.1916 164.335 93.6636 163.652 94.9649C162.991 96.2449 162.084 97.2582 160.932 98.0049C159.801 98.7302 158.521 99.0929 157.092 99.0929C156.303 99.0929 155.556 98.9756 154.852 98.7409C154.169 98.4849 153.54 98.1649 152.964 97.7809C152.409 97.3756 151.94 96.9276 151.556 96.4369C151.172 95.9249 150.895 95.4236 150.724 94.9329L151.428 94.4849V103.925C151.428 104.288 151.311 104.597 151.076 104.853C150.841 105.109 150.532 105.237 150.148 105.237C149.785 105.237 149.476 105.109 149.22 104.853C148.985 104.618 148.868 104.309 148.868 103.925V83.4769C148.868 83.1142 148.985 82.8156 149.22 82.5809C149.476 82.3249 149.785 82.1969 150.148 82.1969C150.532 82.1969 150.841 82.3249 151.076 82.5809C151.311 82.8156 151.428 83.1142 151.428 83.4769V86.3249L150.948 86.0689C151.097 85.5356 151.353 85.0236 151.716 84.5329C152.1 84.0422 152.559 83.6156 153.092 83.2529C153.647 82.8689 154.255 82.5702 154.916 82.3569C155.599 82.1436 156.303 82.0369 157.028 82.0369ZM156.74 84.4049C155.673 84.4049 154.724 84.6716 153.892 85.2049C153.081 85.7382 152.441 86.4636 151.972 87.3809C151.524 88.2982 151.3 89.3542 151.3 90.5489C151.3 91.7222 151.524 92.7782 151.972 93.7169C152.441 94.6556 153.081 95.3916 153.892 95.9249C154.724 96.4582 155.673 96.7249 156.74 96.7249C157.807 96.7249 158.745 96.4582 159.556 95.9249C160.367 95.3916 161.007 94.6556 161.476 93.7169C161.945 92.7782 162.18 91.7222 162.18 90.5489C162.18 89.3542 161.945 88.2982 161.476 87.3809C161.007 86.4636 160.367 85.7382 159.556 85.2049C158.745 84.6716 157.807 84.4049 156.74 84.4049ZM182.156 82.1329C182.519 82.1329 182.818 82.2609 183.052 82.5169C183.308 82.7516 183.436 83.0502 183.436 83.4129V97.5249C183.436 97.8876 183.308 98.1969 183.052 98.4529C182.818 98.7089 182.519 98.8369 182.156 98.8369C181.772 98.8369 181.463 98.7089 181.228 98.4529C180.994 98.1969 180.876 97.8876 180.876 97.5249V94.4849L181.484 94.4209C181.484 94.8902 181.324 95.4022 181.004 95.9569C180.684 96.5116 180.247 97.0342 179.692 97.5249C179.138 97.9942 178.476 98.3889 177.708 98.7089C176.962 99.0076 176.151 99.1569 175.276 99.1569C173.826 99.1569 172.524 98.7836 171.372 98.0369C170.22 97.2689 169.303 96.2342 168.62 94.9329C167.959 93.6316 167.628 92.1489 167.628 90.4849C167.628 88.7996 167.959 87.3169 168.62 86.0369C169.303 84.7356 170.22 83.7222 171.372 82.9969C172.524 82.2502 173.804 81.8769 175.212 81.8769C176.13 81.8769 176.983 82.0262 177.772 82.3249C178.562 82.6236 179.244 83.0289 179.82 83.5409C180.418 84.0529 180.876 84.6182 181.196 85.2369C181.538 85.8556 181.708 86.4742 181.708 87.0929L180.876 86.9009V83.4129C180.876 83.0502 180.994 82.7516 181.228 82.5169C181.463 82.2609 181.772 82.1329 182.156 82.1329ZM175.564 96.7889C176.631 96.7889 177.57 96.5116 178.38 95.9569C179.212 95.4022 179.852 94.6556 180.3 93.7169C180.77 92.7569 181.004 91.6796 181.004 90.4849C181.004 89.3116 180.77 88.2556 180.3 87.3169C179.852 86.3569 179.212 85.6102 178.38 85.0769C177.57 84.5222 176.631 84.2449 175.564 84.2449C174.519 84.2449 173.58 84.5116 172.748 85.0449C171.938 85.5782 171.298 86.3142 170.828 87.2529C170.359 88.1916 170.124 89.2689 170.124 90.4849C170.124 91.6796 170.348 92.7569 170.796 93.7169C171.266 94.6556 171.906 95.4022 172.716 95.9569C173.548 96.5116 174.498 96.7889 175.564 96.7889ZM196.353 82.3889H203.873C204.214 82.3889 204.492 82.5062 204.705 82.7409C204.94 82.9756 205.057 83.2529 205.057 83.5729C205.057 83.9142 204.94 84.2022 204.705 84.4369C204.492 84.6502 204.214 84.7569 203.873 84.7569H196.353C196.033 84.7569 195.756 84.6396 195.521 84.4049C195.286 84.1702 195.169 83.8822 195.169 83.5409C195.169 83.2209 195.286 82.9542 195.521 82.7409C195.756 82.5062 196.033 82.3889 196.353 82.3889ZM199.713 78.0369C200.076 78.0369 200.374 78.1649 200.609 78.4209C200.844 78.6556 200.961 78.9542 200.961 79.3169V94.7729C200.961 95.2849 201.036 95.6689 201.185 95.9249C201.334 96.1809 201.526 96.3622 201.761 96.4689C202.017 96.5542 202.262 96.5969 202.497 96.5969C202.71 96.5969 202.892 96.5649 203.041 96.5009C203.212 96.4156 203.404 96.3729 203.617 96.3729C203.83 96.3729 204.022 96.4796 204.193 96.6929C204.385 96.8849 204.481 97.1409 204.481 97.4609C204.481 97.8449 204.257 98.1756 203.809 98.4529C203.361 98.7089 202.86 98.8369 202.305 98.8369C202.006 98.8369 201.633 98.8156 201.185 98.7729C200.758 98.7302 200.332 98.5916 199.905 98.3569C199.478 98.1222 199.116 97.7382 198.817 97.2049C198.54 96.6502 198.401 95.8822 198.401 94.9009V79.3169C198.401 78.9542 198.529 78.6556 198.785 78.4209C199.041 78.1649 199.35 78.0369 199.713 78.0369ZM211.082 97.5249C211.082 97.8876 210.954 98.1969 210.698 98.4529C210.463 98.7089 210.165 98.8369 209.802 98.8369C209.418 98.8369 209.109 98.7089 208.874 98.4529C208.639 98.1969 208.522 97.8876 208.522 97.5249V83.3169C208.522 82.9542 208.639 82.6556 208.874 82.4209C209.13 82.1649 209.439 82.0369 209.802 82.0369C210.165 82.0369 210.463 82.1649 210.698 82.4209C210.954 82.6556 211.082 82.9542 211.082 83.3169V97.5249ZM209.802 79.8929C209.269 79.8929 208.874 79.7862 208.618 79.5729C208.362 79.3596 208.234 79.0289 208.234 78.5809V78.1329C208.234 77.6849 208.373 77.3542 208.65 77.1409C208.927 76.9276 209.322 76.8209 209.834 76.8209C210.346 76.8209 210.73 76.9276 210.986 77.1409C211.242 77.3542 211.37 77.6849 211.37 78.1329V78.5809C211.37 79.0289 211.231 79.3596 210.954 79.5729C210.698 79.7862 210.314 79.8929 209.802 79.8929ZM223.905 81.8769C225.355 81.8769 226.497 82.1756 227.329 82.7729C228.161 83.3702 228.747 84.1702 229.089 85.1729C229.451 86.1756 229.633 87.2956 229.633 88.5329V97.5249C229.633 97.8876 229.505 98.1969 229.249 98.4529C229.014 98.7089 228.715 98.8369 228.353 98.8369C227.99 98.8369 227.681 98.7089 227.425 98.4529C227.19 98.1969 227.073 97.8876 227.073 97.5249V88.5969C227.073 87.7862 226.945 87.0609 226.689 86.4209C226.454 85.7596 226.049 85.2369 225.473 84.8529C224.918 84.4476 224.15 84.2449 223.169 84.2449C222.273 84.2449 221.451 84.4476 220.705 84.8529C219.958 85.2369 219.361 85.7596 218.913 86.4209C218.465 87.0609 218.241 87.7862 218.241 88.5969V97.5249C218.241 97.8876 218.113 98.1969 217.857 98.4529C217.622 98.7089 217.323 98.8369 216.961 98.8369C216.598 98.8369 216.289 98.7089 216.033 98.4529C215.798 98.1969 215.681 97.8876 215.681 97.5249V83.5729C215.681 83.2102 215.798 82.9116 216.033 82.6769C216.289 82.4209 216.598 82.2929 216.961 82.2929C217.345 82.2929 217.654 82.4209 217.889 82.6769C218.123 82.9116 218.241 83.2102 218.241 83.5729V85.8449L217.601 86.5489C217.707 85.9942 217.953 85.4396 218.337 84.8849C218.721 84.3089 219.201 83.7969 219.777 83.3489C220.353 82.9009 220.993 82.5489 221.697 82.2929C222.401 82.0156 223.137 81.8769 223.905 81.8769ZM248 75.1569C248.363 75.1569 248.661 75.2849 248.896 75.5409C249.152 75.7756 249.28 76.0742 249.28 76.4369V97.5249C249.28 97.8876 249.152 98.1969 248.896 98.4529C248.661 98.7089 248.363 98.8369 248 98.8369C247.616 98.8369 247.307 98.7089 247.072 98.4529C246.837 98.1969 246.72 97.8876 246.72 97.5249V94.4849L247.328 94.2609C247.328 94.7729 247.168 95.3169 246.848 95.8929C246.528 96.4476 246.091 96.9702 245.536 97.4609C244.981 97.9516 244.32 98.3569 243.552 98.6769C242.805 98.9969 241.995 99.1569 241.12 99.1569C239.691 99.1569 238.389 98.7836 237.216 98.0369C236.064 97.2902 235.147 96.2662 234.464 94.9649C233.803 93.6636 233.472 92.1809 233.472 90.5169C233.472 88.8316 233.803 87.3382 234.464 86.0369C235.147 84.7356 236.064 83.7222 237.216 82.9969C238.368 82.2502 239.648 81.8769 241.056 81.8769C241.952 81.8769 242.795 82.0262 243.584 82.3249C244.373 82.6236 245.056 83.0289 245.632 83.5409C246.229 84.0529 246.699 84.6182 247.04 85.2369C247.381 85.8556 247.552 86.4742 247.552 87.0929L246.72 86.9009V76.4369C246.72 76.0742 246.837 75.7756 247.072 75.5409C247.307 75.2849 247.616 75.1569 248 75.1569ZM241.408 96.7889C242.475 96.7889 243.413 96.5222 244.224 95.9889C245.056 95.4342 245.696 94.6876 246.144 93.7489C246.613 92.7889 246.848 91.7116 246.848 90.5169C246.848 89.3009 246.613 88.2236 246.144 87.2849C245.696 86.3462 245.056 85.6102 244.224 85.0769C243.413 84.5222 242.475 84.2449 241.408 84.2449C240.363 84.2449 239.424 84.5222 238.592 85.0769C237.781 85.6102 237.141 86.3462 236.672 87.2849C236.203 88.2236 235.968 89.3009 235.968 90.5169C235.968 91.6902 236.203 92.7569 236.672 93.7169C237.141 94.6556 237.781 95.4022 238.592 95.9569C239.424 96.5116 240.363 96.7889 241.408 96.7889ZM267.656 82.1329C268.019 82.1329 268.318 82.2609 268.552 82.5169C268.808 82.7516 268.936 83.0502 268.936 83.4129V97.5249C268.936 97.8876 268.808 98.1969 268.552 98.4529C268.318 98.7089 268.019 98.8369 267.656 98.8369C267.272 98.8369 266.963 98.7089 266.728 98.4529C266.494 98.1969 266.376 97.8876 266.376 97.5249V94.4849L266.984 94.4209C266.984 94.8902 266.824 95.4022 266.504 95.9569C266.184 96.5116 265.747 97.0342 265.192 97.5249C264.638 97.9942 263.976 98.3889 263.208 98.7089C262.462 99.0076 261.651 99.1569 260.776 99.1569C259.326 99.1569 258.024 98.7836 256.872 98.0369C255.72 97.2689 254.803 96.2342 254.12 94.9329C253.459 93.6316 253.128 92.1489 253.128 90.4849C253.128 88.7996 253.459 87.3169 254.12 86.0369C254.803 84.7356 255.72 83.7222 256.872 82.9969C258.024 82.2502 259.304 81.8769 260.712 81.8769C261.63 81.8769 262.483 82.0262 263.272 82.3249C264.062 82.6236 264.744 83.0289 265.32 83.5409C265.918 84.0529 266.376 84.6182 266.696 85.2369C267.038 85.8556 267.208 86.4742 267.208 87.0929L266.376 86.9009V83.4129C266.376 83.0502 266.494 82.7516 266.728 82.5169C266.963 82.2609 267.272 82.1329 267.656 82.1329ZM261.064 96.7889C262.131 96.7889 263.07 96.5116 263.88 95.9569C264.712 95.4022 265.352 94.6556 265.8 93.7169C266.27 92.7569 266.504 91.6796 266.504 90.4849C266.504 89.3116 266.27 88.2556 265.8 87.3169C265.352 86.3569 264.712 85.6102 263.88 85.0769C263.07 84.5222 262.131 84.2449 261.064 84.2449C260.019 84.2449 259.08 84.5116 258.248 85.0449C257.438 85.5782 256.798 86.3142 256.328 87.2529C255.859 88.1916 255.624 89.2689 255.624 90.4849C255.624 91.6796 255.848 92.7569 256.296 93.7169C256.766 94.6556 257.406 95.4022 258.216 95.9569C259.048 96.5116 259.998 96.7889 261.064 96.7889ZM275.217 98.8369C274.833 98.8369 274.523 98.7089 274.289 98.4529C274.054 98.1969 273.937 97.8876 273.937 97.5249V76.4369C273.937 76.0742 274.054 75.7756 274.289 75.5409C274.523 75.2849 274.833 75.1569 275.217 75.1569C275.579 75.1569 275.878 75.2849 276.113 75.5409C276.369 75.7756 276.497 76.0742 276.497 76.4369V97.5249C276.497 97.8876 276.369 98.1969 276.113 98.4529C275.878 98.7089 275.579 98.8369 275.217 98.8369ZM285.841 82.1969C286.182 82.1969 286.47 82.3356 286.705 82.6129C286.961 82.8689 287.089 83.1356 287.089 83.4129C287.089 83.7756 286.918 84.0956 286.577 84.3729L276.209 93.4289L276.113 90.4529L284.945 82.5809C285.201 82.3249 285.499 82.1969 285.841 82.1969ZM286.193 98.8049C285.83 98.8049 285.51 98.6662 285.233 98.3889L278.417 91.1249L280.337 89.3649L287.089 96.5969C287.345 96.8742 287.472 97.1942 287.472 97.5569C287.472 97.9409 287.323 98.2502 287.025 98.4849C286.726 98.6982 286.449 98.8049 286.193 98.8049ZM304.688 82.1329C305.05 82.1329 305.349 82.2609 305.583 82.5169C305.84 82.7516 305.968 83.0502 305.968 83.4129V97.5249C305.968 97.8876 305.84 98.1969 305.583 98.4529C305.349 98.7089 305.05 98.8369 304.688 98.8369C304.304 98.8369 303.994 98.7089 303.76 98.4529C303.525 98.1969 303.408 97.8876 303.408 97.5249V94.4849L304.016 94.4209C304.016 94.8902 303.856 95.4022 303.536 95.9569C303.216 96.5116 302.778 97.0342 302.224 97.5249C301.669 97.9942 301.008 98.3889 300.24 98.7089C299.493 99.0076 298.682 99.1569 297.808 99.1569C296.357 99.1569 295.056 98.7836 293.904 98.0369C292.752 97.2689 291.834 96.2342 291.152 94.9329C290.49 93.6316 290.16 92.1489 290.16 90.4849C290.16 88.7996 290.49 87.3169 291.152 86.0369C291.834 84.7356 292.752 83.7222 293.904 82.9969C295.056 82.2502 296.336 81.8769 297.744 81.8769C298.661 81.8769 299.514 82.0262 300.304 82.3249C301.093 82.6236 301.776 83.0289 302.352 83.5409C302.949 84.0529 303.408 84.6182 303.728 85.2369C304.069 85.8556 304.24 86.4742 304.24 87.0929L303.408 86.9009V83.4129C303.408 83.0502 303.525 82.7516 303.76 82.5169C303.994 82.2609 304.304 82.1329 304.688 82.1329ZM298.095 96.7889C299.162 96.7889 300.101 96.5116 300.912 95.9569C301.744 95.4022 302.384 94.6556 302.832 93.7169C303.301 92.7569 303.536 91.6796 303.536 90.4849C303.536 89.3116 303.301 88.2556 302.832 87.3169C302.384 86.3569 301.744 85.6102 300.912 85.0769C300.101 84.5222 299.162 84.2449 298.095 84.2449C297.05 84.2449 296.112 84.5116 295.28 85.0449C294.469 85.5782 293.829 86.3142 293.36 87.2529C292.89 88.1916 292.656 89.2689 292.656 90.4849C292.656 91.6796 292.88 92.7569 293.328 93.7169C293.797 94.6556 294.437 95.4022 295.248 95.9569C296.08 96.5116 297.029 96.7889 298.095 96.7889ZM318.936 81.8769C320.386 81.8769 321.528 82.1756 322.36 82.7729C323.192 83.3702 323.778 84.1702 324.12 85.1729C324.482 86.1756 324.664 87.2956 324.664 88.5329V97.5249C324.664 97.8876 324.536 98.1969 324.28 98.4529C324.045 98.7089 323.746 98.8369 323.384 98.8369C323.021 98.8369 322.712 98.7089 322.456 98.4529C322.221 98.1969 322.104 97.8876 322.104 97.5249V88.5969C322.104 87.7862 321.976 87.0609 321.72 86.4209C321.485 85.7596 321.08 85.2369 320.504 84.8529C319.949 84.4476 319.181 84.2449 318.2 84.2449C317.304 84.2449 316.482 84.4476 315.736 84.8529C314.989 85.2369 314.392 85.7596 313.944 86.4209C313.496 87.0609 313.272 87.7862 313.272 88.5969V97.5249C313.272 97.8876 313.144 98.1969 312.888 98.4529C312.653 98.7089 312.354 98.8369 311.992 98.8369C311.629 98.8369 311.32 98.7089 311.064 98.4529C310.829 98.1969 310.712 97.8876 310.712 97.5249V83.5729C310.712 83.2102 310.829 82.9116 311.064 82.6769C311.32 82.4209 311.629 82.2929 311.992 82.2929C312.376 82.2929 312.685 82.4209 312.92 82.6769C313.154 82.9116 313.272 83.2102 313.272 83.5729V85.8449L312.632 86.5489C312.738 85.9942 312.984 85.4396 313.368 84.8849C313.752 84.3089 314.232 83.7969 314.808 83.3489C315.384 82.9009 316.024 82.5489 316.728 82.2929C317.432 82.0156 318.168 81.8769 318.936 81.8769ZM339.748 98.8369C339.364 98.8369 339.054 98.7089 338.82 98.4529C338.585 98.1969 338.468 97.8876 338.468 97.5249V76.4369C338.468 76.0742 338.585 75.7756 338.82 75.5409C339.054 75.2849 339.364 75.1569 339.748 75.1569C340.11 75.1569 340.409 75.2849 340.644 75.5409C340.9 75.7756 341.028 76.0742 341.028 76.4369V97.5249C341.028 97.8876 340.9 98.1969 340.644 98.4529C340.409 98.7089 340.11 98.8369 339.748 98.8369ZM350.372 82.1969C350.713 82.1969 351.001 82.3356 351.236 82.6129C351.492 82.8689 351.62 83.1356 351.62 83.4129C351.62 83.7756 351.449 84.0956 351.108 84.3729L340.74 93.4289L340.644 90.4529L349.476 82.5809C349.732 82.3249 350.03 82.1969 350.372 82.1969ZM350.724 98.8049C350.361 98.8049 350.041 98.6662 349.764 98.3889L342.948 91.1249L344.868 89.3649L351.62 96.5969C351.876 96.8742 352.004 97.1942 352.004 97.5569C352.004 97.9409 351.854 98.2502 351.556 98.4849C351.257 98.6982 350.98 98.8049 350.724 98.8049ZM369.219 82.1329C369.581 82.1329 369.88 82.2609 370.115 82.5169C370.371 82.7516 370.499 83.0502 370.499 83.4129V97.5249C370.499 97.8876 370.371 98.1969 370.115 98.4529C369.88 98.7089 369.581 98.8369 369.219 98.8369C368.835 98.8369 368.525 98.7089 368.291 98.4529C368.056 98.1969 367.939 97.8876 367.939 97.5249V94.4849L368.547 94.4209C368.547 94.8902 368.387 95.4022 368.067 95.9569C367.747 96.5116 367.309 97.0342 366.755 97.5249C366.2 97.9942 365.539 98.3889 364.771 98.7089C364.024 99.0076 363.213 99.1569 362.339 99.1569C360.888 99.1569 359.587 98.7836 358.435 98.0369C357.283 97.2689 356.365 96.2342 355.683 94.9329C355.021 93.6316 354.691 92.1489 354.691 90.4849C354.691 88.7996 355.021 87.3169 355.683 86.0369C356.365 84.7356 357.283 83.7222 358.435 82.9969C359.587 82.2502 360.867 81.8769 362.275 81.8769C363.192 81.8769 364.045 82.0262 364.835 82.3249C365.624 82.6236 366.307 83.0289 366.883 83.5409C367.48 84.0529 367.939 84.6182 368.259 85.2369C368.6 85.8556 368.771 86.4742 368.771 87.0929L367.939 86.9009V83.4129C367.939 83.0502 368.056 82.7516 368.291 82.5169C368.525 82.2609 368.835 82.1329 369.219 82.1329ZM362.627 96.7889C363.693 96.7889 364.632 96.5116 365.443 95.9569C366.275 95.4022 366.915 94.6556 367.363 93.7169C367.832 92.7569 368.067 91.6796 368.067 90.4849C368.067 89.3116 367.832 88.2556 367.363 87.3169C366.915 86.3569 366.275 85.6102 365.443 85.0769C364.632 84.5222 363.693 84.2449 362.627 84.2449C361.581 84.2449 360.643 84.5116 359.811 85.0449C359 85.5782 358.36 86.3142 357.891 87.2529C357.421 88.1916 357.187 89.2689 357.187 90.4849C357.187 91.6796 357.411 92.7569 357.859 93.7169C358.328 94.6556 358.968 95.4022 359.779 95.9569C360.611 96.5116 361.56 96.7889 362.627 96.7889ZM383.147 82.0369C384.598 82.0369 385.771 82.4102 386.667 83.1569C387.584 83.8822 388.192 84.9169 388.491 86.2609H388.011L388.235 85.6849C388.491 85.0876 388.928 84.5116 389.547 83.9569C390.166 83.4022 390.88 82.9436 391.691 82.5809C392.502 82.2182 393.344 82.0369 394.219 82.0369C395.627 82.0369 396.736 82.3462 397.547 82.9649C398.358 83.5622 398.934 84.3729 399.275 85.3969C399.638 86.3996 399.819 87.5302 399.819 88.7889V97.5249C399.819 97.8876 399.691 98.1969 399.435 98.4529C399.2 98.7089 398.902 98.8369 398.539 98.8369C398.155 98.8369 397.846 98.7089 397.611 98.4529C397.376 98.1969 397.259 97.8876 397.259 97.5249V88.8529C397.259 88.0209 397.131 87.2742 396.875 86.6129C396.64 85.9302 396.246 85.3969 395.691 85.0129C395.158 84.6076 394.422 84.4049 393.483 84.4049C392.608 84.4049 391.808 84.6076 391.083 85.0129C390.358 85.3969 389.782 85.9302 389.355 86.6129C388.928 87.2742 388.715 88.0209 388.715 88.8529V97.5249C388.715 97.8876 388.598 98.1969 388.363 98.4529C388.128 98.7089 387.819 98.8369 387.435 98.8369C387.072 98.8369 386.763 98.7089 386.507 98.4529C386.272 98.1969 386.155 97.8876 386.155 97.5249V88.7569C386.155 87.9462 386.038 87.2209 385.803 86.5809C385.59 85.9196 385.216 85.3969 384.683 85.0129C384.15 84.6076 383.414 84.4049 382.475 84.4049C381.622 84.4049 380.843 84.6076 380.139 85.0129C379.435 85.3969 378.87 85.9196 378.443 86.5809C378.016 87.2209 377.803 87.9462 377.803 88.7569V97.5249C377.803 97.8876 377.675 98.1969 377.419 98.4529C377.184 98.7089 376.886 98.8369 376.523 98.8369C376.16 98.8369 375.851 98.7089 375.595 98.4529C375.36 98.1969 375.243 97.8876 375.243 97.5249V83.5729C375.243 83.2102 375.36 82.9116 375.595 82.6769C375.851 82.4209 376.16 82.2929 376.523 82.2929C376.907 82.2929 377.216 82.4209 377.451 82.6769C377.686 82.9116 377.803 83.2102 377.803 83.5729V86.0049L377.099 86.7729C377.184 86.2182 377.398 85.6636 377.739 85.1089C378.102 84.5542 378.56 84.0422 379.115 83.5729C379.67 83.1036 380.288 82.7302 380.971 82.4529C381.654 82.1756 382.379 82.0369 383.147 82.0369ZM416.94 82.2929C417.324 82.2929 417.633 82.4209 417.868 82.6769C418.102 82.9116 418.22 83.2102 418.22 83.5729V92.3089C418.22 94.4636 417.612 96.1382 416.396 97.3329C415.201 98.5062 413.526 99.0929 411.372 99.0929C409.238 99.0929 407.564 98.5062 406.348 97.3329C405.153 96.1382 404.556 94.4636 404.556 92.3089V83.5729C404.556 83.2102 404.673 82.9116 404.908 82.6769C405.164 82.4209 405.473 82.2929 405.836 82.2929C406.22 82.2929 406.529 82.4209 406.764 82.6769C406.998 82.9116 407.116 83.2102 407.116 83.5729V92.3089C407.116 93.7596 407.489 94.8582 408.236 95.6049C408.982 96.3516 410.028 96.7249 411.372 96.7249C412.758 96.7249 413.814 96.3516 414.54 95.6049C415.286 94.8582 415.66 93.7596 415.66 92.3089V83.5729C415.66 83.2102 415.777 82.9116 416.012 82.6769C416.268 82.4209 416.577 82.2929 416.94 82.2929ZM445.406 82.1329C445.769 82.1329 446.068 82.2609 446.302 82.5169C446.558 82.7516 446.686 83.0502 446.686 83.4129V97.5249C446.686 97.8876 446.558 98.1969 446.302 98.4529C446.068 98.7089 445.769 98.8369 445.406 98.8369C445.022 98.8369 444.713 98.7089 444.478 98.4529C444.244 98.1969 444.126 97.8876 444.126 97.5249V94.4849L444.734 94.4209C444.734 94.8902 444.574 95.4022 444.254 95.9569C443.934 96.5116 443.497 97.0342 442.942 97.5249C442.388 97.9942 441.726 98.3889 440.958 98.7089C440.212 99.0076 439.401 99.1569 438.526 99.1569C437.076 99.1569 435.774 98.7836 434.622 98.0369C433.47 97.2689 432.553 96.2342 431.87 94.9329C431.209 93.6316 430.878 92.1489 430.878 90.4849C430.878 88.7996 431.209 87.3169 431.87 86.0369C432.553 84.7356 433.47 83.7222 434.622 82.9969C435.774 82.2502 437.054 81.8769 438.462 81.8769C439.38 81.8769 440.233 82.0262 441.022 82.3249C441.812 82.6236 442.494 83.0289 443.07 83.5409C443.668 84.0529 444.126 84.6182 444.446 85.2369C444.788 85.8556 444.958 86.4742 444.958 87.0929L444.126 86.9009V83.4129C444.126 83.0502 444.244 82.7516 444.478 82.5169C444.713 82.2609 445.022 82.1329 445.406 82.1329ZM438.814 96.7889C439.881 96.7889 440.82 96.5116 441.63 95.9569C442.462 95.4022 443.102 94.6556 443.55 93.7169C444.02 92.7569 444.254 91.6796 444.254 90.4849C444.254 89.3116 444.02 88.2556 443.55 87.3169C443.102 86.3569 442.462 85.6102 441.63 85.0769C440.82 84.5222 439.881 84.2449 438.814 84.2449C437.769 84.2449 436.83 84.5116 435.998 85.0449C435.188 85.5782 434.548 86.3142 434.078 87.2529C433.609 88.1916 433.374 89.2689 433.374 90.4849C433.374 91.6796 433.598 92.7569 434.046 93.7169C434.516 94.6556 435.156 95.4022 435.966 95.9569C436.798 96.5116 437.748 96.7889 438.814 96.7889ZM459.591 82.0369C461.041 82.0369 462.343 82.3996 463.495 83.1249C464.647 83.8502 465.553 84.8529 466.215 86.1329C466.897 87.4129 467.239 88.8849 467.239 90.5489C467.239 92.1916 466.897 93.6636 466.215 94.9649C465.553 96.2449 464.647 97.2582 463.495 98.0049C462.364 98.7302 461.084 99.0929 459.655 99.0929C458.865 99.0929 458.119 98.9756 457.415 98.7409C456.732 98.4849 456.103 98.1649 455.527 97.7809C454.972 97.3756 454.503 96.9276 454.119 96.4369C453.735 95.9249 453.457 95.4236 453.286 94.9329L453.991 94.4849V103.925C453.991 104.288 453.873 104.597 453.639 104.853C453.404 105.109 453.095 105.237 452.711 105.237C452.348 105.237 452.039 105.109 451.783 104.853C451.548 104.618 451.431 104.309 451.431 103.925V83.4769C451.431 83.1142 451.548 82.8156 451.783 82.5809C452.039 82.3249 452.348 82.1969 452.711 82.1969C453.095 82.1969 453.404 82.3249 453.639 82.5809C453.873 82.8156 453.991 83.1142 453.991 83.4769V86.3249L453.511 86.0689C453.66 85.5356 453.916 85.0236 454.279 84.5329C454.663 84.0422 455.121 83.6156 455.655 83.2529C456.209 82.8689 456.817 82.5702 457.479 82.3569C458.161 82.1436 458.865 82.0369 459.591 82.0369ZM459.303 84.4049C458.236 84.4049 457.287 84.6716 456.455 85.2049C455.644 85.7382 455.004 86.4636 454.535 87.3809C454.087 88.2982 453.863 89.3542 453.863 90.5489C453.863 91.7222 454.087 92.7782 454.535 93.7169C455.004 94.6556 455.644 95.3916 456.455 95.9249C457.287 96.4582 458.236 96.7249 459.303 96.7249C460.369 96.7249 461.308 96.4582 462.119 95.9249C462.929 95.3916 463.569 94.6556 464.039 93.7169C464.508 92.7782 464.743 91.7222 464.743 90.5489C464.743 89.3542 464.508 88.2982 464.039 87.3809C463.569 86.4636 462.929 85.7382 462.119 85.2049C461.308 84.6716 460.369 84.4049 459.303 84.4049ZM484.719 82.1329C485.081 82.1329 485.38 82.2609 485.615 82.5169C485.871 82.7516 485.999 83.0502 485.999 83.4129V97.5249C485.999 97.8876 485.871 98.1969 485.615 98.4529C485.38 98.7089 485.081 98.8369 484.719 98.8369C484.335 98.8369 484.025 98.7089 483.791 98.4529C483.556 98.1969 483.439 97.8876 483.439 97.5249V94.4849L484.047 94.4209C484.047 94.8902 483.887 95.4022 483.567 95.9569C483.247 96.5116 482.809 97.0342 482.255 97.5249C481.7 97.9942 481.039 98.3889 480.271 98.7089C479.524 99.0076 478.713 99.1569 477.839 99.1569C476.388 99.1569 475.087 98.7836 473.935 98.0369C472.783 97.2689 471.865 96.2342 471.183 94.9329C470.521 93.6316 470.191 92.1489 470.191 90.4849C470.191 88.7996 470.521 87.3169 471.183 86.0369C471.865 84.7356 472.783 83.7222 473.935 82.9969C475.087 82.2502 476.367 81.8769 477.775 81.8769C478.692 81.8769 479.545 82.0262 480.335 82.3249C481.124 82.6236 481.807 83.0289 482.383 83.5409C482.98 84.0529 483.439 84.6182 483.759 85.2369C484.1 85.8556 484.271 86.4742 484.271 87.0929L483.439 86.9009V83.4129C483.439 83.0502 483.556 82.7516 483.791 82.5169C484.025 82.2609 484.335 82.1329 484.719 82.1329ZM478.127 96.7889C479.193 96.7889 480.132 96.5116 480.943 95.9569C481.775 95.4022 482.415 94.6556 482.863 93.7169C483.332 92.7569 483.567 91.6796 483.567 90.4849C483.567 89.3116 483.332 88.2556 482.863 87.3169C482.415 86.3569 481.775 85.6102 480.943 85.0769C480.132 84.5222 479.193 84.2449 478.127 84.2449C477.081 84.2449 476.143 84.5116 475.311 85.0449C474.5 85.5782 473.86 86.3142 473.391 87.2529C472.921 88.1916 472.687 89.2689 472.687 90.4849C472.687 91.6796 472.911 92.7569 473.359 93.7169C473.828 94.6556 474.468 95.4022 475.279 95.9569C476.111 96.5116 477.06 96.7889 478.127 96.7889ZM498.903 81.8769C500.354 81.8769 501.655 82.2502 502.807 82.9969C503.959 83.7222 504.866 84.7249 505.527 86.0049C506.21 87.2849 506.551 88.7676 506.551 90.4529C506.551 92.1382 506.21 93.6316 505.527 94.9329C504.866 96.2342 503.959 97.2689 502.807 98.0369C501.676 98.7836 500.396 99.1569 498.967 99.1569C498.178 99.1569 497.431 99.0396 496.727 98.8049C496.044 98.5489 495.415 98.2182 494.839 97.8129C494.284 97.3862 493.815 96.9276 493.431 96.4369C493.047 95.9249 492.77 95.4236 492.599 94.9329L493.303 94.4849V97.6849C493.303 98.0476 493.186 98.3569 492.951 98.6129C492.716 98.8689 492.407 98.9969 492.023 98.9969C491.66 98.9969 491.351 98.8796 491.095 98.6449C490.86 98.3889 490.743 98.0689 490.743 97.6849V76.4689C490.743 76.1062 490.86 75.7969 491.095 75.5409C491.351 75.2849 491.66 75.1569 492.023 75.1569C492.407 75.1569 492.716 75.2849 492.951 75.5409C493.186 75.7969 493.303 76.1062 493.303 76.4689V86.3249L492.823 86.0689C492.972 85.5356 493.228 85.0236 493.591 84.5329C493.975 84.0209 494.434 83.5729 494.967 83.1889C495.522 82.7836 496.13 82.4636 496.791 82.2289C497.474 81.9942 498.178 81.8769 498.903 81.8769ZM498.615 84.2449C497.548 84.2449 496.599 84.5116 495.767 85.0449C494.956 85.5782 494.316 86.3142 493.847 87.2529C493.399 88.1916 493.175 89.2582 493.175 90.4529C493.175 91.6476 493.399 92.7249 493.847 93.6849C494.316 94.6449 494.956 95.4022 495.767 95.9569C496.599 96.5116 497.548 96.7889 498.615 96.7889C499.682 96.7889 500.62 96.5116 501.431 95.9569C502.242 95.4022 502.882 94.6449 503.351 93.6849C503.82 92.7249 504.055 91.6476 504.055 90.4529C504.055 89.2582 503.82 88.1916 503.351 87.2529C502.882 86.3142 502.242 85.5782 501.431 85.0449C500.62 84.5116 499.682 84.2449 498.615 84.2449ZM512.863 97.5249C512.863 97.8876 512.735 98.1969 512.479 98.4529C512.245 98.7089 511.946 98.8369 511.583 98.8369C511.199 98.8369 510.89 98.7089 510.655 98.4529C510.421 98.1969 510.303 97.8876 510.303 97.5249V83.3169C510.303 82.9542 510.421 82.6556 510.655 82.4209C510.911 82.1649 511.221 82.0369 511.583 82.0369C511.946 82.0369 512.245 82.1649 512.479 82.4209C512.735 82.6556 512.863 82.9542 512.863 83.3169V97.5249ZM511.583 79.8929C511.05 79.8929 510.655 79.7862 510.399 79.5729C510.143 79.3596 510.015 79.0289 510.015 78.5809V78.1329C510.015 77.6849 510.154 77.3542 510.431 77.1409C510.709 76.9276 511.103 76.8209 511.615 76.8209C512.127 76.8209 512.511 76.9276 512.767 77.1409C513.023 77.3542 513.151 77.6849 513.151 78.1329V78.5809C513.151 79.0289 513.013 79.3596 512.735 79.5729C512.479 79.7862 512.095 79.8929 511.583 79.8929ZM520.278 97.5249C520.278 97.8876 520.15 98.1969 519.894 98.4529C519.638 98.7089 519.328 98.8369 518.966 98.8369C518.603 98.8369 518.304 98.7089 518.07 98.4529C517.835 98.1969 517.718 97.8876 517.718 97.5249V76.4369C517.718 76.0742 517.835 75.7756 518.07 75.5409C518.326 75.2849 518.635 75.1569 518.998 75.1569C519.382 75.1569 519.691 75.2849 519.926 75.5409C520.16 75.7756 520.278 76.0742 520.278 76.4369V97.5249ZM538.875 82.1329C539.238 82.1329 539.536 82.2609 539.771 82.5169C540.027 82.7516 540.155 83.0502 540.155 83.4129V97.5249C540.155 97.8876 540.027 98.1969 539.771 98.4529C539.536 98.7089 539.238 98.8369 538.875 98.8369C538.491 98.8369 538.182 98.7089 537.947 98.4529C537.712 98.1969 537.595 97.8876 537.595 97.5249V94.4849L538.203 94.4209C538.203 94.8902 538.043 95.4022 537.723 95.9569C537.403 96.5116 536.966 97.0342 536.411 97.5249C535.856 97.9942 535.195 98.3889 534.427 98.7089C533.68 99.0076 532.87 99.1569 531.995 99.1569C530.544 99.1569 529.243 98.7836 528.091 98.0369C526.939 97.2689 526.022 96.2342 525.339 94.9329C524.678 93.6316 524.347 92.1489 524.347 90.4849C524.347 88.7996 524.678 87.3169 525.339 86.0369C526.022 84.7356 526.939 83.7222 528.091 82.9969C529.243 82.2502 530.523 81.8769 531.931 81.8769C532.848 81.8769 533.702 82.0262 534.491 82.3249C535.28 82.6236 535.963 83.0289 536.539 83.5409C537.136 84.0529 537.595 84.6182 537.915 85.2369C538.256 85.8556 538.427 86.4742 538.427 87.0929L537.595 86.9009V83.4129C537.595 83.0502 537.712 82.7516 537.947 82.5169C538.182 82.2609 538.491 82.1329 538.875 82.1329ZM532.283 96.7889C533.35 96.7889 534.288 96.5116 535.099 95.9569C535.931 95.4022 536.571 94.6556 537.019 93.7169C537.488 92.7569 537.723 91.6796 537.723 90.4849C537.723 89.3116 537.488 88.2556 537.019 87.3169C536.571 86.3569 535.931 85.6102 535.099 85.0769C534.288 84.5222 533.35 84.2449 532.283 84.2449C531.238 84.2449 530.299 84.5116 529.467 85.0449C528.656 85.5782 528.016 86.3142 527.547 87.2529C527.078 88.1916 526.843 89.2689 526.843 90.4849C526.843 91.6796 527.067 92.7569 527.515 93.7169C527.984 94.6556 528.624 95.4022 529.435 95.9569C530.267 96.5116 531.216 96.7889 532.283 96.7889ZM561.616 82.0369C563.066 82.0369 564.24 82.4102 565.136 83.1569C566.053 83.8822 566.661 84.9169 566.96 86.2609H566.48L566.704 85.6849C566.96 85.0876 567.397 84.5116 568.016 83.9569C568.634 83.4022 569.349 82.9436 570.16 82.5809C570.97 82.2182 571.813 82.0369 572.688 82.0369C574.096 82.0369 575.205 82.3462 576.016 82.9649C576.826 83.5622 577.402 84.3729 577.744 85.3969C578.106 86.3996 578.288 87.5302 578.288 88.7889V97.5249C578.288 97.8876 578.16 98.1969 577.904 98.4529C577.669 98.7089 577.37 98.8369 577.008 98.8369C576.624 98.8369 576.314 98.7089 576.08 98.4529C575.845 98.1969 575.728 97.8876 575.728 97.5249V88.8529C575.728 88.0209 575.6 87.2742 575.344 86.6129C575.109 85.9302 574.714 85.3969 574.16 85.0129C573.626 84.6076 572.89 84.4049 571.952 84.4049C571.077 84.4049 570.277 84.6076 569.552 85.0129C568.826 85.3969 568.25 85.9302 567.824 86.6129C567.397 87.2742 567.184 88.0209 567.184 88.8529V97.5249C567.184 97.8876 567.066 98.1969 566.832 98.4529C566.597 98.7089 566.288 98.8369 565.904 98.8369C565.541 98.8369 565.232 98.7089 564.976 98.4529C564.741 98.1969 564.624 97.8876 564.624 97.5249V88.7569C564.624 87.9462 564.506 87.2209 564.272 86.5809C564.058 85.9196 563.685 85.3969 563.152 85.0129C562.618 84.6076 561.882 84.4049 560.944 84.4049C560.09 84.4049 559.312 84.6076 558.608 85.0129C557.904 85.3969 557.338 85.9196 556.912 86.5809C556.485 87.2209 556.272 87.9462 556.272 88.7569V97.5249C556.272 97.8876 556.144 98.1969 555.888 98.4529C555.653 98.7089 555.354 98.8369 554.992 98.8369C554.629 98.8369 554.32 98.7089 554.064 98.4529C553.829 98.1969 553.712 97.8876 553.712 97.5249V83.5729C553.712 83.2102 553.829 82.9116 554.064 82.6769C554.32 82.4209 554.629 82.2929 554.992 82.2929C555.376 82.2929 555.685 82.4209 555.92 82.6769C556.154 82.9116 556.272 83.2102 556.272 83.5729V86.0049L555.568 86.7729C555.653 86.2182 555.866 85.6636 556.208 85.1089C556.57 84.5542 557.029 84.0422 557.584 83.5729C558.138 83.1036 558.757 82.7302 559.44 82.4529C560.122 82.1756 560.848 82.0369 561.616 82.0369ZM590.672 99.1569C588.966 99.1569 587.472 98.7942 586.192 98.0689C584.912 97.3436 583.91 96.3516 583.184 95.0929C582.48 93.8129 582.128 92.3409 582.128 90.6769C582.128 88.8209 582.491 87.2422 583.216 85.9409C583.963 84.6182 584.923 83.6156 586.096 82.9329C587.291 82.2289 588.55 81.8769 589.872 81.8769C590.854 81.8769 591.803 82.0582 592.72 82.4209C593.638 82.7836 594.448 83.3169 595.152 84.0209C595.856 84.7036 596.422 85.5356 596.848 86.5169C597.275 87.4769 597.499 88.5542 597.52 89.7489C597.52 90.0902 597.392 90.3782 597.136 90.6129C596.88 90.8476 596.582 90.9649 596.24 90.9649H583.6L583.024 88.7569H595.344L594.832 89.2049V88.5009C594.747 87.6262 594.448 86.8796 593.936 86.2609C593.446 85.6209 592.838 85.1302 592.112 84.7889C591.408 84.4476 590.662 84.2769 589.872 84.2769C589.232 84.2769 588.592 84.3942 587.952 84.6289C587.334 84.8422 586.768 85.2049 586.256 85.7169C585.766 86.2076 585.36 86.8476 585.04 87.6369C584.742 88.4262 584.592 89.3756 584.592 90.4849C584.592 91.7222 584.838 92.8102 585.328 93.7489C585.84 94.6876 586.544 95.4342 587.44 95.9889C588.336 96.5222 589.382 96.7889 590.576 96.7889C591.323 96.7889 591.974 96.6929 592.528 96.5009C593.083 96.3089 593.563 96.0742 593.968 95.7969C594.374 95.4982 594.715 95.1996 594.992 94.9009C595.27 94.7089 595.536 94.6129 595.792 94.6129C596.112 94.6129 596.368 94.7196 596.56 94.9329C596.774 95.1462 596.88 95.4022 596.88 95.7009C596.88 96.0636 596.71 96.3836 596.368 96.6609C595.771 97.3222 594.96 97.9089 593.936 98.4209C592.912 98.9116 591.824 99.1569 590.672 99.1569ZM604.184 97.5249C604.184 97.8876 604.056 98.1969 603.8 98.4529C603.544 98.7089 603.235 98.8369 602.872 98.8369C602.509 98.8369 602.211 98.7089 601.976 98.4529C601.741 98.1969 601.624 97.8876 601.624 97.5249V76.4369C601.624 76.0742 601.741 75.7756 601.976 75.5409C602.232 75.2849 602.541 75.1569 602.904 75.1569C603.288 75.1569 603.597 75.2849 603.832 75.5409C604.067 75.7756 604.184 76.0742 604.184 76.4369V97.5249ZM611.613 97.5249C611.613 97.8876 611.485 98.1969 611.229 98.4529C610.995 98.7089 610.696 98.8369 610.333 98.8369C609.949 98.8369 609.64 98.7089 609.405 98.4529C609.171 98.1969 609.053 97.8876 609.053 97.5249V83.3169C609.053 82.9542 609.171 82.6556 609.405 82.4209C609.661 82.1649 609.971 82.0369 610.333 82.0369C610.696 82.0369 610.995 82.1649 611.229 82.4209C611.485 82.6556 611.613 82.9542 611.613 83.3169V97.5249ZM610.333 79.8929C609.8 79.8929 609.405 79.7862 609.149 79.5729C608.893 79.3596 608.765 79.0289 608.765 78.5809V78.1329C608.765 77.6849 608.904 77.3542 609.181 77.1409C609.459 76.9276 609.853 76.8209 610.365 76.8209C610.877 76.8209 611.261 76.9276 611.517 77.1409C611.773 77.3542 611.901 77.6849 611.901 78.1329V78.5809C611.901 79.0289 611.763 79.3596 611.485 79.5729C611.229 79.7862 610.845 79.8929 610.333 79.8929ZM624.212 82.0369C625.62 82.0369 626.729 82.3462 627.54 82.9649C628.372 83.5622 628.958 84.3729 629.3 85.3969C629.662 86.3996 629.844 87.5196 629.844 88.7569V97.5249C629.844 97.8876 629.716 98.1969 629.46 98.4529C629.225 98.7089 628.926 98.8369 628.564 98.8369C628.201 98.8369 627.892 98.7089 627.636 98.4529C627.401 98.1969 627.284 97.8876 627.284 97.5249V88.7569C627.284 87.9462 627.166 87.2209 626.932 86.5809C626.697 85.9196 626.302 85.3969 625.748 85.0129C625.214 84.6076 624.478 84.4049 623.54 84.4049C622.665 84.4049 621.865 84.6076 621.14 85.0129C620.414 85.3969 619.838 85.9196 619.412 86.5809C618.985 87.2209 618.772 87.9462 618.772 88.7569V97.5249C618.772 97.8876 618.644 98.1969 618.388 98.4529C618.153 98.7089 617.854 98.8369 617.492 98.8369C617.129 98.8369 616.82 98.7089 616.564 98.4529C616.329 98.1969 616.212 97.8876 616.212 97.5249V76.4369C616.212 76.0742 616.329 75.7756 616.564 75.5409C616.82 75.2849 617.129 75.1569 617.492 75.1569C617.876 75.1569 618.185 75.2849 618.42 75.5409C618.654 75.7756 618.772 76.0742 618.772 76.4369V86.0049L618.132 86.7089C618.238 86.1542 618.473 85.5996 618.836 85.0449C619.198 84.4689 619.657 83.9569 620.212 83.5089C620.766 83.0609 621.385 82.7089 622.068 82.4529C622.75 82.1756 623.465 82.0369 624.212 82.0369ZM648.219 82.1329C648.581 82.1329 648.88 82.2609 649.115 82.5169C649.371 82.7516 649.499 83.0502 649.499 83.4129V97.5249C649.499 97.8876 649.371 98.1969 649.115 98.4529C648.88 98.7089 648.581 98.8369 648.219 98.8369C647.835 98.8369 647.525 98.7089 647.291 98.4529C647.056 98.1969 646.939 97.8876 646.939 97.5249V94.4849L647.547 94.4209C647.547 94.8902 647.387 95.4022 647.067 95.9569C646.747 96.5116 646.309 97.0342 645.755 97.5249C645.2 97.9942 644.539 98.3889 643.771 98.7089C643.024 99.0076 642.213 99.1569 641.339 99.1569C639.888 99.1569 638.587 98.7836 637.435 98.0369C636.283 97.2689 635.365 96.2342 634.683 94.9329C634.021 93.6316 633.691 92.1489 633.691 90.4849C633.691 88.7996 634.021 87.3169 634.683 86.0369C635.365 84.7356 636.283 83.7222 637.435 82.9969C638.587 82.2502 639.867 81.8769 641.275 81.8769C642.192 81.8769 643.045 82.0262 643.835 82.3249C644.624 82.6236 645.307 83.0289 645.883 83.5409C646.48 84.0529 646.939 84.6182 647.259 85.2369C647.6 85.8556 647.771 86.4742 647.771 87.0929L646.939 86.9009V83.4129C646.939 83.0502 647.056 82.7516 647.291 82.5169C647.525 82.2609 647.835 82.1329 648.219 82.1329ZM641.627 96.7889C642.693 96.7889 643.632 96.5116 644.443 95.9569C645.275 95.4022 645.915 94.6556 646.363 93.7169C646.832 92.7569 647.067 91.6796 647.067 90.4849C647.067 89.3116 646.832 88.2556 646.363 87.3169C645.915 86.3569 645.275 85.6102 644.443 85.0769C643.632 84.5222 642.693 84.2449 641.627 84.2449C640.581 84.2449 639.643 84.5116 638.811 85.0449C638 85.5782 637.36 86.3142 636.891 87.2529C636.421 88.1916 636.187 89.2689 636.187 90.4849C636.187 91.6796 636.411 92.7569 636.859 93.7169C637.328 94.6556 637.968 95.4022 638.779 95.9569C639.611 96.5116 640.56 96.7889 641.627 96.7889ZM653.603 82.3889H661.123C661.464 82.3889 661.742 82.5062 661.955 82.7409C662.19 82.9756 662.307 83.2529 662.307 83.5729C662.307 83.9142 662.19 84.2022 661.955 84.4369C661.742 84.6502 661.464 84.7569 661.123 84.7569H653.603C653.283 84.7569 653.006 84.6396 652.771 84.4049C652.536 84.1702 652.419 83.8822 652.419 83.5409C652.419 83.2209 652.536 82.9542 652.771 82.7409C653.006 82.5062 653.283 82.3889 653.603 82.3889ZM656.963 78.0369C657.326 78.0369 657.624 78.1649 657.859 78.4209C658.094 78.6556 658.211 78.9542 658.211 79.3169V94.7729C658.211 95.2849 658.286 95.6689 658.435 95.9249C658.584 96.1809 658.776 96.3622 659.011 96.4689C659.267 96.5542 659.512 96.5969 659.747 96.5969C659.96 96.5969 660.142 96.5649 660.291 96.5009C660.462 96.4156 660.654 96.3729 660.867 96.3729C661.08 96.3729 661.272 96.4796 661.443 96.6929C661.635 96.8849 661.731 97.1409 661.731 97.4609C661.731 97.8449 661.507 98.1756 661.059 98.4529C660.611 98.7089 660.11 98.8369 659.555 98.8369C659.256 98.8369 658.883 98.8156 658.435 98.7729C658.008 98.7302 657.582 98.5916 657.155 98.3569C656.728 98.1222 656.366 97.7382 656.067 97.2049C655.79 96.6502 655.651 95.8822 655.651 94.9009V79.3169C655.651 78.9542 655.779 78.6556 656.035 78.4209C656.291 78.1649 656.6 78.0369 656.963 78.0369ZM688.312 82.1329C688.675 82.1329 688.974 82.2609 689.208 82.5169C689.465 82.7516 689.593 83.0502 689.593 83.4129V97.5249C689.593 97.8876 689.465 98.1969 689.208 98.4529C688.974 98.7089 688.675 98.8369 688.312 98.8369C687.929 98.8369 687.619 98.7089 687.385 98.4529C687.15 98.1969 687.033 97.8876 687.033 97.5249V94.4849L687.641 94.4209C687.641 94.8902 687.481 95.4022 687.161 95.9569C686.841 96.5116 686.403 97.0342 685.849 97.5249C685.294 97.9942 684.633 98.3889 683.865 98.7089C683.118 99.0076 682.307 99.1569 681.433 99.1569C679.982 99.1569 678.681 98.7836 677.529 98.0369C676.377 97.2689 675.459 96.2342 674.777 94.9329C674.115 93.6316 673.785 92.1489 673.785 90.4849C673.785 88.7996 674.115 87.3169 674.777 86.0369C675.459 84.7356 676.377 83.7222 677.529 82.9969C678.681 82.2502 679.961 81.8769 681.369 81.8769C682.286 81.8769 683.139 82.0262 683.929 82.3249C684.718 82.6236 685.401 83.0289 685.977 83.5409C686.574 84.0529 687.033 84.6182 687.353 85.2369C687.694 85.8556 687.865 86.4742 687.865 87.0929L687.033 86.9009V83.4129C687.033 83.0502 687.15 82.7516 687.385 82.5169C687.619 82.2609 687.929 82.1329 688.312 82.1329ZM681.72 96.7889C682.787 96.7889 683.726 96.5116 684.537 95.9569C685.369 95.4022 686.009 94.6556 686.457 93.7169C686.926 92.7569 687.161 91.6796 687.161 90.4849C687.161 89.3116 686.926 88.2556 686.457 87.3169C686.009 86.3569 685.369 85.6102 684.537 85.0769C683.726 84.5222 682.787 84.2449 681.72 84.2449C680.675 84.2449 679.737 84.5116 678.905 85.0449C678.094 85.5782 677.454 86.3142 676.985 87.2529C676.515 88.1916 676.281 89.2689 676.281 90.4849C676.281 91.6796 676.505 92.7569 676.953 93.7169C677.422 94.6556 678.062 95.4022 678.873 95.9569C679.705 96.5116 680.654 96.7889 681.72 96.7889ZM693.697 82.3889H701.217C701.558 82.3889 701.835 82.5062 702.049 82.7409C702.283 82.9756 702.401 83.2529 702.401 83.5729C702.401 83.9142 702.283 84.2022 702.049 84.4369C701.835 84.6502 701.558 84.7569 701.217 84.7569H693.697C693.377 84.7569 693.099 84.6396 692.865 84.4049C692.63 84.1702 692.513 83.8822 692.513 83.5409C692.513 83.2209 692.63 82.9542 692.865 82.7409C693.099 82.5062 693.377 82.3889 693.697 82.3889ZM697.057 78.0369C697.419 78.0369 697.718 78.1649 697.953 78.4209C698.187 78.6556 698.305 78.9542 698.305 79.3169V94.7729C698.305 95.2849 698.379 95.6689 698.529 95.9249C698.678 96.1809 698.87 96.3622 699.105 96.4689C699.361 96.5542 699.606 96.5969 699.841 96.5969C700.054 96.5969 700.235 96.5649 700.385 96.5009C700.555 96.4156 700.747 96.3729 700.961 96.3729C701.174 96.3729 701.366 96.4796 701.537 96.6929C701.729 96.8849 701.825 97.1409 701.825 97.4609C701.825 97.8449 701.601 98.1756 701.153 98.4529C700.705 98.7089 700.203 98.8369 699.649 98.8369C699.35 98.8369 698.977 98.8156 698.529 98.7729C698.102 98.7302 697.675 98.5916 697.249 98.3569C696.822 98.1222 696.459 97.7382 696.161 97.2049C695.883 96.6502 695.745 95.8822 695.745 94.9009V79.3169C695.745 78.9542 695.873 78.6556 696.129 78.4209C696.385 78.1649 696.694 78.0369 697.057 78.0369ZM719.594 82.1329C719.956 82.1329 720.255 82.2609 720.49 82.5169C720.746 82.7516 720.874 83.0502 720.874 83.4129V97.5249C720.874 97.8876 720.746 98.1969 720.49 98.4529C720.255 98.7089 719.956 98.8369 719.594 98.8369C719.21 98.8369 718.9 98.7089 718.666 98.4529C718.431 98.1969 718.314 97.8876 718.314 97.5249V94.4849L718.922 94.4209C718.922 94.8902 718.762 95.4022 718.442 95.9569C718.122 96.5116 717.684 97.0342 717.13 97.5249C716.575 97.9942 715.914 98.3889 715.146 98.7089C714.399 99.0076 713.588 99.1569 712.714 99.1569C711.263 99.1569 709.962 98.7836 708.81 98.0369C707.658 97.2689 706.74 96.2342 706.058 94.9329C705.396 93.6316 705.066 92.1489 705.066 90.4849C705.066 88.7996 705.396 87.3169 706.058 86.0369C706.74 84.7356 707.658 83.7222 708.81 82.9969C709.962 82.2502 711.242 81.8769 712.65 81.8769C713.567 81.8769 714.42 82.0262 715.21 82.3249C715.999 82.6236 716.682 83.0289 717.258 83.5409C717.855 84.0529 718.314 84.6182 718.634 85.2369C718.975 85.8556 719.146 86.4742 719.146 87.0929L718.314 86.9009V83.4129C718.314 83.0502 718.431 82.7516 718.666 82.5169C718.9 82.2609 719.21 82.1329 719.594 82.1329ZM713.002 96.7889C714.068 96.7889 715.007 96.5116 715.818 95.9569C716.65 95.4022 717.29 94.6556 717.738 93.7169C718.207 92.7569 718.442 91.6796 718.442 90.4849C718.442 89.3116 718.207 88.2556 717.738 87.3169C717.29 86.3569 716.65 85.6102 715.818 85.0769C715.007 84.5222 714.068 84.2449 713.002 84.2449C711.956 84.2449 711.018 84.5116 710.186 85.0449C709.375 85.5782 708.735 86.3142 708.266 87.2529C707.796 88.1916 707.562 89.2689 707.562 90.4849C707.562 91.6796 707.786 92.7569 708.234 93.7169C708.703 94.6556 709.343 95.4022 710.154 95.9569C710.986 96.5116 711.935 96.7889 713.002 96.7889ZM737.69 82.2929C738.074 82.2929 738.383 82.4209 738.618 82.6769C738.852 82.9116 738.97 83.2102 738.97 83.5729V92.3089C738.97 94.4636 738.362 96.1382 737.146 97.3329C735.951 98.5062 734.276 99.0929 732.122 99.0929C729.988 99.0929 728.314 98.5062 727.098 97.3329C725.903 96.1382 725.306 94.4636 725.306 92.3089V83.5729C725.306 83.2102 725.423 82.9116 725.658 82.6769C725.914 82.4209 726.223 82.2929 726.586 82.2929C726.97 82.2929 727.279 82.4209 727.514 82.6769C727.748 82.9116 727.866 83.2102 727.866 83.5729V92.3089C727.866 93.7596 728.239 94.8582 728.986 95.6049C729.732 96.3516 730.778 96.7249 732.122 96.7249C733.508 96.7249 734.564 96.3516 735.29 95.6049C736.036 94.8582 736.41 93.7596 736.41 92.3089V83.5729C736.41 83.2102 736.527 82.9116 736.762 82.6769C737.018 82.4209 737.327 82.2929 737.69 82.2929ZM760.428 82.0369C761.879 82.0369 763.052 82.4102 763.948 83.1569C764.866 83.8822 765.474 84.9169 765.772 86.2609H765.292L765.516 85.6849C765.772 85.0876 766.21 84.5116 766.828 83.9569C767.447 83.4022 768.162 82.9436 768.972 82.5809C769.783 82.2182 770.626 82.0369 771.5 82.0369C772.908 82.0369 774.018 82.3462 774.828 82.9649C775.639 83.5622 776.215 84.3729 776.556 85.3969C776.919 86.3996 777.1 87.5302 777.1 88.7889V97.5249C777.1 97.8876 776.972 98.1969 776.716 98.4529C776.482 98.7089 776.183 98.8369 775.82 98.8369C775.436 98.8369 775.127 98.7089 774.892 98.4529C774.658 98.1969 774.54 97.8876 774.54 97.5249V88.8529C774.54 88.0209 774.412 87.2742 774.156 86.6129C773.922 85.9302 773.527 85.3969 772.972 85.0129C772.439 84.6076 771.703 84.4049 770.764 84.4049C769.89 84.4049 769.09 84.6076 768.364 85.0129C767.639 85.3969 767.063 85.9302 766.636 86.6129C766.21 87.2742 765.996 88.0209 765.996 88.8529V97.5249C765.996 97.8876 765.879 98.1969 765.644 98.4529C765.41 98.7089 765.1 98.8369 764.716 98.8369C764.354 98.8369 764.044 98.7089 763.788 98.4529C763.554 98.1969 763.436 97.8876 763.436 97.5249V88.7569C763.436 87.9462 763.319 87.2209 763.084 86.5809C762.871 85.9196 762.498 85.3969 761.964 85.0129C761.431 84.6076 760.695 84.4049 759.756 84.4049C758.903 84.4049 758.124 84.6076 757.42 85.0129C756.716 85.3969 756.151 85.9196 755.724 86.5809C755.298 87.2209 755.084 87.9462 755.084 88.7569V97.5249C755.084 97.8876 754.956 98.1969 754.7 98.4529C754.466 98.7089 754.167 98.8369 753.804 98.8369C753.442 98.8369 753.132 98.7089 752.876 98.4529C752.642 98.1969 752.524 97.8876 752.524 97.5249V83.5729C752.524 83.2102 752.642 82.9116 752.876 82.6769C753.132 82.4209 753.442 82.2929 753.804 82.2929C754.188 82.2929 754.498 82.4209 754.732 82.6769C754.967 82.9116 755.084 83.2102 755.084 83.5729V86.0049L754.38 86.7729C754.466 86.2182 754.679 85.6636 755.02 85.1089C755.383 84.5542 755.842 84.0422 756.396 83.5729C756.951 83.1036 757.57 82.7302 758.252 82.4529C758.935 82.1756 759.66 82.0369 760.428 82.0369ZM789.485 99.1569C787.778 99.1569 786.285 98.7942 785.005 98.0689C783.725 97.3436 782.722 96.3516 781.997 95.0929C781.293 93.8129 780.941 92.3409 780.941 90.6769C780.941 88.8209 781.303 87.2422 782.029 85.9409C782.775 84.6182 783.735 83.6156 784.909 82.9329C786.103 82.2289 787.362 81.8769 788.685 81.8769C789.666 81.8769 790.615 82.0582 791.533 82.4209C792.45 82.7836 793.261 83.3169 793.965 84.0209C794.669 84.7036 795.234 85.5356 795.661 86.5169C796.087 87.4769 796.311 88.5542 796.333 89.7489C796.333 90.0902 796.205 90.3782 795.949 90.6129C795.693 90.8476 795.394 90.9649 795.053 90.9649H782.413L781.837 88.7569H794.157L793.645 89.2049V88.5009C793.559 87.6262 793.261 86.8796 792.749 86.2609C792.258 85.6209 791.65 85.1302 790.925 84.7889C790.221 84.4476 789.474 84.2769 788.685 84.2769C788.045 84.2769 787.405 84.3942 786.765 84.6289C786.146 84.8422 785.581 85.2049 785.069 85.7169C784.578 86.2076 784.173 86.8476 783.853 87.6369C783.554 88.4262 783.405 89.3756 783.405 90.4849C783.405 91.7222 783.65 92.8102 784.141 93.7489C784.653 94.6876 785.357 95.4342 786.253 95.9889C787.149 96.5222 788.194 96.7889 789.389 96.7889C790.135 96.7889 790.786 96.6929 791.341 96.5009C791.895 96.3089 792.375 96.0742 792.781 95.7969C793.186 95.4982 793.527 95.1996 793.805 94.9009C794.082 94.7089 794.349 94.6129 794.605 94.6129C794.925 94.6129 795.181 94.7196 795.373 94.9329C795.586 95.1462 795.693 95.4022 795.693 95.7009C795.693 96.0636 795.522 96.3836 795.181 96.6609C794.583 97.3222 793.773 97.9089 792.749 98.4209C791.725 98.9116 790.637 99.1569 789.485 99.1569ZM808.405 81.8769C809.855 81.8769 810.997 82.1756 811.829 82.7729C812.661 83.3702 813.247 84.1702 813.589 85.1729C813.951 86.1756 814.133 87.2956 814.133 88.5329V97.5249C814.133 97.8876 814.005 98.1969 813.749 98.4529C813.514 98.7089 813.215 98.8369 812.853 98.8369C812.49 98.8369 812.181 98.7089 811.925 98.4529C811.69 98.1969 811.573 97.8876 811.573 97.5249V88.5969C811.573 87.7862 811.445 87.0609 811.189 86.4209C810.954 85.7596 810.549 85.2369 809.973 84.8529C809.418 84.4476 808.65 84.2449 807.669 84.2449C806.773 84.2449 805.951 84.4476 805.205 84.8529C804.458 85.2369 803.861 85.7596 803.413 86.4209C802.965 87.0609 802.741 87.7862 802.741 88.5969V97.5249C802.741 97.8876 802.613 98.1969 802.357 98.4529C802.122 98.7089 801.823 98.8369 801.461 98.8369C801.098 98.8369 800.789 98.7089 800.533 98.4529C800.298 98.1969 800.181 97.8876 800.181 97.5249V83.5729C800.181 83.2102 800.298 82.9116 800.533 82.6769C800.789 82.4209 801.098 82.2929 801.461 82.2929C801.845 82.2929 802.154 82.4209 802.389 82.6769C802.623 82.9116 802.741 83.2102 802.741 83.5729V85.8449L802.101 86.5489C802.207 85.9942 802.453 85.4396 802.837 84.8849C803.221 84.3089 803.701 83.7969 804.277 83.3489C804.853 82.9009 805.493 82.5489 806.197 82.2929C806.901 82.0156 807.637 81.8769 808.405 81.8769ZM832.5 75.1569C832.863 75.1569 833.161 75.2849 833.396 75.5409C833.652 75.7756 833.78 76.0742 833.78 76.4369V97.5249C833.78 97.8876 833.652 98.1969 833.396 98.4529C833.161 98.7089 832.863 98.8369 832.5 98.8369C832.116 98.8369 831.807 98.7089 831.572 98.4529C831.337 98.1969 831.22 97.8876 831.22 97.5249V94.4849L831.828 94.2609C831.828 94.7729 831.668 95.3169 831.348 95.8929C831.028 96.4476 830.591 96.9702 830.036 97.4609C829.481 97.9516 828.82 98.3569 828.052 98.6769C827.305 98.9969 826.495 99.1569 825.62 99.1569C824.191 99.1569 822.889 98.7836 821.716 98.0369C820.564 97.2902 819.647 96.2662 818.964 94.9649C818.303 93.6636 817.972 92.1809 817.972 90.5169C817.972 88.8316 818.303 87.3382 818.964 86.0369C819.647 84.7356 820.564 83.7222 821.716 82.9969C822.868 82.2502 824.148 81.8769 825.556 81.8769C826.452 81.8769 827.295 82.0262 828.084 82.3249C828.873 82.6236 829.556 83.0289 830.132 83.5409C830.729 84.0529 831.199 84.6182 831.54 85.2369C831.881 85.8556 832.052 86.4742 832.052 87.0929L831.22 86.9009V76.4369C831.22 76.0742 831.337 75.7756 831.572 75.5409C831.807 75.2849 832.116 75.1569 832.5 75.1569ZM825.908 96.7889C826.975 96.7889 827.913 96.5222 828.724 95.9889C829.556 95.4342 830.196 94.6876 830.644 93.7489C831.113 92.7889 831.348 91.7116 831.348 90.5169C831.348 89.3009 831.113 88.2236 830.644 87.2849C830.196 86.3462 829.556 85.6102 828.724 85.0769C827.913 84.5222 826.975 84.2449 825.908 84.2449C824.863 84.2449 823.924 84.5222 823.092 85.0769C822.281 85.6102 821.641 86.3462 821.172 87.2849C820.703 88.2236 820.468 89.3009 820.468 90.5169C820.468 91.6902 820.703 92.7569 821.172 93.7169C821.641 94.6556 822.281 95.4022 823.092 95.9569C823.924 96.5116 824.863 96.7889 825.908 96.7889ZM852.156 82.1329C852.519 82.1329 852.818 82.2609 853.052 82.5169C853.308 82.7516 853.436 83.0502 853.436 83.4129V97.5249C853.436 97.8876 853.308 98.1969 853.052 98.4529C852.818 98.7089 852.519 98.8369 852.156 98.8369C851.772 98.8369 851.463 98.7089 851.228 98.4529C850.994 98.1969 850.876 97.8876 850.876 97.5249V94.4849L851.484 94.4209C851.484 94.8902 851.324 95.4022 851.004 95.9569C850.684 96.5116 850.247 97.0342 849.692 97.5249C849.138 97.9942 848.476 98.3889 847.708 98.7089C846.962 99.0076 846.151 99.1569 845.276 99.1569C843.826 99.1569 842.524 98.7836 841.372 98.0369C840.22 97.2689 839.303 96.2342 838.62 94.9329C837.959 93.6316 837.628 92.1489 837.628 90.4849C837.628 88.7996 837.959 87.3169 838.62 86.0369C839.303 84.7356 840.22 83.7222 841.372 82.9969C842.524 82.2502 843.804 81.8769 845.212 81.8769C846.13 81.8769 846.983 82.0262 847.772 82.3249C848.562 82.6236 849.244 83.0289 849.82 83.5409C850.418 84.0529 850.876 84.6182 851.196 85.2369C851.538 85.8556 851.708 86.4742 851.708 87.0929L850.876 86.9009V83.4129C850.876 83.0502 850.994 82.7516 851.228 82.5169C851.463 82.2609 851.772 82.1329 852.156 82.1329ZM845.564 96.7889C846.631 96.7889 847.57 96.5116 848.38 95.9569C849.212 95.4022 849.852 94.6556 850.3 93.7169C850.77 92.7569 851.004 91.6796 851.004 90.4849C851.004 89.3116 850.77 88.2556 850.3 87.3169C849.852 86.3569 849.212 85.6102 848.38 85.0769C847.57 84.5222 846.631 84.2449 845.564 84.2449C844.519 84.2449 843.58 84.5116 842.748 85.0449C841.938 85.5782 841.298 86.3142 840.828 87.2529C840.359 88.1916 840.124 89.2689 840.124 90.4849C840.124 91.6796 840.348 92.7569 840.796 93.7169C841.266 94.6556 841.906 95.4022 842.716 95.9569C843.548 96.5116 844.498 96.7889 845.564 96.7889ZM866.341 82.0369C867.791 82.0369 869.093 82.3996 870.245 83.1249C871.397 83.8502 872.303 84.8529 872.965 86.1329C873.647 87.4129 873.989 88.8849 873.989 90.5489C873.989 92.1916 873.647 93.6636 872.965 94.9649C872.303 96.2449 871.397 97.2582 870.245 98.0049C869.114 98.7302 867.834 99.0929 866.405 99.0929C865.615 99.0929 864.869 98.9756 864.165 98.7409C863.482 98.4849 862.853 98.1649 862.277 97.7809C861.722 97.3756 861.253 96.9276 860.869 96.4369C860.485 95.9249 860.207 95.4236 860.036 94.9329L860.741 94.4849V103.925C860.741 104.288 860.623 104.597 860.389 104.853C860.154 105.109 859.845 105.237 859.461 105.237C859.098 105.237 858.789 105.109 858.533 104.853C858.298 104.618 858.181 104.309 858.181 103.925V83.4769C858.181 83.1142 858.298 82.8156 858.533 82.5809C858.789 82.3249 859.098 82.1969 859.461 82.1969C859.845 82.1969 860.154 82.3249 860.389 82.5809C860.623 82.8156 860.741 83.1142 860.741 83.4769V86.3249L860.261 86.0689C860.41 85.5356 860.666 85.0236 861.029 84.5329C861.413 84.0422 861.871 83.6156 862.405 83.2529C862.959 82.8689 863.567 82.5702 864.229 82.3569C864.911 82.1436 865.615 82.0369 866.341 82.0369ZM866.053 84.4049C864.986 84.4049 864.037 84.6716 863.205 85.2049C862.394 85.7382 861.754 86.4636 861.285 87.3809C860.837 88.2982 860.613 89.3542 860.613 90.5489C860.613 91.7222 860.837 92.7782 861.285 93.7169C861.754 94.6556 862.394 95.3916 863.205 95.9249C864.037 96.4582 864.986 96.7249 866.053 96.7249C867.119 96.7249 868.058 96.4582 868.869 95.9249C869.679 95.3916 870.319 94.6556 870.789 93.7169C871.258 92.7782 871.493 91.7222 871.493 90.5489C871.493 89.3542 871.258 88.2982 870.789 87.3809C870.319 86.4636 869.679 85.7382 868.869 85.2049C868.058 84.6716 867.119 84.4049 866.053 84.4049ZM891.469 82.1329C891.831 82.1329 892.13 82.2609 892.365 82.5169C892.621 82.7516 892.749 83.0502 892.749 83.4129V97.5249C892.749 97.8876 892.621 98.1969 892.365 98.4529C892.13 98.7089 891.831 98.8369 891.469 98.8369C891.085 98.8369 890.775 98.7089 890.541 98.4529C890.306 98.1969 890.189 97.8876 890.189 97.5249V94.4849L890.797 94.4209C890.797 94.8902 890.637 95.4022 890.317 95.9569C889.997 96.5116 889.559 97.0342 889.005 97.5249C888.45 97.9942 887.789 98.3889 887.021 98.7089C886.274 99.0076 885.463 99.1569 884.589 99.1569C883.138 99.1569 881.837 98.7836 880.685 98.0369C879.533 97.2689 878.615 96.2342 877.933 94.9329C877.271 93.6316 876.941 92.1489 876.941 90.4849C876.941 88.7996 877.271 87.3169 877.933 86.0369C878.615 84.7356 879.533 83.7222 880.685 82.9969C881.837 82.2502 883.117 81.8769 884.525 81.8769C885.442 81.8769 886.295 82.0262 887.085 82.3249C887.874 82.6236 888.557 83.0289 889.133 83.5409C889.73 84.0529 890.189 84.6182 890.509 85.2369C890.85 85.8556 891.021 86.4742 891.021 87.0929L890.189 86.9009V83.4129C890.189 83.0502 890.306 82.7516 890.541 82.5169C890.775 82.2609 891.085 82.1329 891.469 82.1329ZM884.877 96.7889C885.943 96.7889 886.882 96.5116 887.693 95.9569C888.525 95.4022 889.165 94.6556 889.613 93.7169C890.082 92.7569 890.317 91.6796 890.317 90.4849C890.317 89.3116 890.082 88.2556 889.613 87.3169C889.165 86.3569 888.525 85.6102 887.693 85.0769C886.882 84.5222 885.943 84.2449 884.877 84.2449C883.831 84.2449 882.893 84.5116 882.061 85.0449C881.25 85.5782 880.61 86.3142 880.141 87.2529C879.671 88.1916 879.437 89.2689 879.437 90.4849C879.437 91.6796 879.661 92.7569 880.109 93.7169C880.578 94.6556 881.218 95.4022 882.029 95.9569C882.861 96.5116 883.81 96.7889 884.877 96.7889ZM896.853 82.3889H904.373C904.714 82.3889 904.992 82.5062 905.205 82.7409C905.44 82.9756 905.557 83.2529 905.557 83.5729C905.557 83.9142 905.44 84.2022 905.205 84.4369C904.992 84.6502 904.714 84.7569 904.373 84.7569H896.853C896.533 84.7569 896.256 84.6396 896.021 84.4049C895.786 84.1702 895.669 83.8822 895.669 83.5409C895.669 83.2209 895.786 82.9542 896.021 82.7409C896.256 82.5062 896.533 82.3889 896.853 82.3889ZM900.213 78.0369C900.576 78.0369 900.874 78.1649 901.109 78.4209C901.344 78.6556 901.461 78.9542 901.461 79.3169V94.7729C901.461 95.2849 901.536 95.6689 901.685 95.9249C901.834 96.1809 902.026 96.3622 902.261 96.4689C902.517 96.5542 902.762 96.5969 902.997 96.5969C903.21 96.5969 903.392 96.5649 903.541 96.5009C903.712 96.4156 903.904 96.3729 904.117 96.3729C904.33 96.3729 904.522 96.4796 904.693 96.6929C904.885 96.8849 904.981 97.1409 904.981 97.4609C904.981 97.8449 904.757 98.1756 904.309 98.4529C903.861 98.7089 903.36 98.8369 902.805 98.8369C902.506 98.8369 902.133 98.8156 901.685 98.7729C901.258 98.7302 900.832 98.5916 900.405 98.3569C899.978 98.1222 899.616 97.7382 899.317 97.2049C899.04 96.6502 898.901 95.8822 898.901 94.9009V79.3169C898.901 78.9542 899.029 78.6556 899.285 78.4209C899.541 78.1649 899.85 78.0369 900.213 78.0369ZM358.731 122.037C360.182 122.037 361.483 122.4 362.635 123.125C363.787 123.85 364.694 124.853 365.355 126.133C366.038 127.413 366.379 128.885 366.379 130.549C366.379 132.192 366.038 133.664 365.355 134.965C364.694 136.245 363.787 137.258 362.635 138.005C361.504 138.73 360.224 139.093 358.795 139.093C358.006 139.093 357.259 138.976 356.555 138.741C355.872 138.485 355.243 138.165 354.667 137.781C354.112 137.376 353.643 136.928 353.259 136.437C352.875 135.925 352.598 135.424 352.427 134.933L353.131 134.485V143.925C353.131 144.288 353.014 144.597 352.779 144.853C352.544 145.109 352.235 145.237 351.851 145.237C351.488 145.237 351.179 145.109 350.923 144.853C350.688 144.618 350.571 144.309 350.571 143.925V123.477C350.571 123.114 350.688 122.816 350.923 122.581C351.179 122.325 351.488 122.197 351.851 122.197C352.235 122.197 352.544 122.325 352.779 122.581C353.014 122.816 353.131 123.114 353.131 123.477V126.325L352.651 126.069C352.8 125.536 353.056 125.024 353.419 124.533C353.803 124.042 354.262 123.616 354.795 123.253C355.35 122.869 355.958 122.57 356.619 122.357C357.302 122.144 358.006 122.037 358.731 122.037ZM358.443 124.405C357.376 124.405 356.427 124.672 355.595 125.205C354.784 125.738 354.144 126.464 353.675 127.381C353.227 128.298 353.003 129.354 353.003 130.549C353.003 131.722 353.227 132.778 353.675 133.717C354.144 134.656 354.784 135.392 355.595 135.925C356.427 136.458 357.376 136.725 358.443 136.725C359.51 136.725 360.448 136.458 361.259 135.925C362.07 135.392 362.71 134.656 363.179 133.717C363.648 132.778 363.883 131.722 363.883 130.549C363.883 129.354 363.648 128.298 363.179 127.381C362.71 126.464 362.07 125.738 361.259 125.205C360.448 124.672 359.51 124.405 358.443 124.405ZM377.875 139.157C376.169 139.157 374.675 138.794 373.395 138.069C372.115 137.344 371.113 136.352 370.387 135.093C369.683 133.813 369.331 132.341 369.331 130.677C369.331 128.821 369.694 127.242 370.419 125.941C371.166 124.618 372.126 123.616 373.299 122.933C374.494 122.229 375.753 121.877 377.075 121.877C378.057 121.877 379.006 122.058 379.923 122.421C380.841 122.784 381.651 123.317 382.355 124.021C383.059 124.704 383.625 125.536 384.051 126.517C384.478 127.477 384.702 128.554 384.723 129.749C384.723 130.09 384.595 130.378 384.339 130.613C384.083 130.848 383.785 130.965 383.443 130.965H370.803L370.227 128.757H382.547L382.035 129.205V128.501C381.95 127.626 381.651 126.88 381.139 126.261C380.649 125.621 380.041 125.13 379.315 124.789C378.611 124.448 377.865 124.277 377.075 124.277C376.435 124.277 375.795 124.394 375.155 124.629C374.537 124.842 373.971 125.205 373.459 125.717C372.969 126.208 372.563 126.848 372.243 127.637C371.945 128.426 371.795 129.376 371.795 130.485C371.795 131.722 372.041 132.81 372.531 133.749C373.043 134.688 373.747 135.434 374.643 135.989C375.539 136.522 376.585 136.789 377.779 136.789C378.526 136.789 379.177 136.693 379.731 136.501C380.286 136.309 380.766 136.074 381.171 135.797C381.577 135.498 381.918 135.2 382.195 134.901C382.473 134.709 382.739 134.613 382.995 134.613C383.315 134.613 383.571 134.72 383.763 134.933C383.977 135.146 384.083 135.402 384.083 135.701C384.083 136.064 383.913 136.384 383.571 136.661C382.974 137.322 382.163 137.909 381.139 138.421C380.115 138.912 379.027 139.157 377.875 139.157ZM389.851 138.837C389.488 138.837 389.179 138.709 388.923 138.453C388.688 138.197 388.571 137.888 388.571 137.525V123.573C388.571 123.21 388.688 122.912 388.923 122.677C389.179 122.421 389.488 122.293 389.851 122.293C390.235 122.293 390.544 122.421 390.779 122.677C391.014 122.912 391.131 123.21 391.131 123.573V127.797L390.747 127.125C390.875 126.464 391.099 125.824 391.419 125.205C391.76 124.565 392.187 124 392.699 123.509C393.211 122.997 393.798 122.602 394.459 122.325C395.12 122.026 395.846 121.877 396.635 121.877C397.104 121.877 397.531 121.994 397.915 122.229C398.32 122.442 398.523 122.752 398.523 123.157C398.523 123.605 398.406 123.936 398.171 124.149C397.936 124.362 397.67 124.469 397.371 124.469C397.094 124.469 396.827 124.416 396.571 124.309C396.315 124.181 395.995 124.117 395.611 124.117C395.078 124.117 394.544 124.266 394.011 124.565C393.499 124.842 393.019 125.248 392.571 125.781C392.144 126.314 391.792 126.922 391.515 127.605C391.259 128.266 391.131 128.981 391.131 129.749V137.525C391.131 137.888 391.003 138.197 390.747 138.453C390.512 138.709 390.214 138.837 389.851 138.837ZM404.231 137.525C404.231 137.888 404.103 138.197 403.847 138.453C403.591 138.709 403.282 138.837 402.919 138.837C402.556 138.837 402.258 138.709 402.023 138.453C401.788 138.197 401.671 137.888 401.671 137.525V116.437C401.671 116.074 401.788 115.776 402.023 115.541C402.279 115.285 402.588 115.157 402.951 115.157C403.335 115.157 403.644 115.285 403.879 115.541C404.114 115.776 404.231 116.074 404.231 116.437V137.525ZM422.828 122.133C423.191 122.133 423.489 122.261 423.724 122.517C423.98 122.752 424.108 123.05 424.108 123.413V137.525C424.108 137.888 423.98 138.197 423.724 138.453C423.489 138.709 423.191 138.837 422.828 138.837C422.444 138.837 422.135 138.709 421.9 138.453C421.665 138.197 421.548 137.888 421.548 137.525V134.485L422.156 134.421C422.156 134.89 421.996 135.402 421.676 135.957C421.356 136.512 420.919 137.034 420.364 137.525C419.809 137.994 419.148 138.389 418.38 138.709C417.633 139.008 416.823 139.157 415.948 139.157C414.497 139.157 413.196 138.784 412.044 138.037C410.892 137.269 409.975 136.234 409.292 134.933C408.631 133.632 408.3 132.149 408.3 130.485C408.3 128.8 408.631 127.317 409.292 126.037C409.975 124.736 410.892 123.722 412.044 122.997C413.196 122.25 414.476 121.877 415.884 121.877C416.801 121.877 417.655 122.026 418.444 122.325C419.233 122.624 419.916 123.029 420.492 123.541C421.089 124.053 421.548 124.618 421.868 125.237C422.209 125.856 422.38 126.474 422.38 127.093L421.548 126.901V123.413C421.548 123.05 421.665 122.752 421.9 122.517C422.135 122.261 422.444 122.133 422.828 122.133ZM416.236 136.789C417.303 136.789 418.241 136.512 419.052 135.957C419.884 135.402 420.524 134.656 420.972 133.717C421.441 132.757 421.676 131.68 421.676 130.485C421.676 129.312 421.441 128.256 420.972 127.317C420.524 126.357 419.884 125.61 419.052 125.077C418.241 124.522 417.303 124.245 416.236 124.245C415.191 124.245 414.252 124.512 413.42 125.045C412.609 125.578 411.969 126.314 411.5 127.253C411.031 128.192 410.796 129.269 410.796 130.485C410.796 131.68 411.02 132.757 411.468 133.717C411.937 134.656 412.577 135.402 413.388 135.957C414.22 136.512 415.169 136.789 416.236 136.789ZM430.388 138.837C430.004 138.837 429.695 138.709 429.46 138.453C429.226 138.197 429.108 137.888 429.108 137.525V116.437C429.108 116.074 429.226 115.776 429.46 115.541C429.695 115.285 430.004 115.157 430.388 115.157C430.751 115.157 431.05 115.285 431.284 115.541C431.54 115.776 431.668 116.074 431.668 116.437V137.525C431.668 137.888 431.54 138.197 431.284 138.453C431.05 138.709 430.751 138.837 430.388 138.837ZM441.012 122.197C441.354 122.197 441.642 122.336 441.876 122.613C442.132 122.869 442.26 123.136 442.26 123.413C442.26 123.776 442.09 124.096 441.748 124.373L431.38 133.429L431.284 130.453L440.116 122.581C440.372 122.325 440.671 122.197 441.012 122.197ZM441.364 138.805C441.002 138.805 440.682 138.666 440.404 138.389L433.588 131.125L435.508 129.365L442.26 136.597C442.516 136.874 442.644 137.194 442.644 137.557C442.644 137.941 442.495 138.25 442.196 138.485C441.898 138.698 441.62 138.805 441.364 138.805ZM458.58 122.293C458.964 122.293 459.273 122.421 459.508 122.677C459.743 122.912 459.86 123.21 459.86 123.573V132.309C459.86 134.464 459.252 136.138 458.036 137.333C456.841 138.506 455.167 139.093 453.012 139.093C450.879 139.093 449.204 138.506 447.988 137.333C446.793 136.138 446.196 134.464 446.196 132.309V123.573C446.196 123.21 446.313 122.912 446.548 122.677C446.804 122.421 447.113 122.293 447.476 122.293C447.86 122.293 448.169 122.421 448.404 122.677C448.639 122.912 448.756 123.21 448.756 123.573V132.309C448.756 133.76 449.129 134.858 449.876 135.605C450.623 136.352 451.668 136.725 453.012 136.725C454.399 136.725 455.455 136.352 456.18 135.605C456.927 134.858 457.3 133.76 457.3 132.309V123.573C457.3 123.21 457.417 122.912 457.652 122.677C457.908 122.421 458.217 122.293 458.58 122.293ZM478.234 122.133C478.597 122.133 478.896 122.261 479.13 122.517C479.386 122.752 479.514 123.05 479.514 123.413V137.525C479.514 137.888 479.386 138.197 479.13 138.453C478.896 138.709 478.597 138.837 478.234 138.837C477.85 138.837 477.541 138.709 477.306 138.453C477.072 138.197 476.954 137.888 476.954 137.525V134.485L477.562 134.421C477.562 134.89 477.402 135.402 477.082 135.957C476.762 136.512 476.325 137.034 475.77 137.525C475.216 137.994 474.554 138.389 473.786 138.709C473.04 139.008 472.229 139.157 471.354 139.157C469.904 139.157 468.602 138.784 467.45 138.037C466.298 137.269 465.381 136.234 464.698 134.933C464.037 133.632 463.706 132.149 463.706 130.485C463.706 128.8 464.037 127.317 464.698 126.037C465.381 124.736 466.298 123.722 467.45 122.997C468.602 122.25 469.882 121.877 471.29 121.877C472.208 121.877 473.061 122.026 473.85 122.325C474.64 122.624 475.322 123.029 475.898 123.541C476.496 124.053 476.954 124.618 477.274 125.237C477.616 125.856 477.786 126.474 477.786 127.093L476.954 126.901V123.413C476.954 123.05 477.072 122.752 477.306 122.517C477.541 122.261 477.85 122.133 478.234 122.133ZM471.642 136.789C472.709 136.789 473.648 136.512 474.458 135.957C475.29 135.402 475.93 134.656 476.378 133.717C476.848 132.757 477.082 131.68 477.082 130.485C477.082 129.312 476.848 128.256 476.378 127.317C475.93 126.357 475.29 125.61 474.458 125.077C473.648 124.522 472.709 124.245 471.642 124.245C470.597 124.245 469.658 124.512 468.826 125.045C468.016 125.578 467.376 126.314 466.906 127.253C466.437 128.192 466.202 129.269 466.202 130.485C466.202 131.68 466.426 132.757 466.874 133.717C467.344 134.656 467.984 135.402 468.794 135.957C469.626 136.512 470.576 136.789 471.642 136.789ZM492.483 121.877C493.933 121.877 495.075 122.176 495.907 122.773C496.739 123.37 497.325 124.17 497.667 125.173C498.029 126.176 498.211 127.296 498.211 128.533V137.525C498.211 137.888 498.083 138.197 497.827 138.453C497.592 138.709 497.293 138.837 496.931 138.837C496.568 138.837 496.259 138.709 496.003 138.453C495.768 138.197 495.651 137.888 495.651 137.525V128.597C495.651 127.786 495.523 127.061 495.267 126.421C495.032 125.76 494.627 125.237 494.051 124.853C493.496 124.448 492.728 124.245 491.747 124.245C490.851 124.245 490.029 124.448 489.283 124.853C488.536 125.237 487.939 125.76 487.491 126.421C487.043 127.061 486.819 127.786 486.819 128.597V137.525C486.819 137.888 486.691 138.197 486.435 138.453C486.2 138.709 485.901 138.837 485.539 138.837C485.176 138.837 484.867 138.709 484.611 138.453C484.376 138.197 484.259 137.888 484.259 137.525V123.573C484.259 123.21 484.376 122.912 484.611 122.677C484.867 122.421 485.176 122.293 485.539 122.293C485.923 122.293 486.232 122.421 486.467 122.677C486.701 122.912 486.819 123.21 486.819 123.573V125.845L486.179 126.549C486.285 125.994 486.531 125.44 486.915 124.885C487.299 124.309 487.779 123.797 488.355 123.349C488.931 122.901 489.571 122.549 490.275 122.293C490.979 122.016 491.715 121.877 492.483 121.877ZM519.919 121.877C521.369 121.877 522.671 122.25 523.823 122.997C524.975 123.722 525.881 124.725 526.543 126.005C527.225 127.285 527.567 128.768 527.567 130.453C527.567 132.138 527.225 133.632 526.543 134.933C525.881 136.234 524.975 137.269 523.823 138.037C522.692 138.784 521.412 139.157 519.983 139.157C519.193 139.157 518.447 139.04 517.743 138.805C517.06 138.549 516.431 138.218 515.855 137.813C515.3 137.386 514.831 136.928 514.447 136.437C514.063 135.925 513.785 135.424 513.615 134.933L514.319 134.485V137.685C514.319 138.048 514.201 138.357 513.967 138.613C513.732 138.869 513.423 138.997 513.039 138.997C512.676 138.997 512.367 138.88 512.111 138.645C511.876 138.389 511.759 138.069 511.759 137.685V116.469C511.759 116.106 511.876 115.797 512.111 115.541C512.367 115.285 512.676 115.157 513.039 115.157C513.423 115.157 513.732 115.285 513.967 115.541C514.201 115.797 514.319 116.106 514.319 116.469V126.325L513.839 126.069C513.988 125.536 514.244 125.024 514.607 124.533C514.991 124.021 515.449 123.573 515.983 123.189C516.537 122.784 517.145 122.464 517.807 122.229C518.489 121.994 519.193 121.877 519.919 121.877ZM519.631 124.245C518.564 124.245 517.615 124.512 516.783 125.045C515.972 125.578 515.332 126.314 514.863 127.253C514.415 128.192 514.191 129.258 514.191 130.453C514.191 131.648 514.415 132.725 514.863 133.685C515.332 134.645 515.972 135.402 516.783 135.957C517.615 136.512 518.564 136.789 519.631 136.789C520.697 136.789 521.636 136.512 522.447 135.957C523.257 135.402 523.897 134.645 524.367 133.685C524.836 132.725 525.071 131.648 525.071 130.453C525.071 129.258 524.836 128.192 524.367 127.253C523.897 126.314 523.257 125.578 522.447 125.045C521.636 124.512 520.697 124.245 519.631 124.245ZM543.799 122.293C544.183 122.293 544.492 122.421 544.727 122.677C544.962 122.912 545.079 123.21 545.079 123.573V132.309C545.079 134.464 544.471 136.138 543.255 137.333C542.06 138.506 540.386 139.093 538.231 139.093C536.098 139.093 534.423 138.506 533.207 137.333C532.012 136.138 531.415 134.464 531.415 132.309V123.573C531.415 123.21 531.532 122.912 531.767 122.677C532.023 122.421 532.332 122.293 532.695 122.293C533.079 122.293 533.388 122.421 533.623 122.677C533.858 122.912 533.975 123.21 533.975 123.573V132.309C533.975 133.76 534.348 134.858 535.095 135.605C535.842 136.352 536.887 136.725 538.231 136.725C539.618 136.725 540.674 136.352 541.399 135.605C542.146 134.858 542.519 133.76 542.519 132.309V123.573C542.519 123.21 542.636 122.912 542.871 122.677C543.127 122.421 543.436 122.293 543.799 122.293ZM552.637 137.525C552.637 137.888 552.509 138.197 552.253 138.453C551.997 138.709 551.688 138.837 551.325 138.837C550.962 138.837 550.664 138.709 550.429 138.453C550.194 138.197 550.077 137.888 550.077 137.525V116.437C550.077 116.074 550.194 115.776 550.429 115.541C550.685 115.285 550.994 115.157 551.357 115.157C551.741 115.157 552.05 115.285 552.285 115.541C552.52 115.776 552.637 116.074 552.637 116.437V137.525ZM560.418 137.525C560.418 137.888 560.29 138.197 560.034 138.453C559.778 138.709 559.469 138.837 559.106 138.837C558.744 138.837 558.445 138.709 558.21 138.453C557.976 138.197 557.858 137.888 557.858 137.525V116.437C557.858 116.074 557.976 115.776 558.21 115.541C558.466 115.285 558.776 115.157 559.138 115.157C559.522 115.157 559.832 115.285 560.066 115.541C560.301 115.776 560.418 116.074 560.418 116.437V137.525ZM577.299 122.037C577.662 122.037 577.96 122.165 578.195 122.421C578.451 122.656 578.579 122.954 578.579 123.317V137.269C578.579 139.061 578.227 140.544 577.523 141.717C576.819 142.912 575.87 143.797 574.675 144.373C573.502 144.949 572.168 145.237 570.675 145.237C569.843 145.237 569.043 145.152 568.275 144.981C567.507 144.81 566.878 144.586 566.387 144.309C565.982 144.117 565.694 143.872 565.523 143.573C565.374 143.296 565.352 142.997 565.459 142.677C565.608 142.293 565.822 142.026 566.099 141.877C566.398 141.728 566.707 141.728 567.027 141.877C567.368 142.026 567.859 142.229 568.499 142.485C569.16 142.762 569.896 142.901 570.707 142.901C571.816 142.901 572.766 142.688 573.555 142.261C574.344 141.834 574.952 141.205 575.379 140.373C575.806 139.562 576.019 138.549 576.019 137.333V135.061L576.403 135.861C576.062 136.522 575.603 137.098 575.027 137.589C574.451 138.08 573.79 138.464 573.043 138.741C572.296 139.018 571.475 139.157 570.579 139.157C569.363 139.157 568.328 138.901 567.475 138.389C566.643 137.856 566.003 137.13 565.555 136.213C565.128 135.274 564.915 134.197 564.915 132.981V123.317C564.915 122.954 565.032 122.656 565.267 122.421C565.523 122.165 565.832 122.037 566.195 122.037C566.579 122.037 566.888 122.165 567.123 122.421C567.358 122.656 567.475 122.954 567.475 123.317V132.405C567.475 133.856 567.795 134.954 568.435 135.701C569.075 136.426 570.067 136.789 571.411 136.789C572.264 136.789 573.032 136.597 573.715 136.213C574.419 135.829 574.974 135.306 575.379 134.645C575.806 133.962 576.019 133.216 576.019 132.405V123.317C576.019 122.954 576.136 122.656 576.371 122.421C576.606 122.165 576.915 122.037 577.299 122.037ZM585.785 137.525C585.785 137.888 585.657 138.197 585.401 138.453C585.166 138.709 584.868 138.837 584.505 138.837C584.121 138.837 583.812 138.709 583.577 138.453C583.342 138.197 583.225 137.888 583.225 137.525V123.317C583.225 122.954 583.342 122.656 583.577 122.421C583.833 122.165 584.142 122.037 584.505 122.037C584.868 122.037 585.166 122.165 585.401 122.421C585.657 122.656 585.785 122.954 585.785 123.317V137.525ZM584.505 119.893C583.972 119.893 583.577 119.786 583.321 119.573C583.065 119.36 582.937 119.029 582.937 118.581V118.133C582.937 117.685 583.076 117.354 583.353 117.141C583.63 116.928 584.025 116.821 584.537 116.821C585.049 116.821 585.433 116.928 585.689 117.141C585.945 117.354 586.073 117.685 586.073 118.133V118.581C586.073 119.029 585.934 119.36 585.657 119.573C585.401 119.786 585.017 119.893 584.505 119.893ZM598.608 121.877C600.058 121.877 601.2 122.176 602.032 122.773C602.864 123.37 603.45 124.17 603.792 125.173C604.154 126.176 604.336 127.296 604.336 128.533V137.525C604.336 137.888 604.208 138.197 603.952 138.453C603.717 138.709 603.418 138.837 603.056 138.837C602.693 138.837 602.384 138.709 602.128 138.453C601.893 138.197 601.776 137.888 601.776 137.525V128.597C601.776 127.786 601.648 127.061 601.392 126.421C601.157 125.76 600.752 125.237 600.176 124.853C599.621 124.448 598.853 124.245 597.872 124.245C596.976 124.245 596.154 124.448 595.408 124.853C594.661 125.237 594.064 125.76 593.616 126.421C593.168 127.061 592.944 127.786 592.944 128.597V137.525C592.944 137.888 592.816 138.197 592.56 138.453C592.325 138.709 592.026 138.837 591.664 138.837C591.301 138.837 590.992 138.709 590.736 138.453C590.501 138.197 590.384 137.888 590.384 137.525V123.573C590.384 123.21 590.501 122.912 590.736 122.677C590.992 122.421 591.301 122.293 591.664 122.293C592.048 122.293 592.357 122.421 592.592 122.677C592.826 122.912 592.944 123.21 592.944 123.573V125.845L592.304 126.549C592.41 125.994 592.656 125.44 593.04 124.885C593.424 124.309 593.904 123.797 594.48 123.349C595.056 122.901 595.696 122.549 596.4 122.293C597.104 122.016 597.84 121.877 598.608 121.877ZM616.015 121.877C616.932 121.877 617.786 122.037 618.575 122.357C619.364 122.656 620.047 123.05 620.623 123.541C621.22 124.032 621.679 124.544 621.999 125.077C622.34 125.61 622.511 126.112 622.511 126.581L621.903 126.197V123.413C621.903 123.05 622.02 122.752 622.255 122.517C622.49 122.261 622.799 122.133 623.183 122.133C623.546 122.133 623.844 122.261 624.079 122.517C624.335 122.752 624.463 123.05 624.463 123.413V137.429C624.463 139.178 624.09 140.629 623.343 141.781C622.618 142.933 621.636 143.797 620.399 144.373C619.162 144.949 617.775 145.237 616.239 145.237C615.599 145.237 614.895 145.152 614.127 144.981C613.359 144.81 612.676 144.597 612.079 144.341C611.482 144.106 611.098 143.861 610.927 143.605C610.607 143.392 610.404 143.146 610.319 142.869C610.255 142.613 610.308 142.368 610.479 142.133C610.671 141.834 610.916 141.685 611.215 141.685C611.535 141.685 611.93 141.781 612.399 141.973C612.591 142.037 612.89 142.144 613.295 142.293C613.722 142.442 614.191 142.57 614.703 142.677C615.236 142.805 615.759 142.869 616.271 142.869C618.084 142.869 619.471 142.389 620.431 141.429C621.412 140.49 621.903 139.242 621.903 137.685V134.709L622.255 134.869C622.127 135.466 621.86 136.021 621.455 136.533C621.071 137.045 620.591 137.504 620.015 137.909C619.46 138.293 618.842 138.602 618.159 138.837C617.476 139.05 616.783 139.157 616.079 139.157C614.586 139.157 613.242 138.784 612.047 138.037C610.852 137.29 609.903 136.266 609.199 134.965C608.516 133.664 608.175 132.181 608.175 130.517C608.175 128.832 608.516 127.338 609.199 126.037C609.903 124.736 610.842 123.722 612.015 122.997C613.21 122.25 614.543 121.877 616.015 121.877ZM616.335 124.245C615.247 124.245 614.266 124.522 613.391 125.077C612.538 125.61 611.866 126.346 611.375 127.285C610.906 128.224 610.671 129.301 610.671 130.517C610.671 131.69 610.906 132.757 611.375 133.717C611.866 134.656 612.538 135.402 613.391 135.957C614.266 136.512 615.247 136.789 616.335 136.789C617.444 136.789 618.426 136.522 619.279 135.989C620.132 135.434 620.804 134.688 621.295 133.749C621.786 132.81 622.031 131.733 622.031 130.517C622.031 129.28 621.786 128.192 621.295 127.253C620.804 126.314 620.132 125.578 619.279 125.045C618.426 124.512 617.444 124.245 616.335 124.245ZM632.78 128.277C632.78 127.914 632.897 127.616 633.132 127.381C633.388 127.125 633.697 126.997 634.06 126.997C634.999 126.954 635.841 126.752 636.588 126.389C637.335 126.005 637.921 125.472 638.348 124.789C638.796 124.085 639.02 123.253 639.02 122.293C639.02 121.397 638.817 120.608 638.412 119.925C638.028 119.242 637.495 118.709 636.812 118.325C636.151 117.941 635.404 117.749 634.572 117.749C633.783 117.749 633.047 117.92 632.364 118.261C631.681 118.602 631.095 119.05 630.604 119.605C630.369 119.84 630.092 120 629.772 120.085C629.473 120.17 629.164 120.106 628.844 119.893C628.481 119.637 628.279 119.338 628.236 118.997C628.215 118.634 628.343 118.304 628.62 118.005C629.324 117.152 630.199 116.48 631.244 115.989C632.289 115.477 633.399 115.221 634.572 115.221C635.873 115.221 637.057 115.52 638.124 116.117C639.191 116.714 640.044 117.546 640.684 118.613C641.324 119.658 641.644 120.885 641.644 122.293C641.644 123.232 641.473 124.096 641.132 124.885C640.812 125.674 640.353 126.378 639.756 126.997C639.159 127.594 638.465 128.074 637.676 128.437C636.887 128.8 636.033 129.024 635.116 129.109C635.052 129.109 635.052 129.109 635.116 129.109C635.18 129.088 635.244 129.056 635.308 129.013V131.637C635.308 132 635.191 132.309 634.956 132.565C634.721 132.821 634.423 132.949 634.06 132.949C633.676 132.949 633.367 132.821 633.132 132.565C632.897 132.309 632.78 132 632.78 131.637V128.277ZM633.996 138.837C633.548 138.837 633.207 138.709 632.972 138.453C632.737 138.176 632.62 137.813 632.62 137.365V136.725C632.62 136.277 632.737 135.925 632.972 135.669C633.207 135.413 633.548 135.285 633.996 135.285H634.284C634.732 135.285 635.073 135.413 635.308 135.669C635.543 135.925 635.66 136.277 635.66 136.725V137.365C635.66 137.813 635.543 138.176 635.308 138.453C635.073 138.709 634.732 138.837 634.284 138.837H633.996Z" fill="white"/>
</svg>
