<svg width="973" height="646" viewBox="0 0 973 646" fill="none" xmlns="http://www.w3.org/2000/svg">
<path d="M957.876 31.2931C958.21 162.892 960.913 565.85 957.179 634.189C906.397 642.981 904.762 635.684 853.225 634.012L26.1786 607.147C20.814 606.975 14.9598 606.621 10.9129 603.085C7.21502 599.814 5.9546 594.642 4.98064 589.798C-3.38394 548.033 39.9859 61.1942 41.3504 21.1994C98.1786 12.2879 173.913 12.9337 231.559 12.9129C291.85 12.9129 337.147 9.66291 397.403 10.5171C516.376 12.2046 635.304 15.6265 754.189 20.7879C822.106 23.7879 890.001 27.2879 957.876 31.2931Z" fill="#116D4F"/>
<path d="M578.429 186.022C587.825 207.902 609.002 222.142 629.892 233.6C654.319 246.986 680.033 258.444 702.262 275.231C724.491 292.017 743.476 315.34 747.752 342.887C753.997 383.231 728.189 421.106 701.424 451.934C674.663 482.767 644.226 514.34 638.236 554.725C636.892 563.71 637.148 573.746 642.981 580.71C648.293 587.053 656.924 589.309 664.997 591.158C745.976 609.71 827.903 621.762 910.793 627.319C915.674 627.652 920.752 627.923 925.262 626.017C934.986 621.913 938.023 609.871 939.71 599.465C963.054 456.314 965.773 310.689 968.439 165.673C969.2 124.824 969.856 83.4649 959.007 44.1733C957.955 40.2826 956.611 36.2722 953.465 33.8243C950.747 32.0587 947.778 31.0274 944.554 30.7305C867.694 17.6733 790.288 11.642 712.335 12.642C686.819 12.9493 652.47 9.12117 630.96 26.2566C615.288 38.767 609.142 60.7045 600.991 78.1733C585.512 111.324 562.325 148.475 578.429 186.022Z" fill="#15664C"/>
<path d="M867.345 48.6266C900.621 54.0172 927.637 56.4078 961.377 54.8141C961.903 36.5485 961.262 31.1578 961.767 12.913C824.71 11.4703 25.5015 -10.4307 25.1109 13.3193C24.663 40.3974 34.8348 32.7724 51.9703 30.1474C83.9598 25.0693 174.496 27.7724 206.762 26.1578C334.173 19.8193 833.986 43.2412 867.345 48.6266Z" fill="#CD924C"/>
<path d="M959.882 609.502C959.882 621.97 959.491 626.309 955.074 639.986C795.147 657.491 646.793 626.095 485.892 626.934C452.09 627.106 9.56917 617.205 5.50668 603.2C-2.46728 575.46 10.4077 570.481 25.5588 570.46C94.5015 570.46 199.876 584.429 268.824 585.731C344.772 587.168 877.574 611.72 959.882 609.502Z" fill="#CD924C"/>
<path d="M942.085 210.179C942.085 375.158 941.189 489.944 915.538 615.121C913.788 623.626 909.705 621.444 915.012 628.392C920.325 635.335 950.116 630.455 957.179 632.283C976.783 479.444 972.054 335.804 968.653 181.778C967.7 138.653 968.788 55.34 961.71 12.814C935.085 13.3192 935.085 13.3192 933.819 37.8869C931.934 74.7931 942.085 173.59 942.085 210.179Z" fill="#CD924C"/>
<path d="M41.7776 606.08C25.9859 600.533 21.8817 599.736 5.52755 603.199C-9.08182 605.142 22.6578 89.3036 12.8192 32.4807C9.90255 15.6526 14.413 11.0849 42.9859 8.04841C59.3609 6.31925 51.6005 36.7828 50.6057 50.8453C47.3973 96.0692 36.9911 366.345 37.8869 456.236C38.0432 471.351 32.7932 603.022 41.7776 606.08Z" fill="#CD924C"/>
<path d="M24.038 120.116C22.0953 123.83 19.663 127.35 18.6161 131.418C17.9651 134.475 17.7203 137.569 17.8921 140.694C18.2046 164.647 18.5015 188.6 18.788 212.553C19.0015 229.809 19.2151 247.064 20.7359 264.257C22.564 285.949 26.314 307.949 22.1369 329.309C18.9234 345.668 11.163 360.876 8.03277 377.257C4.63173 394.996 6.80881 413.283 7.2359 431.356C7.64735 448.491 6.47548 465.611 5.75673 482.751C4.06402 522.741 -9.4516 612.262 11.9807 606.08C11.9807 587.444 7.91819 565.481 7.91819 546.845C7.91819 519.746 7.91819 492.496 12.5849 465.788C15.5432 448.767 20.3661 431.47 17.2151 414.47C15.4807 405.6 11.5953 397.1 11.3974 388.074C10.9338 369.283 25.8296 353.819 30.8453 335.746C36.4703 315.887 29.8921 294.897 26.6838 274.527C22.5796 248.465 24.0796 221.871 25.5953 195.533L28.0849 152.231C28.4859 140.397 29.7255 128.658 31.7984 117.001C34.1734 105.33 38.2984 93.6576 37.9078 81.7149C37.6369 73.4076 35.2046 65.3556 33.4911 57.2253C31.4234 47.2722 30.439 37.2149 30.538 27.0535C30.6317 19.0014 38.9182 11.0847 47.2046 7.60034C24.2567 10.8868 20.7359 29.3087 23.7671 47.3451C27.7567 70.9962 35.8869 97.3764 24.038 120.116Z" fill="#AA762A"/>
<path d="M29.5639 567.173C30.1472 561.335 31.2566 554.762 27.6212 550.054C24.3139 545.679 21.1212 518.038 23.9441 514.048C34.0587 499.731 34.366 480.981 34.2879 463.47C34.2879 443.923 34.116 424.199 30.0691 405.116C29.4962 402.897 29.1525 400.647 29.0379 398.366C29.1525 395.548 29.6316 392.804 30.4754 390.116C33.3972 378.824 35.6889 367.408 37.3452 355.861C34.2722 365.705 32.3243 376.715 28.0639 386.09C25.965 390.72 19.5066 394.413 20.5587 399.434C37.3816 478.876 13.9441 520.038 13.9441 520.038C13.1108 522.522 12.5222 525.069 12.1837 527.668C11.84 530.267 11.7566 532.876 11.9233 535.491C12.09 538.106 12.5066 540.684 13.1733 543.22C13.84 545.757 14.7462 548.199 15.892 550.559C18.2462 555.423 20.2097 560.288 20.2097 563.475C20.1785 574.09 21.1941 584.6 23.2618 595.012C23.9233 598.356 20.7931 605.298 23.0118 607.908C25.2254 610.512 53.2514 612.069 58.7566 611.522C53.1368 599.272 28.2045 580.616 29.5639 567.173Z" fill="#AA762A"/>
<path d="M53.7567 597.189C63.9286 601.897 76.5536 599.486 85.3609 592.58C89.6994 589.194 93.689 584.642 99.1317 584.017C104.58 583.397 109.809 587.054 115.293 586.819C118.257 586.491 121.059 585.627 123.694 584.231C129.746 581.491 149.371 581.022 155.418 578.298C145.418 575.225 125.017 572.835 116.517 574.194C111.6 574.975 106.658 575.752 101.814 576.975C94.5432 578.824 87.4807 581.705 80.0119 582.502C72.5484 583.298 64.6682 577.173 59.9234 571.356C58.7775 569.955 40.2411 565.153 37.7723 569.564C33.8244 576.512 46.8921 593.996 53.7567 597.189Z" fill="#AA762A"/>
<path d="M184.689 610.611C196.861 608.955 208.981 606.465 221.272 606.236C247.663 605.726 273.163 615.647 299.455 617.908C323.845 620.085 348.351 615.668 372.095 609.658C384.798 606.449 398.392 602.793 410.72 607.246C416.851 609.465 422.101 613.528 427.856 616.564C458.158 632.554 499.272 619.949 532.996 625.981C397.788 631.929 313.694 625.861 286.33 623.778C212.246 618.179 127.918 617.184 65.8557 612.111C79.4703 597.83 99.9495 605.34 115.429 609.366C137.642 615.262 162.205 613.663 184.689 610.611Z" fill="#AA762A"/>
<path d="M893.58 610.804C879.325 609.189 794.72 605.632 794.72 605.632C789.705 605.126 738.085 604.621 733.319 604.189C552.981 587.85 372.121 579.376 190.757 578.767C158.434 578.767 138.767 605.319 183.465 598.611C213.861 594.038 246.168 582.345 276.215 594.991C284.595 598.512 292.241 603.819 300.991 606.293C334.793 615.824 370.288 580.46 403.33 592.366C415.002 596.606 424.356 606.35 436.397 609.522C457.788 615.121 478.481 598.455 500.46 595.903C521.272 593.475 541.184 603.804 561.705 608.08C587.71 613.507 614.606 609.132 641.153 607.809C677.851 605.981 859.799 618.528 901.455 619.481C906.726 619.595 914.059 622.382 912.408 627.376C911.95 628.345 911.314 629.184 910.512 629.887C909.705 630.595 908.793 631.116 907.778 631.444C896.731 636.366 884.127 636.033 872.09 635.1C860.049 634.168 847.799 632.668 835.778 630.684C829.163 629.595 822.262 628.371 815.84 630.278C812.653 631.231 809.757 632.923 806.663 634.168C797.481 637.845 787.215 637.376 777.491 636.871C760.746 635.996 743.882 635.121 727.564 631.231C720.038 629.439 712.668 627.007 705.064 625.569C692.517 623.194 679.642 623.626 666.866 623.955C626.507 625.22 585.549 626.699 546.283 617.246C529.71 613.356 512.205 607.345 496.121 612.965C498.496 617.496 503.903 619.559 509.054 619.85C514.21 620.142 519.267 619.09 524.361 619.189C528.929 619.382 533.429 620.028 537.861 621.137C562.231 626.444 586.83 631.6 611.767 631.736C629.835 631.835 647.845 629.283 665.892 629.595C714.512 630.434 762.632 652.007 810.668 643.955C819.575 642.455 828.424 639.965 837.429 640.434C843.127 641.001 848.746 641.986 854.293 643.387C873.877 647.434 891.246 644.83 911.22 643.663C972.871 639.986 907.814 612.324 893.58 610.804Z" fill="#AA762A"/>
<path d="M954.319 158.163C952.064 148.903 951.382 137.955 949.809 128.559C948.309 119.746 953.074 106.496 954.434 97.6682C957.392 78.3714 952.918 65.6682 955.876 46.3922C956.538 42.111 957.158 37.5953 955.678 33.5328C954.199 29.4651 949.845 26.1214 945.663 27.3453C945.059 32.5016 919.522 10.3818 933.642 55.3193L933.876 72.4755C936.21 91.1891 946.481 107.897 944.496 126.653C943.814 133.09 942.882 139.627 944.012 146.106C945.043 151.939 947.746 157.423 949.397 163.163C956.632 188.314 942.824 214.715 943.678 240.976C943.991 250.45 946.246 259.767 947.085 269.22C947.632 277.033 947.705 284.856 947.298 292.679L945.606 344.887C944.923 366.054 940.043 391.575 939.168 412.642C937.767 446.491 922.772 567.793 926.527 552.564C929.033 542.08 935.22 529.106 939.303 519.377C947.803 499.262 949.126 476.955 950.33 455.184C953.908 390.387 957.491 325.377 952.548 260.658C951.46 246.481 949.96 232.257 951.012 218.08C952.548 198.022 959.085 177.715 954.319 158.163Z" fill="#AA762A"/>
<path d="M971.996 330.397C970.538 292.835 971.762 256.475 969.121 226.736C963.033 248.543 959.762 302.309 959.762 302.309C962.7 326.955 961.944 351.892 961.147 376.715L960.038 412.663C959.356 434.35 958.658 456.059 955.991 477.595C952.668 504.205 946.377 530.095 937.127 555.267C932.575 567.699 927.246 580.048 925.71 593.199C924.174 606.35 926.991 620.824 936.621 629.908C938.392 631.6 940.882 633.158 943.137 632.241C947.028 630.684 945.47 624.887 943.621 621.116C942.064 617.913 940.799 614.595 939.83 611.168C938.856 607.741 938.189 604.257 937.83 600.715C937.47 597.168 937.418 593.621 937.684 590.069C937.95 586.517 938.522 583.017 939.403 579.564C942.903 566.043 951.069 554.121 954.96 540.658C957.205 532.205 958.606 523.616 959.163 514.887C962.325 482.465 965.491 450.043 968.653 417.621C971.752 388.621 972.866 359.548 971.996 330.397Z" fill="#AA762A"/>
<path d="M952.762 598.668C952.715 599.726 952.897 600.741 953.309 601.72C953.829 602.793 952.079 636.736 955.074 639.986C957.428 642.59 968.809 557.408 967.001 530.679C955.465 540.21 952.449 585.168 952.762 598.668Z" fill="#AA762A"/>
<path d="M956.048 114.767C957.429 117.798 959.726 120.366 960.97 123.481C962.132 126.965 962.58 130.538 962.314 134.199C962.137 154.731 960.606 175.163 957.72 195.491C957.257 198.783 956.788 202.303 958.226 205.22C959.668 208.137 966.241 220.043 968.83 217.944C970.147 217.319 966.397 77.2983 965.95 66.4441C962.293 72.5535 961.71 80.4493 959.533 87.1837C956.809 95.9337 951.887 105.585 956.048 114.767Z" fill="#AA762A"/>
<path d="M357.278 23.6889C393.455 21.1993 429.59 16.9597 465.84 17.1941C498.455 17.4076 530.934 21.2358 563.397 24.3868C613.965 29.2722 664.804 32.5014 715.663 32.616C749.366 32.616 783.054 31.3712 816.793 30.0691C842.778 29.0587 869.21 27.9701 893.793 19.4858L747.054 20.2462C706.793 20.4597 666.512 20.6524 626.293 19.293C603.658 18.5326 580.981 17.2514 558.746 13.0118C543.366 10.0535 528.215 5.69409 512.637 4.04305C495.366 2.09513 477.939 3.70971 460.647 5.20971L385.012 11.8035C372.913 12.8555 360.663 13.9441 349.304 18.2045C343.897 20.1472 338.569 22.9701 332.809 23.0066C326.741 23.0066 321.142 20.0691 315.309 18.1837C294.981 11.5326 273.085 18.4545 251.825 20.8503C185.293 28.3555 116.246 -10.1757 51.0954 7.23055C47.8246 8.10555 47.0121 12.0378 47.2048 15.4024C47.3975 18.767 50.4704 20.3243 53.2725 21.2358C71.6527 27.5222 103.392 27.4024 122.705 25.2618C114.674 22.543 99.6006 21.1576 88.1423 19.1003C87.8037 19.0378 87.4808 18.9233 87.1787 18.7514C86.8766 18.5795 86.611 18.366 86.3819 18.1055C86.1527 17.8451 85.9756 17.5535 85.8454 17.2305C85.7152 16.9128 85.6423 16.5743 85.6266 16.2305C85.611 15.8868 85.6527 15.543 85.7516 15.2149C85.8558 14.8816 86.0069 14.5743 86.21 14.293C86.4131 14.0118 86.6579 13.7774 86.9444 13.5795C87.2256 13.3816 87.5381 13.2358 87.8714 13.1472C91.7569 12.6003 95.6423 12.5483 99.5433 12.991C107.163 13.3608 114.741 14.142 122.278 15.3243C141.038 17.918 159.84 20.0847 178.679 21.8191C216.465 25.2149 254.325 26.6993 292.262 26.2774C313.976 26.043 335.653 25.1785 357.278 23.6889Z" fill="#AA762A"/>
<path d="M961.71 12.9128H943.699C936.205 13.8503 928.986 15.8087 922.043 18.7826C915.1 21.7618 908.705 25.6368 902.856 30.4181C898.965 33.6472 895.194 37.3451 890.47 39.1733C886.439 40.4701 882.309 41.0639 878.08 40.9441C861.08 41.4285 815.475 43.142 798.455 43.6264C819.85 50.5899 871.173 54.0326 893.366 50.5118C901.689 49.1733 910.288 46.4076 915.772 40.0118C917.408 37.7618 919.163 35.616 921.043 33.5691C923.809 31.3243 926.903 29.6941 930.319 28.6681C941.444 24.5274 953.288 31.2566 964.47 35.1681L961.71 12.9128Z" fill="#AA762A"/>
<path d="M283.876 6.00656C288.684 5.24615 293.507 5.11073 298.345 5.60031C306.632 6.76698 342.595 6.68885 349.731 2.35031C338.548 -0.587187 301.809 -0.00385314 290.741 0.152396C271.778 0.42323 185.486 1.63156 179.376 3.88677C186.397 12.5795 218.725 10.2461 229.632 10.1316C247.788 9.68365 265.866 8.30865 283.876 6.00656Z" fill="#AA762A"/>
<path d="M96.25 98C95.8873 98 95.578 97.872 95.322 97.616C95.0873 97.36 94.97 97.0507 94.97 96.688V79.184L95.482 79.376L87.834 89.36L87.706 88.976H99.674C100.015 88.976 100.303 89.0933 100.538 89.328C100.773 89.5627 100.89 89.8507 100.89 90.192C100.89 90.512 100.773 90.7893 100.538 91.024C100.303 91.2373 100.015 91.344 99.674 91.344H85.946C85.626 91.344 85.3273 91.216 85.05 90.96C84.794 90.704 84.666 90.4053 84.666 90.064C84.666 89.744 84.7727 89.4667 84.986 89.232L95.194 76.112C95.3433 75.92 95.514 75.792 95.706 75.728C95.898 75.6427 96.09 75.6 96.282 75.6C96.6447 75.6 96.9433 75.728 97.178 75.984C97.4127 76.2187 97.53 76.5173 97.53 76.88V96.688C97.53 97.0507 97.402 97.36 97.146 97.616C96.9113 97.872 96.6127 98 96.25 98ZM104.886 97.968C104.438 97.968 104.086 97.84 103.83 97.584C103.595 97.328 103.478 96.976 103.478 96.528V95.888C103.478 95.4187 103.595 95.056 103.83 94.8C104.086 94.544 104.438 94.416 104.886 94.416H105.142C105.611 94.416 105.963 94.544 106.198 94.8C106.433 95.056 106.55 95.4187 106.55 95.888V96.528C106.55 96.976 106.433 97.328 106.198 97.584C105.963 97.84 105.611 97.968 105.142 97.968H104.886ZM136.466 78.928L128.946 97.232C128.861 97.488 128.712 97.6907 128.498 97.84C128.285 97.9893 128.061 98.064 127.826 98.064C127.421 98.064 127.122 97.9573 126.93 97.744C126.738 97.5307 126.642 97.2747 126.642 96.976C126.621 96.8267 126.642 96.6667 126.706 96.496L134.994 76.336C135.101 76.0373 135.261 75.824 135.474 75.696C135.709 75.5467 135.965 75.4827 136.242 75.504C136.52 75.504 136.765 75.5787 136.978 75.728C137.213 75.8773 137.373 76.08 137.458 76.336L145.714 96.304C145.778 96.4747 145.81 96.6453 145.81 96.816C145.81 97.2 145.682 97.5093 145.426 97.744C145.17 97.9573 144.882 98.064 144.562 98.064C144.306 98.064 144.072 97.9893 143.858 97.84C143.645 97.6907 143.485 97.4773 143.378 97.2L135.762 78.896L136.466 78.928ZM130.546 92.016L131.634 89.52H141.138L141.618 92.016H130.546ZM157.028 81.2C158.479 81.2 159.78 81.5627 160.932 82.288C162.084 83.0133 162.991 84.016 163.652 85.296C164.335 86.576 164.676 88.048 164.676 89.712C164.676 91.3547 164.335 92.8267 163.652 94.128C162.991 95.408 162.084 96.4213 160.932 97.168C159.801 97.8933 158.521 98.256 157.092 98.256C156.303 98.256 155.556 98.1387 154.852 97.904C154.169 97.648 153.54 97.328 152.964 96.944C152.409 96.5387 151.94 96.0907 151.556 95.6C151.172 95.088 150.895 94.5867 150.724 94.096L151.428 93.648V103.088C151.428 103.451 151.311 103.76 151.076 104.016C150.841 104.272 150.532 104.4 150.148 104.4C149.785 104.4 149.476 104.272 149.22 104.016C148.985 103.781 148.868 103.472 148.868 103.088V82.64C148.868 82.2773 148.985 81.9787 149.22 81.744C149.476 81.488 149.785 81.36 150.148 81.36C150.532 81.36 150.841 81.488 151.076 81.744C151.311 81.9787 151.428 82.2773 151.428 82.64V85.488L150.948 85.232C151.097 84.6987 151.353 84.1867 151.716 83.696C152.1 83.2053 152.559 82.7787 153.092 82.416C153.647 82.032 154.255 81.7333 154.916 81.52C155.599 81.3067 156.303 81.2 157.028 81.2ZM156.74 83.568C155.673 83.568 154.724 83.8347 153.892 84.368C153.081 84.9013 152.441 85.6267 151.972 86.544C151.524 87.4613 151.3 88.5173 151.3 89.712C151.3 90.8853 151.524 91.9413 151.972 92.88C152.441 93.8187 153.081 94.5547 153.892 95.088C154.724 95.6213 155.673 95.888 156.74 95.888C157.807 95.888 158.745 95.6213 159.556 95.088C160.367 94.5547 161.007 93.8187 161.476 92.88C161.945 91.9413 162.18 90.8853 162.18 89.712C162.18 88.5173 161.945 87.4613 161.476 86.544C161.007 85.6267 160.367 84.9013 159.556 84.368C158.745 83.8347 157.807 83.568 156.74 83.568ZM182.156 81.296C182.519 81.296 182.818 81.424 183.052 81.68C183.308 81.9147 183.436 82.2133 183.436 82.576V96.688C183.436 97.0507 183.308 97.36 183.052 97.616C182.818 97.872 182.519 98 182.156 98C181.772 98 181.463 97.872 181.228 97.616C180.994 97.36 180.876 97.0507 180.876 96.688V93.648L181.484 93.584C181.484 94.0533 181.324 94.5653 181.004 95.12C180.684 95.6747 180.247 96.1973 179.692 96.688C179.138 97.1573 178.476 97.552 177.708 97.872C176.962 98.1707 176.151 98.32 175.276 98.32C173.826 98.32 172.524 97.9467 171.372 97.2C170.22 96.432 169.303 95.3973 168.62 94.096C167.959 92.7947 167.628 91.312 167.628 89.648C167.628 87.9627 167.959 86.48 168.62 85.2C169.303 83.8987 170.22 82.8853 171.372 82.16C172.524 81.4133 173.804 81.04 175.212 81.04C176.13 81.04 176.983 81.1893 177.772 81.488C178.562 81.7867 179.244 82.192 179.82 82.704C180.418 83.216 180.876 83.7813 181.196 84.4C181.538 85.0187 181.708 85.6373 181.708 86.256L180.876 86.064V82.576C180.876 82.2133 180.994 81.9147 181.228 81.68C181.463 81.424 181.772 81.296 182.156 81.296ZM175.564 95.952C176.631 95.952 177.57 95.6747 178.38 95.12C179.212 94.5653 179.852 93.8187 180.3 92.88C180.77 91.92 181.004 90.8427 181.004 89.648C181.004 88.4747 180.77 87.4187 180.3 86.48C179.852 85.52 179.212 84.7733 178.38 84.24C177.57 83.6853 176.631 83.408 175.564 83.408C174.519 83.408 173.58 83.6747 172.748 84.208C171.938 84.7413 171.298 85.4773 170.828 86.416C170.359 87.3547 170.124 88.432 170.124 89.648C170.124 90.8427 170.348 91.92 170.796 92.88C171.266 93.8187 171.906 94.5653 172.716 95.12C173.548 95.6747 174.498 95.952 175.564 95.952ZM196.353 81.552H203.873C204.214 81.552 204.492 81.6693 204.705 81.904C204.94 82.1387 205.057 82.416 205.057 82.736C205.057 83.0773 204.94 83.3653 204.705 83.6C204.492 83.8133 204.214 83.92 203.873 83.92H196.353C196.033 83.92 195.756 83.8027 195.521 83.568C195.286 83.3333 195.169 83.0453 195.169 82.704C195.169 82.384 195.286 82.1173 195.521 81.904C195.756 81.6693 196.033 81.552 196.353 81.552ZM199.713 77.2C200.076 77.2 200.374 77.328 200.609 77.584C200.844 77.8187 200.961 78.1173 200.961 78.48V93.936C200.961 94.448 201.036 94.832 201.185 95.088C201.334 95.344 201.526 95.5253 201.761 95.632C202.017 95.7173 202.262 95.76 202.497 95.76C202.71 95.76 202.892 95.728 203.041 95.664C203.212 95.5787 203.404 95.536 203.617 95.536C203.83 95.536 204.022 95.6427 204.193 95.856C204.385 96.048 204.481 96.304 204.481 96.624C204.481 97.008 204.257 97.3387 203.809 97.616C203.361 97.872 202.86 98 202.305 98C202.006 98 201.633 97.9787 201.185 97.936C200.758 97.8933 200.332 97.7547 199.905 97.52C199.478 97.2853 199.116 96.9013 198.817 96.368C198.54 95.8133 198.401 95.0453 198.401 94.064V78.48C198.401 78.1173 198.529 77.8187 198.785 77.584C199.041 77.328 199.35 77.2 199.713 77.2ZM211.082 96.688C211.082 97.0507 210.954 97.36 210.698 97.616C210.463 97.872 210.165 98 209.802 98C209.418 98 209.109 97.872 208.874 97.616C208.639 97.36 208.522 97.0507 208.522 96.688V82.48C208.522 82.1173 208.639 81.8187 208.874 81.584C209.13 81.328 209.439 81.2 209.802 81.2C210.165 81.2 210.463 81.328 210.698 81.584C210.954 81.8187 211.082 82.1173 211.082 82.48V96.688ZM209.802 79.056C209.269 79.056 208.874 78.9493 208.618 78.736C208.362 78.5227 208.234 78.192 208.234 77.744V77.296C208.234 76.848 208.373 76.5173 208.65 76.304C208.927 76.0907 209.322 75.984 209.834 75.984C210.346 75.984 210.73 76.0907 210.986 76.304C211.242 76.5173 211.37 76.848 211.37 77.296V77.744C211.37 78.192 211.231 78.5227 210.954 78.736C210.698 78.9493 210.314 79.056 209.802 79.056ZM223.905 81.04C225.355 81.04 226.497 81.3387 227.329 81.936C228.161 82.5333 228.747 83.3333 229.089 84.336C229.451 85.3387 229.633 86.4587 229.633 87.696V96.688C229.633 97.0507 229.505 97.36 229.249 97.616C229.014 97.872 228.715 98 228.353 98C227.99 98 227.681 97.872 227.425 97.616C227.19 97.36 227.073 97.0507 227.073 96.688V87.76C227.073 86.9493 226.945 86.224 226.689 85.584C226.454 84.9227 226.049 84.4 225.473 84.016C224.918 83.6107 224.15 83.408 223.169 83.408C222.273 83.408 221.451 83.6107 220.705 84.016C219.958 84.4 219.361 84.9227 218.913 85.584C218.465 86.224 218.241 86.9493 218.241 87.76V96.688C218.241 97.0507 218.113 97.36 217.857 97.616C217.622 97.872 217.323 98 216.961 98C216.598 98 216.289 97.872 216.033 97.616C215.798 97.36 215.681 97.0507 215.681 96.688V82.736C215.681 82.3733 215.798 82.0747 216.033 81.84C216.289 81.584 216.598 81.456 216.961 81.456C217.345 81.456 217.654 81.584 217.889 81.84C218.123 82.0747 218.241 82.3733 218.241 82.736V85.008L217.601 85.712C217.707 85.1573 217.953 84.6027 218.337 84.048C218.721 83.472 219.201 82.96 219.777 82.512C220.353 82.064 220.993 81.712 221.697 81.456C222.401 81.1787 223.137 81.04 223.905 81.04ZM248 74.32C248.363 74.32 248.661 74.448 248.896 74.704C249.152 74.9387 249.28 75.2373 249.28 75.6V96.688C249.28 97.0507 249.152 97.36 248.896 97.616C248.661 97.872 248.363 98 248 98C247.616 98 247.307 97.872 247.072 97.616C246.837 97.36 246.72 97.0507 246.72 96.688V93.648L247.328 93.424C247.328 93.936 247.168 94.48 246.848 95.056C246.528 95.6107 246.091 96.1333 245.536 96.624C244.981 97.1147 244.32 97.52 243.552 97.84C242.805 98.16 241.995 98.32 241.12 98.32C239.691 98.32 238.389 97.9467 237.216 97.2C236.064 96.4533 235.147 95.4293 234.464 94.128C233.803 92.8267 233.472 91.344 233.472 89.68C233.472 87.9947 233.803 86.5013 234.464 85.2C235.147 83.8987 236.064 82.8853 237.216 82.16C238.368 81.4133 239.648 81.04 241.056 81.04C241.952 81.04 242.795 81.1893 243.584 81.488C244.373 81.7867 245.056 82.192 245.632 82.704C246.229 83.216 246.699 83.7813 247.04 84.4C247.381 85.0187 247.552 85.6373 247.552 86.256L246.72 86.064V75.6C246.72 75.2373 246.837 74.9387 247.072 74.704C247.307 74.448 247.616 74.32 248 74.32ZM241.408 95.952C242.475 95.952 243.413 95.6853 244.224 95.152C245.056 94.5973 245.696 93.8507 246.144 92.912C246.613 91.952 246.848 90.8747 246.848 89.68C246.848 88.464 246.613 87.3867 246.144 86.448C245.696 85.5093 245.056 84.7733 244.224 84.24C243.413 83.6853 242.475 83.408 241.408 83.408C240.363 83.408 239.424 83.6853 238.592 84.24C237.781 84.7733 237.141 85.5093 236.672 86.448C236.203 87.3867 235.968 88.464 235.968 89.68C235.968 90.8533 236.203 91.92 236.672 92.88C237.141 93.8187 237.781 94.5653 238.592 95.12C239.424 95.6747 240.363 95.952 241.408 95.952ZM267.656 81.296C268.019 81.296 268.318 81.424 268.552 81.68C268.808 81.9147 268.936 82.2133 268.936 82.576V96.688C268.936 97.0507 268.808 97.36 268.552 97.616C268.318 97.872 268.019 98 267.656 98C267.272 98 266.963 97.872 266.728 97.616C266.494 97.36 266.376 97.0507 266.376 96.688V93.648L266.984 93.584C266.984 94.0533 266.824 94.5653 266.504 95.12C266.184 95.6747 265.747 96.1973 265.192 96.688C264.638 97.1573 263.976 97.552 263.208 97.872C262.462 98.1707 261.651 98.32 260.776 98.32C259.326 98.32 258.024 97.9467 256.872 97.2C255.72 96.432 254.803 95.3973 254.12 94.096C253.459 92.7947 253.128 91.312 253.128 89.648C253.128 87.9627 253.459 86.48 254.12 85.2C254.803 83.8987 255.72 82.8853 256.872 82.16C258.024 81.4133 259.304 81.04 260.712 81.04C261.63 81.04 262.483 81.1893 263.272 81.488C264.062 81.7867 264.744 82.192 265.32 82.704C265.918 83.216 266.376 83.7813 266.696 84.4C267.038 85.0187 267.208 85.6373 267.208 86.256L266.376 86.064V82.576C266.376 82.2133 266.494 81.9147 266.728 81.68C266.963 81.424 267.272 81.296 267.656 81.296ZM261.064 95.952C262.131 95.952 263.07 95.6747 263.88 95.12C264.712 94.5653 265.352 93.8187 265.8 92.88C266.27 91.92 266.504 90.8427 266.504 89.648C266.504 88.4747 266.27 87.4187 265.8 86.48C265.352 85.52 264.712 84.7733 263.88 84.24C263.07 83.6853 262.131 83.408 261.064 83.408C260.019 83.408 259.08 83.6747 258.248 84.208C257.438 84.7413 256.798 85.4773 256.328 86.416C255.859 87.3547 255.624 88.432 255.624 89.648C255.624 90.8427 255.848 91.92 256.296 92.88C256.766 93.8187 257.406 94.5653 258.216 95.12C259.048 95.6747 259.998 95.952 261.064 95.952ZM275.217 98C274.833 98 274.523 97.872 274.289 97.616C274.054 97.36 273.937 97.0507 273.937 96.688V75.6C273.937 75.2373 274.054 74.9387 274.289 74.704C274.523 74.448 274.833 74.32 275.217 74.32C275.579 74.32 275.878 74.448 276.113 74.704C276.369 74.9387 276.497 75.2373 276.497 75.6V96.688C276.497 97.0507 276.369 97.36 276.113 97.616C275.878 97.872 275.579 98 275.217 98ZM285.841 81.36C286.182 81.36 286.47 81.4987 286.705 81.776C286.961 82.032 287.089 82.2987 287.089 82.576C287.089 82.9387 286.918 83.2587 286.577 83.536L276.209 92.592L276.113 89.616L284.945 81.744C285.201 81.488 285.499 81.36 285.841 81.36ZM286.193 97.968C285.83 97.968 285.51 97.8293 285.233 97.552L278.417 90.288L280.337 88.528L287.089 95.76C287.345 96.0373 287.472 96.3573 287.472 96.72C287.472 97.104 287.323 97.4133 287.025 97.648C286.726 97.8613 286.449 97.968 286.193 97.968ZM304.688 81.296C305.05 81.296 305.349 81.424 305.583 81.68C305.84 81.9147 305.968 82.2133 305.968 82.576V96.688C305.968 97.0507 305.84 97.36 305.583 97.616C305.349 97.872 305.05 98 304.688 98C304.304 98 303.994 97.872 303.76 97.616C303.525 97.36 303.408 97.0507 303.408 96.688V93.648L304.016 93.584C304.016 94.0533 303.856 94.5653 303.536 95.12C303.216 95.6747 302.778 96.1973 302.224 96.688C301.669 97.1573 301.008 97.552 300.24 97.872C299.493 98.1707 298.682 98.32 297.808 98.32C296.357 98.32 295.056 97.9467 293.904 97.2C292.752 96.432 291.834 95.3973 291.152 94.096C290.49 92.7947 290.16 91.312 290.16 89.648C290.16 87.9627 290.49 86.48 291.152 85.2C291.834 83.8987 292.752 82.8853 293.904 82.16C295.056 81.4133 296.336 81.04 297.744 81.04C298.661 81.04 299.514 81.1893 300.304 81.488C301.093 81.7867 301.776 82.192 302.352 82.704C302.949 83.216 303.408 83.7813 303.728 84.4C304.069 85.0187 304.24 85.6373 304.24 86.256L303.408 86.064V82.576C303.408 82.2133 303.525 81.9147 303.76 81.68C303.994 81.424 304.304 81.296 304.688 81.296ZM298.095 95.952C299.162 95.952 300.101 95.6747 300.912 95.12C301.744 94.5653 302.384 93.8187 302.832 92.88C303.301 91.92 303.536 90.8427 303.536 89.648C303.536 88.4747 303.301 87.4187 302.832 86.48C302.384 85.52 301.744 84.7733 300.912 84.24C300.101 83.6853 299.162 83.408 298.095 83.408C297.05 83.408 296.112 83.6747 295.28 84.208C294.469 84.7413 293.829 85.4773 293.36 86.416C292.89 87.3547 292.656 88.432 292.656 89.648C292.656 90.8427 292.88 91.92 293.328 92.88C293.797 93.8187 294.437 94.5653 295.248 95.12C296.08 95.6747 297.029 95.952 298.095 95.952ZM318.936 81.04C320.386 81.04 321.528 81.3387 322.36 81.936C323.192 82.5333 323.778 83.3333 324.12 84.336C324.482 85.3387 324.664 86.4587 324.664 87.696V96.688C324.664 97.0507 324.536 97.36 324.28 97.616C324.045 97.872 323.746 98 323.384 98C323.021 98 322.712 97.872 322.456 97.616C322.221 97.36 322.104 97.0507 322.104 96.688V87.76C322.104 86.9493 321.976 86.224 321.72 85.584C321.485 84.9227 321.08 84.4 320.504 84.016C319.949 83.6107 319.181 83.408 318.2 83.408C317.304 83.408 316.482 83.6107 315.736 84.016C314.989 84.4 314.392 84.9227 313.944 85.584C313.496 86.224 313.272 86.9493 313.272 87.76V96.688C313.272 97.0507 313.144 97.36 312.888 97.616C312.653 97.872 312.354 98 311.992 98C311.629 98 311.32 97.872 311.064 97.616C310.829 97.36 310.712 97.0507 310.712 96.688V82.736C310.712 82.3733 310.829 82.0747 311.064 81.84C311.32 81.584 311.629 81.456 311.992 81.456C312.376 81.456 312.685 81.584 312.92 81.84C313.154 82.0747 313.272 82.3733 313.272 82.736V85.008L312.632 85.712C312.738 85.1573 312.984 84.6027 313.368 84.048C313.752 83.472 314.232 82.96 314.808 82.512C315.384 82.064 316.024 81.712 316.728 81.456C317.432 81.1787 318.168 81.04 318.936 81.04ZM339.748 98C339.364 98 339.054 97.872 338.82 97.616C338.585 97.36 338.468 97.0507 338.468 96.688V75.6C338.468 75.2373 338.585 74.9387 338.82 74.704C339.054 74.448 339.364 74.32 339.748 74.32C340.11 74.32 340.409 74.448 340.644 74.704C340.9 74.9387 341.028 75.2373 341.028 75.6V96.688C341.028 97.0507 340.9 97.36 340.644 97.616C340.409 97.872 340.11 98 339.748 98ZM350.372 81.36C350.713 81.36 351.001 81.4987 351.236 81.776C351.492 82.032 351.62 82.2987 351.62 82.576C351.62 82.9387 351.449 83.2587 351.108 83.536L340.74 92.592L340.644 89.616L349.476 81.744C349.732 81.488 350.03 81.36 350.372 81.36ZM350.724 97.968C350.361 97.968 350.041 97.8293 349.764 97.552L342.948 90.288L344.868 88.528L351.62 95.76C351.876 96.0373 352.004 96.3573 352.004 96.72C352.004 97.104 351.854 97.4133 351.556 97.648C351.257 97.8613 350.98 97.968 350.724 97.968ZM369.219 81.296C369.581 81.296 369.88 81.424 370.115 81.68C370.371 81.9147 370.499 82.2133 370.499 82.576V96.688C370.499 97.0507 370.371 97.36 370.115 97.616C369.88 97.872 369.581 98 369.219 98C368.835 98 368.525 97.872 368.291 97.616C368.056 97.36 367.939 97.0507 367.939 96.688V93.648L368.547 93.584C368.547 94.0533 368.387 94.5653 368.067 95.12C367.747 95.6747 367.309 96.1973 366.755 96.688C366.2 97.1573 365.539 97.552 364.771 97.872C364.024 98.1707 363.213 98.32 362.339 98.32C360.888 98.32 359.587 97.9467 358.435 97.2C357.283 96.432 356.365 95.3973 355.683 94.096C355.021 92.7947 354.691 91.312 354.691 89.648C354.691 87.9627 355.021 86.48 355.683 85.2C356.365 83.8987 357.283 82.8853 358.435 82.16C359.587 81.4133 360.867 81.04 362.275 81.04C363.192 81.04 364.045 81.1893 364.835 81.488C365.624 81.7867 366.307 82.192 366.883 82.704C367.48 83.216 367.939 83.7813 368.259 84.4C368.6 85.0187 368.771 85.6373 368.771 86.256L367.939 86.064V82.576C367.939 82.2133 368.056 81.9147 368.291 81.68C368.525 81.424 368.835 81.296 369.219 81.296ZM362.627 95.952C363.693 95.952 364.632 95.6747 365.443 95.12C366.275 94.5653 366.915 93.8187 367.363 92.88C367.832 91.92 368.067 90.8427 368.067 89.648C368.067 88.4747 367.832 87.4187 367.363 86.48C366.915 85.52 366.275 84.7733 365.443 84.24C364.632 83.6853 363.693 83.408 362.627 83.408C361.581 83.408 360.643 83.6747 359.811 84.208C359 84.7413 358.36 85.4773 357.891 86.416C357.421 87.3547 357.187 88.432 357.187 89.648C357.187 90.8427 357.411 91.92 357.859 92.88C358.328 93.8187 358.968 94.5653 359.779 95.12C360.611 95.6747 361.56 95.952 362.627 95.952ZM383.147 81.2C384.598 81.2 385.771 81.5733 386.667 82.32C387.584 83.0453 388.192 84.08 388.491 85.424H388.011L388.235 84.848C388.491 84.2507 388.928 83.6747 389.547 83.12C390.166 82.5653 390.88 82.1067 391.691 81.744C392.502 81.3813 393.344 81.2 394.219 81.2C395.627 81.2 396.736 81.5093 397.547 82.128C398.358 82.7253 398.934 83.536 399.275 84.56C399.638 85.5627 399.819 86.6933 399.819 87.952V96.688C399.819 97.0507 399.691 97.36 399.435 97.616C399.2 97.872 398.902 98 398.539 98C398.155 98 397.846 97.872 397.611 97.616C397.376 97.36 397.259 97.0507 397.259 96.688V88.016C397.259 87.184 397.131 86.4373 396.875 85.776C396.64 85.0933 396.246 84.56 395.691 84.176C395.158 83.7707 394.422 83.568 393.483 83.568C392.608 83.568 391.808 83.7707 391.083 84.176C390.358 84.56 389.782 85.0933 389.355 85.776C388.928 86.4373 388.715 87.184 388.715 88.016V96.688C388.715 97.0507 388.598 97.36 388.363 97.616C388.128 97.872 387.819 98 387.435 98C387.072 98 386.763 97.872 386.507 97.616C386.272 97.36 386.155 97.0507 386.155 96.688V87.92C386.155 87.1093 386.038 86.384 385.803 85.744C385.59 85.0827 385.216 84.56 384.683 84.176C384.15 83.7707 383.414 83.568 382.475 83.568C381.622 83.568 380.843 83.7707 380.139 84.176C379.435 84.56 378.87 85.0827 378.443 85.744C378.016 86.384 377.803 87.1093 377.803 87.92V96.688C377.803 97.0507 377.675 97.36 377.419 97.616C377.184 97.872 376.886 98 376.523 98C376.16 98 375.851 97.872 375.595 97.616C375.36 97.36 375.243 97.0507 375.243 96.688V82.736C375.243 82.3733 375.36 82.0747 375.595 81.84C375.851 81.584 376.16 81.456 376.523 81.456C376.907 81.456 377.216 81.584 377.451 81.84C377.686 82.0747 377.803 82.3733 377.803 82.736V85.168L377.099 85.936C377.184 85.3813 377.398 84.8267 377.739 84.272C378.102 83.7173 378.56 83.2053 379.115 82.736C379.67 82.2667 380.288 81.8933 380.971 81.616C381.654 81.3387 382.379 81.2 383.147 81.2ZM416.94 81.456C417.324 81.456 417.633 81.584 417.868 81.84C418.102 82.0747 418.22 82.3733 418.22 82.736V91.472C418.22 93.6267 417.612 95.3013 416.396 96.496C415.201 97.6693 413.526 98.256 411.372 98.256C409.238 98.256 407.564 97.6693 406.348 96.496C405.153 95.3013 404.556 93.6267 404.556 91.472V82.736C404.556 82.3733 404.673 82.0747 404.908 81.84C405.164 81.584 405.473 81.456 405.836 81.456C406.22 81.456 406.529 81.584 406.764 81.84C406.998 82.0747 407.116 82.3733 407.116 82.736V91.472C407.116 92.9227 407.489 94.0213 408.236 94.768C408.982 95.5147 410.028 95.888 411.372 95.888C412.758 95.888 413.814 95.5147 414.54 94.768C415.286 94.0213 415.66 92.9227 415.66 91.472V82.736C415.66 82.3733 415.777 82.0747 416.012 81.84C416.268 81.584 416.577 81.456 416.94 81.456ZM445.406 81.296C445.769 81.296 446.068 81.424 446.302 81.68C446.558 81.9147 446.686 82.2133 446.686 82.576V96.688C446.686 97.0507 446.558 97.36 446.302 97.616C446.068 97.872 445.769 98 445.406 98C445.022 98 444.713 97.872 444.478 97.616C444.244 97.36 444.126 97.0507 444.126 96.688V93.648L444.734 93.584C444.734 94.0533 444.574 94.5653 444.254 95.12C443.934 95.6747 443.497 96.1973 442.942 96.688C442.388 97.1573 441.726 97.552 440.958 97.872C440.212 98.1707 439.401 98.32 438.526 98.32C437.076 98.32 435.774 97.9467 434.622 97.2C433.47 96.432 432.553 95.3973 431.87 94.096C431.209 92.7947 430.878 91.312 430.878 89.648C430.878 87.9627 431.209 86.48 431.87 85.2C432.553 83.8987 433.47 82.8853 434.622 82.16C435.774 81.4133 437.054 81.04 438.462 81.04C439.38 81.04 440.233 81.1893 441.022 81.488C441.812 81.7867 442.494 82.192 443.07 82.704C443.668 83.216 444.126 83.7813 444.446 84.4C444.788 85.0187 444.958 85.6373 444.958 86.256L444.126 86.064V82.576C444.126 82.2133 444.244 81.9147 444.478 81.68C444.713 81.424 445.022 81.296 445.406 81.296ZM438.814 95.952C439.881 95.952 440.82 95.6747 441.63 95.12C442.462 94.5653 443.102 93.8187 443.55 92.88C444.02 91.92 444.254 90.8427 444.254 89.648C444.254 88.4747 444.02 87.4187 443.55 86.48C443.102 85.52 442.462 84.7733 441.63 84.24C440.82 83.6853 439.881 83.408 438.814 83.408C437.769 83.408 436.83 83.6747 435.998 84.208C435.188 84.7413 434.548 85.4773 434.078 86.416C433.609 87.3547 433.374 88.432 433.374 89.648C433.374 90.8427 433.598 91.92 434.046 92.88C434.516 93.8187 435.156 94.5653 435.966 95.12C436.798 95.6747 437.748 95.952 438.814 95.952ZM459.591 81.2C461.041 81.2 462.343 81.5627 463.495 82.288C464.647 83.0133 465.553 84.016 466.215 85.296C466.897 86.576 467.239 88.048 467.239 89.712C467.239 91.3547 466.897 92.8267 466.215 94.128C465.553 95.408 464.647 96.4213 463.495 97.168C462.364 97.8933 461.084 98.256 459.655 98.256C458.865 98.256 458.119 98.1387 457.415 97.904C456.732 97.648 456.103 97.328 455.527 96.944C454.972 96.5387 454.503 96.0907 454.119 95.6C453.735 95.088 453.457 94.5867 453.286 94.096L453.991 93.648V103.088C453.991 103.451 453.873 103.76 453.639 104.016C453.404 104.272 453.095 104.4 452.711 104.4C452.348 104.4 452.039 104.272 451.783 104.016C451.548 103.781 451.431 103.472 451.431 103.088V82.64C451.431 82.2773 451.548 81.9787 451.783 81.744C452.039 81.488 452.348 81.36 452.711 81.36C453.095 81.36 453.404 81.488 453.639 81.744C453.873 81.9787 453.991 82.2773 453.991 82.64V85.488L453.511 85.232C453.66 84.6987 453.916 84.1867 454.279 83.696C454.663 83.2053 455.121 82.7787 455.655 82.416C456.209 82.032 456.817 81.7333 457.479 81.52C458.161 81.3067 458.865 81.2 459.591 81.2ZM459.303 83.568C458.236 83.568 457.287 83.8347 456.455 84.368C455.644 84.9013 455.004 85.6267 454.535 86.544C454.087 87.4613 453.863 88.5173 453.863 89.712C453.863 90.8853 454.087 91.9413 454.535 92.88C455.004 93.8187 455.644 94.5547 456.455 95.088C457.287 95.6213 458.236 95.888 459.303 95.888C460.369 95.888 461.308 95.6213 462.119 95.088C462.929 94.5547 463.569 93.8187 464.039 92.88C464.508 91.9413 464.743 90.8853 464.743 89.712C464.743 88.5173 464.508 87.4613 464.039 86.544C463.569 85.6267 462.929 84.9013 462.119 84.368C461.308 83.8347 460.369 83.568 459.303 83.568ZM484.719 81.296C485.081 81.296 485.38 81.424 485.615 81.68C485.871 81.9147 485.999 82.2133 485.999 82.576V96.688C485.999 97.0507 485.871 97.36 485.615 97.616C485.38 97.872 485.081 98 484.719 98C484.335 98 484.025 97.872 483.791 97.616C483.556 97.36 483.439 97.0507 483.439 96.688V93.648L484.047 93.584C484.047 94.0533 483.887 94.5653 483.567 95.12C483.247 95.6747 482.809 96.1973 482.255 96.688C481.7 97.1573 481.039 97.552 480.271 97.872C479.524 98.1707 478.713 98.32 477.839 98.32C476.388 98.32 475.087 97.9467 473.935 97.2C472.783 96.432 471.865 95.3973 471.183 94.096C470.521 92.7947 470.191 91.312 470.191 89.648C470.191 87.9627 470.521 86.48 471.183 85.2C471.865 83.8987 472.783 82.8853 473.935 82.16C475.087 81.4133 476.367 81.04 477.775 81.04C478.692 81.04 479.545 81.1893 480.335 81.488C481.124 81.7867 481.807 82.192 482.383 82.704C482.98 83.216 483.439 83.7813 483.759 84.4C484.1 85.0187 484.271 85.6373 484.271 86.256L483.439 86.064V82.576C483.439 82.2133 483.556 81.9147 483.791 81.68C484.025 81.424 484.335 81.296 484.719 81.296ZM478.127 95.952C479.193 95.952 480.132 95.6747 480.943 95.12C481.775 94.5653 482.415 93.8187 482.863 92.88C483.332 91.92 483.567 90.8427 483.567 89.648C483.567 88.4747 483.332 87.4187 482.863 86.48C482.415 85.52 481.775 84.7733 480.943 84.24C480.132 83.6853 479.193 83.408 478.127 83.408C477.081 83.408 476.143 83.6747 475.311 84.208C474.5 84.7413 473.86 85.4773 473.391 86.416C472.921 87.3547 472.687 88.432 472.687 89.648C472.687 90.8427 472.911 91.92 473.359 92.88C473.828 93.8187 474.468 94.5653 475.279 95.12C476.111 95.6747 477.06 95.952 478.127 95.952ZM498.903 81.04C500.354 81.04 501.655 81.4133 502.807 82.16C503.959 82.8853 504.866 83.888 505.527 85.168C506.21 86.448 506.551 87.9307 506.551 89.616C506.551 91.3013 506.21 92.7947 505.527 94.096C504.866 95.3973 503.959 96.432 502.807 97.2C501.676 97.9467 500.396 98.32 498.967 98.32C498.178 98.32 497.431 98.2027 496.727 97.968C496.044 97.712 495.415 97.3813 494.839 96.976C494.284 96.5493 493.815 96.0907 493.431 95.6C493.047 95.088 492.77 94.5867 492.599 94.096L493.303 93.648V96.848C493.303 97.2107 493.186 97.52 492.951 97.776C492.716 98.032 492.407 98.16 492.023 98.16C491.66 98.16 491.351 98.0427 491.095 97.808C490.86 97.552 490.743 97.232 490.743 96.848V75.632C490.743 75.2693 490.86 74.96 491.095 74.704C491.351 74.448 491.66 74.32 492.023 74.32C492.407 74.32 492.716 74.448 492.951 74.704C493.186 74.96 493.303 75.2693 493.303 75.632V85.488L492.823 85.232C492.972 84.6987 493.228 84.1867 493.591 83.696C493.975 83.184 494.434 82.736 494.967 82.352C495.522 81.9467 496.13 81.6267 496.791 81.392C497.474 81.1573 498.178 81.04 498.903 81.04ZM498.615 83.408C497.548 83.408 496.599 83.6747 495.767 84.208C494.956 84.7413 494.316 85.4773 493.847 86.416C493.399 87.3547 493.175 88.4213 493.175 89.616C493.175 90.8107 493.399 91.888 493.847 92.848C494.316 93.808 494.956 94.5653 495.767 95.12C496.599 95.6747 497.548 95.952 498.615 95.952C499.682 95.952 500.62 95.6747 501.431 95.12C502.242 94.5653 502.882 93.808 503.351 92.848C503.82 91.888 504.055 90.8107 504.055 89.616C504.055 88.4213 503.82 87.3547 503.351 86.416C502.882 85.4773 502.242 84.7413 501.431 84.208C500.62 83.6747 499.682 83.408 498.615 83.408ZM512.863 96.688C512.863 97.0507 512.735 97.36 512.479 97.616C512.245 97.872 511.946 98 511.583 98C511.199 98 510.89 97.872 510.655 97.616C510.421 97.36 510.303 97.0507 510.303 96.688V82.48C510.303 82.1173 510.421 81.8187 510.655 81.584C510.911 81.328 511.221 81.2 511.583 81.2C511.946 81.2 512.245 81.328 512.479 81.584C512.735 81.8187 512.863 82.1173 512.863 82.48V96.688ZM511.583 79.056C511.05 79.056 510.655 78.9493 510.399 78.736C510.143 78.5227 510.015 78.192 510.015 77.744V77.296C510.015 76.848 510.154 76.5173 510.431 76.304C510.709 76.0907 511.103 75.984 511.615 75.984C512.127 75.984 512.511 76.0907 512.767 76.304C513.023 76.5173 513.151 76.848 513.151 77.296V77.744C513.151 78.192 513.013 78.5227 512.735 78.736C512.479 78.9493 512.095 79.056 511.583 79.056ZM520.278 96.688C520.278 97.0507 520.15 97.36 519.894 97.616C519.638 97.872 519.328 98 518.966 98C518.603 98 518.304 97.872 518.07 97.616C517.835 97.36 517.718 97.0507 517.718 96.688V75.6C517.718 75.2373 517.835 74.9387 518.07 74.704C518.326 74.448 518.635 74.32 518.998 74.32C519.382 74.32 519.691 74.448 519.926 74.704C520.16 74.9387 520.278 75.2373 520.278 75.6V96.688ZM538.875 81.296C539.238 81.296 539.536 81.424 539.771 81.68C540.027 81.9147 540.155 82.2133 540.155 82.576V96.688C540.155 97.0507 540.027 97.36 539.771 97.616C539.536 97.872 539.238 98 538.875 98C538.491 98 538.182 97.872 537.947 97.616C537.712 97.36 537.595 97.0507 537.595 96.688V93.648L538.203 93.584C538.203 94.0533 538.043 94.5653 537.723 95.12C537.403 95.6747 536.966 96.1973 536.411 96.688C535.856 97.1573 535.195 97.552 534.427 97.872C533.68 98.1707 532.87 98.32 531.995 98.32C530.544 98.32 529.243 97.9467 528.091 97.2C526.939 96.432 526.022 95.3973 525.339 94.096C524.678 92.7947 524.347 91.312 524.347 89.648C524.347 87.9627 524.678 86.48 525.339 85.2C526.022 83.8987 526.939 82.8853 528.091 82.16C529.243 81.4133 530.523 81.04 531.931 81.04C532.848 81.04 533.702 81.1893 534.491 81.488C535.28 81.7867 535.963 82.192 536.539 82.704C537.136 83.216 537.595 83.7813 537.915 84.4C538.256 85.0187 538.427 85.6373 538.427 86.256L537.595 86.064V82.576C537.595 82.2133 537.712 81.9147 537.947 81.68C538.182 81.424 538.491 81.296 538.875 81.296ZM532.283 95.952C533.35 95.952 534.288 95.6747 535.099 95.12C535.931 94.5653 536.571 93.8187 537.019 92.88C537.488 91.92 537.723 90.8427 537.723 89.648C537.723 88.4747 537.488 87.4187 537.019 86.48C536.571 85.52 535.931 84.7733 535.099 84.24C534.288 83.6853 533.35 83.408 532.283 83.408C531.238 83.408 530.299 83.6747 529.467 84.208C528.656 84.7413 528.016 85.4773 527.547 86.416C527.078 87.3547 526.843 88.432 526.843 89.648C526.843 90.8427 527.067 91.92 527.515 92.88C527.984 93.8187 528.624 94.5653 529.435 95.12C530.267 95.6747 531.216 95.952 532.283 95.952ZM561.616 81.2C563.066 81.2 564.24 81.5733 565.136 82.32C566.053 83.0453 566.661 84.08 566.96 85.424H566.48L566.704 84.848C566.96 84.2507 567.397 83.6747 568.016 83.12C568.634 82.5653 569.349 82.1067 570.16 81.744C570.97 81.3813 571.813 81.2 572.688 81.2C574.096 81.2 575.205 81.5093 576.016 82.128C576.826 82.7253 577.402 83.536 577.744 84.56C578.106 85.5627 578.288 86.6933 578.288 87.952V96.688C578.288 97.0507 578.16 97.36 577.904 97.616C577.669 97.872 577.37 98 577.008 98C576.624 98 576.314 97.872 576.08 97.616C575.845 97.36 575.728 97.0507 575.728 96.688V88.016C575.728 87.184 575.6 86.4373 575.344 85.776C575.109 85.0933 574.714 84.56 574.16 84.176C573.626 83.7707 572.89 83.568 571.952 83.568C571.077 83.568 570.277 83.7707 569.552 84.176C568.826 84.56 568.25 85.0933 567.824 85.776C567.397 86.4373 567.184 87.184 567.184 88.016V96.688C567.184 97.0507 567.066 97.36 566.832 97.616C566.597 97.872 566.288 98 565.904 98C565.541 98 565.232 97.872 564.976 97.616C564.741 97.36 564.624 97.0507 564.624 96.688V87.92C564.624 87.1093 564.506 86.384 564.272 85.744C564.058 85.0827 563.685 84.56 563.152 84.176C562.618 83.7707 561.882 83.568 560.944 83.568C560.09 83.568 559.312 83.7707 558.608 84.176C557.904 84.56 557.338 85.0827 556.912 85.744C556.485 86.384 556.272 87.1093 556.272 87.92V96.688C556.272 97.0507 556.144 97.36 555.888 97.616C555.653 97.872 555.354 98 554.992 98C554.629 98 554.32 97.872 554.064 97.616C553.829 97.36 553.712 97.0507 553.712 96.688V82.736C553.712 82.3733 553.829 82.0747 554.064 81.84C554.32 81.584 554.629 81.456 554.992 81.456C555.376 81.456 555.685 81.584 555.92 81.84C556.154 82.0747 556.272 82.3733 556.272 82.736V85.168L555.568 85.936C555.653 85.3813 555.866 84.8267 556.208 84.272C556.57 83.7173 557.029 83.2053 557.584 82.736C558.138 82.2667 558.757 81.8933 559.44 81.616C560.122 81.3387 560.848 81.2 561.616 81.2ZM590.672 98.32C588.966 98.32 587.472 97.9573 586.192 97.232C584.912 96.5067 583.91 95.5147 583.184 94.256C582.48 92.976 582.128 91.504 582.128 89.84C582.128 87.984 582.491 86.4053 583.216 85.104C583.963 83.7813 584.923 82.7787 586.096 82.096C587.291 81.392 588.55 81.04 589.872 81.04C590.854 81.04 591.803 81.2213 592.72 81.584C593.638 81.9467 594.448 82.48 595.152 83.184C595.856 83.8667 596.422 84.6987 596.848 85.68C597.275 86.64 597.499 87.7173 597.52 88.912C597.52 89.2533 597.392 89.5413 597.136 89.776C596.88 90.0107 596.582 90.128 596.24 90.128H583.6L583.024 87.92H595.344L594.832 88.368V87.664C594.747 86.7893 594.448 86.0427 593.936 85.424C593.446 84.784 592.838 84.2933 592.112 83.952C591.408 83.6107 590.662 83.44 589.872 83.44C589.232 83.44 588.592 83.5573 587.952 83.792C587.334 84.0053 586.768 84.368 586.256 84.88C585.766 85.3707 585.36 86.0107 585.04 86.8C584.742 87.5893 584.592 88.5387 584.592 89.648C584.592 90.8853 584.838 91.9733 585.328 92.912C585.84 93.8507 586.544 94.5973 587.44 95.152C588.336 95.6853 589.382 95.952 590.576 95.952C591.323 95.952 591.974 95.856 592.528 95.664C593.083 95.472 593.563 95.2373 593.968 94.96C594.374 94.6613 594.715 94.3627 594.992 94.064C595.27 93.872 595.536 93.776 595.792 93.776C596.112 93.776 596.368 93.8827 596.56 94.096C596.774 94.3093 596.88 94.5653 596.88 94.864C596.88 95.2267 596.71 95.5467 596.368 95.824C595.771 96.4853 594.96 97.072 593.936 97.584C592.912 98.0747 591.824 98.32 590.672 98.32ZM604.184 96.688C604.184 97.0507 604.056 97.36 603.8 97.616C603.544 97.872 603.235 98 602.872 98C602.509 98 602.211 97.872 601.976 97.616C601.741 97.36 601.624 97.0507 601.624 96.688V75.6C601.624 75.2373 601.741 74.9387 601.976 74.704C602.232 74.448 602.541 74.32 602.904 74.32C603.288 74.32 603.597 74.448 603.832 74.704C604.067 74.9387 604.184 75.2373 604.184 75.6V96.688ZM611.613 96.688C611.613 97.0507 611.485 97.36 611.229 97.616C610.995 97.872 610.696 98 610.333 98C609.949 98 609.64 97.872 609.405 97.616C609.171 97.36 609.053 97.0507 609.053 96.688V82.48C609.053 82.1173 609.171 81.8187 609.405 81.584C609.661 81.328 609.971 81.2 610.333 81.2C610.696 81.2 610.995 81.328 611.229 81.584C611.485 81.8187 611.613 82.1173 611.613 82.48V96.688ZM610.333 79.056C609.8 79.056 609.405 78.9493 609.149 78.736C608.893 78.5227 608.765 78.192 608.765 77.744V77.296C608.765 76.848 608.904 76.5173 609.181 76.304C609.459 76.0907 609.853 75.984 610.365 75.984C610.877 75.984 611.261 76.0907 611.517 76.304C611.773 76.5173 611.901 76.848 611.901 77.296V77.744C611.901 78.192 611.763 78.5227 611.485 78.736C611.229 78.9493 610.845 79.056 610.333 79.056ZM624.212 81.2C625.62 81.2 626.729 81.5093 627.54 82.128C628.372 82.7253 628.958 83.536 629.3 84.56C629.662 85.5627 629.844 86.6827 629.844 87.92V96.688C629.844 97.0507 629.716 97.36 629.46 97.616C629.225 97.872 628.926 98 628.564 98C628.201 98 627.892 97.872 627.636 97.616C627.401 97.36 627.284 97.0507 627.284 96.688V87.92C627.284 87.1093 627.166 86.384 626.932 85.744C626.697 85.0827 626.302 84.56 625.748 84.176C625.214 83.7707 624.478 83.568 623.54 83.568C622.665 83.568 621.865 83.7707 621.14 84.176C620.414 84.56 619.838 85.0827 619.412 85.744C618.985 86.384 618.772 87.1093 618.772 87.92V96.688C618.772 97.0507 618.644 97.36 618.388 97.616C618.153 97.872 617.854 98 617.492 98C617.129 98 616.82 97.872 616.564 97.616C616.329 97.36 616.212 97.0507 616.212 96.688V75.6C616.212 75.2373 616.329 74.9387 616.564 74.704C616.82 74.448 617.129 74.32 617.492 74.32C617.876 74.32 618.185 74.448 618.42 74.704C618.654 74.9387 618.772 75.2373 618.772 75.6V85.168L618.132 85.872C618.238 85.3173 618.473 84.7627 618.836 84.208C619.198 83.632 619.657 83.12 620.212 82.672C620.766 82.224 621.385 81.872 622.068 81.616C622.75 81.3387 623.465 81.2 624.212 81.2ZM648.219 81.296C648.581 81.296 648.88 81.424 649.115 81.68C649.371 81.9147 649.499 82.2133 649.499 82.576V96.688C649.499 97.0507 649.371 97.36 649.115 97.616C648.88 97.872 648.581 98 648.219 98C647.835 98 647.525 97.872 647.291 97.616C647.056 97.36 646.939 97.0507 646.939 96.688V93.648L647.547 93.584C647.547 94.0533 647.387 94.5653 647.067 95.12C646.747 95.6747 646.309 96.1973 645.755 96.688C645.2 97.1573 644.539 97.552 643.771 97.872C643.024 98.1707 642.213 98.32 641.339 98.32C639.888 98.32 638.587 97.9467 637.435 97.2C636.283 96.432 635.365 95.3973 634.683 94.096C634.021 92.7947 633.691 91.312 633.691 89.648C633.691 87.9627 634.021 86.48 634.683 85.2C635.365 83.8987 636.283 82.8853 637.435 82.16C638.587 81.4133 639.867 81.04 641.275 81.04C642.192 81.04 643.045 81.1893 643.835 81.488C644.624 81.7867 645.307 82.192 645.883 82.704C646.48 83.216 646.939 83.7813 647.259 84.4C647.6 85.0187 647.771 85.6373 647.771 86.256L646.939 86.064V82.576C646.939 82.2133 647.056 81.9147 647.291 81.68C647.525 81.424 647.835 81.296 648.219 81.296ZM641.627 95.952C642.693 95.952 643.632 95.6747 644.443 95.12C645.275 94.5653 645.915 93.8187 646.363 92.88C646.832 91.92 647.067 90.8427 647.067 89.648C647.067 88.4747 646.832 87.4187 646.363 86.48C645.915 85.52 645.275 84.7733 644.443 84.24C643.632 83.6853 642.693 83.408 641.627 83.408C640.581 83.408 639.643 83.6747 638.811 84.208C638 84.7413 637.36 85.4773 636.891 86.416C636.421 87.3547 636.187 88.432 636.187 89.648C636.187 90.8427 636.411 91.92 636.859 92.88C637.328 93.8187 637.968 94.5653 638.779 95.12C639.611 95.6747 640.56 95.952 641.627 95.952ZM653.603 81.552H661.123C661.464 81.552 661.742 81.6693 661.955 81.904C662.19 82.1387 662.307 82.416 662.307 82.736C662.307 83.0773 662.19 83.3653 661.955 83.6C661.742 83.8133 661.464 83.92 661.123 83.92H653.603C653.283 83.92 653.006 83.8027 652.771 83.568C652.536 83.3333 652.419 83.0453 652.419 82.704C652.419 82.384 652.536 82.1173 652.771 81.904C653.006 81.6693 653.283 81.552 653.603 81.552ZM656.963 77.2C657.326 77.2 657.624 77.328 657.859 77.584C658.094 77.8187 658.211 78.1173 658.211 78.48V93.936C658.211 94.448 658.286 94.832 658.435 95.088C658.584 95.344 658.776 95.5253 659.011 95.632C659.267 95.7173 659.512 95.76 659.747 95.76C659.96 95.76 660.142 95.728 660.291 95.664C660.462 95.5787 660.654 95.536 660.867 95.536C661.08 95.536 661.272 95.6427 661.443 95.856C661.635 96.048 661.731 96.304 661.731 96.624C661.731 97.008 661.507 97.3387 661.059 97.616C660.611 97.872 660.11 98 659.555 98C659.256 98 658.883 97.9787 658.435 97.936C658.008 97.8933 657.582 97.7547 657.155 97.52C656.728 97.2853 656.366 96.9013 656.067 96.368C655.79 95.8133 655.651 95.0453 655.651 94.064V78.48C655.651 78.1173 655.779 77.8187 656.035 77.584C656.291 77.328 656.6 77.2 656.963 77.2ZM688.312 81.296C688.675 81.296 688.974 81.424 689.208 81.68C689.465 81.9147 689.593 82.2133 689.593 82.576V96.688C689.593 97.0507 689.465 97.36 689.208 97.616C688.974 97.872 688.675 98 688.312 98C687.929 98 687.619 97.872 687.385 97.616C687.15 97.36 687.033 97.0507 687.033 96.688V93.648L687.641 93.584C687.641 94.0533 687.481 94.5653 687.161 95.12C686.841 95.6747 686.403 96.1973 685.849 96.688C685.294 97.1573 684.633 97.552 683.865 97.872C683.118 98.1707 682.307 98.32 681.433 98.32C679.982 98.32 678.681 97.9467 677.529 97.2C676.377 96.432 675.459 95.3973 674.777 94.096C674.115 92.7947 673.785 91.312 673.785 89.648C673.785 87.9627 674.115 86.48 674.777 85.2C675.459 83.8987 676.377 82.8853 677.529 82.16C678.681 81.4133 679.961 81.04 681.369 81.04C682.286 81.04 683.139 81.1893 683.929 81.488C684.718 81.7867 685.401 82.192 685.977 82.704C686.574 83.216 687.033 83.7813 687.353 84.4C687.694 85.0187 687.865 85.6373 687.865 86.256L687.033 86.064V82.576C687.033 82.2133 687.15 81.9147 687.385 81.68C687.619 81.424 687.929 81.296 688.312 81.296ZM681.72 95.952C682.787 95.952 683.726 95.6747 684.537 95.12C685.369 94.5653 686.009 93.8187 686.457 92.88C686.926 91.92 687.161 90.8427 687.161 89.648C687.161 88.4747 686.926 87.4187 686.457 86.48C686.009 85.52 685.369 84.7733 684.537 84.24C683.726 83.6853 682.787 83.408 681.72 83.408C680.675 83.408 679.737 83.6747 678.905 84.208C678.094 84.7413 677.454 85.4773 676.985 86.416C676.515 87.3547 676.281 88.432 676.281 89.648C676.281 90.8427 676.505 91.92 676.953 92.88C677.422 93.8187 678.062 94.5653 678.873 95.12C679.705 95.6747 680.654 95.952 681.72 95.952ZM693.697 81.552H701.217C701.558 81.552 701.835 81.6693 702.049 81.904C702.283 82.1387 702.401 82.416 702.401 82.736C702.401 83.0773 702.283 83.3653 702.049 83.6C701.835 83.8133 701.558 83.92 701.217 83.92H693.697C693.377 83.92 693.099 83.8027 692.865 83.568C692.63 83.3333 692.513 83.0453 692.513 82.704C692.513 82.384 692.63 82.1173 692.865 81.904C693.099 81.6693 693.377 81.552 693.697 81.552ZM697.057 77.2C697.419 77.2 697.718 77.328 697.953 77.584C698.187 77.8187 698.305 78.1173 698.305 78.48V93.936C698.305 94.448 698.379 94.832 698.529 95.088C698.678 95.344 698.87 95.5253 699.105 95.632C699.361 95.7173 699.606 95.76 699.841 95.76C700.054 95.76 700.235 95.728 700.385 95.664C700.555 95.5787 700.747 95.536 700.961 95.536C701.174 95.536 701.366 95.6427 701.537 95.856C701.729 96.048 701.825 96.304 701.825 96.624C701.825 97.008 701.601 97.3387 701.153 97.616C700.705 97.872 700.203 98 699.649 98C699.35 98 698.977 97.9787 698.529 97.936C698.102 97.8933 697.675 97.7547 697.249 97.52C696.822 97.2853 696.459 96.9013 696.161 96.368C695.883 95.8133 695.745 95.0453 695.745 94.064V78.48C695.745 78.1173 695.873 77.8187 696.129 77.584C696.385 77.328 696.694 77.2 697.057 77.2ZM719.594 81.296C719.956 81.296 720.255 81.424 720.49 81.68C720.746 81.9147 720.874 82.2133 720.874 82.576V96.688C720.874 97.0507 720.746 97.36 720.49 97.616C720.255 97.872 719.956 98 719.594 98C719.21 98 718.9 97.872 718.666 97.616C718.431 97.36 718.314 97.0507 718.314 96.688V93.648L718.922 93.584C718.922 94.0533 718.762 94.5653 718.442 95.12C718.122 95.6747 717.684 96.1973 717.13 96.688C716.575 97.1573 715.914 97.552 715.146 97.872C714.399 98.1707 713.588 98.32 712.714 98.32C711.263 98.32 709.962 97.9467 708.81 97.2C707.658 96.432 706.74 95.3973 706.058 94.096C705.396 92.7947 705.066 91.312 705.066 89.648C705.066 87.9627 705.396 86.48 706.058 85.2C706.74 83.8987 707.658 82.8853 708.81 82.16C709.962 81.4133 711.242 81.04 712.65 81.04C713.567 81.04 714.42 81.1893 715.21 81.488C715.999 81.7867 716.682 82.192 717.258 82.704C717.855 83.216 718.314 83.7813 718.634 84.4C718.975 85.0187 719.146 85.6373 719.146 86.256L718.314 86.064V82.576C718.314 82.2133 718.431 81.9147 718.666 81.68C718.9 81.424 719.21 81.296 719.594 81.296ZM713.002 95.952C714.068 95.952 715.007 95.6747 715.818 95.12C716.65 94.5653 717.29 93.8187 717.738 92.88C718.207 91.92 718.442 90.8427 718.442 89.648C718.442 88.4747 718.207 87.4187 717.738 86.48C717.29 85.52 716.65 84.7733 715.818 84.24C715.007 83.6853 714.068 83.408 713.002 83.408C711.956 83.408 711.018 83.6747 710.186 84.208C709.375 84.7413 708.735 85.4773 708.266 86.416C707.796 87.3547 707.562 88.432 707.562 89.648C707.562 90.8427 707.786 91.92 708.234 92.88C708.703 93.8187 709.343 94.5653 710.154 95.12C710.986 95.6747 711.935 95.952 713.002 95.952ZM737.69 81.456C738.074 81.456 738.383 81.584 738.618 81.84C738.852 82.0747 738.97 82.3733 738.97 82.736V91.472C738.97 93.6267 738.362 95.3013 737.146 96.496C735.951 97.6693 734.276 98.256 732.122 98.256C729.988 98.256 728.314 97.6693 727.098 96.496C725.903 95.3013 725.306 93.6267 725.306 91.472V82.736C725.306 82.3733 725.423 82.0747 725.658 81.84C725.914 81.584 726.223 81.456 726.586 81.456C726.97 81.456 727.279 81.584 727.514 81.84C727.748 82.0747 727.866 82.3733 727.866 82.736V91.472C727.866 92.9227 728.239 94.0213 728.986 94.768C729.732 95.5147 730.778 95.888 732.122 95.888C733.508 95.888 734.564 95.5147 735.29 94.768C736.036 94.0213 736.41 92.9227 736.41 91.472V82.736C736.41 82.3733 736.527 82.0747 736.762 81.84C737.018 81.584 737.327 81.456 737.69 81.456ZM760.428 81.2C761.879 81.2 763.052 81.5733 763.948 82.32C764.866 83.0453 765.474 84.08 765.772 85.424H765.292L765.516 84.848C765.772 84.2507 766.21 83.6747 766.828 83.12C767.447 82.5653 768.162 82.1067 768.972 81.744C769.783 81.3813 770.626 81.2 771.5 81.2C772.908 81.2 774.018 81.5093 774.828 82.128C775.639 82.7253 776.215 83.536 776.556 84.56C776.919 85.5627 777.1 86.6933 777.1 87.952V96.688C777.1 97.0507 776.972 97.36 776.716 97.616C776.482 97.872 776.183 98 775.82 98C775.436 98 775.127 97.872 774.892 97.616C774.658 97.36 774.54 97.0507 774.54 96.688V88.016C774.54 87.184 774.412 86.4373 774.156 85.776C773.922 85.0933 773.527 84.56 772.972 84.176C772.439 83.7707 771.703 83.568 770.764 83.568C769.89 83.568 769.09 83.7707 768.364 84.176C767.639 84.56 767.063 85.0933 766.636 85.776C766.21 86.4373 765.996 87.184 765.996 88.016V96.688C765.996 97.0507 765.879 97.36 765.644 97.616C765.41 97.872 765.1 98 764.716 98C764.354 98 764.044 97.872 763.788 97.616C763.554 97.36 763.436 97.0507 763.436 96.688V87.92C763.436 87.1093 763.319 86.384 763.084 85.744C762.871 85.0827 762.498 84.56 761.964 84.176C761.431 83.7707 760.695 83.568 759.756 83.568C758.903 83.568 758.124 83.7707 757.42 84.176C756.716 84.56 756.151 85.0827 755.724 85.744C755.298 86.384 755.084 87.1093 755.084 87.92V96.688C755.084 97.0507 754.956 97.36 754.7 97.616C754.466 97.872 754.167 98 753.804 98C753.442 98 753.132 97.872 752.876 97.616C752.642 97.36 752.524 97.0507 752.524 96.688V82.736C752.524 82.3733 752.642 82.0747 752.876 81.84C753.132 81.584 753.442 81.456 753.804 81.456C754.188 81.456 754.498 81.584 754.732 81.84C754.967 82.0747 755.084 82.3733 755.084 82.736V85.168L754.38 85.936C754.466 85.3813 754.679 84.8267 755.02 84.272C755.383 83.7173 755.842 83.2053 756.396 82.736C756.951 82.2667 757.57 81.8933 758.252 81.616C758.935 81.3387 759.66 81.2 760.428 81.2ZM789.485 98.32C787.778 98.32 786.285 97.9573 785.005 97.232C783.725 96.5067 782.722 95.5147 781.997 94.256C781.293 92.976 780.941 91.504 780.941 89.84C780.941 87.984 781.303 86.4053 782.029 85.104C782.775 83.7813 783.735 82.7787 784.909 82.096C786.103 81.392 787.362 81.04 788.685 81.04C789.666 81.04 790.615 81.2213 791.533 81.584C792.45 81.9467 793.261 82.48 793.965 83.184C794.669 83.8667 795.234 84.6987 795.661 85.68C796.087 86.64 796.311 87.7173 796.333 88.912C796.333 89.2533 796.205 89.5413 795.949 89.776C795.693 90.0107 795.394 90.128 795.053 90.128H782.413L781.837 87.92H794.157L793.645 88.368V87.664C793.559 86.7893 793.261 86.0427 792.749 85.424C792.258 84.784 791.65 84.2933 790.925 83.952C790.221 83.6107 789.474 83.44 788.685 83.44C788.045 83.44 787.405 83.5573 786.765 83.792C786.146 84.0053 785.581 84.368 785.069 84.88C784.578 85.3707 784.173 86.0107 783.853 86.8C783.554 87.5893 783.405 88.5387 783.405 89.648C783.405 90.8853 783.65 91.9733 784.141 92.912C784.653 93.8507 785.357 94.5973 786.253 95.152C787.149 95.6853 788.194 95.952 789.389 95.952C790.135 95.952 790.786 95.856 791.341 95.664C791.895 95.472 792.375 95.2373 792.781 94.96C793.186 94.6613 793.527 94.3627 793.805 94.064C794.082 93.872 794.349 93.776 794.605 93.776C794.925 93.776 795.181 93.8827 795.373 94.096C795.586 94.3093 795.693 94.5653 795.693 94.864C795.693 95.2267 795.522 95.5467 795.181 95.824C794.583 96.4853 793.773 97.072 792.749 97.584C791.725 98.0747 790.637 98.32 789.485 98.32ZM808.405 81.04C809.855 81.04 810.997 81.3387 811.829 81.936C812.661 82.5333 813.247 83.3333 813.589 84.336C813.951 85.3387 814.133 86.4587 814.133 87.696V96.688C814.133 97.0507 814.005 97.36 813.749 97.616C813.514 97.872 813.215 98 812.853 98C812.49 98 812.181 97.872 811.925 97.616C811.69 97.36 811.573 97.0507 811.573 96.688V87.76C811.573 86.9493 811.445 86.224 811.189 85.584C810.954 84.9227 810.549 84.4 809.973 84.016C809.418 83.6107 808.65 83.408 807.669 83.408C806.773 83.408 805.951 83.6107 805.205 84.016C804.458 84.4 803.861 84.9227 803.413 85.584C802.965 86.224 802.741 86.9493 802.741 87.76V96.688C802.741 97.0507 802.613 97.36 802.357 97.616C802.122 97.872 801.823 98 801.461 98C801.098 98 800.789 97.872 800.533 97.616C800.298 97.36 800.181 97.0507 800.181 96.688V82.736C800.181 82.3733 800.298 82.0747 800.533 81.84C800.789 81.584 801.098 81.456 801.461 81.456C801.845 81.456 802.154 81.584 802.389 81.84C802.623 82.0747 802.741 82.3733 802.741 82.736V85.008L802.101 85.712C802.207 85.1573 802.453 84.6027 802.837 84.048C803.221 83.472 803.701 82.96 804.277 82.512C804.853 82.064 805.493 81.712 806.197 81.456C806.901 81.1787 807.637 81.04 808.405 81.04ZM832.5 74.32C832.863 74.32 833.161 74.448 833.396 74.704C833.652 74.9387 833.78 75.2373 833.78 75.6V96.688C833.78 97.0507 833.652 97.36 833.396 97.616C833.161 97.872 832.863 98 832.5 98C832.116 98 831.807 97.872 831.572 97.616C831.337 97.36 831.22 97.0507 831.22 96.688V93.648L831.828 93.424C831.828 93.936 831.668 94.48 831.348 95.056C831.028 95.6107 830.591 96.1333 830.036 96.624C829.481 97.1147 828.82 97.52 828.052 97.84C827.305 98.16 826.495 98.32 825.62 98.32C824.191 98.32 822.889 97.9467 821.716 97.2C820.564 96.4533 819.647 95.4293 818.964 94.128C818.303 92.8267 817.972 91.344 817.972 89.68C817.972 87.9947 818.303 86.5013 818.964 85.2C819.647 83.8987 820.564 82.8853 821.716 82.16C822.868 81.4133 824.148 81.04 825.556 81.04C826.452 81.04 827.295 81.1893 828.084 81.488C828.873 81.7867 829.556 82.192 830.132 82.704C830.729 83.216 831.199 83.7813 831.54 84.4C831.881 85.0187 832.052 85.6373 832.052 86.256L831.22 86.064V75.6C831.22 75.2373 831.337 74.9387 831.572 74.704C831.807 74.448 832.116 74.32 832.5 74.32ZM825.908 95.952C826.975 95.952 827.913 95.6853 828.724 95.152C829.556 94.5973 830.196 93.8507 830.644 92.912C831.113 91.952 831.348 90.8747 831.348 89.68C831.348 88.464 831.113 87.3867 830.644 86.448C830.196 85.5093 829.556 84.7733 828.724 84.24C827.913 83.6853 826.975 83.408 825.908 83.408C824.863 83.408 823.924 83.6853 823.092 84.24C822.281 84.7733 821.641 85.5093 821.172 86.448C820.703 87.3867 820.468 88.464 820.468 89.68C820.468 90.8533 820.703 91.92 821.172 92.88C821.641 93.8187 822.281 94.5653 823.092 95.12C823.924 95.6747 824.863 95.952 825.908 95.952ZM852.156 81.296C852.519 81.296 852.818 81.424 853.052 81.68C853.308 81.9147 853.436 82.2133 853.436 82.576V96.688C853.436 97.0507 853.308 97.36 853.052 97.616C852.818 97.872 852.519 98 852.156 98C851.772 98 851.463 97.872 851.228 97.616C850.994 97.36 850.876 97.0507 850.876 96.688V93.648L851.484 93.584C851.484 94.0533 851.324 94.5653 851.004 95.12C850.684 95.6747 850.247 96.1973 849.692 96.688C849.138 97.1573 848.476 97.552 847.708 97.872C846.962 98.1707 846.151 98.32 845.276 98.32C843.826 98.32 842.524 97.9467 841.372 97.2C840.22 96.432 839.303 95.3973 838.62 94.096C837.959 92.7947 837.628 91.312 837.628 89.648C837.628 87.9627 837.959 86.48 838.62 85.2C839.303 83.8987 840.22 82.8853 841.372 82.16C842.524 81.4133 843.804 81.04 845.212 81.04C846.13 81.04 846.983 81.1893 847.772 81.488C848.562 81.7867 849.244 82.192 849.82 82.704C850.418 83.216 850.876 83.7813 851.196 84.4C851.538 85.0187 851.708 85.6373 851.708 86.256L850.876 86.064V82.576C850.876 82.2133 850.994 81.9147 851.228 81.68C851.463 81.424 851.772 81.296 852.156 81.296ZM845.564 95.952C846.631 95.952 847.57 95.6747 848.38 95.12C849.212 94.5653 849.852 93.8187 850.3 92.88C850.77 91.92 851.004 90.8427 851.004 89.648C851.004 88.4747 850.77 87.4187 850.3 86.48C849.852 85.52 849.212 84.7733 848.38 84.24C847.57 83.6853 846.631 83.408 845.564 83.408C844.519 83.408 843.58 83.6747 842.748 84.208C841.938 84.7413 841.298 85.4773 840.828 86.416C840.359 87.3547 840.124 88.432 840.124 89.648C840.124 90.8427 840.348 91.92 840.796 92.88C841.266 93.8187 841.906 94.5653 842.716 95.12C843.548 95.6747 844.498 95.952 845.564 95.952ZM866.341 81.2C867.791 81.2 869.093 81.5627 870.245 82.288C871.397 83.0133 872.303 84.016 872.965 85.296C873.647 86.576 873.989 88.048 873.989 89.712C873.989 91.3547 873.647 92.8267 872.965 94.128C872.303 95.408 871.397 96.4213 870.245 97.168C869.114 97.8933 867.834 98.256 866.405 98.256C865.615 98.256 864.869 98.1387 864.165 97.904C863.482 97.648 862.853 97.328 862.277 96.944C861.722 96.5387 861.253 96.0907 860.869 95.6C860.485 95.088 860.207 94.5867 860.036 94.096L860.741 93.648V103.088C860.741 103.451 860.623 103.76 860.389 104.016C860.154 104.272 859.845 104.4 859.461 104.4C859.098 104.4 858.789 104.272 858.533 104.016C858.298 103.781 858.181 103.472 858.181 103.088V82.64C858.181 82.2773 858.298 81.9787 858.533 81.744C858.789 81.488 859.098 81.36 859.461 81.36C859.845 81.36 860.154 81.488 860.389 81.744C860.623 81.9787 860.741 82.2773 860.741 82.64V85.488L860.261 85.232C860.41 84.6987 860.666 84.1867 861.029 83.696C861.413 83.2053 861.871 82.7787 862.405 82.416C862.959 82.032 863.567 81.7333 864.229 81.52C864.911 81.3067 865.615 81.2 866.341 81.2ZM866.053 83.568C864.986 83.568 864.037 83.8347 863.205 84.368C862.394 84.9013 861.754 85.6267 861.285 86.544C860.837 87.4613 860.613 88.5173 860.613 89.712C860.613 90.8853 860.837 91.9413 861.285 92.88C861.754 93.8187 862.394 94.5547 863.205 95.088C864.037 95.6213 864.986 95.888 866.053 95.888C867.119 95.888 868.058 95.6213 868.869 95.088C869.679 94.5547 870.319 93.8187 870.789 92.88C871.258 91.9413 871.493 90.8853 871.493 89.712C871.493 88.5173 871.258 87.4613 870.789 86.544C870.319 85.6267 869.679 84.9013 868.869 84.368C868.058 83.8347 867.119 83.568 866.053 83.568ZM891.469 81.296C891.831 81.296 892.13 81.424 892.365 81.68C892.621 81.9147 892.749 82.2133 892.749 82.576V96.688C892.749 97.0507 892.621 97.36 892.365 97.616C892.13 97.872 891.831 98 891.469 98C891.085 98 890.775 97.872 890.541 97.616C890.306 97.36 890.189 97.0507 890.189 96.688V93.648L890.797 93.584C890.797 94.0533 890.637 94.5653 890.317 95.12C889.997 95.6747 889.559 96.1973 889.005 96.688C888.45 97.1573 887.789 97.552 887.021 97.872C886.274 98.1707 885.463 98.32 884.589 98.32C883.138 98.32 881.837 97.9467 880.685 97.2C879.533 96.432 878.615 95.3973 877.933 94.096C877.271 92.7947 876.941 91.312 876.941 89.648C876.941 87.9627 877.271 86.48 877.933 85.2C878.615 83.8987 879.533 82.8853 880.685 82.16C881.837 81.4133 883.117 81.04 884.525 81.04C885.442 81.04 886.295 81.1893 887.085 81.488C887.874 81.7867 888.557 82.192 889.133 82.704C889.73 83.216 890.189 83.7813 890.509 84.4C890.85 85.0187 891.021 85.6373 891.021 86.256L890.189 86.064V82.576C890.189 82.2133 890.306 81.9147 890.541 81.68C890.775 81.424 891.085 81.296 891.469 81.296ZM884.877 95.952C885.943 95.952 886.882 95.6747 887.693 95.12C888.525 94.5653 889.165 93.8187 889.613 92.88C890.082 91.92 890.317 90.8427 890.317 89.648C890.317 88.4747 890.082 87.4187 889.613 86.48C889.165 85.52 888.525 84.7733 887.693 84.24C886.882 83.6853 885.943 83.408 884.877 83.408C883.831 83.408 882.893 83.6747 882.061 84.208C881.25 84.7413 880.61 85.4773 880.141 86.416C879.671 87.3547 879.437 88.432 879.437 89.648C879.437 90.8427 879.661 91.92 880.109 92.88C880.578 93.8187 881.218 94.5653 882.029 95.12C882.861 95.6747 883.81 95.952 884.877 95.952ZM896.853 81.552H904.373C904.714 81.552 904.992 81.6693 905.205 81.904C905.44 82.1387 905.557 82.416 905.557 82.736C905.557 83.0773 905.44 83.3653 905.205 83.6C904.992 83.8133 904.714 83.92 904.373 83.92H896.853C896.533 83.92 896.256 83.8027 896.021 83.568C895.786 83.3333 895.669 83.0453 895.669 82.704C895.669 82.384 895.786 82.1173 896.021 81.904C896.256 81.6693 896.533 81.552 896.853 81.552ZM900.213 77.2C900.576 77.2 900.874 77.328 901.109 77.584C901.344 77.8187 901.461 78.1173 901.461 78.48V93.936C901.461 94.448 901.536 94.832 901.685 95.088C901.834 95.344 902.026 95.5253 902.261 95.632C902.517 95.7173 902.762 95.76 902.997 95.76C903.21 95.76 903.392 95.728 903.541 95.664C903.712 95.5787 903.904 95.536 904.117 95.536C904.33 95.536 904.522 95.6427 904.693 95.856C904.885 96.048 904.981 96.304 904.981 96.624C904.981 97.008 904.757 97.3387 904.309 97.616C903.861 97.872 903.36 98 902.805 98C902.506 98 902.133 97.9787 901.685 97.936C901.258 97.8933 900.832 97.7547 900.405 97.52C899.978 97.2853 899.616 96.9013 899.317 96.368C899.04 95.8133 898.901 95.0453 898.901 94.064V78.48C898.901 78.1173 899.029 77.8187 899.285 77.584C899.541 77.328 899.85 77.2 900.213 77.2ZM358.731 121.2C360.182 121.2 361.483 121.563 362.635 122.288C363.787 123.013 364.694 124.016 365.355 125.296C366.038 126.576 366.379 128.048 366.379 129.712C366.379 131.355 366.038 132.827 365.355 134.128C364.694 135.408 363.787 136.421 362.635 137.168C361.504 137.893 360.224 138.256 358.795 138.256C358.006 138.256 357.259 138.139 356.555 137.904C355.872 137.648 355.243 137.328 354.667 136.944C354.112 136.539 353.643 136.091 353.259 135.6C352.875 135.088 352.598 134.587 352.427 134.096L353.131 133.648V143.088C353.131 143.451 353.014 143.76 352.779 144.016C352.544 144.272 352.235 144.4 351.851 144.4C351.488 144.4 351.179 144.272 350.923 144.016C350.688 143.781 350.571 143.472 350.571 143.088V122.64C350.571 122.277 350.688 121.979 350.923 121.744C351.179 121.488 351.488 121.36 351.851 121.36C352.235 121.36 352.544 121.488 352.779 121.744C353.014 121.979 353.131 122.277 353.131 122.64V125.488L352.651 125.232C352.8 124.699 353.056 124.187 353.419 123.696C353.803 123.205 354.262 122.779 354.795 122.416C355.35 122.032 355.958 121.733 356.619 121.52C357.302 121.307 358.006 121.2 358.731 121.2ZM358.443 123.568C357.376 123.568 356.427 123.835 355.595 124.368C354.784 124.901 354.144 125.627 353.675 126.544C353.227 127.461 353.003 128.517 353.003 129.712C353.003 130.885 353.227 131.941 353.675 132.88C354.144 133.819 354.784 134.555 355.595 135.088C356.427 135.621 357.376 135.888 358.443 135.888C359.51 135.888 360.448 135.621 361.259 135.088C362.07 134.555 362.71 133.819 363.179 132.88C363.648 131.941 363.883 130.885 363.883 129.712C363.883 128.517 363.648 127.461 363.179 126.544C362.71 125.627 362.07 124.901 361.259 124.368C360.448 123.835 359.51 123.568 358.443 123.568ZM377.875 138.32C376.169 138.32 374.675 137.957 373.395 137.232C372.115 136.507 371.113 135.515 370.387 134.256C369.683 132.976 369.331 131.504 369.331 129.84C369.331 127.984 369.694 126.405 370.419 125.104C371.166 123.781 372.126 122.779 373.299 122.096C374.494 121.392 375.753 121.04 377.075 121.04C378.057 121.04 379.006 121.221 379.923 121.584C380.841 121.947 381.651 122.48 382.355 123.184C383.059 123.867 383.625 124.699 384.051 125.68C384.478 126.64 384.702 127.717 384.723 128.912C384.723 129.253 384.595 129.541 384.339 129.776C384.083 130.011 383.785 130.128 383.443 130.128H370.803L370.227 127.92H382.547L382.035 128.368V127.664C381.95 126.789 381.651 126.043 381.139 125.424C380.649 124.784 380.041 124.293 379.315 123.952C378.611 123.611 377.865 123.44 377.075 123.44C376.435 123.44 375.795 123.557 375.155 123.792C374.537 124.005 373.971 124.368 373.459 124.88C372.969 125.371 372.563 126.011 372.243 126.8C371.945 127.589 371.795 128.539 371.795 129.648C371.795 130.885 372.041 131.973 372.531 132.912C373.043 133.851 373.747 134.597 374.643 135.152C375.539 135.685 376.585 135.952 377.779 135.952C378.526 135.952 379.177 135.856 379.731 135.664C380.286 135.472 380.766 135.237 381.171 134.96C381.577 134.661 381.918 134.363 382.195 134.064C382.473 133.872 382.739 133.776 382.995 133.776C383.315 133.776 383.571 133.883 383.763 134.096C383.977 134.309 384.083 134.565 384.083 134.864C384.083 135.227 383.913 135.547 383.571 135.824C382.974 136.485 382.163 137.072 381.139 137.584C380.115 138.075 379.027 138.32 377.875 138.32ZM389.851 138C389.488 138 389.179 137.872 388.923 137.616C388.688 137.36 388.571 137.051 388.571 136.688V122.736C388.571 122.373 388.688 122.075 388.923 121.84C389.179 121.584 389.488 121.456 389.851 121.456C390.235 121.456 390.544 121.584 390.779 121.84C391.014 122.075 391.131 122.373 391.131 122.736V126.96L390.747 126.288C390.875 125.627 391.099 124.987 391.419 124.368C391.76 123.728 392.187 123.163 392.699 122.672C393.211 122.16 393.798 121.765 394.459 121.488C395.12 121.189 395.846 121.04 396.635 121.04C397.104 121.04 397.531 121.157 397.915 121.392C398.32 121.605 398.523 121.915 398.523 122.32C398.523 122.768 398.406 123.099 398.171 123.312C397.936 123.525 397.67 123.632 397.371 123.632C397.094 123.632 396.827 123.579 396.571 123.472C396.315 123.344 395.995 123.28 395.611 123.28C395.078 123.28 394.544 123.429 394.011 123.728C393.499 124.005 393.019 124.411 392.571 124.944C392.144 125.477 391.792 126.085 391.515 126.768C391.259 127.429 391.131 128.144 391.131 128.912V136.688C391.131 137.051 391.003 137.36 390.747 137.616C390.512 137.872 390.214 138 389.851 138ZM404.231 136.688C404.231 137.051 404.103 137.36 403.847 137.616C403.591 137.872 403.282 138 402.919 138C402.556 138 402.258 137.872 402.023 137.616C401.788 137.36 401.671 137.051 401.671 136.688V115.6C401.671 115.237 401.788 114.939 402.023 114.704C402.279 114.448 402.588 114.32 402.951 114.32C403.335 114.32 403.644 114.448 403.879 114.704C404.114 114.939 404.231 115.237 404.231 115.6V136.688ZM422.828 121.296C423.191 121.296 423.489 121.424 423.724 121.68C423.98 121.915 424.108 122.213 424.108 122.576V136.688C424.108 137.051 423.98 137.36 423.724 137.616C423.489 137.872 423.191 138 422.828 138C422.444 138 422.135 137.872 421.9 137.616C421.665 137.36 421.548 137.051 421.548 136.688V133.648L422.156 133.584C422.156 134.053 421.996 134.565 421.676 135.12C421.356 135.675 420.919 136.197 420.364 136.688C419.809 137.157 419.148 137.552 418.38 137.872C417.633 138.171 416.823 138.32 415.948 138.32C414.497 138.32 413.196 137.947 412.044 137.2C410.892 136.432 409.975 135.397 409.292 134.096C408.631 132.795 408.3 131.312 408.3 129.648C408.3 127.963 408.631 126.48 409.292 125.2C409.975 123.899 410.892 122.885 412.044 122.16C413.196 121.413 414.476 121.04 415.884 121.04C416.801 121.04 417.655 121.189 418.444 121.488C419.233 121.787 419.916 122.192 420.492 122.704C421.089 123.216 421.548 123.781 421.868 124.4C422.209 125.019 422.38 125.637 422.38 126.256L421.548 126.064V122.576C421.548 122.213 421.665 121.915 421.9 121.68C422.135 121.424 422.444 121.296 422.828 121.296ZM416.236 135.952C417.303 135.952 418.241 135.675 419.052 135.12C419.884 134.565 420.524 133.819 420.972 132.88C421.441 131.92 421.676 130.843 421.676 129.648C421.676 128.475 421.441 127.419 420.972 126.48C420.524 125.52 419.884 124.773 419.052 124.24C418.241 123.685 417.303 123.408 416.236 123.408C415.191 123.408 414.252 123.675 413.42 124.208C412.609 124.741 411.969 125.477 411.5 126.416C411.031 127.355 410.796 128.432 410.796 129.648C410.796 130.843 411.02 131.92 411.468 132.88C411.937 133.819 412.577 134.565 413.388 135.12C414.22 135.675 415.169 135.952 416.236 135.952ZM430.388 138C430.004 138 429.695 137.872 429.46 137.616C429.226 137.36 429.108 137.051 429.108 136.688V115.6C429.108 115.237 429.226 114.939 429.46 114.704C429.695 114.448 430.004 114.32 430.388 114.32C430.751 114.32 431.05 114.448 431.284 114.704C431.54 114.939 431.668 115.237 431.668 115.6V136.688C431.668 137.051 431.54 137.36 431.284 137.616C431.05 137.872 430.751 138 430.388 138ZM441.012 121.36C441.354 121.36 441.642 121.499 441.876 121.776C442.132 122.032 442.26 122.299 442.26 122.576C442.26 122.939 442.09 123.259 441.748 123.536L431.38 132.592L431.284 129.616L440.116 121.744C440.372 121.488 440.671 121.36 441.012 121.36ZM441.364 137.968C441.002 137.968 440.682 137.829 440.404 137.552L433.588 130.288L435.508 128.528L442.26 135.76C442.516 136.037 442.644 136.357 442.644 136.72C442.644 137.104 442.495 137.413 442.196 137.648C441.898 137.861 441.62 137.968 441.364 137.968ZM458.58 121.456C458.964 121.456 459.273 121.584 459.508 121.84C459.743 122.075 459.86 122.373 459.86 122.736V131.472C459.86 133.627 459.252 135.301 458.036 136.496C456.841 137.669 455.167 138.256 453.012 138.256C450.879 138.256 449.204 137.669 447.988 136.496C446.793 135.301 446.196 133.627 446.196 131.472V122.736C446.196 122.373 446.313 122.075 446.548 121.84C446.804 121.584 447.113 121.456 447.476 121.456C447.86 121.456 448.169 121.584 448.404 121.84C448.639 122.075 448.756 122.373 448.756 122.736V131.472C448.756 132.923 449.129 134.021 449.876 134.768C450.623 135.515 451.668 135.888 453.012 135.888C454.399 135.888 455.455 135.515 456.18 134.768C456.927 134.021 457.3 132.923 457.3 131.472V122.736C457.3 122.373 457.417 122.075 457.652 121.84C457.908 121.584 458.217 121.456 458.58 121.456ZM478.234 121.296C478.597 121.296 478.896 121.424 479.13 121.68C479.386 121.915 479.514 122.213 479.514 122.576V136.688C479.514 137.051 479.386 137.36 479.13 137.616C478.896 137.872 478.597 138 478.234 138C477.85 138 477.541 137.872 477.306 137.616C477.072 137.36 476.954 137.051 476.954 136.688V133.648L477.562 133.584C477.562 134.053 477.402 134.565 477.082 135.12C476.762 135.675 476.325 136.197 475.77 136.688C475.216 137.157 474.554 137.552 473.786 137.872C473.04 138.171 472.229 138.32 471.354 138.32C469.904 138.32 468.602 137.947 467.45 137.2C466.298 136.432 465.381 135.397 464.698 134.096C464.037 132.795 463.706 131.312 463.706 129.648C463.706 127.963 464.037 126.48 464.698 125.2C465.381 123.899 466.298 122.885 467.45 122.16C468.602 121.413 469.882 121.04 471.29 121.04C472.208 121.04 473.061 121.189 473.85 121.488C474.64 121.787 475.322 122.192 475.898 122.704C476.496 123.216 476.954 123.781 477.274 124.4C477.616 125.019 477.786 125.637 477.786 126.256L476.954 126.064V122.576C476.954 122.213 477.072 121.915 477.306 121.68C477.541 121.424 477.85 121.296 478.234 121.296ZM471.642 135.952C472.709 135.952 473.648 135.675 474.458 135.12C475.29 134.565 475.93 133.819 476.378 132.88C476.848 131.92 477.082 130.843 477.082 129.648C477.082 128.475 476.848 127.419 476.378 126.48C475.93 125.52 475.29 124.773 474.458 124.24C473.648 123.685 472.709 123.408 471.642 123.408C470.597 123.408 469.658 123.675 468.826 124.208C468.016 124.741 467.376 125.477 466.906 126.416C466.437 127.355 466.202 128.432 466.202 129.648C466.202 130.843 466.426 131.92 466.874 132.88C467.344 133.819 467.984 134.565 468.794 135.12C469.626 135.675 470.576 135.952 471.642 135.952ZM492.483 121.04C493.933 121.04 495.075 121.339 495.907 121.936C496.739 122.533 497.325 123.333 497.667 124.336C498.029 125.339 498.211 126.459 498.211 127.696V136.688C498.211 137.051 498.083 137.36 497.827 137.616C497.592 137.872 497.293 138 496.931 138C496.568 138 496.259 137.872 496.003 137.616C495.768 137.36 495.651 137.051 495.651 136.688V127.76C495.651 126.949 495.523 126.224 495.267 125.584C495.032 124.923 494.627 124.4 494.051 124.016C493.496 123.611 492.728 123.408 491.747 123.408C490.851 123.408 490.029 123.611 489.283 124.016C488.536 124.4 487.939 124.923 487.491 125.584C487.043 126.224 486.819 126.949 486.819 127.76V136.688C486.819 137.051 486.691 137.36 486.435 137.616C486.2 137.872 485.901 138 485.539 138C485.176 138 484.867 137.872 484.611 137.616C484.376 137.36 484.259 137.051 484.259 136.688V122.736C484.259 122.373 484.376 122.075 484.611 121.84C484.867 121.584 485.176 121.456 485.539 121.456C485.923 121.456 486.232 121.584 486.467 121.84C486.701 122.075 486.819 122.373 486.819 122.736V125.008L486.179 125.712C486.285 125.157 486.531 124.603 486.915 124.048C487.299 123.472 487.779 122.96 488.355 122.512C488.931 122.064 489.571 121.712 490.275 121.456C490.979 121.179 491.715 121.04 492.483 121.04ZM519.919 121.04C521.369 121.04 522.671 121.413 523.823 122.16C524.975 122.885 525.881 123.888 526.543 125.168C527.225 126.448 527.567 127.931 527.567 129.616C527.567 131.301 527.225 132.795 526.543 134.096C525.881 135.397 524.975 136.432 523.823 137.2C522.692 137.947 521.412 138.32 519.983 138.32C519.193 138.32 518.447 138.203 517.743 137.968C517.06 137.712 516.431 137.381 515.855 136.976C515.3 136.549 514.831 136.091 514.447 135.6C514.063 135.088 513.785 134.587 513.615 134.096L514.319 133.648V136.848C514.319 137.211 514.201 137.52 513.967 137.776C513.732 138.032 513.423 138.16 513.039 138.16C512.676 138.16 512.367 138.043 512.111 137.808C511.876 137.552 511.759 137.232 511.759 136.848V115.632C511.759 115.269 511.876 114.96 512.111 114.704C512.367 114.448 512.676 114.32 513.039 114.32C513.423 114.32 513.732 114.448 513.967 114.704C514.201 114.96 514.319 115.269 514.319 115.632V125.488L513.839 125.232C513.988 124.699 514.244 124.187 514.607 123.696C514.991 123.184 515.449 122.736 515.983 122.352C516.537 121.947 517.145 121.627 517.807 121.392C518.489 121.157 519.193 121.04 519.919 121.04ZM519.631 123.408C518.564 123.408 517.615 123.675 516.783 124.208C515.972 124.741 515.332 125.477 514.863 126.416C514.415 127.355 514.191 128.421 514.191 129.616C514.191 130.811 514.415 131.888 514.863 132.848C515.332 133.808 515.972 134.565 516.783 135.12C517.615 135.675 518.564 135.952 519.631 135.952C520.697 135.952 521.636 135.675 522.447 135.12C523.257 134.565 523.897 133.808 524.367 132.848C524.836 131.888 525.071 130.811 525.071 129.616C525.071 128.421 524.836 127.355 524.367 126.416C523.897 125.477 523.257 124.741 522.447 124.208C521.636 123.675 520.697 123.408 519.631 123.408ZM543.799 121.456C544.183 121.456 544.492 121.584 544.727 121.84C544.962 122.075 545.079 122.373 545.079 122.736V131.472C545.079 133.627 544.471 135.301 543.255 136.496C542.06 137.669 540.386 138.256 538.231 138.256C536.098 138.256 534.423 137.669 533.207 136.496C532.012 135.301 531.415 133.627 531.415 131.472V122.736C531.415 122.373 531.532 122.075 531.767 121.84C532.023 121.584 532.332 121.456 532.695 121.456C533.079 121.456 533.388 121.584 533.623 121.84C533.858 122.075 533.975 122.373 533.975 122.736V131.472C533.975 132.923 534.348 134.021 535.095 134.768C535.842 135.515 536.887 135.888 538.231 135.888C539.618 135.888 540.674 135.515 541.399 134.768C542.146 134.021 542.519 132.923 542.519 131.472V122.736C542.519 122.373 542.636 122.075 542.871 121.84C543.127 121.584 543.436 121.456 543.799 121.456ZM552.637 136.688C552.637 137.051 552.509 137.36 552.253 137.616C551.997 137.872 551.688 138 551.325 138C550.962 138 550.664 137.872 550.429 137.616C550.194 137.36 550.077 137.051 550.077 136.688V115.6C550.077 115.237 550.194 114.939 550.429 114.704C550.685 114.448 550.994 114.32 551.357 114.32C551.741 114.32 552.05 114.448 552.285 114.704C552.52 114.939 552.637 115.237 552.637 115.6V136.688ZM560.418 136.688C560.418 137.051 560.29 137.36 560.034 137.616C559.778 137.872 559.469 138 559.106 138C558.744 138 558.445 137.872 558.21 137.616C557.976 137.36 557.858 137.051 557.858 136.688V115.6C557.858 115.237 557.976 114.939 558.21 114.704C558.466 114.448 558.776 114.32 559.138 114.32C559.522 114.32 559.832 114.448 560.066 114.704C560.301 114.939 560.418 115.237 560.418 115.6V136.688ZM577.299 121.2C577.662 121.2 577.96 121.328 578.195 121.584C578.451 121.819 578.579 122.117 578.579 122.48V136.432C578.579 138.224 578.227 139.707 577.523 140.88C576.819 142.075 575.87 142.96 574.675 143.536C573.502 144.112 572.168 144.4 570.675 144.4C569.843 144.4 569.043 144.315 568.275 144.144C567.507 143.973 566.878 143.749 566.387 143.472C565.982 143.28 565.694 143.035 565.523 142.736C565.374 142.459 565.352 142.16 565.459 141.84C565.608 141.456 565.822 141.189 566.099 141.04C566.398 140.891 566.707 140.891 567.027 141.04C567.368 141.189 567.859 141.392 568.499 141.648C569.16 141.925 569.896 142.064 570.707 142.064C571.816 142.064 572.766 141.851 573.555 141.424C574.344 140.997 574.952 140.368 575.379 139.536C575.806 138.725 576.019 137.712 576.019 136.496V134.224L576.403 135.024C576.062 135.685 575.603 136.261 575.027 136.752C574.451 137.243 573.79 137.627 573.043 137.904C572.296 138.181 571.475 138.32 570.579 138.32C569.363 138.32 568.328 138.064 567.475 137.552C566.643 137.019 566.003 136.293 565.555 135.376C565.128 134.437 564.915 133.36 564.915 132.144V122.48C564.915 122.117 565.032 121.819 565.267 121.584C565.523 121.328 565.832 121.2 566.195 121.2C566.579 121.2 566.888 121.328 567.123 121.584C567.358 121.819 567.475 122.117 567.475 122.48V131.568C567.475 133.019 567.795 134.117 568.435 134.864C569.075 135.589 570.067 135.952 571.411 135.952C572.264 135.952 573.032 135.76 573.715 135.376C574.419 134.992 574.974 134.469 575.379 133.808C575.806 133.125 576.019 132.379 576.019 131.568V122.48C576.019 122.117 576.136 121.819 576.371 121.584C576.606 121.328 576.915 121.2 577.299 121.2ZM585.785 136.688C585.785 137.051 585.657 137.36 585.401 137.616C585.166 137.872 584.868 138 584.505 138C584.121 138 583.812 137.872 583.577 137.616C583.342 137.36 583.225 137.051 583.225 136.688V122.48C583.225 122.117 583.342 121.819 583.577 121.584C583.833 121.328 584.142 121.2 584.505 121.2C584.868 121.2 585.166 121.328 585.401 121.584C585.657 121.819 585.785 122.117 585.785 122.48V136.688ZM584.505 119.056C583.972 119.056 583.577 118.949 583.321 118.736C583.065 118.523 582.937 118.192 582.937 117.744V117.296C582.937 116.848 583.076 116.517 583.353 116.304C583.63 116.091 584.025 115.984 584.537 115.984C585.049 115.984 585.433 116.091 585.689 116.304C585.945 116.517 586.073 116.848 586.073 117.296V117.744C586.073 118.192 585.934 118.523 585.657 118.736C585.401 118.949 585.017 119.056 584.505 119.056ZM598.608 121.04C600.058 121.04 601.2 121.339 602.032 121.936C602.864 122.533 603.45 123.333 603.792 124.336C604.154 125.339 604.336 126.459 604.336 127.696V136.688C604.336 137.051 604.208 137.36 603.952 137.616C603.717 137.872 603.418 138 603.056 138C602.693 138 602.384 137.872 602.128 137.616C601.893 137.36 601.776 137.051 601.776 136.688V127.76C601.776 126.949 601.648 126.224 601.392 125.584C601.157 124.923 600.752 124.4 600.176 124.016C599.621 123.611 598.853 123.408 597.872 123.408C596.976 123.408 596.154 123.611 595.408 124.016C594.661 124.4 594.064 124.923 593.616 125.584C593.168 126.224 592.944 126.949 592.944 127.76V136.688C592.944 137.051 592.816 137.36 592.56 137.616C592.325 137.872 592.026 138 591.664 138C591.301 138 590.992 137.872 590.736 137.616C590.501 137.36 590.384 137.051 590.384 136.688V122.736C590.384 122.373 590.501 122.075 590.736 121.84C590.992 121.584 591.301 121.456 591.664 121.456C592.048 121.456 592.357 121.584 592.592 121.84C592.826 122.075 592.944 122.373 592.944 122.736V125.008L592.304 125.712C592.41 125.157 592.656 124.603 593.04 124.048C593.424 123.472 593.904 122.96 594.48 122.512C595.056 122.064 595.696 121.712 596.4 121.456C597.104 121.179 597.84 121.04 598.608 121.04ZM616.015 121.04C616.932 121.04 617.786 121.2 618.575 121.52C619.364 121.819 620.047 122.213 620.623 122.704C621.22 123.195 621.679 123.707 621.999 124.24C622.34 124.773 622.511 125.275 622.511 125.744L621.903 125.36V122.576C621.903 122.213 622.02 121.915 622.255 121.68C622.49 121.424 622.799 121.296 623.183 121.296C623.546 121.296 623.844 121.424 624.079 121.68C624.335 121.915 624.463 122.213 624.463 122.576V136.592C624.463 138.341 624.09 139.792 623.343 140.944C622.618 142.096 621.636 142.96 620.399 143.536C619.162 144.112 617.775 144.4 616.239 144.4C615.599 144.4 614.895 144.315 614.127 144.144C613.359 143.973 612.676 143.76 612.079 143.504C611.482 143.269 611.098 143.024 610.927 142.768C610.607 142.555 610.404 142.309 610.319 142.032C610.255 141.776 610.308 141.531 610.479 141.296C610.671 140.997 610.916 140.848 611.215 140.848C611.535 140.848 611.93 140.944 612.399 141.136C612.591 141.2 612.89 141.307 613.295 141.456C613.722 141.605 614.191 141.733 614.703 141.84C615.236 141.968 615.759 142.032 616.271 142.032C618.084 142.032 619.471 141.552 620.431 140.592C621.412 139.653 621.903 138.405 621.903 136.848V133.872L622.255 134.032C622.127 134.629 621.86 135.184 621.455 135.696C621.071 136.208 620.591 136.667 620.015 137.072C619.46 137.456 618.842 137.765 618.159 138C617.476 138.213 616.783 138.32 616.079 138.32C614.586 138.32 613.242 137.947 612.047 137.2C610.852 136.453 609.903 135.429 609.199 134.128C608.516 132.827 608.175 131.344 608.175 129.68C608.175 127.995 608.516 126.501 609.199 125.2C609.903 123.899 610.842 122.885 612.015 122.16C613.21 121.413 614.543 121.04 616.015 121.04ZM616.335 123.408C615.247 123.408 614.266 123.685 613.391 124.24C612.538 124.773 611.866 125.509 611.375 126.448C610.906 127.387 610.671 128.464 610.671 129.68C610.671 130.853 610.906 131.92 611.375 132.88C611.866 133.819 612.538 134.565 613.391 135.12C614.266 135.675 615.247 135.952 616.335 135.952C617.444 135.952 618.426 135.685 619.279 135.152C620.132 134.597 620.804 133.851 621.295 132.912C621.786 131.973 622.031 130.896 622.031 129.68C622.031 128.443 621.786 127.355 621.295 126.416C620.804 125.477 620.132 124.741 619.279 124.208C618.426 123.675 617.444 123.408 616.335 123.408ZM632.78 127.44C632.78 127.077 632.897 126.779 633.132 126.544C633.388 126.288 633.697 126.16 634.06 126.16C634.999 126.117 635.841 125.915 636.588 125.552C637.335 125.168 637.921 124.635 638.348 123.952C638.796 123.248 639.02 122.416 639.02 121.456C639.02 120.56 638.817 119.771 638.412 119.088C638.028 118.405 637.495 117.872 636.812 117.488C636.151 117.104 635.404 116.912 634.572 116.912C633.783 116.912 633.047 117.083 632.364 117.424C631.681 117.765 631.095 118.213 630.604 118.768C630.369 119.003 630.092 119.163 629.772 119.248C629.473 119.333 629.164 119.269 628.844 119.056C628.481 118.8 628.279 118.501 628.236 118.16C628.215 117.797 628.343 117.467 628.62 117.168C629.324 116.315 630.199 115.643 631.244 115.152C632.289 114.64 633.399 114.384 634.572 114.384C635.873 114.384 637.057 114.683 638.124 115.28C639.191 115.877 640.044 116.709 640.684 117.776C641.324 118.821 641.644 120.048 641.644 121.456C641.644 122.395 641.473 123.259 641.132 124.048C640.812 124.837 640.353 125.541 639.756 126.16C639.159 126.757 638.465 127.237 637.676 127.6C636.887 127.963 636.033 128.187 635.116 128.272C635.052 128.272 635.052 128.272 635.116 128.272C635.18 128.251 635.244 128.219 635.308 128.176V130.8C635.308 131.163 635.191 131.472 634.956 131.728C634.721 131.984 634.423 132.112 634.06 132.112C633.676 132.112 633.367 131.984 633.132 131.728C632.897 131.472 632.78 131.163 632.78 130.8V127.44ZM633.996 138C633.548 138 633.207 137.872 632.972 137.616C632.737 137.339 632.62 136.976 632.62 136.528V135.888C632.62 135.44 632.737 135.088 632.972 134.832C633.207 134.576 633.548 134.448 633.996 134.448H634.284C634.732 134.448 635.073 134.576 635.308 134.832C635.543 135.088 635.66 135.44 635.66 135.888V136.528C635.66 136.976 635.543 137.339 635.308 137.616C635.073 137.872 634.732 138 634.284 138H633.996Z" fill="white"/>
</svg>
