<svg width="973" height="830" viewBox="0 0 973 830" fill="none" xmlns="http://www.w3.org/2000/svg">
<path d="M957.876 40.2218C958.21 209.369 960.913 727.302 957.178 815.139C906.397 826.439 904.762 817.06 853.225 814.911L26.1783 780.381C20.8137 780.16 14.9596 779.705 10.9127 775.16C7.21477 770.956 5.95436 764.308 4.9804 758.082C-3.38419 704.4 39.9856 78.6544 41.3502 27.2481C98.1783 15.7939 173.913 16.6241 231.559 16.5973C291.85 16.5973 337.147 12.42 397.402 13.5179C516.376 15.6868 635.303 20.0851 754.189 26.7192C822.105 30.5752 890.001 35.0738 957.876 40.2218Z" fill="#116D4F"/>
<path d="M578.429 239.099C587.825 267.222 609.002 285.525 629.892 300.252C654.319 317.457 680.033 332.185 702.262 353.761C724.491 375.337 743.476 405.314 747.752 440.721C753.997 492.576 728.189 541.257 701.424 580.881C674.663 620.512 644.226 661.094 638.236 713.002C636.892 724.55 637.148 737.45 642.981 746.4C648.293 754.554 656.924 757.453 664.997 759.829C745.976 783.675 827.903 799.166 910.793 806.309C915.674 806.737 920.752 807.085 925.262 804.635C934.986 799.36 938.023 783.882 939.71 770.507C963.054 586.511 965.773 399.336 968.439 212.944C969.2 160.44 969.856 107.28 959.007 56.777C957.955 51.7763 956.611 46.6216 953.465 43.4752C950.747 41.2058 947.778 39.8803 944.554 39.4987C867.694 22.7159 790.288 14.9638 712.335 16.2491C686.819 16.6441 652.47 11.7237 630.96 33.7482C615.288 49.8282 609.142 78.025 600.991 100.478C585.512 143.088 562.325 190.839 578.429 239.099Z" fill="#15664C"/>
<path d="M867.345 62.5009C900.621 69.4296 927.637 72.5023 961.377 70.4538C961.903 46.9766 961.262 40.0479 961.767 16.5974C824.71 14.7431 25.5015 -13.4069 25.1109 17.1196C24.663 51.9237 34.8348 42.1231 51.9703 38.7492C83.9598 32.2221 174.496 35.6965 206.762 33.6213C334.173 25.4742 833.986 55.5789 867.345 62.5009Z" fill="#CD924C"/>
<path d="M959.882 783.407C959.882 799.434 959.491 805.01 955.074 822.59C795.147 845.09 646.793 804.736 485.892 805.814C452.09 806.034 9.56917 793.308 5.50668 775.307C-2.46728 739.653 10.4077 733.253 25.5588 733.226C94.5015 733.226 199.876 751.181 268.824 752.854C344.772 754.702 877.574 786.259 959.882 783.407Z" fill="#CD924C"/>
<path d="M942.085 270.148C942.085 482.199 941.189 629.737 915.538 790.631C913.788 801.562 909.705 798.758 915.012 807.688C920.325 816.611 950.116 810.339 957.179 812.689C976.783 616.241 972.054 431.617 968.653 233.643C967.7 178.213 968.788 71.1299 961.71 16.4701C935.085 17.1194 935.085 17.1194 933.819 48.6969C931.934 96.1334 942.085 223.12 942.085 270.148Z" fill="#CD924C"/>
<path d="M41.7778 779.009C25.9861 771.88 21.882 770.855 5.5278 775.307C-9.08158 777.804 22.658 114.784 12.8195 41.7482C9.9028 20.1186 14.4132 14.2476 42.9861 10.3448C59.3611 8.12227 51.6007 47.2778 50.6059 65.3527C47.3976 123.48 36.9913 470.873 37.8872 586.411C38.0434 605.838 32.7934 775.079 41.7778 779.009Z" fill="#CD924C"/>
<path d="M24.038 154.388C22.0953 159.161 19.663 163.687 18.6161 168.915C17.9651 172.844 17.7203 176.821 17.8921 180.838C18.2046 211.625 18.5015 242.413 18.788 273.2C19.0015 295.379 19.2151 317.557 20.7359 339.656C22.564 367.538 26.314 395.815 22.1369 423.269C18.9234 444.296 11.163 463.843 8.03277 484.897C4.63173 507.698 6.80881 531.202 7.2359 554.432C7.64735 576.457 6.47548 598.461 5.75673 620.492C4.06402 671.892 -9.4516 786.955 11.9807 779.009C11.9807 755.056 7.91819 726.826 7.91819 702.874C7.91819 668.043 7.91819 633.017 12.5849 598.689C15.5432 576.811 20.3661 554.579 17.2151 532.729C15.4807 521.328 11.5953 510.403 11.3974 498.801C10.9338 474.648 25.8296 454.772 30.8453 431.543C36.4703 406.017 29.8921 379.039 26.6838 352.857C22.5796 319.358 24.0796 285.177 25.5953 251.323L28.0849 195.666C28.4859 180.456 29.7255 165.367 31.7984 150.385C34.1734 135.383 38.2984 120.38 37.9078 105.03C37.6369 94.3527 35.2046 84.0031 33.4911 73.5532C31.4234 60.7602 30.439 47.8333 30.538 34.7725C30.6317 24.423 38.9182 14.2475 47.2046 9.76892C24.2567 13.9931 20.7359 37.6712 23.7671 60.8539C27.7567 91.2531 35.8869 125.16 24.038 154.388Z" fill="#AA762A"/>
<path d="M29.5639 729.002C30.1472 721.497 31.2566 713.049 27.6212 706.997C24.3139 701.374 21.1212 665.847 23.9441 660.719C34.0587 642.316 34.366 618.216 34.2879 595.71C34.2879 570.586 34.116 545.234 30.0691 520.706C29.4962 517.854 29.1525 514.962 29.0379 512.03C29.1525 508.408 29.6316 504.88 30.4754 501.426C33.3972 486.912 35.6889 472.238 37.3452 457.397C34.2722 470.049 32.3243 484.201 28.0639 496.251C25.965 502.202 19.5066 506.949 20.5587 513.402C37.3816 615.512 13.9441 668.418 13.9441 668.418C13.1108 671.611 12.5222 674.884 12.1837 678.225C11.84 681.565 11.7566 684.919 11.9233 688.28C12.09 691.64 12.5066 694.954 13.1733 698.214C13.84 701.475 14.7462 704.614 15.892 707.647C18.2462 713.899 20.2097 720.152 20.2097 724.249C20.1785 737.892 21.1941 751.401 23.2618 764.783C23.9233 769.081 20.7931 778.005 23.0118 781.359C25.2254 784.706 53.2514 786.708 58.7566 786.005C53.1368 770.259 28.2045 746.28 29.5639 729.002Z" fill="#AA762A"/>
<path d="M53.7567 767.582C63.9286 773.633 76.5536 770.534 85.3609 761.657C89.6994 757.306 93.689 751.455 99.1317 750.652C104.58 749.855 109.809 754.554 115.293 754.253C118.257 753.831 121.059 752.72 123.694 750.926C129.746 747.405 149.371 746.802 155.418 743.301C145.418 739.351 125.017 736.279 116.517 738.026C111.6 739.03 106.658 740.028 101.814 741.601C94.5432 743.977 87.4807 747.679 80.0119 748.703C72.5484 749.728 64.6682 741.855 59.9234 734.377C58.7775 732.577 40.2411 726.404 37.7723 732.075C33.8244 741.005 46.8921 763.478 53.7567 767.582Z" fill="#AA762A"/>
<path d="M184.689 784.833C196.861 782.704 208.98 779.504 221.272 779.21C247.663 778.554 273.163 791.307 299.454 794.212C323.845 797.01 348.35 791.333 372.095 783.608C384.798 779.484 398.392 774.785 410.72 780.509C416.85 783.36 422.1 788.582 427.855 792.485C458.158 813.037 499.272 796.836 532.996 804.588C397.788 812.233 313.694 804.434 286.329 801.757C212.246 794.56 127.918 793.281 65.8555 786.761C79.4701 768.405 99.9492 778.058 115.428 783.233C137.642 790.811 162.204 788.756 184.689 784.833Z" fill="#AA762A"/>
<path d="M893.58 785.081C879.325 783.006 794.72 778.433 794.72 778.433C789.705 777.784 738.085 777.135 733.319 776.579C552.981 755.579 372.121 744.687 190.757 743.904C158.434 743.904 138.767 778.032 183.465 769.409C213.861 763.532 246.168 748.503 276.215 764.757C284.595 769.282 292.241 776.104 300.991 779.283C334.793 791.534 370.288 746.079 403.33 761.383C415.002 766.832 424.356 779.357 436.397 783.434C457.788 790.63 478.481 769.208 500.46 765.928C521.272 762.809 541.184 776.084 561.705 781.58C587.71 788.555 614.606 782.932 641.153 781.232C677.851 778.882 859.799 795.009 901.455 796.234C906.726 796.381 914.059 799.962 912.408 806.382C911.95 807.628 911.314 808.705 910.512 809.609C909.705 810.52 908.793 811.189 907.778 811.611C896.731 817.937 884.127 817.508 872.09 816.31C860.049 815.112 847.799 813.184 835.778 810.633C829.163 809.234 822.262 807.661 815.84 810.111C812.653 811.336 809.757 813.512 806.663 815.112C797.481 819.838 787.215 819.236 777.491 818.586C760.746 817.462 743.882 816.337 727.564 811.336C720.038 809.033 712.668 805.907 705.064 804.059C692.517 801.007 679.642 801.562 666.866 801.984C626.507 803.611 585.549 805.512 546.283 793.362C529.71 788.361 512.205 780.636 496.121 787.859C498.496 793.683 503.903 796.334 509.054 796.709C514.21 797.084 519.267 795.732 524.361 795.859C528.929 796.106 533.429 796.937 537.861 798.362C562.231 805.184 586.83 811.812 611.767 811.986C629.835 812.113 647.845 808.833 665.892 809.234C714.512 810.312 762.632 838.04 810.668 827.691C819.575 825.763 828.424 822.563 837.429 823.165C843.127 823.895 848.746 825.16 854.293 826.961C873.877 832.163 891.246 828.815 911.22 827.316C972.871 822.59 907.814 787.036 893.58 785.081Z" fill="#AA762A"/>
<path d="M954.319 203.291C952.064 191.388 951.382 177.317 949.809 165.24C948.309 153.913 953.074 136.882 954.434 125.535C957.392 100.733 952.918 84.405 955.876 59.6291C956.538 54.1263 957.158 48.3222 955.678 43.1006C954.199 37.8723 949.845 33.5745 945.663 35.1476C945.059 41.7751 919.522 13.344 933.642 71.1033L933.876 93.1546C936.21 117.208 946.481 138.683 944.496 162.79C943.814 171.064 942.882 179.466 944.012 187.793C945.043 195.291 947.746 202.34 949.397 209.717C956.632 242.045 942.824 275.979 943.678 309.732C943.991 321.909 946.246 333.885 947.085 346.036C947.632 356.077 947.705 366.132 947.298 376.187L945.606 443.292C944.923 470.498 940.043 503.3 939.168 530.379C937.767 573.886 922.772 729.799 926.527 710.224C929.033 696.748 935.22 680.073 939.303 667.568C947.803 641.714 949.126 613.042 950.33 585.059C953.908 501.774 957.491 418.215 952.548 335.03C951.46 316.808 949.96 298.525 951.012 280.303C952.548 254.523 959.085 228.422 954.319 203.291Z" fill="#AA762A"/>
<path d="M971.996 424.668C970.538 376.388 971.762 329.654 969.121 291.429C963.033 319.459 959.762 388.565 959.762 388.565C962.7 420.243 961.944 452.295 961.147 484.201L960.038 530.406C959.356 558.281 958.658 586.183 955.991 613.865C952.668 648.066 946.377 681.344 937.127 713.698C932.575 729.678 927.246 745.55 925.71 762.454C924.174 779.357 926.991 797.961 936.621 809.636C938.392 811.811 940.882 813.813 943.137 812.635C947.028 810.633 945.47 803.182 943.621 798.336C942.064 794.219 940.799 789.954 939.83 785.549C938.856 781.144 938.189 776.666 937.83 772.114C937.47 767.555 937.418 762.996 937.684 758.43C937.95 753.865 938.522 749.366 939.403 744.928C942.903 727.549 951.069 712.226 954.96 694.921C957.205 684.056 958.606 673.016 959.163 661.797C962.325 620.124 965.491 578.451 968.653 536.779C971.752 499.504 972.866 462.136 971.996 424.668Z" fill="#AA762A"/>
<path d="M952.762 769.483C952.715 770.842 952.897 772.147 953.309 773.406C953.829 774.785 952.079 818.412 955.074 822.59C957.428 825.937 968.809 716.45 967.001 682.094C955.465 694.345 952.449 752.131 952.762 769.483Z" fill="#AA762A"/>
<path d="M956.048 147.513C957.429 151.409 959.726 154.709 960.97 158.713C962.132 163.191 962.58 167.783 962.314 172.49C962.137 198.879 960.606 225.141 957.72 251.269C957.257 255.5 956.788 260.026 958.226 263.774C959.668 267.523 966.241 282.827 968.83 280.129C970.147 279.326 966.397 99.3533 965.95 85.4022C962.293 93.2548 961.71 103.403 959.533 112.059C956.809 123.306 951.887 135.711 956.048 147.513Z" fill="#AA762A"/>
<path d="M357.278 30.4479C393.455 27.248 429.59 21.7988 465.84 22.1C498.455 22.3745 530.934 27.2949 563.397 31.345C613.965 37.6243 664.804 41.7749 715.663 41.9221C749.366 41.9221 783.054 40.3222 816.793 38.6486C842.778 37.3499 869.21 35.9507 893.793 25.0455L747.054 26.0229C706.793 26.2974 666.512 26.5451 626.293 24.7979C603.658 23.8205 580.981 22.1737 558.746 16.7244C543.366 12.922 528.215 7.31878 512.637 5.19665C495.366 2.69295 477.939 4.76821 460.647 6.6962L385.012 15.1713C372.913 16.5236 360.663 17.9227 349.304 23.3987C343.897 25.8957 338.569 29.5241 332.809 29.571C326.741 29.571 321.142 25.7953 315.309 23.3719C294.981 14.8232 273.085 23.7201 251.825 26.7995C185.293 36.4461 116.246 -13.0791 51.0954 9.29363C47.8246 10.4183 47.0121 15.4726 47.2048 19.7971C47.3975 24.1217 50.4704 26.1233 53.2725 27.2949C71.6527 35.375 103.392 35.221 122.705 32.4696C114.674 28.9752 99.6006 27.1944 88.1423 24.5502C87.8037 24.4698 87.4808 24.3226 87.1787 24.1016C86.8766 23.8807 86.611 23.6063 86.3819 23.2715C86.1527 22.9368 85.9756 22.5619 85.8454 22.1469C85.7152 21.7385 85.6423 21.3034 85.6266 20.8615C85.611 20.4197 85.6527 19.9779 85.7516 19.5561C85.8558 19.1277 86.0069 18.7327 86.21 18.3712C86.4131 18.0097 86.6579 17.7085 86.9444 17.4541C87.2256 17.1997 87.5381 17.0123 87.8714 16.8985C91.7569 16.1956 95.6423 16.1286 99.5433 16.6976C107.163 17.1729 114.741 18.1771 122.278 19.6967C141.038 23.0305 159.84 25.8154 178.679 28.0446C216.465 32.4094 254.325 34.3173 292.262 33.775C313.976 33.4738 335.653 32.3625 357.278 30.4479Z" fill="#AA762A"/>
<path d="M961.71 16.5972H943.699C936.205 17.8022 928.986 20.3193 922.043 24.1418C915.1 27.9709 908.705 32.9516 902.856 39.097C898.965 43.2476 895.194 48.0006 890.47 50.3503C886.439 52.0172 882.309 52.7804 878.08 52.6264C861.08 53.249 815.475 55.4515 798.455 56.074C819.85 65.0244 871.173 69.4494 893.366 64.924C901.689 63.2036 910.288 59.6488 915.772 51.4281C917.408 48.5361 919.163 45.7781 921.043 43.1472C923.809 40.2619 926.903 38.1665 930.319 36.8477C941.444 31.5257 953.288 40.1748 964.47 45.2023L961.71 16.5972Z" fill="#AA762A"/>
<path d="M283.876 7.72038C288.684 6.743 293.507 6.56895 298.345 7.19822C306.632 8.69777 342.595 8.59735 349.731 3.02092C338.548 -0.754726 301.809 -0.00495254 290.741 0.195879C271.778 0.543987 185.486 2.09709 179.376 4.99576C186.397 16.1687 218.725 13.1696 229.632 13.0223C247.788 12.4466 265.866 10.6793 283.876 7.72038Z" fill="#AA762A"/>
<path d="M63.7715 99.128C62.9182 99.128 62.0435 99 61.1475 98.744C60.2728 98.4667 59.5048 98.0613 58.8435 97.528C58.6728 97.3787 58.5342 97.1867 58.4275 96.952C58.3208 96.7173 58.2675 96.4933 58.2675 96.28C58.2675 96.024 58.3742 95.7787 58.5875 95.544C58.8222 95.288 59.1208 95.16 59.4835 95.16C59.7608 95.16 60.0808 95.2987 60.4435 95.576C60.9128 95.9387 61.4355 96.2267 62.0115 96.44C62.5875 96.6533 63.1635 96.76 63.7395 96.76C64.9342 96.76 65.9688 96.536 66.8435 96.088C67.7182 95.64 68.3902 95.0107 68.8595 94.2C69.3288 93.3893 69.5635 92.44 69.5635 91.352C69.5635 90.3707 69.3395 89.5173 68.8915 88.792C68.4648 88.0453 67.8568 87.4693 67.0675 87.064C66.2995 86.6587 65.4142 86.456 64.4115 86.456C63.6648 86.456 62.9928 86.5733 62.3955 86.808C61.8195 87.0213 61.3075 87.2453 60.8595 87.48C60.4328 87.7147 60.0595 87.832 59.7395 87.832C59.3342 87.832 59.0248 87.7467 58.8115 87.576C58.5982 87.384 58.4595 87.1493 58.3955 86.872C58.3315 86.5947 58.3102 86.3387 58.3315 86.104L59.5795 77.816C59.6435 77.5387 59.7928 77.2933 60.0275 77.08C60.2622 76.8667 60.5502 76.76 60.8915 76.76H70.3955C70.7368 76.76 71.0248 76.8773 71.2595 77.112C71.4942 77.3467 71.6115 77.6453 71.6115 78.008C71.6115 78.3493 71.4942 78.6373 71.2595 78.872C71.0248 79.0853 70.7368 79.192 70.3955 79.192H61.5315L61.8515 78.904L60.6675 86.136L60.1555 85.464C60.3902 85.2507 60.7422 85.0373 61.2115 84.824C61.7022 84.6107 62.2568 84.4293 62.8755 84.28C63.5155 84.1307 64.1662 84.056 64.8275 84.056C66.2142 84.056 67.4515 84.376 68.5395 85.016C69.6488 85.6347 70.5235 86.488 71.1635 87.576C71.8035 88.664 72.1235 89.912 72.1235 91.32C72.1235 92.8773 71.7822 94.2427 71.0995 95.416C70.4168 96.5893 69.4462 97.5067 68.1875 98.168C66.9502 98.808 65.4782 99.128 63.7715 99.128ZM76.1673 98.968C75.7193 98.968 75.3673 98.84 75.1113 98.584C74.8766 98.328 74.7593 97.976 74.7593 97.528V96.888C74.7593 96.4187 74.8766 96.056 75.1113 95.8C75.3673 95.544 75.7193 95.416 76.1673 95.416H76.4233C76.8926 95.416 77.2446 95.544 77.4793 95.8C77.7139 96.056 77.8313 96.4187 77.8313 96.888V97.528C77.8313 97.976 77.7139 98.328 77.4793 98.584C77.2446 98.84 76.8926 98.968 76.4233 98.968H76.1673ZM115.812 99.064C115.428 99.064 115.108 98.904 114.852 98.584L106.34 87.736L108.292 85.752L116.964 96.856C117.156 97.1333 117.252 97.4213 117.252 97.72C117.252 98.1467 117.092 98.4773 116.772 98.712C116.473 98.9467 116.153 99.064 115.812 99.064ZM115.716 76.568C116.057 76.568 116.334 76.7067 116.548 76.984C116.782 77.2613 116.9 77.5493 116.9 77.848C116.9 78.1467 116.772 78.424 116.516 78.68L102.372 92.056L102.148 89.08L114.692 77.048C115.012 76.728 115.353 76.568 115.716 76.568ZM101.316 99C100.91 99 100.59 98.872 100.356 98.616C100.121 98.36 100.004 98.0507 100.004 97.688V77.912C100.004 77.528 100.132 77.2187 100.388 76.984C100.644 76.728 100.964 76.6 101.348 76.6C101.753 76.6 102.073 76.728 102.308 76.984C102.542 77.2187 102.66 77.528 102.66 77.912V97.688C102.66 98.0507 102.532 98.36 102.276 98.616C102.041 98.872 101.721 99 101.316 99ZM127.922 99.32C126.216 99.32 124.722 98.9573 123.442 98.232C122.162 97.5067 121.16 96.5147 120.434 95.256C119.73 93.976 119.378 92.504 119.378 90.84C119.378 88.984 119.741 87.4053 120.466 86.104C121.213 84.7813 122.173 83.7787 123.346 83.096C124.541 82.392 125.8 82.04 127.122 82.04C128.104 82.04 129.053 82.2213 129.97 82.584C130.888 82.9467 131.698 83.48 132.402 84.184C133.106 84.8667 133.672 85.6987 134.098 86.68C134.525 87.64 134.749 88.7173 134.77 89.912C134.77 90.2533 134.642 90.5413 134.386 90.776C134.13 91.0107 133.832 91.128 133.49 91.128H120.85L120.274 88.92H132.594L132.082 89.368V88.664C131.997 87.7893 131.698 87.0427 131.186 86.424C130.696 85.784 130.088 85.2933 129.362 84.952C128.658 84.6107 127.912 84.44 127.122 84.44C126.482 84.44 125.842 84.5573 125.202 84.792C124.584 85.0053 124.018 85.368 123.506 85.88C123.016 86.3707 122.61 87.0107 122.29 87.8C121.992 88.5893 121.842 89.5387 121.842 90.648C121.842 91.8853 122.088 92.9733 122.578 93.912C123.09 94.8507 123.794 95.5973 124.69 96.152C125.586 96.6853 126.632 96.952 127.826 96.952C128.573 96.952 129.224 96.856 129.778 96.664C130.333 96.472 130.813 96.2373 131.218 95.96C131.624 95.6613 131.965 95.3627 132.242 95.064C132.52 94.872 132.786 94.776 133.042 94.776C133.362 94.776 133.618 94.8827 133.81 95.096C134.024 95.3093 134.13 95.5653 134.13 95.864C134.13 96.2267 133.96 96.5467 133.618 96.824C133.021 97.4853 132.21 98.072 131.186 98.584C130.162 99.0747 129.074 99.32 127.922 99.32ZM145.406 82.04C146.323 82.04 147.176 82.2 147.966 82.52C148.755 82.8187 149.438 83.2133 150.014 83.704C150.611 84.1947 151.07 84.7067 151.39 85.24C151.731 85.7733 151.902 86.2747 151.902 86.744L151.294 86.36V83.576C151.294 83.2133 151.411 82.9147 151.646 82.68C151.88 82.424 152.19 82.296 152.574 82.296C152.936 82.296 153.235 82.424 153.47 82.68C153.726 82.9147 153.854 83.2133 153.854 83.576V97.592C153.854 99.3413 153.48 100.792 152.734 101.944C152.008 103.096 151.027 103.96 149.79 104.536C148.552 105.112 147.166 105.4 145.63 105.4C144.99 105.4 144.286 105.315 143.518 105.144C142.75 104.973 142.067 104.76 141.47 104.504C140.872 104.269 140.488 104.024 140.318 103.768C139.998 103.555 139.795 103.309 139.71 103.032C139.646 102.776 139.699 102.531 139.87 102.296C140.062 101.997 140.307 101.848 140.606 101.848C140.926 101.848 141.32 101.944 141.79 102.136C141.982 102.2 142.28 102.307 142.686 102.456C143.112 102.605 143.582 102.733 144.094 102.84C144.627 102.968 145.15 103.032 145.662 103.032C147.475 103.032 148.862 102.552 149.822 101.592C150.803 100.653 151.294 99.4053 151.294 97.848V94.872L151.646 95.032C151.518 95.6293 151.251 96.184 150.846 96.696C150.462 97.208 149.982 97.6667 149.406 98.072C148.851 98.456 148.232 98.7653 147.55 99C146.867 99.2133 146.174 99.32 145.47 99.32C143.976 99.32 142.632 98.9467 141.438 98.2C140.243 97.4533 139.294 96.4293 138.59 95.128C137.907 93.8267 137.566 92.344 137.566 90.68C137.566 88.9947 137.907 87.5013 138.59 86.2C139.294 84.8987 140.232 83.8853 141.406 83.16C142.6 82.4133 143.934 82.04 145.406 82.04ZM145.726 84.408C144.638 84.408 143.656 84.6853 142.782 85.24C141.928 85.7733 141.256 86.5093 140.766 87.448C140.296 88.3867 140.062 89.464 140.062 90.68C140.062 91.8533 140.296 92.92 140.766 93.88C141.256 94.8187 141.928 95.5653 142.782 96.12C143.656 96.6747 144.638 96.952 145.726 96.952C146.835 96.952 147.816 96.6853 148.67 96.152C149.523 95.5973 150.195 94.8507 150.686 93.912C151.176 92.9733 151.422 91.896 151.422 90.68C151.422 89.4427 151.176 88.3547 150.686 87.416C150.195 86.4773 149.523 85.7413 148.67 85.208C147.816 84.6747 146.835 84.408 145.726 84.408ZM161.051 97.688C161.051 98.0507 160.923 98.36 160.667 98.616C160.432 98.872 160.133 99 159.771 99C159.387 99 159.077 98.872 158.843 98.616C158.608 98.36 158.491 98.0507 158.491 97.688V83.48C158.491 83.1173 158.608 82.8187 158.843 82.584C159.099 82.328 159.408 82.2 159.771 82.2C160.133 82.2 160.432 82.328 160.667 82.584C160.923 82.8187 161.051 83.1173 161.051 83.48V97.688ZM159.771 80.056C159.237 80.056 158.843 79.9493 158.587 79.736C158.331 79.5227 158.203 79.192 158.203 78.744V78.296C158.203 77.848 158.341 77.5173 158.619 77.304C158.896 77.0907 159.291 76.984 159.803 76.984C160.315 76.984 160.699 77.0907 160.955 77.304C161.211 77.5173 161.339 77.848 161.339 78.296V78.744C161.339 79.192 161.2 79.5227 160.923 79.736C160.667 79.9493 160.283 80.056 159.771 80.056ZM179.281 82.296C179.644 82.296 179.943 82.424 180.177 82.68C180.433 82.9147 180.561 83.2133 180.561 83.576V97.688C180.561 98.0507 180.433 98.36 180.177 98.616C179.943 98.872 179.644 99 179.281 99C178.897 99 178.588 98.872 178.353 98.616C178.119 98.36 178.001 98.0507 178.001 97.688V94.648L178.609 94.584C178.609 95.0533 178.449 95.5653 178.129 96.12C177.809 96.6747 177.372 97.1973 176.817 97.688C176.263 98.1573 175.601 98.552 174.833 98.872C174.087 99.1707 173.276 99.32 172.401 99.32C170.951 99.32 169.649 98.9467 168.497 98.2C167.345 97.432 166.428 96.3973 165.745 95.096C165.084 93.7947 164.753 92.312 164.753 90.648C164.753 88.9627 165.084 87.48 165.745 86.2C166.428 84.8987 167.345 83.8853 168.497 83.16C169.649 82.4133 170.929 82.04 172.337 82.04C173.255 82.04 174.108 82.1893 174.897 82.488C175.687 82.7867 176.369 83.192 176.945 83.704C177.543 84.216 178.001 84.7813 178.321 85.4C178.663 86.0187 178.833 86.6373 178.833 87.256L178.001 87.064V83.576C178.001 83.2133 178.119 82.9147 178.353 82.68C178.588 82.424 178.897 82.296 179.281 82.296ZM172.689 96.952C173.756 96.952 174.695 96.6747 175.505 96.12C176.337 95.5653 176.977 94.8187 177.425 93.88C177.895 92.92 178.129 91.8427 178.129 90.648C178.129 89.4747 177.895 88.4187 177.425 87.48C176.977 86.52 176.337 85.7733 175.505 85.24C174.695 84.6853 173.756 84.408 172.689 84.408C171.644 84.408 170.705 84.6747 169.873 85.208C169.063 85.7413 168.423 86.4773 167.953 87.416C167.484 88.3547 167.249 89.432 167.249 90.648C167.249 91.8427 167.473 92.92 167.921 93.88C168.391 94.8187 169.031 95.5653 169.841 96.12C170.673 96.6747 171.623 96.952 172.689 96.952ZM184.666 82.552H192.186C192.527 82.552 192.804 82.6693 193.018 82.904C193.252 83.1387 193.37 83.416 193.37 83.736C193.37 84.0773 193.252 84.3653 193.018 84.6C192.804 84.8133 192.527 84.92 192.186 84.92H184.666C184.346 84.92 184.068 84.8027 183.834 84.568C183.599 84.3333 183.482 84.0453 183.482 83.704C183.482 83.384 183.599 83.1173 183.834 82.904C184.068 82.6693 184.346 82.552 184.666 82.552ZM188.026 78.2C188.388 78.2 188.687 78.328 188.922 78.584C189.156 78.8187 189.274 79.1173 189.274 79.48V94.936C189.274 95.448 189.348 95.832 189.498 96.088C189.647 96.344 189.839 96.5253 190.074 96.632C190.33 96.7173 190.575 96.76 190.81 96.76C191.023 96.76 191.204 96.728 191.354 96.664C191.524 96.5787 191.716 96.536 191.93 96.536C192.143 96.536 192.335 96.6427 192.506 96.856C192.698 97.048 192.794 97.304 192.794 97.624C192.794 98.008 192.57 98.3387 192.122 98.616C191.674 98.872 191.172 99 190.618 99C190.319 99 189.946 98.9787 189.498 98.936C189.071 98.8933 188.644 98.7547 188.218 98.52C187.791 98.2853 187.428 97.9013 187.13 97.368C186.852 96.8133 186.714 96.0453 186.714 95.064V79.48C186.714 79.1173 186.842 78.8187 187.098 78.584C187.354 78.328 187.663 78.2 188.026 78.2ZM210.562 82.296C210.925 82.296 211.224 82.424 211.458 82.68C211.715 82.9147 211.843 83.2133 211.843 83.576V97.688C211.843 98.0507 211.715 98.36 211.458 98.616C211.224 98.872 210.925 99 210.562 99C210.179 99 209.869 98.872 209.635 98.616C209.4 98.36 209.283 98.0507 209.283 97.688V94.648L209.891 94.584C209.891 95.0533 209.731 95.5653 209.411 96.12C209.091 96.6747 208.653 97.1973 208.099 97.688C207.544 98.1573 206.883 98.552 206.115 98.872C205.368 99.1707 204.557 99.32 203.683 99.32C202.232 99.32 200.931 98.9467 199.779 98.2C198.627 97.432 197.709 96.3973 197.027 95.096C196.365 93.7947 196.035 92.312 196.035 90.648C196.035 88.9627 196.365 87.48 197.027 86.2C197.709 84.8987 198.627 83.8853 199.779 83.16C200.931 82.4133 202.211 82.04 203.619 82.04C204.536 82.04 205.389 82.1893 206.179 82.488C206.968 82.7867 207.651 83.192 208.227 83.704C208.824 84.216 209.283 84.7813 209.603 85.4C209.944 86.0187 210.115 86.6373 210.115 87.256L209.283 87.064V83.576C209.283 83.2133 209.4 82.9147 209.635 82.68C209.869 82.424 210.179 82.296 210.562 82.296ZM203.97 96.952C205.037 96.952 205.976 96.6747 206.787 96.12C207.619 95.5653 208.259 94.8187 208.707 93.88C209.176 92.92 209.411 91.8427 209.411 90.648C209.411 89.4747 209.176 88.4187 208.707 87.48C208.259 86.52 207.619 85.7733 206.787 85.24C205.976 84.6853 205.037 84.408 203.97 84.408C202.925 84.408 201.987 84.6747 201.155 85.208C200.344 85.7413 199.704 86.4773 199.235 87.416C198.765 88.3547 198.531 89.432 198.531 90.648C198.531 91.8427 198.755 92.92 199.203 93.88C199.672 94.8187 200.312 95.5653 201.123 96.12C201.955 96.6747 202.904 96.952 203.97 96.952ZM224.811 82.04C226.261 82.04 227.403 82.3387 228.235 82.936C229.067 83.5333 229.653 84.3333 229.995 85.336C230.357 86.3387 230.539 87.4587 230.539 88.696V97.688C230.539 98.0507 230.411 98.36 230.155 98.616C229.92 98.872 229.621 99 229.259 99C228.896 99 228.587 98.872 228.331 98.616C228.096 98.36 227.979 98.0507 227.979 97.688V88.76C227.979 87.9493 227.851 87.224 227.595 86.584C227.36 85.9227 226.955 85.4 226.379 85.016C225.824 84.6107 225.056 84.408 224.075 84.408C223.179 84.408 222.357 84.6107 221.611 85.016C220.864 85.4 220.267 85.9227 219.819 86.584C219.371 87.224 219.147 87.9493 219.147 88.76V97.688C219.147 98.0507 219.019 98.36 218.763 98.616C218.528 98.872 218.229 99 217.867 99C217.504 99 217.195 98.872 216.939 98.616C216.704 98.36 216.587 98.0507 216.587 97.688V83.736C216.587 83.3733 216.704 83.0747 216.939 82.84C217.195 82.584 217.504 82.456 217.867 82.456C218.251 82.456 218.56 82.584 218.795 82.84C219.029 83.0747 219.147 83.3733 219.147 83.736V86.008L218.507 86.712C218.613 86.1573 218.859 85.6027 219.243 85.048C219.627 84.472 220.107 83.96 220.683 83.512C221.259 83.064 221.899 82.712 222.603 82.456C223.307 82.1787 224.043 82.04 224.811 82.04ZM252.247 82.2C253.697 82.2 254.999 82.5627 256.151 83.288C257.303 84.0133 258.209 85.016 258.871 86.296C259.553 87.576 259.895 89.048 259.895 90.712C259.895 92.3547 259.553 93.8267 258.871 95.128C258.209 96.408 257.303 97.4213 256.151 98.168C255.02 98.8933 253.74 99.256 252.311 99.256C251.521 99.256 250.775 99.1387 250.071 98.904C249.388 98.648 248.759 98.328 248.183 97.944C247.628 97.5387 247.159 97.0907 246.775 96.6C246.391 96.088 246.113 95.5867 245.943 95.096L246.647 94.648V104.088C246.647 104.451 246.529 104.76 246.295 105.016C246.06 105.272 245.751 105.4 245.367 105.4C245.004 105.4 244.695 105.272 244.439 105.016C244.204 104.781 244.087 104.472 244.087 104.088V83.64C244.087 83.2773 244.204 82.9787 244.439 82.744C244.695 82.488 245.004 82.36 245.367 82.36C245.751 82.36 246.06 82.488 246.295 82.744C246.529 82.9787 246.647 83.2773 246.647 83.64V86.488L246.167 86.232C246.316 85.6987 246.572 85.1867 246.935 84.696C247.319 84.2053 247.777 83.7787 248.311 83.416C248.865 83.032 249.473 82.7333 250.135 82.52C250.817 82.3067 251.521 82.2 252.247 82.2ZM251.959 84.568C250.892 84.568 249.943 84.8347 249.111 85.368C248.3 85.9013 247.66 86.6267 247.191 87.544C246.743 88.4613 246.519 89.5173 246.519 90.712C246.519 91.8853 246.743 92.9413 247.191 93.88C247.66 94.8187 248.3 95.5547 249.111 96.088C249.943 96.6213 250.892 96.888 251.959 96.888C253.025 96.888 253.964 96.6213 254.775 96.088C255.585 95.5547 256.225 94.8187 256.695 93.88C257.164 92.9413 257.399 91.8853 257.399 90.712C257.399 89.5173 257.164 88.4613 256.695 87.544C256.225 86.6267 255.585 85.9013 254.775 85.368C253.964 84.8347 253.025 84.568 251.959 84.568ZM279.455 90.68C279.455 92.344 279.082 93.8267 278.335 95.128C277.61 96.4293 276.618 97.4533 275.359 98.2C274.122 98.9467 272.724 99.32 271.167 99.32C269.61 99.32 268.202 98.9467 266.943 98.2C265.684 97.4533 264.682 96.4293 263.935 95.128C263.21 93.8267 262.847 92.344 262.847 90.68C262.847 89.016 263.21 87.5333 263.935 86.232C264.682 84.9307 265.684 83.9067 266.943 83.16C268.202 82.4133 269.61 82.04 271.167 82.04C272.724 82.04 274.122 82.4133 275.359 83.16C276.618 83.9067 277.61 84.9307 278.335 86.232C279.082 87.5333 279.455 89.016 279.455 90.68ZM276.895 90.68C276.895 89.4427 276.639 88.3547 276.127 87.416C275.636 86.4773 274.954 85.7413 274.079 85.208C273.226 84.6747 272.255 84.408 271.167 84.408C270.079 84.408 269.098 84.6747 268.223 85.208C267.37 85.7413 266.687 86.4773 266.175 87.416C265.663 88.3547 265.407 89.4427 265.407 90.68C265.407 91.896 265.663 92.9733 266.175 93.912C266.687 94.8507 267.37 95.5973 268.223 96.152C269.098 96.6853 270.079 96.952 271.167 96.952C272.255 96.952 273.226 96.6853 274.079 96.152C274.954 95.5973 275.636 94.8507 276.127 93.912C276.639 92.9733 276.895 91.896 276.895 90.68ZM282.378 96.376C282.186 96.0987 282.1 95.8107 282.122 95.512C282.143 95.192 282.324 94.9147 282.666 94.68C282.879 94.5307 283.124 94.4667 283.402 94.488C283.7 94.5093 283.967 94.648 284.202 94.904C284.799 95.608 285.482 96.1733 286.25 96.6C287.018 97.0053 287.956 97.208 289.066 97.208C289.578 97.1867 290.09 97.1013 290.602 96.952C291.114 96.8027 291.54 96.5467 291.882 96.184C292.244 95.8 292.426 95.2987 292.426 94.68C292.426 94.0827 292.244 93.6133 291.882 93.272C291.519 92.9093 291.05 92.6213 290.474 92.408C289.898 92.1733 289.268 91.9707 288.586 91.8C287.882 91.608 287.188 91.3947 286.506 91.16C285.823 90.904 285.204 90.5947 284.65 90.232C284.116 89.848 283.679 89.3787 283.338 88.824C283.018 88.248 282.858 87.5547 282.858 86.744C282.858 85.784 283.114 84.952 283.626 84.248C284.159 83.544 284.863 83 285.738 82.616C286.634 82.232 287.604 82.04 288.65 82.04C289.247 82.04 289.866 82.1147 290.506 82.264C291.167 82.392 291.807 82.6267 292.426 82.968C293.044 83.288 293.588 83.736 294.058 84.312C294.25 84.5253 294.356 84.792 294.378 85.112C294.399 85.432 294.26 85.72 293.962 85.976C293.727 86.1467 293.46 86.2213 293.162 86.2C292.884 86.1787 292.65 86.072 292.458 85.88C292.01 85.3467 291.444 84.9413 290.762 84.664C290.1 84.3653 289.364 84.216 288.554 84.216C288.042 84.216 287.54 84.2907 287.05 84.44C286.559 84.5893 286.143 84.8453 285.802 85.208C285.482 85.5493 285.322 86.0293 285.322 86.648C285.343 87.224 285.535 87.6933 285.898 88.056C286.26 88.4187 286.751 88.7173 287.37 88.952C287.988 89.1653 288.671 89.3787 289.418 89.592C290.1 89.7627 290.751 89.9653 291.37 90.2C292.01 90.4133 292.586 90.7013 293.098 91.064C293.61 91.4267 294.015 91.896 294.314 92.472C294.612 93.0267 294.762 93.7307 294.762 94.584C294.762 95.5653 294.484 96.4187 293.93 97.144C293.375 97.848 292.639 98.392 291.722 98.776C290.826 99.1387 289.855 99.32 288.81 99.32C287.636 99.32 286.474 99.096 285.322 98.648C284.191 98.2 283.21 97.4427 282.378 96.376ZM300.926 97.688C300.926 98.0507 300.798 98.36 300.542 98.616C300.307 98.872 300.008 99 299.646 99C299.262 99 298.952 98.872 298.718 98.616C298.483 98.36 298.366 98.0507 298.366 97.688V83.48C298.366 83.1173 298.483 82.8187 298.718 82.584C298.974 82.328 299.283 82.2 299.646 82.2C300.008 82.2 300.307 82.328 300.542 82.584C300.798 82.8187 300.926 83.1173 300.926 83.48V97.688ZM299.646 80.056C299.112 80.056 298.718 79.9493 298.462 79.736C298.206 79.5227 298.078 79.192 298.078 78.744V78.296C298.078 77.848 298.216 77.5173 298.494 77.304C298.771 77.0907 299.166 76.984 299.678 76.984C300.19 76.984 300.574 77.0907 300.83 77.304C301.086 77.5173 301.214 77.848 301.214 78.296V78.744C301.214 79.192 301.075 79.5227 300.798 79.736C300.542 79.9493 300.158 80.056 299.646 80.056ZM304.884 82.552H312.404C312.746 82.552 313.023 82.6693 313.236 82.904C313.471 83.1387 313.588 83.416 313.588 83.736C313.588 84.0773 313.471 84.3653 313.236 84.6C313.023 84.8133 312.746 84.92 312.404 84.92H304.884C304.564 84.92 304.287 84.8027 304.052 84.568C303.818 84.3333 303.7 84.0453 303.7 83.704C303.7 83.384 303.818 83.1173 304.052 82.904C304.287 82.6693 304.564 82.552 304.884 82.552ZM308.244 78.2C308.607 78.2 308.906 78.328 309.14 78.584C309.375 78.8187 309.492 79.1173 309.492 79.48V94.936C309.492 95.448 309.567 95.832 309.716 96.088C309.866 96.344 310.058 96.5253 310.292 96.632C310.548 96.7173 310.794 96.76 311.028 96.76C311.242 96.76 311.423 96.728 311.572 96.664C311.743 96.5787 311.935 96.536 312.148 96.536C312.362 96.536 312.554 96.6427 312.724 96.856C312.916 97.048 313.012 97.304 313.012 97.624C313.012 98.008 312.788 98.3387 312.34 98.616C311.892 98.872 311.391 99 310.836 99C310.538 99 310.164 98.9787 309.716 98.936C309.29 98.8933 308.863 98.7547 308.436 98.52C308.01 98.2853 307.647 97.9013 307.348 97.368C307.071 96.8133 306.932 96.0453 306.932 95.064V79.48C306.932 79.1173 307.06 78.8187 307.316 78.584C307.572 78.328 307.882 78.2 308.244 78.2ZM319.613 97.688C319.613 98.0507 319.485 98.36 319.229 98.616C318.995 98.872 318.696 99 318.333 99C317.949 99 317.64 98.872 317.405 98.616C317.171 98.36 317.053 98.0507 317.053 97.688V83.48C317.053 83.1173 317.171 82.8187 317.405 82.584C317.661 82.328 317.971 82.2 318.333 82.2C318.696 82.2 318.995 82.328 319.229 82.584C319.485 82.8187 319.613 83.1173 319.613 83.48V97.688ZM318.333 80.056C317.8 80.056 317.405 79.9493 317.149 79.736C316.893 79.5227 316.765 79.192 316.765 78.744V78.296C316.765 77.848 316.904 77.5173 317.181 77.304C317.459 77.0907 317.853 76.984 318.365 76.984C318.877 76.984 319.261 77.0907 319.517 77.304C319.773 77.5173 319.901 77.848 319.901 78.296V78.744C319.901 79.192 319.763 79.5227 319.485 79.736C319.229 79.9493 318.845 80.056 318.333 80.056ZM331.124 75.384C331.486 75.384 331.86 75.4267 332.244 75.512C332.649 75.5973 332.99 75.7467 333.268 75.96C333.566 76.1733 333.716 76.4613 333.716 76.824C333.716 77.1653 333.609 77.4533 333.396 77.688C333.182 77.9013 332.926 78.008 332.628 78.008C332.436 78.008 332.169 77.9547 331.828 77.848C331.486 77.72 331.134 77.656 330.772 77.656C330.281 77.656 329.876 77.7627 329.556 77.976C329.257 78.1893 329.033 78.4773 328.884 78.84C328.756 79.1813 328.692 79.5653 328.692 79.992V97.688C328.692 98.0507 328.564 98.36 328.308 98.616C328.073 98.872 327.774 99 327.412 99C327.028 99 326.718 98.872 326.484 98.616C326.249 98.36 326.132 98.0507 326.132 97.688V80.024C326.132 78.5947 326.569 77.464 327.444 76.632C328.34 75.8 329.566 75.384 331.124 75.384ZM332.02 82.712C332.361 82.712 332.649 82.8293 332.884 83.064C333.118 83.2773 333.236 83.5547 333.236 83.896C333.236 84.2373 333.118 84.5253 332.884 84.76C332.649 84.9733 332.361 85.08 332.02 85.08H323.988C323.646 85.08 323.358 84.9627 323.124 84.728C322.889 84.4933 322.772 84.216 322.772 83.896C322.772 83.5333 322.889 83.2453 323.124 83.032C323.358 82.8187 323.646 82.712 323.988 82.712H332.02ZM359 75.32C359.363 75.32 359.661 75.448 359.896 75.704C360.152 75.9387 360.28 76.2373 360.28 76.6V97.688C360.28 98.0507 360.152 98.36 359.896 98.616C359.661 98.872 359.363 99 359 99C358.616 99 358.307 98.872 358.072 98.616C357.837 98.36 357.72 98.0507 357.72 97.688V94.648L358.328 94.424C358.328 94.936 358.168 95.48 357.848 96.056C357.528 96.6107 357.091 97.1333 356.536 97.624C355.981 98.1147 355.32 98.52 354.552 98.84C353.805 99.16 352.995 99.32 352.12 99.32C350.691 99.32 349.389 98.9467 348.216 98.2C347.064 97.4533 346.147 96.4293 345.464 95.128C344.803 93.8267 344.472 92.344 344.472 90.68C344.472 88.9947 344.803 87.5013 345.464 86.2C346.147 84.8987 347.064 83.8853 348.216 83.16C349.368 82.4133 350.648 82.04 352.056 82.04C352.952 82.04 353.795 82.1893 354.584 82.488C355.373 82.7867 356.056 83.192 356.632 83.704C357.229 84.216 357.699 84.7813 358.04 85.4C358.381 86.0187 358.552 86.6373 358.552 87.256L357.72 87.064V76.6C357.72 76.2373 357.837 75.9387 358.072 75.704C358.307 75.448 358.616 75.32 359 75.32ZM352.408 96.952C353.475 96.952 354.413 96.6853 355.224 96.152C356.056 95.5973 356.696 94.8507 357.144 93.912C357.613 92.952 357.848 91.8747 357.848 90.68C357.848 89.464 357.613 88.3867 357.144 87.448C356.696 86.5093 356.056 85.7733 355.224 85.24C354.413 84.6853 353.475 84.408 352.408 84.408C351.363 84.408 350.424 84.6853 349.592 85.24C348.781 85.7733 348.141 86.5093 347.672 87.448C347.203 88.3867 346.968 89.464 346.968 90.68C346.968 91.8533 347.203 92.92 347.672 93.88C348.141 94.8187 348.781 95.5653 349.592 96.12C350.424 96.6747 351.363 96.952 352.408 96.952ZM378.656 82.296C379.019 82.296 379.318 82.424 379.552 82.68C379.808 82.9147 379.936 83.2133 379.936 83.576V97.688C379.936 98.0507 379.808 98.36 379.552 98.616C379.318 98.872 379.019 99 378.656 99C378.272 99 377.963 98.872 377.728 98.616C377.494 98.36 377.376 98.0507 377.376 97.688V94.648L377.984 94.584C377.984 95.0533 377.824 95.5653 377.504 96.12C377.184 96.6747 376.747 97.1973 376.192 97.688C375.638 98.1573 374.976 98.552 374.208 98.872C373.462 99.1707 372.651 99.32 371.776 99.32C370.326 99.32 369.024 98.9467 367.872 98.2C366.72 97.432 365.803 96.3973 365.12 95.096C364.459 93.7947 364.128 92.312 364.128 90.648C364.128 88.9627 364.459 87.48 365.12 86.2C365.803 84.8987 366.72 83.8853 367.872 83.16C369.024 82.4133 370.304 82.04 371.712 82.04C372.63 82.04 373.483 82.1893 374.272 82.488C375.062 82.7867 375.744 83.192 376.32 83.704C376.918 84.216 377.376 84.7813 377.696 85.4C378.038 86.0187 378.208 86.6373 378.208 87.256L377.376 87.064V83.576C377.376 83.2133 377.494 82.9147 377.728 82.68C377.963 82.424 378.272 82.296 378.656 82.296ZM372.064 96.952C373.131 96.952 374.07 96.6747 374.88 96.12C375.712 95.5653 376.352 94.8187 376.8 93.88C377.27 92.92 377.504 91.8427 377.504 90.648C377.504 89.4747 377.27 88.4187 376.8 87.48C376.352 86.52 375.712 85.7733 374.88 85.24C374.07 84.6853 373.131 84.408 372.064 84.408C371.019 84.408 370.08 84.6747 369.248 85.208C368.438 85.7413 367.798 86.4773 367.328 87.416C366.859 88.3547 366.624 89.432 366.624 90.648C366.624 91.8427 366.848 92.92 367.296 93.88C367.766 94.8187 368.406 95.5653 369.216 96.12C370.048 96.6747 370.998 96.952 372.064 96.952ZM392.905 82.04C394.355 82.04 395.497 82.3387 396.329 82.936C397.161 83.5333 397.747 84.3333 398.089 85.336C398.451 86.3387 398.633 87.4587 398.633 88.696V97.688C398.633 98.0507 398.505 98.36 398.249 98.616C398.014 98.872 397.715 99 397.353 99C396.99 99 396.681 98.872 396.425 98.616C396.19 98.36 396.073 98.0507 396.073 97.688V88.76C396.073 87.9493 395.945 87.224 395.689 86.584C395.454 85.9227 395.049 85.4 394.473 85.016C393.918 84.6107 393.15 84.408 392.169 84.408C391.273 84.408 390.451 84.6107 389.705 85.016C388.958 85.4 388.361 85.9227 387.913 86.584C387.465 87.224 387.241 87.9493 387.241 88.76V97.688C387.241 98.0507 387.113 98.36 386.857 98.616C386.622 98.872 386.323 99 385.961 99C385.598 99 385.289 98.872 385.033 98.616C384.798 98.36 384.681 98.0507 384.681 97.688V83.736C384.681 83.3733 384.798 83.0747 385.033 82.84C385.289 82.584 385.598 82.456 385.961 82.456C386.345 82.456 386.654 82.584 386.889 82.84C387.123 83.0747 387.241 83.3733 387.241 83.736V86.008L386.601 86.712C386.707 86.1573 386.953 85.6027 387.337 85.048C387.721 84.472 388.201 83.96 388.777 83.512C389.353 83.064 389.993 82.712 390.697 82.456C391.401 82.1787 392.137 82.04 392.905 82.04ZM420.341 82.2C421.791 82.2 423.093 82.5627 424.245 83.288C425.397 84.0133 426.303 85.016 426.965 86.296C427.647 87.576 427.989 89.048 427.989 90.712C427.989 92.3547 427.647 93.8267 426.965 95.128C426.303 96.408 425.397 97.4213 424.245 98.168C423.114 98.8933 421.834 99.256 420.405 99.256C419.615 99.256 418.869 99.1387 418.165 98.904C417.482 98.648 416.853 98.328 416.277 97.944C415.722 97.5387 415.253 97.0907 414.869 96.6C414.485 96.088 414.207 95.5867 414.036 95.096L414.741 94.648V104.088C414.741 104.451 414.623 104.76 414.389 105.016C414.154 105.272 413.845 105.4 413.461 105.4C413.098 105.4 412.789 105.272 412.533 105.016C412.298 104.781 412.181 104.472 412.181 104.088V83.64C412.181 83.2773 412.298 82.9787 412.533 82.744C412.789 82.488 413.098 82.36 413.461 82.36C413.845 82.36 414.154 82.488 414.389 82.744C414.623 82.9787 414.741 83.2773 414.741 83.64V86.488L414.261 86.232C414.41 85.6987 414.666 85.1867 415.029 84.696C415.413 84.2053 415.871 83.7787 416.405 83.416C416.959 83.032 417.567 82.7333 418.229 82.52C418.911 82.3067 419.615 82.2 420.341 82.2ZM420.053 84.568C418.986 84.568 418.037 84.8347 417.205 85.368C416.394 85.9013 415.754 86.6267 415.285 87.544C414.837 88.4613 414.613 89.5173 414.613 90.712C414.613 91.8853 414.837 92.9413 415.285 93.88C415.754 94.8187 416.394 95.5547 417.205 96.088C418.037 96.6213 418.986 96.888 420.053 96.888C421.119 96.888 422.058 96.6213 422.869 96.088C423.679 95.5547 424.319 94.8187 424.789 93.88C425.258 92.9413 425.493 91.8853 425.493 90.712C425.493 89.5173 425.258 88.4613 424.789 87.544C424.319 86.6267 423.679 85.9013 422.869 85.368C422.058 84.8347 421.119 84.568 420.053 84.568ZM439.485 99.32C437.778 99.32 436.285 98.9573 435.005 98.232C433.725 97.5067 432.722 96.5147 431.997 95.256C431.293 93.976 430.941 92.504 430.941 90.84C430.941 88.984 431.303 87.4053 432.029 86.104C432.775 84.7813 433.735 83.7787 434.909 83.096C436.103 82.392 437.362 82.04 438.685 82.04C439.666 82.04 440.615 82.2213 441.533 82.584C442.45 82.9467 443.261 83.48 443.965 84.184C444.669 84.8667 445.234 85.6987 445.661 86.68C446.087 87.64 446.311 88.7173 446.333 89.912C446.333 90.2533 446.205 90.5413 445.949 90.776C445.693 91.0107 445.394 91.128 445.053 91.128H432.413L431.837 88.92H444.157L443.645 89.368V88.664C443.559 87.7893 443.261 87.0427 442.749 86.424C442.258 85.784 441.65 85.2933 440.925 84.952C440.221 84.6107 439.474 84.44 438.685 84.44C438.045 84.44 437.405 84.5573 436.765 84.792C436.146 85.0053 435.581 85.368 435.069 85.88C434.578 86.3707 434.173 87.0107 433.853 87.8C433.554 88.5893 433.405 89.5387 433.405 90.648C433.405 91.8853 433.65 92.9733 434.141 93.912C434.653 94.8507 435.357 95.5973 436.253 96.152C437.149 96.6853 438.194 96.952 439.389 96.952C440.135 96.952 440.786 96.856 441.341 96.664C441.895 96.472 442.375 96.2373 442.781 95.96C443.186 95.6613 443.527 95.3627 443.805 95.064C444.082 94.872 444.349 94.776 444.605 94.776C444.925 94.776 445.181 94.8827 445.373 95.096C445.586 95.3093 445.693 95.5653 445.693 95.864C445.693 96.2267 445.522 96.5467 445.181 96.824C444.583 97.4853 443.773 98.072 442.749 98.584C441.725 99.0747 440.637 99.32 439.485 99.32ZM451.461 99C451.098 99 450.789 98.872 450.533 98.616C450.298 98.36 450.181 98.0507 450.181 97.688V83.736C450.181 83.3733 450.298 83.0747 450.533 82.84C450.789 82.584 451.098 82.456 451.461 82.456C451.845 82.456 452.154 82.584 452.389 82.84C452.623 83.0747 452.741 83.3733 452.741 83.736V87.96L452.357 87.288C452.485 86.6267 452.709 85.9867 453.029 85.368C453.37 84.728 453.797 84.1627 454.309 83.672C454.821 83.16 455.407 82.7653 456.069 82.488C456.73 82.1893 457.455 82.04 458.245 82.04C458.714 82.04 459.141 82.1573 459.525 82.392C459.93 82.6053 460.133 82.9147 460.133 83.32C460.133 83.768 460.015 84.0987 459.781 84.312C459.546 84.5253 459.279 84.632 458.981 84.632C458.703 84.632 458.437 84.5787 458.181 84.472C457.925 84.344 457.605 84.28 457.22 84.28C456.687 84.28 456.154 84.4293 455.621 84.728C455.109 85.0053 454.629 85.4107 454.181 85.944C453.754 86.4773 453.402 87.0853 453.125 87.768C452.869 88.4293 452.741 89.144 452.741 89.912V97.688C452.741 98.0507 452.613 98.36 452.357 98.616C452.122 98.872 451.823 99 451.461 99ZM469.5 82.04C470.417 82.04 471.27 82.2 472.06 82.52C472.849 82.8187 473.532 83.2133 474.108 83.704C474.705 84.1947 475.164 84.7067 475.484 85.24C475.825 85.7733 475.996 86.2747 475.996 86.744L475.388 86.36V83.576C475.388 83.2133 475.505 82.9147 475.74 82.68C475.974 82.424 476.284 82.296 476.668 82.296C477.03 82.296 477.329 82.424 477.564 82.68C477.82 82.9147 477.948 83.2133 477.948 83.576V97.592C477.948 99.3413 477.574 100.792 476.828 101.944C476.102 103.096 475.121 103.96 473.884 104.536C472.646 105.112 471.26 105.4 469.724 105.4C469.084 105.4 468.38 105.315 467.612 105.144C466.844 104.973 466.161 104.76 465.564 104.504C464.966 104.269 464.582 104.024 464.411 103.768C464.092 103.555 463.889 103.309 463.804 103.032C463.74 102.776 463.793 102.531 463.964 102.296C464.156 101.997 464.401 101.848 464.7 101.848C465.02 101.848 465.414 101.944 465.884 102.136C466.076 102.2 466.374 102.307 466.78 102.456C467.206 102.605 467.676 102.733 468.188 102.84C468.721 102.968 469.244 103.032 469.756 103.032C471.569 103.032 472.956 102.552 473.916 101.592C474.897 100.653 475.388 99.4053 475.388 97.848V94.872L475.74 95.032C475.612 95.6293 475.345 96.184 474.94 96.696C474.556 97.208 474.076 97.6667 473.5 98.072C472.945 98.456 472.326 98.7653 471.644 99C470.961 99.2133 470.268 99.32 469.564 99.32C468.07 99.32 466.726 98.9467 465.532 98.2C464.337 97.4533 463.388 96.4293 462.684 95.128C462.001 93.8267 461.66 92.344 461.66 90.68C461.66 88.9947 462.001 87.5013 462.684 86.2C463.388 84.8987 464.326 83.8853 465.5 83.16C466.694 82.4133 468.028 82.04 469.5 82.04ZM469.82 84.408C468.732 84.408 467.75 84.6853 466.876 85.24C466.022 85.7733 465.35 86.5093 464.86 87.448C464.39 88.3867 464.156 89.464 464.156 90.68C464.156 91.8533 464.39 92.92 464.86 93.88C465.35 94.8187 466.022 95.5653 466.876 96.12C467.75 96.6747 468.732 96.952 469.82 96.952C470.929 96.952 471.91 96.6853 472.764 96.152C473.617 95.5973 474.289 94.8507 474.78 93.912C475.27 92.9733 475.516 91.896 475.516 90.68C475.516 89.4427 475.27 88.3547 474.78 87.416C474.289 86.4773 473.617 85.7413 472.764 85.208C471.91 84.6747 470.929 84.408 469.82 84.408ZM496.156 82.296C496.519 82.296 496.818 82.424 497.052 82.68C497.308 82.9147 497.436 83.2133 497.436 83.576V97.688C497.436 98.0507 497.308 98.36 497.052 98.616C496.818 98.872 496.519 99 496.156 99C495.772 99 495.463 98.872 495.228 98.616C494.994 98.36 494.876 98.0507 494.876 97.688V94.648L495.484 94.584C495.484 95.0533 495.324 95.5653 495.004 96.12C494.684 96.6747 494.247 97.1973 493.692 97.688C493.138 98.1573 492.476 98.552 491.708 98.872C490.962 99.1707 490.151 99.32 489.276 99.32C487.826 99.32 486.524 98.9467 485.372 98.2C484.22 97.432 483.303 96.3973 482.62 95.096C481.959 93.7947 481.628 92.312 481.628 90.648C481.628 88.9627 481.959 87.48 482.62 86.2C483.303 84.8987 484.22 83.8853 485.372 83.16C486.524 82.4133 487.804 82.04 489.212 82.04C490.13 82.04 490.983 82.1893 491.772 82.488C492.562 82.7867 493.244 83.192 493.82 83.704C494.418 84.216 494.876 84.7813 495.196 85.4C495.538 86.0187 495.708 86.6373 495.708 87.256L494.876 87.064V83.576C494.876 83.2133 494.994 82.9147 495.228 82.68C495.463 82.424 495.772 82.296 496.156 82.296ZM489.564 96.952C490.631 96.952 491.57 96.6747 492.38 96.12C493.212 95.5653 493.852 94.8187 494.3 93.88C494.77 92.92 495.004 91.8427 495.004 90.648C495.004 89.4747 494.77 88.4187 494.3 87.48C493.852 86.52 493.212 85.7733 492.38 85.24C491.57 84.6853 490.631 84.408 489.564 84.408C488.519 84.408 487.58 84.6747 486.748 85.208C485.938 85.7413 485.298 86.4773 484.828 87.416C484.359 88.3547 484.124 89.432 484.124 90.648C484.124 91.8427 484.348 92.92 484.796 93.88C485.266 94.8187 485.906 95.5653 486.716 96.12C487.548 96.6747 488.498 96.952 489.564 96.952ZM514.252 82.456C514.636 82.456 514.945 82.584 515.18 82.84C515.415 83.0747 515.532 83.3733 515.532 83.736V92.472C515.532 94.6267 514.924 96.3013 513.708 97.496C512.513 98.6693 510.839 99.256 508.684 99.256C506.551 99.256 504.876 98.6693 503.66 97.496C502.465 96.3013 501.868 94.6267 501.868 92.472V83.736C501.868 83.3733 501.985 83.0747 502.22 82.84C502.476 82.584 502.785 82.456 503.148 82.456C503.532 82.456 503.841 82.584 504.076 82.84C504.311 83.0747 504.428 83.3733 504.428 83.736V92.472C504.428 93.9227 504.801 95.0213 505.548 95.768C506.295 96.5147 507.34 96.888 508.684 96.888C510.071 96.888 511.127 96.5147 511.852 95.768C512.599 95.0213 512.972 93.9227 512.972 92.472V83.736C512.972 83.3733 513.089 83.0747 513.324 82.84C513.58 82.584 513.889 82.456 514.252 82.456ZM523.09 97.688C523.09 98.0507 522.962 98.36 522.706 98.616C522.45 98.872 522.141 99 521.778 99C521.416 99 521.117 98.872 520.882 98.616C520.648 98.36 520.53 98.0507 520.53 97.688V76.6C520.53 76.2373 520.648 75.9387 520.882 75.704C521.138 75.448 521.448 75.32 521.81 75.32C522.194 75.32 522.504 75.448 522.738 75.704C522.973 75.9387 523.09 76.2373 523.09 76.6V97.688ZM541.688 82.296C542.05 82.296 542.349 82.424 542.583 82.68C542.84 82.9147 542.968 83.2133 542.968 83.576V97.688C542.968 98.0507 542.84 98.36 542.583 98.616C542.349 98.872 542.05 99 541.688 99C541.304 99 540.994 98.872 540.76 98.616C540.525 98.36 540.408 98.0507 540.408 97.688V94.648L541.016 94.584C541.016 95.0533 540.856 95.5653 540.536 96.12C540.216 96.6747 539.778 97.1973 539.224 97.688C538.669 98.1573 538.008 98.552 537.24 98.872C536.493 99.1707 535.682 99.32 534.808 99.32C533.357 99.32 532.056 98.9467 530.904 98.2C529.752 97.432 528.834 96.3973 528.152 95.096C527.49 93.7947 527.16 92.312 527.16 90.648C527.16 88.9627 527.49 87.48 528.152 86.2C528.834 84.8987 529.752 83.8853 530.904 83.16C532.056 82.4133 533.336 82.04 534.744 82.04C535.661 82.04 536.514 82.1893 537.304 82.488C538.093 82.7867 538.776 83.192 539.352 83.704C539.949 84.216 540.408 84.7813 540.728 85.4C541.069 86.0187 541.24 86.6373 541.24 87.256L540.408 87.064V83.576C540.408 83.2133 540.525 82.9147 540.76 82.68C540.994 82.424 541.304 82.296 541.688 82.296ZM535.095 96.952C536.162 96.952 537.101 96.6747 537.912 96.12C538.744 95.5653 539.384 94.8187 539.832 93.88C540.301 92.92 540.536 91.8427 540.536 90.648C540.536 89.4747 540.301 88.4187 539.832 87.48C539.384 86.52 538.744 85.7733 537.912 85.24C537.101 84.6853 536.162 84.408 535.095 84.408C534.05 84.408 533.112 84.6747 532.28 85.208C531.469 85.7413 530.829 86.4773 530.36 87.416C529.89 88.3547 529.656 89.432 529.656 90.648C529.656 91.8427 529.88 92.92 530.328 93.88C530.797 94.8187 531.437 95.5653 532.248 96.12C533.08 96.6747 534.029 96.952 535.095 96.952ZM555.936 82.04C557.386 82.04 558.528 82.3387 559.36 82.936C560.192 83.5333 560.778 84.3333 561.12 85.336C561.482 86.3387 561.664 87.4587 561.664 88.696V97.688C561.664 98.0507 561.536 98.36 561.28 98.616C561.045 98.872 560.746 99 560.384 99C560.021 99 559.712 98.872 559.456 98.616C559.221 98.36 559.104 98.0507 559.104 97.688V88.76C559.104 87.9493 558.976 87.224 558.72 86.584C558.485 85.9227 558.08 85.4 557.504 85.016C556.949 84.6107 556.181 84.408 555.2 84.408C554.304 84.408 553.482 84.6107 552.736 85.016C551.989 85.4 551.392 85.9227 550.944 86.584C550.496 87.224 550.272 87.9493 550.272 88.76V97.688C550.272 98.0507 550.144 98.36 549.888 98.616C549.653 98.872 549.354 99 548.992 99C548.629 99 548.32 98.872 548.064 98.616C547.829 98.36 547.712 98.0507 547.712 97.688V83.736C547.712 83.3733 547.829 83.0747 548.064 82.84C548.32 82.584 548.629 82.456 548.992 82.456C549.376 82.456 549.685 82.584 549.92 82.84C550.154 83.0747 550.272 83.3733 550.272 83.736V86.008L549.632 86.712C549.738 86.1573 549.984 85.6027 550.368 85.048C550.752 84.472 551.232 83.96 551.808 83.512C552.384 83.064 553.024 82.712 553.728 82.456C554.432 82.1787 555.168 82.04 555.936 82.04ZM583.372 82.2C584.822 82.2 586.124 82.5627 587.276 83.288C588.428 84.0133 589.334 85.016 589.996 86.296C590.678 87.576 591.02 89.048 591.02 90.712C591.02 92.3547 590.678 93.8267 589.996 95.128C589.334 96.408 588.428 97.4213 587.276 98.168C586.145 98.8933 584.865 99.256 583.436 99.256C582.646 99.256 581.9 99.1387 581.196 98.904C580.513 98.648 579.884 98.328 579.308 97.944C578.753 97.5387 578.284 97.0907 577.9 96.6C577.516 96.088 577.238 95.5867 577.068 95.096L577.772 94.648V104.088C577.772 104.451 577.654 104.76 577.42 105.016C577.185 105.272 576.876 105.4 576.492 105.4C576.129 105.4 575.82 105.272 575.564 105.016C575.329 104.781 575.212 104.472 575.212 104.088V83.64C575.212 83.2773 575.329 82.9787 575.564 82.744C575.82 82.488 576.129 82.36 576.492 82.36C576.876 82.36 577.185 82.488 577.42 82.744C577.654 82.9787 577.772 83.2773 577.772 83.64V86.488L577.292 86.232C577.441 85.6987 577.697 85.1867 578.06 84.696C578.444 84.2053 578.902 83.7787 579.436 83.416C579.99 83.032 580.598 82.7333 581.26 82.52C581.942 82.3067 582.646 82.2 583.372 82.2ZM583.084 84.568C582.017 84.568 581.068 84.8347 580.236 85.368C579.425 85.9013 578.785 86.6267 578.316 87.544C577.868 88.4613 577.644 89.5173 577.644 90.712C577.644 91.8853 577.868 92.9413 578.316 93.88C578.785 94.8187 579.425 95.5547 580.236 96.088C581.068 96.6213 582.017 96.888 583.084 96.888C584.15 96.888 585.089 96.6213 585.9 96.088C586.71 95.5547 587.35 94.8187 587.82 93.88C588.289 92.9413 588.524 91.8853 588.524 90.712C588.524 89.5173 588.289 88.4613 587.82 87.544C587.35 86.6267 586.71 85.9013 585.9 85.368C585.089 84.8347 584.15 84.568 583.084 84.568ZM610.58 90.68C610.58 92.344 610.207 93.8267 609.46 95.128C608.735 96.4293 607.743 97.4533 606.484 98.2C605.247 98.9467 603.849 99.32 602.292 99.32C600.735 99.32 599.327 98.9467 598.068 98.2C596.809 97.4533 595.807 96.4293 595.06 95.128C594.335 93.8267 593.972 92.344 593.972 90.68C593.972 89.016 594.335 87.5333 595.06 86.232C595.807 84.9307 596.809 83.9067 598.068 83.16C599.327 82.4133 600.735 82.04 602.292 82.04C603.849 82.04 605.247 82.4133 606.484 83.16C607.743 83.9067 608.735 84.9307 609.46 86.232C610.207 87.5333 610.58 89.016 610.58 90.68ZM608.02 90.68C608.02 89.4427 607.764 88.3547 607.252 87.416C606.761 86.4773 606.079 85.7413 605.204 85.208C604.351 84.6747 603.38 84.408 602.292 84.408C601.204 84.408 600.223 84.6747 599.348 85.208C598.495 85.7413 597.812 86.4773 597.3 87.416C596.788 88.3547 596.532 89.4427 596.532 90.68C596.532 91.896 596.788 92.9733 597.3 93.912C597.812 94.8507 598.495 95.5973 599.348 96.152C600.223 96.6853 601.204 96.952 602.292 96.952C603.38 96.952 604.351 96.6853 605.204 96.152C606.079 95.5973 606.761 94.8507 607.252 93.912C607.764 92.9733 608.02 91.896 608.02 90.68ZM613.503 96.376C613.311 96.0987 613.225 95.8107 613.247 95.512C613.268 95.192 613.449 94.9147 613.791 94.68C614.004 94.5307 614.249 94.4667 614.527 94.488C614.825 94.5093 615.092 94.648 615.327 94.904C615.924 95.608 616.607 96.1733 617.375 96.6C618.143 97.0053 619.081 97.208 620.191 97.208C620.703 97.1867 621.215 97.1013 621.727 96.952C622.239 96.8027 622.665 96.5467 623.007 96.184C623.369 95.8 623.551 95.2987 623.551 94.68C623.551 94.0827 623.369 93.6133 623.007 93.272C622.644 92.9093 622.175 92.6213 621.599 92.408C621.023 92.1733 620.393 91.9707 619.711 91.8C619.007 91.608 618.313 91.3947 617.631 91.16C616.948 90.904 616.329 90.5947 615.775 90.232C615.241 89.848 614.804 89.3787 614.463 88.824C614.143 88.248 613.983 87.5547 613.983 86.744C613.983 85.784 614.239 84.952 614.751 84.248C615.284 83.544 615.988 83 616.863 82.616C617.759 82.232 618.729 82.04 619.775 82.04C620.372 82.04 620.991 82.1147 621.631 82.264C622.292 82.392 622.932 82.6267 623.551 82.968C624.169 83.288 624.713 83.736 625.183 84.312C625.375 84.5253 625.481 84.792 625.503 85.112C625.524 85.432 625.385 85.72 625.087 85.976C624.852 86.1467 624.585 86.2213 624.287 86.2C624.009 86.1787 623.775 86.072 623.583 85.88C623.135 85.3467 622.569 84.9413 621.887 84.664C621.225 84.3653 620.489 84.216 619.679 84.216C619.167 84.216 618.665 84.2907 618.175 84.44C617.684 84.5893 617.268 84.8453 616.927 85.208C616.607 85.5493 616.447 86.0293 616.447 86.648C616.468 87.224 616.66 87.6933 617.023 88.056C617.385 88.4187 617.876 88.7173 618.495 88.952C619.113 89.1653 619.796 89.3787 620.543 89.592C621.225 89.7627 621.876 89.9653 622.495 90.2C623.135 90.4133 623.711 90.7013 624.223 91.064C624.735 91.4267 625.14 91.896 625.439 92.472C625.737 93.0267 625.887 93.7307 625.887 94.584C625.887 95.5653 625.609 96.4187 625.055 97.144C624.5 97.848 623.764 98.392 622.847 98.776C621.951 99.1387 620.98 99.32 619.935 99.32C618.761 99.32 617.599 99.096 616.447 98.648C615.316 98.2 614.335 97.4427 613.503 96.376ZM632.051 97.688C632.051 98.0507 631.923 98.36 631.667 98.616C631.432 98.872 631.133 99 630.771 99C630.387 99 630.077 98.872 629.843 98.616C629.608 98.36 629.491 98.0507 629.491 97.688V83.48C629.491 83.1173 629.608 82.8187 629.843 82.584C630.099 82.328 630.408 82.2 630.771 82.2C631.133 82.2 631.432 82.328 631.667 82.584C631.923 82.8187 632.051 83.1173 632.051 83.48V97.688ZM630.771 80.056C630.237 80.056 629.843 79.9493 629.587 79.736C629.331 79.5227 629.203 79.192 629.203 78.744V78.296C629.203 77.848 629.341 77.5173 629.619 77.304C629.896 77.0907 630.291 76.984 630.803 76.984C631.315 76.984 631.699 77.0907 631.955 77.304C632.211 77.5173 632.339 77.848 632.339 78.296V78.744C632.339 79.192 632.2 79.5227 631.923 79.736C631.667 79.9493 631.283 80.056 630.771 80.056ZM636.009 82.552H643.529C643.871 82.552 644.148 82.6693 644.361 82.904C644.596 83.1387 644.713 83.416 644.713 83.736C644.713 84.0773 644.596 84.3653 644.361 84.6C644.148 84.8133 643.871 84.92 643.529 84.92H636.009C635.689 84.92 635.412 84.8027 635.177 84.568C634.943 84.3333 634.825 84.0453 634.825 83.704C634.825 83.384 634.943 83.1173 635.177 82.904C635.412 82.6693 635.689 82.552 636.009 82.552ZM639.369 78.2C639.732 78.2 640.031 78.328 640.265 78.584C640.5 78.8187 640.617 79.1173 640.617 79.48V94.936C640.617 95.448 640.692 95.832 640.841 96.088C640.991 96.344 641.183 96.5253 641.417 96.632C641.673 96.7173 641.919 96.76 642.153 96.76C642.367 96.76 642.548 96.728 642.697 96.664C642.868 96.5787 643.06 96.536 643.273 96.536C643.487 96.536 643.679 96.6427 643.849 96.856C644.041 97.048 644.137 97.304 644.137 97.624C644.137 98.008 643.913 98.3387 643.465 98.616C643.017 98.872 642.516 99 641.961 99C641.663 99 641.289 98.9787 640.841 98.936C640.415 98.8933 639.988 98.7547 639.561 98.52C639.135 98.2853 638.772 97.9013 638.473 97.368C638.196 96.8133 638.057 96.0453 638.057 95.064V79.48C638.057 79.1173 638.185 78.8187 638.441 78.584C638.697 78.328 639.007 78.2 639.369 78.2ZM650.738 97.688C650.738 98.0507 650.61 98.36 650.354 98.616C650.12 98.872 649.821 99 649.458 99C649.074 99 648.765 98.872 648.53 98.616C648.296 98.36 648.178 98.0507 648.178 97.688V83.48C648.178 83.1173 648.296 82.8187 648.53 82.584C648.786 82.328 649.096 82.2 649.458 82.2C649.821 82.2 650.12 82.328 650.354 82.584C650.61 82.8187 650.738 83.1173 650.738 83.48V97.688ZM649.458 80.056C648.925 80.056 648.53 79.9493 648.274 79.736C648.018 79.5227 647.89 79.192 647.89 78.744V78.296C647.89 77.848 648.029 77.5173 648.306 77.304C648.584 77.0907 648.978 76.984 649.49 76.984C650.002 76.984 650.386 77.0907 650.642 77.304C650.898 77.5173 651.026 77.848 651.026 78.296V78.744C651.026 79.192 650.888 79.5227 650.61 79.736C650.354 79.9493 649.97 80.056 649.458 80.056ZM662.249 75.384C662.611 75.384 662.985 75.4267 663.369 75.512C663.774 75.5973 664.115 75.7467 664.393 75.96C664.691 76.1733 664.841 76.4613 664.841 76.824C664.841 77.1653 664.734 77.4533 664.521 77.688C664.307 77.9013 664.051 78.008 663.753 78.008C663.561 78.008 663.294 77.9547 662.953 77.848C662.611 77.72 662.259 77.656 661.897 77.656C661.406 77.656 661.001 77.7627 660.681 77.976C660.382 78.1893 660.158 78.4773 660.009 78.84C659.881 79.1813 659.817 79.5653 659.817 79.992V97.688C659.817 98.0507 659.689 98.36 659.433 98.616C659.198 98.872 658.899 99 658.537 99C658.153 99 657.843 98.872 657.609 98.616C657.374 98.36 657.257 98.0507 657.257 97.688V80.024C657.257 78.5947 657.694 77.464 658.569 76.632C659.465 75.8 660.691 75.384 662.249 75.384ZM663.145 82.712C663.486 82.712 663.774 82.8293 664.009 83.064C664.243 83.2773 664.361 83.5547 664.361 83.896C664.361 84.2373 664.243 84.5253 664.009 84.76C663.774 84.9733 663.486 85.08 663.145 85.08H655.113C654.771 85.08 654.483 84.9627 654.249 84.728C654.014 84.4933 653.897 84.216 653.897 83.896C653.897 83.5333 654.014 83.2453 654.249 83.032C654.483 82.8187 654.771 82.712 655.113 82.712H663.145ZM690.125 75.32C690.488 75.32 690.786 75.448 691.021 75.704C691.277 75.9387 691.405 76.2373 691.405 76.6V97.688C691.405 98.0507 691.277 98.36 691.021 98.616C690.786 98.872 690.488 99 690.125 99C689.741 99 689.432 98.872 689.197 98.616C688.962 98.36 688.845 98.0507 688.845 97.688V94.648L689.453 94.424C689.453 94.936 689.293 95.48 688.973 96.056C688.653 96.6107 688.216 97.1333 687.661 97.624C687.106 98.1147 686.445 98.52 685.677 98.84C684.93 99.16 684.12 99.32 683.245 99.32C681.816 99.32 680.514 98.9467 679.341 98.2C678.189 97.4533 677.272 96.4293 676.589 95.128C675.928 93.8267 675.597 92.344 675.597 90.68C675.597 88.9947 675.928 87.5013 676.589 86.2C677.272 84.8987 678.189 83.8853 679.341 83.16C680.493 82.4133 681.773 82.04 683.181 82.04C684.077 82.04 684.92 82.1893 685.709 82.488C686.498 82.7867 687.181 83.192 687.757 83.704C688.354 84.216 688.824 84.7813 689.165 85.4C689.506 86.0187 689.677 86.6373 689.677 87.256L688.845 87.064V76.6C688.845 76.2373 688.962 75.9387 689.197 75.704C689.432 75.448 689.741 75.32 690.125 75.32ZM683.533 96.952C684.6 96.952 685.538 96.6853 686.349 96.152C687.181 95.5973 687.821 94.8507 688.269 93.912C688.738 92.952 688.973 91.8747 688.973 90.68C688.973 89.464 688.738 88.3867 688.269 87.448C687.821 86.5093 687.181 85.7733 686.349 85.24C685.538 84.6853 684.6 84.408 683.533 84.408C682.488 84.408 681.549 84.6853 680.717 85.24C679.906 85.7733 679.266 86.5093 678.797 87.448C678.328 88.3867 678.093 89.464 678.093 90.68C678.093 91.8533 678.328 92.92 678.797 93.88C679.266 94.8187 679.906 95.5653 680.717 96.12C681.549 96.6747 682.488 96.952 683.533 96.952ZM709.781 82.296C710.144 82.296 710.443 82.424 710.677 82.68C710.933 82.9147 711.061 83.2133 711.061 83.576V97.688C711.061 98.0507 710.933 98.36 710.677 98.616C710.443 98.872 710.144 99 709.781 99C709.397 99 709.088 98.872 708.853 98.616C708.619 98.36 708.501 98.0507 708.501 97.688V94.648L709.109 94.584C709.109 95.0533 708.949 95.5653 708.629 96.12C708.309 96.6747 707.872 97.1973 707.317 97.688C706.763 98.1573 706.101 98.552 705.333 98.872C704.587 99.1707 703.776 99.32 702.901 99.32C701.451 99.32 700.149 98.9467 698.997 98.2C697.845 97.432 696.928 96.3973 696.245 95.096C695.584 93.7947 695.253 92.312 695.253 90.648C695.253 88.9627 695.584 87.48 696.245 86.2C696.928 84.8987 697.845 83.8853 698.997 83.16C700.149 82.4133 701.429 82.04 702.837 82.04C703.755 82.04 704.608 82.1893 705.397 82.488C706.187 82.7867 706.869 83.192 707.445 83.704C708.043 84.216 708.501 84.7813 708.821 85.4C709.163 86.0187 709.333 86.6373 709.333 87.256L708.501 87.064V83.576C708.501 83.2133 708.619 82.9147 708.853 82.68C709.088 82.424 709.397 82.296 709.781 82.296ZM703.189 96.952C704.256 96.952 705.195 96.6747 706.005 96.12C706.837 95.5653 707.477 94.8187 707.925 93.88C708.395 92.92 708.629 91.8427 708.629 90.648C708.629 89.4747 708.395 88.4187 707.925 87.48C707.477 86.52 706.837 85.7733 706.005 85.24C705.195 84.6853 704.256 84.408 703.189 84.408C702.144 84.408 701.205 84.6747 700.373 85.208C699.563 85.7413 698.923 86.4773 698.453 87.416C697.984 88.3547 697.749 89.432 697.749 90.648C697.749 91.8427 697.973 92.92 698.421 93.88C698.891 94.8187 699.531 95.5653 700.341 96.12C701.173 96.6747 702.123 96.952 703.189 96.952ZM723.966 82.2C725.416 82.2 726.718 82.5627 727.87 83.288C729.022 84.0133 729.928 85.016 730.59 86.296C731.272 87.576 731.614 89.048 731.614 90.712C731.614 92.3547 731.272 93.8267 730.59 95.128C729.928 96.408 729.022 97.4213 727.87 98.168C726.739 98.8933 725.459 99.256 724.03 99.256C723.24 99.256 722.494 99.1387 721.79 98.904C721.107 98.648 720.478 98.328 719.902 97.944C719.347 97.5387 718.878 97.0907 718.494 96.6C718.11 96.088 717.832 95.5867 717.661 95.096L718.366 94.648V104.088C718.366 104.451 718.248 104.76 718.014 105.016C717.779 105.272 717.47 105.4 717.086 105.4C716.723 105.4 716.414 105.272 716.158 105.016C715.923 104.781 715.806 104.472 715.806 104.088V83.64C715.806 83.2773 715.923 82.9787 716.158 82.744C716.414 82.488 716.723 82.36 717.086 82.36C717.47 82.36 717.779 82.488 718.014 82.744C718.248 82.9787 718.366 83.2773 718.366 83.64V86.488L717.886 86.232C718.035 85.6987 718.291 85.1867 718.654 84.696C719.038 84.2053 719.496 83.7787 720.03 83.416C720.584 83.032 721.192 82.7333 721.854 82.52C722.536 82.3067 723.24 82.2 723.966 82.2ZM723.678 84.568C722.611 84.568 721.662 84.8347 720.83 85.368C720.019 85.9013 719.379 86.6267 718.91 87.544C718.462 88.4613 718.238 89.5173 718.238 90.712C718.238 91.8853 718.462 92.9413 718.91 93.88C719.379 94.8187 720.019 95.5547 720.83 96.088C721.662 96.6213 722.611 96.888 723.678 96.888C724.744 96.888 725.683 96.6213 726.494 96.088C727.304 95.5547 727.944 94.8187 728.414 93.88C728.883 92.9413 729.118 91.8853 729.118 90.712C729.118 89.5173 728.883 88.4613 728.414 87.544C727.944 86.6267 727.304 85.9013 726.494 85.368C725.683 84.8347 724.744 84.568 723.678 84.568ZM749.094 82.296C749.456 82.296 749.755 82.424 749.99 82.68C750.246 82.9147 750.374 83.2133 750.374 83.576V97.688C750.374 98.0507 750.246 98.36 749.99 98.616C749.755 98.872 749.456 99 749.094 99C748.71 99 748.4 98.872 748.166 98.616C747.931 98.36 747.814 98.0507 747.814 97.688V94.648L748.422 94.584C748.422 95.0533 748.262 95.5653 747.942 96.12C747.622 96.6747 747.184 97.1973 746.63 97.688C746.075 98.1573 745.414 98.552 744.646 98.872C743.899 99.1707 743.088 99.32 742.214 99.32C740.763 99.32 739.462 98.9467 738.31 98.2C737.158 97.432 736.24 96.3973 735.558 95.096C734.896 93.7947 734.566 92.312 734.566 90.648C734.566 88.9627 734.896 87.48 735.558 86.2C736.24 84.8987 737.158 83.8853 738.31 83.16C739.462 82.4133 740.742 82.04 742.15 82.04C743.067 82.04 743.92 82.1893 744.71 82.488C745.499 82.7867 746.182 83.192 746.758 83.704C747.355 84.216 747.814 84.7813 748.134 85.4C748.475 86.0187 748.646 86.6373 748.646 87.256L747.814 87.064V83.576C747.814 83.2133 747.931 82.9147 748.166 82.68C748.4 82.424 748.71 82.296 749.094 82.296ZM742.502 96.952C743.568 96.952 744.507 96.6747 745.318 96.12C746.15 95.5653 746.79 94.8187 747.238 93.88C747.707 92.92 747.942 91.8427 747.942 90.648C747.942 89.4747 747.707 88.4187 747.238 87.48C746.79 86.52 746.15 85.7733 745.318 85.24C744.507 84.6853 743.568 84.408 742.502 84.408C741.456 84.408 740.518 84.6747 739.686 85.208C738.875 85.7413 738.235 86.4773 737.766 87.416C737.296 88.3547 737.062 89.432 737.062 90.648C737.062 91.8427 737.286 92.92 737.734 93.88C738.203 94.8187 738.843 95.5653 739.654 96.12C740.486 96.6747 741.435 96.952 742.502 96.952ZM754.478 82.552H761.998C762.339 82.552 762.617 82.6693 762.83 82.904C763.065 83.1387 763.182 83.416 763.182 83.736C763.182 84.0773 763.065 84.3653 762.83 84.6C762.617 84.8133 762.339 84.92 761.998 84.92H754.478C754.158 84.92 753.881 84.8027 753.646 84.568C753.411 84.3333 753.294 84.0453 753.294 83.704C753.294 83.384 753.411 83.1173 753.646 82.904C753.881 82.6693 754.158 82.552 754.478 82.552ZM757.838 78.2C758.201 78.2 758.499 78.328 758.734 78.584C758.969 78.8187 759.086 79.1173 759.086 79.48V94.936C759.086 95.448 759.161 95.832 759.31 96.088C759.459 96.344 759.651 96.5253 759.886 96.632C760.142 96.7173 760.387 96.76 760.622 96.76C760.835 96.76 761.017 96.728 761.166 96.664C761.337 96.5787 761.529 96.536 761.742 96.536C761.955 96.536 762.147 96.6427 762.318 96.856C762.51 97.048 762.606 97.304 762.606 97.624C762.606 98.008 762.382 98.3387 761.934 98.616C761.486 98.872 760.985 99 760.43 99C760.131 99 759.758 98.9787 759.31 98.936C758.883 98.8933 758.457 98.7547 758.03 98.52C757.603 98.2853 757.241 97.9013 756.942 97.368C756.665 96.8133 756.526 96.0453 756.526 95.064V79.48C756.526 79.1173 756.654 78.8187 756.91 78.584C757.166 78.328 757.475 78.2 757.838 78.2ZM789.188 75.32C789.55 75.32 789.849 75.448 790.083 75.704C790.34 75.9387 790.468 76.2373 790.468 76.6V97.688C790.468 98.0507 790.34 98.36 790.083 98.616C789.849 98.872 789.55 99 789.188 99C788.804 99 788.494 98.872 788.26 98.616C788.025 98.36 787.908 98.0507 787.908 97.688V94.648L788.516 94.424C788.516 94.936 788.356 95.48 788.036 96.056C787.716 96.6107 787.278 97.1333 786.724 97.624C786.169 98.1147 785.508 98.52 784.74 98.84C783.993 99.16 783.182 99.32 782.308 99.32C780.878 99.32 779.577 98.9467 778.404 98.2C777.252 97.4533 776.334 96.4293 775.652 95.128C774.99 93.8267 774.66 92.344 774.66 90.68C774.66 88.9947 774.99 87.5013 775.652 86.2C776.334 84.8987 777.252 83.8853 778.404 83.16C779.556 82.4133 780.836 82.04 782.244 82.04C783.14 82.04 783.982 82.1893 784.772 82.488C785.561 82.7867 786.244 83.192 786.82 83.704C787.417 84.216 787.886 84.7813 788.228 85.4C788.569 86.0187 788.74 86.6373 788.74 87.256L787.908 87.064V76.6C787.908 76.2373 788.025 75.9387 788.26 75.704C788.494 75.448 788.804 75.32 789.188 75.32ZM782.595 96.952C783.662 96.952 784.601 96.6853 785.412 96.152C786.244 95.5973 786.884 94.8507 787.332 93.912C787.801 92.952 788.036 91.8747 788.036 90.68C788.036 89.464 787.801 88.3867 787.332 87.448C786.884 86.5093 786.244 85.7733 785.412 85.24C784.601 84.6853 783.662 84.408 782.595 84.408C781.55 84.408 780.612 84.6853 779.78 85.24C778.969 85.7733 778.329 86.5093 777.86 87.448C777.39 88.3867 777.156 89.464 777.156 90.68C777.156 91.8533 777.39 92.92 777.86 93.88C778.329 94.8187 778.969 95.5653 779.78 96.12C780.612 96.6747 781.55 96.952 782.595 96.952ZM797.676 97.688C797.676 98.0507 797.548 98.36 797.292 98.616C797.057 98.872 796.758 99 796.396 99C796.012 99 795.702 98.872 795.468 98.616C795.233 98.36 795.116 98.0507 795.116 97.688V83.48C795.116 83.1173 795.233 82.8187 795.468 82.584C795.724 82.328 796.033 82.2 796.396 82.2C796.758 82.2 797.057 82.328 797.292 82.584C797.548 82.8187 797.676 83.1173 797.676 83.48V97.688ZM796.396 80.056C795.862 80.056 795.468 79.9493 795.212 79.736C794.956 79.5227 794.828 79.192 794.828 78.744V78.296C794.828 77.848 794.966 77.5173 795.244 77.304C795.521 77.0907 795.916 76.984 796.428 76.984C796.94 76.984 797.324 77.0907 797.58 77.304C797.836 77.5173 797.964 77.848 797.964 78.296V78.744C797.964 79.192 797.825 79.5227 797.548 79.736C797.292 79.9493 796.908 80.056 796.396 80.056ZM805.09 97.688C805.09 98.0507 804.962 98.36 804.706 98.616C804.45 98.872 804.141 99 803.778 99C803.416 99 803.117 98.872 802.882 98.616C802.648 98.36 802.53 98.0507 802.53 97.688V76.6C802.53 76.2373 802.648 75.9387 802.882 75.704C803.138 75.448 803.448 75.32 803.81 75.32C804.194 75.32 804.504 75.448 804.738 75.704C804.973 75.9387 805.09 76.2373 805.09 76.6V97.688ZM823.688 82.296C824.05 82.296 824.349 82.424 824.583 82.68C824.84 82.9147 824.968 83.2133 824.968 83.576V97.688C824.968 98.0507 824.84 98.36 824.583 98.616C824.349 98.872 824.05 99 823.688 99C823.304 99 822.994 98.872 822.76 98.616C822.525 98.36 822.408 98.0507 822.408 97.688V94.648L823.016 94.584C823.016 95.0533 822.856 95.5653 822.536 96.12C822.216 96.6747 821.778 97.1973 821.224 97.688C820.669 98.1573 820.008 98.552 819.24 98.872C818.493 99.1707 817.682 99.32 816.808 99.32C815.357 99.32 814.056 98.9467 812.904 98.2C811.752 97.432 810.834 96.3973 810.152 95.096C809.49 93.7947 809.16 92.312 809.16 90.648C809.16 88.9627 809.49 87.48 810.152 86.2C810.834 84.8987 811.752 83.8853 812.904 83.16C814.056 82.4133 815.336 82.04 816.744 82.04C817.661 82.04 818.514 82.1893 819.304 82.488C820.093 82.7867 820.776 83.192 821.352 83.704C821.949 84.216 822.408 84.7813 822.728 85.4C823.069 86.0187 823.24 86.6373 823.24 87.256L822.408 87.064V83.576C822.408 83.2133 822.525 82.9147 822.76 82.68C822.994 82.424 823.304 82.296 823.688 82.296ZM817.095 96.952C818.162 96.952 819.101 96.6747 819.912 96.12C820.744 95.5653 821.384 94.8187 821.832 93.88C822.301 92.92 822.536 91.8427 822.536 90.648C822.536 89.4747 822.301 88.4187 821.832 87.48C821.384 86.52 820.744 85.7733 819.912 85.24C819.101 84.6853 818.162 84.408 817.095 84.408C816.05 84.408 815.112 84.6747 814.28 85.208C813.469 85.7413 812.829 86.4773 812.36 87.416C811.89 88.3547 811.656 89.432 811.656 90.648C811.656 91.8427 811.88 92.92 812.328 93.88C812.797 94.8187 813.437 95.5653 814.248 96.12C815.08 96.6747 816.029 96.952 817.095 96.952ZM831.248 99C830.864 99 830.554 98.872 830.32 98.616C830.085 98.36 829.968 98.0507 829.968 97.688V76.6C829.968 76.2373 830.085 75.9387 830.32 75.704C830.554 75.448 830.864 75.32 831.248 75.32C831.61 75.32 831.909 75.448 832.144 75.704C832.4 75.9387 832.528 76.2373 832.528 76.6V97.688C832.528 98.0507 832.4 98.36 832.144 98.616C831.909 98.872 831.61 99 831.248 99ZM841.872 82.36C842.213 82.36 842.501 82.4987 842.736 82.776C842.992 83.032 843.12 83.2987 843.12 83.576C843.12 83.9387 842.949 84.2587 842.608 84.536L832.24 93.592L832.144 90.616L840.976 82.744C841.232 82.488 841.53 82.36 841.872 82.36ZM842.224 98.968C841.861 98.968 841.541 98.8293 841.264 98.552L834.448 91.288L836.368 89.528L843.12 96.76C843.376 97.0373 843.504 97.3573 843.504 97.72C843.504 98.104 843.354 98.4133 843.056 98.648C842.757 98.8613 842.48 98.968 842.224 98.968ZM859.44 82.456C859.824 82.456 860.133 82.584 860.368 82.84C860.602 83.0747 860.72 83.3733 860.72 83.736V92.472C860.72 94.6267 860.112 96.3013 858.896 97.496C857.701 98.6693 856.026 99.256 853.872 99.256C851.738 99.256 850.064 98.6693 848.848 97.496C847.653 96.3013 847.056 94.6267 847.056 92.472V83.736C847.056 83.3733 847.173 83.0747 847.408 82.84C847.664 82.584 847.973 82.456 848.336 82.456C848.72 82.456 849.029 82.584 849.264 82.84C849.498 83.0747 849.616 83.3733 849.616 83.736V92.472C849.616 93.9227 849.989 95.0213 850.736 95.768C851.482 96.5147 852.528 96.888 853.872 96.888C855.258 96.888 856.314 96.5147 857.04 95.768C857.786 95.0213 858.16 93.9227 858.16 92.472V83.736C858.16 83.3733 858.277 83.0747 858.512 82.84C858.768 82.584 859.077 82.456 859.44 82.456ZM866.998 99C866.614 99 866.304 98.872 866.07 98.616C865.835 98.36 865.718 98.0507 865.718 97.688V76.6C865.718 76.2373 865.835 75.9387 866.07 75.704C866.304 75.448 866.614 75.32 866.998 75.32C867.36 75.32 867.659 75.448 867.894 75.704C868.15 75.9387 868.278 76.2373 868.278 76.6V97.688C868.278 98.0507 868.15 98.36 867.894 98.616C867.659 98.872 867.36 99 866.998 99ZM877.622 82.36C877.963 82.36 878.251 82.4987 878.486 82.776C878.742 83.032 878.87 83.2987 878.87 83.576C878.87 83.9387 878.699 84.2587 878.358 84.536L867.99 93.592L867.894 90.616L876.726 82.744C876.982 82.488 877.28 82.36 877.622 82.36ZM877.974 98.968C877.611 98.968 877.291 98.8293 877.014 98.552L870.198 91.288L872.118 89.528L878.87 96.76C879.126 97.0373 879.254 97.3573 879.254 97.72C879.254 98.104 879.104 98.4133 878.806 98.648C878.507 98.8613 878.23 98.968 877.974 98.968ZM896.469 82.296C896.831 82.296 897.13 82.424 897.365 82.68C897.621 82.9147 897.749 83.2133 897.749 83.576V97.688C897.749 98.0507 897.621 98.36 897.365 98.616C897.13 98.872 896.831 99 896.469 99C896.085 99 895.775 98.872 895.541 98.616C895.306 98.36 895.189 98.0507 895.189 97.688V94.648L895.797 94.584C895.797 95.0533 895.637 95.5653 895.317 96.12C894.997 96.6747 894.559 97.1973 894.005 97.688C893.45 98.1573 892.789 98.552 892.021 98.872C891.274 99.1707 890.463 99.32 889.589 99.32C888.138 99.32 886.837 98.9467 885.685 98.2C884.533 97.432 883.615 96.3973 882.933 95.096C882.271 93.7947 881.941 92.312 881.941 90.648C881.941 88.9627 882.271 87.48 882.933 86.2C883.615 84.8987 884.533 83.8853 885.685 83.16C886.837 82.4133 888.117 82.04 889.525 82.04C890.442 82.04 891.295 82.1893 892.085 82.488C892.874 82.7867 893.557 83.192 894.133 83.704C894.73 84.216 895.189 84.7813 895.509 85.4C895.85 86.0187 896.021 86.6373 896.021 87.256L895.189 87.064V83.576C895.189 83.2133 895.306 82.9147 895.541 82.68C895.775 82.424 896.085 82.296 896.469 82.296ZM889.877 96.952C890.943 96.952 891.882 96.6747 892.693 96.12C893.525 95.5653 894.165 94.8187 894.613 93.88C895.082 92.92 895.317 91.8427 895.317 90.648C895.317 89.4747 895.082 88.4187 894.613 87.48C894.165 86.52 893.525 85.7733 892.693 85.24C891.882 84.6853 890.943 84.408 889.877 84.408C888.831 84.408 887.893 84.6747 887.061 85.208C886.25 85.7413 885.61 86.4773 885.141 87.416C884.671 88.3547 884.437 89.432 884.437 90.648C884.437 91.8427 884.661 92.92 885.109 93.88C885.578 94.8187 886.218 95.5653 887.029 96.12C887.861 96.6747 888.81 96.952 889.877 96.952ZM910.717 82.04C912.168 82.04 913.309 82.3387 914.141 82.936C914.973 83.5333 915.56 84.3333 915.901 85.336C916.264 86.3387 916.445 87.4587 916.445 88.696V97.688C916.445 98.0507 916.317 98.36 916.061 98.616C915.826 98.872 915.528 99 915.165 99C914.802 99 914.493 98.872 914.237 98.616C914.002 98.36 913.885 98.0507 913.885 97.688V88.76C913.885 87.9493 913.757 87.224 913.501 86.584C913.266 85.9227 912.861 85.4 912.285 85.016C911.73 84.6107 910.962 84.408 909.981 84.408C909.085 84.408 908.264 84.6107 907.517 85.016C906.77 85.4 906.173 85.9227 905.725 86.584C905.277 87.224 905.053 87.9493 905.053 88.76V97.688C905.053 98.0507 904.925 98.36 904.669 98.616C904.434 98.872 904.136 99 903.773 99C903.41 99 903.101 98.872 902.845 98.616C902.61 98.36 902.493 98.0507 902.493 97.688V83.736C902.493 83.3733 902.61 83.0747 902.845 82.84C903.101 82.584 903.41 82.456 903.773 82.456C904.157 82.456 904.466 82.584 904.701 82.84C904.936 83.0747 905.053 83.3733 905.053 83.736V86.008L904.413 86.712C904.52 86.1573 904.765 85.6027 905.149 85.048C905.533 84.472 906.013 83.96 906.589 83.512C907.165 83.064 907.805 82.712 908.509 82.456C909.213 82.1787 909.949 82.04 910.717 82.04ZM385.562 115.32C385.925 115.32 386.224 115.448 386.458 115.704C386.715 115.939 386.843 116.237 386.843 116.6V137.688C386.843 138.051 386.715 138.36 386.458 138.616C386.224 138.872 385.925 139 385.562 139C385.179 139 384.869 138.872 384.635 138.616C384.4 138.36 384.283 138.051 384.283 137.688V134.648L384.891 134.424C384.891 134.936 384.731 135.48 384.411 136.056C384.091 136.611 383.653 137.133 383.099 137.624C382.544 138.115 381.883 138.52 381.115 138.84C380.368 139.16 379.557 139.32 378.683 139.32C377.253 139.32 375.952 138.947 374.779 138.2C373.627 137.453 372.709 136.429 372.027 135.128C371.365 133.827 371.035 132.344 371.035 130.68C371.035 128.995 371.365 127.501 372.027 126.2C372.709 124.899 373.627 123.885 374.779 123.16C375.931 122.413 377.211 122.04 378.619 122.04C379.515 122.04 380.357 122.189 381.147 122.488C381.936 122.787 382.619 123.192 383.195 123.704C383.792 124.216 384.261 124.781 384.603 125.4C384.944 126.019 385.115 126.637 385.115 127.256L384.283 127.064V116.6C384.283 116.237 384.4 115.939 384.635 115.704C384.869 115.448 385.179 115.32 385.562 115.32ZM378.97 136.952C380.037 136.952 380.976 136.685 381.787 136.152C382.619 135.597 383.259 134.851 383.707 133.912C384.176 132.952 384.411 131.875 384.411 130.68C384.411 129.464 384.176 128.387 383.707 127.448C383.259 126.509 382.619 125.773 381.787 125.24C380.976 124.685 380.037 124.408 378.97 124.408C377.925 124.408 376.987 124.685 376.155 125.24C375.344 125.773 374.704 126.509 374.235 127.448C373.765 128.387 373.531 129.464 373.531 130.68C373.531 131.853 373.765 132.92 374.235 133.88C374.704 134.819 375.344 135.565 376.155 136.12C376.987 136.675 377.925 136.952 378.97 136.952ZM394.051 137.688C394.051 138.051 393.923 138.36 393.667 138.616C393.432 138.872 393.133 139 392.771 139C392.387 139 392.077 138.872 391.843 138.616C391.608 138.36 391.491 138.051 391.491 137.688V123.48C391.491 123.117 391.608 122.819 391.843 122.584C392.099 122.328 392.408 122.2 392.771 122.2C393.133 122.2 393.432 122.328 393.667 122.584C393.923 122.819 394.051 123.117 394.051 123.48V137.688ZM392.771 120.056C392.237 120.056 391.843 119.949 391.587 119.736C391.331 119.523 391.203 119.192 391.203 118.744V118.296C391.203 117.848 391.341 117.517 391.619 117.304C391.896 117.091 392.291 116.984 392.803 116.984C393.315 116.984 393.699 117.091 393.955 117.304C394.211 117.517 394.339 117.848 394.339 118.296V118.744C394.339 119.192 394.2 119.523 393.923 119.736C393.667 119.949 393.283 120.056 392.771 120.056ZM410.278 137.688C410.278 138.051 410.15 138.36 409.894 138.616C409.638 138.872 409.328 139 408.966 139C408.603 139 408.304 138.872 408.07 138.616C407.835 138.36 407.718 138.051 407.718 137.688V116.6C407.718 116.237 407.835 115.939 408.07 115.704C408.326 115.448 408.635 115.32 408.998 115.32C409.382 115.32 409.691 115.448 409.926 115.704C410.16 115.939 410.278 116.237 410.278 116.6V137.688ZM417.707 137.688C417.707 138.051 417.579 138.36 417.323 138.616C417.088 138.872 416.79 139 416.427 139C416.043 139 415.734 138.872 415.499 138.616C415.264 138.36 415.147 138.051 415.147 137.688V123.48C415.147 123.117 415.264 122.819 415.499 122.584C415.755 122.328 416.064 122.2 416.427 122.2C416.79 122.2 417.088 122.328 417.323 122.584C417.579 122.819 417.707 123.117 417.707 123.48V137.688ZM416.427 120.056C415.894 120.056 415.499 119.949 415.243 119.736C414.987 119.523 414.859 119.192 414.859 118.744V118.296C414.859 117.848 414.998 117.517 415.275 117.304C415.552 117.091 415.947 116.984 416.459 116.984C416.971 116.984 417.355 117.091 417.611 117.304C417.867 117.517 417.995 117.848 417.995 118.296V118.744C417.995 119.192 417.856 119.523 417.579 119.736C417.323 119.949 416.939 120.056 416.427 120.056ZM430.53 122.04C431.98 122.04 433.122 122.339 433.954 122.936C434.786 123.533 435.372 124.333 435.714 125.336C436.076 126.339 436.258 127.459 436.258 128.696V137.688C436.258 138.051 436.13 138.36 435.874 138.616C435.639 138.872 435.34 139 434.978 139C434.615 139 434.306 138.872 434.05 138.616C433.815 138.36 433.698 138.051 433.698 137.688V128.76C433.698 127.949 433.57 127.224 433.314 126.584C433.079 125.923 432.674 125.4 432.098 125.016C431.543 124.611 430.775 124.408 429.794 124.408C428.898 124.408 428.076 124.611 427.33 125.016C426.583 125.4 425.986 125.923 425.538 126.584C425.09 127.224 424.866 127.949 424.866 128.76V137.688C424.866 138.051 424.738 138.36 424.482 138.616C424.247 138.872 423.948 139 423.586 139C423.223 139 422.914 138.872 422.658 138.616C422.423 138.36 422.306 138.051 422.306 137.688V123.736C422.306 123.373 422.423 123.075 422.658 122.84C422.914 122.584 423.223 122.456 423.586 122.456C423.97 122.456 424.279 122.584 424.514 122.84C424.748 123.075 424.866 123.373 424.866 123.736V126.008L424.226 126.712C424.332 126.157 424.578 125.603 424.962 125.048C425.346 124.472 425.826 123.96 426.402 123.512C426.978 123.064 427.618 122.712 428.322 122.456C429.026 122.179 429.762 122.04 430.53 122.04ZM447.937 122.04C448.854 122.04 449.708 122.2 450.497 122.52C451.286 122.819 451.969 123.213 452.545 123.704C453.142 124.195 453.601 124.707 453.921 125.24C454.262 125.773 454.433 126.275 454.433 126.744L453.825 126.36V123.576C453.825 123.213 453.942 122.915 454.177 122.68C454.412 122.424 454.721 122.296 455.105 122.296C455.468 122.296 455.766 122.424 456.001 122.68C456.257 122.915 456.385 123.213 456.385 123.576V137.592C456.385 139.341 456.012 140.792 455.265 141.944C454.54 143.096 453.558 143.96 452.321 144.536C451.084 145.112 449.697 145.4 448.161 145.4C447.521 145.4 446.817 145.315 446.049 145.144C445.281 144.973 444.598 144.76 444.001 144.504C443.404 144.269 443.02 144.024 442.849 143.768C442.529 143.555 442.326 143.309 442.241 143.032C442.177 142.776 442.23 142.531 442.401 142.296C442.593 141.997 442.838 141.848 443.137 141.848C443.457 141.848 443.852 141.944 444.321 142.136C444.513 142.2 444.812 142.307 445.217 142.456C445.644 142.605 446.113 142.733 446.625 142.84C447.158 142.968 447.681 143.032 448.193 143.032C450.006 143.032 451.393 142.552 452.353 141.592C453.334 140.653 453.825 139.405 453.825 137.848V134.872L454.177 135.032C454.049 135.629 453.782 136.184 453.377 136.696C452.993 137.208 452.513 137.667 451.937 138.072C451.382 138.456 450.764 138.765 450.081 139C449.398 139.213 448.705 139.32 448.001 139.32C446.508 139.32 445.164 138.947 443.969 138.2C442.774 137.453 441.825 136.429 441.121 135.128C440.438 133.827 440.097 132.344 440.097 130.68C440.097 128.995 440.438 127.501 441.121 126.2C441.825 124.899 442.764 123.885 443.937 123.16C445.132 122.413 446.465 122.04 447.937 122.04ZM448.257 124.408C447.169 124.408 446.188 124.685 445.313 125.24C444.46 125.773 443.788 126.509 443.297 127.448C442.828 128.387 442.593 129.464 442.593 130.68C442.593 131.853 442.828 132.92 443.297 133.88C443.788 134.819 444.46 135.565 445.313 136.12C446.188 136.675 447.169 136.952 448.257 136.952C449.366 136.952 450.348 136.685 451.201 136.152C452.054 135.597 452.726 134.851 453.217 133.912C453.708 132.973 453.953 131.896 453.953 130.68C453.953 129.443 453.708 128.355 453.217 127.416C452.726 126.477 452.054 125.741 451.201 125.208C450.348 124.675 449.366 124.408 448.257 124.408ZM462.654 139C462.27 139 461.961 138.872 461.726 138.616C461.491 138.36 461.374 138.051 461.374 137.688V116.6C461.374 116.237 461.491 115.939 461.726 115.704C461.961 115.448 462.27 115.32 462.654 115.32C463.017 115.32 463.315 115.448 463.55 115.704C463.806 115.939 463.934 116.237 463.934 116.6V137.688C463.934 138.051 463.806 138.36 463.55 138.616C463.315 138.872 463.017 139 462.654 139ZM473.278 122.36C473.619 122.36 473.907 122.499 474.142 122.776C474.398 123.032 474.526 123.299 474.526 123.576C474.526 123.939 474.355 124.259 474.014 124.536L463.646 133.592L463.55 130.616L472.382 122.744C472.638 122.488 472.937 122.36 473.278 122.36ZM473.63 138.968C473.267 138.968 472.947 138.829 472.67 138.552L465.854 131.288L467.774 129.528L474.526 136.76C474.782 137.037 474.91 137.357 474.91 137.72C474.91 138.104 474.761 138.413 474.462 138.648C474.163 138.861 473.886 138.968 473.63 138.968ZM490.846 122.456C491.23 122.456 491.539 122.584 491.774 122.84C492.008 123.075 492.126 123.373 492.126 123.736V132.472C492.126 134.627 491.518 136.301 490.302 137.496C489.107 138.669 487.432 139.256 485.278 139.256C483.144 139.256 481.47 138.669 480.254 137.496C479.059 136.301 478.462 134.627 478.462 132.472V123.736C478.462 123.373 478.579 123.075 478.814 122.84C479.07 122.584 479.379 122.456 479.742 122.456C480.126 122.456 480.435 122.584 480.67 122.84C480.904 123.075 481.022 123.373 481.022 123.736V132.472C481.022 133.923 481.395 135.021 482.142 135.768C482.888 136.515 483.934 136.888 485.278 136.888C486.664 136.888 487.72 136.515 488.446 135.768C489.192 135.021 489.566 133.923 489.566 132.472V123.736C489.566 123.373 489.683 123.075 489.918 122.84C490.174 122.584 490.483 122.456 490.846 122.456ZM505.092 122.04C506.543 122.04 507.684 122.339 508.516 122.936C509.348 123.533 509.935 124.333 510.276 125.336C510.639 126.339 510.82 127.459 510.82 128.696V137.688C510.82 138.051 510.692 138.36 510.436 138.616C510.201 138.872 509.903 139 509.54 139C509.177 139 508.868 138.872 508.612 138.616C508.377 138.36 508.26 138.051 508.26 137.688V128.76C508.26 127.949 508.132 127.224 507.876 126.584C507.641 125.923 507.236 125.4 506.66 125.016C506.105 124.611 505.337 124.408 504.356 124.408C503.46 124.408 502.639 124.611 501.892 125.016C501.145 125.4 500.548 125.923 500.1 126.584C499.652 127.224 499.428 127.949 499.428 128.76V137.688C499.428 138.051 499.3 138.36 499.044 138.616C498.809 138.872 498.511 139 498.148 139C497.785 139 497.476 138.872 497.22 138.616C496.985 138.36 496.868 138.051 496.868 137.688V123.736C496.868 123.373 496.985 123.075 497.22 122.84C497.476 122.584 497.785 122.456 498.148 122.456C498.532 122.456 498.841 122.584 499.076 122.84C499.311 123.075 499.428 123.373 499.428 123.736V126.008L498.788 126.712C498.895 126.157 499.14 125.603 499.524 125.048C499.908 124.472 500.388 123.96 500.964 123.512C501.54 123.064 502.18 122.712 502.884 122.456C503.588 122.179 504.324 122.04 505.092 122.04ZM522.5 122.04C523.417 122.04 524.27 122.2 525.06 122.52C525.849 122.819 526.532 123.213 527.108 123.704C527.705 124.195 528.164 124.707 528.484 125.24C528.825 125.773 528.996 126.275 528.996 126.744L528.388 126.36V123.576C528.388 123.213 528.505 122.915 528.74 122.68C528.974 122.424 529.284 122.296 529.668 122.296C530.03 122.296 530.329 122.424 530.564 122.68C530.82 122.915 530.948 123.213 530.948 123.576V137.592C530.948 139.341 530.574 140.792 529.828 141.944C529.102 143.096 528.121 143.96 526.884 144.536C525.646 145.112 524.26 145.4 522.724 145.4C522.084 145.4 521.38 145.315 520.612 145.144C519.844 144.973 519.161 144.76 518.564 144.504C517.966 144.269 517.582 144.024 517.411 143.768C517.092 143.555 516.889 143.309 516.804 143.032C516.74 142.776 516.793 142.531 516.964 142.296C517.156 141.997 517.401 141.848 517.7 141.848C518.02 141.848 518.414 141.944 518.884 142.136C519.076 142.2 519.374 142.307 519.78 142.456C520.206 142.605 520.676 142.733 521.188 142.84C521.721 142.968 522.244 143.032 522.756 143.032C524.569 143.032 525.956 142.552 526.916 141.592C527.897 140.653 528.388 139.405 528.388 137.848V134.872L528.74 135.032C528.612 135.629 528.345 136.184 527.94 136.696C527.556 137.208 527.076 137.667 526.5 138.072C525.945 138.456 525.326 138.765 524.644 139C523.961 139.213 523.268 139.32 522.564 139.32C521.07 139.32 519.726 138.947 518.532 138.2C517.337 137.453 516.388 136.429 515.684 135.128C515.001 133.827 514.66 132.344 514.66 130.68C514.66 128.995 515.001 127.501 515.684 126.2C516.388 124.899 517.326 123.885 518.5 123.16C519.694 122.413 521.028 122.04 522.5 122.04ZM522.82 124.408C521.732 124.408 520.75 124.685 519.876 125.24C519.022 125.773 518.35 126.509 517.86 127.448C517.39 128.387 517.156 129.464 517.156 130.68C517.156 131.853 517.39 132.92 517.86 133.88C518.35 134.819 519.022 135.565 519.876 136.12C520.75 136.675 521.732 136.952 522.82 136.952C523.929 136.952 524.91 136.685 525.764 136.152C526.617 135.597 527.289 134.851 527.78 133.912C528.27 132.973 528.516 131.896 528.516 130.68C528.516 129.443 528.27 128.355 527.78 127.416C527.289 126.477 526.617 125.741 525.764 125.208C524.91 124.675 523.929 124.408 522.82 124.408ZM549.156 122.296C549.519 122.296 549.818 122.424 550.052 122.68C550.308 122.915 550.436 123.213 550.436 123.576V137.688C550.436 138.051 550.308 138.36 550.052 138.616C549.818 138.872 549.519 139 549.156 139C548.772 139 548.463 138.872 548.228 138.616C547.994 138.36 547.876 138.051 547.876 137.688V134.648L548.484 134.584C548.484 135.053 548.324 135.565 548.004 136.12C547.684 136.675 547.247 137.197 546.692 137.688C546.138 138.157 545.476 138.552 544.708 138.872C543.962 139.171 543.151 139.32 542.276 139.32C540.826 139.32 539.524 138.947 538.372 138.2C537.22 137.432 536.303 136.397 535.62 135.096C534.959 133.795 534.628 132.312 534.628 130.648C534.628 128.963 534.959 127.48 535.62 126.2C536.303 124.899 537.22 123.885 538.372 123.16C539.524 122.413 540.804 122.04 542.212 122.04C543.13 122.04 543.983 122.189 544.772 122.488C545.562 122.787 546.244 123.192 546.82 123.704C547.418 124.216 547.876 124.781 548.196 125.4C548.538 126.019 548.708 126.637 548.708 127.256L547.876 127.064V123.576C547.876 123.213 547.994 122.915 548.228 122.68C548.463 122.424 548.772 122.296 549.156 122.296ZM542.564 136.952C543.631 136.952 544.57 136.675 545.38 136.12C546.212 135.565 546.852 134.819 547.3 133.88C547.77 132.92 548.004 131.843 548.004 130.648C548.004 129.475 547.77 128.419 547.3 127.48C546.852 126.52 546.212 125.773 545.38 125.24C544.57 124.685 543.631 124.408 542.564 124.408C541.519 124.408 540.58 124.675 539.748 125.208C538.938 125.741 538.298 126.477 537.828 127.416C537.359 128.355 537.124 129.432 537.124 130.648C537.124 131.843 537.348 132.92 537.796 133.88C538.266 134.819 538.906 135.565 539.716 136.12C540.548 136.675 541.498 136.952 542.564 136.952ZM563.405 122.04C564.855 122.04 565.997 122.339 566.829 122.936C567.661 123.533 568.247 124.333 568.589 125.336C568.951 126.339 569.133 127.459 569.133 128.696V137.688C569.133 138.051 569.005 138.36 568.749 138.616C568.514 138.872 568.215 139 567.853 139C567.49 139 567.181 138.872 566.925 138.616C566.69 138.36 566.573 138.051 566.573 137.688V128.76C566.573 127.949 566.445 127.224 566.189 126.584C565.954 125.923 565.549 125.4 564.973 125.016C564.418 124.611 563.65 124.408 562.669 124.408C561.773 124.408 560.951 124.611 560.205 125.016C559.458 125.4 558.861 125.923 558.413 126.584C557.965 127.224 557.741 127.949 557.741 128.76V137.688C557.741 138.051 557.613 138.36 557.357 138.616C557.122 138.872 556.823 139 556.461 139C556.098 139 555.789 138.872 555.533 138.616C555.298 138.36 555.181 138.051 555.181 137.688V123.736C555.181 123.373 555.298 123.075 555.533 122.84C555.789 122.584 556.098 122.456 556.461 122.456C556.845 122.456 557.154 122.584 557.389 122.84C557.623 123.075 557.741 123.373 557.741 123.736V126.008L557.101 126.712C557.207 126.157 557.453 125.603 557.837 125.048C558.221 124.472 558.701 123.96 559.277 123.512C559.853 123.064 560.493 122.712 561.197 122.456C561.901 122.179 562.637 122.04 563.405 122.04ZM583.449 138.968C583.001 138.968 582.649 138.84 582.393 138.584C582.158 138.328 582.041 137.976 582.041 137.528V136.888C582.041 136.419 582.158 136.056 582.393 135.8C582.649 135.544 583.001 135.416 583.449 135.416H583.705C584.174 135.416 584.526 135.544 584.761 135.8C584.995 136.056 585.113 136.419 585.113 136.888V137.528C585.113 137.976 584.995 138.328 584.761 138.584C584.526 138.84 584.174 138.968 583.705 138.968H583.449ZM589.433 138.968C588.985 138.968 588.633 138.84 588.377 138.584C588.142 138.328 588.025 137.976 588.025 137.528V136.888C588.025 136.419 588.142 136.056 588.377 135.8C588.633 135.544 588.985 135.416 589.433 135.416H589.689C590.158 135.416 590.51 135.544 590.745 135.8C590.979 136.056 591.097 136.419 591.097 136.888V137.528C591.097 137.976 590.979 138.328 590.745 138.584C590.51 138.84 590.158 138.968 589.689 138.968H589.433ZM595.545 138.968C595.097 138.968 594.745 138.84 594.489 138.584C594.254 138.328 594.137 137.976 594.137 137.528V136.888C594.137 136.419 594.254 136.056 594.489 135.8C594.745 135.544 595.097 135.416 595.545 135.416H595.801C596.27 135.416 596.622 135.544 596.857 135.8C597.091 136.056 597.208 136.419 597.208 136.888V137.528C597.208 137.976 597.091 138.328 596.857 138.584C596.622 138.84 596.27 138.968 595.801 138.968H595.545ZM602.042 138.968C601.594 138.968 601.242 138.84 600.986 138.584C600.752 138.328 600.634 137.976 600.634 137.528V136.888C600.634 136.419 600.752 136.056 600.986 135.8C601.242 135.544 601.594 135.416 602.042 135.416H602.298C602.768 135.416 603.12 135.544 603.354 135.8C603.589 136.056 603.706 136.419 603.706 136.888V137.528C603.706 137.976 603.589 138.328 603.354 138.584C603.12 138.84 602.768 138.968 602.298 138.968H602.042Z" fill="white"/>
</svg>
