<svg width="973" height="646" viewBox="0 0 973 646" fill="none" xmlns="http://www.w3.org/2000/svg">
<path d="M957.876 31.2931C958.21 162.892 960.913 565.85 957.178 634.189C906.397 642.981 904.762 635.684 853.225 634.012L26.1783 607.147C20.8137 606.975 14.9596 606.621 10.9127 603.085C7.21477 599.814 5.95436 594.642 4.9804 589.798C-3.38419 548.033 39.9856 61.1942 41.3502 21.1994C98.1783 12.2879 173.913 12.9337 231.559 12.9129C291.85 12.9129 337.147 9.66291 397.402 10.5171C516.376 12.2046 635.303 15.6265 754.189 20.7879C822.105 23.7879 890.001 27.2879 957.876 31.2931Z" fill="#116D4F"/>
<path d="M578.429 186.022C587.825 207.902 609.002 222.142 629.892 233.6C654.319 246.986 680.033 258.444 702.262 275.231C724.491 292.017 743.476 315.34 747.752 342.887C753.997 383.231 728.189 421.106 701.424 451.934C674.663 482.767 644.226 514.34 638.236 554.725C636.892 563.71 637.148 573.746 642.981 580.71C648.293 587.053 656.924 589.309 664.997 591.158C745.976 609.71 827.903 621.762 910.793 627.319C915.674 627.652 920.752 627.923 925.262 626.017C934.986 621.913 938.023 609.871 939.71 599.465C963.054 456.314 965.773 310.689 968.439 165.673C969.2 124.824 969.856 83.4649 959.007 44.1733C957.955 40.2826 956.611 36.2722 953.465 33.8243C950.747 32.0587 947.778 31.0274 944.554 30.7305C867.694 17.6733 790.288 11.642 712.335 12.642C686.819 12.9493 652.47 9.12117 630.96 26.2566C615.288 38.767 609.142 60.7045 600.991 78.1733C585.512 111.324 562.325 148.475 578.429 186.022Z" fill="#15664C"/>
<path d="M867.345 48.6266C900.621 54.0172 927.637 56.4078 961.377 54.8141C961.903 36.5485 961.262 31.1578 961.767 12.913C824.71 11.4703 25.5015 -10.4307 25.1109 13.3193C24.663 40.3974 34.8348 32.7724 51.9703 30.1474C83.9598 25.0693 174.496 27.7724 206.762 26.1578C334.173 19.8193 833.986 43.2412 867.345 48.6266Z" fill="#CD924C"/>
<path d="M959.882 609.502C959.882 621.97 959.491 626.309 955.074 639.986C795.147 657.491 646.793 626.095 485.892 626.934C452.09 627.106 9.56917 617.205 5.50668 603.2C-2.46728 575.46 10.4077 570.481 25.5588 570.46C94.5015 570.46 199.876 584.429 268.824 585.731C344.772 587.168 877.574 611.72 959.882 609.502Z" fill="#CD924C"/>
<path d="M942.085 210.179C942.085 375.158 941.189 489.944 915.538 615.121C913.788 623.626 909.705 621.444 915.012 628.392C920.325 635.335 950.116 630.455 957.179 632.283C976.783 479.444 972.054 335.804 968.653 181.778C967.7 138.653 968.788 55.34 961.71 12.814C935.085 13.3192 935.085 13.3192 933.819 37.8869C931.934 74.7931 942.085 173.59 942.085 210.179Z" fill="#CD924C"/>
<path d="M41.7778 606.08C25.9861 600.533 21.882 599.736 5.5278 603.199C-9.08158 605.142 22.658 89.3036 12.8195 32.4807C9.9028 15.6526 14.4132 11.0849 42.9861 8.04841C59.3611 6.31925 51.6007 36.7828 50.6059 50.8453C47.3976 96.0692 36.9913 366.345 37.8872 456.236C38.0434 471.351 32.7934 603.022 41.7778 606.08Z" fill="#CD924C"/>
<path d="M24.038 120.116C22.0953 123.83 19.663 127.35 18.6161 131.418C17.9651 134.475 17.7203 137.569 17.8921 140.694C18.2046 164.647 18.5015 188.6 18.788 212.553C19.0015 229.809 19.2151 247.064 20.7359 264.257C22.564 285.949 26.314 307.949 22.1369 329.309C18.9234 345.668 11.163 360.876 8.03277 377.257C4.63173 394.996 6.80881 413.283 7.2359 431.356C7.64735 448.491 6.47548 465.611 5.75673 482.751C4.06402 522.741 -9.4516 612.262 11.9807 606.08C11.9807 587.444 7.91819 565.481 7.91819 546.845C7.91819 519.746 7.91819 492.496 12.5849 465.788C15.5432 448.767 20.3661 431.47 17.2151 414.47C15.4807 405.6 11.5953 397.1 11.3974 388.074C10.9338 369.283 25.8296 353.819 30.8453 335.746C36.4703 315.887 29.8921 294.897 26.6838 274.527C22.5796 248.465 24.0796 221.871 25.5953 195.533L28.0849 152.231C28.4859 140.397 29.7255 128.658 31.7984 117.001C34.1734 105.33 38.2984 93.6576 37.9078 81.7149C37.6369 73.4076 35.2046 65.3556 33.4911 57.2253C31.4234 47.2722 30.439 37.2149 30.538 27.0535C30.6317 19.0014 38.9182 11.0847 47.2046 7.60034C24.2567 10.8868 20.7359 29.3087 23.7671 47.3451C27.7567 70.9962 35.8869 97.3764 24.038 120.116Z" fill="#AA762A"/>
<path d="M29.5639 567.173C30.1472 561.335 31.2566 554.762 27.6212 550.054C24.3139 545.679 21.1212 518.038 23.9441 514.048C34.0587 499.731 34.366 480.981 34.2879 463.47C34.2879 443.923 34.116 424.199 30.0691 405.116C29.4962 402.897 29.1525 400.647 29.0379 398.366C29.1525 395.548 29.6316 392.804 30.4754 390.116C33.3972 378.824 35.6889 367.408 37.3452 355.861C34.2722 365.705 32.3243 376.715 28.0639 386.09C25.965 390.72 19.5066 394.413 20.5587 399.434C37.3816 478.876 13.9441 520.038 13.9441 520.038C13.1108 522.522 12.5222 525.069 12.1837 527.668C11.84 530.267 11.7566 532.876 11.9233 535.491C12.09 538.106 12.5066 540.684 13.1733 543.22C13.84 545.757 14.7462 548.199 15.892 550.559C18.2462 555.423 20.2097 560.288 20.2097 563.475C20.1785 574.09 21.1941 584.6 23.2618 595.012C23.9233 598.356 20.7931 605.298 23.0118 607.908C25.2254 610.512 53.2514 612.069 58.7566 611.522C53.1368 599.272 28.2045 580.616 29.5639 567.173Z" fill="#AA762A"/>
<path d="M53.7567 597.189C63.9286 601.897 76.5536 599.486 85.3609 592.58C89.6994 589.194 93.689 584.642 99.1317 584.017C104.58 583.397 109.809 587.054 115.293 586.819C118.257 586.491 121.059 585.627 123.694 584.231C129.746 581.491 149.371 581.022 155.418 578.298C145.418 575.225 125.017 572.835 116.517 574.194C111.6 574.975 106.658 575.752 101.814 576.975C94.5432 578.824 87.4807 581.705 80.0119 582.502C72.5484 583.298 64.6682 577.173 59.9234 571.356C58.7775 569.955 40.2411 565.153 37.7723 569.564C33.8244 576.512 46.8921 593.996 53.7567 597.189Z" fill="#AA762A"/>
<path d="M184.689 610.611C196.861 608.955 208.98 606.465 221.272 606.236C247.663 605.726 273.163 615.647 299.454 617.908C323.845 620.085 348.35 615.668 372.095 609.658C384.798 606.449 398.392 602.793 410.72 607.246C416.85 609.465 422.1 613.528 427.855 616.564C458.158 632.554 499.272 619.949 532.996 625.981C397.788 631.929 313.694 625.861 286.329 623.778C212.246 618.179 127.918 617.184 65.8555 612.111C79.4701 597.83 99.9492 605.34 115.428 609.366C137.642 615.262 162.204 613.663 184.689 610.611Z" fill="#AA762A"/>
<path d="M893.58 610.804C879.325 609.189 794.72 605.632 794.72 605.632C789.705 605.126 738.085 604.621 733.319 604.189C552.981 587.85 372.121 579.376 190.757 578.767C158.434 578.767 138.767 605.319 183.465 598.611C213.861 594.038 246.168 582.345 276.215 594.991C284.595 598.512 292.241 603.819 300.991 606.293C334.793 615.824 370.288 580.46 403.33 592.366C415.002 596.606 424.356 606.35 436.397 609.522C457.788 615.121 478.481 598.455 500.46 595.903C521.272 593.475 541.184 603.804 561.705 608.08C587.71 613.507 614.606 609.132 641.153 607.809C677.851 605.981 859.799 618.528 901.455 619.481C906.726 619.595 914.059 622.382 912.408 627.376C911.95 628.345 911.314 629.184 910.512 629.887C909.705 630.595 908.793 631.116 907.778 631.444C896.731 636.366 884.127 636.033 872.09 635.1C860.049 634.168 847.799 632.668 835.778 630.684C829.163 629.595 822.262 628.371 815.84 630.278C812.653 631.231 809.757 632.923 806.663 634.168C797.481 637.845 787.215 637.376 777.491 636.871C760.746 635.996 743.882 635.121 727.564 631.231C720.038 629.439 712.668 627.007 705.064 625.569C692.517 623.194 679.642 623.626 666.866 623.955C626.507 625.22 585.549 626.699 546.283 617.246C529.71 613.356 512.205 607.345 496.121 612.965C498.496 617.496 503.903 619.559 509.054 619.85C514.21 620.142 519.267 619.09 524.361 619.189C528.929 619.382 533.429 620.028 537.861 621.137C562.231 626.444 586.83 631.6 611.767 631.736C629.835 631.835 647.845 629.283 665.892 629.595C714.512 630.434 762.632 652.007 810.668 643.955C819.575 642.455 828.424 639.965 837.429 640.434C843.127 641.001 848.746 641.986 854.293 643.387C873.877 647.434 891.246 644.83 911.22 643.663C972.871 639.986 907.814 612.324 893.58 610.804Z" fill="#AA762A"/>
<path d="M954.319 158.163C952.064 148.903 951.382 137.955 949.809 128.559C948.309 119.746 953.074 106.496 954.434 97.6682C957.392 78.3714 952.918 65.6682 955.876 46.3922C956.538 42.111 957.158 37.5953 955.678 33.5328C954.199 29.4651 949.845 26.1214 945.663 27.3453C945.059 32.5016 919.522 10.3818 933.642 55.3193L933.876 72.4755C936.21 91.1891 946.481 107.897 944.496 126.653C943.814 133.09 942.882 139.627 944.012 146.106C945.043 151.939 947.746 157.423 949.397 163.163C956.632 188.314 942.824 214.715 943.678 240.976C943.991 250.45 946.246 259.767 947.085 269.22C947.632 277.033 947.705 284.856 947.298 292.679L945.606 344.887C944.923 366.054 940.043 391.575 939.168 412.642C937.767 446.491 922.772 567.793 926.527 552.564C929.033 542.08 935.22 529.106 939.303 519.377C947.803 499.262 949.126 476.955 950.33 455.184C953.908 390.387 957.491 325.377 952.548 260.658C951.46 246.481 949.96 232.257 951.012 218.08C952.548 198.022 959.085 177.715 954.319 158.163Z" fill="#AA762A"/>
<path d="M971.996 330.397C970.538 292.835 971.762 256.475 969.121 226.736C963.033 248.543 959.762 302.309 959.762 302.309C962.7 326.955 961.944 351.892 961.147 376.715L960.038 412.663C959.356 434.35 958.658 456.059 955.991 477.595C952.668 504.205 946.377 530.095 937.127 555.267C932.575 567.699 927.246 580.048 925.71 593.199C924.174 606.35 926.991 620.824 936.621 629.908C938.392 631.6 940.882 633.158 943.137 632.241C947.028 630.684 945.47 624.887 943.621 621.116C942.064 617.913 940.799 614.595 939.83 611.168C938.856 607.741 938.189 604.257 937.83 600.715C937.47 597.168 937.418 593.621 937.684 590.069C937.95 586.517 938.522 583.017 939.403 579.564C942.903 566.043 951.069 554.121 954.96 540.658C957.205 532.205 958.606 523.616 959.163 514.887C962.325 482.465 965.491 450.043 968.653 417.621C971.752 388.621 972.866 359.548 971.996 330.397Z" fill="#AA762A"/>
<path d="M952.762 598.668C952.715 599.726 952.897 600.741 953.309 601.72C953.829 602.793 952.079 636.736 955.074 639.986C957.428 642.59 968.809 557.408 967.001 530.679C955.465 540.21 952.449 585.168 952.762 598.668Z" fill="#AA762A"/>
<path d="M956.048 114.767C957.429 117.798 959.726 120.366 960.97 123.481C962.132 126.965 962.58 130.538 962.314 134.199C962.137 154.731 960.606 175.163 957.72 195.491C957.257 198.783 956.788 202.303 958.226 205.22C959.668 208.137 966.241 220.043 968.83 217.944C970.147 217.319 966.397 77.2983 965.95 66.4441C962.293 72.5535 961.71 80.4493 959.533 87.1837C956.809 95.9337 951.887 105.585 956.048 114.767Z" fill="#AA762A"/>
<path d="M357.278 23.6889C393.455 21.1993 429.59 16.9597 465.84 17.1941C498.455 17.4076 530.934 21.2358 563.397 24.3868C613.965 29.2722 664.804 32.5014 715.663 32.616C749.366 32.616 783.054 31.3712 816.793 30.0691C842.778 29.0587 869.21 27.9701 893.793 19.4858L747.054 20.2462C706.793 20.4597 666.512 20.6524 626.293 19.293C603.658 18.5326 580.981 17.2514 558.746 13.0118C543.366 10.0535 528.215 5.69409 512.637 4.04305C495.366 2.09513 477.939 3.70971 460.647 5.20971L385.012 11.8035C372.913 12.8555 360.663 13.9441 349.304 18.2045C343.897 20.1472 338.569 22.9701 332.809 23.0066C326.741 23.0066 321.142 20.0691 315.309 18.1837C294.981 11.5326 273.085 18.4545 251.825 20.8503C185.293 28.3555 116.246 -10.1757 51.0954 7.23055C47.8246 8.10555 47.0121 12.0378 47.2048 15.4024C47.3975 18.767 50.4704 20.3243 53.2725 21.2358C71.6527 27.5222 103.392 27.4024 122.705 25.2618C114.674 22.543 99.6006 21.1576 88.1423 19.1003C87.8037 19.0378 87.4808 18.9233 87.1787 18.7514C86.8766 18.5795 86.611 18.366 86.3819 18.1055C86.1527 17.8451 85.9756 17.5535 85.8454 17.2305C85.7152 16.9128 85.6423 16.5743 85.6266 16.2305C85.611 15.8868 85.6527 15.543 85.7516 15.2149C85.8558 14.8816 86.0069 14.5743 86.21 14.293C86.4131 14.0118 86.6579 13.7774 86.9444 13.5795C87.2256 13.3816 87.5381 13.2358 87.8714 13.1472C91.7569 12.6003 95.6423 12.5483 99.5433 12.991C107.163 13.3608 114.741 14.142 122.278 15.3243C141.038 17.918 159.84 20.0847 178.679 21.8191C216.465 25.2149 254.325 26.6993 292.262 26.2774C313.976 26.043 335.653 25.1785 357.278 23.6889Z" fill="#AA762A"/>
<path d="M961.71 12.9128H943.699C936.205 13.8503 928.986 15.8087 922.043 18.7826C915.1 21.7618 908.705 25.6368 902.856 30.4181C898.965 33.6472 895.194 37.3451 890.47 39.1733C886.439 40.4701 882.309 41.0639 878.08 40.9441C861.08 41.4285 815.475 43.142 798.455 43.6264C819.85 50.5899 871.173 54.0326 893.366 50.5118C901.689 49.1733 910.288 46.4076 915.772 40.0118C917.408 37.7618 919.163 35.616 921.043 33.5691C923.809 31.3243 926.903 29.6941 930.319 28.6681C941.444 24.5274 953.288 31.2566 964.47 35.1681L961.71 12.9128Z" fill="#AA762A"/>
<path d="M283.876 6.00656C288.684 5.24615 293.507 5.11073 298.345 5.60031C306.632 6.76698 342.595 6.68885 349.731 2.35031C338.548 -0.587187 301.809 -0.00385314 290.741 0.152396C271.778 0.42323 185.486 1.63156 179.376 3.88677C186.397 12.5795 218.725 10.2461 229.632 10.1316C247.788 9.68365 265.866 8.30865 283.876 6.00656Z" fill="#AA762A"/>
<path d="M148.99 98.128C148.137 98.128 147.262 98 146.366 97.744C145.492 97.4667 144.724 97.0613 144.062 96.528C143.892 96.3787 143.753 96.1867 143.646 95.952C143.54 95.7173 143.486 95.4933 143.486 95.28C143.486 95.024 143.593 94.7787 143.806 94.544C144.041 94.288 144.34 94.16 144.702 94.16C144.98 94.16 145.3 94.2987 145.662 94.576C146.132 94.9387 146.654 95.2267 147.23 95.44C147.806 95.6533 148.382 95.76 148.958 95.76C150.153 95.76 151.188 95.536 152.062 95.088C152.937 94.64 153.609 94.0107 154.078 93.2C154.548 92.3893 154.782 91.44 154.782 90.352C154.782 89.3707 154.558 88.5173 154.11 87.792C153.684 87.0453 153.076 86.4693 152.286 86.064C151.518 85.6587 150.633 85.456 149.63 85.456C148.884 85.456 148.212 85.5733 147.614 85.808C147.038 86.0213 146.526 86.2453 146.078 86.48C145.652 86.7147 145.278 86.832 144.958 86.832C144.553 86.832 144.244 86.7467 144.03 86.576C143.817 86.384 143.678 86.1493 143.614 85.872C143.55 85.5947 143.529 85.3387 143.55 85.104L144.798 76.816C144.862 76.5387 145.012 76.2933 145.246 76.08C145.481 75.8667 145.769 75.76 146.11 75.76H155.614C155.956 75.76 156.244 75.8773 156.478 76.112C156.713 76.3467 156.83 76.6453 156.83 77.008C156.83 77.3493 156.713 77.6373 156.478 77.872C156.244 78.0853 155.956 78.192 155.614 78.192H146.75L147.07 77.904L145.886 85.136L145.374 84.464C145.609 84.2507 145.961 84.0373 146.43 83.824C146.921 83.6107 147.476 83.4293 148.094 83.28C148.734 83.1307 149.385 83.056 150.046 83.056C151.433 83.056 152.67 83.376 153.758 84.016C154.868 84.6347 155.742 85.488 156.382 86.576C157.022 87.664 157.342 88.912 157.342 90.32C157.342 91.8773 157.001 93.2427 156.318 94.416C155.636 95.5893 154.665 96.5067 153.406 97.168C152.169 97.808 150.697 98.128 148.99 98.128ZM161.386 97.968C160.938 97.968 160.586 97.84 160.33 97.584C160.095 97.328 159.978 96.976 159.978 96.528V95.888C159.978 95.4187 160.095 95.056 160.33 94.8C160.586 94.544 160.938 94.416 161.386 94.416H161.642C162.111 94.416 162.463 94.544 162.698 94.8C162.933 95.056 163.05 95.4187 163.05 95.888V96.528C163.05 96.976 162.933 97.328 162.698 97.584C162.463 97.84 162.111 97.968 161.642 97.968H161.386ZM201.03 98.064C200.646 98.064 200.326 97.904 200.07 97.584L191.558 86.736L193.51 84.752L202.182 95.856C202.374 96.1333 202.47 96.4213 202.47 96.72C202.47 97.1467 202.31 97.4773 201.99 97.712C201.692 97.9467 201.372 98.064 201.03 98.064ZM200.934 75.568C201.276 75.568 201.553 75.7067 201.766 75.984C202.001 76.2613 202.118 76.5493 202.118 76.848C202.118 77.1467 201.99 77.424 201.734 77.68L187.59 91.056L187.366 88.08L199.91 76.048C200.23 75.728 200.572 75.568 200.934 75.568ZM186.534 98C186.129 98 185.809 97.872 185.574 97.616C185.34 97.36 185.222 97.0507 185.222 96.688V76.912C185.222 76.528 185.35 76.2187 185.606 75.984C185.862 75.728 186.182 75.6 186.566 75.6C186.972 75.6 187.292 75.728 187.526 75.984C187.761 76.2187 187.878 76.528 187.878 76.912V96.688C187.878 97.0507 187.75 97.36 187.494 97.616C187.26 97.872 186.94 98 186.534 98ZM213.141 98.32C211.434 98.32 209.941 97.9573 208.661 97.232C207.381 96.5067 206.378 95.5147 205.653 94.256C204.949 92.976 204.597 91.504 204.597 89.84C204.597 87.984 204.96 86.4053 205.685 85.104C206.432 83.7813 207.392 82.7787 208.565 82.096C209.76 81.392 211.018 81.04 212.341 81.04C213.322 81.04 214.272 81.2213 215.189 81.584C216.106 81.9467 216.917 82.48 217.621 83.184C218.325 83.8667 218.89 84.6987 219.317 85.68C219.744 86.64 219.968 87.7173 219.989 88.912C219.989 89.2533 219.861 89.5413 219.605 89.776C219.349 90.0107 219.05 90.128 218.709 90.128H206.069L205.493 87.92H217.813L217.301 88.368V87.664C217.216 86.7893 216.917 86.0427 216.405 85.424C215.914 84.784 215.306 84.2933 214.581 83.952C213.877 83.6107 213.13 83.44 212.341 83.44C211.701 83.44 211.061 83.5573 210.421 83.792C209.802 84.0053 209.237 84.368 208.725 84.88C208.234 85.3707 207.829 86.0107 207.509 86.8C207.21 87.5893 207.061 88.5387 207.061 89.648C207.061 90.8853 207.306 91.9733 207.797 92.912C208.309 93.8507 209.013 94.5973 209.909 95.152C210.805 95.6853 211.85 95.952 213.045 95.952C213.792 95.952 214.442 95.856 214.997 95.664C215.552 95.472 216.032 95.2373 216.437 94.96C216.842 94.6613 217.184 94.3627 217.461 94.064C217.738 93.872 218.005 93.776 218.261 93.776C218.581 93.776 218.837 93.8827 219.029 94.096C219.242 94.3093 219.349 94.5653 219.349 94.864C219.349 95.2267 219.178 95.5467 218.837 95.824C218.24 96.4853 217.429 97.072 216.405 97.584C215.381 98.0747 214.293 98.32 213.141 98.32ZM230.625 81.04C231.542 81.04 232.395 81.2 233.185 81.52C233.974 81.8187 234.657 82.2133 235.233 82.704C235.83 83.1947 236.289 83.7067 236.609 84.24C236.95 84.7733 237.121 85.2747 237.121 85.744L236.513 85.36V82.576C236.513 82.2133 236.63 81.9147 236.865 81.68C237.099 81.424 237.409 81.296 237.793 81.296C238.155 81.296 238.454 81.424 238.689 81.68C238.945 81.9147 239.073 82.2133 239.073 82.576V96.592C239.073 98.3413 238.699 99.792 237.953 100.944C237.227 102.096 236.246 102.96 235.009 103.536C233.771 104.112 232.385 104.4 230.849 104.4C230.209 104.4 229.505 104.315 228.737 104.144C227.969 103.973 227.286 103.76 226.689 103.504C226.091 103.269 225.707 103.024 225.536 102.768C225.217 102.555 225.014 102.309 224.929 102.032C224.865 101.776 224.918 101.531 225.089 101.296C225.281 100.997 225.526 100.848 225.825 100.848C226.145 100.848 226.539 100.944 227.009 101.136C227.201 101.2 227.499 101.307 227.905 101.456C228.331 101.605 228.801 101.733 229.312 101.84C229.846 101.968 230.369 102.032 230.881 102.032C232.694 102.032 234.081 101.552 235.041 100.592C236.022 99.6533 236.513 98.4053 236.513 96.848V93.872L236.865 94.032C236.737 94.6293 236.47 95.184 236.065 95.696C235.681 96.208 235.201 96.6667 234.625 97.072C234.07 97.456 233.451 97.7653 232.769 98C232.086 98.2133 231.393 98.32 230.689 98.32C229.195 98.32 227.851 97.9467 226.657 97.2C225.462 96.4533 224.513 95.4293 223.809 94.128C223.126 92.8267 222.785 91.344 222.785 89.68C222.785 87.9947 223.126 86.5013 223.809 85.2C224.513 83.8987 225.451 82.8853 226.625 82.16C227.819 81.4133 229.153 81.04 230.625 81.04ZM230.945 83.408C229.857 83.408 228.875 83.6853 228.001 84.24C227.147 84.7733 226.475 85.5093 225.985 86.448C225.515 87.3867 225.281 88.464 225.281 89.68C225.281 90.8533 225.515 91.92 225.985 92.88C226.475 93.8187 227.147 94.5653 228.001 95.12C228.875 95.6747 229.857 95.952 230.945 95.952C232.054 95.952 233.035 95.6853 233.889 95.152C234.742 94.5973 235.414 93.8507 235.905 92.912C236.395 91.9733 236.641 90.896 236.641 89.68C236.641 88.4427 236.395 87.3547 235.905 86.416C235.414 85.4773 234.742 84.7413 233.889 84.208C233.035 83.6747 232.054 83.408 230.945 83.408ZM246.27 96.688C246.27 97.0507 246.142 97.36 245.886 97.616C245.651 97.872 245.352 98 244.99 98C244.606 98 244.296 97.872 244.062 97.616C243.827 97.36 243.71 97.0507 243.71 96.688V82.48C243.71 82.1173 243.827 81.8187 244.062 81.584C244.318 81.328 244.627 81.2 244.99 81.2C245.352 81.2 245.651 81.328 245.886 81.584C246.142 81.8187 246.27 82.1173 246.27 82.48V96.688ZM244.99 79.056C244.456 79.056 244.062 78.9493 243.806 78.736C243.55 78.5227 243.422 78.192 243.422 77.744V77.296C243.422 76.848 243.56 76.5173 243.838 76.304C244.115 76.0907 244.51 75.984 245.022 75.984C245.534 75.984 245.918 76.0907 246.174 76.304C246.43 76.5173 246.558 76.848 246.558 77.296V77.744C246.558 78.192 246.419 78.5227 246.141 78.736C245.886 78.9493 245.502 79.056 244.99 79.056ZM264.5 81.296C264.863 81.296 265.161 81.424 265.396 81.68C265.652 81.9147 265.78 82.2133 265.78 82.576V96.688C265.78 97.0507 265.652 97.36 265.396 97.616C265.161 97.872 264.863 98 264.5 98C264.116 98 263.807 97.872 263.572 97.616C263.337 97.36 263.22 97.0507 263.22 96.688V93.648L263.828 93.584C263.828 94.0533 263.668 94.5653 263.348 95.12C263.028 95.6747 262.591 96.1973 262.036 96.688C261.481 97.1573 260.82 97.552 260.052 97.872C259.305 98.1707 258.495 98.32 257.62 98.32C256.169 98.32 254.868 97.9467 253.716 97.2C252.564 96.432 251.647 95.3973 250.964 94.096C250.303 92.7947 249.972 91.312 249.972 89.648C249.972 87.9627 250.303 86.48 250.964 85.2C251.647 83.8987 252.564 82.8853 253.716 82.16C254.868 81.4133 256.148 81.04 257.556 81.04C258.473 81.04 259.327 81.1893 260.116 81.488C260.905 81.7867 261.588 82.192 262.164 82.704C262.761 83.216 263.22 83.7813 263.54 84.4C263.881 85.0187 264.052 85.6373 264.052 86.256L263.22 86.064V82.576C263.22 82.2133 263.337 81.9147 263.572 81.68C263.807 81.424 264.116 81.296 264.5 81.296ZM257.908 95.952C258.975 95.952 259.913 95.6747 260.724 95.12C261.556 94.5653 262.196 93.8187 262.644 92.88C263.113 91.92 263.348 90.8427 263.348 89.648C263.348 88.4747 263.113 87.4187 262.644 86.48C262.196 85.52 261.556 84.7733 260.724 84.24C259.913 83.6853 258.975 83.408 257.908 83.408C256.863 83.408 255.924 83.6747 255.092 84.208C254.281 84.7413 253.641 85.4773 253.172 86.416C252.703 87.3547 252.468 88.432 252.468 89.648C252.468 90.8427 252.692 91.92 253.14 92.88C253.609 93.8187 254.249 94.5653 255.06 95.12C255.892 95.6747 256.841 95.952 257.908 95.952ZM269.884 81.552H277.404C277.746 81.552 278.023 81.6693 278.236 81.904C278.471 82.1387 278.588 82.416 278.588 82.736C278.588 83.0773 278.471 83.3653 278.236 83.6C278.023 83.8133 277.746 83.92 277.404 83.92H269.884C269.564 83.92 269.287 83.8027 269.052 83.568C268.818 83.3333 268.7 83.0453 268.7 82.704C268.7 82.384 268.818 82.1173 269.052 81.904C269.287 81.6693 269.564 81.552 269.884 81.552ZM273.244 77.2C273.607 77.2 273.906 77.328 274.14 77.584C274.375 77.8187 274.492 78.1173 274.492 78.48V93.936C274.492 94.448 274.567 94.832 274.716 95.088C274.866 95.344 275.058 95.5253 275.292 95.632C275.548 95.7173 275.794 95.76 276.028 95.76C276.242 95.76 276.423 95.728 276.572 95.664C276.743 95.5787 276.935 95.536 277.148 95.536C277.362 95.536 277.554 95.6427 277.724 95.856C277.916 96.048 278.012 96.304 278.012 96.624C278.012 97.008 277.788 97.3387 277.34 97.616C276.892 97.872 276.391 98 275.836 98C275.538 98 275.164 97.9787 274.716 97.936C274.29 97.8933 273.863 97.7547 273.436 97.52C273.01 97.2853 272.647 96.9013 272.348 96.368C272.071 95.8133 271.932 95.0453 271.932 94.064V78.48C271.932 78.1173 272.06 77.8187 272.316 77.584C272.572 77.328 272.882 77.2 273.244 77.2ZM295.781 81.296C296.144 81.296 296.443 81.424 296.677 81.68C296.933 81.9147 297.061 82.2133 297.061 82.576V96.688C297.061 97.0507 296.933 97.36 296.677 97.616C296.443 97.872 296.144 98 295.781 98C295.397 98 295.088 97.872 294.853 97.616C294.619 97.36 294.501 97.0507 294.501 96.688V93.648L295.109 93.584C295.109 94.0533 294.949 94.5653 294.629 95.12C294.309 95.6747 293.872 96.1973 293.317 96.688C292.763 97.1573 292.101 97.552 291.333 97.872C290.587 98.1707 289.776 98.32 288.901 98.32C287.451 98.32 286.149 97.9467 284.997 97.2C283.845 96.432 282.928 95.3973 282.245 94.096C281.584 92.7947 281.253 91.312 281.253 89.648C281.253 87.9627 281.584 86.48 282.245 85.2C282.928 83.8987 283.845 82.8853 284.997 82.16C286.149 81.4133 287.429 81.04 288.837 81.04C289.755 81.04 290.608 81.1893 291.397 81.488C292.187 81.7867 292.869 82.192 293.445 82.704C294.043 83.216 294.501 83.7813 294.821 84.4C295.163 85.0187 295.333 85.6373 295.333 86.256L294.501 86.064V82.576C294.501 82.2133 294.619 81.9147 294.853 81.68C295.088 81.424 295.397 81.296 295.781 81.296ZM289.189 95.952C290.256 95.952 291.195 95.6747 292.005 95.12C292.837 94.5653 293.477 93.8187 293.925 92.88C294.395 91.92 294.629 90.8427 294.629 89.648C294.629 88.4747 294.395 87.4187 293.925 86.48C293.477 85.52 292.837 84.7733 292.005 84.24C291.195 83.6853 290.256 83.408 289.189 83.408C288.144 83.408 287.205 83.6747 286.373 84.208C285.563 84.7413 284.923 85.4773 284.453 86.416C283.984 87.3547 283.749 88.432 283.749 89.648C283.749 90.8427 283.973 91.92 284.421 92.88C284.891 93.8187 285.531 94.5653 286.341 95.12C287.173 95.6747 288.123 95.952 289.189 95.952ZM310.03 81.04C311.48 81.04 312.622 81.3387 313.454 81.936C314.286 82.5333 314.872 83.3333 315.214 84.336C315.576 85.3387 315.758 86.4587 315.758 87.696V96.688C315.758 97.0507 315.63 97.36 315.374 97.616C315.139 97.872 314.84 98 314.478 98C314.115 98 313.806 97.872 313.55 97.616C313.315 97.36 313.198 97.0507 313.198 96.688V87.76C313.198 86.9493 313.07 86.224 312.814 85.584C312.579 84.9227 312.174 84.4 311.598 84.016C311.043 83.6107 310.275 83.408 309.294 83.408C308.398 83.408 307.576 83.6107 306.83 84.016C306.083 84.4 305.486 84.9227 305.038 85.584C304.59 86.224 304.366 86.9493 304.366 87.76V96.688C304.366 97.0507 304.238 97.36 303.982 97.616C303.747 97.872 303.448 98 303.086 98C302.723 98 302.414 97.872 302.158 97.616C301.923 97.36 301.806 97.0507 301.806 96.688V82.736C301.806 82.3733 301.923 82.0747 302.158 81.84C302.414 81.584 302.723 81.456 303.086 81.456C303.47 81.456 303.779 81.584 304.014 81.84C304.248 82.0747 304.366 82.3733 304.366 82.736V85.008L303.726 85.712C303.832 85.1573 304.078 84.6027 304.462 84.048C304.846 83.472 305.326 82.96 305.902 82.512C306.478 82.064 307.118 81.712 307.822 81.456C308.526 81.1787 309.262 81.04 310.03 81.04ZM337.466 81.2C338.916 81.2 340.218 81.5627 341.37 82.288C342.522 83.0133 343.428 84.016 344.09 85.296C344.772 86.576 345.114 88.048 345.114 89.712C345.114 91.3547 344.772 92.8267 344.09 94.128C343.428 95.408 342.522 96.4213 341.37 97.168C340.239 97.8933 338.959 98.256 337.53 98.256C336.74 98.256 335.994 98.1387 335.29 97.904C334.607 97.648 333.978 97.328 333.402 96.944C332.847 96.5387 332.378 96.0907 331.994 95.6C331.61 95.088 331.332 94.5867 331.161 94.096L331.866 93.648V103.088C331.866 103.451 331.748 103.76 331.514 104.016C331.279 104.272 330.97 104.4 330.586 104.4C330.223 104.4 329.914 104.272 329.658 104.016C329.423 103.781 329.306 103.472 329.306 103.088V82.64C329.306 82.2773 329.423 81.9787 329.658 81.744C329.914 81.488 330.223 81.36 330.586 81.36C330.97 81.36 331.279 81.488 331.514 81.744C331.748 81.9787 331.866 82.2773 331.866 82.64V85.488L331.386 85.232C331.535 84.6987 331.791 84.1867 332.154 83.696C332.538 83.2053 332.996 82.7787 333.53 82.416C334.084 82.032 334.692 81.7333 335.354 81.52C336.036 81.3067 336.74 81.2 337.466 81.2ZM337.178 83.568C336.111 83.568 335.162 83.8347 334.33 84.368C333.519 84.9013 332.879 85.6267 332.41 86.544C331.962 87.4613 331.738 88.5173 331.738 89.712C331.738 90.8853 331.962 91.9413 332.41 92.88C332.879 93.8187 333.519 94.5547 334.33 95.088C335.162 95.6213 336.111 95.888 337.178 95.888C338.244 95.888 339.183 95.6213 339.994 95.088C340.804 94.5547 341.444 93.8187 341.914 92.88C342.383 91.9413 342.618 90.8853 342.618 89.712C342.618 88.5173 342.383 87.4613 341.914 86.544C341.444 85.6267 340.804 84.9013 339.994 84.368C339.183 83.8347 338.244 83.568 337.178 83.568ZM364.674 89.68C364.674 91.344 364.3 92.8267 363.554 94.128C362.828 95.4293 361.836 96.4533 360.578 97.2C359.34 97.9467 357.943 98.32 356.386 98.32C354.828 98.32 353.42 97.9467 352.162 97.2C350.903 96.4533 349.9 95.4293 349.154 94.128C348.428 92.8267 348.066 91.344 348.066 89.68C348.066 88.016 348.428 86.5333 349.154 85.232C349.9 83.9307 350.903 82.9067 352.162 82.16C353.42 81.4133 354.828 81.04 356.386 81.04C357.943 81.04 359.34 81.4133 360.578 82.16C361.836 82.9067 362.828 83.9307 363.554 85.232C364.3 86.5333 364.674 88.016 364.674 89.68ZM362.114 89.68C362.114 88.4427 361.858 87.3547 361.346 86.416C360.855 85.4773 360.172 84.7413 359.298 84.208C358.444 83.6747 357.474 83.408 356.386 83.408C355.298 83.408 354.316 83.6747 353.442 84.208C352.588 84.7413 351.906 85.4773 351.394 86.416C350.882 87.3547 350.626 88.4427 350.626 89.68C350.626 90.896 350.882 91.9733 351.394 92.912C351.906 93.8507 352.588 94.5973 353.442 95.152C354.316 95.6853 355.298 95.952 356.386 95.952C357.474 95.952 358.444 95.6853 359.298 95.152C360.172 94.5973 360.855 93.8507 361.346 92.912C361.858 91.9733 362.114 90.896 362.114 89.68ZM367.596 95.376C367.404 95.0987 367.319 94.8107 367.34 94.512C367.362 94.192 367.543 93.9147 367.884 93.68C368.098 93.5307 368.343 93.4667 368.62 93.488C368.919 93.5093 369.186 93.648 369.42 93.904C370.018 94.608 370.7 95.1733 371.468 95.6C372.236 96.0053 373.175 96.208 374.284 96.208C374.796 96.1867 375.308 96.1013 375.82 95.952C376.332 95.8027 376.759 95.5467 377.1 95.184C377.463 94.8 377.644 94.2987 377.644 93.68C377.644 93.0827 377.463 92.6133 377.1 92.272C376.738 91.9093 376.268 91.6213 375.692 91.408C375.116 91.1733 374.487 90.9707 373.804 90.8C373.1 90.608 372.407 90.3947 371.724 90.16C371.042 89.904 370.423 89.5947 369.868 89.232C369.335 88.848 368.898 88.3787 368.556 87.824C368.236 87.248 368.076 86.5547 368.076 85.744C368.076 84.784 368.332 83.952 368.844 83.248C369.378 82.544 370.082 82 370.956 81.616C371.852 81.232 372.823 81.04 373.868 81.04C374.466 81.04 375.084 81.1147 375.724 81.264C376.386 81.392 377.026 81.6267 377.644 81.968C378.263 82.288 378.807 82.736 379.276 83.312C379.468 83.5253 379.575 83.792 379.596 84.112C379.618 84.432 379.479 84.72 379.18 84.976C378.946 85.1467 378.679 85.2213 378.38 85.2C378.103 85.1787 377.868 85.072 377.676 84.88C377.228 84.3467 376.663 83.9413 375.98 83.664C375.319 83.3653 374.583 83.216 373.772 83.216C373.26 83.216 372.759 83.2907 372.268 83.44C371.778 83.5893 371.362 83.8453 371.02 84.208C370.7 84.5493 370.54 85.0293 370.54 85.648C370.562 86.224 370.754 86.6933 371.116 87.056C371.479 87.4187 371.97 87.7173 372.588 87.952C373.207 88.1653 373.89 88.3787 374.636 88.592C375.319 88.7627 375.97 88.9653 376.588 89.2C377.228 89.4133 377.804 89.7013 378.316 90.064C378.828 90.4267 379.234 90.896 379.532 91.472C379.831 92.0267 379.98 92.7307 379.98 93.584C379.98 94.5653 379.703 95.4187 379.148 96.144C378.594 96.848 377.858 97.392 376.94 97.776C376.044 98.1387 375.074 98.32 374.028 98.32C372.855 98.32 371.692 98.096 370.54 97.648C369.41 97.2 368.428 96.4427 367.596 95.376ZM386.145 96.688C386.145 97.0507 386.017 97.36 385.761 97.616C385.526 97.872 385.227 98 384.865 98C384.481 98 384.171 97.872 383.937 97.616C383.702 97.36 383.585 97.0507 383.585 96.688V82.48C383.585 82.1173 383.702 81.8187 383.937 81.584C384.193 81.328 384.502 81.2 384.865 81.2C385.227 81.2 385.526 81.328 385.761 81.584C386.017 81.8187 386.145 82.1173 386.145 82.48V96.688ZM384.865 79.056C384.331 79.056 383.937 78.9493 383.681 78.736C383.425 78.5227 383.297 78.192 383.297 77.744V77.296C383.297 76.848 383.435 76.5173 383.713 76.304C383.99 76.0907 384.385 75.984 384.897 75.984C385.409 75.984 385.793 76.0907 386.049 76.304C386.305 76.5173 386.433 76.848 386.433 77.296V77.744C386.433 78.192 386.294 78.5227 386.016 78.736C385.761 78.9493 385.377 79.056 384.865 79.056ZM390.103 81.552H397.623C397.964 81.552 398.242 81.6693 398.455 81.904C398.69 82.1387 398.807 82.416 398.807 82.736C398.807 83.0773 398.69 83.3653 398.455 83.6C398.242 83.8133 397.964 83.92 397.623 83.92H390.103C389.783 83.92 389.506 83.8027 389.271 83.568C389.036 83.3333 388.919 83.0453 388.919 82.704C388.919 82.384 389.036 82.1173 389.271 81.904C389.506 81.6693 389.783 81.552 390.103 81.552ZM393.463 77.2C393.826 77.2 394.124 77.328 394.359 77.584C394.594 77.8187 394.711 78.1173 394.711 78.48V93.936C394.711 94.448 394.786 94.832 394.935 95.088C395.084 95.344 395.276 95.5253 395.511 95.632C395.767 95.7173 396.012 95.76 396.247 95.76C396.46 95.76 396.642 95.728 396.791 95.664C396.962 95.5787 397.154 95.536 397.367 95.536C397.58 95.536 397.772 95.6427 397.943 95.856C398.135 96.048 398.231 96.304 398.231 96.624C398.231 97.008 398.007 97.3387 397.559 97.616C397.111 97.872 396.61 98 396.055 98C395.756 98 395.383 97.9787 394.935 97.936C394.508 97.8933 394.082 97.7547 393.655 97.52C393.228 97.2853 392.866 96.9013 392.567 96.368C392.29 95.8133 392.151 95.0453 392.151 94.064V78.48C392.151 78.1173 392.279 77.8187 392.535 77.584C392.791 77.328 393.1 77.2 393.463 77.2ZM404.832 96.688C404.832 97.0507 404.704 97.36 404.448 97.616C404.213 97.872 403.915 98 403.552 98C403.168 98 402.859 97.872 402.624 97.616C402.389 97.36 402.272 97.0507 402.272 96.688V82.48C402.272 82.1173 402.389 81.8187 402.624 81.584C402.88 81.328 403.189 81.2 403.552 81.2C403.915 81.2 404.213 81.328 404.448 81.584C404.704 81.8187 404.832 82.1173 404.832 82.48V96.688ZM403.552 79.056C403.019 79.056 402.624 78.9493 402.368 78.736C402.112 78.5227 401.984 78.192 401.984 77.744V77.296C401.984 76.848 402.123 76.5173 402.4 76.304C402.677 76.0907 403.072 75.984 403.584 75.984C404.096 75.984 404.48 76.0907 404.736 76.304C404.992 76.5173 405.12 76.848 405.12 77.296V77.744C405.12 78.192 404.981 78.5227 404.704 78.736C404.448 78.9493 404.064 79.056 403.552 79.056ZM416.343 74.384C416.705 74.384 417.079 74.4267 417.463 74.512C417.868 74.5973 418.209 74.7467 418.487 74.96C418.785 75.1733 418.935 75.4613 418.935 75.824C418.935 76.1653 418.828 76.4533 418.615 76.688C418.401 76.9013 418.145 77.008 417.847 77.008C417.655 77.008 417.388 76.9547 417.047 76.848C416.705 76.72 416.353 76.656 415.991 76.656C415.5 76.656 415.095 76.7627 414.775 76.976C414.476 77.1893 414.252 77.4773 414.103 77.84C413.975 78.1813 413.911 78.5653 413.911 78.992V96.688C413.911 97.0507 413.783 97.36 413.527 97.616C413.292 97.872 412.993 98 412.631 98C412.247 98 411.937 97.872 411.703 97.616C411.468 97.36 411.351 97.0507 411.351 96.688V79.024C411.351 77.5947 411.788 76.464 412.663 75.632C413.559 74.8 414.785 74.384 416.343 74.384ZM417.239 81.712C417.58 81.712 417.868 81.8293 418.103 82.064C418.337 82.2773 418.455 82.5547 418.455 82.896C418.455 83.2373 418.337 83.5253 418.103 83.76C417.868 83.9733 417.58 84.08 417.239 84.08H409.207C408.865 84.08 408.577 83.9627 408.343 83.728C408.108 83.4933 407.991 83.216 407.991 82.896C407.991 82.5333 408.108 82.2453 408.343 82.032C408.577 81.8187 408.865 81.712 409.207 81.712H417.239ZM444.219 74.32C444.581 74.32 444.88 74.448 445.115 74.704C445.371 74.9387 445.499 75.2373 445.499 75.6V96.688C445.499 97.0507 445.371 97.36 445.115 97.616C444.88 97.872 444.581 98 444.219 98C443.835 98 443.525 97.872 443.291 97.616C443.056 97.36 442.939 97.0507 442.939 96.688V93.648L443.547 93.424C443.547 93.936 443.387 94.48 443.067 95.056C442.747 95.6107 442.309 96.1333 441.755 96.624C441.2 97.1147 440.539 97.52 439.771 97.84C439.024 98.16 438.213 98.32 437.339 98.32C435.909 98.32 434.608 97.9467 433.435 97.2C432.283 96.4533 431.365 95.4293 430.683 94.128C430.021 92.8267 429.691 91.344 429.691 89.68C429.691 87.9947 430.021 86.5013 430.683 85.2C431.365 83.8987 432.283 82.8853 433.435 82.16C434.587 81.4133 435.867 81.04 437.275 81.04C438.171 81.04 439.013 81.1893 439.803 81.488C440.592 81.7867 441.275 82.192 441.851 82.704C442.448 83.216 442.917 83.7813 443.259 84.4C443.6 85.0187 443.771 85.6373 443.771 86.256L442.939 86.064V75.6C442.939 75.2373 443.056 74.9387 443.291 74.704C443.525 74.448 443.835 74.32 444.219 74.32ZM437.627 95.952C438.693 95.952 439.632 95.6853 440.443 95.152C441.275 94.5973 441.915 93.8507 442.363 92.912C442.832 91.952 443.067 90.8747 443.067 89.68C443.067 88.464 442.832 87.3867 442.363 86.448C441.915 85.5093 441.275 84.7733 440.443 84.24C439.632 83.6853 438.693 83.408 437.627 83.408C436.581 83.408 435.643 83.6853 434.811 84.24C434 84.7733 433.36 85.5093 432.891 86.448C432.421 87.3867 432.187 88.464 432.187 89.68C432.187 90.8533 432.421 91.92 432.891 92.88C433.36 93.8187 434 94.5653 434.811 95.12C435.643 95.6747 436.581 95.952 437.627 95.952ZM463.875 81.296C464.238 81.296 464.536 81.424 464.771 81.68C465.027 81.9147 465.155 82.2133 465.155 82.576V96.688C465.155 97.0507 465.027 97.36 464.771 97.616C464.536 97.872 464.238 98 463.875 98C463.491 98 463.182 97.872 462.947 97.616C462.712 97.36 462.595 97.0507 462.595 96.688V93.648L463.203 93.584C463.203 94.0533 463.043 94.5653 462.723 95.12C462.403 95.6747 461.966 96.1973 461.411 96.688C460.856 97.1573 460.195 97.552 459.427 97.872C458.68 98.1707 457.87 98.32 456.995 98.32C455.544 98.32 454.243 97.9467 453.091 97.2C451.939 96.432 451.022 95.3973 450.339 94.096C449.678 92.7947 449.347 91.312 449.347 89.648C449.347 87.9627 449.678 86.48 450.339 85.2C451.022 83.8987 451.939 82.8853 453.091 82.16C454.243 81.4133 455.523 81.04 456.931 81.04C457.848 81.04 458.702 81.1893 459.491 81.488C460.28 81.7867 460.963 82.192 461.539 82.704C462.136 83.216 462.595 83.7813 462.915 84.4C463.256 85.0187 463.427 85.6373 463.427 86.256L462.595 86.064V82.576C462.595 82.2133 462.712 81.9147 462.947 81.68C463.182 81.424 463.491 81.296 463.875 81.296ZM457.283 95.952C458.35 95.952 459.288 95.6747 460.099 95.12C460.931 94.5653 461.571 93.8187 462.019 92.88C462.488 91.92 462.723 90.8427 462.723 89.648C462.723 88.4747 462.488 87.4187 462.019 86.48C461.571 85.52 460.931 84.7733 460.099 84.24C459.288 83.6853 458.35 83.408 457.283 83.408C456.238 83.408 455.299 83.6747 454.467 84.208C453.656 84.7413 453.016 85.4773 452.547 86.416C452.078 87.3547 451.843 88.432 451.843 89.648C451.843 90.8427 452.067 91.92 452.515 92.88C452.984 93.8187 453.624 94.5653 454.435 95.12C455.267 95.6747 456.216 95.952 457.283 95.952ZM478.123 81.04C479.574 81.04 480.715 81.3387 481.547 81.936C482.379 82.5333 482.966 83.3333 483.307 84.336C483.67 85.3387 483.851 86.4587 483.851 87.696V96.688C483.851 97.0507 483.723 97.36 483.467 97.616C483.233 97.872 482.934 98 482.571 98C482.209 98 481.899 97.872 481.643 97.616C481.409 97.36 481.291 97.0507 481.291 96.688V87.76C481.291 86.9493 481.163 86.224 480.907 85.584C480.673 84.9227 480.267 84.4 479.691 84.016C479.137 83.6107 478.369 83.408 477.387 83.408C476.491 83.408 475.67 83.6107 474.923 84.016C474.177 84.4 473.579 84.9227 473.131 85.584C472.683 86.224 472.459 86.9493 472.459 87.76V96.688C472.459 97.0507 472.331 97.36 472.075 97.616C471.841 97.872 471.542 98 471.179 98C470.817 98 470.507 97.872 470.251 97.616C470.017 97.36 469.899 97.0507 469.899 96.688V82.736C469.899 82.3733 470.017 82.0747 470.251 81.84C470.507 81.584 470.817 81.456 471.179 81.456C471.563 81.456 471.873 81.584 472.107 81.84C472.342 82.0747 472.459 82.3733 472.459 82.736V85.008L471.819 85.712C471.926 85.1573 472.171 84.6027 472.555 84.048C472.939 83.472 473.419 82.96 473.995 82.512C474.571 82.064 475.211 81.712 475.915 81.456C476.619 81.1787 477.355 81.04 478.123 81.04ZM505.559 81.2C507.01 81.2 508.311 81.5627 509.463 82.288C510.615 83.0133 511.522 84.016 512.183 85.296C512.866 86.576 513.207 88.048 513.207 89.712C513.207 91.3547 512.866 92.8267 512.183 94.128C511.522 95.408 510.615 96.4213 509.463 97.168C508.333 97.8933 507.053 98.256 505.623 98.256C504.834 98.256 504.087 98.1387 503.383 97.904C502.701 97.648 502.071 97.328 501.495 96.944C500.941 96.5387 500.471 96.0907 500.087 95.6C499.703 95.088 499.426 94.5867 499.255 94.096L499.959 93.648V103.088C499.959 103.451 499.842 103.76 499.607 104.016C499.373 104.272 499.063 104.4 498.679 104.4C498.317 104.4 498.007 104.272 497.751 104.016C497.517 103.781 497.399 103.472 497.399 103.088V82.64C497.399 82.2773 497.517 81.9787 497.751 81.744C498.007 81.488 498.317 81.36 498.679 81.36C499.063 81.36 499.373 81.488 499.607 81.744C499.842 81.9787 499.959 82.2773 499.959 82.64V85.488L499.479 85.232C499.629 84.6987 499.885 84.1867 500.247 83.696C500.631 83.2053 501.09 82.7787 501.623 82.416C502.178 82.032 502.786 81.7333 503.447 81.52C504.13 81.3067 504.834 81.2 505.559 81.2ZM505.271 83.568C504.205 83.568 503.255 83.8347 502.423 84.368C501.613 84.9013 500.973 85.6267 500.503 86.544C500.055 87.4613 499.831 88.5173 499.831 89.712C499.831 90.8853 500.055 91.9413 500.503 92.88C500.973 93.8187 501.613 94.5547 502.423 95.088C503.255 95.6213 504.205 95.888 505.271 95.888C506.338 95.888 507.277 95.6213 508.087 95.088C508.898 94.5547 509.538 93.8187 510.007 92.88C510.477 91.9413 510.711 90.8853 510.711 89.712C510.711 88.5173 510.477 87.4613 510.007 86.544C509.538 85.6267 508.898 84.9013 508.087 84.368C507.277 83.8347 506.338 83.568 505.271 83.568ZM524.704 98.32C522.997 98.32 521.504 97.9573 520.224 97.232C518.944 96.5067 517.941 95.5147 517.216 94.256C516.512 92.976 516.16 91.504 516.16 89.84C516.16 87.984 516.522 86.4053 517.248 85.104C517.994 83.7813 518.954 82.7787 520.128 82.096C521.322 81.392 522.581 81.04 523.904 81.04C524.885 81.04 525.834 81.2213 526.752 81.584C527.669 81.9467 528.48 82.48 529.184 83.184C529.888 83.8667 530.453 84.6987 530.88 85.68C531.306 86.64 531.53 87.7173 531.552 88.912C531.552 89.2533 531.424 89.5413 531.168 89.776C530.912 90.0107 530.613 90.128 530.272 90.128H517.632L517.056 87.92H529.376L528.864 88.368V87.664C528.778 86.7893 528.48 86.0427 527.968 85.424C527.477 84.784 526.869 84.2933 526.144 83.952C525.44 83.6107 524.693 83.44 523.904 83.44C523.264 83.44 522.624 83.5573 521.984 83.792C521.365 84.0053 520.8 84.368 520.288 84.88C519.797 85.3707 519.392 86.0107 519.072 86.8C518.773 87.5893 518.624 88.5387 518.624 89.648C518.624 90.8853 518.869 91.9733 519.36 92.912C519.872 93.8507 520.576 94.5973 521.472 95.152C522.368 95.6853 523.413 95.952 524.608 95.952C525.354 95.952 526.005 95.856 526.56 95.664C527.114 95.472 527.594 95.2373 528 94.96C528.405 94.6613 528.746 94.3627 529.024 94.064C529.301 93.872 529.568 93.776 529.824 93.776C530.144 93.776 530.4 93.8827 530.592 94.096C530.805 94.3093 530.912 94.5653 530.912 94.864C530.912 95.2267 530.741 95.5467 530.4 95.824C529.802 96.4853 528.992 97.072 527.968 97.584C526.944 98.0747 525.856 98.32 524.704 98.32ZM536.679 98C536.317 98 536.007 97.872 535.751 97.616C535.517 97.36 535.399 97.0507 535.399 96.688V82.736C535.399 82.3733 535.517 82.0747 535.751 81.84C536.007 81.584 536.317 81.456 536.679 81.456C537.063 81.456 537.373 81.584 537.607 81.84C537.842 82.0747 537.959 82.3733 537.959 82.736V86.96L537.575 86.288C537.703 85.6267 537.927 84.9867 538.247 84.368C538.589 83.728 539.015 83.1627 539.527 82.672C540.039 82.16 540.626 81.7653 541.287 81.488C541.949 81.1893 542.674 81.04 543.463 81.04C543.933 81.04 544.359 81.1573 544.743 81.392C545.149 81.6053 545.351 81.9147 545.351 82.32C545.351 82.768 545.234 83.0987 544.999 83.312C544.765 83.5253 544.498 83.632 544.199 83.632C543.922 83.632 543.655 83.5787 543.399 83.472C543.143 83.344 542.823 83.28 542.439 83.28C541.906 83.28 541.373 83.4293 540.839 83.728C540.327 84.0053 539.847 84.4107 539.399 84.944C538.973 85.4773 538.621 86.0853 538.343 86.768C538.087 87.4293 537.959 88.144 537.959 88.912V96.688C537.959 97.0507 537.831 97.36 537.575 97.616C537.341 97.872 537.042 98 536.679 98ZM554.718 81.04C555.636 81.04 556.489 81.2 557.278 81.52C558.068 81.8187 558.75 82.2133 559.326 82.704C559.924 83.1947 560.382 83.7067 560.702 84.24C561.044 84.7733 561.214 85.2747 561.214 85.744L560.606 85.36V82.576C560.606 82.2133 560.724 81.9147 560.958 81.68C561.193 81.424 561.502 81.296 561.886 81.296C562.249 81.296 562.548 81.424 562.782 81.68C563.038 81.9147 563.166 82.2133 563.166 82.576V96.592C563.166 98.3413 562.793 99.792 562.046 100.944C561.321 102.096 560.34 102.96 559.102 103.536C557.865 104.112 556.478 104.4 554.942 104.4C554.302 104.4 553.598 104.315 552.83 104.144C552.062 103.973 551.38 103.76 550.782 103.504C550.185 103.269 549.801 103.024 549.63 102.768C549.31 102.555 549.108 102.309 549.022 102.032C548.958 101.776 549.012 101.531 549.182 101.296C549.374 100.997 549.62 100.848 549.918 100.848C550.238 100.848 550.633 100.944 551.102 101.136C551.294 101.2 551.593 101.307 551.998 101.456C552.425 101.605 552.894 101.733 553.406 101.84C553.94 101.968 554.462 102.032 554.974 102.032C556.788 102.032 558.174 101.552 559.134 100.592C560.116 99.6533 560.606 98.4053 560.606 96.848V93.872L560.958 94.032C560.83 94.6293 560.564 95.184 560.158 95.696C559.774 96.208 559.294 96.6667 558.718 97.072C558.164 97.456 557.545 97.7653 556.862 98C556.18 98.2133 555.486 98.32 554.782 98.32C553.289 98.32 551.945 97.9467 550.75 97.2C549.556 96.4533 548.606 95.4293 547.902 94.128C547.22 92.8267 546.878 91.344 546.878 89.68C546.878 87.9947 547.22 86.5013 547.902 85.2C548.606 83.8987 549.545 82.8853 550.718 82.16C551.913 81.4133 553.246 81.04 554.718 81.04ZM555.038 83.408C553.95 83.408 552.969 83.6853 552.094 84.24C551.241 84.7733 550.569 85.5093 550.078 86.448C549.609 87.3867 549.374 88.464 549.374 89.68C549.374 90.8533 549.609 91.92 550.078 92.88C550.569 93.8187 551.241 94.5653 552.094 95.12C552.969 95.6747 553.95 95.952 555.038 95.952C556.148 95.952 557.129 95.6853 557.982 95.152C558.836 94.5973 559.508 93.8507 559.998 92.912C560.489 91.9733 560.734 90.896 560.734 89.68C560.734 88.4427 560.489 87.3547 559.998 86.416C559.508 85.4773 558.836 84.7413 557.982 84.208C557.129 83.6747 556.148 83.408 555.038 83.408ZM581.375 81.296C581.738 81.296 582.036 81.424 582.271 81.68C582.527 81.9147 582.655 82.2133 582.655 82.576V96.688C582.655 97.0507 582.527 97.36 582.271 97.616C582.036 97.872 581.738 98 581.375 98C580.991 98 580.682 97.872 580.447 97.616C580.212 97.36 580.095 97.0507 580.095 96.688V93.648L580.703 93.584C580.703 94.0533 580.543 94.5653 580.223 95.12C579.903 95.6747 579.466 96.1973 578.911 96.688C578.356 97.1573 577.695 97.552 576.927 97.872C576.18 98.1707 575.37 98.32 574.495 98.32C573.044 98.32 571.743 97.9467 570.591 97.2C569.439 96.432 568.522 95.3973 567.839 94.096C567.178 92.7947 566.847 91.312 566.847 89.648C566.847 87.9627 567.178 86.48 567.839 85.2C568.522 83.8987 569.439 82.8853 570.591 82.16C571.743 81.4133 573.023 81.04 574.431 81.04C575.348 81.04 576.202 81.1893 576.991 81.488C577.78 81.7867 578.463 82.192 579.039 82.704C579.636 83.216 580.095 83.7813 580.415 84.4C580.756 85.0187 580.927 85.6373 580.927 86.256L580.095 86.064V82.576C580.095 82.2133 580.212 81.9147 580.447 81.68C580.682 81.424 580.991 81.296 581.375 81.296ZM574.783 95.952C575.85 95.952 576.788 95.6747 577.599 95.12C578.431 94.5653 579.071 93.8187 579.519 92.88C579.988 91.92 580.223 90.8427 580.223 89.648C580.223 88.4747 579.988 87.4187 579.519 86.48C579.071 85.52 578.431 84.7733 577.599 84.24C576.788 83.6853 575.85 83.408 574.783 83.408C573.738 83.408 572.799 83.6747 571.967 84.208C571.156 84.7413 570.516 85.4773 570.047 86.416C569.578 87.3547 569.343 88.432 569.343 89.648C569.343 90.8427 569.567 91.92 570.015 92.88C570.484 93.8187 571.124 94.5653 571.935 95.12C572.767 95.6747 573.716 95.952 574.783 95.952ZM599.471 81.456C599.855 81.456 600.164 81.584 600.399 81.84C600.633 82.0747 600.751 82.3733 600.751 82.736V91.472C600.751 93.6267 600.143 95.3013 598.927 96.496C597.732 97.6693 596.057 98.256 593.903 98.256C591.769 98.256 590.095 97.6693 588.879 96.496C587.684 95.3013 587.087 93.6267 587.087 91.472V82.736C587.087 82.3733 587.204 82.0747 587.439 81.84C587.695 81.584 588.004 81.456 588.367 81.456C588.751 81.456 589.06 81.584 589.295 81.84C589.529 82.0747 589.647 82.3733 589.647 82.736V91.472C589.647 92.9227 590.02 94.0213 590.767 94.768C591.513 95.5147 592.559 95.888 593.903 95.888C595.289 95.888 596.345 95.5147 597.071 94.768C597.817 94.0213 598.191 92.9227 598.191 91.472V82.736C598.191 82.3733 598.308 82.0747 598.543 81.84C598.799 81.584 599.108 81.456 599.471 81.456ZM608.309 96.688C608.309 97.0507 608.181 97.36 607.925 97.616C607.669 97.872 607.36 98 606.997 98C606.634 98 606.336 97.872 606.101 97.616C605.866 97.36 605.749 97.0507 605.749 96.688V75.6C605.749 75.2373 605.866 74.9387 606.101 74.704C606.357 74.448 606.666 74.32 607.029 74.32C607.413 74.32 607.722 74.448 607.957 74.704C608.192 74.9387 608.309 75.2373 608.309 75.6V96.688ZM626.906 81.296C627.269 81.296 627.568 81.424 627.802 81.68C628.058 81.9147 628.186 82.2133 628.186 82.576V96.688C628.186 97.0507 628.058 97.36 627.802 97.616C627.568 97.872 627.269 98 626.906 98C626.522 98 626.213 97.872 625.978 97.616C625.744 97.36 625.626 97.0507 625.626 96.688V93.648L626.234 93.584C626.234 94.0533 626.074 94.5653 625.754 95.12C625.434 95.6747 624.997 96.1973 624.442 96.688C623.888 97.1573 623.226 97.552 622.458 97.872C621.712 98.1707 620.901 98.32 620.026 98.32C618.576 98.32 617.274 97.9467 616.122 97.2C614.97 96.432 614.053 95.3973 613.37 94.096C612.709 92.7947 612.378 91.312 612.378 89.648C612.378 87.9627 612.709 86.48 613.37 85.2C614.053 83.8987 614.97 82.8853 616.122 82.16C617.274 81.4133 618.554 81.04 619.962 81.04C620.88 81.04 621.733 81.1893 622.522 81.488C623.312 81.7867 623.994 82.192 624.57 82.704C625.168 83.216 625.626 83.7813 625.946 84.4C626.288 85.0187 626.458 85.6373 626.458 86.256L625.626 86.064V82.576C625.626 82.2133 625.744 81.9147 625.978 81.68C626.213 81.424 626.522 81.296 626.906 81.296ZM620.314 95.952C621.381 95.952 622.32 95.6747 623.13 95.12C623.962 94.5653 624.602 93.8187 625.05 92.88C625.52 91.92 625.754 90.8427 625.754 89.648C625.754 88.4747 625.52 87.4187 625.05 86.48C624.602 85.52 623.962 84.7733 623.13 84.24C622.32 83.6853 621.381 83.408 620.314 83.408C619.269 83.408 618.33 83.6747 617.498 84.208C616.688 84.7413 616.048 85.4773 615.578 86.416C615.109 87.3547 614.874 88.432 614.874 89.648C614.874 90.8427 615.098 91.92 615.546 92.88C616.016 93.8187 616.656 94.5653 617.466 95.12C618.298 95.6747 619.248 95.952 620.314 95.952ZM641.155 81.04C642.605 81.04 643.747 81.3387 644.579 81.936C645.411 82.5333 645.997 83.3333 646.339 84.336C646.701 85.3387 646.883 86.4587 646.883 87.696V96.688C646.883 97.0507 646.755 97.36 646.499 97.616C646.264 97.872 645.965 98 645.603 98C645.24 98 644.931 97.872 644.675 97.616C644.44 97.36 644.323 97.0507 644.323 96.688V87.76C644.323 86.9493 644.195 86.224 643.939 85.584C643.704 84.9227 643.299 84.4 642.723 84.016C642.168 83.6107 641.4 83.408 640.419 83.408C639.523 83.408 638.701 83.6107 637.955 84.016C637.208 84.4 636.611 84.9227 636.163 85.584C635.715 86.224 635.491 86.9493 635.491 87.76V96.688C635.491 97.0507 635.363 97.36 635.107 97.616C634.872 97.872 634.573 98 634.211 98C633.848 98 633.539 97.872 633.283 97.616C633.048 97.36 632.931 97.0507 632.931 96.688V82.736C632.931 82.3733 633.048 82.0747 633.283 81.84C633.539 81.584 633.848 81.456 634.211 81.456C634.595 81.456 634.904 81.584 635.139 81.84C635.373 82.0747 635.491 82.3733 635.491 82.736V85.008L634.851 85.712C634.957 85.1573 635.203 84.6027 635.587 84.048C635.971 83.472 636.451 82.96 637.027 82.512C637.603 82.064 638.243 81.712 638.947 81.456C639.651 81.1787 640.387 81.04 641.155 81.04ZM668.591 81.2C670.041 81.2 671.343 81.5627 672.495 82.288C673.647 83.0133 674.553 84.016 675.215 85.296C675.897 86.576 676.239 88.048 676.239 89.712C676.239 91.3547 675.897 92.8267 675.215 94.128C674.553 95.408 673.647 96.4213 672.495 97.168C671.364 97.8933 670.084 98.256 668.655 98.256C667.865 98.256 667.119 98.1387 666.415 97.904C665.732 97.648 665.103 97.328 664.527 96.944C663.972 96.5387 663.503 96.0907 663.119 95.6C662.735 95.088 662.457 94.5867 662.286 94.096L662.991 93.648V103.088C662.991 103.451 662.873 103.76 662.639 104.016C662.404 104.272 662.095 104.4 661.711 104.4C661.348 104.4 661.039 104.272 660.783 104.016C660.548 103.781 660.431 103.472 660.431 103.088V82.64C660.431 82.2773 660.548 81.9787 660.783 81.744C661.039 81.488 661.348 81.36 661.711 81.36C662.095 81.36 662.404 81.488 662.639 81.744C662.873 81.9787 662.991 82.2773 662.991 82.64V85.488L662.511 85.232C662.66 84.6987 662.916 84.1867 663.279 83.696C663.663 83.2053 664.121 82.7787 664.655 82.416C665.209 82.032 665.817 81.7333 666.479 81.52C667.161 81.3067 667.865 81.2 668.591 81.2ZM668.303 83.568C667.236 83.568 666.287 83.8347 665.455 84.368C664.644 84.9013 664.004 85.6267 663.535 86.544C663.087 87.4613 662.863 88.5173 662.863 89.712C662.863 90.8853 663.087 91.9413 663.535 92.88C664.004 93.8187 664.644 94.5547 665.455 95.088C666.287 95.6213 667.236 95.888 668.303 95.888C669.369 95.888 670.308 95.6213 671.119 95.088C671.929 94.5547 672.569 93.8187 673.039 92.88C673.508 91.9413 673.743 90.8853 673.743 89.712C673.743 88.5173 673.508 87.4613 673.039 86.544C672.569 85.6267 671.929 84.9013 671.119 84.368C670.308 83.8347 669.369 83.568 668.303 83.568ZM695.799 89.68C695.799 91.344 695.425 92.8267 694.679 94.128C693.953 95.4293 692.961 96.4533 691.703 97.2C690.465 97.9467 689.068 98.32 687.511 98.32C685.953 98.32 684.545 97.9467 683.287 97.2C682.028 96.4533 681.025 95.4293 680.279 94.128C679.553 92.8267 679.191 91.344 679.191 89.68C679.191 88.016 679.553 86.5333 680.279 85.232C681.025 83.9307 682.028 82.9067 683.287 82.16C684.545 81.4133 685.953 81.04 687.511 81.04C689.068 81.04 690.465 81.4133 691.703 82.16C692.961 82.9067 693.953 83.9307 694.679 85.232C695.425 86.5333 695.799 88.016 695.799 89.68ZM693.239 89.68C693.239 88.4427 692.983 87.3547 692.471 86.416C691.98 85.4773 691.297 84.7413 690.423 84.208C689.569 83.6747 688.599 83.408 687.511 83.408C686.423 83.408 685.441 83.6747 684.567 84.208C683.713 84.7413 683.031 85.4773 682.519 86.416C682.007 87.3547 681.751 88.4427 681.751 89.68C681.751 90.896 682.007 91.9733 682.519 92.912C683.031 93.8507 683.713 94.5973 684.567 95.152C685.441 95.6853 686.423 95.952 687.511 95.952C688.599 95.952 689.569 95.6853 690.423 95.152C691.297 94.5973 691.98 93.8507 692.471 92.912C692.983 91.9733 693.239 90.896 693.239 89.68ZM698.721 95.376C698.529 95.0987 698.444 94.8107 698.465 94.512C698.487 94.192 698.668 93.9147 699.009 93.68C699.223 93.5307 699.468 93.4667 699.745 93.488C700.044 93.5093 700.311 93.648 700.545 93.904C701.143 94.608 701.825 95.1733 702.593 95.6C703.361 96.0053 704.3 96.208 705.409 96.208C705.921 96.1867 706.433 96.1013 706.945 95.952C707.457 95.8027 707.884 95.5467 708.225 95.184C708.588 94.8 708.769 94.2987 708.769 93.68C708.769 93.0827 708.588 92.6133 708.225 92.272C707.863 91.9093 707.393 91.6213 706.817 91.408C706.241 91.1733 705.612 90.9707 704.929 90.8C704.225 90.608 703.532 90.3947 702.849 90.16C702.167 89.904 701.548 89.5947 700.993 89.232C700.46 88.848 700.023 88.3787 699.681 87.824C699.361 87.248 699.201 86.5547 699.201 85.744C699.201 84.784 699.457 83.952 699.969 83.248C700.503 82.544 701.207 82 702.081 81.616C702.977 81.232 703.948 81.04 704.993 81.04C705.591 81.04 706.209 81.1147 706.849 81.264C707.511 81.392 708.151 81.6267 708.769 81.968C709.388 82.288 709.932 82.736 710.401 83.312C710.593 83.5253 710.7 83.792 710.721 84.112C710.743 84.432 710.604 84.72 710.305 84.976C710.071 85.1467 709.804 85.2213 709.505 85.2C709.228 85.1787 708.993 85.072 708.801 84.88C708.353 84.3467 707.788 83.9413 707.105 83.664C706.444 83.3653 705.708 83.216 704.897 83.216C704.385 83.216 703.884 83.2907 703.393 83.44C702.903 83.5893 702.487 83.8453 702.145 84.208C701.825 84.5493 701.665 85.0293 701.665 85.648C701.687 86.224 701.879 86.6933 702.241 87.056C702.604 87.4187 703.095 87.7173 703.713 87.952C704.332 88.1653 705.015 88.3787 705.761 88.592C706.444 88.7627 707.095 88.9653 707.713 89.2C708.353 89.4133 708.929 89.7013 709.441 90.064C709.953 90.4267 710.359 90.896 710.657 91.472C710.956 92.0267 711.105 92.7307 711.105 93.584C711.105 94.5653 710.828 95.4187 710.273 96.144C709.719 96.848 708.983 97.392 708.065 97.776C707.169 98.1387 706.199 98.32 705.153 98.32C703.98 98.32 702.817 98.096 701.665 97.648C700.535 97.2 699.553 96.4427 698.721 95.376ZM717.27 96.688C717.27 97.0507 717.142 97.36 716.886 97.616C716.651 97.872 716.352 98 715.99 98C715.606 98 715.296 97.872 715.062 97.616C714.827 97.36 714.71 97.0507 714.71 96.688V82.48C714.71 82.1173 714.827 81.8187 715.062 81.584C715.318 81.328 715.627 81.2 715.99 81.2C716.352 81.2 716.651 81.328 716.886 81.584C717.142 81.8187 717.27 82.1173 717.27 82.48V96.688ZM715.99 79.056C715.456 79.056 715.062 78.9493 714.806 78.736C714.55 78.5227 714.422 78.192 714.422 77.744V77.296C714.422 76.848 714.56 76.5173 714.838 76.304C715.115 76.0907 715.51 75.984 716.022 75.984C716.534 75.984 716.918 76.0907 717.174 76.304C717.43 76.5173 717.558 76.848 717.558 77.296V77.744C717.558 78.192 717.419 78.5227 717.141 78.736C716.886 78.9493 716.502 79.056 715.99 79.056ZM721.228 81.552H728.748C729.089 81.552 729.367 81.6693 729.58 81.904C729.815 82.1387 729.932 82.416 729.932 82.736C729.932 83.0773 729.815 83.3653 729.58 83.6C729.367 83.8133 729.089 83.92 728.748 83.92H721.228C720.908 83.92 720.631 83.8027 720.396 83.568C720.161 83.3333 720.044 83.0453 720.044 82.704C720.044 82.384 720.161 82.1173 720.396 81.904C720.631 81.6693 720.908 81.552 721.228 81.552ZM724.588 77.2C724.951 77.2 725.249 77.328 725.484 77.584C725.719 77.8187 725.836 78.1173 725.836 78.48V93.936C725.836 94.448 725.911 94.832 726.06 95.088C726.209 95.344 726.401 95.5253 726.636 95.632C726.892 95.7173 727.137 95.76 727.372 95.76C727.585 95.76 727.767 95.728 727.916 95.664C728.087 95.5787 728.279 95.536 728.492 95.536C728.705 95.536 728.897 95.6427 729.068 95.856C729.26 96.048 729.356 96.304 729.356 96.624C729.356 97.008 729.132 97.3387 728.684 97.616C728.236 97.872 727.735 98 727.18 98C726.881 98 726.508 97.9787 726.06 97.936C725.633 97.8933 725.207 97.7547 724.78 97.52C724.353 97.2853 723.991 96.9013 723.692 96.368C723.415 95.8133 723.276 95.0453 723.276 94.064V78.48C723.276 78.1173 723.404 77.8187 723.66 77.584C723.916 77.328 724.225 77.2 724.588 77.2ZM735.957 96.688C735.957 97.0507 735.829 97.36 735.573 97.616C735.338 97.872 735.04 98 734.677 98C734.293 98 733.984 97.872 733.749 97.616C733.514 97.36 733.397 97.0507 733.397 96.688V82.48C733.397 82.1173 733.514 81.8187 733.749 81.584C734.005 81.328 734.314 81.2 734.677 81.2C735.04 81.2 735.338 81.328 735.573 81.584C735.829 81.8187 735.957 82.1173 735.957 82.48V96.688ZM734.677 79.056C734.144 79.056 733.749 78.9493 733.493 78.736C733.237 78.5227 733.109 78.192 733.109 77.744V77.296C733.109 76.848 733.248 76.5173 733.525 76.304C733.802 76.0907 734.197 75.984 734.709 75.984C735.221 75.984 735.605 76.0907 735.861 76.304C736.117 76.5173 736.245 76.848 736.245 77.296V77.744C736.245 78.192 736.106 78.5227 735.829 78.736C735.573 78.9493 735.189 79.056 734.677 79.056ZM747.468 74.384C747.83 74.384 748.204 74.4267 748.588 74.512C748.993 74.5973 749.334 74.7467 749.612 74.96C749.91 75.1733 750.06 75.4613 750.06 75.824C750.06 76.1653 749.953 76.4533 749.74 76.688C749.526 76.9013 749.27 77.008 748.972 77.008C748.78 77.008 748.513 76.9547 748.172 76.848C747.83 76.72 747.478 76.656 747.116 76.656C746.625 76.656 746.22 76.7627 745.9 76.976C745.601 77.1893 745.377 77.4773 745.228 77.84C745.1 78.1813 745.036 78.5653 745.036 78.992V96.688C745.036 97.0507 744.908 97.36 744.652 97.616C744.417 97.872 744.118 98 743.756 98C743.372 98 743.062 97.872 742.828 97.616C742.593 97.36 742.476 97.0507 742.476 96.688V79.024C742.476 77.5947 742.913 76.464 743.788 75.632C744.684 74.8 745.91 74.384 747.468 74.384ZM748.364 81.712C748.705 81.712 748.993 81.8293 749.228 82.064C749.462 82.2773 749.58 82.5547 749.58 82.896C749.58 83.2373 749.462 83.5253 749.228 83.76C748.993 83.9733 748.705 84.08 748.364 84.08H740.332C739.99 84.08 739.702 83.9627 739.468 83.728C739.233 83.4933 739.116 83.216 739.116 82.896C739.116 82.5333 739.233 82.2453 739.468 82.032C739.702 81.8187 739.99 81.712 740.332 81.712H748.364ZM775.344 74.32C775.706 74.32 776.005 74.448 776.24 74.704C776.496 74.9387 776.624 75.2373 776.624 75.6V96.688C776.624 97.0507 776.496 97.36 776.24 97.616C776.005 97.872 775.706 98 775.344 98C774.96 98 774.65 97.872 774.416 97.616C774.181 97.36 774.064 97.0507 774.064 96.688V93.648L774.672 93.424C774.672 93.936 774.512 94.48 774.192 95.056C773.872 95.6107 773.434 96.1333 772.88 96.624C772.325 97.1147 771.664 97.52 770.896 97.84C770.149 98.16 769.338 98.32 768.464 98.32C767.034 98.32 765.733 97.9467 764.56 97.2C763.408 96.4533 762.49 95.4293 761.808 94.128C761.146 92.8267 760.816 91.344 760.816 89.68C760.816 87.9947 761.146 86.5013 761.808 85.2C762.49 83.8987 763.408 82.8853 764.56 82.16C765.712 81.4133 766.992 81.04 768.4 81.04C769.296 81.04 770.138 81.1893 770.928 81.488C771.717 81.7867 772.4 82.192 772.976 82.704C773.573 83.216 774.042 83.7813 774.384 84.4C774.725 85.0187 774.896 85.6373 774.896 86.256L774.064 86.064V75.6C774.064 75.2373 774.181 74.9387 774.416 74.704C774.65 74.448 774.96 74.32 775.344 74.32ZM768.752 95.952C769.818 95.952 770.757 95.6853 771.568 95.152C772.4 94.5973 773.04 93.8507 773.488 92.912C773.957 91.952 774.192 90.8747 774.192 89.68C774.192 88.464 773.957 87.3867 773.488 86.448C773.04 85.5093 772.4 84.7733 771.568 84.24C770.757 83.6853 769.818 83.408 768.752 83.408C767.706 83.408 766.768 83.6853 765.936 84.24C765.125 84.7733 764.485 85.5093 764.016 86.448C763.546 87.3867 763.312 88.464 763.312 89.68C763.312 90.8533 763.546 91.92 764.016 92.88C764.485 93.8187 765.125 94.5653 765.936 95.12C766.768 95.6747 767.706 95.952 768.752 95.952ZM795 81.296C795.363 81.296 795.661 81.424 795.896 81.68C796.152 81.9147 796.28 82.2133 796.28 82.576V96.688C796.28 97.0507 796.152 97.36 795.896 97.616C795.661 97.872 795.363 98 795 98C794.616 98 794.307 97.872 794.072 97.616C793.837 97.36 793.72 97.0507 793.72 96.688V93.648L794.328 93.584C794.328 94.0533 794.168 94.5653 793.848 95.12C793.528 95.6747 793.091 96.1973 792.536 96.688C791.981 97.1573 791.32 97.552 790.552 97.872C789.805 98.1707 788.995 98.32 788.12 98.32C786.669 98.32 785.368 97.9467 784.216 97.2C783.064 96.432 782.147 95.3973 781.464 94.096C780.803 92.7947 780.472 91.312 780.472 89.648C780.472 87.9627 780.803 86.48 781.464 85.2C782.147 83.8987 783.064 82.8853 784.216 82.16C785.368 81.4133 786.648 81.04 788.056 81.04C788.973 81.04 789.827 81.1893 790.616 81.488C791.405 81.7867 792.088 82.192 792.664 82.704C793.261 83.216 793.72 83.7813 794.04 84.4C794.381 85.0187 794.552 85.6373 794.552 86.256L793.72 86.064V82.576C793.72 82.2133 793.837 81.9147 794.072 81.68C794.307 81.424 794.616 81.296 795 81.296ZM788.408 95.952C789.475 95.952 790.413 95.6747 791.224 95.12C792.056 94.5653 792.696 93.8187 793.144 92.88C793.613 91.92 793.848 90.8427 793.848 89.648C793.848 88.4747 793.613 87.4187 793.144 86.48C792.696 85.52 792.056 84.7733 791.224 84.24C790.413 83.6853 789.475 83.408 788.408 83.408C787.363 83.408 786.424 83.6747 785.592 84.208C784.781 84.7413 784.141 85.4773 783.672 86.416C783.203 87.3547 782.968 88.432 782.968 89.648C782.968 90.8427 783.192 91.92 783.64 92.88C784.109 93.8187 784.749 94.5653 785.56 95.12C786.392 95.6747 787.341 95.952 788.408 95.952ZM809.184 81.2C810.635 81.2 811.936 81.5627 813.088 82.288C814.24 83.0133 815.147 84.016 815.808 85.296C816.491 86.576 816.832 88.048 816.832 89.712C816.832 91.3547 816.491 92.8267 815.808 94.128C815.147 95.408 814.24 96.4213 813.088 97.168C811.958 97.8933 810.678 98.256 809.248 98.256C808.459 98.256 807.712 98.1387 807.008 97.904C806.326 97.648 805.696 97.328 805.12 96.944C804.566 96.5387 804.096 96.0907 803.712 95.6C803.328 95.088 803.051 94.5867 802.88 94.096L803.584 93.648V103.088C803.584 103.451 803.467 103.76 803.232 104.016C802.998 104.272 802.688 104.4 802.304 104.4C801.942 104.4 801.632 104.272 801.376 104.016C801.142 103.781 801.024 103.472 801.024 103.088V82.64C801.024 82.2773 801.142 81.9787 801.376 81.744C801.632 81.488 801.942 81.36 802.304 81.36C802.688 81.36 802.998 81.488 803.232 81.744C803.467 81.9787 803.584 82.2773 803.584 82.64V85.488L803.104 85.232C803.254 84.6987 803.51 84.1867 803.872 83.696C804.256 83.2053 804.715 82.7787 805.248 82.416C805.803 82.032 806.411 81.7333 807.072 81.52C807.755 81.3067 808.459 81.2 809.184 81.2ZM808.896 83.568C807.83 83.568 806.88 83.8347 806.048 84.368C805.238 84.9013 804.598 85.6267 804.128 86.544C803.68 87.4613 803.456 88.5173 803.456 89.712C803.456 90.8853 803.68 91.9413 804.128 92.88C804.598 93.8187 805.238 94.5547 806.048 95.088C806.88 95.6213 807.83 95.888 808.896 95.888C809.963 95.888 810.902 95.6213 811.712 95.088C812.523 94.5547 813.163 93.8187 813.632 92.88C814.102 91.9413 814.336 90.8853 814.336 89.712C814.336 88.5173 814.102 87.4613 813.632 86.544C813.163 85.6267 812.523 84.9013 811.712 84.368C810.902 83.8347 809.963 83.568 808.896 83.568ZM834.312 81.296C834.675 81.296 834.974 81.424 835.208 81.68C835.465 81.9147 835.593 82.2133 835.593 82.576V96.688C835.593 97.0507 835.465 97.36 835.208 97.616C834.974 97.872 834.675 98 834.312 98C833.929 98 833.619 97.872 833.385 97.616C833.15 97.36 833.033 97.0507 833.033 96.688V93.648L833.641 93.584C833.641 94.0533 833.481 94.5653 833.161 95.12C832.841 95.6747 832.403 96.1973 831.849 96.688C831.294 97.1573 830.633 97.552 829.865 97.872C829.118 98.1707 828.307 98.32 827.433 98.32C825.982 98.32 824.681 97.9467 823.529 97.2C822.377 96.432 821.459 95.3973 820.777 94.096C820.115 92.7947 819.785 91.312 819.785 89.648C819.785 87.9627 820.115 86.48 820.777 85.2C821.459 83.8987 822.377 82.8853 823.529 82.16C824.681 81.4133 825.961 81.04 827.369 81.04C828.286 81.04 829.139 81.1893 829.929 81.488C830.718 81.7867 831.401 82.192 831.977 82.704C832.574 83.216 833.033 83.7813 833.353 84.4C833.694 85.0187 833.865 85.6373 833.865 86.256L833.033 86.064V82.576C833.033 82.2133 833.15 81.9147 833.385 81.68C833.619 81.424 833.929 81.296 834.312 81.296ZM827.72 95.952C828.787 95.952 829.726 95.6747 830.537 95.12C831.369 94.5653 832.009 93.8187 832.457 92.88C832.926 91.92 833.161 90.8427 833.161 89.648C833.161 88.4747 832.926 87.4187 832.457 86.48C832.009 85.52 831.369 84.7733 830.537 84.24C829.726 83.6853 828.787 83.408 827.72 83.408C826.675 83.408 825.737 83.6747 824.905 84.208C824.094 84.7413 823.454 85.4773 822.985 86.416C822.515 87.3547 822.281 88.432 822.281 89.648C822.281 90.8427 822.505 91.92 822.953 92.88C823.422 93.8187 824.062 94.5653 824.873 95.12C825.705 95.6747 826.654 95.952 827.72 95.952ZM839.697 81.552H847.217C847.558 81.552 847.835 81.6693 848.049 81.904C848.283 82.1387 848.401 82.416 848.401 82.736C848.401 83.0773 848.283 83.3653 848.049 83.6C847.835 83.8133 847.558 83.92 847.217 83.92H839.697C839.377 83.92 839.099 83.8027 838.865 83.568C838.63 83.3333 838.513 83.0453 838.513 82.704C838.513 82.384 838.63 82.1173 838.865 81.904C839.099 81.6693 839.377 81.552 839.697 81.552ZM843.057 77.2C843.419 77.2 843.718 77.328 843.953 77.584C844.187 77.8187 844.305 78.1173 844.305 78.48V93.936C844.305 94.448 844.379 94.832 844.529 95.088C844.678 95.344 844.87 95.5253 845.105 95.632C845.361 95.7173 845.606 95.76 845.841 95.76C846.054 95.76 846.235 95.728 846.385 95.664C846.555 95.5787 846.747 95.536 846.961 95.536C847.174 95.536 847.366 95.6427 847.537 95.856C847.729 96.048 847.825 96.304 847.825 96.624C847.825 97.008 847.601 97.3387 847.153 97.616C846.705 97.872 846.203 98 845.649 98C845.35 98 844.977 97.9787 844.529 97.936C844.102 97.8933 843.675 97.7547 843.249 97.52C842.822 97.2853 842.459 96.9013 842.161 96.368C841.883 95.8133 841.745 95.0453 841.745 94.064V78.48C841.745 78.1173 841.873 77.8187 842.129 77.584C842.385 77.328 842.694 77.2 843.057 77.2ZM316.344 114.32C316.706 114.32 317.005 114.448 317.24 114.704C317.496 114.939 317.624 115.237 317.624 115.6V136.688C317.624 137.051 317.496 137.36 317.24 137.616C317.005 137.872 316.706 138 316.344 138C315.96 138 315.65 137.872 315.416 137.616C315.181 137.36 315.064 137.051 315.064 136.688V133.648L315.672 133.424C315.672 133.936 315.512 134.48 315.192 135.056C314.872 135.611 314.434 136.133 313.88 136.624C313.325 137.115 312.664 137.52 311.896 137.84C311.149 138.16 310.338 138.32 309.464 138.32C308.034 138.32 306.733 137.947 305.56 137.2C304.408 136.453 303.49 135.429 302.808 134.128C302.146 132.827 301.816 131.344 301.816 129.68C301.816 127.995 302.146 126.501 302.808 125.2C303.49 123.899 304.408 122.885 305.56 122.16C306.712 121.413 307.992 121.04 309.4 121.04C310.296 121.04 311.138 121.189 311.928 121.488C312.717 121.787 313.4 122.192 313.976 122.704C314.573 123.216 315.042 123.781 315.384 124.4C315.725 125.019 315.896 125.637 315.896 126.256L315.064 126.064V115.6C315.064 115.237 315.181 114.939 315.416 114.704C315.65 114.448 315.96 114.32 316.344 114.32ZM309.752 135.952C310.818 135.952 311.757 135.685 312.568 135.152C313.4 134.597 314.04 133.851 314.488 132.912C314.957 131.952 315.192 130.875 315.192 129.68C315.192 128.464 314.957 127.387 314.488 126.448C314.04 125.509 313.4 124.773 312.568 124.24C311.757 123.685 310.818 123.408 309.752 123.408C308.706 123.408 307.768 123.685 306.936 124.24C306.125 124.773 305.485 125.509 305.016 126.448C304.546 127.387 304.312 128.464 304.312 129.68C304.312 130.853 304.546 131.92 305.016 132.88C305.485 133.819 306.125 134.565 306.936 135.12C307.768 135.675 308.706 135.952 309.752 135.952ZM324.832 136.688C324.832 137.051 324.704 137.36 324.448 137.616C324.213 137.872 323.915 138 323.552 138C323.168 138 322.859 137.872 322.624 137.616C322.389 137.36 322.272 137.051 322.272 136.688V122.48C322.272 122.117 322.389 121.819 322.624 121.584C322.88 121.328 323.189 121.2 323.552 121.2C323.915 121.2 324.213 121.328 324.448 121.584C324.704 121.819 324.832 122.117 324.832 122.48V136.688ZM323.552 119.056C323.019 119.056 322.624 118.949 322.368 118.736C322.112 118.523 321.984 118.192 321.984 117.744V117.296C321.984 116.848 322.123 116.517 322.4 116.304C322.677 116.091 323.072 115.984 323.584 115.984C324.096 115.984 324.48 116.091 324.736 116.304C324.992 116.517 325.12 116.848 325.12 117.296V117.744C325.12 118.192 324.981 118.523 324.704 118.736C324.448 118.949 324.064 119.056 323.552 119.056ZM332.247 136.688C332.247 137.051 332.119 137.36 331.863 137.616C331.607 137.872 331.297 138 330.935 138C330.572 138 330.273 137.872 330.039 137.616C329.804 137.36 329.687 137.051 329.687 136.688V115.6C329.687 115.237 329.804 114.939 330.039 114.704C330.295 114.448 330.604 114.32 330.967 114.32C331.351 114.32 331.66 114.448 331.895 114.704C332.129 114.939 332.247 115.237 332.247 115.6V136.688ZM350.844 121.296C351.206 121.296 351.505 121.424 351.74 121.68C351.996 121.915 352.124 122.213 352.124 122.576V136.688C352.124 137.051 351.996 137.36 351.74 137.616C351.505 137.872 351.206 138 350.844 138C350.46 138 350.15 137.872 349.916 137.616C349.681 137.36 349.564 137.051 349.564 136.688V133.648L350.172 133.584C350.172 134.053 350.012 134.565 349.692 135.12C349.372 135.675 348.934 136.197 348.38 136.688C347.825 137.157 347.164 137.552 346.396 137.872C345.649 138.171 344.838 138.32 343.964 138.32C342.513 138.32 341.212 137.947 340.06 137.2C338.908 136.432 337.99 135.397 337.308 134.096C336.646 132.795 336.316 131.312 336.316 129.648C336.316 127.963 336.646 126.48 337.308 125.2C337.99 123.899 338.908 122.885 340.06 122.16C341.212 121.413 342.492 121.04 343.9 121.04C344.817 121.04 345.67 121.189 346.46 121.488C347.249 121.787 347.932 122.192 348.508 122.704C349.105 123.216 349.564 123.781 349.884 124.4C350.225 125.019 350.396 125.637 350.396 126.256L349.564 126.064V122.576C349.564 122.213 349.681 121.915 349.916 121.68C350.15 121.424 350.46 121.296 350.844 121.296ZM344.252 135.952C345.318 135.952 346.257 135.675 347.068 135.12C347.9 134.565 348.54 133.819 348.988 132.88C349.457 131.92 349.692 130.843 349.692 129.648C349.692 128.475 349.457 127.419 348.988 126.48C348.54 125.52 347.9 124.773 347.068 124.24C346.257 123.685 345.318 123.408 344.252 123.408C343.206 123.408 342.268 123.675 341.436 124.208C340.625 124.741 339.985 125.477 339.516 126.416C339.046 127.355 338.812 128.432 338.812 129.648C338.812 130.843 339.036 131.92 339.484 132.88C339.953 133.819 340.593 134.565 341.404 135.12C342.236 135.675 343.185 135.952 344.252 135.952ZM358.404 138C358.02 138 357.711 137.872 357.476 137.616C357.241 137.36 357.124 137.051 357.124 136.688V115.6C357.124 115.237 357.241 114.939 357.476 114.704C357.711 114.448 358.02 114.32 358.404 114.32C358.767 114.32 359.065 114.448 359.3 114.704C359.556 114.939 359.684 115.237 359.684 115.6V136.688C359.684 137.051 359.556 137.36 359.3 137.616C359.065 137.872 358.767 138 358.404 138ZM369.028 121.36C369.369 121.36 369.657 121.499 369.892 121.776C370.148 122.032 370.276 122.299 370.276 122.576C370.276 122.939 370.105 123.259 369.764 123.536L359.396 132.592L359.3 129.616L368.132 121.744C368.388 121.488 368.687 121.36 369.028 121.36ZM369.38 137.968C369.017 137.968 368.697 137.829 368.42 137.552L361.604 130.288L363.524 128.528L370.276 135.76C370.532 136.037 370.66 136.357 370.66 136.72C370.66 137.104 370.511 137.413 370.212 137.648C369.913 137.861 369.636 137.968 369.38 137.968ZM386.596 121.456C386.98 121.456 387.289 121.584 387.524 121.84C387.758 122.075 387.876 122.373 387.876 122.736V131.472C387.876 133.627 387.268 135.301 386.052 136.496C384.857 137.669 383.182 138.256 381.028 138.256C378.894 138.256 377.22 137.669 376.004 136.496C374.809 135.301 374.212 133.627 374.212 131.472V122.736C374.212 122.373 374.329 122.075 374.564 121.84C374.82 121.584 375.129 121.456 375.492 121.456C375.876 121.456 376.185 121.584 376.42 121.84C376.654 122.075 376.772 122.373 376.772 122.736V131.472C376.772 132.923 377.145 134.021 377.892 134.768C378.638 135.515 379.684 135.888 381.028 135.888C382.414 135.888 383.47 135.515 384.196 134.768C384.942 134.021 385.316 132.923 385.316 131.472V122.736C385.316 122.373 385.433 122.075 385.668 121.84C385.924 121.584 386.233 121.456 386.596 121.456ZM394.154 138C393.77 138 393.461 137.872 393.226 137.616C392.991 137.36 392.874 137.051 392.874 136.688V115.6C392.874 115.237 392.991 114.939 393.226 114.704C393.461 114.448 393.77 114.32 394.154 114.32C394.517 114.32 394.815 114.448 395.05 114.704C395.306 114.939 395.434 115.237 395.434 115.6V136.688C395.434 137.051 395.306 137.36 395.05 137.616C394.815 137.872 394.517 138 394.154 138ZM404.778 121.36C405.119 121.36 405.407 121.499 405.642 121.776C405.898 122.032 406.026 122.299 406.026 122.576C406.026 122.939 405.855 123.259 405.514 123.536L395.146 132.592L395.05 129.616L403.882 121.744C404.138 121.488 404.437 121.36 404.778 121.36ZM405.13 137.968C404.767 137.968 404.447 137.829 404.17 137.552L397.354 130.288L399.274 128.528L406.026 135.76C406.282 136.037 406.41 136.357 406.41 136.72C406.41 137.104 406.261 137.413 405.962 137.648C405.663 137.861 405.386 137.968 405.13 137.968ZM423.625 121.296C423.988 121.296 424.286 121.424 424.521 121.68C424.777 121.915 424.905 122.213 424.905 122.576V136.688C424.905 137.051 424.777 137.36 424.521 137.616C424.286 137.872 423.988 138 423.625 138C423.241 138 422.932 137.872 422.697 137.616C422.462 137.36 422.345 137.051 422.345 136.688V133.648L422.953 133.584C422.953 134.053 422.793 134.565 422.473 135.12C422.153 135.675 421.716 136.197 421.161 136.688C420.606 137.157 419.945 137.552 419.177 137.872C418.43 138.171 417.62 138.32 416.745 138.32C415.294 138.32 413.993 137.947 412.841 137.2C411.689 136.432 410.772 135.397 410.089 134.096C409.428 132.795 409.097 131.312 409.097 129.648C409.097 127.963 409.428 126.48 410.089 125.2C410.772 123.899 411.689 122.885 412.841 122.16C413.993 121.413 415.273 121.04 416.681 121.04C417.598 121.04 418.452 121.189 419.241 121.488C420.03 121.787 420.713 122.192 421.289 122.704C421.886 123.216 422.345 123.781 422.665 124.4C423.006 125.019 423.177 125.637 423.177 126.256L422.345 126.064V122.576C422.345 122.213 422.462 121.915 422.697 121.68C422.932 121.424 423.241 121.296 423.625 121.296ZM417.033 135.952C418.1 135.952 419.038 135.675 419.849 135.12C420.681 134.565 421.321 133.819 421.769 132.88C422.238 131.92 422.473 130.843 422.473 129.648C422.473 128.475 422.238 127.419 421.769 126.48C421.321 125.52 420.681 124.773 419.849 124.24C419.038 123.685 418.1 123.408 417.033 123.408C415.988 123.408 415.049 123.675 414.217 124.208C413.406 124.741 412.766 125.477 412.297 126.416C411.828 127.355 411.593 128.432 411.593 129.648C411.593 130.843 411.817 131.92 412.265 132.88C412.734 133.819 413.374 134.565 414.185 135.12C415.017 135.675 415.966 135.952 417.033 135.952ZM437.873 121.04C439.324 121.04 440.465 121.339 441.297 121.936C442.129 122.533 442.716 123.333 443.057 124.336C443.42 125.339 443.601 126.459 443.601 127.696V136.688C443.601 137.051 443.473 137.36 443.217 137.616C442.983 137.872 442.684 138 442.321 138C441.959 138 441.649 137.872 441.393 137.616C441.159 137.36 441.041 137.051 441.041 136.688V127.76C441.041 126.949 440.913 126.224 440.657 125.584C440.423 124.923 440.017 124.4 439.441 124.016C438.887 123.611 438.119 123.408 437.137 123.408C436.241 123.408 435.42 123.611 434.673 124.016C433.927 124.4 433.329 124.923 432.881 125.584C432.433 126.224 432.209 126.949 432.209 127.76V136.688C432.209 137.051 432.081 137.36 431.825 137.616C431.591 137.872 431.292 138 430.929 138C430.567 138 430.257 137.872 430.001 137.616C429.767 137.36 429.649 137.051 429.649 136.688V122.736C429.649 122.373 429.767 122.075 430.001 121.84C430.257 121.584 430.567 121.456 430.929 121.456C431.313 121.456 431.623 121.584 431.857 121.84C432.092 122.075 432.209 122.373 432.209 122.736V125.008L431.569 125.712C431.676 125.157 431.921 124.603 432.305 124.048C432.689 123.472 433.169 122.96 433.745 122.512C434.321 122.064 434.961 121.712 435.665 121.456C436.369 121.179 437.105 121.04 437.873 121.04ZM470.781 114.32C471.144 114.32 471.443 114.448 471.677 114.704C471.933 114.939 472.061 115.237 472.061 115.6V136.688C472.061 137.051 471.933 137.36 471.677 137.616C471.443 137.872 471.144 138 470.781 138C470.397 138 470.088 137.872 469.853 137.616C469.619 137.36 469.501 137.051 469.501 136.688V133.648L470.109 133.424C470.109 133.936 469.949 134.48 469.629 135.056C469.309 135.611 468.872 136.133 468.317 136.624C467.763 137.115 467.101 137.52 466.333 137.84C465.587 138.16 464.776 138.32 463.901 138.32C462.472 138.32 461.171 137.947 459.997 137.2C458.845 136.453 457.928 135.429 457.245 134.128C456.584 132.827 456.253 131.344 456.253 129.68C456.253 127.995 456.584 126.501 457.245 125.2C457.928 123.899 458.845 122.885 459.997 122.16C461.149 121.413 462.429 121.04 463.837 121.04C464.733 121.04 465.576 121.189 466.365 121.488C467.155 121.787 467.837 122.192 468.413 122.704C469.011 123.216 469.48 123.781 469.821 124.4C470.163 125.019 470.333 125.637 470.333 126.256L469.501 126.064V115.6C469.501 115.237 469.619 114.939 469.853 114.704C470.088 114.448 470.397 114.32 470.781 114.32ZM464.189 135.952C465.256 135.952 466.195 135.685 467.005 135.152C467.837 134.597 468.477 133.851 468.925 132.912C469.395 131.952 469.629 130.875 469.629 129.68C469.629 128.464 469.395 127.387 468.925 126.448C468.477 125.509 467.837 124.773 467.005 124.24C466.195 123.685 465.256 123.408 464.189 123.408C463.144 123.408 462.205 123.685 461.373 124.24C460.563 124.773 459.923 125.509 459.453 126.448C458.984 127.387 458.749 128.464 458.749 129.68C458.749 130.853 458.984 131.92 459.453 132.88C459.923 133.819 460.563 134.565 461.373 135.12C462.205 135.675 463.144 135.952 464.189 135.952ZM479.27 136.688C479.27 137.051 479.142 137.36 478.886 137.616C478.651 137.872 478.352 138 477.99 138C477.606 138 477.296 137.872 477.062 137.616C476.827 137.36 476.71 137.051 476.71 136.688V122.48C476.71 122.117 476.827 121.819 477.062 121.584C477.318 121.328 477.627 121.2 477.99 121.2C478.352 121.2 478.651 121.328 478.886 121.584C479.142 121.819 479.27 122.117 479.27 122.48V136.688ZM477.99 119.056C477.456 119.056 477.062 118.949 476.806 118.736C476.55 118.523 476.422 118.192 476.422 117.744V117.296C476.422 116.848 476.56 116.517 476.838 116.304C477.115 116.091 477.51 115.984 478.022 115.984C478.534 115.984 478.918 116.091 479.174 116.304C479.43 116.517 479.558 116.848 479.558 117.296V117.744C479.558 118.192 479.419 118.523 479.141 118.736C478.886 118.949 478.502 119.056 477.99 119.056ZM495.497 136.688C495.497 137.051 495.369 137.36 495.113 137.616C494.857 137.872 494.547 138 494.185 138C493.822 138 493.523 137.872 493.289 137.616C493.054 137.36 492.937 137.051 492.937 136.688V115.6C492.937 115.237 493.054 114.939 493.289 114.704C493.545 114.448 493.854 114.32 494.217 114.32C494.601 114.32 494.91 114.448 495.145 114.704C495.379 114.939 495.497 115.237 495.497 115.6V136.688ZM502.926 136.688C502.926 137.051 502.798 137.36 502.542 137.616C502.307 137.872 502.008 138 501.646 138C501.262 138 500.952 137.872 500.718 137.616C500.483 137.36 500.366 137.051 500.366 136.688V122.48C500.366 122.117 500.483 121.819 500.718 121.584C500.974 121.328 501.283 121.2 501.646 121.2C502.008 121.2 502.307 121.328 502.542 121.584C502.798 121.819 502.926 122.117 502.926 122.48V136.688ZM501.646 119.056C501.112 119.056 500.718 118.949 500.462 118.736C500.206 118.523 500.078 118.192 500.078 117.744V117.296C500.078 116.848 500.216 116.517 500.494 116.304C500.771 116.091 501.166 115.984 501.678 115.984C502.19 115.984 502.574 116.091 502.83 116.304C503.086 116.517 503.214 116.848 503.214 117.296V117.744C503.214 118.192 503.075 118.523 502.798 118.736C502.542 118.949 502.158 119.056 501.646 119.056ZM515.748 121.04C517.199 121.04 518.34 121.339 519.172 121.936C520.004 122.533 520.591 123.333 520.932 124.336C521.295 125.339 521.476 126.459 521.476 127.696V136.688C521.476 137.051 521.348 137.36 521.092 137.616C520.858 137.872 520.559 138 520.196 138C519.834 138 519.524 137.872 519.268 137.616C519.034 137.36 518.916 137.051 518.916 136.688V127.76C518.916 126.949 518.788 126.224 518.532 125.584C518.298 124.923 517.892 124.4 517.316 124.016C516.762 123.611 515.994 123.408 515.012 123.408C514.116 123.408 513.295 123.611 512.548 124.016C511.802 124.4 511.204 124.923 510.756 125.584C510.308 126.224 510.084 126.949 510.084 127.76V136.688C510.084 137.051 509.956 137.36 509.7 137.616C509.466 137.872 509.167 138 508.804 138C508.442 138 508.132 137.872 507.876 137.616C507.642 137.36 507.524 137.051 507.524 136.688V122.736C507.524 122.373 507.642 122.075 507.876 121.84C508.132 121.584 508.442 121.456 508.804 121.456C509.188 121.456 509.498 121.584 509.732 121.84C509.967 122.075 510.084 122.373 510.084 122.736V125.008L509.444 125.712C509.551 125.157 509.796 124.603 510.18 124.048C510.564 123.472 511.044 122.96 511.62 122.512C512.196 122.064 512.836 121.712 513.54 121.456C514.244 121.179 514.98 121.04 515.748 121.04ZM533.156 121.04C534.073 121.04 534.926 121.2 535.716 121.52C536.505 121.819 537.188 122.213 537.764 122.704C538.361 123.195 538.82 123.707 539.14 124.24C539.481 124.773 539.652 125.275 539.652 125.744L539.044 125.36V122.576C539.044 122.213 539.161 121.915 539.396 121.68C539.63 121.424 539.94 121.296 540.324 121.296C540.686 121.296 540.985 121.424 541.22 121.68C541.476 121.915 541.604 122.213 541.604 122.576V136.592C541.604 138.341 541.23 139.792 540.484 140.944C539.758 142.096 538.777 142.96 537.54 143.536C536.302 144.112 534.916 144.4 533.38 144.4C532.74 144.4 532.036 144.315 531.268 144.144C530.5 143.973 529.817 143.76 529.22 143.504C528.622 143.269 528.238 143.024 528.068 142.768C527.748 142.555 527.545 142.309 527.46 142.032C527.396 141.776 527.449 141.531 527.62 141.296C527.812 140.997 528.057 140.848 528.356 140.848C528.676 140.848 529.07 140.944 529.54 141.136C529.732 141.2 530.03 141.307 530.436 141.456C530.862 141.605 531.332 141.733 531.844 141.84C532.377 141.968 532.9 142.032 533.412 142.032C535.225 142.032 536.612 141.552 537.572 140.592C538.553 139.653 539.044 138.405 539.044 136.848V133.872L539.396 134.032C539.268 134.629 539.001 135.184 538.596 135.696C538.212 136.208 537.732 136.667 537.156 137.072C536.601 137.456 535.982 137.765 535.3 138C534.617 138.213 533.924 138.32 533.22 138.32C531.726 138.32 530.382 137.947 529.188 137.2C527.993 136.453 527.044 135.429 526.34 134.128C525.657 132.827 525.316 131.344 525.316 129.68C525.316 127.995 525.657 126.501 526.34 125.2C527.044 123.899 527.982 122.885 529.156 122.16C530.35 121.413 531.684 121.04 533.156 121.04ZM533.476 123.408C532.388 123.408 531.406 123.685 530.532 124.24C529.678 124.773 529.006 125.509 528.516 126.448C528.046 127.387 527.812 128.464 527.812 129.68C527.812 130.853 528.046 131.92 528.516 132.88C529.006 133.819 529.678 134.565 530.532 135.12C531.406 135.675 532.388 135.952 533.476 135.952C534.585 135.952 535.566 135.685 536.42 135.152C537.273 134.597 537.945 133.851 538.436 132.912C538.926 131.973 539.172 130.896 539.172 129.68C539.172 128.443 538.926 127.355 538.436 126.416C537.945 125.477 537.273 124.741 536.42 124.208C535.566 123.675 534.585 123.408 533.476 123.408ZM547.873 138C547.489 138 547.179 137.872 546.945 137.616C546.71 137.36 546.593 137.051 546.593 136.688V115.6C546.593 115.237 546.71 114.939 546.945 114.704C547.179 114.448 547.489 114.32 547.873 114.32C548.235 114.32 548.534 114.448 548.769 114.704C549.025 114.939 549.153 115.237 549.153 115.6V136.688C549.153 137.051 549.025 137.36 548.769 137.616C548.534 137.872 548.235 138 547.873 138ZM558.497 121.36C558.838 121.36 559.126 121.499 559.361 121.776C559.617 122.032 559.745 122.299 559.745 122.576C559.745 122.939 559.574 123.259 559.233 123.536L548.865 132.592L548.769 129.616L557.601 121.744C557.857 121.488 558.155 121.36 558.497 121.36ZM558.849 137.968C558.486 137.968 558.166 137.829 557.889 137.552L551.073 130.288L552.993 128.528L559.745 135.76C560.001 136.037 560.129 136.357 560.129 136.72C560.129 137.104 559.979 137.413 559.681 137.648C559.382 137.861 559.105 137.968 558.849 137.968ZM576.065 121.456C576.449 121.456 576.758 121.584 576.993 121.84C577.227 122.075 577.345 122.373 577.345 122.736V131.472C577.345 133.627 576.737 135.301 575.521 136.496C574.326 137.669 572.651 138.256 570.497 138.256C568.363 138.256 566.689 137.669 565.473 136.496C564.278 135.301 563.681 133.627 563.681 131.472V122.736C563.681 122.373 563.798 122.075 564.033 121.84C564.289 121.584 564.598 121.456 564.961 121.456C565.345 121.456 565.654 121.584 565.889 121.84C566.123 122.075 566.241 122.373 566.241 122.736V131.472C566.241 132.923 566.614 134.021 567.361 134.768C568.107 135.515 569.153 135.888 570.497 135.888C571.883 135.888 572.939 135.515 573.665 134.768C574.411 134.021 574.785 132.923 574.785 131.472V122.736C574.785 122.373 574.902 122.075 575.137 121.84C575.393 121.584 575.702 121.456 576.065 121.456ZM590.311 121.04C591.761 121.04 592.903 121.339 593.735 121.936C594.567 122.533 595.153 123.333 595.495 124.336C595.857 125.339 596.039 126.459 596.039 127.696V136.688C596.039 137.051 595.911 137.36 595.655 137.616C595.42 137.872 595.121 138 594.759 138C594.396 138 594.087 137.872 593.831 137.616C593.596 137.36 593.479 137.051 593.479 136.688V127.76C593.479 126.949 593.351 126.224 593.095 125.584C592.86 124.923 592.455 124.4 591.879 124.016C591.324 123.611 590.556 123.408 589.575 123.408C588.679 123.408 587.857 123.611 587.111 124.016C586.364 124.4 585.767 124.923 585.319 125.584C584.871 126.224 584.647 126.949 584.647 127.76V136.688C584.647 137.051 584.519 137.36 584.263 137.616C584.028 137.872 583.729 138 583.367 138C583.004 138 582.695 137.872 582.439 137.616C582.204 137.36 582.087 137.051 582.087 136.688V122.736C582.087 122.373 582.204 122.075 582.439 121.84C582.695 121.584 583.004 121.456 583.367 121.456C583.751 121.456 584.06 121.584 584.295 121.84C584.529 122.075 584.647 122.373 584.647 122.736V125.008L584.007 125.712C584.113 125.157 584.359 124.603 584.743 124.048C585.127 123.472 585.607 122.96 586.183 122.512C586.759 122.064 587.399 121.712 588.103 121.456C588.807 121.179 589.543 121.04 590.311 121.04ZM607.718 121.04C608.636 121.04 609.489 121.2 610.278 121.52C611.068 121.819 611.75 122.213 612.326 122.704C612.924 123.195 613.382 123.707 613.702 124.24C614.044 124.773 614.214 125.275 614.214 125.744L613.606 125.36V122.576C613.606 122.213 613.724 121.915 613.958 121.68C614.193 121.424 614.502 121.296 614.886 121.296C615.249 121.296 615.548 121.424 615.782 121.68C616.038 121.915 616.166 122.213 616.166 122.576V136.592C616.166 138.341 615.793 139.792 615.046 140.944C614.321 142.096 613.34 142.96 612.102 143.536C610.865 144.112 609.478 144.4 607.942 144.4C607.302 144.4 606.598 144.315 605.83 144.144C605.062 143.973 604.38 143.76 603.782 143.504C603.185 143.269 602.801 143.024 602.63 142.768C602.31 142.555 602.108 142.309 602.022 142.032C601.958 141.776 602.012 141.531 602.182 141.296C602.374 140.997 602.62 140.848 602.918 140.848C603.238 140.848 603.633 140.944 604.102 141.136C604.294 141.2 604.593 141.307 604.998 141.456C605.425 141.605 605.894 141.733 606.406 141.84C606.94 141.968 607.462 142.032 607.974 142.032C609.788 142.032 611.174 141.552 612.134 140.592C613.116 139.653 613.606 138.405 613.606 136.848V133.872L613.958 134.032C613.83 134.629 613.564 135.184 613.158 135.696C612.774 136.208 612.294 136.667 611.718 137.072C611.164 137.456 610.545 137.765 609.862 138C609.18 138.213 608.486 138.32 607.782 138.32C606.289 138.32 604.945 137.947 603.75 137.2C602.556 136.453 601.606 135.429 600.902 134.128C600.22 132.827 599.878 131.344 599.878 129.68C599.878 127.995 600.22 126.501 600.902 125.2C601.606 123.899 602.545 122.885 603.718 122.16C604.913 121.413 606.246 121.04 607.718 121.04ZM608.038 123.408C606.95 123.408 605.969 123.685 605.094 124.24C604.241 124.773 603.569 125.509 603.078 126.448C602.609 127.387 602.374 128.464 602.374 129.68C602.374 130.853 602.609 131.92 603.078 132.88C603.569 133.819 604.241 134.565 605.094 135.12C605.969 135.675 606.95 135.952 608.038 135.952C609.148 135.952 610.129 135.685 610.982 135.152C611.836 134.597 612.508 133.851 612.998 132.912C613.489 131.973 613.734 130.896 613.734 129.68C613.734 128.443 613.489 127.355 612.998 126.416C612.508 125.477 611.836 124.741 610.982 124.208C610.129 123.675 609.148 123.408 608.038 123.408ZM634.375 121.296C634.738 121.296 635.036 121.424 635.271 121.68C635.527 121.915 635.655 122.213 635.655 122.576V136.688C635.655 137.051 635.527 137.36 635.271 137.616C635.036 137.872 634.738 138 634.375 138C633.991 138 633.682 137.872 633.447 137.616C633.212 137.36 633.095 137.051 633.095 136.688V133.648L633.703 133.584C633.703 134.053 633.543 134.565 633.223 135.12C632.903 135.675 632.466 136.197 631.911 136.688C631.356 137.157 630.695 137.552 629.927 137.872C629.18 138.171 628.37 138.32 627.495 138.32C626.044 138.32 624.743 137.947 623.591 137.2C622.439 136.432 621.522 135.397 620.839 134.096C620.178 132.795 619.847 131.312 619.847 129.648C619.847 127.963 620.178 126.48 620.839 125.2C621.522 123.899 622.439 122.885 623.591 122.16C624.743 121.413 626.023 121.04 627.431 121.04C628.348 121.04 629.202 121.189 629.991 121.488C630.78 121.787 631.463 122.192 632.039 122.704C632.636 123.216 633.095 123.781 633.415 124.4C633.756 125.019 633.927 125.637 633.927 126.256L633.095 126.064V122.576C633.095 122.213 633.212 121.915 633.447 121.68C633.682 121.424 633.991 121.296 634.375 121.296ZM627.783 135.952C628.85 135.952 629.788 135.675 630.599 135.12C631.431 134.565 632.071 133.819 632.519 132.88C632.988 131.92 633.223 130.843 633.223 129.648C633.223 128.475 632.988 127.419 632.519 126.48C632.071 125.52 631.431 124.773 630.599 124.24C629.788 123.685 628.85 123.408 627.783 123.408C626.738 123.408 625.799 123.675 624.967 124.208C624.156 124.741 623.516 125.477 623.047 126.416C622.578 127.355 622.343 128.432 622.343 129.648C622.343 130.843 622.567 131.92 623.015 132.88C623.484 133.819 624.124 134.565 624.935 135.12C625.767 135.675 626.716 135.952 627.783 135.952ZM648.623 121.04C650.074 121.04 651.215 121.339 652.047 121.936C652.879 122.533 653.466 123.333 653.807 124.336C654.17 125.339 654.351 126.459 654.351 127.696V136.688C654.351 137.051 654.223 137.36 653.967 137.616C653.733 137.872 653.434 138 653.071 138C652.709 138 652.399 137.872 652.143 137.616C651.909 137.36 651.791 137.051 651.791 136.688V127.76C651.791 126.949 651.663 126.224 651.407 125.584C651.173 124.923 650.767 124.4 650.191 124.016C649.637 123.611 648.869 123.408 647.887 123.408C646.991 123.408 646.17 123.611 645.423 124.016C644.677 124.4 644.079 124.923 643.631 125.584C643.183 126.224 642.959 126.949 642.959 127.76V136.688C642.959 137.051 642.831 137.36 642.575 137.616C642.341 137.872 642.042 138 641.679 138C641.317 138 641.007 137.872 640.751 137.616C640.517 137.36 640.399 137.051 640.399 136.688V122.736C640.399 122.373 640.517 122.075 640.751 121.84C641.007 121.584 641.317 121.456 641.679 121.456C642.063 121.456 642.373 121.584 642.607 121.84C642.842 122.075 642.959 122.373 642.959 122.736V125.008L642.319 125.712C642.426 125.157 642.671 124.603 643.055 124.048C643.439 123.472 643.919 122.96 644.495 122.512C645.071 122.064 645.711 121.712 646.415 121.456C647.119 121.179 647.855 121.04 648.623 121.04ZM668.667 137.968C668.219 137.968 667.867 137.84 667.611 137.584C667.377 137.328 667.259 136.976 667.259 136.528V135.888C667.259 135.419 667.377 135.056 667.611 134.8C667.867 134.544 668.219 134.416 668.667 134.416H668.923C669.393 134.416 669.745 134.544 669.979 134.8C670.214 135.056 670.331 135.419 670.331 135.888V136.528C670.331 136.976 670.214 137.328 669.979 137.584C669.745 137.84 669.393 137.968 668.923 137.968H668.667ZM674.651 137.968C674.203 137.968 673.851 137.84 673.595 137.584C673.361 137.328 673.243 136.976 673.243 136.528V135.888C673.243 135.419 673.361 135.056 673.595 134.8C673.851 134.544 674.203 134.416 674.651 134.416H674.907C675.377 134.416 675.729 134.544 675.963 134.8C676.198 135.056 676.315 135.419 676.315 135.888V136.528C676.315 136.976 676.198 137.328 675.963 137.584C675.729 137.84 675.377 137.968 674.907 137.968H674.651ZM680.763 137.968C680.315 137.968 679.963 137.84 679.707 137.584C679.473 137.328 679.355 136.976 679.355 136.528V135.888C679.355 135.419 679.473 135.056 679.707 134.8C679.963 134.544 680.315 134.416 680.763 134.416H681.019C681.489 134.416 681.841 134.544 682.075 134.8C682.31 135.056 682.427 135.419 682.427 135.888V136.528C682.427 136.976 682.31 137.328 682.075 137.584C681.841 137.84 681.489 137.968 681.019 137.968H680.763ZM687.261 137.968C686.813 137.968 686.461 137.84 686.205 137.584C685.97 137.328 685.853 136.976 685.853 136.528V135.888C685.853 135.419 685.97 135.056 686.205 134.8C686.461 134.544 686.813 134.416 687.261 134.416H687.517C687.986 134.416 688.338 134.544 688.573 134.8C688.808 135.056 688.925 135.419 688.925 135.888V136.528C688.925 136.976 688.808 137.328 688.573 137.584C688.338 137.84 687.986 137.968 687.517 137.968H687.261Z" fill="white"/>
</svg>
