<svg width="107" height="107" viewBox="0 0 107 107" fill="none" xmlns="http://www.w3.org/2000/svg">
<mask id="mask0_7_64" style="mask-type:luminance" maskUnits="userSpaceOnUse" x="0" y="1" width="107" height="106">
<path d="M0 1.35175H107V107H0V1.35175Z" fill="white"/>
</mask>
<g mask="url(#mask0_7_64)">
<path d="M107 54.6916C107 56.405 106.915 58.1125 106.746 59.814C106.57 61.5214 106.315 63.2111 105.97 64.8948C105.631 66.5726 105.207 68.2326 104.698 69.8689C104.189 71.5112 103.602 73.1178 102.929 74.7008C102.257 76.2837 101.512 77.8311 100.682 79.3429C99.8582 80.8547 98.9556 82.3191 97.9864 83.7419C97.0112 85.1648 95.9693 86.5403 94.8547 87.8683C93.7461 89.1904 92.571 90.4591 91.3292 91.6685C90.0935 92.878 88.7972 94.0281 87.4403 95.1131C86.0894 96.2039 84.678 97.2177 83.2242 98.1722C81.7644 99.1208 80.2682 100.004 78.7235 100.81C77.1728 101.617 75.5918 102.346 73.9744 103.004C72.3571 103.662 70.7094 104.237 69.0315 104.735C67.3535 105.227 65.6574 105.648 63.9371 105.98C62.2228 106.312 60.4904 106.567 58.7458 106.733C57.0012 106.899 55.2506 106.982 53.5 106.982C51.7494 106.982 49.9988 106.899 48.2542 106.733C46.5157 106.567 44.7832 106.312 43.0629 105.98C41.3426 105.648 39.6465 105.227 37.9685 104.735C36.2966 104.237 34.649 103.662 33.0256 103.004C31.4082 102.346 29.8272 101.617 28.2826 100.81C26.7379 100.004 25.2356 99.1208 23.7758 98.1722C22.322 97.2177 20.9166 96.2039 19.5597 95.1131C18.2089 94.0281 16.9126 92.878 15.6708 91.6685C14.429 90.4591 13.2538 89.1904 12.1453 87.8683C11.0307 86.5403 9.98885 85.1648 9.01964 83.7419C8.04438 82.3191 7.14181 80.8547 6.31799 79.3429C5.49417 77.8311 4.74304 76.2837 4.07065 74.7008C3.40433 73.1178 2.81069 71.5112 2.30186 69.8689C1.79908 68.2326 1.369 66.5726 1.02978 64.8948C0.684498 63.2111 0.430084 61.5214 0.260473 59.814C0.0848056 58.1125 0 56.405 0 54.6916C0 52.9783 0.0848056 51.2708 0.260473 49.5634C0.430084 47.8618 0.684498 46.1663 1.02978 44.4885C1.369 42.8106 1.79908 41.1506 2.30186 39.5084C2.81069 37.8721 3.40433 36.2595 4.07065 34.6766C4.74304 33.0936 5.49417 31.5462 6.31799 30.0404C7.14181 28.5286 8.04438 27.0583 9.01964 25.6354C9.98885 24.2125 11.0307 22.8371 12.1453 21.515C13.2538 20.1929 14.429 18.9242 15.6708 17.7147C16.9126 16.4994 18.2089 15.3551 19.5597 14.2643C20.9166 13.1793 22.322 12.1596 23.7758 11.211C25.2356 10.2565 26.7379 9.37907 28.2826 8.57278C29.8272 7.76056 31.4082 7.03134 33.0256 6.37918C34.649 5.72111 36.2966 5.14603 37.9685 4.64802C39.6465 4.15002 41.3426 3.73501 43.0629 3.40301C44.7832 3.06508 46.5157 2.81607 48.2542 2.65007C49.9988 2.47814 51.7494 2.39514 53.5 2.39514C55.2506 2.39514 57.0012 2.47814 58.7458 2.65007C60.4904 2.81607 62.2228 3.06508 63.9371 3.40301C65.6574 3.73501 67.3535 4.15002 69.0315 4.64802C70.7094 5.14603 72.3571 5.72111 73.9744 6.37918C75.5918 7.03134 77.1728 7.76056 78.7235 8.57278C80.2682 9.37907 81.7644 10.2565 83.2242 11.211C84.678 12.1596 86.0894 13.1793 87.4403 14.2643C88.7972 15.3551 90.0935 16.4994 91.3292 17.7147C92.571 18.9242 93.7461 20.1929 94.8547 21.515C95.9693 22.8371 97.0112 24.2125 97.9864 25.6354C98.9556 27.0583 99.8582 28.5286 100.682 30.0404C101.512 31.5462 102.257 33.0936 102.929 34.6766C103.602 36.2595 104.189 37.8721 104.698 39.5084C105.207 41.1506 105.631 42.8106 105.97 44.4885C106.315 46.1663 106.57 47.8618 106.746 49.5634C106.915 51.2708 107 52.9783 107 54.6916Z" fill="#C46019"/>
</g>
<mask id="mask1_7_64" style="mask-type:luminance" maskUnits="userSpaceOnUse" x="0" y="0" width="107" height="107">
<path d="M0 0H107V106.075H0V0Z" fill="white"/>
</mask>
<g mask="url(#mask1_7_64)">
<path d="M107 52.3083C107 54.0217 106.915 55.7292 106.746 57.4366C106.57 59.1381 106.315 60.8278 105.97 62.5115C105.631 64.1893 105.207 65.8493 104.698 67.4856C104.189 69.1279 103.602 70.7405 102.929 72.3175C102.257 73.9004 101.512 75.4478 100.682 76.9596C99.8582 78.4714 98.9556 79.9358 97.9864 81.3586C97.0112 82.7874 95.9693 84.157 94.8547 85.485C93.7461 86.8071 92.571 88.0758 91.3292 89.2852C90.0935 90.4947 88.7972 91.6448 87.4403 92.7298C86.0894 93.8206 84.678 94.8404 83.2242 95.7889C81.7644 96.7435 80.2682 97.6209 78.7235 98.4272C77.1728 99.2335 75.5918 99.9686 73.9744 100.621C72.3571 101.279 70.7094 101.854 69.0315 102.352C67.3535 102.85 65.6574 103.265 63.9371 103.597C62.2228 103.929 60.4904 104.184 58.7458 104.35C57.0012 104.516 55.2506 104.605 53.5 104.605C51.7494 104.605 49.9988 104.516 48.2542 104.35C46.5157 104.184 44.7832 103.929 43.0629 103.597C41.3426 103.265 39.6465 102.85 37.9685 102.352C36.2966 101.854 34.649 101.279 33.0256 100.621C31.4082 99.9686 29.8272 99.2335 28.2826 98.4272C26.7379 97.6209 25.2356 96.7435 23.7758 95.7889C22.322 94.8404 20.9166 93.8206 19.5597 92.7298C18.2089 91.6448 16.9126 90.4947 15.6708 89.2852C14.429 88.0758 13.2538 86.8071 12.1453 85.485C11.0307 84.157 9.98885 82.7874 9.01964 81.3586C8.04438 79.9358 7.14181 78.4714 6.31799 76.9596C5.49417 75.4478 4.74304 73.9004 4.07065 72.3175C3.40433 70.7405 2.81069 69.1279 2.30186 67.4856C1.79908 65.8493 1.369 64.1893 1.02978 62.5115C0.684498 60.8278 0.430084 59.1381 0.260473 57.4366C0.0848056 55.7292 0 54.0217 0 52.3083C0 50.595 0.0848056 48.8875 0.260473 47.1801C0.430084 45.4785 0.684498 43.783 1.02978 42.1052C1.369 40.4273 1.79908 38.7673 2.30186 37.1251C2.81069 35.4888 3.40433 33.8762 4.07065 32.2933C4.74304 30.7162 5.49417 29.1689 6.31799 27.6571C7.14181 26.1453 8.04438 24.6809 9.01964 23.2521C9.98885 21.8292 11.0307 20.4538 12.1453 19.1317C13.2538 17.8096 14.429 16.5409 15.6708 15.3314C16.9126 14.122 18.2089 12.9718 19.5597 11.881C20.9166 10.796 22.322 9.7763 23.7758 8.82772C25.2356 7.87321 26.7379 6.99577 28.2826 6.18948C29.8272 5.38318 31.4082 4.64803 33.0256 3.99588C34.649 3.3378 36.2966 2.76273 37.9685 2.26472C39.6465 1.76672 41.3426 1.35171 43.0629 1.01971C44.7832 0.681777 46.5157 0.432774 48.2542 0.266772C49.9988 0.0948421 51.7494 0.0118408 53.5 0.0118408C55.2506 0.0118408 57.0012 0.0948421 58.7458 0.266772C60.4904 0.432774 62.2228 0.681777 63.9371 1.01971C65.6574 1.35171 67.3535 1.76672 69.0315 2.26472C70.7094 2.76273 72.3571 3.3378 73.9744 3.99588C75.5918 4.64803 77.1728 5.38318 78.7235 6.18948C80.2682 6.99577 81.7644 7.87321 83.2242 8.82772C84.678 9.7763 86.0894 10.796 87.4403 11.881C88.7972 12.9718 90.0935 14.122 91.3292 15.3314C92.571 16.5409 93.7461 17.8096 94.8547 19.1317C95.9693 20.4538 97.0112 21.8292 97.9864 23.2521C98.9556 24.6809 99.8582 26.1453 100.682 27.6571C101.512 29.1689 102.257 30.7162 102.929 32.2933C103.602 33.8762 104.189 35.4888 104.698 37.1251C105.207 38.7673 105.631 40.4273 105.97 42.1052C106.315 43.783 106.57 45.4785 106.746 47.1801C106.915 48.8875 107 50.595 107 52.3083Z" fill="#FF8228"/>
</g>
<path d="M98.3318 52.5514C98.3318 53.9743 98.2591 55.3972 98.1198 56.8141C97.9744 58.231 97.7624 59.6361 97.4777 61.0353C97.193 62.4285 96.8417 63.8099 96.4176 65.1735C95.9936 66.5371 95.5029 67.8769 94.9457 69.1931C94.3884 70.5033 93.7644 71.7898 93.0799 73.0467C92.3894 74.3036 91.6443 75.5249 90.8326 76.7047C90.027 77.8904 89.1607 79.0346 88.2339 80.1374C87.3132 81.2341 86.3319 82.2894 85.3021 83.2973C84.2723 84.3052 83.1941 85.2597 82.0674 86.1608C80.9407 87.0679 79.7716 87.9098 78.5601 88.7042C77.3486 89.4927 76.1007 90.2279 74.8165 90.8978C73.5323 91.5678 72.2178 92.1784 70.8731 92.7238C69.5283 93.2633 68.1533 93.7436 66.76 94.1586C65.3668 94.5736 63.9554 94.9174 62.5258 95.1961C61.0962 95.4747 59.6606 95.6822 58.2068 95.8245C56.7591 95.9609 55.3053 96.032 53.8515 96.032C52.3916 96.032 50.9378 95.9609 49.49 95.8245C48.0423 95.6822 46.6006 95.4747 45.171 95.1961C43.7415 94.9174 42.3301 94.5736 40.9368 94.1586C39.5436 93.7436 38.1746 93.2633 36.8298 92.7238C35.479 92.1784 34.1645 91.5678 32.8803 90.8978C31.5961 90.2279 30.3483 89.4927 29.1368 88.7042C27.9253 87.9098 26.7562 87.0679 25.6295 86.1608C24.5028 85.2597 23.4245 84.3052 22.3948 83.2973C21.365 82.2894 20.3897 81.2341 19.4629 80.1374C18.5422 79.0346 17.676 77.8904 16.8642 76.7047C16.0525 75.5249 15.3075 74.3036 14.623 73.0467C13.9324 71.7898 13.3145 70.5033 12.7572 69.1931C12.1939 67.8769 11.7093 66.5371 11.2853 65.1735C10.8612 63.8099 10.5099 62.4285 10.2252 61.0353C9.9405 59.6361 9.72243 58.231 9.58311 56.8141C9.43773 55.3972 9.37109 53.9743 9.37109 52.5514C9.37109 51.1285 9.43773 49.7057 9.58311 48.2887C9.72243 46.8718 9.9405 45.4667 10.2252 44.0675C10.5099 42.6743 10.8612 41.2929 11.2853 39.9293C11.7093 38.5658 12.1939 37.2259 12.7572 35.9157C13.3145 34.5995 13.9324 33.313 14.623 32.0561C15.3075 30.7992 16.0525 29.578 16.8642 28.3982C17.676 27.2124 18.5422 26.0682 19.4629 24.9714C20.3897 23.8687 21.365 22.8134 22.3948 21.8055C23.4245 20.7976 24.5028 19.8431 25.6295 18.942C26.7562 18.0408 27.9253 17.193 29.1368 16.3986C30.3483 15.6101 31.5961 14.8749 32.8803 14.205C34.1645 13.5351 35.479 12.9244 36.8298 12.3849C38.1746 11.8395 39.5436 11.3593 40.9368 10.9442C42.3301 10.5292 43.7415 10.1854 45.171 9.90674C46.6006 9.62809 48.0423 9.42059 49.49 9.28423C50.9378 9.14194 52.3916 9.0708 53.8515 9.0708C55.3053 9.0708 56.7591 9.14194 58.2068 9.28423C59.6606 9.42059 61.0962 9.62809 62.5258 9.90674C63.9554 10.1854 65.3668 10.5292 66.76 10.9442C68.1533 11.3593 69.5283 11.8395 70.8731 12.3849C72.2178 12.9244 73.5323 13.5351 74.8165 14.205C76.1007 14.8749 77.3486 15.6101 78.5601 16.3986C79.7716 17.193 80.9407 18.0408 82.0674 18.942C83.1941 19.8431 84.2723 20.7976 85.3021 21.8055C86.3319 22.8134 87.3132 23.8687 88.2339 24.9714C89.1607 26.0682 90.027 27.2124 90.8326 28.3982C91.6443 29.578 92.3894 30.7992 93.0799 32.0561C93.7644 33.313 94.3884 34.5995 94.9457 35.9157C95.5029 37.2259 95.9936 38.5658 96.4176 39.9293C96.8417 41.2929 97.193 42.6743 97.4777 44.0675C97.7624 45.4667 97.9744 46.8718 98.1198 48.2887C98.2591 49.7057 98.3318 51.1285 98.3318 52.5514Z" fill="#C46019"/>
<path d="M98.3318 50.257C98.3318 51.6799 98.2591 53.1028 98.1198 54.5197C97.9744 55.9367 97.7624 57.3418 97.4777 58.7409C97.193 60.1341 96.8417 61.5155 96.4176 62.8791C95.9936 64.2427 95.5029 65.5826 94.9457 66.8987C94.3884 68.2149 93.7644 69.4955 93.0799 70.7523C92.3894 72.0092 91.6443 73.2305 90.8326 74.4162C90.027 75.596 89.1607 76.7403 88.2339 77.843C87.3132 78.9398 86.3319 79.9951 85.3021 81.0029C84.2723 82.0108 83.1941 82.9653 82.0674 83.8665C80.9407 84.7736 79.7716 85.6154 78.5601 86.4099C77.3486 87.1984 76.1007 87.9335 74.8165 88.6035C73.5323 89.2734 72.2178 89.884 70.8731 90.4295C69.5283 90.9749 68.1533 91.4492 66.76 91.8642C65.3668 92.2792 63.9554 92.6231 62.5258 92.9017C61.0962 93.1804 59.6606 93.3879 58.2068 93.5301C56.7591 93.6665 55.3053 93.7376 53.8515 93.7376C52.3916 93.7376 50.9378 93.6665 49.49 93.5301C48.0423 93.3879 46.6006 93.1804 45.171 92.9017C43.7415 92.6231 42.3301 92.2792 40.9368 91.8642C39.5436 91.4492 38.1746 90.9749 36.8298 90.4295C35.479 89.884 34.1645 89.2734 32.8803 88.6035C31.5961 87.9335 30.3483 87.1984 29.1368 86.4099C27.9253 85.6154 26.7562 84.7736 25.6295 83.8665C24.5028 82.9653 23.4245 82.0108 22.3948 81.0029C21.365 79.9951 20.3897 78.9398 19.4629 77.843C18.5422 76.7403 17.676 75.596 16.8642 74.4162C16.0525 73.2305 15.3075 72.0092 14.623 70.7523C13.9324 69.4955 13.3145 68.2149 12.7572 66.8987C12.1939 65.5826 11.7093 64.2427 11.2853 62.8791C10.8612 61.5155 10.5099 60.1341 10.2252 58.7409C9.9405 57.3418 9.72243 55.9367 9.58311 54.5197C9.43773 53.1028 9.37109 51.6799 9.37109 50.257C9.37109 48.8342 9.43773 47.4113 9.58311 45.9943C9.72243 44.5774 9.9405 43.1723 10.2252 41.7732C10.5099 40.3799 10.8612 38.9986 11.2853 37.635C11.7093 36.2714 12.1939 34.9374 12.7572 33.6213C13.3145 32.3051 13.9324 31.0186 14.623 29.7617C15.3075 28.5049 16.0525 27.2836 16.8642 26.1038C17.676 24.9181 18.5422 23.7738 19.4629 22.677C20.3897 21.5743 21.365 20.519 22.3948 19.5111C23.4245 18.5092 24.5028 17.5488 25.6295 16.6476C26.7562 15.7465 27.9253 14.8987 29.1368 14.1042C30.3483 13.3157 31.5961 12.5865 32.8803 11.9106C34.1645 11.2407 35.479 10.636 36.8298 10.0905C38.1746 9.5451 39.5436 9.06488 40.9368 8.64988C42.3301 8.23487 43.7415 7.89101 45.171 7.61237C46.6006 7.33372 48.0423 7.12622 49.49 6.98986C50.9378 6.84757 52.3916 6.77643 53.8515 6.77643C55.3053 6.77643 56.7591 6.84757 58.2068 6.98986C59.6606 7.12622 61.0962 7.33372 62.5258 7.61237C63.9554 7.89101 65.3668 8.23487 66.76 8.64988C68.1533 9.06488 69.5283 9.5451 70.8731 10.0905C72.2178 10.636 73.5323 11.2407 74.8165 11.9106C76.1007 12.5865 77.3486 13.3157 78.5601 14.1042C79.7716 14.8987 80.9407 15.7465 82.0674 16.6476C83.1941 17.5488 84.2723 18.5092 85.3021 19.5111C86.3319 20.519 87.3132 21.5743 88.2339 22.677C89.1607 23.7738 90.027 24.9181 90.8326 26.1038C91.6443 27.2836 92.3894 28.5049 93.0799 29.7617C93.7644 31.0186 94.3884 32.3051 94.9457 33.6213C95.5029 34.9374 95.9936 36.2714 96.4176 37.635C96.8417 38.9986 97.193 40.3799 97.4777 41.7732C97.7624 43.1723 97.9744 44.5774 98.1198 45.9943C98.2591 47.4113 98.3318 48.8342 98.3318 50.257Z" fill="white"/>
<path fill-rule="evenodd" clip-rule="evenodd" d="M98.3196 51.164C97.8229 74.76 78.1057 93.7376 53.8514 93.7376C29.591 93.7376 9.87379 74.76 9.37708 51.164C9.87379 27.574 29.591 8.59644 53.8514 8.59644C78.1057 8.59644 97.8229 27.574 98.3196 51.164Z" fill="#FFCD59"/>
<path fill-rule="evenodd" clip-rule="evenodd" d="M26.3926 20.9221C30.4209 18.1772 34.9519 17.7207 36.5208 19.9143C38.0836 22.1019 36.0907 26.1097 32.0624 28.8606C28.0342 31.6115 23.4971 32.0621 21.9343 29.8685C20.3654 27.6808 22.3644 23.673 26.3926 20.9221ZM19.9353 32.6846C21.9464 32.6846 23.5759 34.2734 23.5759 36.2417C23.5759 38.2041 21.9464 39.793 19.9353 39.793C17.9303 39.793 16.3008 38.2041 16.3008 36.2417C16.3008 34.2734 17.9303 32.6846 19.9353 32.6846Z" fill="white"/>
<path fill-rule="evenodd" clip-rule="evenodd" d="M32.5167 57.069C31.4082 56.8437 30.3542 56.3102 29.5 55.4742C27.1497 53.1798 27.1497 49.4152 29.5 47.1148L49.084 27.9713C49.2294 27.7993 49.3808 27.6274 49.5444 27.4673C50.7316 26.3113 52.2884 25.7362 53.8513 25.7421C55.408 25.7362 56.9709 26.3113 58.1521 27.4673C58.3217 27.6274 58.4732 27.7993 58.6125 27.9713L65.5302 34.7299V32.1865C65.5302 29.6372 67.6685 27.5444 70.2793 27.5444C72.89 27.5444 75.0283 29.6372 75.0283 32.1865V44.0201L78.2025 47.1148C80.5528 49.4152 80.5528 53.1798 78.2025 55.4742C77.3423 56.3102 76.2883 56.8437 75.1798 57.0749V72.2285C75.1798 75.9754 72.048 79.0405 68.2136 79.0405C64.3792 79.0405 61.2475 75.9754 61.2475 72.2285V64.3316C61.2475 60.3535 57.9159 57.1046 53.8513 57.1046C49.7806 57.1046 46.455 60.3535 46.455 64.3316V72.2285C46.455 75.9754 43.3172 79.0405 39.4828 79.0405C35.6545 79.0405 32.5167 75.9754 32.5167 72.2285V57.069Z" fill="#C46019"/>
<path fill-rule="evenodd" clip-rule="evenodd" d="M32.5169 57.0691C31.4083 56.8438 30.3543 56.3102 29.5002 55.4743C28.9126 54.8992 28.4704 54.2352 28.1797 53.5237C28.4704 52.8123 28.9126 52.1483 29.5002 51.5732L49.0842 32.4297C49.2296 32.2577 49.381 32.0858 49.5446 31.9257C50.7318 30.7696 52.2886 30.1946 53.8514 30.2005C55.4082 30.1946 56.9711 30.7696 58.1523 31.9257C58.3219 32.0858 58.4733 32.2577 58.6127 32.4297L65.5303 39.1883V36.6449C65.5303 34.0956 67.6686 32.0028 70.2794 32.0028C72.8902 32.0028 75.0285 34.0956 75.0285 36.6449V48.4725L78.2027 51.5732C78.7903 52.1483 79.2264 52.8123 79.5232 53.5237C79.2264 54.2352 78.7903 54.8992 78.2027 55.4743C77.3425 56.3102 76.2885 56.8438 75.18 57.075V72.2286C75.18 75.9755 72.0482 79.0406 68.2138 79.0406C64.3794 79.0406 61.2477 75.9755 61.2477 72.2286V64.3316C61.2477 60.3535 57.916 57.1046 53.8514 57.1046C49.7808 57.1046 46.4552 60.3535 46.4552 64.3316V72.2286C46.4552 75.9755 43.3174 79.0406 39.483 79.0406C35.6547 79.0406 32.5169 75.9755 32.5169 72.2286V57.0691Z" fill="#FF8228"/>
</svg>
