<svg width="107" height="107" viewBox="0 0 107 107" fill="none" xmlns="http://www.w3.org/2000/svg">
<mask id="mask0_7_64" style="mask-type:luminance" maskUnits="userSpaceOnUse" x="0" y="1" width="107" height="106">
<path d="M0 1.35181H107V107H0V1.35181Z" fill="white"/>
</mask>
<g mask="url(#mask0_7_64)">
<path d="M107 54.6918C107 56.4051 106.915 58.1126 106.746 59.8141C106.57 61.5215 106.315 63.2112 105.97 64.8949C105.631 66.5727 105.207 68.2328 104.698 69.8691C104.189 71.5113 103.602 73.118 102.929 74.7009C102.257 76.2838 101.512 77.8312 100.682 79.343C99.8582 80.8548 98.9556 82.3192 97.9864 83.7421C97.0112 85.1649 95.9693 86.5404 94.8547 87.8684C93.7461 89.1905 92.571 90.4592 91.3292 91.6686C90.0935 92.8781 88.7972 94.0283 87.4403 95.1132C86.0894 96.2041 84.678 97.2178 83.2242 98.1724C81.7644 99.1209 80.2682 100.004 78.7235 100.811C77.1728 101.617 75.5918 102.346 73.9744 103.004C72.3571 103.662 70.7094 104.237 69.0315 104.735C67.3535 105.227 65.6574 105.648 63.9371 105.98C62.2228 106.312 60.4904 106.567 58.7458 106.733C57.0012 106.899 55.2506 106.982 53.5 106.982C51.7494 106.982 49.9988 106.899 48.2542 106.733C46.5157 106.567 44.7832 106.312 43.0629 105.98C41.3426 105.648 39.6465 105.227 37.9685 104.735C36.2966 104.237 34.649 103.662 33.0256 103.004C31.4082 102.346 29.8272 101.617 28.2826 100.811C26.7379 100.004 25.2356 99.1209 23.7758 98.1724C22.322 97.2178 20.9166 96.2041 19.5597 95.1132C18.2089 94.0283 16.9126 92.8781 15.6708 91.6686C14.429 90.4592 13.2538 89.1905 12.1453 87.8684C11.0307 86.5404 9.98885 85.1649 9.01964 83.7421C8.04438 82.3192 7.14181 80.8548 6.31799 79.343C5.49417 77.8312 4.74304 76.2838 4.07065 74.7009C3.40433 73.118 2.81069 71.5113 2.30186 69.8691C1.79908 68.2328 1.369 66.5727 1.02978 64.8949C0.684498 63.2112 0.430084 61.5215 0.260473 59.8141C0.0848056 58.1126 0 56.4051 0 54.6918C0 52.9784 0.0848056 51.2709 0.260473 49.5635C0.430084 47.862 0.684498 46.1664 1.02978 44.4886C1.369 42.8108 1.79908 41.1508 2.30186 39.5085C2.81069 37.8722 3.40433 36.2596 4.07065 34.6767C4.74304 33.0937 5.49417 31.5464 6.31799 30.0405C7.14181 28.5287 8.04438 27.0584 9.01964 25.6355C9.98885 24.2126 11.0307 22.8372 12.1453 21.5151C13.2538 20.193 14.429 18.9243 15.6708 17.7149C16.9126 16.4995 18.2089 15.3553 19.5597 14.2644C20.9166 13.1795 22.322 12.1597 23.7758 11.2111C25.2356 10.2566 26.7379 9.3792 28.2826 8.5729C29.8272 7.76068 31.4082 7.03146 33.0256 6.37931C34.649 5.72123 36.2966 5.14615 37.9685 4.64814C39.6465 4.15014 41.3426 3.73514 43.0629 3.40313C44.7832 3.0652 46.5157 2.8162 48.2542 2.65019C49.9988 2.47826 51.7494 2.39526 53.5 2.39526C55.2506 2.39526 57.0012 2.47826 58.7458 2.65019C60.4904 2.8162 62.2228 3.0652 63.9371 3.40313C65.6574 3.73514 67.3535 4.15014 69.0315 4.64814C70.7094 5.14615 72.3571 5.72123 73.9744 6.37931C75.5918 7.03146 77.1728 7.76068 78.7235 8.5729C80.2682 9.3792 81.7644 10.2566 83.2242 11.2111C84.678 12.1597 86.0894 13.1795 87.4403 14.2644C88.7972 15.3553 90.0935 16.4995 91.3292 17.7149C92.571 18.9243 93.7461 20.193 94.8547 21.5151C95.9693 22.8372 97.0112 24.2126 97.9864 25.6355C98.9556 27.0584 99.8582 28.5287 100.682 30.0405C101.512 31.5464 102.257 33.0937 102.929 34.6767C103.602 36.2596 104.189 37.8722 104.698 39.5085C105.207 41.1508 105.631 42.8108 105.97 44.4886C106.315 46.1664 106.57 47.862 106.746 49.5635C106.915 51.2709 107 52.9784 107 54.6918Z" fill="#C46019"/>
</g>
<mask id="mask1_7_64" style="mask-type:luminance" maskUnits="userSpaceOnUse" x="0" y="0" width="107" height="107">
<path d="M0 0H107V106.075H0V0Z" fill="white"/>
</mask>
<g mask="url(#mask1_7_64)">
<path d="M107 52.3082C107 54.0216 106.915 55.729 106.746 57.4365C106.57 59.138 106.315 60.8277 105.97 62.5114C105.631 64.1892 105.207 65.8492 104.698 67.4855C104.189 69.1277 103.602 70.7403 102.929 72.3174C102.257 73.9003 101.512 75.4477 100.682 76.9595C99.8582 78.4713 98.9556 79.9356 97.9864 81.3585C97.0112 82.7873 95.9693 84.1568 94.8547 85.4848C93.7461 86.8069 92.571 88.0757 91.3292 89.2851C90.0935 90.4945 88.7972 91.6447 87.4403 92.7296C86.0894 93.8205 84.678 94.8402 83.2242 95.7888C81.7644 96.7433 80.2682 97.6208 78.7235 98.4271C77.1728 99.2334 75.5918 99.9685 73.9744 100.621C72.3571 101.279 70.7094 101.854 69.0315 102.352C67.3535 102.85 65.6574 103.265 63.9371 103.597C62.2228 103.929 60.4904 104.184 58.7458 104.35C57.0012 104.516 55.2506 104.605 53.5 104.605C51.7494 104.605 49.9988 104.516 48.2542 104.35C46.5157 104.184 44.7832 103.929 43.0629 103.597C41.3426 103.265 39.6465 102.85 37.9685 102.352C36.2966 101.854 34.649 101.279 33.0256 100.621C31.4082 99.9685 29.8272 99.2334 28.2826 98.4271C26.7379 97.6208 25.2356 96.7433 23.7758 95.7888C22.322 94.8402 20.9166 93.8205 19.5597 92.7296C18.2089 91.6447 16.9126 90.4945 15.6708 89.2851C14.429 88.0757 13.2538 86.8069 12.1453 85.4848C11.0307 84.1568 9.98885 82.7873 9.01964 81.3585C8.04438 79.9356 7.14181 78.4713 6.31799 76.9595C5.49417 75.4477 4.74304 73.9003 4.07065 72.3174C3.40433 70.7403 2.81069 69.1277 2.30186 67.4855C1.79908 65.8492 1.369 64.1892 1.02978 62.5114C0.684498 60.8277 0.430084 59.138 0.260473 57.4365C0.0848056 55.729 0 54.0216 0 52.3082C0 50.5948 0.0848056 48.8874 0.260473 47.1799C0.430084 45.4784 0.684498 43.7828 1.02978 42.105C1.369 40.4272 1.79908 38.7672 2.30186 37.125C2.81069 35.4887 3.40433 33.8761 4.07065 32.2931C4.74304 30.7161 5.49417 29.1687 6.31799 27.6569C7.14181 26.1451 8.04438 24.6808 9.01964 23.252C9.98885 21.8291 11.0307 20.4537 12.1453 19.1316C13.2538 17.8095 14.429 16.5408 15.6708 15.3313C16.9126 14.1219 18.2089 12.9717 19.5597 11.8808C20.9166 10.7959 22.322 9.77618 23.7758 8.8276C25.2356 7.87309 26.7379 6.99565 28.2826 6.18936C29.8272 5.38306 31.4082 4.64791 33.0256 3.99576C34.649 3.33768 36.2966 2.76261 37.9685 2.2646C39.6465 1.7666 41.3426 1.35159 43.0629 1.01959C44.7832 0.681655 46.5157 0.432652 48.2542 0.26665C49.9988 0.09472 51.7494 0.0117188 53.5 0.0117188C55.2506 0.0117188 57.0012 0.09472 58.7458 0.26665C60.4904 0.432652 62.2228 0.681655 63.9371 1.01959C65.6574 1.35159 67.3535 1.7666 69.0315 2.2646C70.7094 2.76261 72.3571 3.33768 73.9744 3.99576C75.5918 4.64791 77.1728 5.38306 78.7235 6.18936C80.2682 6.99565 81.7644 7.87309 83.2242 8.8276C84.678 9.77618 86.0894 10.7959 87.4403 11.8808C88.7972 12.9717 90.0935 14.1219 91.3292 15.3313C92.571 16.5408 93.7461 17.8095 94.8547 19.1316C95.9693 20.4537 97.0112 21.8291 97.9864 23.252C98.9556 24.6808 99.8582 26.1451 100.682 27.6569C101.512 29.1687 102.257 30.7161 102.929 32.2931C103.602 33.8761 104.189 35.4887 104.698 37.125C105.207 38.7672 105.631 40.4272 105.97 42.105C106.315 43.7828 106.57 45.4784 106.746 47.1799C106.915 48.8874 107 50.5948 107 52.3082Z" fill="#FF8228"/>
</g>
<path d="M98.3318 52.5514C98.3318 53.9743 98.2591 55.3972 98.1198 56.8141C97.9744 58.231 97.7624 59.6361 97.4777 61.0353C97.193 62.4285 96.8417 63.8099 96.4176 65.1735C95.9936 66.5371 95.503 67.8769 94.9457 69.1931C94.3884 70.5033 93.7644 71.7898 93.0799 73.0467C92.3894 74.3036 91.6443 75.5249 90.8326 76.7047C90.027 77.8904 89.1607 79.0346 88.2339 80.1374C87.3132 81.2341 86.3319 82.2894 85.3021 83.2973C84.2723 84.3052 83.1941 85.2597 82.0674 86.1608C80.9407 87.0679 79.7716 87.9098 78.5601 88.7042C77.3486 89.4927 76.1007 90.2279 74.8165 90.8978C73.5323 91.5678 72.2178 92.1784 70.8731 92.7238C69.5283 93.2634 68.1533 93.7436 66.76 94.1586C65.3668 94.5736 63.9554 94.9174 62.5258 95.1961C61.0962 95.4747 59.6606 95.6822 58.2068 95.8245C56.7591 95.9609 55.3053 96.032 53.8515 96.032C52.3916 96.032 50.9378 95.9609 49.49 95.8245C48.0423 95.6822 46.6006 95.4747 45.171 95.1961C43.7415 94.9174 42.3301 94.5736 40.9368 94.1586C39.5436 93.7436 38.1746 93.2634 36.8298 92.7238C35.479 92.1784 34.1645 91.5678 32.8803 90.8978C31.5961 90.2279 30.3483 89.4927 29.1368 88.7042C27.9253 87.9098 26.7562 87.0679 25.6295 86.1608C24.5028 85.2597 23.4245 84.3052 22.3948 83.2973C21.365 82.2894 20.3897 81.2341 19.4629 80.1374C18.5422 79.0346 17.676 77.8904 16.8642 76.7047C16.0525 75.5249 15.3075 74.3036 14.623 73.0467C13.9324 71.7898 13.3145 70.5033 12.7572 69.1931C12.1939 67.8769 11.7093 66.5371 11.2853 65.1735C10.8612 63.8099 10.5099 62.4285 10.2252 61.0353C9.9405 59.6361 9.72243 58.231 9.58311 56.8141C9.43773 55.3972 9.37109 53.9743 9.37109 52.5514C9.37109 51.1285 9.43773 49.7057 9.58311 48.2887C9.72243 46.8718 9.9405 45.4667 10.2252 44.0675C10.5099 42.6743 10.8612 41.2929 11.2853 39.9293C11.7093 38.5658 12.1939 37.2259 12.7572 35.9157C13.3145 34.5995 13.9324 33.313 14.623 32.0561C15.3075 30.7992 16.0525 29.5779 16.8642 28.3982C17.676 27.2124 18.5422 26.0682 19.4629 24.9714C20.3897 23.8687 21.365 22.8134 22.3948 21.8055C23.4245 20.7976 24.5028 19.8431 25.6295 18.942C26.7562 18.0408 27.9253 17.193 29.1368 16.3986C30.3483 15.6101 31.5961 14.8749 32.8803 14.205C34.1645 13.5351 35.479 12.9244 36.8298 12.3849C38.1746 11.8395 39.5436 11.3593 40.9368 10.9442C42.3301 10.5292 43.7415 10.1854 45.171 9.90674C46.6006 9.62809 48.0423 9.42059 49.49 9.28423C50.9378 9.14194 52.3916 9.0708 53.8515 9.0708C55.3053 9.0708 56.7591 9.14194 58.2068 9.28423C59.6606 9.42059 61.0962 9.62809 62.5258 9.90674C63.9554 10.1854 65.3668 10.5292 66.76 10.9442C68.1533 11.3593 69.5283 11.8395 70.8731 12.3849C72.2178 12.9244 73.5323 13.5351 74.8165 14.205C76.1007 14.8749 77.3486 15.6101 78.5601 16.3986C79.7716 17.193 80.9407 18.0408 82.0674 18.942C83.1941 19.8431 84.2723 20.7976 85.3021 21.8055C86.3319 22.8134 87.3132 23.8687 88.2339 24.9714C89.1607 26.0682 90.027 27.2124 90.8326 28.3982C91.6443 29.5779 92.3894 30.7992 93.0799 32.0561C93.7644 33.313 94.3884 34.5995 94.9457 35.9157C95.503 37.2259 95.9936 38.5658 96.4176 39.9293C96.8417 41.2929 97.193 42.6743 97.4777 44.0675C97.7624 45.4667 97.9744 46.8718 98.1198 48.2887C98.2591 49.7057 98.3318 51.1285 98.3318 52.5514Z" fill="#C46019"/>
<path d="M98.3318 50.257C98.3318 51.6799 98.2591 53.1027 98.1198 54.5197C97.9744 55.9366 97.7624 57.3417 97.4777 58.7409C97.193 60.1341 96.8417 61.5155 96.4176 62.879C95.9936 64.2426 95.503 65.5825 94.9457 66.8987C94.3884 68.2148 93.7644 69.4954 93.0799 70.7523C92.3894 72.0091 91.6443 73.2304 90.8326 74.4162C90.027 75.596 89.1607 76.7402 88.2339 77.8429C87.3132 78.9397 86.3319 79.995 85.3021 81.0029C84.2723 82.0107 83.1941 82.9653 82.0674 83.8664C80.9407 84.7735 79.7716 85.6154 78.5601 86.4098C77.3486 87.1983 76.1007 87.9335 74.8165 88.6034C73.5323 89.2733 72.2178 89.884 70.8731 90.4294C69.5283 90.9748 68.1533 91.4491 66.76 91.8641C65.3668 92.2791 63.9554 92.623 62.5258 92.9016C61.0962 93.1803 59.6606 93.3878 58.2068 93.5301C56.7591 93.6664 55.3053 93.7376 53.8515 93.7376C52.3916 93.7376 50.9378 93.6664 49.49 93.5301C48.0423 93.3878 46.6006 93.1803 45.171 92.9016C43.7415 92.623 42.3301 92.2791 40.9368 91.8641C39.5436 91.4491 38.1746 90.9748 36.8298 90.4294C35.479 89.884 34.1645 89.2733 32.8803 88.6034C31.5961 87.9335 30.3483 87.1983 29.1368 86.4098C27.9253 85.6154 26.7562 84.7735 25.6295 83.8664C24.5028 82.9653 23.4245 82.0107 22.3948 81.0029C21.365 79.995 20.3897 78.9397 19.4629 77.8429C18.5422 76.7402 17.676 75.596 16.8642 74.4162C16.0525 73.2304 15.3075 72.0091 14.623 70.7523C13.9324 69.4954 13.3145 68.2148 12.7572 66.8987C12.1939 65.5825 11.7093 64.2426 11.2853 62.879C10.8612 61.5155 10.5099 60.1341 10.2252 58.7409C9.9405 57.3417 9.72243 55.9366 9.58311 54.5197C9.43773 53.1027 9.37109 51.6799 9.37109 50.257C9.37109 48.8341 9.43773 47.4112 9.58311 45.9943C9.72243 44.5773 9.9405 43.1723 10.2252 41.7731C10.5099 40.3799 10.8612 38.9985 11.2853 37.6349C11.7093 36.2713 12.1939 34.9374 12.7572 33.6212C13.3145 32.3051 13.9324 31.0186 14.623 29.7617C15.3075 28.5048 16.0525 27.2835 16.8642 26.1037C17.676 24.918 18.5422 23.7738 19.4629 22.677C20.3897 21.5742 21.365 20.5189 22.3948 19.5111C23.4245 18.5091 24.5028 17.5487 25.6295 16.6475C26.7562 15.7464 27.9253 14.8986 29.1368 14.1042C30.3483 13.3157 31.5961 12.5864 32.8803 11.9106C34.1645 11.2406 35.479 10.6359 36.8298 10.0905C38.1746 9.54504 39.5436 9.06482 40.9368 8.64982C42.3301 8.23481 43.7415 7.89095 45.171 7.6123C46.6006 7.33366 48.0423 7.12616 49.49 6.9898C50.9378 6.84751 52.3916 6.77637 53.8515 6.77637C55.3053 6.77637 56.7591 6.84751 58.2068 6.9898C59.6606 7.12616 61.0962 7.33366 62.5258 7.6123C63.9554 7.89095 65.3668 8.23481 66.76 8.64982C68.1533 9.06482 69.5283 9.54504 70.8731 10.0905C72.2178 10.6359 73.5323 11.2406 74.8165 11.9106C76.1007 12.5864 77.3486 13.3157 78.5601 14.1042C79.7716 14.8986 80.9407 15.7464 82.0674 16.6475C83.1941 17.5487 84.2723 18.5091 85.3021 19.5111C86.3319 20.5189 87.3132 21.5742 88.2339 22.677C89.1607 23.7738 90.027 24.918 90.8326 26.1037C91.6443 27.2835 92.3894 28.5048 93.0799 29.7617C93.7644 31.0186 94.3884 32.3051 94.9457 33.6212C95.503 34.9374 95.9936 36.2713 96.4176 37.6349C96.8417 38.9985 97.193 40.3799 97.4777 41.7731C97.7624 43.1723 97.9744 44.5773 98.1198 45.9943C98.2591 47.4112 98.3318 48.8341 98.3318 50.257Z" fill="white"/>
<path fill-rule="evenodd" clip-rule="evenodd" d="M98.3195 51.164C97.8228 74.76 78.1056 93.7376 53.8513 93.7376C29.5909 93.7376 9.87367 74.76 9.37695 51.164C9.87367 27.574 29.5909 8.59644 53.8513 8.59644C78.1056 8.59644 97.8228 27.574 98.3195 51.164Z" fill="#FFCD59"/>
<path fill-rule="evenodd" clip-rule="evenodd" d="M26.3926 20.9221C30.4209 18.1771 34.9519 17.7206 36.5208 19.9142C38.0836 22.1019 36.0907 26.1096 32.0624 28.8605C28.0342 31.6114 23.4971 32.062 21.9343 29.8684C20.3654 27.6807 22.3644 23.673 26.3926 20.9221ZM19.9353 32.6845C21.9464 32.6845 23.5759 34.2734 23.5759 36.2417C23.5759 38.2041 21.9464 39.7929 19.9353 39.7929C17.9303 39.7929 16.3008 38.2041 16.3008 36.2417C16.3008 34.2734 17.9303 32.6845 19.9353 32.6845Z" fill="white"/>
<path fill-rule="evenodd" clip-rule="evenodd" d="M32.5167 57.0689C31.4082 56.8436 30.3542 56.31 29.5 55.4741C27.1497 53.1797 27.1497 49.415 29.5 47.1147L49.084 27.9712C49.2294 27.7992 49.3808 27.6273 49.5444 27.4672C50.7316 26.3111 52.2884 25.7361 53.8513 25.742C55.408 25.7361 56.9709 26.3111 58.1521 27.4672C58.3217 27.6273 58.4732 27.7992 58.6125 27.9712L65.5302 34.7298V32.1864C65.5302 29.6371 67.6685 27.5443 70.2793 27.5443C72.89 27.5443 75.0283 29.6371 75.0283 32.1864V44.02L78.2025 47.1147C80.5528 49.415 80.5528 53.1797 78.2025 55.4741C77.3423 56.31 76.2883 56.8436 75.1798 57.0748V72.2284C75.1798 75.9753 72.048 79.0404 68.2136 79.0404C64.3792 79.0404 61.2475 75.9753 61.2475 72.2284V64.3315C61.2475 60.3534 57.9159 57.1045 53.8513 57.1045C49.7806 57.1045 46.455 60.3534 46.455 64.3315V72.2284C46.455 75.9753 43.3172 79.0404 39.4828 79.0404C35.6545 79.0404 32.5167 75.9753 32.5167 72.2284V57.0689Z" fill="#C46019"/>
<path fill-rule="evenodd" clip-rule="evenodd" d="M32.5169 57.0691C31.4083 56.8438 30.3543 56.3102 29.5002 55.4743C28.9126 54.8992 28.4704 54.2352 28.1797 53.5237C28.4704 52.8123 28.9126 52.1483 29.5002 51.5732L49.0842 32.4297C49.2296 32.2577 49.381 32.0858 49.5446 31.9257C50.7318 30.7696 52.2886 30.1946 53.8514 30.2005C55.4082 30.1946 56.9711 30.7696 58.1523 31.9257C58.3219 32.0858 58.4733 32.2577 58.6127 32.4297L65.5303 39.1883V36.6449C65.5303 34.0956 67.6686 32.0028 70.2794 32.0028C72.8902 32.0028 75.0285 34.0956 75.0285 36.6449V48.4725L78.2027 51.5732C78.7902 52.1483 79.2264 52.8123 79.5232 53.5237C79.2264 54.2352 78.7902 54.8992 78.2027 55.4743C77.3425 56.3102 76.2885 56.8438 75.18 57.075V72.2286C75.18 75.9755 72.0482 79.0406 68.2138 79.0406C64.3794 79.0406 61.2477 75.9755 61.2477 72.2286V64.3316C61.2477 60.3535 57.916 57.1046 53.8514 57.1046C49.7808 57.1046 46.4552 60.3535 46.4552 64.3316V72.2286C46.4552 75.9755 43.3174 79.0406 39.483 79.0406C35.6547 79.0406 32.5169 75.9755 32.5169 72.2286V57.0691Z" fill="#FF8228"/>
</svg>
