<svg width="212" height="166" viewBox="0 0 212 166" fill="none" xmlns="http://www.w3.org/2000/svg">
<mask id="mask0_6_16168" style="mask-type:luminance" maskUnits="userSpaceOnUse" x="0" y="0" width="212" height="166">
<path d="M0 0H211.682V165.333H0V0Z" fill="white"/>
</mask>
<g mask="url(#mask0_6_16168)">
<mask id="mask1_6_16168" style="mask-type:luminance" maskUnits="userSpaceOnUse" x="-1" y="0" width="213" height="166">
<path d="M211.682 0H-0.317627V165.333H211.682V0Z" fill="white"/>
</mask>
<g mask="url(#mask1_6_16168)">
<path d="M88.1928 132.276C88.1928 133.287 86.7137 134.104 84.8907 134.104C83.073 134.104 81.5939 133.287 81.5939 132.276V86.6615C81.5939 85.6511 83.0678 84.8334 84.8907 84.8334C86.7137 84.8334 88.1928 85.6511 88.1928 86.6615V132.276Z" fill="#ED9535"/>
<mask id="mask2_6_16168" style="mask-type:luminance" maskUnits="userSpaceOnUse" x="74" y="77" width="22" height="61">
<path d="M74.349 77.3335H95.6823V137.61H74.349V77.3335Z" fill="white"/>
</mask>
<g mask="url(#mask2_6_16168)">
<path d="M88.1926 132.276C88.1926 133.287 86.7134 134.104 84.8905 134.104C83.0728 134.104 81.5936 133.287 81.5936 132.276V86.6617C81.5936 85.6513 83.0676 84.8336 84.8905 84.8336C86.7134 84.8336 88.1926 85.6513 88.1926 86.6617V132.276Z" stroke="#935827" stroke-width="0.476929" stroke-miterlimit="10"/>
</g>
<path d="M23.948 135.974C23.6928 136.948 22.0261 137.359 20.2293 136.891C18.4324 136.427 17.1824 135.255 17.4376 134.276L28.9584 90.1407C29.2136 89.1616 30.8751 88.7501 32.672 89.2189C34.4689 89.6876 35.7189 90.8595 35.4689 91.8334L23.948 135.974Z" fill="#ED9535"/>
<mask id="mask3_6_16168" style="mask-type:luminance" maskUnits="userSpaceOnUse" x="10" y="81" width="33" height="57">
<path d="M10.349 81.3335H42.349V137.61H10.349V81.3335Z" fill="white"/>
</mask>
<g mask="url(#mask3_6_16168)">
<path d="M23.9479 135.974C23.6927 136.948 22.026 137.36 20.2291 136.891C18.4323 136.427 17.1823 135.255 17.4375 134.276L28.9583 90.1408C29.2135 89.1617 30.875 88.7502 32.6718 89.219C34.4687 89.6877 35.7187 90.8596 35.4687 91.8336L23.9479 135.974Z" stroke="#935827" stroke-width="0.476929" stroke-miterlimit="10"/>
</g>
<path d="M147.896 135.974C148.151 136.948 149.818 137.359 151.615 136.891C153.412 136.427 154.662 135.255 154.406 134.276L142.886 90.1407C142.63 89.1616 140.969 88.7501 139.172 89.2189C137.375 89.6876 136.125 90.8595 136.375 91.8334L147.896 135.974Z" fill="#ED9535"/>
<mask id="mask4_6_16168" style="mask-type:luminance" maskUnits="userSpaceOnUse" x="129" y="81" width="34" height="57">
<path d="M129.016 81.3335H162.349V137.61H129.016V81.3335Z" fill="white"/>
</mask>
<g mask="url(#mask4_6_16168)">
<path d="M147.896 135.974C148.151 136.948 149.818 137.36 151.614 136.891C153.411 136.427 154.661 135.255 154.406 134.276L142.885 90.1408C142.63 89.1617 140.969 88.7502 139.172 89.219C137.375 89.6877 136.125 90.8596 136.375 91.8336L147.896 135.974Z" stroke="#935827" stroke-width="0.476929" stroke-miterlimit="10"/>
</g>
<mask id="mask5_6_16168" style="mask-type:luminance" maskUnits="userSpaceOnUse" x="0" y="0" width="170" height="95">
<path d="M0.057373 0.338623H169.886V94.6668H0.057373V0.338623Z" fill="white"/>
</mask>
<g mask="url(#mask5_6_16168)">
<path d="M0.296875 0.599121H169.646V94.5314H0.296875V0.599121Z" fill="#ED9535"/>
</g>
<mask id="mask6_6_16168" style="mask-type:luminance" maskUnits="userSpaceOnUse" x="0" y="0" width="170" height="97">
<path d="M0.057373 0.338623H169.886V96.0001H0.057373V0.338623Z" fill="white"/>
</mask>
<g mask="url(#mask6_6_16168)">
<path d="M0.296875 0.599121H169.646V94.5315H0.296875V0.599121Z" stroke="#935827" stroke-width="0.476929" stroke-miterlimit="10"/>
</g>
<path d="M3 3.297H166.786V91.6669H3V3.297Z" fill="white" stroke="#231F20" stroke-width="0.476929" stroke-miterlimit="10"/>
<path d="M155.656 86.9012C155.656 89.271 154.125 91.1928 152.234 91.1928H128.224C126.333 91.1928 124.807 89.271 124.807 86.9012C124.807 84.5314 126.333 82.6095 128.224 82.6095H152.234C154.125 82.6095 155.656 84.5314 155.656 86.9012Z" fill="#262626" stroke="#231F20" stroke-width="0.476929" stroke-miterlimit="10"/>
<path d="M155.656 88.2503C155.656 90.1409 154.125 91.667 152.234 91.667H128.224C126.333 91.667 124.807 90.1409 124.807 88.2503C124.807 86.3649 126.333 84.8336 128.224 84.8336H152.234C154.125 84.8336 155.656 86.3649 155.656 88.2503Z" fill="#E5934A" stroke="#231F20" stroke-width="0.476929" stroke-miterlimit="10"/>
<path d="M14.7656 94.5106H155.651V99.4585H14.7656V94.5106Z" fill="#ED9535" stroke="#935827" stroke-width="0.476929" stroke-miterlimit="10"/>
<path d="M194.141 111.734H190.5C186.906 108.01 183.313 104.292 179.714 100.568H194.141V111.734Z" fill="#E88934"/>
<path d="M70.7396 111.734H74.375L85.1615 100.568H70.7396V111.734Z" fill="#E88934"/>
<mask id="mask7_6_16168" style="mask-type:luminance" maskUnits="userSpaceOnUse" x="190" y="97" width="12" height="68">
<path d="M190.349 97.3335H201.016V164.333H190.349V97.3335Z" fill="white"/>
</mask>
<g mask="url(#mask7_6_16168)">
<path d="M190.552 97.4272H199.88V164.333H190.552V97.4272Z" fill="#964B06"/>
</g>
<mask id="mask8_6_16168" style="mask-type:luminance" maskUnits="userSpaceOnUse" x="63" y="97" width="12" height="68">
<path d="M63.6824 97.3335H74.349V164.333H63.6824V97.3335Z" fill="white"/>
</mask>
<g mask="url(#mask8_6_16168)">
<path d="M65 97.4272H74.3281V164.333H65V97.4272Z" fill="#964B06"/>
</g>
<path d="M156.761 66.5209H153.453L146.453 116.698H154.271L156.761 66.5209Z" fill="#703300"/>
<path d="M108.115 66.5209H111.422L118.427 116.698H110.609L108.115 66.5209Z" fill="#703300"/>
<path d="M199.995 86.8074V87.6772L199.99 89.672V89.7657L199.958 102.042C199.964 102.261 199.891 102.448 199.735 102.604C199.583 102.766 199.396 102.839 199.172 102.839H65.7085C65.4897 102.839 65.3022 102.766 65.1512 102.604C64.9949 102.448 64.922 102.261 64.9272 102.042L64.896 89.7657V89.672L64.8907 87.6772V86.8074C64.8907 86.297 65.3439 85.8439 65.8595 85.8439H199.021C199.537 85.8439 199.995 86.297 199.995 86.8074Z" fill="#964B06"/>
<path d="M159.63 116.781L159.427 117.891L159.412 117.984L159.177 119.281L157.682 127.62H107.198L105.698 119.281L105.469 117.984L105.448 117.891L105.25 116.781H159.63Z" fill="#964B06"/>
<path d="M199.995 86.8074V87.6772L199.99 89.672V89.7657H64.896V89.672L64.8907 87.6772V86.8074C64.8907 86.297 65.3439 85.8439 65.8595 85.8439H199.021C199.537 85.8439 199.995 86.297 199.995 86.8074Z" fill="#703300"/>
<path d="M162.724 114.156L162.089 116.083V116.089C161.953 116.505 161.594 116.781 161.188 116.781H159.63L159.432 118.078H105.448L105.25 116.781H103.693C103.292 116.781 102.938 116.511 102.797 116.099L102.792 116.089L102.156 114.156H162.724Z" fill="#703300"/>
<mask id="mask9_6_16168" style="mask-type:luminance" maskUnits="userSpaceOnUse" x="54" y="80" width="157" height="8">
<path d="M54.125 80H210.755V88H54.125V80Z" fill="white"/>
</mask>
<g mask="url(#mask9_6_16168)">
<path d="M210.604 82.2708L208.844 87.1302C208.698 87.5313 208.411 87.7292 207.984 87.7292H56.8906C56.4635 87.7292 56.1771 87.5313 56.0312 87.1302L54.276 82.2708C54.2239 82.1302 54.2083 81.9896 54.2291 81.8385C54.2448 81.6927 54.3021 81.5573 54.3854 81.4375C54.4687 81.3125 54.5781 81.2187 54.7135 81.151C54.8437 81.0833 54.9844 81.0469 55.1354 81.0469H209.745C209.896 81.0469 210.036 81.0833 210.167 81.151C210.297 81.2187 210.406 81.3125 210.495 81.4375C210.578 81.5573 210.63 81.6927 210.651 81.8385C210.672 81.9896 210.656 82.1302 210.604 82.2708Z" fill="#E88934"/>
</g>
<path d="M163.552 111.636L162.724 114.151L162.089 116.083V116.089C161.953 116.505 161.594 116.781 161.188 116.781H103.693C103.292 116.781 102.938 116.505 102.797 116.094L102.792 116.083L102.156 114.156L101.328 111.636C101.099 110.943 101.563 110.219 102.229 110.219H162.656C163.318 110.219 163.781 110.948 163.552 111.636Z" fill="#E88934"/>
<mask id="mask10_6_16168" style="mask-type:luminance" maskUnits="userSpaceOnUse" x="146" y="125" width="12" height="40">
<path d="M146.349 125.333H157.016V164.333H146.349V125.333Z" fill="white"/>
</mask>
<g mask="url(#mask10_6_16168)">
<path d="M156.76 164.333H153.453L146.453 126.078H154.271L156.76 164.333Z" fill="#964B06"/>
</g>
<mask id="mask11_6_16168" style="mask-type:luminance" maskUnits="userSpaceOnUse" x="107" y="125" width="13" height="40">
<path d="M107.682 125.333H119.682V164.333H107.682V125.333Z" fill="white"/>
</mask>
<g mask="url(#mask11_6_16168)">
<path d="M108.115 164.333H111.422L118.427 126.078H110.609L108.115 164.333Z" fill="#964B06"/>
</g>
<path d="M160.422 77.4637H104.458C103.229 77.4637 102.318 76.3699 102.276 74.8647L101.906 60.9272C101.807 57.146 104.708 53.7501 107.922 53.7501H156.953C160.172 53.7501 163.073 57.146 162.974 60.9272L162.604 74.8647C162.563 76.3699 161.646 77.4637 160.422 77.4637Z" fill="#E88934"/>
<path d="M205.49 73.4115C205.49 73.7813 205.453 74.1459 205.38 74.5053C205.307 74.8699 205.203 75.2188 205.063 75.5626C204.922 75.9011 204.745 76.224 204.542 76.5313C204.339 76.8386 204.104 77.1199 203.844 77.3855C203.583 77.6459 203.297 77.8751 202.99 78.0834C202.688 78.2865 202.36 78.4584 202.021 78.599C201.682 78.7397 201.328 78.849 200.969 78.922C200.604 78.9949 200.24 79.0261 199.87 79.0261H172.188V67.7917H199.87C200.24 67.7917 200.604 67.8282 200.969 67.9011C201.328 67.974 201.682 68.0782 202.021 68.2188C202.36 68.3647 202.688 68.5365 202.99 68.7397C203.297 68.9428 203.583 69.1772 203.844 69.4376C204.104 69.698 204.339 69.9845 204.542 70.2917C204.745 70.599 204.917 70.922 205.063 71.2605C205.203 71.6042 205.307 71.9532 205.38 72.3126C205.453 72.6772 205.49 73.0417 205.49 73.4115Z" fill="#E51F1F"/>
<path d="M202.318 73.4115C202.318 73.8334 202.234 74.2397 202.073 74.6355C201.912 75.0261 201.682 75.3699 201.38 75.672C201.083 75.9688 200.74 76.2032 200.344 76.3647C199.953 76.5261 199.547 76.6042 199.125 76.6042H172.188V70.2136H199.125C199.547 70.2136 199.953 70.297 200.344 70.4584C200.734 70.6199 201.083 70.849 201.38 71.1511C201.682 71.4532 201.912 71.797 202.073 72.1876C202.234 72.5782 202.318 72.9845 202.318 73.4115Z" fill="#DBDBDB"/>
<path d="M173.271 71.7501L174.021 71.7293L174.771 71.7189L176.271 71.6876C177.271 71.672 178.271 71.6616 179.271 71.6512C180.276 71.6407 181.276 71.6407 182.276 71.6303L185.276 71.6251L188.276 71.6303C189.276 71.6355 190.276 71.6407 191.276 71.6512C192.276 71.6668 193.276 71.672 194.276 71.6876L195.781 71.7189L196.531 71.7293L197.281 71.7501L196.531 71.771L195.781 71.7814L194.281 71.8074C193.281 71.823 192.281 71.8335 191.281 71.8439C190.276 71.8543 189.276 71.8595 188.276 71.8647L185.276 71.8751L182.276 71.8647C181.276 71.8595 180.276 71.8543 179.276 71.8439C178.276 71.8335 177.276 71.823 176.276 71.8074L174.771 71.7814L173.271 71.7501Z" fill="black"/>
<path d="M173.271 73.4115L174.089 73.3907L174.906 73.3802L176.542 73.349C177.635 73.3334 178.724 73.323 179.818 73.3125C180.911 73.3021 182 73.2969 183.094 73.2917L186.37 73.2865L189.646 73.2917C190.734 73.2969 191.828 73.3021 192.922 73.3125C194.01 73.323 195.104 73.3334 196.193 73.349L197.828 73.375L198.646 73.3907L199.464 73.4115L198.646 73.4323L197.828 73.4427L196.193 73.474C195.104 73.4896 194.016 73.5 192.922 73.5105C191.828 73.5209 190.734 73.5209 189.646 73.5313L186.37 73.5365L183.094 73.5313C182 73.5209 180.911 73.5209 179.818 73.5105C178.724 73.4948 177.635 73.4844 176.542 73.474L173.271 73.4115Z" fill="black"/>
<path d="M173.271 75.073L176.271 75.0105C177.271 75.0001 178.276 74.9845 179.276 74.974C180.276 74.9636 181.276 74.9636 182.276 74.9532L185.276 74.948L188.276 74.9532C189.276 74.9636 190.276 74.9636 191.281 74.974C192.281 74.9897 193.281 75.0001 194.281 75.0105L197.281 75.073L196.531 75.0938L195.781 75.1095L194.281 75.1355C193.281 75.1511 192.281 75.1615 191.281 75.172C190.276 75.1824 189.276 75.1876 188.276 75.1928L185.276 75.198L182.276 75.1928C181.276 75.1876 180.276 75.1824 179.276 75.172C178.271 75.1615 177.271 75.1511 176.271 75.1355L174.771 75.1095L174.021 75.0938L173.271 75.073Z" fill="black"/>
<path d="M172.188 60.6875C172.188 61.0573 172.219 61.4219 172.292 61.7813C172.365 62.1459 172.469 62.4948 172.609 62.8386C172.755 63.1771 172.927 63.5 173.13 63.8073C173.333 64.1146 173.568 64.4011 173.828 64.6615C174.089 64.9219 174.375 65.1563 174.682 65.3594C174.984 65.5625 175.313 65.7396 175.651 65.8802C175.99 66.0209 176.344 66.125 176.703 66.198C177.068 66.2709 177.432 66.3073 177.802 66.3073H205.49V55.0677H177.802C177.432 55.0677 177.068 55.1042 176.703 55.1771C176.344 55.25 175.995 55.3542 175.651 55.4948C175.313 55.6355 174.99 55.8125 174.682 56.0157C174.375 56.2188 174.089 56.4532 173.828 56.7136C173.568 56.974 173.339 57.2605 173.13 57.5677C172.927 57.8698 172.755 58.198 172.615 58.5365C172.474 58.875 172.365 59.2292 172.292 59.5886C172.219 59.9532 172.188 60.3177 172.188 60.6875Z" fill="#0EA59D"/>
<path d="M175.354 60.6875C175.354 61.1094 175.438 61.5157 175.599 61.9115C175.76 62.3021 175.99 62.6459 176.292 62.948C176.589 63.2448 176.938 63.474 177.328 63.6407C177.719 63.8021 178.125 63.8802 178.552 63.8802H205.49V57.4896H178.552C178.125 57.4896 177.719 57.573 177.328 57.7344C176.938 57.8959 176.589 58.125 176.292 58.4271C175.99 58.724 175.76 59.073 175.599 59.4636C175.438 59.8542 175.354 60.2605 175.354 60.6875Z" fill="#DBDBDB"/>
<path d="M204.401 59.0209L203.651 59.0417L202.901 59.0573L201.401 59.0834C200.401 59.099 199.401 59.1094 198.401 59.1198C197.396 59.1302 196.396 59.1355 195.396 59.1407L192.396 59.1511L189.396 59.1407C188.396 59.1355 187.396 59.1355 186.396 59.1198C185.396 59.1094 184.396 59.099 183.396 59.0834L181.896 59.0573L181.141 59.0417L180.391 59.0209L181.141 59.0052L181.896 58.9896L183.396 58.9636C184.396 58.948 185.396 58.9323 186.396 58.9271C187.396 58.9115 188.396 58.9115 189.396 58.9063L192.396 58.8959L195.396 58.9063C196.396 58.9115 197.396 58.9115 198.401 58.9271C199.401 58.9375 200.401 58.948 201.401 58.9636L202.901 58.9896L204.401 59.0209Z" fill="black"/>
<path d="M204.401 60.6876L202.766 60.7189L201.13 60.7449C200.042 60.7605 198.948 60.7762 197.854 60.7814C196.766 60.797 195.672 60.797 194.578 60.8074L191.302 60.8126L188.026 60.8074C186.938 60.797 185.844 60.797 184.755 60.7866C183.661 60.771 182.568 60.7605 181.479 60.7501L178.208 60.6876L179.026 60.6668L179.844 60.6512L181.479 60.6251C182.568 60.6095 183.661 60.5991 184.755 60.5887C185.844 60.5782 186.938 60.573 188.026 60.5678L191.302 60.5626L194.578 60.5678C195.672 60.573 196.766 60.5782 197.854 60.5887C198.948 60.5991 200.036 60.6095 201.13 60.6251L202.766 60.6512L203.583 60.6668L204.401 60.6876Z" fill="black"/>
<path d="M204.401 62.349L203.651 62.3698L202.901 62.3802L201.401 62.4115C200.401 62.4271 199.401 62.4375 198.401 62.448C197.396 62.4584 196.396 62.4584 195.396 62.4688L192.396 62.474L189.396 62.4688C188.396 62.4636 187.396 62.4584 186.396 62.448C185.396 62.4375 184.396 62.4271 183.396 62.4115L181.896 62.3802L181.141 62.3698L180.391 62.349L181.141 62.3282L181.896 62.3177L183.396 62.2865C184.396 62.2709 185.396 62.2605 186.396 62.25C187.396 62.2396 188.396 62.2344 189.396 62.2292L192.396 62.224L195.396 62.2292C196.396 62.2344 197.396 62.2396 198.401 62.25C199.401 62.2657 200.401 62.2709 201.401 62.2865L202.901 62.3177L203.651 62.3282L204.401 62.349Z" fill="black"/>
<path d="M172.188 50.9949H204.495C204.615 50.9949 204.714 51.0417 204.802 51.1251C204.886 51.2084 204.927 51.3126 204.927 51.4324V53.1772C204.927 53.297 204.886 53.4011 204.802 53.4845C204.714 53.5678 204.615 53.6095 204.495 53.6095H172.188V50.9949Z" fill="#EFCF4B"/>
<mask id="mask12_6_16168" style="mask-type:luminance" maskUnits="userSpaceOnUse" x="73" y="41" width="15" height="33">
<path d="M73.0156 41.1406H87.6823V73.3333H73.0156V41.1406Z" fill="white"/>
</mask>
<g mask="url(#mask12_6_16168)">
<path d="M78.8229 72.625L73.7969 42.4948L81.8906 41.1459L86.9167 71.2761L78.8229 72.625Z" fill="#495256"/>
</g>
<path d="M76.1042 42.1095L76.6042 42.0261L81.6251 72.1563L81.1303 72.2397L76.1042 42.1095Z" fill="white"/>
<path d="M77.5105 56.7345C77.4064 56.7397 77.3491 56.6928 77.3386 56.5886C77.3334 56.4845 77.3803 56.4272 77.4845 56.4168L78.5522 56.2397C78.6616 56.2188 78.7241 56.2605 78.7397 56.3699C78.7553 56.4741 78.7136 56.5366 78.6043 56.5522L77.5366 56.7293L77.5105 56.7345Z" fill="white"/>
<path d="M79.5626 71.3387C79.4584 71.3491 79.4011 71.3022 79.3907 71.198C79.3803 71.0887 79.4324 71.0314 79.5365 71.0262L80.9845 70.7866C81.0886 70.7657 81.1511 70.8074 81.1668 70.9116C81.1876 71.021 81.1407 71.0782 81.0313 71.0939L79.5886 71.3387H79.5626Z" fill="white"/>
<path d="M79.7188 69.9637C79.6095 69.9741 79.5574 69.9272 79.547 69.823C79.5365 69.7189 79.5886 69.6616 79.6928 69.6512L80.7605 69.4741C80.8647 69.4532 80.9272 69.4949 80.948 69.5991C80.9636 69.7085 80.9168 69.7657 80.8126 69.7814L79.7449 69.9637C79.7345 69.9637 79.724 69.9637 79.7188 69.9637Z" fill="white"/>
<path d="M79.5001 68.6512C79.3907 68.6616 79.3386 68.6147 79.3282 68.5105C79.3178 68.4012 79.3699 68.3491 79.474 68.3387L80.5418 68.1616C80.6459 68.1407 80.7084 68.1824 80.7293 68.2866C80.7449 68.396 80.698 68.4532 80.5938 68.4689L79.5261 68.6512C79.5157 68.6512 79.5053 68.6512 79.5001 68.6512Z" fill="white"/>
<path d="M78.9063 67.4012C78.8022 67.4116 78.7449 67.3647 78.7345 67.2605C78.724 67.1512 78.7761 67.0991 78.8803 67.0887L80.323 66.8491C80.4324 66.8282 80.4949 66.8699 80.5105 66.9741C80.5313 67.0835 80.4845 67.1407 80.3751 67.1564L78.9324 67.396C78.922 67.4012 78.9115 67.4012 78.9063 67.4012Z" fill="white"/>
<path d="M79.0626 66.0261C78.9584 66.0365 78.9011 65.9897 78.8907 65.8803C78.8803 65.7761 78.9324 65.724 79.0365 65.7136L80.1043 65.5313C80.2084 65.5105 80.2709 65.5574 80.2918 65.6615C80.3074 65.7709 80.2605 65.8282 80.1563 65.8438L79.0886 66.0209L79.0626 66.0261Z" fill="white"/>
<path d="M78.8438 64.7136C78.7344 64.724 78.6824 64.6772 78.6719 64.5678C78.6615 64.4636 78.7084 64.4063 78.8178 64.4011L79.8855 64.2188C79.9897 64.198 80.0522 64.2449 80.073 64.349C80.0886 64.4584 80.0417 64.5157 79.9376 64.5313L78.8699 64.7084L78.8438 64.7136Z" fill="white"/>
<path d="M78.2501 63.4637C78.1407 63.4741 78.0886 63.4272 78.0782 63.323C78.0678 63.2137 78.1147 63.1616 78.224 63.1512L79.6667 62.9116C79.7761 62.8907 79.8386 62.9324 79.8542 63.0366C79.8699 63.146 79.8282 63.2032 79.7188 63.2189L78.2761 63.4585C78.2657 63.4637 78.2553 63.4637 78.2501 63.4637Z" fill="white"/>
<path d="M78.4063 62.0887C78.2969 62.0991 78.2397 62.0522 78.2344 61.948C78.224 61.8387 78.2709 61.7866 78.3803 61.7762L79.448 61.5991C79.5522 61.5782 79.6147 61.6199 79.6303 61.7241C79.6511 61.8335 79.6042 61.8907 79.5001 61.9064L78.4272 62.0835L78.4063 62.0887Z" fill="white"/>
<path d="M78.1824 60.7761C78.0782 60.7865 78.0209 60.7397 78.0157 60.6303C78.0053 60.5261 78.0522 60.4688 78.1615 60.4636L79.2292 60.2813C79.3334 60.2605 79.3959 60.3074 79.4115 60.4115C79.4324 60.5209 79.3855 60.5782 79.2813 60.5938L78.2084 60.7709L78.1824 60.7761Z" fill="white"/>
<path d="M77.5886 59.5262C77.4845 59.5366 77.4272 59.4897 77.422 59.3855C77.4115 59.2762 77.4584 59.2189 77.5626 59.2137L79.0105 58.9741C79.1147 58.9532 79.1772 58.9949 79.198 59.0991C79.2136 59.2085 79.172 59.2657 79.0626 59.2814L77.6147 59.521C77.6095 59.5262 77.599 59.5262 77.5886 59.5262Z" fill="white"/>
<path d="M77.7449 58.1511C77.6407 58.1615 77.5834 58.1147 77.5782 58.0053C77.5678 57.9011 77.6147 57.8438 77.7188 57.8386L78.7917 57.6563C78.8959 57.6355 78.9584 57.6824 78.974 57.7865C78.9949 57.8959 78.948 57.9532 78.8438 57.9688L77.7709 58.1459L77.7449 58.1511Z" fill="white"/>
<path d="M76.9324 55.5886C76.8282 55.599 76.7709 55.5521 76.7657 55.4427C76.7553 55.3386 76.8022 55.2813 76.9063 55.2761L78.3542 55.0365C78.4636 55.0104 78.5209 55.0573 78.5417 55.1615C78.5574 55.2709 78.5157 55.3282 78.4063 55.3438L76.9584 55.5834C76.9532 55.5886 76.9428 55.5886 76.9324 55.5886Z" fill="white"/>
<path d="M77.0886 54.2136C76.9845 54.224 76.9272 54.172 76.922 54.0678C76.9115 53.9636 76.9584 53.9063 77.0626 53.9011L78.1355 53.7188C78.2397 53.698 78.3022 53.7449 78.3178 53.849C78.3386 53.9584 78.2917 54.0157 78.1876 54.0313L77.1147 54.2084L77.0886 54.2136Z" fill="white"/>
<path d="M76.8699 52.9012C76.7657 52.9116 76.7084 52.8647 76.7032 52.7605C76.6928 52.6564 76.7397 52.5991 76.8438 52.5887L77.9167 52.4116C78.0209 52.3907 78.0834 52.4324 78.099 52.5366C78.1199 52.646 78.073 52.7085 77.9688 52.7189L76.8959 52.9012H76.8699Z" fill="white"/>
<path d="M76.2761 51.6511C76.172 51.6615 76.1147 51.6147 76.1095 51.5053C76.099 51.4011 76.1459 51.3438 76.2501 51.3386L77.698 51.0938C77.8022 51.073 77.8647 51.1199 77.8855 51.224C77.9011 51.3334 77.8595 51.3907 77.7501 51.4063L76.3022 51.6459C76.297 51.6511 76.2865 51.6511 76.2761 51.6511Z" fill="white"/>
<path d="M76.4324 50.2761C76.3282 50.2865 76.2709 50.2345 76.2657 50.1303C76.2553 50.0261 76.3022 49.9688 76.4063 49.9636L77.4792 49.7813C77.5834 49.7605 77.6459 49.8074 77.6615 49.9115C77.6824 50.0157 77.6355 50.0782 77.5313 50.0938L76.4584 50.2709L76.4324 50.2761Z" fill="white"/>
<path d="M76.2136 48.9636C76.1095 48.974 76.0522 48.922 76.047 48.8178C76.0365 48.7136 76.0834 48.6563 76.1876 48.6511L77.2605 48.4688C77.3647 48.448 77.4272 48.4949 77.4428 48.599C77.4636 48.7032 77.4167 48.7657 77.3074 48.7813L76.2397 48.9584L76.2136 48.9636Z" fill="white"/>
<path d="M75.6199 47.7136C75.5157 47.724 75.4584 47.672 75.4532 47.5678C75.4428 47.4636 75.4897 47.4063 75.5938 47.4011L77.0417 47.1563C77.1459 47.1355 77.2084 47.1824 77.2292 47.2865C77.2449 47.3907 77.2032 47.4532 77.0938 47.4688L75.6459 47.7084C75.6407 47.7136 75.6303 47.7136 75.6199 47.7136Z" fill="white"/>
<path d="M75.7761 46.3386C75.672 46.349 75.6147 46.297 75.6095 46.1928C75.599 46.0886 75.6459 46.0313 75.7501 46.0261L76.823 45.8438C76.9272 45.823 76.9897 45.8699 77.0053 45.974C77.0261 46.0834 76.9792 46.1407 76.8699 46.1563L75.8022 46.3334L75.7761 46.3386Z" fill="white"/>
<path d="M75.5574 45.0261C75.4532 45.0365 75.3959 44.9845 75.3855 44.8803C75.3803 44.7761 75.4272 44.7188 75.5314 44.7136L76.6043 44.5313C76.7084 44.5105 76.7709 44.5574 76.7866 44.6615C76.8074 44.7709 76.7605 44.8282 76.6511 44.8438L75.5834 45.0209L75.5574 45.0261Z" fill="white"/>
<path d="M74.9636 43.7761C74.8595 43.7865 74.8022 43.7344 74.797 43.6303C74.7865 43.5261 74.8334 43.4688 74.9376 43.4636L76.3855 43.2188C76.4897 43.198 76.5522 43.2396 76.573 43.349C76.5886 43.4532 76.5417 43.5157 76.4376 43.5313L74.9897 43.7709C74.9792 43.7709 74.974 43.7761 74.9636 43.7761Z" fill="white"/>
<path d="M81.3751 44.5626C81.3751 44.7865 81.3335 45.0053 81.2449 45.2136C81.1616 45.422 81.0366 45.6042 80.8803 45.7657C80.7189 45.9272 80.5366 46.047 80.323 46.1355C80.1147 46.224 79.9012 46.2657 79.672 46.2657C79.448 46.2657 79.2293 46.224 79.021 46.1355C78.8126 46.047 78.6303 45.9272 78.4689 45.7657C78.3074 45.6042 78.1876 45.422 78.0991 45.2136C78.0105 45.0053 77.9689 44.7865 77.9689 44.5626C77.9689 44.3334 78.0105 44.1199 78.0991 43.9063C78.1876 43.698 78.3074 43.5157 78.4689 43.3542C78.6303 43.198 78.8126 43.073 79.021 42.9845C79.2293 42.9011 79.448 42.8542 79.672 42.8542C79.9012 42.8542 80.1147 42.9011 80.323 42.9845C80.5366 43.073 80.7189 43.198 80.8803 43.3542C81.0366 43.5157 81.1616 43.698 81.2449 43.9063C81.3335 44.1199 81.3751 44.3334 81.3751 44.5626Z" fill="white"/>
<path d="M86.2032 50.3907L88.8387 50.198L90.146 68.1199L87.5105 68.3126L86.2032 50.3907Z" fill="#EAA047"/>
<path d="M88.849 50.198L86.198 50.3907L86.8803 47.6511L87.2292 46.2605L87.7761 47.5834L88.849 50.198Z" fill="#DBDBDB"/>
<path d="M87.7761 47.5834L86.8802 47.6511L87.2292 46.2605L87.7761 47.5834Z" fill="#EAA047"/>
<path d="M83.0573 49.7345L85.6927 49.8907L84.6302 67.8282L81.9896 67.672L83.0573 49.7345Z" fill="#1798E0"/>
<path d="M85.698 49.9012L83.0417 49.7449L84.0834 47.1147L84.6095 45.7814L84.9792 47.172L85.698 49.9012Z" fill="#DBDBDB"/>
<path d="M84.9792 47.172L84.0834 47.1147L84.6094 45.7814L84.9792 47.172Z" fill="#1798E0"/>
<path d="M90.1407 50.3021L92.7605 50.6459L90.3907 68.4584L87.7709 68.1146L90.1407 50.3021Z" fill="#0EA59D"/>
<path d="M88.7917 79.8282H79.3959C79.1355 79.8282 78.9167 79.6667 78.8855 79.4532L76.2501 60.9688C76.2136 60.7188 76.448 60.4949 76.7553 60.4949H91.4272C91.7345 60.4949 91.974 60.7136 91.9376 60.9688L89.3022 79.4584C89.2709 79.6667 89.0522 79.8282 88.7917 79.8282Z" fill="#E51F1F"/>
<path d="M75.4168 58.797H92.771C92.8907 58.797 93.0001 58.8439 93.0887 58.9272C93.172 59.0157 93.2189 59.1251 93.2189 59.2449V61.3491C93.2189 61.4689 93.172 61.5782 93.0887 61.6668C93.0001 61.7501 92.8907 61.797 92.771 61.797H75.4168C75.2918 61.797 75.1876 61.7501 75.0991 61.6668C75.0157 61.5782 74.9689 61.4689 74.9689 61.3491V59.2449C74.9689 59.1251 75.0157 59.0157 75.0991 58.9272C75.1876 58.8439 75.2918 58.797 75.4168 58.797Z" fill="#EFCF4B"/>
<path d="M92.7709 50.6512L90.1302 50.3022L91.3594 47.7553L91.9844 46.4689L92.25 47.8751L92.7709 50.6512Z" fill="#DBDBDB"/>
<path d="M92.2501 47.8751L91.3595 47.7553L91.9845 46.4689L92.2501 47.8751Z" fill="#0EA59D"/>
</g>
</g>
</svg>
