<svg width="73" height="73" viewBox="0 0 73 73" fill="none" xmlns="http://www.w3.org/2000/svg">
<mask id="mask0_16_134" style="mask-type:luminance" maskUnits="userSpaceOnUse" x="0" y="0" width="73" height="73">
<path d="M0 0H73V73H0V0Z" fill="white"/>
</mask>
<g mask="url(#mask0_16_134)">
<mask id="mask1_16_134" style="mask-type:luminance" maskUnits="userSpaceOnUse" x="0" y="0" width="73" height="73">
<path d="M36.5 0C16.3428 0 0 16.344 0 36.5026C0 56.6612 16.3428 73 36.5 73C56.6572 73 73 56.6612 73 36.5026C73 16.344 56.6572 0 36.5 0Z" fill="white"/>
</mask>
<g mask="url(#mask1_16_134)">
<mask id="mask2_16_134" style="mask-type:luminance" maskUnits="userSpaceOnUse" x="-1" y="-1" width="76" height="76">
<path d="M74.2158 -0.480103H-0.5896V74.3307H74.2158V-0.480103Z" fill="white"/>
</mask>
<g mask="url(#mask2_16_134)">
<mask id="mask3_16_134" style="mask-type:luminance" maskUnits="userSpaceOnUse" x="0" y="0" width="73" height="73">
<path d="M3.05176e-05 0H73V73H3.05176e-05V0Z" fill="white"/>
</mask>
<g mask="url(#mask3_16_134)">
<mask id="mask4_16_134" style="mask-type:luminance" maskUnits="userSpaceOnUse" x="0" y="0" width="73" height="73">
<path d="M36.5 0C16.3428 0 3.05176e-05 16.344 3.05176e-05 36.5026C3.05176e-05 56.6612 16.3428 73 36.5 73C56.6572 73 73 56.6612 73 36.5026C73 16.344 56.6572 0 36.5 0Z" fill="white"/>
</mask>
<g mask="url(#mask4_16_134)">
<path d="M3.05176e-05 0H73V73H3.05176e-05V0Z" fill="#FFCD59"/>
</g>
</g>
</g>
</g>
</g>
<mask id="mask5_16_134" style="mask-type:luminance" maskUnits="userSpaceOnUse" x="23" y="8" width="29" height="57">
<path d="M51.5071 8.87134H23.455V64.9794H51.5071V8.87134Z" fill="white"/>
</mask>
<g mask="url(#mask5_16_134)">
<path d="M26.0515 50.0272C26.0515 49.1244 26.2707 48.1068 26.7194 46.9796C27.1786 45.842 27.6065 44.9288 28.0135 44.2452C28.431 43.5512 28.671 43.2015 28.744 43.2015C30.6069 44.3183 32.5636 44.8714 34.6091 44.8714C35.8875 44.8714 36.9154 44.6209 37.6981 44.12C38.4913 43.6086 38.8879 42.8884 38.8879 41.97C38.8879 41.0516 38.5226 40.4671 37.8025 40.2166C37.0929 39.9557 35.9501 39.7783 34.3795 39.6948H32.6471C32.2558 39.6948 31.8957 39.2251 31.5618 38.2754C31.2278 37.3308 31.0608 36.4072 31.0608 35.4992C31.0608 33.9963 31.5044 33.2344 32.3966 33.2031L33.7951 33.1405C34.656 33.1405 35.5588 32.9004 36.5084 32.4099C37.4529 31.9089 37.9277 31.2775 37.9277 30.5104C37.9277 29.1641 36.7224 28.4857 34.3169 28.4857C32.5219 28.4857 30.7947 28.8353 29.1406 29.5294C27.69 26.941 26.9699 24.9163 26.9699 23.4552C26.9699 21.994 27.9822 20.8982 30.0172 20.1571C32.047 19.4213 34.5986 19.0508 37.6773 19.0508C40.7663 19.0508 43.1718 19.6927 44.899 20.9712C46.6366 22.2549 47.508 23.9979 47.508 26.2105C47.508 30.0929 45.8382 33.0779 42.4987 35.1652C46.5322 36.809 48.5516 39.5852 48.5516 43.4938C48.5516 46.5309 47.4767 48.9835 45.3373 50.8621C43.1927 52.7407 40.1193 53.68 36.1119 53.68C33.5759 53.68 31.2696 53.3148 29.1824 52.5946C27.0951 51.8745 26.0515 51.0187 26.0515 50.0272Z" fill="#6A4022"/>
</g>
</svg>
