<svg width="74" height="73" viewBox="0 0 74 73" fill="none" xmlns="http://www.w3.org/2000/svg">
<mask id="mask0_16_133" style="mask-type:luminance" maskUnits="userSpaceOnUse" x="0" y="0" width="74" height="73">
<path d="M0 0H74V73H0V0Z" fill="white"/>
</mask>
<g mask="url(#mask0_16_133)">
<mask id="mask1_16_133" style="mask-type:luminance" maskUnits="userSpaceOnUse" x="0" y="0" width="74" height="73">
<path d="M36.9974 0C16.5626 0 0 16.3428 0 36.5C0 56.6572 16.5626 73 36.9974 73C57.4321 73 74 56.6572 74 36.5C74 16.3428 57.4321 0 36.9974 0Z" fill="white"/>
</mask>
<g mask="url(#mask1_16_133)">
<mask id="mask2_16_133" style="mask-type:luminance" maskUnits="userSpaceOnUse" x="-2" y="-1" width="77" height="75">
<path d="M74.5131 -0.3078H-1.32245V73.1618H74.5131V-0.3078Z" fill="white"/>
</mask>
<g mask="url(#mask2_16_133)">
<mask id="mask3_16_133" style="mask-type:luminance" maskUnits="userSpaceOnUse" x="0" y="0" width="74" height="73">
<path d="M1.52588e-05 0H74V73H1.52588e-05V0Z" fill="white"/>
</mask>
<g mask="url(#mask3_16_133)">
<mask id="mask4_16_133" style="mask-type:luminance" maskUnits="userSpaceOnUse" x="0" y="0" width="74" height="73">
<path d="M36.9974 0C16.5626 0 1.52588e-05 16.3428 1.52588e-05 36.5C1.52588e-05 56.6572 16.5626 73 36.9974 73C57.4321 73 74 56.6572 74 36.5C74 16.3428 57.4321 0 36.9974 0Z" fill="white"/>
</mask>
<g mask="url(#mask4_16_133)">
<path d="M1.52588e-05 0H74V73H1.52588e-05V0Z" fill="#FFCD59"/>
</g>
</g>
</g>
</g>
</g>
<mask id="mask5_16_133" style="mask-type:luminance" maskUnits="userSpaceOnUse" x="27" y="9" width="24" height="57">
<path d="M50.1375 9.04291H27.116V65.147H50.1375V9.04291Z" fill="white"/>
</mask>
<g mask="url(#mask5_16_133)">
<path d="M45.758 52.3828C45.758 52.9255 44.1075 53.1968 40.8067 53.1968C37.5164 53.1968 35.8765 52.9255 35.8765 52.3828V28.6722L30.6078 28.7139C29.6344 28.7139 29.1478 27.1798 29.1478 24.1012C29.1478 23.0472 29.2536 22.0244 29.4652 21.033C29.6768 20.0311 30.0365 19.5302 30.5443 19.5302H43.9171C44.4672 19.5302 44.9116 19.6554 45.2501 19.9059C45.5887 20.1459 45.758 20.4381 45.758 20.7825V52.3828Z" fill="#6A4022"/>
</g>
</svg>
