<svg width="73" height="73" viewBox="0 0 73 73" fill="none" xmlns="http://www.w3.org/2000/svg">
<mask id="mask0_16_135" style="mask-type:luminance" maskUnits="userSpaceOnUse" x="0" y="0" width="73" height="73">
<path d="M0 0H73V73H0V0Z" fill="white"/>
</mask>
<g mask="url(#mask0_16_135)">
<mask id="mask1_16_135" style="mask-type:luminance" maskUnits="userSpaceOnUse" x="0" y="0" width="73" height="73">
<path d="M36.5 0C16.3428 0 0 16.3428 0 36.5C0 56.6572 16.3428 73 36.5 73C56.6572 73 73 56.6572 73 36.5C73 16.3428 56.6572 0 36.5 0Z" fill="white"/>
</mask>
<g mask="url(#mask1_16_135)">
<mask id="mask2_16_135" style="mask-type:luminance" maskUnits="userSpaceOnUse" x="-1" y="-1" width="76" height="75">
<path d="M74.2158 -0.3078H-0.5896V73.1618H74.2158V-0.3078Z" fill="white"/>
</mask>
<g mask="url(#mask2_16_135)">
<mask id="mask3_16_135" style="mask-type:luminance" maskUnits="userSpaceOnUse" x="0" y="0" width="73" height="73">
<path d="M6.10352e-05 0H73.0001V73H6.10352e-05V0Z" fill="white"/>
</mask>
<g mask="url(#mask3_16_135)">
<mask id="mask4_16_135" style="mask-type:luminance" maskUnits="userSpaceOnUse" x="0" y="0" width="73" height="73">
<path d="M36.5001 0C16.3429 0 6.10352e-05 16.3428 6.10352e-05 36.5C6.10352e-05 56.6572 16.3429 73 36.5001 73C56.6572 73 73.0001 56.6572 73.0001 36.5C73.0001 16.3428 56.6572 0 36.5001 0Z" fill="white"/>
</mask>
<g mask="url(#mask4_16_135)">
<path d="M6.10352e-05 0H73.0001V73H6.10352e-05V0Z" fill="#FFCD59"/>
</g>
</g>
</g>
</g>
</g>
<mask id="mask5_16_135" style="mask-type:luminance" maskUnits="userSpaceOnUse" x="22" y="9" width="33" height="57">
<path d="M54.1785 9.04291H22.119V65.147H54.1785V9.04291Z" fill="white"/>
</mask>
<g mask="url(#mask5_16_135)">
<path d="M49.7099 38.816C50.0282 38.816 50.19 40.0266 50.19 42.4478C50.19 44.8689 50.0282 46.0795 49.7099 46.0795L46.5373 46.1212V52.195C46.5373 52.5446 45.8747 52.8003 44.5545 52.9673C43.2448 53.1238 42.1125 53.1969 41.1524 53.1969L39.1904 53.0925C37.5467 52.9673 36.7275 52.6855 36.7275 52.2368V46.2674H27.1681C26.3332 45.4325 25.5714 44.3576 24.893 43.0322C24.2251 41.6964 23.8912 40.7363 23.8912 40.1518C23.8912 39.557 23.9851 39.0769 24.1834 38.7117L34.7029 20.0729C34.8386 19.812 35.83 19.6137 37.6667 19.4885C39.5139 19.3633 41.4498 19.3007 43.4692 19.3007C45.4833 19.3007 46.4956 19.3789 46.4956 19.5303L46.5373 38.816H49.7099ZM38.1259 38.8578V28.8183L32.4905 38.8578H38.1259Z" fill="#6A4022"/>
</g>
</svg>
