<svg width="73" height="73" viewBox="0 0 73 73" fill="none" xmlns="http://www.w3.org/2000/svg">
<mask id="mask0_16_132" style="mask-type:luminance" maskUnits="userSpaceOnUse" x="0" y="0" width="73" height="73">
<path d="M0 0H73V73H0V0Z" fill="white"/>
</mask>
<g mask="url(#mask0_16_132)">
<mask id="mask1_16_132" style="mask-type:luminance" maskUnits="userSpaceOnUse" x="0" y="0" width="73" height="73">
<path d="M36.4974 0C16.3388 0 0 16.344 0 36.5026C0 56.6612 16.3388 73 36.4974 73C56.656 73 73 56.6612 73 36.5026C73 16.344 56.656 0 36.4974 0Z" fill="white"/>
</mask>
<g mask="url(#mask1_16_132)">
<mask id="mask2_16_132" style="mask-type:luminance" maskUnits="userSpaceOnUse" x="-2" y="-1" width="76" height="76">
<path d="M73.5062 -0.480103H-1.30457V74.3307H73.5062V-0.480103Z" fill="white"/>
</mask>
<g mask="url(#mask2_16_132)">
<mask id="mask3_16_132" style="mask-type:luminance" maskUnits="userSpaceOnUse" x="0" y="0" width="73" height="73">
<path d="M0 0H73V73H0V0Z" fill="white"/>
</mask>
<g mask="url(#mask3_16_132)">
<mask id="mask4_16_132" style="mask-type:luminance" maskUnits="userSpaceOnUse" x="0" y="0" width="73" height="73">
<path d="M36.4974 0C16.3388 0 0 16.344 0 36.5026C0 56.6612 16.3388 73 36.4974 73C56.656 73 73 56.6612 73 36.5026C73 16.344 56.656 0 36.4974 0Z" fill="white"/>
</mask>
<g mask="url(#mask4_16_132)">
<path d="M0 0H73V73H0V0Z" fill="#FFCD59"/>
</g>
</g>
</g>
</g>
</g>
<mask id="mask5_16_132" style="mask-type:luminance" maskUnits="userSpaceOnUse" x="24" y="8" width="27" height="57">
<path d="M50.7958 8.87134H24.0776V64.9794H50.7958V8.87134Z" fill="white"/>
</mask>
<g mask="url(#mask5_16_132)">
<path d="M45.9954 53.2H30.0272C28.9 53.2 28.112 52.1093 27.6684 49.9228C27.4441 48.7435 27.3345 47.8511 27.3345 47.251C27.3345 46.6404 27.4284 46.2386 27.6267 46.0403C34.8072 38.625 38.3974 33.5893 38.3974 30.9279C38.3974 30.0408 38.1574 29.3728 37.6877 28.924C37.2285 28.4648 36.4875 28.2352 35.4752 28.2352C34.4732 28.2352 33.4609 28.4335 32.4485 28.8197C31.4309 29.211 30.6377 29.6285 30.0689 30.0721C28.8165 28.5587 27.9502 26.9724 27.4806 25.3129C27.3136 24.7702 27.2301 24.2692 27.2301 23.81C27.2301 23.3404 27.3136 22.8916 27.4806 22.4741C27.7311 21.6392 28.9209 20.8564 31.05 20.1154C33.1791 19.3796 35.4334 19.0091 37.813 19.0091C44.9935 19.0091 48.5837 22.1975 48.5837 28.5692C48.5837 31.3975 47.6236 34.2624 45.7032 37.1691C43.7828 40.0653 41.5337 42.5701 38.961 44.6836L48.6881 44.3078C48.8394 46.009 48.9177 47.4806 48.9177 48.733C48.9177 49.9854 48.6568 51.0448 48.1454 51.9058C47.6288 52.7721 46.9139 53.2 45.9954 53.2Z" fill="#6A4022"/>
</g>
</svg>
