<svg width="288" height="78" viewBox="0 0 288 78" fill="none" xmlns="http://www.w3.org/2000/svg">
<path d="M2.34459 19.3404C2.14852 19.4344 1.96278 19.5535 1.7925 19.6976C1.52936 19.9294 1.31265 20.2114 1.14238 20.5435C0.972112 20.8756 0.858597 21.239 0.80184 21.6213C0.750244 22.0098 0.760562 22.3983 0.832799 22.7805C0.905036 23.1627 1.03919 23.5136 1.22494 23.8332C3.04115 26.9223 4.92961 29.8549 6.84386 32.5555C7.05025 32.8626 7.29791 33.1007 7.59202 33.2824C7.88096 33.4641 8.18538 33.5706 8.51045 33.6019C8.83551 33.6333 9.15025 33.5894 9.45983 33.4704C9.76941 33.345 10.048 33.1571 10.2957 32.9001C10.5434 32.6432 10.7394 32.3362 10.8839 31.9853C11.0284 31.6281 11.1161 31.2584 11.1367 30.8637C11.1625 30.4689 11.1213 30.0867 11.0181 29.7107C10.9149 29.3348 10.7549 28.9964 10.5382 28.7019C8.72715 26.1328 6.92642 23.3382 5.19791 20.3931C4.87285 19.8417 4.44976 19.472 3.91831 19.2778C3.38686 19.0835 2.86056 19.1023 2.34459 19.3404ZM13.9591 35.6697C13.6082 35.8327 13.309 36.0833 13.051 36.4154C12.8343 36.7036 12.6692 37.0295 12.5557 37.3929C12.4421 37.7626 12.3905 38.1386 12.4009 38.5333C12.4112 38.9218 12.4834 39.2978 12.6176 39.6549C12.7466 40.0058 12.9323 40.3191 13.1645 40.5886C15.409 43.1514 17.7773 45.52 20.2746 47.7005C20.5377 47.9136 20.8267 48.064 21.1414 48.1454C21.451 48.2269 21.7657 48.2332 22.0753 48.1642C22.3901 48.0953 22.6842 47.9574 22.9525 47.7507C23.2208 47.5439 23.4478 47.2807 23.6336 46.9674C23.8193 46.6541 23.9483 46.3032 24.0205 45.9272C24.0928 45.5513 24.1031 45.1753 24.0567 44.7931C24.0051 44.4109 23.8967 44.0537 23.7367 43.7216C23.5716 43.3895 23.3601 43.1075 23.1073 42.8757C20.7751 40.8518 18.5667 38.6524 16.4822 36.2713C16.1417 35.8891 15.7444 35.6447 15.2903 35.5382C14.8362 35.4316 14.3925 35.4755 13.9591 35.6697ZM28.4579 48.0922V48.0922C28.4561 48.0911 28.4539 48.0909 28.452 48.0918C28.0007 48.3051 27.6363 48.6488 27.3537 49.1229C27.0699 49.5992 26.9203 50.1318 26.8945 50.7208C26.8739 51.3035 26.9874 51.8487 27.2299 52.3562C27.4724 52.8638 27.8129 53.2523 28.2463 53.5092C31.0429 55.1947 33.9375 56.567 36.9301 57.6259C37.2449 57.7325 37.5596 57.7638 37.8795 57.7199C38.1994 57.6761 38.5038 57.557 38.7825 57.369C39.0662 57.1748 39.3088 56.9242 39.51 56.6171C39.7112 56.3101 39.8557 55.9717 39.9434 55.5895C40.0311 55.2135 40.0569 54.8313 40.0208 54.4428C39.9847 54.0543 39.8866 53.6846 39.7318 53.34C39.5719 53.0016 39.3707 52.7071 39.1178 52.4627C38.865 52.2184 38.5812 52.0429 38.2716 51.9301C35.5576 50.9714 32.9313 49.7307 30.3979 48.2018C29.7652 47.8207 29.1222 47.7885 28.4638 48.0925C28.4619 48.0934 28.4597 48.0933 28.4579 48.0922V48.0922ZM124.134 4.24553C123.438 4.5651 122.731 4.8972 122.045 5.27316C121.745 5.42355 121.482 5.64286 121.255 5.92483C121.028 6.20054 120.858 6.52637 120.734 6.8898C120.615 7.25324 120.554 7.63546 120.559 8.03022C120.564 8.41872 120.626 8.80095 120.755 9.15811C120.884 9.52154 121.064 9.84111 121.291 10.1168C121.524 10.3925 121.792 10.5993 122.091 10.7497C122.39 10.8938 122.705 10.9627 123.03 10.9565C123.35 10.9565 123.665 10.875 123.959 10.7184C126.57 9.35863 129.253 8.2746 132.013 7.45375C132.323 7.35349 132.601 7.19057 132.859 6.95873C133.117 6.72689 133.324 6.43865 133.489 6.10655C133.654 5.77445 133.762 5.41102 133.809 5.02879C133.855 4.64656 133.84 4.26433 133.768 3.88837C133.69 3.50614 133.556 3.16151 133.37 2.84821C133.179 2.5349 132.952 2.27173 132.679 2.07122C132.405 1.86444 132.111 1.73285 131.797 1.67019C131.482 1.60126 131.167 1.61379 130.852 1.70152C128.572 2.37825 126.332 3.22417 124.134 4.24553ZM114.228 10.192C114.088 10.2547 113.954 10.3361 113.825 10.4301C111.204 12.3789 108.691 14.5156 106.292 16.8465C106.029 17.0909 105.812 17.3792 105.647 17.7301C105.482 18.0747 105.379 18.4444 105.338 18.8391C105.296 19.2402 105.322 19.6287 105.41 20.0172C105.497 20.3994 105.647 20.7503 105.848 21.0636C106.055 21.3769 106.302 21.6275 106.591 21.8155C106.88 22.0098 107.19 22.1226 107.52 22.1601C107.845 22.204 108.165 22.1601 108.48 22.0411C108.795 21.922 109.078 21.7341 109.331 21.4771C111.576 19.3028 113.918 17.304 116.364 15.4868C116.622 15.2926 116.844 15.0482 117.029 14.7537C117.21 14.4654 117.344 14.1396 117.427 13.7887C117.514 13.4316 117.54 13.0744 117.514 12.7047C117.489 12.3413 117.411 11.9904 117.277 11.6583C117.143 11.3324 116.962 11.0379 116.741 10.7873C116.519 10.5366 116.266 10.3487 115.987 10.2108C115.703 10.073 115.409 10.004 115.11 10.004C114.806 9.99776 114.512 10.0604 114.228 10.192ZM139.366 0.26033C139.098 0.385653 138.855 0.561099 138.633 0.792944C138.416 1.02479 138.241 1.29423 138.102 1.60753C137.962 1.91457 137.87 2.2404 137.828 2.5913C137.787 2.93593 137.792 3.28683 137.854 3.63146C137.911 3.97609 138.019 4.29566 138.174 4.59017C138.329 4.89094 138.52 5.14784 138.747 5.36089C138.974 5.5802 139.227 5.74312 139.505 5.84337C139.779 5.9499 140.062 6.00003 140.351 5.98123C143.148 5.81831 145.929 6.02509 148.689 6.5953C149.009 6.66423 149.324 6.6517 149.644 6.57024C149.959 6.48251 150.248 6.32586 150.511 6.10028C150.774 5.8747 150.991 5.59273 151.166 5.26063C151.336 4.9348 151.45 4.57137 151.507 4.18914C151.563 3.80065 151.553 3.41215 151.486 3.02992C151.414 2.64769 151.285 2.29679 151.099 1.97723C150.913 1.65766 150.686 1.38822 150.413 1.18144C150.139 0.968394 149.845 0.830541 149.525 0.761614C146.414 0.109945 143.277 -0.121898 140.119 0.059817C139.861 0.0723499 139.608 0.141277 139.366 0.26033ZM100.302 23.5827C100.298 23.5907 100.292 23.5971 100.284 23.6008C99.9696 23.751 99.6949 23.9684 99.4555 24.253C99.0685 24.723 98.6764 25.2054 98.2894 25.6879C96.628 27.762 94.8995 29.7671 93.1503 31.6532C92.8872 31.9038 92.6705 32.2109 92.5053 32.568C92.3454 32.9315 92.2474 33.3137 92.2164 33.721C92.1854 34.1283 92.2216 34.5293 92.3299 34.9178C92.4331 35.3063 92.5982 35.6572 92.8201 35.9642C93.0471 36.265 93.3103 36.5094 93.6199 36.6786C93.9243 36.854 94.2442 36.9417 94.5847 36.9543C94.9201 36.9668 95.2452 36.8916 95.5599 36.7412C95.8695 36.5846 96.1481 36.3653 96.3855 36.0708C98.2171 34.0907 100.033 31.9853 101.777 29.811C102.149 29.3473 102.515 28.8961 102.887 28.445C103.294 27.9562 103.526 27.361 103.588 26.6654C103.65 25.9762 103.526 25.3308 103.217 24.748C102.907 24.159 102.479 23.758 101.932 23.5324C101.395 23.3148 100.857 23.3255 100.319 23.5644C100.311 23.568 100.305 23.5745 100.302 23.5827ZM45.4694 54.0104C44.938 54.2485 44.5252 54.6684 44.2311 55.2636C43.937 55.8589 43.8338 56.4981 43.9112 57.1873C43.9886 57.8766 44.2363 58.4531 44.649 58.9293C45.0618 59.4055 45.5572 59.6749 46.1247 59.7313C49.236 60.076 52.3473 60.076 55.4586 59.7313C55.7837 59.6937 56.0881 59.5872 56.3771 59.4055C56.6609 59.2238 56.9085 58.9794 57.1201 58.6786C57.3265 58.3779 57.4761 58.0395 57.5741 57.6635C57.6722 57.2876 57.7031 56.8991 57.6722 56.5106C57.6464 56.1158 57.5535 55.7461 57.4039 55.4015C57.2542 55.0506 57.053 54.7498 56.8053 54.4992C56.5525 54.2485 56.2739 54.0668 55.9643 53.9478C55.6547 53.835 55.34 53.7974 55.0149 53.8287C52.2029 54.1483 49.3857 54.1483 46.5736 53.8413C46.1918 53.7911 45.8255 53.8475 45.4694 54.0104ZM156.739 4.02622V4.02622C156.739 4.0275 156.738 4.02879 156.737 4.02935C156.281 4.24269 155.912 4.59255 155.624 5.07892C155.34 5.56767 155.191 6.10655 155.175 6.70809C155.165 7.30336 155.289 7.86104 155.552 8.36859C155.81 8.86987 156.166 9.24584 156.62 9.49021C159.138 10.8562 161.449 12.617 163.555 14.7788C163.802 15.0294 164.076 15.2174 164.385 15.3364C164.695 15.4555 165.01 15.4993 165.329 15.468C165.649 15.4367 165.959 15.3302 166.243 15.1547C166.532 14.973 166.779 14.7349 166.991 14.4341C167.197 14.1333 167.352 13.8012 167.45 13.4253C167.553 13.0556 167.589 12.6734 167.564 12.2786C167.538 11.8901 167.45 11.5204 167.3 11.1695C167.156 10.8186 166.96 10.5178 166.712 10.2609C164.251 7.74198 161.553 5.68046 158.612 4.08888C157.995 3.75172 157.372 3.73185 156.74 4.0231C156.739 4.02365 156.738 4.02495 156.739 4.02622V4.02622ZM86.9531 37.8784C86.958 37.8794 86.9588 37.8862 86.9542 37.8883C86.7485 37.9815 86.5624 38.1046 86.3911 38.2576C84.0589 40.3254 81.6442 42.2428 79.1469 43.9973C78.8734 44.1978 78.6412 44.4547 78.4503 44.7618C78.2542 45.0751 78.1201 45.4197 78.0375 45.7957C77.9601 46.1716 77.9395 46.5539 77.9808 46.9361C78.0272 47.3246 78.1304 47.6817 78.2904 48.0201C78.4503 48.3585 78.6567 48.6467 78.9095 48.8848C79.1623 49.1229 79.441 49.2921 79.7505 49.3924C80.0601 49.4989 80.3749 49.524 80.6896 49.4801C81.0095 49.43 81.3088 49.3172 81.5874 49.1229C84.2343 47.2557 86.7884 45.2255 89.2547 43.0261C89.4921 42.8193 89.6933 42.5624 89.8584 42.2616C90.0184 41.9608 90.1319 41.635 90.199 41.2841C90.266 40.9332 90.2764 40.576 90.2351 40.2252C90.1938 39.868 90.1009 39.5296 89.9616 39.2163C89.8171 38.8968 89.6366 38.6273 89.4095 38.3892C89.1825 38.1574 88.9348 37.9756 88.6562 37.8503C88.3776 37.7313 88.0886 37.6686 87.7945 37.6749C87.5054 37.6749 87.2213 37.7415 86.9519 37.8688C86.9474 37.8709 86.9483 37.8775 86.9531 37.8784ZM63.1208 52.1494C62.8112 52.2747 62.5326 52.4627 62.2901 52.7134C62.0424 52.9703 61.8464 53.271 61.6967 53.6219C61.5471 53.9728 61.4645 54.3425 61.4387 54.7373C61.4078 55.1258 61.4491 55.508 61.5471 55.884C61.6451 56.2599 61.7999 56.5921 62.0115 56.8928C62.2179 57.1936 62.4707 57.4317 62.7545 57.6134C63.0434 57.7889 63.3478 57.8954 63.6729 57.9267C63.998 57.958 64.3127 57.9142 64.6171 57.7951C66.841 57.0683 69.0235 56.1973 71.1648 55.1759C71.8768 54.8501 72.6301 54.4992 73.3525 54.1044C73.6518 53.954 73.9149 53.741 74.1419 53.459C74.369 53.1771 74.5444 52.8575 74.6682 52.4941C74.7869 52.1306 74.8488 51.7484 74.8437 51.3536C74.8437 50.9651 74.7766 50.5829 74.6528 50.2258C74.5289 49.8623 74.3483 49.5428 74.1161 49.2671C73.8891 48.9913 73.6208 48.7783 73.3216 48.6342C73.0223 48.4838 72.7127 48.4086 72.3876 48.4149C72.0626 48.4149 71.753 48.4963 71.4537 48.6467C70.7914 48.9897 70.1137 49.3202 69.4512 49.6322C69.4447 49.6352 69.438 49.6378 69.4311 49.6399C69.4243 49.642 69.4175 49.6446 69.411 49.6476C67.4329 50.5793 65.4238 51.3735 63.3736 52.0366C63.2859 52.068 63.2034 52.1056 63.1208 52.1494ZM170.105 17.8836C170.106 17.889 170.104 17.8947 170.099 17.897C169.896 17.9907 169.708 18.1208 169.535 18.2752C169.277 18.5133 169.065 18.7953 168.9 19.1336C168.73 19.472 168.627 19.8354 168.58 20.2239C168.534 20.6062 168.549 20.9947 168.627 21.3769C168.709 21.7529 168.843 22.1038 169.034 22.4171C170.948 25.5501 173.183 28.3009 175.731 30.6757C175.984 30.9326 176.273 31.1143 176.588 31.2208C176.908 31.3336 177.228 31.365 177.558 31.3148C177.883 31.271 178.193 31.1457 178.476 30.9451C178.765 30.7446 179.008 30.4877 179.204 30.1682C179.405 29.8486 179.544 29.4914 179.627 29.1029C179.704 28.7144 179.725 28.3259 179.673 27.9312C179.622 27.5301 179.508 27.1667 179.338 26.8221C179.163 26.4837 178.946 26.1955 178.673 25.9636C176.485 23.9272 174.571 21.5586 172.93 18.8705C172.605 18.3379 172.176 17.9807 171.655 17.799C171.132 17.6121 170.619 17.642 170.111 17.8701C170.106 17.8725 170.103 17.8782 170.105 17.8836ZM184.031 30.9013C184.032 30.9048 184.031 30.9088 184.027 30.9104C183.561 31.13 183.191 31.4862 182.903 31.979C182.62 32.4741 182.475 33.0255 182.465 33.6333C182.46 34.2411 182.594 34.7925 182.867 35.3C183.141 35.8076 183.507 36.1773 183.966 36.4091C186.871 37.8378 189.864 38.9093 192.939 39.6236C193.259 39.7051 193.574 39.7051 193.894 39.6299C194.208 39.5484 194.502 39.4043 194.771 39.185C195.039 38.9657 195.266 38.6962 195.442 38.3704C195.622 38.0446 195.746 37.6874 195.808 37.2989C195.87 36.9167 195.87 36.5282 195.808 36.146C195.746 35.7575 195.627 35.4003 195.447 35.0745C195.266 34.7486 195.039 34.4792 194.771 34.2599C194.502 34.0406 194.208 33.8902 193.894 33.815C191.128 33.1696 188.44 32.1984 185.829 30.9138C185.233 30.6141 184.636 30.6068 184.034 30.8921C184.031 30.8937 184.029 30.8978 184.031 30.9013ZM201.375 35.2875C200.839 35.5319 200.426 35.958 200.132 36.5658C199.843 37.1673 199.745 37.8127 199.827 38.502C199.915 39.1975 200.173 39.774 200.601 40.2439C201.024 40.7139 201.525 40.9708 202.098 41.0084C204.946 41.2152 208.011 41.2528 211.225 41.1212C211.55 41.1149 211.865 41.0272 212.159 40.8643C212.458 40.7076 212.716 40.4821 212.938 40.1938C213.16 39.9056 213.33 39.5797 213.444 39.2101C213.562 38.8404 213.614 38.4581 213.604 38.0634C213.593 37.6686 213.521 37.2926 213.382 36.9355C213.248 36.572 213.062 36.2587 212.825 35.9893C212.587 35.7261 212.314 35.5194 212.009 35.3815C211.705 35.2499 211.39 35.1873 211.065 35.2061C207.995 35.3314 205.08 35.2938 202.387 35.0995C202.041 35.0745 201.7 35.1371 201.375 35.2875ZM219.156 34.6641V34.6641C219.154 34.6629 219.152 34.6628 219.15 34.6637C218.878 34.7951 218.628 34.9759 218.413 35.2123C218.191 35.4504 218.01 35.7261 217.871 36.0394C217.731 36.359 217.644 36.6911 217.608 37.0483C217.572 37.4054 217.582 37.7563 217.649 38.1072C217.721 38.4519 217.835 38.7777 218 39.0722C218.165 39.373 218.366 39.6236 218.603 39.8367C218.846 40.0434 219.104 40.1938 219.393 40.2878C219.677 40.3818 219.966 40.4131 220.26 40.3755C223.077 40.0372 226.085 39.586 229.212 39.0409C229.532 38.9782 229.831 38.8529 230.11 38.6524C230.388 38.4519 230.62 38.195 230.817 37.8754C231.007 37.5621 231.142 37.2174 231.224 36.8352C231.302 36.453 231.317 36.0708 231.271 35.6823C231.224 35.2938 231.121 34.9303 230.956 34.592C230.786 34.2536 230.574 33.9654 230.316 33.7335C230.058 33.5017 229.769 33.3325 229.46 33.2385C229.145 33.1383 228.83 33.1195 228.51 33.1759C225.461 33.7147 222.52 34.1534 219.78 34.4792C219.57 34.5102 219.361 34.572 219.161 34.6644C219.16 34.6653 219.157 34.6652 219.156 34.6641V34.6641ZM236.789 31.6C236.787 31.5981 236.785 31.5975 236.783 31.5985C236.495 31.73 236.238 31.9174 236.012 32.1608C235.78 32.4114 235.6 32.6996 235.46 33.0317C235.321 33.3638 235.233 33.7147 235.202 34.0844C235.171 34.4541 235.197 34.8176 235.28 35.1747C235.362 35.5319 235.496 35.864 235.682 36.1585C235.868 36.4593 236.09 36.7036 236.353 36.8979C236.611 37.0921 236.895 37.2237 237.194 37.2926C237.498 37.3553 237.798 37.3553 238.102 37.2801L238.902 37.1047C241.342 36.5658 243.793 36.453 246.26 36.7663C246.579 36.8039 246.899 36.7726 247.209 36.6598C247.518 36.547 247.797 36.3653 248.05 36.1209C248.303 35.8702 248.504 35.5757 248.659 35.2311C248.814 34.8865 248.906 34.5168 248.943 34.1283C248.974 33.7398 248.948 33.3513 248.855 32.9753C248.762 32.5994 248.618 32.261 248.411 31.954C248.21 31.6469 247.962 31.4026 247.678 31.2146C247.395 31.0266 247.09 30.9138 246.77 30.8699C243.845 30.5003 240.93 30.6381 238.035 31.2835L237.24 31.4527C237.087 31.49 236.938 31.5396 236.795 31.6015C236.793 31.6024 236.79 31.6018 236.789 31.6ZM254.216 33.7805V33.7805C254.214 33.7794 254.212 33.7792 254.21 33.7801C253.743 33.9934 253.374 34.3497 253.086 34.8426C252.802 35.3376 252.652 35.889 252.647 36.4906C252.637 37.0984 252.771 37.6561 253.039 38.1574C253.313 38.6649 253.679 39.0346 254.138 39.2727C256.708 40.6074 259.128 42.2804 261.388 44.2793C261.651 44.4861 261.935 44.6239 262.244 44.6991C262.549 44.768 262.858 44.768 263.163 44.6991C263.472 44.6302 263.756 44.4923 264.019 44.2918C264.282 44.085 264.509 43.8344 264.69 43.5274C264.871 43.2203 265.005 42.882 265.077 42.5123C265.154 42.1426 265.17 41.7729 265.129 41.3969C265.087 41.0209 264.989 40.6638 264.834 40.3379C264.685 40.0058 264.484 39.7239 264.241 39.4858C261.677 37.2237 258.942 35.3376 256.032 33.8275C255.435 33.5152 254.829 33.5018 254.222 33.7809C254.22 33.7818 254.218 33.7816 254.216 33.7805V33.7805ZM268.707 46.1372C268.705 46.1353 268.703 46.1347 268.701 46.1357C268.511 46.2233 268.337 46.3417 268.173 46.4787C268.008 46.6228 267.858 46.7857 267.724 46.9737C267.595 47.1617 267.481 47.3684 267.394 47.5877C267.301 47.8133 267.239 48.0452 267.192 48.2833C267.151 48.5277 267.136 48.772 267.146 49.0164C267.151 49.267 267.187 49.5052 267.244 49.7433C267.301 49.9814 267.383 50.2007 267.487 50.4137C267.59 50.6268 267.714 50.821 267.858 50.9965C269.891 53.4653 271.8 56.072 273.58 58.8165C273.776 59.1361 274.019 59.393 274.303 59.5935C274.586 59.8003 274.896 59.9256 275.221 59.9757C275.546 60.0258 275.866 60.0008 276.186 59.8943C276.501 59.7815 276.79 59.606 277.048 59.3554C277.306 59.111 277.512 58.8102 277.672 58.4593C277.827 58.1084 277.925 57.7325 277.956 57.3377C277.992 56.9367 277.961 56.5482 277.863 56.166C277.765 55.7837 277.61 55.4391 277.398 55.1383C275.494 52.2121 273.462 49.43 271.289 46.7857C270.949 46.3847 270.546 46.1215 270.077 46.0024C269.609 45.89 269.156 45.9333 268.713 46.1386C268.711 46.1396 268.708 46.139 268.707 46.1372ZM279.834 63.0053V63.0053C279.832 63.0042 279.83 63.004 279.828 63.0049C279.485 63.1617 279.187 63.4051 278.936 63.7291C278.683 64.0549 278.503 64.4309 278.389 64.857C278.276 65.2831 278.245 65.7217 278.291 66.1603C278.343 66.6052 278.466 67.0187 278.668 67.3947C280.221 70.2646 281.738 73.3161 283.188 76.4742C283.342 76.8188 283.549 77.1133 283.802 77.3577C284.054 77.6021 284.338 77.7775 284.648 77.8841C284.963 77.9906 285.277 78.0282 285.602 77.9781C285.922 77.9342 286.227 77.8214 286.505 77.6272C286.789 77.4392 287.032 77.1885 287.233 76.8815C287.439 76.5745 287.584 76.2298 287.671 75.8539C287.764 75.4716 287.79 75.0894 287.754 74.6946C287.718 74.3062 287.62 73.9365 287.465 73.5918C285.958 70.3084 284.385 67.1315 282.749 64.1489C282.434 63.5662 282.006 63.1651 281.459 62.9521C280.914 62.7398 280.374 62.7577 279.84 63.0057C279.838 63.0066 279.836 63.0065 279.834 63.0053V63.0053Z" fill="black"/>
</svg>
