<svg width="143" height="141" viewBox="0 0 143 141" fill="none" xmlns="http://www.w3.org/2000/svg">
<path d="M0.695149 1.95252C0.897316 0.685413 2.08561 -0.177736 3.3478 0.0311827C6.51708 0.555764 9.63209 1.10188 12.6912 1.67111C13.9484 1.90504 14.7721 3.12178 14.5326 4.38169C14.2931 5.6418 13.0809 6.46807 11.8235 6.23442C8.80747 5.674 5.73807 5.13492 2.61528 4.61875C1.35326 4.41015 0.493019 3.2194 0.695149 1.95252ZM18.9877 5.2589C19.2414 4.00083 20.464 3.18664 21.7167 3.44842C24.854 4.10403 27.9288 4.78581 30.9444 5.49535C32.1892 5.78823 32.9533 7.04343 32.6537 8.29024C32.354 9.5375 31.1032 10.3041 29.8579 10.0115C26.8984 9.31615 23.8788 8.64666 20.7993 8.00457C19.546 7.74326 18.7339 6.51747 18.9877 5.2589ZM37.0677 9.38442C37.3843 8.14284 38.6439 7.39227 39.8797 7.71724C42.9825 8.5331 46.0167 9.38142 48.9792 10.2606C50.206 10.6247 50.8954 11.924 50.5223 13.1516C50.1496 14.3781 48.8573 15.0691 47.6314 14.7061C44.7368 13.849 41.7727 13.0185 38.7377 12.2192C37.4998 11.8932 36.7506 10.6282 37.0677 9.38442ZM54.8527 14.5108C55.2458 13.2892 56.5522 12.6177 57.7663 13.0231C60.8218 14.0432 63.795 15.0985 66.6844 16.1889C67.881 16.6405 68.4724 17.9865 68.0109 19.1825C67.549 20.3798 66.2071 20.9733 65.009 20.5216C62.1996 19.4624 59.3114 18.4372 56.3413 17.4448C55.1281 17.0394 54.46 15.7314 54.8527 14.5108ZM72.2258 20.8759C72.7135 19.6888 74.0693 19.1222 75.2467 19.626C78.2084 20.893 81.0723 22.2022 83.8402 23.5535C84.9914 24.1156 85.4507 25.5154 84.8741 26.6621C84.298 27.8078 82.9061 28.2669 81.7559 27.7053C79.0915 26.4042 76.3318 25.1423 73.4783 23.9213C72.3022 23.418 71.7385 22.0618 72.2258 20.8759ZM89.0495 28.8454C89.6575 27.7177 91.0623 27.2959 92.1776 27.9219C95.0027 29.5076 97.7104 31.1466 100.299 32.8357C101.373 33.5363 101.649 34.9847 100.931 36.0482C100.213 37.1102 98.7741 37.3861 97.7019 36.6865C95.2399 35.0801 92.6645 33.521 89.9756 32.0078C88.8608 31.3804 88.4414 29.9732 89.0495 28.8454ZM104.73 38.7342C105.487 37.7 106.938 37.4755 107.954 38.2552C110.537 40.2374 112.978 42.2817 115.273 44.3913C116.217 45.2583 116.244 46.7315 115.357 47.6569C114.472 48.5814 113.009 48.6093 112.065 47.7446C109.914 45.7741 107.63 43.8598 105.211 42.0001C104.196 41.2198 103.973 39.7681 104.73 38.7342ZM118.593 50.9247C119.522 50.0441 120.99 50.084 121.844 51.0384C124.031 53.4831 126.046 56.002 127.889 58.5969C128.632 59.6417 128.345 61.0867 127.283 61.8014C126.221 62.5163 124.784 62.2292 124.04 61.1851C122.341 58.8002 120.485 56.4807 118.476 54.2267C117.624 53.2712 117.664 51.8047 118.593 50.9247ZM129.748 65.7322C130.851 65.0818 132.274 65.4503 132.889 66.5756C134.446 69.4224 135.82 72.3483 137.006 75.3549C137.477 76.5483 136.85 77.8818 135.646 78.3178C134.444 78.7535 133.12 78.1277 132.647 76.9361C131.559 74.1968 130.307 71.5287 128.893 68.9287C128.28 67.803 128.645 66.382 129.748 65.7322ZM137.08 82.7128C138.306 82.352 139.596 83.0554 139.921 84.2957C140.728 87.3804 141.356 90.5394 141.808 93.774C141.985 95.0456 141.067 96.1973 139.795 96.3411C138.524 96.4849 137.38 95.5669 137.201 94.296C136.783 91.3325 136.208 88.4364 135.474 85.6075C135.152 84.3651 135.851 83.0741 137.08 82.7128ZM140.191 101.021C141.468 100.945 142.567 101.922 142.611 103.204C142.717 106.344 142.669 109.548 142.468 112.816C142.39 114.096 141.268 115.047 139.993 114.94C138.719 114.834 137.775 113.711 137.852 112.43C138.037 109.383 138.081 106.398 137.987 103.476C137.946 102.195 138.915 101.097 140.191 101.021ZM139.521 119.487C140.79 119.645 141.693 120.805 141.511 122.075C141.07 125.147 140.503 128.272 139.809 131.451C139.535 132.704 138.285 133.477 137.04 133.182C135.796 132.888 135.027 131.638 135.3 130.385C135.955 127.371 136.494 124.412 136.914 121.503C137.098 120.233 138.252 119.329 139.521 119.487ZM136.606 137.919C137.448 138.146 137.948 139.011 137.713 139.853C137.479 140.693 136.603 141.181 135.768 140.937L134.305 140.511C133.491 140.274 133.027 139.411 133.256 138.593C133.485 137.777 134.322 137.301 135.137 137.522L136.606 137.919Z" fill="black"/>
</svg>
