<svg width="122" height="155" viewBox="0 0 122 155" fill="none" xmlns="http://www.w3.org/2000/svg">
<path d="M20.4026 153.963C19.2541 154.537 17.8566 154.077 17.2846 152.928C15.8389 150.022 14.4832 147.157 13.219 144.333C12.6881 143.148 13.242 141.762 14.4378 141.254V141.254C15.6201 140.752 16.9849 141.298 17.5097 142.47C18.7364 145.211 20.0506 147.99 21.4508 150.809C22.0278 151.97 21.5628 153.383 20.4026 153.963V153.963ZM12.6219 137.03C11.4286 137.506 10.0737 136.93 9.60389 135.735C8.4296 132.746 7.36491 129.804 6.40825 126.908C6.00148 125.677 6.69543 124.36 7.9347 123.978V123.978C9.16398 123.599 10.4668 124.284 10.8717 125.505C11.7924 128.282 12.8136 131.103 13.9368 133.972C14.4099 135.18 13.8275 136.55 12.6219 137.03V137.03ZM6.55286 119.412C5.3103 119.751 4.02533 119.023 3.70082 117.777C2.88186 114.631 2.19793 111.545 1.65218 108.517C1.42253 107.242 2.2993 106.041 3.57889 105.841V105.841C4.85449 105.642 6.04812 106.514 6.27819 107.784C6.79554 110.641 7.44096 113.553 8.21147 116.522C8.53741 117.777 7.80446 119.071 6.55286 119.412V119.412ZM2.93853 101.247C1.65431 101.39 0.493491 100.467 0.377641 99.1798C0.0846314 95.9247 -0.0378695 92.7443 0.0101373 89.6369C0.0300939 88.3451 1.12437 87.344 2.41513 87.3985V87.3985C3.7085 87.453 4.70875 88.5467 4.69123 89.8411C4.65242 92.7083 4.76758 95.6455 5.03524 98.6498C5.15026 99.9409 4.22671 101.103 2.93853 101.247V101.247ZM2.76121 82.8033C1.47232 82.6725 0.530836 81.5191 0.704982 80.2353C1.14678 76.9785 1.79468 73.8117 2.64867 70.7351C2.99279 69.4954 4.30136 68.8111 5.53105 69.1895V69.1895C6.77215 69.5715 7.46063 70.89 7.11653 72.1421C6.35244 74.9225 5.76873 77.7823 5.36392 80.7217C5.18789 81.9999 4.04491 82.9336 2.76121 82.8033V82.8033ZM7.11075 64.8319C5.90069 64.3621 5.30053 62.9952 5.82068 61.8059C7.12072 58.8335 8.63797 55.9584 10.3741 53.1791C11.0526 52.0927 12.4938 51.8058 13.5639 52.5098V52.5098C14.6488 53.2235 14.9393 54.683 14.255 55.7868C12.7069 58.2841 11.3452 60.8636 10.1746 63.5267C9.65671 64.7047 8.31042 65.2975 7.11075 64.8319V64.8319ZM16.2971 48.8023C15.2636 48.018 15.0655 46.5388 15.8922 45.5388C17.9154 43.0918 20.1307 40.7326 22.5379 38.4613C23.4665 37.5852 24.9282 37.6618 25.789 38.6046V38.6046C26.6625 39.5615 26.5844 41.0449 25.644 41.9363C23.451 44.0149 21.4314 46.1677 19.5837 48.3959C18.7666 49.3814 17.3169 49.5762 16.2971 48.8023V48.8023ZM29.4457 35.5718C28.6267 34.5707 28.78 33.0916 29.8086 32.3074C32.3031 30.4058 34.9566 28.5738 37.7645 26.8144C38.8448 26.1374 40.2636 26.4869 40.9301 27.5737V27.5737C41.6063 28.6763 41.2509 30.1166 40.1554 30.8043C37.531 32.4517 35.0514 34.1625 32.7198 35.9367C31.7045 36.7093 30.2537 36.5593 29.4457 35.5718V35.5718ZM44.9012 25.3405C44.2695 24.2159 44.6742 22.7901 45.8149 22.1878C48.5708 20.7325 51.4511 19.3355 54.4575 17.9934C55.622 17.4736 56.9811 18.0113 57.4934 19.1791V19.1791C58.0108 20.3589 57.4677 21.7328 56.2919 22.2592C53.4269 23.5418 50.6818 24.8733 48.0551 26.2566C46.9274 26.8505 45.5254 26.4517 44.9012 25.3405V25.3405ZM61.8146 17.4316C61.3309 16.2379 61.9108 14.8773 63.1136 14.4168C66.0117 13.3071 69.0112 12.2426 72.1088 11.2246C73.3201 10.8266 74.6189 11.4963 75.0117 12.7093V12.7093C75.4078 13.9328 74.7321 15.2437 73.5107 15.6462C70.52 16.6317 67.6265 17.6605 64.8286 18.731C63.6369 19.187 62.2938 18.6142 61.8146 17.4316V17.4316ZM79.5393 11.3552C79.1678 10.1228 79.8707 8.82275 81.1089 8.47141C84.0807 7.62821 87.1333 6.82008 90.2682 6.04703C91.5084 5.7412 92.7567 6.5067 93.0574 7.74817V7.74817C93.3599 8.99716 92.5886 10.2529 91.3407 10.5599C88.2865 11.311 85.3118 12.0986 82.4181 12.9212C81.1915 13.2698 79.9072 12.5761 79.5393 11.3552V11.3552ZM97.6828 6.70881C97.4008 5.4559 98.1906 4.21162 99.4467 3.94395C102.464 3.30106 105.55 2.68852 108.704 2.10633C109.96 1.87443 111.162 2.71039 111.391 3.96715V3.96715C111.62 5.23007 110.78 6.4385 109.518 6.67166C106.428 7.24244 103.404 7.84162 100.448 8.47226C99.1989 8.73889 97.9634 7.95514 97.6828 6.70881V6.70881ZM116.054 3.18352C115.841 1.91728 116.696 0.717592 117.964 0.515683C118.312 0.460335 118.66 0.405346 119.01 0.350714C120.273 0.153085 121.453 1.02261 121.647 2.28666V2.28666C121.842 3.55448 120.971 4.7391 119.704 4.93757C119.375 4.98909 119.047 5.04085 118.719 5.09286C117.458 5.2931 116.267 4.44297 116.054 3.18352V3.18352Z" fill="black"/>
</svg>
