<svg width="105" height="184" viewBox="0 0 105 184" fill="none" xmlns="http://www.w3.org/2000/svg">
<path d="M35.5507 16.1333L35.1238 16.1418C31.6537 16.3277 28.526 17.1266 25.7321 18.5383C24.3373 19.2441 23.0228 20.1022 21.7971 21.1166L20.0177 22.7481C18.8764 23.9104 17.8156 25.2291 16.8392 26.7C16.4461 27.2157 16.8476 28.2131 18.0522 29.6925C18.8046 30.6012 21.5224 33.0865 26.2013 37.1526C26.6451 37.5837 26.8311 37.9261 26.7634 38.1923C26.6155 38.4206 28.1963 37.3681 31.5058 35.035C32.0087 34.7096 32.7061 34.3376 33.598 33.9234C34.2193 33.5937 35.2337 33.6106 36.6327 33.9657C38.3488 34.4306 40.1789 35.1998 42.1232 36.2819C49.4057 40.6776 54.1439 43.6532 56.3333 45.2086C57.9648 46.2103 59.6893 47.1275 61.5067 47.9602C61.9674 48.2349 63.3496 48.7675 65.6573 49.5579C66.583 49.8411 67.5044 50.0778 68.43 50.268C70.1883 50.6484 72.1284 50.8343 74.2502 50.8343C76.2452 50.809 78.2571 50.5934 80.2774 50.1961C81.2876 49.9932 82.2978 49.7481 83.3164 49.4564C83.8194 49.3677 85.3494 48.8224 87.9066 47.8249C85.4128 40.8932 84.8887 35.2125 86.3427 30.7745C82.6274 31.8439 79.2123 32.6385 76.1014 33.1541C73.8824 33.3993 72.0565 33.2936 70.6194 32.8371C68.7048 32.3088 66.5111 31.3663 64.0427 30.001L59.4103 27.2199L50.4286 21.0954C49.4861 20.5121 48.1547 19.7978 46.4386 18.9567C43.5856 17.7014 41.5568 16.9786 40.3564 16.7884C38.7461 16.408 37.1442 16.1925 35.5507 16.1333Z" fill="#D10100"/>
<path d="M37.4019 26.6788H37.0849C33.767 26.7972 30.7449 27.3086 28.0102 28.2131C23.3778 29.6967 19.6625 31.5437 16.8687 33.7627C16.6531 33.9783 16.9363 34.7349 17.7056 36.0282L24.7515 46.3456C24.8064 46.4343 25.2418 46.409 26.0533 46.2695C31.3451 45.1198 34.5066 44.4858 35.5422 44.3717C37.292 44.2026 38.9151 44.3337 40.4155 44.7775C41.8822 45.179 43.3953 45.8088 44.9465 46.6626L58.8608 55.4583C61.0121 56.6925 63.0621 57.7111 65.0064 58.5099C66.118 58.9707 67.2507 59.3806 68.4046 59.7399C71.3126 60.5472 73.0793 60.9741 73.7091 61.0121C76.1014 61.4221 78.612 61.625 81.2283 61.625C83.3079 61.6166 85.269 61.4348 87.1034 61.0924C88.5532 60.9234 90.6623 60.2302 93.4392 59.0045C90.7891 54.875 88.5616 49.9763 86.7568 44.3125C85.7847 44.5577 82.6274 44.3802 77.2891 43.78C74.7531 43.4207 72.9102 42.9769 71.7648 42.4401C69.7318 41.7258 67.6861 40.7875 65.6234 39.6294L61.7434 37.2962L53.421 31.6156C52.2756 30.9055 50.8935 30.1743 49.2747 29.4219C48.0743 28.7584 45.944 28.0525 42.8797 27.3002C41.1087 26.9324 39.2828 26.7253 37.4019 26.6788Z" fill="#D10100"/>
<path d="M33.8261 42.0259L33.2217 42.0343C29.6756 42.2457 27.0381 42.6937 25.3136 43.3784C21.4082 44.8493 19.5273 45.9017 19.6668 46.54C19.5273 46.8232 19.802 48.0404 20.4868 50.1876L24.4514 59.1524C24.705 59.8878 24.7472 60.2767 24.574 60.3189C24.705 60.3908 26.5351 60.133 30.0602 59.5581C30.7703 59.4778 31.4972 59.4356 32.2369 59.4229C33.936 59.3722 35.6436 59.5962 37.3681 60.0992C38.6065 60.5599 39.6505 61.0544 40.5001 61.57C48.3913 66.4941 53.7042 69.7656 56.4347 71.3802C58.0408 72.3058 59.499 73.0455 60.7966 73.5907C66.4941 76.0676 71.4816 77.1876 75.7633 76.9509C79.9308 76.9509 84.6646 75.9534 89.9734 73.9627C94.2296 72.3608 97.7631 70.3404 100.57 67.9016C96.2922 63.4974 93.156 59.1989 91.1526 55.006C87.915 56.3924 83.739 57.728 78.6205 59.0087C75.2772 59.668 72.6693 59.7019 70.7969 59.1101C68.5864 58.4972 66.473 57.7238 64.4484 56.7897L61.4433 54.875L49.9129 46.8274C48.7844 46.0412 46.9753 45.0775 44.4858 43.9363C41.7089 42.7317 38.1585 42.0935 33.8261 42.0259Z" fill="#EFEDEC"/>
<mask id="mask0_7_25" style="mask-type:luminance" maskUnits="userSpaceOnUse" x="20" y="51" width="85" height="30">
<path d="M20.6136 51.4344H104.065V80.6493H20.6136V51.4344Z" fill="white"/>
</mask>
<g mask="url(#mask0_7_25)">
<path d="M35.3351 51.5655H35.2337C30.7111 51.3542 26.0491 52.3644 21.2518 54.596L21.3871 55.7668C21.7125 59.0129 21.6618 63.2269 21.2391 68.4088L23.213 71.135C27.4228 70.0445 30.1617 69.4359 31.4381 69.3133C33.095 69.0809 34.9463 69.1189 36.9962 69.4275C37.4062 69.5162 37.719 69.6219 37.9387 69.736L50.1074 75.5646C51.7304 76.2366 53.4211 76.8368 55.1878 77.3652C61.7307 79.2333 67.665 80.2435 72.9948 80.3999C87.1246 79.8969 97.4631 76.7058 104.019 70.8265C100.248 68.1341 96.6304 64.0469 93.1645 58.5649C87.7924 60.6909 82.3569 62.1407 76.8495 62.9141C73.8486 63.4171 70.053 63.4044 65.4586 62.8676C63.0156 62.4577 61.0206 61.9378 59.4737 61.308L56.6418 59.9935L46.0793 54.2494C44.6972 53.5478 43.8392 53.1421 43.5011 53.0279C40.8044 52.1065 38.0824 51.6205 35.3351 51.5655Z" fill="#EFEDEC"/>
</g>
<mask id="mask1_7_25" style="mask-type:luminance" maskUnits="userSpaceOnUse" x="39" y="65" width="66" height="16">
<path d="M39.0081 65.5009H104.065V80.6493H39.0081V65.5009Z" fill="white"/>
</mask>
<g mask="url(#mask1_7_25)">
<path d="M98.9128 66.139C96.9432 67.7832 94.2804 69.271 90.9286 70.6109C85.2395 73.0201 79.1785 74.2247 72.7412 74.2247C72.5045 74.2247 72.2636 74.2247 72.0269 74.2204C71.9973 74.2204 71.9635 74.2204 71.9339 74.2204C68.485 74.2204 64.1526 73.7471 58.9369 72.8003C56.7686 72.3861 54.6722 71.9296 52.656 71.4224L44.245 69.047L41.6582 68.5271L40.7749 68.7554C40.255 69.0639 39.7055 69.5796 39.1222 70.3023L50.1074 75.5645C51.7304 76.2366 53.4211 76.8368 55.1878 77.3651C61.7307 79.2333 67.665 80.2435 72.9948 80.3999C87.1246 79.8969 97.4631 76.7057 104.019 70.8264C102.848 69.9895 101.694 69.0216 100.553 67.9185C100.557 67.9142 100.561 67.9058 100.57 67.9016C99.9991 67.3141 99.4454 66.7265 98.9128 66.139Z" fill="#D9DAD9"/>
</g>
<path d="M35.5506 16.1333L35.1237 16.1418C31.6536 16.3277 28.5259 17.1266 25.7321 18.5383C24.3373 19.2441 23.0228 20.1022 21.797 21.1166L20.0176 22.7481C19.5865 23.1834 19.168 23.6441 18.7623 24.126L20.2796 26.4253C20.3853 26.6451 20.3853 26.8014 20.2881 26.8944C20.6093 26.8014 21.1884 26.4929 22.0295 25.973C24.9755 23.9696 26.6535 22.8664 27.055 22.6635C28.1455 22.0295 29.1514 21.5392 30.0813 21.1926C31.7297 20.5375 33.9191 20.212 36.6496 20.212C37.2075 20.212 37.7908 20.2247 38.3952 20.2501C40.2084 20.4192 41.7343 20.8503 42.9685 21.5392C44.1392 22.2028 45.1621 22.8368 46.037 23.4412L50.6483 26.7338C52.0178 27.6003 53.3238 28.3061 54.5707 28.8598C56.9419 29.8911 59.1482 30.4068 61.1939 30.4068C61.2193 30.4068 61.2446 30.4068 61.2657 30.4068C62.2632 30.3518 63.2354 30.242 64.1822 30.0771C64.1357 30.0518 64.0892 30.0264 64.0427 30.001L59.4102 27.2199L50.4285 21.0954C49.486 20.5121 48.1546 19.7978 46.4386 18.9567C43.5856 17.7014 41.5567 16.9786 40.3564 16.7884C38.746 16.408 37.1441 16.1925 35.5506 16.1333Z" fill="#B40401"/>
<path d="M19.0202 9.86096C18.9863 9.86096 18.9525 9.86096 18.9145 9.86519C16.687 9.92014 14.9287 11.7756 14.9837 14.0073L18.5764 154.354H26.6535L23.0566 13.8002C22.9975 11.6024 21.2011 9.86096 19.0202 9.86096Z" fill="black"/>
<path d="M12.9464 152.215H23.5257L34.1051 152.211C34.1093 157.478 34.1093 162.744 34.1093 168.011C27.055 168.015 20.0007 168.015 12.9506 168.015C12.9463 162.748 12.9464 157.482 12.9464 152.215Z" fill="black"/>
<path d="M8.46191 159.578L23.6188 159.574H38.7714C38.7714 164.54 38.7714 169.507 38.7757 174.473C28.6697 174.477 18.5679 174.477 8.46614 174.482C8.46614 169.511 8.46614 164.545 8.46191 159.578Z" fill="black"/>
<mask id="mask2_7_25" style="mask-type:luminance" maskUnits="userSpaceOnUse" x="0" y="167" width="49" height="17">
<path d="M6.10352e-05 167.212H48.7463V184H6.10352e-05V167.212Z" fill="white"/>
</mask>
<g mask="url(#mask2_7_25)">
<path d="M0.0380859 167.482L24.2485 167.474L48.4547 167.469C48.4589 172.977 48.4589 178.48 48.4589 183.987C32.3215 183.992 16.1798 183.992 0.0423126 183.996C0.0380862 178.493 0.0380859 172.985 0.0380859 167.482Z" fill="black"/>
</g>
<mask id="mask3_7_25" style="mask-type:luminance" maskUnits="userSpaceOnUse" x="10" y="0" width="18" height="16">
<path d="M10.8753 0H27.1058V15.7275H10.8753V0Z" fill="white"/>
</mask>
<g mask="url(#mask3_7_25)">
<path d="M26.1928 7.2149L26.197 8.25044C26.0153 10.3553 25.17 12.0883 23.661 13.445C22.1437 14.806 20.2881 15.4442 18.0945 15.3639C15.9938 15.1822 14.2609 14.3369 12.9041 12.8237C12.4688 12.3376 12.1011 11.7966 11.7968 11.2091L11.4079 10.2919C11.1797 9.65792 11.0444 8.99011 10.9937 8.28848C10.8965 6.12864 11.5093 4.28159 12.8407 2.75153C14.1679 1.21724 15.9093 0.346546 18.0565 0.139439C20.2163 0.0422255 22.0591 0.659321 23.5892 1.99072C25.1192 3.32213 25.9899 5.06352 26.1928 7.2149Z" fill="black"/>
</g>
<path d="M7.10089 169.401L6.61482 169.431C5.74835 169.579 5.03404 169.853 4.47189 170.251C3.69841 170.897 3.09822 171.717 2.67556 172.711C2.22753 174.139 1.9697 175.023 1.89785 175.369L1.80909 175.889C1.78795 176.405 1.78795 176.764 1.80486 176.963C1.86826 177.664 2.03733 178.26 2.30783 178.755C2.44309 179.004 2.61638 179.237 2.81926 179.456L3.14472 179.735L4.53529 179.359L4.61137 178.865L4.57756 178.467L4.34509 176.591C4.32396 176.32 4.32819 176.105 4.34932 175.936C4.37468 175.737 4.4254 175.521 4.49725 175.285C4.71704 174.727 4.8692 174.401 4.96219 174.308C5.11012 174.076 5.2496 173.877 5.38486 173.717L6.81347 172.808L6.73739 172.964C6.85997 172.922 7.02058 172.846 7.21501 172.736C7.70953 172.419 7.98849 172.208 8.05612 172.094L8.06457 171.054L7.10089 169.401ZM4.16757 179.854L3.25038 180.45L3.48708 180.707L3.22925 181.084L3.30533 181.282L4.52261 181.215L4.9791 180.893L4.76776 180.576L4.89456 180.217L4.59869 179.862L4.16757 179.854Z" fill="#242323"/>
<path d="M14.7047 3.69409L14.3032 3.92656L13.9481 4.2182L13.6269 4.56901L13.3564 4.95787L13.1197 5.40167L12.921 5.86238C12.7985 6.21319 12.7013 6.53865 12.6294 6.83874C12.4096 7.70521 12.2913 8.19973 12.2659 8.32653L12.2025 8.82528L12.2448 9.35784L12.3927 9.78474L12.6801 10.1355L13.5846 10.3469L14.5864 9.69598L14.6751 9.29867C14.747 8.68157 14.7935 8.30117 14.8146 8.16169L14.8991 7.8151L15.0344 7.47697L15.2457 7.21069L15.5331 6.96554C15.6473 6.88101 15.9389 6.72462 16.4081 6.49638L16.6405 6.34422L16.818 6.14979L16.9279 5.90042L16.9575 5.56651L16.9491 5.52424L14.7047 3.69409ZM14.3116 10.3722L13.6396 10.4441L13.2381 10.9724L12.8196 11.2345L14.5483 11.1035L14.2989 10.7653L14.3116 10.3722Z" fill="#242323"/>
<path d="M22.2916 123.225L22.3212 123.436C22.393 123.93 22.4522 124.569 22.4987 125.359C22.541 126.002 22.5536 126.796 22.5494 127.734C22.5367 128.457 22.5156 129.18 22.4776 129.903C22.4607 130.342 22.3804 131.631 22.2409 133.766C22.2155 134.197 22.1986 134.624 22.1859 135.055C22.169 135.63 22.1606 136.205 22.1563 136.78C22.1521 136.78 22.1521 137.929 22.1563 140.229C22.1563 140.66 22.1521 141.091 22.1479 141.518C22.1352 142.38 22.1014 143.238 22.0464 144.092L21.9408 144.434L21.6322 144.599L21.3152 144.459L21.1927 144.155C21.1039 143.737 21.0278 143.318 20.9729 142.891C20.8418 141.974 20.7658 140.901 20.7489 139.671C20.7404 139.235 20.7404 138.804 20.7446 138.369L20.7827 135.554C20.7869 135.123 20.7869 134.696 20.7827 134.269C20.7784 133.694 20.77 133.124 20.7573 132.549L20.6474 128.242C20.6347 127.451 20.6263 126.805 20.6263 126.306C20.6263 124.827 20.6474 123.723 20.6981 123.005L20.8545 122.578L21.1377 122.358L21.4885 122.324C21.7421 122.367 21.9535 122.51 22.1268 122.764L22.2916 123.225ZM21.9366 145.305L22.0126 145.503L22.0845 145.723L22.0929 145.973L22.0253 146.197L21.8774 146.361L21.9027 146.505L21.9788 146.729L22.0718 147.372L22.1056 147.587L22.1141 147.845L22.0169 148.086L21.8393 148.259L21.6365 148.323L21.4167 148.259L21.2265 148.082L21.125 147.828C21.125 147.52 21.1166 147.224 21.1039 146.945L21.1123 146.687L21.2011 146.454L21.3533 146.311L21.3195 146.167L21.2392 145.951L21.1462 145.753L21.1039 145.533L21.2053 145.119L21.5435 144.958L21.8689 145.132L21.9366 145.305Z" fill="#242323"/>
</svg>
