<svg width="107" height="107" viewBox="0 0 107 107" fill="none" xmlns="http://www.w3.org/2000/svg">
<mask id="mask0_3_10249" style="mask-type:luminance" maskUnits="userSpaceOnUse" x="0" y="2" width="107" height="105">
<path d="M0 2.0415H107V107H0V2.0415Z" fill="white"/>
</mask>
<g mask="url(#mask0_3_10249)">
<path d="M106.989 54.6925C106.989 56.4061 106.904 58.1144 106.732 59.8228C106.561 61.5259 106.303 63.2186 105.966 64.8957C105.623 66.578 105.2 68.2394 104.69 69.8801C104.181 71.5155 103.592 73.1301 102.922 74.7134C102.252 76.2915 101.502 77.8384 100.677 79.354C99.8517 80.8644 98.9515 82.328 97.9762 83.7551C97.0063 85.1769 95.9614 86.5519 94.8521 87.8801C93.7376 89.203 92.564 90.4686 91.3262 91.6821C90.0884 92.8905 88.7916 94.0415 87.4359 95.1301C86.0802 96.2134 84.6762 97.2342 83.2187 98.1873C81.7611 99.1405 80.2607 100.015 78.7175 100.823C77.1742 101.635 75.5881 102.364 73.9698 103.021C72.3515 103.677 70.7064 104.25 69.0292 104.75C67.3519 105.245 65.6533 105.661 63.9385 105.995C62.2184 106.333 60.4876 106.583 58.7461 106.75C56.9992 106.917 55.2523 107 53.5 107C51.7478 107 50.0009 106.917 48.2593 106.75C46.5178 106.583 44.787 106.333 43.0669 105.995C41.3468 105.661 39.6535 105.245 37.9762 104.75C36.299 104.25 34.6486 103.677 33.0303 103.021C31.412 102.364 29.8312 101.635 28.2879 100.823C26.7447 100.015 25.2389 99.1405 23.7867 98.1873C22.3292 97.2342 20.9253 96.2134 19.5695 95.1301C18.2138 94.0415 16.917 92.8905 15.6792 91.6821C14.4414 90.4686 13.2679 89.203 12.1533 87.8801C11.044 86.5519 9.99912 85.1769 9.02922 83.7551C8.05396 82.328 7.15372 80.8644 6.3285 79.354C5.50328 77.8384 4.75308 76.2915 4.08326 74.7134C3.41344 73.1301 2.82399 71.5155 2.31493 69.8801C1.80586 68.2394 1.38254 66.578 1.03959 64.8957C0.69664 63.2186 0.439428 61.5259 0.267954 59.8228C0.0964794 58.1144 0.0107422 56.4061 0.0107422 54.6925C0.0107422 52.979 0.0964794 51.2707 0.267954 49.5675C0.439428 47.8592 0.69664 46.1665 1.03959 44.4894C1.38254 42.8071 1.80586 41.1509 2.31493 39.5103C2.82399 37.8696 3.41344 36.2603 4.08326 34.6769C4.75308 33.0936 5.50328 31.5467 6.3285 30.0363C7.15372 28.5259 8.05396 27.0571 9.02922 25.63C9.99912 24.2082 11.044 22.8332 12.1533 21.5103C13.2679 20.1873 14.4414 18.9165 15.6792 17.7082C16.917 16.4946 18.2138 15.3436 19.5695 14.2603C20.9253 13.1717 22.3292 12.1509 23.7867 11.203C25.2389 10.2498 26.7447 9.36963 28.2879 8.56234C29.8312 7.75505 31.412 7.02067 33.0303 6.36442C34.6486 5.71338 36.299 5.13525 37.9762 4.63525C39.6535 4.14046 41.3468 3.7238 43.0669 3.39046C44.787 3.05713 46.5178 2.80713 48.2593 2.63525C50.0009 2.46859 51.7478 2.38525 53.5 2.38525C55.2523 2.38525 56.9992 2.46859 58.7461 2.63525C60.4876 2.80713 62.2184 3.05713 63.9385 3.39046C65.6533 3.7238 67.3519 4.14046 69.0292 4.63525C70.7064 5.13525 72.3515 5.71338 73.9698 6.36442C75.5881 7.02067 77.1742 7.75505 78.7175 8.56234C80.2607 9.36963 81.7611 10.2498 83.2187 11.203C84.6762 12.1509 86.0802 13.1717 87.4359 14.2603C88.7916 15.3436 90.0884 16.4946 91.3262 17.7082C92.564 18.9165 93.7376 20.1873 94.8521 21.5103C95.9614 22.8332 97.0063 24.2082 97.9762 25.63C98.9515 27.0571 99.8517 28.5259 100.677 30.0363C101.502 31.5467 102.252 33.0936 102.922 34.6769C103.592 36.2603 104.181 37.8696 104.69 39.5103C105.2 41.1509 105.623 42.8071 105.966 44.4894C106.303 46.1665 106.561 47.8592 106.732 49.5675C106.904 51.2707 106.989 52.979 106.989 54.6925Z" fill="#C46019"/>
</g>
<mask id="mask1_3_10249" style="mask-type:luminance" maskUnits="userSpaceOnUse" x="0" y="0" width="107" height="105">
<path d="M0 0H107V104.708H0V0Z" fill="white"/>
</mask>
<g mask="url(#mask1_3_10249)">
<path d="M106.989 52.3125C106.989 54.026 106.904 55.7344 106.732 57.4375C106.561 59.1406 106.303 60.8333 105.966 62.5156C105.623 64.1979 105.2 65.8542 104.69 67.4948C104.181 69.1354 103.592 70.7448 102.922 72.3281C102.252 73.9115 101.502 75.4583 100.677 76.9688C99.8517 78.4792 98.9515 79.9479 97.9762 81.3698C97.0063 82.7969 95.9614 84.1719 94.8521 85.4948C93.7376 86.8177 92.564 88.0885 91.3262 89.2969C90.0884 90.5104 88.7916 91.6562 87.4359 92.7448C86.0802 93.8333 84.6762 94.8542 83.2187 95.8021C81.7611 96.7552 80.2607 97.6354 78.7175 98.4427C77.1742 99.25 75.5881 99.9792 73.9698 100.635C72.3515 101.292 70.7064 101.87 69.0292 102.365C67.3519 102.865 65.6533 103.281 63.9385 103.615C62.2184 103.948 60.4876 104.198 58.7461 104.37C56.9992 104.536 55.2523 104.62 53.5 104.62C51.7478 104.62 50.0009 104.536 48.2593 104.37C46.5178 104.198 44.787 103.948 43.0669 103.615C41.3468 103.281 39.6535 102.865 37.9762 102.365C36.299 101.87 34.6486 101.292 33.0303 100.635C31.412 99.9792 29.8312 99.25 28.2879 98.4427C26.7447 97.6354 25.2389 96.7552 23.7867 95.8021C22.3292 94.8542 20.9253 93.8333 19.5695 92.7448C18.2138 91.6562 16.917 90.5104 15.6792 89.2969C14.4414 88.0885 13.2679 86.8177 12.1533 85.4948C11.044 84.1719 9.99912 82.7969 9.02922 81.3698C8.05396 79.9479 7.15372 78.4792 6.3285 76.9688C5.50328 75.4583 4.75308 73.9115 4.08326 72.3281C3.41344 70.7448 2.82399 69.1354 2.31493 67.4948C1.80586 65.8542 1.38254 64.1979 1.03959 62.5156C0.69664 60.8333 0.439428 59.1406 0.267954 57.4375C0.0964794 55.7344 0.0107422 54.026 0.0107422 52.3125C0.0107422 50.599 0.0964794 48.8906 0.267954 47.1823C0.439428 45.4792 0.69664 43.7865 1.03959 42.1042C1.38254 40.4271 1.80586 38.7656 2.31493 37.125C2.82399 35.4844 3.41344 33.875 4.08326 32.2917C4.75308 30.7083 5.50328 29.1615 6.3285 27.651C7.15372 26.1406 8.05396 24.6719 9.02922 23.25C9.99912 21.8229 11.044 20.4531 12.1533 19.125C13.2679 17.8021 14.4414 16.5365 15.6792 15.3229C16.917 14.1094 18.2138 12.9635 19.5695 11.875C20.9253 10.7865 22.3292 9.77083 23.7867 8.81771C25.2389 7.86458 26.7447 6.98438 28.2879 6.17708C29.8312 5.36979 31.412 4.64063 33.0303 3.98438C34.6486 3.32813 36.299 2.75 37.9762 2.25521C39.6535 1.75521 41.3468 1.34375 43.0669 1.00521C44.787 0.671875 46.5178 0.421875 48.2593 0.255208C50.0009 0.0885417 51.7478 0 53.5 0C55.2523 0 56.9992 0.0885417 58.7461 0.255208C60.4876 0.421875 62.2184 0.671875 63.9385 1.00521C65.6533 1.34375 67.3519 1.75521 69.0292 2.25521C70.7064 2.75 72.3515 3.32813 73.9698 3.98438C75.5881 4.64063 77.1742 5.36979 78.7175 6.17708C80.2607 6.98438 81.7611 7.86458 83.2187 8.81771C84.6762 9.77083 86.0802 10.7865 87.4359 11.875C88.7916 12.9635 90.0884 14.1094 91.3262 15.3229C92.564 16.5365 93.7376 17.8021 94.8521 19.125C95.9614 20.4531 97.0063 21.8229 97.9762 23.25C98.9515 24.6719 99.8517 26.1406 100.677 27.651C101.502 29.1615 102.252 30.7083 102.922 32.2917C103.592 33.875 104.181 35.4844 104.69 37.125C105.2 38.7656 105.623 40.4271 105.966 42.1042C106.303 43.7865 106.561 45.4792 106.732 47.1823C106.904 48.8906 106.989 50.599 106.989 52.3125Z" fill="#FF8228"/>
</g>
<path d="M98.3247 52.5521C98.3247 53.9792 98.2496 55.401 98.1103 56.8177C97.9656 58.2344 97.7513 59.6406 97.4673 61.0365C97.1833 62.4375 96.8296 63.8177 96.4063 65.1771C95.9883 66.5417 95.4953 67.8802 94.938 69.1979C94.3807 70.5156 93.7591 71.8021 93.0732 73.0573C92.3874 74.3125 91.6372 75.5312 90.828 76.7188C90.0189 77.901 89.1508 79.0417 88.2291 80.1458C87.3074 81.2448 86.3268 82.3021 85.298 83.3073C84.2691 84.3125 83.192 85.2708 82.0667 86.1719C80.9361 87.0781 79.7679 87.9219 78.5569 88.7135C77.3458 89.5052 76.0973 90.2396 74.8166 90.9115C73.5305 91.5833 72.2177 92.1875 70.8673 92.7344C69.5223 93.2812 68.1559 93.7604 66.7627 94.1719C65.3694 94.5833 63.9548 94.9323 62.5294 95.2083C61.0986 95.4896 59.6572 95.6979 58.2104 95.8333C56.7582 95.974 55.306 96.0469 53.8485 96.0469C52.3963 96.0469 50.9388 95.974 49.492 95.8333C48.0398 95.6979 46.6037 95.4896 45.173 95.2083C43.7476 94.9323 42.3329 94.5833 40.9397 94.1719C39.5465 93.7604 38.18 93.2812 36.8297 92.7344C35.4847 92.1875 34.1718 91.5833 32.8857 90.9115C31.5997 90.2396 30.3565 89.5052 29.1455 88.7135C27.9344 87.9219 26.7609 87.0781 25.6356 86.1719C24.5103 85.2708 23.4332 84.3125 22.4044 83.3073C21.3755 82.3021 20.3949 81.2448 19.4732 80.1458C18.5462 79.0417 17.6835 77.901 16.8743 76.7188C16.0652 75.5312 15.315 74.3125 14.6291 73.0573C13.9432 71.8021 13.3216 70.5156 12.7643 69.1979C12.207 67.8802 11.714 66.5417 11.2907 65.1771C10.8727 63.8177 10.5191 62.4375 10.2351 61.0365C9.95105 59.6406 9.73671 58.2344 9.59203 56.8177C9.44735 55.401 9.37769 53.9792 9.37769 52.5521C9.37769 51.1302 9.44735 49.7083 9.59203 48.2917C9.73671 46.875 9.95105 45.4688 10.2351 44.0677C10.5191 42.6719 10.8727 41.2917 11.2907 39.9323C11.714 38.5677 12.207 37.2292 12.7643 35.9115C13.3216 34.5938 13.9432 33.3073 14.6291 32.0521C15.315 30.7969 16.0652 29.5781 16.8743 28.3906C17.6835 27.2083 18.5462 26.0677 19.4732 24.9635C20.3949 23.8646 21.3755 22.8073 22.4044 21.8021C23.4332 20.7969 24.5103 19.8385 25.6356 18.9375C26.7609 18.0313 27.9344 17.1823 29.1455 16.3906C30.3565 15.6042 31.5997 14.8698 32.8857 14.1979C34.1718 13.526 35.4847 12.9167 36.8297 12.375C38.18 11.8281 39.5465 11.349 40.9397 10.9375C42.3329 10.5208 43.7476 10.1771 45.173 9.90104C46.6037 9.61979 48.0398 9.41146 49.492 9.27083C50.9388 9.13542 52.3963 9.0625 53.8485 9.0625C55.306 9.0625 56.7582 9.13542 58.2104 9.27083C59.6572 9.41146 61.0986 9.61979 62.5294 9.90104C63.9548 10.1771 65.3694 10.5208 66.7627 10.9375C68.1559 11.349 69.5223 11.8281 70.8673 12.375C72.2177 12.9167 73.5305 13.526 74.8166 14.1979C76.0973 14.8698 77.3458 15.6042 78.5569 16.3906C79.7679 17.1823 80.9361 18.0313 82.0667 18.9375C83.192 19.8385 84.2691 20.7969 85.298 21.8021C86.3268 22.8073 87.3074 23.8646 88.2291 24.9635C89.1508 26.0677 90.0189 27.2083 90.828 28.3906C91.6372 29.5781 92.3874 30.7969 93.0732 32.0521C93.7591 33.3073 94.3807 34.5938 94.938 35.9115C95.4953 37.2292 95.9883 38.5677 96.4063 39.9323C96.8296 41.2917 97.1833 42.6719 97.4673 44.0677C97.7513 45.4688 97.9656 46.875 98.1103 48.2917C98.2496 49.7083 98.3247 51.1302 98.3247 52.5521Z" fill="#C46019"/>
<path d="M98.3247 50.2603C98.3247 51.6822 98.2496 53.1041 98.1103 54.5208C97.9656 55.9426 97.7513 57.3489 97.4673 58.7447C97.1833 60.1405 96.8296 61.5208 96.4063 62.8853C95.9883 64.2499 95.4953 65.5885 94.938 66.901C94.3807 68.2187 93.7591 69.5051 93.0732 70.7603C92.3874 72.0155 91.6372 73.2395 90.828 74.4218C90.0189 75.6041 89.1508 76.7499 88.2291 77.8489C87.3074 78.953 86.3268 80.0051 85.298 81.0103C84.2691 82.0208 83.192 82.9739 82.0667 83.8801C80.9361 84.7812 79.7679 85.6301 78.5569 86.4218C77.3458 87.2135 76.0973 87.9426 74.8166 88.6145C73.5305 89.2864 72.2177 89.8958 70.8673 90.4426C69.5223 90.9843 68.1559 91.4635 66.7627 91.8801C65.3694 92.2916 63.9548 92.6353 62.5294 92.9166C61.0986 93.1926 59.6572 93.401 58.2104 93.5416C56.7582 93.6822 55.306 93.7499 53.8485 93.7499C52.3963 93.7499 50.9388 93.6822 49.492 93.5416C48.0398 93.401 46.6037 93.1926 45.173 92.9166C43.7476 92.6353 42.3329 92.2916 40.9397 91.8801C39.5465 91.4635 38.18 90.9843 36.8297 90.4426C35.4847 89.8958 34.1718 89.2864 32.8857 88.6145C31.5997 87.9426 30.3565 87.2135 29.1455 86.4218C27.9344 85.6301 26.7609 84.7812 25.6356 83.8801C24.5103 82.9739 23.4332 82.0208 22.4044 81.0103C21.3755 80.0051 20.3949 78.953 19.4732 77.8489C18.5462 76.7499 17.6835 75.6041 16.8743 74.4218C16.0652 73.2395 15.315 72.0155 14.6291 70.7603C13.9432 69.5051 13.3216 68.2187 12.7643 66.901C12.207 65.5885 11.714 64.2499 11.2907 62.8853C10.8727 61.5208 10.5191 60.1405 10.2351 58.7447C9.95105 57.3489 9.73671 55.9426 9.59203 54.5208C9.44735 53.1041 9.37769 51.6822 9.37769 50.2603C9.37769 48.8333 9.44735 47.4166 9.59203 45.9947C9.73671 44.578 9.95105 43.1718 10.2351 41.776C10.5191 40.3801 10.8727 38.9999 11.2907 37.6353C11.714 36.2708 12.207 34.9322 12.7643 33.6145C13.3216 32.302 13.9432 31.0155 14.6291 29.7603C15.315 28.4999 16.0652 27.2812 16.8743 26.0989C17.6835 24.9114 18.5462 23.7708 19.4732 22.6718C20.3949 21.5676 21.3755 20.5155 22.4044 19.5051C23.4332 18.4999 24.5103 17.5468 25.6356 16.6405C26.7609 15.7395 27.9344 14.8905 29.1455 14.0989C30.3565 13.3072 31.5997 12.578 32.8857 11.9062C34.1718 11.2343 35.4847 10.6249 36.8297 10.078C38.18 9.53638 39.5465 9.05721 40.9397 8.64054C42.3329 8.22908 43.7476 7.88013 45.173 7.60409C46.6037 7.32804 48.0398 7.11971 49.492 6.97909C50.9388 6.83846 52.3963 6.77075 53.8485 6.77075C55.306 6.77075 56.7582 6.83846 58.2104 6.97909C59.6572 7.11971 61.0986 7.32804 62.5294 7.60409C63.9548 7.88013 65.3694 8.22908 66.7627 8.64054C68.1559 9.05721 69.5223 9.53638 70.8673 10.078C72.2177 10.6249 73.5305 11.2343 74.8166 11.9062C76.0973 12.578 77.3458 13.3072 78.5569 14.0989C79.7679 14.8905 80.9361 15.7395 82.0667 16.6405C83.192 17.5468 84.2691 18.4999 85.298 19.5051C86.3268 20.5155 87.3074 21.5676 88.2291 22.6718C89.1508 23.7708 90.0189 24.9114 90.828 26.0989C91.6372 27.2812 92.3874 28.4999 93.0732 29.7603C93.7591 31.0155 94.3807 32.302 94.938 33.6145C95.4953 34.9322 95.9883 36.2708 96.4063 37.6353C96.8296 38.9999 97.1833 40.3801 97.4673 41.776C97.7513 43.1718 97.9656 44.578 98.1103 45.9947C98.2496 47.4166 98.3247 48.8333 98.3247 50.2603Z" fill="white"/>
<path fill-rule="evenodd" clip-rule="evenodd" d="M98.3137 51.1666C97.8154 74.7655 78.1012 93.7499 53.8483 93.7499C29.6007 93.7499 9.88117 74.7655 9.38818 51.1666C9.88117 27.5676 29.6007 8.58325 53.8483 8.58325C78.1012 8.58325 97.8154 27.5676 98.3137 51.1666Z" fill="#FFCD59"/>
<path fill-rule="evenodd" clip-rule="evenodd" d="M26.3966 20.9168C30.4262 18.1668 34.9596 17.7137 36.5243 19.9064C38.089 22.0991 36.0956 26.1043 32.066 28.8543C28.0363 31.6043 23.503 32.0574 21.9383 29.8647C20.3736 27.6772 22.3723 23.6668 26.3966 20.9168ZM19.9449 32.6824C21.9543 32.6824 23.5833 34.2762 23.5833 36.2397C23.5833 38.2032 21.9543 39.797 19.9449 39.797C17.9354 39.797 16.3064 38.2032 16.3064 36.2397C16.3064 34.2762 17.9354 32.6824 19.9449 32.6824Z" fill="white"/>
<path fill-rule="evenodd" clip-rule="evenodd" d="M32.5748 31.5884C35.4953 28.729 40.2751 28.729 43.1955 31.5884L53.8484 42.005L64.5066 31.5884C67.427 28.729 72.2068 28.729 75.1273 31.5884C78.0477 34.4425 78.0477 39.1196 75.1273 41.9738L64.4744 52.3957L75.1273 62.8123C78.0477 65.6717 78.0477 70.3436 75.1273 73.1978C72.2068 76.0571 67.427 76.0571 64.5066 73.1978L53.8484 62.7811L43.1955 73.1978C40.2751 76.0571 35.4953 76.0571 32.5748 73.1978C29.6544 70.3436 29.6544 65.6717 32.5748 62.8123L43.2277 52.3957L32.5748 41.9738C29.6544 39.1196 29.6544 34.4425 32.5748 31.5884Z" fill="#C46019"/>
<path fill-rule="evenodd" clip-rule="evenodd" d="M76.965 39.0104C76.6167 40.0938 76.0058 41.1146 75.127 41.974L64.4741 52.3958V56.8542L75.127 67.2708C76.0058 68.1302 76.6167 69.151 76.965 70.2344C76.6167 71.3229 76.0058 72.3438 75.127 73.1979C72.2066 76.0573 67.4267 76.0573 64.5063 73.1979L53.8481 62.7812L43.1952 73.1979C40.2748 76.0573 35.495 76.0573 32.5746 73.1979C31.6957 72.3438 31.0849 71.3229 30.7312 70.2344C31.0849 69.151 31.6957 68.1302 32.5746 67.2708L43.2274 56.8542V52.3958L32.5746 41.974C31.6957 41.1146 31.0849 40.0938 30.7312 39.0104C31.0849 37.9219 31.6957 36.901 32.5746 36.0469C35.495 33.1875 40.2748 33.1875 43.1952 36.0469L53.8481 46.4635L64.5063 36.0469C67.4267 33.1875 72.2066 33.1875 75.127 36.0469C76.0058 36.901 76.6167 37.9219 76.965 39.0104Z" fill="#FF8228"/>
</svg>
