<svg width="107" height="107" viewBox="0 0 107 107" fill="none" xmlns="http://www.w3.org/2000/svg">
<mask id="mask0_3_10226" style="mask-type:luminance" maskUnits="userSpaceOnUse" x="24" y="24" width="62" height="61">
<path d="M24.4298 24.7085H85.4693V84.6408H24.4298V24.7085Z" fill="white"/>
</mask>
<g mask="url(#mask0_3_10226)">
<path d="M85.0996 51.8595C85.4264 54.9585 84.6602 60.8127 83.4973 64.1043C80.6359 72.2085 74.9344 78.3439 66.9608 81.9272C63.2902 83.5731 59.9571 84.2866 55.0005 84.4845C51.362 84.6304 49.9848 84.5158 47.6699 83.8856C41.7755 82.2658 37.8959 80.0262 33.6144 75.771C22.0345 64.2606 21.7237 46.3908 32.8963 34.5106C41.2289 25.6616 52.7552 22.6356 64.7531 26.172C75.0844 29.2137 83.8724 40.3127 85.0996 51.8595ZM82.0291 54.7762C82.0398 49.6981 81.5147 47.4897 79.1998 42.8908C74.7629 34.0731 67.084 28.6668 57.744 27.7814C50.2849 27.0835 43.8761 28.9845 38.0138 33.6252C26.9644 42.3908 24.478 57.1043 32.0229 69.0314C38.2924 78.9272 49.9205 83.6147 61.3611 80.8595C73.2678 77.995 82.0077 66.9585 82.0291 54.7762Z" fill="black"/>
</g>
<mask id="mask1_3_10226" style="mask-type:luminance" maskUnits="userSpaceOnUse" x="0" y="2" width="107" height="105">
<path d="M0 2.04175H107V107H0V2.04175Z" fill="white"/>
</mask>
<g mask="url(#mask1_3_10226)">
<path d="M106.989 54.6928C106.989 56.4063 106.904 58.1147 106.732 59.823C106.561 61.5261 106.303 63.2188 105.966 64.8959C105.623 66.5782 105.194 68.2397 104.691 69.8803C104.181 71.5157 103.592 73.1303 102.922 74.7136C102.247 76.2918 101.502 77.8386 100.677 79.349C99.8518 80.8647 98.9515 82.3282 97.9763 83.7553C97.001 85.1772 95.9614 86.5522 94.8522 87.8803C93.7376 89.2032 92.5641 90.4688 91.3263 91.6824C90.0884 92.8907 88.7917 94.0418 87.4359 95.1303C86.0802 96.2136 84.6763 97.2345 83.2187 98.1876C81.7612 99.1407 80.2608 100.016 78.7175 100.823C77.1743 101.635 75.5881 102.365 73.9698 103.021C72.3516 103.677 70.7065 104.25 69.0292 104.75C67.352 105.245 65.6533 105.662 63.9386 105.995C62.2185 106.333 60.4877 106.583 58.7461 106.75C56.9992 106.917 55.2523 107 53.5001 107C51.7478 107 50.0009 106.917 48.2594 106.75C46.5179 106.583 44.787 106.333 43.0669 105.995C41.3468 105.662 39.6535 105.245 37.9763 104.75C36.2991 104.25 34.6486 103.677 33.0303 103.021C31.412 102.365 29.8313 101.635 28.288 100.823C26.7394 100.016 25.239 99.1407 23.7868 98.1876C22.3293 97.2345 20.92 96.2136 19.5696 95.1303C18.2139 94.0418 16.9171 92.8907 15.6793 91.6824C14.4414 90.4688 13.2626 89.2032 12.1533 87.8803C11.0441 86.5522 9.99918 85.1772 9.02928 83.7553C8.05402 82.3282 7.15378 80.8647 6.32856 79.349C5.50334 77.8386 4.75314 76.2918 4.08332 74.7136C3.4135 73.1303 2.82405 71.5157 2.31499 69.8803C1.80593 68.2397 1.3826 66.5782 1.03965 64.8959C0.696701 63.2188 0.439489 61.5261 0.268015 59.823C0.0965404 58.1147 0.0108032 56.4063 0.0108032 54.6928C0.0108032 52.9792 0.0965404 51.2709 0.268015 49.5678C0.439489 47.8595 0.696701 46.1667 1.03965 44.4897C1.3826 42.8074 1.80593 41.1511 2.31499 39.5105C2.82405 37.8699 3.4135 36.2605 4.08332 34.6772C4.75314 33.0938 5.50334 31.547 6.32856 30.0365C7.15378 28.5261 8.05402 27.0574 9.02928 25.6303C9.99918 24.2084 11.0441 22.8334 12.1533 21.5105C13.2626 20.1876 14.4414 18.9167 15.6793 17.7084C16.9171 16.4949 18.2139 15.3438 19.5696 14.2605C20.92 13.172 22.3293 12.1511 23.7868 11.2032C25.239 10.2501 26.7394 9.36987 28.288 8.56258C29.8313 7.75529 31.412 7.02091 33.0303 6.36466C34.6486 5.71362 36.2991 5.1355 37.9763 4.6355C39.6535 4.14071 41.3468 3.72404 43.0669 3.39071C44.787 3.05737 46.5179 2.80737 48.2594 2.6355C50.0009 2.46883 51.7478 2.3855 53.5001 2.3855C55.2523 2.3855 56.9992 2.46883 58.7461 2.6355C60.4877 2.80737 62.2185 3.05737 63.9386 3.39071C65.6533 3.72404 67.352 4.14071 69.0292 4.6355C70.7065 5.1355 72.3516 5.71362 73.9698 6.36466C75.5881 7.02091 77.1743 7.75529 78.7175 8.56258C80.2608 9.36987 81.7612 10.2501 83.2187 11.2032C84.6763 12.1511 86.0802 13.172 87.4359 14.2605C88.7917 15.3438 90.0884 16.4949 91.3263 17.7084C92.5641 18.9167 93.7376 20.1876 94.8522 21.5105C95.9614 22.8334 97.001 24.2084 97.9763 25.6303C98.9515 27.0574 99.8518 28.5261 100.677 30.0365C101.502 31.547 102.247 33.0938 102.922 34.6772C103.592 36.2605 104.181 37.8699 104.691 39.5105C105.194 41.1511 105.623 42.8074 105.966 44.4897C106.303 46.1667 106.561 47.8595 106.732 49.5678C106.904 51.2709 106.989 52.9792 106.989 54.6928Z" fill="#C46019"/>
</g>
<mask id="mask2_3_10226" style="mask-type:luminance" maskUnits="userSpaceOnUse" x="0" y="0" width="107" height="105">
<path d="M0 0H107V104.708H0V0Z" fill="white"/>
</mask>
<g mask="url(#mask2_3_10226)">
<path d="M106.989 52.3125C106.989 54.026 106.904 55.7344 106.732 57.4375C106.561 59.1406 106.303 60.8333 105.966 62.5156C105.623 64.1979 105.194 65.8542 104.691 67.4948C104.181 69.1354 103.592 70.7448 102.922 72.3281C102.247 73.9115 101.502 75.4583 100.677 76.9688C99.8518 78.4792 98.9515 79.9479 97.9763 81.3698C97.001 82.7969 95.9614 84.1719 94.8522 85.4948C93.7376 86.8177 92.5641 88.0885 91.3263 89.2969C90.0884 90.5104 88.7917 91.6563 87.4359 92.7448C86.0802 93.8333 84.6763 94.8542 83.2187 95.8021C81.7612 96.7552 80.2608 97.6354 78.7175 98.4427C77.1743 99.25 75.5881 99.9844 73.9698 100.635C72.3516 101.292 70.7065 101.87 69.0292 102.365C67.352 102.865 65.6533 103.281 63.9386 103.615C62.2185 103.948 60.4877 104.198 58.7461 104.37C56.9992 104.536 55.2523 104.62 53.5001 104.62C51.7478 104.62 50.0009 104.536 48.2594 104.37C46.5179 104.198 44.787 103.948 43.0669 103.615C41.3468 103.281 39.6535 102.865 37.9763 102.365C36.2991 101.87 34.6486 101.292 33.0303 100.635C31.412 99.9844 29.8313 99.25 28.288 98.4427C26.7394 97.6354 25.239 96.7552 23.7868 95.8021C22.3293 94.8542 20.92 93.8333 19.5696 92.7448C18.2139 91.6563 16.9171 90.5104 15.6793 89.2969C14.4414 88.0885 13.2626 86.8177 12.1533 85.4948C11.0441 84.1719 9.99918 82.7969 9.02928 81.3698C8.05402 79.9479 7.15378 78.4792 6.32856 76.9688C5.50334 75.4583 4.75314 73.9115 4.08332 72.3281C3.4135 70.7448 2.82405 69.1354 2.31499 67.4948C1.80593 65.8542 1.3826 64.1979 1.03965 62.5156C0.696701 60.8333 0.439489 59.1406 0.268015 57.4375C0.0965404 55.7344 0.0108032 54.026 0.0108032 52.3125C0.0108032 50.599 0.0965404 48.8906 0.268015 47.1823C0.439489 45.4792 0.696701 43.7865 1.03965 42.1042C1.3826 40.4271 1.80593 38.7656 2.31499 37.125C2.82405 35.4844 3.4135 33.875 4.08332 32.2917C4.75314 30.7083 5.50334 29.1615 6.32856 27.651C7.15378 26.1406 8.05402 24.6719 9.02928 23.25C9.99918 21.8229 11.0441 20.4531 12.1533 19.125C13.2626 17.8021 14.4414 16.5365 15.6793 15.3229C16.9171 14.1094 18.2139 12.9635 19.5696 11.875C20.92 10.7865 22.3293 9.77083 23.7868 8.81771C25.239 7.86458 26.7394 6.98438 28.288 6.17708C29.8313 5.36979 31.412 4.64063 33.0303 3.98438C34.6486 3.32813 36.2991 2.75 37.9763 2.25521C39.6535 1.75521 41.3468 1.34375 43.0669 1.00521C44.787 0.671875 46.5179 0.421875 48.2594 0.255208C50.0009 0.0885417 51.7478 0 53.5001 0C55.2523 0 56.9992 0.0885417 58.7461 0.255208C60.4877 0.421875 62.2185 0.671875 63.9386 1.00521C65.6533 1.34375 67.352 1.75521 69.0292 2.25521C70.7065 2.75 72.3516 3.32813 73.9698 3.98438C75.5881 4.64063 77.1743 5.36979 78.7175 6.17708C80.2608 6.98438 81.7612 7.86458 83.2187 8.81771C84.6763 9.77083 86.0802 10.7865 87.4359 11.875C88.7917 12.9635 90.0884 14.1094 91.3263 15.3229C92.5641 16.5365 93.7376 17.8021 94.8522 19.125C95.9614 20.4531 97.001 21.8229 97.9763 23.25C98.9515 24.6719 99.8518 26.1406 100.677 27.651C101.502 29.1615 102.247 30.7083 102.922 32.2917C103.592 33.875 104.181 35.4844 104.691 37.125C105.194 38.7656 105.623 40.4271 105.966 42.1042C106.303 43.7865 106.561 45.4792 106.732 47.1823C106.904 48.8906 106.989 50.599 106.989 52.3125Z" fill="#FF8228"/>
</g>
<path d="M98.3244 52.5521C98.3244 53.9792 98.2494 55.401 98.11 56.8177C97.9654 58.2344 97.751 59.6406 97.467 61.0365C97.183 62.4375 96.8293 63.8177 96.406 65.1771C95.9827 66.5417 95.4951 67.8802 94.9378 69.1979C94.3805 70.5156 93.7589 71.8021 93.073 73.0573C92.3871 74.3125 91.6369 75.5313 90.8277 76.7188C90.0186 77.901 89.1505 79.0417 88.2288 80.1458C87.3018 81.2448 86.3265 82.3021 85.2977 83.3073C84.2688 84.3125 83.1918 85.2708 82.0611 86.1719C80.9358 87.0781 79.7676 87.9219 78.5566 88.7135C77.3456 89.5052 76.097 90.2396 74.8163 90.9115C73.5303 91.5833 72.2174 92.1875 70.867 92.7344C69.522 93.2813 68.1556 93.7604 66.7624 94.1719C65.3638 94.5833 63.9545 94.9323 62.5237 95.2083C61.0984 95.4896 59.6569 95.6979 58.2101 95.8333C56.7579 95.974 55.3057 96.0469 53.8482 96.0469C52.396 96.0469 50.9385 95.974 49.4917 95.8333C48.0395 95.6979 46.6034 95.4896 45.1727 95.2083C43.7473 94.9323 42.3326 94.5833 40.9394 94.1719C39.5462 93.7604 38.1744 93.2813 36.8294 92.7344C35.4844 92.1875 34.1715 91.5833 32.8855 90.9115C31.5994 90.2396 30.3509 89.5052 29.1398 88.7135C27.9288 87.9219 26.7606 87.0781 25.6353 86.1719C24.51 85.2708 23.433 84.3125 22.4041 83.3073C21.3753 82.3021 20.3946 81.2448 19.473 80.1458C18.5459 79.0417 17.6832 77.901 16.8741 76.7188C16.0649 75.5313 15.3147 74.3125 14.6288 73.0573C13.9429 71.8021 13.3213 70.5156 12.764 69.1979C12.2067 67.8802 11.7137 66.5417 11.2904 65.1771C10.8671 63.8177 10.5134 62.4375 10.2294 61.0365C9.94542 59.6406 9.73643 58.2344 9.59175 56.8177C9.44707 55.401 9.37741 53.9792 9.37741 52.5521C9.37741 51.1302 9.44707 49.7083 9.59175 48.2917C9.73643 46.875 9.94542 45.4688 10.2294 44.0677C10.5134 42.6719 10.8671 41.2917 11.2904 39.9323C11.7137 38.5677 12.2067 37.2292 12.764 35.9115C13.3213 34.5937 13.9429 33.3073 14.6288 32.0521C15.3147 30.7969 16.0649 29.5781 16.8741 28.3906C17.6832 27.2083 18.5459 26.0677 19.473 24.9635C20.3946 23.8646 21.3753 22.8073 22.4041 21.8021C23.433 20.7969 24.51 19.8385 25.6353 18.9375C26.7606 18.0313 27.9288 17.1823 29.1398 16.3906C30.3509 15.6042 31.5994 14.8698 32.8855 14.1979C34.1715 13.526 35.4844 12.9219 36.8294 12.375C38.1744 11.8281 39.5462 11.349 40.9394 10.9375C42.3326 10.5208 43.7473 10.1771 45.1727 9.90104C46.6034 9.61979 48.0395 9.41146 49.4917 9.27083C50.9385 9.13542 52.396 9.0625 53.8482 9.0625C55.3057 9.0625 56.7579 9.13542 58.2101 9.27083C59.6569 9.41146 61.0984 9.61979 62.5237 9.90104C63.9545 10.1771 65.3638 10.5208 66.7624 10.9375C68.1556 11.349 69.522 11.8281 70.867 12.375C72.2174 12.9219 73.5303 13.526 74.8163 14.1979C76.097 14.8698 77.3456 15.6042 78.5566 16.3906C79.7676 17.1823 80.9358 18.0313 82.0611 18.9375C83.1918 19.8385 84.2688 20.7969 85.2977 21.8021C86.3265 22.8073 87.3018 23.8646 88.2288 24.9635C89.1505 26.0677 90.0186 27.2083 90.8277 28.3906C91.6369 29.5781 92.3871 30.7969 93.073 32.0521C93.7589 33.3073 94.3805 34.5937 94.9378 35.9115C95.4951 37.2292 95.9827 38.5677 96.406 39.9323C96.8293 41.2917 97.183 42.6719 97.467 44.0677C97.751 45.4688 97.9654 46.875 98.11 48.2917C98.2494 49.7083 98.3244 51.1302 98.3244 52.5521Z" fill="#C46019"/>
<path d="M98.3244 50.2606C98.3244 51.6825 98.2494 53.1043 98.11 54.521C97.9654 55.9429 97.751 57.3491 97.467 58.745C97.183 60.1408 96.8293 61.521 96.406 62.8856C95.9827 64.2502 95.4951 65.5887 94.9378 66.9012C94.3805 68.2189 93.7589 69.5054 93.073 70.7606C92.3871 72.0158 91.6369 73.2397 90.8277 74.422C90.0186 75.6043 89.1505 76.7502 88.2288 77.8491C87.3018 78.9533 86.3265 80.0054 85.2977 81.0106C84.2688 82.021 83.1918 82.9741 82.0611 83.8804C80.9358 84.7814 79.7676 85.6304 78.5566 86.422C77.3456 87.2137 76.097 87.9429 74.8163 88.6147C73.5303 89.2866 72.2174 89.896 70.867 90.4377C69.522 90.9845 68.1556 91.4637 66.7624 91.8804C65.3638 92.2918 63.9545 92.6356 62.5237 92.9168C61.0984 93.1929 59.6569 93.4012 58.2101 93.5418C56.7579 93.6825 55.3057 93.7502 53.8482 93.7502C52.396 93.7502 50.9385 93.6825 49.4917 93.5418C48.0395 93.4012 46.6034 93.1929 45.1727 92.9168C43.7473 92.6356 42.3326 92.2918 40.9394 91.8804C39.5462 91.4637 38.1744 90.9845 36.8294 90.4377C35.4844 89.896 34.1715 89.2866 32.8855 88.6147C31.5994 87.9429 30.3509 87.2137 29.1398 86.422C27.9288 85.6304 26.7606 84.7814 25.6353 83.8804C24.51 82.9741 23.433 82.021 22.4041 81.0106C21.3753 80.0054 20.3946 78.9533 19.473 77.8491C18.5459 76.7502 17.6832 75.6043 16.8741 74.422C16.0649 73.2397 15.3147 72.0158 14.6288 70.7606C13.9429 69.5054 13.3213 68.2189 12.764 66.9012C12.2067 65.5887 11.7137 64.2502 11.2904 62.8856C10.8671 61.521 10.5134 60.1408 10.2294 58.745C9.94542 57.3491 9.73643 55.9429 9.59175 54.521C9.44707 53.1043 9.37741 51.6825 9.37741 50.2606C9.37741 48.8335 9.44707 47.4168 9.59175 45.995C9.73643 44.5783 9.94542 43.172 10.2294 41.7762C10.5134 40.3804 10.8671 39.0002 11.2904 37.6356C11.7137 36.271 12.2067 34.9325 12.764 33.6147C13.3213 32.3022 13.9429 31.0158 14.6288 29.7606C15.3147 28.5002 16.0649 27.2814 16.8741 26.0991C17.6832 24.9116 18.5459 23.771 19.473 22.672C20.3946 21.5679 21.3753 20.5158 22.4041 19.5054C23.433 18.5002 24.51 17.547 25.6353 16.6408C26.7606 15.7397 27.9288 14.8908 29.1398 14.0991C30.3509 13.3075 31.5994 12.5783 32.8855 11.9064C34.1715 11.2345 35.4844 10.6252 36.8294 10.0783C38.1744 9.53662 39.5462 9.05745 40.9394 8.64079C42.3326 8.22933 43.7473 7.88037 45.1727 7.60433C46.6034 7.32829 48.0395 7.11995 49.4917 6.97933C50.9385 6.8387 52.396 6.771 53.8482 6.771C55.3057 6.771 56.7579 6.8387 58.2101 6.97933C59.6569 7.11995 61.0984 7.32829 62.5237 7.60433C63.9545 7.88037 65.3638 8.22933 66.7624 8.64079C68.1556 9.05745 69.522 9.53662 70.867 10.0783C72.2174 10.6252 73.5303 11.2345 74.8163 11.9064C76.097 12.5783 77.3456 13.3075 78.5566 14.0991C79.7676 14.8908 80.9358 15.7397 82.0611 16.6408C83.1918 17.547 84.2688 18.5002 85.2977 19.5054C86.3265 20.5158 87.3018 21.5679 88.2288 22.672C89.1505 23.771 90.0186 24.9116 90.8277 26.0991C91.6369 27.2814 92.3871 28.5002 93.073 29.7606C93.7589 31.0158 94.3805 32.3022 94.9378 33.6147C95.4951 34.9325 95.9827 36.271 96.406 37.6356C96.8293 39.0002 97.183 40.3804 97.467 41.7762C97.751 43.172 97.9654 44.5783 98.11 45.995C98.2494 47.4168 98.3244 48.8335 98.3244 50.2606Z" fill="white"/>
<path fill-rule="evenodd" clip-rule="evenodd" d="M98.3137 51.1668C97.8154 74.7658 78.1012 93.7502 53.8483 93.7502C29.6008 93.7502 9.8812 74.7658 9.38821 51.1668C9.8812 27.5679 29.6008 8.5835 53.8483 8.5835C78.1012 8.5835 97.8154 27.5679 98.3137 51.1668Z" fill="#FFCD59"/>
<path fill-rule="evenodd" clip-rule="evenodd" d="M26.3963 20.9168C30.4259 18.1668 34.9593 17.7137 36.524 19.9064C38.0887 22.0991 36.0953 26.1043 32.0656 28.8543C28.036 31.6043 23.5026 32.0574 21.9379 29.8647C20.3732 27.6772 22.372 23.6668 26.3963 20.9168ZM19.9445 32.6824C21.954 32.6824 23.583 34.2762 23.583 36.2397C23.583 38.2032 21.954 39.7918 19.9445 39.7918C17.9351 39.7918 16.3061 38.2032 16.3061 36.2397C16.3061 34.2762 17.9351 32.6824 19.9445 32.6824Z" fill="white"/>
<path fill-rule="evenodd" clip-rule="evenodd" d="M60.1821 56.5781V60.7396C60.1821 64.1563 57.3475 66.9323 53.8483 66.9323C50.3545 66.9323 47.5198 64.1563 47.5198 60.7396V51.4635C47.5198 48.0469 50.3545 45.2708 53.8483 45.2708C55.4505 45.2708 56.9616 44.6615 58.0923 43.5573C59.223 42.4479 59.8499 40.9687 59.8499 39.4063C59.8499 37.8437 59.223 36.3646 58.0923 35.2604C56.9616 34.1563 55.4505 33.5417 53.8483 33.5417C52.2515 33.5417 50.7403 34.1563 49.6097 35.2604C48.479 36.3646 47.8521 37.8437 47.8521 39.4063C47.8521 42.8281 45.0174 45.599 41.5182 45.599C38.0244 45.599 35.1898 42.8281 35.1898 39.4063C35.1898 34.5521 37.1456 29.9323 40.6555 26.5052C44.1654 23.0729 48.8863 21.1562 53.8483 21.1562C58.8157 21.1562 63.5366 23.0729 67.0465 26.5052C70.5563 29.9323 72.5122 34.5521 72.5122 39.4063C72.5122 44.2604 70.5563 48.8802 67.0465 52.3125C65.1013 54.2135 62.7543 55.6719 60.1821 56.5781ZM53.8483 69.7917C57.7601 69.7917 60.927 72.8906 60.927 76.7083C60.927 80.5313 57.7601 83.6302 53.8483 83.6302C49.9419 83.6302 46.775 80.5313 46.775 76.7083C46.775 72.8906 49.9419 69.7917 53.8483 69.7917Z" fill="#C46019"/>
<path fill-rule="evenodd" clip-rule="evenodd" d="M60.1822 56.5783V60.7397C60.1822 64.1564 57.3475 66.9325 53.8484 66.9325C50.3546 66.9325 47.5199 64.1564 47.5199 60.7397V55.922C47.5199 52.5054 50.3546 49.7293 53.8484 49.7293C55.4506 49.7293 56.9617 49.12 58.0924 48.0158C59.223 46.9064 59.85 45.4272 59.85 43.8647C59.85 43.0887 59.6946 42.3335 59.3999 41.6356C59.6946 40.9377 59.85 40.1825 59.85 39.4064C59.85 37.8439 59.223 36.3647 58.0924 35.2606C56.9617 34.1564 55.4506 33.5418 53.8484 33.5418C52.2515 33.5418 50.7404 34.1564 49.6098 35.2606C48.4791 36.3647 47.8522 37.8439 47.8522 39.4064C47.8522 42.8283 45.0175 45.5991 41.5183 45.5991C38.6033 45.5991 36.1437 43.6668 35.4095 41.0418C36.0151 37.245 37.8316 33.7189 40.6556 30.9585C44.1655 27.5314 48.8864 25.6147 53.8484 25.6147C58.8158 25.6147 63.5367 27.5314 67.0466 30.9585C70.0152 33.8647 71.8693 37.6147 72.373 41.6356C71.8693 45.6616 70.0152 49.4116 67.0466 52.3127C65.1014 54.2137 62.7543 55.672 60.1822 56.5783ZM53.8484 74.2502C56.9617 74.2502 59.6035 76.2137 60.552 78.9377C59.6035 81.6668 56.9617 83.6304 53.8484 83.6304C50.7404 83.6304 48.0986 81.6668 47.1502 78.9377C48.0986 76.2137 50.7404 74.2502 53.8484 74.2502Z" fill="#FF8228"/>
</svg>
