<svg width="107" height="107" viewBox="0 0 107 107" fill="none" xmlns="http://www.w3.org/2000/svg">
<mask id="mask0_3_10226" style="mask-type:luminance" maskUnits="userSpaceOnUse" x="24" y="24" width="62" height="61">
<path d="M24.4298 24.7085H85.4693V84.6408H24.4298V24.7085Z" fill="white"/>
</mask>
<g mask="url(#mask0_3_10226)">
<path d="M85.0995 51.8597C85.4264 54.9586 84.6601 60.8128 83.4973 64.1044C80.6358 72.2086 74.9343 78.344 66.9607 81.9274C63.2901 83.5732 59.9571 84.2867 55.0004 84.4847C51.3619 84.6305 49.9848 84.5159 47.6699 83.8857C41.7754 82.2659 37.8958 80.0263 33.6143 75.7711C22.0344 64.2607 21.7236 46.3909 32.8963 34.5107C41.2289 25.6617 52.7552 22.6357 64.753 26.1722C75.0843 29.2138 83.8724 40.3128 85.0995 51.8597ZM82.029 54.7763C82.0398 49.6982 81.5146 47.4899 79.1997 42.8909C74.7628 34.0732 67.084 28.6669 57.744 27.7815C50.2848 27.0836 43.876 28.9847 38.0137 33.6253C26.9643 42.3909 24.478 57.1044 32.0228 69.0315C38.2924 78.9274 49.9205 83.6149 61.361 80.8597C73.2678 77.9951 82.0076 66.9586 82.029 54.7763Z" fill="black"/>
</g>
<mask id="mask1_3_10226" style="mask-type:luminance" maskUnits="userSpaceOnUse" x="0" y="2" width="107" height="105">
<path d="M0 2.04175H107V107H0V2.04175Z" fill="white"/>
</mask>
<g mask="url(#mask1_3_10226)">
<path d="M106.989 54.6928C106.989 56.4063 106.904 58.1147 106.732 59.823C106.561 61.5261 106.303 63.2188 105.966 64.8959C105.623 66.5782 105.194 68.2397 104.69 69.8803C104.181 71.5157 103.592 73.1303 102.922 74.7136C102.247 76.2917 101.502 77.8386 100.677 79.349C99.8517 80.8647 98.9515 82.3282 97.9762 83.7553C97.0009 85.1772 95.9614 86.5522 94.8521 87.8803C93.7376 89.2032 92.564 90.4688 91.3262 91.6824C90.0884 92.8907 88.7916 94.0417 87.4359 95.1303C86.0802 96.2136 84.6762 97.2345 83.2187 98.1876C81.7611 99.1407 80.2607 100.016 78.7175 100.823C77.1742 101.635 75.5881 102.365 73.9698 103.021C72.3515 103.677 70.7064 104.25 69.0292 104.75C67.3519 105.245 65.6533 105.662 63.9385 105.995C62.2184 106.333 60.4876 106.583 58.7461 106.75C56.9992 106.917 55.2523 107 53.5 107C51.7478 107 50.0009 106.917 48.2593 106.75C46.5178 106.583 44.787 106.333 43.0669 105.995C41.3468 105.662 39.6535 105.245 37.9762 104.75C36.299 104.25 34.6486 103.677 33.0303 103.021C31.412 102.365 29.8312 101.635 28.2879 100.823C26.7393 100.016 25.2389 99.1407 23.7867 98.1876C22.3292 97.2345 20.9199 96.2136 19.5695 95.1303C18.2138 94.0417 16.917 92.8907 15.6792 91.6824C14.4414 90.4688 13.2625 89.2032 12.1533 87.8803C11.044 86.5522 9.99912 85.1772 9.02922 83.7553C8.05396 82.3282 7.15372 80.8647 6.3285 79.349C5.50328 77.8386 4.75308 76.2917 4.08326 74.7136C3.41344 73.1303 2.82399 71.5157 2.31493 69.8803C1.80586 68.2397 1.38254 66.5782 1.03959 64.8959C0.69664 63.2188 0.439428 61.5261 0.267954 59.823C0.0964794 58.1147 0.0107422 56.4063 0.0107422 54.6928C0.0107422 52.9792 0.0964794 51.2709 0.267954 49.5678C0.439428 47.8595 0.69664 46.1667 1.03959 44.4897C1.38254 42.8074 1.80586 41.1511 2.31493 39.5105C2.82399 37.8699 3.41344 36.2605 4.08326 34.6772C4.75308 33.0938 5.50328 31.547 6.3285 30.0365C7.15372 28.5261 8.05396 27.0574 9.02922 25.6303C9.99912 24.2084 11.044 22.8334 12.1533 21.5105C13.2625 20.1876 14.4414 18.9167 15.6792 17.7084C16.917 16.4949 18.2138 15.3438 19.5695 14.2605C20.9199 13.172 22.3292 12.1511 23.7867 11.2032C25.2389 10.2501 26.7393 9.36987 28.2879 8.56258C29.8312 7.75529 31.412 7.02091 33.0303 6.36466C34.6486 5.71362 36.299 5.1355 37.9762 4.6355C39.6535 4.14071 41.3468 3.72404 43.0669 3.39071C44.787 3.05737 46.5178 2.80737 48.2593 2.6355C50.0009 2.46883 51.7478 2.3855 53.5 2.3855C55.2523 2.3855 56.9992 2.46883 58.7461 2.6355C60.4876 2.80737 62.2184 3.05737 63.9385 3.39071C65.6533 3.72404 67.3519 4.14071 69.0292 4.6355C70.7064 5.1355 72.3515 5.71362 73.9698 6.36466C75.5881 7.02091 77.1742 7.75529 78.7175 8.56258C80.2607 9.36987 81.7611 10.2501 83.2187 11.2032C84.6762 12.1511 86.0802 13.172 87.4359 14.2605C88.7916 15.3438 90.0884 16.4949 91.3262 17.7084C92.564 18.9167 93.7376 20.1876 94.8521 21.5105C95.9614 22.8334 97.0009 24.2084 97.9762 25.6303C98.9515 27.0574 99.8517 28.5261 100.677 30.0365C101.502 31.547 102.247 33.0938 102.922 34.6772C103.592 36.2605 104.181 37.8699 104.69 39.5105C105.194 41.1511 105.623 42.8074 105.966 44.4897C106.303 46.1667 106.561 47.8595 106.732 49.5678C106.904 51.2709 106.989 52.9792 106.989 54.6928Z" fill="#C46019"/>
</g>
<mask id="mask2_3_10226" style="mask-type:luminance" maskUnits="userSpaceOnUse" x="0" y="0" width="107" height="105">
<path d="M0 0H107V104.708H0V0Z" fill="white"/>
</mask>
<g mask="url(#mask2_3_10226)">
<path d="M106.989 52.3125C106.989 54.026 106.904 55.7344 106.732 57.4375C106.561 59.1406 106.303 60.8333 105.966 62.5156C105.623 64.1979 105.194 65.8542 104.69 67.4948C104.181 69.1354 103.592 70.7448 102.922 72.3281C102.247 73.9115 101.502 75.4583 100.677 76.9688C99.8517 78.4792 98.9515 79.9479 97.9762 81.3698C97.0009 82.7969 95.9614 84.1719 94.8521 85.4948C93.7376 86.8177 92.564 88.0885 91.3262 89.2969C90.0884 90.5104 88.7916 91.6562 87.4359 92.7448C86.0802 93.8333 84.6762 94.8542 83.2187 95.8021C81.7611 96.7552 80.2607 97.6354 78.7175 98.4427C77.1742 99.25 75.5881 99.9844 73.9698 100.635C72.3515 101.292 70.7064 101.87 69.0292 102.365C67.3519 102.865 65.6533 103.281 63.9385 103.615C62.2184 103.948 60.4876 104.198 58.7461 104.37C56.9992 104.536 55.2523 104.62 53.5 104.62C51.7478 104.62 50.0009 104.536 48.2593 104.37C46.5178 104.198 44.787 103.948 43.0669 103.615C41.3468 103.281 39.6535 102.865 37.9762 102.365C36.299 101.87 34.6486 101.292 33.0303 100.635C31.412 99.9844 29.8312 99.25 28.2879 98.4427C26.7393 97.6354 25.2389 96.7552 23.7867 95.8021C22.3292 94.8542 20.9199 93.8333 19.5695 92.7448C18.2138 91.6562 16.917 90.5104 15.6792 89.2969C14.4414 88.0885 13.2625 86.8177 12.1533 85.4948C11.044 84.1719 9.99912 82.7969 9.02922 81.3698C8.05396 79.9479 7.15372 78.4792 6.3285 76.9688C5.50328 75.4583 4.75308 73.9115 4.08326 72.3281C3.41344 70.7448 2.82399 69.1354 2.31493 67.4948C1.80586 65.8542 1.38254 64.1979 1.03959 62.5156C0.69664 60.8333 0.439428 59.1406 0.267954 57.4375C0.0964794 55.7344 0.0107422 54.026 0.0107422 52.3125C0.0107422 50.599 0.0964794 48.8906 0.267954 47.1823C0.439428 45.4792 0.69664 43.7865 1.03959 42.1042C1.38254 40.4271 1.80586 38.7656 2.31493 37.125C2.82399 35.4844 3.41344 33.875 4.08326 32.2917C4.75308 30.7083 5.50328 29.1615 6.3285 27.651C7.15372 26.1406 8.05396 24.6719 9.02922 23.25C9.99912 21.8229 11.044 20.4531 12.1533 19.125C13.2625 17.8021 14.4414 16.5365 15.6792 15.3229C16.917 14.1094 18.2138 12.9635 19.5695 11.875C20.9199 10.7865 22.3292 9.77083 23.7867 8.81771C25.2389 7.86458 26.7393 6.98438 28.2879 6.17708C29.8312 5.36979 31.412 4.64063 33.0303 3.98438C34.6486 3.32813 36.299 2.75 37.9762 2.25521C39.6535 1.75521 41.3468 1.34375 43.0669 1.00521C44.787 0.671875 46.5178 0.421875 48.2593 0.255208C50.0009 0.0885417 51.7478 0 53.5 0C55.2523 0 56.9992 0.0885417 58.7461 0.255208C60.4876 0.421875 62.2184 0.671875 63.9385 1.00521C65.6533 1.34375 67.3519 1.75521 69.0292 2.25521C70.7064 2.75 72.3515 3.32813 73.9698 3.98438C75.5881 4.64063 77.1742 5.36979 78.7175 6.17708C80.2607 6.98438 81.7611 7.86458 83.2187 8.81771C84.6762 9.77083 86.0802 10.7865 87.4359 11.875C88.7916 12.9635 90.0884 14.1094 91.3262 15.3229C92.564 16.5365 93.7376 17.8021 94.8521 19.125C95.9614 20.4531 97.0009 21.8229 97.9762 23.25C98.9515 24.6719 99.8517 26.1406 100.677 27.651C101.502 29.1615 102.247 30.7083 102.922 32.2917C103.592 33.875 104.181 35.4844 104.69 37.125C105.194 38.7656 105.623 40.4271 105.966 42.1042C106.303 43.7865 106.561 45.4792 106.732 47.1823C106.904 48.8906 106.989 50.599 106.989 52.3125Z" fill="#FF8228"/>
</g>
<path d="M98.3244 52.5521C98.3244 53.9792 98.2494 55.401 98.1101 56.8177C97.9654 58.2344 97.751 59.6406 97.467 61.0365C97.183 62.4375 96.8294 63.8177 96.406 65.1771C95.9827 66.5417 95.4951 67.8802 94.9378 69.1979C94.3805 70.5156 93.7589 71.8021 93.073 73.0573C92.3871 74.3125 91.6369 75.5312 90.8278 76.7188C90.0186 77.901 89.1505 79.0417 88.2289 80.1458C87.3018 81.2448 86.3266 82.3021 85.2977 83.3073C84.2689 84.3125 83.1918 85.2708 82.0611 86.1719C80.9358 87.0781 79.7677 87.9219 78.5566 88.7135C77.3456 89.5052 76.097 90.2396 74.8163 90.9115C73.5303 91.5833 72.2174 92.1875 70.8671 92.7344C69.5221 93.2812 68.1556 93.7604 66.7624 94.1719C65.3638 94.5833 63.9545 94.9323 62.5238 95.2083C61.0984 95.4896 59.6569 95.6979 58.2101 95.8333C56.758 95.974 55.3058 96.0469 53.8482 96.0469C52.3961 96.0469 50.9385 95.974 49.4917 95.8333C48.0396 95.6979 46.6035 95.4896 45.1727 95.2083C43.7473 94.9323 42.3327 94.5833 40.9394 94.1719C39.5462 93.7604 38.1744 93.2812 36.8294 92.7344C35.4844 92.1875 34.1716 91.5833 32.8855 90.9115C31.5994 90.2396 30.3509 89.5052 29.1399 88.7135C27.9288 87.9219 26.7607 87.0781 25.6354 86.1719C24.5101 85.2708 23.433 84.3125 22.4041 83.3073C21.3753 82.3021 20.3947 81.2448 19.473 80.1458C18.546 79.0417 17.6832 77.901 16.8741 76.7188C16.0649 75.5312 15.3147 74.3125 14.6288 73.0573C13.9429 71.8021 13.3214 70.5156 12.7641 69.1979C12.2068 67.8802 11.7138 66.5417 11.2905 65.1771C10.8671 63.8177 10.5135 62.4375 10.2295 61.0365C9.94545 59.6406 9.73646 58.2344 9.59178 56.8177C9.4471 55.401 9.37744 53.9792 9.37744 52.5521C9.37744 51.1302 9.4471 49.7083 9.59178 48.2917C9.73646 46.875 9.94545 45.4688 10.2295 44.0677C10.5135 42.6719 10.8671 41.2917 11.2905 39.9323C11.7138 38.5677 12.2068 37.2292 12.7641 35.9115C13.3214 34.5938 13.9429 33.3073 14.6288 32.0521C15.3147 30.7969 16.0649 29.5781 16.8741 28.3906C17.6832 27.2083 18.546 26.0677 19.473 24.9635C20.3947 23.8646 21.3753 22.8073 22.4041 21.8021C23.433 20.7969 24.5101 19.8385 25.6354 18.9375C26.7607 18.0313 27.9288 17.1823 29.1399 16.3906C30.3509 15.6042 31.5994 14.8698 32.8855 14.1979C34.1716 13.526 35.4844 12.9219 36.8294 12.375C38.1744 11.8281 39.5462 11.349 40.9394 10.9375C42.3327 10.5208 43.7473 10.1771 45.1727 9.90104C46.6035 9.61979 48.0396 9.41146 49.4917 9.27083C50.9385 9.13542 52.3961 9.0625 53.8482 9.0625C55.3058 9.0625 56.758 9.13542 58.2101 9.27083C59.6569 9.41146 61.0984 9.61979 62.5238 9.90104C63.9545 10.1771 65.3638 10.5208 66.7624 10.9375C68.1556 11.349 69.5221 11.8281 70.8671 12.375C72.2174 12.9219 73.5303 13.526 74.8163 14.1979C76.097 14.8698 77.3456 15.6042 78.5566 16.3906C79.7677 17.1823 80.9358 18.0313 82.0611 18.9375C83.1918 19.8385 84.2689 20.7969 85.2977 21.8021C86.3266 22.8073 87.3018 23.8646 88.2289 24.9635C89.1505 26.0677 90.0186 27.2083 90.8278 28.3906C91.6369 29.5781 92.3871 30.7969 93.073 32.0521C93.7589 33.3073 94.3805 34.5938 94.9378 35.9115C95.4951 37.2292 95.9827 38.5677 96.406 39.9323C96.8294 41.2917 97.183 42.6719 97.467 44.0677C97.751 45.4688 97.9654 46.875 98.1101 48.2917C98.2494 49.7083 98.3244 51.1302 98.3244 52.5521Z" fill="#C46019"/>
<path d="M98.3244 50.2606C98.3244 51.6825 98.2494 53.1043 98.1101 54.521C97.9654 55.9429 97.751 57.3491 97.467 58.745C97.183 60.1408 96.8294 61.521 96.406 62.8856C95.9827 64.2502 95.4951 65.5887 94.9378 66.9012C94.3805 68.2189 93.7589 69.5054 93.073 70.7606C92.3871 72.0158 91.6369 73.2397 90.8278 74.422C90.0186 75.6043 89.1505 76.7502 88.2289 77.8491C87.3018 78.9533 86.3266 80.0054 85.2977 81.0106C84.2689 82.021 83.1918 82.9741 82.0611 83.8804C80.9358 84.7814 79.7677 85.6304 78.5566 86.422C77.3456 87.2137 76.097 87.9429 74.8163 88.6147C73.5303 89.2866 72.2174 89.896 70.8671 90.4377C69.5221 90.9845 68.1556 91.4637 66.7624 91.8804C65.3638 92.2918 63.9545 92.6356 62.5238 92.9168C61.0984 93.1929 59.6569 93.4012 58.2101 93.5418C56.758 93.6825 55.3058 93.7502 53.8482 93.7502C52.3961 93.7502 50.9385 93.6825 49.4917 93.5418C48.0396 93.4012 46.6035 93.1929 45.1727 92.9168C43.7473 92.6356 42.3327 92.2918 40.9394 91.8804C39.5462 91.4637 38.1744 90.9845 36.8294 90.4377C35.4844 89.896 34.1716 89.2866 32.8855 88.6147C31.5994 87.9429 30.3509 87.2137 29.1399 86.422C27.9288 85.6304 26.7607 84.7814 25.6354 83.8804C24.5101 82.9741 23.433 82.021 22.4041 81.0106C21.3753 80.0054 20.3947 78.9533 19.473 77.8491C18.546 76.7502 17.6832 75.6043 16.8741 74.422C16.0649 73.2397 15.3147 72.0158 14.6288 70.7606C13.9429 69.5054 13.3214 68.2189 12.7641 66.9012C12.2068 65.5887 11.7138 64.2502 11.2905 62.8856C10.8671 61.521 10.5135 60.1408 10.2295 58.745C9.94545 57.3491 9.73646 55.9429 9.59178 54.521C9.4471 53.1043 9.37744 51.6825 9.37744 50.2606C9.37744 48.8335 9.4471 47.4168 9.59178 45.995C9.73646 44.5783 9.94545 43.172 10.2295 41.7762C10.5135 40.3804 10.8671 39.0002 11.2905 37.6356C11.7138 36.271 12.2068 34.9325 12.7641 33.6147C13.3214 32.3022 13.9429 31.0158 14.6288 29.7606C15.3147 28.5002 16.0649 27.2814 16.8741 26.0991C17.6832 24.9116 18.546 23.771 19.473 22.672C20.3947 21.5679 21.3753 20.5158 22.4041 19.5054C23.433 18.5002 24.5101 17.547 25.6354 16.6408C26.7607 15.7397 27.9288 14.8908 29.1399 14.0991C30.3509 13.3075 31.5994 12.5783 32.8855 11.9064C34.1716 11.2345 35.4844 10.6252 36.8294 10.0783C38.1744 9.53662 39.5462 9.05745 40.9394 8.64079C42.3327 8.22933 43.7473 7.88037 45.1727 7.60433C46.6035 7.32829 48.0396 7.11995 49.4917 6.97933C50.9385 6.8387 52.3961 6.771 53.8482 6.771C55.3058 6.771 56.758 6.8387 58.2101 6.97933C59.6569 7.11995 61.0984 7.32829 62.5238 7.60433C63.9545 7.88037 65.3638 8.22933 66.7624 8.64079C68.1556 9.05745 69.5221 9.53662 70.8671 10.0783C72.2174 10.6252 73.5303 11.2345 74.8163 11.9064C76.097 12.5783 77.3456 13.3075 78.5566 14.0991C79.7677 14.8908 80.9358 15.7397 82.0611 16.6408C83.1918 17.547 84.2689 18.5002 85.2977 19.5054C86.3266 20.5158 87.3018 21.5679 88.2289 22.672C89.1505 23.771 90.0186 24.9116 90.8278 26.0991C91.6369 27.2814 92.3871 28.5002 93.073 29.7606C93.7589 31.0158 94.3805 32.3022 94.9378 33.6147C95.4951 34.9325 95.9827 36.271 96.406 37.6356C96.8294 39.0002 97.183 40.3804 97.467 41.7762C97.751 43.172 97.9654 44.5783 98.1101 45.995C98.2494 47.4168 98.3244 48.8335 98.3244 50.2606Z" fill="white"/>
<path fill-rule="evenodd" clip-rule="evenodd" d="M98.3137 51.1668C97.8154 74.7658 78.1012 93.7502 53.8483 93.7502C29.6007 93.7502 9.88117 74.7658 9.38818 51.1668C9.88117 27.5679 29.6007 8.5835 53.8483 8.5835C78.1012 8.5835 97.8154 27.5679 98.3137 51.1668Z" fill="#FFCD59"/>
<path fill-rule="evenodd" clip-rule="evenodd" d="M26.3962 20.9168C30.4259 18.1668 34.9592 17.7137 36.5239 19.9064C38.0886 22.0991 36.0952 26.1043 32.0656 28.8543C28.0359 31.6043 23.5026 32.0574 21.9379 29.8647C20.3732 27.6772 22.3719 23.6668 26.3962 20.9168ZM19.9445 32.6824C21.954 32.6824 23.583 34.2762 23.583 36.2397C23.583 38.2032 21.954 39.7918 19.9445 39.7918C17.935 39.7918 16.306 38.2032 16.306 36.2397C16.306 34.2762 17.935 32.6824 19.9445 32.6824Z" fill="white"/>
<path fill-rule="evenodd" clip-rule="evenodd" d="M60.1821 56.5781V60.7396C60.1821 64.1562 57.3474 66.9323 53.8483 66.9323C50.3545 66.9323 47.5198 64.1562 47.5198 60.7396V51.4635C47.5198 48.0469 50.3545 45.2708 53.8483 45.2708C55.4505 45.2708 56.9616 44.6615 58.0922 43.5573C59.2229 42.4479 59.8499 40.9688 59.8499 39.4062C59.8499 37.8438 59.2229 36.3646 58.0922 35.2604C56.9616 34.1563 55.4505 33.5417 53.8483 33.5417C52.2514 33.5417 50.7403 34.1563 49.6096 35.2604C48.479 36.3646 47.852 37.8438 47.852 39.4062C47.852 42.8281 45.0173 45.599 41.5182 45.599C38.0244 45.599 35.1897 42.8281 35.1897 39.4062C35.1897 34.5521 37.1456 29.9323 40.6554 26.5052C44.1653 23.0729 48.8862 21.1562 53.8483 21.1562C58.8157 21.1562 63.5366 23.0729 67.0464 26.5052C70.5563 29.9323 72.5122 34.5521 72.5122 39.4062C72.5122 44.2604 70.5563 48.8802 67.0464 52.3125C65.1013 54.2135 62.7542 55.6719 60.1821 56.5781ZM53.8483 69.7917C57.76 69.7917 60.9269 72.8906 60.9269 76.7083C60.9269 80.5313 57.76 83.6302 53.8483 83.6302C49.9419 83.6302 46.7749 80.5313 46.7749 76.7083C46.7749 72.8906 49.9419 69.7917 53.8483 69.7917Z" fill="#C46019"/>
<path fill-rule="evenodd" clip-rule="evenodd" d="M60.1822 56.5783V60.7397C60.1822 64.1564 57.3475 66.9325 53.8484 66.9325C50.3546 66.9325 47.5199 64.1564 47.5199 60.7397V55.922C47.5199 52.5054 50.3546 49.7293 53.8484 49.7293C55.4506 49.7293 56.9617 49.12 58.0924 48.0158C59.223 46.9064 59.85 45.4272 59.85 43.8647C59.85 43.0887 59.6946 42.3335 59.3999 41.6356C59.6946 40.9377 59.85 40.1825 59.85 39.4064C59.85 37.8439 59.223 36.3647 58.0924 35.2606C56.9617 34.1564 55.4506 33.5418 53.8484 33.5418C52.2515 33.5418 50.7404 34.1564 49.6098 35.2606C48.4791 36.3647 47.8522 37.8439 47.8522 39.4064C47.8522 42.8283 45.0175 45.5991 41.5183 45.5991C38.6033 45.5991 36.1437 43.6668 35.4095 41.0418C36.0151 37.245 37.8316 33.7189 40.6556 30.9585C44.1655 27.5314 48.8864 25.6147 53.8484 25.6147C58.8158 25.6147 63.5367 27.5314 67.0466 30.9585C70.0152 33.8647 71.8693 37.6147 72.373 41.6356C71.8693 45.6616 70.0152 49.4116 67.0466 52.3127C65.1014 54.2137 62.7543 55.672 60.1822 56.5783ZM53.8484 74.2502C56.9617 74.2502 59.6035 76.2137 60.552 78.9377C59.6035 81.6668 56.9617 83.6304 53.8484 83.6304C50.7404 83.6304 48.0986 81.6668 47.1502 78.9377C48.0986 76.2137 50.7404 74.2502 53.8484 74.2502Z" fill="#FF8228"/>
</svg>
