<svg width="107" height="107" viewBox="0 0 107 107" fill="none" xmlns="http://www.w3.org/2000/svg">
<mask id="mask0_3_10250" style="mask-type:luminance" maskUnits="userSpaceOnUse" x="0" y="2" width="107" height="105">
<path d="M0 2.04175H107V107H0V2.04175Z" fill="white"/>
</mask>
<g mask="url(#mask0_3_10250)">
<path d="M106.989 54.6928C106.989 56.4063 106.904 58.1147 106.732 59.823C106.561 61.5261 106.303 63.2188 105.96 64.8959C105.618 66.5782 105.194 68.2397 104.685 69.8803C104.176 71.5157 103.587 73.1303 102.917 74.7136C102.247 76.2917 101.497 77.8386 100.672 79.349C99.8463 80.8647 98.9461 82.3282 97.9762 83.7553C97.0009 85.1772 95.9614 86.5522 94.8468 87.8803C93.7376 89.2032 92.5587 90.4688 91.3208 91.6824C90.083 92.8907 88.7862 94.0417 87.4305 95.1303C86.0802 96.2136 84.6709 97.2345 83.2187 98.1876C81.7611 99.1407 80.2607 100.016 78.7121 100.823C77.1688 101.635 75.5881 102.365 73.9698 103.021C72.3515 103.677 70.701 104.25 69.0238 104.75C67.3519 105.245 65.6533 105.662 63.9332 105.995C62.2184 106.333 60.4876 106.583 58.7407 106.75C56.9992 106.917 55.2523 107 53.5 107C51.7478 107 50.0009 106.917 48.254 106.75C46.5124 106.583 44.7816 106.333 43.0615 105.995C41.3468 105.662 39.6481 105.245 37.9709 104.75C36.2936 104.25 34.6486 103.677 33.0303 103.021C31.412 102.365 29.8312 101.635 28.2826 100.823C26.7393 100.016 25.2389 99.1407 23.7814 98.1876C22.3238 97.2345 20.9199 96.2136 19.5642 95.1303C18.2138 94.0417 16.917 92.8907 15.6739 91.6824C14.436 90.4688 13.2625 89.2032 12.1533 87.8803C11.0387 86.5522 9.99912 85.1772 9.02386 83.7553C8.0486 82.3282 7.15372 80.8647 6.32314 79.349C5.49792 77.8386 4.75308 76.2917 4.08326 74.7136C3.41344 73.1303 2.82399 71.5157 2.31493 69.8803C1.80586 68.2397 1.37718 66.5782 1.03959 64.8959C0.69664 63.2188 0.439428 61.5261 0.267954 59.823C0.0964794 58.1147 0.0107422 56.4063 0.0107422 54.6928C0.0107422 52.9792 0.0964794 51.2709 0.267954 49.5678C0.439428 47.8595 0.69664 46.1667 1.03959 44.4897C1.37718 42.8074 1.80586 41.1511 2.31493 39.5105C2.82399 37.8699 3.41344 36.2605 4.08326 34.6772C4.75308 33.0938 5.49792 31.547 6.32314 30.0365C7.15372 28.5261 8.0486 27.0574 9.02386 25.6303C9.99912 24.2084 11.0387 22.8334 12.1533 21.5105C13.2625 20.1876 14.436 18.9167 15.6739 17.7084C16.917 16.4949 18.2138 15.3438 19.5642 14.2605C20.9199 13.172 22.3238 12.1511 23.7814 11.2032C25.2389 10.2501 26.7393 9.36987 28.2826 8.56258C29.8312 7.75529 31.412 7.02091 33.0303 6.36466C34.6486 5.71362 36.2936 5.1355 37.9709 4.6355C39.6481 4.14071 41.3468 3.72404 43.0615 3.39071C44.7816 3.05737 46.5124 2.80737 48.254 2.6355C50.0009 2.46883 51.7478 2.3855 53.5 2.3855C55.2523 2.3855 56.9992 2.46883 58.7407 2.6355C60.4876 2.80737 62.2184 3.05737 63.9332 3.39071C65.6533 3.72404 67.3519 4.14071 69.0238 4.6355C70.701 5.1355 72.3515 5.71362 73.9698 6.36466C75.5881 7.02091 77.1688 7.75529 78.7121 8.56258C80.2607 9.36987 81.7611 10.2501 83.2187 11.2032C84.6709 12.1511 86.0802 13.172 87.4305 14.2605C88.7862 15.3438 90.083 16.4949 91.3208 17.7084C92.5587 18.9167 93.7376 20.1876 94.8468 21.5105C95.9614 22.8334 97.0009 24.2084 97.9762 25.6303C98.9461 27.0574 99.8463 28.5261 100.672 30.0365C101.497 31.547 102.247 33.0938 102.917 34.6772C103.587 36.2605 104.176 37.8699 104.685 39.5105C105.194 41.1511 105.618 42.8074 105.96 44.4897C106.303 46.1667 106.561 47.8595 106.732 49.5678C106.904 51.2709 106.989 52.9792 106.989 54.6928Z" fill="#C46019"/>
</g>
<mask id="mask1_3_10250" style="mask-type:luminance" maskUnits="userSpaceOnUse" x="0" y="0" width="107" height="105">
<path d="M0 0H107V104.708H0V0Z" fill="white"/>
</mask>
<g mask="url(#mask1_3_10250)">
<path d="M106.989 52.3125C106.989 54.026 106.904 55.7344 106.732 57.4375C106.561 59.1406 106.303 60.8333 105.96 62.5156C105.618 64.1979 105.194 65.8542 104.685 67.4948C104.176 69.1354 103.587 70.7448 102.917 72.3281C102.247 73.9115 101.497 75.4583 100.672 76.9688C99.8463 78.4792 98.9461 79.9479 97.9762 81.3698C97.0009 82.7969 95.9614 84.1719 94.8468 85.4948C93.7376 86.8177 92.5587 88.0885 91.3208 89.2969C90.083 90.5104 88.7862 91.6562 87.4305 92.7448C86.0802 93.8333 84.6709 94.8542 83.2187 95.8021C81.7611 96.7552 80.2607 97.6354 78.7121 98.4427C77.1688 99.25 75.5881 99.9792 73.9698 100.635C72.3515 101.292 70.701 101.87 69.0238 102.365C67.3519 102.865 65.6533 103.281 63.9332 103.615C62.2184 103.948 60.4876 104.198 58.7407 104.365C56.9992 104.536 55.2523 104.62 53.5 104.62C51.7478 104.62 50.0009 104.536 48.254 104.365C46.5124 104.198 44.7816 103.948 43.0615 103.615C41.3468 103.281 39.6481 102.865 37.9709 102.365C36.2936 101.87 34.6486 101.292 33.0303 100.635C31.412 99.9792 29.8312 99.25 28.2826 98.4427C26.7393 97.6354 25.2389 96.7552 23.7814 95.8021C22.3238 94.8542 20.9199 93.8333 19.5642 92.7448C18.2138 91.6562 16.917 90.5104 15.6739 89.2969C14.436 88.0885 13.2625 86.8177 12.1533 85.4948C11.0387 84.1719 9.99912 82.7969 9.02386 81.3698C8.0486 79.9479 7.15372 78.4792 6.32314 76.9688C5.49792 75.4583 4.75308 73.9115 4.08326 72.3281C3.41344 70.7448 2.82399 69.1354 2.31493 67.4948C1.80586 65.8542 1.37718 64.1979 1.03959 62.5156C0.69664 60.8333 0.439428 59.1406 0.267954 57.4375C0.0964794 55.7344 0.0107422 54.026 0.0107422 52.3125C0.0107422 50.599 0.0964794 48.8906 0.267954 47.1823C0.439428 45.4792 0.69664 43.7865 1.03959 42.1042C1.37718 40.4271 1.80586 38.7656 2.31493 37.125C2.82399 35.4844 3.41344 33.875 4.08326 32.2917C4.75308 30.7083 5.49792 29.1615 6.32314 27.651C7.15372 26.1406 8.0486 24.6719 9.02386 23.25C9.99912 21.8229 11.0387 20.4531 12.1533 19.125C13.2625 17.8021 14.436 16.5365 15.6739 15.3229C16.917 14.1094 18.2138 12.9635 19.5642 11.875C20.9199 10.7865 22.3238 9.77083 23.7814 8.81771C25.2389 7.86458 26.7393 6.98438 28.2826 6.17708C29.8312 5.36979 31.412 4.64063 33.0303 3.98438C34.6486 3.32813 36.2936 2.75 37.9709 2.25521C39.6481 1.75521 41.3468 1.34375 43.0615 1.00521C44.7816 0.671875 46.5124 0.421875 48.254 0.255208C50.0009 0.0885417 51.7478 0 53.5 0C55.2523 0 56.9992 0.0885417 58.7407 0.255208C60.4876 0.421875 62.2184 0.671875 63.9332 1.00521C65.6533 1.34375 67.3519 1.75521 69.0238 2.25521C70.701 2.75 72.3515 3.32813 73.9698 3.98438C75.5881 4.64063 77.1688 5.36979 78.7121 6.17708C80.2607 6.98438 81.7611 7.86458 83.2187 8.81771C84.6709 9.77083 86.0802 10.7865 87.4305 11.875C88.7862 12.9635 90.083 14.1094 91.3208 15.3229C92.5587 16.5365 93.7376 17.8021 94.8468 19.125C95.9614 20.4531 97.0009 21.8229 97.9762 23.25C98.9461 24.6719 99.8463 26.1406 100.672 27.651C101.497 29.1615 102.247 30.7083 102.917 32.2917C103.587 33.875 104.176 35.4844 104.685 37.125C105.194 38.7656 105.618 40.4271 105.96 42.1042C106.303 43.7865 106.561 45.4792 106.732 47.1823C106.904 48.8906 106.989 50.599 106.989 52.3125Z" fill="#FF8228"/>
</g>
<path d="M98.3191 52.5521C98.3191 53.9792 98.2494 55.401 98.1047 56.8177C97.9654 58.2344 97.751 59.6406 97.467 61.0365C97.183 62.4375 96.8294 63.8177 96.406 65.1771C95.9827 66.5417 95.4951 67.8802 94.9378 69.1979C94.3751 70.5156 93.7535 71.8021 93.0676 73.0573C92.3818 74.3125 91.6369 75.5312 90.8278 76.7188C90.0186 77.901 89.1505 79.0417 88.2235 80.1458C87.3018 81.2448 86.3266 82.3021 85.2924 83.3073C84.2635 84.3125 83.1864 85.2708 82.0611 86.1719C80.9358 87.0781 79.7677 87.9219 78.5566 88.7135C77.3456 89.5052 76.097 90.2396 74.811 90.9115C73.5249 91.5833 72.2121 92.1875 70.8671 92.7344C69.5221 93.2812 68.1503 93.7604 66.7571 94.1719C65.3638 94.5833 63.9545 94.9323 62.5238 95.2083C61.093 95.4896 59.6569 95.6979 58.2048 95.8333C56.758 95.974 55.3058 96.0469 53.8482 96.0469C52.3907 96.0469 50.9385 95.974 49.4864 95.8333C48.0396 95.6979 46.5981 95.4896 45.1727 95.2083C43.742 94.9323 42.3327 94.5833 40.9394 94.1719C39.5462 93.7604 38.1744 93.2812 36.8294 92.7344C35.4844 92.1875 34.1662 91.5833 32.8855 90.9115C31.5994 90.2396 30.3509 89.5052 29.1399 88.7135C27.9288 87.9219 26.7607 87.0781 25.6354 86.1719C24.5101 85.2708 23.433 84.3125 22.3988 83.3073C21.3699 82.3021 20.3947 81.2448 19.4676 80.1458C18.546 79.0417 17.6779 77.901 16.8687 76.7188C16.0596 75.5312 15.3147 74.3125 14.6288 73.0573C13.9376 71.8021 13.316 70.5156 12.7587 69.1979C12.2014 67.8802 11.7138 66.5417 11.2905 65.1771C10.8671 63.8177 10.5135 62.4375 10.2295 61.0365C9.94545 59.6406 9.73111 58.2344 9.58643 56.8177C9.4471 55.401 9.37744 53.9792 9.37744 52.5521C9.37744 51.1302 9.4471 49.7083 9.58643 48.2917C9.73111 46.875 9.94545 45.4688 10.2295 44.0677C10.5135 42.6719 10.8671 41.2917 11.2905 39.9323C11.7138 38.5677 12.2014 37.2292 12.7587 35.9115C13.316 34.5938 13.9376 33.3073 14.6288 32.0521C15.3147 30.7969 16.0596 29.5781 16.8687 28.3906C17.6779 27.2083 18.546 26.0677 19.4676 24.9635C20.3947 23.8646 21.3699 22.8073 22.3988 21.8021C23.433 20.7969 24.5101 19.8385 25.6354 18.9375C26.7607 18.0313 27.9288 17.1823 29.1399 16.3906C30.3509 15.6042 31.5994 14.8698 32.8855 14.1979C34.1662 13.526 35.4844 12.9219 36.8294 12.375C38.1744 11.8281 39.5462 11.349 40.9394 10.9375C42.3327 10.5208 43.742 10.1771 45.1727 9.90104C46.5981 9.61979 48.0396 9.41146 49.4864 9.27083C50.9385 9.13542 52.3907 9.0625 53.8482 9.0625C55.3058 9.0625 56.758 9.13542 58.2048 9.27083C59.6569 9.41146 61.093 9.61979 62.5238 9.90104C63.9545 10.1771 65.3638 10.5208 66.7571 10.9375C68.1503 11.349 69.5221 11.8281 70.8671 12.375C72.2121 12.9219 73.5249 13.526 74.811 14.1979C76.097 14.8698 77.3456 15.6042 78.5566 16.3906C79.7677 17.1823 80.9358 18.0313 82.0611 18.9375C83.1864 19.8385 84.2635 20.7969 85.2924 21.8021C86.3266 22.8073 87.3018 23.8646 88.2235 24.9635C89.1505 26.0677 90.0186 27.2083 90.8278 28.3906C91.6369 29.5781 92.3818 30.7969 93.0676 32.0521C93.7535 33.3073 94.3751 34.5938 94.9378 35.9115C95.4951 37.2292 95.9827 38.5677 96.406 39.9323C96.8294 41.2917 97.183 42.6719 97.467 44.0677C97.751 45.4688 97.9654 46.875 98.1047 48.2917C98.2494 49.7083 98.3191 51.1302 98.3191 52.5521Z" fill="#C46019"/>
<path d="M98.3191 50.2606C98.3191 51.6825 98.2494 53.1043 98.1047 54.521C97.9654 55.9429 97.751 57.3491 97.467 58.745C97.183 60.1408 96.8294 61.521 96.406 62.8856C95.9827 64.2502 95.4951 65.5887 94.9378 66.9012C94.3751 68.2189 93.7535 69.5054 93.0676 70.7606C92.3818 72.0158 91.6369 73.2397 90.8278 74.422C90.0186 75.6043 89.1505 76.7502 88.2235 77.8491C87.3018 78.9533 86.3266 80.0054 85.2924 81.0106C84.2635 82.021 83.1864 82.9741 82.0611 83.8804C80.9358 84.7814 79.7677 85.6304 78.5566 86.422C77.3456 87.2137 76.097 87.9429 74.811 88.6147C73.5249 89.2866 72.2121 89.896 70.8671 90.4377C69.5221 90.9845 68.1503 91.4637 66.7571 91.8804C65.3638 92.2918 63.9545 92.6356 62.5238 92.9168C61.093 93.1929 59.6569 93.4012 58.2048 93.5418C56.758 93.6825 55.3058 93.7502 53.8482 93.7502C52.3907 93.7502 50.9385 93.6825 49.4864 93.5418C48.0396 93.4012 46.5981 93.1929 45.1727 92.9168C43.742 92.6356 42.3327 92.2918 40.9394 91.8804C39.5462 91.4637 38.1744 90.9845 36.8294 90.4377C35.4844 89.896 34.1662 89.2866 32.8855 88.6147C31.5994 87.9429 30.3509 87.2137 29.1399 86.422C27.9288 85.6304 26.7607 84.7814 25.6354 83.8804C24.5101 82.9741 23.433 82.021 22.3988 81.0106C21.3699 80.0054 20.3947 78.9533 19.4676 77.8491C18.546 76.7502 17.6779 75.6043 16.8687 74.422C16.0596 73.2397 15.3147 72.0158 14.6288 70.7606C13.9376 69.5054 13.316 68.2189 12.7587 66.9012C12.2014 65.5887 11.7138 64.2502 11.2905 62.8856C10.8671 61.521 10.5135 60.1408 10.2295 58.745C9.94545 57.3491 9.73111 55.9429 9.58643 54.521C9.4471 53.1043 9.37744 51.6825 9.37744 50.2606C9.37744 48.8335 9.4471 47.4168 9.58643 45.995C9.73111 44.5783 9.94545 43.172 10.2295 41.7762C10.5135 40.3804 10.8671 39.0002 11.2905 37.6356C11.7138 36.271 12.2014 34.9325 12.7587 33.6147C13.316 32.3022 13.9376 31.0158 14.6288 29.7606C15.3147 28.5002 16.0596 27.2814 16.8687 26.0991C17.6779 24.9116 18.546 23.771 19.4676 22.672C20.3947 21.5679 21.3699 20.5158 22.3988 19.5054C23.433 18.5002 24.5101 17.547 25.6354 16.6408C26.7607 15.7397 27.9288 14.8908 29.1399 14.0991C30.3509 13.3075 31.5994 12.5783 32.8855 11.9064C34.1662 11.2345 35.4844 10.6252 36.8294 10.0783C38.1744 9.53662 39.5462 9.05745 40.9394 8.64079C42.3327 8.22933 43.742 7.88037 45.1727 7.60433C46.5981 7.32829 48.0396 7.11995 49.4864 6.97933C50.9385 6.8387 52.3907 6.771 53.8482 6.771C55.3058 6.771 56.758 6.8387 58.2048 6.97933C59.6569 7.11995 61.093 7.32829 62.5238 7.60433C63.9545 7.88037 65.3638 8.22933 66.7571 8.64079C68.1503 9.05745 69.5221 9.53662 70.8671 10.0783C72.2121 10.6252 73.5249 11.2345 74.811 11.9064C76.097 12.5783 77.3456 13.3075 78.5566 14.0991C79.7677 14.8908 80.9358 15.7397 82.0611 16.6408C83.1864 17.547 84.2635 18.5002 85.2924 19.5054C86.3266 20.5158 87.3018 21.5679 88.2235 22.672C89.1505 23.771 90.0186 24.9116 90.8278 26.0991C91.6369 27.2814 92.3818 28.5002 93.0676 29.7606C93.7535 31.0158 94.3751 32.3022 94.9378 33.6147C95.4951 34.9325 95.9827 36.271 96.406 37.6356C96.8294 39.0002 97.183 40.3804 97.467 41.7762C97.751 43.172 97.9654 44.5783 98.1047 45.995C98.2494 47.4168 98.3191 48.8335 98.3191 50.2606Z" fill="white"/>
<path fill-rule="evenodd" clip-rule="evenodd" d="M98.3084 51.1668C97.8154 74.7658 78.1012 93.7502 53.8483 93.7502C29.5954 93.7502 9.88117 74.7658 9.38818 51.1668C9.88117 27.5679 29.5954 8.5835 53.8483 8.5835C78.1012 8.5835 97.8154 27.5679 98.3084 51.1668Z" fill="#FFCD59"/>
<path fill-rule="evenodd" clip-rule="evenodd" d="M26.3963 20.9168C30.4206 18.1668 34.954 17.7137 36.5241 19.9064C38.0888 22.0991 36.09 26.1043 32.0604 28.8543C28.0361 31.6043 23.5027 32.0574 21.938 29.8647C20.3733 27.6772 22.3667 23.6668 26.3963 20.9168ZM19.9393 32.6824C21.9487 32.6824 23.5777 34.2762 23.5777 36.2397C23.5777 38.2032 21.9487 39.7918 19.9393 39.7918C17.9352 39.7918 16.3062 38.2032 16.3062 36.2397C16.3062 34.2762 17.9352 32.6824 19.9393 32.6824Z" fill="white"/>
<path fill-rule="evenodd" clip-rule="evenodd" d="M38.9782 29.7344H68.7183C72.1906 29.7344 75.0253 32.5156 75.0253 35.9062C75.0253 39.3021 72.1906 42.0781 68.7183 42.0781H38.9782C35.5058 42.0781 32.6658 39.3021 32.6658 35.9062C32.6658 32.5156 35.5058 29.7344 38.9782 29.7344ZM38.9782 62.7083H68.7183C72.1906 62.7083 75.0253 65.4844 75.0253 68.8802C75.0253 72.276 72.1906 75.0521 68.7183 75.0521H38.9782C35.5058 75.0521 32.6658 72.276 32.6658 68.8802C32.6658 65.4844 35.5058 62.7083 38.9782 62.7083ZM38.9782 46.224H68.7183C72.1906 46.224 75.0253 49 75.0253 52.3958C75.0253 55.7865 72.1906 58.5625 68.7183 58.5625H38.9782C35.5058 58.5625 32.6658 55.7865 32.6658 52.3958C32.6658 49 35.5058 46.224 38.9782 46.224Z" fill="#C46019"/>
<path fill-rule="evenodd" clip-rule="evenodd" d="M74.5966 38.1356C73.6803 40.4377 71.3869 42.0783 68.7183 42.0783H38.9782C36.3096 42.0783 34.0162 40.4377 33.0945 38.1356C34.0162 35.8387 36.3096 34.1929 38.9782 34.1929H68.7183C71.3869 34.1929 73.6803 35.8387 74.5966 38.1356ZM70.1276 46.3804C69.6775 46.4845 69.2006 46.5366 68.7183 46.5366H38.9782C38.4906 46.5366 38.019 46.4845 37.5635 46.3804C38.019 46.2762 38.4906 46.2241 38.9782 46.2241H68.7183C69.2006 46.2241 69.6775 46.2762 70.1276 46.3804ZM38.9782 67.1668H68.7183C71.3869 67.1668 73.6803 68.8075 74.5966 71.1095C73.6803 73.4116 71.3869 75.0522 68.7183 75.0522H38.9782C36.3096 75.0522 34.0162 73.4116 33.0945 71.1095C34.0162 68.8075 36.3096 67.1668 38.9782 67.1668ZM38.9782 50.6825H68.7183C71.3869 50.6825 73.6803 52.3231 74.5966 54.6252C73.6803 56.922 71.3869 58.5627 68.7183 58.5627H38.9782C36.3096 58.5627 34.0162 56.922 33.0945 54.6252C34.0162 52.3231 36.3096 50.6825 38.9782 50.6825ZM70.1276 62.8647C69.6775 62.9689 69.2006 63.021 68.7183 63.021H38.9782C38.4906 63.021 38.019 62.9689 37.5635 62.8647C38.019 62.7606 38.4906 62.7085 38.9782 62.7085H68.7183C69.2006 62.7085 69.6775 62.7658 70.1276 62.8647Z" fill="#FF8228"/>
</svg>
