<svg width="107" height="107" viewBox="0 0 107 107" fill="none" xmlns="http://www.w3.org/2000/svg">
<mask id="mask0_3_10224" style="mask-type:luminance" maskUnits="userSpaceOnUse" x="0" y="2" width="107" height="105">
<path d="M0 2.0415H107V107H0V2.0415Z" fill="white"/>
</mask>
<g mask="url(#mask0_3_10224)">
<path d="M106.995 54.6925C106.995 56.4061 106.909 58.1144 106.732 59.8228C106.561 61.5259 106.309 63.2186 105.966 64.9009C105.623 66.578 105.2 68.2394 104.69 69.8801C104.181 71.5155 103.592 73.1301 102.922 74.7134C102.252 76.2915 101.502 77.8384 100.677 79.354C99.8517 80.8644 98.9514 82.328 97.9762 83.7551C97.0063 85.1769 95.9614 86.5519 94.8521 87.8801C93.7375 89.203 92.564 90.4686 91.3262 91.6821C90.0884 92.8905 88.7916 94.0415 87.4359 95.1301C86.0801 96.2134 84.6762 97.2342 83.2187 98.1873C81.7611 99.1405 80.2607 100.021 78.7175 100.828C77.1742 101.635 75.5881 102.364 73.9698 103.021C72.3515 103.677 70.7064 104.255 69.0292 104.75C67.3519 105.25 65.6533 105.661 63.9385 106C62.2184 106.333 60.4876 106.583 58.7461 106.75C56.9992 106.917 55.2523 107 53.5 107C51.7531 107 50.0009 106.917 48.2593 106.75C46.5178 106.583 44.787 106.333 43.0669 106C41.3468 105.661 39.6535 105.25 37.9762 104.75C36.299 104.255 34.6486 103.677 33.0303 103.021C31.412 102.364 29.8312 101.635 28.2879 100.828C26.7447 100.021 25.2443 99.1405 23.7867 98.1873C22.3292 97.2342 20.9253 96.2134 19.5695 95.1301C18.2138 94.0415 16.917 92.8905 15.6792 91.6821C14.4414 90.4686 13.2679 89.203 12.1533 87.8801C11.044 86.5519 9.99912 85.1769 9.02922 83.7551C8.05396 82.328 7.15372 80.8644 6.3285 79.354C5.50328 77.8384 4.75308 76.2915 4.08326 74.7134C3.41344 73.1301 2.82399 71.5155 2.31493 69.8801C1.80586 68.2394 1.38254 66.578 1.03959 64.9009C0.69664 63.2186 0.439428 61.5259 0.267954 59.8228C0.0964794 58.1144 0.0107422 56.4061 0.0107422 54.6925C0.0107422 52.979 0.0964794 51.2707 0.267954 49.5675C0.439428 47.8592 0.69664 46.1665 1.03959 44.4894C1.38254 42.8071 1.80586 41.1509 2.31493 39.5103C2.82399 37.8696 3.41344 36.2603 4.08326 34.6769C4.75308 33.0936 5.50328 31.5467 6.3285 30.0363C7.15372 28.5259 8.05396 27.0571 9.02922 25.63C9.99912 24.2082 11.044 22.8332 12.1533 21.5103C13.2679 20.1873 14.4414 18.9165 15.6792 17.7082C16.917 16.4946 18.2138 15.3436 19.5695 14.2603C20.9253 13.1717 22.3292 12.1509 23.7867 11.203C25.2443 10.2498 26.7447 9.36963 28.2879 8.56234C29.8312 7.75505 31.412 7.02067 33.0303 6.36442C34.6486 5.71338 36.299 5.13525 37.9762 4.63525C39.6535 4.14046 41.3468 3.7238 43.0669 3.39046C44.787 3.05713 46.5178 2.80713 48.2593 2.63525C50.0009 2.46859 51.7531 2.38525 53.5 2.38525C55.2523 2.38525 56.9992 2.46859 58.7461 2.63525C60.4876 2.80713 62.2184 3.05713 63.9385 3.39046C65.6533 3.7238 67.3519 4.14046 69.0292 4.63525C70.7064 5.13525 72.3515 5.71338 73.9698 6.36442C75.5881 7.02067 77.1742 7.75505 78.7175 8.56234C80.2607 9.36963 81.7611 10.2498 83.2187 11.203C84.6762 12.1509 86.0801 13.1717 87.4359 14.2603C88.7916 15.3436 90.0884 16.4946 91.3262 17.7082C92.564 18.9165 93.7375 20.1873 94.8521 21.5103C95.9614 22.8332 97.0063 24.2082 97.9762 25.63C98.9514 27.0571 99.8517 28.5259 100.677 30.0363C101.502 31.5467 102.252 33.0936 102.922 34.6769C103.592 36.2603 104.181 37.8696 104.69 39.5103C105.2 41.1509 105.623 42.8071 105.966 44.4894C106.309 46.1665 106.561 47.8592 106.732 49.5675C106.909 51.2707 106.995 52.979 106.995 54.6925Z" fill="#C46019"/>
</g>
<mask id="mask1_3_10224" style="mask-type:luminance" maskUnits="userSpaceOnUse" x="0" y="0" width="107" height="105">
<path d="M0 0H107V104.708H0V0Z" fill="white"/>
</mask>
<g mask="url(#mask1_3_10224)">
<path d="M106.995 52.3125C106.995 54.026 106.909 55.7344 106.732 57.4375C106.561 59.1406 106.309 60.8333 105.966 62.5156C105.623 64.1979 105.2 65.8542 104.69 67.4948C104.181 69.1354 103.592 70.7448 102.922 72.3281C102.252 73.9115 101.502 75.4583 100.677 76.9688C99.8517 78.4792 98.9514 79.9479 97.9762 81.3698C97.0063 82.7969 95.9614 84.1719 94.8521 85.4948C93.7375 86.8177 92.564 88.0885 91.3262 89.2969C90.0884 90.5104 88.7916 91.6615 87.4359 92.7448C86.0801 93.8333 84.6762 94.8542 83.2187 95.8021C81.7611 96.7552 80.2607 97.6354 78.7175 98.4427C77.1742 99.25 75.5881 99.9844 73.9698 100.635C72.3515 101.292 70.7064 101.87 69.0292 102.365C67.3519 102.865 65.6533 103.281 63.9385 103.615C62.2184 103.948 60.4876 104.198 58.7461 104.37C56.9992 104.536 55.2523 104.62 53.5 104.62C51.7531 104.62 50.0009 104.536 48.2593 104.37C46.5178 104.198 44.787 103.948 43.0669 103.615C41.3468 103.281 39.6535 102.865 37.9762 102.365C36.299 101.87 34.6486 101.292 33.0303 100.635C31.412 99.9844 29.8312 99.25 28.2879 98.4427C26.7447 97.6354 25.2443 96.7552 23.7867 95.8021C22.3292 94.8542 20.9253 93.8333 19.5695 92.7448C18.2138 91.6615 16.917 90.5104 15.6792 89.2969C14.4414 88.0885 13.2679 86.8177 12.1533 85.4948C11.044 84.1719 9.99912 82.7969 9.02922 81.3698C8.05396 79.9479 7.15372 78.4792 6.3285 76.9688C5.50328 75.4583 4.75308 73.9115 4.08326 72.3281C3.41344 70.7448 2.82399 69.1354 2.31493 67.4948C1.80586 65.8542 1.38254 64.1979 1.03959 62.5156C0.69664 60.8333 0.439428 59.1406 0.267954 57.4375C0.0964794 55.7344 0.0107422 54.026 0.0107422 52.3125C0.0107422 50.599 0.0964794 48.8906 0.267954 47.1823C0.439428 45.4792 0.69664 43.7865 1.03959 42.1042C1.38254 40.4271 1.80586 38.7656 2.31493 37.125C2.82399 35.4844 3.41344 33.875 4.08326 32.2917C4.75308 30.7083 5.50328 29.1615 6.3285 27.651C7.15372 26.1406 8.05396 24.6719 9.02922 23.25C9.99912 21.8229 11.044 20.4531 12.1533 19.125C13.2679 17.8021 14.4414 16.5365 15.6792 15.3229C16.917 14.1094 18.2138 12.9635 19.5695 11.875C20.9253 10.7865 22.3292 9.77083 23.7867 8.81771C25.2443 7.86458 26.7447 6.98438 28.2879 6.17708C29.8312 5.36979 31.412 4.64063 33.0303 3.98438C34.6486 3.32813 36.299 2.75 37.9762 2.25521C39.6535 1.75521 41.3468 1.34375 43.0669 1.00521C44.787 0.671875 46.5178 0.421875 48.2593 0.255208C50.0009 0.0885417 51.7531 0 53.5 0C55.2523 0 56.9992 0.0885417 58.7461 0.255208C60.4876 0.421875 62.2184 0.671875 63.9385 1.00521C65.6533 1.34375 67.3519 1.75521 69.0292 2.25521C70.7064 2.75 72.3515 3.32813 73.9698 3.98438C75.5881 4.64063 77.1742 5.36979 78.7175 6.17708C80.2607 6.98438 81.7611 7.86458 83.2187 8.81771C84.6762 9.77083 86.0801 10.7865 87.4359 11.875C88.7916 12.9635 90.0884 14.1094 91.3262 15.3229C92.564 16.5365 93.7375 17.8021 94.8521 19.125C95.9614 20.4531 97.0063 21.8229 97.9762 23.25C98.9514 24.6719 99.8517 26.1406 100.677 27.651C101.502 29.1615 102.252 30.7083 102.922 32.2917C103.592 33.875 104.181 35.4844 104.69 37.125C105.2 38.7656 105.623 40.4271 105.966 42.1042C106.309 43.7865 106.561 45.4792 106.732 47.1823C106.909 48.8906 106.995 50.599 106.995 52.3125Z" fill="#FF8228"/>
</g>
<path d="M98.3244 52.5521C98.3244 53.9792 98.2547 55.401 98.1101 56.8177C97.9654 58.2344 97.751 59.6406 97.467 61.0417C97.183 62.4375 96.8294 63.8177 96.406 65.1771C95.9881 66.5417 95.4951 67.8802 94.9378 69.1979C94.3805 70.5156 93.7589 71.8021 93.073 73.0573C92.3871 74.3125 91.6369 75.5312 90.8278 76.7188C90.0186 77.901 89.1505 79.0417 88.2289 80.1458C87.3072 81.2448 86.3266 82.3021 85.2977 83.3073C84.2689 84.3125 83.1918 85.2708 82.0665 86.1719C80.9358 87.0781 79.7677 87.9271 78.5566 88.7135C77.3456 89.5052 76.097 90.2396 74.8163 90.9115C73.5303 91.5833 72.2174 92.1875 70.8724 92.7344C69.5221 93.2812 68.1556 93.7604 66.7624 94.1719C65.3692 94.5885 63.9545 94.9323 62.5291 95.2083C61.0984 95.4896 59.6569 95.6979 58.2101 95.8385C56.758 95.974 55.3058 96.0469 53.8482 96.0469C52.3961 96.0469 50.9385 95.974 49.4917 95.8385C48.0396 95.6979 46.6035 95.4896 45.1727 95.2083C43.7473 94.9323 42.3327 94.5885 40.9394 94.1719C39.5462 93.7604 38.1798 93.2812 36.8294 92.7344C35.4844 92.1875 34.1716 91.5833 32.8855 90.9115C31.5994 90.2396 30.3563 89.5052 29.1452 88.7135C27.9342 87.9271 26.7607 87.0781 25.6354 86.1719C24.5101 85.2708 23.433 84.3125 22.4041 83.3073C21.3753 82.3021 20.3947 81.2448 19.473 80.1458C18.5513 79.0417 17.6832 77.901 16.8741 76.7188C16.0649 75.5312 15.3147 74.3125 14.6288 73.0573C13.9429 71.8021 13.3214 70.5156 12.7641 69.1979C12.2068 67.8802 11.7138 66.5417 11.2905 65.1771C10.8725 63.8177 10.5188 62.4375 10.2348 61.0417C9.95081 59.6406 9.73646 58.2344 9.59178 56.8177C9.4471 55.401 9.37744 53.9792 9.37744 52.5521C9.37744 51.1302 9.4471 49.7083 9.59178 48.2917C9.73646 46.875 9.95081 45.4688 10.2348 44.0677C10.5188 42.6719 10.8725 41.2917 11.2905 39.9323C11.7138 38.5677 12.2068 37.2292 12.7641 35.9115C13.3214 34.5938 13.9429 33.3073 14.6288 32.0521C15.3147 30.7969 16.0649 29.5781 16.8741 28.3906C17.6832 27.2083 18.5513 26.0677 19.473 24.9635C20.3947 23.8646 21.3753 22.8073 22.4041 21.8021C23.433 20.7969 24.5101 19.8385 25.6354 18.9375C26.7607 18.0313 27.9342 17.1823 29.1452 16.3958C30.3563 15.6042 31.5994 14.8698 32.8855 14.1979C34.1716 13.526 35.4844 12.9219 36.8294 12.375C38.1798 11.8281 39.5462 11.349 40.9394 10.9375C42.3327 10.5208 43.7473 10.1771 45.1727 9.90104C46.6035 9.61979 48.0396 9.41146 49.4917 9.27083C50.9385 9.13542 52.3961 9.0625 53.8482 9.0625C55.3058 9.0625 56.758 9.13542 58.2101 9.27083C59.6569 9.41146 61.0984 9.61979 62.5291 9.90104C63.9545 10.1771 65.3692 10.5208 66.7624 10.9375C68.1556 11.349 69.5221 11.8281 70.8724 12.375C72.2174 12.9219 73.5303 13.526 74.8163 14.1979C76.097 14.8698 77.3456 15.6042 78.5566 16.3958C79.7677 17.1823 80.9358 18.0313 82.0665 18.9375C83.1918 19.8385 84.2689 20.7969 85.2977 21.8021C86.3266 22.8073 87.3072 23.8646 88.2289 24.9635C89.1505 26.0677 90.0186 27.2083 90.8278 28.3906C91.6369 29.5781 92.3871 30.7969 93.073 32.0521C93.7589 33.3073 94.3805 34.5938 94.9378 35.9115C95.4951 37.2292 95.9881 38.5677 96.406 39.9323C96.8294 41.2917 97.183 42.6719 97.467 44.0677C97.751 45.4688 97.9654 46.875 98.1101 48.2917C98.2547 49.7083 98.3244 51.1302 98.3244 52.5521Z" fill="#C46019"/>
<path d="M98.3244 50.2603C98.3244 51.6822 98.2547 53.1041 98.1101 54.5208C97.9654 55.9426 97.751 57.3489 97.467 58.7447C97.183 60.1405 96.8294 61.5208 96.406 62.8853C95.9881 64.2499 95.4951 65.5885 94.9378 66.901C94.3805 68.2187 93.7589 69.5051 93.073 70.7603C92.3871 72.0155 91.6369 73.2395 90.8278 74.4218C90.0186 75.6041 89.1505 76.7499 88.2289 77.8489C87.3072 78.953 86.3266 80.0051 85.2977 81.0103C84.2689 82.0208 83.1918 82.9739 82.0665 83.8801C80.9358 84.7812 79.7677 85.6301 78.5566 86.4218C77.3456 87.2135 76.097 87.9426 74.8163 88.6145C73.5303 89.2864 72.2174 89.8958 70.8724 90.4426C69.5221 90.9843 68.1556 91.4635 66.7624 91.8801C65.3692 92.2916 63.9545 92.6353 62.5291 92.9166C61.0984 93.1926 59.6569 93.401 58.2101 93.5416C56.758 93.6822 55.3058 93.7499 53.8482 93.7499C52.3961 93.7499 50.9385 93.6822 49.4917 93.5416C48.0396 93.401 46.6035 93.1926 45.1727 92.9166C43.7473 92.6353 42.3327 92.2916 40.9394 91.8801C39.5462 91.4635 38.1798 90.9843 36.8294 90.4426C35.4844 89.8958 34.1716 89.2864 32.8855 88.6145C31.5994 87.9426 30.3563 87.2135 29.1452 86.4218C27.9342 85.6301 26.7607 84.7812 25.6354 83.8801C24.5101 82.9739 23.433 82.0208 22.4041 81.0103C21.3753 80.0051 20.3947 78.953 19.473 77.8489C18.5513 76.7499 17.6832 75.6041 16.8741 74.4218C16.0649 73.2395 15.3147 72.0155 14.6288 70.7603C13.9429 69.5051 13.3214 68.2187 12.7641 66.901C12.2068 65.5885 11.7138 64.2499 11.2905 62.8853C10.8725 61.5208 10.5188 60.1405 10.2348 58.7447C9.95081 57.3489 9.73646 55.9426 9.59178 54.5208C9.4471 53.1041 9.37744 51.6822 9.37744 50.2603C9.37744 48.8333 9.4471 47.4166 9.59178 45.9947C9.73646 44.578 9.95081 43.1718 10.2348 41.776C10.5188 40.3801 10.8725 38.9999 11.2905 37.6353C11.7138 36.2708 12.2068 34.9322 12.7641 33.6145C13.3214 32.302 13.9429 31.0155 14.6288 29.7603C15.3147 28.4999 16.0649 27.2812 16.8741 26.0989C17.6832 24.9114 18.5513 23.7708 19.473 22.6718C20.3947 21.5676 21.3753 20.5155 22.4041 19.5051C23.433 18.4999 24.5101 17.5468 25.6354 16.6405C26.7607 15.7395 27.9342 14.8905 29.1452 14.0989C30.3563 13.3072 31.5994 12.578 32.8855 11.9062C34.1716 11.2343 35.4844 10.6249 36.8294 10.078C38.1798 9.53638 39.5462 9.05721 40.9394 8.64054C42.3327 8.22908 43.7473 7.88013 45.1727 7.60409C46.6035 7.32804 48.0396 7.11971 49.4917 6.97909C50.9385 6.83846 52.3961 6.77075 53.8482 6.77075C55.3058 6.77075 56.758 6.83846 58.2101 6.97909C59.6569 7.11971 61.0984 7.32804 62.5291 7.60409C63.9545 7.88013 65.3692 8.22908 66.7624 8.64054C68.1556 9.05721 69.5221 9.53638 70.8724 10.078C72.2174 10.6249 73.5303 11.2343 74.8163 11.9062C76.097 12.578 77.3456 13.3072 78.5566 14.0989C79.7677 14.8905 80.9358 15.7395 82.0665 16.6405C83.1918 17.5468 84.2689 18.4999 85.2977 19.5051C86.3266 20.5155 87.3072 21.5676 88.2289 22.6718C89.1505 23.7708 90.0186 24.9114 90.8278 26.0989C91.6369 27.2812 92.3871 28.4999 93.073 29.7603C93.7589 31.0155 94.3805 32.302 94.9378 33.6145C95.4951 34.9322 95.9881 36.2708 96.406 37.6353C96.8294 38.9999 97.183 40.3801 97.467 41.776C97.751 43.1718 97.9654 44.578 98.1101 45.9947C98.2547 47.4166 98.3244 48.8333 98.3244 50.2603Z" fill="white"/>
<path fill-rule="evenodd" clip-rule="evenodd" d="M98.3137 51.1666C97.8154 74.7655 78.1012 93.7499 53.8536 93.7499C29.6007 93.7499 9.88653 74.7655 9.38818 51.1666C9.88653 27.5676 29.6007 8.58325 53.8536 8.58325C78.1012 8.58325 97.8154 27.5676 98.3137 51.1666Z" fill="#FFCD59"/>
<path fill-rule="evenodd" clip-rule="evenodd" d="M26.3963 20.9168C30.426 18.1668 34.9593 17.7137 36.5241 19.9064C38.0888 22.0991 36.0954 26.1043 32.0657 28.8543C28.0361 31.6043 23.5027 32.0574 21.938 29.8699C20.3733 27.6772 22.3721 23.6668 26.3963 20.9168ZM19.9446 32.6824C21.9541 32.6824 23.5831 34.2762 23.5831 36.2397C23.5831 38.2032 21.9541 39.797 19.9446 39.797C17.9352 39.797 16.3062 38.2032 16.3062 36.2397C16.3062 34.2762 17.9352 32.6824 19.9446 32.6824Z" fill="white"/>
<path fill-rule="evenodd" clip-rule="evenodd" d="M54.8289 33.3491H54.6628L54.5128 33.3543H54.5074C53.5536 33.4012 52.5998 33.6616 51.7156 34.1564L42.4506 39.3908H37.7244C30.7689 39.3908 25.0835 44.9533 25.0835 51.7554V53.0314C25.0835 59.8335 30.7689 65.396 37.7244 65.396H42.4453L51.7156 70.6304C52.5944 71.1252 53.5536 71.3856 54.5074 71.4325H54.5128L54.6628 71.4377H54.6682L54.8129 71.4429H54.8289L54.9629 71.4377C55.5738 71.4272 56.1686 71.3283 56.7259 71.1512L56.742 71.146L56.8491 71.1095L56.8706 71.1043L56.967 71.0679C58.2959 70.5991 59.4695 69.6825 60.2304 68.396C60.7394 67.5366 61.0074 66.5991 61.0502 65.6668V65.6564L61.061 65.5158V39.271L61.0502 39.1304V39.1252C61.0074 38.1877 60.7394 37.2502 60.2304 36.3908C59.4695 35.1043 58.2959 34.1929 56.967 33.7189L56.8706 33.6877L56.8491 33.6772L56.742 33.6408H56.7259C56.1686 33.4637 55.5738 33.3647 54.9629 33.3491H54.8289ZM67.9628 37.396L78.3424 34.6772C80.0732 34.2241 81.8629 35.2345 82.3238 36.9272C82.79 38.6147 81.7558 40.3647 80.025 40.8179L69.6454 43.5418C67.9146 43.995 66.1248 42.9845 65.664 41.2918C65.1978 39.6043 66.232 37.8491 67.9628 37.396ZM67.9628 67.3908L78.3424 70.1095C80.0732 70.5627 81.8629 69.5522 82.3238 67.8595C82.79 66.172 81.7558 64.422 80.025 63.9689L69.6454 61.245C67.9146 60.7918 66.1248 61.8075 65.664 63.495C65.1978 65.1825 66.232 66.9377 67.9628 67.3908ZM68.6219 49.2137H79.3712C81.1556 49.2137 82.6185 50.646 82.6185 52.396C82.6185 54.1408 81.1556 55.5731 79.3712 55.5731H68.6219C66.8321 55.5731 65.3693 54.1408 65.3693 52.396C65.3693 50.646 66.8321 49.2137 68.6219 49.2137Z" fill="#C46019"/>
<path fill-rule="evenodd" clip-rule="evenodd" d="M25.1853 54.6248C25.9891 60.6769 31.3209 65.3957 37.7244 65.3957H42.4453L51.7156 70.63C52.5944 71.1248 53.5536 71.3853 54.5074 71.4321H54.5128L54.6628 71.4373H54.6682L54.8129 71.4425H54.8289L54.9629 71.4373C55.5738 71.4269 56.1686 71.328 56.7259 71.1509L56.7419 71.1457L56.8491 71.1092L56.8706 71.104L56.967 71.0675C58.2959 70.5936 59.4695 69.6821 60.2304 68.3957C60.7394 67.5363 61.0074 66.5988 61.0502 65.6665V65.6561L61.0556 65.5155L61.061 65.505V43.7446L61.0556 43.729L61.0502 43.5884V43.5832C61.0074 42.6457 60.7394 41.7082 60.2304 40.8488C59.4695 39.5623 58.2959 38.6509 56.967 38.1769L56.8706 38.1457L56.8491 38.1353L56.7419 38.0988H56.7259C56.1686 37.9217 55.5738 37.8175 54.9629 37.8071H54.6628L54.5128 37.8123H54.5074C53.5536 37.8592 52.5998 38.1196 51.7156 38.6144L42.4506 43.8488H37.7244C31.3209 43.8488 25.9891 48.5675 25.1853 54.6248ZM67.9628 41.854L78.3424 39.1353C79.5105 38.828 80.7055 39.1925 81.4986 39.979C81.1074 40.3696 80.609 40.6665 80.0249 40.8175L69.6454 43.5415C68.4772 43.8436 67.2823 43.4842 66.4892 42.6978C66.8804 42.3071 67.3841 42.0103 67.9628 41.854ZM81.4986 69.2655C81.1074 68.8748 80.609 68.578 80.0249 68.4269L69.6454 65.703C68.4772 65.4009 67.2823 65.7603 66.4892 66.5467C66.8804 66.9373 67.3841 67.2394 67.9628 67.3905L78.3424 70.1092C79.5105 70.4165 80.7055 70.0519 81.4986 69.2655ZM68.6219 53.6717H79.3712C80.2714 53.6717 81.0913 54.0363 81.6807 54.6248C81.0913 55.2082 80.2714 55.5728 79.3712 55.5728H68.6219C67.7163 55.5728 66.8964 55.2082 66.307 54.6248C66.8964 54.0363 67.7163 53.6717 68.6219 53.6717Z" fill="#FF8228"/>
</svg>
