<svg width="107" height="107" viewBox="0 0 107 107" fill="none" xmlns="http://www.w3.org/2000/svg">
<mask id="mask0_3_10224" style="mask-type:luminance" maskUnits="userSpaceOnUse" x="0" y="2" width="107" height="105">
<path d="M0 2.04163H107V107H0V2.04163Z" fill="white"/>
</mask>
<g mask="url(#mask0_3_10224)">
<path d="M106.995 54.6927C106.995 56.4062 106.909 58.1145 106.732 59.8229C106.561 61.526 106.309 63.2187 105.966 64.901C105.623 66.5781 105.2 68.2395 104.69 69.8802C104.181 71.5156 103.592 73.1302 102.922 74.7135C102.252 76.2916 101.502 77.8385 100.677 79.3541C99.8517 80.8645 98.9514 82.3281 97.9762 83.7552C97.0063 85.177 95.9614 86.552 94.8521 87.8802C93.7376 89.2031 92.564 90.4687 91.3262 91.6823C90.0884 92.8906 88.7916 94.0416 87.4359 95.1302C86.0801 96.2135 84.6762 97.2343 83.2187 98.1875C81.7611 99.1406 80.2607 100.021 78.7175 100.828C77.1742 101.635 75.5881 102.365 73.9698 103.021C72.3515 103.677 70.7064 104.255 69.0292 104.75C67.3519 105.25 65.6533 105.661 63.9385 106C62.2184 106.333 60.4876 106.583 58.7461 106.75C56.9992 106.917 55.2523 107 53.5 107C51.7531 107 50.0009 106.917 48.2593 106.75C46.5178 106.583 44.787 106.333 43.0669 106C41.3468 105.661 39.6535 105.25 37.9762 104.75C36.299 104.255 34.6486 103.677 33.0303 103.021C31.412 102.365 29.8312 101.635 28.2879 100.828C26.7447 100.021 25.2443 99.1406 23.7867 98.1875C22.3292 97.2343 20.9253 96.2135 19.5695 95.1302C18.2138 94.0416 16.917 92.8906 15.6792 91.6823C14.4414 90.4687 13.2679 89.2031 12.1533 87.8802C11.044 86.552 9.99912 85.177 9.02922 83.7552C8.05396 82.3281 7.15372 80.8645 6.3285 79.3541C5.50328 77.8385 4.75308 76.2916 4.08326 74.7135C3.41344 73.1302 2.82399 71.5156 2.31493 69.8802C1.80586 68.2395 1.38254 66.5781 1.03959 64.901C0.69664 63.2187 0.439428 61.526 0.267954 59.8229C0.0964794 58.1145 0.0107422 56.4062 0.0107422 54.6927C0.0107422 52.9791 0.0964794 51.2708 0.267954 49.5677C0.439428 47.8593 0.69664 46.1666 1.03959 44.4895C1.38254 42.8073 1.80586 41.151 2.31493 39.5104C2.82399 37.8698 3.41344 36.2604 4.08326 34.677C4.75308 33.0937 5.50328 31.5468 6.3285 30.0364C7.15372 28.526 8.05396 27.0573 9.02922 25.6302C9.99912 24.2083 11.044 22.8333 12.1533 21.5104C13.2679 20.1875 14.4414 18.9166 15.6792 17.7083C16.917 16.4948 18.2138 15.3437 19.5695 14.2604C20.9253 13.1718 22.3292 12.151 23.7867 11.2031C25.2443 10.25 26.7447 9.36975 28.2879 8.56246C29.8312 7.75517 31.412 7.02079 33.0303 6.36454C34.6486 5.7135 36.299 5.13538 37.9762 4.63538C39.6535 4.14059 41.3468 3.72392 43.0669 3.39058C44.787 3.05725 46.5178 2.80725 48.2593 2.63538C50.0009 2.46871 51.7531 2.38538 53.5 2.38538C55.2523 2.38538 56.9992 2.46871 58.7461 2.63538C60.4876 2.80725 62.2184 3.05725 63.9385 3.39058C65.6533 3.72392 67.3519 4.14059 69.0292 4.63538C70.7064 5.13538 72.3515 5.7135 73.9698 6.36454C75.5881 7.02079 77.1742 7.75517 78.7175 8.56246C80.2607 9.36975 81.7611 10.25 83.2187 11.2031C84.6762 12.151 86.0801 13.1718 87.4359 14.2604C88.7916 15.3437 90.0884 16.4948 91.3262 17.7083C92.564 18.9166 93.7376 20.1875 94.8521 21.5104C95.9614 22.8333 97.0063 24.2083 97.9762 25.6302C98.9514 27.0573 99.8517 28.526 100.677 30.0364C101.502 31.5468 102.252 33.0937 102.922 34.677C103.592 36.2604 104.181 37.8698 104.69 39.5104C105.2 41.151 105.623 42.8073 105.966 44.4895C106.309 46.1666 106.561 47.8593 106.732 49.5677C106.909 51.2708 106.995 52.9791 106.995 54.6927Z" fill="#C46019"/>
</g>
<mask id="mask1_3_10224" style="mask-type:luminance" maskUnits="userSpaceOnUse" x="0" y="0" width="107" height="105">
<path d="M0 0H107V104.708H0V0Z" fill="white"/>
</mask>
<g mask="url(#mask1_3_10224)">
<path d="M106.995 52.3125C106.995 54.026 106.909 55.7344 106.732 57.4375C106.561 59.1406 106.309 60.8333 105.966 62.5156C105.623 64.1979 105.2 65.8542 104.69 67.4948C104.181 69.1354 103.592 70.7448 102.922 72.3281C102.252 73.9115 101.502 75.4583 100.677 76.9688C99.8517 78.4792 98.9514 79.9479 97.9762 81.3698C97.0063 82.7969 95.9614 84.1719 94.8521 85.4948C93.7376 86.8177 92.564 88.0885 91.3262 89.2969C90.0884 90.5104 88.7916 91.6615 87.4359 92.7448C86.0801 93.8333 84.6762 94.8542 83.2187 95.8021C81.7611 96.7552 80.2607 97.6354 78.7175 98.4427C77.1742 99.25 75.5881 99.9844 73.9698 100.635C72.3515 101.292 70.7064 101.87 69.0292 102.365C67.3519 102.865 65.6533 103.281 63.9385 103.615C62.2184 103.948 60.4876 104.198 58.7461 104.37C56.9992 104.536 55.2523 104.62 53.5 104.62C51.7531 104.62 50.0009 104.536 48.2593 104.37C46.5178 104.198 44.787 103.948 43.0669 103.615C41.3468 103.281 39.6535 102.865 37.9762 102.365C36.299 101.87 34.6486 101.292 33.0303 100.635C31.412 99.9844 29.8312 99.25 28.2879 98.4427C26.7447 97.6354 25.2443 96.7552 23.7867 95.8021C22.3292 94.8542 20.9253 93.8333 19.5695 92.7448C18.2138 91.6615 16.917 90.5104 15.6792 89.2969C14.4414 88.0885 13.2679 86.8177 12.1533 85.4948C11.044 84.1719 9.99912 82.7969 9.02922 81.3698C8.05396 79.9479 7.15372 78.4792 6.3285 76.9688C5.50328 75.4583 4.75308 73.9115 4.08326 72.3281C3.41344 70.7448 2.82399 69.1354 2.31493 67.4948C1.80586 65.8542 1.38254 64.1979 1.03959 62.5156C0.69664 60.8333 0.439428 59.1406 0.267954 57.4375C0.0964794 55.7344 0.0107422 54.026 0.0107422 52.3125C0.0107422 50.599 0.0964794 48.8906 0.267954 47.1823C0.439428 45.4792 0.69664 43.7865 1.03959 42.1042C1.38254 40.4271 1.80586 38.7656 2.31493 37.125C2.82399 35.4844 3.41344 33.875 4.08326 32.2917C4.75308 30.7083 5.50328 29.1615 6.3285 27.651C7.15372 26.1406 8.05396 24.6719 9.02922 23.25C9.99912 21.8229 11.044 20.4531 12.1533 19.125C13.2679 17.8021 14.4414 16.5365 15.6792 15.3229C16.917 14.1094 18.2138 12.9635 19.5695 11.875C20.9253 10.7865 22.3292 9.77083 23.7867 8.81771C25.2443 7.86458 26.7447 6.98438 28.2879 6.17708C29.8312 5.36979 31.412 4.64063 33.0303 3.98438C34.6486 3.32813 36.299 2.75 37.9762 2.25521C39.6535 1.75521 41.3468 1.34375 43.0669 1.00521C44.787 0.671875 46.5178 0.421875 48.2593 0.255208C50.0009 0.0885417 51.7531 0 53.5 0C55.2523 0 56.9992 0.0885417 58.7461 0.255208C60.4876 0.421875 62.2184 0.671875 63.9385 1.00521C65.6533 1.34375 67.3519 1.75521 69.0292 2.25521C70.7064 2.75 72.3515 3.32813 73.9698 3.98438C75.5881 4.64063 77.1742 5.36979 78.7175 6.17708C80.2607 6.98438 81.7611 7.86458 83.2187 8.81771C84.6762 9.77083 86.0801 10.7865 87.4359 11.875C88.7916 12.9635 90.0884 14.1094 91.3262 15.3229C92.564 16.5365 93.7376 17.8021 94.8521 19.125C95.9614 20.4531 97.0063 21.8229 97.9762 23.25C98.9514 24.6719 99.8517 26.1406 100.677 27.651C101.502 29.1615 102.252 30.7083 102.922 32.2917C103.592 33.875 104.181 35.4844 104.69 37.125C105.2 38.7656 105.623 40.4271 105.966 42.1042C106.309 43.7865 106.561 45.4792 106.732 47.1823C106.909 48.8906 106.995 50.599 106.995 52.3125Z" fill="#FF8228"/>
</g>
<path d="M98.3245 52.5521C98.3245 53.9792 98.2548 55.401 98.1101 56.8177C97.9654 58.2344 97.7511 59.6406 97.4671 61.0417C97.1831 62.4375 96.8294 63.8177 96.4061 65.1771C95.9881 66.5417 95.4951 67.8802 94.9378 69.1979C94.3805 70.5156 93.759 71.8021 93.0731 73.0573C92.3872 74.3125 91.637 75.5313 90.8278 76.7188C90.0187 77.901 89.1506 79.0417 88.2289 80.1458C87.3072 81.2448 86.3266 82.3021 85.2978 83.3073C84.2689 84.3125 83.1918 85.2708 82.0665 86.1719C80.9359 87.0781 79.7677 87.9271 78.5567 88.7135C77.3456 89.5052 76.0971 90.2396 74.8164 90.9115C73.5303 91.5833 72.2175 92.1875 70.8725 92.7344C69.5221 93.2813 68.1557 93.7604 66.7625 94.1719C65.3692 94.5885 63.9546 94.9323 62.5292 95.2083C61.0984 95.4896 59.657 95.6979 58.2102 95.8385C56.758 95.974 55.3058 96.0469 53.8483 96.0469C52.3961 96.0469 50.9386 95.974 49.4918 95.8385C48.0396 95.6979 46.6035 95.4896 45.1728 95.2083C43.7474 94.9323 42.3327 94.5885 40.9395 94.1719C39.5463 93.7604 38.1798 93.2813 36.8295 92.7344C35.4845 92.1875 34.1716 91.5833 32.8856 90.9115C31.5995 90.2396 30.3563 89.5052 29.1453 88.7135C27.9342 87.9271 26.7607 87.0781 25.6354 86.1719C24.5101 85.2708 23.433 84.3125 22.4042 83.3073C21.3753 82.3021 20.3947 81.2448 19.473 80.1458C18.5514 79.0417 17.6833 77.901 16.8741 76.7188C16.065 75.5313 15.3148 74.3125 14.6289 73.0573C13.943 71.8021 13.3214 70.5156 12.7641 69.1979C12.2068 67.8802 11.7138 66.5417 11.2905 65.1771C10.8725 63.8177 10.5189 62.4375 10.2349 61.0417C9.95085 59.6406 9.73651 58.2344 9.59183 56.8177C9.44715 55.401 9.37749 53.9792 9.37749 52.5521C9.37749 51.1302 9.44715 49.7083 9.59183 48.2917C9.73651 46.875 9.95085 45.4688 10.2349 44.0677C10.5189 42.6719 10.8725 41.2917 11.2905 39.9323C11.7138 38.5677 12.2068 37.2292 12.7641 35.9115C13.3214 34.5937 13.943 33.3073 14.6289 32.0521C15.3148 30.7969 16.065 29.5781 16.8741 28.3906C17.6833 27.2083 18.5514 26.0677 19.473 24.9635C20.3947 23.8646 21.3753 22.8073 22.4042 21.8021C23.433 20.7969 24.5101 19.8385 25.6354 18.9375C26.7607 18.0313 27.9342 17.1823 29.1453 16.3958C30.3563 15.6042 31.5995 14.8698 32.8856 14.1979C34.1716 13.526 35.4845 12.9219 36.8295 12.375C38.1798 11.8281 39.5463 11.349 40.9395 10.9375C42.3327 10.5208 43.7474 10.1771 45.1728 9.90104C46.6035 9.61979 48.0396 9.41146 49.4918 9.27083C50.9386 9.13542 52.3961 9.0625 53.8483 9.0625C55.3058 9.0625 56.758 9.13542 58.2102 9.27083C59.657 9.41146 61.0984 9.61979 62.5292 9.90104C63.9546 10.1771 65.3692 10.5208 66.7625 10.9375C68.1557 11.349 69.5221 11.8281 70.8725 12.375C72.2175 12.9219 73.5303 13.526 74.8164 14.1979C76.0971 14.8698 77.3456 15.6042 78.5567 16.3958C79.7677 17.1823 80.9359 18.0313 82.0665 18.9375C83.1918 19.8385 84.2689 20.7969 85.2978 21.8021C86.3266 22.8073 87.3072 23.8646 88.2289 24.9635C89.1506 26.0677 90.0187 27.2083 90.8278 28.3906C91.637 29.5781 92.3872 30.7969 93.0731 32.0521C93.759 33.3073 94.3805 34.5937 94.9378 35.9115C95.4951 37.2292 95.9881 38.5677 96.4061 39.9323C96.8294 41.2917 97.1831 42.6719 97.4671 44.0677C97.7511 45.4688 97.9654 46.875 98.1101 48.2917C98.2548 49.7083 98.3245 51.1302 98.3245 52.5521Z" fill="#C46019"/>
<path d="M98.3245 50.2603C98.3245 51.6822 98.2548 53.1041 98.1101 54.5208C97.9654 55.9426 97.7511 57.3489 97.4671 58.7447C97.1831 60.1405 96.8294 61.5208 96.4061 62.8853C95.9881 64.2499 95.4951 65.5885 94.9378 66.901C94.3805 68.2187 93.759 69.5051 93.0731 70.7603C92.3872 72.0155 91.637 73.2395 90.8278 74.4218C90.0187 75.6041 89.1506 76.7499 88.2289 77.8489C87.3072 78.953 86.3266 80.0051 85.2978 81.0103C84.2689 82.0208 83.1918 82.9739 82.0665 83.8801C80.9359 84.7812 79.7677 85.6301 78.5567 86.4218C77.3456 87.2135 76.0971 87.9426 74.8164 88.6145C73.5303 89.2864 72.2175 89.8958 70.8725 90.4426C69.5221 90.9843 68.1557 91.4635 66.7625 91.8801C65.3692 92.2916 63.9546 92.6353 62.5292 92.9166C61.0984 93.1926 59.657 93.401 58.2102 93.5416C56.758 93.6822 55.3058 93.7499 53.8483 93.7499C52.3961 93.7499 50.9386 93.6822 49.4918 93.5416C48.0396 93.401 46.6035 93.1926 45.1728 92.9166C43.7474 92.6353 42.3327 92.2916 40.9395 91.8801C39.5463 91.4635 38.1798 90.9843 36.8295 90.4426C35.4845 89.8958 34.1716 89.2864 32.8856 88.6145C31.5995 87.9426 30.3563 87.2135 29.1453 86.4218C27.9342 85.6301 26.7607 84.7812 25.6354 83.8801C24.5101 82.9739 23.433 82.0208 22.4042 81.0103C21.3753 80.0051 20.3947 78.953 19.473 77.8489C18.5514 76.7499 17.6833 75.6041 16.8741 74.4218C16.065 73.2395 15.3148 72.0155 14.6289 70.7603C13.943 69.5051 13.3214 68.2187 12.7641 66.901C12.2068 65.5885 11.7138 64.2499 11.2905 62.8853C10.8725 61.5208 10.5189 60.1405 10.2349 58.7447C9.95085 57.3489 9.73651 55.9426 9.59183 54.5208C9.44715 53.1041 9.37749 51.6822 9.37749 50.2603C9.37749 48.8333 9.44715 47.4166 9.59183 45.9947C9.73651 44.578 9.95085 43.1718 10.2349 41.776C10.5189 40.3801 10.8725 38.9999 11.2905 37.6353C11.7138 36.2708 12.2068 34.9322 12.7641 33.6145C13.3214 32.302 13.943 31.0155 14.6289 29.7603C15.3148 28.4999 16.065 27.2812 16.8741 26.0989C17.6833 24.9114 18.5514 23.7708 19.473 22.6718C20.3947 21.5676 21.3753 20.5155 22.4042 19.5051C23.433 18.4999 24.5101 17.5468 25.6354 16.6405C26.7607 15.7395 27.9342 14.8905 29.1453 14.0989C30.3563 13.3072 31.5995 12.578 32.8856 11.9062C34.1716 11.2343 35.4845 10.6249 36.8295 10.078C38.1798 9.53638 39.5463 9.05721 40.9395 8.64054C42.3327 8.22909 43.7474 7.88013 45.1728 7.60409C46.6035 7.32804 48.0396 7.11971 49.4918 6.97909C50.9386 6.83846 52.3961 6.77075 53.8483 6.77075C55.3058 6.77075 56.758 6.83846 58.2102 6.97909C59.657 7.11971 61.0984 7.32804 62.5292 7.60409C63.9546 7.88013 65.3692 8.22909 66.7625 8.64054C68.1557 9.05721 69.5221 9.53638 70.8725 10.078C72.2175 10.6249 73.5303 11.2343 74.8164 11.9062C76.0971 12.578 77.3456 13.3072 78.5567 14.0989C79.7677 14.8905 80.9359 15.7395 82.0665 16.6405C83.1918 17.5468 84.2689 18.4999 85.2978 19.5051C86.3266 20.5155 87.3072 21.5676 88.2289 22.6718C89.1506 23.7708 90.0187 24.9114 90.8278 26.0989C91.637 27.2812 92.3872 28.4999 93.0731 29.7603C93.759 31.0155 94.3805 32.302 94.9378 33.6145C95.4951 34.9322 95.9881 36.2708 96.4061 37.6353C96.8294 38.9999 97.1831 40.3801 97.4671 41.776C97.7511 43.1718 97.9654 44.578 98.1101 45.9947C98.2548 47.4166 98.3245 48.8333 98.3245 50.2603Z" fill="white"/>
<path fill-rule="evenodd" clip-rule="evenodd" d="M98.3137 51.1666C97.8154 74.7655 78.1012 93.7499 53.8537 93.7499C29.6008 93.7499 9.88656 74.7655 9.38821 51.1666C9.88656 27.5676 29.6008 8.58325 53.8537 8.58325C78.1012 8.58325 97.8154 27.5676 98.3137 51.1666Z" fill="#FFCD59"/>
<path fill-rule="evenodd" clip-rule="evenodd" d="M26.3963 20.9167C30.426 18.1667 34.9593 17.7135 36.524 19.9063C38.0887 22.099 36.0953 26.1042 32.0657 28.8542C28.036 31.6042 23.5027 32.0573 21.938 29.8698C20.3733 27.6771 22.372 23.6667 26.3963 20.9167ZM19.9446 32.6823C21.9541 32.6823 23.5831 34.276 23.5831 36.2396C23.5831 38.2031 21.9541 39.7969 19.9446 39.7969C17.9351 39.7969 16.3061 38.2031 16.3061 36.2396C16.3061 34.276 17.9351 32.6823 19.9446 32.6823Z" fill="white"/>
<path fill-rule="evenodd" clip-rule="evenodd" d="M54.8289 33.349H54.6628L54.5128 33.3542H54.5074C53.5536 33.4011 52.5997 33.6615 51.7156 34.1563L42.4506 39.3907H37.7243C30.7689 39.3907 25.0835 44.9532 25.0835 51.7552V53.0313C25.0835 59.8334 30.7689 65.3959 37.7243 65.3959H42.4452L51.7156 70.6303C52.5944 71.125 53.5536 71.3855 54.5074 71.4323H54.5128L54.6628 71.4375H54.6682L54.8128 71.4428H54.8289L54.9629 71.4375C55.5738 71.4271 56.1686 71.3282 56.7258 71.1511L56.7419 71.1459L56.8491 71.1094L56.8705 71.1042L56.967 71.0678C58.2959 70.599 59.4694 69.6823 60.2304 68.3959C60.7394 67.5365 61.0073 66.599 61.0502 65.6667V65.6563L61.0609 65.5157V39.2709L61.0502 39.1302V39.125C61.0073 38.1875 60.7394 37.25 60.2304 36.3907C59.4694 35.1042 58.2959 34.1927 56.967 33.7188L56.8705 33.6875L56.8491 33.6771L56.7419 33.6407H56.7258C56.1686 33.4636 55.5738 33.3646 54.9629 33.349H54.8289ZM67.9628 37.3959L78.3423 34.6771C80.0732 34.224 81.8629 35.2344 82.3238 36.9271C82.7899 38.6146 81.7557 40.3646 80.0249 40.8177L69.6454 43.5417C67.9145 43.9948 66.1248 42.9844 65.6639 41.2917C65.1978 39.6042 66.232 37.849 67.9628 37.3959ZM67.9628 67.3907L78.3423 70.1094C80.0732 70.5625 81.8629 69.5521 82.3238 67.8594C82.7899 66.1719 81.7557 64.4219 80.0249 63.9688L69.6454 61.2448C67.9145 60.7917 66.1248 61.8073 65.6639 63.4948C65.1978 65.1823 66.232 66.9375 67.9628 67.3907ZM68.6219 49.2136H79.3712C81.1556 49.2136 82.6185 50.6459 82.6185 52.3959C82.6185 54.1407 81.1556 55.573 79.3712 55.573H68.6219C66.8321 55.573 65.3692 54.1407 65.3692 52.3959C65.3692 50.6459 66.8321 49.2136 68.6219 49.2136Z" fill="#C46019"/>
<path fill-rule="evenodd" clip-rule="evenodd" d="M25.1853 54.625C25.9891 60.677 31.3209 65.3958 37.7244 65.3958H42.4453L51.7156 70.6302C52.5944 71.125 53.5536 71.3854 54.5074 71.4323H54.5128L54.6628 71.4375H54.6682L54.8129 71.4427H54.8289L54.9629 71.4375C55.5738 71.427 56.1686 71.3281 56.7259 71.151L56.742 71.1458L56.8491 71.1093L56.8706 71.1041L56.967 71.0677C58.2959 70.5937 59.4695 69.6823 60.2304 68.3958C60.7395 67.5364 61.0074 66.5989 61.0503 65.6666V65.6562L61.0556 65.5156L61.061 65.5052V43.7448L61.0556 43.7291L61.0503 43.5885V43.5833C61.0074 42.6458 60.7395 41.7083 60.2304 40.8489C59.4695 39.5625 58.2959 38.651 56.967 38.177L56.8706 38.1458L56.8491 38.1354L56.742 38.0989H56.7259C56.1686 37.9218 55.5738 37.8177 54.9629 37.8073H54.6628L54.5128 37.8125H54.5074C53.5536 37.8593 52.5998 38.1198 51.7156 38.6145L42.4506 43.8489H37.7244C31.3209 43.8489 25.9891 48.5677 25.1853 54.625ZM67.9628 41.8541L78.3424 39.1354C79.5105 38.8281 80.7055 39.1927 81.4986 39.9791C81.1074 40.3698 80.609 40.6666 80.025 40.8177L69.6454 43.5416C68.4772 43.8437 67.2823 43.4843 66.4892 42.6979C66.8804 42.3073 67.3841 42.0104 67.9628 41.8541ZM81.4986 69.2656C81.1074 68.875 80.609 68.5781 80.025 68.427L69.6454 65.7031C68.4772 65.401 67.2823 65.7604 66.4892 66.5468C66.8804 66.9375 67.3841 67.2395 67.9628 67.3906L78.3424 70.1093C79.5105 70.4166 80.7055 70.052 81.4986 69.2656ZM68.6219 53.6718H79.3712C80.2715 53.6718 81.0913 54.0364 81.6808 54.625C81.0913 55.2083 80.2715 55.5729 79.3712 55.5729H68.6219C67.7163 55.5729 66.8965 55.2083 66.307 54.625C66.8965 54.0364 67.7163 53.6718 68.6219 53.6718Z" fill="#FF8228"/>
</svg>
