<svg width="88" height="128" viewBox="0 0 88 128" fill="none" xmlns="http://www.w3.org/2000/svg">
<mask id="mask0_65_4565" style="mask-type:luminance" maskUnits="userSpaceOnUse" x="0" y="0" width="88" height="128">
<path d="M0.0566406 0.101196H87.2697V127.221H0.0566406V0.101196Z" fill="white"/>
</mask>
<g mask="url(#mask0_65_4565)">
<mask id="mask1_65_4565" style="mask-type:luminance" maskUnits="userSpaceOnUse" x="0" y="-1" width="89" height="131">
<path d="M88.7557 -0.938232H0.0566406V129.154H88.7557V-0.938232Z" fill="white"/>
</mask>
<g mask="url(#mask1_65_4565)">
<mask id="mask2_65_4565" style="mask-type:luminance" maskUnits="userSpaceOnUse" x="0" y="0" width="85" height="45">
<path d="M0.241455 0.101196H84.8136V44.3968H0.241455V0.101196Z" fill="white"/>
</mask>
<g mask="url(#mask2_65_4565)">
<path d="M1.9353 34.218V28.6281C1.9353 25.325 2.82845 22.0835 4.53776 19.2577C6.37026 16.2318 9.2114 12.3204 13.2614 8.83251C18.6973 4.15117 25.573 1.47172 32.7336 1.10984C41.3109 0.670967 57.7495 0.185893 68.4288 2.06459C69.2373 2.20318 70.0534 2.33407 70.8619 2.46497C72.217 2.69596 74.7502 3.26572 77.2217 4.62085C81.1331 6.76133 83.5816 10.8344 83.8126 15.2848C84.0435 19.7813 84.4362 29.8677 83.6817 36.32L60.5521 43.8117H47.9402L26.1582 42.0639L6.57815 37.6212L1.9353 34.218Z" fill="#D7DFE5"/>
</g>
<mask id="mask3_65_4565" style="mask-type:luminance" maskUnits="userSpaceOnUse" x="2" y="0" width="62" height="38">
<path d="M2.14307 0.709473H63.7859V37.2747H2.14307V0.709473Z" fill="white"/>
</mask>
<g mask="url(#mask3_65_4565)">
<mask id="mask4_65_4565" style="mask-type:luminance" maskUnits="userSpaceOnUse" x="2" y="0" width="83" height="44">
<path d="M2.16626 34.3258V28.7282C2.16626 25.4251 3.05941 22.1836 4.76872 19.3578C6.60121 16.3319 9.44236 12.4205 13.4923 8.93261C18.9282 4.25127 25.8039 1.57952 32.9645 1.20994C41.5419 0.771065 57.9805 0.285991 68.6598 2.16469C69.4682 2.30328 70.2844 2.43417 71.0928 2.57276C72.448 2.79605 74.9811 3.36582 77.4527 4.72095C81.3641 6.86143 83.8125 10.9345 84.0435 15.3849C84.2745 19.8814 84.6672 29.9678 83.9126 36.4201L60.7831 43.9118H48.1712L26.3891 42.1717L6.8091 37.7213L2.16626 34.3258Z" fill="white"/>
</mask>
<g mask="url(#mask4_65_4565)">
<path d="M22.6548 0.809326C22.6548 0.809326 4.7687 16.8706 63.7012 27.0572C63.7705 27.0649 60.3057 35.6191 60.3057 35.6191L33.6036 37.2745L8.21041 32.3006L-0.5979 28.0273L1.93526 15.3461L9.84272 6.32992L22.6548 0.809326Z" fill="#E8ECEF"/>
</g>
</g>
<mask id="mask5_65_4565" style="mask-type:luminance" maskUnits="userSpaceOnUse" x="10" y="0" width="63" height="30">
<path d="M10.5049 0.709473H72.5711V29.1979H10.5049V0.709473Z" fill="white"/>
</mask>
<g mask="url(#mask5_65_4565)">
<mask id="mask6_65_4565" style="mask-type:luminance" maskUnits="userSpaceOnUse" x="2" y="0" width="83" height="44">
<path d="M2.16626 34.3258V28.7282C2.16626 25.4251 3.05941 22.1836 4.76872 19.3578C6.60121 16.3319 9.44236 12.4205 13.4923 8.93261C18.9282 4.25127 25.8039 1.57952 32.9645 1.20994C41.5419 0.771065 57.9805 0.285991 68.6598 2.16469C69.4682 2.30328 70.2844 2.43417 71.0928 2.57276C72.448 2.79605 74.9811 3.36582 77.4527 4.72095C81.3641 6.86143 83.8125 10.9345 84.0435 15.3849C84.2745 19.8814 84.6672 29.9678 83.9126 36.4201L60.7831 43.9118H48.1712L26.3891 42.1717L6.8091 37.7213L2.16626 34.3258Z" fill="white"/>
</mask>
<g mask="url(#mask6_65_4565)">
<path d="M13.8928 11.6736C16.0256 8.69388 18.1892 5.68335 20.9148 3.21179C22.1698 2.06455 23.5404 1.0405 25.0187 0.201252C25.7578 -0.214524 26.5278 -0.576405 27.3209 -0.884388C27.7597 -1.06148 28.2063 -1.21547 28.6606 -1.34636C28.9455 -1.43106 29.3381 -1.61585 29.623 -1.47726C30.0927 -1.23857 29.9387 -0.630302 29.4921 -0.49941C28.753 -0.276121 28.0138 -0.0682338 27.2978 0.23205C25.8887 0.817218 24.5721 1.60257 23.3556 2.51882C20.8686 4.38982 18.8128 6.76899 16.9495 9.24055C16.0333 10.4494 15.1632 11.689 14.2932 12.9286C13.2537 14.4224 12.1835 16.0085 11.7985 17.8179C11.4212 19.5734 11.9602 21.2981 13.2768 22.5146C14.5704 23.7157 16.272 24.2932 17.9505 24.7321C19.8369 25.2172 21.7618 25.5713 23.679 25.9486C25.6346 26.3413 27.598 26.7032 29.5691 27.0035C31.5941 27.3191 33.6191 27.5809 35.6595 27.758C37.6152 27.9351 39.594 28.0737 41.5651 28.0352C43.413 27.989 45.2532 27.681 46.8855 26.7725C48.2868 26.0025 49.4725 24.8938 50.4735 23.6541C52.7602 20.8053 53.9922 17.3328 55.3396 13.9835C56.0249 12.2742 56.7563 10.5726 57.688 8.97107C58.6042 7.39265 59.7438 5.92973 61.0835 4.6747C63.6089 2.30323 66.7966 0.609329 70.1921 -0.099032C70.6463 -0.199126 71.1006 -0.268422 71.5549 -0.330018C71.8167 -0.368518 72.1709 -0.48401 72.3942 -0.283822C72.7329 0.00876296 72.4942 0.563132 72.0939 0.640127H72.0708L72.0477 0.647828C68.4674 1.0559 65.018 2.59582 62.3 4.96729C60.9141 6.17612 59.7284 7.59284 58.7736 9.17125C57.7881 10.8036 57.0258 12.5514 56.3097 14.3223C54.9854 17.6331 53.7689 21.0363 51.5899 23.9082C50.6275 25.1787 49.4956 26.3336 48.1559 27.2191C46.7007 28.1815 45.053 28.7282 43.3283 28.9438C41.3803 29.1901 39.3784 29.0823 37.4227 28.9438C35.4516 28.7975 33.4882 28.5973 31.5325 28.3355C27.5595 27.7965 23.602 27.0497 19.6829 26.1873C16.4876 25.4866 12.6532 24.6089 11.1364 21.3289C9.55794 17.9103 11.9602 14.3762 13.8928 11.6736Z" fill="#96989C"/>
</g>
</g>
<mask id="mask7_65_4565" style="mask-type:luminance" maskUnits="userSpaceOnUse" x="2" y="5" width="83" height="39">
<path d="M2.14307 5.09827H84.4746V43.9349H2.14307V5.09827Z" fill="white"/>
</mask>
<g mask="url(#mask7_65_4565)">
<mask id="mask8_65_4565" style="mask-type:luminance" maskUnits="userSpaceOnUse" x="2" y="0" width="83" height="44">
<path d="M2.16626 34.3258V28.7282C2.16626 25.4251 3.05941 22.1836 4.76872 19.3578C6.60121 16.3319 9.44236 12.4205 13.4923 8.93261C18.9282 4.25127 25.8039 1.57952 32.9645 1.20994C41.5419 0.771065 57.9805 0.285991 68.6598 2.16469C69.4682 2.30328 70.2844 2.43417 71.0928 2.57276C72.448 2.79605 74.9811 3.36582 77.4527 4.72095C81.3641 6.86143 83.8125 10.9345 84.0435 15.3849C84.2745 19.8814 84.6672 29.9678 83.9126 36.4201L60.7831 43.9118H48.1712L26.3891 42.1717L6.8091 37.7213L2.16626 34.3258Z" fill="white"/>
</mask>
<g mask="url(#mask8_65_4565)">
<path d="M82.4574 5.14444C82.4574 5.14444 64.3788 4.28209 59.5126 26.6263C58.7966 29.9063 56.4944 32.6242 53.353 33.7715C53.0142 33.8946 52.6523 34.0178 52.275 34.1256C50.2886 34.6877 48.2097 34.8417 46.1539 34.6415C39.9942 34.0563 19.5288 31.8543 -1.29858 26.8341V32.5934L3.78313 37.6828C3.78313 37.6828 45.5841 44.7741 45.792 44.6895C45.9999 44.6048 65.1256 42.7184 65.1256 42.7184L86.4997 35.3807L90.7652 30.068L86.4997 16.7554L82.4574 5.14444Z" fill="#B5BEC6"/>
</g>
</g>
<mask id="mask9_65_4565" style="mask-type:luminance" maskUnits="userSpaceOnUse" x="3" y="37" width="82" height="91">
<path d="M3.13647 37.1284H84.1899V127.136H3.13647V37.1284Z" fill="white"/>
</mask>
<g mask="url(#mask9_65_4565)">
<path d="M84.1207 37.7828L80.7406 108.619C80.6482 110.498 79.9321 112.284 78.7079 113.708C75.5049 117.404 68.3519 124.303 57.7034 126.921C56.8257 127.136 55.9094 127.183 55.0163 127.09C50.0578 126.551 32.2256 123.918 10.5282 112.553C7.74861 111.098 5.88532 108.349 5.58503 105.223C4.4532 93.4661 1.95854 62.8372 3.78333 37.6827L22.9014 41.34L52.5678 43.7115L70.8774 41.0013L80.8792 37.2747L84.1207 37.7828Z" fill="#D7DFE5"/>
</g>
<mask id="mask10_65_4565" style="mask-type:luminance" maskUnits="userSpaceOnUse" x="55" y="41" width="30" height="83">
<path d="M55.4243 41.24H84.1899V123.872H55.4243V41.24Z" fill="white"/>
</mask>
<g mask="url(#mask10_65_4565)">
<mask id="mask11_65_4565" style="mask-type:luminance" maskUnits="userSpaceOnUse" x="3" y="37" width="82" height="91">
<path d="M84.1207 37.7828L80.7406 108.619C80.6482 110.498 79.9321 112.284 78.7079 113.708C75.5049 117.404 68.3519 124.303 57.7034 126.921C56.8257 127.136 55.9094 127.183 55.0163 127.09C50.0578 126.551 32.2256 123.918 10.5282 112.553C7.74861 111.098 5.88532 108.349 5.58503 105.223C4.4532 93.4661 1.95854 62.8372 3.78333 37.6827L22.9014 41.34L52.5678 43.7115L70.8774 41.0013L80.8792 37.2747L84.1207 37.7828Z" fill="white"/>
</mask>
<g mask="url(#mask11_65_4565)">
<path d="M57.7189 47.6845C57.7189 47.6845 52.7604 107.626 57.8036 123.764L86.4307 106.825L88.9561 54.7142L85.6915 41.3785L66.4426 44.4353L57.7189 47.6845Z" fill="#BEC6CC"/>
</g>
</g>
<mask id="mask12_65_4565" style="mask-type:luminance" maskUnits="userSpaceOnUse" x="55" y="47" width="4" height="78">
<path d="M55.2856 47.0532H58.1191V124.434H55.2856V47.0532Z" fill="white"/>
</mask>
<g mask="url(#mask12_65_4565)">
<mask id="mask13_65_4565" style="mask-type:luminance" maskUnits="userSpaceOnUse" x="3" y="37" width="82" height="91">
<path d="M84.1204 37.783L80.7403 108.619C80.6479 110.498 79.9319 112.284 78.7076 113.708C75.5046 117.404 68.3517 124.303 57.7032 126.921C56.8254 127.136 55.9092 127.183 55.016 127.09C50.0575 126.551 32.2253 123.918 10.5279 112.554C7.74837 111.098 5.88507 108.35 5.58479 105.224C4.45295 93.4663 1.95829 62.8374 3.78309 37.6829L22.9011 41.3402L52.5676 43.7116L70.8772 41.0014L80.8789 37.2748L84.1204 37.783Z" fill="white"/>
</mask>
<g mask="url(#mask13_65_4565)">
<path d="M55.3086 94.2978C55.3317 89.0236 55.4318 83.7571 55.5781 78.4829C55.7244 73.2395 55.9092 68.0038 56.1402 62.768C56.248 60.1579 56.3712 57.5554 56.4944 54.953C56.5637 53.6133 56.6253 52.2812 56.6946 50.9492C56.7331 50.2947 56.7639 49.6403 56.8023 48.9935C56.8177 48.6932 56.8331 48.3929 56.8408 48.0927C56.8485 47.9079 56.8177 47.6769 56.8947 47.4998C57.1103 46.9685 57.8341 47.1764 57.8957 47.6846C57.9111 48.9473 57.7725 50.2254 57.7032 51.4805C57.6416 52.7971 57.5723 54.106 57.5107 55.415C57.3798 58.0482 57.2643 60.6738 57.1488 63.2993C56.9255 68.5889 56.7408 73.8862 56.5945 79.1758C56.4559 84.4654 56.3635 89.7474 56.3481 95.037C56.3327 100.296 56.3866 105.547 56.633 110.798C56.7485 113.385 56.9178 115.964 57.1873 118.544C57.3182 119.853 57.4876 121.154 57.7186 122.455C57.7725 122.755 57.8341 123.063 57.8957 123.371C57.9342 123.556 58.0189 123.772 57.9727 123.964C57.9188 124.211 57.6647 124.388 57.4183 124.38C57.0102 124.365 56.964 123.964 56.8947 123.649C56.7639 123.017 56.6561 122.378 56.556 121.739C56.3635 120.492 56.2172 119.244 56.094 117.989C55.8322 115.379 55.6782 112.761 55.5627 110.144C55.3394 104.862 55.2855 99.5797 55.3086 94.2978Z" fill="#96989C"/>
</g>
</g>
<mask id="mask14_65_4565" style="mask-type:luminance" maskUnits="userSpaceOnUse" x="3" y="37" width="7" height="75">
<path d="M3.13647 37.5596H9.7966V111.961H3.13647V37.5596Z" fill="white"/>
</mask>
<g mask="url(#mask14_65_4565)">
<mask id="mask15_65_4565" style="mask-type:luminance" maskUnits="userSpaceOnUse" x="3" y="37" width="82" height="91">
<path d="M84.1207 37.7828L80.7406 108.619C80.6482 110.498 79.9321 112.284 78.7079 113.708C75.5049 117.404 68.3519 124.303 57.7034 126.921C56.8257 127.136 55.9094 127.183 55.0163 127.09C50.0578 126.551 32.2256 123.918 10.5282 112.553C7.74861 111.098 5.88532 108.349 5.58503 105.223C4.4532 93.4661 1.95854 62.8372 3.78333 37.6827L22.9014 41.34L52.5678 43.7115L70.8774 41.0013L80.8792 37.2747L84.1207 37.7828Z" fill="white"/>
</mask>
<g mask="url(#mask15_65_4565)">
<path d="M9.45012 111.899C7.01706 69.2741 9.29613 43.1186 9.71961 38.8146L3.78324 37.6827C3.32126 44.0426 3.13647 50.7566 3.13647 57.4321C3.13647 77.1277 4.73799 96.4459 5.58494 105.223C5.84672 107.926 7.27114 110.351 9.45012 111.899Z" fill="#E0E6EA"/>
</g>
</g>
<mask id="mask16_65_4565" style="mask-type:luminance" maskUnits="userSpaceOnUse" x="3" y="37" width="82" height="13">
<path d="M3.13647 37.1284H84.1899V49.748H3.13647V37.1284Z" fill="white"/>
</mask>
<g mask="url(#mask16_65_4565)">
<mask id="mask17_65_4565" style="mask-type:luminance" maskUnits="userSpaceOnUse" x="3" y="37" width="82" height="91">
<path d="M84.1207 37.7828L80.7406 108.619C80.6482 110.498 79.9321 112.284 78.7079 113.708C75.5049 117.404 68.3519 124.303 57.7034 126.921C56.8257 127.136 55.9094 127.183 55.0163 127.09C50.0578 126.551 32.2256 123.918 10.5282 112.553C7.74861 111.098 5.88532 108.349 5.58503 105.223C4.4532 93.4661 1.95854 62.8372 3.78333 37.6827L22.9014 41.34L52.5678 43.7115L70.8774 41.0013L80.8792 37.2747L84.1207 37.7828Z" fill="white"/>
</mask>
<g mask="url(#mask17_65_4565)">
<path d="M2.76693 36.7511C8.07193 38.5528 29.1842 45.0974 55.4243 44.928C58.327 44.9126 61.2221 44.5277 64.0324 43.7885C69.2373 42.418 78.3151 39.7847 85.5373 36.4585C86.3997 36.0581 87.4237 36.3892 87.8857 37.2208C87.9011 37.2516 87.9242 37.2901 87.9396 37.3286C89.0252 39.3843 87.9781 41.9252 85.7914 42.7106C81.9031 44.1119 72.0708 47.4381 61.8612 49.2398C60.1056 49.5555 58.3193 49.7095 56.533 49.7172C48.9105 49.7326 25.9503 49.2629 5.1461 43.4574C2.68223 42.7644 0.996025 40.4392 1.18081 37.8829C1.18081 37.8444 1.18852 37.8059 1.18852 37.7674C1.25781 37.0052 2.03547 36.5047 2.76693 36.7511Z" fill="#BEC6CC"/>
</g>
</g>
<mask id="mask18_65_4565" style="mask-type:luminance" maskUnits="userSpaceOnUse" x="3" y="100" width="82" height="28">
<path d="M3.13647 100.912H84.1899V127.136H3.13647V100.912Z" fill="white"/>
</mask>
<g mask="url(#mask18_65_4565)">
<mask id="mask19_65_4565" style="mask-type:luminance" maskUnits="userSpaceOnUse" x="3" y="37" width="82" height="91">
<path d="M84.1207 37.783L80.7406 108.619C80.6482 110.498 79.9321 112.284 78.7079 113.708C75.5049 117.404 68.3519 124.303 57.7034 126.921C56.8257 127.136 55.9094 127.183 55.0163 127.09C50.0578 126.551 32.2256 123.918 10.5282 112.554C7.74861 111.098 5.88532 108.35 5.58503 105.224C4.4532 93.4663 1.95854 62.8374 3.78333 37.6829L22.9014 41.3402L52.5678 43.7116L70.8774 41.0014L80.8792 37.2748L84.1207 37.783Z" fill="white"/>
</mask>
<g mask="url(#mask19_65_4565)">
<path d="M81.1024 100.989C81.1024 100.989 65.9342 142.251 3.13647 105.547V112.684L10.7052 118.906L20.1833 121.824L57.7726 132.288L73.8263 127.137L89.5411 109.951L87.4545 100.989H81.1024Z" fill="#BEC6CC"/>
</g>
</g>
<mask id="mask20_65_4565" style="mask-type:luminance" maskUnits="userSpaceOnUse" x="0" y="32" width="88" height="15">
<path d="M0.249023 32.5703H87.2696V46.06H0.249023V32.5703Z" fill="white"/>
</mask>
<g mask="url(#mask20_65_4565)">
<path d="M1.84286 33.0631C7.15556 34.8648 28.2601 41.4017 54.5002 41.2401C57.4107 41.217 60.298 40.8397 63.1084 40.1005C68.3133 38.7223 77.3911 36.0967 84.6133 32.7628C85.4756 32.3624 86.4997 32.6935 86.9616 33.5251C86.977 33.5636 87.0001 33.6021 87.0232 33.6329C88.1012 35.6887 87.054 38.2295 84.8673 39.0226C80.9791 40.4162 71.1467 43.7424 60.9448 45.5518C59.1816 45.8598 57.3953 46.0215 55.609 46.0215C47.9864 46.0446 25.0263 45.5749 4.22202 39.7617C1.75816 39.0765 0.0719538 36.7435 0.256743 34.1872C0.264444 34.1487 0.264444 34.1179 0.264444 34.0794C0.333739 33.3095 1.1114 32.8167 1.84286 33.0631Z" fill="#8F989E"/>
</g>
</g>
</g>
</svg>
