<svg width="125" height="171" viewBox="0 0 125 171" fill="none" xmlns="http://www.w3.org/2000/svg">
<path d="M29.1508 116.85C33.0083 116.973 36.8119 117.536 40.6154 118.136C40.7001 118.136 40.7771 118.175 40.8618 118.182C41.0081 118.182 41.1852 118.275 41.2853 118.151C41.3854 118.021 41.2314 117.836 41.139 117.72C40.4923 116.881 39.8224 116.065 39.1833 115.233C37.6742 113.27 36.2344 111.276 34.9024 109.197C34.7253 108.927 34.5867 108.643 34.4866 108.342C34.3095 107.803 34.2094 107.241 34.7253 106.841C34.9717 106.648 35.2411 106.556 35.5491 106.548C35.8648 106.541 36.142 106.633 36.3884 106.818C37.4355 107.457 38.4519 108.142 39.4759 108.812C39.7377 108.981 40.0072 109.166 40.2767 109.328C40.5462 109.489 40.7309 109.397 40.6847 109.058C40.6154 108.643 40.5231 108.234 40.4307 107.819C39.8378 105.193 38.9446 102.629 38.4057 99.9882C38.2979 99.5108 38.2286 99.0334 38.2055 98.5484C38.1824 97.9093 38.3518 97.3164 38.96 96.9931C39.5683 96.6774 40.1458 96.8853 40.6616 97.2933C41.139 97.7091 41.5625 98.1788 41.9398 98.6947C43.7646 100.912 45.3353 103.322 46.9214 105.701C47.0215 105.848 47.06 106.117 47.2987 106.079C47.5374 106.04 47.4604 105.763 47.5143 105.593C47.6221 105.062 47.8607 104.608 48.238 104.215C48.4074 104.054 48.5229 103.853 48.5922 103.622C50.4401 98.5407 53.2812 94.021 56.4535 89.6708C56.6383 89.3859 56.8769 89.1472 57.1618 88.9624C57.6161 88.6467 58.0781 88.6313 58.5478 88.9162C59.0482 89.255 59.2407 89.717 59.1021 90.3098C58.9789 91.2492 58.7787 92.1731 58.517 93.0894C57.3466 97.3241 55.6758 101.382 53.9588 105.416C52.9194 107.88 51.9338 110.375 50.6326 112.723C50.5017 112.977 50.4786 113.239 50.5787 113.516C51.672 117.158 52.1802 120.923 53.0118 124.627C53.1812 125.412 53.2735 126.205 53.389 126.998C53.4968 127.868 53.1119 128.3 52.2264 128.369C51.6258 128.392 51.0484 128.284 50.494 128.038C43.3565 125.15 36.0496 122.725 28.8505 119.999C28.2961 119.784 27.7649 119.53 27.2567 119.222C26.9795 119.106 26.7793 118.914 26.6407 118.644C26.5021 118.382 26.4713 118.098 26.5329 117.805C26.6638 117.166 27.1874 116.95 27.7572 116.873C28.2191 116.835 28.6888 116.835 29.1508 116.85ZM61.8201 74.6412C61.8278 72.9935 61.5121 71.4151 60.8653 69.8983C60.234 68.3968 59.5795 66.8723 58.8788 65.394C57.5853 62.4913 56.03 59.7425 54.1975 57.1478C53.7586 56.4394 53.1812 55.8542 52.4728 55.4077C51.6335 54.9611 50.9329 55.3461 50.879 56.2854C50.8713 56.9861 50.956 57.6713 51.1254 58.3489C51.5026 59.935 51.7105 61.5442 51.7644 63.1688C51.7644 63.3767 51.8337 63.6154 51.595 63.8156C51.2871 63.1765 51.033 62.5144 50.8405 61.8368C50.6942 61.3594 50.4555 60.9437 50.1167 60.5895C49.8703 60.3046 49.5624 60.1583 49.1928 60.1583C48.8155 60.1506 48.4998 60.2892 48.2534 60.5664C48.0224 60.782 47.8376 61.036 47.6991 61.3209C46.8906 63.0841 46.598 64.932 46.8136 66.8569C47.0831 70.1831 48.5999 72.8703 50.9637 75.1571C53.0118 77.1513 55.491 78.4525 58.0473 79.669C59.079 80.1618 60.0877 80.3697 61.104 79.669C61.1271 79.669 61.181 79.669 61.2272 79.6921C61.3119 79.9308 61.1887 80.1464 61.1348 80.362C60.6651 82.5949 60.3803 84.8046 61.258 87.0144C61.6507 88.0154 62.3513 88.2694 63.2368 87.6458C63.822 87.2223 64.3455 86.7372 64.8075 86.1906C66.7786 83.8961 68.5726 81.4707 70.1818 78.9145C72.1991 75.8038 73.9854 72.5777 74.9863 68.982C75.4021 67.496 75.8102 66.0177 75.7871 64.4778C75.7871 64.0466 75.7409 63.6 75.2558 63.4152C74.7554 63.215 74.3319 63.3074 73.97 63.7078C73.5388 64.139 73.123 64.5933 72.7073 65.0398C72.2915 65.4864 71.8603 65.9792 71.4368 66.4488L71.2905 66.3642C71.3367 66.0408 71.3906 65.7097 71.4445 65.3786C71.5754 64.8011 71.6139 64.216 71.5446 63.6231C71.3598 62.6607 70.6284 62.3296 69.8122 62.8685C69.3503 63.2073 68.9422 63.6 68.5957 64.062C66.6323 66.4719 65.2002 69.1899 63.9452 72.0079C63.1906 73.6633 62.5746 75.3573 61.9125 77.0589C62.0511 76.2196 61.8047 75.442 61.8201 74.6412ZM61.5968 127.545C61.6661 127.776 61.8124 127.899 62.0588 127.922C62.3205 127.984 62.5746 128.092 62.8133 128.238C63.4447 128.577 64.1145 128.723 64.8383 128.669C66.9018 128.469 68.9345 128.061 70.9672 127.66C72.7766 127.314 73.7313 126.221 74.0547 124.434C74.509 121.94 75.1788 119.507 76.0643 117.127C77.3732 113.586 79.0825 110.213 80.684 106.802C81.2153 105.763 81.6465 104.693 81.9622 103.568C82.0699 103.13 82.1007 102.668 81.7004 102.344C81.2769 102.044 80.838 102.013 80.376 102.26C79.9988 102.406 79.6446 102.583 79.2673 102.722C78.7283 102.922 78.5127 102.791 78.4665 102.221C78.4126 101.744 78.3818 101.259 78.3203 100.774C78.1894 99.7418 77.3655 99.3183 76.4339 99.7957C76.0566 99.9959 75.7255 100.242 75.4252 100.55C74.0547 101.928 72.9306 103.522 71.6524 104.978C71.483 105.178 71.3444 105.578 71.075 105.447C70.8055 105.324 70.9672 104.947 71.0057 104.7C71.2674 103.076 71.5446 101.459 71.8141 99.8342C71.9604 98.941 72.1144 98.0479 72.2222 97.1547C72.2761 96.6466 72.2838 96.0768 71.6678 95.8843C71.0442 95.6841 70.6746 96.0922 70.4051 96.585C70.228 96.9007 70.0817 97.224 69.9508 97.5551C69.1809 99.6725 68.3724 101.782 67.6563 103.923C65.8315 109.42 63.999 114.925 62.7209 120.585C62.6516 120.962 62.5053 121.308 62.2666 121.616C61.4967 122.61 61.0963 123.741 61.0655 124.996C61.0116 125.92 61.412 126.721 61.5968 127.545ZM92.6492 64.4239C93.9658 62.5914 95.2901 60.7589 96.599 58.9264C96.9301 58.4567 97.2766 57.9408 96.7761 57.3865C96.4527 57.0092 95.9677 57.117 95.2439 57.6328C91.756 60.1814 88.8148 63.2689 86.0814 66.5951C85.0266 67.8887 84.1642 69.3439 83.0632 70.5758C81.9622 71.8155 81.5541 73.2091 81.0921 74.6797C80.5762 76.5122 80.1989 78.3678 79.9603 80.2542C79.7755 81.4399 79.4521 82.6103 79.4752 83.8191C79.4983 85.128 80.2913 85.6362 81.5156 85.1742C82.093 84.9432 82.6243 84.6506 83.1248 84.2888C86.1661 82.156 89.3922 80.3697 92.8108 78.9299C94.7511 78.1984 96.6529 77.3745 98.5008 76.4429C99.5172 75.9424 100.418 75.2957 101.219 74.4949C102.351 73.2476 102.127 71.9771 100.626 71.2149L100.056 70.9377C98.547 70.2062 98.5008 70.0138 99.4248 68.5816C99.9715 67.8117 100.48 67.0032 100.934 66.164C101.065 65.9022 101.18 65.6327 101.265 65.3478C101.781 63.6847 100.788 62.5375 99.0475 62.7531C97.4691 62.9686 95.96 63.4152 94.5202 64.0928C93.8349 64.3931 93.1573 64.701 92.449 65.0244C92.4105 64.7857 92.4721 64.5856 92.6415 64.4239H92.6492ZM33.8783 60.1044C33.1238 57.3249 32.0458 54.6762 30.6445 52.1507C29.6898 50.4799 28.3038 49.3019 26.4944 48.6089C24.1307 47.6696 21.6976 46.9766 19.1875 46.5301C18.5177 46.4146 17.8478 46.3299 17.1702 46.2837C16.5928 46.2375 16.0384 46.3761 15.8228 46.992C15.5995 47.608 15.9691 47.9545 16.3618 48.3087C16.4927 48.4164 16.6313 48.5165 16.7699 48.6012C17.355 49.017 17.9479 49.4328 18.5254 49.8486C18.6409 49.9333 18.818 49.9949 18.7641 50.1797C18.7102 50.3644 18.5331 50.3721 18.3868 50.3875C17.7169 50.4491 17.0394 50.5107 16.3618 50.5492C14.383 50.657 12.5582 51.0728 11.1954 52.6897C10.3638 53.6753 10.5178 54.4144 11.7343 54.8302C13.8055 55.5386 15.9537 55.9004 18.0788 56.3701C22.1981 57.2941 26.1326 58.6646 29.7283 60.9052C30.2287 61.2131 30.9448 61.4672 31.145 61.9215C31.5608 62.9147 32.5925 63.0533 33.2162 63.7078C33.4394 63.9157 33.6704 63.9311 33.9245 63.754C34.1632 63.6462 34.2402 63.4691 34.1632 63.2227C34.0323 62.7762 34.0169 62.3219 34.1324 61.8676C34.0862 61.2747 34.0015 60.6819 33.8783 60.1044ZM82.5473 123.911C86.4895 122.663 89.6386 120.346 92.0101 116.966C92.7339 115.811 92.2488 114.848 90.9091 114.748C90.3008 114.702 90.4009 114.51 90.6473 114.155C91.3325 113.162 91.9485 112.13 92.4952 111.06C93.1804 109.859 93.6963 108.589 94.0505 107.257C94.1429 106.802 94.166 106.294 93.7117 105.986C93.2651 105.724 92.8262 105.724 92.3797 105.986C92.2026 106.063 92.0332 106.148 91.8792 106.256C90.1776 107.518 88.5992 108.92 87.1594 110.467C86.3586 111.337 85.6964 112.385 84.7571 113.054C83.7023 113.77 82.7706 114.617 81.9545 115.588C80.5069 117.243 79.5445 119.137 79.0594 121.278C78.7052 123.018 79.5984 124.072 81.4232 124.065C81.8082 124.072 82.1854 124.026 82.5627 123.918L82.5473 123.911ZM82.7552 59.781C83.3943 58.4028 83.6638 57.0477 82.709 55.6463C80.8996 53.0131 79.1518 50.3182 77.0498 47.8698C74.9401 45.429 72.8998 42.8343 70.7054 40.4012C70.5206 40.1933 70.3204 40.0085 70.0971 39.8468C69.7814 39.6158 69.4657 39.6158 69.1578 39.8468C68.8421 40.0855 68.7574 40.3858 68.8883 40.7477C68.9884 41.0557 69.1193 41.3405 69.2656 41.6254C71.0673 45.0363 72.8459 48.4549 74.7707 51.8043C76.3569 54.5607 78.0123 57.2864 80.1143 59.6886C80.4915 60.1275 80.8688 60.4971 81.4925 60.4201C81.7543 60.474 82.0083 60.4355 82.247 60.32C82.4857 60.1968 82.6628 60.0197 82.7783 59.781H82.7552ZM84.5492 104.462C84.5877 105.532 84.4568 106.61 84.657 107.68C84.6801 108.065 84.8803 108.311 85.2576 108.412C85.6348 108.496 85.9351 108.381 86.1584 108.065C86.3894 107.788 86.5742 107.48 86.7128 107.149C87.3442 105.655 88.0602 104.2 88.861 102.783C88.9842 102.583 89.0612 102.306 89.2844 102.252C90.039 102.09 90.1545 101.544 90.2161 100.928C90.2931 100.512 90.4394 100.111 90.6473 99.7418C90.8629 99.2567 91.1015 98.7024 90.8013 98.2404C90.424 97.6552 90.5164 97.0701 90.5626 96.4772C90.7012 95.0836 90.6781 93.6976 90.5087 92.3194C90.4394 91.8266 90.3239 91.3339 89.7541 91.1876C89.192 91.049 88.7378 91.3647 88.4529 91.8497C88.0756 92.5196 87.6983 93.2126 87.3211 93.8901C87.2441 94.0133 87.1979 94.1981 87.0208 94.1827C86.8437 94.1596 86.8514 93.9594 86.8129 93.8208C86.6358 92.8892 86.528 91.9498 86.4818 91.0028C86.3817 90.0326 86.1353 89.5707 85.5886 89.5245C85.042 89.4783 84.6416 89.9017 84.426 90.8565C84.1103 92.3348 84.1565 93.8362 84.1719 95.3299C84.2104 98.2327 84.6416 101.12 84.5492 104.038C84.5569 104.169 84.5569 104.315 84.5569 104.462H84.5492Z" fill="#546A20"/>
<path d="M56.8075 128.015C56.8075 129.793 56.0221 130.817 54.7594 131.048C54.128 131.133 53.5351 131.01 52.9885 130.671C52.4495 130.34 52.0722 129.87 51.8643 129.27C51.4409 128.045 51.1406 126.798 50.9558 125.512C49.7392 118.921 48.4996 112.331 46.8519 105.832C44.9963 98.5176 42.8712 91.2723 40.5845 84.0732C38.0667 76.1118 35.3026 68.2274 32.4691 60.3739C30.96 56.2392 29.2122 52.2354 27.4105 48.2317C25.4625 43.9045 23.3836 39.6389 21.6358 35.2271C21.2585 34.4032 21.0814 33.5486 21.1045 32.6477C21.1199 32.1549 21.2893 31.7238 21.605 31.3465C21.9284 30.9769 22.3288 30.7382 22.8138 30.6458C23.9072 30.5072 24.654 31 24.9697 32.1472C25.1545 32.7863 25.3932 33.4023 25.6935 33.9874C27.0794 36.8132 28.4268 39.6543 29.8436 42.457C32.3459 47.4155 34.6943 52.4433 36.7193 57.602C38.1745 61.3132 39.5065 65.0706 40.8462 68.8203C42.1552 72.493 43.4487 76.1811 44.6652 79.8846C46.5131 85.4899 48.1916 91.1568 49.8239 96.8237C51.3562 102.152 52.7036 107.534 53.8739 112.954C54.7286 116.935 55.383 120.946 56.1684 124.942C56.3917 126.082 56.7613 127.206 56.8075 128.015ZM85.165 43.481C84.703 44.4127 84.3873 45.3905 84.2333 46.4223C82.7473 53.529 82.0467 60.7435 81.192 67.9349C80.6838 72.2466 80.0602 76.5353 79.4057 80.824C78.1584 88.8469 76.4953 96.7852 74.7167 104.7C72.9766 112.461 71.3751 120.238 70.5666 128.153C70.4742 129.077 70.2663 130.032 70.4896 130.979C70.7283 131.988 71.4213 132.588 72.3375 132.604C72.7918 132.596 73.1845 132.45 73.5309 132.157C73.8774 131.864 74.093 131.503 74.17 131.056C74.3317 130.363 74.3856 129.647 74.5011 128.939C75.6098 122.047 76.9033 115.195 78.5049 108.404C80.7069 99.095 82.8012 89.7555 84.318 80.3004C85.0726 75.619 85.6963 70.9069 86.2737 66.2179C86.7973 61.96 87.3132 57.6944 88.0061 53.4443C88.4681 50.5954 89.0148 47.7697 89.7154 44.9593C90.0927 43.4117 88.9609 42.149 87.3748 42.149C86.9051 42.1336 86.4739 42.2414 86.0658 42.4801C85.6655 42.7188 85.3652 43.0498 85.165 43.4733V43.481ZM60.0028 110.021C59.895 113.64 59.7025 117.258 59.5562 120.877C59.5023 122.047 59.4869 123.233 59.3714 124.404C59.2174 125.397 59.2636 126.382 59.51 127.352C60.0259 129.016 61.843 129.786 63.1904 128.9C64.0913 128.307 64.3607 127.399 64.4146 126.382C64.6302 122.556 64.8843 118.737 65.0306 114.91C65.1769 111.33 65.2385 107.772 65.2847 104.177C65.3309 100.997 65.2616 97.8092 65.2077 94.637C65.0999 88.5004 65.2616 82.3716 65.0845 76.2196C64.9767 72.5392 65.0075 68.8511 64.9536 65.163C64.8766 60.0274 64.9536 54.8841 64.9536 49.7408C64.9536 48.6397 64.3222 47.8236 63.4445 47.7158C62.2357 47.5695 61.3271 48.1316 61.0114 49.248C60.9498 49.4713 60.9036 49.6946 60.8651 49.9256C60.3493 52.99 60.3339 56.0929 60.28 59.1882C60.126 67.1495 60.3262 75.1109 60.1568 83.0799C60.0644 87.2454 60.1568 91.4186 60.1568 96.0614C60.0259 100.412 60.1414 105.216 60.0028 110.021ZM98.0079 89.0471C97.0762 89.2627 96.3217 89.7401 95.7442 90.4946C93.3419 93.4513 91.163 96.5542 89.1919 99.8034C87.6289 102.367 86.2814 105.039 84.857 107.672C81.8234 113.178 79.2979 118.898 77.2806 124.842C76.8649 125.997 76.5646 127.183 76.3798 128.4C76.3028 128.877 76.3952 129.324 76.6416 129.739C76.8956 130.147 77.2498 130.432 77.7118 130.594C78.5819 130.879 79.4904 130.471 79.9755 129.547C80.1064 129.308 80.2142 129.062 80.3066 128.8C80.8224 127.237 81.4153 125.705 82.0621 124.188C83.3787 121.1 84.6722 118.005 86.2121 115.025C88.0215 111.53 89.9541 108.088 91.9098 104.662C94.1658 100.589 96.8298 96.7929 99.8943 93.2742C100.433 92.7198 100.718 92.0576 100.741 91.28C100.741 90.9412 100.672 90.6101 100.526 90.3021C100.387 89.9941 100.179 89.7324 99.9097 89.5091C99.6479 89.2935 99.3476 89.1472 99.0088 89.0625C98.6777 88.9855 98.339 88.9778 98.0079 89.0471Z" fill="#658122"/>
<mask id="mask0_65_4661" style="mask-type:luminance" maskUnits="userSpaceOnUse" x="17" y="98" width="97" height="73">
<path d="M17.4009 98.4021H113.984V170.039H17.4009V98.4021Z" fill="white"/>
</mask>
<g mask="url(#mask0_65_4661)">
<path d="M71.367 169.923C70.4816 170.024 69.4421 169.785 68.4027 169.808C66.5779 169.846 64.7377 170 62.9129 170C60.7493 170 58.5934 169.9 56.4376 169.831C53.9275 169.746 51.4405 169.415 48.9382 169.23C44.9036 168.915 40.946 168.183 37.0654 167.021C34.9018 166.397 32.7075 165.82 30.6517 164.826C25.824 162.463 21.8049 159.213 19.3333 154.34C18.3632 152.415 17.9628 150.305 17.7472 148.164C17.3699 144.376 18.0783 140.688 18.9021 137.031C20.4882 130.009 22.8212 123.249 25.9087 116.743C26.979 114.487 28.0261 112.207 29.2273 110.013C29.5583 109.405 29.4967 109.22 28.9347 108.812C28.4958 108.519 28.0184 108.327 27.4949 108.234C26.8712 108.096 26.2706 107.896 25.6932 107.634C25.2312 107.418 24.8308 107.126 24.4997 106.733C24.1686 106.348 23.93 105.909 23.7991 105.424C23.6605 104.931 23.6297 104.439 23.7144 103.938C23.7991 103.43 23.9915 102.976 24.2764 102.552C25.3621 100.912 27.0021 100.219 28.8962 100.096C31.1214 99.942 32.8923 100.843 34.2551 102.537C36.1261 104.747 37.2425 107.28 37.6044 110.144C37.7122 111.068 38.0818 111.368 38.8209 111.699C41.7468 113.016 44.7111 114.209 47.8525 114.918C49.5156 115.28 51.1941 115.518 52.888 115.634C54.5358 115.749 56.1142 116.227 57.7388 116.427C59.887 116.696 62.012 117.174 64.1756 117.112C66.7396 117.05 69.3035 117.043 71.8675 116.85C75.725 116.558 79.544 116.011 83.3168 115.195C85.5265 114.71 87.6901 114.071 89.7998 113.262C90.154 113.147 90.3773 112.908 90.4851 112.554C91.3243 110.052 92.3792 107.642 93.6573 105.332C94.5273 103.684 95.7208 102.321 97.2376 101.243C99.5244 99.6649 102.004 98.9642 104.737 99.9189C107.478 100.881 108.279 104.108 106.315 106.31C105.222 107.526 103.844 108.188 102.327 108.643L101.28 108.974C100.856 109.105 100.764 109.32 100.98 109.744C101.942 111.622 102.889 113.478 103.798 115.38C107.748 123.649 110.735 132.196 112.252 141.235C112.86 144.884 112.945 148.542 111.874 152.13C111.128 154.563 109.888 156.711 108.163 158.574C105.099 162.024 101.372 164.472 96.9835 165.935C93.0105 167.298 88.9451 168.276 84.7874 168.876C81.2687 169.361 77.7192 169.546 74.1851 169.816C73.2996 169.885 72.4142 169.923 71.367 169.923Z" fill="#2C2318"/>
</g>
<path d="M18.6635 138.209C18.7482 137.816 18.8329 137.424 18.9176 137.031C19.0562 136.438 19.2025 135.845 19.3488 135.26C23.776 136.885 28.2803 138.24 32.8692 139.333C38.2743 140.596 43.7256 141.512 49.2462 142.097C55.3135 142.736 61.4039 142.952 67.5096 142.736C78.8511 142.359 89.977 140.642 100.749 136.946C104.067 135.822 107.293 134.482 110.435 132.927C110.735 134.028 111.012 135.137 111.266 136.253C104.629 139.395 97.7073 141.72 90.5236 143.244C85.6344 144.307 80.699 145.062 75.7097 145.516C72.7761 145.793 69.8272 146.009 66.8783 146.016C65.7156 146.016 64.5607 146.186 63.5828 146.109C52.1028 146.032 40.9461 144.715 30.005 141.859C26.1552 140.858 22.3747 139.641 18.6635 138.209ZM97.0144 147.225C97.0144 147.556 97.076 147.88 97.2069 148.188C97.3378 148.496 97.5149 148.773 97.7535 149.011C97.9922 149.242 98.2694 149.427 98.5774 149.558C98.8854 149.681 99.2088 149.751 99.5475 149.751C99.8863 149.751 100.21 149.681 100.518 149.558C100.826 149.427 101.103 149.242 101.342 149.011C101.58 148.773 101.765 148.496 101.888 148.188C102.019 147.88 102.081 147.556 102.081 147.225C102.088 146.894 102.027 146.578 101.896 146.27C101.773 145.962 101.596 145.693 101.357 145.454C101.126 145.223 100.856 145.038 100.548 144.915C100.241 144.784 99.9248 144.723 99.5937 144.723C99.255 144.715 98.9316 144.777 98.6236 144.9C98.3079 145.031 98.0307 145.208 97.792 145.439C97.5534 145.67 97.3609 145.939 97.23 146.247C97.0914 146.555 97.0221 146.871 97.0144 147.21V147.225ZM102.065 152.946C93.9423 154.663 85.7345 155.864 77.4575 156.549C73.7232 156.85 69.9504 157.065 66.1776 157.158C60.965 157.281 55.7601 157.204 50.5552 156.873C46.2203 156.595 41.8931 156.203 37.5968 155.595C31.0598 154.694 24.623 153.315 18.2939 151.46C18.5326 152.461 18.8791 153.423 19.3334 154.347C19.4412 154.555 19.5567 154.755 19.6645 154.963C20.8964 155.31 22.1206 155.641 23.3603 155.949C30.5209 157.727 37.7816 159.005 45.1193 159.775C51.2712 160.438 57.4309 160.715 63.3211 160.776C64.8302 160.776 66.039 160.715 67.2478 160.707C71.9446 160.661 76.6105 160.33 81.2842 159.876C86.1657 159.398 91.0164 158.744 95.8363 157.82C100.964 156.842 106.031 155.648 111.051 154.216C111.366 153.531 111.644 152.823 111.859 152.099C112.036 151.529 112.167 150.952 112.283 150.374C108.918 151.36 105.515 152.207 102.065 152.93V152.946ZM24.084 147.048C24.084 147.356 24.1456 147.649 24.2688 147.926C24.392 148.211 24.5614 148.457 24.777 148.673C24.9926 148.881 25.2467 149.05 25.5315 149.165C25.8164 149.281 26.109 149.335 26.417 149.335C26.7327 149.327 27.0407 149.265 27.3255 149.142C27.6181 149.019 27.8722 148.842 28.0955 148.611C28.3188 148.388 28.4882 148.126 28.6037 147.833C28.7192 147.541 28.7731 147.241 28.7731 146.925C28.7654 146.609 28.6961 146.301 28.5729 146.016C28.4497 145.724 28.2726 145.47 28.0416 145.246C27.8183 145.031 27.5565 144.861 27.2639 144.746C26.9714 144.63 26.6634 144.576 26.3477 144.576C24.9849 144.6 24.0763 145.577 24.084 147.048ZM38.9288 149.643C38.9442 150.02 39.0289 150.382 39.1829 150.728C39.3369 151.075 39.5525 151.383 39.8297 151.645C40.0991 151.906 40.4148 152.114 40.769 152.253C41.1232 152.399 41.4928 152.469 41.87 152.469C42.2473 152.445 42.6092 152.353 42.948 152.199C43.2945 152.037 43.5947 151.822 43.8565 151.545C44.1106 151.267 44.3108 150.959 44.4494 150.605C44.588 150.251 44.6573 149.889 44.6496 149.512C44.6496 149.135 44.5726 148.773 44.434 148.426C44.2877 148.072 44.0875 147.764 43.8257 147.495C43.5562 147.225 43.256 147.01 42.9095 146.856C42.563 146.702 42.2011 146.617 41.8238 146.601C40.4302 146.601 38.9288 148.188 38.9288 149.643ZM59.7638 150.913C59.7715 151.36 59.8716 151.791 60.0564 152.199C60.2335 152.607 60.4876 152.961 60.811 153.269C61.1344 153.577 61.5116 153.816 61.9274 153.978C62.3432 154.147 62.7744 154.224 63.221 154.216C63.6829 154.224 64.1295 154.132 64.553 153.962C64.9765 153.785 65.3537 153.539 65.6771 153.215C66.0082 152.892 66.2623 152.522 66.4394 152.099C66.6165 151.675 66.7089 151.237 66.7166 150.782C66.7012 150.32 66.6011 149.881 66.4163 149.458C66.2315 149.035 65.9774 148.657 65.654 148.334C65.3306 148.003 64.9534 147.749 64.5299 147.556C64.1064 147.371 63.6675 147.271 63.2056 147.248C61.7426 147.171 59.6792 149.281 59.7638 150.913ZM79.5749 149.489C79.5749 149.889 79.6595 150.274 79.8135 150.644C79.9675 151.013 80.1908 151.337 80.4757 151.614C80.7606 151.899 81.0917 152.114 81.4612 152.261C81.8308 152.415 82.2235 152.492 82.6239 152.484C83.0243 152.484 83.4092 152.407 83.7788 152.253C84.1484 152.099 84.4718 151.876 84.7567 151.591C85.0415 151.306 85.2571 150.982 85.4111 150.613C85.5574 150.243 85.6344 149.858 85.6344 149.458C85.6267 149.05 85.5497 148.665 85.388 148.295C85.234 147.926 85.0107 147.595 84.7259 147.31C84.441 147.025 84.1176 146.802 83.7403 146.64C83.3707 146.486 82.9858 146.401 82.5777 146.386C81.0455 146.332 79.5441 148.118 79.5672 149.489H79.5749Z" fill="#BF482B"/>
<mask id="mask1_65_4661" style="mask-type:luminance" maskUnits="userSpaceOnUse" x="0" y="0" width="125" height="111">
<path d="M0 0.0554199H124.163V110.229H0V0.0554199Z" fill="white"/>
</mask>
<g mask="url(#mask1_65_4661)">
<path d="M100.71 38.3993C100.649 38.6611 100.833 38.8305 100.941 39.023C101.781 40.5321 101.996 42.1259 101.603 43.8044C101.118 45.9757 99.4938 46.8842 97.3456 46.276C95.6671 45.7986 94.5198 44.636 93.4881 43.327C92.8952 42.5417 92.364 41.7178 91.8943 40.8555C91.7095 40.8324 91.671 40.9402 91.6556 41.0403C91.2013 43.2577 89.7692 44.7977 88.0907 46.1836C87.4824 46.7149 86.8126 47.1614 86.0888 47.5079C84.7183 48.1085 83.5172 47.685 82.8165 46.3761C82.1851 45.198 81.9849 43.9045 81.8232 42.6187C81.6616 41.6408 81.6231 40.6553 81.7078 39.662C81.7078 39.5389 81.7925 39.3849 81.6693 39.3156C81.5461 39.2386 81.3998 39.3772 81.292 39.4773C80.4604 40.3473 79.498 41.0172 78.3969 41.4945C78.1506 41.6023 77.9042 41.7024 77.6424 41.7794C75.3556 42.4262 73.6001 40.8632 73.9697 38.5148C74.0698 37.9758 74.2084 37.4446 74.3932 36.9287C74.4702 36.7131 74.7088 36.4667 74.5395 36.2896C74.3778 36.1202 74.1237 36.3666 73.9235 36.4436C72.6916 36.998 71.398 37.2752 70.0506 37.2906C68.0102 37.2444 66.9785 36.0124 67.3865 34.0106C67.733 32.2551 68.7494 30.8999 70.0506 29.7373C70.3586 29.4601 70.9361 29.1983 70.836 28.8441C70.7282 28.49 70.0968 28.6055 69.7041 28.5362C68.6724 28.3899 67.7176 28.028 66.8476 27.4505C65.9852 26.8731 65.2846 26.1339 64.7456 25.2407C63.8909 23.8394 64.3914 22.2148 65.9467 21.0753C67.3173 20.1282 68.8187 19.4738 70.451 19.1119C70.605 19.0734 70.8283 19.1119 70.8822 18.9117C70.9361 18.7115 70.7051 18.6037 70.5511 18.5036C69.1805 17.5643 67.7253 16.7173 66.5858 15.47C65.8158 14.623 65.1306 13.6683 64.9458 12.5211C64.6378 10.5654 65.7003 9.11784 67.7022 8.70976C69.8889 8.24779 71.9909 8.64817 74.039 9.45662C74.678 9.70301 75.294 10.011 76.0948 10.3652C75.7714 9.70301 75.5096 9.21023 75.2709 8.70976C74.5164 7.05435 74.4471 5.39895 75.371 3.79744C76.7492 1.41827 79.9984 0.8177 82.3006 2.41921C84.3487 3.84363 85.6114 5.87632 86.828 7.9552C86.8819 8.0476 86.9204 8.1477 86.9743 8.23239C87.0359 8.31708 87.1206 8.60967 87.3284 8.53267C87.5363 8.45568 87.4978 8.26319 87.5132 8.0938C87.6595 6.56928 87.9906 5.07556 88.5065 3.62804C88.8684 2.5809 89.4766 1.71085 90.339 1.02559C90.7856 0.679109 91.286 0.432721 91.8327 0.301829C92.3794 0.163236 92.9337 0.140138 93.4881 0.240232C94.0425 0.332627 94.5583 0.540516 95.028 0.848499C95.4977 1.15648 95.8827 1.54916 96.183 2.02653C97.1069 3.35856 97.3687 4.89078 97.5381 6.45379C97.5689 6.68478 97.4226 7.03896 97.7075 7.13135C97.9924 7.22375 98.1232 6.88496 98.2849 6.70787C99.7556 5.12176 101.48 3.88983 103.451 3.00438C103.929 2.78109 104.437 2.6425 104.96 2.604C106.092 2.527 106.747 3.10447 106.932 4.20551C107.186 5.71463 106.893 7.19295 106.554 8.64817C106.085 10.5192 105.415 12.3132 104.537 14.0225C104.452 14.2073 104.237 14.3997 104.383 14.5999C104.529 14.8001 104.76 14.5999 104.968 14.5614C107.347 13.9532 109.757 13.4989 112.237 13.5913C112.853 13.5913 113.453 13.7222 114.023 13.9686C115.363 14.5922 115.732 15.8473 115.001 17.1177C114.446 18.0878 113.553 18.6961 112.675 19.3198C111.336 20.2129 109.934 20.9906 108.464 21.6604C108.248 21.7682 107.986 21.8221 107.832 22.0685C107.994 22.3226 108.271 22.2918 108.51 22.3303C110.743 22.7307 112.868 23.4313 114.7 24.8019C115.809 25.6334 116.648 26.6806 116.695 28.1666C116.718 28.8133 116.456 29.3138 115.917 29.668C114.801 30.438 113.561 30.8999 112.206 31.0462C110.797 31.2233 109.372 31.0462 107.971 31.2772C107.848 31.3003 107.709 31.2541 107.594 31.4235C108.086 31.77 108.579 32.1165 109.072 32.4475C109.68 32.8633 110.135 33.41 110.419 34.0876C110.905 35.2117 111.128 36.382 111.082 37.6063C111.035 39.2694 109.857 40.3165 108.063 40.3858C106.547 40.3935 105.084 40.1086 103.675 39.5235C102.805 39.1924 101.958 38.8074 101.103 38.4455C101.003 38.4147 100.887 38.2915 100.71 38.3993ZM55.2366 78.0444C56.7457 78.2831 58.2241 78.3293 59.6716 77.7595C60.6109 77.3823 61.0575 76.7663 60.9728 75.7576C60.8804 74.6335 60.1874 73.7789 59.3482 73.0782C58.6475 72.5084 57.893 72.0234 57.0845 71.6307C57.5234 71.5152 57.97 71.4382 58.4242 71.4151C60.149 71.3073 61.8198 70.93 63.4213 70.2832C64.0372 70.0446 64.5762 69.675 65.0382 69.1899C65.7003 68.4892 65.8543 67.7886 65.4155 66.9416C64.068 64.4701 62.1123 62.8532 59.1865 62.6607C59.0171 62.6607 58.7553 62.7069 58.7168 62.4528C58.6937 62.2526 58.9093 62.191 59.0479 62.1063C59.6254 61.7521 60.2105 61.4133 60.7726 61.0515C62.1739 60.1429 63.6446 59.3191 64.6378 57.9177C65.3539 56.9091 65.6464 55.7696 65.0151 54.6531C64.3144 53.4366 63.0594 53.0131 61.7274 52.9361C59.3328 52.8129 57.0075 53.1671 54.7515 53.9987C54.5668 54.0679 54.3358 54.245 54.1587 54.0602C53.9893 53.8755 54.1587 53.6599 54.2357 53.4674C54.6669 52.3663 54.9825 51.2268 55.1981 50.0642C55.3829 48.6551 55.3983 47.2461 54.8516 45.891C54.69 45.3982 54.3897 45.0132 53.9585 44.7207C53.5273 44.4358 53.0576 44.3126 52.5418 44.3434C50.8633 44.4666 49.3542 45.0286 48.0144 46.045C47.0443 46.8072 46.2281 47.7158 45.5583 48.7475C45.4813 48.863 45.4274 49.0555 45.2349 48.9785C45.0424 48.8938 45.1502 48.7629 45.1579 48.6397C45.3042 46.5763 45.2734 44.5128 45.0809 42.457C44.95 41.3867 44.8037 40.3165 44.2416 39.3618C44.0568 39.0307 43.8028 38.7766 43.4717 38.5918C43.1406 38.407 42.7787 38.33 42.4014 38.3608C41.4929 38.3993 40.7229 38.7381 40.0839 39.3772C38.3361 40.9864 37.081 42.9036 36.3111 45.1364C36.2418 45.3058 36.2341 45.5753 36.0185 45.583C35.7952 45.5907 35.7336 45.2981 35.672 45.1133C35.3332 44.2433 34.879 43.4348 34.3092 42.6957C33.416 41.5715 32.2919 40.8632 30.8059 41.0711C29.2352 41.2944 28.2111 42.2722 27.6953 43.7274C27.2179 44.9671 26.9946 46.2452 27.0331 47.5695C27.0639 48.8861 27.3565 50.1566 27.8954 51.3654C27.9493 51.4963 28.0648 51.6349 27.9724 51.7735C27.88 51.9198 27.7414 51.8351 27.626 51.7735C25.932 51.1344 24.1765 50.7725 22.3671 50.6878C20.6809 50.5338 19.064 50.7802 17.5087 51.427C16.3769 51.9275 15.6223 52.7513 15.6223 54.091C15.6223 55.3846 16.2152 56.3932 17.0313 57.3095C18.3326 58.7724 20.0496 59.6116 21.7666 60.4278C22.0207 60.551 22.3209 60.6049 22.5211 60.9206C22.2363 61.0515 21.936 61.09 21.628 61.0361C20.5423 61.0053 19.4798 61.1362 18.425 61.4056C17.1545 61.7059 16.0766 62.3373 15.1911 63.3074C14.9679 63.523 14.7908 63.7848 14.6753 64.0697C14.5521 64.3623 14.4905 64.6703 14.4982 64.9859C14.4982 65.3016 14.5675 65.6019 14.6984 65.8868C14.8216 66.1794 15.0064 66.4258 15.2373 66.6413C16.0689 67.4498 17.0313 68.035 18.1401 68.4046C20.4577 69.3208 22.8753 69.3978 25.3238 69.1591C25.4701 69.1591 25.6549 69.0436 25.7704 69.3054C24.2612 70.3371 22.6905 71.315 21.3431 72.5623C19.988 73.802 18.833 75.1879 18.4019 77.0435C18.2556 77.5593 18.271 78.0675 18.4558 78.568C18.6329 79.0762 18.9485 79.4765 19.3951 79.7845C20.0727 80.2542 20.8272 80.4929 21.6588 80.5083C24.0765 80.7008 26.1322 79.823 27.9493 78.3062C28.111 78.1753 28.2265 77.9751 28.4806 78.0059C28.6115 78.2061 28.4806 78.3832 28.419 78.5449C28.0417 79.4842 27.7491 80.4544 27.5413 81.4399C27.0716 83.2416 27.0023 85.0587 27.3488 86.8835C27.8338 89.1395 29.8511 90.1943 32.007 89.3243C33.1465 88.8392 34.0782 88.0924 34.802 87.0991C36.0339 85.5207 36.6653 83.6651 37.235 81.7787C37.2581 81.463 37.3967 81.2012 37.6431 80.9934C38.0204 81.9173 38.3669 82.8028 38.7364 83.6882C39.3909 85.2512 40.1378 86.7526 41.4236 87.9307C42.8018 89.1857 44.488 89.0548 45.4813 87.4918C46.4591 86.052 46.9673 84.4659 47.0212 82.7335C47.0212 82.5179 46.9288 82.2715 47.1213 82.079C47.3754 82.1329 47.4447 82.3485 47.5755 82.5025C48.8999 84.0578 50.4321 85.2666 52.5495 85.513C53.7429 85.6747 54.8208 85.3898 55.7833 84.6737C56.7149 84.0039 56.892 82.872 56.2915 81.5785C55.7294 80.3697 55.3136 79.0762 54.4282 78.0059C54.7054 77.9289 54.9671 77.9366 55.2366 78.0444ZM116.348 95.969C117.595 96.1076 118.843 96.1384 120.09 96.0614C121.053 96.0537 121.93 95.7842 122.731 95.2607C123.201 94.9296 123.547 94.5061 123.763 93.9748C123.971 93.4359 124.025 92.8892 123.909 92.3271C123.555 90.6255 122.354 89.7478 120.868 89.1318C120.698 89.0625 120.437 89.0471 120.437 88.8161C120.437 88.5774 120.675 88.6005 120.814 88.5312C123.424 87.3763 123.031 84.897 121.707 83.4957C119.967 81.6709 117.719 81.4553 115.378 81.5554C115.155 81.5554 114.87 81.7556 114.731 81.5246C114.585 81.2859 114.87 81.0703 115.016 80.8779C116.148 79.3379 116.856 77.6748 116.749 75.7191C116.725 74.9723 116.464 74.3255 115.986 73.7558C115.509 73.186 114.901 72.8241 114.177 72.6701C112.437 72.3005 110.982 72.9473 109.596 73.8943C109.411 74.0175 109.218 74.2947 109.003 74.1638C108.795 74.0329 108.895 73.7096 108.895 73.4632C108.903 73.3323 108.918 73.2091 108.949 73.0859C109.095 72.0388 108.972 71.0224 108.595 70.0369C108.418 69.5364 108.11 69.1283 107.671 68.8203C107.232 68.5123 106.747 68.3584 106.208 68.3584C104.298 68.2583 102.897 69.1899 101.704 70.545C101.234 71.0763 101.111 71.0763 100.78 70.4603C100.402 69.7597 100.025 69.0359 99.6247 68.3584C98.6237 66.726 97.2763 66.3334 95.5593 67.1572C94.6507 67.573 93.8731 68.1659 93.234 68.9358C92.595 69.6981 92.1561 70.5681 91.9097 71.5306C91.8558 71.7231 91.8789 72.0003 91.6248 72.0541C91.3707 72.108 91.3245 71.854 91.2013 71.7231C90.5084 70.93 89.6922 70.3063 88.7452 69.8444C88.0907 69.5056 87.4054 69.3978 86.6817 69.521C85.9502 69.6442 85.3343 69.9676 84.8261 70.4911C84.1947 71.0994 83.7558 71.8232 83.5018 72.6547C83.24 73.4863 83.2092 74.3332 83.3863 75.1879C83.4787 75.6498 83.3863 75.7961 82.8858 75.7268C82.4007 75.6729 81.9156 75.6576 81.4306 75.6883C80.3372 75.7037 79.5134 76.1811 78.9667 77.1205C78.7126 77.5516 78.5432 78.0059 78.4662 78.4987C78.3892 78.9838 78.4046 79.4765 78.5124 79.9539C78.6202 80.439 78.8127 80.8856 79.0976 81.3013C79.3748 81.7094 79.7213 82.0559 80.137 82.3331C80.2756 82.4255 80.5143 82.4717 80.4912 82.6565C80.4912 82.9028 80.2063 82.8644 80.0369 82.9182C79.3363 83.0876 78.6664 83.334 78.0274 83.6651C77.5731 83.9038 77.2035 84.2272 76.9109 84.643C76.626 85.0587 76.4412 85.513 76.372 86.0135C76.3027 86.5139 76.3489 87.0067 76.5105 87.4841C76.6722 87.9615 76.9417 88.3772 77.3036 88.7237C78.166 89.5476 79.1746 90.0942 80.3449 90.356C81.5923 90.7025 82.8627 90.8873 84.1562 90.9104C84.3333 90.9104 84.6028 90.9104 84.6644 91.1029C84.7183 91.2877 84.4488 91.3724 84.2871 91.4802C82.8781 92.4195 81.6462 93.4975 80.9378 95.099C80.6298 95.7842 80.5682 96.4926 80.753 97.2241C80.9455 97.9555 81.3459 98.5407 81.9541 98.9873C82.9243 99.7341 84.0253 100.111 85.2496 100.119C86.4199 100.158 87.5825 100.065 88.7221 99.8265C89.1378 99.7418 89.3072 99.8265 89.0993 100.258C88.9377 100.635 88.7991 101.012 88.6528 101.382C88.1215 102.714 87.8751 104.092 87.8982 105.516C87.9367 108.773 90.2466 110.691 93.4111 109.951C96.5833 109.212 99.1242 107.557 100.726 104.654C100.803 104.516 100.841 104.277 101.049 104.315C101.257 104.354 101.249 104.569 101.303 104.716C101.534 105.378 101.85 105.994 102.25 106.571C103.806 108.743 106.508 108.974 108.387 107.087C109.996 105.463 110.127 103.522 109.603 101.451C109.465 101.166 109.403 100.858 109.403 100.543C109.688 100.543 109.78 100.766 109.934 100.889C111.497 102.159 113.084 103.391 115.17 103.722C115.555 103.784 115.948 103.784 116.333 103.707C116.725 103.63 117.087 103.492 117.426 103.284C117.757 103.076 118.05 102.814 118.288 102.498C118.527 102.19 118.712 101.844 118.82 101.467C119.305 99.8496 118.697 98.1942 117.187 97.0085C116.81 96.7005 116.379 96.4079 115.825 95.9998C115.994 95.9844 116.163 95.9767 116.333 95.9844L116.348 95.969ZM21.1352 36.2203C22.6058 35.9278 24.1534 35.9586 25.5394 35.3426C29.2814 33.718 32.7539 31.6545 35.9646 29.1444C37.0964 28.2667 38.0204 27.2041 38.7518 25.9722C39.4756 24.7403 39.9453 23.4159 40.1686 22.0069C40.4842 20.0127 40.4996 18.0262 40.2148 16.0321C40.0685 14.546 39.6604 13.137 38.9828 11.805C38.644 11.1659 38.1436 10.704 37.4737 10.4191C36.7961 10.1419 36.1186 10.1034 35.4179 10.319C34.3862 10.6655 33.4699 11.2198 32.6769 11.9744C32.0532 12.5057 31.4372 13.0677 30.4979 12.9599C30.0205 12.8521 29.5739 12.6673 29.1505 12.421C27.9185 11.882 26.7559 11.8974 25.6395 12.7674C24.5153 13.6375 23.8301 14.8232 22.9985 15.8858C22.498 16.571 21.8282 16.9098 20.9735 16.8867C20.4884 16.8867 20.0111 16.8328 19.5337 16.7173C18.4789 16.4709 17.4625 16.0937 16.3769 15.9551C15.5376 15.8242 14.7292 15.9089 13.9361 16.2091C13.1508 16.5094 12.4886 16.9791 11.9496 17.6336C10.9949 18.6961 10.4636 20.0281 9.68595 21.2139C9.13928 22.0454 8.46172 22.6922 7.37608 22.7846C6.21344 22.8847 5.05081 22.8077 3.88817 22.8462C2.04027 22.8924 0.777544 23.9318 0.31557 25.7258C-0.0155122 27.181 0.153879 28.5824 0.839141 29.9144C2.04027 32.5707 4.23465 34.1338 6.9064 35.0346C10.1787 36.1433 13.5896 36.4667 17.0313 36.5052C18.4096 36.5668 19.7801 36.4744 21.1352 36.2203ZM69.3114 38.6765C67.8331 38.8459 67.425 38.6457 66.7321 37.3291C66.3548 36.6207 66.0083 35.897 65.6387 35.1886C64.992 33.9875 63.583 33.2483 62.3818 34.9499C62.2201 35.2194 61.9891 35.3965 61.6812 35.4658C61.3732 35.5428 61.0883 35.4966 60.8188 35.3195C60.3491 35.0962 59.918 34.7728 59.4637 34.511C58.3703 33.8951 57.2 34.2107 56.8227 35.3811C56.484 36.382 55.8834 36.7824 54.8978 36.8825C54.4975 36.921 54.151 37.0673 53.8661 37.3445C53.5735 37.614 53.4041 37.945 53.3502 38.3377C53.2039 38.9614 53.1885 39.585 53.2963 40.2164C53.9046 43.7428 55.637 46.5763 58.6629 48.5243C60.5108 49.71 62.5358 50.2875 64.8149 49.7716C66.9785 49.3327 68.7263 48.2317 70.0429 46.4608C71.2286 44.8824 72.0525 43.15 72.168 41.456C72.1526 39.4696 71.0207 38.4763 69.3037 38.6765H69.3114Z" fill="#FFD753"/>
</g>
<path d="M90.9783 15.5393C92.8878 15.4777 94.5586 15.778 96.0754 16.6866C98.393 18.0879 99.4093 20.2823 99.8174 22.8539C100.51 27.2273 98.5162 30.3225 95.0052 32.5939C91.14 35.0885 87.0515 35.4273 82.8783 33.3946C81.785 32.8865 80.838 32.1858 80.0372 31.2849C79.2287 30.3918 78.6359 29.3754 78.2509 28.2436C77.8274 27.1118 77.6965 25.9491 77.8428 24.7557C77.9968 23.5623 78.4203 22.4689 79.1056 21.4834C80.7687 18.9425 82.9861 17.0253 86.0429 16.4402C87.7445 16.1168 89.346 15.2467 90.9783 15.5393ZM83.5482 28.0973C83.579 27.8509 83.5097 27.6353 83.348 27.4506C83.1786 27.2658 82.9707 27.1734 82.7167 27.1811C82.4703 27.1888 82.2624 27.2812 82.1007 27.4737C81.939 27.6661 81.8774 27.8817 81.9159 28.1281C81.9159 28.3514 82.0006 28.5439 82.1623 28.6979C82.324 28.8596 82.5242 28.9366 82.7475 28.9289C82.9707 28.9289 83.1632 28.8442 83.3249 28.6825C83.4789 28.5208 83.5559 28.3283 83.5482 28.0973ZM87.5905 30.6074C87.3133 30.6151 87.0823 30.7306 86.9052 30.9385C86.7204 31.1463 86.6511 31.385 86.6819 31.6622C86.6819 32.155 87.0053 32.3629 87.475 32.3475C87.7291 32.3321 87.9447 32.232 88.1141 32.0472C88.2834 31.8547 88.3681 31.6391 88.3527 31.385C88.3604 31.1694 88.2911 30.9847 88.1372 30.8307C87.9909 30.6767 87.8061 30.6074 87.5905 30.6074ZM93.4884 21.2139C93.7193 21.1908 93.9118 21.0907 94.0658 20.929C94.2275 20.7596 94.3045 20.5594 94.3122 20.3284C94.3199 20.1052 94.2352 19.9204 94.0658 19.7664C93.8964 19.6201 93.7039 19.5585 93.4807 19.5816C93.2651 19.597 93.0803 19.6817 92.934 19.8357C92.7877 19.9897 92.7184 20.1822 92.7184 20.39C92.7184 20.6056 92.7877 20.7904 92.934 20.9521C93.0803 21.1061 93.2651 21.1908 93.4807 21.2062L93.4884 21.2139ZM86.5741 19.289C86.5202 18.9502 86.3586 18.5883 85.8504 18.5883C85.3499 18.5883 85.0958 18.9656 85.0958 19.4199C85.0727 19.6355 85.1343 19.8203 85.2806 19.982C85.4192 20.136 85.604 20.213 85.8196 20.2053C86.2585 20.2361 86.5818 19.8665 86.5741 19.2967V19.289ZM95.752 22.7153C95.7212 22.9155 95.7828 23.0926 95.9137 23.2466C96.0523 23.3929 96.214 23.4699 96.4219 23.4699C96.8993 23.4699 97.1379 23.1773 97.1456 22.7153C97.1764 22.5151 97.1148 22.338 96.9686 22.1994C96.8223 22.0532 96.6529 21.9993 96.445 22.0224C95.983 21.9916 95.7597 22.2379 95.752 22.7153ZM92.0254 31.8624C92.2256 31.8855 92.4027 31.8316 92.5567 31.6853C92.7107 31.5467 92.78 31.3773 92.78 31.1694C92.7646 30.9847 92.6876 30.8307 92.549 30.7075C92.4181 30.5766 92.2564 30.515 92.0716 30.515C91.8868 30.515 91.7252 30.5766 91.5866 30.7075C91.448 30.8307 91.3787 30.9847 91.3633 31.1694C91.3325 31.6006 91.6328 31.8008 92.0254 31.8547V31.8624ZM88.653 21.2139C88.6607 21.3987 88.73 21.545 88.8686 21.6682C88.9995 21.7914 89.1612 21.853 89.346 21.8453C89.5385 21.8607 89.7002 21.7914 89.8311 21.6528C89.9696 21.5142 90.0235 21.3525 90.0081 21.16C90.0081 20.698 89.7002 20.4978 89.2536 20.5055C88.807 20.5132 88.6915 20.7827 88.653 21.2139ZM94.8281 29.337C94.3815 29.337 94.1274 29.5602 94.1351 29.9837C94.1351 30.1685 94.2044 30.3302 94.3353 30.4611C94.4662 30.592 94.6202 30.6536 94.805 30.6536C94.9898 30.6536 95.1515 30.592 95.2824 30.4611C95.4132 30.3302 95.4748 30.1685 95.4748 29.9837C95.4902 29.5448 95.2285 29.3447 94.8281 29.3293V29.337ZM90.7011 17.0792C90.2545 17.0792 89.9697 17.3179 89.9697 17.726C89.962 18.1341 90.3238 18.3112 90.7011 18.3189C90.8782 18.3497 91.0399 18.3112 91.1785 18.188C91.3171 18.0648 91.3787 17.9108 91.371 17.7337C91.3941 17.3025 91.0784 17.11 90.7011 17.0792ZM91.8714 24.7865C92.0639 24.8173 92.2333 24.7711 92.3796 24.6479C92.5259 24.5247 92.6029 24.363 92.6029 24.1782C92.6414 23.9934 92.6029 23.8395 92.4874 23.6932C92.3796 23.5546 92.2333 23.4776 92.0485 23.4622C91.5943 23.4237 91.3633 23.7317 91.3248 24.1628C91.2786 24.5863 91.5173 24.7172 91.8868 24.7711L91.8714 24.7865ZM40.2381 76.6585C37.882 76.6585 35.6415 76.1812 33.6858 74.8183C32.8927 74.264 32.2075 73.5941 31.6223 72.8164C31.0371 72.0465 30.5905 71.1995 30.2826 70.2833C29.9669 69.367 29.7975 68.4277 29.7898 67.4575C29.7744 66.4951 29.9053 65.548 30.1979 64.6241C31.63 59.7734 35.0178 56.9707 39.8762 56.1623C43.2178 55.6079 46.2053 56.7397 48.1456 59.6887C50.7865 63.7001 50.8404 67.9503 48.8385 72.2159C47.6066 74.8183 45.212 75.9964 42.4556 76.5045C41.7241 76.62 40.985 76.6739 40.2381 76.6585ZM38.9908 57.9255C38.7444 57.9101 38.5288 57.9871 38.3517 58.1565C38.1823 58.3335 38.0976 58.5414 38.113 58.7878C38.1207 59.0188 38.2054 59.2113 38.3594 59.3807C38.5211 59.5424 38.7136 59.6348 38.9446 59.6579C39.1987 59.6425 39.3989 59.5424 39.5528 59.3499C39.7145 59.1651 39.7684 58.9418 39.7299 58.7031C39.7376 58.4875 39.6683 58.3104 39.522 58.1565C39.3758 58.0025 39.1987 57.9255 38.9908 57.9255ZM46.0898 71.8001C46.0898 71.2226 45.7895 70.8376 45.3121 70.8376C45.0965 70.8222 44.9195 70.8915 44.7655 71.0455C44.6192 71.1995 44.5576 71.3766 44.5807 71.5922C44.5807 72.1543 44.9579 72.6547 45.366 72.6393C45.8896 72.6239 46.0898 72.2929 46.0898 71.8078V71.8001ZM35.6723 63.7386C35.6877 63.5 35.6261 63.2921 35.4721 63.0996C35.3181 62.9148 35.1256 62.807 34.8869 62.7762C34.679 62.7685 34.5096 62.8378 34.3633 62.9764C34.2247 63.1227 34.1554 63.2998 34.1708 63.5C34.1554 63.754 34.2324 63.9773 34.4018 64.1698C34.5712 64.3546 34.7791 64.4624 35.0332 64.4778C35.5414 64.4547 35.6415 64.0928 35.6723 63.7386ZM46.3439 67.3266C46.2669 66.9571 46.1283 66.5413 45.5893 66.5336C45.0503 66.5182 44.881 66.8801 44.8733 67.3112C44.8579 67.5345 44.9271 67.7193 45.0734 67.8733C45.2274 68.0273 45.4122 68.1043 45.6278 68.0966C46.0667 68.1043 46.3131 67.8348 46.3439 67.3343V67.3266ZM39.8916 68.1813C39.6683 68.1813 39.4835 68.2583 39.3296 68.4277C39.1756 68.5894 39.114 68.7819 39.1371 69.0052C39.1063 69.1899 39.1525 69.3516 39.2834 69.4902C39.4143 69.6365 39.5759 69.6981 39.7684 69.6827C39.984 69.6981 40.1765 69.6365 40.3382 69.4825C40.5076 69.3362 40.5846 69.1514 40.5846 68.9282C40.6 68.728 40.5384 68.5586 40.3998 68.4046C40.2612 68.2583 40.0918 68.1813 39.8916 68.1813ZM35.6415 69.059C35.218 69.1283 34.9254 69.3439 34.9408 69.8136C34.9408 70.0369 35.0255 70.2217 35.1949 70.3757C35.3566 70.522 35.5568 70.5913 35.7801 70.5682C35.9725 70.599 36.1419 70.5374 36.2728 70.3988C36.4114 70.2525 36.4576 70.0831 36.4191 69.8906C36.4499 69.6596 36.3806 69.4594 36.2266 69.29C36.0649 69.1206 35.8725 69.0359 35.6415 69.0436V69.059ZM36.935 73.5248C36.935 73.956 37.0274 74.3333 37.5587 74.3487C37.7665 74.3718 37.9436 74.3179 38.0976 74.1793C38.2516 74.033 38.3209 73.8636 38.3132 73.6557C38.3286 73.4401 38.267 73.2476 38.1284 73.0782C37.9898 72.9088 37.8127 72.801 37.5972 72.7702C37.0967 72.7702 36.9273 73.0628 36.935 73.5094V73.5248ZM42.5249 71.9926C42.5018 71.5075 42.3016 71.1841 41.8011 71.1841C41.3083 71.1764 41.1313 71.4844 41.139 71.931C41.1159 72.1466 41.1775 72.3314 41.3237 72.4931C41.47 72.647 41.6471 72.724 41.8627 72.724C42.3632 72.7163 42.4941 72.3622 42.5249 71.9772V71.9926ZM39.3527 62.2757C39.3604 62.0601 39.2911 61.8676 39.1371 61.706C38.9831 61.552 38.7983 61.475 38.575 61.4827C38.1515 61.5058 38.0052 61.7906 37.9898 62.1525C37.9744 62.3758 38.036 62.5683 38.19 62.7377C38.3363 62.8994 38.5211 62.9764 38.7444 62.9764C39.1987 62.9456 39.3527 62.6684 39.3527 62.2603V62.2757ZM46.8674 63.3691C46.6749 63.346 46.5056 63.3999 46.3593 63.5231C46.213 63.6462 46.1283 63.8079 46.1129 64.0004C46.1129 64.2237 46.1822 64.4162 46.3362 64.5779C46.4902 64.7319 46.6749 64.8243 46.8982 64.832C47.0907 64.832 47.2524 64.7627 47.3833 64.6241C47.5142 64.4778 47.5681 64.3161 47.545 64.1236C47.5681 63.9157 47.5065 63.7463 47.3756 63.5924C47.237 63.4384 47.0676 63.3614 46.8674 63.3537V63.3691ZM41.0312 64.8397C41.0774 65.2478 41.2622 65.5942 41.7164 65.5942C41.9243 65.6096 42.1014 65.5403 42.2477 65.3787C42.3863 65.2247 42.4402 65.0399 42.4094 64.832C42.4402 64.6318 42.3863 64.4624 42.2477 64.3161C42.1091 64.1621 41.932 64.1005 41.7318 64.1159C41.2468 64.1082 41.062 64.3854 41.0312 64.8243V64.8397ZM32.8773 67.3266C32.8773 67.1111 32.8003 66.9263 32.6463 66.78C32.4846 66.6337 32.2998 66.5644 32.0843 66.5721C31.6608 66.5567 31.4837 66.8339 31.4991 67.2188C31.4837 67.4267 31.5453 67.6038 31.6916 67.7578C31.8302 67.9118 32.0073 67.9888 32.2229 67.9888C32.6386 68.0119 32.8696 67.7732 32.8773 67.3112V67.3266ZM38.7213 65.8252C38.7444 65.625 38.6905 65.4479 38.5519 65.3017C38.421 65.1477 38.2516 65.0707 38.0514 65.0707C37.6511 65.0707 37.474 65.3787 37.474 65.7482C37.4432 65.9561 37.4971 66.1332 37.6357 66.2872C37.7742 66.4335 37.9436 66.5105 38.1438 66.5028C38.5673 66.5028 38.7136 66.2025 38.7213 65.8098V65.8252ZM99.7558 98.1557C96.214 97.8478 93.0803 96.6543 90.8166 93.7901C89.0226 91.5187 88.8301 88.9547 89.8927 86.3292C90.8089 84.0732 92.2872 82.2253 94.5355 81.0935C96.0446 80.3389 97.5999 80.4236 99.1475 81.0088C99.5402 81.1551 99.9406 81.2321 100.364 81.2321C101.434 81.286 102.335 81.7094 103.059 82.4948C105.561 84.9356 107.032 87.9153 107.155 91.4032C107.278 94.7063 104.714 97.5321 101.404 97.994C100.857 98.1018 100.31 98.1557 99.7558 98.1557ZM92.0793 88.4697C92.0793 89.0856 92.3103 89.4475 92.7877 89.4706C93.2728 89.4937 93.6808 89.024 93.7116 88.3927C93.7578 88.1386 93.6962 87.9153 93.5268 87.7151C93.3652 87.5149 93.1496 87.4148 92.8955 87.4071C92.3796 87.4071 92.0947 87.7767 92.0793 88.4697ZM99.1552 91.9884C99.1629 91.742 99.0705 91.5341 98.8858 91.3724C98.701 91.2107 98.4854 91.1414 98.2467 91.1722C97.9926 91.1568 97.7847 91.2415 97.6153 91.4186C97.4459 91.5957 97.3766 91.8113 97.4074 92.0577C97.392 92.3041 97.4767 92.5119 97.6461 92.6813C97.8155 92.8584 98.0234 92.9431 98.2698 92.9354C98.5239 92.92 98.7318 92.8199 98.9012 92.6428C99.0782 92.458 99.1629 92.2425 99.1552 91.9884ZM98.624 96.4772C98.8627 96.4849 99.0705 96.4156 99.2476 96.2539C99.4324 96.0999 99.5248 95.8998 99.5402 95.6611C99.5556 95.4224 99.4863 95.2145 99.3246 95.0297C99.1629 94.8526 98.9627 94.7525 98.7241 94.7371C98.4931 94.7294 98.2929 94.7987 98.1158 94.9527C97.9387 95.099 97.8386 95.2915 97.8078 95.5148C97.8001 95.7535 97.8771 95.9691 98.0311 96.1538C98.1851 96.3386 98.3776 96.4464 98.624 96.4772ZM105.646 92.1809C105.654 91.9576 105.569 91.7728 105.4 91.6188C105.23 91.4725 105.038 91.4032 104.814 91.4263C104.299 91.4263 104.121 91.742 104.129 92.2117C104.145 92.6813 104.399 93.0278 104.884 93.0201C105.376 93.0124 105.615 92.6659 105.646 92.1809ZM97.0225 83.7729C97.0225 83.4188 96.8839 83.0184 96.3834 83.0184C95.8829 83.0184 95.6519 83.3957 95.6288 83.8576C95.5826 84.0655 95.6211 84.258 95.7597 84.4351C95.8906 84.6045 96.06 84.6969 96.2833 84.7123C96.6991 84.7431 97.0148 84.3658 97.0225 83.7729ZM102.682 90.5794C102.689 90.3484 102.612 90.1482 102.458 89.9865C102.297 89.8171 102.104 89.7324 101.873 89.717C101.673 89.717 101.496 89.7863 101.35 89.9249C101.203 90.0635 101.126 90.2329 101.119 90.4331C101.126 90.664 101.211 90.8642 101.38 91.0259C101.55 91.1876 101.75 91.2646 101.981 91.2646C102.173 91.2723 102.343 91.203 102.481 91.0721C102.62 90.9412 102.697 90.7718 102.697 90.5794H102.682ZM94.8666 91.1799C94.4662 91.2107 94.1428 91.3724 94.1505 91.8113C94.1351 92.0269 94.2044 92.2194 94.3507 92.3888C94.497 92.5504 94.6818 92.6428 94.9051 92.6505C95.0976 92.6659 95.267 92.6043 95.3978 92.4657C95.5364 92.3272 95.5903 92.1655 95.5749 91.973C95.5903 91.7651 95.5364 91.5803 95.3978 91.4263C95.267 91.2723 95.0899 91.1876 94.882 91.1799H94.8666Z" fill="#FA830E"/>
</svg>
