<svg width="885" height="603" viewBox="0 0 885 603" fill="none" xmlns="http://www.w3.org/2000/svg">
<mask id="mask0_32_1424" style="mask-type:luminance" maskUnits="userSpaceOnUse" x="0" y="0" width="885" height="603">
<path d="M0 0H884.942V602.847H0V0Z" fill="white"/>
</mask>
<g mask="url(#mask0_32_1424)">
<path d="M878.202 0H0.0942383V595.52L6.84524 602.303L884.869 602.593L884.648 6.77741L878.202 0ZM853.658 573.795H31.9713L32.0815 29.4005H853.658V573.795Z" fill="#D18550"/>
</g>
<mask id="mask1_32_1424" style="mask-type:luminance" maskUnits="userSpaceOnUse" x="0" y="0" width="880" height="598">
<path d="M0 0H879.571V597.442H0V0Z" fill="white"/>
</mask>
<g mask="url(#mask1_32_1424)">
<mask id="mask2_32_1424" style="mask-type:luminance" maskUnits="userSpaceOnUse" x="-825" y="-419" width="2321" height="1314">
<path d="M1495.94 -418.706H-824.514V894.719H1495.94V-418.706Z" fill="black" fill-opacity="0.1"/>
</mask>
<g mask="url(#mask2_32_1424)">
<mask id="mask3_32_1424" style="mask-type:luminance" maskUnits="userSpaceOnUse" x="0" y="-2" width="880" height="600">
<path d="M879.571 -1.16663H0V597.441H879.571V-1.16663Z" fill="white"/>
</mask>
<g mask="url(#mask3_32_1424)">
<mask id="mask4_32_1424" style="mask-type:luminance" maskUnits="userSpaceOnUse" x="0" y="0" width="879" height="597">
<path d="M0.215332 0.18457H878.228V596.09H0.215332V0.18457Z" fill="white"/>
</mask>
<g mask="url(#mask4_32_1424)">
<path d="M110.854 590.69C108.294 591.012 108.861 591.646 106.259 591.762C100.557 590.896 105.698 590.801 110.854 590.69ZM101.952 589.498L98.7107 588.875C99.3874 589.107 100.384 589.318 101.952 589.498ZM115.344 586.874L110.324 587.186L115.528 587.782L115.344 586.874ZM120.968 589.593L110.581 588.405L109.375 588.558L119.751 589.746L120.968 589.593ZM848.303 15.629C859.381 16.3785 858.683 14.9111 863.268 15.0642C855.882 14.4941 851.424 14.3938 848.303 15.629ZM145.092 583.749L111.368 586.125C106.306 586.141 104.895 585.38 107.298 584.773C96.0302 585.264 91.9754 583.903 79.4229 584.552L86.7929 583.617C72.6666 582.599 76.9627 584.863 57.7274 583.855L59.2223 584.916L52.7389 584.177C47.7766 584.8 44.3513 586.473 35.308 585.439L36.9183 587.106C30.5135 586.975 32.7691 585.454 25.1683 585.47C20.1851 585.792 17.8036 586.711 21.7273 587.159C18.0869 587.17 13.8695 586.943 9.4842 586.663L21.9843 574.148C22.5141 574.175 23.0596 574.233 23.5947 574.27L28.9714 574.032C31.6676 574.343 36.4043 574.486 39.8244 574.745C40.9469 574.349 38.3189 573.768 42.9769 573.567C43.7428 574.122 42.7828 574.644 42.9822 575.114C43.6274 575.246 43.9473 575.41 43.8372 575.61C44.6188 575.848 46.0351 576.069 48.5896 576.281C55.7498 574.438 73.7472 575.605 83.7085 574.665L96.5863 575.832L86.7194 577.083L91.7919 577.067C83.4724 579.669 81.3952 575.885 69.0944 577.748L68.3128 579.722L59.4007 579.595C58.2729 580.355 62.2857 581.411 66.115 581.543C69.8498 581.385 75.9031 580.002 79.5488 579.236C78.2584 579.089 78.2059 578.777 74.4082 578.936C86.7929 577.384 75.9031 579.997 86.006 579.664C82.0509 578.92 90.8214 578.439 94.4776 577.97C97.2997 579.173 115.066 579.432 121.219 578.645L131.6 579.838L137.696 578.756C144.085 580.329 170.239 576.851 179.665 578.92C178.831 578.323 188.714 578.239 191.992 577.827C200.936 578.26 192.281 579.342 203.721 579.469C199.567 577.801 216.384 579.733 222.579 578.656C223.649 579.791 211.752 580.398 207.991 580.656L197.474 579.938C200.201 580.852 189.946 580.266 193.949 581.321C178.632 580.757 171.089 580.778 149.341 579.78C150.683 580.239 149.519 580.693 152.089 580.994L135.408 580.641C142.112 581.036 144.137 583.67 158.804 582.947L143.775 583.596L145.092 583.749ZM30.608 575.125C31.0643 575.13 31.4892 575.13 31.9036 575.13L29.4172 574.95C29.8159 575.014 30.2041 575.051 30.608 575.125ZM58.8237 577.748L56.2639 577.447C55.9072 577.463 55.5662 577.473 55.2252 577.489C56.4999 577.547 57.7274 577.627 58.8237 577.748ZM640.123 577.706C640.322 578.619 643.139 579.833 631.72 579.712C628.987 578.809 630.052 577.737 636.157 576.956C627.266 576.529 625.058 578.054 621.412 578.83C605.985 577.658 579.616 578.798 568.055 578.07L567.808 576.866L562.919 577.78C569.618 579.432 580.681 578.033 588.518 579.231C597.341 578.746 599.958 579.041 613.806 578.545C611.309 579.168 613.932 579.764 606.305 579.485C607.669 579.928 615.223 579.606 621.444 579.131C630.282 578.962 628.001 580.176 630.629 580.772C623.175 581.395 615.474 580.82 606.588 580.693C617.011 582.182 594.083 581.649 595.457 582.092C595.804 583.913 615.957 583.253 620.956 582.926C615.904 582.947 613.271 582.34 614.415 581.886C624.512 581.554 635.14 583.95 647.629 583.612C648.658 582.24 641.031 581.96 638.287 581.057C661.158 581.284 673.752 580.947 694.173 581.802C692.83 581.649 692.83 581.348 692.83 581.348L706.726 581.459C697.535 579.511 674.633 579.279 655.571 578.878C661.929 579.004 656.972 579.326 654.459 579.632C651.747 578.434 641.629 578.767 640.123 577.706ZM633.692 589.424C630.964 588.526 621.014 589.16 617.221 589.329C622.356 589.608 628.63 589.44 633.692 589.424ZM210.299 580.82L207.991 580.656C206.228 580.778 206.255 580.831 210.299 580.82ZM116.126 590.522C113.514 590.485 111.919 590.559 110.854 590.69C112.805 590.648 114.757 590.606 116.126 590.522ZM703.772 1.79965C698.842 2.42249 711.641 3.29342 709.065 2.69169C710.177 2.24303 711.273 1.47239 703.772 1.79965ZM671.623 591.208C682.093 592.691 698.05 590.363 689.074 589.63C684.249 590.87 667.431 589.545 671.623 591.208ZM816.599 2.52278C816.85 2.67058 817.17 2.79198 817.543 2.9081L819.179 2.82365L816.599 2.52278ZM657.082 584.694C656.573 584.721 656.064 584.747 655.571 584.805C656.216 584.779 656.699 584.742 657.082 584.694ZM812.801 9.50077C811.794 9.543 810.036 9.47966 808.106 9.39521C809.024 9.53772 810.718 9.59578 812.801 9.50077ZM826.623 9.00989C826.429 9.02044 826.25 9.031 826.061 9.04156C826.271 9.04156 826.46 9.031 826.623 9.00989ZM779.025 6.25458C778.605 6.11735 778.196 5.96955 777.892 5.80592C774.094 5.96427 765.182 5.84815 765.381 6.75075C768.067 6.41821 769.808 6.36543 771.188 6.4446C765.801 7.64279 774.634 7.73252 779.612 8.46621L773.449 8.86209C776.271 10.3717 791.305 9.41104 800.196 9.84387C799.231 9.57467 798.921 9.39521 799.068 9.27908C800.872 9.2738 802.698 9.25269 804.518 9.23158C805.693 9.27908 806.931 9.34242 808.106 9.39521C807.734 9.33715 807.492 9.26325 807.419 9.18407C809.15 9.1524 810.865 9.11545 812.528 9.06267C818.01 9.26853 819.51 9.38465 826.061 9.04156C825.054 9.04156 823.638 8.81987 822.736 8.54011C824.687 8.37648 826.46 8.19174 827.918 7.96477C829.739 8.38176 833.494 8.48205 837.423 8.49789C838.745 9.17879 838.866 9.91249 850.847 9.69607C853.417 9.68552 859.496 9.15768 862.303 8.50316C864.805 8.74069 867.255 9.01517 869.652 8.96766L874.263 4.35437L860.042 4.52328C857.377 3.92683 848.491 3.49928 857.099 2.40666C846.225 1.72047 823.738 4.71858 817.548 2.9081L806.674 3.46233C820.554 3.27231 824.692 4.93499 834.9 5.20419C813.157 4.8611 799.933 5.96427 779.025 6.25458ZM857.729 20.9073L858.295 20.3425C849.944 19.6775 840.377 20.427 831.48 19.9255L828.071 21.9155C831.202 20.8334 835.488 20.6328 840.471 20.6803L840.67 21.5829L847.012 21.7096L840.607 20.6856C845.743 20.7384 851.612 21.034 857.729 20.9073ZM863.546 15.0853L863.562 15.0694C863.457 15.0694 863.368 15.0694 863.268 15.0642C863.357 15.0694 863.457 15.08 863.546 15.0853ZM657.082 584.694C659.128 584.605 661.357 584.752 664.347 584.626L659.086 583.734C658.168 584.114 658.918 584.483 657.082 584.694ZM336.784 595.874H356.466C356.943 595.378 355.375 594.929 349.935 594.686C359.167 593.509 359.314 595.008 362.026 595.525C360.935 595.589 359.807 595.663 358.606 595.789C360.169 595.805 361.779 595.832 363.406 595.874H374.442C373.902 595.826 373.356 595.784 372.816 595.742C376 595.029 376.771 594.449 375.056 593.694C370.188 594.623 364.853 593.425 359.76 593.43L368.546 592.96L356.891 591.619L356.995 592.232L340.168 590.305L350.066 589.36C336.223 589.561 318.179 588.094 305.694 589.044L324.809 589.434L316.075 590.221C317.586 591.282 329.876 589.424 335.185 590.622C341.138 591.567 341.983 593.15 351.498 593.182C347.727 593.425 348.293 594.449 345.392 594.649L348.729 594.839C342.555 595.267 340.168 595.605 336.784 595.874ZM152.934 573.383C153.332 573.451 153.642 573.531 153.873 573.604C153.768 573.525 153.563 573.451 153.228 573.383H152.934ZM329.247 576.423C323.408 576.054 322.553 576.259 322.989 576.608C324.589 576.687 326.498 576.666 329.247 576.423ZM345.392 594.649L338.411 594.264C341.988 594.67 344.06 594.75 345.392 594.649ZM311.475 576.17L324.494 577.653C325.045 577.431 323.408 576.946 322.989 576.608C319.537 576.444 317.497 575.837 311.475 576.17ZM281.78 577.912C282.488 577.901 283.217 577.864 283.93 577.769L281.78 577.912ZM269.484 579.273L271.079 579.548C271.257 579.49 271.42 579.437 271.582 579.395C270.916 579.374 270.224 579.337 269.484 579.273ZM305.369 573.383H272.443L272.973 573.552L264.039 573.43C264.595 575.858 290.587 573.198 289.69 574.871C294.138 574.085 300.784 574.016 305.369 573.383ZM280.002 581.057L271.079 579.548C270.57 579.717 269.904 579.96 268.43 580.334L280.002 581.057ZM247.479 575.494C247.332 575.505 247.222 575.515 247.233 575.542C247.29 575.526 247.401 575.51 247.479 575.494ZM290.188 583.227C292.638 583.939 296.147 583.982 300.228 583.786C302.096 584.156 304.372 584.605 309.738 584.747L302.274 583.676C308.978 583.274 316.92 582.472 324.3 582.974L325.197 581.306C320.156 581.316 324.174 582.361 322.952 582.826C316.605 582.092 310.782 581.881 305.059 581.818C304.084 581.617 302.169 581.469 298.901 581.438L298.009 581.786C292.113 581.791 286.16 581.802 279.676 581.438C279.713 581.738 281.056 582.187 277.3 582.356L272.112 581.765C267.323 582.995 281.145 582.493 280.007 583.253C287.529 582.625 287.272 581.723 296.184 581.844C296.635 581.944 296.924 582.045 297.091 582.145L295.082 582.926C293.902 583.069 292.255 583.174 290.188 583.227ZM266.347 576.249C261.296 576.254 263.945 576.856 257.54 576.724C254.655 574.908 268.797 575.937 276.345 575.605C271.084 574.433 250.669 574.903 247.479 575.494C249.158 575.431 259.743 576.471 256.397 577.183C255.201 577.637 251.429 577.5 248.822 577.51C251.455 577.801 257.766 577.632 262.801 577.616L266.347 576.249ZM253.947 588.621C255.363 588.679 256.25 588.727 256.25 588.727C255.725 588.611 254.928 588.59 253.947 588.621ZM70.8097 592.754L67.29 593.815H69.7501L70.8097 592.754ZM253.947 588.621C250.506 588.468 243.823 588.247 238.473 588.484C242.832 589.693 249.945 588.732 253.947 588.621ZM86.2578 587.112C88.8911 587.413 90.2602 587.861 92.841 588.157L94.0789 587.999L98.7107 588.875C95.4795 587.803 99.7808 586.441 86.2578 587.112ZM284.224 578.756L288.426 579.057C286.884 578.814 285.525 578.74 284.224 578.756ZM161.012 575.193C153.259 574.982 155.646 574.217 153.873 573.604C154.89 574.37 147.127 575.473 161.012 575.193ZM284.224 578.756L276.87 578.223L281.78 577.912C280.085 577.927 278.517 577.753 277.604 577.642L275.365 578.112L274.273 578.038C274.509 578.059 274.871 578.091 275.296 578.128L273.959 578.408L276.581 578.239C278.386 578.408 280.337 578.635 279.587 578.93C273.665 579.131 272.5 579.157 271.582 579.395C277.164 579.617 280.447 578.798 284.224 578.756ZM682.14 584.874C685.822 584.415 690.963 584.7 692.075 583.929C685.696 583.496 683.268 584.114 682.14 584.874ZM106.133 20.7278L104.643 19.6722L104.79 20.2739C104.239 20.3267 103.72 20.332 103.18 20.3584C104.239 20.4428 105.247 20.5589 106.133 20.7278ZM506.441 21.0709L498.593 21.1026C498.305 20.7754 497.843 20.4692 493.5 20.4903L495.525 21.4246L492.802 22.4908C499.223 22.6175 499.223 22.9236 502.905 22.1583C504.274 22.38 505.78 22.6386 507.427 22.9025H517.142C517.682 22.1688 507.6 21.6832 506.441 21.0709ZM226.235 3.08757L226.345 3.07173L225.438 2.93449C225.448 3.01367 225.758 3.06117 226.235 3.08757ZM577.303 2.48056L583.644 2.62307C586 1.69408 578.404 1.71519 573.279 1.43016C578.404 1.71519 577.224 2.18497 577.303 2.48056ZM204.445 0.633128C203.338 0.56451 202.221 0.490612 201.098 0.411438H230.159C233.059 0.527561 235.96 0.617293 238.856 0.606737L237.806 1.67824C256.428 3.80542 246.729 1.67824 251.204 0.411438H263.452C263.336 1.24542 258.054 2.06356 265.802 2.50167C269.138 2.88171 271.955 2.82893 274.515 2.65474C274.52 2.63363 274.541 2.62307 274.551 2.60196L274.982 2.62307C280.175 2.22719 284.187 1.34571 288.594 2.43833C287.01 2.67585 285.179 2.85004 283.18 2.98728L287.33 3.16674L282 3.06117C280.993 3.11924 279.939 3.16674 278.853 3.21425C273.256 3.8107 277.678 5.14085 277.84 6.23875C286.784 6.66629 284.99 4.09573 295.439 5.57367C291.39 4.22769 292.339 2.85004 299.767 1.91577L322.81 3.06117C315.273 3.38843 305.107 3.41482 295.135 4.05879C295.36 5.27281 304.76 7.82753 292.271 8.77764C298.875 9.82803 307.913 10.8573 319.207 10.3664L317.811 9.61162L326.813 11.7863C327.002 11.8021 327.185 11.818 327.358 11.8391C329.808 11.5277 333.17 11.079 329.435 10.9418C333.139 10.7095 332.945 11.6227 329.64 12.14C329.724 12.1611 329.818 12.1716 329.902 12.1875C329.63 12.2191 329.173 12.2508 328.586 12.2825C327.526 12.3986 326.251 12.4725 324.762 12.4778C333.695 12.9106 347.816 13.9293 355.333 13.2959L351.435 12.8525L364.108 13.1217L364.04 12.8209C375.329 12.3247 380.558 12.9159 397.077 13.3329C399.259 11.7969 391.532 11.2162 385.091 10.472C391.055 9.21574 397.654 10.9787 405.317 11.1529C404.321 12.5622 421.342 12.8103 431.225 13.0689L424.972 13.5493L428.219 13.9188C434.163 13.3645 440.782 12.995 449.18 13.354C453.151 14.3991 471.988 13.5862 471.002 14.9533C452.942 13.4912 433.402 16.8958 416.595 15.2753C419.36 16.1832 425.633 16.0037 427.102 17.0647L415.971 18.4582C387.619 15.8084 381.943 19.0229 354.965 17.1227C355.28 18.6482 369.412 19.6669 362.015 20.6012C349.4 20.9443 354.425 20.6223 346.73 20.0364L361.905 19.9889C345.287 19.2763 348.729 17.5978 325.942 17.6717L325.16 18.8065C324.515 17.7667 302.09 17.9989 299.038 16.9644L297.868 17.4183L288.887 16.6846C295.229 16.8219 292.533 15.9193 293.713 15.46C289.863 15.2647 285.719 15.0589 281.407 14.8741L273.633 15.8454C277.279 15.08 256.884 14.2249 246.829 14.5574C246.818 14.4994 246.551 14.436 246.189 14.3674C245.911 14.378 245.622 14.378 245.344 14.3833C230.814 13.961 234.99 13.4279 239.139 12.7364C229.844 12.7153 219.862 12.14 211.967 11.4696L216.059 12.5306L203.322 12.2614L208.253 11.6385C199.299 11.2057 191.321 9.71191 177.546 10.2081C173.47 8.85154 182.534 9.89137 186.374 10.0233C183.347 9.18407 186.715 8.31842 189.296 7.45805L188.158 7.26275C184.564 8.03867 175.951 9.43216 164.285 8.09145C161.62 7.495 166.688 7.47916 166.593 6.87215C170.338 6.70852 175.316 6.39182 181.774 6.82464L180.688 5.6898C174.257 5.80592 167.317 5.86398 160.178 5.92732C160.099 5.99067 160.062 6.05928 160.083 6.13318C159.103 6.08568 158.368 6.02233 157.775 5.94844C149.404 6.01706 140.801 6.09095 132.418 6.2493L134.706 5.01945C130.992 5.79537 113.141 4.93499 108.237 5.86398L106.61 3.8846C101.549 3.90571 99.1723 4.518 98.0078 5.27809L95.3483 4.38077C98.2124 6.19652 81.9722 7.30498 92.4108 8.79875L107.544 8.43982C113.975 8.87793 98.7946 8.92016 98.9048 9.53245C107.623 9.05211 112.937 9.94416 124.235 9.45855C135.582 9.27908 138.398 10.7834 133.573 11.7071C123.396 11.7441 109.364 11.0209 100.457 11.2057L100.589 11.5013C75.6881 11.8549 92.9616 9.63273 77.7181 9.33187C82.4338 7.51083 62.0864 8.85154 64.1794 7.04634C59.1489 7.06745 48.1857 9.07323 46.5754 7.41054L54.2076 7.6903C52.6235 7.15718 50.0794 6.31264 47.7346 5.77425C35.5545 6.07512 22.6348 6.08568 13.1246 5.65813C20.1851 9.13657 55.2987 7.50555 64.7564 10.3717L64.662 9.75942C69.556 10.6409 67.4001 10.5406 64.7616 10.4878C65.239 10.5934 65.7268 10.7095 66.2409 10.8415L61.2104 10.8731C61.0688 10.8573 60.9114 10.852 60.7593 10.8415C60.775 10.9259 60.8747 11.0262 61.1002 11.1371C55.6764 11.0315 51.6583 10.9101 49.1771 10.6937C47.8605 10.6937 46.5491 10.6778 45.285 10.662C45.9616 10.5723 46.8848 10.5512 47.9025 10.5564C45.7466 10.2556 45.6941 9.80164 48.0336 9.04156C40.4171 9.07323 28.9923 8.9571 34.3795 10.4667C31.1325 9.82803 27.1512 9.47966 22.7344 9.30548L21.6119 9.31075L26.8941 10.2028C26.0653 10.1025 21.4178 9.70135 19.9543 9.21574C17.3682 9.16296 14.6615 9.1524 11.8552 9.18935L9.12751 6.42349C9.23766 6.42877 9.34782 6.42349 9.45797 6.42877L9.09079 6.39182L7.03454 4.31215C19.1675 4.85582 32.3757 4.40188 43.4176 4.44938L43.2444 3.47289C52.1304 3.90043 54.9472 5.11446 65.1708 5.67924C87.8315 5.00889 96.1352 2.3961 120.259 2.48056L115.093 2.19025L131.752 2.91338C139.038 1.36682 122.683 2.16913 116.136 1.1293C107.581 2.52278 93.3708 1.19264 81.9775 1.07651C68.4335 2.16913 66.5661 1.40905 65.1026 0.411438H179.712C180.562 0.997335 182.477 1.57796 187.271 2.13218L173.323 2.02134C175.547 2.59668 179.34 2.88171 183.757 3.04006C183.977 3.0295 184.276 3.02423 184.748 3.01895C193.697 3.45177 193.545 2.53862 193.393 1.92633C194.872 2.10051 201.644 2.30637 207.655 2.22719C204.76 2.14802 202.352 1.90521 201.025 1.33515C203.06 0.992057 203.947 0.765089 204.445 0.633128ZM48.2172 9.38993L48.3169 9.68024L49.964 9.33187C49.4342 9.34242 48.8677 9.36354 48.2172 9.38993ZM230.3 3.66819C228.585 3.78959 227.032 3.94266 225.695 4.14324L233.259 4.11685L230.3 3.66819ZM180.326 5.31503L180.179 5.16196C179.77 5.16196 179.329 5.16196 178.889 5.16196C179.356 5.21475 179.833 5.26753 180.326 5.31503ZM185.703 5.58951C185.981 5.59479 186.259 5.60007 186.558 5.59479C186.6 5.58423 186.631 5.57367 186.673 5.56312C186.353 5.57367 186.028 5.57895 185.703 5.58951ZM189.642 6.68741C189.946 6.74019 190.387 6.7877 190.906 6.84576C191.84 6.3971 192.092 5.95372 190.681 5.51561C186.71 5.64757 184.061 5.92732 184.171 6.5185C185.461 6.66102 188.095 6.96188 189.348 6.80881L189.642 6.68741ZM211.29 8.48205C205.929 7.9331 200.579 7.38415 198.675 6.36015C198.549 6.36015 198.439 6.36015 198.308 6.35487C198.47 7.28914 203.978 7.97005 211.29 8.48205ZM394.517 15.4706C394.171 15.6026 393.929 15.7504 393.809 15.9193C393.882 15.9193 393.935 15.9245 394.008 15.9298C394.412 15.8137 394.758 15.6659 394.999 15.46C394.832 15.4653 394.674 15.4653 394.517 15.4706ZM420.723 14.7158C417.97 14.6577 415.048 14.6049 412.173 14.568L411.58 15.592C414.686 15.3703 417.676 15.0483 420.723 14.7158ZM359.77 15.4812C362.073 15.6501 363.238 15.972 361.234 16.653C376.855 16.4946 366.852 15.7715 365.556 14.9639C363.526 14.985 361.695 15.1275 359.77 15.4812ZM235.624 3.41482C239.637 3.8107 243.021 4.34909 242.423 4.7133C249.347 3.72097 249.551 6.65574 259.827 4.77664C258.018 4.7133 255.557 4.30687 252.819 3.94794C260.425 4.16435 269.096 4.09045 272.773 3.36204C260.766 3.52567 246.33 3.08757 235.624 3.41482ZM218.204 2.0794L220.349 3.83182L226.235 3.08757C226.319 3.09285 226.413 3.09285 226.502 3.09285L226.345 3.07173L227.74 2.89227C228.821 2.91338 230.096 2.97672 231.428 3.06645C231.543 3.06645 231.664 3.06117 231.774 3.06117C231.496 1.6888 225.154 1.86299 218.204 2.0794ZM53.9558 1.1293C52.828 1.59379 45.3059 2.22719 42.615 1.31932L44.1572 2.68641C58.2257 2.93977 58.4985 1.48822 55.9281 0.411438H54.1184C54.3073 0.606737 54.2758 0.849542 53.9558 1.1293ZM243.083 3.45705C245.591 3.66291 249.074 3.83709 252.819 3.94794C249.772 3.54678 246.378 3.20897 243.083 3.45705ZM601.768 4.38604L611.928 4.66052L613.193 4.50745L601.768 4.38604ZM61.9343 21.319L73.2961 21.129L66.8441 20.3848C69.32 20.0892 56.7464 20.7278 61.9343 21.319ZM646.402 13.0426C645.117 12.8948 645.117 12.8948 642.583 12.8948C639.871 11.9922 646.239 12.1241 650.011 11.9658L659.164 13.3065C661.934 14.5047 644 13.6548 647.902 14.1035C654.501 15.4442 669.288 13.5757 660.329 12.842L675.52 13.1006C674.219 12.9581 669.157 12.6625 671.575 12.3511L676.553 11.7335C664.856 10.4034 635.953 11.2426 619.519 11.4485C622.078 11.4432 624.654 11.7335 628.405 11.5857L614.808 13.2801C626.018 12.1927 636.278 13.0637 646.402 13.0426ZM580.109 16.7321L569.948 16.7638C585.04 16.1093 565.883 15.4073 568.233 14.4888L582.354 15.5128C587.322 15.1908 578.31 14.1457 588.402 14.1299L567.882 12.6625L569.387 14.0296L551.72 14.3885C561.996 14.9692 550.613 15.1486 546.941 15.6131C557.165 16.199 567.987 19.1971 580.109 16.7321ZM333.989 8.2023L325.124 8.07562L332.856 8.9571L333.989 8.2023ZM306.098 1.16624L290.86 0.907603C289.632 1.36682 293.54 1.81548 297.448 2.25359C293.325 0.902325 304.981 1.92633 306.098 1.16624ZM368.798 11.2901L378.623 10.0392C374.804 9.59051 370.954 9.45855 367.182 9.6169L368.798 11.2901ZM369.968 4.90332C371.457 5.65813 357.609 6.15429 369.071 6.57656C365.053 5.51561 382.83 5.76897 369.968 4.90332ZM410.521 11.0104L405.454 11.0209C405.391 11.0684 405.344 11.1107 405.317 11.1529C407.001 11.1899 408.727 11.1793 410.521 11.0104ZM325.16 18.8118L325.003 19.0441C325.176 18.9596 325.208 18.8804 325.16 18.8118ZM36.8187 9.26325C34.133 10.1711 37.5583 10.4931 42.7094 10.6198C36.9655 10.055 49.6388 9.37409 36.8187 9.26325ZM44.7184 10.7676C44.8811 10.7201 45.0751 10.6937 45.285 10.662C44.3932 10.6515 43.533 10.6409 42.7094 10.6198C43.2287 10.6673 43.8739 10.7201 44.7184 10.7676ZM70.9933 9.31075C72.289 9.45855 74.8907 9.75941 77.4191 9.44271C77.5345 9.40576 77.6237 9.36881 77.7181 9.33187C75.9451 9.3002 73.763 9.28436 70.9933 9.31075ZM189.642 6.68741L190.476 6.34959C188.981 6.46572 188.96 6.57656 189.642 6.68741ZM96.6597 20.2053C98.7212 20.3795 100.893 20.4639 103.18 20.3584C101.176 20.1895 98.9258 20.1578 96.6597 20.2053ZM535.349 14.5891C535.433 14.8847 529.17 15.6659 538.076 15.4917C538.003 15.1908 539.194 14.7264 535.349 14.5891ZM513.9 21.3401L531.152 22.1266L533.314 22.3694L534.163 22.2639L535.669 22.3272L532.7 22.9025H538.706C534.31 22.76 538.911 22.1266 539.608 21.5671L541.916 21.2715C541.607 21.3137 540.752 21.3137 539.577 21.3032C539.236 21.1079 538.056 20.9337 535.344 20.8229C533.639 21.0973 532.034 21.2504 530.481 21.356C529.857 21.3824 529.243 21.414 528.656 21.451C523.237 21.6199 518.757 20.9126 514.986 20.2739C517.682 20.8704 503.713 20.7542 513.9 21.3401ZM688.518 19.9255L674.345 18.6007C674.497 19.4505 665.779 19.0229 660.565 19.4399C665.653 19.2235 679.559 21.3507 688.518 19.9255ZM369.616 21.1554C370.775 21.0076 376.981 20.2317 383.506 20.9707L378.245 20.0681L383.281 20.0522L384.419 19.593C375.538 19.4663 371.898 20.2422 369.616 21.1554ZM392.544 21.4246L383.816 21.034C386.003 21.6041 379.997 21.7782 378.827 22.2269C392.791 22.6439 383.664 20.9918 392.544 21.4246ZM527.071 22.8445C527.171 22.8656 527.213 22.8814 527.297 22.9025H527.391L527.071 22.8445ZM660.565 19.4399C660.082 19.461 659.657 19.4927 659.343 19.5613C659.726 19.5085 660.135 19.4769 660.565 19.4399ZM689.693 14.1299C689.866 14.7264 683.493 14.5997 683.588 15.2014L696.224 15.1697L689.693 14.1299ZM675.373 16.2993C675.725 16.3574 676.118 16.3996 676.433 16.4735C676.406 16.3574 676.008 16.3099 675.373 16.2993ZM664.94 16.0512C666.12 16.9063 672.766 16.2624 675.373 16.2993C672.787 15.8665 669.335 15.7662 664.94 16.0512ZM383.029 20.997L379.782 20.8545C379.814 21.1343 380.857 21.0234 383.029 20.997ZM165.675 14.7844L188.383 14.4149C185.703 13.8079 183.012 12.9106 186.657 12.1294L170.197 12.0344L175.343 12.6203C172.883 12.937 160.382 13.5862 165.675 14.7844ZM183.573 21.5618L173.37 21.2874L182.356 22.0158L183.573 21.5618ZM159.653 9.36354L156.092 10.4298L139.526 10.0233L148.606 11.0526C150.893 9.83331 161.416 11.628 170.123 11.1476C163.75 10.7042 170.973 9.16824 159.653 9.36354ZM693.412 0.918161L684.527 0.490612C683.341 0.94983 685.948 1.2507 687.186 1.39849L693.412 0.918161ZM154.203 14.6577L152.782 13.5968L149.204 14.6736L154.203 14.6577ZM83.1787 19.878C83.3203 20.4903 74.534 20.9707 82.266 21.5618C82.1768 21.3613 89.4733 20.3689 96.6597 20.2053C91.6083 19.783 87.1915 18.9649 83.1787 19.878ZM383.029 20.997L383.816 21.034C383.763 21.0234 383.727 21.0076 383.664 20.9918C383.438 20.9918 383.234 20.997 383.029 20.997ZM290.403 17.1702L279.923 17.0911C283.647 17.4342 288.835 18.2576 290.403 17.1702ZM276.456 17.0594L279.923 17.0911C278.412 16.9485 277.137 16.8852 276.456 17.0594ZM243.818 589.688L241.368 590.295L242.821 591.055L243.818 589.688ZM3.57249 593.203C3.33644 593.224 3.12137 593.245 2.89057 593.266L1.71557 594.443C4.54291 594.771 5.62349 595.43 6.50998 595.309C10.1556 594.554 6.2005 593.805 3.57249 593.203ZM28.4101 595.035C30.6394 595.167 32.853 595.235 34.9985 595.335C33.5717 594.987 33.8025 594.359 28.4101 595.035ZM37.915 595.515C36.9708 595.446 36.0004 595.378 34.9985 595.335C35.5597 595.473 36.3885 595.562 37.915 595.515ZM196.97 595.874C196.76 595.626 196.299 595.446 195.632 595.309C196.933 595.335 198.218 595.33 199.372 595.283C196.603 594.069 210.629 594.797 202.782 593.599C210.173 593.451 224.399 593.287 230.012 594.185C230.463 594.132 231.003 594.079 231.606 594.026C228.538 593.646 225.422 593.219 223.811 592.855L236.6 593.72C238.646 591.282 223.743 592.538 223.255 590.12L232.362 591.461L238.436 590.374C239.779 590.817 242.543 591.725 238.84 592.195C255.573 593.514 256.37 591.229 276.87 592.39C264.538 593.947 299.84 593.229 291.227 594.623C293.829 594.612 297.537 594.449 300.181 595.045C291.201 594.179 289.769 594.771 288.032 595.42C289.05 595.573 290.11 595.721 291.211 595.874H196.97ZM245.712 593.446C246.383 593.499 246.944 593.536 247.469 593.567C246.881 593.525 246.283 593.472 245.712 593.446ZM231.454 594.501C231.827 594.612 232.131 594.734 232.272 594.876C233.148 594.76 234.098 594.66 235.026 594.56C233.815 594.591 232.603 594.575 231.454 594.501ZM251.288 595.863L247.899 595.742C249.462 595.811 250.669 595.863 251.288 595.863ZM195.312 593.921L171.267 593.847C173.921 594.755 172.683 594.913 165.061 594.623C170.443 596.027 182.052 595.124 189.721 595.029C189.034 594.977 188.399 594.918 187.874 594.86L195.312 593.921ZM189.721 595.029C191.436 595.161 193.545 595.277 195.632 595.309C194.332 595.056 192.239 594.992 189.721 595.029ZM152.194 593.646C149.587 594.137 147.19 594.649 149.797 594.945C153.563 594.66 151.701 594.053 152.194 593.646ZM813.598 19.3819L813.325 18.1678L804.576 18.342L813.598 19.3819ZM245.659 575.056C243.083 574.76 234.124 574.333 231.732 574.95C236.752 574.94 243.241 575.674 245.659 575.056ZM858.342 20.2897L860.42 18.2153C860.352 18.1995 860.257 18.1837 860.189 18.1678C859.297 18.7854 855.164 19.6141 858.342 20.2897ZM125.62 593.678C125.883 593.805 126.15 593.916 126.423 594.011C126.696 593.836 126.596 593.715 125.62 593.678ZM148.58 594.523C135.424 594.143 130.436 595.462 126.423 594.011C125.62 594.517 121.545 595.441 127.32 595.647L127.729 595.874H133.179C139.253 595.188 141.409 595.172 148.58 594.523ZM226.99 588.051L232.199 588.658L234.423 587.122C239.496 587.112 217.9 587.022 226.99 588.051ZM158.331 593.256L155.672 592.955C155.231 593.066 154.628 593.187 153.957 593.319C154.89 593.256 156.28 593.229 158.331 593.256ZM275.894 588.278C275.459 588.183 274.803 588.109 273.833 588.072C274.641 588.13 275.312 588.199 275.894 588.278ZM236.469 578.719C241.651 578.835 247.07 578.677 250.328 578.26C238.703 577.231 235.32 579.215 224.855 577.722C226.885 578.181 230.153 578.482 233.762 578.635C237.403 579.88 235.215 579.923 242.774 580.788C243.661 579.273 244.72 579.247 236.469 578.719ZM224.336 581.232L231.716 580.297L227.871 580.155L224.336 581.232ZM804.041 15.3334C802.729 14.8741 792.553 14.9005 792.401 13.9927L788.855 15.0694C792.768 15.8084 800.222 15.1856 804.041 15.3334ZM279.571 591.086C279.44 590.485 285.672 590.015 289.391 589.545C279.461 589.973 279.944 588.859 275.894 588.278C277.206 588.569 276.592 589.049 276.655 589.276C274.174 589.593 271.724 589.899 266.636 589.915L265.041 588.252C258.752 588.421 270.533 590.358 255.258 590.105C254.251 591.171 274.237 589.893 279.571 591.086ZM156.002 587.666C158.604 587.967 161.269 588.558 163.923 589.16C159.024 589.788 156.176 588.273 152.603 589.35C155.399 590.553 167.726 588.991 164.222 590.68C169.258 590.358 169.116 589.756 170.108 588.379C173.9 588.516 178.831 587.898 180.3 588.658L175.537 590.184C190.534 589.239 189.899 592.121 195.034 592.712C193.256 591.334 197.809 590.917 203.679 590.696C207.608 590.912 212.937 590.949 219.793 590.791L216.426 590.252C220.696 589.988 223.481 589.498 222.017 588.373C215.649 588.241 216.583 586.573 221.598 586.558L202.352 585.243C189.007 587.867 154.665 586.906 144.53 587.238L135.498 586.204L151.795 585.702C146.356 583.892 140.638 586.806 132.759 585.296C135.624 586.811 142.097 587.55 154.764 587.824L156.002 587.666ZM152.194 593.646C152.792 593.536 153.395 593.419 153.957 593.319C152.839 593.388 152.367 593.504 152.194 593.646ZM312.923 595.309L308.459 595.874H336.669C332.179 594.454 319.228 596.037 312.923 595.309ZM175.285 582.741C185.388 582.715 174.981 581.527 174.939 581.226L175.285 582.741ZM298.35 590.268L304.85 591.023L297.013 589.83L297.133 590.437L298.35 590.268ZM100.075 592.538C84.3799 596.085 83.4724 591.831 65.1236 595.082L57.3707 594.19L60.8432 594.977C54.1761 594.792 48.1228 594.649 45.799 594.042L48.5634 595.251L42.5888 594.966C42.4734 594.818 42.1481 594.776 41.4662 594.908L39.6093 594.818C40.6007 594.992 41.0413 595.151 41.0833 595.304C39.7667 595.425 38.7438 595.494 37.915 595.515C38.6756 595.573 39.4205 595.642 40.1338 595.721C39.8821 595.774 39.5778 595.826 39.2421 595.874H110.817C104.182 594.56 120.411 593.119 100.075 592.538ZM478.33 22.9025H478.508L477.496 22.8075L478.33 22.9025ZM455.108 22.9025C454.347 22.8022 453.65 22.7283 453.057 22.6808L454.966 22.9025H455.108ZM512.342 19.6722C510.994 19.2235 505.885 19.2235 502.176 19.3977C502.281 19.9994 508.465 19.5244 512.342 19.6722ZM442.944 20.939C430.186 20.3742 444.008 19.878 441.407 19.5719L426.268 19.9255C426.677 21.7466 437.934 20.9548 445.808 22.4539L440.478 22.9025H448.341C449.611 22.6861 450.807 22.5119 453.057 22.6808L448.346 22.1372C459.226 19.8252 468.914 23.9054 482.369 21.5829C472.04 20.7067 453.151 21.2135 442.944 20.939ZM512.263 9.41104C518.841 9.99694 515.563 10.9048 530.717 10.4984C538.145 9.86498 522.712 8.69319 537.893 8.65096L521.175 7.33137C512.394 7.24164 516.711 9.16296 512.263 9.41104ZM611.75 587.518C621.764 586.579 618.428 588.869 629.669 588.373C630.786 587.613 614.126 586.6 611.75 587.518ZM372.559 0.411438H371.678C371.977 0.421994 372.265 0.416716 372.559 0.411438ZM437.126 16.4313C428.35 16.9063 438.668 17.4869 439.985 17.9356C446.259 17.7667 441.013 16.8746 437.126 16.4313ZM646.591 0.907603C647.803 0.448386 652.88 0.738696 654.312 1.19264L655.624 0.411438H624.376L650.525 1.66241C647.986 1.36154 646.696 1.21375 646.591 0.907603ZM512.263 9.41104C510.632 9.26325 508.403 9.13657 505.114 9.05739C508.738 9.40576 510.905 9.48494 512.263 9.41104ZM67.4788 4.46522L77.5502 4.12212L69.9285 4.1538L67.4788 4.46522ZM683.85 22.3325C685.161 22.8022 680.068 22.8234 677.597 22.8286C669.745 21.6304 675.971 21.1554 667.059 21.0234C669.057 21.9471 669.844 22.4697 671.308 22.9025H689.389C687.38 22.7178 685.497 22.5278 683.85 22.3325ZM549.323 22.9025H550.975L550.923 22.6808C550.461 22.7495 549.889 22.8234 549.323 22.9025ZM876.912 1.70464L877.043 1.57268C876.933 1.05012 876.859 0.722862 876.791 0.411438H875.023C873.25 0.844263 871.498 1.43016 876.912 1.70464ZM537.604 18.7168C540.72 19.7461 546.443 19.0018 548.436 18.796C545.058 18.6376 543.495 18.2629 537.604 18.7168ZM254.026 22.9025H258.558L254.833 22.6017L254.026 22.9025ZM49.4184 22.9025H54.9315C56.2481 22.7495 57.8218 22.6017 58.3568 22.3905C50.5777 22.1583 49.9692 22.5647 49.4184 22.9025ZM793.314 18.2523L790.623 17.6506L784.533 18.7326L793.314 18.2523ZM548.436 18.796C548.641 18.8065 548.83 18.8118 549.045 18.8224C549.328 18.7168 549.055 18.7326 548.436 18.796ZM550.839 22.285L550.928 22.6808C551.977 22.5172 552.439 22.38 550.839 22.285ZM590.59 17.64L599.423 17.4605L581.546 16.9063L590.59 17.64ZM553.65 22.6122L553.498 22.0052C562.327 21.8205 558.823 23.2034 567.478 22.4116L551.961 20.6487C545.798 21.4246 552.208 21.8574 553.65 22.6122ZM573.374 21.0076L562.07 21.4985L571.113 22.2269C573.557 21.9155 578.52 21.2926 573.374 21.0076ZM471.579 6.41821L474.107 6.10679L465.006 5.07223L471.579 6.41821ZM456.178 589.313C457.426 589.461 458.654 589.64 459.892 589.862C458.654 589.503 457.416 589.345 456.178 589.313ZM398.189 595.874H400.691C401.032 595.821 401.378 595.758 401.729 595.684C400.607 595.758 399.353 595.816 397.848 595.821C397.968 595.847 398.073 595.858 398.189 595.874ZM452.7 595.457C451.588 595.642 451.85 595.758 451.536 595.874H452.648C452.485 595.694 452.49 595.547 452.7 595.457ZM406.576 595.124C404.357 595.098 402.967 595.425 401.729 595.684C403.613 595.547 405.102 595.341 406.576 595.124ZM249.163 573.383H245.413C246.11 573.531 247.269 573.663 248.953 573.779L249.163 573.383ZM411.245 581.042C416.055 579.812 426.53 581.601 432.631 580.519C432.279 578.698 406.151 581.057 404.331 578.487C395.471 578.36 385.29 578.08 377.825 578.413L383.061 579.606L383.04 579.3C383.349 580.82 397.297 580.931 411.245 581.042ZM501.982 589.793C509.21 588.252 488.108 590.289 489.094 588.922L482.993 589.999C481.813 589.366 482.379 588.495 482.495 587.882C478.671 587.724 468.405 586.848 470.824 586.246L450.707 586.906C461.313 589.001 471.689 590.189 490.772 590.886C490.641 590.284 496.611 588.59 501.982 589.793ZM352.201 588.109L371.788 588.057C374.196 588.447 378.827 588.711 387.472 588.716C353.607 588.357 396.027 585.101 364.575 583.95C375.774 584.742 365.184 586.906 371.625 588.025L354.546 587.502L352.201 588.109ZM492.042 583.924L490.494 582.557C485.679 583.786 484.058 582.129 475.198 582.308L484.362 583.644C485.548 583.185 489.414 583.633 492.042 583.924ZM445.797 582.91L456.005 583.195C455.947 582.884 460.862 582.261 454.505 582.129C456.073 583.491 444.328 581.849 445.797 582.91ZM482.505 587.571C482.526 587.666 482.516 587.766 482.495 587.882C482.505 587.882 482.526 587.882 482.537 587.882L482.505 587.571ZM511.739 595.478C511.739 595.478 509.09 594.876 507.915 595.335L496.605 595.832C501.667 595.811 508.051 595.948 511.739 595.478ZM434.855 591.155L439.613 589.614C445.178 591.461 450.686 589.16 456.178 589.313C448.131 588.347 439.261 588.743 421.773 589.059L421.862 589.376C410.306 588.637 407.972 589.561 397.717 588.98L396.232 587.93C386.098 587.956 393.971 589.461 395.241 589.593C410.206 588.342 413.348 591.366 425.848 590.421C426.053 591.334 417.193 591.514 410.888 591.382C404.777 592.459 429.971 592.079 423.949 593.467L417.644 593.631C421.542 594.084 425.298 593.921 422.937 594.834C413.652 594.132 410.122 594.623 406.576 595.13C407.652 595.145 408.916 595.246 410.458 595.478C410.269 595.626 410.033 595.752 409.771 595.874H450.88C449.076 594.955 441.952 595.489 436.712 594.037L446.867 594L445.566 593.858C450.397 592.934 464.476 593.346 464.246 592.438C451.767 593.377 443.893 591.889 434.855 591.155ZM579.369 589.746L573.982 588.542L572.965 589.603C576.752 589.44 578.158 590.194 579.369 589.746ZM604.585 589.36L600.309 587.091L586.708 588.806C592.892 588.03 599.323 588.468 604.585 589.36ZM582.333 580.588L591.271 581.015L596.213 580.398L582.333 580.588ZM635.318 585.745L630.125 585.892C628.1 585.47 622.257 585.19 622.231 584.974C620.909 584.525 618.422 584.821 614.598 584.689C613.376 585.153 626.138 585.724 630.109 586.468C630.985 586.283 630.98 586.119 630.477 585.972L640.537 586.341L635.318 585.745ZM632.748 591.102C629.06 591.271 630.377 591.715 629.244 592.174C639.441 592.448 634.122 591.551 632.748 591.102ZM369.858 582.842C380.28 584.32 389.497 585.972 404.714 586.23C405.747 585.164 413.537 585.739 409.393 584.388C423.32 584.198 414.66 585.296 423.624 585.713C420.744 585.175 419.124 584.145 420.907 583.792C416.328 583.713 414.77 582.984 411.617 582.868L414.355 583.765C406.996 583.216 394.055 583.09 401.331 582.261C396.615 582.72 391.202 582.557 389.88 581.865C389.937 582.171 387.472 582.483 387.598 583.09C373.65 582.974 351.729 581.068 350.989 583.654C357.069 583.639 361.25 583.739 364.114 583.918C374.815 583.998 361.05 582.715 369.858 582.842ZM424.427 583.734C422.696 583.617 421.573 583.66 420.907 583.792C421.919 583.808 423.073 583.797 424.427 583.734ZM526.667 575.837L529.469 577.347C534.525 577.331 536.723 575.499 526.667 575.837ZM401.331 582.261C401.761 582.224 402.196 582.182 402.611 582.129C402.123 582.177 401.708 582.224 401.331 582.261ZM363.731 583.918C364.03 583.929 364.287 583.939 364.575 583.95C364.428 583.939 364.271 583.929 364.114 583.918C363.983 583.918 363.867 583.918 363.731 583.918ZM385.169 595.863C385.185 595.863 385.206 595.869 385.216 595.874H385.505C385.395 595.869 385.274 595.863 385.169 595.863ZM452.7 595.457C452.9 595.425 453.141 595.394 453.445 595.351C453.088 595.351 452.852 595.394 452.7 595.457ZM845.465 585.549L851.833 585.856C849.866 585.692 847.663 585.597 845.465 585.549ZM867.9 591.841L868.545 592.527C868.629 592.258 868.377 592.036 867.9 591.841ZM731.191 589.286L741.414 589.862L740.019 589.107L731.191 589.286ZM818.571 594.554C817.422 594.454 816.011 594.396 814.222 594.396C815.654 594.47 817.107 594.523 818.571 594.554ZM715.748 588.12C715.606 588.02 715.265 587.94 714.84 587.867C714.646 587.904 714.484 587.935 714.4 587.972L715.748 588.12ZM754.953 581.205C754.554 581.184 754.093 581.168 753.542 581.168L754.953 581.205ZM104.03 573.383H76.5116C76.37 573.52 75.8035 573.699 74.6652 573.932C88.099 574.877 96.1509 574.101 104.03 573.383ZM783.279 590.189C785.765 589.883 789.516 589.719 791.966 589.408L780.483 588.991L783.279 590.189ZM829.298 594.385C825.721 594.591 822.112 594.628 818.571 594.554C822.216 594.86 823.475 595.552 827.751 595.874H833.054C831.805 595.114 838.85 594.918 829.298 594.385ZM829.151 579.421L840.55 579.537L832.849 578.962L829.151 579.421ZM792.112 591.915C797.909 592.95 805.751 593.984 814.222 594.396C813.414 594.396 812.544 594.406 811.547 594.433C810.388 594.892 814.259 595.029 816.84 595.325C806.737 595.663 795.275 595.235 785.131 594.971C800.736 591.123 756.799 592.923 763.76 589.872L750.038 590.664L752.283 589.445C756.632 589.228 760.199 589.223 763.467 589.334C757.151 588.009 736.772 588.215 723.37 588.405L729.617 587.618C728.227 586.922 717.358 587.423 714.84 587.867C710.775 587.196 695.17 587.75 692.652 586.668C704.098 587.091 707.533 585.402 715.391 586.294C717.752 585.681 717.442 584.156 712.433 584.478C716.241 584.314 720.957 582.778 731.039 582.44C731.558 582.472 732.056 582.52 732.549 582.567L747.232 582.224L743.56 582.683L732.691 582.578C734.852 582.799 736.693 583.169 737.847 583.433C741.288 583.528 745.086 583.639 750.048 583.427L750.557 583.697L754.093 583.903L751.968 584.451L752.881 584.942C754.046 584.478 755.415 584.932 756.773 585.08C742.951 585.887 736.226 583.929 724.849 583.813C725.033 583.786 725.211 583.771 725.394 583.749C724.115 583.776 722.714 583.765 721.135 583.691C731.469 584.578 725.326 585.65 738.188 586.526C748.097 585.581 731.747 585.792 737.858 585.011C741.97 586.368 758.294 585.866 762.286 586.616C759.716 586.309 763.362 585.544 755.693 585.56L763.057 584.33C770.695 584.61 761.867 584.789 764.526 585.38C767.291 585.702 771.335 586.299 775.196 586.304C775.715 586.294 776.229 586.283 776.727 586.273C777.509 586.236 778.269 586.172 779.004 586.067C777.299 585.813 774.262 585.892 772.012 585.639L779.958 585.618C780.257 585.064 780.798 584.483 774.556 584.747L783.137 583.364C776.649 582.62 770.023 581.263 765.03 581.58L764.364 582.05L772.625 582.446L762.827 584.003C767.784 583.38 754.806 581.891 749.839 582.52L754.733 581.591L757.665 581.728C756.925 581.506 756.312 581.284 754.948 581.205L763.75 581.438C772.499 581.263 771.088 580.197 767.133 579.458C758.499 580.545 756.847 578.878 752.907 578.123L736.562 578.635C717.437 577.933 720.957 576.555 705.566 575.996C704.444 576.449 708.226 576.587 710.849 576.877C696.854 576.471 683.173 577.579 668.911 575.948L670.253 576.397C667.589 575.8 656.07 575.072 652.403 575.848C637.983 573.309 683.855 575.89 669.734 573.377H674.167C673.768 573.457 673.154 573.546 672.257 573.663C675.646 573.652 678.746 573.541 681.374 573.377H713.912L713.97 573.684C718.932 573.066 726.716 573.953 733.079 574.085C730.32 573.768 730.792 573.557 732.329 573.377H821.828C823.659 573.499 825.589 573.61 827.588 573.71L827.945 573.647C829.345 573.509 830.541 573.425 831.575 573.377H834.921C837.287 573.504 838.74 573.905 841.111 574.19C841.851 574.206 842.58 574.222 843.314 574.238L843.214 573.926C846.661 574.106 850.285 574.211 853.973 574.291L856.522 576.872C852.614 577.041 849.514 577.062 846.891 576.983L841.515 577.864L842.003 576.719C837.502 576.36 834.035 575.774 828.37 575.52C827.866 575.626 827.462 575.758 827.215 575.932C828.495 576.376 833.505 576.064 834.874 576.513C832.388 576.824 827.373 577.141 828.737 577.59L836.301 577.262C826.36 578.218 812.407 578.102 803.679 578.883C824.021 579.126 805.635 581.77 822.164 582.477C823.061 582.145 836.914 581.68 843.314 582.192C847.851 582.272 851.728 582.504 850.936 582.615C849.677 582.567 848.03 582.636 846.299 582.704C846.545 582.836 846.592 582.989 846.388 583.164L819.714 582.789C822.453 583.554 827.808 584.309 833.93 585.043L833.961 585L845.465 585.549C842.999 585.491 840.56 585.502 838.446 585.565C843.109 586.093 847.941 586.605 852.242 587.096C857.755 587.175 861.789 587.08 866.463 586.922L870.386 590.886C869.867 590.875 869.306 590.859 868.681 590.854C868.802 591.065 869.154 591.334 867.564 591.477L867.9 591.836C867.617 591.725 867.255 591.619 866.809 591.53C866.762 591.535 866.73 591.535 866.683 591.535L866.337 591.44C860.042 590.347 842.459 590.886 841.552 590.4L841.609 590.622C812.775 592.079 817.071 588.421 793.025 588.342C789.374 588.796 765.864 587.275 764.248 589.36C772.877 589.709 779.576 590.854 793.167 591.139C799.566 591.577 796.812 590.379 800.61 590.511C806.008 591.715 791.897 591.303 792.112 591.915ZM832.97 586.668L833.41 585.929C832.193 586.125 831.853 586.373 832.97 586.668ZM738.173 583.507C739.064 583.718 739.39 583.818 738.881 583.644C738.639 583.591 738.409 583.549 738.173 583.507ZM731.883 583.338C733.808 583.322 735.702 583.369 737.716 583.427C735.723 583.111 733.918 583.185 731.883 583.338ZM780.153 587.217L782.676 588.035C782.859 587.608 781.821 587.36 780.153 587.217ZM669.577 573.383H667.583C668.265 573.504 668.947 573.589 669.577 573.383ZM275.957 575.974C268.236 575.394 271.074 576.603 264.842 577.072L270.009 577.658C275.045 577.347 276.083 576.581 275.957 575.974ZM862.681 583.095L860.194 582.673L856.58 583.438L863.116 583.533L862.681 583.095ZM337.655 574.122C333.322 573.963 330.149 573.557 325.732 573.383H316.642C315.283 573.425 313.819 573.494 312.209 573.583C316.269 574.94 332.588 574.132 337.655 574.122ZM617.992 574.301C628.279 575.177 621.58 573.531 631.809 574.106C632.549 573.826 630.907 573.61 629.207 573.383H623.621L617.992 574.301ZM516.607 574L517.656 573.383H516.822C517.252 573.494 517.246 573.684 516.607 574ZM487.315 593.884C484.535 592.675 486.277 594.95 477.302 594.216C477.139 593.609 482.149 593.287 484.63 592.976L473.189 592.855C479.715 594.333 471.783 595.045 465.368 595.874H488.249C485.023 595.494 484.048 594.897 487.315 593.884ZM347.821 578.434C346.452 578.746 346.237 578.973 346.714 579.157C347.889 579.025 348.409 578.809 347.821 578.434ZM714.337 595.789C706.773 595.811 693.759 594.333 682.512 594.813C691.577 596.08 678.4 595.51 675.525 595.874H714.159C714.216 595.842 714.29 595.821 714.337 595.789ZM725.709 595.594C719.436 595.615 720.972 595.726 722.572 595.874H730.451C729.906 595.721 728.064 595.684 725.709 595.594ZM339.491 587.851C343.247 587.682 336.8 587.249 335.51 587.101C326.828 587.882 321.588 586.99 315.498 588.067C323.183 588.658 334.351 587.249 339.491 587.851ZM344.627 581.327C353.539 581.453 350.801 580.545 358.422 580.524C358.244 579.817 348.361 579.78 346.714 579.157C342.198 579.664 327.893 578.83 329.173 580.155C335.232 579.073 339.512 581.036 344.627 581.327ZM22.5036 316.87C23.2013 302.645 23.3272 291.196 22.9862 278.549C23.3744 277.029 23.7835 276.037 24.1979 274.928L23.9566 324.788C23.6839 318.517 23.4478 315.45 22.5036 316.87ZM23.0019 233.916C22.3725 248.874 24.0878 240.888 23.7363 251.081C24.051 247.275 24.5651 243.264 24.2241 238.814L23.6262 238.867L24.1927 228.569L24.4182 229.64L24.4812 215.816C23.5055 219.611 22.96 226.879 22.4774 234.67C22.598 234.021 22.7659 233.673 23.0019 233.916ZM23.0439 512.544L23.0701 507.878C22.8708 510.09 22.9075 511.52 23.0439 512.544ZM20.3844 290.104C20.8093 281.067 19.8861 273.625 20.012 264.688C20.033 272.331 18.8685 287.887 20.3844 290.104ZM15.9782 381.477C16.3401 375.603 16.1355 374.742 15.7893 375.18C15.7159 376.79 15.7316 378.706 15.9782 381.477ZM16.2247 363.589L14.756 376.695C14.9763 377.249 15.4536 375.603 15.7893 375.18C15.9519 371.702 16.5552 369.649 16.2247 363.589ZM18.774 205.011C18.9786 204.726 19.1622 203.808 19.2829 201.623C19.1412 203.475 18.9681 204.441 18.774 205.011ZM17.3368 297.367C17.6253 294.78 18.0502 285.76 17.4417 283.353C17.4522 288.404 16.723 294.933 17.3368 297.367ZM23.7363 251.081C23.6104 252.575 23.516 254.037 23.5212 255.472C23.6262 253.715 23.6996 252.279 23.7363 251.081ZM15.333 316.67L14.7455 321.874C15.055 326.936 15.8156 327.976 16.4188 327.86C16.9958 320.09 15.7998 322.946 15.333 316.67ZM21.806 186.996C21.9423 184.573 22.3095 181.797 22.5718 179.031C22.1574 178.72 21.7955 182.404 21.806 186.996ZM25.2103 66.1534L25.268 54.1504C25.0162 58.6529 24.9166 62.8175 24.927 65.3617C25.0162 65.5939 25.1106 65.8684 25.2103 66.1534ZM22.6925 179.226C21.8374 197.189 24.0878 190.38 23.2275 208.368C23.8045 212.997 24.2346 207.909 24.5284 207.244L24.7487 161.38C24.67 163.471 24.5389 165.476 24.3186 167.419L22.5141 170.332C23.0019 172.887 22.8551 175.949 22.5718 179.026C22.6085 179.063 22.6505 179.116 22.6925 179.226ZM18.6009 300.682L20.269 301.579C19.8022 295.303 19.0363 294.2 18.6009 300.682ZM22.96 218.666C22.042 216.265 21.6066 220.213 21.1608 224.145C21.6329 230.405 21.9004 217.568 22.96 218.666ZM22.1417 240.255C22.0892 241.184 22.0315 242.113 21.9738 243.037C22.0735 243.037 22.105 241.807 22.1417 240.255ZM22.1417 240.255C22.2571 238.392 22.362 236.518 22.4774 234.67C22.2466 235.921 22.1889 238.328 22.1417 240.255ZM18.795 364.333C17.4469 368.419 18.2547 384.845 18.2652 389.944C18.538 382.216 19.5923 378.173 18.795 364.333ZM17.2004 212.19C17.4102 204.394 18.1708 206.785 18.774 205.006C18.0187 206.035 16.9224 198.218 17.2004 212.19ZM5.35072 136.968C5.05697 139.618 4.60586 140.995 4.31211 143.592L4.47472 144.838L3.59871 149.499C4.6688 146.253 6.02215 150.581 5.35072 136.968ZM2.89057 171.895L4.06557 161.444L3.91869 160.23L2.73845 170.67L2.89057 171.895ZM3.59347 149.499C3.37316 150.18 3.16334 151.183 2.98499 152.761L3.59347 149.499ZM1.60017 544.009C2.2034 543.882 3.88197 549.889 2.69124 555.289C4.21769 562.567 2.19816 541.333 3.55675 542.325L2.48142 536.181C3.11612 534.999 3.97639 535.563 4.59012 535.685C4.74224 531.837 5.61824 521.507 6.21623 523.935L5.5553 503.693C3.47807 514.365 2.29782 524.811 1.60017 544.009ZM3.30496 28.6665C3.2053 28.2706 3.12137 28.0173 3.04269 27.8536L3.01122 34.7208C3.11088 34.9425 3.22104 35.4492 3.33119 36.336L3.30496 28.6665ZM10.1714 454.013C10.2133 454.445 10.25 454.884 10.3025 455.301C10.2605 454.81 10.2133 454.393 10.1714 454.013ZM8.52951 416.172C8.51378 416.483 8.50329 416.732 8.4928 417.027C8.50329 416.879 8.51378 416.721 8.52427 416.568C8.52427 416.436 8.52427 416.315 8.52951 416.172ZM5.28253 161.185L4.68979 166.421L5.59202 166.236L5.28253 161.185ZM11.3673 331.919L12.8728 322.946C12.705 322.434 12.4637 321.769 12.086 320.28L11.3673 331.919ZM12.8728 322.946C12.9305 323.125 12.9777 323.289 13.0197 323.458C13.0459 322.777 13.0826 322.085 13.1456 321.336L12.8728 322.946ZM14.4989 333.714C14.5042 334.426 14.5461 335.16 14.6353 335.883L14.4989 333.714ZM13.6596 336.173L13.3607 340.396C13.6019 338.855 13.6701 337.482 13.6596 336.173ZM4.89436 535.695C4.80519 535.716 4.70028 535.706 4.59012 535.685C4.59012 535.701 4.59012 535.711 4.59012 535.727L4.89436 535.695ZM14.373 326.16C14.3468 326.392 14.3153 326.757 14.2786 327.189L14.0006 325.843L14.1685 328.488C14.0059 330.298 13.7803 332.262 13.4865 331.507C13.282 325.548 13.2557 324.376 13.0197 323.458C12.8046 329.063 13.6124 332.373 13.6596 336.173L14.1842 328.773L14.4989 333.714C14.4832 332.003 14.6563 330.425 14.7612 329.512L14.2944 327.258L14.373 326.16ZM14.0006 430.366L12.8151 435.633L13.1194 435.607C11.6086 435.924 11.4932 449.954 11.3831 463.989C12.6105 468.829 10.8323 479.37 11.9024 485.509C13.7121 485.155 11.3726 458.863 13.9272 457.032C14.0531 448.117 14.3311 437.877 14.0006 430.366ZM12.128 283.337L12.2643 279.468L11.1942 275.91L12.128 283.337ZM13.775 285.395C12.5423 289.059 12.4951 286.858 11.6401 294.469C13.1403 295.356 13.1718 296.422 13.6911 288.119C13.5757 293.334 13.7383 298.787 14.1475 302.064C15.1704 290.368 13.198 286.963 14.6825 276.433C14.2262 278.481 13.9272 281.764 13.775 285.395ZM20.4788 556.439C20.4998 556.112 20.4998 556.07 20.4788 556.439ZM2.86959 492.534C1.03365 498.134 3.31546 503.677 3.16858 509.203C4.12327 501.106 3.72985 492.18 3.42037 474.582L3.10563 474.672C3.84001 463.044 2.92204 460.7 3.49905 450.381L4.54291 448.882C4.51144 438.684 3.02171 446.612 2.89057 447.884C4.12851 462.944 1.12282 466.111 2.06702 478.684C1.15954 478.89 0.975947 469.974 1.11233 463.63C1.04939 463.26 0.986439 463.007 0.933983 462.854L0.787109 493.558C0.986439 491.637 1.17528 489.721 1.33264 487.747L2.86959 492.534ZM3.16858 509.203C3.01646 510.459 2.83811 511.695 2.6178 512.94C2.9745 511.695 3.13186 510.449 3.16858 509.203ZM1.78376 288.225L1.76802 291.101C1.89916 290.753 2.01456 290.394 2.11423 290.098L1.78376 288.225ZM2.17718 392.462L3.11612 402.427C2.92204 388.498 4.3803 370.335 3.4361 357.778L3.04793 377.007L2.2611 368.223C1.20675 369.738 3.05318 382.111 1.86244 387.453C1.68409 388.572 1.49001 389.501 1.28543 390.345L1.23298 400.807L2.17718 392.462ZM9.87762 543.729C8.66065 538.889 10.3077 537.258 10.1294 528.343L8.79704 537.559C9.25864 538.757 8.81277 542.642 8.52427 545.291L9.87762 543.729ZM13.9796 400.163C13.6701 398.785 13.4393 398.569 13.261 399.054C13.3921 400.237 13.6072 400.759 13.9796 400.163ZM11.2047 226.204L9.69927 226.552C9.7255 236.713 10.9005 226.246 11.2047 226.204ZM9.53141 498.757L9.24815 509.029C9.55764 508.976 10.1766 513.917 10.3025 507.519C8.9544 509.098 10.5858 497.279 9.53141 498.757ZM11.1261 377.403C11.1208 372.33 10.0717 376.373 9.61534 375.143C10.3392 368.757 10.549 362.892 10.6172 357.139C10.8113 356.157 10.9582 354.231 10.9949 350.942L10.6487 350.045C10.6435 344.112 10.6277 338.121 10.9897 331.602C10.6907 331.629 10.25 332.985 10.0822 329.211L10.6644 323.98C9.44748 319.166 9.94056 333.08 9.18521 331.929C9.81467 339.499 10.7117 339.24 10.5858 348.208C10.4913 348.662 10.3917 348.957 10.292 349.121L9.51043 347.099C9.37405 345.912 9.26913 344.26 9.21668 342.169C8.50329 344.645 8.46657 348.171 8.65541 352.272C8.29347 354.162 7.8476 356.447 7.70597 361.842L8.76556 354.341C9.16947 361.082 9.96154 369.073 9.46846 376.5L11.1261 377.403ZM7.67449 158.139C7.1919 146.807 8.54525 142.721 7.90005 130.09L8.82851 137.506C9.8409 123.286 7.59056 127.615 8.58721 108.259L7.53811 109.763L8.26724 103.239C7.65351 98.2459 5.98543 94.7991 7.0188 85.6992L5.36646 87.3196C5.49235 80.8748 6.99782 83.1445 6.98733 75.4961C6.66735 70.4817 5.74938 68.0853 5.30876 72.0335C5.28253 59.2757 8.0784 39.5505 5.94347 29.8172C6.85094 32.1555 6.66735 20.7595 7.13945 24.4913L7.14469 27.046C8.48755 22.95 8.78655 20.3267 8.74458 7.58473L7.97349 6.81409C8.0784 6.66102 8.18855 6.2493 8.29346 5.58423L16.9276 14.3146C16.8699 14.4835 16.8332 14.6894 16.7702 14.853C17.3735 19.6669 17.8141 18.5637 18.239 15.6395L19.456 16.8746C19.0153 28.4395 18.8108 40.2525 18.8475 51.3265L18.2338 48.909C17.5413 57.1538 18.7163 65.0555 18.1183 73.9179L18.3491 79.3229C18.0397 82.0413 17.9033 86.8076 17.6463 90.2439C18.0397 91.3734 18.6114 88.729 18.8108 93.4109C18.26 94.1921 17.7459 93.2209 17.2791 93.4267C17.1427 94.0707 16.9801 94.3926 16.7807 94.2818C16.5447 95.0683 16.3244 96.4934 16.1198 99.064C17.9452 106.269 16.786 124.379 17.7249 134.397L16.5604 147.361L15.3225 137.427L15.3382 142.537C12.7469 134.16 16.5132 132.075 14.6615 119.692L12.6997 118.911L12.8256 109.943C12.0702 108.803 11.0159 112.846 10.8848 116.699C11.0421 120.457 12.4217 126.548 13.1823 130.217C13.3239 128.918 13.6387 128.866 13.4761 125.039C15.0182 137.506 12.4217 126.548 12.7522 136.715C13.497 132.729 13.9744 141.555 14.436 145.234C13.24 148.079 12.9882 165.957 13.7646 172.148L12.5843 182.594L13.6596 188.728C12.0912 195.157 15.5533 221.48 13.4918 230.96C14.0898 230.12 14.1737 240.065 14.5776 243.364C14.1527 252.363 13.0721 243.649 12.9515 255.166C14.6038 250.986 12.684 267.908 13.7593 274.142C12.6368 275.219 12.0283 263.247 11.766 259.463L12.4846 248.88C11.5772 251.624 12.1542 241.305 11.1051 245.327C11.6716 229.915 11.6506 222.33 12.6368 200.445C12.1909 201.797 11.7345 200.625 11.4355 203.211L11.7817 186.426C11.3936 193.177 8.77081 195.209 9.49469 209.968L8.84949 194.845L8.70262 196.165L6.33688 162.235C6.32115 157.142 7.07126 155.722 7.67449 158.139ZM14.9553 106.781C14.9448 106.433 14.9291 106.084 14.9186 105.741C14.8609 107.024 14.7822 108.254 14.6563 109.357L14.9553 106.781ZM17.4417 79.7716C17.3735 80.178 17.342 80.5581 17.2633 80.9698C17.2633 81.429 17.2581 81.8618 17.2581 82.2788L17.4417 79.7716ZM859.476 426.454C859.911 417.465 859.853 399.635 858.636 397.371C859.129 411.295 857.293 401.498 856.863 410.498C857.063 410.107 857.466 409.78 857.477 412.889C857.393 437.111 854.456 410.973 854.057 432.704C856.034 436.124 853.218 453.311 853.978 456.926C855.499 459.201 858.353 454.757 857.393 437.111L858.295 434.361L858.348 452.197C860.283 442.896 856.59 420.748 859.476 426.454ZM2.65452 349.042L2.05128 349.163L2.21389 350.388L1.46903 356.928L2.65452 349.042ZM862.334 526.543C863.079 522.542 862.591 508.638 862.728 504.812C861.401 505.091 862.313 515.622 861.846 515.812C862.229 517.997 861.694 525.592 862.334 526.543ZM861.547 515.205C861.684 515.659 861.778 515.843 861.846 515.812C861.778 515.426 861.684 515.194 861.547 515.205ZM856.863 410.498C856.743 410.741 856.69 411.01 856.863 410.498ZM7.97349 6.81409L7.67974 6.51322C7.77416 6.89326 7.87382 6.96188 7.97349 6.81409ZM13.2557 399.054C12.7574 394.51 13.5862 380.116 12.2643 381.404C13.3397 387.5 11.3883 391.807 11.0998 396.948C10.9792 405.921 11.8762 403.166 11.9024 410.83C12.6053 410.656 12.642 400.706 13.2557 399.054ZM11.6086 261.785L11.766 259.463C11.6454 257.689 11.5982 257.71 11.6086 261.785ZM16.8961 299.198C16.8909 299.045 16.8804 298.945 16.8542 298.95C16.8699 299.008 16.8804 299.124 16.8961 299.198ZM20.7621 504.505L20.9509 515.97L21.5332 510.75L20.7621 504.505ZM8.70786 477.253C8.82851 475.511 8.78655 474.382 8.65541 473.711C8.63443 474.73 8.65016 475.886 8.70786 477.253ZM21.4493 430.476C21.486 443.187 20.7831 459.93 20.9562 468.813C21.0716 454.773 22.3987 443.049 21.4493 430.476ZM21.0454 549.081L21.4702 540.045L20.7411 549.134L21.0454 549.081ZM20.3372 411.633L20.3792 424.348L22.4774 421.34C20.9614 419.117 20.6467 414.108 20.3372 411.633ZM20.2323 216.671L21.1188 208.833C20.5156 208.975 20.0487 207.777 19.9176 211.646C19.9281 214.196 19.7812 215.478 20.2323 216.671ZM20.4683 556.819C20.4736 556.645 20.4788 556.545 20.4788 556.439C20.4159 558.033 20.0067 566.062 19.2671 562.15C19.1098 558.382 19.5556 557.009 19.8546 554.402C18.2075 558.588 20.0644 573.483 18.3911 570.005L20.3634 573.409C19.2933 569.793 20.9404 563.09 20.4683 556.819ZM17.5151 341.673C18.5852 347.807 18.3177 358.094 19.9858 361.504C21.8217 366.239 20.4002 347.395 22.2256 347.015C21.7587 343.294 20.5208 335.967 21.2499 326.862C21.3653 317.921 20.9562 332.03 20.5208 335.967C20.2061 333.439 18.9891 328.62 19.7182 322.085L18.8265 324.851L18.9471 315.867C16.5394 316.422 19.1832 342.581 17.5151 341.673ZM14.7874 314.622L16.1513 318.185C16.146 313.102 15.548 315.762 15.6792 309.322C17.4784 306.419 16.4608 320.65 16.786 328.245C17.9557 322.951 17.4889 302.408 16.8961 299.198C16.9643 300.887 15.9257 311.544 15.2228 308.172C14.7665 306.968 14.9081 303.173 14.8976 300.55C14.6038 303.199 14.7717 309.549 14.7874 314.622ZM20.6991 82.5586C20.6887 80.9275 20.5942 79.344 20.269 77.8186L20.6991 82.5586ZM21.0244 57.9033C20.7254 60.1994 20.4316 62.5589 20.248 65.0238C20.9981 71.1362 20.8303 62.4427 21.0244 57.9033ZM21.0244 57.9033C21.1345 57.0746 21.2394 56.2565 21.3391 55.4542C21.1765 55.5386 21.0873 56.531 21.0244 57.9033ZM20.7936 201.306L21.0454 185.872L20.1484 186.109C20.1641 191.177 19.5871 201.496 20.7936 201.306ZM24.2661 152.143C24.35 144.891 23.6104 146.918 23.0387 146.216C23.516 148.517 23.9776 152.185 24.2661 152.143ZM20.3477 177.416C20.3949 177.284 20.4264 176.883 20.4159 175.838C20.4054 176.376 20.3792 176.899 20.3477 177.416ZM18.4541 125.303C16.5709 152.481 21.5699 157.775 19.2356 183.761C18.5485 187.376 19.9962 183.059 20.3477 177.416C20.2743 177.606 20.1484 177.2 19.9648 177.237C21.7692 174.318 18.9576 141.782 21.5699 157.775L22.042 161.502C23.0754 154.904 21.5647 155.257 21.6906 148.818C21.9528 144.658 22.2781 143.925 22.619 144.685C22.5036 143.714 22.4249 142.188 22.4197 139.765L24.5389 139.311C24.6123 143.956 24.733 148.153 24.7959 152.048L24.9323 123.07L24.1927 126.638L24.2871 107.499L25.0057 107.916L25.0267 103.139C24.4392 96.9685 25.3414 91.347 23.3219 84.8019C23.4793 88.5495 23.1803 88.6709 22.8813 91.2943L21.806 82.585C23.1803 88.6709 22.2204 68.4706 23.7206 68.1645C23.9094 56.2037 24.712 41.9363 25.3991 26.9035L25.4201 22.9025L23.7311 21.1976C23.5212 27.7217 22.105 19.7883 21.4807 25.2884L22.2413 26.3863L21.0611 36.8849L21.3653 36.8005L20.9509 48.3706C21.3968 47.0141 21.5384 43.145 21.9843 44.2746C22.2571 47.8164 21.8479 51.5218 21.3391 55.4542C21.4073 55.4172 21.486 55.5228 21.5752 55.8342C21.4493 64.8022 22.3882 77.3594 21.0611 86.5543L20.6991 82.5586C20.7359 88.7184 19.1675 95.7281 20.5103 104.469C22.4669 102.785 20.0172 93.1522 20.7673 89.1882L21.8164 87.6733C22.1679 102.891 22.1889 110.497 21.166 124.727C20.547 117.222 19.9281 112.281 20.0644 108.38C19.1622 111.125 20.1484 133.838 18.4541 125.303ZM22.6243 144.685C22.7344 145.598 22.8813 146.02 23.0387 146.216C22.9023 145.545 22.7606 144.996 22.6243 144.685ZM1.75229 293.899V294.743L2.79615 295.514L2.19291 293.049L1.75229 293.899ZM873.198 44.2113C873.654 42.8231 873.937 37.6714 874.541 37.5605L873.738 21.1079C873.297 25.0614 872.28 39.2813 873.198 44.2113ZM873.785 310.135C873.801 317.715 873.665 321.589 872.899 317.915C873.229 328.05 874.184 345.717 874.813 353.217L875.836 341.52C874.924 341.689 875.553 349.227 874.646 346.851C875.076 342.93 874.745 330.272 876.114 333.819C875.186 326.345 874.84 311.149 876.036 305.807C874.661 302.276 872.694 301.442 872.741 314.147C872.873 310.272 873.339 311.481 873.785 310.135ZM876.969 59.6874L876.503 55.9979L876.083 67.5469L876.969 59.6874ZM876.434 30.5562C875.532 33.3009 877.221 41.8043 877.095 50.7776C878.139 46.7238 876.287 34.3407 877.956 35.3172C877.992 35.6181 878.008 35.9242 878.024 36.2304L878.118 17.9462C877.253 18.6535 876.482 20.2739 876.434 30.5562ZM870.402 496.82C871.582 486.38 869.321 485.551 869.001 480.542C869.484 491.922 870.218 482.859 870.402 496.82ZM869.5 322.729C871.121 310.927 867.942 310.315 870.03 302.207C869.279 303.595 869.112 294.754 868.681 301.209C870.365 309.803 867.076 320.655 869.5 322.729ZM868.66 405.394C868.645 406.185 868.629 407.03 868.629 407.985C868.671 407.019 868.671 406.143 868.66 405.394ZM871.031 352.684L870.89 353.982C870.245 341.425 870.549 338.828 871.121 328.467C869.39 330.663 869.091 343.035 868.173 350.055C868.167 349.871 868.162 349.718 868.157 349.527C868.162 349.728 868.167 349.897 868.167 350.092C867.805 352.842 867.344 354.758 866.667 354.906C865.812 362.465 866.452 366.376 866.704 368.477C866.646 353.914 868.393 366.038 868.267 354.368C868.744 368.984 869.82 352.673 869.757 377.223L869.138 372.235C869.3 378.574 868.718 383.784 869.767 382.29C869.914 380.992 870.507 375.756 870.816 380.786C869.479 387.437 869.662 396.325 868.02 403.045C868.356 402.042 868.613 403.156 868.66 405.394C868.734 401.947 868.975 399.82 869.211 397.729C869.07 401.54 871.068 412.609 872.122 413.649L872.658 388.07C872.359 390.688 871.913 392.045 871.299 389.627L872.925 377.825C872.883 365.041 870.009 361.842 871.031 352.684ZM866.714 370.198C866.835 369.828 866.798 369.279 866.704 368.477C866.704 369.015 866.709 369.585 866.714 370.198ZM875.401 447.378L876.046 445.393L876.141 425.721L875.034 429.563C876.109 433.2 875.668 439.624 875.401 447.378ZM875.223 286.868C875.464 286.398 875.637 285.612 875.763 284.646L875.07 285.607L875.223 286.868ZM877.085 150.153C877.179 149.319 877.321 149.135 877.478 149.087L877.51 143.075C877.3 143.851 877.148 146.084 877.085 150.153ZM876.099 378.437L875.48 373.444C875.254 383.114 875.773 382.961 876.356 381.351L876.371 378.073C876.293 378.268 876.209 378.411 876.099 378.437ZM876.12 284.139C876.041 283.822 875.973 283.485 875.905 283.152C875.868 283.69 875.815 284.181 875.763 284.646L876.12 284.139ZM875.915 265.068L874.845 263.986L875.548 244.757C874.945 244.889 874.483 241.131 874.614 237.299L873.591 246.478L874.352 247.56C874.362 252.627 873.623 256.602 873.486 260.466C875.658 263.696 874.41 275.731 875.905 283.152C876.272 277.842 875.7 268.98 875.915 265.068ZM877.153 73.6434C877.504 75.6492 877.625 79.1699 877.662 82.6958C877.856 76.6732 878.039 71.0148 877.153 73.6434ZM877.515 91.4632L877.725 91.4157C877.678 89.3254 877.704 86.0053 877.667 82.6958C877.562 85.9262 877.457 89.2568 877.515 91.4632ZM877.761 91.4051L877.725 91.4157C877.73 91.8221 877.74 92.1863 877.756 92.4924L877.761 91.4051ZM876.172 98.1086L877.101 105.567L876.76 92.8778L876.172 98.1086ZM861.894 148.126C861.815 148.48 861.768 149.108 861.763 150.201C861.805 149.509 861.852 148.823 861.894 148.126ZM865.597 284.018C866.064 285.248 866.352 282.624 866.52 286.372L866.316 267.343L865.597 284.018ZM866.095 111.706C866.447 109.832 866.615 107.082 866.683 103.957C867.076 104.854 867.548 101.793 867.963 102.564C867.543 99.0007 867.632 89.0034 866.971 83.6617L866.615 92.1493C866.463 85.2136 866.237 79.154 866.604 78.4309L865.246 77.4491L866.153 79.7874C865.581 90.1594 866.683 106.501 866.095 111.706ZM865.314 74.4721C865.382 73.8757 865.455 73.1631 865.534 72.308C865.466 72.8675 865.382 73.6592 865.314 74.4721ZM867.963 102.564C868.036 103.213 868.125 103.667 868.241 103.825C868.152 103.118 868.057 102.748 867.963 102.564ZM863.205 583.633L864.448 584.884C864.254 579.986 863.583 580.746 863.205 583.633ZM854.602 563.818L854.912 575.241L855.033 575.362L855.662 567.434L854.602 563.818ZM862.639 168.432C862.014 160.953 863.515 158.097 862.444 154.471C862.303 155.775 861.999 155.88 861.852 154.624C861.778 152.634 861.752 151.219 861.763 150.201C861.385 155.975 860.965 161.523 860.514 166.353L862.639 168.432ZM858.778 70.1491C859.077 67.5839 859.528 66.1534 859.827 66.1534C861.196 67.1405 860.808 88.8187 859.754 92.8989L862.02 91.1359L862.203 105.076C862.277 104.495 862.376 104.173 862.465 103.999C862.534 104.179 862.607 104.369 862.675 104.569C862.738 107.694 862.35 109.088 862.077 111.495L861.149 104.057C862.235 112.788 860.892 119.449 862.266 122.964C862.549 122.072 862.822 120.536 863.079 118.652C862.98 127.203 862.528 137.907 861.894 148.126C862.235 146.511 863.132 150.57 863.32 141.56L863.105 118.462C863.415 116.171 863.703 113.395 863.992 110.608C863.588 113.078 863.048 115.152 862.549 115.263C862.733 111.88 862.922 108.866 863.095 106C863.258 106.654 863.399 107.425 863.52 108.396C864.254 101.856 863.614 86.7179 864.637 77.6022L865.413 83.8095C865.261 82.5691 865.251 79.9986 865.246 77.4491C865.156 76.7365 865.219 75.5753 865.314 74.4721C864.774 78.9746 864.375 76.6732 863.976 75.4856C863.966 74.2557 863.955 72.9836 863.924 71.6535C865.099 77.2538 864.721 68.9509 864.957 65.2455L865.366 68.5392L865.246 63.926C865.162 64.1265 865.083 64.3957 864.999 64.6755C865.057 64.1371 865.13 63.7676 865.235 63.6515L865.031 55.8712L864.595 62.3424L864.92 64.9341C864.753 65.4144 864.574 65.7206 864.349 65.1611C864.328 57.5127 865.665 48.302 866.573 50.6931C865.497 41.9574 866.032 18.9807 865.12 16.6054C863.142 15.7609 864.899 42.1316 863.084 45.0558L863.651 29.6324C861.957 21.0868 862.471 40.0942 862.334 46.4704L863.09 47.6105C863.263 53.9498 861.899 52.9575 861.915 58.0247C862.266 42.9761 860.887 30.9943 860.252 18.3843L858.327 20.3109C858.169 37.0644 858.961 52.3558 858.778 70.1491ZM863.992 110.608C864.317 108.607 864.558 106.343 864.621 104.622C864.406 106.48 864.202 108.539 863.992 110.608ZM865.403 63.662C865.34 63.5987 865.288 63.604 865.235 63.6515L865.246 63.926C865.298 63.7887 865.351 63.6779 865.403 63.662ZM864.8 337.477C865.083 329.792 863.557 325.004 864.905 320.877L863.105 326.345C864.023 328.72 863.882 332.536 864.8 337.477ZM865.004 252.089L865.723 240.487L864.852 250.822L865.004 252.089ZM864.144 573.314C863.525 570.881 863.048 562.061 862.02 571.203C863.347 562.008 862.681 591.445 864.144 573.314ZM862.843 339.166C862.549 341.784 863.011 345.5 863.021 348.018L863.614 342.782C863.751 338.96 863.153 339.055 862.843 339.166ZM861.789 492.27L863.174 500.9L864.516 496.773L861.789 492.27ZM875.999 19.3819C876.497 14.985 877.363 15.2647 878.134 14.5522L878.202 0.411438L877.064 1.54628C876.387 7.14135 875.301 10.6198 875.999 19.3819ZM875.548 548.216L873.455 558.598C872.547 556.239 872.238 553.779 871.918 548.733L872.343 537.189L870.837 540.039L870.481 522.257L867.496 533.125L867.895 566.136C867.176 572.528 866.903 579.722 866.835 587.302L875.317 595.874L875.548 548.216ZM866.232 341.219L865.445 332.484C864.569 340.317 865.786 345.136 865.518 357.946L868.062 348.498L867.433 340.961L868.445 333.83C867.989 335.503 867.391 335.323 867.055 333.777C867.16 337.113 865.959 334.975 866.232 341.219ZM855.951 288.599C855.568 283.073 855.012 282.191 854.477 283.627L854.366 305.812C855.756 306.509 857.398 311.502 855.951 288.599ZM859.691 427.969C860.472 426.972 860.703 423.915 860.734 420.163C860.241 422.733 859.843 425.198 859.691 427.969ZM854.707 276.132C855.127 264.593 855.893 268.257 855.405 256.898L854.608 256.296L854.534 270.89L854.707 276.132ZM856.973 344.202C857.598 354.231 858.484 343.895 859.533 342.37C858.762 338.717 858.647 350.251 858.007 340.174L858.605 334.964C857.524 328.826 858.028 345.247 856.973 344.202ZM860.005 348.672C859.365 356.569 859.79 371.137 858.589 374.061C858.584 373.581 858.584 372.974 858.62 372.145C858.558 372.99 858.516 373.655 858.489 374.225C858.337 374.494 858.169 374.642 857.965 374.547C858.133 375.508 858.301 375.882 858.468 375.83C858.552 377.888 859.234 375.803 859.239 379.672C859.759 373.095 859.061 376.093 858.736 375.376C859.533 373.037 860.231 362.333 860.341 361.314L860.005 348.672ZM853.086 570.105L853.071 573.383L853.538 573.847C853.548 573.546 853.564 573.261 853.574 572.95C853.48 570.897 853.307 570.195 853.086 570.105ZM857.136 400.242C856.816 395.201 857.388 382.343 856.627 381.256L855.604 392.91L856.496 387.616L857.136 400.242ZM858.127 326.118L858.547 317.108L856.737 317.509L858.127 326.118ZM858.211 356.664C858.059 355.471 856.559 358.316 856.428 364.687C857.335 364.507 857.786 365.7 858.211 356.664ZM1.86769 270.257L2.23488 267.95C2.49715 272.247 2.97974 275.045 4.10229 273.577C4.22818 267.169 5.89101 268.109 5.90675 273.155L7.20764 253.789C4.60586 240.36 5.56054 205.803 5.22483 195.605L6.2582 186.511L6.75128 202.916C8.55574 197.437 5.66545 191.689 7.15519 183.761C5.64972 186.643 4.92059 193.156 4.64782 205.903L4.80519 207.144C4.50094 209.767 3.91869 212.448 3.3207 215.119C2.69124 210.189 4.1967 207.323 3.13186 203.729C2.02505 206.331 3.263 217.099 2.12997 215.932L2.11947 218.402C2.48666 220.487 3.07941 220.598 4.09179 221.342C3.96066 225.153 4.56914 230.12 3.81903 231.598L2.29782 226.806C2.66501 232.691 2.44994 236.169 2.01981 238.55L1.86769 270.257ZM4.62159 391.786C4.78945 395.565 5.21958 389.078 5.36646 387.774C4.58487 379.044 5.47137 373.771 4.40128 367.638C3.81903 375.37 5.21434 386.608 4.62159 391.786ZM4.41702 278.581L3.81903 283.822L5.34548 286.06C5.35072 291.165 5.44514 269.434 4.41702 278.581ZM1.84146 275.261L1.83097 278.523L2.36601 274.823C2.16668 274.86 1.99883 275.039 1.84146 275.261ZM3.85575 305.712C3.7928 307.132 3.74559 308.018 3.74559 308.018C3.86099 307.496 3.88197 306.694 3.85575 305.712ZM4.44325 424.127L4.9678 406.93L4.36456 404.576L4.41702 424.285C4.0236 426.708 3.76657 431.368 3.76133 440.072C4.11278 405.99 7.34927 448.676 8.4928 417.027C7.70597 428.296 5.5553 417.639 4.44325 424.127ZM3.85575 305.712C4.00262 302.244 4.22293 295.525 3.98688 290.135C2.79615 294.522 3.74559 301.679 3.85575 305.712ZM876.041 445.91C875.128 451.426 874.546 466.216 874.572 475.569L875.354 484.31L873.701 488.491L873.665 525.424C874.383 513.822 874.021 540.667 874.236 515.12C874.782 519.475 875.275 525.186 875.627 531.457L876.041 445.91ZM4.19146 327.791C4.28588 327.353 4.35932 326.693 4.39604 325.717C4.34358 326.53 4.27539 327.205 4.19146 327.791ZM2.38175 307.026C1.37461 306.065 2.44994 323.949 1.57394 330.462L1.56869 331.639C2.09325 332.552 2.51289 337.989 2.93253 341.372C2.51289 331.38 3.6197 331.866 4.19146 327.791C3.90295 329.111 3.42561 328.493 3.20005 328.557C2.89057 326.06 2.58108 323.595 2.57059 318.475L4.22293 316.87C4.05508 310.542 2.12997 322.397 2.38175 307.026ZM876.319 146.49C876.193 147.06 876.078 147.746 875.978 148.485C876.293 147.414 876.518 145.878 876.319 146.49ZM875.286 85.7889L875.443 87.0452L875.71 76.7788L875.286 85.7889ZM871.315 141.159L871.037 148.855L871.477 142.436L871.928 143.571L871.315 141.159ZM875.899 127.916C876.156 126.675 876.424 125.582 876.702 124.722C876.34 125.144 876.088 126.311 875.899 127.916ZM873.135 193.05C873.565 186.548 874.719 218.165 875.401 196.36L874.95 195.188C875.186 180.942 874.625 158.081 875.973 148.485C875.585 149.778 875.055 150.375 874.966 145.498C875.385 139.85 875.401 132.238 875.899 127.916C874.525 134.603 873.549 146.126 873.324 154.793C873.785 155.928 874 180.113 873.135 193.05ZM873.623 393.169C873.355 403.446 873.051 403.499 873.397 416.204C873.371 408.518 873.791 397.006 873.623 393.169ZM875.369 541.655C874.614 540.504 874.095 519.01 872.936 534.518C872.946 539.585 873.806 524.125 874.436 534.165L873.722 545.835L875.369 541.655ZM872.71 458.13L872.553 456.879L872.28 467.114L872.71 458.13ZM862.523 179.955L861.532 176.028C862.02 179.427 861.894 190.227 862.523 179.955ZM864.055 167.16C864.8 163.159 864.459 150.47 863.258 153.267C863.42 157.073 862.974 158.493 862.665 161.043L864.055 167.16ZM862.203 358.659C860.845 360.216 860.881 370.377 860.435 376.854C860.614 383.198 861.264 398.368 859.89 394.758C860.504 397.191 860.955 395.856 861.416 399.545C859.995 401.609 860.797 412.403 860.734 420.163C862.072 413.153 864.113 405.251 863.945 387.606C865.088 364.423 861.359 381.768 862.203 358.659ZM869.122 163.27L868.482 153.231L867.449 159.802C867.784 172.481 868.807 160.821 869.432 165.74C871.094 169.256 869.793 188.611 871.026 195.98L870.554 187.207C871.152 187.033 871.456 189.561 871.913 188.163L871.797 199.664C873.576 189.129 871.409 171.726 872.589 161.312C872.07 139.76 870.491 166.87 869.122 163.27ZM861.228 201.886C862.439 201.607 861.815 196.703 862.403 188.918C861.343 187.846 861.212 196.788 861.228 201.886ZM861.532 176.028C861.469 175.584 861.395 175.268 861.306 175.136L861.532 176.028ZM867.055 333.777C867.029 333.091 866.961 332.193 866.798 330.927C866.804 332.125 866.903 333.085 867.055 333.777ZM9.5996 422.337C8.13085 432.831 6.48376 442.105 6.23197 457.422C7.29157 458.462 6.71456 466.295 8.06266 462.131C8.2515 476.14 7.16043 467.425 6.74603 476.451C7.28108 473.548 8.29871 471.917 8.65541 473.711C8.72884 469.103 9.45797 467.536 9.56813 464.369L8.67639 467.119C9.22717 459.713 9.35306 446.697 10.1714 454.013C9.71501 449.267 9.87762 443.815 10.57 442.49C10.2658 442.548 9.95105 440.072 9.35306 440.194C9.46846 426.159 11.3621 404.1 8.78655 403.356C8.80228 409.469 8.70262 413.675 8.52427 416.568C8.44559 427.331 9.72025 413.475 9.5996 422.337ZM868.445 333.83C868.645 333.085 868.813 331.987 868.917 330.467L868.445 333.83Z" fill="black"/>
</g>
</g>
</g>
</g>
<path d="M239.753 568.77C239.753 571.314 238.232 573.383 236.354 573.383H161.652C159.774 573.383 158.253 571.314 158.253 568.77C158.253 566.215 159.774 564.156 161.652 564.156H236.354C238.232 564.156 239.753 566.215 239.753 568.77Z" fill="#EEBDB5"/>
<path d="M354.52 568.77C354.52 571.314 352.999 573.383 351.126 573.383H276.424C274.547 573.383 273.025 571.314 273.025 568.77C273.025 566.215 274.547 564.156 276.424 564.156H351.126C352.999 564.156 354.52 566.215 354.52 568.77Z" fill="#BAE2DF"/>
<mask id="mask5_32_1424" style="mask-type:luminance" maskUnits="userSpaceOnUse" x="232" y="563" width="9" height="12">
<path d="M240.372 563.66H232.314V574.47H240.372V563.66Z" fill="white"/>
</mask>
<g mask="url(#mask5_32_1424)">
<mask id="mask6_32_1424" style="mask-type:luminance" maskUnits="userSpaceOnUse" x="232" y="563" width="9" height="11">
<path d="M232.908 563.764H240.32V573.82H232.908V563.764Z" fill="white"/>
</mask>
<g mask="url(#mask6_32_1424)">
<path d="M239.585 568.654C239.585 569.255 239.506 569.825 239.349 570.38C239.197 570.929 238.971 571.414 238.688 571.836C238.4 572.259 238.069 572.586 237.697 572.813C237.319 573.045 236.931 573.156 236.527 573.156C236.118 573.156 235.73 573.045 235.357 572.813C234.979 572.586 234.649 572.259 234.366 571.836C234.077 571.414 233.857 570.929 233.7 570.38C233.547 569.825 233.469 569.255 233.469 568.654C233.469 568.057 233.547 567.487 233.7 566.933C233.857 566.384 234.077 565.893 234.366 565.471C234.649 565.048 234.979 564.726 235.357 564.499C235.73 564.267 236.118 564.156 236.527 564.156C236.931 564.156 237.319 564.267 237.697 564.499C238.069 564.726 238.4 565.048 238.688 565.471C238.971 565.893 239.197 566.384 239.349 566.933C239.506 567.487 239.585 568.057 239.585 568.654Z" fill="#D6AAA3"/>
</g>
</g>
<mask id="mask7_32_1424" style="mask-type:luminance" maskUnits="userSpaceOnUse" x="346" y="563" width="10" height="12">
<path d="M355.858 563.66H346.458V574.47H355.858V563.66Z" fill="white"/>
</mask>
<g mask="url(#mask7_32_1424)">
<mask id="mask8_32_1424" style="mask-type:luminance" maskUnits="userSpaceOnUse" x="347" y="563" width="9" height="11">
<path d="M347.8 563.764H355.375V573.82H347.8V563.764Z" fill="white"/>
</mask>
<g mask="url(#mask8_32_1424)">
<path d="M354.52 568.722C354.52 569.329 354.441 569.91 354.284 570.469C354.121 571.029 353.896 571.525 353.602 571.953C353.308 572.38 352.967 572.713 352.585 572.945C352.196 573.177 351.798 573.293 351.378 573.293C350.964 573.293 350.565 573.177 350.177 572.945C349.794 572.713 349.453 572.38 349.159 571.953C348.865 571.525 348.64 571.029 348.477 570.469C348.32 569.91 348.241 569.329 348.241 568.722C348.241 568.12 348.32 567.535 348.477 566.975C348.64 566.416 348.865 565.919 349.159 565.492C349.453 565.064 349.794 564.737 350.177 564.505C350.565 564.273 350.964 564.156 351.378 564.156C351.798 564.156 352.196 564.273 352.585 564.505C352.967 564.737 353.308 565.064 353.602 565.492C353.896 565.919 354.121 566.416 354.284 566.975C354.441 567.535 354.52 568.12 354.52 568.722Z" fill="#A7CBC9"/>
</g>
</g>
<mask id="mask9_32_1424" style="mask-type:luminance" maskUnits="userSpaceOnUse" x="0" y="0" width="885" height="603">
<path d="M0 0H885V603H0V0Z" fill="white"/>
</mask>
<g mask="url(#mask9_32_1424)">
<mask id="mask10_32_1424" style="mask-type:luminance" maskUnits="userSpaceOnUse" x="-825" y="-419" width="2321" height="1314">
<path d="M1495.94 -418.706H-824.514V894.719H1495.94V-418.706Z" fill="black" fill-opacity="0.2"/>
</mask>
<g mask="url(#mask10_32_1424)">
<mask id="mask11_32_1424" style="mask-type:luminance" maskUnits="userSpaceOnUse" x="0" y="-2" width="887" height="607">
<path d="M886.285 -1.16663H0V604.198H886.285V-1.16663Z" fill="white"/>
</mask>
<g mask="url(#mask11_32_1424)">
<mask id="mask12_32_1424" style="mask-type:luminance" maskUnits="userSpaceOnUse" x="0" y="0" width="885" height="603">
<path d="M0.215332 0.18457H884.942V602.847H0.215332V0.18457Z" fill="white"/>
</mask>
<g mask="url(#mask12_32_1424)">
<path d="M878.201 0.411438L884.868 7.13079V602.593L875.316 595.874L878.201 0.411438ZM853.673 22.7442L25.4194 23.1665L32.0813 29.7538L853.658 29.4002L853.673 22.7442ZM25.2411 573.795H31.9344L32.0813 29.6219L25.4194 22.9025L25.2411 573.795ZM0.288086 595.874L6.94991 602.593H884.868L875.316 595.874H0.288086Z" fill="black"/>
</g>
</g>
</g>
</g>
<path d="M21.2236 18.1154H863.032V575.611H21.2236V18.1154Z" fill="white"/>
</svg>
